<svg width="16" height="16" viewBox="0 0 16 16" fill="none" xmlns="http://www.w3.org/2000/svg">
<path fill-rule="evenodd" clip-rule="evenodd" d="M7 2.5C7.38408 2.5 7.73416 2.64686 8 2.88574C8.26584 2.64686 8.61592 2.5 9 2.5H13C13.8229 2.5 14.5 3.1606 14.5 4V11.0098C14.5 11.8359 13.8261 12.5098 13 12.5098H9C8.72622 12.5098 8.50013 12.736 8.5 13.0098C8.5 13.2859 8.27614 13.5098 8 13.5098C7.72386 13.5098 7.5 13.2859 7.5 13.0098C7.49987 12.736 7.27378 12.5098 7 12.5098H3C2.17386 12.5098 1.5 11.8359 1.5 11.0098V4C1.5 3.1606 2.17713 2.5 3 2.5H7ZM9 3.5C8.7605 3.5 8.55693 3.67284 8.50977 3.89941L8.5 4V11.5967C8.65659 11.541 8.82471 11.5098 9 11.5098H13C13.2739 11.5098 13.5 11.2836 13.5 11.0098V4C13.5 3.7194 13.2771 3.5 13 3.5H9ZM3 3.5C2.72287 3.5 2.5 3.7194 2.5 4V11.0098C2.5 11.2836 2.72614 11.5098 3 11.5098H7C7.17526 11.5098 7.34343 11.541 7.5 11.5967V4C7.5 3.72614 7.27386 3.5 7 3.5H3Z" fill="currentColor"/>
</svg>
