<svg width="16" height="16" viewBox="0 0 16 16" fill="none" xmlns="http://www.w3.org/2000/svg">
<path fill-rule="evenodd" clip-rule="evenodd" d="M8 6.5C8.18938 6.5 8.36257 6.60698 8.44727 6.77637L10.4473 10.7764C10.5708 11.0234 10.4706 11.3238 10.2236 11.4473C9.97665 11.5707 9.67622 11.4706 9.55273 11.2236L9.19141 10.5H6.80859L6.44727 11.2236C6.32377 11.4706 6.02335 11.5708 5.77637 11.4473C5.5294 11.3238 5.42925 11.0233 5.55273 10.7764L7.55273 6.77637L7.58887 6.71582C7.68134 6.58198 7.83438 6.50001 8 6.5ZM7.30859 9.5H8.69141L8 8.11816L7.30859 9.5Z" fill="black"/>
<path fill-rule="evenodd" clip-rule="evenodd" d="M11 1.5C11.8261 1.5 12.5 2.17386 12.5 3V3.58691C13.0814 3.7937 13.5 4.34915 13.5 5V13C13.5 13.8229 12.8394 14.5 12 14.5H4C3.17386 14.5 2.5 13.8261 2.5 13V3C2.5 2.17386 3.17386 1.5 4 1.5H11ZM3.5 13C3.5 13.2739 3.72614 13.5 4 13.5H12C12.2806 13.5 12.5 13.2771 12.5 13V5C12.5 4.72614 12.2739 4.5 12 4.5H4C3.8246 4.5 3.65668 4.46787 3.5 4.41211V13ZM4 2.5C3.72614 2.5 3.5 2.72614 3.5 3C3.5 3.27386 3.72614 3.5 4 3.5H11.5V3C11.5 2.72614 11.2739 2.5 11 2.5H4Z" fill="black"/>
</svg>
