<svg width="16" height="16" viewBox="0 0 16 16" fill="none" xmlns="http://www.w3.org/2000/svg">
<path d="M8 10.5C8.27614 10.5 8.5 10.7239 8.5 11C8.5 11.2761 8.27614 11.5 8 11.5C7.72386 11.5 7.5 11.2761 7.5 11C7.5 10.7239 7.72386 10.5 8 10.5Z" fill="currentColor"/>
<path d="M7.99023 6.5C8.81627 6.50013 9.49023 7.17394 9.49023 8C9.49023 8.60852 9.07294 9.08407 8.58984 9.28711L8.59082 9.28809L8.5 9.32715V9.5C8.5 9.77606 8.27603 9.99987 8 10C7.72397 9.99987 7.5 9.77606 7.5 9.5V9.25C7.5 8.90461 7.70482 8.58226 8.03027 8.44141L8.18945 8.37207L8.2002 8.36719C8.39247 8.28775 8.49023 8.12717 8.49023 8C8.49023 7.72622 8.26398 7.50013 7.99023 7.5C7.75075 7.5 7.54719 7.67287 7.5 7.89941L7.48047 8.10059C7.43396 8.32848 7.23184 8.49988 6.99023 8.5C6.71409 8.5 6.49023 8.27614 6.49023 8C6.49023 7.17386 7.16409 6.5 7.99023 6.5Z" fill="currentColor"/>
<path fill-rule="evenodd" clip-rule="evenodd" d="M11 1.5C11.8261 1.5 12.5 2.17386 12.5 3V3.58691C13.0814 3.7937 13.5 4.34915 13.5 5V13C13.5 13.8229 12.8394 14.5 12 14.5H4C3.17386 14.5 2.5 13.8261 2.5 13V3C2.5 2.17386 3.17386 1.5 4 1.5H11ZM3.5 13C3.5 13.2739 3.72614 13.5 4 13.5H12C12.2806 13.5 12.5 13.2771 12.5 13V5C12.5 4.72614 12.2739 4.5 12 4.5H4C3.8246 4.5 3.65668 4.46787 3.5 4.41211V13ZM4 2.5C3.72614 2.5 3.5 2.72614 3.5 3C3.5 3.27386 3.72614 3.5 4 3.5H11.5V3C11.5 2.72614 11.2739 2.5 11 2.5H4Z" fill="currentColor"/>
</svg>
