<svg width="16" height="16" viewBox="0 0 16 16" fill="none" xmlns="http://www.w3.org/2000/svg">
<path fill-rule="evenodd" clip-rule="evenodd" d="M2.43555 3.11811C4.17587 2.19615 6.33582 2.27762 8.00098 3.37787C9.555 2.35987 11.5391 2.22153 13.2109 2.94916L13.5625 3.11713L13.5664 3.12006C14.1377 3.42673 14.5 4.02552 14.5 4.68061V12.1005C14.4997 12.87 13.7026 13.3148 13.0469 12.9872L13.043 12.9863C11.5389 12.2208 9.66608 12.358 8.30371 13.3974C8.29918 13.4009 8.29368 13.4029 8.28906 13.4062C8.27926 13.4132 8.2691 13.4194 8.25879 13.4257C8.24344 13.435 8.22796 13.4436 8.21191 13.4511C8.19976 13.4568 8.18747 13.462 8.1748 13.4667C8.16063 13.472 8.14634 13.4764 8.13184 13.4804C8.11703 13.4845 8.10224 13.4885 8.08691 13.4912C8.05812 13.4962 8.02914 13.499 8 13.499C7.99706 13.499 7.99414 13.499 7.99121 13.499C7.96597 13.4985 7.94097 13.4954 7.91602 13.4912C7.89931 13.4883 7.88329 13.4839 7.86719 13.4794C7.85408 13.4758 7.84097 13.4724 7.82812 13.4677C7.81197 13.4618 7.79657 13.4547 7.78125 13.4472C7.77066 13.442 7.76028 13.4366 7.75 13.4306C7.73563 13.4222 7.72142 13.4139 7.70801 13.4042C7.70495 13.402 7.70126 13.4007 7.69824 13.3984C6.32471 12.357 4.46051 12.221 2.95703 12.9863L2.95605 12.9853C2.30798 13.3168 1.50034 12.8693 1.5 12.1005V4.68061C1.5 4.02552 1.86228 3.42673 2.43359 3.12006L2.43555 3.11811ZM7.5 4.24799C6.1395 3.32135 4.34626 3.23813 2.9043 4.00189C2.657 4.13561 2.5 4.39661 2.5 4.68061V12.0956L2.50293 12.0947C4.06219 11.301 5.93694 11.3014 7.5 12.1015V4.24799ZM13.0928 4.00092C11.6508 3.24797 9.85953 3.33219 8.5 4.24994V12.0996C10.0579 11.3015 11.9366 11.302 13.4932 12.0927C13.4955 12.0939 13.4984 12.0941 13.5 12.0947V4.68061C13.5 4.39587 13.3412 4.13432 13.0928 4.00092Z" fill="currentColor"/>
</svg>
