<svg width="16" height="16" viewBox="0 0 16 16" fill="none" xmlns="http://www.w3.org/2000/svg">
<path d="M8.10059 7.50977C8.32855 7.55629 8.5 7.75829 8.5 8V10.5H9C9.27614 10.5 9.5 10.7239 9.5 11C9.5 11.2761 9.27614 11.5 9 11.5H7C6.72386 11.5 6.5 11.2761 6.5 11C6.5 10.7239 6.72386 10.5 7 10.5H7.5V8.5H7C6.72386 8.5 6.5 8.27614 6.5 8C6.5 7.72386 6.72386 7.5 7 7.5H8L8.10059 7.50977Z" fill="currentColor"/>
<path d="M8 6C8.27614 6 8.5 6.22386 8.5 6.5C8.5 6.77614 8.27614 7 8 7C7.72386 7 7.5 6.77614 7.5 6.5C7.5 6.22386 7.72386 6 8 6Z" fill="currentColor"/>
<path fill-rule="evenodd" clip-rule="evenodd" d="M11 1.5C11.8261 1.5 12.5 2.17386 12.5 3V3.58691C13.0814 3.7937 13.5 4.34915 13.5 5V13C13.5 13.8229 12.8394 14.5 12 14.5H4C3.17386 14.5 2.5 13.8261 2.5 13V3C2.5 2.17386 3.17386 1.5 4 1.5H11ZM3.5 13C3.5 13.2739 3.72614 13.5 4 13.5H12C12.2806 13.5 12.5 13.2771 12.5 13V5C12.5 4.72614 12.2739 4.5 12 4.5H4C3.8246 4.5 3.65668 4.46787 3.5 4.41211V13ZM4 2.5C3.72614 2.5 3.5 2.72614 3.5 3C3.5 3.27386 3.72614 3.5 4 3.5H11.5V3C11.5 2.72614 11.2739 2.5 11 2.5H4Z" fill="currentColor"/>
</svg>
