<svg width="16" height="16" viewBox="0 0 16 16" fill="none" xmlns="http://www.w3.org/2000/svg">
<path fill-rule="evenodd" clip-rule="evenodd" d="M10.1005 1.5C10.851 1.50018 11.525 1.97346 11.7646 2.69141L13.2753 7.23242C13.4575 7.76941 13.3556 8.35446 13.0361 8.7998L13.0371 8.80078L8.43648 15.2383C8.3516 15.3934 8.18928 15.5 7.99996 15.5C7.80813 15.5 7.64336 15.391 7.55953 15.2324L2.96382 8.80078L2.95992 8.7959C2.64594 8.3453 2.54227 7.77026 2.7275 7.22852L4.23628 2.69238C4.4759 1.9744 5.14986 1.50007 5.90035 1.5H10.1005ZM5.90035 2.5C5.61255 2.50006 5.35805 2.65818 5.2314 2.89941L5.18453 3.00781L3.67476 7.54785L3.67378 7.55176C3.59924 7.76967 3.63468 8.01446 3.78023 8.22363L7.49996 13.4297V8.41211C6.9178 8.20595 6.49996 7.6528 6.49996 7C6.49996 6.17159 7.17155 5.50002 7.99996 5.5C8.82838 5.5 9.49996 6.17157 9.49996 7C9.49996 7.65283 9.08216 8.20598 8.49996 8.41211V13.4297L12.2236 8.21973L12.2246 8.21777C12.3632 8.02454 12.4027 7.77289 12.3271 7.55176L12.3261 7.54785L10.8164 3.00781C10.7158 2.70643 10.4295 2.50018 10.1005 2.5H5.90035ZM7.99996 6.5C7.72383 6.50002 7.49996 6.72387 7.49996 7C7.49996 7.27613 7.72383 7.49998 7.99996 7.5C8.2761 7.5 8.49996 7.27614 8.49996 7C8.49996 6.72386 8.2761 6.5 7.99996 6.5Z" fill="black"/>
</svg>
