<svg width="16" height="16" viewBox="0 0 16 16" fill="none" xmlns="http://www.w3.org/2000/svg">
<path fill-rule="evenodd" clip-rule="evenodd" d="M12 1.5C12.8261 1.5 13.5 2.17386 13.5 3V13C13.5 13.8261 12.8261 14.5 12 14.5H3C2.72386 14.5 2.5 14.2761 2.5 14V2C2.5 1.72386 2.72386 1.5 3 1.5H12ZM5.5 13.5H12C12.2739 13.5 12.5 13.2739 12.5 13V3C12.5 2.72614 12.2739 2.5 12 2.5H11.5V7C11.5 7.20221 11.3782 7.38451 11.1914 7.46191C11.0046 7.5393 10.7895 7.49651 10.6465 7.35352L9.5 6.20703L8.35352 7.35352C8.21052 7.49651 7.99543 7.5393 7.80859 7.46191C7.62179 7.38451 7.5 7.20221 7.5 7V2.5H5.5V13.5ZM3.5 13.5H4.5V2.5H3.5V13.5ZM8.5 5.79297L9.14648 5.14648L9.22461 5.08203C9.41869 4.95387 9.68265 4.97562 9.85352 5.14648L10.5 5.79297V2.5H8.5V5.79297Z" fill="currentColor"/>
</svg>
