<svg width="16" height="16" viewBox="0 0 16 16" fill="none" xmlns="http://www.w3.org/2000/svg">
<path fill-rule="evenodd" clip-rule="evenodd" d="M7.03262 2.04539C7.62056 1.65349 8.39002 1.65247 8.97794 2.04442L13.3481 4.95457C14.0476 5.42164 14.0917 6.40582 13.4789 6.937L13.3481 7.0366L11.9008 7.9995L13.3481 8.96434C14.0942 9.46238 14.0944 10.5485 13.3481 11.0464L8.97794 13.9565C8.39016 14.3484 7.62051 14.3481 7.03262 13.9565L2.66348 11.0464C1.91662 10.5485 1.91662 9.46225 2.66348 8.96434L4.10587 7.99754L2.66348 7.0366C1.91662 6.53869 1.91662 5.45248 2.66348 4.95457L7.03262 2.04539ZM3.21915 9.79539L3.21817 9.79637C3.06504 9.89846 3.06504 10.1123 3.21817 10.2143L7.58731 13.1245L7.68594 13.1792C7.92152 13.2892 8.20288 13.2714 8.42325 13.1245L12.7934 10.2143L12.8432 10.1714C12.9436 10.0608 12.9268 9.88585 12.7934 9.79637L10.9984 8.60008L8.97794 9.94676C8.39015 10.3386 7.6205 10.3384 7.03262 9.94676L5.00723 8.59715L3.21915 9.79539ZM8.42325 2.87645C8.17123 2.70844 7.83935 2.70848 7.58731 2.87645L3.21719 5.78563C3.06407 5.88772 3.06504 6.10249 3.21817 6.20457L7.58731 9.11473L7.68594 9.16942C7.9215 9.27935 8.20291 9.26162 8.42325 9.11473L12.7934 6.20457C12.927 6.1153 12.9432 5.94024 12.8432 5.82957L12.7934 5.7866L8.42325 2.87645Z" fill="currentColor"/>
</svg>
