<svg width="16" height="16" viewBox="0 0 16 16" fill="none" xmlns="http://www.w3.org/2000/svg">
<path fill-rule="evenodd" clip-rule="evenodd" d="M7.03238 1.04539C7.62033 0.653428 8.38975 0.652451 8.9777 1.04442L13.3468 3.95457C14.0931 4.45263 14.0943 5.53878 13.3478 6.03661L12.6535 6.49754L13.3478 6.96434L13.4787 7.06395C14.0912 7.59532 14.0478 8.57952 13.3478 9.04637L12.6603 9.50243L13.3478 9.96434L13.4787 10.0639C14.0912 10.5953 14.0478 11.5795 13.3478 12.0464L8.9777 14.9565C8.38987 15.3484 7.62026 15.3482 7.03238 14.9565L2.66324 12.0464C1.9169 11.5488 1.91598 10.4637 2.66129 9.96532L3.34879 9.50243L2.66324 9.04637C1.9169 8.54881 1.91598 7.4637 2.66129 6.96532L3.3566 6.49754L2.66324 6.03661C1.9164 5.53871 1.91645 4.45251 2.66324 3.95457L7.03238 1.04539ZM8.9777 11.9565C8.38987 12.3484 7.62026 12.3482 7.03238 11.9565L4.25016 10.103L3.21891 10.7954L3.21793 10.7964C3.06488 10.8985 3.06482 11.1123 3.21793 11.2143L7.58707 14.1245L7.6857 14.1792C7.92129 14.2892 8.20259 14.2714 8.42301 14.1245L12.7931 11.2143L12.8429 11.1714C12.9434 11.0608 12.9267 10.8858 12.7931 10.7964L12.7912 10.7954L11.7599 10.102L8.9777 11.9565ZM8.9777 8.94676C8.38987 9.3386 7.62026 9.33849 7.03238 8.94676L4.25699 7.09715L3.21891 7.79539L3.21793 7.79637C3.06488 7.89848 3.06482 8.11227 3.21793 8.21434L4.50211 9.06981C4.51708 9.07855 4.53098 9.08874 4.54508 9.0991L7.58707 11.1245L7.6857 11.1792C7.92129 11.2892 8.20259 11.2714 8.42301 11.1245L11.4601 9.10106C11.4762 9.08898 11.4927 9.0778 11.5099 9.06785L12.7931 8.21434L12.8429 8.17137C12.9434 8.0608 12.9267 7.88582 12.7931 7.79637L12.7912 7.79539L11.7531 7.09715L8.9777 8.94676ZM8.42301 1.87645C8.17096 1.70842 7.83912 1.70842 7.58707 1.87645L3.21695 4.78563C3.0639 4.88774 3.06482 5.1025 3.21793 5.20457L7.58707 8.11473L7.6857 8.16942C7.92127 8.27944 8.20262 8.26161 8.42301 8.11473L12.7931 5.20457C12.9269 5.11529 12.9431 4.94025 12.8429 4.82957L12.7931 4.78661L8.42301 1.87645Z" fill="currentColor"/>
</svg>
