<svg width="16" height="16" viewBox="0 0 16 16" fill="none" xmlns="http://www.w3.org/2000/svg">
<path fill-rule="evenodd" clip-rule="evenodd" d="M6.31543 4.05176C6.50941 3.92411 6.77272 3.94578 6.94336 4.11621L9.06055 6.2334L10.4775 4.8252C10.6206 4.68306 10.8352 4.6406 11.0215 4.71777C11.2079 4.79529 11.33 4.97783 11.3301 5.17969V10.8301C11.3299 11.106 11.106 11.33 10.8301 11.3301H5.16992C4.96752 11.3301 4.78527 11.2076 4.70801 11.0205C4.63095 10.8335 4.67402 10.6183 4.81738 10.4756L6.23145 9.06836L4.10645 6.94336C4.01263 6.84946 3.9598 6.72161 3.95996 6.58887C3.96025 6.45624 4.01341 6.32892 4.10742 6.23535L6.2373 4.11523L6.31543 4.05176ZM5.16699 6.58984L7.29395 8.71582C7.38777 8.80967 7.43954 8.93762 7.43945 9.07031C7.43926 9.2029 7.38682 9.33021 7.29297 9.42383L6.38184 10.3301H10.3301V6.38086L9.41211 7.29395C9.21668 7.48824 8.90092 7.48783 8.70605 7.29297L6.58887 5.17578L5.16699 6.58984Z" fill="black"/>
<path fill-rule="evenodd" clip-rule="evenodd" d="M8 1.5C11.5899 1.5 14.5 4.41015 14.5 8C14.5 11.5899 11.5899 14.5 8 14.5C4.41015 14.5 1.5 11.5899 1.5 8C1.5 4.41015 4.41015 1.5 8 1.5ZM8 2.5C4.96243 2.5 2.5 4.96243 2.5 8C2.5 11.0376 4.96243 13.5 8 13.5C11.0376 13.5 13.5 11.0376 13.5 8C13.5 4.96243 11.0376 2.5 8 2.5Z" fill="black"/>
</svg>
