<svg width="16" height="16" viewBox="0 0 16 16" fill="none" xmlns="http://www.w3.org/2000/svg">
<path d="M12.6465 4.64647C12.7895 4.50347 13.0046 4.46068 13.1914 4.53807C13.3782 4.61548 13.5 4.79778 13.5 4.99999V11C13.5 11.2761 13.2761 11.5 13 11.5H7C6.79779 11.5 6.61549 11.3782 6.53809 11.1914C6.4607 11.0046 6.50349 10.7895 6.64649 10.6465L8.2627 9.02928C7.0268 8.08669 5.65492 8.10151 4.50195 8.40331C3.86265 8.57069 3.30567 8.82362 2.90723 9.03612C2.70882 9.14194 2.55138 9.23639 2.44531 9.3037C2.39237 9.33729 2.35218 9.36416 2.32617 9.38182C2.31325 9.39059 2.30361 9.39732 2.29785 9.40135C2.29509 9.40329 2.29299 9.40455 2.29199 9.40526C2.09877 9.54438 1.83468 9.52815 1.66016 9.3662C1.48564 9.20417 1.44881 8.94131 1.57324 8.73827C2.63438 7.00684 3.77493 5.96798 4.91797 5.41502C6.06545 4.85997 7.17506 4.81464 8.13281 4.99999C9.08291 5.1839 9.88278 5.59381 10.4395 5.95018C10.6498 6.08486 10.8269 6.21558 10.9678 6.3242L12.6465 4.64647ZM7.94238 5.98241C7.16265 5.83152 6.27788 5.86829 5.35352 6.31542C4.80693 6.57983 4.23233 6.99463 3.65039 7.6201C3.84004 7.55365 4.03976 7.49105 4.24805 7.43651C5.72243 7.05049 7.67717 7.03691 9.34668 8.63963C9.44338 8.73266 9.49863 8.86091 9.5 8.9951C9.50131 9.12939 9.44848 9.25853 9.35352 9.3535L8.20703 10.5H12.5V6.20702L11.3535 7.3535C11.1852 7.52179 10.9261 7.54567 10.7324 7.42284L10.6543 7.36131C10.653 7.36013 10.65 7.35774 10.6465 7.35448C10.6394 7.34797 10.6281 7.33725 10.6123 7.32323C10.5805 7.29506 10.5315 7.25267 10.4668 7.20018C10.3368 7.09477 10.1439 6.9489 9.90039 6.79295C9.41026 6.47914 8.7293 6.1347 7.94238 5.98241Z" fill="currentColor"/>
</svg>
