<svg width="16" height="16" viewBox="0 0 16 16" fill="none" xmlns="http://www.w3.org/2000/svg">
<path fill-rule="evenodd" clip-rule="evenodd" d="M9.66016 3.00977C9.79265 3.00981 9.91995 3.06259 10.0137 3.15625L12.8438 5.98633C13.0388 6.18154 13.0388 6.49813 12.8438 6.69336L9.65723 9.87988L11.4238 11.6465C11.5666 11.7894 11.6094 12.0047 11.5322 12.1914C11.4548 12.3781 11.2724 12.4999 11.0703 12.5H4C3.72393 12.5 3.50012 12.276 3.5 12V4.92969L3.50586 4.85547C3.53168 4.68398 3.64508 4.53552 3.80859 4.46777C3.99534 4.39046 4.21054 4.43332 4.35352 4.57617L6.12012 6.34277L9.30664 3.15625L9.38281 3.09375C9.4643 3.03949 9.56081 3.00977 9.66016 3.00977ZM6.47363 7.40332C6.37989 7.49706 6.25268 7.54977 6.12012 7.5498C5.98754 7.5498 5.86036 7.49704 5.7666 7.40332L4.5 6.13672V11.5H9.86328L8.59668 10.2334C8.50301 10.1397 8.45022 10.0124 8.4502 9.87988C8.45026 9.74736 8.50297 9.62008 8.59668 9.52637L11.7832 6.33984L9.66016 4.2168L6.47363 7.40332Z" fill="currentColor"/>
</svg>
