<svg width="16" height="16" viewBox="0 0 16 16" fill="none" xmlns="http://www.w3.org/2000/svg">
<path fill-rule="evenodd" clip-rule="evenodd" d="M7.6465 0.646523C7.84176 0.451261 8.15827 0.451261 8.35353 0.646523L12.3535 4.64652C12.4965 4.78952 12.5393 5.00462 12.4619 5.19144C12.3845 5.37822 12.2022 5.50003 12 5.50004H10V10.5H12C12.2022 10.5 12.3845 10.6218 12.4619 10.8086C12.5393 10.9955 12.4965 11.2106 12.3535 11.3536L8.35353 15.3536C8.15828 15.5488 7.84176 15.5488 7.6465 15.3536L3.6465 11.3536C3.50351 11.2106 3.46073 10.9955 3.5381 10.8086C3.6155 10.6218 3.7978 10.5 4.00001 10.5H6.00001V5.50004H4.00001C3.79782 5.50004 3.61551 5.37822 3.5381 5.19144C3.46071 5.00461 3.50351 4.78952 3.6465 4.64652L7.6465 0.646523ZM5.20704 4.50004H6.50001C6.77615 4.50005 7.00001 4.7239 7.00001 5.00004V11C6.99999 11.2762 6.77613 11.5 6.50001 11.5H5.20704L8.00001 14.293L10.793 11.5H9.50001C9.22389 11.5 9.00004 11.2762 9.00001 11V5.00004C9.00001 4.7239 9.22387 4.50004 9.50001 4.50004H10.793L8.00001 1.70707L5.20704 4.50004Z" fill="currentColor"/>
</svg>
