<svg width="16" height="16" viewBox="0 0 16 16" fill="none" xmlns="http://www.w3.org/2000/svg">
<path d="M7.72465 7.58182C7.91869 7.45377 8.18273 7.47552 8.35356 7.64628L11.3536 10.6463C11.5488 10.8415 11.5487 11.158 11.3536 11.3533C11.1583 11.5486 10.8418 11.5486 10.6465 11.3533L8.00005 8.70682L5.35356 11.3533C5.1583 11.5486 4.84179 11.5486 4.64653 11.3533C4.45135 11.158 4.45129 10.8415 4.64653 10.6463L7.64653 7.64628L7.72465 7.58182Z" fill="black"/>
<path d="M7.72465 3.58182C7.91869 3.45377 8.18273 3.47552 8.35356 3.64628L11.3536 6.64628C11.5488 6.8415 11.5487 7.15804 11.3536 7.35331C11.1583 7.54857 10.8418 7.54857 10.6465 7.35331L8.00005 4.70682L5.35356 7.35331C5.1583 7.54857 4.84179 7.54857 4.64653 7.35331C4.45135 7.15804 4.45129 6.84151 4.64653 6.64628L7.64653 3.64628L7.72465 3.58182Z" fill="black"/>
</svg>
