<svg width="16" height="16" viewBox="0 0 16 16" fill="none" xmlns="http://www.w3.org/2000/svg">
<path d="M5.64648 4.64648C5.84175 4.45122 6.15825 4.45122 6.35352 4.64648C6.54877 4.84175 6.54878 5.15826 6.35352 5.35352L4.20703 7.5H13C13.2761 7.5 13.5 7.72386 13.5 8C13.5 8.27614 13.2761 8.5 13 8.5H4.20703L6.35352 10.6465C6.54877 10.8417 6.54878 11.1583 6.35352 11.3535C6.15826 11.5488 5.84175 11.5488 5.64648 11.3535L3.5 9.20703V11C3.5 11.2761 3.27614 11.5 3 11.5C2.72386 11.5 2.5 11.2761 2.5 11V5C2.5 4.72386 2.72386 4.5 3 4.5C3.27614 4.5 3.5 4.72386 3.5 5V6.79297L5.64648 4.64648Z" fill="black"/>
</svg>
