<svg width="16" height="16" viewBox="0 0 16 16" fill="none" xmlns="http://www.w3.org/2000/svg">
<path fill-rule="evenodd" clip-rule="evenodd" d="M7.64652 2.6465C7.78952 2.50351 8.00461 2.46071 8.19144 2.5381C8.37822 2.61551 8.50004 2.79782 8.50004 3.00001V5.50001H13C13.2762 5.50004 13.5 5.72389 13.5 6.00001V10C13.5 10.2761 13.2762 10.5 13 10.5H8.50004V13C8.50003 13.2022 8.37822 13.3845 8.19144 13.4619C8.00462 13.5393 7.78952 13.4965 7.64652 13.3535L2.64652 8.35353C2.45126 8.15827 2.45126 7.84176 2.64652 7.6465L7.64652 2.6465ZM3.70707 8.00001L7.50004 11.793V10C7.50004 9.72387 7.7239 9.50001 8.00004 9.50001H12.5V6.50001H8.00004C7.7239 6.50001 7.50005 6.27615 7.50004 6.00001V4.20704L3.70707 8.00001Z" fill="currentColor"/>
</svg>
