<svg width="16" height="16" viewBox="0 0 16 16" fill="none" xmlns="http://www.w3.org/2000/svg">
<path d="M4 7.5C4.27614 7.5 4.5 7.72386 4.5 8C4.5 8.89368 4.84156 9.79469 5.52344 10.4766C6.8875 11.8406 9.1019 11.8423 10.4775 10.4756L10.793 10.1602H9.16992C8.89386 10.1601 8.66999 9.93622 8.66992 9.66016C8.66992 9.38404 8.89381 9.1602 9.16992 9.16016H12C12.0327 9.16016 12.0655 9.16258 12.0977 9.16895C12.1488 9.17905 12.196 9.19924 12.2402 9.22363C12.2806 9.24585 12.3193 9.27246 12.3535 9.30664C12.3874 9.3405 12.4134 9.37906 12.4355 9.41895C12.4601 9.46316 12.48 9.51038 12.4902 9.56152C12.4947 9.58375 12.4957 9.60636 12.4971 9.62891C12.4977 9.63924 12.5 9.64966 12.5 9.66016V12.4902C12.4999 12.7663 12.276 12.9902 12 12.9902C11.724 12.9902 11.5001 12.7663 11.5 12.4902V10.8672L11.1826 11.1846C9.41824 12.9377 6.57229 12.9395 4.81641 11.1836C3.93828 10.3055 3.5 9.14632 3.5 8C3.5 7.72386 3.72386 7.5 4 7.5Z" fill="black"/>
<path d="M4 3.00977C4.27606 3.00977 4.49987 3.23374 4.5 3.50977V5.13281L4.81738 4.81543C6.58176 3.06229 9.42771 3.06052 11.1836 4.81641C12.0617 5.69453 12.5 6.85368 12.5 8C12.5 8.27614 12.2761 8.5 12 8.5C11.7239 8.5 11.5 8.27614 11.5 8C11.5 7.10632 11.1584 6.20531 10.4766 5.52344C9.1125 4.15937 6.8981 4.1577 5.52246 5.52441L5.20703 5.83984H6.83008C7.1061 5.83988 7.32995 6.06384 7.33008 6.33984C7.33003 6.61592 7.10616 6.8398 6.83008 6.83984H4C3.96695 6.83984 3.93389 6.83659 3.90137 6.83008C3.85022 6.81984 3.80301 6.79995 3.75879 6.77539C3.71891 6.75328 3.68034 6.72721 3.64648 6.69336C3.61447 6.66134 3.5889 6.62537 3.56738 6.58789C3.54081 6.54161 3.51946 6.49156 3.50879 6.4375C3.50242 6.40534 3.5 6.37251 3.5 6.33984V3.50977C3.50013 3.23374 3.72394 3.00977 4 3.00977Z" fill="black"/>
</svg>
