<svg width="16" height="16" viewBox="0 0 16 16" fill="none" xmlns="http://www.w3.org/2000/svg">
<path d="M6 2.5C6.27614 2.5 6.5 2.72386 6.5 3C6.5 3.27614 6.27614 3.5 6 3.5H4C3.72614 3.5 3.5 3.72614 3.5 4V12C3.5 12.2739 3.72614 12.5 4 12.5H12C12.2739 12.5 12.5 12.2739 12.5 12V10C12.5 9.72386 12.7239 9.5 13 9.5C13.2761 9.5 13.5 9.72386 13.5 10V12C13.5 12.8261 12.8261 13.5 12 13.5H4C3.17386 13.5 2.5 12.8261 2.5 12V4C2.5 3.17386 3.17386 2.5 4 2.5H6Z" fill="black"/>
<path d="M12.6465 2.64648C12.8417 2.45122 13.1583 2.45122 13.3535 2.64648C13.5488 2.84175 13.5488 3.15825 13.3535 3.35352L7.20703 9.5H10C10.2761 9.5 10.5 9.72386 10.5 10C10.5 10.2761 10.2761 10.5 10 10.5H6C5.96695 10.5 5.93389 10.4967 5.90137 10.4902C5.85024 10.48 5.80299 10.4601 5.75879 10.4355C5.71891 10.4134 5.68034 10.3874 5.64648 10.3535C5.6123 10.3193 5.58569 10.2805 5.56348 10.2402C5.53909 10.196 5.51889 10.1488 5.50879 10.0977C5.50242 10.0655 5.5 10.0327 5.5 10V6C5.5 5.72386 5.72386 5.5 6 5.5C6.27614 5.5 6.5 5.72386 6.5 6V8.79297L12.6465 2.64648Z" fill="black"/>
</svg>
