<svg width="16" height="16" viewBox="0 0 16 16" fill="none" xmlns="http://www.w3.org/2000/svg">
<path d="M10.1182 5.37012C10.3943 5.36947 10.6185 5.593 10.6191 5.86914L10.6299 10.1094C10.6301 10.2482 10.5739 10.374 10.4824 10.4648C10.4498 10.4973 10.4123 10.5214 10.374 10.543C10.3292 10.5683 10.2815 10.5891 10.2295 10.5996C10.1976 10.606 10.1653 10.6102 10.1328 10.6104L5.8916 10.6299C5.61596 10.6308 5.39119 10.4085 5.38965 10.1328C5.38835 9.8568 5.61172 9.63138 5.8877 9.62988L8.9209 9.61523L5.51855 6.24512C5.32259 6.05086 5.32064 5.73425 5.51465 5.53809C5.70887 5.34229 6.02555 5.34033 6.22168 5.53418L9.62598 8.90625L9.62012 5.87109C9.61958 5.59526 9.84239 5.37112 10.1182 5.37012Z" fill="black"/>
<path fill-rule="evenodd" clip-rule="evenodd" d="M8 1.5C11.5899 1.5 14.5 4.41015 14.5 8C14.5 11.5899 11.5899 14.5 8 14.5C4.41015 14.5 1.5 11.5899 1.5 8C1.5 4.41015 4.41015 1.5 8 1.5ZM8 2.5C4.96243 2.5 2.5 4.96243 2.5 8C2.5 11.0376 4.96243 13.5 8 13.5C11.0376 13.5 13.5 11.0376 13.5 8C13.5 4.96243 11.0376 2.5 8 2.5Z" fill="black"/>
</svg>
