<svg width="16" height="16" viewBox="0 0 16 16" fill="none" xmlns="http://www.w3.org/2000/svg">
<path d="M10.1201 5.37988C10.3961 5.38001 10.6201 5.60388 10.6201 5.87988C10.6201 6.15594 10.3961 6.37975 10.1201 6.37988H7.08496L10.4736 9.77637C10.6686 9.97184 10.6681 10.2884 10.4727 10.4834C10.2772 10.6784 9.96066 10.6788 9.76562 10.4834L6.37988 7.08887V10.1299C6.37988 10.406 6.15603 10.6299 5.87988 10.6299C5.6038 10.6298 5.37988 10.406 5.37988 10.1299V5.87988C5.3799 5.79122 5.40482 5.70891 5.44531 5.63672C5.46724 5.59755 5.49307 5.55966 5.52637 5.52637C5.55786 5.49495 5.5931 5.46954 5.62988 5.44824C5.67631 5.42129 5.7269 5.40053 5.78125 5.38965C5.81375 5.38314 5.84686 5.3799 5.87988 5.37988H10.1201Z" fill="currentColor"/>
<path fill-rule="evenodd" clip-rule="evenodd" d="M8 1.5C11.5899 1.5 14.5 4.41015 14.5 8C14.5 11.5899 11.5899 14.5 8 14.5C4.41015 14.5 1.5 11.5899 1.5 8C1.5 4.41015 4.41015 1.5 8 1.5ZM8 2.5C4.96243 2.5 2.5 4.96243 2.5 8C2.5 11.0376 4.96243 13.5 8 13.5C11.0376 13.5 13.5 11.0376 13.5 8C13.5 4.96243 11.0376 2.5 8 2.5Z" fill="currentColor"/>
</svg>
