<svg width="16" height="16" viewBox="0 0 16 16" fill="none" xmlns="http://www.w3.org/2000/svg">
<path fill-rule="evenodd" clip-rule="evenodd" d="M10.8086 3.5381C10.9954 3.46072 11.2105 3.50351 11.3535 3.6465L15.3535 7.6465C15.5488 7.84176 15.5488 8.15827 15.3535 8.35353L11.3535 12.3535C11.2105 12.4965 10.9954 12.5393 10.8086 12.4619C10.6218 12.3845 10.5 12.2022 10.5 12V10H5.50002V12C5.50002 12.2022 5.37821 12.3845 5.19143 12.4619C5.0046 12.5393 4.78951 12.4965 4.64651 12.3535L0.646508 8.35353C0.451246 8.15827 0.451246 7.84176 0.646508 7.6465L4.64651 3.6465C4.78951 3.50351 5.0046 3.46071 5.19143 3.5381C5.37821 3.61551 5.50002 3.79782 5.50002 4.00001V6.00001H10.5V4.00001C10.5 3.79781 10.6218 3.6155 10.8086 3.5381ZM11.5 6.50001C11.5 6.77614 11.2761 6.99999 11 7.00001H5.00002C4.72389 7.00001 4.50003 6.77615 4.50002 6.50001V5.20704L1.70705 8.00001L4.50002 10.793V9.50001C4.50002 9.22387 4.72388 9.00001 5.00002 9.00001H11C11.2761 9.00003 11.5 9.22388 11.5 9.50001V10.793L14.293 8.00001L11.5 5.20704V6.50001Z" fill="black"/>
</svg>
