<svg width="16" height="16" viewBox="0 0 16 16" fill="none" xmlns="http://www.w3.org/2000/svg">
<path d="M7.64653 3.64651C7.84179 3.45125 8.15829 3.45125 8.35356 3.64651C8.54878 3.84177 8.5488 4.15829 8.35356 4.35354L7.20707 5.50002H10.5C12.1562 5.50004 13.5 6.84389 13.5 8.50002C13.5 10.1561 12.1562 11.5 10.5 11.5H4.00004C3.72391 11.5 3.50006 11.2761 3.50004 11C3.50004 10.7239 3.7239 10.5 4.00004 10.5H10.5C11.6039 10.5 12.5 9.60385 12.5 8.50002C12.5 7.39618 11.6039 6.50004 10.5 6.50002H7.20707L8.35356 7.64651C8.54878 7.84177 8.5488 8.15829 8.35356 8.35354C8.15831 8.54878 7.84179 8.54876 7.64653 8.35354L5.64653 6.35354C5.45126 6.15828 5.45127 5.84177 5.64653 5.64651L7.64653 3.64651Z" fill="black"/>
<path d="M4.64653 3.64651C4.84179 3.45125 5.15829 3.45125 5.35356 3.64651C5.54878 3.84177 5.5488 4.15829 5.35356 4.35354L3.70707 6.00002L5.35356 7.64651C5.54878 7.84177 5.5488 8.15829 5.35356 8.35354C5.15831 8.54878 4.84179 8.54876 4.64653 8.35354L2.64653 6.35354C2.45126 6.15828 2.45127 5.84177 2.64653 5.64651L4.64653 3.64651Z" fill="black"/>
</svg>
