<svg width="16" height="16" viewBox="0 0 16 16" fill="none" xmlns="http://www.w3.org/2000/svg">
<path d="M12 3.5C12.2762 3.50002 12.5 3.72387 12.5 4C12.5 4.27613 12.2762 4.49998 12 4.5H8.00004C7.72618 4.5 7.50004 4.72614 7.50004 5V11.793L9.64652 9.64648C9.84179 9.45124 10.1583 9.45123 10.3536 9.64648C10.5488 9.84174 10.5488 10.1583 10.3536 10.3535L7.35355 13.3535C7.3195 13.3876 7.28042 13.4134 7.24027 13.4355C7.19601 13.46 7.14888 13.4801 7.09769 13.4902C7.03294 13.5031 6.96615 13.5032 6.90141 13.4902C6.85028 13.48 6.80303 13.4601 6.75883 13.4355C6.71894 13.4134 6.68038 13.3874 6.64652 13.3535L3.64652 10.3535C3.45126 10.1583 3.45126 9.84175 3.64652 9.64648C3.84179 9.45124 4.1583 9.45123 4.35355 9.64648L6.50004 11.793V5C6.50004 4.17386 7.1739 3.5 8.00004 3.5H12Z" fill="currentColor"/>
</svg>
