<svg width="16" height="16" viewBox="0 0 16 16" fill="none" xmlns="http://www.w3.org/2000/svg">
<path d="M7.01566 2.50098C7.03629 2.50164 7.05676 2.50363 7.07719 2.50684C7.09074 2.50894 7.10406 2.51148 7.11723 2.51465C7.13414 2.51873 7.15054 2.52441 7.16703 2.53027C7.17814 2.53422 7.1895 2.53729 7.20023 2.54199C7.21606 2.54892 7.23095 2.55777 7.24613 2.56641C7.25939 2.57395 7.27273 2.58116 7.28519 2.58984C7.30912 2.60653 7.33222 2.62515 7.35355 2.64648L10.3536 5.64648C10.5488 5.84174 10.5488 6.15826 10.3536 6.35352C10.1583 6.54877 9.84179 6.54876 9.64652 6.35352L7.50004 4.20703V11C7.50004 11.2739 7.72618 11.5 8.00004 11.5H12C12.2762 11.5 12.5 11.7239 12.5 12C12.5 12.2761 12.2762 12.5 12 12.5H8.00004C7.1739 12.5 6.50004 11.8261 6.50004 11V4.20703L4.35355 6.35352C4.1583 6.54877 3.84179 6.54876 3.64652 6.35352C3.45126 6.15825 3.45126 5.84175 3.64652 5.64648L6.64652 2.64648L6.72465 2.58203C6.75 2.56529 6.77637 2.55069 6.80375 2.53906C6.80752 2.53745 6.81165 2.53667 6.81547 2.53516C6.84065 2.5252 6.86642 2.51743 6.89262 2.51172C6.90096 2.50989 6.90952 2.50922 6.91801 2.50781C6.94071 2.50408 6.96342 2.50157 6.98637 2.50098C6.9909 2.50085 6.99547 2.5 7.00004 2.5C7.00527 2.5 7.01047 2.50082 7.01566 2.50098Z" fill="black"/>
</svg>
