<svg width="16" height="16" viewBox="0 0 16 16" fill="none" xmlns="http://www.w3.org/2000/svg">
<path d="M9.64648 3.64651C9.84175 3.45125 10.1583 3.45125 10.3535 3.64651L13.3535 6.64651C13.3868 6.67982 13.4126 6.71769 13.4346 6.75686C13.4596 6.80158 13.4799 6.84952 13.4902 6.90139C13.5032 6.96613 13.5031 7.03292 13.4902 7.09768C13.4801 7.14886 13.46 7.19599 13.4355 7.24026C13.4134 7.28041 13.3876 7.31948 13.3535 7.35354L10.3535 10.3535C10.1583 10.5488 9.84174 10.5488 9.64648 10.3535C9.45123 10.1583 9.45124 9.84177 9.64648 9.64651L11.793 7.50002H5C4.72614 7.50002 4.5 7.72617 4.5 8.00002V12C4.49998 12.2761 4.27613 12.5 4 12.5C3.72387 12.5 3.50002 12.2761 3.5 12V8.00002C3.5 7.17388 4.17386 6.50002 5 6.50002H11.793L9.64648 4.35354C9.45123 4.15828 9.45124 3.84177 9.64648 3.64651Z" fill="black"/>
</svg>
