<svg width="16" height="16" viewBox="0 0 16 16" fill="none" xmlns="http://www.w3.org/2000/svg">
<path d="M13 7.5C13.2761 7.5 13.5 7.72386 13.5 8V12C13.5 12.8261 12.8261 13.5 12 13.5H4C3.17386 13.5 2.5 12.8261 2.5 12V8C2.5 7.72386 2.72386 7.5 3 7.5C3.27614 7.5 3.5 7.72386 3.5 8V12C3.5 12.2739 3.72614 12.5 4 12.5H12C12.2739 12.5 12.5 12.2739 12.5 12V8C12.5 7.72386 12.7239 7.5 13 7.5Z" fill="currentColor"/>
<path d="M8.01562 2.50098C8.03625 2.50164 8.05672 2.50363 8.07715 2.50684C8.0907 2.50894 8.10402 2.51148 8.11719 2.51465C8.13539 2.51905 8.15318 2.52479 8.1709 2.53125C8.18031 2.53468 8.19008 2.53705 8.19922 2.54102C8.20309 2.5427 8.2071 2.54411 8.21094 2.5459L8.2793 2.58496C8.2814 2.58638 8.28308 2.5884 8.28516 2.58984C8.30909 2.60653 8.33217 2.62514 8.35352 2.64648L10.3535 4.64648C10.5488 4.84175 10.5488 5.15826 10.3535 5.35352C10.1583 5.54878 9.84175 5.54877 9.64648 5.35352L8.5 4.20703V10C8.5 10.2761 8.27614 10.5 8 10.5C7.72386 10.5 7.5 10.2761 7.5 10V4.20703L6.35352 5.35352C6.15826 5.54878 5.84175 5.54877 5.64648 5.35352C5.45122 5.15825 5.45122 4.84175 5.64648 4.64648L7.64648 2.64648L7.72461 2.58203C7.74996 2.56529 7.77633 2.55069 7.80371 2.53906C7.80748 2.53745 7.81161 2.53667 7.81543 2.53516C7.84061 2.52519 7.86638 2.51743 7.89258 2.51172C7.90092 2.50989 7.90948 2.50922 7.91797 2.50781C7.94067 2.50408 7.96338 2.50157 7.98633 2.50098C7.99088 2.50085 7.99542 2.5 8 2.5C8.00524 2.5 8.01043 2.50082 8.01562 2.50098Z" fill="currentColor"/>
</svg>
