<svg width="16" height="16" viewBox="0 0 16 16" fill="none" xmlns="http://www.w3.org/2000/svg">
<path d="M12.0001 3.5C12.2762 3.50007 12.5001 3.7239 12.5001 4V8C12.5001 8.8261 11.8262 9.49993 11.0001 9.5H4.20715L6.35363 11.6465C6.5488 11.8417 6.54881 12.1583 6.35363 12.3535C6.15839 12.5488 5.84187 12.5487 5.6466 12.3535L2.6466 9.35352C2.45134 9.15825 2.45134 8.84175 2.6466 8.64648L5.6466 5.64648C5.84187 5.45128 6.15839 5.45124 6.35363 5.64648C6.5488 5.84173 6.54881 6.15827 6.35363 6.35352L4.20715 8.5H11.0001C11.2739 8.49993 11.5001 8.27382 11.5001 8V4C11.5001 3.72386 11.724 3.5 12.0001 3.5Z" fill="currentColor"/>
</svg>
