<svg width="16" height="16" viewBox="0 0 16 16" fill="none" xmlns="http://www.w3.org/2000/svg">
<path d="M10.1201 5.37988C10.1528 5.37987 10.1856 5.38328 10.2178 5.38965C10.2697 5.39994 10.3175 5.42031 10.3623 5.44531C10.4018 5.46731 10.4401 5.49286 10.4736 5.52637C10.5074 5.56019 10.5336 5.59883 10.5557 5.63867C10.5802 5.68287 10.6001 5.73013 10.6104 5.78125C10.6155 5.80702 10.6171 5.8332 10.6182 5.85938C10.6184 5.8662 10.6201 5.87299 10.6201 5.87988V10.1201C10.62 10.3961 10.3961 10.62 10.1201 10.6201C9.84411 10.6201 9.62025 10.3961 9.62012 10.1201V7.08691L6.2334 10.4736C6.03817 10.6687 5.7216 10.6687 5.52637 10.4736C5.33126 10.2784 5.33127 9.96183 5.52637 9.7666L8.91309 6.37988H5.87988C5.6038 6.37982 5.37988 6.15598 5.37988 5.87988C5.37995 5.60384 5.60384 5.37995 5.87988 5.37988H10.1201Z" fill="currentColor"/>
<path fill-rule="evenodd" clip-rule="evenodd" d="M8 1.5C11.5899 1.5 14.5 4.41015 14.5 8C14.5 11.5899 11.5899 14.5 8 14.5C4.41015 14.5 1.5 11.5899 1.5 8C1.5 4.41015 4.41015 1.5 8 1.5ZM8 2.5C4.96243 2.5 2.5 4.96243 2.5 8C2.5 11.0376 4.96243 13.5 8 13.5C11.0376 13.5 13.5 11.0376 13.5 8C13.5 4.96243 11.0376 2.5 8 2.5Z" fill="currentColor"/>
</svg>
