<svg width="16" height="16" viewBox="0 0 16 16" fill="none" xmlns="http://www.w3.org/2000/svg">
<path d="M5.64661 7.64652C5.84187 7.4513 6.15839 7.45127 6.35364 7.64652C6.5488 7.84177 6.54883 8.15831 6.35364 8.35355L5.20715 9.50003H12.0001C12.2762 9.5001 12.5001 9.72393 12.5001 10C12.5001 10.2761 12.2762 10.5 12.0001 10.5H5.20715L6.35364 11.6465C6.5488 11.8418 6.54883 12.1583 6.35364 12.3535C6.1584 12.5488 5.84188 12.5487 5.64661 12.3535L3.64661 10.3535C3.45134 10.1583 3.45134 9.84178 3.64661 9.64652L5.64661 7.64652Z" fill="currentColor"/>
<path d="M9.64661 3.64652C9.84187 3.4513 10.1584 3.45127 10.3536 3.64652L12.3536 5.64652C12.3868 5.67972 12.4118 5.71786 12.4337 5.75687C12.4743 5.82916 12.5001 5.91121 12.5001 6.00003C12.5001 6.08856 12.4741 6.1701 12.4337 6.24222C12.4117 6.2815 12.387 6.32015 12.3536 6.35355L10.3536 8.35355C10.1584 8.54878 9.84188 8.54873 9.64661 8.35355C9.45134 8.15829 9.45134 7.84178 9.64661 7.64652L10.7931 6.50003H4.00012C3.72399 6.50003 3.50014 6.27616 3.50012 6.00003C3.50012 5.72389 3.72398 5.50003 4.00012 5.50003H10.7931L9.64661 4.35355C9.45134 4.15829 9.45134 3.84178 9.64661 3.64652Z" fill="currentColor"/>
</svg>
