<svg width="16" height="16" viewBox="0 0 16 16" fill="none" xmlns="http://www.w3.org/2000/svg">
<path d="M5.5 3.5C5.65738 3.5 5.80597 3.57429 5.90039 3.7002L8.90039 7.7002C9.03341 7.87784 9.03341 8.12216 8.90039 8.2998L5.90039 12.2998C5.80597 12.4257 5.65738 12.5 5.5 12.5H2.5C2.31062 12.5 2.13743 12.393 2.05274 12.2236C1.9681 12.0544 1.98619 11.8517 2.09961 11.7002L4.87403 8L2.09961 4.2998C1.98619 4.14833 1.9681 3.94564 2.05274 3.77637C2.13743 3.60698 2.31062 3.5 2.5 3.5H5.5ZM10.5 3.5C10.6574 3.5 10.806 3.57429 10.9004 3.7002L13.9004 7.7002C14.0334 7.87784 14.0334 8.12216 13.9004 8.2998L10.9004 12.2998C10.806 12.4257 10.6574 12.5 10.5 12.5H7.5C7.31062 12.5 7.13743 12.393 7.05274 12.2236C6.9681 12.0544 6.98619 11.8517 7.09961 11.7002L9.87403 8L7.09961 4.2998C6.98619 4.14833 6.9681 3.94564 7.05274 3.77637C7.13743 3.60698 7.31062 3.5 7.5 3.5H10.5ZM10.9004 7.7002C11.0334 7.87784 11.0334 8.12216 10.9004 8.2998L8.5 11.5H10.25L12.874 8L10.25 4.5H8.5L10.9004 7.7002ZM5.90039 7.7002C6.03341 7.87784 6.03341 8.12216 5.90039 8.2998L3.5 11.5H5.25L7.87403 8L5.25 4.5H3.5L5.90039 7.7002Z" fill="currentColor"/>
</svg>
