<svg width="16" height="16" viewBox="0 0 16 16" fill="none" xmlns="http://www.w3.org/2000/svg">
<path d="M3 7.5C3.27614 7.5 3.5 7.72386 3.5 8C3.5 10.4839 5.51614 12.5 8 12.5C9.12965 12.5 10.1421 11.9579 10.9336 11.1602H9.16992C8.89385 11.1601 8.66999 10.9362 8.66992 10.6602C8.66992 10.384 8.89381 10.1602 9.16992 10.1602H12.0078C12.0258 10.1604 12.0436 10.1638 12.0615 10.166C12.0752 10.1677 12.0892 10.1671 12.1025 10.1699C12.1454 10.1789 12.1863 10.1962 12.2266 10.2168C12.2459 10.2267 12.2654 10.2358 12.2832 10.248L12.2861 10.25C12.2949 10.2561 12.3023 10.2639 12.3105 10.2705C12.3252 10.2822 12.3403 10.2934 12.3535 10.3066L12.3633 10.3164C12.3718 10.3254 12.378 10.3362 12.3857 10.3457C12.3972 10.3598 12.409 10.3734 12.4189 10.3887C12.4256 10.399 12.4307 10.4102 12.4365 10.4209C12.446 10.4381 12.4555 10.4552 12.4629 10.4736C12.4684 10.4874 12.4723 10.5015 12.4766 10.5156C12.4817 10.5327 12.4869 10.5496 12.4902 10.5674C12.4921 10.5771 12.4929 10.5869 12.4941 10.5967C12.4968 10.6175 12.5 10.6386 12.5 10.6602V13.4902C12.4999 13.7663 12.276 13.9902 12 13.9902C11.724 13.9902 11.5001 13.7663 11.5 13.4902V12.0039C10.5828 12.873 9.38821 13.5 8 13.5C4.96386 13.5 2.5 11.0361 2.5 8C2.5 7.72386 2.72386 7.5 3 7.5Z" fill="currentColor"/>
<path d="M4 2.00977C4.27606 2.00977 4.49987 2.23374 4.5 2.50977V3.99512C5.41713 3.12627 6.61204 2.5 8 2.5C11.0361 2.5 13.5 4.96386 13.5 8C13.5 8.27614 13.2761 8.5 13 8.5C12.7239 8.5 12.5 8.27614 12.5 8C12.5 5.51614 10.4839 3.5 8 3.5C6.87035 3.5 5.85789 4.04209 5.06641 4.83984H6.83008C7.1061 4.83988 7.32995 5.06384 7.33008 5.33984C7.33004 5.61593 7.10616 5.8398 6.83008 5.83984H4L3.99609 5.83887C3.97643 5.83873 3.95712 5.83548 3.9375 5.83301C3.92376 5.83128 3.90985 5.83192 3.89648 5.8291C3.85364 5.82006 3.81272 5.803 3.77246 5.78223C3.75317 5.77227 3.73355 5.76327 3.71582 5.75098L3.71387 5.75C3.70471 5.74361 3.69708 5.7354 3.68848 5.72852C3.6742 5.71705 3.65941 5.7063 3.64648 5.69336L3.63672 5.68359C3.62789 5.67427 3.62129 5.66319 3.61328 5.65332C3.60169 5.63903 3.59006 5.62491 3.58008 5.60938C3.57493 5.60135 3.57009 5.59323 3.56543 5.58496C3.55436 5.56536 3.54354 5.54554 3.53516 5.52441C3.53003 5.51145 3.52746 5.49768 3.52344 5.48438C3.51818 5.46699 3.51215 5.44977 3.50879 5.43164C3.50554 5.41425 3.50531 5.39656 3.50391 5.37891C3.50291 5.36604 3.5 5.35297 3.5 5.33984V2.50977C3.50013 2.23374 3.72394 2.00977 4 2.00977Z" fill="currentColor"/>
</svg>
