<svg width="16" height="16" viewBox="0 0 16 16" fill="none" xmlns="http://www.w3.org/2000/svg">
<path fill-rule="evenodd" clip-rule="evenodd" d="M6 3.5C6.27614 3.5 6.5 3.72386 6.5 4V5.5H8.5V4C8.5 3.79779 8.62179 3.61549 8.80859 3.53809C8.99543 3.4607 9.21052 3.50349 9.35352 3.64648L13.3535 7.64648C13.5488 7.84175 13.5488 8.15825 13.3535 8.35352L9.35352 12.3535C9.21052 12.4965 8.99543 12.5393 8.80859 12.4619C8.62179 12.3845 8.5 12.2022 8.5 12V10.5H6C3.51386 10.5 1.5 8.48614 1.5 6V4C1.5 3.72386 1.72386 3.5 2 3.5H6ZM2.5 6C2.5 7.93386 4.06614 9.5 6 9.5H9C9.27614 9.5 9.5 9.72386 9.5 10V10.793L12.293 8L9.5 5.20703V6C9.5 6.27614 9.27614 6.5 9 6.5H6C5.72386 6.5 5.5 6.27614 5.5 6V4.5H2.5V6Z" fill="black"/>
</svg>
