<svg width="16" height="16" viewBox="0 0 16 16" fill="none" xmlns="http://www.w3.org/2000/svg">
<path d="M6.64648 4.64648C6.84175 4.45122 7.15825 4.45122 7.35352 4.64648C7.54877 4.84175 7.54878 5.15825 7.35352 5.35352L6.20703 6.5H9C9.82614 6.5 10.5 7.17386 10.5 8V11C10.5 11.2761 10.2761 11.5 10 11.5C9.72386 11.5 9.5 11.2761 9.5 11V8C9.5 7.72614 9.27386 7.5 9 7.5H6.20703L7.35352 8.64648C7.54877 8.84175 7.54878 9.15825 7.35352 9.35352C7.15825 9.54877 6.84175 9.54877 6.64648 9.35352L4.64648 7.35352C4.6123 7.31933 4.58569 7.28055 4.56348 7.24023C4.53909 7.19602 4.51889 7.14875 4.50879 7.09766C4.496 7.03302 4.49587 6.96599 4.50879 6.90137C4.51916 6.84943 4.54032 6.80161 4.56543 6.75684C4.58738 6.71767 4.61317 6.6798 4.64648 6.64648L6.64648 4.64648Z" fill="black"/>
<path fill-rule="evenodd" clip-rule="evenodd" d="M8 1.5C11.5899 1.5 14.5 4.41015 14.5 8C14.5 11.5899 11.5899 14.5 8 14.5C4.41015 14.5 1.5 11.5899 1.5 8C1.5 4.41015 4.41015 1.5 8 1.5ZM8 2.5C4.96243 2.5 2.5 4.96243 2.5 8C2.5 11.0376 4.96243 13.5 8 13.5C11.0376 13.5 13.5 11.0376 13.5 8C13.5 4.96243 11.0376 2.5 8 2.5Z" fill="black"/>
</svg>
