<svg width="16" height="16" viewBox="0 0 16 16" fill="none" xmlns="http://www.w3.org/2000/svg">
<path d="M11 2.5C11.2761 2.5 11.5 2.72386 11.5 3C11.5 3.27614 11.2761 3.5 11 3.5H8.5V11.793L10.6465 9.64648C10.8417 9.45122 11.1583 9.45122 11.3535 9.64648C11.5488 9.84175 11.5488 10.1583 11.3535 10.3535L8.35352 13.3535C8.31945 13.3876 8.2804 13.4134 8.24023 13.4355C8.19596 13.46 8.14884 13.4801 8.09766 13.4902C8.0329 13.5031 7.96611 13.5032 7.90137 13.4902C7.85024 13.48 7.80299 13.4601 7.75879 13.4355C7.71891 13.4134 7.68034 13.3874 7.64648 13.3535L4.64648 10.3535C4.45122 10.1583 4.45122 9.84175 4.64648 9.64648C4.84175 9.45122 5.15825 9.45122 5.35352 9.64648L7.5 11.793V3.5H5C4.72386 3.5 4.5 3.27614 4.5 3C4.5 2.72386 4.72386 2.5 5 2.5H11Z" fill="currentColor"/>
</svg>
