<svg width="16" height="16" viewBox="0 0 16 16" fill="none" xmlns="http://www.w3.org/2000/svg">
<path d="M9.80859 2.53807C9.99543 2.46068 10.2105 2.50347 10.3535 2.64647L14.3535 6.64647C14.5488 6.84173 14.5488 7.15824 14.3535 7.3535L10.3535 11.3535C10.2105 11.4965 9.99543 11.5393 9.80859 11.4619C9.62179 11.3845 9.5 11.2022 9.5 11V9.49999H7.5V13C7.5 13.2761 7.27614 13.5 7 13.5H3C2.72386 13.5 2.5 13.2761 2.5 13V8.99999C2.5 6.51384 4.51386 4.49999 7 4.49999H9.5V2.99999C9.5 2.79778 9.62179 2.61548 9.80859 2.53807ZM3.5 12.5H6.5V8.99999C6.5 8.72384 6.72386 8.49999 7 8.49999H10C10.2761 8.49999 10.5 8.72384 10.5 8.99999V9.79295L13.293 6.99999L10.5 4.20702V4.99999C10.5 5.27613 10.2761 5.49999 10 5.49999H7C5.06614 5.49999 3.5 7.06613 3.5 8.99999V12.5Z" fill="black"/>
</svg>
