<svg width="16" height="16" viewBox="0 0 16 16" fill="none" xmlns="http://www.w3.org/2000/svg">
<path fill-rule="evenodd" clip-rule="evenodd" d="M11 4.5C11.2022 4.50002 11.3846 4.62181 11.462 4.80859C11.5393 4.99542 11.4965 5.21052 11.3536 5.35352L8.70707 8L11.3536 10.6465C11.4965 10.7895 11.5393 11.0046 11.462 11.1914C11.3846 11.3782 11.2022 11.5 11 11.5H7.00004C6.86744 11.5 6.74029 11.4473 6.64652 11.3535L3.64652 8.35352C3.45126 8.15825 3.45126 7.84175 3.64652 7.64648L6.64652 4.64648L6.72269 4.58398C6.80422 4.52964 6.90061 4.5 7.00004 4.5H11ZM4.70707 8L7.20707 10.5H9.79301L7.64652 8.35352C7.45126 8.15825 7.45126 7.84175 7.64652 7.64648L9.79301 5.5H7.20707L4.70707 8Z" fill="black"/>
</svg>
