<svg width="16" height="16" viewBox="0 0 16 16" fill="none" xmlns="http://www.w3.org/2000/svg">
<path d="M6.64652 4.64651C6.84178 4.45125 7.15829 4.45125 7.35355 4.64651C7.54877 4.84177 7.5488 5.15829 7.35355 5.35354L4.70707 8.00002L7.35355 10.6465C7.54877 10.8418 7.5488 11.1583 7.35355 11.3535C7.1583 11.5488 6.84179 11.5488 6.64652 11.3535L3.64652 8.35354C3.45126 8.15828 3.45126 7.84177 3.64652 7.64651L6.64652 4.64651Z" fill="currentColor"/>
<path d="M10.6465 4.64651C10.8418 4.45125 11.1583 4.45125 11.3536 4.64651C11.5488 4.84177 11.5488 5.15829 11.3536 5.35354L8.70707 8.00002L11.3536 10.6465C11.5488 10.8418 11.5488 11.1583 11.3536 11.3535C11.1583 11.5488 10.8418 11.5488 10.6465 11.3535L7.64652 8.35354C7.45126 8.15828 7.45126 7.84177 7.64652 7.64651L10.6465 4.64651Z" fill="currentColor"/>
</svg>
