<svg width="16" height="16" viewBox="0 0 16 16" fill="none" xmlns="http://www.w3.org/2000/svg">
<path d="M7.72464 7.58182C7.91868 7.45377 8.18272 7.47552 8.35355 7.64628L11.3535 10.6463C11.5488 10.8415 11.5487 11.158 11.3535 11.3533C11.1583 11.5486 10.8418 11.5486 10.6465 11.3533L8.00003 8.70682L5.35355 11.3533C5.15828 11.5486 4.84178 11.5486 4.64651 11.3533C4.45133 11.158 4.45128 10.8415 4.64651 10.6463L7.64651 7.64628L7.72464 7.58182Z" fill="black"/>
<path d="M7.72464 3.58182C7.91868 3.45377 8.18272 3.47552 8.35355 3.64628L11.3535 6.64628C11.5488 6.8415 11.5487 7.15804 11.3535 7.35331C11.1583 7.54857 10.8418 7.54857 10.6465 7.35331L8.00003 4.70682L5.35355 7.35331C5.15828 7.54857 4.84178 7.54857 4.64651 7.35331C4.45133 7.15804 4.45128 6.84151 4.64651 6.64628L7.64651 3.64628L7.72464 3.58182Z" fill="black"/>
</svg>
