<svg width="16" height="16" viewBox="0 0 16 16" fill="none" xmlns="http://www.w3.org/2000/svg">
<path d="M10.6465 8.64651C10.8418 8.45125 11.1583 8.45125 11.3536 8.64651C11.5488 8.84177 11.5488 9.15829 11.3536 9.35354L8.35355 12.3535C8.15831 12.5488 7.84179 12.5488 7.64652 12.3535L4.64652 9.35354C4.45126 9.15828 4.45126 8.84177 4.64652 8.64651C4.84179 8.45125 5.15829 8.45125 5.35355 8.64651L8.00004 11.293L10.6465 8.64651Z" fill="currentColor"/>
<path d="M10.6465 4.64651C10.8418 4.45125 11.1583 4.45125 11.3536 4.64651C11.5488 4.84177 11.5488 5.15829 11.3536 5.35354L8.35355 8.35354C8.15831 8.54879 7.84179 8.54876 7.64652 8.35354L4.64652 5.35354C4.45126 5.15828 4.45126 4.84177 4.64652 4.64651C4.84179 4.45125 5.15829 4.45125 5.35355 4.64651L8.00004 7.29299L10.6465 4.64651Z" fill="currentColor"/>
</svg>
