<svg width="16" height="16" viewBox="0 0 16 16" fill="none" xmlns="http://www.w3.org/2000/svg">
<path fill-rule="evenodd" clip-rule="evenodd" d="M7.72462 2.58183C7.91865 2.45376 8.18269 2.47553 8.35353 2.64628L13.3535 7.64628C13.4965 7.78923 13.5392 8.0044 13.4619 8.1912C13.3845 8.378 13.2022 8.49979 13 8.49979H10.5V12.9998C10.5 13.2759 10.2761 13.4998 10 13.4998H6.00001C5.72387 13.4998 5.50001 13.2759 5.50001 12.9998V8.49979H3.00001C2.7978 8.49979 2.6155 8.378 2.5381 8.1912C2.4608 8.0044 2.50354 7.78923 2.6465 7.64628L7.6465 2.64628L7.72462 2.58183ZM4.20704 7.49979H6.00001C6.27608 7.4998 6.4999 7.72375 6.50001 7.99979V12.4998H9.50001V7.99979C9.50012 7.72374 9.72394 7.49979 10 7.49979H11.793L8.00001 3.70683L4.20704 7.49979Z" fill="black"/>
</svg>
