<svg width="16" height="16" viewBox="0 0 16 16" fill="none" xmlns="http://www.w3.org/2000/svg">
<path d="M7.64648 4.64648C7.84175 4.45122 8.15825 4.45122 8.35352 4.64648C8.54877 4.84175 8.54878 5.15826 8.35352 5.35352L6.20703 7.5H11C11.2761 7.5 11.5 7.72386 11.5 8C11.5 8.27614 11.2761 8.5 11 8.5H6.20703L8.35352 10.6465C8.54877 10.8417 8.54878 11.1583 8.35352 11.3535C8.15826 11.5488 7.84175 11.5488 7.64648 11.3535L4.64648 8.35352C4.62325 8.33028 4.6023 8.30477 4.58398 8.27734C4.57607 8.26551 4.57027 8.25256 4.56348 8.24023C4.53909 8.19602 4.51889 8.14875 4.50879 8.09766C4.496 8.03302 4.49587 7.96599 4.50879 7.90137C4.51898 7.85033 4.53903 7.80293 4.56348 7.75879C4.57115 7.74493 4.5788 7.73101 4.58789 7.71777C4.60537 7.6923 4.62471 7.66826 4.64648 7.64648L7.64648 4.64648Z" fill="currentColor"/>
<path fill-rule="evenodd" clip-rule="evenodd" d="M8 1.5C11.5861 1.5 14.5 4.41386 14.5 8C14.5 11.5861 11.5861 14.5 8 14.5C4.41386 14.5 1.5 11.5861 1.5 8C1.5 4.41386 4.41386 1.5 8 1.5ZM8 2.5C4.96614 2.5 2.5 4.96614 2.5 8C2.5 11.0339 4.96614 13.5 8 13.5C11.0339 13.5 13.5 11.0339 13.5 8C13.5 4.96614 11.0339 2.5 8 2.5Z" fill="currentColor"/>
</svg>
