<svg width="16" height="16" viewBox="0 0 16 16" fill="none" xmlns="http://www.w3.org/2000/svg">
<path d="M4 3.5C4.27614 3.5 4.5 3.72386 4.5 4V8C4.5 8.27386 4.72614 8.5 5 8.5H11.793L9.64648 6.35352C9.45122 6.15825 9.45122 5.84175 9.64648 5.64648C9.84175 5.45122 10.1583 5.45122 10.3535 5.64648L13.3535 8.64648C13.3874 8.68034 13.4134 8.71891 13.4355 8.75879C13.4601 8.80299 13.48 8.85024 13.4902 8.90137C13.5032 8.96611 13.5031 9.0329 13.4902 9.09766C13.4801 9.14884 13.46 9.19596 13.4355 9.24023C13.4134 9.2804 13.3876 9.31945 13.3535 9.35352L10.3535 12.3535C10.1583 12.5488 9.84175 12.5488 9.64648 12.3535C9.45122 12.1583 9.45122 11.8417 9.64648 11.6465L11.793 9.5H5C4.17386 9.5 3.5 8.82614 3.5 8V4C3.5 3.72386 3.72386 3.5 4 3.5Z" fill="currentColor"/>
</svg>
