<svg width="16" height="16" viewBox="0 0 16 16" fill="none" xmlns="http://www.w3.org/2000/svg">
<path d="M9.64648 4.64648C9.84175 4.45122 10.1583 4.45122 10.3535 4.64648L13.3535 7.64648C13.3874 7.68034 13.4134 7.71891 13.4355 7.75879C13.4601 7.80299 13.48 7.85024 13.4902 7.90137C13.5032 7.96611 13.5031 8.0329 13.4902 8.09766C13.4801 8.14884 13.46 8.19596 13.4355 8.24023C13.4134 8.2804 13.3876 8.31945 13.3535 8.35352L10.3535 11.3535C10.1583 11.5488 9.84175 11.5488 9.64648 11.3535C9.45122 11.1583 9.45122 10.8417 9.64648 10.6465L11.793 8.5H3.5V11C3.5 11.2761 3.27614 11.5 3 11.5C2.72386 11.5 2.5 11.2761 2.5 11V5C2.5 4.72386 2.72386 4.5 3 4.5C3.27614 4.5 3.5 4.72386 3.5 5V7.5H11.793L9.64648 5.35352C9.45122 5.15825 9.45122 4.84175 9.64648 4.64648Z" fill="black"/>
</svg>
