<svg width="16" height="16" viewBox="0 0 16 16" fill="none" xmlns="http://www.w3.org/2000/svg">
<path d="M3.64652 3.64652C3.84179 3.45126 4.15829 3.45126 4.35355 3.64652L11.5 10.793V6.00004C11.5 5.7239 11.7239 5.50004 12 5.50004C12.2762 5.50006 12.5 5.72391 12.5 6.00004V12C12.5 12.0328 12.4967 12.0655 12.4903 12.0977C12.4801 12.1489 12.4601 12.196 12.4356 12.2403C12.4134 12.2804 12.3876 12.3195 12.3536 12.3536C12.3195 12.3876 12.2804 12.4134 12.2403 12.4356C12.196 12.4601 12.1489 12.4801 12.0977 12.4903C12.0655 12.4967 12.0328 12.5 12 12.5H6.00004C5.72391 12.5 5.50006 12.2762 5.50004 12C5.50004 11.7239 5.7239 11.5 6.00004 11.5H10.793L3.64652 4.35355C3.45126 4.15829 3.45126 3.84179 3.64652 3.64652Z" fill="currentColor"/>
</svg>
