<svg width="16" height="16" viewBox="0 0 16 16" fill="none" xmlns="http://www.w3.org/2000/svg">
<path d="M7.5 3C7.5 2.72386 7.72386 2.5 8 2.5H12C12.8261 2.5 13.5 3.17386 13.5 4V12C13.5 12.8261 12.8261 13.5 12 13.5H8C7.72386 13.5 7.5 13.2761 7.5 13C7.5 12.7239 7.72386 12.5 8 12.5H12C12.2739 12.5 12.5 12.2739 12.5 12V4C12.5 3.72614 12.2739 3.5 12 3.5H8C7.72386 3.5 7.5 3.27614 7.5 3Z" fill="black"/>
<path d="M2.5 8C2.5 7.72386 2.72386 7.5 3 7.5H8.79297L7.64648 6.35352C7.45122 6.15825 7.45122 5.84175 7.64648 5.64648C7.84175 5.45123 8.15826 5.45122 8.35352 5.64648L10.3535 7.64648C10.3876 7.68055 10.4134 7.7196 10.4355 7.75977C10.46 7.80404 10.4801 7.85116 10.4902 7.90234C10.5031 7.9671 10.5032 8.03389 10.4902 8.09863C10.48 8.14976 10.4601 8.19701 10.4355 8.24121C10.4134 8.28109 10.3874 8.31966 10.3535 8.35352L8.35352 10.3535C8.15825 10.5488 7.84175 10.5488 7.64648 10.3535C7.45122 10.1583 7.45122 9.84175 7.64648 9.64648L8.79297 8.5H3C2.72386 8.5 2.5 8.27614 2.5 8Z" fill="black"/>
</svg>
