<svg width="16" height="16" viewBox="0 0 16 16" fill="none" xmlns="http://www.w3.org/2000/svg">
<path d="M8.01562 4.50098C8.03625 4.50164 8.05672 4.50363 8.07715 4.50684C8.0907 4.50894 8.10402 4.51148 8.11719 4.51465C8.13539 4.51905 8.15318 4.52479 8.1709 4.53125C8.18031 4.53468 8.19008 4.53705 8.19922 4.54102C8.20309 4.5427 8.2071 4.54411 8.21094 4.5459L8.2793 4.58496C8.2814 4.58638 8.28308 4.5884 8.28516 4.58984C8.30909 4.60653 8.33217 4.62514 8.35352 4.64648L11.3535 7.64648C11.5488 7.84175 11.5488 8.15826 11.3535 8.35352C11.1583 8.54878 10.8417 8.54877 10.6465 8.35352L8.5 6.20703V11C8.5 11.2761 8.27614 11.5 8 11.5C7.72386 11.5 7.5 11.2761 7.5 11V6.20703L5.35352 8.35352C5.15826 8.54878 4.84175 8.54877 4.64648 8.35352C4.45122 8.15825 4.45122 7.84175 4.64648 7.64648L7.64648 4.64648L7.72461 4.58203C7.74996 4.56529 7.77633 4.55069 7.80371 4.53906C7.80748 4.53745 7.81161 4.53667 7.81543 4.53516C7.84061 4.52519 7.86638 4.51743 7.89258 4.51172C7.90092 4.50989 7.90948 4.50922 7.91797 4.50781C7.94067 4.50408 7.96338 4.50157 7.98633 4.50098C7.99088 4.50085 7.99542 4.5 8 4.5C8.00524 4.5 8.01043 4.50082 8.01562 4.50098Z" fill="black"/>
<path fill-rule="evenodd" clip-rule="evenodd" d="M8 1.5C11.5899 1.5 14.5 4.41015 14.5 8C14.5 11.5899 11.5899 14.5 8 14.5C4.41015 14.5 1.5 11.5899 1.5 8C1.5 4.41015 4.41015 1.5 8 1.5ZM8 2.5C4.96243 2.5 2.5 4.96243 2.5 8C2.5 11.0376 4.96243 13.5 8 13.5C11.0376 13.5 13.5 11.0376 13.5 8C13.5 4.96243 11.0376 2.5 8 2.5Z" fill="black"/>
</svg>
