<svg width="16" height="16" viewBox="0 0 16 16" fill="none" xmlns="http://www.w3.org/2000/svg">
<path d="M12 2.00977C12.276 2.00981 12.4999 2.23376 12.5 2.50977V5.33984C12.5 5.35297 12.4971 5.36603 12.4961 5.37891C12.4947 5.39662 12.4935 5.41419 12.4902 5.43164C12.4869 5.44971 12.4818 5.46705 12.4766 5.48438C12.4725 5.4978 12.4691 5.51134 12.4639 5.52441C12.4554 5.54557 12.4447 5.56534 12.4336 5.58496C12.4289 5.59324 12.4241 5.60134 12.4189 5.60938C12.4089 5.62492 12.3974 5.63902 12.3857 5.65332C12.3763 5.66496 12.368 5.67761 12.3574 5.68848C12.343 5.70324 12.3267 5.71562 12.3105 5.72852C12.3021 5.73523 12.2951 5.74375 12.2861 5.75L12.2832 5.75098C12.2654 5.76325 12.2459 5.7723 12.2266 5.78223C12.1862 5.80294 12.1454 5.82014 12.1025 5.8291C12.0892 5.83189 12.0753 5.83131 12.0615 5.83301C12.0419 5.83544 12.0226 5.83877 12.0029 5.83887L12 5.83984H9.16992C8.89384 5.8398 8.66996 5.61592 8.66992 5.33984C8.67005 5.06384 8.8939 4.83988 9.16992 4.83984H10.9336C10.1421 4.04209 9.12965 3.5 8 3.5C5.51614 3.5 3.5 5.51614 3.5 8C3.5 10.4839 5.51614 12.5 8 12.5C10.4839 12.5 12.5 10.4839 12.5 8C12.5 7.72386 12.7239 7.5 13 7.5C13.2761 7.5 13.5 7.72386 13.5 8C13.5 11.0361 11.0361 13.5 8 13.5C4.96386 13.5 2.5 11.0361 2.5 8C2.5 4.96386 4.96386 2.5 8 2.5C9.38796 2.5 10.5829 3.12627 11.5 3.99512V2.50977C11.5001 2.23376 11.724 2.00981 12 2.00977Z" fill="currentColor"/>
</svg>
