<svg width="16" height="16" viewBox="0 0 16 16" fill="none" xmlns="http://www.w3.org/2000/svg">
<path d="M8 2.5C8.27614 2.5 8.5 2.72386 8.5 3V11.793L10.6465 9.64648C10.8417 9.45122 11.1583 9.45122 11.3535 9.64648C11.5488 9.84175 11.5488 10.1583 11.3535 10.3535L9.20703 12.5H11C11.2761 12.5 11.5 12.7239 11.5 13C11.5 13.2761 11.2761 13.5 11 13.5H5C4.72386 13.5 4.5 13.2761 4.5 13C4.5 12.7239 4.72386 12.5 5 12.5H6.79297L4.64648 10.3535C4.45122 10.1583 4.45122 9.84175 4.64648 9.64648C4.84175 9.45122 5.15825 9.45122 5.35352 9.64648L7.5 11.793V3C7.5 2.72386 7.72386 2.5 8 2.5Z" fill="currentColor"/>
</svg>
