<svg width="16" height="16" viewBox="0 0 16 16" fill="none" xmlns="http://www.w3.org/2000/svg">
<path d="M8.5 3C8.5 2.72386 8.27614 2.5 8 2.5H4C3.17386 2.5 2.5 3.17386 2.5 4V12C2.5 12.8261 3.17386 13.5 4 13.5H8C8.27614 13.5 8.5 13.2761 8.5 13C8.5 12.7239 8.27614 12.5 8 12.5H4C3.72614 12.5 3.5 12.2739 3.5 12V4C3.5 3.72614 3.72614 3.5 4 3.5H8C8.27614 3.5 8.5 3.27614 8.5 3Z" fill="currentColor"/>
<path d="M13.499 7.98438C13.4984 7.96375 13.4964 7.94328 13.4932 7.92285C13.4911 7.9093 13.4885 7.89598 13.4854 7.88281C13.481 7.86461 13.4752 7.84682 13.4688 7.8291C13.4653 7.81969 13.463 7.80992 13.459 7.80078C13.4573 7.79691 13.4559 7.7929 13.4541 7.78906L13.415 7.7207C13.4136 7.7186 13.4116 7.71692 13.4102 7.71484C13.3935 7.69091 13.3749 7.66783 13.3535 7.64648L11.3535 5.64648C11.1583 5.45123 10.8417 5.45123 10.6465 5.64648C10.4512 5.84174 10.4512 6.15825 10.6465 6.35352L11.793 7.5L6 7.5C5.72386 7.5 5.5 7.72386 5.5 8C5.5 8.27614 5.72386 8.5 6 8.5H11.793L10.6465 9.64648C10.4512 9.84174 10.4512 10.1583 10.6465 10.3535C10.8417 10.5488 11.1583 10.5488 11.3535 10.3535L13.3535 8.35352L13.418 8.27539C13.4347 8.25004 13.4493 8.22367 13.4609 8.19629C13.4625 8.19252 13.4633 8.18839 13.4648 8.18457C13.4748 8.15939 13.4826 8.13362 13.4883 8.10742C13.4901 8.09908 13.4908 8.09052 13.4922 8.08203C13.4959 8.05933 13.4984 8.03662 13.499 8.01367C13.4991 8.00912 13.5 8.00458 13.5 8C13.5 7.99476 13.4992 7.98957 13.499 7.98438Z" fill="currentColor"/>
</svg>
