<svg width="16" height="16" viewBox="0 0 16 16" fill="none" xmlns="http://www.w3.org/2000/svg">
<path d="M4.64651 4.64651C4.84177 4.45125 5.15828 4.45125 5.35354 4.64651L8.35354 7.64651C8.54876 7.84177 8.54879 8.15829 8.35354 8.35354L5.35354 11.3535C5.15829 11.5488 4.84177 11.5488 4.64651 11.3535C4.45125 11.1583 4.45125 10.8418 4.64651 10.6465L7.29299 8.00002L4.64651 5.35354C4.45125 5.15828 4.45125 4.84177 4.64651 4.64651Z" fill="black"/>
<path d="M8.64651 4.64651C8.84177 4.45125 9.15828 4.45125 9.35354 4.64651L12.3535 7.64651C12.5488 7.84177 12.5488 8.15829 12.3535 8.35354L9.35354 11.3535C9.15829 11.5488 8.84177 11.5488 8.64651 11.3535C8.45125 11.1583 8.45125 10.8418 8.64651 10.6465L11.293 8.00002L8.64651 5.35354C8.45125 5.15828 8.45125 4.84177 8.64651 4.64651Z" fill="black"/>
</svg>
