<svg width="16" height="16" viewBox="0 0 16 16" fill="none" xmlns="http://www.w3.org/2000/svg">
<path d="M8.00004 2.5C8.27616 2.50002 8.50004 2.72387 8.50004 3V11.793L11.6465 8.64648C11.8418 8.45124 12.1583 8.45123 12.3536 8.64648C12.5488 8.84174 12.5488 9.15826 12.3536 9.35352L8.35355 13.3535C8.3195 13.3876 8.28042 13.4134 8.24027 13.4355C8.19601 13.46 8.14888 13.4801 8.09769 13.4902C8.03294 13.5031 7.96615 13.5032 7.90141 13.4902C7.85028 13.48 7.80303 13.4601 7.75883 13.4355C7.71894 13.4134 7.68038 13.3874 7.64652 13.3535L3.64652 9.35352C3.45126 9.15825 3.45126 8.84175 3.64652 8.64648C3.84179 8.45124 4.1583 8.45123 4.35355 8.64648L7.50004 11.793V3C7.50004 2.72386 7.7239 2.5 8.00004 2.5Z" fill="currentColor"/>
</svg>
