<svg width="16" height="16" viewBox="0 0 16 16" fill="none" xmlns="http://www.w3.org/2000/svg">
<path d="M7.76953 7.05664C7.93776 6.9691 8.14424 6.98312 8.2998 7.09961L12.2998 10.0996C12.4257 10.194 12.5 10.3426 12.5 10.5V13.5C12.5 13.6894 12.393 13.8626 12.2236 13.9473C12.0544 14.0319 11.8517 14.0138 11.7002 13.9004L8 11.125L4.2998 13.9004C4.14833 14.0138 3.94564 14.0319 3.77637 13.9473C3.60698 13.8626 3.5 13.6894 3.5 13.5V10.5C3.5 10.3426 3.57429 10.194 3.7002 10.0996L7.7002 7.09961L7.76953 7.05664ZM4.5 10.75V12.499L7.7002 10.0996L7.76953 10.0566C7.93776 9.9691 8.14424 9.98312 8.2998 10.0996L11.5 12.499V10.75L8 8.125L4.5 10.75ZM7.76953 2.05664C7.93776 1.9691 8.14424 1.98312 8.2998 2.09961L12.2998 5.09961C12.4257 5.19403 12.5 5.34262 12.5 5.5V8.5C12.5 8.68938 12.393 8.86257 12.2236 8.94726C12.0544 9.0319 11.8517 9.01381 11.7002 8.90039L8 6.125L4.2998 8.90039C4.14833 9.01381 3.94564 9.0319 3.77637 8.94726C3.60698 8.86257 3.5 8.68938 3.5 8.5V5.5C3.5 5.34262 3.57429 5.19403 3.7002 5.09961L7.7002 2.09961L7.76953 2.05664ZM4.5 5.75V7.49902L7.7002 5.09961L7.76953 5.05664C7.93776 4.9691 8.14424 4.98312 8.2998 5.09961L11.5 7.49902V5.75L8 3.125L4.5 5.75Z" fill="black"/>
</svg>
