<svg width="16" height="16" viewBox="0 0 16 16" fill="none" xmlns="http://www.w3.org/2000/svg">
<path d="M8.64648 4.64648C8.84175 4.45122 9.15825 4.45122 9.35352 4.64648L11.3535 6.64648C11.3868 6.6798 11.4126 6.71767 11.4346 6.75684C11.4596 6.80156 11.4799 6.8495 11.4902 6.90137C11.5032 6.96611 11.5031 7.0329 11.4902 7.09766C11.4801 7.14884 11.46 7.19596 11.4355 7.24023C11.4134 7.2804 11.3876 7.31945 11.3535 7.35352L9.35352 9.35352C9.15826 9.54878 8.84175 9.54877 8.64648 9.35352C8.45122 9.15825 8.45122 8.84175 8.64648 8.64648L9.79297 7.5H7C6.72614 7.5 6.5 7.72614 6.5 8V11C6.5 11.2761 6.27614 11.5 6 11.5C5.72386 11.5 5.5 11.2761 5.5 11V8C5.5 7.17386 6.17386 6.5 7 6.5H9.79297L8.64648 5.35352C8.45122 5.15825 8.45122 4.84175 8.64648 4.64648Z" fill="currentColor"/>
<path fill-rule="evenodd" clip-rule="evenodd" d="M8 1.5C11.5899 1.5 14.5 4.41015 14.5 8C14.5 11.5899 11.5899 14.5 8 14.5C4.41015 14.5 1.5 11.5899 1.5 8C1.5 4.41015 4.41015 1.5 8 1.5ZM8 2.5C4.96243 2.5 2.5 4.96243 2.5 8C2.5 11.0376 4.96243 13.5 8 13.5C11.0376 13.5 13.5 11.0376 13.5 8C13.5 4.96243 11.0376 2.5 8 2.5Z" fill="currentColor"/>
</svg>
