<svg width="16" height="16" viewBox="0 0 16 16" fill="none" xmlns="http://www.w3.org/2000/svg">
<path fill-rule="evenodd" clip-rule="evenodd" d="M9 5.5C10.1021 5.5 11.0885 5.71147 11.9951 6.23926C12.8974 6.76452 13.6828 7.58079 14.4209 8.72949C14.5466 8.92518 14.5206 9.18193 14.3584 9.34863C14.2162 9.49451 14.0019 9.53827 13.8174 9.46582L13.7402 9.42773L13.7354 9.42383C13.7297 9.42052 13.72 9.41555 13.707 9.4082C13.681 9.39345 13.6406 9.37085 13.5869 9.34277C13.4794 9.28651 13.3189 9.20772 13.1152 9.12109C12.7065 8.94724 12.1287 8.74527 11.4541 8.63086C10.2298 8.42328 8.70617 8.50613 7.26074 9.55371L8.35352 10.6465C8.49651 10.7895 8.5393 11.0046 8.46191 11.1914C8.38451 11.3782 8.20221 11.5 8 11.5H3C2.72386 11.5 2.5 11.2761 2.5 11V6L2.50586 5.9248C2.53187 5.7536 2.6453 5.60575 2.80859 5.53809C2.99543 5.4607 3.21052 5.50349 3.35352 5.64648L4.60156 6.89453C5.51408 6.27379 7.06087 5.5 9 5.5ZM9 6.5C7.08107 6.5 5.58615 7.38348 4.85449 7.94629C4.65544 8.09923 4.37381 8.08084 4.19629 7.90332L3.5 7.20703V10.5H6.79297L6.15625 9.86328C6.05849 9.76539 6.00608 9.63143 6.01074 9.49316C6.0155 9.35468 6.07717 9.22384 6.18164 9.13281C8.03602 7.51712 10.075 7.38239 11.6211 7.64453C11.9059 7.69282 12.1747 7.75465 12.4238 7.82324C12.1187 7.52701 11.8108 7.28902 11.4922 7.10352C10.7713 6.68384 9.9679 6.5 9 6.5Z" fill="black"/>
</svg>
