<svg width="16" height="16" viewBox="0 0 16 16" fill="none" xmlns="http://www.w3.org/2000/svg">
<path fill-rule="evenodd" clip-rule="evenodd" d="M13 3.5C13.2762 3.50002 13.5 3.72387 13.5 4V6C13.5 8.48613 11.4862 10.5 9.00004 10.5H6.50004V12C6.50004 12.2022 6.37822 12.3845 6.19144 12.4619C6.00462 12.5393 5.78952 12.4965 5.64652 12.3535L1.64652 8.35352C1.45126 8.15825 1.45126 7.84175 1.64652 7.64648L5.64652 3.64648C5.78952 3.5035 6.00462 3.4607 6.19144 3.53809C6.37822 3.6155 6.50004 3.79781 6.50004 4V5.5H8.50004V4C8.50004 3.72386 8.7239 3.5 9.00004 3.5H13ZM9.50004 6C9.50004 6.27613 9.27616 6.49998 9.00004 6.5H6.00004C5.7239 6.5 5.50004 6.27614 5.50004 6V5.20703L2.70707 8L5.50004 10.793V10C5.50004 9.72386 5.7239 9.5 6.00004 9.5H9.00004C10.9339 9.49998 12.5 7.93384 12.5 6V4.5H9.50004V6Z" fill="currentColor"/>
</svg>
