<svg width="16" height="16" viewBox="0 0 16 16" fill="none" xmlns="http://www.w3.org/2000/svg">
<path d="M7 2.48999C7.27614 2.48999 7.5 2.71385 7.5 2.98999V6.48999H9.5V4.98999C9.5 4.78778 9.62179 4.60548 9.80859 4.52808C9.99543 4.45069 10.2105 4.49348 10.3535 4.63647L14.3535 8.63647C14.5488 8.83174 14.5488 9.14824 14.3535 9.34351L10.3535 13.3435C10.2105 13.4865 9.99543 13.5293 9.80859 13.4519C9.62179 13.3745 9.5 13.1922 9.5 12.99V11.49H7C4.51386 11.49 2.5 9.47613 2.5 6.98999V2.98999C2.5 2.71385 2.72386 2.48999 3 2.48999H7ZM3.5 6.98999C3.5 8.92385 5.06614 10.49 7 10.49H10C10.2761 10.49 10.5 10.7138 10.5 10.99V11.783L13.293 8.98999L10.5 6.19702V6.98999C10.5 7.26613 10.2761 7.48999 10 7.48999H7C6.72386 7.48999 6.5 7.26613 6.5 6.98999V3.48999H3.5V6.98999Z" fill="black"/>
</svg>
