<svg width="16" height="16" viewBox="0 0 16 16" fill="none" xmlns="http://www.w3.org/2000/svg">
<path d="M10.6465 3.64651C10.8417 3.45125 11.1583 3.45125 11.3535 3.64651L13.3535 5.64651C13.3874 5.68037 13.4134 5.71893 13.4355 5.75881C13.4601 5.80302 13.48 5.85026 13.4902 5.90139C13.5032 5.96613 13.5031 6.03292 13.4902 6.09768C13.4801 6.14886 13.46 6.19599 13.4355 6.24026C13.4134 6.28041 13.3876 6.31948 13.3535 6.35354L11.3535 8.35354C11.1583 8.54877 10.8417 8.54877 10.6465 8.35354C10.4512 8.15828 10.4512 7.84177 10.6465 7.64651L11.793 6.50002H5.5C4.39614 6.50002 3.5 7.39617 3.5 8.50002C3.50002 9.60386 4.39615 10.5 5.5 10.5H12C12.2761 10.5 12.5 10.7239 12.5 11C12.5 11.2761 12.2761 11.5 12 11.5H5.5C3.84387 11.5 2.50002 10.1561 2.5 8.50002C2.5 6.84388 3.84386 5.50002 5.5 5.50002H11.793L10.6465 4.35354C10.4512 4.15828 10.4512 3.84177 10.6465 3.64651Z" fill="currentColor"/>
</svg>
