<svg width="16" height="16" viewBox="0 0 16 16" fill="none" xmlns="http://www.w3.org/2000/svg">
<path d="M12 3.5C12.0327 3.5 12.0655 3.50242 12.0977 3.50879C12.1488 3.51889 12.1961 3.53909 12.2403 3.56348C12.2806 3.58569 12.3194 3.61231 12.3536 3.64648C12.3874 3.68034 12.4135 3.71891 12.4356 3.75879C12.4601 3.80299 12.48 3.85024 12.4903 3.90137C12.4968 3.93389 12.5 3.96695 12.5 4V10C12.5 10.2761 12.2762 10.5 12 10.5C11.7239 10.5 11.5 10.2761 11.5 10V5.20703L4.35355 12.3535C4.1583 12.5488 3.84179 12.5488 3.64652 12.3535C3.45126 12.1583 3.45126 11.8417 3.64652 11.6465L10.793 4.5H6.00004C5.7239 4.5 5.50004 4.27614 5.50004 4C5.50004 3.72386 5.7239 3.5 6.00004 3.5H12Z" fill="currentColor"/>
</svg>
