<svg width="16" height="16" viewBox="0 0 16 16" fill="none" xmlns="http://www.w3.org/2000/svg">
<path d="M10 3.5C10.2761 3.5 10.5 3.72386 10.5 4C10.5 4.27614 10.2761 4.5 10 4.5H5.20703L12.3535 11.6465C12.5488 11.8417 12.5488 12.1583 12.3535 12.3535C12.1583 12.5488 11.8417 12.5488 11.6465 12.3535L4.5 5.20703V10C4.5 10.2761 4.27614 10.5 4 10.5C3.72386 10.5 3.5 10.2761 3.5 10V4C3.5 3.96701 3.5023 3.93383 3.50879 3.90137C3.51898 3.85033 3.53903 3.80293 3.56348 3.75879C3.58563 3.71875 3.61251 3.68046 3.64648 3.64648C3.68046 3.61251 3.71875 3.58563 3.75879 3.56348C3.80293 3.53903 3.85033 3.51898 3.90137 3.50879C3.93383 3.5023 3.96701 3.5 4 3.5H10Z" fill="currentColor"/>
</svg>
