<svg width="16" height="16" viewBox="0 0 16 16" fill="none" xmlns="http://www.w3.org/2000/svg">
<path d="M5.6466 3.64652C5.84187 3.4513 6.15838 3.45127 6.35363 3.64652C6.54879 3.84177 6.54882 4.15831 6.35363 4.35355L4.20715 6.50003H11.0001C11.8262 6.5001 12.5001 7.17393 12.5001 8.00003V12C12.5001 12.2761 12.2762 12.5 12.0001 12.5C11.724 12.5 11.5001 12.2762 11.5001 12V8.00003C11.5001 7.72622 11.2739 7.5001 11.0001 7.50003H4.20715L6.35363 9.64652C6.54879 9.84177 6.54882 10.1583 6.35363 10.3535C6.1584 10.5488 5.84187 10.5487 5.6466 10.3535L2.6466 7.35355C2.45134 7.15829 2.45134 6.84178 2.6466 6.64652L5.6466 3.64652Z" fill="black"/>
</svg>
