<svg width="16" height="16" viewBox="0 0 16 16" fill="none" xmlns="http://www.w3.org/2000/svg">
<path fill-rule="evenodd" clip-rule="evenodd" d="M9.09767 4.50977C9.1939 4.52894 9.28313 4.57608 9.35353 4.64648L12.3535 7.64648C12.5488 7.84174 12.5488 8.15826 12.3535 8.35352L9.35353 11.3535C9.25977 11.4473 9.13262 11.5 9.00002 11.5H5.00002C4.79781 11.5 4.61551 11.3782 4.5381 11.1914C4.46071 11.0046 4.5035 10.7895 4.6465 10.6465L7.29299 8L4.6465 5.35352C4.5035 5.21052 4.46071 4.99543 4.5381 4.80859C4.61551 4.6218 4.79781 4.5 5.00002 4.5H9.00002L9.09767 4.50977ZM8.35353 7.64648C8.54879 7.84174 8.54879 8.15826 8.35353 8.35352L6.20705 10.5H8.79298L11.293 8L8.79298 5.5H6.20705L8.35353 7.64648Z" fill="black"/>
</svg>
