<svg width="16" height="16" viewBox="0 0 16 16" fill="none" xmlns="http://www.w3.org/2000/svg">
<path fill-rule="evenodd" clip-rule="evenodd" d="M7.72461 3.58203C7.91869 3.45387 8.18265 3.47562 8.35352 3.64648L12.3535 7.64648C12.4965 7.78948 12.5393 8.00457 12.4619 8.19141C12.3845 8.3782 12.2022 8.5 12 8.5H10V11.5C10 11.7761 9.77614 12 9.5 12H6.5C6.22386 12 6 11.7761 6 11.5V8.5H4C3.79779 8.5 3.61549 8.3782 3.53809 8.19141C3.4607 8.00457 3.50349 7.78948 3.64648 7.64648L7.64648 3.64648L7.72461 3.58203ZM5.20703 7.5H6.5C6.77614 7.5 7 7.72386 7 8V11H9V8C9 7.72386 9.22386 7.5 9.5 7.5H10.793L8 4.70703L5.20703 7.5Z" fill="currentColor"/>
<path fill-rule="evenodd" clip-rule="evenodd" d="M8 1.5C11.5899 1.5 14.5 4.41015 14.5 8C14.5 11.5899 11.5899 14.5 8 14.5C4.41015 14.5 1.5 11.5899 1.5 8C1.5 4.41015 4.41015 1.5 8 1.5ZM8 2.5C4.96243 2.5 2.5 4.96243 2.5 8C2.5 11.0376 4.96243 13.5 8 13.5C11.0376 13.5 13.5 11.0376 13.5 8C13.5 4.96243 11.0376 2.5 8 2.5Z" fill="currentColor"/>
</svg>
