<svg width="16" height="16" viewBox="0 0 16 16" fill="none" xmlns="http://www.w3.org/2000/svg">
<path d="M5.90142 3.50891C5.96605 3.49599 6.03305 3.49611 6.0977 3.50891C6.10743 3.51084 6.11651 3.51522 6.12602 3.5177C6.20923 3.53936 6.28837 3.58141 6.35356 3.64661L8.35356 5.64661C8.54875 5.84188 8.5488 6.1584 8.35356 6.35364C8.15832 6.54883 7.84179 6.54881 7.64653 6.35364L6.50005 5.20715V12.0001C6.49998 12.2762 6.27613 12.5001 6.00005 12.5001C5.72395 12.5001 5.50012 12.2762 5.50005 12.0001V5.20715L4.35356 6.35364C4.15832 6.54883 3.84179 6.54881 3.64653 6.35364C3.45128 6.15839 3.45131 5.84187 3.64653 5.64661L5.64653 3.64661C5.71151 3.58163 5.79021 3.53944 5.87309 3.5177C5.8826 3.51521 5.8917 3.51085 5.90142 3.50891Z" fill="currentColor"/>
<path d="M10 3.50012C10.2762 3.50015 10.5 3.724 10.5 4.00012V10.7931L11.6465 9.64661C11.8418 9.45135 12.1583 9.45135 12.3536 9.64661C12.5487 9.84188 12.5488 10.1584 12.3536 10.3536L10.3536 12.3536C10.3202 12.387 10.2815 12.4117 10.2422 12.4337C10.2246 12.4436 10.2074 12.4543 10.1885 12.462C10.1803 12.4654 10.1715 12.467 10.1631 12.4699C10.1417 12.4773 10.1203 12.4849 10.0977 12.4894C10.0328 12.5023 9.96626 12.5024 9.90142 12.4894C9.8788 12.4849 9.85738 12.4773 9.83599 12.4699C9.82763 12.4669 9.81882 12.4654 9.8106 12.462C9.79171 12.4543 9.77452 12.4436 9.75688 12.4337C9.71787 12.4118 9.67973 12.3868 9.64653 12.3536L7.64653 10.3536C7.45129 10.1584 7.45132 9.84187 7.64653 9.64661C7.84179 9.45135 8.1583 9.45135 8.35356 9.64661L9.50005 10.7931V4.00012C9.50005 3.72398 9.72391 3.50012 10 3.50012Z" fill="currentColor"/>
</svg>
