<svg width="16" height="16" viewBox="0 0 16 16" fill="none" xmlns="http://www.w3.org/2000/svg">
<path d="M4.64661 3.64652C4.84188 3.4513 5.1584 3.45127 5.35365 3.64652C5.5488 3.84177 5.54884 4.15831 5.35365 4.35355L4.20716 5.50003H10.5001C12.1562 5.5001 13.5001 6.84393 13.5001 8.50003C13.5001 10.1561 12.1562 11.5 10.5001 11.5H4.00013C3.724 11.5 3.50015 11.2762 3.50013 11C3.50013 10.7239 3.72399 10.5 4.00013 10.5H10.5001C11.6039 10.5 12.5001 9.60383 12.5001 8.50003C12.5001 7.39622 11.6039 6.5001 10.5001 6.50003H4.20716L5.35365 7.64652C5.5488 7.84177 5.54884 8.15831 5.35365 8.35355C5.15841 8.54878 4.84188 8.54872 4.64661 8.35355L2.64661 6.35355C2.45135 6.15829 2.45135 5.84178 2.64661 5.64652L4.64661 3.64652Z" fill="black"/>
</svg>
