<svg width="16" height="16" viewBox="0 0 16 16" fill="none" xmlns="http://www.w3.org/2000/svg">
<path d="M10.6466 4.64652C10.8419 4.4513 11.1584 4.45127 11.3536 4.64652L14.3536 7.64652C14.3868 7.67971 14.4118 7.71786 14.4337 7.75687C14.4743 7.82916 14.5001 7.91121 14.5001 8.00003C14.5001 8.08856 14.4741 8.17009 14.4337 8.24222C14.4117 8.2815 14.387 8.32015 14.3536 8.35355L11.3536 11.3535C11.1584 11.5488 10.8419 11.5487 10.6466 11.3535C10.4513 11.1583 10.4513 10.8418 10.6466 10.6465L12.7931 8.50003H3.20715L5.35363 10.6465C5.54879 10.8418 5.54882 11.1583 5.35363 11.3535C5.1584 11.5488 4.84187 11.5487 4.6466 11.3535L1.6466 8.35355C1.45134 8.15829 1.45134 7.84178 1.6466 7.64652L4.6466 4.64652C4.84187 4.4513 5.15838 4.45127 5.35363 4.64652C5.54879 4.84177 5.54882 5.15831 5.35363 5.35355L3.20715 7.50003H12.7931L10.6466 5.35355C10.4513 5.15829 10.4513 4.84178 10.6466 4.64652Z" fill="black"/>
</svg>
