<svg width="16" height="16" viewBox="0 0 16 16" fill="none" xmlns="http://www.w3.org/2000/svg">
<path fill-rule="evenodd" clip-rule="evenodd" d="M6.57018 3.50488C6.73125 3.52773 6.87304 3.62824 6.94713 3.77637L8.94713 7.77637C9.01751 7.91713 9.01751 8.08287 8.94713 8.22363L6.94713 12.2236C6.86242 12.393 6.68923 12.5 6.49986 12.5H3.49986C3.32663 12.5 3.16516 12.4101 3.07408 12.2627C2.98322 12.1154 2.9752 11.9312 3.0526 11.7764L4.94029 8L3.0526 4.22363C2.9752 4.06879 2.98322 3.88463 3.07408 3.7373C3.16516 3.58994 3.32663 3.50005 3.49986 3.5H6.49986L6.57018 3.50488ZM5.94713 7.77637C6.01751 7.91713 6.01751 8.08287 5.94713 8.22363L4.30846 11.5H6.19127L7.94029 8L6.19127 4.5H4.30846L5.94713 7.77637Z" fill="currentColor"/>
<path fill-rule="evenodd" clip-rule="evenodd" d="M11.5702 3.50488C11.7312 3.52773 11.873 3.62824 11.9471 3.77637L13.9471 7.77637C14.0175 7.91713 14.0175 8.08287 13.9471 8.22363L11.9471 12.2236C11.8624 12.393 11.6892 12.5 11.4999 12.5H8.49986C8.32663 12.5 8.16516 12.4101 8.07408 12.2627C7.98322 12.1154 7.9752 11.9312 8.0526 11.7764L9.94029 8L8.0526 4.22363C7.9752 4.06879 7.98322 3.88463 8.07408 3.7373C8.16516 3.58994 8.32663 3.50005 8.49986 3.5H11.4999L11.5702 3.50488ZM10.9471 7.77637C11.0175 7.91713 11.0175 8.08287 10.9471 8.22363L9.30846 11.5H11.1913L12.9403 8L11.1913 4.5H9.30846L10.9471 7.77637Z" fill="currentColor"/>
</svg>
