<svg width="16" height="16" viewBox="0 0 16 16" fill="none" xmlns="http://www.w3.org/2000/svg">
<path d="M8 5.5C8.82614 5.5 9.5 6.17386 9.5 7V9.79297L10.6465 8.64648C10.8417 8.45122 11.1583 8.45122 11.3535 8.64648C11.5488 8.84175 11.5488 9.15826 11.3535 9.35352L9.35352 11.3535C9.31945 11.3876 9.2804 11.4134 9.24023 11.4355C9.19596 11.46 9.14884 11.4801 9.09766 11.4902C9.0329 11.5031 8.96611 11.5032 8.90137 11.4902C8.85024 11.48 8.80299 11.4601 8.75879 11.4355C8.71891 11.4134 8.68034 11.3874 8.64648 11.3535L6.64648 9.35352C6.45122 9.15825 6.45122 8.84175 6.64648 8.64648C6.84175 8.45122 7.15825 8.45122 7.35352 8.64648L8.5 9.79297V7C8.5 6.72614 8.27386 6.5 8 6.5H5C4.72386 6.5 4.5 6.27614 4.5 6C4.5 5.72386 4.72386 5.5 5 5.5H8Z" fill="black"/>
<path fill-rule="evenodd" clip-rule="evenodd" d="M8 1.5C11.5899 1.5 14.5 4.41015 14.5 8C14.5 11.5899 11.5899 14.5 8 14.5C4.41015 14.5 1.5 11.5899 1.5 8C1.5 4.41015 4.41015 1.5 8 1.5ZM8 2.5C4.96243 2.5 2.5 4.96243 2.5 8C2.5 11.0376 4.96243 13.5 8 13.5C11.0376 13.5 13.5 11.0376 13.5 8C13.5 4.96243 11.0376 2.5 8 2.5Z" fill="black"/>
</svg>
