<svg width="16" height="16" viewBox="0 0 16 16" fill="none" xmlns="http://www.w3.org/2000/svg">
<path d="M4 2.00977C4.27606 2.00977 4.49987 2.23374 4.5 2.50977V3.99512C5.41713 3.12627 6.61204 2.5 8 2.5C11.0361 2.5 13.5 4.96386 13.5 8C13.5 11.0361 11.0361 13.5 8 13.5C4.96386 13.5 2.5 11.0361 2.5 8C2.5 7.72386 2.72386 7.5 3 7.5C3.27614 7.5 3.5 7.72386 3.5 8C3.5 10.4839 5.51614 12.5 8 12.5C10.4839 12.5 12.5 10.4839 12.5 8C12.5 5.51614 10.4839 3.5 8 3.5C6.87035 3.5 5.85789 4.04209 5.06641 4.83984H6.83008C7.1061 4.83988 7.32995 5.06384 7.33008 5.33984C7.33004 5.61592 7.10616 5.8398 6.83008 5.83984H4L3.99609 5.83887C3.97643 5.83873 3.95712 5.83547 3.9375 5.83301C3.92376 5.83128 3.90985 5.83192 3.89648 5.8291C3.85364 5.82006 3.81272 5.803 3.77246 5.78223C3.75317 5.77227 3.73355 5.76327 3.71582 5.75098L3.71387 5.75C3.70471 5.74361 3.69708 5.7354 3.68848 5.72852C3.6742 5.71705 3.65941 5.7063 3.64648 5.69336L3.63672 5.68359C3.62789 5.67427 3.62129 5.66319 3.61328 5.65332C3.60169 5.63903 3.59006 5.62491 3.58008 5.60938C3.57493 5.60135 3.57009 5.59323 3.56543 5.58496C3.55436 5.56536 3.54354 5.54554 3.53516 5.52441C3.53002 5.51145 3.52746 5.49768 3.52344 5.48438C3.51818 5.46699 3.51215 5.44977 3.50879 5.43164C3.50554 5.41425 3.50531 5.39656 3.50391 5.37891C3.50291 5.36604 3.5 5.35297 3.5 5.33984V2.50977C3.50013 2.23374 3.72394 2.00977 4 2.00977Z" fill="currentColor"/>
</svg>
