<svg width="16" height="16" viewBox="0 0 16 16" fill="none" xmlns="http://www.w3.org/2000/svg">
<path d="M13 7.5C13.2761 7.5 13.5 7.72386 13.5 8V12C13.5 12.8261 12.8261 13.5 12 13.5H4C3.17386 13.5 2.5 12.8261 2.5 12V8C2.5 7.72386 2.72386 7.5 3 7.5C3.27614 7.5 3.5 7.72386 3.5 8V12C3.5 12.2739 3.72614 12.5 4 12.5H12C12.2739 12.5 12.5 12.2739 12.5 12V8C12.5 7.72386 12.7239 7.5 13 7.5Z" fill="black"/>
<path d="M8 2.5C8.27614 2.5 8.5 2.72386 8.5 3V8.79297L9.64648 7.64648C9.84175 7.45122 10.1583 7.45122 10.3535 7.64648C10.5488 7.84175 10.5488 8.15826 10.3535 8.35352L8.35352 10.3535C8.31945 10.3876 8.2804 10.4134 8.24023 10.4355C8.19596 10.46 8.14884 10.4801 8.09766 10.4902C8.0329 10.5031 7.96611 10.5032 7.90137 10.4902C7.85024 10.48 7.80299 10.4601 7.75879 10.4355C7.71891 10.4134 7.68034 10.3874 7.64648 10.3535L5.64648 8.35352C5.45122 8.15825 5.45122 7.84175 5.64648 7.64648C5.84175 7.45122 6.15825 7.45122 6.35352 7.64648L7.5 8.79297V3C7.5 2.72386 7.72386 2.5 8 2.5Z" fill="black"/>
</svg>
