<svg width="16" height="16" viewBox="0 0 16 16" fill="none" xmlns="http://www.w3.org/2000/svg">
<path d="M8.01566 1.50098C8.03629 1.50164 8.05676 1.50363 8.07719 1.50684C8.09074 1.50894 8.10406 1.51148 8.11723 1.51465C8.13414 1.51873 8.15054 1.52441 8.16703 1.53027C8.17814 1.53422 8.1895 1.53729 8.20023 1.54199C8.21606 1.54892 8.23095 1.55777 8.24613 1.56641C8.25939 1.57395 8.27273 1.58116 8.28519 1.58984C8.30911 1.60653 8.33222 1.62515 8.35355 1.64648L11.3536 4.64648C11.5488 4.84174 11.5488 5.15826 11.3536 5.35352C11.1583 5.54877 10.8418 5.54875 10.6465 5.35352L8.50004 3.20703V12.793L10.6465 10.6465C10.8418 10.4512 11.1583 10.4512 11.3536 10.6465C11.5488 10.8417 11.5488 11.1583 11.3536 11.3535L8.35355 14.3535C8.3195 14.3876 8.28042 14.4134 8.24027 14.4355C8.19601 14.46 8.14888 14.4801 8.09769 14.4902C8.03294 14.5031 7.96615 14.5032 7.90141 14.4902C7.85028 14.48 7.80303 14.4601 7.75883 14.4355C7.71894 14.4134 7.68038 14.3874 7.64652 14.3535L4.64652 11.3535C4.45126 11.1583 4.45126 10.8417 4.64652 10.6465C4.84179 10.4512 5.1583 10.4512 5.35355 10.6465L7.50004 12.793V3.20703L5.35355 5.35352C5.1583 5.54877 4.84179 5.54875 4.64652 5.35352C4.45126 5.15825 4.45126 4.84175 4.64652 4.64648L7.64652 1.64648L7.72465 1.58203C7.75 1.56529 7.77637 1.55069 7.80375 1.53906C7.80752 1.53745 7.81165 1.53667 7.81547 1.53516C7.84065 1.5252 7.86642 1.51743 7.89262 1.51172C7.90096 1.50989 7.90952 1.50922 7.91801 1.50781C7.94071 1.50408 7.96342 1.50157 7.98637 1.50098C7.9909 1.50085 7.99547 1.5 8.00004 1.5C8.00527 1.5 8.01047 1.50082 8.01566 1.50098Z" fill="currentColor"/>
</svg>
