<svg width="16" height="16" viewBox="0 0 16 16" fill="none" xmlns="http://www.w3.org/2000/svg">
<path fill-rule="evenodd" clip-rule="evenodd" d="M12.0002 3.5C12.2762 3.50013 12.5002 3.72394 12.5002 4V11.0703C12.5001 11.2724 12.3783 11.4548 12.1916 11.5322C12.0049 11.6095 11.7897 11.5666 11.6467 11.4238L9.88008 9.65723L6.69355 12.8438C6.59981 12.9374 6.47257 12.9902 6.34004 12.9902C6.20752 12.9902 6.08027 12.9374 5.98652 12.8438L3.15644 10.0137C2.96123 9.81844 2.96128 9.5019 3.15644 9.30664L6.34297 6.12012L4.57637 4.35352C4.43342 4.21052 4.3906 3.9954 4.46797 3.80859C4.54535 3.62181 4.72771 3.50005 4.92988 3.5H12.0002ZM7.40351 5.7666C7.49723 5.86036 7.55 5.98755 7.55 6.12012C7.54997 6.25268 7.49725 6.37989 7.40351 6.47363L4.21699 9.66016L6.34004 11.7832L9.52656 8.59668L9.60273 8.53418C9.68426 8.47983 9.78065 8.4502 9.88008 8.4502C10.0126 8.45023 10.1399 8.50295 10.2336 8.59668L11.5002 9.86328V4.5H6.13691L7.40351 5.7666Z" fill="black"/>
</svg>
