<svg width="16" height="16" viewBox="0 0 16 16" fill="none" xmlns="http://www.w3.org/2000/svg">
<path d="M13 4.5C13.2761 4.5 13.5 4.72386 13.5 5V11C13.5 11.2761 13.2761 11.5 13 11.5C12.7239 11.5 12.5 11.2761 12.5 11V9.20703L10.3535 11.3535C10.1583 11.5488 9.84175 11.5488 9.64648 11.3535C9.45122 11.1583 9.45122 10.8417 9.64648 10.6465L11.793 8.5H3C2.72386 8.5 2.5 8.27614 2.5 8C2.5 7.72386 2.72386 7.5 3 7.5H11.793L9.64648 5.35352C9.45122 5.15825 9.45122 4.84175 9.64648 4.64648C9.84175 4.45122 10.1583 4.45122 10.3535 4.64648L12.5 6.79297V5C12.5 4.72386 12.7239 4.5 13 4.5Z" fill="black"/>
</svg>
