<svg width="16" height="16" viewBox="0 0 16 16" fill="none" xmlns="http://www.w3.org/2000/svg">
<path d="M8.01565 1.50098C8.03627 1.50164 8.05674 1.50363 8.07717 1.50684C8.09072 1.50894 8.10404 1.51148 8.11721 1.51465C8.13412 1.51873 8.15052 1.52441 8.16702 1.53027C8.17813 1.53422 8.18949 1.53729 8.20022 1.54199C8.21604 1.54892 8.23094 1.55777 8.24612 1.56641C8.25937 1.57395 8.27272 1.58116 8.28518 1.58984C8.3091 1.60653 8.3322 1.62515 8.35354 1.64648L11.3535 4.64648C11.5488 4.84174 11.5488 5.15826 11.3535 5.35352C11.1583 5.54877 10.8418 5.54875 10.6465 5.35352L8.50002 3.20703V12.793L10.6465 10.6465C10.8418 10.4512 11.1583 10.4512 11.3535 10.6465C11.5488 10.8417 11.5488 11.1583 11.3535 11.3535L8.35354 14.3535C8.31948 14.3876 8.28041 14.4134 8.24026 14.4355C8.19599 14.46 8.14886 14.4801 8.09768 14.4902C8.03292 14.5031 7.96613 14.5032 7.90139 14.4902C7.85026 14.48 7.80302 14.4601 7.75881 14.4355C7.71893 14.4134 7.68037 14.3874 7.64651 14.3535L4.64651 11.3535C4.45125 11.1583 4.45125 10.8417 4.64651 10.6465C4.84177 10.4512 5.15828 10.4512 5.35354 10.6465L7.50002 12.793V3.20703L5.35354 5.35352C5.15829 5.54877 4.84177 5.54875 4.64651 5.35352C4.45125 5.15825 4.45125 4.84175 4.64651 4.64648L7.64651 1.64648L7.72463 1.58203C7.74999 1.56529 7.77636 1.55069 7.80373 1.53906C7.80751 1.53745 7.81163 1.53667 7.81545 1.53516C7.84063 1.5252 7.8664 1.51743 7.8926 1.51172C7.90094 1.50989 7.9095 1.50922 7.91799 1.50781C7.94069 1.50408 7.96341 1.50157 7.98635 1.50098C7.99089 1.50085 7.99546 1.5 8.00002 1.5C8.00526 1.5 8.01045 1.50082 8.01565 1.50098Z" fill="black"/>
</svg>
