<svg width="16" height="16" viewBox="0 0 16 16" fill="none" xmlns="http://www.w3.org/2000/svg">
<path fill-rule="evenodd" clip-rule="evenodd" d="M8.78418 2.55566C8.95567 2.58143 9.10407 2.69494 9.17188 2.8584C9.24925 3.0452 9.20641 3.26032 9.06348 3.40332L7.64648 4.81934L11.1797 8.35254L12.5967 6.93652C12.7396 6.79365 12.9549 6.75088 13.1416 6.82812C13.3281 6.90561 13.4501 7.08806 13.4502 7.29004V12.9502C13.45 13.226 13.226 13.45 12.9502 13.4502H7.29004C7.08806 13.4501 6.9056 13.3281 6.82812 13.1416C6.75088 12.9549 6.79365 12.7396 6.93652 12.5967L8.35254 11.1797L4.81934 7.64648L3.40332 9.06348C3.26032 9.20641 3.0452 9.24925 2.8584 9.17188C2.67175 9.09445 2.54987 8.91204 2.5498 8.70996V3.0498C2.5499 2.77381 2.77381 2.54991 3.0498 2.5498H8.70996L8.78418 2.55566ZM3.5498 7.50195L4.46582 6.58594C4.55943 6.49233 4.68697 6.43963 4.81934 6.43945C4.95185 6.43945 5.08008 6.49229 5.17383 6.58594L9.41309 10.8262C9.60835 11.0214 9.60835 11.3379 9.41309 11.5332L8.49707 12.4502H12.4502V8.49609L11.5332 9.41309C11.4394 9.50685 11.3123 9.55957 11.1797 9.55957C11.0472 9.55949 10.9199 9.50678 10.8262 9.41309L6.58594 5.17383C6.39087 4.97855 6.39075 4.66102 6.58594 4.46582L7.50293 3.5498H3.5498V7.50195Z" fill="currentColor"/>
</svg>
