<svg width="16" height="16" viewBox="0 0 16 16" fill="none" xmlns="http://www.w3.org/2000/svg">
<path fill-rule="evenodd" clip-rule="evenodd" d="M11.7764 8.0526C11.9312 7.9752 12.1154 7.98321 12.2627 8.07409C12.4101 8.16517 12.5 8.32663 12.5 8.49987V11.4999C12.5 11.6892 12.393 11.8624 12.2236 11.9471L8.22363 13.9471C8.08287 14.0175 7.91713 14.0175 7.77637 13.9471L3.77637 11.9471C3.607 11.8624 3.5 11.6892 3.5 11.4999V8.49987C3.50004 8.32663 3.58993 8.16517 3.7373 8.07409C3.88463 7.98321 4.06878 7.9752 4.22363 8.0526L8 9.9403L11.7764 8.0526ZM8.22363 10.9471C8.08287 11.0175 7.91713 11.0175 7.77637 10.9471L4.5 9.30846V11.1903L8 12.9403L11.5 11.1903V9.30846L8.22363 10.9471Z" fill="currentColor"/>
<path fill-rule="evenodd" clip-rule="evenodd" d="M11.7764 3.0526C11.9312 2.9752 12.1154 2.98321 12.2627 3.07409C12.4101 3.16517 12.5 3.32663 12.5 3.49987V6.49987C12.5 6.68923 12.393 6.86243 12.2236 6.94713L8.22363 8.94713C8.08287 9.01751 7.91713 9.01751 7.77637 8.94713L3.77637 6.94713C3.607 6.86243 3.5 6.68923 3.5 6.49987V3.49987C3.50004 3.32663 3.58993 3.16517 3.7373 3.07409C3.88463 2.98321 4.06878 2.9752 4.22363 3.0526L8 4.9403L11.7764 3.0526ZM8.22363 5.94713C8.08287 6.01751 7.91713 6.01751 7.77637 5.94713L4.5 4.30846V6.1903L8 7.9403L11.5 6.1903V4.30846L8.22363 5.94713Z" fill="currentColor"/>
</svg>
