<svg width="16" height="16" viewBox="0 0 16 16" fill="none" xmlns="http://www.w3.org/2000/svg">
<path d="M12.5 3.48999H9.49999V6.98999C9.49999 7.26613 9.27614 7.48999 8.99999 7.48999H5.99999C5.72385 7.48999 5.49999 7.26613 5.49999 6.98999V6.19702L2.70702 8.98999L5.49999 11.783V10.99C5.49999 10.7138 5.72385 10.49 5.99999 10.49H8.99999C10.9339 10.49 12.5 8.92385 12.5 6.98999V3.48999ZM13.5 6.98999C13.5 9.47613 11.4861 11.49 8.99999 11.49H6.49999V12.99C6.49999 13.1922 6.3782 13.3745 6.1914 13.4519C6.00456 13.5293 5.78948 13.4865 5.64648 13.3435L1.64648 9.34351C1.45121 9.14824 1.45121 8.83174 1.64648 8.63647L5.64648 4.63647C5.78948 4.49348 6.00456 4.45069 6.1914 4.52808C6.3782 4.60548 6.49999 4.78778 6.49999 4.98999V6.48999H8.49999V2.98999C8.49999 2.71385 8.72385 2.48999 8.99999 2.48999H13C13.2761 2.48999 13.5 2.71385 13.5 2.98999V6.98999Z" fill="black"/>
</svg>
