<svg width="16" height="16" viewBox="0 0 16 16" fill="none" xmlns="http://www.w3.org/2000/svg">
<path fill-rule="evenodd" clip-rule="evenodd" d="M5.64652 3.6465C5.78952 3.50351 6.00461 3.46071 6.19144 3.5381C6.37822 3.61552 6.50004 3.79782 6.50004 4.00001V5.50001H9.00004C11.4862 5.50004 13.5 7.51389 13.5 10V12C13.5 12.2761 13.2762 12.5 13 12.5H9.00004C8.72391 12.5 8.50005 12.2761 8.50004 12V10.5H6.50004V12C6.50003 12.2022 6.37822 12.3845 6.19144 12.4619C6.00462 12.5393 5.78952 12.4965 5.64652 12.3535L1.64652 8.35353C1.45126 8.15827 1.45126 7.84176 1.64652 7.6465L5.64652 3.6465ZM2.70707 8.00001L5.50004 10.793V10C5.50004 9.72387 5.7239 9.50001 6.00004 9.50001H9.00004C9.27616 9.50004 9.50004 9.72389 9.50004 10V11.5H12.5V10C12.5 8.06617 10.9339 6.50004 9.00004 6.50001H6.00004C5.72391 6.50001 5.50005 6.27614 5.50004 6.00001V5.20705L2.70707 8.00001Z" fill="black"/>
</svg>
