<svg width="16" height="16" viewBox="0 0 16 16" fill="none" xmlns="http://www.w3.org/2000/svg">
<path fill-rule="evenodd" clip-rule="evenodd" d="M11 4.5C11.2022 4.50002 11.3845 4.62181 11.4619 4.80859C11.5393 4.99542 11.4965 5.21052 11.3535 5.35352L8.70705 8L11.3535 10.6465C11.4965 10.7895 11.5393 11.0046 11.4619 11.1914C11.3845 11.3782 11.2022 11.5 11 11.5H7.00002C6.86743 11.5 6.74027 11.4473 6.64651 11.3535L3.64651 8.35352C3.45125 8.15825 3.45125 7.84175 3.64651 7.64648L6.64651 4.64648L6.72268 4.58398C6.80421 4.52964 6.9006 4.5 7.00002 4.5H11ZM4.70705 8L7.20705 10.5H9.79299L7.64651 8.35352C7.45125 8.15825 7.45125 7.84175 7.64651 7.64648L9.79299 5.5H7.20705L4.70705 8Z" fill="currentColor"/>
</svg>
