<svg width="16" height="16" viewBox="0 0 16 16" fill="none" xmlns="http://www.w3.org/2000/svg">
<path fill-rule="evenodd" clip-rule="evenodd" d="M7.88574 7.01398C7.99839 6.98752 8.11799 7.00023 8.22363 7.05305L12.2236 9.05305C12.393 9.13776 12.5 9.31097 12.5 9.50031V12.5003C12.4999 12.6735 12.41 12.835 12.2627 12.9261C12.1154 13.0169 11.9312 13.0249 11.7764 12.9476L8 11.0589L4.22363 12.9476C4.06882 13.0249 3.8846 13.0169 3.7373 12.9261C3.58998 12.835 3.5001 12.6735 3.5 12.5003V9.50031L3.50488 9.43C3.52772 9.26895 3.62827 9.12714 3.77637 9.05305L7.77637 7.05305L7.88574 7.01398ZM4.5 9.8089V11.6907L7.77637 10.053C7.91713 9.98266 8.08287 9.98266 8.22363 10.053L11.5 11.6907V9.8089L8 8.0589L4.5 9.8089Z" fill="currentColor"/>
<path fill-rule="evenodd" clip-rule="evenodd" d="M7.88574 2.01398C7.99839 1.98752 8.11799 2.00022 8.22363 2.05305L12.2236 4.05305C12.393 4.13776 12.5 4.31097 12.5 4.50031V7.50031C12.4999 7.67349 12.41 7.83504 12.2627 7.92609C12.1154 8.01691 11.9312 8.02493 11.7764 7.94758L8 6.0589L4.22363 7.94758C4.06882 8.02493 3.8846 8.01691 3.7373 7.92609C3.58998 7.83504 3.5001 7.67349 3.5 7.50031V4.50031L3.50488 4.43C3.52772 4.26895 3.62827 4.12714 3.77637 4.05305L7.77637 2.05305L7.88574 2.01398ZM4.5 4.8089V6.69074L7.77637 5.05305C7.91713 4.98266 8.08287 4.98266 8.22363 5.05305L11.5 6.69074V4.8089L8 3.0589L4.5 4.8089Z" fill="currentColor"/>
</svg>
