<svg width="16" height="16" viewBox="0 0 16 16" fill="none" xmlns="http://www.w3.org/2000/svg">
<path d="M8.01566 2.50098C8.03629 2.50164 8.05676 2.50363 8.07719 2.50684C8.09074 2.50894 8.10406 2.51148 8.11723 2.51465C8.13414 2.51873 8.15054 2.52441 8.16703 2.53027C8.17814 2.53422 8.1895 2.53729 8.20023 2.54199C8.21606 2.54892 8.23095 2.55777 8.24613 2.56641C8.25939 2.57395 8.27273 2.58116 8.28519 2.58984C8.30912 2.60653 8.33222 2.62515 8.35355 2.64648L12.3536 6.64648C12.5488 6.84174 12.5488 7.15826 12.3536 7.35352C12.1583 7.54877 11.8418 7.54876 11.6465 7.35352L8.50004 4.20703V13C8.50004 13.2761 8.27616 13.5 8.00004 13.5C7.7239 13.5 7.50004 13.2761 7.50004 13V4.20703L4.35355 7.35352C4.1583 7.54877 3.84179 7.54876 3.64652 7.35352C3.45126 7.15825 3.45126 6.84175 3.64652 6.64648L7.64652 2.64648L7.72465 2.58203C7.75 2.56529 7.77637 2.55069 7.80375 2.53906C7.80752 2.53745 7.81165 2.53667 7.81547 2.53516C7.84065 2.5252 7.86642 2.51743 7.89262 2.51172C7.90096 2.50989 7.90952 2.50922 7.91801 2.50781C7.94071 2.50408 7.96342 2.50157 7.98637 2.50098C7.9909 2.50085 7.99547 2.5 8.00004 2.5C8.00527 2.5 8.01047 2.50082 8.01566 2.50098Z" fill="black"/>
</svg>
