<svg width="16" height="16" viewBox="0 0 16 16" fill="none" xmlns="http://www.w3.org/2000/svg">
<path d="M8.01562 2.50098C8.03625 2.50164 8.05672 2.50363 8.07715 2.50684C8.0907 2.50894 8.10402 2.51148 8.11719 2.51465C8.13539 2.51905 8.15318 2.52479 8.1709 2.53125C8.18031 2.53468 8.19008 2.53705 8.19922 2.54102C8.20309 2.5427 8.2071 2.54411 8.21094 2.5459L8.2793 2.58496C8.2814 2.58638 8.28308 2.5884 8.28516 2.58984C8.30909 2.60653 8.33217 2.62514 8.35352 2.64648L11.3535 5.64648C11.5488 5.84175 11.5488 6.15826 11.3535 6.35352C11.1583 6.54878 10.8417 6.54877 10.6465 6.35352L8.5 4.20703V12.5H11C11.2761 12.5 11.5 12.7239 11.5 13C11.5 13.2761 11.2761 13.5 11 13.5H5C4.72386 13.5 4.5 13.2761 4.5 13C4.5 12.7239 4.72386 12.5 5 12.5H7.5V4.20703L5.35352 6.35352C5.15826 6.54878 4.84175 6.54877 4.64648 6.35352C4.45122 6.15825 4.45122 5.84175 4.64648 5.64648L7.64648 2.64648L7.72461 2.58203C7.74996 2.56529 7.77633 2.55069 7.80371 2.53906C7.80748 2.53745 7.81161 2.53667 7.81543 2.53516C7.84061 2.52519 7.86638 2.51743 7.89258 2.51172C7.90092 2.50989 7.90948 2.50922 7.91797 2.50781C7.94067 2.50408 7.96338 2.50157 7.98633 2.50098C7.99088 2.50085 7.99542 2.5 8 2.5C8.00523 2.5 8.01043 2.50082 8.01562 2.50098Z" fill="currentColor"/>
</svg>
