<svg width="16" height="16" viewBox="0 0 16 16" fill="none" xmlns="http://www.w3.org/2000/svg">
<path fill-rule="evenodd" clip-rule="evenodd" d="M10 2.5C10.2761 2.50002 10.5 2.72387 10.5 3V7.5H13C13.2022 7.50001 13.3845 7.6218 13.4619 7.80859C13.5393 7.99542 13.4965 8.21052 13.3535 8.35352L8.35353 13.3535C8.15827 13.5488 7.84176 13.5488 7.6465 13.3535L2.6465 8.35352C2.5035 8.21052 2.46071 7.99543 2.5381 7.80859C2.61551 7.6218 2.79781 7.5 3.00002 7.5H5.50002V3C5.50002 2.72386 5.72387 2.5 6.00002 2.5H10ZM6.50002 8C6.50002 8.27613 6.27615 8.49998 6.00002 8.5H4.20705L8.00002 12.293L11.793 8.5H10C9.72387 8.5 9.50002 8.27614 9.50002 8V3.5H6.50002V8Z" fill="black"/>
</svg>
