<svg width="16" height="16" viewBox="0 0 16 16" fill="none" xmlns="http://www.w3.org/2000/svg">
<path d="M11.7002 7.09958C11.8517 6.98616 12.0544 6.96807 12.2236 7.05271C12.393 7.1374 12.5 7.31059 12.5 7.49997V10.5C12.5 10.6574 12.4257 10.8059 12.2998 10.9004L8.2998 13.9004C8.12216 14.0334 7.87784 14.0334 7.7002 13.9004L3.7002 10.9004C3.57429 10.8059 3.5 10.6574 3.5 10.5V7.49997C3.5 7.31059 3.60698 7.1374 3.77637 7.05271C3.94564 6.96807 4.14833 6.98616 4.2998 7.09958L8 9.874L11.7002 7.09958ZM8.2998 10.9004C8.12216 11.0334 7.87784 11.0334 7.7002 10.9004L4.5 8.49997V10.249L8 12.874L11.5 10.249V8.49997L8.2998 10.9004ZM11.7002 2.09958C11.8517 1.98616 12.0544 1.96807 12.2236 2.05271C12.393 2.1374 12.5 2.31059 12.5 2.49997V5.49997C12.5 5.65735 12.4257 5.80594 12.2998 5.90036L8.2998 8.90036C8.12216 9.03338 7.87784 9.03338 7.7002 8.90036L3.7002 5.90036C3.57429 5.80594 3.5 5.65735 3.5 5.49997V2.49997C3.5 2.31059 3.60698 2.1374 3.77637 2.05271C3.94564 1.96807 4.14833 1.98616 4.2998 2.09958L8 4.874L11.7002 2.09958ZM8.2998 5.90036C8.12216 6.03338 7.87784 6.03338 7.7002 5.90036L4.5 3.49997V5.249L8 7.874L11.5 5.249V3.49997L8.2998 5.90036Z" fill="currentColor"/>
</svg>
