<svg width="16" height="16" viewBox="0 0 16 16" fill="none" xmlns="http://www.w3.org/2000/svg">
<path d="M9.01562 2.50098C9.03625 2.50164 9.05672 2.50363 9.07715 2.50684C9.0907 2.50894 9.10402 2.51148 9.11719 2.51465C9.13539 2.51904 9.15318 2.52479 9.1709 2.53125C9.18031 2.53468 9.19008 2.53705 9.19922 2.54102C9.20309 2.5427 9.2071 2.54411 9.21094 2.5459L9.2793 2.58496C9.2814 2.58638 9.28308 2.5884 9.28516 2.58984C9.30909 2.60653 9.33217 2.62514 9.35352 2.64648L12.3535 5.64648C12.5488 5.84175 12.5488 6.15825 12.3535 6.35352C12.1583 6.54877 11.8417 6.54877 11.6465 6.35352L9.5 4.20703V11C9.5 11.8261 8.82614 12.5 8 12.5H4C3.72386 12.5 3.5 12.2761 3.5 12C3.5 11.7239 3.72386 11.5 4 11.5H8C8.27386 11.5 8.5 11.2739 8.5 11V4.20703L6.35352 6.35352C6.15825 6.54877 5.84175 6.54877 5.64648 6.35352C5.45122 6.15825 5.45123 5.84175 5.64648 5.64648L8.64648 2.64648L8.72461 2.58203C8.74996 2.56529 8.77634 2.55069 8.80371 2.53906C8.80748 2.53745 8.81161 2.53667 8.81543 2.53516C8.84061 2.52519 8.86638 2.51743 8.89258 2.51172C8.90092 2.50989 8.90948 2.50922 8.91797 2.50781C8.94067 2.50407 8.96338 2.50157 8.98633 2.50098C8.99088 2.50085 8.99542 2.5 9 2.5C9.00524 2.5 9.01043 2.50082 9.01562 2.50098Z" fill="currentColor"/>
</svg>
