<svg width="16" height="16" viewBox="0 0 16 16" fill="none" xmlns="http://www.w3.org/2000/svg">
<path d="M7.64648 1.64652C7.84175 1.45126 8.15825 1.45126 8.35352 1.64652C8.54875 1.84179 8.54877 2.1583 8.35352 2.35355L7.20703 3.50004H8C10.4861 3.50004 12.5 5.5139 12.5 8.00004C12.5 10.4862 10.4861 12.5 8 12.5C5.51387 12.5 3.50002 10.4862 3.5 8.00004C3.5 7.7239 3.72386 7.50004 4 7.50004C4.27614 7.50004 4.5 7.7239 4.5 8.00004C4.50002 9.93388 6.06615 11.5 8 11.5C9.93385 11.5 11.5 9.93388 11.5 8.00004C11.5 6.06618 9.93386 4.50004 8 4.50004H7.20703L8.35352 5.64652C8.54875 5.84179 8.54877 6.1583 8.35352 6.35355C8.15826 6.54879 7.84174 6.54878 7.64648 6.35355L5.64648 4.35355C5.61231 4.31938 5.58569 4.28058 5.56348 4.24027C5.53909 4.19606 5.51889 4.14879 5.50879 4.09769C5.49599 4.03306 5.49588 3.96603 5.50879 3.90141C5.51898 3.85037 5.53903 3.80297 5.56348 3.75883C5.58563 3.71879 5.61251 3.6805 5.64648 3.64652L7.64648 1.64652Z" fill="black"/>
</svg>
