<svg width="16" height="16" viewBox="0 0 16 16" fill="none" xmlns="http://www.w3.org/2000/svg">
<path d="M11 2.5C11.2761 2.5 11.5 2.72386 11.5 3C11.5 3.27614 11.2761 3.5 11 3.5H9.20703L11.3535 5.64648C11.5488 5.84175 11.5488 6.15826 11.3535 6.35352C11.1583 6.54878 10.8417 6.54877 10.6465 6.35352L8.5 4.20703V13C8.5 13.2761 8.27614 13.5 8 13.5C7.72386 13.5 7.5 13.2761 7.5 13V4.20703L5.35352 6.35352C5.15826 6.54878 4.84175 6.54877 4.64648 6.35352C4.45122 6.15825 4.45122 5.84175 4.64648 5.64648L6.79297 3.5H5C4.72386 3.5 4.5 3.27614 4.5 3C4.5 2.72386 4.72386 2.5 5 2.5H11Z" fill="currentColor"/>
</svg>
