<svg width="16" height="16" viewBox="0 0 16 16" fill="none" xmlns="http://www.w3.org/2000/svg">
<path fill-rule="evenodd" clip-rule="evenodd" d="M7.49995 3.5C7.67323 3.5 7.83463 3.58991 7.92573 3.7373C8.01665 3.88466 8.02466 4.06875 7.94722 4.22363L6.05854 8L7.94722 11.7764C8.02466 11.9312 8.01665 12.1153 7.92573 12.2627C7.83463 12.4101 7.67323 12.5 7.49995 12.5H4.49995C4.31058 12.5 4.13737 12.393 4.05268 12.2236L2.05268 8.22363C1.98232 8.08288 1.98232 7.91712 2.05268 7.77637L4.05268 3.77637L4.08882 3.71582C4.18129 3.58199 4.33434 3.50002 4.49995 3.5H7.49995ZM3.05854 8L4.80854 11.5H6.69136L5.05268 8.22363C4.98232 8.08288 4.98232 7.91712 5.05268 7.77637L6.69136 4.5H4.80854L3.05854 8Z" fill="currentColor"/>
<path fill-rule="evenodd" clip-rule="evenodd" d="M12.5 3.5C12.6732 3.5 12.8346 3.58991 12.9257 3.7373C13.0166 3.88466 13.0247 4.06875 12.9472 4.22363L11.0585 8L12.9472 11.7764C13.0247 11.9312 13.0166 12.1153 12.9257 12.2627C12.8346 12.4101 12.6732 12.5 12.5 12.5H9.49995C9.31058 12.5 9.13737 12.393 9.05268 12.2236L7.05268 8.22363C6.98232 8.08288 6.98232 7.91712 7.05268 7.77637L9.05268 3.77637L9.08882 3.71582C9.18129 3.58199 9.33434 3.50002 9.49995 3.5H12.5ZM8.05854 8L9.80854 11.5H11.6914L10.0527 8.22363C9.98232 8.08288 9.98232 7.91712 10.0527 7.77637L11.6914 4.5H9.80854L8.05854 8Z" fill="currentColor"/>
</svg>
