<svg width="16" height="16" viewBox="0 0 16 16" fill="none" xmlns="http://www.w3.org/2000/svg">
<path d="M5.9014 3.50891C5.96603 3.49599 6.03304 3.49611 6.09769 3.50891C6.10741 3.51084 6.1165 3.51522 6.12601 3.5177C6.20921 3.53936 6.28835 3.58141 6.35355 3.64661L8.35355 5.64661C8.54873 5.84188 8.54879 6.1584 8.35355 6.35364C8.15831 6.54883 7.84177 6.54881 7.64652 6.35364L6.50003 5.20715V12.0001C6.49996 12.2762 6.27611 12.5001 6.00003 12.5001C5.72393 12.5001 5.5001 12.2762 5.50003 12.0001V5.20715L4.35355 6.35364C4.15831 6.54883 3.84177 6.54881 3.64652 6.35364C3.45127 6.15839 3.4513 5.84187 3.64652 5.64661L5.64652 3.64661C5.71149 3.58163 5.79019 3.53944 5.87308 3.5177C5.88258 3.51521 5.89168 3.51085 5.9014 3.50891Z" fill="black"/>
<path d="M10 3.50012C10.2762 3.50015 10.5 3.724 10.5 4.00012V10.7931L11.6465 9.64661C11.8418 9.45135 12.1583 9.45135 12.3535 9.64661C12.5487 9.84188 12.5488 10.1584 12.3535 10.3536L10.3535 12.3536C10.3201 12.387 10.2815 12.4117 10.2422 12.4337C10.2246 12.4436 10.2074 12.4543 10.1885 12.462C10.1803 12.4654 10.1715 12.467 10.1631 12.4699C10.1417 12.4773 10.1203 12.4849 10.0977 12.4894C10.0328 12.5023 9.96625 12.5024 9.9014 12.4894C9.87879 12.4849 9.85737 12.4773 9.83597 12.4699C9.82761 12.4669 9.8188 12.4654 9.81058 12.462C9.7917 12.4543 9.77451 12.4436 9.75687 12.4337C9.71786 12.4118 9.67971 12.3868 9.64652 12.3536L7.64652 10.3536C7.45127 10.1584 7.4513 9.84187 7.64652 9.64661C7.84178 9.45135 8.15829 9.45135 8.35355 9.64661L9.50003 10.7931V4.00012C9.50003 3.72398 9.72389 3.50012 10 3.50012Z" fill="black"/>
</svg>
