<svg width="16" height="16" viewBox="0 0 16 16" fill="none" xmlns="http://www.w3.org/2000/svg">
<path fill-rule="evenodd" clip-rule="evenodd" d="M7.72463 2.58183C7.91866 2.45376 8.1827 2.47553 8.35353 2.64628L13.3535 7.64628C13.4965 7.78923 13.5392 8.0044 13.4619 8.1912C13.3845 8.378 13.2022 8.49979 13 8.49979H10.5V12.9998C10.5 13.2759 10.2762 13.4998 10 13.4998H6.00002C5.72388 13.4998 5.50002 13.2759 5.50002 12.9998V8.49979H3.00002C2.79781 8.49979 2.61551 8.378 2.5381 8.1912C2.46081 8.0044 2.50355 7.78923 2.6465 7.64628L7.6465 2.64628L7.72463 2.58183ZM4.20705 7.49979H6.00002C6.27609 7.4998 6.49991 7.72375 6.50002 7.99979V12.4998H9.50002V7.99979C9.50013 7.72374 9.72394 7.49979 10 7.49979H11.793L8.00002 3.70683L4.20705 7.49979Z" fill="currentColor"/>
</svg>
