<svg width="16" height="16" viewBox="0 0 16 16" fill="none" xmlns="http://www.w3.org/2000/svg">
<path fill-rule="evenodd" clip-rule="evenodd" d="M7.80859 3.53809C7.99543 3.4607 8.21052 3.50349 8.35352 3.64648L12.3535 7.64648C12.5488 7.84175 12.5488 8.15826 12.3535 8.35352L8.35352 12.3535C8.21052 12.4965 7.99543 12.5393 7.80859 12.4619C7.6218 12.3845 7.50001 12.2022 7.5 12V10H4.5C4.22386 10 4.00001 9.77614 4 9.5V6.5C4 6.22386 4.22386 6 4.5 6H7.5V4C7.5 3.79779 7.6218 3.61549 7.80859 3.53809ZM8.5 6.5C8.49999 6.77614 8.27614 7 8 7H5V9H8C8.27614 9 8.5 9.22386 8.5 9.5V10.793L11.293 8L8.5 5.20703V6.5Z" fill="black"/>
<path fill-rule="evenodd" clip-rule="evenodd" d="M8 1.5C11.5899 1.5 14.5 4.41015 14.5 8C14.5 11.5899 11.5899 14.5 8 14.5C4.41015 14.5 1.5 11.5899 1.5 8C1.5 4.41015 4.41015 1.5 8 1.5ZM8 2.5C4.96243 2.5 2.5 4.96243 2.5 8C2.5 11.0376 4.96243 13.5 8 13.5C11.0376 13.5 13.5 11.0376 13.5 8C13.5 4.96243 11.0376 2.5 8 2.5Z" fill="black"/>
</svg>
