<svg width="16" height="16" viewBox="0 0 16 16" fill="none" xmlns="http://www.w3.org/2000/svg">
<path fill-rule="evenodd" clip-rule="evenodd" d="M7.80859 2.5381C7.99543 2.46071 8.21052 2.5035 8.35352 2.6465L13.3535 7.6465C13.5488 7.84176 13.5488 8.15827 13.3535 8.35353L8.35352 13.3535C8.21052 13.4965 7.99543 13.5393 7.80859 13.4619C7.6218 13.3845 7.50001 13.2022 7.5 13V10.5H3C2.72386 10.5 2.50001 10.2762 2.5 10V6.00002C2.5 5.72387 2.72386 5.50002 3 5.50002H7.5V3.00002C7.5 2.79781 7.6218 2.61551 7.80859 2.5381ZM8.5 6.00002C8.49999 6.27615 8.27614 6.50002 8 6.50002H3.5V9.50002H8C8.27614 9.50002 8.5 9.72387 8.5 10V11.793L12.293 8.00002L8.5 4.20705V6.00002Z" fill="currentColor"/>
</svg>
