<svg width="16" height="16" viewBox="0 0 16 16" fill="none" xmlns="http://www.w3.org/2000/svg">
<path fill-rule="evenodd" clip-rule="evenodd" d="M9.13477 4.05176C9.3284 3.92405 9.59182 3.94533 9.7627 4.11523L11.8926 6.23535C11.9866 6.32892 12.0397 6.45624 12.04 6.58887C12.0402 6.72163 11.9874 6.84946 11.8936 6.94336L9.76758 9.06836L11.1826 10.4756C11.3259 10.6183 11.3691 10.8335 11.292 11.0205C11.2148 11.2076 11.0325 11.33 10.8301 11.3301H5.16992C4.89392 11.33 4.67011 11.106 4.66992 10.8301V5.17969C4.67003 4.97791 4.79127 4.79535 4.97754 4.71777C5.16395 4.64027 5.37925 4.68292 5.52246 4.8252L6.93848 6.23242L9.05664 4.11621L9.13477 4.05176ZM7.29395 7.29297C7.09907 7.48784 6.78234 7.48826 6.58691 7.29395L5.66992 6.38184V10.3301H9.61816L8.70703 9.42383C8.61318 9.33021 8.55976 9.2029 8.55957 9.07031C8.55948 8.9376 8.6122 8.80967 8.70605 8.71582L10.832 6.58984L9.41016 5.17578L7.29395 7.29297Z" fill="black"/>
<path fill-rule="evenodd" clip-rule="evenodd" d="M8 1.5C11.5899 1.5 14.5 4.41015 14.5 8C14.5 11.5899 11.5899 14.5 8 14.5C4.41015 14.5 1.5 11.5899 1.5 8C1.5 4.41015 4.41015 1.5 8 1.5ZM8 2.5C4.96243 2.5 2.5 4.96243 2.5 8C2.5 11.0376 4.96243 13.5 8 13.5C11.0376 13.5 13.5 11.0376 13.5 8C13.5 4.96243 11.0376 2.5 8 2.5Z" fill="black"/>
</svg>
