<svg width="16" height="16" viewBox="0 0 16 16" fill="none" xmlns="http://www.w3.org/2000/svg">
<path d="M8.64648 3.64652C8.84175 3.45126 9.15825 3.45126 9.35352 3.64652L13.3535 7.64652C13.3874 7.68038 13.4134 7.71894 13.4355 7.75883C13.4601 7.80303 13.48 7.85028 13.4902 7.90141C13.5032 7.96615 13.5031 8.03294 13.4902 8.09769C13.4801 8.14888 13.46 8.19601 13.4355 8.24027C13.4134 8.28042 13.3876 8.3195 13.3535 8.35355L9.35352 12.3536C9.15826 12.5488 8.84174 12.5488 8.64648 12.3536C8.45123 12.1583 8.45125 11.8418 8.64648 11.6465L11.793 8.50004H3C2.72387 8.50004 2.50002 8.27616 2.5 8.00004C2.5 7.7239 2.72386 7.50004 3 7.50004H11.793L8.64648 4.35355C8.45123 4.1583 8.45124 3.84179 8.64648 3.64652Z" fill="currentColor"/>
</svg>
