<svg width="16" height="16" viewBox="0 0 16 16" fill="none" xmlns="http://www.w3.org/2000/svg">
<path fill-rule="evenodd" clip-rule="evenodd" d="M7.72461 3.58183C7.91864 3.45376 8.18268 3.47553 8.35352 3.64628L11.3535 6.64628C11.4472 6.74 11.4999 6.86726 11.5 6.9998V10.9998C11.5 11.202 11.3782 11.3843 11.1914 11.4617C11.0046 11.5391 10.7895 11.4963 10.6465 11.3533L8 8.70683L5.35352 11.3533C5.21052 11.4963 4.99543 11.5391 4.80859 11.4617C4.62183 11.3843 4.5 11.202 4.5 10.9998V6.9998L4.50977 6.90214C4.52896 6.80598 4.57613 6.71664 4.64648 6.64628L7.64648 3.64628L7.72461 3.58183ZM5.5 7.20683V9.79276L7.64648 7.64628L7.72461 7.58183C7.91864 7.45376 8.18268 7.47553 8.35352 7.64628L10.5 9.79276V7.20683L8 4.70683L5.5 7.20683Z" fill="currentColor"/>
</svg>
