<svg width="16" height="16" viewBox="0 0 16 16" fill="none" xmlns="http://www.w3.org/2000/svg">
<path fill-rule="evenodd" clip-rule="evenodd" d="M7.64648 3.64648C7.78948 3.50349 8.00457 3.4607 8.19141 3.53809C8.3782 3.61549 8.5 3.79779 8.5 4V6H11.5C11.7761 6 12 6.22386 12 6.5V9.5C12 9.77614 11.7761 10 11.5 10H8.5V12C8.49999 12.2022 8.3782 12.3845 8.19141 12.4619C8.00457 12.5393 7.78948 12.4965 7.64648 12.3535L3.64648 8.35352C3.45122 8.15826 3.45123 7.84175 3.64648 7.64648L7.64648 3.64648ZM4.70703 8L7.5 10.793V9.5C7.5 9.22386 7.72386 9 8 9H11V7H8C7.72386 7 7.50001 6.77614 7.5 6.5V5.20703L4.70703 8Z" fill="currentColor"/>
<path fill-rule="evenodd" clip-rule="evenodd" d="M8 1.5C11.5861 1.5 14.5 4.41386 14.5 8C14.5 11.5861 11.5861 14.5 8 14.5C4.41386 14.5 1.5 11.5861 1.5 8C1.5 4.41386 4.41386 1.5 8 1.5ZM8 2.5C4.96614 2.5 2.5 4.96614 2.5 8C2.5 11.0339 4.96614 13.5 8 13.5C11.0339 13.5 13.5 11.0339 13.5 8C13.5 4.96614 11.0339 2.5 8 2.5Z" fill="currentColor"/>
</svg>
