<svg width="16" height="16" viewBox="0 0 16 16" fill="none" xmlns="http://www.w3.org/2000/svg">
<path d="M8.5 3.5C8.68939 3.5 8.86257 3.60698 8.94727 3.77637C9.03191 3.94564 9.01382 4.14833 8.90039 4.2998L6.125 8L8.90039 11.7002C9.01382 11.8517 9.03191 12.0544 8.94727 12.2236C8.86257 12.393 8.68939 12.5 8.5 12.5H5.5C5.34263 12.5 5.19404 12.4257 5.09961 12.2998L2.09961 8.2998C1.96659 8.12216 1.96659 7.87784 2.09961 7.7002L5.09961 3.7002C5.19404 3.57429 5.34263 3.5 5.5 3.5H8.5ZM13.5 3.5C13.6894 3.5 13.8626 3.60698 13.9473 3.77637C14.0319 3.94564 14.0138 4.14833 13.9004 4.2998L11.125 8L13.9004 11.7002C14.0138 11.8517 14.0319 12.0544 13.9473 12.2236C13.8626 12.393 13.6894 12.5 13.5 12.5H10.5C10.3426 12.5 10.194 12.4257 10.0996 12.2998L7.09961 8.2998C6.96659 8.12216 6.96659 7.87784 7.09961 7.7002L10.0996 3.7002C10.194 3.57429 10.3426 3.5 10.5 3.5H13.5ZM8.125 8L10.75 11.5H12.5L10.0996 8.2998C9.96659 8.12216 9.96659 7.87784 10.0996 7.7002L12.5 4.5H10.75L8.125 8ZM3.125 8L5.75 11.5H7.5L5.09961 8.2998C4.96659 8.12216 4.96659 7.87784 5.09961 7.7002L7.5 4.5H5.75L3.125 8Z" fill="currentColor"/>
</svg>
