<svg width="16" height="16" viewBox="0 0 16 16" fill="none" xmlns="http://www.w3.org/2000/svg">
<path fill-rule="evenodd" clip-rule="evenodd" d="M10.6465 4.6465C10.7895 4.5035 11.0046 4.46071 11.1914 4.5381C11.3782 4.61551 11.5 4.79781 11.5 5.00002V9.00002C11.5 9.13261 11.4473 9.25977 11.3535 9.35353L8.35352 12.3535C8.15826 12.5488 7.84174 12.5488 7.64648 12.3535L4.64648 9.35353C4.55272 9.25977 4.50001 9.13261 4.5 9.00002V5.00002C4.5 4.79781 4.6218 4.61551 4.80859 4.5381C4.99543 4.46071 5.21052 4.5035 5.35352 4.6465L8 7.29299L10.6465 4.6465ZM8.35352 8.35353C8.15826 8.54878 7.84174 8.54878 7.64648 8.35353L5.5 6.20705V8.79298L8 11.293L10.5 8.79298V6.20705L8.35352 8.35353Z" fill="black"/>
</svg>
