<svg width="16" height="16" viewBox="0 0 16 16" fill="none" xmlns="http://www.w3.org/2000/svg">
<path fill-rule="evenodd" clip-rule="evenodd" d="M8.80859 3.5381C8.99543 3.46071 9.21052 3.5035 9.35352 3.6465L13.3535 7.6465C13.5488 7.84176 13.5488 8.15827 13.3535 8.35353L9.35352 12.3535C9.21052 12.4965 8.99542 12.5393 8.80859 12.4619C8.6218 12.3845 8.50001 12.2022 8.5 12V10.5H6.5V12C6.49998 12.2761 6.27613 12.5 6 12.5H2C1.72387 12.5 1.50002 12.2761 1.5 12V10C1.5 7.51387 3.51386 5.50002 6 5.50002H8.5V4.00002C8.5 3.79781 8.6218 3.61551 8.80859 3.5381ZM9.5 6.00002C9.49998 6.27615 9.27613 6.50002 9 6.50002H6C4.06614 6.50002 2.5 8.06616 2.5 10V11.5H5.5V10C5.5 9.72387 5.72386 9.50002 6 9.50002H9C9.27614 9.50002 9.5 9.72387 9.5 10V10.793L12.293 8.00002L9.5 5.20705V6.00002Z" fill="currentColor"/>
</svg>
