<svg width="16" height="16" viewBox="0 0 16 16" fill="none" xmlns="http://www.w3.org/2000/svg">
<path d="M12 3.5C12.0327 3.5 12.0655 3.50242 12.0977 3.50879C12.1488 3.51889 12.196 3.53909 12.2402 3.56348C12.2806 3.58569 12.3193 3.6123 12.3535 3.64648C12.3874 3.68034 12.4134 3.71891 12.4355 3.75879C12.4601 3.80299 12.48 3.85024 12.4902 3.90137C12.4967 3.93389 12.5 3.96695 12.5 4V8C12.5 8.27614 12.2761 8.5 12 8.5C11.7239 8.5 11.5 8.27614 11.5 8V5.20703L5.20703 11.5H8C8.27614 11.5 8.5 11.7239 8.5 12C8.5 12.2761 8.27614 12.5 8 12.5H4C3.96695 12.5 3.93389 12.4967 3.90137 12.4902C3.85024 12.48 3.80299 12.4601 3.75879 12.4355C3.71891 12.4134 3.68034 12.3874 3.64648 12.3535C3.6123 12.3193 3.58569 12.2805 3.56348 12.2402C3.53909 12.196 3.51889 12.1488 3.50879 12.0977C3.50242 12.0655 3.5 12.0327 3.5 12V8C3.5 7.72386 3.72386 7.5 4 7.5C4.27614 7.5 4.5 7.72386 4.5 8V10.793L10.793 4.5H8C7.72386 4.5 7.5 4.27614 7.5 4C7.5 3.72386 7.72386 3.5 8 3.5H12Z" fill="black"/>
</svg>
