<svg width="16" height="16" viewBox="0 0 16 16" fill="none" xmlns="http://www.w3.org/2000/svg">
<path fill-rule="evenodd" clip-rule="evenodd" d="M10.9043 4.67578C11.0758 4.70155 11.2242 4.81497 11.292 4.97852C11.3694 5.16533 11.3265 5.38044 11.1836 5.52344L9.76758 6.93848L11.8926 9.05566C11.9866 9.14929 12.0398 9.27651 12.04 9.40918C12.0402 9.54196 11.9874 9.66978 11.8936 9.76367L9.76367 11.8936C9.66978 11.9874 9.54196 12.0402 9.40918 12.04C9.2765 12.0398 9.1493 11.9866 9.05566 11.8926L6.93848 9.76758L5.52344 11.1836C5.38044 11.3265 5.16532 11.3694 4.97852 11.292C4.79177 11.2146 4.66998 11.0322 4.66992 10.8301V5.16992C4.66995 4.89383 4.89383 4.66995 5.16992 4.66992H10.8301L10.9043 4.67578ZM5.66992 9.62207L6.58594 8.70605C6.67981 8.61218 6.80768 8.55946 6.94043 8.55957C7.07311 8.5597 7.20026 8.61309 7.29395 8.70703L9.41016 10.832L10.832 9.41016L8.70703 7.29395C8.61309 7.20026 8.5597 7.07311 8.55957 6.94043C8.55945 6.80767 8.61218 6.67981 8.70605 6.58594L9.62305 5.66992H5.66992V9.62207Z" fill="black"/>
<path fill-rule="evenodd" clip-rule="evenodd" d="M8 1.5C11.5899 1.5 14.5 4.41015 14.5 8C14.5 11.5899 11.5899 14.5 8 14.5C4.41015 14.5 1.5 11.5899 1.5 8C1.5 4.41015 4.41015 1.5 8 1.5ZM8 2.5C4.96243 2.5 2.5 4.96243 2.5 8C2.5 11.0376 4.96243 13.5 8 13.5C11.0376 13.5 13.5 11.0376 13.5 8C13.5 4.96243 11.0376 2.5 8 2.5Z" fill="black"/>
</svg>
