<svg width="16" height="16" viewBox="0 0 16 16" fill="none" xmlns="http://www.w3.org/2000/svg">
<path fill-rule="evenodd" clip-rule="evenodd" d="M10.9307 4.67969C11.1586 4.72626 11.33 4.92828 11.3301 5.16992V10.8301C11.33 11.0322 11.2082 11.2146 11.0215 11.292C10.8347 11.3693 10.6196 11.3265 10.4766 11.1836L9.06055 9.76758L6.94434 11.8926C6.85072 11.9866 6.72348 12.0398 6.59082 12.04C6.45806 12.0402 6.33021 11.9874 6.23633 11.8936L4.10645 9.76367C4.01259 9.66979 3.95983 9.54193 3.95996 9.40918C3.96018 9.27651 4.01341 9.14929 4.10742 9.05566L6.23145 6.93945L4.81641 5.52344C4.67346 5.38044 4.63063 5.16533 4.70801 4.97852C4.78541 4.79175 4.96775 4.66995 5.16992 4.66992H10.8301L10.9307 4.67969ZM7.29395 6.58594C7.38782 6.67981 7.43957 6.80767 7.43945 6.94043C7.43932 7.07311 7.38691 7.20026 7.29297 7.29395L5.16699 9.41016L6.58887 10.832L8.70605 8.70703L8.78223 8.64453C8.86371 8.59006 8.9601 8.55968 9.05957 8.55957C9.19211 8.55947 9.31927 8.61246 9.41309 8.70605L10.3301 9.62305V5.66992H6.37695L7.29395 6.58594Z" fill="black"/>
<path fill-rule="evenodd" clip-rule="evenodd" d="M8 1.5C11.5899 1.5 14.5 4.41015 14.5 8C14.5 11.5899 11.5899 14.5 8 14.5C4.41015 14.5 1.5 11.5899 1.5 8C1.5 4.41015 4.41015 1.5 8 1.5ZM8 2.5C4.96243 2.5 2.5 4.96243 2.5 8C2.5 11.0376 4.96243 13.5 8 13.5C11.0376 13.5 13.5 11.0376 13.5 8C13.5 4.96243 11.0376 2.5 8 2.5Z" fill="black"/>
</svg>
