<svg width="16" height="16" viewBox="0 0 16 16" fill="none" xmlns="http://www.w3.org/2000/svg">
<path fill-rule="evenodd" clip-rule="evenodd" d="M11.1445 3.50586C11.316 3.53168 11.4645 3.64506 11.5322 3.80859C11.6096 3.99535 11.5667 4.21053 11.4238 4.35352L9.65723 6.12012L12.8438 9.30664C13.0388 9.50191 13.0389 9.81847 12.8438 10.0137L10.0137 12.8438C9.91994 12.9375 9.79269 12.9902 9.66016 12.9902C9.52764 12.9902 9.40039 12.9374 9.30664 12.8438L6.12012 9.65723L4.35352 11.4238C4.21053 11.5667 3.99535 11.6096 3.80859 11.5322C3.62185 11.4549 3.50013 11.2724 3.5 11.0703V4C3.5 3.72386 3.72386 3.5 4 3.5H11.0703L11.1445 3.50586ZM4.5 9.86328L5.7666 8.59668L5.84473 8.53223C6.03881 8.40406 6.30277 8.42581 6.47363 8.59668L9.66016 11.7832L11.7832 9.66016L8.59668 6.47363C8.50294 6.37989 8.45023 6.25268 8.4502 6.12012C8.4502 5.98751 8.50291 5.86037 8.59668 5.7666L9.86328 4.5H4.5V9.86328Z" fill="black"/>
</svg>
