<svg width="16" height="16" viewBox="0 0 16 16" fill="none" xmlns="http://www.w3.org/2000/svg">
<path fill-rule="evenodd" clip-rule="evenodd" d="M9.5 4C9.77614 4.00001 10 4.22386 10 4.5V7.5H12C12.2022 7.50001 12.3845 7.6218 12.4619 7.80859C12.5393 7.99543 12.4965 8.21052 12.3535 8.35352L8.35352 12.3535C8.15826 12.5488 7.84175 12.5488 7.64648 12.3535L3.64648 8.35352C3.50349 8.21052 3.4607 7.99543 3.53809 7.80859C3.61549 7.6218 3.79779 7.5 4 7.5H6V4.5C6 4.22386 6.22386 4 6.5 4H9.5ZM7 8C7 8.27614 6.77614 8.49999 6.5 8.5H5.20703L8 11.293L10.793 8.5H9.5C9.22386 8.5 9 8.27614 9 8V5H7V8Z" fill="black"/>
<path fill-rule="evenodd" clip-rule="evenodd" d="M8 1.5C11.5899 1.5 14.5 4.41015 14.5 8C14.5 11.5899 11.5899 14.5 8 14.5C4.41015 14.5 1.5 11.5899 1.5 8C1.5 4.41015 4.41015 1.5 8 1.5ZM8 2.5C4.96243 2.5 2.5 4.96243 2.5 8C2.5 11.0376 4.96243 13.5 8 13.5C11.0376 13.5 13.5 11.0376 13.5 8C13.5 4.96243 11.0376 2.5 8 2.5Z" fill="black"/>
</svg>
