<svg width="16" height="16" viewBox="0 0 16 16" fill="none" xmlns="http://www.w3.org/2000/svg">
<path fill-rule="evenodd" clip-rule="evenodd" d="M12.0002 3.5C12.2762 3.50013 12.5002 3.72394 12.5002 4V11.0703C12.5001 11.2724 12.3782 11.4548 12.1916 11.5322C12.0049 11.6095 11.7897 11.5666 11.6467 11.4238L9.88006 9.65723L6.69354 12.8438C6.5998 12.9374 6.47256 12.9902 6.34002 12.9902C6.2075 12.9902 6.08025 12.9374 5.98651 12.8438L3.15643 10.0137C2.96122 9.81844 2.96127 9.5019 3.15643 9.30664L6.34295 6.12012L4.57635 4.35352C4.4334 4.21052 4.39058 3.9954 4.46795 3.80859C4.54534 3.62181 4.72769 3.50005 4.92987 3.5H12.0002ZM7.4035 5.7666C7.49722 5.86036 7.54998 5.98755 7.54998 6.12012C7.54995 6.25268 7.49724 6.37989 7.4035 6.47363L4.21698 9.66016L6.34002 11.7832L9.52655 8.59668L9.60272 8.53418C9.68424 8.47983 9.78064 8.4502 9.88006 8.4502C10.0126 8.45023 10.1398 8.50295 10.2336 8.59668L11.5002 9.86328V4.5H6.1369L7.4035 5.7666Z" fill="black"/>
</svg>
