<svg width="16" height="16" viewBox="0 0 16 16" fill="none" xmlns="http://www.w3.org/2000/svg">
<path fill-rule="evenodd" clip-rule="evenodd" d="M7 7.5C7.20221 7.5 7.38451 7.62179 7.46191 7.80859C7.5393 7.99543 7.49651 8.21052 7.35352 8.35352L6.18945 9.5166C7.23169 10.6292 8.49254 10.7115 9.58398 10.4785C10.1859 10.35 10.723 10.1262 11.1123 9.93164C11.3059 9.83488 11.4608 9.74664 11.5654 9.68359C11.6175 9.65223 11.6569 9.62699 11.6826 9.61035C11.6955 9.60203 11.7052 9.5956 11.7109 9.5918L11.7168 9.58789L11.7939 9.54492C11.9793 9.46088 12.2012 9.49672 12.3506 9.64355C12.5212 9.81141 12.5492 10.0768 12.417 10.2764C10.6377 12.9612 8.28509 13.5 7 13.5C6.16073 13.5 5.47652 13.3596 4.85645 13.0625C4.38233 12.8353 3.96552 12.5243 3.55664 12.1494L2.35352 13.3535C2.21052 13.4965 1.99543 13.5393 1.80859 13.4619C1.62179 13.3845 1.5 13.2022 1.5 13V8C1.5 7.72386 1.72386 7.5 2 7.5H7ZM2.5 11.793L3.19629 11.0967L3.27246 11.0342C3.35426 10.9796 3.45099 10.95 3.55078 10.9502C3.68381 10.9505 3.81167 11.0041 3.90527 11.0986C4.3968 11.5949 4.8224 11.9369 5.28809 12.1602C5.74798 12.3805 6.27934 12.5 7 12.5C7.70183 12.5 8.87754 12.2976 10.0527 11.3945C9.96765 11.4164 9.88101 11.4373 9.79297 11.4561C8.3619 11.7616 6.51218 11.6266 5.1123 9.79395C4.96032 9.59497 4.97935 9.31386 5.15625 9.13672L5.79297 8.5H2.5V11.793Z" fill="black"/>
<path fill-rule="evenodd" clip-rule="evenodd" d="M9 2.5C9.83927 2.5 10.5235 2.64041 11.1436 2.9375C11.6173 3.16449 12.0338 3.47516 12.4424 3.84961L13.6465 2.64648C13.7895 2.50349 14.0046 2.4607 14.1914 2.53809C14.3782 2.61549 14.5 2.79779 14.5 3V8C14.5 8.27614 14.2761 8.5 14 8.5H9C8.79779 8.5 8.61549 8.37821 8.53809 8.19141C8.4607 8.00457 8.50349 7.78948 8.64648 7.64648L9.80957 6.48242C8.76752 5.3708 7.50713 5.28856 6.41602 5.52148C5.81413 5.65001 5.27699 5.8738 4.8877 6.06836C4.6941 6.16512 4.53922 6.25336 4.43457 6.31641C4.38252 6.34777 4.3431 6.37301 4.31738 6.38965C4.30452 6.39797 4.29476 6.4044 4.28906 6.4082C4.2863 6.41005 4.2832 6.41211 4.2832 6.41211L4.20605 6.45508C4.02071 6.53912 3.79877 6.50328 3.64941 6.35645C3.47875 6.18859 3.45077 5.92318 3.58301 5.72363C5.36228 3.03876 7.71491 2.5 9 2.5ZM9 3.5C8.29814 3.5 7.12153 3.70136 5.94629 4.60449C6.03159 4.58257 6.11875 4.5628 6.20703 4.54395C7.6381 4.23838 9.48782 4.37338 10.8877 6.20605C11.0397 6.40503 11.0207 6.68614 10.8438 6.86328L10.207 7.5H13.5V4.20703L12.8037 4.90332C12.7097 4.99729 12.5821 5.05002 12.4492 5.0498C12.3162 5.04948 12.1883 4.99589 12.0947 4.90137C11.6032 4.40505 11.1776 4.06307 10.7119 3.83984C10.252 3.61948 9.72066 3.5 9 3.5Z" fill="black"/>
</svg>
