<svg width="16" height="16" viewBox="0 0 16 16" fill="none" xmlns="http://www.w3.org/2000/svg">
<path d="M4.64652 4.64651C4.84179 4.45125 5.15829 4.45125 5.35355 4.64651L8.35355 7.64651C8.54877 7.84177 8.5488 8.15829 8.35355 8.35354L5.35355 11.3535C5.15831 11.5488 4.84179 11.5488 4.64652 11.3535C4.45126 11.1583 4.45126 10.8418 4.64652 10.6465L7.29301 8.00002L4.64652 5.35354C4.45126 5.15828 4.45126 4.84177 4.64652 4.64651Z" fill="black"/>
<path d="M8.64652 4.64651C8.84179 4.45125 9.15829 4.45125 9.35355 4.64651L12.3536 7.64651C12.5488 7.84177 12.5488 8.15829 12.3536 8.35354L9.35355 11.3535C9.15831 11.5488 8.84179 11.5488 8.64652 11.3535C8.45126 11.1583 8.45126 10.8418 8.64652 10.6465L11.293 8.00002L8.64652 5.35354C8.45126 5.15828 8.45126 4.84177 8.64652 4.64651Z" fill="black"/>
</svg>
