<svg width="16" height="16" viewBox="0 0 16 16" fill="none" xmlns="http://www.w3.org/2000/svg">
<path d="M7.64648 4.64648C7.84175 4.45122 8.15825 4.45122 8.35352 4.64648L11.3535 7.64648C11.375 7.66794 11.3938 7.69175 11.4111 7.7168C11.4204 7.73026 11.4277 7.74468 11.4355 7.75879C11.4601 7.80299 11.48 7.85024 11.4902 7.90137C11.5032 7.96611 11.5031 8.0329 11.4902 8.09766C11.4801 8.14884 11.46 8.19596 11.4355 8.24023C11.4287 8.25257 11.423 8.2655 11.415 8.27734C11.4013 8.29786 11.3857 8.31675 11.3691 8.33496C11.3637 8.34091 11.3593 8.34777 11.3535 8.35352L8.35352 11.3535C8.15825 11.5488 7.84175 11.5488 7.64648 11.3535C7.45122 11.1583 7.45123 10.8417 7.64648 10.6465L9.79297 8.5H5C4.72386 8.5 4.5 8.27614 4.5 8C4.5 7.72386 4.72386 7.5 5 7.5H9.79297L7.64648 5.35352C7.45122 5.15825 7.45123 4.84175 7.64648 4.64648Z" fill="black"/>
<path fill-rule="evenodd" clip-rule="evenodd" d="M8 1.5C11.5899 1.5 14.5 4.41015 14.5 8C14.5 11.5899 11.5899 14.5 8 14.5C4.41015 14.5 1.5 11.5899 1.5 8C1.5 4.41015 4.41015 1.5 8 1.5ZM8 2.5C4.96243 2.5 2.5 4.96243 2.5 8C2.5 11.0376 4.96243 13.5 8 13.5C11.0376 13.5 13.5 11.0376 13.5 8C13.5 4.96243 11.0376 2.5 8 2.5Z" fill="black"/>
</svg>
