<svg width="16" height="16" viewBox="0 0 16 16" fill="none" xmlns="http://www.w3.org/2000/svg">
<path d="M11.6465 3.64652C11.8417 3.45126 12.1583 3.45126 12.3535 3.64652C12.5488 3.84179 12.5488 4.1583 12.3535 4.35355L5.20703 11.5H10C10.2761 11.5 10.5 11.7239 10.5 12C10.5 12.2762 10.2761 12.5 10 12.5H4C3.96695 12.5 3.93389 12.4968 3.90137 12.4903C3.85024 12.48 3.80299 12.4601 3.75879 12.4356C3.71891 12.4135 3.68034 12.3874 3.64648 12.3536C3.61231 12.3194 3.58569 12.2806 3.56348 12.2403C3.53909 12.1961 3.51889 12.1488 3.50879 12.0977C3.50242 12.0655 3.5 12.0327 3.5 12V6.00004C3.5 5.7239 3.72386 5.50004 4 5.50004C4.27614 5.50004 4.5 5.7239 4.5 6.00004V10.793L11.6465 3.64652Z" fill="currentColor"/>
</svg>
