<svg width="16" height="16" viewBox="0 0 16 16" fill="none" xmlns="http://www.w3.org/2000/svg">
<path fill-rule="evenodd" clip-rule="evenodd" d="M6.34002 3.00977C6.47253 3.00979 6.5998 3.0626 6.69354 3.15625L9.88006 6.34277L11.6467 4.57617C11.7896 4.43341 12.0049 4.39051 12.1916 4.46777C12.3782 4.54518 12.5 4.72767 12.5002 4.92969V12C12.5001 12.276 12.2761 12.4999 12.0002 12.5H4.92986C4.72777 12.4999 4.54538 12.3781 4.46795 12.1914C4.39072 12.0047 4.43353 11.7894 4.57635 11.6465L6.34295 9.87988L3.15643 6.69336C2.96133 6.4981 2.96125 6.18154 3.15643 5.98633L5.9865 3.15625L6.06268 3.09375C6.14417 3.03946 6.24066 3.00978 6.34002 3.00977ZM4.21697 6.33984L7.4035 9.52637C7.49716 9.62007 7.54992 9.7474 7.54998 9.87988C7.54995 10.0124 7.49718 10.1397 7.4035 10.2334L6.13689 11.5H11.5002V6.13672L10.2336 7.40332C10.0383 7.59856 9.72181 7.5985 9.52654 7.40332L6.34002 4.2168L4.21697 6.33984Z" fill="currentColor"/>
</svg>
