<svg width="16" height="16" viewBox="0 0 16 16" fill="none" xmlns="http://www.w3.org/2000/svg">
<path fill-rule="evenodd" clip-rule="evenodd" d="M6.99985 5.5C8.93843 5.5 10.4847 6.27388 11.3973 6.89453L12.6463 5.64648C12.7893 5.50352 13.0045 5.46077 13.1913 5.53809C13.3781 5.61549 13.4999 5.79779 13.4999 6V11C13.4999 11.2761 13.276 11.5 12.9999 11.5H7.99985C7.79771 11.4999 7.61533 11.3782 7.53794 11.1914C7.4606 11.0046 7.50342 10.7895 7.64634 10.6465L8.73814 9.55371C7.29293 8.50664 5.76984 8.42332 4.54575 8.63086C3.87118 8.74527 3.29337 8.94726 2.88462 9.12109C2.68104 9.20769 2.52047 9.28652 2.41294 9.34277C2.35935 9.37082 2.31883 9.39347 2.29282 9.4082C2.27992 9.41551 2.27012 9.42053 2.2645 9.42383C2.26202 9.42532 2.25962 9.42773 2.25962 9.42773L2.18247 9.46582C1.99795 9.5382 1.78361 9.49448 1.64146 9.34863C1.47939 9.18195 1.45329 8.92514 1.57896 8.72949C2.31701 7.58084 3.10255 6.76452 4.00474 6.23926C4.9113 5.7115 5.89786 5.50002 6.99985 5.5ZM6.99985 6.5C6.03202 6.50002 5.22849 6.68386 4.50767 7.10352C4.18891 7.28912 3.88034 7.52682 3.57505 7.82324C3.82436 7.75456 4.09369 7.69287 4.37876 7.64453C5.92483 7.38239 7.96386 7.51719 9.81821 9.13281C9.92268 9.22384 9.98436 9.35468 9.98911 9.49316C9.99378 9.63143 9.94137 9.76539 9.84361 9.86328L9.20689 10.5H12.4999V7.20703L11.8036 7.90332C11.626 8.08076 11.3444 8.09921 11.1454 7.94629C10.4137 7.38347 8.91869 6.5 6.99985 6.5Z" fill="currentColor"/>
</svg>
