<svg width="16" height="16" viewBox="0 0 16 16" fill="none" xmlns="http://www.w3.org/2000/svg">
<path d="M7.64648 1.64651C7.84175 1.45125 8.15825 1.45125 8.35352 1.64651L10.3535 3.64651C10.3874 3.68037 10.4134 3.71893 10.4355 3.75881C10.4601 3.80302 10.48 3.85026 10.4902 3.90139C10.5032 3.96613 10.5031 4.03292 10.4902 4.09768C10.4801 4.14886 10.46 4.19599 10.4355 4.24026C10.4134 4.28041 10.3876 4.31948 10.3535 4.35354L8.35352 6.35354C8.15826 6.54877 7.84174 6.54877 7.64648 6.35354C7.45123 6.15828 7.45124 5.84177 7.64648 5.64651L8.79297 4.50002H8C6.06614 4.50002 4.5 6.06617 4.5 8.00002C4.50002 9.93386 6.06615 11.5 8 11.5C9.93385 11.5 11.5 9.93386 11.5 8.00002C11.5 7.72388 11.7239 7.50002 12 7.50002C12.2761 7.50002 12.5 7.72388 12.5 8.00002C12.5 10.4861 10.4861 12.5 8 12.5C5.51387 12.5 3.50002 10.4861 3.5 8.00002C3.5 5.51388 5.51386 3.50002 8 3.50002H8.79297L7.64648 2.35354C7.45123 2.15828 7.45124 1.84177 7.64648 1.64651Z" fill="currentColor"/>
</svg>
