<svg width="16" height="16" viewBox="0 0 16 16" fill="none" xmlns="http://www.w3.org/2000/svg">
<path fill-rule="evenodd" clip-rule="evenodd" d="M12.9502 2.5498C13.2261 2.55002 13.4501 2.77388 13.4502 3.0498V8.70996C13.4501 8.91201 13.3282 9.09442 13.1416 9.17188C12.9549 9.24916 12.7397 9.20623 12.5967 9.06348L11.1797 7.64648L7.64648 11.1797L9.06348 12.5967C9.20623 12.7397 9.24917 12.9549 9.17188 13.1416C9.09442 13.3282 8.91201 13.4501 8.70996 13.4502H3.0498C2.77389 13.4501 2.55002 13.2261 2.5498 12.9502V7.29004C2.54988 7.08797 2.67176 6.90555 2.8584 6.82812C3.04515 6.75077 3.26032 6.79368 3.40332 6.93652L4.81934 8.35156L8.35156 4.81934L6.93652 3.40332C6.79368 3.26032 6.75077 3.04515 6.82812 2.8584C6.90555 2.67176 7.08797 2.54988 7.29004 2.5498H12.9502ZM9.41309 4.46582C9.60835 4.66108 9.60835 4.97857 9.41309 5.17383L5.17383 9.41309C4.97857 9.60834 4.66108 9.60835 4.46582 9.41309L3.5498 8.49707V12.4502H7.50293L6.58594 11.5332C6.39114 11.338 6.39094 11.0213 6.58594 10.8262L10.8262 6.58594C11.0213 6.39094 11.3379 6.39114 11.5332 6.58594L12.4502 7.50293V3.5498H8.49707L9.41309 4.46582Z" fill="black"/>
</svg>
