<svg width="16" height="16" viewBox="0 0 16 16" fill="none" xmlns="http://www.w3.org/2000/svg">
<path d="M9.76562 5.52637C9.96062 5.33097 10.2772 5.33147 10.4727 5.52637C10.6681 5.7214 10.6686 6.03792 10.4736 6.2334L7.08496 9.62988H10.1201C10.3961 9.63001 10.6201 9.85388 10.6201 10.1299C10.6201 10.4059 10.3961 10.6298 10.1201 10.6299H5.87988C5.78914 10.6299 5.70519 10.6038 5.63184 10.5615C5.59455 10.5401 5.55825 10.5152 5.52637 10.4834C5.49286 10.4499 5.46729 10.4115 5.44531 10.3721C5.40513 10.3001 5.37988 10.2182 5.37988 10.1299V5.87988C5.37995 5.60384 5.60384 5.37995 5.87988 5.37988C6.15598 5.37988 6.37982 5.6038 6.37988 5.87988V8.91992L9.76562 5.52637Z" fill="currentColor"/>
<path fill-rule="evenodd" clip-rule="evenodd" d="M8 1.5C11.5899 1.5 14.5 4.41015 14.5 8C14.5 11.5899 11.5899 14.5 8 14.5C4.41015 14.5 1.5 11.5899 1.5 8C1.5 4.41015 4.41015 1.5 8 1.5ZM8 2.5C4.96243 2.5 2.5 4.96243 2.5 8C2.5 11.0376 4.96243 13.5 8 13.5C11.0376 13.5 13.5 11.0376 13.5 8C13.5 4.96243 11.0376 2.5 8 2.5Z" fill="currentColor"/>
</svg>
