<svg width="16" height="16" viewBox="0 0 16 16" fill="none" xmlns="http://www.w3.org/2000/svg">
<path d="M8 3.5C8.27614 3.5 8.5 3.72386 8.5 4C8.5 4.27614 8.27614 4.5 8 4.5H5.20703L11.5 10.793V8C11.5 7.72386 11.7239 7.5 12 7.5C12.2761 7.5 12.5 7.72386 12.5 8V12C12.5 12.0327 12.4966 12.0654 12.4902 12.0977C12.4801 12.1488 12.46 12.196 12.4355 12.2402C12.4134 12.2804 12.3876 12.3194 12.3535 12.3535C12.3194 12.3876 12.2804 12.4134 12.2402 12.4355C12.196 12.46 12.1488 12.4801 12.0977 12.4902C12.0654 12.4966 12.0327 12.5 12 12.5H8C7.72386 12.5 7.5 12.2761 7.5 12C7.5 11.7239 7.72386 11.5 8 11.5H10.793L4.5 5.20703V8C4.5 8.27614 4.27614 8.5 4 8.5C3.72386 8.5 3.5 8.27614 3.5 8V4C3.5 3.96701 3.5023 3.93383 3.50879 3.90137C3.51898 3.85033 3.53903 3.80293 3.56348 3.75879C3.58563 3.71875 3.61251 3.68046 3.64648 3.64648C3.68046 3.61251 3.71875 3.58563 3.75879 3.56348C3.80293 3.53903 3.85033 3.51898 3.90137 3.50879C3.93383 3.5023 3.96701 3.5 4 3.5H8Z" fill="black"/>
</svg>
