<svg width="16" height="16" viewBox="0 0 16 16" fill="none" xmlns="http://www.w3.org/2000/svg">
<path d="M8 3.5C8.82614 3.5 9.5 4.17386 9.5 5V11.793L11.6465 9.64648C11.8417 9.45122 12.1583 9.45122 12.3535 9.64648C12.5488 9.84175 12.5488 10.1583 12.3535 10.3535L9.35352 13.3535C9.31945 13.3876 9.2804 13.4134 9.24023 13.4355C9.19596 13.46 9.14884 13.4801 9.09766 13.4902C9.0329 13.5031 8.96611 13.5032 8.90137 13.4902C8.85024 13.48 8.80299 13.4601 8.75879 13.4355C8.71891 13.4134 8.68034 13.3874 8.64648 13.3535L5.64648 10.3535C5.45122 10.1583 5.45123 9.84175 5.64648 9.64648C5.84175 9.45122 6.15825 9.45122 6.35352 9.64648L8.5 11.793V5C8.5 4.72614 8.27386 4.5 8 4.5H4C3.72386 4.5 3.5 4.27614 3.5 4C3.5 3.72386 3.72386 3.5 4 3.5H8Z" fill="currentColor"/>
</svg>
