<svg width="16" height="16" viewBox="0 0 16 16" fill="none" xmlns="http://www.w3.org/2000/svg">
<path d="M12.5 8.99999C12.5 7.06613 10.9339 5.49999 8.99999 5.49999H5.99999C5.72385 5.49999 5.49999 5.27613 5.49999 4.99999V4.20702L2.70702 6.99999L5.49999 9.79295V8.99999C5.49999 8.72384 5.72385 8.49999 5.99999 8.49999H8.99999C9.27614 8.49999 9.49999 8.72384 9.49999 8.99999V12.5H12.5V8.99999ZM13.5 13C13.5 13.2761 13.2761 13.5 13 13.5H8.99999C8.72385 13.5 8.49999 13.2761 8.49999 13V9.49999H6.49999V11C6.49999 11.2022 6.3782 11.3845 6.1914 11.4619C6.00456 11.5393 5.78948 11.4965 5.64648 11.3535L1.64648 7.3535C1.45121 7.15824 1.45121 6.84173 1.64648 6.64647L5.64648 2.64647C5.78948 2.50347 6.00456 2.46068 6.1914 2.53807C6.3782 2.61548 6.49999 2.79778 6.49999 2.99999V4.49999H8.99999C11.4861 4.49999 13.5 6.51384 13.5 8.99999V13Z" fill="currentColor"/>
</svg>
