<svg width="16" height="16" viewBox="0 0 16 16" fill="none" xmlns="http://www.w3.org/2000/svg">
<path d="M2.80859 4.53809C2.99543 4.4607 3.21052 4.50349 3.35352 4.64649L5.03125 6.32422C5.17218 6.2155 5.3499 6.08507 5.56055 5.9502C6.11722 5.59383 6.91709 5.18391 7.86719 5C8.82494 4.81465 9.93455 4.85999 11.082 5.41504C12.2251 5.968 13.3656 7.00685 14.4268 8.73828C14.5512 8.94132 14.5144 9.20419 14.3398 9.36621C14.1871 9.508 13.9657 9.53821 13.7832 9.4502L13.708 9.40625V9.40527C13.707 9.40457 13.7049 9.4033 13.7021 9.40137C13.6964 9.39734 13.6867 9.39061 13.6738 9.38184C13.6478 9.36418 13.6076 9.33731 13.5547 9.30371C13.4486 9.23641 13.2912 9.14195 13.0928 9.03613C12.6943 8.82364 12.1374 8.5707 11.498 8.40332C10.3449 8.10148 8.97238 8.08622 7.73633 9.0293L9.35352 10.6465C9.49651 10.7895 9.5393 11.0046 9.46191 11.1914C9.38451 11.3782 9.20221 11.5 9 11.5H3C2.72386 11.5 2.5 11.2761 2.5 11V5C2.5 4.79779 2.62179 4.61549 2.80859 4.53809ZM10.6465 6.31543C9.72212 5.8683 8.83735 5.83154 8.05762 5.98242C7.2707 6.13471 6.58974 6.47916 6.09961 6.79297C5.85606 6.94891 5.66315 7.09479 5.5332 7.2002C5.46851 7.25268 5.41946 7.29507 5.3877 7.32324C5.37189 7.33727 5.36057 7.34799 5.35352 7.35449C5.34998 7.35776 5.34696 7.36014 5.3457 7.36133L5.26758 7.42285C5.07389 7.54568 4.81477 7.5218 4.64648 7.35352L3.5 6.20703V10.5H7.79297L6.64648 9.35352C6.55152 9.25855 6.49869 9.12941 6.5 8.99512C6.50137 8.86093 6.55662 8.73268 6.65332 8.63965C8.32283 7.03692 10.2776 7.0505 11.752 7.43652C11.9599 7.49099 12.1592 7.55378 12.3486 7.62012C11.7669 6.99492 11.1929 6.57978 10.6465 6.31543Z" fill="black"/>
</svg>
