<svg width="16" height="16" viewBox="0 0 16 16" fill="none" xmlns="http://www.w3.org/2000/svg">
<path d="M13.0001 4.5C13.2762 4.50007 13.5001 4.7239 13.5001 5V11C13.5001 11.2761 13.2762 11.4999 13.0001 11.5C12.724 11.5 12.5001 11.2761 12.5001 11V8.5H4.20716L6.35365 10.6465C6.54882 10.8417 6.54882 11.1583 6.35365 11.3535C6.15841 11.5488 5.84188 11.5487 5.64661 11.3535L2.64661 8.35352C2.45135 8.15825 2.45135 7.84175 2.64661 7.64648L5.64661 4.64648C5.84188 4.45128 6.1584 4.45124 6.35365 4.64648C6.54882 4.84173 6.54882 5.15827 6.35365 5.35352L4.20716 7.5H12.5001V5C12.5001 4.72386 12.724 4.5 13.0001 4.5Z" fill="currentColor"/>
</svg>
