<svg width="16" height="16" viewBox="0 0 16 16" fill="none" xmlns="http://www.w3.org/2000/svg">
<path d="M6 2.5C6.27614 2.5 6.5 2.72386 6.5 3C6.5 3.27614 6.27614 3.5 6 3.5H4C3.72614 3.5 3.5 3.72614 3.5 4V12C3.5 12.2739 3.72614 12.5 4 12.5H12C12.2739 12.5 12.5 12.2739 12.5 12V10C12.5 9.72386 12.7239 9.5 13 9.5C13.2761 9.5 13.5 9.72386 13.5 10V12C13.5 12.8261 12.8261 13.5 12 13.5H4C3.17386 13.5 2.5 12.8261 2.5 12V4C2.5 3.17386 3.17386 2.5 4 2.5H6Z" fill="black"/>
<path d="M13 2.5C13.0327 2.5 13.0655 2.50242 13.0977 2.50879C13.1488 2.51889 13.196 2.53909 13.2402 2.56348C13.2806 2.58569 13.3193 2.6123 13.3535 2.64648C13.3874 2.68034 13.4134 2.71891 13.4355 2.75879C13.4601 2.80299 13.48 2.85024 13.4902 2.90137C13.4967 2.93389 13.5 2.96695 13.5 3V7C13.5 7.27614 13.2761 7.5 13 7.5C12.7239 7.5 12.5 7.27614 12.5 7V4.20703L6.35352 10.3535C6.15825 10.5488 5.84175 10.5488 5.64648 10.3535C5.45122 10.1583 5.45123 9.84175 5.64648 9.64648L11.793 3.5H9C8.72386 3.5 8.5 3.27614 8.5 3C8.5 2.72386 8.72386 2.5 9 2.5H13Z" fill="black"/>
</svg>
