<svg width="16" height="16" viewBox="0 0 16 16" fill="none" xmlns="http://www.w3.org/2000/svg">
<path fill-rule="evenodd" clip-rule="evenodd" d="M6.99036 3.5C7.81635 3.50019 8.49036 4.17397 8.49036 5V7.60645L10.6105 8.13477L10.8156 8.19434C11.8199 8.53602 12.4999 9.48452 12.5001 10.5596V13C12.5001 13.8261 11.8262 14.4999 11.0001 14.5H6.41029C6.00156 14.5 5.63113 14.3332 5.35657 14.0732L2.97669 11.6934C1.92703 10.6437 2.87264 8.87444 4.3263 9.15918L5.49036 9.39062V5C5.49036 4.17386 6.16422 3.5 6.99036 3.5ZM6.99036 4.5C6.71651 4.5 6.49036 4.72614 6.49036 5V10C6.49036 10.1497 6.42248 10.2917 6.30677 10.3867C6.19115 10.4814 6.03931 10.5193 5.89271 10.4902L4.13294 10.1406C3.64726 10.0465 3.33366 10.6363 3.68372 10.9863L6.04407 13.3467L6.12708 13.4131C6.21416 13.4702 6.31196 13.5 6.41029 13.5H11.0001C11.2739 13.4999 11.5001 13.2738 11.5001 13V10.5596C11.4999 9.86683 11.034 9.26964 10.3702 9.10547L7.90443 8.49121C7.6692 8.4505 7.49036 8.24686 7.49036 8V5C7.49036 4.72626 7.26407 4.50019 6.99036 4.5Z" fill="currentColor"/>
<path d="M4.00013 4.5C4.27621 4.50007 4.50013 4.7239 4.50013 5C4.50013 5.2761 4.27621 5.49993 4.00013 5.5H3.50013C3.22399 5.5 3.00013 5.27614 3.00013 5C3.00013 4.72386 3.22399 4.5 3.50013 4.5H4.00013Z" fill="currentColor"/>
<path d="M10.5001 4.5C10.7762 4.50007 11.0001 4.7239 11.0001 5C11.0001 5.2761 10.7762 5.49993 10.5001 5.5H10.0001C9.72399 5.5 9.50013 5.27614 9.50013 5C9.50013 4.72386 9.72399 4.5 10.0001 4.5H10.5001Z" fill="currentColor"/>
<path d="M4.17689 2.17676C4.37215 1.98156 4.68868 1.98152 4.88392 2.17676L5.23353 2.52637C5.42844 2.72163 5.42861 3.03824 5.23353 3.2334C5.03838 3.42855 4.72178 3.42832 4.5265 3.2334L4.17689 2.88379C3.98163 2.68853 3.98163 2.37202 4.17689 2.17676Z" fill="currentColor"/>
<path d="M9.11634 2.17676C9.31154 1.98156 9.62809 1.9817 9.82337 2.17676C10.0184 2.37204 10.0185 2.68862 9.82337 2.88379L9.47376 3.2334C9.27858 3.42856 8.96201 3.4284 8.76673 3.2334C8.57167 3.03812 8.57155 2.72156 8.76673 2.52637L9.11634 2.17676Z" fill="currentColor"/>
<path d="M7.00013 1C7.27621 1.00007 7.50013 1.2239 7.50013 1.5V2C7.50013 2.2761 7.27621 2.49993 7.00013 2.5C6.72399 2.5 6.50013 2.27614 6.50013 2V1.5C6.50013 1.22386 6.72399 1 7.00013 1Z" fill="currentColor"/>
</svg>
