<svg width="16" height="16" viewBox="0 0 16 16" fill="none" xmlns="http://www.w3.org/2000/svg">
<path fill-rule="evenodd" clip-rule="evenodd" d="M7.00018 2.49979C7.82617 2.4999 8.50007 3.17381 8.50018 3.99979V7.10624L8.60858 7.13358L8.60956 7.13456C9.72534 7.41041 10.4989 8.41266 10.4992 9.55937V12.9998C10.4991 13.8258 9.82527 14.4998 8.9992 14.4998H4.61932C4.05854 14.4995 3.52518 14.1886 3.27752 13.6629L2.08221 11.2635L2.01288 11.1111C1.69197 10.3434 1.77513 9.45554 2.2326 8.76347L2.23456 8.76151L3.50018 6.87089V3.99979C3.50029 3.17375 4.17411 2.49979 5.00018 2.49979C5.38419 2.49984 5.73438 2.64669 6.00018 2.88554C6.266 2.64676 6.6162 2.49979 7.00018 2.49979ZM7.00018 3.49979C6.72639 3.49979 6.50029 3.72603 6.50018 3.99979V7.99979C6.50018 8.27588 6.27624 8.4997 6.00018 8.49979C5.72404 8.49979 5.50018 8.27594 5.50018 7.99979V3.99979C5.50007 3.72609 5.27389 3.4999 5.00018 3.49979C4.72639 3.49979 4.50029 3.72603 4.50018 3.99979V6.91288C4.51287 6.97686 4.51316 7.04322 4.50018 7.10819V9.99979C4.50018 10.2759 4.27624 10.4997 4.00018 10.4998C3.72404 10.4998 3.50018 10.2759 3.50018 9.99979V8.66776L3.06463 9.31815C2.81103 9.70384 2.75098 10.1948 2.89959 10.6316L2.97674 10.8162L4.17694 13.2264L4.18182 13.2361C4.25416 13.3895 4.42094 13.4996 4.61932 13.4998H8.9992C9.27298 13.4998 9.49907 13.2735 9.4992 12.9998V9.55937C9.49891 8.86664 9.03308 8.26934 8.36932 8.10526L7.90155 7.99003C7.89891 7.9895 7.89636 7.98864 7.89374 7.98808L7.88104 7.98515C7.8726 7.98307 7.86486 7.97883 7.85663 7.97636C7.83559 7.97003 7.81487 7.96379 7.7951 7.95487C7.78115 7.9486 7.76821 7.94082 7.75506 7.93339C7.74035 7.92505 7.72583 7.91676 7.71209 7.90702C7.698 7.89705 7.68494 7.88608 7.67206 7.87479C7.66023 7.86444 7.64868 7.85398 7.63788 7.84257C7.62734 7.83142 7.61802 7.81944 7.60858 7.80741C7.5985 7.79459 7.58809 7.78213 7.57928 7.76835C7.56969 7.75333 7.56184 7.73743 7.55389 7.72147C7.54747 7.70857 7.54064 7.69592 7.53534 7.68241C7.52895 7.66621 7.5244 7.64946 7.51971 7.63261C7.51589 7.61872 7.5116 7.60496 7.50897 7.59062C7.50515 7.57007 7.50333 7.54924 7.50213 7.52812C7.50162 7.51878 7.50018 7.50926 7.50018 7.49979V3.99979C7.50007 3.72609 7.27389 3.4999 7.00018 3.49979Z" fill="black"/>
<path d="M12.6467 5.64628C12.8419 5.45121 13.1585 5.45109 13.3537 5.64628C13.5489 5.84148 13.5488 6.15803 13.3537 6.35331L12.3537 7.35331C12.1584 7.54857 11.8419 7.54857 11.6467 7.35331L10.6467 6.35331C10.4514 6.15805 10.4514 5.84154 10.6467 5.64628C10.8419 5.45121 11.1585 5.45109 11.3537 5.64628L12.0002 6.29276L12.6467 5.64628Z" fill="black"/>
<path d="M11.7248 1.58183C11.9188 1.45383 12.1829 1.47549 12.3537 1.64628L13.3537 2.64628C13.5489 2.84148 13.5488 3.15803 13.3537 3.35331C13.1584 3.54857 12.8419 3.54857 12.6467 3.35331L12.0002 2.70683L11.3537 3.35331C11.1584 3.54857 10.8419 3.54857 10.6467 3.35331C10.4514 3.15805 10.4514 2.84154 10.6467 2.64628L11.6467 1.64628L11.7248 1.58183Z" fill="black"/>
</svg>
