<svg width="16" height="16" viewBox="0 0 16 16" fill="none" xmlns="http://www.w3.org/2000/svg">
<path fill-rule="evenodd" clip-rule="evenodd" d="M2.866 4.42686C5.69301 1.59984 10.2836 1.63153 13.0681 4.49131C13.0986 4.52259 13.1227 4.55759 13.1433 4.59385C13.6227 5.14384 13.6346 5.95788 13.1765 6.51963L13.073 6.63389L9.30643 10.3907L10.7195 11.1612C11.8517 11.7773 11.4215 13.5097 10.1199 13.5099H6.40018C6.00262 13.5098 5.62288 13.3615 5.33573 13.0743L2.33573 10.0743C1.75069 9.48929 1.75116 8.54245 2.33573 7.95713L4.46659 5.82627C5.2232 5.07002 6.36567 4.88918 7.30545 5.33604L9.18826 3.45323C7.22532 3.0484 5.10015 3.60677 3.57303 5.13389L3.3533 5.35362C3.15803 5.5487 2.84147 5.54882 2.64627 5.35362C2.45113 5.15841 2.45121 4.84184 2.64627 4.64659L2.866 4.42686ZM10.7264 4.03428C10.5316 3.83954 10.218 3.83954 10.0232 4.03428L7.74295 6.31358C7.57451 6.48173 7.31123 6.50795 7.11307 6.37608L7.0828 6.35655L7.07791 6.35264C6.4872 5.94888 5.68415 6.02375 5.17362 6.53428L3.04373 8.66416C2.84926 8.85892 2.84908 9.17166 3.04373 9.36631L6.04373 12.3663C6.13647 12.459 6.25795 12.5098 6.40018 12.5099H10.1199C10.378 12.5097 10.4687 12.1631 10.241 12.0392L8.24002 10.9493C8.10185 10.8738 8.00759 10.737 7.98514 10.5812C7.9628 10.4252 8.01531 10.2677 8.12674 10.1564L12.367 5.92588C12.5609 5.73109 12.5604 5.4182 12.366 5.22373C12.1712 5.02915 11.8576 5.02905 11.6629 5.22373L9.43338 7.4542C9.23818 7.64898 8.92151 7.64905 8.72635 7.4542C8.53122 7.25907 8.53148 6.94246 8.72635 6.74717L10.6824 4.78916C10.696 4.77133 10.7101 4.75273 10.7264 4.73643C10.9207 4.54178 10.9207 4.22896 10.7264 4.03428Z" fill="black"/>
</svg>
