<svg width="16" height="16" viewBox="0 0 16 16" fill="none" xmlns="http://www.w3.org/2000/svg">
<path fill-rule="evenodd" clip-rule="evenodd" d="M6.99023 3.49023C7.81627 3.49036 8.49023 4.16417 8.49023 4.99023V7.59863L10.6006 8.125L10.8057 8.18457C11.8099 8.5263 12.4901 9.47482 12.4902 10.5498V12.9902C12.4901 13.8162 11.8162 14.4901 10.9902 14.4902H6.61035C6.05412 14.4902 5.52955 14.1757 5.27344 13.6641L5.27246 13.6631L4.07227 11.2529L4.07324 11.252C3.66198 10.4482 3.72772 9.49833 4.22461 8.75293L5.49023 6.8623V4.99023C5.49023 4.16409 6.16409 3.49023 6.99023 3.49023ZM6.99023 4.49023C6.71638 4.49023 6.49023 4.71638 6.49023 4.99023V6.90332C6.50278 6.96693 6.50305 7.03306 6.49023 7.09766V9.99023C6.4901 10.2662 6.26619 10.4901 5.99023 10.4902C5.71417 10.4902 5.49037 10.2663 5.49023 9.99023V8.65918L5.05566 9.30664C4.7918 9.7025 4.73257 10.1866 4.88574 10.6191L4.96484 10.8008L4.96777 10.8076L6.16797 13.2178C6.25225 13.385 6.42733 13.4902 6.61035 13.4902H10.9902C11.2639 13.4901 11.4901 13.2639 11.4902 12.9902V10.5498C11.49 9.85713 11.024 9.25993 10.3604 9.0957L7.86914 8.47559C7.64651 8.42006 7.49035 8.21968 7.49023 7.99023V4.99023C7.49023 4.71645 7.26399 4.49036 6.99023 4.49023Z" fill="black"/>
<path d="M7 1.5C8.93614 1.5 10.5 3.06386 10.5 5C10.5 5.40661 10.4299 5.803 10.3008 6.16699C10.2085 6.4271 9.92322 6.56374 9.66309 6.47168C9.40295 6.37937 9.26627 6.09317 9.3584 5.83301C9.44923 5.57702 9.5 5.29337 9.5 5C9.5 3.61614 8.38386 2.5 7 2.5C5.61614 2.5 4.5 3.61614 4.5 5C4.5 5.29337 4.55077 5.57702 4.6416 5.83301C4.73373 6.09317 4.59705 6.37937 4.33691 6.47168C4.07678 6.56374 3.79152 6.4271 3.69922 6.16699C3.57007 5.803 3.5 5.40661 3.5 5C3.5 3.06386 5.06386 1.5 7 1.5Z" fill="black"/>
</svg>
