<svg width="16" height="16" viewBox="0 0 16 16" fill="none" xmlns="http://www.w3.org/2000/svg">
<path fill-rule="evenodd" clip-rule="evenodd" d="M2.86608 4.42685C5.69311 1.59983 10.2837 1.63151 13.0682 4.49131C13.0697 4.4928 13.0707 4.49469 13.0721 4.49619C13.0756 4.49957 13.0795 4.50253 13.0829 4.50596C13.6681 5.0912 13.6681 6.03788 13.0829 6.62314L9.31628 10.38L10.7294 11.1505C11.8609 11.7667 11.4312 13.5 10.1298 13.5001H6.41003C6.01253 13.5 5.6327 13.3507 5.34558 13.0636L2.34558 10.0636C1.76087 9.47841 1.76086 8.53154 2.34558 7.94639L4.47644 5.8165C5.32514 4.96794 6.66033 4.84158 7.64929 5.51572L9.02624 6.44443L10.9657 4.50596C11.0509 4.42072 11.1447 4.34858 11.243 4.28818C8.86225 2.77202 5.66 3.047 3.57312 5.13389L3.35339 5.35361C3.15812 5.54873 2.84158 5.54881 2.64636 5.35361C2.45117 5.15839 2.45124 4.84184 2.64636 4.64658L2.86608 4.42685ZM12.3758 5.21396C12.1811 5.01944 11.8674 5.0193 11.6727 5.21396L9.44323 7.44346C9.27412 7.61239 9.00873 7.63839 8.81042 7.50498L7.08972 6.34482L7.08776 6.34287C6.49713 5.93934 5.69393 6.01321 5.18347 6.52353L3.05358 8.65342C2.85911 8.8481 2.85912 9.16185 3.05358 9.35654L6.05358 12.3565C6.14624 12.4491 6.26799 12.5 6.41003 12.5001H10.1298C10.3878 12.5 10.4783 12.1535 10.2508 12.0294L8.24987 10.9386C8.11197 10.8631 8.01746 10.727 7.99499 10.5714C7.97262 10.4154 8.02509 10.257 8.13659 10.1456L12.3758 5.91611C12.5705 5.72141 12.5704 5.40869 12.3758 5.21396Z" fill="black"/>
</svg>
