<svg width="16" height="16" viewBox="0 0 16 16" fill="none" xmlns="http://www.w3.org/2000/svg">
<path fill-rule="evenodd" clip-rule="evenodd" d="M6.99036 3.5C7.81634 3.50019 8.49036 4.17397 8.49036 5V7.60645L10.6105 8.13477L10.8156 8.19434C11.8199 8.53602 12.4999 9.48452 12.5001 10.5596V13C12.5001 13.8261 11.8262 14.4999 11.0001 14.5H6.41028C6.00155 14.5 5.63112 14.3332 5.35657 14.0732L2.97668 11.6934C1.92701 10.6437 2.87264 8.87444 4.32629 9.15918L5.49036 9.39062V5C5.49036 4.17386 6.16421 3.5 6.99036 3.5ZM6.99036 4.5C6.7165 4.5 6.49036 4.72614 6.49036 5V10C6.49036 10.1497 6.42247 10.2917 6.30676 10.3867C6.19114 10.4814 6.0393 10.5193 5.8927 10.4902L4.13293 10.1406C3.64724 10.0465 3.33366 10.6363 3.68372 10.9863L6.04407 13.3467L6.12708 13.4131C6.21415 13.4702 6.31196 13.5 6.41028 13.5H11.0001C11.2739 13.4999 11.5001 13.2738 11.5001 13V10.5596C11.4999 9.86684 11.0339 9.26964 10.3702 9.10547L7.90442 8.49121C7.66919 8.4505 7.49036 8.24686 7.49036 8V5C7.49036 4.72626 7.26406 4.50019 6.99036 4.5Z" fill="currentColor"/>
<path d="M7.00012 1.5C8.93621 1.50007 10.5001 3.0639 10.5001 5C10.5001 5.40659 10.43 5.80301 10.3009 6.16699C10.2086 6.42707 9.92331 6.56366 9.66321 6.47168C9.40307 6.37937 9.26639 6.09317 9.35852 5.83301C9.44935 5.57703 9.50012 5.29336 9.50012 5C9.50012 3.61618 8.38392 2.50007 7.00012 2.5C5.61626 2.5 4.50012 3.61614 4.50012 5C4.50012 5.29338 4.55089 5.57702 4.64172 5.83301C4.73381 6.09312 4.59709 6.37933 4.33704 6.47168C4.07691 6.56374 3.79165 6.42708 3.69934 6.16699C3.57019 5.803 3.50012 5.40661 3.50012 5C3.50012 3.06386 5.06398 1.5 7.00012 1.5Z" fill="currentColor"/>
</svg>
