<svg width="16" height="16" viewBox="0 0 16 16" fill="none" xmlns="http://www.w3.org/2000/svg">
<path fill-rule="evenodd" clip-rule="evenodd" d="M7.99979 2C8.52492 2 8.98753 2.27303 9.25565 2.68359C9.47301 2.56077 9.72342 2.49024 9.99003 2.49023C10.8162 2.49026 11.49 3.16411 11.49 3.99023V6.70703C12.1064 7.13367 12.49 7.83693 12.49 8.61035V12.4902C12.4899 13.3163 11.8161 13.9902 10.99 13.9902H5.61015C5.05389 13.9902 4.52933 13.6757 4.27323 13.1641L4.27225 13.1631L3.07206 10.7529L3.07304 10.752C2.66179 9.94822 2.72757 8.99832 3.2244 8.25293L4.49979 6.34766V3.5C4.49979 2.67392 5.17374 2.00011 5.99979 2C6.38382 2 6.73397 2.14692 6.99979 2.38574C7.2656 2.14684 7.61574 2.00005 7.99979 2ZM7.99979 3C7.76038 3.0001 7.55671 3.1729 7.50956 3.39941L7.49979 3.5V7.5C7.49979 7.77614 7.27594 8 6.99979 8C6.72374 7.99989 6.49979 7.77608 6.49979 7.5V3.5C6.49979 3.22614 6.27365 3 5.99979 3C5.72603 3.00011 5.49979 3.22621 5.49979 3.5V9.5C5.49979 9.77614 5.27594 10 4.99979 10C4.72374 9.99989 4.49979 9.77608 4.49979 9.5V8.14355L4.05546 8.80664C3.79164 9.20248 3.73238 9.6866 3.88554 10.1191L3.96464 10.3008L3.96757 10.3076L5.16776 12.7178C5.25202 12.885 5.4271 12.9902 5.61015 12.9902H10.99C11.2638 12.9902 11.4899 12.764 11.49 12.4902V8.61035C11.49 8.11255 11.2092 7.6621 10.7635 7.43555C10.5959 7.35029 10.4901 7.17829 10.49 6.99023V3.99023C10.49 3.71639 10.2639 3.49026 9.99003 3.49023C9.74748 3.49024 9.54352 3.66761 9.49979 3.89844V5C9.49979 5.03444 9.49666 5.0681 9.49003 5.10059V7.49023C9.4899 7.76625 9.26607 7.99021 8.99003 7.99023C8.71397 7.99023 8.49016 7.76626 8.49003 7.49023V3.99023C8.49003 3.93387 8.49369 3.87802 8.49979 3.82324V3.5C8.49979 3.22614 8.27365 3 7.99979 3Z" fill="black"/>
</svg>
