<svg width="16" height="16" viewBox="0 0 16 16" fill="none" xmlns="http://www.w3.org/2000/svg">
<path fill-rule="evenodd" clip-rule="evenodd" d="M5.00026 2.5C5.82629 2.50014 6.50026 3.17394 6.50027 4V6.60839L8.61062 7.13476C9.7265 7.41061 10.4991 8.41275 10.4993 9.55957V13C10.4993 13.8261 9.82543 14.5 8.99929 14.5H4.61941C4.05853 14.4998 3.52524 14.189 3.27761 13.6631L2.0823 11.2637L2.01296 11.1113C1.692 10.3437 1.77537 9.45673 2.23269 8.76464L2.23464 8.76171L3.50027 6.87109V4C3.50027 3.17385 4.17412 2.5 5.00026 2.5ZM5.00026 3.5C4.72641 3.5 4.50027 3.72614 4.50026 4V6.91308C4.51282 6.97675 4.51311 7.04277 4.50026 7.10742V10C4.50026 10.2761 4.27629 10.4999 4.00026 10.5C3.72412 10.5 3.50027 10.2761 3.50027 10V8.66796L3.06472 9.31836C2.81089 9.70436 2.75059 10.1957 2.89968 10.6328L2.97683 10.8164L4.17702 13.2275L4.18191 13.2373C4.2542 13.3908 4.4209 13.4998 4.61941 13.5H8.99929C9.27314 13.5 9.49929 13.2739 9.49929 13V9.55957C9.4991 8.86675 9.03323 8.26956 8.36941 8.10546L5.87917 7.48535C5.86932 7.48289 5.86041 7.47761 5.85085 7.47461C5.83049 7.46821 5.81042 7.46195 5.79128 7.45312C5.78182 7.44876 5.77303 7.44337 5.76394 7.43847C5.7444 7.42793 5.72516 7.41725 5.7073 7.40429C5.69658 7.39651 5.68703 7.38747 5.67702 7.3789C5.66347 7.36734 5.6502 7.3557 5.63796 7.34277C5.62744 7.33161 5.61809 7.31965 5.60866 7.30761C5.5983 7.29445 5.58741 7.28176 5.57839 7.26757C5.57027 7.25475 5.56383 7.24104 5.55691 7.22753C5.54885 7.21187 5.54084 7.19625 5.53444 7.17968C5.5288 7.16507 5.52504 7.1499 5.52077 7.13476C5.51633 7.11894 5.51096 7.10333 5.50808 7.08691C5.50489 7.06894 5.50439 7.05062 5.50319 7.03222C5.50251 7.02152 5.50026 7.01087 5.50026 7V4C5.50026 3.72623 5.274 3.50014 5.00026 3.5Z" fill="currentColor"/>
<path d="M10.2268 2.22656C11.2021 1.25143 12.7887 1.25134 13.7639 2.22656C14.6558 3.11871 14.7295 4.52075 13.9895 5.5H14.2102C14.4863 5.50012 14.7102 5.72393 14.7102 6C14.7102 6.27606 14.4863 6.49987 14.2102 6.5H12.7102C12.4341 6.5 12.2102 6.27614 12.2102 6V4.5C12.2102 4.22385 12.4341 4 12.7102 4C12.9863 4.00012 13.2102 4.22393 13.2102 4.5V4.87304C13.6339 4.28691 13.584 3.46091 13.0569 2.93359C12.4722 2.3489 11.5186 2.34898 10.9339 2.93359C10.3491 3.51833 10.3491 4.4719 10.9339 5.05664C11.1288 5.25187 11.1289 5.56848 10.9339 5.76367C10.7387 5.95881 10.4221 5.95866 10.2268 5.76367C9.25157 4.78841 9.25157 3.20182 10.2268 2.22656Z" fill="currentColor"/>
</svg>
