<svg width="16" height="16" viewBox="0 0 16 16" fill="none" xmlns="http://www.w3.org/2000/svg">
<path fill-rule="evenodd" clip-rule="evenodd" d="M6.9998 2C7.52492 2 7.98754 2.27303 8.25566 2.68359C8.47302 2.56076 8.72343 2.49024 8.99003 2.49023C9.81616 2.49026 10.49 3.16411 10.49 3.99023V6.70703C11.1064 7.13367 11.49 7.83693 11.49 8.61035V12.4902C11.4899 13.3163 10.8161 13.9902 9.99004 13.9902H4.61015C4.0539 13.9902 3.52933 13.6757 3.27324 13.1641L3.27226 13.1631L2.07207 10.7529L2.07304 10.752C1.6618 9.94823 1.72757 8.99832 2.22441 8.25293L3.4998 6.34766V3.5C3.4998 2.67392 4.17375 2.00011 4.9998 2C5.38383 2 5.73397 2.14692 5.9998 2.38574C6.26561 2.14684 6.61574 2.00005 6.9998 2ZM6.9998 3C6.76039 3.0001 6.55672 3.1729 6.50957 3.39941L6.4998 3.5V7.5C6.4998 7.77614 6.27594 8 5.9998 8C5.72375 7.99989 5.4998 7.77608 5.4998 7.5V3.5C5.4998 3.22614 5.27366 3 4.9998 3C4.72603 3.00011 4.4998 3.22621 4.4998 3.5V9.5C4.4998 9.77614 4.27594 10 3.9998 10C3.72375 9.99989 3.4998 9.77608 3.4998 9.5V8.14355L3.05546 8.80664C2.79165 9.20248 2.73238 9.68659 2.88554 10.1191L2.96464 10.3008L2.96757 10.3076L4.16777 12.7178C4.25203 12.885 4.4271 12.9902 4.61015 12.9902H9.99004C10.2638 12.9902 10.4899 12.764 10.49 12.4902V8.61035C10.49 8.11255 10.2092 7.6621 9.76347 7.43555C9.59586 7.35029 9.49013 7.17828 9.49003 6.99023V3.99023C9.49003 3.71639 9.26387 3.49026 8.99003 3.49023C8.74749 3.49024 8.54352 3.66761 8.4998 3.89844V5C8.4998 5.03444 8.49667 5.0681 8.49003 5.10059V7.49023C8.4899 7.76625 8.26608 7.99021 7.99003 7.99023C7.71398 7.99022 7.49017 7.76626 7.49003 7.49023V3.99023C7.49003 3.93387 7.49369 3.87802 7.4998 3.82324V3.5C7.4998 3.22614 7.27366 3 6.9998 3Z" fill="currentColor"/>
<path d="M12.1463 3.14648C12.3415 2.95125 12.658 2.95132 12.8533 3.14648C13.0486 3.34175 13.0486 3.65825 12.8533 3.85352L12.7068 4H14.4998C14.7759 4 14.9998 4.22386 14.9998 4.5C14.9998 4.77614 14.7759 5 14.4998 5H12.7068L12.8533 5.14648C13.0486 5.34175 13.0486 5.65825 12.8533 5.85352C12.658 6.04867 12.3415 6.04874 12.1463 5.85352L11.1463 4.85352C11.1128 4.81999 11.0872 4.78163 11.0652 4.74219C11.025 4.67016 10.9998 4.58835 10.9998 4.5C10.9998 4.41135 11.0248 4.32903 11.0652 4.25684C11.0872 4.21768 11.113 4.1798 11.1463 4.14648L12.1463 3.14648Z" fill="currentColor"/>
</svg>
