<svg width="16" height="16" viewBox="0 0 16 16" fill="none" xmlns="http://www.w3.org/2000/svg">
<path fill-rule="evenodd" clip-rule="evenodd" d="M7.00017 2C7.82615 2.0002 8.50017 2.67398 8.50017 3.5V6.1084L10.6105 6.63477C11.7264 6.9106 12.5 7.91274 12.5002 9.05957V12.5C12.5002 13.326 11.8262 13.9998 11.0002 14H6.40935C6.0007 13.9998 5.63008 13.8332 5.35564 13.5732L2.9367 11.1533C1.89556 10.112 2.83484 8.36456 4.27654 8.64941L5.50017 8.8916V3.5C5.50017 2.67392 6.17412 2.0001 7.00017 2ZM7.00017 3C6.7264 3.0001 6.50017 3.22621 6.50017 3.5V9.5C6.50017 9.6496 6.43315 9.79174 6.31756 9.88672C6.20197 9.98163 6.04924 10.0193 5.90252 9.99023L4.08318 9.63086C3.60538 9.53645 3.30534 10.1077 3.64373 10.4463L6.04314 12.8467C6.14838 12.9464 6.27848 12.9998 6.40935 13H11.0002C11.2739 12.9998 11.5002 12.7737 11.5002 12.5V9.05957C11.5 8.36692 11.0339 7.76972 10.3703 7.60547L7.87908 6.98535C7.65637 6.92981 7.50017 6.72955 7.50017 6.5V3.5C7.50017 3.22626 7.27387 3.0002 7.00017 3Z" fill="black"/>
</svg>
