<svg width="16" height="16" viewBox="0 0 16 16" fill="none" xmlns="http://www.w3.org/2000/svg">
<path fill-rule="evenodd" clip-rule="evenodd" d="M8.00023 1C8.53018 1.00008 8.99604 1.27835 9.26293 1.69531C9.48093 1.57151 9.73249 1.5 10.0002 1.5C10.8263 1.50012 11.5002 2.17393 11.5002 3V3.08691C11.6568 3.03121 11.8249 3.00001 12.0002 3C12.8262 3.00017 13.5002 3.67396 13.5002 4.5V10.2598C13.5002 12.8759 11.3761 15 8.76 15C7.4957 15 6.29991 14.4965 5.40843 13.6162L5.40648 13.6133L1.98656 10.1934C0.969744 9.17647 1.82534 7.48454 3.2014 7.63867L3.33617 7.65918L3.33812 7.66016C3.73799 7.74014 4.12677 7.85731 4.50023 8.00879V3.5C4.50023 2.67386 5.17409 2 6.00023 2C6.19565 2.00003 6.38248 2.03791 6.55394 2.10645C6.72768 1.47031 7.31031 1 8.00023 1ZM8.00023 2C7.72637 2 7.50023 2.22614 7.50023 2.5V7.5C7.50023 7.77607 7.27627 7.99988 7.00023 8C6.72409 8 6.50023 7.77614 6.50023 7.5V3.5L6.49047 3.39941C6.44331 3.17291 6.23963 3.00011 6.00023 3C5.72637 3 5.50023 3.22614 5.50023 3.5V8.51953C5.90442 8.77343 6.28097 9.07376 6.62328 9.41602L7.35375 10.1465C7.5488 10.3417 7.5488 10.6583 7.35375 10.8535C7.15853 11.0487 6.84198 11.0486 6.64672 10.8535L5.91625 10.124C5.1564 9.36419 4.19546 8.85136 3.14183 8.64062C2.65674 8.54755 2.34387 9.13653 2.69359 9.48633L6.11156 12.9043L6.24633 13.0322C6.93751 13.6522 7.82663 14 8.76 14C10.8238 14 12.5002 12.3236 12.5002 10.2598V4.5C12.5002 4.22625 12.2739 4.00018 12.0002 4C11.7264 4.00005 11.5002 4.22617 11.5002 4.5V7.5C11.5002 7.77607 11.2763 7.99988 11.0002 8C10.7241 8 10.5002 7.77614 10.5002 7.5V3C10.5002 2.72622 10.274 2.50012 10.0002 2.5C9.76075 2.5 9.55718 2.67286 9.51 2.89941L9.50023 3V7.5C9.50023 7.77607 9.27627 7.99988 9.00023 8C8.72409 8 8.50023 7.77614 8.50023 7.5V2.5C8.50023 2.22622 8.27399 2.00012 8.00023 2Z" fill="black"/>
</svg>
