<svg width="16" height="16" viewBox="0 0 16 16" fill="none" xmlns="http://www.w3.org/2000/svg">
<path fill-rule="evenodd" clip-rule="evenodd" d="M7.00019 2.5C7.82625 2.5001 8.50019 3.17392 8.50019 4V7.10645L8.60859 7.13379L8.60957 7.13477C9.72541 7.41063 10.499 8.41277 10.4992 9.55957V13C10.4991 13.826 9.82528 14.5 8.99922 14.5H4.61933C4.05855 14.4998 3.52519 14.1888 3.27754 13.6631L2.08222 11.2637L2.01289 11.1113C1.6919 10.3436 1.77512 9.45579 2.23261 8.76367L2.23457 8.76172L3.50019 6.87109V4C3.50019 3.17386 4.17405 2.5 5.00019 2.5C5.38425 2.50005 5.73438 2.64684 6.00019 2.88574C6.26602 2.64691 6.61616 2.5 7.00019 2.5ZM7.00019 3.5C6.72634 3.5 6.50019 3.72614 6.50019 4V8C6.50019 8.27608 6.27625 8.4999 6.00019 8.5C5.72405 8.5 5.50019 8.27614 5.50019 8V4C5.50019 3.7262 5.27397 3.5001 5.00019 3.5C4.72634 3.5 4.50019 3.72614 4.50019 4V6.91309C4.5128 6.97676 4.51301 7.04275 4.50019 7.10742V10C4.50019 10.2761 4.27625 10.4999 4.00019 10.5C3.72405 10.5 3.50019 10.2761 3.50019 10V8.66797L3.06465 9.31836C2.81102 9.7041 2.75092 10.195 2.89961 10.6318L2.97676 10.8164L4.17695 13.2266L4.18183 13.2363C4.25417 13.3897 4.42095 13.4998 4.61933 13.5H8.99922C9.27299 13.5 9.49909 13.2738 9.49922 13V9.55957C9.49902 8.86676 9.03316 8.26956 8.36933 8.10547L7.90156 7.99023C7.89893 7.98971 7.89637 7.98885 7.89375 7.98828L7.88105 7.98535C7.87261 7.98328 7.86487 7.97904 7.85664 7.97656C7.83561 7.97024 7.81488 7.96399 7.79511 7.95508C7.78117 7.94881 7.76822 7.94102 7.75508 7.93359C7.74036 7.92526 7.72584 7.91696 7.71211 7.90723C7.69802 7.89726 7.68495 7.88628 7.67207 7.875C7.66024 7.86465 7.64869 7.85418 7.63789 7.84277C7.62735 7.83163 7.61803 7.81964 7.60859 7.80762C7.59868 7.79502 7.58798 7.78306 7.57929 7.76953C7.56937 7.75406 7.56208 7.73718 7.5539 7.7207C7.54795 7.7087 7.54132 7.6971 7.53633 7.68457C7.52959 7.66773 7.52461 7.65036 7.51972 7.63281C7.51573 7.61832 7.51168 7.60386 7.50898 7.58887C7.5054 7.56925 7.50334 7.54944 7.50215 7.5293C7.50158 7.51958 7.50019 7.50986 7.50019 7.5V4C7.50019 3.7262 7.27397 3.5001 7.00019 3.5Z" fill="currentColor"/>
<path d="M11.1467 3.14648C11.3419 2.95131 11.6585 2.95125 11.8537 3.14648C12.0488 3.34172 12.0488 3.65828 11.8537 3.85352L11.7072 4H14.5002C14.7763 4.0001 15.0002 4.22392 15.0002 4.5C15.0002 4.77608 14.7763 4.9999 14.5002 5H11.7072L11.8537 5.14648C12.0488 5.34172 12.0488 5.65828 11.8537 5.85352C11.6585 6.04874 11.3419 6.04868 11.1467 5.85352L10.1467 4.85352C9.95141 4.65825 9.95141 4.34175 10.1467 4.14648L11.1467 3.14648Z" fill="currentColor"/>
</svg>
