<svg width="16" height="16" viewBox="0 0 16 16" fill="none" xmlns="http://www.w3.org/2000/svg">
<path fill-rule="evenodd" clip-rule="evenodd" d="M5.00026 2.5C5.82628 2.50014 6.50026 3.17395 6.50026 4V6.6084L8.61061 7.13477C9.72648 7.41062 10.4991 8.41275 10.4993 9.55957V13C10.4993 13.8261 9.82543 14.5 8.99929 14.5H4.6194C4.05852 14.4998 3.52523 14.189 3.27761 13.6631L2.08229 11.2637L2.01296 11.1113C1.692 10.3437 1.77537 9.45674 2.23268 8.76465L2.23464 8.76172L3.50026 6.87109V4C3.50026 3.17386 4.17412 2.5 5.00026 2.5ZM5.00026 3.5C4.7264 3.5 4.50026 3.72614 4.50026 4V6.91309C4.51282 6.97676 4.5131 7.04277 4.50026 7.10742V10C4.50026 10.2761 4.27628 10.4999 4.00026 10.5C3.72412 10.5 3.50026 10.2761 3.50026 10V8.66797L3.06472 9.31836C2.8109 9.70437 2.75059 10.1957 2.89968 10.6328L2.97682 10.8164L4.17702 13.2275L4.1819 13.2373C4.2542 13.3908 4.42091 13.4998 4.6194 13.5H8.99929C9.27314 13.5 9.49928 13.2739 9.49929 13V9.55957C9.49909 8.86676 9.03324 8.26956 8.3694 8.10547L5.87917 7.48535C5.86932 7.48289 5.86041 7.47761 5.85085 7.47461C5.83049 7.46822 5.81042 7.46196 5.79128 7.45312C5.78181 7.44877 5.77302 7.44338 5.76393 7.43848C5.74439 7.42793 5.72516 7.41726 5.70729 7.4043C5.69657 7.39651 5.68702 7.38747 5.67702 7.37891C5.66347 7.36734 5.6502 7.3557 5.63796 7.34277C5.62744 7.33162 5.61809 7.31965 5.60866 7.30762C5.5983 7.29445 5.58741 7.28176 5.57839 7.26758C5.57027 7.25476 5.56383 7.24104 5.5569 7.22754C5.54884 7.21188 5.54084 7.19625 5.53444 7.17969C5.5288 7.16508 5.52504 7.1499 5.52077 7.13477C5.51633 7.11894 5.51096 7.10333 5.50807 7.08691C5.50546 7.07215 5.50545 7.05706 5.50417 7.04199C5.50301 7.02808 5.50026 7.01421 5.50026 7V4C5.50026 3.72623 5.274 3.50014 5.00026 3.5Z" fill="currentColor"/>
<path d="M10.1467 3.14648C10.342 2.95135 10.6586 2.95127 10.8538 3.14648C11.0489 3.34171 11.0489 3.65829 10.8538 3.85352L10.2073 4.5L10.8538 5.14648C11.0489 5.34171 11.0489 5.65829 10.8538 5.85352C10.6586 6.04873 10.342 6.04864 10.1467 5.85352L9.14675 4.85352C8.95148 4.65825 8.95148 4.34175 9.14675 4.14648L10.1467 3.14648Z" fill="currentColor"/>
<path d="M12.6467 3.14648C12.842 2.95135 13.1586 2.95127 13.3538 3.14648L14.3538 4.14648C14.5489 4.34171 14.5489 4.65829 14.3538 4.85352L13.3538 5.85352C13.1586 6.04873 12.842 6.04864 12.6467 5.85352C12.4515 5.65825 12.4515 5.34175 12.6467 5.14648L13.2932 4.5L12.6467 3.85352C12.4515 3.65825 12.4515 3.34175 12.6467 3.14648Z" fill="currentColor"/>
</svg>
