<svg width="16" height="16" viewBox="0 0 16 16" fill="none" xmlns="http://www.w3.org/2000/svg">
<path fill-rule="evenodd" clip-rule="evenodd" d="M5.00026 2.49979C5.82621 2.49993 6.50015 3.17383 6.50026 3.99979V6.60819L8.61061 7.13456C9.72641 7.41039 10.499 8.41263 10.4993 9.55936V12.9998C10.4993 13.8259 9.82543 14.4998 8.99928 14.4998H4.6194C4.05852 14.4996 3.52523 14.1888 3.2776 13.6629L2.08229 11.2635L2.01296 11.1111C1.69207 10.3434 1.77533 9.45649 2.23268 8.76444L2.23464 8.76151L3.50026 6.87088V3.99979C3.50037 3.17374 4.17419 2.49979 5.00026 2.49979ZM5.00026 3.49979C4.72647 3.49979 4.50037 3.72602 4.50026 3.99979V6.91288C4.51284 6.97654 4.51308 7.04255 4.50026 7.10721V9.99979C4.50026 10.2758 4.27628 10.4996 4.00026 10.4998C3.72412 10.4998 3.50026 10.2759 3.50026 9.99979V8.66776L3.06471 9.31815C2.81086 9.70412 2.75065 10.1955 2.89967 10.6326L2.97682 10.8162L4.17702 13.2273L4.1819 13.2371C4.2542 13.3906 4.42092 13.4996 4.6194 13.4998H8.99928C9.27314 13.4998 9.49928 13.2736 9.49928 12.9998V9.55936C9.499 8.86664 9.03317 8.26934 8.3694 8.10526L5.87917 7.48514C5.86931 7.48268 5.86041 7.4774 5.85085 7.4744C5.83048 7.468 5.81043 7.46175 5.79128 7.45291C5.78181 7.44855 5.77303 7.44317 5.76393 7.43827C5.74439 7.42772 5.72516 7.41705 5.70729 7.40409C5.69657 7.39629 5.68702 7.38726 5.67702 7.3787C5.66347 7.36713 5.6502 7.3555 5.63796 7.34256C5.62744 7.3314 5.61808 7.31945 5.60866 7.30741C5.59813 7.29402 5.58753 7.28083 5.57839 7.26639C5.57122 7.25502 5.56509 7.24315 5.55885 7.23124C5.54965 7.21372 5.54057 7.19619 5.53346 7.17752C5.52815 7.16356 5.52483 7.14899 5.52077 7.13456C5.51633 7.11873 5.51095 7.10312 5.50807 7.0867C5.50546 7.07194 5.50544 7.05685 5.50417 7.04178C5.50302 7.02794 5.50026 7.01393 5.50026 6.99979V3.99979C5.50015 3.72611 5.27393 3.49993 5.00026 3.49979Z" fill="black"/>
<path d="M12.6467 5.64627C12.842 5.45125 13.1586 5.45109 13.3538 5.64627C13.5489 5.84146 13.5488 6.15804 13.3538 6.35331L12.3538 7.35331C12.1585 7.54856 11.842 7.54853 11.6467 7.35331L10.6467 6.35331C10.4515 6.15804 10.4515 5.84154 10.6467 5.64627C10.842 5.45125 11.1586 5.45109 11.3538 5.64627L12.0003 6.29276L12.6467 5.64627Z" fill="black"/>
<path d="M11.7249 1.58182C11.9189 1.45386 12.183 1.47549 12.3538 1.64627L13.3538 2.64627C13.5489 2.84146 13.5488 3.15804 13.3538 3.35331C13.1585 3.54856 12.842 3.54853 12.6467 3.35331L12.0003 2.70682L11.3538 3.35331C11.1585 3.54856 10.842 3.54853 10.6467 3.35331C10.4515 3.15804 10.4515 2.84154 10.6467 2.64627L11.6467 1.64627L11.7249 1.58182Z" fill="black"/>
</svg>
