<svg width="16" height="16" viewBox="0 0 16 16" fill="none" xmlns="http://www.w3.org/2000/svg">
<path fill-rule="evenodd" clip-rule="evenodd" d="M7.00018 2.5C7.82624 2.5001 8.50018 3.17392 8.50018 4V7.10645L8.60858 7.13379L8.60956 7.13477C9.7254 7.41063 10.499 8.41277 10.4992 9.55957V13C10.4991 13.826 9.82527 14.5 8.99921 14.5H4.61932C4.05855 14.4997 3.52518 14.1888 3.27753 13.6631L2.08221 11.2637L2.01288 11.1113C1.69189 10.3436 1.77511 9.45579 2.23261 8.76367L2.23456 8.76172L3.50018 6.87109V4C3.50018 3.17386 4.17404 2.5 5.00018 2.5C5.38424 2.50005 5.73437 2.64684 6.00018 2.88574C6.26601 2.64691 6.61615 2.5 7.00018 2.5ZM7.00018 3.5C6.72633 3.5 6.50018 3.72614 6.50018 4V8C6.50018 8.27608 6.27624 8.4999 6.00018 8.5C5.72404 8.5 5.50018 8.27614 5.50018 8V4C5.50018 3.7262 5.27396 3.5001 5.00018 3.5C4.72633 3.5 4.50018 3.72614 4.50018 4V6.91309C4.51279 6.97677 4.513 7.04275 4.50018 7.10742V10C4.50018 10.2761 4.27624 10.4999 4.00018 10.5C3.72404 10.5 3.50018 10.2761 3.50018 10V8.66797L3.06464 9.31836C2.81101 9.7041 2.75091 10.195 2.8996 10.6318L2.97675 10.8164L4.17694 13.2266L4.18182 13.2363C4.25416 13.3897 4.42095 13.4998 4.61932 13.5H8.99921C9.27299 13.5 9.49908 13.2738 9.49921 13V9.55957C9.49901 8.86676 9.03316 8.26956 8.36932 8.10547L7.90155 7.99023C7.89892 7.98971 7.89636 7.98885 7.89374 7.98828L7.88104 7.98535C7.8726 7.98328 7.86486 7.97904 7.85663 7.97656C7.8356 7.97024 7.81487 7.96399 7.79511 7.95508C7.78116 7.94881 7.76821 7.94102 7.75507 7.93359C7.74035 7.92526 7.72583 7.91696 7.7121 7.90723C7.69801 7.89726 7.68494 7.88628 7.67206 7.875C7.66023 7.86465 7.64868 7.85418 7.63788 7.84277C7.62735 7.83163 7.61803 7.81964 7.60858 7.80762C7.59867 7.79502 7.58797 7.78306 7.57929 7.76953C7.56936 7.75406 7.56207 7.73718 7.55389 7.7207C7.54795 7.7087 7.54131 7.6971 7.53632 7.68457C7.52958 7.66773 7.5246 7.65036 7.51971 7.63281C7.51572 7.61832 7.51167 7.60386 7.50897 7.58887C7.5054 7.56925 7.50333 7.54944 7.50214 7.5293C7.50157 7.51958 7.50018 7.50986 7.50018 7.5V4C7.50018 3.7262 7.27396 3.5001 7.00018 3.5Z" fill="black"/>
<path d="M12.0002 2.5C12.2762 2.5001 12.5002 2.72392 12.5002 3V5.79297L12.6467 5.64648C12.8419 5.45131 13.1585 5.45125 13.3537 5.64648C13.5488 5.84172 13.5488 6.15828 13.3537 6.35352L12.3537 7.35352C12.33 7.37726 12.3037 7.39838 12.2756 7.41699C12.2713 7.4198 12.2662 7.42116 12.2619 7.42383C12.2121 7.4547 12.1573 7.47843 12.0978 7.49023C12.0331 7.5031 11.9663 7.50318 11.9016 7.49023C11.8504 7.48002 11.8032 7.46007 11.759 7.43555C11.7191 7.41344 11.6805 7.38737 11.6467 7.35352L10.6467 6.35352C10.4514 6.15825 10.4514 5.84175 10.6467 5.64648C10.8419 5.45131 11.1585 5.45125 11.3537 5.64648L11.5002 5.79297V3C11.5002 2.72386 11.724 2.5 12.0002 2.5Z" fill="black"/>
</svg>
