<svg width="16" height="16" viewBox="0 0 16 16" fill="none" xmlns="http://www.w3.org/2000/svg">
<path fill-rule="evenodd" clip-rule="evenodd" d="M7.00027 2C7.82629 2.00014 8.50027 2.67395 8.50027 3.5V6.1084L10.6106 6.63477C11.7265 6.91062 12.4991 7.91275 12.4993 9.05957V12.5C12.4993 13.3261 11.8254 14 10.9993 14H6.61941C6.05853 13.9998 5.52524 13.689 5.27761 13.1631L4.0823 10.7637L4.01296 10.6113C3.692 9.84367 3.77538 8.95673 4.23269 8.26465L4.23464 8.26172L5.50027 6.37109V3.5C5.50027 2.67386 6.17412 2 7.00027 2ZM7.00027 3C6.72641 3 6.50027 3.22614 6.50027 3.5V6.41309C6.51282 6.47676 6.51311 6.54277 6.50027 6.60742V9.5C6.50027 9.77605 6.27629 9.99986 6.00027 10C5.72412 10 5.50027 9.77614 5.50027 9.5V8.16797L5.06472 8.81836C4.8109 9.20437 4.7506 9.69572 4.89968 10.1328L4.97683 10.3164L6.17702 12.7275L6.18191 12.7373C6.2542 12.8908 6.42091 12.9998 6.61941 13H10.9993C11.2731 13 11.4993 12.7739 11.4993 12.5V9.05957C11.4991 8.36676 11.0332 7.76956 10.3694 7.60547L7.87917 6.98535C7.86932 6.98289 7.86041 6.97761 7.85085 6.97461C7.83049 6.96822 7.81042 6.96196 7.79128 6.95312C7.78182 6.94877 7.77303 6.94338 7.76394 6.93848C7.7444 6.92793 7.72517 6.91726 7.7073 6.9043C7.69658 6.89651 7.68703 6.88747 7.67702 6.87891C7.66347 6.86734 7.6502 6.8557 7.63796 6.84277C7.62744 6.83162 7.61809 6.81965 7.60866 6.80762C7.5983 6.79445 7.58741 6.78176 7.57839 6.76758C7.57028 6.75476 7.56383 6.74104 7.55691 6.72754C7.54885 6.71188 7.54084 6.69625 7.53445 6.67969C7.5288 6.66508 7.52504 6.6499 7.52077 6.63477C7.51633 6.61894 7.51096 6.60333 7.50808 6.58691C7.50546 6.57215 7.50545 6.55706 7.50417 6.54199C7.50301 6.52808 7.50027 6.51421 7.50027 6.5V3.5C7.50027 3.22623 7.274 3.00015 7.00027 3Z" fill="currentColor"/>
</svg>
