<svg width="16" height="16" viewBox="0 0 16 16" fill="none" xmlns="http://www.w3.org/2000/svg">
<path fill-rule="evenodd" clip-rule="evenodd" d="M5.00027 2.50001C5.8263 2.50015 6.50027 3.17395 6.50027 4.00001V6.60841L8.61063 7.13477C9.72649 7.41063 10.4991 8.41276 10.4993 9.55958V13C10.4993 13.8261 9.82544 14.5 8.9993 14.5H4.61941C4.05854 14.4998 3.52524 14.189 3.27762 13.6631L2.08231 11.2637L2.01297 11.1113C1.69202 10.3437 1.77539 9.45674 2.2327 8.76466L2.23465 8.76173L3.50027 6.8711V4.00001C3.50027 3.17387 4.17413 2.50001 5.00027 2.50001ZM5.00027 3.50001C4.72642 3.50001 4.50027 3.72615 4.50027 4.00001V6.91309C4.51283 6.97677 4.51312 7.04277 4.50027 7.10743V10C4.50027 10.2761 4.27629 10.4999 4.00027 10.5C3.72413 10.5 3.50028 10.2762 3.50027 10V8.66798L3.06473 9.31837C2.81091 9.70437 2.75061 10.1957 2.89969 10.6328L2.97684 10.8164L4.17703 13.2275L4.18191 13.2373C4.25421 13.3908 4.42093 13.4998 4.61941 13.5H8.9993C9.27315 13.5 9.49929 13.2739 9.4993 13V9.55958C9.4991 8.86677 9.03325 8.26957 8.36941 8.10548L5.87918 7.48536C5.86933 7.4829 5.86042 7.47762 5.85086 7.47462C5.8305 7.46823 5.81043 7.46197 5.79129 7.45313C5.78183 7.44878 5.77304 7.44339 5.76395 7.43849C5.74441 7.42794 5.72517 7.41726 5.70731 7.40431C5.69659 7.39652 5.68704 7.38748 5.67703 7.37892C5.66348 7.36735 5.65021 7.35571 5.63797 7.34278C5.62745 7.33163 5.6181 7.31966 5.60867 7.30763C5.59831 7.29446 5.58742 7.28177 5.5784 7.26759C5.57028 7.25477 5.56384 7.24105 5.55691 7.22755C5.54886 7.21189 5.54085 7.19626 5.53445 7.1797C5.52881 7.16509 5.52505 7.14991 5.52078 7.13477C5.51634 7.11895 5.51097 7.10334 5.50809 7.08692C5.50547 7.07216 5.50546 7.05707 5.50418 7.042C5.50302 7.02809 5.50027 7.01422 5.50027 7.00001V4.00001C5.50027 3.72624 5.27401 3.50015 5.00027 3.50001Z" fill="currentColor"/>
<path d="M10.2366 2.22657C11.2119 1.25132 12.7985 1.25132 13.7737 2.22657C14.7488 3.20184 14.7489 4.78846 13.7737 5.76368C13.5785 5.95888 13.262 5.95877 13.0667 5.76368C12.8714 5.56842 12.8714 5.25191 13.0667 5.05665C13.6514 4.47196 13.6513 3.51835 13.0667 2.9336C12.4819 2.34888 11.5284 2.34887 10.9436 2.9336C10.4163 3.46099 10.3664 4.28682 10.7903 4.87306V4.50001C10.7903 4.22387 11.0142 4.00001 11.2903 4.00001C11.5663 4.00017 11.7903 4.22396 11.7903 4.50001V6.00001C11.7903 6.27605 11.5663 6.49985 11.2903 6.50001H9.79031C9.51417 6.50001 9.29031 6.27615 9.29031 6.00001C9.29031 5.72387 9.51417 5.50001 9.79031 5.50001H10.01C9.27015 4.52068 9.34453 3.11865 10.2366 2.22657Z" fill="currentColor"/>
</svg>
