<svg width="16" height="16" viewBox="0 0 16 16" fill="none" xmlns="http://www.w3.org/2000/svg">
<path fill-rule="evenodd" clip-rule="evenodd" d="M6.99979 2C7.52492 2 7.98753 2.27303 8.25565 2.68359C8.47301 2.56077 8.72342 2.49024 8.99003 2.49023C9.81615 2.49026 10.49 3.16411 10.49 3.99023V6.70703C11.1064 7.13367 11.49 7.83693 11.49 8.61035V12.4902C11.4899 13.3163 10.8161 13.9902 9.99003 13.9902H4.61015C4.05389 13.9902 3.52933 13.6757 3.27323 13.1641L3.27225 13.1631L2.07206 10.7529L2.07304 10.752C1.66179 9.94823 1.72756 8.99832 2.2244 8.25293L3.49979 6.34766V3.5C3.49979 2.67392 4.17374 2.00011 4.99979 2C5.38382 2 5.73397 2.14692 5.99979 2.38574C6.2656 2.14684 6.61574 2.00005 6.99979 2ZM6.99979 3C6.76038 3.0001 6.55671 3.1729 6.50956 3.39941L6.49979 3.5V7.5C6.49979 7.77614 6.27594 8 5.99979 8C5.72374 7.99989 5.49979 7.77608 5.49979 7.5V3.5C5.49979 3.22614 5.27365 3 4.99979 3C4.72603 3.00011 4.49979 3.22621 4.49979 3.5V9.5C4.49979 9.77614 4.27594 10 3.99979 10C3.72374 9.99989 3.49979 9.77608 3.49979 9.5V8.14355L3.05546 8.80664C2.79164 9.20248 2.73238 9.68659 2.88554 10.1191L2.96464 10.3008L2.96757 10.3076L4.16776 12.7178C4.25202 12.885 4.42709 12.9902 4.61015 12.9902H9.99003C10.2638 12.9902 10.4899 12.764 10.49 12.4902V8.61035C10.49 8.11255 10.2092 7.6621 9.76347 7.43555C9.59585 7.35029 9.49012 7.17828 9.49003 6.99023V3.99023C9.49003 3.71639 9.26387 3.49026 8.99003 3.49023C8.74748 3.49024 8.54352 3.66761 8.49979 3.89844V5C8.49979 5.03444 8.49666 5.0681 8.49003 5.10059V7.49023C8.4899 7.76625 8.26607 7.99021 7.99003 7.99023C7.71397 7.99023 7.49016 7.76626 7.49003 7.49023V3.99023C7.49003 3.93387 7.49369 3.87802 7.49979 3.82324V3.5C7.49979 3.22614 7.27365 3 6.99979 3Z" fill="currentColor"/>
<path d="M12.9998 2.5C13.2759 2.5 13.4998 2.72386 13.4998 3V5.79297L13.6463 5.64648C13.8415 5.45125 14.158 5.45132 14.3533 5.64648C14.5486 5.84175 14.5486 6.15825 14.3533 6.35352L13.3533 7.35352C13.3192 7.38758 13.2802 7.41338 13.24 7.43555C13.1957 7.46 13.1486 7.48011 13.0974 7.49023C13.0327 7.50305 12.9659 7.50322 12.9012 7.49023C12.8418 7.47832 12.7869 7.45476 12.7371 7.42383C12.7328 7.42116 12.7277 7.41981 12.7234 7.41699C12.6956 7.39849 12.6698 7.37707 12.6463 7.35352L11.6463 6.35352C11.4511 6.15828 11.4511 5.84172 11.6463 5.64648C11.8415 5.45125 12.158 5.45132 12.3533 5.64648L12.4998 5.79297V3C12.4998 2.72392 12.7237 2.50011 12.9998 2.5Z" fill="currentColor"/>
</svg>
