<svg width="16" height="16" viewBox="0 0 16 16" fill="none" xmlns="http://www.w3.org/2000/svg">
<path fill-rule="evenodd" clip-rule="evenodd" d="M8.99023 2.5C9.81623 2.50017 10.4902 3.17396 10.4902 4V6.60645L12.6104 7.13477L12.8154 7.19434C13.8198 7.53601 14.4998 8.48451 14.5 9.55957V13C14.5 13.8261 13.8261 14.5 13 14.5H8.41016C8.00146 14.5 7.63098 14.3332 7.35645 14.0732L4.97656 11.6934C3.927 10.6437 4.87259 8.87454 6.32617 9.15918L7.49023 9.39062V4C7.49023 3.17389 8.16414 2.50005 8.99023 2.5ZM8.99023 3.5C8.71642 3.50005 8.49023 3.72618 8.49023 4V10C8.49023 10.1497 8.42236 10.2917 8.30664 10.3867C8.19102 10.4814 8.03917 10.5193 7.89258 10.4902L6.13281 10.1406C5.6472 10.0466 5.33364 10.6363 5.68359 10.9863L8.04395 13.3467L8.12695 13.4131C8.21401 13.4702 8.31186 13.5 8.41016 13.5H13C13.2738 13.5 13.5 13.2738 13.5 13V9.55957C13.4998 8.86682 13.0338 8.26963 12.3701 8.10547L9.9043 7.49121C9.66912 7.45046 9.49023 7.24683 9.49023 7V4C9.49023 3.72625 9.26395 3.50017 8.99023 3.5Z" fill="currentColor"/>
<path d="M3.5 5C3.77614 5 4 5.22386 4 5.5V7.5C4 7.77614 3.77614 8 3.5 8C3.22386 8 3 7.77614 3 7.5V6H1.5C1.22386 6 1 5.77614 1 5.5C1 5.22386 1.22386 5 1.5 5H3.5Z" fill="currentColor"/>
<path d="M4.5 2C4.77614 2 5 2.22386 5 2.5V4H6.5C6.77614 4 7 4.22386 7 4.5C7 4.77614 6.77614 5 6.5 5H4.5C4.22386 5 4 4.77614 4 4.5V2.5C4 2.22386 4.22386 2 4.5 2Z" fill="currentColor"/>
</svg>
