<svg width="16" height="16" viewBox="0 0 16 16" fill="none" xmlns="http://www.w3.org/2000/svg">
<path fill-rule="evenodd" clip-rule="evenodd" d="M8.99023 2.5C9.81623 2.50018 10.4902 3.17397 10.4902 4V6.60645L12.6104 7.13477L12.8154 7.19434C13.8198 7.53601 14.4998 8.48451 14.5 9.55957V13C14.5 13.8261 13.8261 14.5 13 14.5H8.41016C8.00146 14.5 7.63098 14.3332 7.35645 14.0732L4.97656 11.6934C3.92698 10.6437 4.87258 8.87453 6.32617 9.15918L7.49023 9.39062V4C7.49023 3.17389 8.16413 2.50005 8.99023 2.5ZM8.99023 3.5C8.71641 3.50005 8.49023 3.72617 8.49023 4V10C8.49023 10.1497 8.42236 10.2917 8.30664 10.3867C8.19102 10.4814 8.03917 10.5193 7.89258 10.4902L6.13281 10.1406C5.64719 10.0466 5.33363 10.6363 5.68359 10.9863L8.04395 13.3467L8.12695 13.4131C8.21401 13.4702 8.31185 13.5 8.41016 13.5H13C13.2738 13.5 13.5 13.2738 13.5 13V9.55957C13.4998 8.86683 13.0338 8.26963 12.3701 8.10547L9.9043 7.49121C9.66911 7.45047 9.49023 7.24684 9.49023 7V4C9.49023 3.72625 9.26395 3.50018 8.99023 3.5Z" fill="currentColor"/>
<path d="M2 4.5C2.27614 4.5 2.5 4.72386 2.5 5V6.5H4C4.27614 6.5 4.5 6.72386 4.5 7C4.5 7.27614 4.27614 7.5 4 7.5H2C1.72386 7.5 1.5 7.27614 1.5 7V5C1.5 4.72386 1.72386 4.5 2 4.5Z" fill="currentColor"/>
<path d="M6 2.5C6.27614 2.5 6.5 2.72386 6.5 3V5C6.5 5.27614 6.27614 5.5 6 5.5C5.72386 5.5 5.5 5.27614 5.5 5V3.5H4C3.72386 3.5 3.5 3.27614 3.5 3C3.5 2.72386 3.72386 2.5 4 2.5H6Z" fill="currentColor"/>
</svg>
