<svg width="16" height="16" viewBox="0 0 16 16" fill="none" xmlns="http://www.w3.org/2000/svg">
<path fill-rule="evenodd" clip-rule="evenodd" d="M8.00026 1C8.53021 1.00009 8.99608 1.27835 9.26296 1.69531C9.48095 1.57152 9.73253 1.5 10.0003 1.5C10.8263 1.50014 11.5003 2.17394 11.5003 3V3.08691C11.6569 3.03122 11.825 3.00001 12.0003 3C12.8263 3.00017 13.5003 3.67396 13.5003 4.5V10.2598C13.5003 12.8759 11.3761 15 8.76003 15C7.49572 15 6.29995 14.4965 5.40847 13.6162L5.40651 13.6133L1.98659 10.1934C0.936983 9.1437 1.88258 7.3745 3.3362 7.65918C3.73619 7.73662 4.12633 7.85613 4.50026 8.00977V3.5C4.50026 2.67386 5.17412 2 6.00026 2C6.19568 2.00003 6.38251 2.03791 6.55397 2.10645C6.72772 1.47031 7.31035 1 8.00026 1ZM8.00026 2C7.72641 2 7.50026 2.22614 7.50026 2.5V7.5C7.50026 7.77606 7.27629 7.99986 7.00026 8C6.72412 8 6.50026 7.77614 6.50026 7.5V3.5L6.4905 3.39941C6.44335 3.17292 6.23965 3.00012 6.00026 3C5.72641 3 5.50026 3.22614 5.50026 3.5V9.7998C5.50026 10.0759 5.27629 10.2997 5.00026 10.2998C4.72412 10.2998 4.50026 10.0759 4.50026 9.7998V9.1084C4.0736 8.89275 3.61426 8.73149 3.14479 8.64062C2.65851 8.54544 2.34335 9.13601 2.69362 9.48633L6.11159 12.9043L6.24636 13.0322C6.93755 13.6523 7.82664 14 8.76003 14C10.8239 14 12.5003 12.3236 12.5003 10.2598V4.5C12.5003 4.22625 12.274 4.00017 12.0003 4C11.7264 4.00003 11.5003 4.22616 11.5003 4.5V7.5C11.5003 7.77606 11.2763 7.99986 11.0003 8C10.7241 8 10.5003 7.77614 10.5003 7.5V3C10.5003 2.72623 10.274 2.50014 10.0003 2.5C9.76078 2.5 9.55722 2.67287 9.51003 2.89941L9.50026 3V7.5C9.50026 7.77606 9.27629 7.99986 9.00026 8C8.72412 8 8.50026 7.77614 8.50026 7.5V2.5C8.50026 2.22623 8.27401 2.00014 8.00026 2Z" fill="currentColor"/>
</svg>
