<svg width="16" height="16" viewBox="0 0 16 16" fill="none" xmlns="http://www.w3.org/2000/svg">
<path fill-rule="evenodd" clip-rule="evenodd" d="M8.99004 1.99023C9.81616 1.99026 10.49 2.66411 10.49 3.49023V6.59766L10.5994 6.625C11.7151 6.901 12.4898 7.90314 12.49 9.0498V12.4902C12.4899 13.3163 11.8161 13.9902 10.99 13.9902H6.61015C6.0539 13.9902 5.52933 13.6757 5.27324 13.1641L5.27226 13.1631L4.07207 10.7529L4.07304 10.752C3.6618 9.94822 3.72757 8.99832 4.22441 8.25293L5.4998 6.34766V3.5C5.4998 2.67392 6.17375 2.00011 6.9998 2C7.37862 2 7.72456 2.14289 7.98906 2.37598C8.25498 2.13674 8.60564 1.99024 8.99004 1.99023ZM8.99004 2.99023C8.73633 2.99024 8.52583 3.18436 8.4959 3.43066C8.49695 3.45369 8.4998 3.47672 8.4998 3.5V6.5C8.4998 6.53345 8.4963 6.56605 8.49004 6.59766V7.49023C8.4899 7.76625 8.26608 7.99021 7.99004 7.99023C7.71398 7.99023 7.49017 7.76626 7.49004 7.49023V3.49023C7.49004 3.47035 7.49219 3.45037 7.49297 3.43066C7.45855 3.18914 7.25005 3 6.9998 3C6.72603 3.00011 6.4998 3.22621 6.4998 3.5V9.5C6.4998 9.77614 6.27594 10 5.9998 10C5.72375 9.99989 5.4998 9.77608 5.4998 9.5V8.14355L5.05547 8.80664C4.79165 9.20248 4.73239 9.6866 4.88554 10.1191L4.96465 10.3008L4.96758 10.3076L6.16777 12.7178C6.25203 12.885 6.4271 12.9902 6.61015 12.9902H10.99C11.2638 12.9902 11.4899 12.764 11.49 12.4902V9.0498C11.4898 8.35706 11.0239 7.75986 10.3602 7.5957L9.8709 7.47559C9.64737 7.42074 9.49015 7.22039 9.49004 6.99023V3.49023C9.49004 3.21639 9.26387 2.99026 8.99004 2.99023Z" fill="currentColor"/>
</svg>
