<svg width="16" height="16" viewBox="0 0 16 16" fill="none" xmlns="http://www.w3.org/2000/svg">
<path fill-rule="evenodd" clip-rule="evenodd" d="M2.9314 4.49131C5.71594 1.63152 10.3065 1.59986 13.1336 4.42686L13.3533 4.64659C13.5485 4.84184 13.5485 5.15836 13.3533 5.35362C13.158 5.54871 12.8415 5.54882 12.6462 5.35362L12.4265 5.13389C10.3392 3.04662 7.13654 2.77202 4.75562 4.28917C4.85396 4.34953 4.94773 4.42081 5.03297 4.50596L6.97144 6.44444L8.35035 5.51573C9.33933 4.84149 10.6745 4.9679 11.5232 5.81651L13.6531 7.94639C14.2383 8.53165 14.2383 9.47832 13.6531 10.0636L10.6531 13.0636C10.3659 13.3506 9.98714 13.5001 9.58961 13.5001H5.86988C4.56841 13.4999 4.13873 11.7667 5.27027 11.1505L6.68238 10.38L2.91676 6.62413L2.91578 6.62315C2.33108 6.03788 2.33078 5.09105 2.91578 4.50596C2.92015 4.50159 2.92504 4.49757 2.92945 4.49327L2.9314 4.49131ZM4.32594 5.21397C4.13119 5.01933 3.81849 5.01927 3.62379 5.21397C3.42917 5.40868 3.42918 5.7214 3.62379 5.91612L7.86305 10.1456C7.9747 10.257 8.02706 10.4153 8.00465 10.5714C7.98214 10.7274 7.88716 10.8632 7.74879 10.9386L5.74879 12.0294C5.52129 12.1534 5.6119 12.4999 5.86988 12.5001H9.58961C9.73184 12.5001 9.8533 12.4492 9.94605 12.3565L12.9461 9.35655C13.1408 9.16181 13.1408 8.84816 12.9461 8.65342L10.8162 6.52354C10.3056 6.01313 9.50254 5.93913 8.91187 6.34288L8.90894 6.34483L7.18922 7.50499C6.99085 7.63846 6.72552 7.61255 6.55641 7.44346L4.32594 5.21397Z" fill="currentColor"/>
</svg>
