<svg width="16" height="16" viewBox="0 0 16 16" fill="none" xmlns="http://www.w3.org/2000/svg">
<path fill-rule="evenodd" clip-rule="evenodd" d="M2.93177 4.49131C5.71631 1.63151 10.3069 1.59983 13.1339 4.42685L13.3536 4.64658C13.5487 4.84185 13.5488 5.1584 13.3536 5.35361C13.1584 5.54882 12.8419 5.54872 12.6466 5.35361L12.4269 5.13389C10.8995 3.60651 8.7739 3.04801 6.81068 3.45322L8.69251 5.33603C9.63262 4.88825 10.7763 5.06952 11.5333 5.82627L13.6632 7.95713C14.2483 8.5424 14.2484 9.48911 13.6632 10.0743L10.6632 13.0743C10.3761 13.3612 9.99714 13.5099 9.59974 13.5099H5.88001C4.57856 13.5098 4.14906 11.7776 5.2804 11.1612L6.69251 10.3907L2.92689 6.63389C2.36627 6.07305 2.34265 5.18039 2.85658 4.59189C2.87704 4.55618 2.90173 4.52217 2.93177 4.49131ZM5.97669 4.03428C5.78195 3.83954 5.46831 3.83954 5.27357 4.03428C5.07923 4.229 5.07907 4.5418 5.27357 4.73642C5.2913 4.75418 5.30593 4.77447 5.32044 4.79404L7.27357 6.74717C7.46848 6.94246 7.46871 7.25905 7.27357 7.4542C7.0784 7.64902 6.76172 7.649 6.56654 7.4542L4.33607 5.22373C4.14141 5.0293 3.8286 5.02934 3.63392 5.22373C3.43959 5.41825 3.43897 5.73115 3.63294 5.92588L7.87318 10.1563C7.98466 10.2677 8.03711 10.4252 8.01478 10.5812C7.99229 10.7371 7.89732 10.8739 7.75892 10.9493L5.75892 12.0392C5.53135 12.1632 5.6219 12.5098 5.88001 12.5099H9.59974C9.74199 12.5099 9.86342 12.459 9.95618 12.3663L12.9562 9.36631C13.1507 9.17162 13.1507 8.85887 12.9562 8.66416L10.8263 6.53428C10.3158 6.02377 9.51271 5.94896 8.92201 6.35264L8.91712 6.35654L8.88685 6.37607C8.68861 6.50796 8.4244 6.48189 8.25599 6.31357L5.97669 4.03428Z" fill="currentColor"/>
</svg>
