<svg width="16" height="16" viewBox="0 0 16 16" fill="none" xmlns="http://www.w3.org/2000/svg">
<path d="M3.76 3.75997C1.42 6.09997 1.42 9.89998 3.76 12.25C6.1 14.6 9.9 14.59 12.25 12.25C14.6 9.90998 14.59 6.10997 12.25 3.75997C9.91 1.40997 6.11 1.41997 3.76 3.75997ZM11.01 6.05998C11.21 6.25998 11.21 6.56998 11.01 6.76998L8.89001 8.88998L10.15 10.15C10.4 10.4 10.22 10.83 9.86999 10.83H5.67999C5.39999 10.83 5.17999 10.61 5.17999 10.33V6.13998C5.17999 5.77998 5.60998 5.60998 5.85998 5.85998L7.11999 7.11997L9.23999 4.99998C9.43999 4.79998 9.75001 4.79998 9.95001 4.99998L11.01 6.05998Z" fill="black"/>
</svg>
