<svg width="16" height="16" viewBox="0 0 16 16" fill="none" xmlns="http://www.w3.org/2000/svg">
<path d="M3.75997 12.25C6.09997 14.59 9.89998 14.59 12.25 12.25C14.6 9.90998 14.59 6.10997 12.25 3.75997C9.90998 1.40997 6.10997 1.41997 3.75997 3.75997C1.40997 6.09997 1.41997 9.89998 3.75997 12.25ZM5.87998 5.37998C6.01998 5.37998 6.13997 5.43998 6.22997 5.52998C6.31997 5.61998 6.37998 5.74998 6.37998 5.87998V8.91998L9.76998 5.52998C9.96998 5.32998 10.28 5.32998 10.48 5.52998C10.68 5.72998 10.68 6.03998 10.48 6.23998L7.08997 9.62998H10.13C10.41 9.62998 10.63 9.84998 10.63 10.13C10.63 10.41 10.41 10.63 10.13 10.63H5.88998C5.81998 10.63 5.75998 10.62 5.69998 10.59C5.57998 10.54 5.47997 10.44 5.42997 10.32C5.39997 10.26 5.38998 10.19 5.38998 10.13V5.88998C5.38998 5.60998 5.60998 5.38998 5.88998 5.38998L5.87998 5.37998Z" fill="black"/>
</svg>
