<svg width="16" height="16" viewBox="0 0 16 16" fill="none" xmlns="http://www.w3.org/2000/svg">
<path d="M12.24 12.24C14.58 9.89997 14.58 6.09996 12.24 3.74996C9.89995 1.39996 6.09996 1.40996 3.74996 3.74996C1.39996 6.08996 1.40996 9.88997 3.74996 12.24C6.08996 14.59 9.88995 14.58 12.24 12.24ZM4.98995 9.93997C4.78995 9.73997 4.78995 9.42996 4.98995 9.22996L7.10995 7.10996L5.84994 5.84997C5.59994 5.59997 5.77997 5.16996 6.12997 5.16996H10.32C10.6 5.16996 10.82 5.38996 10.82 5.66996V9.85996C10.82 10.22 10.39 10.39 10.14 10.14L8.87997 8.87997L6.75997 11C6.55997 11.2 6.24995 11.2 6.04995 11L4.98995 9.93997Z" fill="black"/>
</svg>
