<svg width="16" height="16" viewBox="0 0 16 16" fill="none" xmlns="http://www.w3.org/2000/svg">
<path d="M5.50002 8L2.86002 4.48C2.71002 4.28 2.86002 4 3.10002 4H5.25002C5.41002 4 5.56001 4.07 5.65001 4.2L8.27002 7.7C8.40002 7.88 8.40002 8.12 8.27002 8.3L5.64002 11.8C5.55002 11.93 5.40002 12 5.24002 12H3.09001C2.84001 12 2.70002 11.72 2.85002 11.52L5.49002 8H5.50002Z" fill="currentColor"/>
<path d="M10.5 8L7.86002 4.48C7.71002 4.28 7.86002 4 8.10002 4H10.25C10.41 4 10.56 4.07 10.65 4.2L13.27 7.7C13.4 7.88 13.4 8.12 13.27 8.3L10.64 11.8C10.55 11.93 10.4 12 10.24 12H8.09001C7.84001 12 7.70002 11.72 7.85002 11.52L10.49 8H10.5Z" fill="currentColor"/>
</svg>
