<svg width="16" height="16" viewBox="0 0 16 16" fill="none" xmlns="http://www.w3.org/2000/svg">
<path d="M8 5.50001L4.72 3.86001C4.39 3.69001 4 3.94001 4 4.31001V5.88002C4 6.26002 4.20999 6.61002 4.54999 6.77002L7.54999 8.27002C7.82999 8.41002 8.16 8.41002 8.44 8.27002L11.44 6.77002C11.78 6.60002 11.99 6.25002 11.99 5.88002V4.31001C11.99 3.94001 11.6 3.70001 11.27 3.86001L7.98999 5.50001H8Z" fill="black"/>
<path d="M4 9.31001V10.88C4 11.26 4.20999 11.61 4.54999 11.77L7.54999 13.27C7.82999 13.41 8.16 13.41 8.44 13.27L11.44 11.77C11.78 11.6 11.99 11.25 11.99 10.88V9.31001C11.99 8.94001 11.6 8.70001 11.27 8.86001L7.98999 10.5L4.70999 8.86001C4.37999 8.69001 3.98999 8.94001 3.98999 9.31001H4Z" fill="black"/>
</svg>
