<svg width="16" height="16" viewBox="0 0 16 16" fill="none" xmlns="http://www.w3.org/2000/svg">
<path d="M14 8C14 4.69 11.31 2 8 2C4.69 2 2 4.69 2 8C2 11.31 4.69 14 8 14C11.31 14 14 11.31 14 8ZM7.64999 11.36C7.54999 11.26 7.5 11.13 7.5 11.01C7.5 10.89 7.54999 10.75 7.64999 10.66L9.8 8.50999H5.00999C4.72999 8.50999 4.50999 8.28999 4.50999 8.00999C4.50999 7.72999 4.72999 7.50999 5.00999 7.50999H9.8L7.64999 5.36C7.44999 5.16 7.44999 4.84999 7.64999 4.64999C7.84999 4.44999 8.16 4.44999 8.36 4.64999L11.36 7.64999C11.36 7.64999 11.44 7.75 11.47 7.81C11.52 7.93 11.52 8.07 11.47 8.19C11.44 8.25 11.41 8.31001 11.36 8.35001L8.36 11.35C8.16 11.55 7.84999 11.55 7.64999 11.35V11.36Z" fill="black"/>
</svg>
