<svg width="16" height="16" viewBox="0 0 16 16" fill="none" xmlns="http://www.w3.org/2000/svg">
<path d="M3.75997 12.25C6.09997 14.59 9.89996 14.59 12.25 12.25C14.6 9.90998 14.59 6.10997 12.25 3.75997C9.90996 1.40997 6.10997 1.41997 3.75997 3.75997C1.40997 6.09997 1.41997 9.89998 3.75997 12.25ZM6.05996 4.99998C6.25996 4.79998 6.56998 4.79998 6.76998 4.99998L8.88998 7.11997L10.15 5.85998C10.4 5.60998 10.83 5.78998 10.83 6.13998V10.33C10.83 10.61 10.61 10.83 10.33 10.83H6.13998C5.77998 10.83 5.60995 10.4 5.85995 10.15L7.11996 8.88998L4.99996 6.76998C4.79996 6.56998 4.79996 6.25998 4.99996 6.05998L6.05996 4.99998Z" fill="currentColor"/>
</svg>
