<svg width="16" height="16" viewBox="0 0 16 16" fill="none" xmlns="http://www.w3.org/2000/svg">
<path d="M8 14C4.69 14 2 11.31 2 8C2 4.69 4.69 2 8 2C11.31 2 14 4.69 14 8C14 11.31 11.31 14 8 14ZM11.35 7.65C11.25 7.55 11.12 7.5 11 7.5C10.88 7.5 10.74 7.55 10.65 7.65L8.5 9.8V5.01C8.5 4.73 8.28 4.51 8 4.51C7.72 4.51 7.5 4.73 7.5 5.01V9.8L5.35001 7.65C5.15001 7.45 4.84001 7.45 4.64001 7.65C4.44001 7.85 4.44001 8.16 4.64001 8.36L7.64001 11.36C7.64001 11.36 7.73999 11.44 7.79999 11.47C7.91999 11.52 8.05999 11.52 8.17999 11.47C8.23999 11.44 8.3 11.41 8.34 11.36L11.34 8.36C11.54 8.16 11.54 7.85 11.34 7.65H11.35Z" fill="currentColor"/>
</svg>
