<svg width="16" height="16" viewBox="0 0 16 16" fill="none" xmlns="http://www.w3.org/2000/svg">
<path d="M8 10.5L11.28 12.14C11.61 12.31 12 12.06 12 11.69V10.12C12 9.74 11.79 9.39 11.45 9.23L8.45001 7.73C8.17001 7.59 7.84 7.59 7.56 7.73L4.56 9.23C4.22 9.4 4.01001 9.75 4.01001 10.12V11.69C4.01001 12.06 4.40001 12.3 4.73001 12.14L8.01001 10.5H8Z" fill="currentColor"/>
<path d="M12 6.69001V5.12C12 4.74 11.79 4.39 11.45 4.23L8.45001 2.73C8.17001 2.59 7.84 2.59 7.56 2.73L4.56 4.23C4.22 4.4 4.01001 4.75 4.01001 5.12V6.69001C4.01001 7.06001 4.40001 7.3 4.73001 7.14L8.01001 5.5L11.29 7.14C11.62 7.31 12.01 7.06001 12.01 6.69001H12Z" fill="currentColor"/>
</svg>
