<svg width="16" height="16" viewBox="0 0 16 16" fill="none" xmlns="http://www.w3.org/2000/svg">
<path d="M2 8C2 11.31 4.69 14 8 14C11.31 14 14 11.31 14 8C14 4.69 11.31 2 8 2C4.69 2 2 4.69 2 8ZM11 5.5C11.28 5.5 11.5 5.72 11.5 6C11.5 6.28 11.28 6.5 11 6.5H8C7.72 6.5 7.5 6.72 7.5 7V9.79L8.64999 8.64C8.84999 8.44 9.15999 8.44 9.35999 8.64C9.45999 8.74 9.51001 8.87 9.51001 8.99C9.51001 9.12 9.45999 9.25 9.35999 9.34L7.35999 11.34C7.35999 11.34 7.26001 11.42 7.20001 11.45C7.08001 11.5 6.94001 11.5 6.82001 11.45C6.76001 11.42 6.7 11.39 6.66 11.34L4.66 9.34C4.46 9.14 4.46 8.83 4.66 8.63C4.86 8.43 5.17 8.43 5.37 8.63L6.51999 9.78V6.99C6.51999 6.16 7.18999 5.49 8.01999 5.49H11.02L11 5.5Z" fill="black"/>
</svg>
