<svg width="16" height="16" viewBox="0 0 16 16" fill="none" xmlns="http://www.w3.org/2000/svg">
<path d="M8 2C4.69 2 2 4.69 2 8C2 11.31 4.69 14 8 14C11.31 14 14 11.31 14 8C14 4.69 11.31 2 8 2ZM10.5 11C10.5 11.28 10.28 11.5 10 11.5C9.72 11.5 9.5 11.28 9.5 11V8C9.5 7.72 9.28 7.5 9 7.5H6.20999L7.35999 8.65C7.55999 8.85 7.55999 9.16 7.35999 9.36C7.25999 9.46 7.13001 9.51 7.01001 9.51C6.89001 9.51 6.75 9.46 6.66 9.36L4.66 7.36C4.66 7.36 4.57999 7.26 4.54999 7.2C4.49999 7.08 4.49999 6.94 4.54999 6.82C4.57999 6.76 4.61 6.7 4.66 6.66L6.66 4.66C6.86 4.46 7.17 4.46 7.37 4.66C7.56999 4.86 7.56999 5.17 7.37 5.37L6.22 6.52H9.01001C9.84001 6.52 10.51 7.19 10.51 8.02V11.02L10.5 11Z" fill="currentColor"/>
</svg>
