<svg width="16" height="16" viewBox="0 0 16 16" fill="none" xmlns="http://www.w3.org/2000/svg">
<path d="M5.49997 8.00002L3.85995 11.28C3.68995 11.61 3.93996 12 4.30996 12H5.87997C6.25997 12 6.60995 11.79 6.76995 11.45L8.26995 8.45001C8.40995 8.17001 8.40995 7.84001 8.26995 7.56001L6.76995 4.56001C6.59995 4.22001 6.24997 4.01001 5.87997 4.01001H4.30996C3.93996 4.01001 3.69995 4.40001 3.85995 4.73001L5.49997 8.01001V8.00002Z" fill="black"/>
<path d="M9.30996 12H10.88C11.26 12 11.61 11.79 11.77 11.45L13.27 8.45001C13.41 8.17001 13.41 7.84001 13.27 7.56001L11.77 4.56001C11.6 4.22001 11.25 4.01001 10.88 4.01001H9.30996C8.93996 4.01001 8.69995 4.40001 8.85995 4.73001L10.5 8.01001L8.85995 11.29C8.68995 11.62 8.93996 12.01 9.30996 12.01V12Z" fill="black"/>
</svg>
