<svg width="16" height="16" viewBox="0 0 16 16" fill="none" xmlns="http://www.w3.org/2000/svg">
<path d="M10.5 8L13.14 4.48C13.29 4.28 13.14 4 12.9 4H10.75C10.59 4 10.44 4.07 10.35 4.2L7.73001 7.7C7.60001 7.88 7.60001 8.12 7.73001 8.3L10.35 11.8C10.44 11.93 10.59 12 10.75 12H12.9C13.15 12 13.29 11.72 13.14 11.52L10.5 8Z" fill="black"/>
<path d="M5.5 8L8.14 4.48C8.29 4.28 8.14001 4 7.90001 4H5.75C5.59 4 5.44 4.07 5.35 4.2L2.73001 7.7C2.60001 7.88 2.60001 8.12 2.73001 8.3L5.35 11.8C5.44 11.93 5.59 12 5.75 12H7.90001C8.15001 12 8.29 11.72 8.14 11.52L5.5 8Z" fill="black"/>
</svg>
