<svg width="16" height="16" viewBox="0 0 16 16" fill="none" xmlns="http://www.w3.org/2000/svg">
<path d="M12.24 12.24C14.58 9.89997 14.58 6.09996 12.24 3.74996C9.89995 1.39996 6.09996 1.40996 3.74996 3.74996C1.39996 6.08996 1.40996 9.88997 3.74996 12.24C6.08996 14.58 9.88995 14.58 12.24 12.24ZM5.37997 10.12C5.37997 9.97996 5.43996 9.85997 5.52996 9.76997C5.61996 9.67997 5.74997 9.61996 5.87997 9.61996H8.91998L5.52996 6.22996C5.32996 6.02996 5.32996 5.71997 5.52996 5.51997C5.72996 5.31997 6.03995 5.31997 6.23995 5.51997L9.62997 8.90997V5.86996C9.62997 5.58996 9.84997 5.36996 10.13 5.36996C10.41 5.36996 10.63 5.58996 10.63 5.86996V10.11C10.63 10.18 10.62 10.24 10.59 10.3C10.54 10.42 10.44 10.52 10.32 10.57C10.26 10.6 10.19 10.61 10.13 10.61H5.88998C5.60998 10.61 5.38998 10.39 5.38998 10.11L5.37997 10.12Z" fill="currentColor"/>
</svg>
