<svg width="16" height="16" viewBox="0 0 16 16" fill="none" xmlns="http://www.w3.org/2000/svg">
<path d="M9.21999 11.45L7.71999 8.45001C7.57999 8.17001 7.57999 7.84001 7.71999 7.56001L9.21999 4.56001C9.38999 4.22001 9.73997 4.01001 10.11 4.01001H11.68C12.05 4.01001 12.29 4.40001 12.13 4.73001L10.49 8.01001L12.13 11.29C12.3 11.62 12.05 12.01 11.68 12.01H10.11C9.72997 12.01 9.37999 11.8 9.21999 11.46V11.45Z" fill="currentColor"/>
<path d="M4.21999 11.45L2.71999 8.45001C2.57999 8.17001 2.57999 7.84001 2.71999 7.56001L4.21999 4.56001C4.38999 4.22001 4.73997 4.01001 5.10997 4.01001H6.67998C7.04998 4.01001 7.28999 4.40001 7.12999 4.73001L5.48998 8.01001L7.12999 11.29C7.29999 11.62 7.04998 12.01 6.67998 12.01H5.10997C4.72997 12.01 4.37999 11.8 4.21999 11.46V11.45Z" fill="currentColor"/>
</svg>
