<svg width="16" height="16" viewBox="0 0 16 16" fill="none" xmlns="http://www.w3.org/2000/svg">
<path d="M8 5.50002L11.52 2.86002C11.72 2.71002 12 2.86002 12 3.10002V5.25002C12 5.41002 11.93 5.56003 11.8 5.65003L8.3 8.27002C8.12 8.40002 7.88 8.40002 7.7 8.27002L4.2 5.64002C4.07 5.55002 4 5.40002 4 5.24002V3.09002C4 2.84002 4.28 2.70002 4.48 2.85002L8 5.49002V5.50002Z" fill="currentColor"/>
<path d="M8 10.5L11.52 7.86002C11.72 7.71002 12 7.86002 12 8.10002V10.25C12 10.41 11.93 10.56 11.8 10.65L8.3 13.27C8.12 13.4 7.88 13.4 7.7 13.27L4.2 10.64C4.07 10.55 4 10.4 4 10.24V8.09002C4 7.84002 4.28 7.70002 4.48 7.85002L8 10.49V10.5Z" fill="currentColor"/>
</svg>
