<svg width="16" height="16" viewBox="0 0 16 16" fill="none" xmlns="http://www.w3.org/2000/svg">
<path d="M8 2C4.69 2 2 4.69 2 8C2 11.31 4.69 14 8 14C11.31 14 14 11.31 14 8C14 4.69 11.31 2 8 2ZM8 5.5C8.83 5.5 9.5 6.17 9.5 7V9.78999L10.65 8.64C10.85 8.44 11.16 8.44 11.36 8.64C11.56 8.84 11.56 9.15001 11.36 9.35001L9.35999 11.35C9.35999 11.35 9.26001 11.43 9.20001 11.46C9.08001 11.51 8.94001 11.51 8.82001 11.46C8.76001 11.43 8.7 11.4 8.66 11.35L6.66 9.35001C6.56 9.25001 6.51001 9.12 6.51001 9C6.51001 8.87 6.56 8.73999 6.66 8.64999C6.86 8.44999 7.17 8.44999 7.37 8.64999L8.51999 9.8V7.00999C8.51999 6.72999 8.29999 6.50999 8.01999 6.50999H5.01999C4.73999 6.50999 4.51999 6.28999 4.51999 6.00999C4.51999 5.72999 4.73999 5.50999 5.01999 5.50999H8.01999L8 5.5Z" fill="black"/>
</svg>
