<svg width="16" height="16" viewBox="0 0 16 16" fill="none" xmlns="http://www.w3.org/2000/svg">
<path d="M3.76 3.75997C1.42 6.09997 1.42 9.89998 3.76 12.25C6.1 14.6 9.9 14.59 12.25 12.25C14.6 9.90998 14.59 6.10997 12.25 3.75997C9.91 1.40997 6.11 1.41997 3.76 3.75997ZM10.62 5.87998C10.62 6.01998 10.56 6.13997 10.47 6.22997C10.38 6.31997 10.25 6.37998 10.12 6.37998H7.07998L10.47 9.76998C10.67 9.96998 10.67 10.28 10.47 10.48C10.27 10.68 9.96 10.68 9.76 10.48L6.36999 7.08997V10.13C6.36999 10.41 6.14999 10.63 5.86999 10.63C5.58999 10.63 5.36999 10.41 5.36999 10.13V5.88998C5.36999 5.81998 5.38 5.75997 5.41 5.69998C5.46 5.57998 5.55999 5.47997 5.67999 5.42997C5.73999 5.39997 5.80999 5.38998 5.86999 5.38998H10.11C10.39 5.38998 10.61 5.60998 10.61 5.88998L10.62 5.87998Z" fill="black"/>
</svg>
