<svg width="16" height="16" viewBox="0 0 16 16" fill="none" xmlns="http://www.w3.org/2000/svg">
<path d="M12.24 3.76C9.89997 1.42 6.09996 1.42 3.74996 3.76C1.39996 6.1 1.40996 9.90001 3.74996 12.25C6.08996 14.6 9.88997 14.59 12.24 12.25C14.59 9.91001 14.58 6.11 12.24 3.76ZM10.12 10.62C9.97996 10.62 9.85997 10.56 9.76997 10.47C9.67997 10.38 9.61996 10.25 9.61996 10.12V7.08001L6.22996 10.47C6.02996 10.67 5.71997 10.67 5.51997 10.47C5.31997 10.27 5.31997 9.96 5.51997 9.76L8.90997 6.37001H5.86996C5.58996 6.37001 5.36996 6.15001 5.36996 5.87001C5.36996 5.59001 5.58996 5.37001 5.86996 5.37001H10.11C10.18 5.37001 10.24 5.38001 10.3 5.41001C10.42 5.46001 10.52 5.56 10.57 5.68C10.6 5.74 10.61 5.81001 10.61 5.87001V10.11C10.61 10.39 10.39 10.61 10.11 10.61L10.12 10.62Z" fill="currentColor"/>
</svg>
