<svg width="16" height="16" viewBox="0 0 16 16" fill="none" xmlns="http://www.w3.org/2000/svg">
<path d="M9.98998 6.51001L9.17998 7.32001C8.92998 7.57001 9.10998 8.00001 9.45998 8.00001H12.99C13.27 8.00001 13.49 7.78001 13.49 7.50001V3.97001C13.49 3.61001 13.06 3.44001 12.81 3.69001L11.94 4.56001C10.92 3.53001 10.05 3.01001 8.48998 3.01001C7.52998 3.01001 5.88001 3.34001 4.39001 4.88001C4.16001 5.11001 4.41999 5.49001 4.71999 5.37001C6.09999 4.82001 8.36 4.39001 9.98 6.51001H9.98998Z" fill="currentColor"/>
<path d="M6.01001 9.49L6.82001 8.68C7.07001 8.43 6.89001 8 6.54001 8H3.01001C2.73001 8 2.51001 8.22 2.51001 8.5V12.03C2.51001 12.39 2.94 12.56 3.19 12.31L4.06 11.44C5.08 12.47 5.95001 12.99 7.51001 12.99C8.47001 12.99 10.12 12.66 11.61 11.12C11.84 10.89 11.58 10.51 11.28 10.63C9.9 11.18 7.63999 11.61 6.01999 9.49H6.01001Z" fill="currentColor"/>
</svg>
