<svg width="16" height="16" viewBox="0 0 16 16" fill="none" xmlns="http://www.w3.org/2000/svg">
<path d="M2 8C2 11.31 4.69 14 8 14C11.31 14 14 11.31 14 8C14 4.69 11.31 2 8 2C4.69 2 2 4.69 2 8ZM5.5 8C5.5 7.17 6.17 6.5 7 6.5H9.79001L8.64001 5.35001C8.44001 5.15001 8.44001 4.84 8.64001 4.64C8.84001 4.44 9.15001 4.44 9.35001 4.64L11.35 6.64C11.35 6.64 11.43 6.74 11.46 6.8C11.51 6.92 11.51 7.05999 11.46 7.17999C11.43 7.23999 11.4 7.3 11.35 7.34L9.35001 9.34C9.25001 9.44 9.12 9.49001 9 9.49001C8.88 9.49001 8.73999 9.44 8.64999 9.34C8.44999 9.14 8.44999 8.83 8.64999 8.63L9.79999 7.48H7.01001C6.73001 7.48 6.51001 7.7 6.51001 7.98V10.98C6.51001 11.26 6.29001 11.48 6.01001 11.48C5.73001 11.48 5.51001 11.26 5.51001 10.98V7.98L5.5 8Z" fill="black"/>
</svg>
