<svg width="16" height="16" viewBox="0 0 16 16" fill="none" xmlns="http://www.w3.org/2000/svg">
<path d="M2 8C2 11.31 4.69 14 8 14C11.31 14 14 11.31 14 8C14 4.69 11.31 2 8 2C4.69 2 2 4.69 2 8ZM8.35001 4.64999C8.45001 4.74999 8.5 4.88 8.5 5C8.5 5.13 8.45001 5.26001 8.35001 5.35001L6.20001 7.5H10.99C11.27 7.5 11.49 7.72 11.49 8C11.49 8.28 11.27 8.5 10.99 8.5H6.20001L8.35001 10.65C8.55001 10.85 8.55001 11.16 8.35001 11.36C8.15001 11.56 7.84001 11.56 7.64001 11.36L4.64001 8.36C4.64001 8.36 4.56 8.26 4.53 8.2C4.48 8.08 4.48 7.94001 4.53 7.82001C4.56 7.76001 4.59001 7.7 4.64001 7.66L7.64001 4.66C7.84001 4.46 8.15001 4.46 8.35001 4.66V4.64999Z" fill="black"/>
</svg>
