<svg width="16" height="16" viewBox="0 0 16 16" fill="none" xmlns="http://www.w3.org/2000/svg">
<path d="M8 10.5L4.48 13.14C4.28 13.29 4 13.14 4 12.9V10.75C4 10.59 4.07 10.44 4.2 10.35L7.7 7.73001C7.88 7.60001 8.12 7.60001 8.3 7.73001L11.8 10.36C11.93 10.45 12 10.6 12 10.76V12.91C12 13.16 11.72 13.3 11.52 13.15L8 10.51V10.5Z" fill="currentColor"/>
<path d="M8 5.5L4.48 8.14C4.28 8.29 4 8.14001 4 7.90001V5.75C4 5.59 4.07 5.44 4.2 5.35L7.7 2.73001C7.88 2.60001 8.12 2.60001 8.3 2.73001L11.8 5.36C11.93 5.45 12 5.60001 12 5.76001V7.91001C12 8.16001 11.72 8.30001 11.52 8.15001L8 5.51001V5.5Z" fill="currentColor"/>
</svg>
