<svg width="16" height="16" viewBox="0 0 16 16" fill="none" xmlns="http://www.w3.org/2000/svg">
<path d="M8 2C4.69 2 2 4.69 2 8C2 11.31 4.69 14 8 14C11.31 14 14 11.31 14 8C14 4.69 11.31 2 8 2ZM11.35 8.35C11.25 8.45 11.12 8.5 11 8.5C10.88 8.5 10.74 8.45 10.65 8.35L8.5 6.2V10.99C8.5 11.27 8.28 11.49 8 11.49C7.72 11.49 7.5 11.27 7.5 10.99V6.2L5.35001 8.35C5.15001 8.55 4.84001 8.55 4.64001 8.35C4.44001 8.15 4.44001 7.84 4.64001 7.64L7.64001 4.64C7.64001 4.64 7.73999 4.56 7.79999 4.53C7.91999 4.48 8.05999 4.48 8.17999 4.53C8.23999 4.56 8.3 4.59 8.34 4.64L11.34 7.64C11.54 7.84 11.54 8.15 11.34 8.35H11.35Z" fill="currentColor"/>
</svg>
