<svg width="16" height="16" viewBox="0 0 16 16" fill="none" xmlns="http://www.w3.org/2000/svg">
<path d="M12.24 3.76C9.89995 1.42 6.09996 1.42 3.74996 3.76C1.39996 6.1 1.40996 9.90001 3.74996 12.25C6.08996 14.6 9.88995 14.59 12.24 12.25C14.59 9.91001 14.58 6.11 12.24 3.76ZM9.93997 11.01C9.73997 11.21 9.42994 11.21 9.22994 11.01L7.10995 8.89001L5.84994 10.15C5.59994 10.4 5.16995 10.22 5.16995 9.87001V5.68C5.16995 5.4 5.38995 5.18 5.66995 5.18H9.85995C10.2199 5.18 10.39 5.61001 10.14 5.86001L8.87997 7.12001L11 9.24002C11.2 9.44002 11.2 9.75001 11 9.95001L9.93997 11.01Z" fill="black"/>
</svg>
