<svg width="16" height="16" viewBox="0 0 16 16" fill="none" xmlns="http://www.w3.org/2000/svg">
<path d="M5.86035 1.99023C6.56021 1.99036 7.21038 2.3603 7.57031 2.9502L9.87012 6.74023L13.3604 6.94043C13.7702 6.96052 14.1603 7.13981 14.4502 7.42969C14.7502 7.72969 14.7502 8.23027 14.4502 8.53027V8.5498C14.1603 8.83972 13.7702 9.00997 13.3604 9.04004L9.87012 9.24023L7.57031 13.0303C7.21037 13.6301 6.56018 13.9901 5.86035 13.9902H5.36035C5.18049 13.9902 5.06024 13.8103 5.12988 13.6504L6.91016 9.24023L3.99023 8.99023L3.26953 10.4404C3.09943 10.7801 2.74969 10.9902 2.37988 10.9902H2V4.99023H2.37988C2.75983 4.99023 3.1095 5.20012 3.26953 5.54004L3.99023 6.99023L6.91016 6.74023L5.12988 2.33008C5.05988 2.17008 5.18035 1.99023 5.36035 1.99023H5.86035Z" fill="currentColor"/>
</svg>
