<svg width="16" height="16" viewBox="0 0 16 16" fill="none" xmlns="http://www.w3.org/2000/svg">
<path fill-rule="evenodd" clip-rule="evenodd" d="M12 3.5C13.1 3.5 14 4.4 14 5.5V10.5C14 11.6 13.1 12.5 12 12.5H4C2.9 12.5 2 11.6 2 10.5V5.5C2 4.4 2.9 3.5 4 3.5H12ZM8 8.5C7.72 8.5 7.5 8.72 7.5 9C7.5 9.28 7.72 9.5 8 9.5C8.28 9.5 8.5 9.28 8.5 9C8.5 8.72 8.28 8.5 8 8.5ZM3.5 6.5C3.22 6.5 3 6.72 3 7C3 7.28 3.22 7.5 3.5 7.5H12.5C12.78 7.5 13 7.28 13 7C13 6.72 12.78 6.5 12.5 6.5H3.5Z" fill="currentColor"/>
</svg>
