<svg width="16" height="16" viewBox="0 0 16 16" fill="none" xmlns="http://www.w3.org/2000/svg">
<path fill-rule="evenodd" clip-rule="evenodd" d="M12 4C13.1 4 14 4.9 14 6V6.5C14.55 6.5 15 6.95 15 7.5V8.5C15 9.05 14.55 9.5 14 9.5V10C14 11.1 13.1 12 12 12H4C2.9 12 2 11.1 2 10V6C2 4.9 2.9 4 4 4H12ZM10.8701 6.13965C10.6702 5.93986 10.3601 5.93996 10.1602 6.13965L7.50977 8.79004L6.36035 7.63965C6.16047 7.43977 5.8504 7.44001 5.65039 7.63965C5.4504 7.83964 5.45041 8.14961 5.65039 8.34961L7.15039 9.84961C7.24039 9.94961 7.38 10 7.5 10C7.62 10 7.74961 9.94961 7.84961 9.84961L10.8496 6.84961H10.8701C11.0699 6.6496 11.07 6.33956 10.8701 6.13965Z" fill="currentColor"/>
</svg>
