<svg width="16" height="16" viewBox="0 0 16 16" fill="none" xmlns="http://www.w3.org/2000/svg">
<path fill-rule="evenodd" clip-rule="evenodd" d="M11 3C11.55 3 12 3.45 12 4V12C12 12.55 11.55 13 11 13H5C4.45 13 4 12.55 4 12V4C4 3.45 4.45 3 5 3H11ZM6 10.5C5.72 10.5 5.5 10.72 5.5 11C5.5 11.28 5.72 11.5 6 11.5H8C8.28 11.5 8.5 11.28 8.5 11C8.5 10.72 8.28 10.5 8 10.5H6ZM10 10.5C9.72 10.5 9.5 10.72 9.5 11C9.5 11.28 9.72 11.5 10 11.5C10.28 11.5 10.5 11.28 10.5 11C10.5 10.72 10.28 10.5 10 10.5ZM6 8.5C5.72 8.5 5.5 8.72 5.5 9C5.5 9.28 5.72 9.5 6 9.5C6.28 9.5 6.5 9.28 6.5 9C6.5 8.72 6.28 8.5 6 8.5ZM8 8.5C7.72 8.5 7.5 8.72 7.5 9C7.5 9.28 7.72 9.5 8 9.5C8.28 9.5 8.5 9.28 8.5 9C8.5 8.72 8.28 8.5 8 8.5ZM10 8.5C9.72 8.5 9.5 8.72 9.5 9C9.5 9.28 9.72 9.5 10 9.5C10.28 9.5 10.5 9.28 10.5 9C10.5 8.72 10.28 8.5 10 8.5ZM6 6.5C5.72 6.5 5.5 6.72 5.5 7C5.5 7.28 5.72 7.5 6 7.5C6.28 7.5 6.5 7.28 6.5 7C6.5 6.72 6.28 6.5 6 6.5ZM8 6.5C7.72 6.5 7.5 6.72 7.5 7C7.5 7.28 7.72 7.5 8 7.5C8.28 7.5 8.5 7.28 8.5 7C8.5 6.72 8.28 6.5 8 6.5ZM10 6.5C9.72 6.5 9.5 6.72 9.5 7C9.5 7.28 9.72 7.5 10 7.5C10.28 7.5 10.5 7.28 10.5 7C10.5 6.72 10.28 6.5 10 6.5ZM6 4.5C5.72 4.5 5.5 4.72 5.5 5C5.5 5.28 5.72 5.5 6 5.5C6.28 5.5 6.5 5.28 6.5 5C6.5 4.72 6.28 4.5 6 4.5ZM8 4.5C7.72 4.5 7.5 4.72 7.5 5C7.5 5.28 7.72 5.5 8 5.5C8.28 5.5 8.5 5.28 8.5 5C8.5 4.72 8.28 4.5 8 4.5ZM10 4.5C9.72 4.5 9.5 4.72 9.5 5C9.5 5.28 9.72 5.5 10 5.5C10.28 5.5 10.5 5.28 10.5 5C10.5 4.72 10.28 4.5 10 4.5Z" fill="currentColor"/>
</svg>
