<svg width="16" height="16" viewBox="0 0 16 16" fill="none" xmlns="http://www.w3.org/2000/svg">
<path d="M9.5 9.5H6.5V6.5H9.5V9.5Z" fill="currentColor"/>
<path fill-rule="evenodd" clip-rule="evenodd" d="M10 1.5C10.28 1.5 10.5 1.72 10.5 2V3.5H11C11.83 3.5 12.5 4.17 12.5 5V5.5H14C14.28 5.5 14.5 5.72 14.5 6C14.5 6.28 14.28 6.5 14 6.5H12.5V7.5H14C14.28 7.5 14.5 7.72 14.5 8C14.5 8.28 14.28 8.5 14 8.5H12.5V9.5H14C14.28 9.5 14.5 9.72 14.5 10C14.5 10.28 14.28 10.5 14 10.5H12.5V11C12.5 11.83 11.83 12.5 11 12.5H10.5V14C10.5 14.28 10.28 14.5 10 14.5C9.72 14.5 9.5 14.28 9.5 14V12.5H8.5V14C8.5 14.28 8.28 14.5 8 14.5C7.72 14.5 7.5 14.28 7.5 14V12.5H6.5V14C6.5 14.28 6.28 14.5 6 14.5C5.72 14.5 5.5 14.28 5.5 14V12.5H5C4.17 12.5 3.5 11.83 3.5 11V10.5H2C1.72 10.5 1.5 10.28 1.5 10C1.5 9.72 1.72 9.5 2 9.5H3.5V8.5H2C1.72 8.5 1.5 8.28 1.5 8C1.5 7.72 1.72 7.5 2 7.5H3.5V6.5H2C1.72 6.5 1.5 6.28 1.5 6C1.5 5.72 1.72 5.5 2 5.5H3.5V5C3.5 4.17 4.17 3.5 5 3.5H5.5V2C5.5 1.72 5.72 1.5 6 1.5C6.28 1.5 6.5 1.72 6.5 2V3.5H7.5V2C7.5 1.72 7.72 1.5 8 1.5C8.28 1.5 8.5 1.72 8.5 2V3.5H9.5V2C9.5 1.72 9.72 1.5 10 1.5ZM6 5.5C5.72 5.5 5.5 5.72 5.5 6V10C5.5 10.28 5.72 10.5 6 10.5H10C10.28 10.5 10.5 10.28 10.5 10V6C10.5 5.72 10.28 5.5 10 5.5H6Z" fill="currentColor"/>
</svg>
