<svg width="16" height="16" viewBox="0 0 16 16" fill="none" xmlns="http://www.w3.org/2000/svg">
<path d="M9 5.5C9.55228 5.5 10 5.94772 10 6.5V10C10 10.5523 9.55228 11 9 11H6.5V12H7.5C7.77614 12 8 12.2239 8 12.5C8 12.7761 7.77614 13 7.5 13H4.5C4.22386 13 4 12.7761 4 12.5C4 12.2239 4.22386 12 4.5 12H5.5V11H3C2.44772 11 2 10.5523 2 10V6.5C2 5.94772 2.44772 5.5 3 5.5H9Z" fill="black"/>
<path fill-rule="evenodd" clip-rule="evenodd" d="M13 3C13.55 3 14 3.45 14 4V12C14 12.55 13.55 13 13 13H10C9.45 13 9 12.55 9 12C10.1 12 11 11.1 11 10V6.5C11 5.4 10.1 4.5 9 4.5V4C9 3.45 9.45 3 10 3H13ZM12.5 4C12.22 4 12 4.22 12 4.5V5.5C12 5.78 12.22 6 12.5 6C12.78 6 13 5.78 13 5.5V4.5C13 4.22 12.78 4 12.5 4Z" fill="black"/>
</svg>
