<svg width="16" height="16" viewBox="0 0 16 16" fill="none" xmlns="http://www.w3.org/2000/svg">
<path fill-rule="evenodd" clip-rule="evenodd" d="M11 6C12.66 6 14 7.34 14 9V12.0498C14 13.1298 13.1298 14 12.0498 14C11.3899 13.9999 10.7799 13.6698 10.4199 13.1299L9 11H7L5.58008 13.1299C5.21011 13.6698 4.60013 13.9999 3.9502 14C2.8702 14 2 13.1298 2 12.0498V9C2 7.34 3.34 6 5 6H11ZM5 7.5C4.72 7.5 4.5 7.72 4.5 8V8.5H4C3.72 8.5 3.5 8.72 3.5 9C3.5 9.28 3.72 9.5 4 9.5H4.5V10C4.5 10.28 4.72 10.5 5 10.5C5.28 10.5 5.5 10.28 5.5 10V9.5H6C6.28 9.5 6.5 9.28 6.5 9C6.5 8.72 6.28 8.5 6 8.5H5.5V8C5.5 7.72 5.28 7.5 5 7.5ZM11 9.5C10.72 9.5 10.5 9.72 10.5 10C10.5 10.28 10.72 10.5 11 10.5C11.28 10.5 11.5 10.28 11.5 10C11.5 9.72 11.28 9.5 11 9.5ZM10 8.5C9.72 8.5 9.5 8.72 9.5 9C9.5 9.28 9.72 9.5 10 9.5C10.28 9.5 10.5 9.28 10.5 9C10.5 8.72 10.28 8.5 10 8.5ZM12 8.5C11.72 8.5 11.5 8.72 11.5 9C11.5 9.28 11.72 9.5 12 9.5C12.28 9.5 12.5 9.28 12.5 9C12.5 8.72 12.28 8.5 12 8.5ZM11 7.5C10.72 7.5 10.5 7.72 10.5 8C10.5 8.28 10.72 8.5 11 8.5C11.28 8.5 11.5 8.28 11.5 8C11.5 7.72 11.28 7.5 11 7.5Z" fill="currentColor"/>
<path d="M8 1.5C8.27614 1.5 8.5 1.72386 8.5 2V4.5C8.5 4.77614 8.27614 5 8 5C7.72386 5 7.5 4.77614 7.5 4.5V2C7.5 1.72386 7.72386 1.5 8 1.5Z" fill="currentColor"/>
</svg>
