<svg width="16" height="16" viewBox="0 0 16 16" fill="none" xmlns="http://www.w3.org/2000/svg">
<path fill-rule="evenodd" clip-rule="evenodd" d="M12.0098 5C13.1098 5 14.0098 5.9 14.0098 7V9C14.0098 10.1 13.1098 11 12.0098 11H10.4502C9.5902 11 8.8198 10.4499 8.5498 9.62988C8.36972 9.11007 7.63 9.11002 7.45996 9.62988C7.18996 10.4499 6.41957 11 5.55957 11H4C2.9 11 2 10.1 2 9V7C2 5.9 2.9 5 4 5H12.0098ZM5 7C4.45 7 4 7.45 4 8C4 8.55 4.45 9 5 9C5.55 9 6 8.55 6 8C6 7.45 5.55 7 5 7ZM11 7C10.45 7 10 7.45 10 8C10 8.55 10.45 9 11 9C11.55 9 12 8.55 12 8C12 7.45 11.55 7 11 7Z" fill="black"/>
</svg>
