<svg width="16" height="16" viewBox="0 0 16 16" fill="none" xmlns="http://www.w3.org/2000/svg">
<path fill-rule="evenodd" clip-rule="evenodd" d="M11 5.99987C12.66 5.99987 13.9999 7.33993 14 8.99987V12.0497C14 13.1297 13.1298 13.9999 12.0498 13.9999C11.3899 13.9998 10.7799 13.6697 10.4199 13.1298L9 10.9999H7L5.58008 13.1298C5.21011 13.6697 4.60013 13.9998 3.9502 13.9999C2.8702 13.9999 2 13.1297 2 12.0497V8.99987C2.00008 7.33993 3.34005 5.99987 5 5.99987H11ZM5 7.49987C4.72005 7.49987 4.50007 7.71994 4.5 7.99987V8.49987H4C3.72005 8.49987 3.50007 8.71994 3.5 8.99987C3.5 9.27987 3.72 9.49987 4 9.49987H4.5V9.99987C4.5 10.2799 4.72 10.4999 5 10.4999C5.28 10.4999 5.5 10.2799 5.5 9.99987V9.49987H6C6.28 9.49987 6.5 9.27987 6.5 8.99987C6.49993 8.71994 6.27995 8.49987 6 8.49987H5.5V7.99987C5.49993 7.71994 5.27995 7.49987 5 7.49987ZM11 9.49987C10.72 9.49987 10.5001 9.71994 10.5 9.99987C10.5 10.2799 10.72 10.4999 11 10.4999C11.28 10.4999 11.5 10.2799 11.5 9.99987C11.4999 9.71994 11.28 9.49987 11 9.49987ZM10 8.49987C9.72005 8.49987 9.50007 8.71994 9.5 8.99987C9.5 9.27987 9.72 9.49987 10 9.49987C10.28 9.49987 10.5 9.27987 10.5 8.99987C10.4999 8.71994 10.28 8.49987 10 8.49987ZM12 8.49987C11.72 8.49987 11.5001 8.71994 11.5 8.99987C11.5 9.27987 11.72 9.49987 12 9.49987C12.28 9.49987 12.5 9.27987 12.5 8.99987C12.4999 8.71994 12.28 8.49987 12 8.49987ZM11 7.49987C10.72 7.49987 10.5001 7.71994 10.5 7.99987C10.5 8.27987 10.72 8.49987 11 8.49987C11.28 8.49987 11.5 8.27987 11.5 7.99987C11.4999 7.71994 11.28 7.49987 11 7.49987Z" fill="black"/>
<path d="M6.64648 4.05651C7.3917 3.31151 8.6083 3.31151 9.35352 4.05651C9.5485 4.25172 9.54851 4.56833 9.35352 4.76354C9.15831 4.95854 8.8417 4.95853 8.64648 4.76354C8.29179 4.40906 7.70821 4.40906 7.35352 4.76354C7.15831 4.95854 6.8417 4.95853 6.64648 4.76354C6.45148 4.56833 6.45148 4.25172 6.64648 4.05651Z" fill="black"/>
<path d="M5.22754 2.64538C6.76171 1.12265 9.23767 1.12052 10.7637 2.64635C10.9587 2.84154 10.9586 3.15816 10.7637 3.35338C10.5685 3.54846 10.2519 3.54844 10.0566 3.35338C8.92264 2.21955 7.07835 2.21823 5.93262 3.35534C5.73672 3.54964 5.4201 3.54806 5.22559 3.35241C5.03114 3.1565 5.03181 2.83993 5.22754 2.64538Z" fill="black"/>
</svg>
