<svg width="16" height="16" viewBox="0 0 16 16" fill="none" xmlns="http://www.w3.org/2000/svg">
<path d="M12 2H5.62C5.22 2 4.84 2.16 4.56 2.44L3.44 3.56C3.16 3.84 3 4.22 3 4.62V13C3 13.55 3.45 14 4 14H12C12.55 14 13 13.55 13 13V3C13 2.45 12.55 2 12 2ZM7.5 5.5C7.5 5.78 7.28 6 7 6C6.72 6 6.5 5.78 6.5 5.5V3.5C6.5 3.22 6.72 3 7 3C7.28 3 7.5 3.22 7.5 3.5V5.5ZM5.5 6.5C5.5 6.78 5.28 7 5 7C4.72 7 4.5 6.78 4.5 6.5V4.5C4.5 4.22 4.72 4 5 4C5.28 4 5.5 4.22 5.5 4.5V6.5ZM9.5 5.5C9.5 5.78 9.28 6 9 6C8.72 6 8.5 5.78 8.5 5.5V3.5C8.5 3.22 8.72 3 9 3C9.28 3 9.5 3.22 9.5 3.5V5.5ZM11.5 5.5C11.5 5.78 11.28 6 11 6C10.72 6 10.5 5.78 10.5 5.5V3.5C10.5 3.22 10.72 3 11 3C11.28 3 11.5 3.22 11.5 3.5V5.5Z" fill="black"/>
</svg>
