<svg width="16" height="16" viewBox="0 0 16 16" fill="none" xmlns="http://www.w3.org/2000/svg">
<path fill-rule="evenodd" clip-rule="evenodd" d="M13 3.5C13.55 3.5 14 3.95 14 4.5V10.5C14 11.05 13.55 11.5 13 11.5H8.5V12.5H10C10.2761 12.5 10.5 12.7239 10.5 13C10.5 13.2761 10.2761 13.5 10 13.5H6C5.72386 13.5 5.5 13.2761 5.5 13C5.5 12.7239 5.72386 12.5 6 12.5H7.5V11.5H3C2.45 11.5 2 11.05 2 10.5V4.5C2 3.95 2.45 3.5 3 3.5H13ZM4 9C3.72 9 3.5 9.22 3.5 9.5C3.5 9.78 3.72 10 4 10C4.28 10 4.5 9.78 4.5 9.5C4.5 9.22 4.28 9 4 9ZM4 7C3.72 7 3.5 7.22 3.5 7.5C3.5 7.78 3.72 8 4 8C4.83 8 5.5 8.67 5.5 9.5C5.5 9.78 5.72 10 6 10C6.28 10 6.5 9.78 6.5 9.5C6.5 8.12 5.38 7 4 7ZM4 5C3.72 5 3.5 5.22 3.5 5.5C3.5 5.78 3.72 6 4 6C5.93 6 7.5 7.57 7.5 9.5C7.5 9.78 7.72 10 8 10C8.28 10 8.5 9.78 8.5 9.5C8.5 7.02 6.48 5 4 5Z" fill="black"/>
</svg>
