<svg width="16" height="16" viewBox="0 0 16 16" fill="none" xmlns="http://www.w3.org/2000/svg">
<path d="M9.62988 13.9004C9.55973 14.2502 9.24951 14.5 8.88965 14.5H7.12012C6.76024 14.5 6.45002 14.2502 6.37988 13.9004H6.38965L6.20996 13H9.80957L9.62988 13.9004Z" fill="black"/>
<path fill-rule="evenodd" clip-rule="evenodd" d="M10 4C10.83 4 11.5 4.67 11.5 5.5V10.5C11.5 11.33 10.83 12 10 12H6C5.17 12 4.5 11.33 4.5 10.5V5.5C4.5 4.67 5.17 4 6 4H10ZM8 6C7.72 6 7.5 6.22 7.5 6.5V8.5C7.5 8.62999 7.5604 8.75961 7.65039 8.84961L8.65039 9.84961C8.74039 9.94961 8.88 10 9 10C9.12 10 9.24961 9.94961 9.34961 9.84961C9.5496 9.64961 9.54961 9.33964 9.34961 9.13965L8.5 8.29004V6.5C8.5 6.22 8.28 6 8 6Z" fill="black"/>
<path d="M8.87988 1.5C9.23976 1.5 9.54998 1.74979 9.62012 2.09961H9.61035L9.79004 3H6.19043L6.37012 2.09961C6.44027 1.74982 6.75049 1.5 7.11035 1.5H8.87988Z" fill="black"/>
</svg>
