<svg width="16" height="16" viewBox="0 0 16 16" fill="none" xmlns="http://www.w3.org/2000/svg">
<path fill-rule="evenodd" clip-rule="evenodd" d="M11 4C12.66 4 14 5.34 14 7V10.0498C14 11.1298 13.1298 12 12.0498 12C11.3899 11.9999 10.7799 11.6698 10.4199 11.1299L9 9H7L5.58008 11.1299C5.21011 11.6698 4.60013 11.9999 3.9502 12C2.8702 12 2 11.1298 2 10.0498V7C2 5.34 3.34 4 5 4H11ZM5 5.5C4.72 5.5 4.5 5.72 4.5 6V6.5H4C3.72 6.5 3.5 6.72 3.5 7C3.5 7.28 3.72 7.5 4 7.5H4.5V8C4.5 8.28 4.72 8.5 5 8.5C5.28 8.5 5.5 8.28 5.5 8V7.5H6C6.28 7.5 6.5 7.28 6.5 7C6.5 6.72 6.28 6.5 6 6.5H5.5V6C5.5 5.72 5.28 5.5 5 5.5ZM11 7.5C10.72 7.5 10.5 7.72 10.5 8C10.5 8.28 10.72 8.5 11 8.5C11.28 8.5 11.5 8.28 11.5 8C11.5 7.72 11.28 7.5 11 7.5ZM10 6.5C9.72 6.5 9.5 6.72 9.5 7C9.5 7.28 9.72 7.5 10 7.5C10.28 7.5 10.5 7.28 10.5 7C10.5 6.72 10.28 6.5 10 6.5ZM12 6.5C11.72 6.5 11.5 6.72 11.5 7C11.5 7.28 11.72 7.5 12 7.5C12.28 7.5 12.5 7.28 12.5 7C12.5 6.72 12.28 6.5 12 6.5ZM11 5.5C10.72 5.5 10.5 5.72 10.5 6C10.5 6.28 10.72 6.5 11 6.5C11.28 6.5 11.5 6.28 11.5 6C11.5 5.72 11.28 5.5 11 5.5Z" fill="black"/>
</svg>
