<svg width="16" height="16" viewBox="0 0 16 16" fill="none" xmlns="http://www.w3.org/2000/svg">
<path fill-rule="evenodd" clip-rule="evenodd" d="M11 2C11.55 2 12 2.45 12 3V13C12 13.55 11.55 14 11 14H5C4.45 14 4 13.55 4 13V3C4 2.45 4.45 2 5 2H11ZM7 12C6.72 12 6.5 12.22 6.5 12.5C6.5 12.78 6.72 13 7 13H9C9.28 13 9.5 12.78 9.5 12.5C9.5 12.22 9.28 12 9 12H7ZM8.34961 8.15039C8.20961 8.01039 7.99957 7.96004 7.80957 8.04004C7.7497 8.06008 7.6903 8.1005 7.65039 8.15039C7.55039 8.24039 7.5 8.37 7.5 8.5C7.5 8.57 7.51004 8.63043 7.54004 8.69043C7.56008 8.7503 7.6005 8.8097 7.65039 8.84961C7.6903 8.8995 7.7497 8.93992 7.80957 8.95996C7.86957 8.98996 7.93 9 8 9C8.13 9 8.25961 8.94961 8.34961 8.84961C8.3995 8.8097 8.43992 8.7503 8.45996 8.69043C8.49996 8.63043 8.5 8.57 8.5 8.5C8.5 8.37 8.44961 8.24039 8.34961 8.15039ZM9.11035 6.9502C8.50039 6.34023 7.5104 6.3403 6.90039 6.9502C6.70039 7.1502 6.70039 7.46016 6.90039 7.66016C7.1004 7.85988 7.41044 7.86006 7.61035 7.66016C7.82037 7.45026 8.19043 7.45019 8.40039 7.66016C8.4904 7.75997 8.63011 7.80957 8.75 7.80957C8.86989 7.80957 8.99965 7.75997 9.09961 7.66016H9.11035C9.31015 7.46025 9.31004 7.15017 9.11035 6.9502ZM10.1699 5.88965C8.96994 4.6999 7.02978 4.69982 5.83984 5.88965C5.63993 6.08956 5.64011 6.3996 5.83984 6.59961C6.03984 6.79961 6.3498 6.79961 6.5498 6.59961C7.34974 5.79978 8.65998 5.79985 9.45996 6.59961C9.54985 6.69949 9.68967 6.74988 9.80957 6.75C9.92957 6.75 10.0602 6.69961 10.1602 6.59961H10.1699C10.3698 6.3996 10.3699 6.0896 10.1699 5.88965Z" fill="black"/>
</svg>
