<svg width="16" height="16" viewBox="0 0 16 16" fill="none" xmlns="http://www.w3.org/2000/svg">
<path d="M13.5 6C14.0523 6 14.5 6.44772 14.5 7V12C14.5 12.5523 14.0523 13 13.5 13H11.5C10.9477 13 10.5 12.5523 10.5 12V7C10.5 6.44772 10.9477 6 11.5 6H13.5Z" fill="black"/>
<path fill-rule="evenodd" clip-rule="evenodd" d="M12 4C12.55 4 13 4.45 13 5H11.5C10.4 5 9.5 5.9 9.5 7V12H3C2.45 12 2 11.55 2 11V5C2 4.45 2.45 4 3 4H12ZM7 10C6.72 10 6.5 10.22 6.5 10.5C6.5 10.78 6.72 11 7 11H8C8.28 11 8.5 10.78 8.5 10.5C8.5 10.22 8.28 10 8 10H7Z" fill="black"/>
</svg>
