<svg width="16" height="16" viewBox="0 0 16 16" fill="none" xmlns="http://www.w3.org/2000/svg">
<path fill-rule="evenodd" clip-rule="evenodd" d="M10.1699 1.99023C10.6999 1.99023 11.2001 2.20008 11.5801 2.58008L13.4102 4.41016C13.7901 4.78014 14 5.29039 14 5.82031V12.9902C13.9999 13.5401 13.5499 13.9902 13 13.9902H3C2.45008 13.9902 2.00013 13.5401 2 12.9902V2.99023C2 2.44023 2.45 1.99023 3 1.99023H10.1699ZM4.5 9C4.22 9 4 9.22 4 9.5V12.5C4 12.78 4.22 13 4.5 13H11.5C11.78 13 12 12.78 12 12.5V9.5C12 9.22 11.78 9 11.5 9H4.5ZM4.5 3C4.22 3 4 3.22 4 3.5V5.5C4.00001 5.78 4.22 6 4.5 6H9.5C9.78 6 9.99999 5.78 10 5.5V3.5C10 3.22 9.78 3 9.5 3H4.5Z" fill="black"/>
</svg>
