<svg width="16" height="16" viewBox="0 0 16 16" fill="none" xmlns="http://www.w3.org/2000/svg">
<path fill-rule="evenodd" clip-rule="evenodd" d="M13 6.99987C13.55 6.99987 13.9999 7.44993 14 7.99987V11.9999C14 12.5499 13.55 12.9999 13 12.9999H3C2.45 12.9999 2 12.5499 2 11.9999V7.99987C2.00008 7.44993 2.45005 6.99987 3 6.99987H13ZM4 10.4999C3.72005 10.4999 3.50007 10.7199 3.5 10.9999C3.5 11.2799 3.72 11.4999 4 11.4999C4.28 11.4999 4.5 11.2799 4.5 10.9999C4.49993 10.7199 4.27995 10.4999 4 10.4999ZM6 10.4999C5.72005 10.4999 5.50007 10.7199 5.5 10.9999C5.5 11.2799 5.72 11.4999 6 11.4999H10C10.28 11.4999 10.5 11.2799 10.5 10.9999C10.4999 10.7199 10.28 10.4999 10 10.4999H6ZM12 10.4999C11.72 10.4999 11.5001 10.7199 11.5 10.9999C11.5 11.2799 11.72 11.4999 12 11.4999C12.28 11.4999 12.5 11.2799 12.5 10.9999C12.4999 10.7199 12.28 10.4999 12 10.4999ZM4 8.49987C3.72005 8.49987 3.50007 8.71994 3.5 8.99987C3.5 9.27987 3.72 9.49987 4 9.49987C4.28 9.49987 4.5 9.27987 4.5 8.99987C4.49993 8.71994 4.27995 8.49987 4 8.49987ZM6 8.49987C5.72005 8.49987 5.50007 8.71994 5.5 8.99987C5.5 9.27987 5.72 9.49987 6 9.49987C6.28 9.49987 6.5 9.27987 6.5 8.99987C6.49993 8.71994 6.27995 8.49987 6 8.49987ZM8 8.49987C7.72005 8.49987 7.50007 8.71994 7.5 8.99987C7.5 9.27987 7.72 9.49987 8 9.49987C8.28 9.49987 8.5 9.27987 8.5 8.99987C8.49993 8.71994 8.27995 8.49987 8 8.49987ZM10 8.49987C9.72005 8.49987 9.50007 8.71994 9.5 8.99987C9.5 9.27987 9.72 9.49987 10 9.49987C10.28 9.49987 10.5 9.27987 10.5 8.99987C10.4999 8.71994 10.28 8.49987 10 8.49987ZM12 8.49987C11.72 8.49987 11.5001 8.71994 11.5 8.99987C11.5 9.27987 11.72 9.49987 12 9.49987C12.28 9.49987 12.5 9.27987 12.5 8.99987C12.4999 8.71994 12.28 8.49987 12 8.49987Z" fill="currentColor"/>
<path d="M6.64648 4.55651C7.3917 3.81151 8.6083 3.81151 9.35352 4.55651C9.5485 4.75172 9.54851 5.06833 9.35352 5.26354C9.15831 5.45854 8.8417 5.45853 8.64648 5.26354C8.29179 4.90906 7.70821 4.90906 7.35352 5.26354C7.15831 5.45854 6.8417 5.45853 6.64648 5.26354C6.45148 5.06833 6.45148 4.75172 6.64648 4.55651Z" fill="currentColor"/>
<path d="M5.22754 3.14538C6.76171 1.62265 9.23767 1.62052 10.7637 3.14635C10.9587 3.34154 10.9586 3.65816 10.7637 3.85338C10.5685 4.04846 10.2519 4.04844 10.0566 3.85338C8.92264 2.71955 7.07835 2.71823 5.93262 3.85534C5.73672 4.04964 5.4201 4.04806 5.22559 3.85241C5.03114 3.6565 5.03181 3.33993 5.22754 3.14538Z" fill="currentColor"/>
</svg>
