<svg width="16" height="16" viewBox="0 0 16 16" fill="none" xmlns="http://www.w3.org/2000/svg">
<path fill-rule="evenodd" clip-rule="evenodd" d="M2.37988 9.37988C3.50988 8.24988 5.49012 8.24988 6.62012 9.37988C7.19011 9.94988 7.5 10.7 7.5 11.5C7.49999 12.3 7.19011 13.0501 6.62012 13.6201C6.05012 14.1901 5.3 14.5 4.5 14.5C3.7 14.5 2.94988 14.1901 2.37988 13.6201C1.80989 13.0501 1.50001 12.3 1.5 11.5C1.5 10.7 1.80989 9.94988 2.37988 9.37988ZM5.91992 10.0801C5.71992 9.88008 5.40996 9.88008 5.20996 10.0801L4.15039 11.1396C3.95039 11.3396 3.95039 11.6496 4.15039 11.8496C4.24039 11.9496 4.38 12 4.5 12C4.61999 12 4.74961 11.9496 4.84961 11.8496L5.91016 10.79H5.91992C6.11992 10.59 6.11991 10.2801 5.91992 10.0801Z" fill="black"/>
<path fill-rule="evenodd" clip-rule="evenodd" d="M11.5 8.5C13.15 8.5 14.5 9.85 14.5 11.5C14.5 13.15 13.15 14.5 11.5 14.5C9.85 14.5 8.5 13.15 8.5 11.5C8.5 9.85 9.85 8.5 11.5 8.5ZM10 11C9.72 11 9.5 11.22 9.5 11.5C9.5 11.78 9.72 12 10 12H11.5C11.78 12 12 11.78 12 11.5C12 11.22 11.78 11 11.5 11H10Z" fill="black"/>
<path fill-rule="evenodd" clip-rule="evenodd" d="M4.5 1.5C6.15 1.5 7.5 2.85 7.5 4.5C7.5 6.15 6.15 7.5 4.5 7.5C2.85 7.5 1.5 6.15 1.5 4.5C1.5 2.85 2.85 1.5 4.5 1.5ZM4.5 2.5C4.22 2.5 4 2.72 4 3V4.5C4 4.78 4.22 5 4.5 5C4.78 5 5 4.78 5 4.5V3C5 2.72 4.78 2.5 4.5 2.5Z" fill="black"/>
<path fill-rule="evenodd" clip-rule="evenodd" d="M11.5 1.5C13.15 1.5 14.5 2.85 14.5 4.5C14.5 6.15 13.15 7.5 11.5 7.5C9.85 7.5 8.5 6.15 8.5 4.5C8.5 2.85 9.85 1.5 11.5 1.5ZM11.8604 4.15039C11.6604 3.95039 11.3504 3.95039 11.1504 4.15039H11.1602C10.9603 4.35039 10.9602 4.66039 11.1602 4.86035L12.2197 5.91992C12.3097 6.01992 12.4503 6.07031 12.5703 6.07031C12.6902 6.07023 12.82 6.01984 12.9199 5.91992C13.1199 5.71992 13.1199 5.40996 12.9199 5.20996L11.8604 4.15039Z" fill="black"/>
</svg>
