<svg width="16" height="16" viewBox="0 0 16 16" fill="none" xmlns="http://www.w3.org/2000/svg">
<path d="M14 6.5V6C14 4.9 13.1 4 12 4H4C2.9 4 2 4.9 2 6V10C2 11.1 2.9 12 4 12H12C13.1 12 14 11.1 14 10V9.5C14.55 9.5 15 9.05 15 8.5V7.5C15 6.95 14.55 6.5 14 6.5ZM8.69 5.73L8.53998 8C8.51998 8.28 8.29001 8.5 8.01001 8.5C7.73001 8.5 7.49998 8.28 7.47998 8L7.33002 5.73C7.30002 5.33 7.62002 5 8.02002 5C8.42002 5 8.73002 5.34 8.71002 5.73H8.69ZM8 11C7.59 11 7.25 10.66 7.25 10.25C7.25 9.84 7.59 9.5 8 9.5C8.41 9.5 8.75 9.84 8.75 10.25C8.75 10.66 8.41 11 8 11Z" fill="black"/>
</svg>
