<svg width="16" height="16" viewBox="0 0 16 16" fill="none" xmlns="http://www.w3.org/2000/svg">
<path d="M7.5 6C7.77614 6 8 6.22386 8 6.5V9.5C8 9.77614 7.77614 10 7.5 10H4.5C4.22386 10 4 9.77614 4 9.5V6.5C4 6.22386 4.22386 6 4.5 6H7.5Z" fill="currentColor"/>
<path d="M10.0898 6.22949C10.2399 5.99971 10.5504 5.9399 10.7803 6.08984C11.0102 6.23988 11.0699 6.55032 10.9199 6.78027L10.4404 7.5H11.5098C11.6897 7.5 11.8602 7.59981 11.9502 7.75977C12.0402 7.91971 12.0296 8.10957 11.9297 8.26953L10.9795 9.76953C10.8795 9.91953 10.7196 10 10.5596 10H10.5498C10.4599 9.99996 10.3602 9.96983 10.2803 9.91992C10.0503 9.76992 9.97988 9.45949 10.1299 9.22949L10.5996 8.5H9.50977C9.32998 8.49992 9.16033 8.39996 9.07031 8.24023C8.98031 8.08023 8.98984 7.87949 9.08984 7.72949L10.0898 6.22949Z" fill="currentColor"/>
<path fill-rule="evenodd" clip-rule="evenodd" d="M12 4C13.1 4 14 4.9 14 6V6.5C14.55 6.5 15 6.95 15 7.5V8.5C15 9.05 14.55 9.5 14 9.5V10C14 11.1 13.1 12 12 12H4C2.9 12 2 11.1 2 10V6C2 4.9 2.9 4 4 4H12ZM4 5C3.45 5 3 5.45 3 6V10C3 10.55 3.45 11 4 11H12C12.55 11 13 10.55 13 10V6C13 5.45 12.55 5 12 5H4Z" fill="currentColor"/>
</svg>
