<svg width="16" height="16" viewBox="0 0 16 16" fill="none" xmlns="http://www.w3.org/2000/svg">
<path fill-rule="evenodd" clip-rule="evenodd" d="M12 4C13.1 4 14 4.9 14 6V6.5C14.55 6.5 15 6.95 15 7.5V8.5C15 9.05 14.55 9.5 14 9.5V10C14 11.1 13.1 12 12 12H4C2.9 12 2 11.1 2 10V6C2 4.9 2.9 4 4 4H12ZM9.87012 6.13965C9.6702 5.93986 9.36012 5.93996 9.16016 6.13965L8.00977 7.29004L6.86035 6.13965C6.66047 5.93977 6.3504 5.94001 6.15039 6.13965C5.9504 6.33964 5.95041 6.64961 6.15039 6.84961L7.2998 8L6.15039 9.15039C5.95041 9.35039 5.9504 9.66036 6.15039 9.86035C6.2404 9.9601 6.38015 10.0098 6.5 10.0098C6.61985 10.0098 6.74966 9.96011 6.84961 9.86035L8 8.70996L9.15039 9.86035C9.2404 9.9601 9.38015 10.0098 9.5 10.0098C9.61985 10.0098 9.74966 9.96011 9.84961 9.86035C10.0496 9.66036 10.0496 9.35039 9.84961 9.15039H9.87012L8.71973 8L9.87012 6.84961C10.0699 6.6496 10.07 6.33956 9.87012 6.13965Z" fill="black"/>
</svg>
