<svg width="16" height="16" viewBox="0 0 16 16" fill="none" xmlns="http://www.w3.org/2000/svg">
<path d="M14 6.5V6C14 4.9 13.1 4 12 4H4C2.9 4 2 4.9 2 6V10C2 11.1 2.9 12 4 12H12C13.1 12 14 11.1 14 10V9.5C14.55 9.5 15 9.05 15 8.5V7.5C15 6.95 14.55 6.5 14 6.5ZM6.5 8.5H3.5C3.22 8.5 3 8.28 3 8C3 7.72 3.22 7.5 3.5 7.5H6.5C6.78 7.5 7 7.72 7 8C7 8.28 6.78 8.5 6.5 8.5ZM12.5 8.5H11.5V9.5C11.5 9.78 11.28 10 11 10C10.72 10 10.5 9.78 10.5 9.5V8.5H9.5C9.22 8.5 9 8.28 9 8C9 7.72 9.22 7.5 9.5 7.5H10.5V6.5C10.5 6.22 10.72 6 11 6C11.28 6 11.5 6.22 11.5 6.5V7.5H12.5C12.78 7.5 13 7.72 13 8C13 8.28 12.78 8.5 12.5 8.5Z" fill="currentColor"/>
</svg>
