<svg width="16" height="16" viewBox="0 0 16 16" fill="none" xmlns="http://www.w3.org/2000/svg">
<path fill-rule="evenodd" clip-rule="evenodd" d="M12 2V2.00977C12.5499 2.00977 12.9999 2.45988 13 3.00977V13.0098C13 13.5598 12.55 14.0098 12 14.0098H4C3.45 14.0098 3 13.5598 3 13.0098V8.41992C3.00002 8.14996 3.10006 7.89994 3.29004 7.70996L5 6V3C5 2.45 5.45 2 6 2H12ZM7 3C6.72 3 6.5 3.22 6.5 3.5V5.5C6.5 5.78 6.72 6 7 6C7.28 6 7.5 5.78 7.5 5.5V3.5C7.5 3.22 7.28 3 7 3ZM9 3C8.72 3 8.5 3.22 8.5 3.5V5.5C8.5 5.78 8.72 6 9 6C9.28 6 9.5 5.78 9.5 5.5V3.5C9.5 3.22 9.28 3 9 3ZM11 3C10.72 3 10.5 3.22 10.5 3.5V5.5C10.5 5.78 10.72 6 11 6C11.28 6 11.5 5.78 11.5 5.5V3.5C11.5 3.22 11.28 3 11 3Z" fill="currentColor"/>
</svg>
