<svg width="16" height="16" viewBox="0 0 16 16" fill="none" xmlns="http://www.w3.org/2000/svg">
<path d="M7.58008 1.73043C7.77008 1.45043 8.23016 1.45043 8.41016 1.73043L10.4102 4.73043C10.5099 4.88039 10.5196 5.08033 10.4297 5.2402C10.3397 5.39996 10.17 5.49986 9.99023 5.49996H8.5V12.1474L10.7598 10.8603C10.8977 10.7827 10.9838 10.6453 11.0049 10.5H10C9.72 10.5 9.5 10.28 9.5 9.99996V6.99996C9.50002 6.71998 9.72001 6.49996 10 6.49996H13C13.28 6.49996 13.5 6.71998 13.5 6.99996V9.99996C13.5 10.28 13.28 10.5 13 10.5H12.0049C11.981 11.0128 11.6996 11.4817 11.25 11.7304L8.5 13.2978V14C8.5 14.28 8.28 14.5 8 14.5C7.97376 14.5 7.94663 14.4968 7.91895 14.4922C7.90497 14.4899 7.89146 14.4867 7.87793 14.4834C7.87206 14.4818 7.86622 14.4802 7.86035 14.4785C7.8019 14.4619 7.74838 14.4362 7.70117 14.4013L4.75 12.7197C4.28008 12.4497 3.99023 11.9498 3.99023 11.4199V10.4306C3.13544 10.2035 2.5 9.42369 2.5 8.49996C2.50002 7.39998 3.40001 6.49996 4.5 6.49996C5.59999 6.49996 6.49998 7.39998 6.5 8.49996C6.5 9.4307 5.85487 10.2152 4.99023 10.4355V11.4199C4.99023 11.5999 5.09023 11.7696 5.24023 11.8496L7.5 13.1367V5.49996H6C5.82 5.49996 5.64957 5.4002 5.55957 5.2402C5.46963 5.08029 5.48024 4.8804 5.58008 4.73043L7.58008 1.73043Z" fill="black"/>
</svg>
