<svg width="16" height="16" viewBox="0 0 16 16" fill="none" xmlns="http://www.w3.org/2000/svg">
<path fill-rule="evenodd" clip-rule="evenodd" d="M8 5.99988C9.65996 5.99988 10.9999 7.33994 11 8.99988V10.9999C11 12.6599 9.66 13.9999 8 13.9999C6.34 13.9999 5 12.6599 5 10.9999V8.99988C5.00007 7.33994 6.34004 5.99988 8 5.99988ZM8 7.49988C7.72004 7.49988 7.50007 7.71994 7.5 7.99988V8.99988C7.5 9.27988 7.72 9.49988 8 9.49988C8.28 9.49988 8.5 9.27988 8.5 8.99988V7.99988C8.49993 7.71994 8.27996 7.49988 8 7.49988Z" fill="currentColor"/>
<path d="M6.64648 4.05652C7.3917 3.31152 8.6083 3.31152 9.35352 4.05652C9.5485 4.25174 9.54851 4.56835 9.35352 4.76356C9.15831 4.95854 8.8417 4.95853 8.64648 4.76356C8.29179 4.40908 7.70821 4.40908 7.35352 4.76356C7.15831 4.95854 6.8417 4.95853 6.64648 4.76356C6.45148 4.56834 6.45149 4.25174 6.64648 4.05652Z" fill="currentColor"/>
<path d="M5.22754 2.64539C6.7617 1.12268 9.23767 1.12056 10.7637 2.64637C10.9587 2.84156 10.9586 3.15818 10.7637 3.3534C10.5685 3.5485 10.2519 3.54843 10.0566 3.3534C8.92264 2.2196 7.07834 2.21826 5.93262 3.35535C5.73673 3.54968 5.42011 3.54805 5.22559 3.35242C5.03113 3.15651 5.03178 2.83994 5.22754 2.64539Z" fill="currentColor"/>
</svg>
