<svg width="16" height="16" viewBox="0 0 16 16" fill="none" xmlns="http://www.w3.org/2000/svg">
<path d="M4.5 3.5C5.88 3.5 7 4.62 7 6V11.5C7 12.05 6.55 12.5 6 12.5C5.45 12.5 5 12.05 5 11.5V6C5 5.72 4.78 5.5 4.5 5.5C4.22 5.5 4 5.72 4 6V8.4502C2.86 8.2202 2 7.21 2 6C2 4.62 3.12 3.5 4.5 3.5Z" fill="currentColor"/>
<path d="M11.5 3.5C12.88 3.5 14 4.62 14 6C14 7.21 13.14 8.2202 12 8.4502V6C12 5.72 11.78 5.5 11.5 5.5C11.22 5.5 11 5.72 11 6V11.5C11 12.05 10.55 12.5 10 12.5C9.45 12.5 9 12.05 9 11.5V6C9 4.62 10.12 3.5 11.5 3.5Z" fill="currentColor"/>
</svg>
