<svg width="16" height="16" viewBox="0 0 16 16" fill="none" xmlns="http://www.w3.org/2000/svg">
<path fill-rule="evenodd" clip-rule="evenodd" d="M13 7C13.55 7 14 7.45 14 8V12C14 12.55 13.55 13 13 13H3C2.45 13 2 12.55 2 12V8C2 7.45 2.45 7 3 7H13ZM4 10.5C3.72 10.5 3.5 10.72 3.5 11C3.5 11.28 3.72 11.5 4 11.5C4.28 11.5 4.5 11.28 4.5 11C4.5 10.72 4.28 10.5 4 10.5ZM6 10.5C5.72 10.5 5.5 10.72 5.5 11C5.5 11.28 5.72 11.5 6 11.5H10C10.28 11.5 10.5 11.28 10.5 11C10.5 10.72 10.28 10.5 10 10.5H6ZM12 10.5C11.72 10.5 11.5 10.72 11.5 11C11.5 11.28 11.72 11.5 12 11.5C12.28 11.5 12.5 11.28 12.5 11C12.5 10.72 12.28 10.5 12 10.5ZM4 8.5C3.72 8.5 3.5 8.72 3.5 9C3.5 9.28 3.72 9.5 4 9.5C4.28 9.5 4.5 9.28 4.5 9C4.5 8.72 4.28 8.5 4 8.5ZM6 8.5C5.72 8.5 5.5 8.72 5.5 9C5.5 9.28 5.72 9.5 6 9.5C6.28 9.5 6.5 9.28 6.5 9C6.5 8.72 6.28 8.5 6 8.5ZM8 8.5C7.72 8.5 7.5 8.72 7.5 9C7.5 9.28 7.72 9.5 8 9.5C8.28 9.5 8.5 9.28 8.5 9C8.5 8.72 8.28 8.5 8 8.5ZM10 8.5C9.72 8.5 9.5 8.72 9.5 9C9.5 9.28 9.72 9.5 10 9.5C10.28 9.5 10.5 9.28 10.5 9C10.5 8.72 10.28 8.5 10 8.5ZM12 8.5C11.72 8.5 11.5 8.72 11.5 9C11.5 9.28 11.72 9.5 12 9.5C12.28 9.5 12.5 9.28 12.5 9C12.5 8.72 12.28 8.5 12 8.5Z" fill="currentColor"/>
<path d="M8 1.5C8.27614 1.5 8.5 1.72386 8.5 2V5.5C8.5 5.77614 8.27614 6 8 6C7.72386 6 7.5 5.77614 7.5 5.5V2C7.5 1.72386 7.72386 1.5 8 1.5Z" fill="currentColor"/>
</svg>
