<svg width="16" height="16" viewBox="0 0 16 16" fill="none" xmlns="http://www.w3.org/2000/svg">
<path d="M8.15039 8C9.18022 8.0002 10.0195 8.83025 10.0195 9.87012V11.7695C10.0195 12.4395 9.4698 12.9902 8.7998 12.9902C8.38999 12.9902 8.01025 12.79 7.78027 12.4502L6.88965 11.1201H5.63965L4.75 12.4502C4.52008 12.79 4.14024 12.9901 3.73047 12.9902C3.06047 12.9902 2.50977 12.4395 2.50977 11.7695V9.87012C2.50977 8.84016 3.33994 8.00007 4.37988 8H8.15039Z" fill="black"/>
<path fill-rule="evenodd" clip-rule="evenodd" d="M13 3C13.55 3 14 3.45 14 4V11.9902C13.9999 12.5401 13.5499 12.9902 13 12.9902H10.6299C10.8599 12.6402 11 12.2195 11 11.7695V9.87012C11 8.60016 10.1599 7.52042 9 7.15039V4C9 3.45 9.45 3 10 3H13ZM12.5 4C12.22 4 12 4.22 12 4.5V5.5C12 5.78 12.22 6 12.5 6C12.78 6 13 5.78 13 5.5V4.5C13 4.22 12.78 4 12.5 4Z" fill="black"/>
</svg>
