<svg width="16" height="16" viewBox="0 0 16 16" fill="none" xmlns="http://www.w3.org/2000/svg">
<path fill-rule="evenodd" clip-rule="evenodd" d="M12 9V13C12 13.55 11.55 14 11 14H5C4.45 14 4 13.55 4 13V9H12ZM6 12C5.72 12 5.5 12.22 5.5 12.5C5.5 12.78 5.72 13 6 13H10C10.28 13 10.5 12.78 10.5 12.5C10.5 12.22 10.28 12 10 12H6ZM6 10C5.72 10 5.5 10.22 5.5 10.5C5.5 10.78 5.72 11 6 11H10C10.28 11 10.5 10.78 10.5 10.5C10.5 10.22 10.28 10 10 10H6Z" fill="currentColor"/>
<path fill-rule="evenodd" clip-rule="evenodd" d="M13 5C13.55 5 14 5.45 14 6V10C14 10.55 13.55 11 13 11V8.5C13 8.22 12.78 8 12.5 8H3.5C3.22 8 3 8.22 3 8.5V11C2.45 11 2 10.55 2 10V6C2 5.45 2.45 5 3 5H13ZM10 6C9.72 6 9.5 6.22 9.5 6.5C9.5 6.78 9.72 7 10 7H12C12.28 7 12.5 6.78 12.5 6.5C12.5 6.22 12.28 6 12 6H10Z" fill="currentColor"/>
<path d="M11 2C11.55 2 12 2.45 12 3V4H4V3C4 2.45 4.45 2 5 2H11Z" fill="currentColor"/>
</svg>
