<svg width="16" height="16" viewBox="0 0 16 16" fill="none" xmlns="http://www.w3.org/2000/svg">
<path fill-rule="evenodd" clip-rule="evenodd" d="M12 4C13.1 4 14 4.9 14 6V6.5C14.55 6.5 15 6.95 15 7.5V8.5C15 9.05 14.55 9.5 14 9.5V10C14 11.1 13.1 12 12 12H4C2.9 12 2 11.1 2 10V6C2 4.9 2.9 4 4 4H12ZM8.19043 9.54004C8.01043 9.46004 7.78039 9.51039 7.65039 9.65039C7.6005 9.6903 7.56008 9.7497 7.54004 9.80957C7.50004 9.86957 7.5 9.94 7.5 10C7.5 10.13 7.55039 10.2596 7.65039 10.3496C7.74039 10.4496 7.87 10.5 8 10.5C8.13 10.5 8.25961 10.4496 8.34961 10.3496C8.3995 10.3097 8.43992 10.2503 8.45996 10.1904C8.49996 10.1304 8.5 10.07 8.5 10C8.5 9.87 8.44961 9.74039 8.34961 9.65039C8.3097 9.6005 8.2503 9.56008 8.19043 9.54004ZM8 5.5C7.72 5.5 7.5 5.72 7.5 6V8.5C7.5 8.78 7.72 9 8 9C8.28 9 8.5 8.78 8.5 8.5V6C8.5 5.72 8.28 5.5 8 5.5Z" fill="currentColor"/>
</svg>
