<svg width="16" height="16" viewBox="0 0 16 16" fill="none" xmlns="http://www.w3.org/2000/svg">
<path fill-rule="evenodd" clip-rule="evenodd" d="M12 4C13.1 4 14 4.9 14 6V6.5C14.55 6.5 15 6.95 15 7.5V8.5C15 9.05 14.55 9.5 14 9.5V10C14 11.1 13.1 12 12 12H4C2.9 12 2 11.1 2 10V6C2 4.9 2.9 4 4 4H12ZM8.19043 9.54004C8.01043 9.46004 7.79039 9.51039 7.65039 9.65039C7.55039 9.74039 7.5 9.87 7.5 10C7.5 10.13 7.55039 10.2596 7.65039 10.3496C7.74039 10.4496 7.87 10.5 8 10.5C8.13 10.5 8.25961 10.4496 8.34961 10.3496C8.44961 10.2596 8.5 10.13 8.5 10C8.5 9.87 8.44961 9.74039 8.34961 9.65039C8.3097 9.6005 8.2503 9.56008 8.19043 9.54004ZM8 5.5C7.17 5.5 6.5 6.17 6.5 7C6.5 7.28 6.72 7.5 7 7.5C7.24512 7.5 7.44443 7.33143 7.49023 7.10156L7.50977 6.89844C7.55557 6.66857 7.75488 6.5 8 6.5C8.28 6.5 8.5 6.72 8.5 7C8.5 7.15 8.37996 7.30012 8.20996 7.37012L8.04004 7.44043C7.71009 7.57045 7.5 7.89003 7.5 8.25V8.5C7.5 8.78 7.72 9 8 9C8.28 9 8.5 8.78 8.5 8.5V8.33984L8.58984 8.2998C9.13984 8.0698 9.5 7.57 9.5 7C9.5 6.17 8.83 5.5 8 5.5Z" fill="currentColor"/>
</svg>
