<svg width="16" height="16" viewBox="0 0 16 16" fill="none" xmlns="http://www.w3.org/2000/svg">
<path fill-rule="evenodd" clip-rule="evenodd" d="M10 2C10.55 2 11 2.45 11 3V5.37988C11 5.77988 11.1604 6.16043 11.4404 6.44043L12.5596 7.55957C12.8396 7.83957 13 8.22012 13 8.62012V13C13 13.55 12.55 14 12 14H4C3.45 14 3 13.55 3 13V3C3 2.45 3.45 2 4 2H10ZM6.55957 9C6.31999 9.00032 6.18008 9.26988 6.30957 9.46973L7.75 11.6299C7.87 11.8099 8.13 11.8099 8.25 11.6299L9.69043 9.46973C9.81992 9.26988 9.68001 9.00032 9.44043 9H6.55957Z" fill="black"/>
</svg>
