<svg width="16" height="16" viewBox="0 0 16 16" fill="none" xmlns="http://www.w3.org/2000/svg">
<path d="M12 13C12 13.55 11.55 14 11 14H5C4.45 14 4 13.55 4 13V12H12V13Z" fill="currentColor"/>
<path fill-rule="evenodd" clip-rule="evenodd" d="M13 7C13.55 7 14 7.45 14 8V10C14 10.55 13.55 11 13 11H3C2.45 11 2 10.55 2 10V8C2 7.45 2.45 7 3 7H13ZM10 8.5C9.72 8.5 9.5 8.72 9.5 9C9.5 9.28 9.72 9.5 10 9.5H12C12.28 9.5 12.5 9.28 12.5 9C12.5 8.72 12.28 8.5 12 8.5H10Z" fill="currentColor"/>
<path d="M11 2C11.55 2 12 2.45 12 3V6H4V3C4 2.45 4.45 2 5 2H11Z" fill="currentColor"/>
</svg>
