<svg width="16" height="16" viewBox="0 0 16 16" fill="none" xmlns="http://www.w3.org/2000/svg">
<path d="M2.99023 11.9997C3.26013 11.9998 3.48047 12.2103 3.48047 12.4802H3.5V13.9704C3.49977 14.2502 3.26999 14.5096 2.99023 14.4997C2.71023 14.4897 2.5 14.2797 2.5 13.9997V12.4802C2.5 12.2102 2.72023 11.9997 2.99023 11.9997Z" fill="black"/>
<path d="M7.99023 9.49972C8.26013 9.49985 8.48047 9.71027 8.48047 9.98019H8.5V13.9704C8.49977 14.2502 8.26999 14.5096 7.99023 14.4997C7.71023 14.4897 7.5 14.2797 7.5 13.9997V9.98019C7.5 9.71019 7.72023 9.49972 7.99023 9.49972Z" fill="black"/>
<path d="M12.9902 11.4997C13.2601 11.4998 13.4805 11.7103 13.4805 11.9802H13.5V13.9704C13.4998 14.2502 13.27 14.5096 12.9902 14.4997C12.7102 14.4897 12.5 14.2797 12.5 13.9997V11.9802C12.5 11.7102 12.7202 11.4997 12.9902 11.4997Z" fill="black"/>
<path d="M3 7.49972C3.96991 7.49972 4.74985 8.27985 4.75 9.24972C4.75 10.2197 3.97 10.9997 3 10.9997C2.03 10.9997 1.25 10.2197 1.25 9.24972C1.25015 8.27985 2.03009 7.49972 3 7.49972Z" fill="black"/>
<path d="M13 6.99972C13.9699 6.99972 14.7499 7.77985 14.75 8.74972C14.75 9.71972 13.97 10.4997 13 10.4997C12.03 10.4997 11.25 9.71972 11.25 8.74972C11.2501 7.77985 12.0301 6.99972 13 6.99972Z" fill="black"/>
<path d="M8 4.99972C8.96991 4.99972 9.74985 5.77985 9.75 6.74972C9.75 7.71972 8.97 8.49972 8 8.49972C7.03 8.49972 6.25 7.71972 6.25 6.74972C6.25015 5.77985 7.03009 4.99972 8 4.99972Z" fill="black"/>
<path d="M3.00977 1.49972C3.28975 1.48972 3.52049 1.75001 3.52051 2.03H3.5V6.02023C3.49989 6.29014 3.2797 6.49972 3.00977 6.49972C2.73995 6.49959 2.52061 6.29005 2.52051 6.02023V1.99972C2.52067 1.71996 2.72999 1.50983 3.00977 1.49972Z" fill="black"/>
<path d="M13.0098 1.49972C13.2898 1.48972 13.5205 1.75001 13.5205 2.03H13.5V5.52023C13.4999 5.79014 13.2797 5.99972 13.0098 5.99972C12.7399 5.99959 12.5206 5.79005 12.5205 5.52023V1.99972C12.5207 1.71996 12.73 1.50983 13.0098 1.49972Z" fill="black"/>
<path d="M8.00977 1.49972C8.28975 1.48972 8.52049 1.75001 8.52051 2.03H8.5V3.52023C8.49989 3.79014 8.2797 3.99972 8.00977 3.99972C7.73995 3.99959 7.52061 3.79005 7.52051 3.52023V1.99972C7.52067 1.71996 7.72999 1.50983 8.00977 1.49972Z" fill="black"/>
</svg>
