<svg width="16" height="16" viewBox="0 0 16 16" fill="none" xmlns="http://www.w3.org/2000/svg">
<path fill-rule="evenodd" clip-rule="evenodd" d="M10.5898 2.00977C10.8598 2.00977 11.1098 2.10992 11.2998 2.2998L13.71 4.70996C13.8899 4.89994 14 5.14996 14 5.41992V13.0098C14 13.5598 13.55 14.0098 13 14.0098H3C2.45 14.0098 2 13.5598 2 13.0098V3.00977C2.00013 2.45988 2.45008 2.00977 3 2.00977H10.5898ZM4.5 9C4.22 9 4 9.22 4 9.5V12.5C4 12.78 4.22 13 4.5 13H11.5C11.78 13 12 12.78 12 12.5V9.5C12 9.22 11.78 9 11.5 9H4.5ZM4.5 3C4.22 3 4 3.22 4 3.5V6.5C4 6.78 4.22 7 4.5 7C4.78 7 5 6.78 5 6.5V3.5C5 3.22 4.78 3 4.5 3ZM6.5 3C6.22 3 6 3.22 6 3.5V6.5C6 6.78 6.22 7 6.5 7H9.5C9.78 7 10 6.78 10 6.5V3.5C10 3.22 9.78 3 9.5 3H6.5Z" fill="currentColor"/>
</svg>
