<svg width="16" height="16" viewBox="0 0 16 16" fill="none" xmlns="http://www.w3.org/2000/svg">
<path fill-rule="evenodd" clip-rule="evenodd" d="M11 2C11.55 2 12 2.45 12 3V13C12 13.55 11.55 14 11 14H5C4.45 14 4 13.55 4 13V3C4 2.45 4.45 2 5 2H11ZM7 12C6.72 12 6.5 12.22 6.5 12.5C6.5 12.78 6.72 13 7 13H9C9.28 13 9.5 12.78 9.5 12.5C9.5 12.22 9.28 12 9 12H7ZM6.99023 4.5C6.86023 4.5 6.73965 4.55039 6.63965 4.65039L5.63965 5.65039C5.44003 5.8504 5.43978 6.16048 5.63965 6.36035C5.83952 6.56023 6.1496 6.55998 6.34961 6.36035L6.5 6.20996V9C6.5 9.28 6.72 9.5 7 9.5C7.28 9.5 7.5 9.28 7.5 9H7.49023V5C7.49023 4.8 7.36969 4.62004 7.17969 4.54004C7.11982 4.51017 7.0501 4.50003 6.99023 4.5ZM9 4.5C8.72 4.5 8.5 4.72 8.5 5V9C8.5 9.19986 8.62976 9.37988 8.80957 9.45996C8.98957 9.53996 9.20961 9.48961 9.34961 9.34961L10.3496 8.34961H10.3604C10.56 8.1496 10.5602 7.83952 10.3604 7.63965C10.1605 7.43977 9.8504 7.44002 9.65039 7.63965L9.5 7.79004V5C9.5 4.72 9.28 4.5 9 4.5Z" fill="currentColor"/>
</svg>
