<svg width="16" height="16" viewBox="0 0 16 16" fill="none" xmlns="http://www.w3.org/2000/svg">
<path d="M10.0098 1.99023C10.4197 1.99023 10.6601 2.46004 10.4102 2.79004L9.29004 4.29004C9.12004 4.59003 8.82999 4.7698 8.5 4.7998V5.08008C8.50003 5.26 8.60009 5.41977 8.75 5.50977L11.21 6.92969C11.43 7.05969 11.6102 7.2402 11.7402 7.4502C11.7502 7.46026 11.7598 7.48047 11.7598 7.48047C11.7693 7.4901 11.7803 7.50977 11.7803 7.50977L11.79 7.5C11.9 7.71992 11.9697 7.95984 11.9697 8.21973V11.0703C11.9696 11.6102 11.6796 12.1002 11.2197 12.3701L8.75977 13.79C8.52981 13.92 8.26969 13.9902 8.00977 13.9902C7.74985 13.9902 7.48969 13.92 7.25977 13.79L4.7998 12.3701C4.33994 12.1002 4.04992 11.6002 4.0498 11.0703V7.65039C4.0498 7.4704 4.14981 7.30973 4.2998 7.21973C4.44972 7.12978 4.64983 7.12988 4.7998 7.21973L8.00977 9.08008L10.4697 7.66016L8.25977 6.37988C7.79993 6.10987 7.5098 5.60995 7.50977 5.08008V4.7998C7.17987 4.75974 6.87968 4.57996 6.71973 4.29004L5.59961 2.79004C5.3498 2.46005 5.59006 1.99023 6 1.99023H10.0098Z" fill="black"/>
</svg>
