<svg width="16" height="16" viewBox="0 0 16 16" fill="none" xmlns="http://www.w3.org/2000/svg">
<path fill-rule="evenodd" clip-rule="evenodd" d="M11 2C11.55 2 12 2.45 12 3V13C12 13.55 11.55 14 11 14H5C4.45 14 4 13.55 4 13V3C4 2.45 4.45 2 5 2H11ZM7 12C6.72 12 6.5 12.22 6.5 12.5C6.5 12.78 6.72 13 7 13H9C9.28 13 9.5 12.78 9.5 12.5C9.5 12.22 9.28 12 9 12H7ZM8 9C7.59 9 7.25 9.34 7.25 9.75C7.25 10.16 7.59 10.5 8 10.5C8.41 10.5 8.75 10.16 8.75 9.75C8.75 9.34 8.41 9 8 9ZM8 4.5C7.6 4.5 7.27957 4.83047 7.30957 5.23047H7.33008L7.48047 7.5C7.50048 7.7799 7.72989 7.99987 8.00977 8C8.28977 8 8.52004 7.78 8.54004 7.5L8.69043 5.23047C8.71043 4.84047 8.4 4.5 8 4.5Z" fill="black"/>
</svg>
