<svg width="16" height="16" viewBox="0 0 16 16" fill="none" xmlns="http://www.w3.org/2000/svg">
<path d="M14 6.5V6C14 4.9 13.1 4 12 4H4C2.9 4 2 4.9 2 6V10C2 11.1 2.9 12 4 12H12C13.1 12 14 11.1 14 10V9.5C14.55 9.5 15 9.05 15 8.5V7.5C15 6.95 14.55 6.5 14 6.5ZM10.35 9.65C10.55 9.85 10.55 10.16 10.35 10.36C10.25 10.46 10.12 10.51 10 10.51C9.88 10.51 9.74002 10.46 9.65002 10.36L8 8.71L6.34998 10.36C6.24998 10.46 6.12 10.51 6 10.51C5.88 10.51 5.74002 10.46 5.65002 10.36C5.45002 10.16 5.45002 9.85 5.65002 9.65L7.29999 8L5.65002 6.35C5.45002 6.15 5.45002 5.84 5.65002 5.64C5.85002 5.44 6.15999 5.44 6.35999 5.64L8.01001 7.29L9.65997 5.64C9.85997 5.44 10.17 5.44 10.37 5.64C10.57 5.84 10.57 6.15 10.37 6.35L8.71997 8L10.37 9.65H10.35Z" fill="currentColor"/>
</svg>
