<svg width="16" height="16" viewBox="0 0 16 16" fill="none" xmlns="http://www.w3.org/2000/svg">
<path d="M8.53017 2.8205C8.6601 2.60062 8.99954 2.68994 8.99989 2.93964V7.00019H10.1395C10.5195 7.00019 10.7602 7.41019 10.5702 7.75019L7.45985 13.1799C7.32985 13.3999 6.99013 13.3098 6.99013 13.0598V9.00019H5.85048C5.47055 9.00019 5.23002 8.59015 5.41982 8.25019L8.53017 2.8205Z" fill="currentColor"/>
<path d="M2.16982 5.17011C2.3698 4.97013 2.67977 4.97016 2.87978 5.17011C3.07978 5.37011 3.07978 5.68007 2.87978 5.88007C1.70991 7.05008 1.70982 8.95035 2.87978 10.1203C3.07972 10.3203 3.07976 10.6303 2.87978 10.8303C2.77986 10.9301 2.65002 10.9796 2.53017 10.9797H2.5204C2.39043 10.9797 2.25981 10.9302 2.16982 10.8303C0.609857 9.27031 0.609941 6.73012 2.16982 5.17011Z" fill="currentColor"/>
<path d="M13.1298 5.17011C13.3297 4.97015 13.6397 4.97023 13.8397 5.17011C15.3997 6.73011 15.3997 9.27027 13.8397 10.8303C13.7398 10.93 13.61 10.9797 13.4901 10.9797H13.4804C13.3504 10.9797 13.2198 10.9303 13.1298 10.8303C12.9299 10.6304 12.9301 10.3203 13.1298 10.1203C14.2998 8.95031 14.2998 7.05007 13.1298 5.88007C12.93 5.68014 12.93 5.37008 13.1298 5.17011Z" fill="currentColor"/>
<path d="M3.58974 6.59003C3.78971 6.39007 4.0997 6.39013 4.2997 6.59003C4.4997 6.79003 4.4997 7.1 4.2997 7.3C4.10981 7.48998 4.00966 7.74004 4.00966 8.00996C4.00966 8.27988 4.1098 8.52994 4.2997 8.71992C4.4997 8.90992 4.4997 9.22988 4.2997 9.42988C4.19975 9.52977 4.07001 9.58024 3.95009 9.58027L3.94032 9.55976C3.81037 9.55976 3.67973 9.51028 3.58974 9.41035C3.2098 9.03041 2.99996 8.5301 2.99989 8.00019C2.99989 7.47027 3.20984 6.96002 3.58974 6.59003Z" fill="currentColor"/>
<path d="M11.7099 6.5705C11.9099 6.3705 12.2198 6.3705 12.4198 6.5705C12.7997 6.9504 13.0096 7.44988 13.0097 7.97968C13.0097 8.50968 12.7998 9.01984 12.4198 9.38984C12.3199 9.48979 12.1902 9.54018 12.0702 9.54023L12.0604 9.55976C11.9305 9.55976 11.7999 9.51029 11.7099 9.41035C11.5099 9.21043 11.5101 8.9004 11.7099 8.70039C11.8998 8.51048 11.9998 8.26027 11.9999 7.99043C11.9999 7.72049 11.8998 7.47045 11.7099 7.28046C11.51 7.09057 11.5102 6.77052 11.7099 6.5705Z" fill="currentColor"/>
</svg>
