<svg width="16" height="16" viewBox="0 0 16 16" fill="none" xmlns="http://www.w3.org/2000/svg">
<path fill-rule="evenodd" clip-rule="evenodd" d="M12 4C13.1 4 14 4.9 14 6V6.5C14.55 6.5 15 6.95 15 7.5V8.5C15 9.05 14.55 9.5 14 9.5V10C14 11.1 13.1 12 12 12H4C2.9 12 2 11.1 2 10V6C2 4.9 2.9 4 4 4H12ZM8.21973 5.5498C7.96988 5.42009 7.66985 5.51985 7.5498 5.76953L6.5498 7.76953C6.46981 7.92952 6.47033 8.10977 6.57031 8.25977C6.67031 8.40977 6.83 8.5 7 8.5H8.20996L7.59961 9.78027C7.48988 10.0302 7.59001 10.3302 7.83984 10.4502C7.89979 10.4802 7.97985 10.5 8.0498 10.5C8.2398 10.5 8.41 10.3997 8.5 10.2197L9.4502 8.21973L9.44043 8.20996C9.51027 8.06013 9.49989 7.88032 9.41016 7.73047C9.3202 7.59054 9.16014 7.50009 8.99023 7.5H7.7998L8.44043 6.21973C8.57012 5.9698 8.4696 5.66974 8.21973 5.5498Z" fill="currentColor"/>
</svg>
