<svg width="16" height="16" viewBox="0 0 16 16" fill="none" xmlns="http://www.w3.org/2000/svg">
<path d="M14 6.5V6C14 4.9 13.1 4 12 4H4C2.9 4 2 4.9 2 6V10C2 11.1 2.9 12 4 12H12C13.1 12 14 11.1 14 10V9.5C14.55 9.5 15 9.05 15 8.5V7.5C15 6.95 14.55 6.5 14 6.5ZM8 11C7.59 11 7.25 10.66 7.25 10.25C7.25 9.84 7.59 9.5 8 9.5C8.41 9.5 8.75 9.84 8.75 10.25C8.75 10.66 8.41 11 8 11ZM8 8.8C7.72 8.8 7.5 8.58 7.5 8.3V8.02C7.5 7.64 7.72001 7.31 8.07001 7.16L8.25 7.08C8.46 6.99 8.62 6.8 8.62 6.61C8.62 6.26 8.34 5.98 8 5.98C7.66 5.98 7.38 6.26 7.38 6.6C7.38 6.88 7.16 7.1 6.88 7.1C6.6 7.1 6.38 6.88 6.38 6.6C6.38 5.71 7.11 4.98 8 4.98C8.89 4.98 9.62 5.71 9.62 6.6C9.62 7.21 9.23001 7.75 8.64001 8L8.46002 8.08L8.51001 8.29C8.51001 8.57 8.29001 8.79 8.01001 8.79L8 8.8Z" fill="black"/>
</svg>
