<svg width="16" height="16" viewBox="0 0 16 16" fill="none" xmlns="http://www.w3.org/2000/svg">
<path d="M10.5004 12.7803C10.7703 12.9201 11.0801 13 11.3998 13H11.4799L11.4096 13.3203C11.2595 14.0001 10.6397 14.5 9.93987 14.5H9.35003C9.1701 14.7899 8.87021 14.9998 8.50042 15H7.50042C6.95042 15 6.50042 14.55 6.50042 14C6.50042 13.45 6.95042 13 7.50042 13H8.50042C8.87022 13.0002 9.1801 13.2101 9.35003 13.5H9.93987C10.1698 13.5 10.38 13.3402 10.4301 13.1104L10.5004 12.7803Z" fill="currentColor"/>
<path d="M8.00042 1.50977C9.68015 1.5099 11.2499 2.26006 12.3198 3.5498C13.3797 4.84973 13.8098 6.53978 13.4799 8.17969L12.8901 11.0996V11.1201L12.85 11.3096C12.71 11.9996 12.0998 12.5 11.3998 12.5C10.95 12.5 10.5404 12.2998 10.2504 11.96C9.97052 11.6201 9.86003 11.1703 9.93987 10.7305L10.35 8.69043C10.49 8.00043 11.1002 7.5 11.8002 7.5C12.0601 7.50005 12.3205 7.57024 12.5405 7.7002C12.7105 6.44021 12.3504 5.16968 11.5405 4.17969C10.6706 3.1098 9.37025 2.50013 8.00042 2.5C6.63059 2.5 5.33038 3.10993 4.46038 4.17969C3.65038 5.16969 3.29038 6.4402 3.46038 7.7002C3.68023 7.57034 3.92986 7.50006 4.19964 7.5C4.89964 7.5 5.50983 8.00043 5.64983 8.69043L6.05999 10.7305C6.1498 11.1702 6.04016 11.6201 5.75042 11.96C5.47043 12.2999 5.05001 12.5 4.60003 12.5C3.90003 12.5 3.28983 11.9996 3.14983 11.3096L3.10979 11.1201V11.0996L2.51995 8.17969C2.19006 6.52979 2.61017 4.83972 3.68011 3.5498C4.7401 2.24993 6.3205 1.50977 8.00042 1.50977Z" fill="currentColor"/>
</svg>
