<svg width="16" height="16" viewBox="0 0 16 16" fill="none" xmlns="http://www.w3.org/2000/svg">
<path d="M8.00026 2C9.80017 2.00007 11.4902 2.80049 12.6301 4.19043C13.77 5.58039 14.2304 7.40029 13.8704 9.16016L13.76 9.73047V9.75977L13.3899 11.5898V11.6201L13.1497 12.8096C13.0097 13.4994 12.4003 13.9998 11.7005 14C11.2505 14 10.8401 13.8 10.5501 13.46C10.2701 13.1201 10.1606 12.6704 10.2405 12.2305L10.8499 9.19043C10.9899 8.50043 11.6001 8 12.3001 8C12.54 8.00001 12.7805 8.05993 12.9905 8.16992C13.0305 6.95995 12.6396 5.78005 11.8596 4.83008C10.9097 3.67022 9.50011 3.00007 8.00026 3C6.50026 3 5.08991 3.67008 4.13991 4.83008C3.35998 5.78004 2.97005 6.95999 3.01003 8.16992C3.22002 8.05993 3.45047 8 3.70046 8C4.40028 8.0002 5.0097 8.50057 5.14968 9.19043L5.76003 12.2305C5.84984 12.6702 5.74021 13.1201 5.45046 13.46C5.17047 13.7999 4.75004 14 4.30007 14C3.60007 14 2.98987 13.4996 2.84987 12.8096L2.60964 11.6201V11.5898L2.2405 9.75977V9.73047L2.13014 9.16016C1.78015 7.39019 2.23043 5.58042 3.37038 4.19043C4.51038 2.80043 6.20026 2 8.00026 2Z" fill="currentColor"/>
</svg>
