<svg width="16" height="16" viewBox="0 0 16 16" fill="none" xmlns="http://www.w3.org/2000/svg">
<path fill-rule="evenodd" clip-rule="evenodd" d="M13 4C13.55 4 14 4.45 14 5V11C14 11.55 13.55 12 13 12H3C2.45 12 2 11.55 2 11V5C2 4.45 2.45 4 3 4H13ZM4 9.5C3.72 9.5 3.5 9.72 3.5 10C3.5 10.28 3.72 10.5 4 10.5C4.28 10.5 4.5 10.28 4.5 10C4.5 9.72 4.28 9.5 4 9.5ZM6 9.5C5.72 9.5 5.5 9.72 5.5 10C5.5 10.28 5.72 10.5 6 10.5H10C10.28 10.5 10.5 10.28 10.5 10C10.5 9.72 10.28 9.5 10 9.5H6ZM12 9.5C11.72 9.5 11.5 9.72 11.5 10C11.5 10.28 11.72 10.5 12 10.5C12.28 10.5 12.5 10.28 12.5 10C12.5 9.72 12.28 9.5 12 9.5ZM4 7.5C3.72 7.5 3.5 7.72 3.5 8C3.5 8.28 3.72 8.5 4 8.5C4.28 8.5 4.5 8.28 4.5 8C4.5 7.72 4.28 7.5 4 7.5ZM6 7.5C5.72 7.5 5.5 7.72 5.5 8C5.5 8.28 5.72 8.5 6 8.5C6.28 8.5 6.5 8.28 6.5 8C6.5 7.72 6.28 7.5 6 7.5ZM8 7.5C7.72 7.5 7.5 7.72 7.5 8C7.5 8.28 7.72 8.5 8 8.5C8.28 8.5 8.5 8.28 8.5 8C8.5 7.72 8.28 7.5 8 7.5ZM10 7.5C9.72 7.5 9.5 7.72 9.5 8C9.5 8.28 9.72 8.5 10 8.5C10.28 8.5 10.5 8.28 10.5 8C10.5 7.72 10.28 7.5 10 7.5ZM12 7.5C11.72 7.5 11.5 7.72 11.5 8C11.5 8.28 11.72 8.5 12 8.5C12.28 8.5 12.5 8.28 12.5 8C12.5 7.72 12.28 7.5 12 7.5ZM4 5.5C3.72 5.5 3.5 5.72 3.5 6C3.5 6.28 3.72 6.5 4 6.5C4.28 6.5 4.5 6.28 4.5 6C4.5 5.72 4.28 5.5 4 5.5ZM6 5.5C5.72 5.5 5.5 5.72 5.5 6C5.5 6.28 5.72 6.5 6 6.5C6.28 6.5 6.5 6.28 6.5 6C6.5 5.72 6.28 5.5 6 5.5ZM8 5.5C7.72 5.5 7.5 5.72 7.5 6C7.5 6.28 7.72 6.5 8 6.5C8.28 6.5 8.5 6.28 8.5 6C8.5 5.72 8.28 5.5 8 5.5ZM10 5.5C9.72 5.5 9.5 5.72 9.5 6C9.5 6.28 9.72 6.5 10 6.5C10.28 6.5 10.5 6.28 10.5 6C10.5 5.72 10.28 5.5 10 5.5ZM12 5.5C11.72 5.5 11.5 5.72 11.5 6C11.5 6.28 11.72 6.5 12 6.5C12.28 6.5 12.5 6.28 12.5 6C12.5 5.72 12.28 5.5 12 5.5Z" fill="currentColor"/>
</svg>
