<svg width="16" height="16" viewBox="0 0 16 16" fill="none" xmlns="http://www.w3.org/2000/svg">
<path d="M11.5 3.5C12.05 3.5 12.5 3.95 12.5 4.5H11.5C10.4 4.5 9.5 5.4 9.5 6.5V9.5H4.5C4.22 9.5 4 9.72 4 10C4 10.28 4.22 10.5 4.5 10.5H9.5V11.5C9.5 11.86 9.60051 12.21 9.77051 12.5H2.5C1.95 12.5 1.5 12.05 1.5 11.5V11C1.5 10.72 1.72 10.5 2 10.5H3V4.5C3 3.95 3.45 3.5 4 3.5H11.5Z" fill="black"/>
<path d="M13.5 5.5C14.0523 5.5 14.5 5.94772 14.5 6.5V11.5C14.5 12.0523 14.0523 12.5 13.5 12.5H11.5C10.9477 12.5 10.5 12.0523 10.5 11.5V6.5C10.5 5.94772 10.9477 5.5 11.5 5.5H13.5Z" fill="black"/>
</svg>
