<svg width="16" height="16" viewBox="0 0 16 16" fill="none" xmlns="http://www.w3.org/2000/svg">
<path fill-rule="evenodd" clip-rule="evenodd" d="M10 2C10.55 2 11 2.45 11 3V5.37988C11 5.77988 11.1604 6.16043 11.4404 6.44043L12.5596 7.55957C12.8396 7.83957 13 8.22012 13 8.62012V13C13 13.55 12.55 14 12 14H4C3.45 14 3 13.55 3 13V3C3 2.45 3.45 2 4 2H10ZM8.25 9.37012C8.13 9.19012 7.87 9.19012 7.75 9.37012L6.30957 11.5303C6.18008 11.7301 6.31999 11.9997 6.55957 12H9.44043C9.68001 11.9997 9.81992 11.7301 9.69043 11.5303L8.25 9.37012Z" fill="currentColor"/>
</svg>
