<svg width="16" height="16" viewBox="0 0 16 16" fill="none" xmlns="http://www.w3.org/2000/svg">
<path fill-rule="evenodd" clip-rule="evenodd" d="M8 6C9.66 6 11 7.34 11 9V11C11 12.66 9.66 14 8 14C6.34 14 5 12.66 5 11V9C5 7.34 6.34 6 8 6ZM8 7.5C7.72 7.5 7.5 7.72 7.5 8V9C7.5 9.28 7.72 9.5 8 9.5C8.28 9.5 8.5 9.28 8.5 9V8C8.5 7.72 8.28 7.5 8 7.5Z" fill="currentColor"/>
<path d="M8 1.5C8.27614 1.5 8.5 1.72386 8.5 2V4.5C8.5 4.77614 8.27614 5 8 5C7.72386 5 7.5 4.77614 7.5 4.5V2C7.5 1.72386 7.72386 1.5 8 1.5Z" fill="currentColor"/>
</svg>
