<svg width="16" height="16" viewBox="0 0 16 16" fill="none" xmlns="http://www.w3.org/2000/svg">
<path fill-rule="evenodd" clip-rule="evenodd" d="M11 2C11.55 2 12 2.45 12 3V13C12 13.55 11.55 14 11 14H5C4.45 14 4 13.55 4 13V3C4 2.45 4.45 2 5 2H11ZM7 12C6.72 12 6.5 12.22 6.5 12.5C6.5 12.78 6.72 13 7 13H9C9.28 13 9.5 12.78 9.5 12.5C9.5 12.22 9.28 12 9 12H7ZM9.87012 5.13965C9.6702 4.93985 9.36013 4.93994 9.16016 5.13965L8.00977 6.29004L6.86035 5.13965C6.66048 4.93977 6.3504 4.94002 6.15039 5.13965C5.95039 5.33965 5.95039 5.64961 6.15039 5.84961L7.2998 7L6.15039 8.15039C5.95039 8.35039 5.95039 8.66035 6.15039 8.86035C6.2404 8.96009 6.38016 9.00977 6.5 9.00977C6.61985 9.00977 6.74966 8.9601 6.84961 8.86035L8 7.70996L9.15039 8.86035C9.2404 8.96009 9.38016 9.00977 9.5 9.00977C9.61985 9.00977 9.74966 8.9601 9.84961 8.86035C10.0496 8.66035 10.0496 8.35039 9.84961 8.15039H9.87012L8.71973 7L9.87012 5.84961C10.0699 5.6496 10.07 5.33956 9.87012 5.13965Z" fill="currentColor"/>
</svg>
