<svg width="16" height="16" viewBox="0 0 16 16" fill="none" xmlns="http://www.w3.org/2000/svg">
<path d="M11 2H5C4.45 2 4 2.45 4 3V13C4 13.55 4.45 14 5 14H11C11.55 14 12 13.55 12 13V3C12 2.45 11.55 2 11 2ZM7 12H9C9.28 12 9.5 12.22 9.5 12.5C9.5 12.78 9.28 13 9 13H7C6.72 13 6.5 12.78 6.5 12.5C6.5 12.22 6.72 12 7 12ZM10.1 6.45L7.7 8.85C7.61 8.94 7.48 9 7.35 9C7.22 9 7.09 8.95 7 8.85L5.9 7.75C5.7 7.55 5.7 7.24 5.9 7.04C6.1 6.84 6.41 6.84 6.61 7.04L7.36 7.79L9.41 5.74C9.61 5.54 9.92 5.54 10.12 5.74C10.32 5.94 10.32 6.25 10.12 6.45H10.1Z" fill="black"/>
</svg>
