<svg width="16" height="16" viewBox="0 0 16 16" fill="none" xmlns="http://www.w3.org/2000/svg">
<path fill-rule="evenodd" clip-rule="evenodd" d="M13 7C13.55 7 14 7.45 14 8V13C14 13.55 13.55 14 13 14H3C2.45 14 2 13.55 2 13V8C2 7.45 2.45 7 3 7H13ZM3.5 9.5C3.22 9.5 3 9.72 3 10V11C3 11.28 3.22 11.5 3.5 11.5C3.78 11.5 4 11.28 4 11V10C4 9.72 3.78 9.5 3.5 9.5Z" fill="black"/>
<path d="M8 1.5C8.82614 1.5 9.5 2.17386 9.5 3V5.5C9.5 5.77614 9.27614 6 9 6C8.72386 6 8.5 5.77614 8.5 5.5V3C8.5 2.72614 8.27386 2.5 8 2.5H3.5C3.22614 2.5 3 2.72614 3 3V5.5C3 5.77614 2.77614 6 2.5 6C2.22386 6 2 5.77614 2 5.5V3C2 2.17386 2.67386 1.5 3.5 1.5H8Z" fill="black"/>
<path d="M11.5 1.5C12.3261 1.5 13 2.17386 13 3V3.79297L13.1465 3.64648C13.3417 3.45122 13.6583 3.45122 13.8535 3.64648C14.0488 3.84175 14.0488 4.15825 13.8535 4.35352L12.8535 5.35352C12.8328 5.37428 12.8096 5.39173 12.7861 5.4082C12.776 5.41533 12.7654 5.42145 12.7549 5.42773C12.7384 5.43758 12.7215 5.44628 12.7041 5.4541C12.6957 5.45789 12.6873 5.46154 12.6787 5.46484C12.6578 5.47286 12.6369 5.4802 12.6152 5.48535C12.6004 5.48887 12.5854 5.49103 12.5703 5.49316C12.5509 5.49594 12.5314 5.49758 12.5117 5.49805C12.5019 5.49828 12.4922 5.49839 12.4824 5.49805C12.4625 5.49735 12.4427 5.4953 12.4229 5.49219C12.4124 5.49056 12.4019 5.48959 12.3916 5.4873C12.3636 5.48107 12.3357 5.47315 12.3086 5.46191C12.2838 5.45163 12.2607 5.43859 12.2383 5.4248C12.2272 5.41795 12.2167 5.41015 12.2061 5.40234C12.1891 5.38997 12.1733 5.37659 12.1582 5.3623C12.1547 5.35899 12.1499 5.35696 12.1465 5.35352L11.1465 4.35352C10.9512 4.15826 10.9512 3.84175 11.1465 3.64648C11.3417 3.45122 11.6583 3.45123 11.8535 3.64648L12 3.79297V3C12 2.72614 11.7739 2.5 11.5 2.5H10.5C10.2239 2.5 10 2.27614 10 2C10 1.72386 10.2239 1.5 10.5 1.5H11.5Z" fill="black"/>
</svg>
