<svg width="16" height="16" viewBox="0 0 16 16" fill="none" xmlns="http://www.w3.org/2000/svg">
<path fill-rule="evenodd" clip-rule="evenodd" d="M11 2C11.55 2 12 2.45 12 3V13C12 13.55 11.55 14 11 14H5C4.45 14 4 13.55 4 13V3C4 2.45 4.45 2 5 2H11ZM7 12C6.72 12 6.5 12.22 6.5 12.5C6.5 12.78 6.72 13 7 13H9C9.28 13 9.5 12.78 9.5 12.5C9.5 12.22 9.28 12 9 12H7ZM8 9C7.59 9 7.25 9.34 7.25 9.75C7.25 10.16 7.59 10.5 8 10.5C8.41 10.5 8.75 10.16 8.75 9.75C8.75 9.34 8.41 9 8 9ZM8.00977 4.49023C7.11988 4.49037 6.38965 5.22043 6.38965 6.11035C6.38983 6.39006 6.60994 6.61016 6.88965 6.61035C7.16953 6.61035 7.38946 6.39018 7.38965 6.11035C7.38965 5.77043 7.66988 5.49037 8.00977 5.49023C8.34977 5.49023 8.62988 5.77012 8.62988 6.12012C8.62982 6.31008 8.46972 6.49986 8.25977 6.58984L8.08008 6.66992C7.73008 6.81992 7.50977 7.15027 7.50977 7.53027V7.80957C7.50977 8.08949 7.72988 8.30944 8.00977 8.30957C8.28977 8.30957 8.50977 8.08957 8.50977 7.80957L8.45996 7.59961L8.63965 7.51953L8.65039 7.50977C9.24004 7.25974 9.62973 6.72006 9.62988 6.11035C9.62988 5.22035 8.89977 4.49023 8.00977 4.49023Z" fill="currentColor"/>
</svg>
