<svg width="16" height="16" viewBox="0 0 16 16" fill="none" xmlns="http://www.w3.org/2000/svg">
<path d="M8.5 1.5C8.78 1.5 9 1.72 9 2V4.5C9.83 4.5 10.5 5.17 10.5 6V6.83984C10.5 8.65595 9.18047 10.2141 7.5 10.4668V12.5C7.5 13.05 7.95 13.5 8.5 13.5C9.05 13.5 9.5 13.05 9.5 12.5C9.5 11.4 10.4 10.5 11.5 10.5C12.6 10.5 13.5 11.4 13.5 12.5V14C13.5 14.28 13.28 14.5 13 14.5C12.72 14.5 12.5 14.28 12.5 14V12.5C12.5 11.95 12.05 11.5 11.5 11.5C10.95 11.5 10.5 11.95 10.5 12.5C10.5 13.6 9.6 14.5 8.5 14.5C7.4 14.5 6.5 13.6 6.5 12.5V10.4648C5.78795 10.363 5.12612 10.0438 4.58984 9.54004C3.88989 8.87005 3.5 7.96997 3.5 7V6C3.5 5.17 4.17 4.5 5 4.5V2C5 1.72 5.22 1.5 5.5 1.5C5.78 1.5 6 1.72 6 2V4.5H8V2C8 1.72 8.22 1.5 8.5 1.5Z" fill="black"/>
</svg>
