<svg width="16" height="16" viewBox="0 0 16 16" fill="none" xmlns="http://www.w3.org/2000/svg">
<path d="M12 10V13C12 13.55 11.55 14 11 14H5C4.45 14 4 13.55 4 13V10H12Z" fill="currentColor"/>
<path fill-rule="evenodd" clip-rule="evenodd" d="M13 5C13.55 5 14 5.45 14 6V11C14 11.55 13.55 12 13 12V9.5C13 9.22 12.78 9 12.5 9H3.5C3.22 9 3 9.22 3 9.5V12C2.45 12 2 11.55 2 11V6C2 5.45 2.45 5 3 5H13ZM10 6.5C9.72 6.5 9.5 6.72 9.5 7C9.5 7.28 9.72 7.5 10 7.5H12C12.28 7.5 12.5 7.28 12.5 7C12.5 6.72 12.28 6.5 12 6.5H10Z" fill="currentColor"/>
<path d="M11 2C11.55 2 12 2.45 12 3V4H4V3C4 2.45 4.45 2 5 2H11Z" fill="currentColor"/>
</svg>
