<svg width="16" height="16" viewBox="0 0 16 16" fill="none" xmlns="http://www.w3.org/2000/svg">
<path fill-rule="evenodd" clip-rule="evenodd" d="M9.37988 2C9.77988 2 10.1604 2.16043 10.4404 2.44043L12.5596 4.55957C12.8396 4.83957 13 5.22012 13 5.62012V13C13 13.55 12.55 14 12 14H4C3.45 14 3 13.55 3 13V3C3 2.45 3.45 2 4 2H9.37988ZM6.55957 9C6.31999 9.00032 6.18008 9.26988 6.30957 9.46973L7.75 11.6299C7.87 11.8099 8.13 11.8099 8.25 11.6299L9.69043 9.46973C9.81992 9.26988 9.68001 9.00032 9.44043 9H6.55957Z" fill="black"/>
</svg>
