<svg width="16" height="16" viewBox="0 0 16 16" fill="none" xmlns="http://www.w3.org/2000/svg">
<path fill-rule="evenodd" clip-rule="evenodd" d="M13 3.5C13.55 3.5 14 3.95 14 4.5V10.5C14 11.05 13.55 11.5 13 11.5H8.5V12.5H10C10.2761 12.5 10.5 12.7239 10.5 13C10.5 13.2761 10.2761 13.5 10 13.5H6C5.72386 13.5 5.5 13.2761 5.5 13C5.5 12.7239 5.72386 12.5 6 12.5H7.5V11.5H3C2.45 11.5 2 11.05 2 10.5V4.5C2 3.95 2.45 3.5 3 3.5H13ZM7.46973 5.80957C7.26988 5.68008 7.00032 5.81999 7 6.05957V8.94043C7.00032 9.18001 7.26988 9.31992 7.46973 9.19043L9.62988 7.75C9.80988 7.63 9.80988 7.37 9.62988 7.25L7.46973 5.80957Z" fill="black"/>
</svg>
