<svg width="16" height="16" viewBox="0 0 16 16" fill="none" xmlns="http://www.w3.org/2000/svg">
<path d="M7.58008 1.73043C7.77008 1.45043 8.23016 1.45043 8.41016 1.73043L10.4102 4.73043C10.5099 4.88039 10.5196 5.08033 10.4297 5.2402C10.3397 5.39996 10.17 5.49987 9.99023 5.49996H8.5V12.1474L10.7598 10.8603C10.9198 10.7703 11.0098 10.5997 11.0098 10.4297V10.3496H10.1104C9.85035 10.3496 9.65039 10.1396 9.65039 9.88961V7.11031C9.65039 6.85031 9.86035 6.65035 10.1104 6.65035H12.8896C13.1496 6.65035 13.3496 6.86031 13.3496 7.11031V9.88961C13.3496 10.1496 13.1396 10.3496 12.8896 10.3496H12.0098V10.4297C12.0098 10.9697 11.72 11.4704 11.25 11.7304L8.5 13.2978V14C8.5 14.28 8.28 14.5 8 14.5L7.93848 14.4961C7.93194 14.4952 7.92554 14.4933 7.91895 14.4922C7.90497 14.4899 7.89146 14.4867 7.87793 14.4834C7.87206 14.4818 7.86622 14.4802 7.86035 14.4785C7.8019 14.4619 7.74838 14.4362 7.70117 14.4013L4.75 12.7197C4.28008 12.4497 3.99023 11.9498 3.99023 11.4199V10.4306C3.13544 10.2035 2.5 9.42369 2.5 8.49996C2.50003 7.39998 3.40002 6.49996 4.5 6.49996C5.59998 6.49996 6.49997 7.39998 6.5 8.49996C6.5 9.4307 5.85487 10.2152 4.99023 10.4355V11.4199C4.99023 11.5999 5.09023 11.7696 5.24023 11.8496L7.5 13.1367V5.49996H6C5.82 5.49996 5.64957 5.4002 5.55957 5.2402C5.46964 5.08029 5.48024 4.88039 5.58008 4.73043L7.58008 1.73043Z" fill="currentColor"/>
</svg>
