<svg width="16" height="16" viewBox="0 0 16 16" fill="none" xmlns="http://www.w3.org/2000/svg">
<path d="M12 5H4C2.9 5 2 5.9 2 7V9C2 10.1 2.9 11 4 11H5.56C6.42 11 7.19 10.45 7.46 9.63C7.63 9.11 8.37 9.11 8.55 9.63C8.82 10.45 9.59 11 10.45 11H12.01C13.11 11 14.01 10.1 14.01 9V7C14.01 5.9 13.11 5 12.01 5H12ZM5 9.25C4.31 9.25 3.75 8.69 3.75 8C3.75 7.31 4.31 6.75 5 6.75C5.69 6.75 6.25 7.31 6.25 8C6.25 8.69 5.69 9.25 5 9.25ZM11 9.25C10.31 9.25 9.75 8.69 9.75 8C9.75 7.31 10.31 6.75 11 6.75C11.69 6.75 12.25 7.31 12.25 8C12.25 8.69 11.69 9.25 11 9.25Z" fill="currentColor"/>
</svg>
