<svg width="16" height="16" viewBox="0 0 16 16" fill="none" xmlns="http://www.w3.org/2000/svg">
<path d="M8 11.5C8.27614 11.5 8.5 11.7239 8.5 12C8.5 12.2761 8.27614 12.5 8 12.5H3C2.72386 12.5 2.5 12.2761 2.5 12C2.5 11.7239 2.72386 11.5 3 11.5H8Z" fill="currentColor"/>
<path d="M13 8.83008C13.2761 8.83008 13.5 9.05394 13.5 9.33008C13.5 9.60618 13.2761 9.83008 13 9.83008H3C2.72389 9.83008 2.50005 9.60618 2.5 9.33008C2.5 9.05394 2.72386 8.83008 3 8.83008H13Z" fill="currentColor"/>
<path d="M13 6.16992C13.2761 6.16992 13.5 6.39382 13.5 6.66992C13.5 6.94606 13.2761 7.16992 13 7.16992H3C2.72386 7.16992 2.5 6.94606 2.5 6.66992C2.50005 6.39382 2.72389 6.16992 3 6.16992H13Z" fill="currentColor"/>
<path d="M13 3.5C13.2761 3.5 13.5 3.72386 13.5 4C13.5 4.27614 13.2761 4.5 13 4.5H3C2.72386 4.5 2.5 4.27614 2.5 4C2.5 3.72386 2.72386 3.5 3 3.5H13Z" fill="currentColor"/>
</svg>
