<svg width="16" height="16" viewBox="0 0 16 16" fill="none" xmlns="http://www.w3.org/2000/svg">
<path d="M7 11.5C7.27614 11.5 7.5 11.7239 7.5 12C7.5 12.2761 7.27614 12.5 7 12.5H3C2.72386 12.5 2.5 12.2761 2.5 12C2.5 11.7239 2.72386 11.5 3 11.5H7Z" fill="currentColor"/>
<path d="M13 11.5C13.2761 11.5 13.5 11.7239 13.5 12C13.5 12.2761 13.2761 12.5 13 12.5H9C8.72386 12.5 8.5 12.2761 8.5 12C8.5 11.7239 8.72386 11.5 9 11.5H13Z" fill="currentColor"/>
<path d="M7 8.83008C7.27614 8.83008 7.5 9.05394 7.5 9.33008C7.49995 9.60618 7.27611 9.83008 7 9.83008H3C2.72389 9.83008 2.50005 9.60618 2.5 9.33008C2.5 9.05394 2.72386 8.83008 3 8.83008H7Z" fill="currentColor"/>
<path d="M13 8.83008C13.2761 8.83008 13.5 9.05394 13.5 9.33008C13.5 9.60618 13.2761 9.83008 13 9.83008H9C8.72389 9.83008 8.50005 9.60618 8.5 9.33008C8.5 9.05394 8.72386 8.83008 9 8.83008H13Z" fill="currentColor"/>
<path d="M7 6.16992C7.27611 6.16992 7.49995 6.39382 7.5 6.66992C7.5 6.94606 7.27614 7.16992 7 7.16992H3C2.72386 7.16992 2.5 6.94606 2.5 6.66992C2.50005 6.39382 2.72389 6.16992 3 6.16992H7Z" fill="currentColor"/>
<path d="M13 6.16992C13.2761 6.16992 13.5 6.39382 13.5 6.66992C13.5 6.94606 13.2761 7.16992 13 7.16992H9C8.72386 7.16992 8.5 6.94606 8.5 6.66992C8.50005 6.39382 8.72389 6.16992 9 6.16992H13Z" fill="currentColor"/>
<path d="M7 3.5C7.27614 3.5 7.5 3.72386 7.5 4C7.5 4.27614 7.27614 4.5 7 4.5H3C2.72386 4.5 2.5 4.27614 2.5 4C2.5 3.72386 2.72386 3.5 3 3.5H7Z" fill="currentColor"/>
<path d="M13 3.5C13.2761 3.5 13.5 3.72386 13.5 4C13.5 4.27614 13.2761 4.5 13 4.5H9C8.72386 4.5 8.5 4.27614 8.5 4C8.5 3.72386 8.72386 3.5 9 3.5H13Z" fill="currentColor"/>
</svg>
