<svg width="16" height="16" viewBox="0 0 16 16" fill="none" xmlns="http://www.w3.org/2000/svg">
<path d="M10.1466 6.14648C10.3419 5.95129 10.6584 5.95125 10.8537 6.14648C11.0488 6.34173 11.0488 6.65828 10.8537 6.85352L9.70717 8L10.8537 9.14648C11.0488 9.34173 11.0488 9.65828 10.8537 9.85352C10.6584 10.0487 10.3419 10.0487 10.1466 9.85352L9.00014 8.70703L7.85366 9.85352C7.65843 10.0487 7.3419 10.0487 7.14663 9.85352C6.95137 9.65825 6.95137 9.34175 7.14663 9.14648L8.29311 8L7.14663 6.85352C6.95137 6.65825 6.95137 6.34175 7.14663 6.14648C7.3419 5.95129 7.65842 5.95125 7.85366 6.14648L9.00014 7.29297L10.1466 6.14648Z" fill="black"/>
<path fill-rule="evenodd" clip-rule="evenodd" d="M13.0001 3.5C13.8262 3.50013 14.5001 4.17394 14.5001 5V11C14.5001 11.8261 13.8262 12.4999 13.0001 12.5H5.83022C5.16487 12.5 4.53826 12.2353 4.06655 11.7637L0.656393 8.35352C0.461175 8.15826 0.461175 7.84174 0.656393 7.64648L4.06655 4.23633C4.53254 3.76045 5.17092 3.50002 5.83022 3.5H13.0001ZM5.83022 4.5C5.432 4.50002 5.05201 4.65772 4.77846 4.93848L1.71694 8L4.77358 11.0566C5.0618 11.3448 5.43576 11.5 5.83022 11.5H13.0001C13.2739 11.4999 13.5001 11.2738 13.5001 11V5C13.5001 4.72622 13.2739 4.50013 13.0001 4.5H5.83022Z" fill="black"/>
</svg>
