<svg width="16" height="16" viewBox="0 0 16 16" fill="none" xmlns="http://www.w3.org/2000/svg">
<path fill-rule="evenodd" clip-rule="evenodd" d="M8 0.5C8.65074 0.5 9.20524 0.918716 9.41211 1.5H11L11.1006 1.50977C11.3286 1.55629 11.5 1.75829 11.5 2V2.5H12C12.8261 2.5 13.5 3.17386 13.5 4V13C13.5 13.8261 12.8261 14.5 12 14.5H4C3.17386 14.5 2.5 13.8261 2.5 13V4C2.5 3.17386 3.17386 2.5 4 2.5H4.5V2C4.5 1.72386 4.72386 1.5 5 1.5H6.58789C6.79476 0.918716 7.34926 0.5 8 0.5ZM4 3.5C3.72614 3.5 3.5 3.72614 3.5 4V13C3.5 13.2739 3.72614 13.5 4 13.5H12C12.2739 13.5 12.5 13.2739 12.5 13V4C12.5 3.72614 12.2739 3.5 12 3.5H11.5V4C11.5 4.27614 11.2761 4.5 11 4.5H5C4.72386 4.5 4.5 4.27614 4.5 4V3.5H4ZM8 1.5C7.7605 1.5 7.55693 1.67284 7.50977 1.89941L7.49023 2.10059C7.44371 2.32855 7.24171 2.5 7 2.5H5.5V3.5H10.5V2.5H9C8.75829 2.5 8.55629 2.32855 8.50977 2.10059L8.49023 1.89941C8.44307 1.67284 8.2395 1.5 8 1.5Z" fill="black"/>
</svg>
