<svg width="16" height="16" viewBox="0 0 16 16" fill="none" xmlns="http://www.w3.org/2000/svg">
<path fill-rule="evenodd" clip-rule="evenodd" d="M8.95684 2.35619C9.54213 1.77134 10.4889 1.77108 11.074 2.35619C11.0933 2.37551 11.1102 2.39699 11.1258 2.41869L13.6531 4.94701C14.2383 5.53228 14.2383 6.47898 13.6531 7.0642L7.36407 13.3542C7.27032 13.4479 7.14213 13.4997 7.00958 13.4997H5.00958C4.87721 13.4996 4.7497 13.4478 4.65606 13.3542L2.36602 11.0642C1.78095 10.4791 1.78127 9.5323 2.36602 8.94701L4.57696 6.7351C4.5966 6.7038 4.61906 6.67346 4.6463 6.64623C4.67354 6.61899 4.70385 6.59653 4.73516 6.57689L8.95684 2.35619ZM3.07403 9.65404C2.87939 9.84878 2.87934 10.1615 3.07403 10.3562L5.21758 12.4997H6.80255L8.29766 11.0046L5.01055 7.71752L3.07403 9.65404ZM10.3328 3.03685C10.1371 2.87184 9.84834 2.87973 9.66387 3.0642L5.71758 7.01049L9.00469 10.2976L12.9461 6.35619C13.1408 6.16149 13.1407 5.84877 12.9461 5.65404L10.3563 3.0642C10.3478 3.05574 10.3406 3.0458 10.3328 3.03685Z" fill="currentColor"/>
</svg>
