<svg width="16" height="16" viewBox="0 0 16 16" fill="none" xmlns="http://www.w3.org/2000/svg">
<path fill-rule="evenodd" clip-rule="evenodd" d="M4.5 3.62988C5.92594 3.62988 7.17874 4.64738 7.43262 6.06152C7.69542 7.51122 7.24335 8.87495 6.67578 9.93262C6.10613 10.9941 5.39262 11.7987 5.05176 12.1553L5.05078 12.1543C4.86795 12.35 4.61972 12.469 4.35547 12.4941C4.31785 12.5031 4.27953 12.5097 4.24023 12.5098C3.38415 12.5098 2.83764 11.5661 3.29297 10.8193L3.29395 10.8184C3.56809 10.3705 3.7487 9.92066 3.86035 9.58105C3.86247 9.57459 3.86414 9.5679 3.86621 9.56152C2.5143 9.27034 1.5 8.0685 1.5 6.62988C1.50007 4.9738 2.8439 3.62988 4.5 3.62988ZM4.5 4.62988C3.39618 4.62988 2.50007 5.52608 2.5 6.62988C2.5 7.73374 3.39614 8.62988 4.5 8.62988C4.64855 8.62988 4.78977 8.69635 4.88477 8.81055C4.97945 8.92463 5.01813 9.07491 4.99121 9.2207V9.22363C4.99103 9.22458 4.99051 9.22618 4.99023 9.22754C4.98968 9.23042 4.98918 9.23472 4.98828 9.23926C4.98638 9.24879 4.98396 9.26201 4.98047 9.27832C4.97336 9.31149 4.96267 9.35858 4.94824 9.41699C4.91939 9.53377 4.87393 9.69777 4.80957 9.89355C4.68128 10.2837 4.47202 10.8091 4.14648 11.3408C4.124 11.3781 4.12502 11.4158 4.14551 11.4521C4.16072 11.479 4.18202 11.4959 4.20703 11.5039C4.22132 11.5027 4.23554 11.5 4.25 11.5C4.28389 11.5 4.30869 11.4854 4.32129 11.4717L4.32812 11.4639C4.63737 11.1403 5.28384 10.4104 5.79395 9.45996C6.30619 8.5054 6.65504 7.37911 6.44824 6.23926C6.28202 5.31352 5.45398 4.62988 4.5 4.62988Z" fill="black"/>
<path fill-rule="evenodd" clip-rule="evenodd" d="M11.5 3.62988C12.9259 3.62988 14.1787 4.64738 14.4326 6.06152C14.6954 7.51122 14.2433 8.87495 13.6758 9.93262C13.1061 10.9941 12.3926 11.7987 12.0518 12.1553L12.0508 12.1543C11.8679 12.35 11.6197 12.469 11.3555 12.4941C11.3179 12.5031 11.2795 12.5097 11.2402 12.5098C10.3841 12.5098 9.83764 11.5661 10.293 10.8193L10.2939 10.8184C10.5681 10.3705 10.7487 9.92066 10.8604 9.58105C10.8625 9.57459 10.8641 9.5679 10.8662 9.56152C9.5143 9.27034 8.5 8.0685 8.5 6.62988C8.50007 4.9738 9.8439 3.62988 11.5 3.62988ZM11.5 4.62988C10.3962 4.62988 9.50007 5.52608 9.5 6.62988C9.5 7.73374 10.3961 8.62988 11.5 8.62988C11.6485 8.62988 11.7898 8.69635 11.8848 8.81055C11.9795 8.92463 12.0181 9.07491 11.9912 9.2207V9.22363C11.991 9.22458 11.9905 9.22618 11.9902 9.22754C11.9897 9.23042 11.9892 9.23472 11.9883 9.23926C11.9864 9.24879 11.984 9.26201 11.9805 9.27832C11.9734 9.31149 11.9627 9.35858 11.9482 9.41699C11.9194 9.53377 11.8739 9.69777 11.8096 9.89355C11.6813 10.2837 11.472 10.8091 11.1465 11.3408C11.124 11.3781 11.125 11.4158 11.1455 11.4521C11.1607 11.479 11.182 11.4959 11.207 11.5039C11.2213 11.5027 11.2355 11.5 11.25 11.5C11.2839 11.5 11.3087 11.4854 11.3213 11.4717L11.3281 11.4639C11.6374 11.1403 12.2838 10.4104 12.7939 9.45996C13.3062 8.5054 13.655 7.37911 13.4482 6.23926C13.282 5.31352 12.454 4.62988 11.5 4.62988Z" fill="black"/>
</svg>
