<svg width="16" height="16" viewBox="0 0 16 16" fill="none" xmlns="http://www.w3.org/2000/svg">
<path fill-rule="evenodd" clip-rule="evenodd" d="M10.799 2.95604C11.4232 2.43375 12.3565 2.45906 12.9436 3.04589C13.5238 3.62616 13.5711 4.55859 13.0315 5.19042L13.0324 5.1914L8.28732 10.8476C8.0394 12.1555 7.00614 13.2496 5.66037 13.4502C5.03055 13.5402 4.38034 13.5001 3.78048 13.2803C3.47061 13.1603 3.09014 13.0202 2.88009 12.7305C2.67009 12.4405 2.66978 12.0798 2.80978 11.7598C2.90981 11.5398 3.14967 11.4099 3.18966 11.1699C3.20964 11.03 3.18968 10.8801 3.18966 10.7402C3.18966 10.5602 3.19994 10.3897 3.21994 10.2197C3.28995 9.60987 3.4697 9.06974 3.85958 8.58983C4.19132 8.18528 4.61574 7.87462 5.10958 7.72753L10.7981 2.95702L10.799 2.95604ZM6.37033 8.73046C6.1037 8.63047 5.80916 8.59355 5.52169 8.64745C5.48183 8.6621 5.44118 8.67262 5.39962 8.67675C5.3832 8.68139 5.36616 8.68513 5.34982 8.69042C4.97993 8.8105 4.64989 9.14026 4.46994 9.45018C4.26001 9.80017 4.18966 10.2703 4.18966 10.7002C4.18968 10.9801 4.22007 11.2603 4.13009 11.5303C4.05201 11.7839 3.90681 11.961 3.73263 12.1553C3.77475 12.179 3.82321 12.2086 3.85958 12.2305C4.06952 12.3304 4.28982 12.4002 4.51974 12.4502C4.92963 12.5302 5.36983 12.5103 5.76974 12.4004C6.50747 12.1938 7.19517 11.4641 7.31271 10.6885C7.30698 10.6298 7.3122 10.5704 7.32736 10.5127C7.34659 10.1046 7.28951 9.72431 7.10958 9.40038C6.93967 9.09053 6.67015 8.84054 6.37033 8.73046ZM12.2365 3.75292C12.0237 3.54035 11.6763 3.52634 11.4406 3.72362L6.62423 7.76268C6.76419 7.80985 6.90082 7.86869 7.03048 7.94042C7.60415 8.26067 7.99402 8.80011 8.18966 9.40819L12.2668 4.54882L12.2707 4.54393C12.467 4.31583 12.4549 3.97125 12.2365 3.75292Z" fill="black"/>
</svg>
