<svg width="16" height="16" viewBox="0 0 16 16" fill="none" xmlns="http://www.w3.org/2000/svg">
<path fill-rule="evenodd" clip-rule="evenodd" d="M9.94708 2.35643C10.5322 1.77179 11.4781 1.77178 12.0633 2.35643L13.6541 3.94725C14.2387 4.53257 14.2391 5.4794 13.6541 6.06444L7.5838 12.1338C7.25959 12.4579 6.85987 12.683 6.42462 12.7949L3.7713 13.456H3.76837C3.03445 13.6346 2.37628 12.9761 2.5545 12.2422V12.2392L3.21563 9.58593C3.32756 9.15066 3.5526 8.75096 3.87677 8.42675L4.09942 8.20311C4.11387 8.18368 4.12867 8.16411 4.1463 8.14647C4.16423 8.12854 4.18412 8.11326 4.20392 8.09862L9.09942 3.20311C9.11387 3.18368 9.12867 3.16411 9.1463 3.14647C9.16423 3.12854 9.18412 3.11326 9.20392 3.09862L9.94708 2.35643ZM4.50958 9.21678C4.35445 9.39628 4.24325 9.60604 4.18438 9.83495L3.5252 12.4775L3.52618 12.4785L3.5252 12.4824L3.52716 12.4853L6.1756 11.8252C6.40436 11.7663 6.61236 11.6538 6.79181 11.499L4.50958 9.21678ZM5.21173 8.50487L7.5047 10.7978L11.7977 6.50487L9.5047 4.2119L5.21173 8.50487ZM11.3563 3.06444C11.1615 2.8697 10.8488 2.8697 10.6541 3.06444L10.2117 3.50487L12.5047 5.79784L12.9471 5.35643C13.1411 5.16189 13.141 4.84892 12.9471 4.65428L11.3563 3.06444Z" fill="currentColor"/>
</svg>
