<svg width="16" height="16" viewBox="0 0 16 16" fill="none" xmlns="http://www.w3.org/2000/svg">
<path d="M9.94629 2.35594C10.5315 1.77105 11.4783 1.77106 12.0635 2.35594L13.6533 3.94676C14.2384 4.53204 14.2385 5.47875 13.6533 6.06395L5.86328 13.854C5.76955 13.9475 5.6422 13.9995 5.50977 13.9995H2.50977C2.23374 13.9994 2.00977 13.7756 2.00977 13.4995V10.4995C2.0099 10.3671 2.06267 10.2396 2.15625 10.146L8.60449 3.69676C8.61759 3.67972 8.63089 3.66257 8.64648 3.64696C8.66201 3.63143 8.67935 3.61802 8.69629 3.60497L9.94629 2.35594ZM3.70801 12.9995H5.30273L11.2969 7.00438L10.5 6.2075L3.70801 12.9995ZM3.00977 10.7075V12.2837L9.79297 5.50047L9.00488 4.71239L3.00977 10.7075ZM11.3564 3.06395C11.1617 2.86934 10.848 2.86926 10.6533 3.06395L9.71191 4.00536L12.0039 6.29735L12.9463 5.35594C13.1407 5.16124 13.1408 4.84845 12.9463 4.65379L11.3564 3.06395Z" fill="currentColor"/>
</svg>
