<svg width="16" height="16" viewBox="0 0 16 16" fill="none" xmlns="http://www.w3.org/2000/svg">
<path fill-rule="evenodd" clip-rule="evenodd" d="M11.5093 12.5098C10.0834 12.5098 8.83057 11.4923 8.57669 10.0781C8.31389 8.62843 8.76596 7.26469 9.33353 6.20703C9.90318 5.14553 10.6167 4.341 10.9576 3.98437L10.9585 3.98535C11.1414 3.78965 11.3896 3.67062 11.6538 3.64551C11.6915 3.63654 11.7298 3.6299 11.7691 3.62988C12.6252 3.62988 13.1717 4.57358 12.7163 5.32031L12.7154 5.32129C12.4412 5.7692 12.2606 6.21899 12.149 6.55859C12.1468 6.56506 12.1452 6.57175 12.1431 6.57812C13.495 6.86931 14.5093 8.07114 14.5093 9.50977C14.5092 11.1659 13.1654 12.5098 11.5093 12.5098ZM11.5093 11.5098C12.6131 11.5098 13.5092 10.6136 13.5093 9.50977C13.5093 8.40591 12.6132 7.50977 11.5093 7.50977C11.3608 7.50977 11.2195 7.4433 11.1245 7.3291C11.0299 7.21501 10.9912 7.06474 11.0181 6.91895L11.0181 6.91602C11.0183 6.91507 11.0188 6.91347 11.0191 6.91211C11.0196 6.90922 11.0201 6.90493 11.021 6.90039C11.0229 6.89085 11.0253 6.87764 11.0288 6.86133C11.0359 6.82816 11.0466 6.78106 11.0611 6.72266C11.0899 6.60588 11.1354 6.44188 11.1997 6.24609C11.328 5.85591 11.5373 5.33059 11.8628 4.79883C11.8853 4.76151 11.8843 4.72389 11.8638 4.6875C11.8486 4.6606 11.8273 4.64372 11.8023 4.63574C11.788 4.63698 11.7738 4.63965 11.7593 4.63965C11.7254 4.63965 11.7006 4.65423 11.688 4.66797L11.6812 4.67578C11.3719 4.99931 10.7255 5.72928 10.2154 6.67969C9.70312 7.63425 9.35426 8.76054 9.56107 9.90039C9.72728 10.8261 10.5553 11.5098 11.5093 11.5098Z" fill="currentColor"/>
<path fill-rule="evenodd" clip-rule="evenodd" d="M4.50931 12.5098C3.08336 12.5098 1.83057 11.4923 1.57669 10.0781C1.31389 8.62843 1.76596 7.26469 2.33353 6.20703C2.90318 5.14553 3.61669 4.341 3.95755 3.98437L3.95853 3.98535C4.14136 3.78965 4.38959 3.67062 4.65384 3.64551C4.69145 3.63654 4.72977 3.6299 4.76907 3.62988C5.62516 3.62988 6.17166 4.57358 5.71634 5.32031L5.71536 5.32129C5.44121 5.7692 5.26061 6.21899 5.14896 6.55859C5.14684 6.56506 5.14517 6.57175 5.1431 6.57812C6.495 6.86931 7.50931 8.07114 7.50931 9.50977C7.50924 11.1659 6.16541 12.5098 4.50931 12.5098ZM4.50931 11.5098C5.61312 11.5098 6.50924 10.6136 6.50931 9.50976C6.50931 8.40591 5.61317 7.50976 4.50931 7.50976C4.36076 7.50976 4.21954 7.4433 4.12454 7.3291C4.02986 7.21501 3.99118 7.06474 4.0181 6.91894L4.0181 6.91601C4.01828 6.91507 4.0188 6.91347 4.01907 6.91211C4.01963 6.90922 4.02013 6.90493 4.02103 6.90039C4.02293 6.89085 4.02535 6.87764 4.02884 6.86133C4.03595 6.82815 4.04664 6.78106 4.06107 6.72266C4.08992 6.60588 4.13537 6.44188 4.19974 6.24609C4.32802 5.85591 4.53728 5.33059 4.86282 4.79883C4.88531 4.76151 4.88428 4.72388 4.8638 4.6875C4.84859 4.6606 4.82729 4.64372 4.80228 4.63574C4.78798 4.63698 4.77377 4.63965 4.75931 4.63965C4.72542 4.63965 4.70061 4.65423 4.68802 4.66797L4.68118 4.67578C4.37194 4.99931 3.72547 5.72928 3.21536 6.67969C2.70312 7.63425 2.35426 8.76054 2.56107 9.90039C2.72728 10.8261 3.55533 11.5098 4.50931 11.5098Z" fill="currentColor"/>
</svg>
