<svg width="16" height="16" viewBox="0 0 16 16" fill="none" xmlns="http://www.w3.org/2000/svg">
<path d="M13 11.5C13.2761 11.5 13.5 11.7239 13.5 12C13.5 12.2761 13.2761 12.5 13 12.5H7.99999C7.72386 12.5 7.49999 12.2761 7.49999 12C7.49999 11.7239 7.72386 11.5 7.99999 11.5H13Z" fill="black"/>
<path fill-rule="evenodd" clip-rule="evenodd" d="M5.23339 5.79102C5.75809 5.42389 6.49022 5.78785 6.49022 6.44043V9.56055C6.4898 10.1678 5.77855 10.6164 5.22948 10.2051V10.207L3.05272 8.64746L3.05175 8.64844C2.59994 8.32919 2.59986 7.66098 3.05175 7.3418C3.07528 7.3252 3.10048 7.31094 3.12597 7.29883L5.22948 5.79395L5.23339 5.79102ZM3.86425 8L5.49022 9.16309V6.83594L3.86425 8Z" fill="black"/>
<path d="M13 8.83008C13.2761 8.83008 13.5 9.05394 13.5 9.33008C13.4999 9.60618 13.2761 9.83008 13 9.83008H7.99999C7.72389 9.83007 7.50004 9.60617 7.49999 9.33008C7.49999 9.05394 7.72386 8.83009 7.99999 8.83008H13Z" fill="black"/>
<path d="M13 6.16992C13.2761 6.16992 13.4999 6.39382 13.5 6.66992C13.5 6.94606 13.2761 7.16992 13 7.16992H7.99999C7.72386 7.16991 7.49999 6.94606 7.49999 6.66992C7.50004 6.39383 7.72389 6.16993 7.99999 6.16992H13Z" fill="black"/>
<path d="M13 3.5C13.2761 3.5 13.5 3.72386 13.5 4C13.5 4.27614 13.2761 4.5 13 4.5H7.99999C7.72386 4.49999 7.49999 4.27614 7.49999 4C7.49999 3.72386 7.72386 3.50001 7.99999 3.5H13Z" fill="black"/>
</svg>
