<svg width="16" height="16" viewBox="0 0 16 16" fill="none" xmlns="http://www.w3.org/2000/svg">
<path fill-rule="evenodd" clip-rule="evenodd" d="M9.79688 2.99652C10.6821 2.11144 12.1187 2.11134 13.0039 2.99652C13.8889 3.88175 13.8889 5.31835 13.0039 6.20355L10.957 8.25043L11.8535 9.14691C12.0486 9.34219 12.0487 9.65875 11.8535 9.85394C11.6583 10.0489 11.3417 10.0489 11.1465 9.85394L10.25 8.95746L6.37402 12.8334C5.95175 13.2557 5.37424 13.5004 4.76953 13.5004H3C2.72401 13.5004 2.50025 13.2764 2.5 13.0004V11.2299C2.50002 10.6253 2.7439 10.0486 3.16602 9.6264L7.04199 5.74945L6.14648 4.85394C5.95129 4.65875 5.95143 4.34219 6.14648 4.14691C6.34175 3.95165 6.65825 3.95165 6.85352 4.14691L7.74902 5.04242L9.79688 2.99652ZM3.87402 10.3334C3.63631 10.5711 3.50002 10.8947 3.5 11.2299V12.5004H4.76953C5.10472 12.5004 5.4283 12.364 5.66602 12.1264L9.54199 8.24945L7.75 6.45746L3.87402 10.3334ZM12.2969 3.70355C11.8022 3.20889 10.9987 3.209 10.5039 3.70355L8.45703 5.75043L10.249 7.54242L12.2969 5.49652C12.7914 5.00185 12.7913 4.19825 12.2969 3.70355Z" fill="currentColor"/>
</svg>
