<svg width="16" height="16" viewBox="0 0 16 16" fill="none" xmlns="http://www.w3.org/2000/svg">
<path d="M11 12.4997C11.2761 12.4997 11.4999 12.7237 11.5 12.9997C11.5 13.2759 11.2761 13.4997 11 13.4997H3C2.72386 13.4997 2.5 13.2759 2.5 12.9997C2.50014 12.7237 2.72394 12.4997 3 12.4997H11Z" fill="black"/>
<path d="M13 10.4997C13.2761 10.4997 13.4999 10.7237 13.5 10.9997C13.5 11.2759 13.2761 11.4997 13 11.4997H3C2.72386 11.4997 2.5 11.2759 2.5 10.9997C2.50014 10.7237 2.72394 10.4997 3 10.4997H13Z" fill="black"/>
<path fill-rule="evenodd" clip-rule="evenodd" d="M6.94629 2.35619C7.53152 1.77127 8.4783 1.77118 9.06348 2.35619L9.65332 2.94701C10.2384 3.53229 10.2385 4.479 9.65332 5.0642L5.36328 9.35424C5.26956 9.4477 5.14214 9.49975 5.00977 9.49975H3.00977C2.73381 9.49961 2.50989 9.2757 2.50977 8.99975V6.99975C2.50989 6.86741 2.56274 6.73987 2.65625 6.64623L6.94629 2.35619ZM8.35645 3.0642C8.16171 2.86947 7.84805 2.86946 7.65332 3.0642L3.50977 7.20775V8.49975H4.80273L8.94629 4.35619C9.14068 4.1615 9.14074 3.8487 8.94629 3.65404L8.35645 3.0642Z" fill="black"/>
</svg>
