<svg width="16" height="16" viewBox="0 0 16 16" fill="none" xmlns="http://www.w3.org/2000/svg">
<path fill-rule="evenodd" clip-rule="evenodd" d="M9.94629 2.35619C10.5315 1.77126 11.4783 1.77119 12.0635 2.35619L13.6533 3.94701C14.2384 4.53229 14.2385 5.479 13.6533 6.0642L6.36328 13.3542C6.26956 13.4477 6.14215 13.4997 6.00977 13.4997H3.00977C2.73381 13.4996 2.50989 13.2757 2.50977 12.9997V9.99975C2.50989 9.86742 2.56274 9.73987 2.65625 9.64623L9.94629 2.35619ZM11.3564 3.0642C11.1617 2.86947 10.8481 2.86947 10.6533 3.0642L3.50977 10.2078V12.4997H5.80273L12.9463 5.35619C13.1407 5.16149 13.1408 4.8487 12.9463 4.65404L11.3564 3.0642Z" fill="black"/>
</svg>
