<svg width="16" height="16" viewBox="0 0 16 16" fill="none" xmlns="http://www.w3.org/2000/svg">
<path fill-rule="evenodd" clip-rule="evenodd" d="M7.76185 6.11523C8.34757 5.52964 9.29718 5.5297 9.88294 6.11523C10.4687 6.70098 10.4686 7.65053 9.88294 8.23633L4.72864 13.3916C4.14286 13.9774 3.19236 13.9774 2.60657 13.3916C2.02111 12.8059 2.0212 11.8563 2.60657 11.2705L7.76185 6.11523ZM3.31458 11.9775C3.11932 12.1728 3.11932 12.4893 3.31458 12.6846C3.50987 12.8796 3.82644 12.8797 4.02161 12.6846L7.41419 9.29102L6.70716 8.58398L3.31458 11.9775ZM9.17591 6.82227C8.98067 6.62725 8.66408 6.62719 8.46888 6.82227L7.41419 7.87695L8.12122 8.58398L9.17591 7.5293C9.37105 7.33403 9.37113 7.01749 9.17591 6.82227Z" fill="black"/>
<path d="M11.1163 9.11621C11.3115 8.92108 11.6281 8.92118 11.8234 9.11621L12.8937 10.1865C13.0886 10.3818 13.0888 10.6984 12.8937 10.8936C12.6985 11.0887 12.3819 11.0885 12.1867 10.8936L11.1163 9.82324C10.9213 9.62796 10.9211 9.3114 11.1163 9.11621Z" fill="black"/>
<path d="M14.0001 6.5C14.2762 6.50006 14.5001 6.7239 14.5001 7C14.5001 7.2761 14.2762 7.49994 14.0001 7.5H12.5001C12.224 7.5 12.0001 7.27614 12.0001 7C12.0001 6.72386 12.224 6.5 12.5001 6.5H14.0001Z" fill="black"/>
<path d="M5.10657 3.10645C5.30184 2.91125 5.61836 2.9112 5.8136 3.10645L6.88392 4.17676C7.07882 4.37203 7.079 4.68863 6.88392 4.88379C6.68877 5.07894 6.37217 5.07871 6.17689 4.88379L5.10657 3.81348C4.91131 3.61821 4.91131 3.30171 5.10657 3.10645Z" fill="black"/>
<path d="M12.1867 3.10645C12.3819 2.91138 12.6985 2.91135 12.8937 3.10645C13.0887 3.30167 13.0887 3.61825 12.8937 3.81348L11.8234 4.88379C11.6281 5.07879 11.3115 5.07882 11.1163 4.88379C10.9213 4.68859 10.9213 4.372 11.1163 4.17676L12.1867 3.10645Z" fill="black"/>
<path d="M9.00013 1.5C9.27622 1.50006 9.50013 1.7239 9.50013 2V3.5C9.50013 3.7761 9.27622 3.99994 9.00013 4C8.72399 4 8.50013 3.77614 8.50013 3.5V2C8.50013 1.72386 8.72399 1.5 9.00013 1.5Z" fill="black"/>
</svg>
