<svg width="16" height="16" viewBox="0 0 16 16" fill="none" xmlns="http://www.w3.org/2000/svg">
<path fill-rule="evenodd" clip-rule="evenodd" d="M9.94629 2.3562C10.5315 1.77126 11.4783 1.77118 12.0635 2.3562L13.6533 3.94702C14.2384 4.53229 14.2385 5.479 13.6533 6.0642L6.36328 13.3542C6.26956 13.4477 6.14215 13.4998 6.00977 13.4998H3.00977C2.7338 13.4996 2.50989 13.2757 2.50977 12.9998V9.99975C2.50989 9.86742 2.56273 9.73987 2.65625 9.64624L8.60352 3.69897C8.61707 3.68117 8.63023 3.66249 8.64648 3.64624C8.6626 3.63013 8.68061 3.61671 8.69824 3.60327L9.94629 2.3562ZM3.50977 10.2078V12.4998H5.80273L11.2979 7.00463L9.00488 4.71167L3.50977 10.2078ZM11.3564 3.0642C11.1617 2.86947 10.8481 2.86947 10.6533 3.0642L9.71191 4.00463L12.0049 6.2976L12.9463 5.3562C13.1407 5.1615 13.1408 4.84871 12.9463 4.65405L11.3564 3.0642Z" fill="currentColor"/>
</svg>
