<svg width="16" height="16" viewBox="0 0 16 16" fill="none" xmlns="http://www.w3.org/2000/svg">
<path fill-rule="evenodd" clip-rule="evenodd" d="M9.94615 2.35619C10.5314 1.77128 11.4782 1.77123 12.0633 2.35619L13.6532 3.94701C14.2383 4.53229 14.2384 5.479 13.6532 6.0642L12.4002 7.31615L10.8368 10.4343C10.5259 11.0554 9.9651 11.53 9.28599 11.7195L9.28697 11.7204L3.13755 13.4802C3.12985 13.4824 3.12187 13.4833 3.11412 13.4851C3.10437 13.4874 3.09466 13.4893 3.08482 13.491C3.05712 13.4957 3.02953 13.4987 3.00181 13.4988C2.99757 13.4988 2.99336 13.4989 2.98912 13.4988C2.96608 13.4983 2.94339 13.4956 2.92076 13.4919C2.91058 13.4903 2.90056 13.4883 2.89048 13.4861C2.86659 13.4807 2.84305 13.4744 2.82017 13.4656C2.81255 13.4626 2.80521 13.4591 2.79771 13.4558C2.77746 13.4468 2.75812 13.4362 2.73912 13.4245C2.73067 13.4193 2.72192 13.4147 2.71372 13.4089C2.69012 13.3924 2.66713 13.374 2.64634 13.3533C2.62647 13.3334 2.60958 13.3113 2.59361 13.2888C2.58664 13.279 2.57928 13.2697 2.5731 13.2595C2.54385 13.2113 2.5232 13.1588 2.51158 13.1042C2.51019 13.0977 2.50879 13.0913 2.50767 13.0847C2.49812 13.029 2.49783 12.9716 2.50767 12.9148C2.50902 12.9069 2.51082 12.8992 2.51255 12.8913C2.51471 12.8817 2.51664 12.8717 2.51939 12.862L4.27915 6.71263L4.28013 6.70775C4.4782 6.03949 4.93826 5.47667 5.56529 5.16283L8.72349 3.57787L9.94615 2.35619ZM6.01451 6.05638L6.01353 6.05736C5.64125 6.24355 5.361 6.58078 5.23912 6.99193L4.0106 11.281L6.64634 8.64623C6.84155 8.45107 7.15812 8.45114 7.35337 8.64623C7.54862 8.84147 7.54858 9.15799 7.35337 9.35326L4.71861 11.987L9.01255 10.7595L9.01646 10.7576C9.41556 10.6465 9.7535 10.3635 9.94224 9.98607L11.3934 7.09154L8.90708 4.60521L6.01451 6.05638ZM11.3563 3.0642C11.1616 2.86952 10.8479 2.86948 10.6532 3.0642L9.71665 3.99974L12.0096 6.29271L12.9461 5.35619C13.1405 5.16149 13.1406 4.8487 12.9461 4.65404L11.3563 3.0642Z" fill="black"/>
</svg>
