<svg width="16" height="16" viewBox="0 0 16 16" fill="none" xmlns="http://www.w3.org/2000/svg">
<path d="M8 11.5C8.27614 11.5 8.5 11.7239 8.5 12C8.5 12.2761 8.27614 12.5 8 12.5H3C2.72386 12.5 2.5 12.2761 2.5 12C2.5 11.7239 2.72386 11.5 3 11.5H8Z" fill="currentColor"/>
<path fill-rule="evenodd" clip-rule="evenodd" d="M12.2334 5.79102C12.7581 5.4239 13.4902 5.78786 13.4902 6.44043V9.56055C13.4898 10.1678 12.7786 10.6164 12.2295 10.2051V10.207L10.0527 8.64746L10.0518 8.64844C9.59995 8.32919 9.59987 7.66098 10.0518 7.3418C10.0753 7.3252 10.1005 7.31093 10.126 7.29883L12.2295 5.79395L12.2334 5.79102ZM10.8643 8L12.4902 9.16309V6.83594L10.8643 8Z" fill="currentColor"/>
<path d="M8 8.83008C8.27614 8.83008 8.5 9.05394 8.5 9.33008C8.49995 9.60618 8.27611 9.83008 8 9.83008H3C2.72389 9.83008 2.50005 9.60618 2.5 9.33008C2.5 9.05394 2.72386 8.83008 3 8.83008H8Z" fill="currentColor"/>
<path d="M8 6.16992C8.27611 6.16992 8.49995 6.39382 8.5 6.66992C8.5 6.94606 8.27614 7.16992 8 7.16992H3C2.72386 7.16992 2.5 6.94606 2.5 6.66992C2.50005 6.39382 2.72389 6.16992 3 6.16992H8Z" fill="currentColor"/>
<path d="M8 3.5C8.27614 3.5 8.5 3.72386 8.5 4C8.5 4.27614 8.27614 4.5 8 4.5H3C2.72386 4.5 2.5 4.27614 2.5 4C2.5 3.72386 2.72386 3.5 3 3.5H8Z" fill="currentColor"/>
</svg>
