<svg width="16" height="16" viewBox="0 0 16 16" fill="none" xmlns="http://www.w3.org/2000/svg">
<path d="M13 11.5C13.2761 11.5 13.5 11.7239 13.5 12C13.5 12.2761 13.2761 12.5 13 12.5H8C7.72386 12.5 7.5 12.2761 7.5 12C7.5 11.7239 7.72386 11.5 8 11.5H13Z" fill="currentColor"/>
<path fill-rule="evenodd" clip-rule="evenodd" d="M2.50977 6.44043C2.50977 5.82855 3.15323 5.47015 3.66602 5.73047L3.7666 5.79102L3.77051 5.79395L5.87695 7.2998C5.90154 7.31166 5.92549 7.32574 5.94824 7.3418C6.39938 7.66035 6.39946 8.32551 5.9502 8.64551L5.95117 8.64648L3.77051 10.207L3.76953 10.2061C3.2206 10.6159 2.51018 10.1674 2.50977 9.56055V6.44043ZM3.50977 9.16309L5.13574 8L3.50977 6.83594V9.16309Z" fill="currentColor"/>
<path d="M13 8.83008C13.2761 8.83008 13.5 9.05394 13.5 9.33008C13.5 9.60618 13.2761 9.83008 13 9.83008H8C7.72389 9.83008 7.50005 9.60618 7.5 9.33008C7.5 9.05394 7.72386 8.83008 8 8.83008H13Z" fill="currentColor"/>
<path d="M13 6.16992C13.2761 6.16992 13.5 6.39382 13.5 6.66992C13.5 6.94606 13.2761 7.16992 13 7.16992H8C7.72386 7.16992 7.5 6.94606 7.5 6.66992C7.50005 6.39382 7.72389 6.16992 8 6.16992H13Z" fill="currentColor"/>
<path d="M13 3.5C13.2761 3.5 13.5 3.72386 13.5 4C13.5 4.27614 13.2761 4.5 13 4.5H8C7.72386 4.5 7.5 4.27614 7.5 4C7.5 3.72386 7.72386 3.5 8 3.5H13Z" fill="currentColor"/>
</svg>
