<svg width="16" height="16" viewBox="0 0 16 16" fill="none" xmlns="http://www.w3.org/2000/svg">
<path d="M8 11.5C8.27614 11.5 8.5 11.7239 8.5 12C8.5 12.2761 8.27614 12.5 8 12.5H3C2.72386 12.5 2.5 12.2761 2.5 12C2.5 11.7239 2.72386 11.5 3 11.5H8Z" fill="black"/>
<path fill-rule="evenodd" clip-rule="evenodd" d="M9.50977 6.44043C9.50977 5.82855 10.1532 5.47016 10.666 5.73047L10.7666 5.79102L10.7705 5.79395L12.877 7.2998C12.9015 7.31166 12.9255 7.32575 12.9482 7.3418C13.3994 7.66035 13.3995 8.32551 12.9502 8.64551L12.9512 8.64648L10.7705 10.207L10.7695 10.2061C10.2206 10.6159 9.51018 10.1674 9.50977 9.56055V6.44043ZM10.5098 9.16309L12.1357 8L10.5098 6.83594V9.16309Z" fill="black"/>
<path d="M8 8.83008C8.27614 8.83008 8.5 9.05394 8.5 9.33008C8.49995 9.60618 8.27611 9.83008 8 9.83008H3C2.72389 9.83008 2.50005 9.60618 2.5 9.33008C2.5 9.05394 2.72386 8.83008 3 8.83008H8Z" fill="black"/>
<path d="M8 6.16992C8.27611 6.16992 8.49995 6.39382 8.5 6.66992C8.5 6.94606 8.27614 7.16992 8 7.16992H3C2.72386 7.16992 2.5 6.94606 2.5 6.66992C2.50005 6.39382 2.72389 6.16992 3 6.16992H8Z" fill="black"/>
<path d="M8 3.5C8.27614 3.5 8.5 3.72386 8.5 4C8.5 4.27614 8.27614 4.5 8 4.5H3C2.72386 4.5 2.5 4.27614 2.5 4C2.5 3.72386 2.72386 3.5 3 3.5H8Z" fill="black"/>
</svg>
