<svg width="16" height="16" viewBox="0 0 16 16" fill="none" xmlns="http://www.w3.org/2000/svg">
<path fill-rule="evenodd" clip-rule="evenodd" d="M12 2.5C12.2761 2.5 12.5 2.72386 12.5 3V4H13C13.826 4.00013 14.5 4.67394 14.5 5.5V6.65039C14.4998 7.38201 13.9756 8.01359 13.2412 8.13379L13.2402 8.13281L8.91211 8.85352C8.67155 8.8938 8.49043 9.10631 8.49023 9.34961V9.5H9C9.27614 9.5 9.5 9.72386 9.5 10V14C9.5 14.2761 9.27614 14.5 9 14.5H7C6.72386 14.5 6.5 14.2761 6.5 14V10C6.5 9.72386 6.72386 9.5 7 9.5H7.49023V9.34961C7.49043 8.61339 8.02908 7.98704 8.74805 7.86719L13.0781 7.14648H13.0801C13.3248 7.10622 13.4998 6.89802 13.5 6.65039V5.5C13.5 5.22622 13.2737 5.00013 13 5H12.5V6C12.5 6.27614 12.2761 6.5 12 6.5H3C2.72386 6.5 2.5 6.27614 2.5 6V3C2.5 2.72386 2.72386 2.5 3 2.5H12ZM7.5 13.5H8.5V10.5H7.5V13.5ZM3.5 5.5H11.5V3.5H3.5V5.5Z" fill="black"/>
</svg>
