<svg width="16" height="16" viewBox="0 0 16 16" fill="none" xmlns="http://www.w3.org/2000/svg">
<path fill-rule="evenodd" clip-rule="evenodd" d="M13 1.5C13.8261 1.5 14.5 2.17386 14.5 3V5C14.5 5.82614 13.8261 6.5 13 6.5H6.5V13C6.5 13.8261 5.82614 14.5 5 14.5H3C2.17386 14.5 1.5 13.8261 1.5 13V3C1.5 2.17386 2.17386 1.5 3 1.5H13ZM3 2.5C2.72614 2.5 2.5 2.72614 2.5 3V5.5H3C3.27614 5.5 3.5 5.72386 3.5 6C3.5 6.27614 3.27614 6.5 3 6.5H2.5V7.5H3C3.27614 7.5 3.5 7.72386 3.5 8C3.5 8.27614 3.27614 8.5 3 8.5H2.5V9.5H3C3.27614 9.5 3.5 9.72386 3.5 10C3.5 10.2761 3.27614 10.5 3 10.5H2.5V11.5H3C3.27614 11.5 3.5 11.7239 3.5 12C3.5 12.2761 3.27614 12.5 3 12.5H2.5V13C2.5 13.2739 2.72614 13.5 3 13.5H5C5.27386 13.5 5.5 13.2739 5.5 13V6C5.5 5.72386 5.72386 5.5 6 5.5H13C13.2739 5.5 13.5 5.27386 13.5 5V3C13.5 2.72614 13.2739 2.5 13 2.5H12.5V3C12.5 3.27614 12.2761 3.5 12 3.5C11.7239 3.5 11.5 3.27614 11.5 3V2.5H10.5V3C10.5 3.27614 10.2761 3.5 10 3.5C9.72386 3.5 9.5 3.27614 9.5 3V2.5H8.5V3C8.5 3.27614 8.27614 3.5 8 3.5C7.72386 3.5 7.5 3.27614 7.5 3V2.5H6.5V3C6.5 3.27614 6.27614 3.5 6 3.5C5.72386 3.5 5.5 3.27614 5.5 3V2.5H3Z" fill="black"/>
</svg>
