<svg width="16" height="16" viewBox="0 0 16 16" fill="none" xmlns="http://www.w3.org/2000/svg">
<path fill-rule="evenodd" clip-rule="evenodd" d="M11 2C11.28 2 11.5 2.22 11.5 2.5V3H13C13.55 3 14 3.45 14 4V13C14 13.55 13.55 14 13 14H3C2.45 14 2 13.55 2 13V4C2 3.45 2.45 3 3 3H4.5V2.5C4.5 2.22 4.72 2 5 2C5.28 2 5.5 2.22 5.5 2.5V3H7.5V2.5C7.5 2.22 7.72 2 8 2C8.28 2 8.5 2.22 8.5 2.5V3H10.5V2.5C10.5 2.22 10.72 2 11 2ZM8 10C7.59 10 7.25 10.34 7.25 10.75C7.25 11.16 7.59 11.5 8 11.5C8.41 11.5 8.75 11.16 8.75 10.75C8.75 10.34 8.41 10 8 10ZM8.00977 5.5C7.61457 5.50558 7.30033 5.83389 7.33008 6.23047L7.48047 8.5C7.50048 8.7799 7.72989 8.99987 8.00977 9C8.28977 9 8.52004 8.78 8.54004 8.5L8.69043 6.23047C8.71027 5.84365 8.40503 5.50548 8.00977 5.5Z" fill="currentColor"/>
</svg>
