<svg width="16" height="16" viewBox="0 0 16 16" fill="none" xmlns="http://www.w3.org/2000/svg">
<path fill-rule="evenodd" clip-rule="evenodd" d="M11 2C11.28 2 11.5 2.22 11.5 2.5V3H13C13.55 3 14 3.45 14 4V13C14 13.55 13.55 14 13 14H3C2.45 14 2 13.55 2 13V4C2 3.45 2.45 3 3 3H4.5V2.5C4.5 2.22 4.72 2 5 2C5.28 2 5.5 2.22 5.5 2.5V3H7.5V2.5C7.5 2.22 7.72 2 8 2C8.28 2 8.5 2.22 8.5 2.5V3H10.5V2.5C10.5 2.22 10.72 2 11 2ZM8 6C7.72 6 7.5 6.22 7.5 6.5V8H6C5.72 8 5.5 8.22 5.5 8.5C5.5 8.78 5.72 9 6 9H7.5V10.5C7.5 10.78 7.72 11 8 11C8.28 11 8.5 10.78 8.5 10.5V9H10C10.28 9 10.5 8.78 10.5 8.5C10.5 8.22 10.28 8 10 8H8.5V6.5C8.5 6.22 8.28 6 8 6Z" fill="black"/>
</svg>
