<svg width="16" height="16" viewBox="0 0 16 16" fill="none" xmlns="http://www.w3.org/2000/svg">
<path d="M9.25 8.86035C9.5647 8.86035 9.82015 9.11502 9.82031 9.42969C9.82031 9.74449 9.5648 10 9.25 10C8.9352 10 8.67969 9.74449 8.67969 9.42969C8.67985 9.11502 8.9353 8.86035 9.25 8.86035Z" fill="black"/>
<path d="M9.25 7C9.48738 7 9.67952 7.19235 9.67969 7.42969C9.67969 7.66717 9.48748 7.86035 9.25 7.86035C9.01252 7.86035 8.82031 7.66717 8.82031 7.42969C8.82048 7.19235 9.01262 7 9.25 7Z" fill="black"/>
<path fill-rule="evenodd" clip-rule="evenodd" d="M11 2C11.28 2 11.5 2.22 11.5 2.5V3H13C13.55 3 14 3.45 14 4V13C14 13.55 13.55 14 13 14H3C2.45 14 2 13.55 2 13V4C2 3.45 2.45 3 3 3H4.5V2.5C4.5 2.22 4.72 2 5 2C5.28 2 5.5 2.22 5.5 2.5V3H7.5V2.5C7.5 2.22 7.72 2 8 2C8.28 2 8.5 2.22 8.5 2.5V3H10.5V2.5C10.5 2.22 10.72 2 11 2ZM6.44043 6.03027C6.26059 5.95034 6.04041 5.99993 5.90039 6.13965L5.19043 6.84961C4.99043 7.04961 4.99043 7.35957 5.19043 7.55957C5.34041 7.70955 5.57001 7.75012 5.75 7.66016V10.5C5.75 10.78 5.97 11 6.25 11C6.53 11 6.75 10.78 6.75 10.5V6.49023C6.75 6.2904 6.63016 6.11037 6.44043 6.03027ZM9.25 6C8.4601 6 7.82048 6.63983 7.82031 7.42969C7.82031 7.76963 7.93971 8.0801 8.13965 8.33008C7.84986 8.60999 7.67977 8.99992 7.67969 9.42969C7.67969 10.2997 8.39 11 9.25 11C10.12 11 10.8203 10.2897 10.8203 9.42969C10.8202 8.99992 10.6402 8.60999 10.3604 8.33008C10.5603 8.0801 10.6797 7.76963 10.6797 7.42969C10.6795 6.63983 10.0399 6 9.25 6Z" fill="black"/>
</svg>
