<svg width="16" height="16" viewBox="0 0 16 16" fill="none" xmlns="http://www.w3.org/2000/svg">
<path fill-rule="evenodd" clip-rule="evenodd" d="M11 2C11.28 2 11.5 2.22 11.5 2.5V3H13C13.55 3 14 3.45 14 4V13C14 13.55 13.55 14 13 14H3C2.45 14 2 13.55 2 13V4C2 3.45 2.45 3 3 3H4.5V2.5C4.5 2.22 4.72 2 5 2C5.28 2 5.5 2.22 5.5 2.5V3H7.5V2.5C7.5 2.22 7.72 2 8 2C8.28 2 8.5 2.22 8.5 2.5V3H10.5V2.5C10.5 2.22 10.72 2 11 2ZM8 10C7.59 10 7.25 10.34 7.25 10.75C7.25 11.16 7.59 11.5 8 11.5C8.41 11.5 8.75 11.16 8.75 10.75C8.75 10.34 8.41 10 8 10ZM8.00977 5.49023C7.11988 5.49037 6.38965 6.22043 6.38965 7.11035C6.38983 7.39006 6.60994 7.61016 6.88965 7.61035C7.16953 7.61035 7.38946 7.39018 7.38965 7.11035C7.38965 6.77043 7.66988 6.49037 8.00977 6.49023C8.34977 6.49023 8.62988 6.77012 8.62988 7.12012C8.62982 7.31008 8.46972 7.49986 8.25977 7.58984L8.08008 7.66992C7.73008 7.81992 7.50977 8.15027 7.50977 8.53027V8.80957C7.50977 9.08949 7.72988 9.30944 8.00977 9.30957C8.28977 9.30957 8.50977 9.08957 8.50977 8.80957L8.45996 8.59961L8.63965 8.51953L8.65039 8.50977C9.24006 8.25974 9.62973 7.72007 9.62988 7.11035C9.62988 6.22035 8.89977 5.49023 8.00977 5.49023Z" fill="black"/>
</svg>
