<svg width="16" height="16" viewBox="0 0 16 16" fill="none" xmlns="http://www.w3.org/2000/svg">
<path fill-rule="evenodd" clip-rule="evenodd" d="M11 2C11.28 2 11.5 2.22 11.5 2.5V3H13C13.55 3 14 3.45 14 4V13C14 13.55 13.55 14 13 14H3C2.45 14 2 13.55 2 13V4C2 3.45 2.45 3 3 3H4.5V2.5C4.5 2.22 4.72 2 5 2C5.28 2 5.5 2.22 5.5 2.5V3H7.5V2.5C7.5 2.22 7.72 2 8 2C8.28 2 8.5 2.22 8.5 2.5V3H10.5V2.5C10.5 2.22 10.72 2 11 2ZM7 8C6.72 8 6.5 8.22 6.5 8.5C6.5 8.78 6.72 9 7 9H7.5V10.5H7C6.72 10.5 6.5 10.72 6.5 11C6.5 11.28 6.72 11.5 7 11.5H9C9.28 11.5 9.5 11.28 9.5 11C9.5 10.72 9.28 10.5 9 10.5H8.5V8.5C8.5 8.22 8.28 8 8 8H7ZM8 5.5C7.59 5.5 7.25 5.84 7.25 6.25C7.25 6.66 7.59 7 8 7C8.41 7 8.75 6.66 8.75 6.25C8.75 5.84 8.41 5.5 8 5.5Z" fill="currentColor"/>
</svg>
