<svg width="16" height="16" viewBox="0 0 16 16" fill="none" xmlns="http://www.w3.org/2000/svg">
<path fill-rule="evenodd" clip-rule="evenodd" d="M11.5 8C13.16 8 14.5 9.34 14.5 11C14.5 12.66 13.16 14 11.5 14C9.84 14 8.5 12.66 8.5 11C8.5 9.34 9.84 8 11.5 8ZM11.5 9C11.22 9 11 9.22 11 9.5V11C11 11.13 11.0604 11.2596 11.1504 11.3496L12.1504 12.3496C12.2404 12.4496 12.38 12.5 12.5 12.5C12.62 12.5 12.7496 12.4496 12.8496 12.3496C13.0496 12.1496 13.0496 11.8396 12.8496 11.6396L12 10.79V9.5C12 9.22 11.78 9 11.5 9Z" fill="currentColor"/>
<path fill-rule="evenodd" clip-rule="evenodd" d="M10 2C10.28 2 10.5 2.22 10.5 2.5V3H12C12.55 3 13 3.45 13 4V7.2998C12.54 7.10982 12.03 7 11.5 7C9.29 7 7.5 8.79 7.5 11C7.5 11.7299 7.71963 12.41 8.05957 13H3C2.45 13 2 12.55 2 12V4C2 3.45 2.45 3 3 3H4.5V2.5C4.5 2.22 4.72 2 5 2C5.28 2 5.5 2.22 5.5 2.5V3H7V2.5C7 2.22 7.22 2 7.5 2C7.78 2 8 2.22 8 2.5V3H9.5V2.5C9.5 2.22 9.72 2 10 2ZM3.5 5C3.22 5 3 5.22 3 5.5C3 5.78 3.22 6 3.5 6H11.5C11.78 6 12 5.78 12 5.5C12 5.22 11.78 5 11.5 5H3.5Z" fill="currentColor"/>
</svg>
