<svg width="16" height="16" viewBox="0 0 16 16" fill="none" xmlns="http://www.w3.org/2000/svg">
<path fill-rule="evenodd" clip-rule="evenodd" d="M8 2C11.31 2 14 4.69 14 8C14 11.31 11.31 14 8 14C4.69 14 2 11.31 2 8C2 4.69 4.69 2 8 2ZM8 3.5C7.72 3.5 7.5 3.72 7.5 4V8C7.5 8.09 7.53031 8.17 7.57031 8.25L8.98047 10.7002C9.07052 10.86 9.24028 10.9502 9.41016 10.9502C9.49011 10.9502 9.58022 10.9298 9.66016 10.8799H9.66992C9.90992 10.7399 9.98961 10.4402 9.84961 10.2002L8.5 7.87012V4C8.5 3.72 8.28 3.5 8 3.5Z" fill="black"/>
</svg>
