<svg width="16" height="16" viewBox="0 0 16 16" fill="none" xmlns="http://www.w3.org/2000/svg">
<path fill-rule="evenodd" clip-rule="evenodd" d="M8 2C11.31 2 14 4.69 14 8C14 11.31 11.31 14 8 14C4.69 14 2 11.31 2 8C2 4.69 4.69 2 8 2ZM8 3.5C7.72 3.5 7.5 3.72 7.5 4V7.70996L5.2998 8.98047C5.06007 9.12055 4.98018 9.42027 5.12012 9.66016C5.21011 9.81999 5.37993 9.91009 5.5498 9.91016C5.62978 9.91016 5.71982 9.88982 5.7998 9.83984L8.25 8.42969C8.39992 8.33967 8.5 8.17994 8.5 8V4C8.5 3.72 8.28 3.5 8 3.5Z" fill="black"/>
</svg>
