<svg width="16" height="16" viewBox="0 0 16 16" fill="none" xmlns="http://www.w3.org/2000/svg">
<path fill-rule="evenodd" clip-rule="evenodd" d="M8 2C11.31 2 14 4.69 14 8C14 11.31 11.31 14 8 14C4.69 14 2 11.31 2 8C2 4.69 4.69 2 8 2ZM8 3.50977C7.72008 3.50977 7.50012 3.72988 7.5 4.00977V7.13965L5.7998 6.16016C5.55987 6.02024 5.26015 6.1 5.12012 6.33984C4.98018 6.57973 5.06007 6.87945 5.2998 7.01953L7.75 8.42969C7.83 8.47969 7.91 8.5 8 8.5C8.09 8.5 8.17 8.46969 8.25 8.42969C8.39992 8.33967 8.5 8.17994 8.5 8V4.00977C8.49988 3.72988 8.27992 3.50977 8 3.50977Z" fill="currentColor"/>
</svg>
