<svg width="16" height="16" viewBox="0 0 16 16" fill="none" xmlns="http://www.w3.org/2000/svg">
<path fill-rule="evenodd" clip-rule="evenodd" d="M8 2C11.31 2 14 4.69 14 8C14 11.31 11.31 14 8 14C4.69 14 2 11.31 2 8C2 4.69 4.69 2 8 2ZM8.00977 3.5C7.72988 3.50013 7.50977 3.72008 7.50977 4V8C7.50977 8.22 7.65988 8.42047 7.87988 8.48047C7.91979 8.50038 7.96984 8.5 8.00977 8.5C8.17977 8.5 8.35043 8.41 8.44043 8.25L9.84961 5.7998C9.98961 5.5598 9.90992 5.26012 9.66992 5.12012C9.43001 4.98018 9.13029 5.06001 8.99023 5.2998L8.50977 6.12988V4C8.50977 3.72 8.28977 3.5 8.00977 3.5Z" fill="black"/>
</svg>
