<svg width="16" height="16" viewBox="0 0 16 16" fill="none" xmlns="http://www.w3.org/2000/svg">
<path fill-rule="evenodd" clip-rule="evenodd" d="M8 2C11.31 2 14 4.69 14 8C14 11.31 11.31 14 8 14C4.69 14 2 11.31 2 8C2 4.69 4.69 2 8 2ZM8 3.5C7.72 3.5 7.5 3.72 7.5 4V8C7.5 8.17994 7.60008 8.33967 7.75 8.42969L10.2002 9.83984C10.2802 9.88982 10.3702 9.91016 10.4502 9.91016C10.6201 9.91009 10.7899 9.81999 10.8799 9.66016C11.0198 9.42027 10.9399 9.12055 10.7002 8.98047L8.5 7.70996V4C8.5 3.72 8.28 3.5 8 3.5Z" fill="black"/>
</svg>
