<svg width="16" height="16" viewBox="0 0 16 16" fill="none" xmlns="http://www.w3.org/2000/svg">
<path fill-rule="evenodd" clip-rule="evenodd" d="M9.5 1.99023C9.78 1.99023 10 2.21023 10 2.49023C9.99987 2.77012 9.77992 2.99023 9.5 2.99023H8.5V4.02441C9.50418 4.12425 10.4207 4.52257 11.1611 5.12793L11.8945 4.39453L11.1904 3.69043C10.9904 3.49043 10.9904 3.18047 11.1904 2.98047C11.3904 2.78047 11.7004 2.78047 11.9004 2.98047L14.0195 5.09961C14.2195 5.29961 14.2195 5.60957 14.0195 5.80957C13.8195 6.00956 13.5096 6.00957 13.3096 5.80957L12.6045 5.10449L11.8711 5.83789C12.5761 6.69978 13 7.80046 13 9C13 11.76 10.76 14 8 14C5.24 14 3 11.76 3 9C3 6.40873 4.97446 4.27552 7.5 4.02441V2.99023H6.5C6.22008 2.99023 6.00013 2.77012 6 2.49023C6 2.21023 6.22 1.99023 6.5 1.99023H9.5ZM10.0703 6.9502C9.87034 6.75022 9.56035 6.75028 9.36035 6.9502L8.02051 8.29004L6.67969 6.9502C6.47969 6.75025 6.16971 6.75021 5.96973 6.9502C5.76996 7.15019 5.76985 7.46023 5.96973 7.66016L7.30957 9L5.96973 10.3398C5.76985 10.5398 5.76996 10.8498 5.96973 11.0498C6.05973 11.1498 6.20031 11.2002 6.32031 11.2002C6.44023 11.2001 6.57001 11.1497 6.66992 11.0498L8.00977 9.70996L9.34961 11.0498C9.43961 11.1498 9.5802 11.2002 9.7002 11.2002C9.82014 11.2001 9.94986 11.1498 10.0498 11.0498C10.2498 10.8498 10.2498 10.5398 10.0498 10.3398H10.0703L8.73047 9L10.0703 7.66016C10.2702 7.46024 10.27 7.15018 10.0703 6.9502Z" fill="black"/>
</svg>
