<svg width="16" height="16" viewBox="0 0 16 16" fill="none" xmlns="http://www.w3.org/2000/svg">
<path fill-rule="evenodd" clip-rule="evenodd" d="M8 4.5C9.93 4.5 11.5 6.07 11.5 8C11.5 9.93 9.93 11.5 8 11.5C6.07 11.5 4.5 9.93 4.5 8C4.5 6.07 6.07 4.5 8 4.5ZM8 5.5C7.72 5.5 7.5 5.72 7.5 6V8C7.5 8.12999 7.5604 8.25961 7.65039 8.34961L8.65039 9.34961C8.74039 9.44961 8.88 9.5 9 9.5C9.12 9.5 9.24961 9.44961 9.34961 9.34961C9.5496 9.14961 9.54961 8.83964 9.34961 8.63965L8.5 7.79004V6C8.5 5.72 8.28 5.5 8 5.5Z" fill="black"/>
<path fill-rule="evenodd" clip-rule="evenodd" d="M8 2C11.31 2 14 4.69 14 8V13C14 13.55 13.55 14 13 14H3C2.45 14 2 13.55 2 13V8C2 4.69 4.69 2 8 2ZM8 3.5C5.52 3.5 3.5 5.52 3.5 8C3.5 10.48 5.52 12.5 8 12.5C10.48 12.5 12.5 10.48 12.5 8C12.5 5.52 10.48 3.5 8 3.5Z" fill="black"/>
</svg>
