<svg width="16" height="16" viewBox="0 0 16 16" fill="none" xmlns="http://www.w3.org/2000/svg">
<path fill-rule="evenodd" clip-rule="evenodd" d="M8 2C11.31 2 14 4.69 14 8C14 11.31 11.31 14 8 14C4.69 14 2 11.31 2 8C2 4.69 4.69 2 8 2ZM8 3.5C7.72 3.5 7.5 3.72 7.5 4V8C7.5 8.17994 7.60008 8.33967 7.75 8.42969C7.83 8.47969 7.91 8.5 8 8.5C8.09 8.5 8.17 8.46969 8.25 8.42969L10.7002 7.01953V7.00977C10.94 6.86971 11.0198 6.57 10.8799 6.33008C10.7399 6.09008 10.4402 6.01039 10.2002 6.15039L8.5 7.12988V4C8.5 3.72 8.28 3.5 8 3.5Z" fill="currentColor"/>
</svg>
