<svg width="16" height="16" viewBox="0 0 16 16" fill="none" xmlns="http://www.w3.org/2000/svg">
<path fill-rule="evenodd" clip-rule="evenodd" d="M8 2C11.31 2 14 4.69 14 8C14 11.31 11.31 14 8 14C4.69 14 2 11.31 2 8C2 4.69 4.69 2 8 2ZM8 3.5C7.72 3.5 7.5 3.72 7.5 4V6.12988L7.01953 5.2998C6.87945 5.06007 6.57973 4.98018 6.33984 5.12012C6.1 5.26014 6.02025 5.55987 6.16016 5.7998L7.57031 8.25C7.66033 8.40992 7.82005 8.5 8 8.5C8.03992 8.5 8.08992 8.49045 8.12988 8.48047C8.34988 8.42047 8.5 8.23 8.5 8V4C8.5 3.72 8.28 3.5 8 3.5Z" fill="black"/>
</svg>
