<svg width="16" height="16" viewBox="0 0 16 16" fill="none" xmlns="http://www.w3.org/2000/svg">
<path d="M9.34999 8.35C9.14999 8.15 9.14999 7.84 9.34999 7.64L10.58 6.41C11.49 5.5 11.99 4.28 11.99 3C11.99 2.45 11.54 2 10.99 2H4.98999C4.43999 2 3.98999 2.45 3.98999 3C3.98999 4.28 4.49999 5.51 5.39999 6.41L6.62999 7.64C6.82999 7.84 6.82999 8.15 6.62999 8.35L5.39999 9.58C4.48999 10.49 3.98999 11.71 3.98999 12.99C3.98999 13.54 4.43999 13.99 4.98999 13.99H10.99C11.54 13.99 11.99 13.54 11.99 12.99C11.99 11.71 11.48 10.48 10.58 9.58L9.34999 8.35ZM6.11999 5.71C6.02999 5.62 5.93999 5.52 5.85999 5.41C5.72999 5.24 5.84999 5 6.05999 5H9.94999C10.16 5 10.27 5.24 10.15 5.41C10.07 5.51 9.97999 5.61 9.88999 5.71L8.35999 7.24C8.15999 7.44 7.84999 7.44 7.64999 7.24L6.11999 5.71ZM10.4 13H5.60999C5.38999 13 5.27999 12.73 5.42999 12.57L7.64999 10.35C7.84999 10.15 8.15999 10.15 8.35999 10.35L10.58 12.57C10.74 12.73 10.63 13 10.4 13Z" fill="currentColor"/>
</svg>
