<svg width="16" height="16" viewBox="0 0 16 16" fill="none" xmlns="http://www.w3.org/2000/svg">
<path fill-rule="evenodd" clip-rule="evenodd" d="M9.5 1.99023C9.78 1.99023 10 2.21023 10 2.49023C9.99987 2.77012 9.77992 2.99023 9.5 2.99023H8.5V4.02441C9.50418 4.12425 10.4207 4.52257 11.1611 5.12793L11.8945 4.39453L11.1904 3.69043C10.9904 3.49044 10.9905 3.18047 11.1904 2.98047C11.3904 2.78047 11.7004 2.78047 11.9004 2.98047L14.0205 5.09961C14.2203 5.29946 14.22 5.60957 14.0205 5.80957C13.8205 6.00957 13.5096 6.00957 13.3096 5.80957L12.6045 5.10449L11.8711 5.83789C12.5761 6.69978 13 7.80046 13 9C13 11.76 10.76 14 8 14C5.24 14 3 11.76 3 9C3 6.40873 4.97446 4.27552 7.5 4.02441V2.99023H6.5C6.22008 2.99023 6.00013 2.77012 6 2.49023C6 2.21023 6.22 1.99023 6.5 1.99023H9.5ZM8 5.5C7.72 5.5 7.5 5.72 7.5 6V9C7.5 9.13 7.56039 9.25961 7.65039 9.34961L9.15039 10.8496C9.24039 10.9496 9.38 11 9.5 11C9.62 11 9.74961 10.9496 9.84961 10.8496C10.0496 10.6496 10.0496 10.3396 9.84961 10.1396L8.5 8.79004V6C8.5 5.72 8.28 5.5 8 5.5Z" fill="currentColor"/>
</svg>
