<svg width="16" height="16" viewBox="0 0 16 16" fill="none" xmlns="http://www.w3.org/2000/svg">
<path fill-rule="evenodd" clip-rule="evenodd" d="M11 2C11.28 2 11.5 2.22 11.5 2.5V3H13C13.55 3 14 3.45 14 4V13C14 13.55 13.55 14 13 14H3C2.45 14 2 13.55 2 13V4C2 3.45 2.45 3 3 3H4.5V2.5C4.5 2.22 4.72 2 5 2C5.28 2 5.5 2.22 5.5 2.5V3H7.5V2.5C7.5 2.22 7.72 2 8 2C8.28 2 8.5 2.22 8.5 2.5V3H10.5V2.5C10.5 2.22 10.72 2 11 2ZM10.8701 6.63965C10.6702 6.43985 10.3601 6.43994 10.1602 6.63965L7.50977 9.29004L6.36035 8.13965C6.16048 7.93977 5.8504 7.94002 5.65039 8.13965C5.45039 8.33965 5.45039 8.64961 5.65039 8.84961L7.15039 10.3496C7.24039 10.4496 7.38 10.5 7.5 10.5C7.62 10.5 7.74961 10.4496 7.84961 10.3496L10.8496 7.34961H10.8701C11.0699 7.1496 11.07 6.83956 10.8701 6.63965Z" fill="black"/>
</svg>
