<svg width="16" height="16" viewBox="0 0 16 16" fill="none" xmlns="http://www.w3.org/2000/svg">
<path fill-rule="evenodd" clip-rule="evenodd" d="M8 2C11.31 2 14 4.69 14 8C14 11.31 11.31 14 8 14C4.69 14 2 11.31 2 8C2 4.69 4.69 2 8 2ZM8.00977 3.5C7.72988 3.50013 7.50977 3.72008 7.50977 4V7.87012L6.16016 10.2002C6.02025 10.4401 6.10001 10.7398 6.33984 10.8799C6.41978 10.9298 6.50989 10.9502 6.58984 10.9502C6.75984 10.9502 6.93051 10.8602 7.02051 10.7002L8.42969 8.25C8.47969 8.17 8.5 8.09 8.5 8H8.50977V4C8.50977 3.72 8.28977 3.5 8.00977 3.5Z" fill="black"/>
</svg>
