<svg width="16" height="16" viewBox="0 0 16 16" fill="none" xmlns="http://www.w3.org/2000/svg">
<path d="M7.75 6.5C8.58 6.5 9.25 7.17 9.25 8C9.25 8.41 9.07957 8.78957 8.80957 9.05957C8.53957 9.32957 8.16 9.5 7.75 9.5C6.92 9.5 6.25 8.83 6.25 8C6.25 7.17 6.92 6.5 7.75 6.5Z" fill="black"/>
<path fill-rule="evenodd" clip-rule="evenodd" d="M11 2C11.28 2 11.5 2.22 11.5 2.5V3H13C13.55 3 14 3.45 14 4V13C14 13.55 13.55 14 13 14H3C2.45 14 2 13.55 2 13V4C2 3.45 2.45 3 3 3H4.5V2.5C4.5 2.22 4.72 2 5 2C5.28 2 5.5 2.22 5.5 2.5V3H7.5V2.5C7.5 2.22 7.72 2 8 2C8.28 2 8.5 2.22 8.5 2.5V3H10.5V2.5C10.5 2.22 10.72 2 11 2ZM7.75 5.5C6.37 5.5 5.25 6.62 5.25 8C5.25 9.38 6.37 10.5 7.75 10.5C8.25995 10.5 8.72991 10.34 9.12988 10.0801L10.4004 11.3496C10.4904 11.4496 10.63 11.5 10.75 11.5C10.87 11.5 10.9996 11.4496 11.0996 11.3496V11.3604C11.2996 11.1604 11.2996 10.8504 11.0996 10.6504L9.83008 9.37988C10.1 8.97991 10.25 8.50995 10.25 8C10.25 6.62 9.13 5.5 7.75 5.5Z" fill="black"/>
</svg>
