<svg width="16" height="16" viewBox="0 0 16 16" fill="none" xmlns="http://www.w3.org/2000/svg">
<path fill-rule="evenodd" clip-rule="evenodd" d="M9.5 1.99023C9.78 1.99023 10 2.21023 10 2.49023C9.99987 2.77012 9.77992 2.99023 9.5 2.99023H8.5V4.02441C9.50418 4.12425 10.4207 4.52257 11.1611 5.12793L11.8945 4.39453L11.1904 3.69043C10.9904 3.49043 10.9904 3.18047 11.1904 2.98047C11.3904 2.78047 11.7004 2.78047 11.9004 2.98047L14.0195 5.09961C14.2195 5.29961 14.2195 5.60957 14.0195 5.80957C13.8195 6.00956 13.5096 6.00957 13.3096 5.80957L12.6045 5.10449L11.8711 5.83789C12.5761 6.69978 13 7.80046 13 9C13 11.76 10.76 14 8 14C5.24 14 3 11.76 3 9C3 6.40873 4.97446 4.27552 7.5 4.02441V2.99023H6.5C6.22008 2.99023 6.00013 2.77012 6 2.49023C6 2.21023 6.22 1.99023 6.5 1.99023H9.5ZM7 7C6.72 7 6.5 7.22 6.5 7.5V10.5C6.5 10.78 6.72 11 7 11C7.28 11 7.5 10.78 7.5 10.5V7.5C7.5 7.22 7.28 7 7 7ZM9 7C8.72 7 8.5 7.22 8.5 7.5V10.5C8.5 10.78 8.72 11 9 11C9.28 11 9.5 10.78 9.5 10.5V7.5C9.5 7.22 9.28 7 9 7Z" fill="black"/>
</svg>
