<svg width="16" height="16" viewBox="0 0 16 16" fill="none" xmlns="http://www.w3.org/2000/svg">
<path fill-rule="evenodd" clip-rule="evenodd" d="M11 2C11.28 2 11.5 2.22 11.5 2.5V3H13C13.55 3 14 3.45 14 4V13C14 13.55 13.55 14 13 14H3C2.45 14 2 13.55 2 13V4C2 3.45 2.45 3 3 3H4.5V2.5C4.5 2.22 4.72 2 5 2C5.28 2 5.5 2.22 5.5 2.5V3H7.5V2.5C7.5 2.22 7.72 2 8 2C8.28 2 8.5 2.22 8.5 2.5V3H10.5V2.5C10.5 2.22 10.72 2 11 2ZM10.0703 6.4502C9.87034 6.25022 9.56035 6.25028 9.36035 6.4502L8.01953 7.79004L6.67969 6.4502C6.47969 6.25025 6.16971 6.25021 5.96973 6.4502C5.76998 6.65018 5.76987 6.96023 5.96973 7.16016L7.30957 8.5L5.96973 9.83984C5.76987 10.0398 5.76998 10.3498 5.96973 10.5498C6.05973 10.6498 6.20031 10.7002 6.32031 10.7002C6.44023 10.7001 6.57001 10.6497 6.66992 10.5498L8.00977 9.20996L9.34961 10.5498C9.43961 10.6498 9.5802 10.7002 9.7002 10.7002C9.82014 10.7001 9.94986 10.6498 10.0498 10.5498C10.2498 10.3498 10.2498 10.0398 10.0498 9.83984H10.0703L8.73047 8.5L10.0703 7.16016C10.2702 6.96024 10.27 6.65018 10.0703 6.4502Z" fill="currentColor"/>
</svg>
