<svg width="16" height="16" viewBox="0 0 16 16" fill="none" xmlns="http://www.w3.org/2000/svg">
<path fill-rule="evenodd" clip-rule="evenodd" d="M7.99954 3.49995C10.7595 3.49995 12.9995 5.73997 12.9995 8.49995C12.9995 11.26 10.7595 13.5 7.99954 13.5C5.23976 13.4997 2.99954 11.2598 2.99954 8.49995C2.99956 5.74013 5.23977 3.50021 7.99954 3.49995ZM7.99954 5.99995C7.71978 6.00021 7.49956 6.22013 7.49954 6.49995V7.99995H5.99954C5.71978 8.00021 5.49956 8.22013 5.49954 8.49995C5.49954 8.77979 5.71977 8.9997 5.99954 8.99995H7.49954V10.5C7.49954 10.7798 7.71977 10.9997 7.99954 11C8.27954 11 8.49954 10.78 8.49954 10.5V8.99995H9.99954C10.2795 8.99995 10.4995 8.77995 10.4995 8.49995C10.4995 8.21997 10.2795 7.99995 9.99954 7.99995H8.49954V6.49995C8.49952 6.21997 8.27953 5.99995 7.99954 5.99995Z" fill="currentColor"/>
<path d="M4.1304 2.82027C4.36039 2.67038 4.66988 2.7202 4.81985 2.95015C4.97978 3.1801 4.91984 3.48958 4.68997 3.6396C3.85997 4.1996 3.18954 4.97031 2.74954 5.86031C2.65953 6.02995 2.49002 6.13948 2.30032 6.1396C2.22032 6.1396 2.14962 6.1198 2.07962 6.0898C1.82991 5.96967 1.72996 5.66974 1.85989 5.41988C2.37989 4.37989 3.17041 3.48026 4.1304 2.82027Z" fill="currentColor"/>
<path d="M11.1802 2.95015C11.3402 2.72018 11.6497 2.66036 11.8697 2.82027C12.8396 3.48026 13.6202 4.37989 14.1402 5.41988C14.2601 5.66973 14.1601 5.96965 13.9204 6.0898C13.8504 6.1298 13.7697 6.1396 13.6997 6.1396C13.5199 6.1395 13.3395 6.04017 13.2495 5.86031C12.8095 4.97031 12.1301 4.1996 11.3101 3.6396C11.0802 3.47958 11.0202 3.17011 11.1802 2.95015Z" fill="currentColor"/>
</svg>
