<svg width="16" height="16" viewBox="0 0 16 16" fill="none" xmlns="http://www.w3.org/2000/svg">
<path d="M10 13C10 13.55 9.55 14 9 14H7C6.45 14 6 13.55 6 13V12.5801C6.60999 12.8501 7.29001 13 8 13C8.70999 13 9.39001 12.8501 10 12.5801V13Z" fill="black"/>
<path fill-rule="evenodd" clip-rule="evenodd" d="M8 4C10.21 4 12 5.79 12 8C12 10.21 10.21 12 8 12C5.79 12 4 10.21 4 8C4 5.79 5.79 4 8 4ZM8 5.5C7.72 5.5 7.5 5.72 7.5 6V8C7.5 8.13 7.56039 8.25961 7.65039 8.34961L8.65039 9.34961C8.74039 9.44961 8.88 9.5 9 9.5C9.12 9.5 9.24961 9.44961 9.34961 9.34961C9.54961 9.14961 9.54961 8.83965 9.34961 8.63965L8.5 7.79004V6C8.5 5.72 8.28 5.5 8 5.5Z" fill="black"/>
<path d="M9 2C9.55 2 10 2.45 10 3V3.41992C9.39001 3.14993 8.70999 3 8 3C7.29001 3 6.60999 3.14993 6 3.41992V3C6 2.45 6.45 2 7 2H9Z" fill="black"/>
</svg>
