<svg width="16" height="16" viewBox="0 0 16 16" fill="none" xmlns="http://www.w3.org/2000/svg">
<path d="M8 1.5C8.27614 1.5 8.5 1.72386 8.5 2V8C8.5 8.27614 8.27614 8.5 8 8.5C7.72386 8.5 7.5 8.27614 7.5 8V6.58984C7.29809 6.66295 7.10697 6.77975 6.94336 6.94336C6.64832 7.2384 6.5 7.62093 6.5 8C6.5 8.37907 6.64832 8.7616 6.94336 9.05664C7.2384 9.35168 7.62091 9.5 8 9.5C8.37909 9.5 8.7616 9.35168 9.05664 9.05664C9.35168 8.7616 9.5 8.37907 9.5 8C9.5 7.72386 9.72386 7.5 10 7.5C10.2761 7.5 10.5 7.72386 10.5 8C10.5 8.64091 10.2486 9.27872 9.76367 9.76367C9.27871 10.2486 8.64091 10.5 8 10.5C7.35909 10.5 6.72129 10.2486 6.23633 9.76367C5.75138 9.27872 5.5 8.64091 5.5 8C5.5 7.35909 5.75138 6.72128 6.23633 6.23633C6.59431 5.87834 7.03572 5.64806 7.5 5.55176V4.53516C6.77739 4.63886 6.07799 4.96889 5.52344 5.52344C4.84111 6.20576 4.5 7.09698 4.5 8C4.5 8.89369 4.84156 9.79469 5.52344 10.4766C6.20576 11.1589 7.09698 11.5 8 11.5C8.90302 11.5 9.79424 11.1589 10.4766 10.4766C11.1589 9.79424 11.5 8.90302 11.5 8C11.5 7.72386 11.7239 7.5 12 7.5C12.2761 7.5 12.5 7.72386 12.5 8C12.5 9.15698 12.0613 10.3059 11.1836 11.1836C10.3059 12.0613 9.15698 12.5 8 12.5C6.84302 12.5 5.69408 12.0613 4.81641 11.1836C3.93828 10.3055 3.5 9.14631 3.5 8C3.5 6.84302 3.93873 5.69408 4.81641 4.81641C5.56682 4.066 6.52252 3.63729 7.5 3.52832V2.52246C6.26133 2.63507 5.05957 3.167 4.11328 4.11328C3.04036 5.1862 2.5 6.59786 2.5 8C2.5 9.4117 3.04006 10.8135 4.11328 11.8867C5.1862 12.9596 6.59785 13.5 8 13.5C9.40215 13.5 10.8138 12.9596 11.8867 11.8867C12.9596 10.8138 13.5 9.40214 13.5 8C13.5 7.72386 13.7239 7.5 14 7.5C14.2761 7.5 14.5 7.72386 14.5 8C14.5 9.65785 13.8608 11.3267 12.5938 12.5938C11.3267 13.8608 9.65785 14.5 8 14.5C6.34215 14.5 4.67333 13.8608 3.40625 12.5938C2.13948 11.327 1.5 9.6683 1.5 8C1.5 6.34215 2.13918 4.67333 3.40625 3.40625C4.67302 2.13948 6.3317 1.5 8 1.5Z" fill="currentColor"/>
</svg>
