<svg width="16" height="16" viewBox="0 0 16 16" fill="none" xmlns="http://www.w3.org/2000/svg">
<path d="M3.39737 3.39537C5.86253 0.941006 9.80243 0.863162 12.3515 3.16588L12.5937 3.39635L12.5946 3.39732C15.1282 5.94199 15.1292 10.058 12.5937 12.5936C12.3984 12.7888 12.0819 12.7887 11.8866 12.5936C11.6914 12.3984 11.6914 12.0818 11.8866 11.8866C14.0306 9.74251 14.032 6.25875 11.8866 4.10338L11.6816 3.90904C9.52568 1.96142 6.19047 2.0253 4.10245 4.10436C1.95911 6.24876 1.95857 9.73256 4.1044 11.8876C4.29899 12.0832 4.29798 12.3998 4.10245 12.5946C3.90675 12.7891 3.59015 12.7882 3.39542 12.5926C0.861799 10.0479 0.860794 5.93195 3.3964 3.39635L3.39737 3.39537Z" fill="black"/>
<path d="M4.8173 4.81529C6.58016 3.06373 9.42692 3.04864 11.1845 4.81725C12.9376 6.5816 12.9393 9.42757 11.1835 11.1835C10.9883 11.3786 10.6718 11.3785 10.4765 11.1835C10.2814 10.9882 10.2813 10.6716 10.4765 10.4764C11.8404 9.11241 11.842 6.89795 10.4755 5.52233C9.11312 4.15144 6.8994 4.15626 5.52237 5.52428C4.15127 6.88664 4.15623 9.10031 5.52433 10.4774C5.71892 10.6732 5.71812 10.9898 5.52237 11.1844C5.32659 11.379 5.01001 11.3781 4.81534 11.1825C3.0639 9.41959 3.04869 6.5728 4.8173 4.81529Z" fill="black"/>
<path d="M6.22648 6.22643C7.20174 5.25125 8.78835 5.2512 9.76359 6.22643C10.7387 7.20167 10.7387 8.78829 9.76359 9.76354C9.56836 9.95876 9.25182 9.95869 9.05655 9.76354C8.86129 9.56828 8.8613 9.25177 9.05655 9.0565C9.64118 8.47178 9.64119 7.51817 9.05655 6.93346C8.47184 6.34876 7.51825 6.34881 6.93351 6.93346C6.34877 7.5182 6.34877 8.47177 6.93351 9.0565C7.12866 9.25174 7.12866 9.56829 6.93351 9.76354C6.73827 9.95873 6.42173 9.95871 6.22648 9.76354C5.25121 8.78827 5.25121 7.20169 6.22648 6.22643Z" fill="black"/>
<path d="M7.99991 7.49986C8.27601 7.49986 8.49984 7.72378 8.49991 7.99986C8.49991 8.27601 8.27606 8.49986 7.99991 8.49986C7.72381 8.49982 7.49991 8.27598 7.49991 7.99986C7.49999 7.72381 7.72385 7.49991 7.99991 7.49986Z" fill="black"/>
</svg>
