<svg width="16" height="16" viewBox="0 0 16 16" fill="none" xmlns="http://www.w3.org/2000/svg">
<path d="M8 9C8.27614 9 8.5 9.22386 8.5 9.5C8.5 9.77614 8.27614 10 8 10C7.72386 10 7.5 9.77614 7.5 9.5C7.5 9.22386 7.72386 9 8 9Z" fill="black"/>
<path d="M8 4.50977C8.96606 4.50977 9.74987 5.29374 9.75 6.25977C9.75 6.96599 9.26399 7.51197 8.69336 7.75098L8.69238 7.75L8.5 7.83301V8.12988C8.49994 8.40597 8.2761 8.62988 8 8.62988C7.7239 8.62988 7.50006 8.40597 7.5 8.12988V7.81934C7.50026 7.42876 7.72956 7.08168 8.08691 6.92285L8.09277 6.91992L8.30273 6.83008L8.30664 6.82812C8.59581 6.70704 8.75 6.47338 8.75 6.25977C8.74987 5.84602 8.41378 5.50977 8 5.50977C7.58622 5.50977 7.25013 5.84602 7.25 6.25977C7.25 6.53591 7.02614 6.75977 6.75 6.75977C6.47386 6.75977 6.25 6.53591 6.25 6.25977C6.25013 5.29374 7.03394 4.50977 8 4.50977Z" fill="black"/>
<path fill-rule="evenodd" clip-rule="evenodd" d="M8 1.5C11.5439 1.5 14.5 4.14347 14.5 7.5C14.5 9.01752 13.8797 10.3994 12.8828 11.4512L13.4854 13.8799C13.5309 14.0639 13.4686 14.258 13.3242 14.3809C13.1798 14.5037 12.9781 14.5344 12.8037 14.46L9.92578 13.2295C9.31674 13.4002 8.67718 13.5 8 13.5C4.45606 13.5 1.5 10.8565 1.5 7.5C1.5 4.14347 4.45606 1.5 8 1.5ZM8 2.5C4.92394 2.5 2.5 4.77653 2.5 7.5C2.5 10.2235 4.92394 12.5 8 12.5C8.63565 12.5 9.23624 12.3986 9.81348 12.2217C9.9263 12.1871 10.0477 12.1939 10.1562 12.2402L12.2725 13.1445L11.8447 11.4209C11.8017 11.2473 11.8545 11.0634 11.9834 10.9395C12.9259 10.0336 13.5 8.81997 13.5 7.5C13.5 4.77653 11.0761 2.5 8 2.5Z" fill="black"/>
</svg>
