<svg width="16" height="16" viewBox="0 0 16 16" fill="none" xmlns="http://www.w3.org/2000/svg">
<path fill-rule="evenodd" clip-rule="evenodd" d="M7.5 9.50027C9.15614 9.50027 10.5 10.8441 10.5 12.5003C10.4999 13.0563 10.0561 13.5003 9.5 13.5003H2.5C1.94395 13.5003 1.50014 13.0563 1.5 12.5003C1.5 10.8441 2.84386 9.50027 4.5 9.50027H7.5ZM4.5 10.5003C3.39614 10.5003 2.5 11.3964 2.5 12.5003H9.5C9.5 11.3964 8.60386 10.5003 7.5 10.5003H4.5Z" fill="black"/>
<path fill-rule="evenodd" clip-rule="evenodd" d="M6 3.00027C7.65685 3.00027 9 4.34341 9 6.00027C8.99985 7.657 7.65676 9.00027 6 9.00027C4.34324 9.00027 3.00015 7.657 3 6.00027C3 4.34341 4.34315 3.00027 6 3.00027ZM6 4.00027C4.89543 4.00027 4 4.8957 4 6.00027C4.00015 7.10471 4.89552 8.00027 6 8.00027C7.10448 8.00027 7.99985 7.10471 8 6.00027C8 4.8957 7.10457 4.00027 6 4.00027Z" fill="black"/>
<path d="M12.7305 4.50027C13.0064 4.50052 13.2305 4.72428 13.2305 5.00027C13.2303 5.27613 13.0063 5.50001 12.7305 5.50027C12.4544 5.50027 12.2306 5.27629 12.2305 5.00027C12.2305 4.72412 12.4543 4.50027 12.7305 4.50027Z" fill="black"/>
<path fill-rule="evenodd" clip-rule="evenodd" d="M12.4795 2.56765C12.6343 2.47816 12.8257 2.47816 12.9805 2.56765L14.71 3.56765C14.8645 3.65701 14.96 3.82177 14.96 4.00027V6.00027C14.9599 6.17871 14.8645 6.34358 14.71 6.43288L12.9805 7.43288C12.8257 7.52228 12.6342 7.52228 12.4795 7.43288L10.75 6.43288C10.5955 6.34358 10.5001 6.17871 10.5 6.00027V4.00027C10.5 3.82177 10.5955 3.65701 10.75 3.56765L12.4795 2.56765ZM11.5 4.28835V5.7112L12.7295 6.42214L13.96 5.7112V4.28835L12.7295 3.57742L11.5 4.28835Z" fill="black"/>
</svg>
