<svg width="16" height="16" viewBox="0 0 16 16" fill="none" xmlns="http://www.w3.org/2000/svg">
<path fill-rule="evenodd" clip-rule="evenodd" d="M7.5 9.50004C9.15614 9.50004 10.5 10.8439 10.5 12.5C10.5 13.0562 10.0561 13.5 9.5 13.5H2.5C1.94387 13.5 1.50002 13.0562 1.5 12.5C1.5 10.8439 2.84386 9.50004 4.5 9.50004H7.5ZM4.5 10.5C3.39614 10.5 2.5 11.3962 2.5 12.5H9.5C9.5 11.3962 8.60386 10.5 7.5 10.5H4.5Z" fill="black"/>
<path fill-rule="evenodd" clip-rule="evenodd" d="M6 3.00004C7.65685 3.00004 9 4.34318 9 6.00004C8.99998 7.65688 7.65684 9.00004 6 9.00004C4.34316 9.00004 3.00002 7.65688 3 6.00004C3 4.34318 4.34315 3.00004 6 3.00004ZM6 4.00004C4.89543 4.00004 4 4.89547 4 6.00004C4.00002 7.10459 4.89544 8.00004 6 8.00004C7.10456 8.00004 7.99998 7.10459 8 6.00004C8 4.89547 7.10457 4.00004 6 4.00004Z" fill="black"/>
<path d="M13.3965 2.89652C13.5917 2.70126 13.9083 2.70126 14.1035 2.89652C14.2988 3.09179 14.2988 3.4083 14.1035 3.60355L12.707 5.00004L14.1035 6.39652C14.2988 6.59179 14.2988 6.9083 14.1035 7.10355C13.9083 7.29879 13.5917 7.29879 13.3965 7.10355L12 5.70707L10.6035 7.10355C10.4083 7.29879 10.0917 7.29879 9.89648 7.10355C9.70123 6.9083 9.70125 6.59179 9.89648 6.39652L11.293 5.00004L9.89648 3.60355C9.70123 3.4083 9.70125 3.09179 9.89648 2.89652C10.0917 2.70126 10.4083 2.70126 10.6035 2.89652L12 4.29301L13.3965 2.89652Z" fill="black"/>
</svg>
