<svg width="16" height="16" viewBox="0 0 16 16" fill="none" xmlns="http://www.w3.org/2000/svg">
<path fill-rule="evenodd" clip-rule="evenodd" d="M12 9.5C13.3761 9.5 14.5 10.6239 14.5 12V13C14.5 13.2761 14.2761 13.5 14 13.5H2C1.72386 13.5 1.5 13.2761 1.5 13V12C1.5 10.6239 2.62386 9.5 4 9.5H12ZM9.99414 10.5C10.3102 10.9187 10.5 11.4375 10.5 12V12.5H13.5V12C13.5 11.1761 12.8239 10.5 12 10.5H9.99414ZM4 10.5C3.17614 10.5 2.5 11.1761 2.5 12V12.5H9.5V12C9.5 11.1761 8.82386 10.5 8 10.5H4Z" fill="currentColor"/>
<path fill-rule="evenodd" clip-rule="evenodd" d="M6 2.5C7.08886 2.5 8.03876 3.0822 8.56445 3.9502C8.97317 3.6644 9.47196 3.50008 10 3.5C11.376 3.50022 12.5 4.62399 12.5 6C12.5 7.37601 11.376 8.49978 10 8.5C9.24192 8.49988 8.56833 8.15969 8.10938 7.63086C7.56735 8.16745 6.82296 8.5 6 8.5C4.34315 8.5 3 7.15685 3 5.5C3 3.84315 4.34315 2.5 6 2.5ZM6 3.5C4.89543 3.5 4 4.39543 4 5.5C4 6.60457 4.89543 7.5 6 7.5C6.73646 7.5 7.3775 7.10051 7.72461 6.50781C7.72721 6.50358 7.72969 6.49927 7.73242 6.49512C7.90129 6.20177 8 5.86278 8 5.5C8 4.39543 7.10457 3.5 6 3.5ZM10 4.5C9.58882 4.50011 9.21282 4.66506 8.94531 4.93164C8.98062 5.11572 9 5.30562 9 5.5C9 5.95561 8.89461 6.3857 8.71289 6.77246C8.9823 7.21023 9.46018 7.49986 10 7.5C10.8237 7.49978 11.5 6.82372 11.5 6C11.5 5.17628 10.8237 4.50022 10 4.5Z" fill="currentColor"/>
</svg>
