<svg width="16" height="16" viewBox="0 0 16 16" fill="none" xmlns="http://www.w3.org/2000/svg">
<path d="M9.73944 1.48394C9.96393 1.32355 10.2761 1.3749 10.4367 1.59917C11.7239 3.39932 12.5002 5.61077 12.5002 8.00054C12.5001 10.3888 11.7349 12.6008 10.4357 14.4029C10.2743 14.6263 9.96229 14.6769 9.73846 14.5162C9.51446 14.3547 9.46369 14.0419 9.62518 13.8179C10.8057 12.1803 11.5001 10.1718 11.5002 8.00054C11.5002 5.83068 10.7966 3.8209 9.6242 2.1812C9.46365 1.9567 9.5151 1.64464 9.73944 1.48394Z" fill="currentColor"/>
<path d="M7.62127 2.83843C7.84271 2.67371 8.15657 2.71968 8.32147 2.94097C9.37286 4.35345 10.0001 6.10768 10.0002 7.99956C10.0002 9.89145 9.37276 11.6456 8.32147 13.0582C8.15658 13.2797 7.84279 13.3256 7.62127 13.1607C7.40019 12.9958 7.3542 12.6828 7.51873 12.4615C8.44718 11.2141 9.00018 9.66742 9.00018 7.99956C9.00007 6.33184 8.44714 4.7859 7.51873 3.53863C7.354 3.31714 7.39985 3.00328 7.62127 2.83843Z" fill="currentColor"/>
<path d="M5.48846 4.18902C5.70421 4.01709 6.0184 4.0526 6.19061 4.26812C7.00803 5.29266 7.50007 6.59159 7.50018 7.99956C7.50018 9.40758 7.00798 10.7064 6.19061 11.731C6.01839 11.9469 5.70432 11.9823 5.48846 11.8101C5.27282 11.6378 5.2372 11.3237 5.40936 11.108C6.09169 10.2527 6.50018 9.17126 6.50018 7.99956C6.50007 6.82795 6.0917 5.74637 5.40936 4.89117C5.23748 4.67532 5.27273 4.36114 5.48846 4.18902Z" fill="currentColor"/>
<path d="M3.32635 5.57671C3.527 5.38727 3.84376 5.39584 4.03338 5.59624C4.624 6.22163 5.00006 7.06236 5.00018 7.99956C5.00018 8.93689 4.62403 9.77742 4.03338 10.4029C3.84379 10.6036 3.52711 10.6129 3.32635 10.4234C3.12587 10.2338 3.1173 9.91702 3.30682 9.71636C3.7359 9.26189 4.00018 8.66199 4.00018 7.99956C4.00006 7.33733 3.73577 6.73811 3.30682 6.28374C3.11732 6.0831 3.12593 5.76636 3.32635 5.57671Z" fill="currentColor"/>
</svg>
