<svg width="16" height="16" viewBox="0 0 16 16" fill="none" xmlns="http://www.w3.org/2000/svg">
<path fill-rule="evenodd" clip-rule="evenodd" d="M13.7737 1.55159C13.9278 1.46857 14.1178 1.46862 14.2728 1.56428C14.47 1.68619 14.558 1.92828 14.4847 2.14827L10.8655 12.992C10.5765 13.893 9.43968 14.1266 8.7962 13.4832L7.01007 11.6971L5.35382 13.3533C5.21087 13.4963 4.99569 13.539 4.8089 13.4617C4.6221 13.3843 4.50031 13.202 4.50031 12.9998V9.29377L1.79718 7.94807C1.01933 7.56515 1.06383 6.44167 1.87824 6.12385L1.88019 6.12288L13.7737 1.55159ZM5.76495 9.03791L9.50324 12.7762C9.6397 12.9125 9.86233 12.846 9.91339 12.6873L13.011 3.4012L5.76495 9.03791ZM5.50031 11.7928L6.30304 10.9901L5.50031 10.1873V11.7928ZM2.24542 7.05354L4.95245 8.40315L11.0306 3.67561L2.24542 7.05354Z" fill="black"/>
</svg>
