<svg width="16" height="16" viewBox="0 0 16 16" fill="none" xmlns="http://www.w3.org/2000/svg">
<path fill-rule="evenodd" clip-rule="evenodd" d="M8.00043 4.50007C8.82866 4.5003 9.50043 5.17179 9.50043 6.00007C9.5004 6.56863 9.1835 7.06308 8.71722 7.31746L11.4467 12.7764C11.5242 12.9313 11.5161 13.1154 11.4252 13.2628C11.3341 13.41 11.1726 13.5001 10.9995 13.5001H4.99945C4.82633 13.4999 4.66469 13.4101 4.57367 13.2628C4.48288 13.1155 4.4749 12.9312 4.55219 12.7764L7.2807 7.31746C6.8153 7.06282 6.50046 6.56798 6.50043 6.00007C6.50043 5.17165 7.172 4.50007 8.00043 4.50007ZM5.80804 12.5001H10.1909L7.99945 8.11824L5.80804 12.5001ZM8.00043 5.50007C7.72429 5.50007 7.50043 5.72393 7.50043 6.00007C7.50047 6.27618 7.72431 6.50007 8.00043 6.50007C8.27635 6.49984 8.50038 6.27604 8.50043 6.00007C8.50043 5.72407 8.27637 5.5003 8.00043 5.50007Z" fill="black"/>
<path d="M4.10687 2.11628C4.30209 1.92136 4.61872 1.92131 4.8139 2.11628C5.00888 2.31147 5.00883 2.6281 4.8139 2.82332C3.05923 4.57799 3.05936 7.43184 4.8139 9.1866C5.00878 9.38185 5.00893 9.69847 4.8139 9.89363C4.61876 10.0888 4.30216 10.0885 4.10687 9.89363C1.96181 7.74835 1.96168 4.26148 4.10687 2.11628Z" fill="black"/>
<path d="M11.187 2.10652C11.3822 1.91149 11.6988 1.91134 11.894 2.10652C14.0389 4.25172 14.0389 7.73866 11.894 9.88386C11.6988 10.0788 11.3822 10.0787 11.187 9.88386C10.9917 9.68865 10.9918 9.37211 11.187 9.17683C12.9414 7.42215 12.9414 4.56823 11.187 2.81355C10.9917 2.61829 10.9917 2.30178 11.187 2.10652Z" fill="black"/>
<path d="M5.52679 3.52644C5.72206 3.33141 6.03863 3.3313 6.23383 3.52644C6.4288 3.72165 6.4288 4.03826 6.23383 4.23347C5.25914 5.2082 5.25915 6.79194 6.23383 7.76667C6.42873 7.96193 6.42888 8.27855 6.23383 8.47371C6.03867 8.66883 5.72207 8.66863 5.52679 8.47371C4.16159 7.10845 4.16158 4.89169 5.52679 3.52644Z" fill="black"/>
<path d="M9.76703 3.52644C9.96231 3.33141 10.2789 3.33126 10.4741 3.52644C11.839 4.89164 11.839 7.1085 10.4741 8.47371C10.2789 8.66874 9.96228 8.66859 9.76703 8.47371C9.57181 8.27848 9.57188 7.96195 9.76703 7.76667C10.7415 6.79199 10.7415 5.20815 9.76703 4.23347C9.57177 4.03821 9.57177 3.7217 9.76703 3.52644Z" fill="black"/>
</svg>
