<svg width="16" height="16" viewBox="0 0 16 16" fill="none" xmlns="http://www.w3.org/2000/svg">
<path fill-rule="evenodd" clip-rule="evenodd" d="M7.5 9.5C9.15614 9.5 10.5 10.8439 10.5 12.5C10.5 13.0561 10.0561 13.5 9.5 13.5H2.5C1.94386 13.5 1.5 13.0561 1.5 12.5C1.5 10.8439 2.84386 9.5 4.5 9.5H7.5ZM4.5 10.5C3.39614 10.5 2.5 11.3961 2.5 12.5H9.5C9.5 11.3961 8.60386 10.5 7.5 10.5H4.5Z" fill="currentColor"/>
<path fill-rule="evenodd" clip-rule="evenodd" d="M6 3C7.65685 3 9 4.34315 9 6C9 7.65685 7.65685 9 6 9C4.34315 9 3 7.65685 3 6C3 4.34315 4.34315 3 6 3ZM6 4C4.89543 4 4 4.89543 4 6C4 7.10457 4.89543 8 6 8C7.10457 8 8 7.10457 8 6C8 4.89543 7.10457 4 6 4Z" fill="currentColor"/>
<path fill-rule="evenodd" clip-rule="evenodd" d="M11.5 2.5C12.6046 2.5 13.5 3.39543 13.5 4.5C13.5 4.87063 13.3964 5.21606 13.2207 5.51367L14.3535 6.64648C14.5483 6.84178 14.5486 7.1584 14.3535 7.35352C14.1584 7.54863 13.8418 7.54835 13.6465 7.35352L12.5137 6.2207C12.2161 6.3964 11.8706 6.5 11.5 6.5C10.3954 6.5 9.5 5.60457 9.5 4.5C9.5 3.39543 10.3954 2.5 11.5 2.5ZM11.5 3.5C10.9477 3.5 10.5 3.94772 10.5 4.5C10.5 5.05228 10.9477 5.5 11.5 5.5C12.0523 5.5 12.5 5.05228 12.5 4.5C12.5 3.94772 12.0523 3.5 11.5 3.5Z" fill="currentColor"/>
</svg>
