<svg width="16" height="16" viewBox="0 0 16 16" fill="none" xmlns="http://www.w3.org/2000/svg">
<path fill-rule="evenodd" clip-rule="evenodd" d="M7.9951 4.5C9.73481 4.5 11.3336 4.97036 12.5117 5.75684C13.6861 6.54107 14.4922 7.67962 14.4922 9.00195C14.4921 9.33196 14.4421 9.69632 14.3506 10.0781C14.2132 10.655 13.6001 11.0075 13.0234 10.7832L13.0224 10.7852L10.8906 9.97461L10.8037 9.94043C10.38 9.74513 10.1436 9.27793 10.2519 8.81641C10.2831 8.67174 10.3117 8.50236 10.3174 8.32812C10.3206 8.20358 10.2258 7.99742 9.71581 7.79785C9.24257 7.61273 8.59426 7.51798 7.98534 7.51465C7.38046 7.51138 6.73384 7.60577 6.2617 7.79199C5.7522 7.99308 5.6564 8.20287 5.66014 8.3291C5.66598 8.50626 5.69478 8.67905 5.72655 8.8252C5.83369 9.29949 5.57385 9.73929 5.1826 9.93359L5.10252 9.96973L5.09666 9.97168L2.95409 10.7852V10.7832C2.36588 11.0129 1.77416 10.644 1.63963 10.0791C1.54808 9.69741 1.50014 9.33289 1.49999 9.00293C1.49587 7.67623 2.30101 6.53831 3.47655 5.75488C4.65566 4.96916 6.25576 4.50005 7.9951 4.5ZM7.9951 5.49902C6.4256 5.49908 5.02455 5.92506 4.03124 6.58691C3.03457 7.25114 2.49628 8.11378 2.49901 9V9.00195C2.49904 9.23653 2.53475 9.52111 2.61229 9.84473L4.73827 9.03809C4.74353 9.03571 4.74682 9.03246 4.74901 9.03027C4.7203 8.89738 4.68867 8.73287 4.67186 8.55078L4.66014 8.35938C4.63584 7.55251 5.30686 7.09323 5.89452 6.86133C6.52003 6.61457 7.3023 6.51089 7.9912 6.51465C8.67609 6.51841 9.45659 6.62284 10.081 6.86719C10.6672 7.09672 11.3408 7.55087 11.3164 8.35938C11.308 8.61794 11.2681 8.85501 11.2295 9.0332L11.2344 9.03613L13.3769 9.84961L13.3779 9.84766C13.4557 9.52335 13.4921 9.23693 13.4922 9.00195C13.4922 8.11819 12.9532 7.25418 11.957 6.58887C10.9644 5.92609 9.56425 5.49902 7.9951 5.49902Z" fill="currentColor"/>
</svg>
