<svg width="16" height="16" viewBox="0 0 16 16" fill="none" xmlns="http://www.w3.org/2000/svg">
<path d="M8.10059 6.00977C8.32855 6.05629 8.5 6.25829 8.5 6.5V9H9C9.27614 9 9.5 9.22386 9.5 9.5C9.5 9.77614 9.27614 10 9 10H7C6.72386 10 6.5 9.77614 6.5 9.5C6.5 9.22386 6.72386 9 7 9H7.5V7H7C6.72386 7 6.5 6.77614 6.5 6.5C6.5 6.22386 6.72386 6 7 6H8L8.10059 6.00977Z" fill="currentColor"/>
<path d="M8 4.5C8.27614 4.5 8.5 4.72386 8.5 5C8.5 5.27614 8.27614 5.5 8 5.5C7.72386 5.5 7.5 5.27614 7.5 5C7.5 4.72386 7.72386 4.5 8 4.5Z" fill="currentColor"/>
<path fill-rule="evenodd" clip-rule="evenodd" d="M8 1.5C11.5439 1.5 14.5 4.14347 14.5 7.5C14.5 9.01752 13.8797 10.3994 12.8828 11.4512L13.4854 13.8799C13.5309 14.0639 13.4686 14.258 13.3242 14.3809C13.1798 14.5037 12.9781 14.5344 12.8037 14.46L9.92578 13.2295C9.31674 13.4002 8.67718 13.5 8 13.5C4.45606 13.5 1.5 10.8565 1.5 7.5C1.5 4.14347 4.45606 1.5 8 1.5ZM8 2.5C4.92394 2.5 2.5 4.77653 2.5 7.5C2.5 10.2235 4.92394 12.5 8 12.5C8.63565 12.5 9.23624 12.3986 9.81348 12.2217C9.9263 12.1871 10.0477 12.1939 10.1562 12.2402L12.2725 13.1445L11.8447 11.4209C11.8017 11.2473 11.8545 11.0634 11.9834 10.9395C12.9259 10.0336 13.5 8.81997 13.5 7.5C13.5 4.77653 11.0761 2.5 8 2.5Z" fill="currentColor"/>
</svg>
