<svg width="16" height="16" viewBox="0 0 16 16" fill="none" xmlns="http://www.w3.org/2000/svg">
<path fill-rule="evenodd" clip-rule="evenodd" d="M7.80862 1.5381C7.99544 1.46074 8.21055 1.50351 8.35354 1.6465L11.3535 4.6465C11.5487 4.84176 11.5488 5.15829 11.3535 5.35353L8.70705 8.00002L11.3535 10.6465C11.5487 10.8418 11.5488 11.1583 11.3535 11.3535L8.35354 14.3535C8.21056 14.4965 7.99544 14.5393 7.80862 14.4619C7.62183 14.3845 7.50004 14.2022 7.50002 14V9.20705L5.35354 11.3535C5.1583 11.5488 4.84177 11.5487 4.64651 11.3535C4.45125 11.1583 4.45125 10.8418 4.64651 10.6465L7.29299 8.00002L4.64651 5.35353C4.45125 5.15827 4.45125 4.84176 4.64651 4.6465C4.84177 4.45126 5.15828 4.45124 5.35354 4.6465L7.50002 6.79298V2.00002C7.50002 1.79781 7.62182 1.61551 7.80862 1.5381ZM8.50002 12.793L10.293 11L8.50002 9.20705V12.793ZM8.50002 6.79298L10.293 5.00002L8.50002 3.20705V6.79298Z" fill="currentColor"/>
</svg>
