<svg width="16" height="16" viewBox="0 0 16 16" fill="none" xmlns="http://www.w3.org/2000/svg">
<path fill-rule="evenodd" clip-rule="evenodd" d="M4.5459 3.03066C9.17261 3.26631 12.5124 6.46901 12.9375 11.0111L12.9697 11.4545V11.4623C12.9899 12.0294 12.5286 12.5003 11.96 12.5004H9.96094C9.92846 12.5071 9.89478 12.5101 9.86035 12.5102C9.82591 12.5102 9.79224 12.507 9.75977 12.5004H7.26172C7.2319 12.5059 7.20135 12.5102 7.16992 12.5102C7.13849 12.5102 7.10795 12.5059 7.07812 12.5004H4.49023C3.93423 12.5004 3.49045 12.0563 3.49023 11.5004C3.49024 11.4686 3.49421 11.4371 3.5 11.4066V4.04043C3.50003 3.48815 3.96443 3.01018 4.53809 3.03066H4.5459ZM4.50684 4.03164C4.50393 4.03451 4.50194 4.0383 4.50098 4.04043L4.5 5.66738C6.12977 5.7747 7.54169 6.40611 8.57422 7.43984C9.60425 8.47113 10.2317 9.87931 10.3408 11.5004H11.96C11.9622 11.5003 11.964 11.4997 11.9648 11.4994C11.9661 11.4989 11.9684 11.4978 11.9697 11.4965C11.7488 7.24235 8.76131 4.25199 4.50781 4.02969L4.50684 4.03164ZM4.5 8.36953C5.34279 8.4688 6.08103 8.81972 6.63574 9.37441C7.18826 9.92699 7.53787 10.6617 7.63867 11.5004H9.33887C9.23227 10.131 8.69818 8.97985 7.86621 8.14688C7.03205 7.31175 5.87755 6.77518 4.5 6.67031V8.36953ZM4.5 11.5004H6.62793C6.53512 10.921 6.28635 10.4391 5.92871 10.0814C5.56903 9.72178 5.08368 9.47185 4.5 9.38027V11.5004Z" fill="black"/>
</svg>
