<svg width="16" height="16" viewBox="0 0 16 16" fill="none" xmlns="http://www.w3.org/2000/svg">
<path d="M12 12C12.2761 12 12.5 12.2239 12.5 12.5C12.5 12.7761 12.2761 13 12 13C11.7239 13 11.5 12.7761 11.5 12.5C11.5 12.2239 11.7239 12 12 12Z" fill="black"/>
<path d="M6.64648 4.14648C6.84174 3.95124 7.15826 3.95124 7.35352 4.14648C7.54877 4.34174 7.54876 4.65825 7.35352 4.85352L7.20703 5H8.5C9.60614 5 10.5 5.89386 10.5 7C10.5 8.10614 9.60614 9 8.5 9H6C5.72386 9 5.5 8.77614 5.5 8.5C5.5 8.22386 5.72386 8 6 8H8.5C9.05386 8 9.5 7.55386 9.5 7C9.5 6.44614 9.05386 6 8.5 6H7.20703L7.35352 6.14648C7.54877 6.34174 7.54876 6.65825 7.35352 6.85352C7.15825 7.04878 6.84175 7.04878 6.64648 6.85352L5.64648 5.85352C5.6123 5.81933 5.58569 5.78055 5.56348 5.74023C5.53909 5.69602 5.51889 5.64875 5.50879 5.59766C5.496 5.53302 5.49587 5.46599 5.50879 5.40137C5.51898 5.35033 5.53903 5.30293 5.56348 5.25879C5.58563 5.21876 5.61252 5.18045 5.64648 5.14648L6.64648 4.14648Z" fill="black"/>
<path fill-rule="evenodd" clip-rule="evenodd" d="M11.3115 1.50586C11.9169 1.55904 12.4345 1.97569 12.6152 2.55664L12.6494 2.68359V2.68652L14.3799 10.8867V10.8896C14.4524 11.242 14.4945 11.5998 14.498 11.9707C14.4982 11.9805 14.5 11.9902 14.5 12V13C14.5 13.8284 13.8284 14.5 13 14.5H3C2.22536 14.5 1.5883 13.9128 1.50879 13.1592C1.49182 13.1089 1.47949 13.056 1.47949 13V12.0195C1.47953 11.6311 1.5249 11.2574 1.60059 10.8896L1.60156 10.8867L3.33105 2.68652L3.33203 2.68359C3.48214 1.99381 4.09578 1.5 4.80078 1.5H11.1807L11.3115 1.50586ZM3 11.5C2.72386 11.5 2.5 11.7239 2.5 12V13C2.5 13.2761 2.72386 13.5 3 13.5H13C13.2761 13.5 13.5 13.2761 13.5 13V12.0195C13.5 12.0101 13.4991 12.0006 13.499 11.9912C13.4943 11.7191 13.2732 11.5 13 11.5H3ZM4.80078 2.5C4.56707 2.5 4.35992 2.66433 4.30859 2.89258L4.30957 2.89355L2.69824 10.5293C2.79566 10.5094 2.89671 10.5 3 10.5H13C13.0961 10.5 13.1901 10.5091 13.2812 10.5264L11.6709 2.89355C11.626 2.69414 11.4629 2.5426 11.2666 2.50781L11.1807 2.5H4.80078Z" fill="black"/>
</svg>
