<svg width="16" height="16" viewBox="0 0 16 16" fill="none" xmlns="http://www.w3.org/2000/svg">
<path d="M11 11.5C11.2761 11.5 11.5 11.7239 11.5 12C11.5 12.2761 11.2761 12.5 11 12.5C10.7239 12.5 10.5 12.2761 10.5 12C10.5 11.7239 10.7239 11.5 11 11.5Z" fill="currentColor"/>
<path d="M11 7.5C11.2761 7.5 11.5 7.72386 11.5 8C11.5 8.27614 11.2761 8.5 11 8.5C10.7239 8.5 10.5 8.27614 10.5 8C10.5 7.72386 10.7239 7.5 11 7.5Z" fill="currentColor"/>
<path d="M11 3.5C11.2761 3.5 11.5 3.72386 11.5 4C11.5 4.27614 11.2761 4.5 11 4.5C10.7239 4.5 10.5 4.27614 10.5 4C10.5 3.72386 10.7239 3.5 11 3.5Z" fill="currentColor"/>
<path fill-rule="evenodd" clip-rule="evenodd" d="M12 1.5C12.8284 1.5 13.5 2.17157 13.5 3V5C13.5 5.38485 13.3535 5.73445 13.1152 6C13.3535 6.26555 13.5 6.61515 13.5 7V9C13.5 9.38485 13.3535 9.73446 13.1152 10C13.3535 10.2655 13.5 10.6151 13.5 11V13C13.5 13.8284 12.8284 14.5 12 14.5H4C3.17157 14.5 2.5 13.8284 2.5 13V11C2.5 10.6154 2.64578 10.2655 2.88379 10C2.64578 9.73451 2.5 9.38462 2.5 9V7C2.5 6.61538 2.64578 6.26549 2.88379 6C2.64578 5.73451 2.5 5.38462 2.5 5V3C2.5 2.17157 3.17157 1.5 4 1.5H12ZM4 10.5C3.72386 10.5 3.5 10.7239 3.5 11V13C3.5 13.2761 3.72386 13.5 4 13.5H12C12.2761 13.5 12.5 13.2761 12.5 13V11C12.5 10.7239 12.2761 10.5 12 10.5H4ZM4 6.5C3.72386 6.5 3.5 6.72386 3.5 7V9C3.5 9.27614 3.72386 9.5 4 9.5H12C12.2761 9.5 12.5 9.27614 12.5 9V7C12.5 6.72386 12.2761 6.5 12 6.5H4ZM4 2.5C3.72386 2.5 3.5 2.72386 3.5 3V5C3.5 5.27614 3.72386 5.5 4 5.5H12C12.2761 5.5 12.5 5.27614 12.5 5V3C12.5 2.72386 12.2761 2.5 12 2.5H4Z" fill="currentColor"/>
</svg>
