<svg width="16" height="16" viewBox="0 0 16 16" fill="none" xmlns="http://www.w3.org/2000/svg">
<path fill-rule="evenodd" clip-rule="evenodd" d="M6.99023 7.5C7.89367 7.50008 8.68211 7.98322 9.11816 8.70312C9.26771 8.66378 9.42603 8.63968 9.58984 8.63965C10.6559 8.63977 11.5205 9.50424 11.5205 10.5703C11.5203 11.6362 10.6558 12.4999 9.58984 12.5H6.99023C5.61409 12.5 4.49023 11.3761 4.49023 10C4.49023 8.62386 5.61409 7.5 6.99023 7.5ZM6.99023 8.5C6.16638 8.5 5.49023 9.17614 5.49023 10C5.49023 10.8239 6.16638 11.5 6.99023 11.5H9.58984C10.1035 11.4999 10.5203 11.0839 10.5205 10.5703C10.5205 10.0565 10.1036 9.63977 9.58984 9.63965C9.43749 9.63972 9.27887 9.68624 9.13574 9.76465L8.30176 10.3984C8.08178 10.565 7.76836 10.5216 7.60156 10.3018C7.43494 10.0818 7.47835 9.76838 7.69824 9.60156L8.24316 9.18652C7.97784 8.7731 7.51504 8.50008 6.99023 8.5Z" fill="currentColor"/>
<path fill-rule="evenodd" clip-rule="evenodd" d="M9 1.5C9.04291 1.5 9.08429 1.50644 9.12402 1.5166C9.14294 1.52145 9.16151 1.52718 9.17969 1.53418C9.18994 1.53814 9.20004 1.54227 9.20996 1.54688C9.22914 1.55575 9.24767 1.56588 9.26562 1.57715C9.27183 1.58105 9.27817 1.5847 9.28418 1.58887C9.30879 1.60587 9.33207 1.62504 9.35352 1.64648L13.3535 5.64648C13.4221 5.71506 13.4706 5.80346 13.4902 5.90234C13.4966 5.93428 13.5 5.96696 13.5 6V13C13.5 13.8261 12.8261 14.5 12 14.5H4C3.17386 14.5 2.5 13.8261 2.5 13V3C2.5 2.17386 3.17386 1.5 4 1.5H9ZM4 2.5C3.72614 2.5 3.5 2.72614 3.5 3V13C3.5 13.2739 3.72614 13.5 4 13.5H12C12.2739 13.5 12.5 13.2739 12.5 13V6.5H10C9.17386 6.5 8.5 5.82614 8.5 5V2.5H4ZM9.5 5C9.5 5.27386 9.72614 5.5 10 5.5H11.793L9.5 3.20703V5Z" fill="currentColor"/>
</svg>
