<svg width="16" height="16" viewBox="0 0 16 16" fill="none" xmlns="http://www.w3.org/2000/svg">
<path d="M6.64648 5.64648C6.84175 5.45122 7.15825 5.45122 7.35352 5.64648C7.54878 5.84175 7.54878 6.15825 7.35352 6.35352L7.20703 6.5H8.5C9.60614 6.5 10.5 7.39386 10.5 8.5C10.5 9.60614 9.60614 10.5 8.5 10.5H6C5.72386 10.5 5.5 10.2761 5.5 10C5.5 9.72386 5.72386 9.5 6 9.5H8.5C9.05386 9.5 9.5 9.05386 9.5 8.5C9.5 7.94614 9.05386 7.5 8.5 7.5H7.20703L7.35352 7.64648C7.54878 7.84175 7.54878 8.15825 7.35352 8.35352C7.15825 8.54878 6.84175 8.54878 6.64648 8.35352L5.64648 7.35352C5.6123 7.31933 5.58569 7.28055 5.56348 7.24023C5.53909 7.19602 5.51889 7.14875 5.50879 7.09766C5.496 7.03302 5.49587 6.96599 5.50879 6.90137C5.51898 6.85033 5.53903 6.80293 5.56348 6.75879C5.58563 6.71875 5.61251 6.68046 5.64648 6.64648L6.64648 5.64648Z" fill="black"/>
<path fill-rule="evenodd" clip-rule="evenodd" d="M8 2.5C10.0476 2.5 11.7389 4.04534 11.9717 6.03125C13.6839 6.26088 15 7.72385 15 9.5C15 11.4361 13.4361 13 11.5 13H4.5C2.56386 13 1 11.4361 1 9.5C1 7.72418 2.31556 6.2613 4.02734 6.03125C4.26003 4.04529 5.95241 2.5 8 2.5ZM8 3.5C6.34614 3.5 5 4.84614 5 6.5C5 6.77614 4.77614 7 4.5 7C3.11614 7 2 8.11614 2 9.5C2 10.8839 3.11614 12 4.5 12H11.5C12.8839 12 14 10.8839 14 9.5C14 8.11614 12.8839 7 11.5 7C11.2239 7 11 6.77614 11 6.5C11 4.84614 9.65386 3.5 8 3.5Z" fill="black"/>
</svg>
