<svg width="16" height="16" viewBox="0 0 16 16" fill="none" xmlns="http://www.w3.org/2000/svg">
<path d="M8 6C8.27614 6 8.5 6.22386 8.5 6.5V9.29297L9.14648 8.64648C9.34175 8.45122 9.65825 8.45122 9.85352 8.64648C10.0488 8.84175 10.0488 9.15826 9.85352 9.35352L8.35352 10.8535C8.31945 10.8876 8.2804 10.9134 8.24023 10.9355C8.19596 10.96 8.14884 10.9801 8.09766 10.9902C8.0329 11.0031 7.96611 11.0032 7.90137 10.9902C7.85024 10.98 7.80299 10.9601 7.75879 10.9355C7.71891 10.9134 7.68034 10.8874 7.64648 10.8535L6.14648 9.35352C5.95122 9.15825 5.95122 8.84175 6.14648 8.64648C6.34175 8.45122 6.65825 8.45122 6.85352 8.64648L7.5 9.29297V6.5C7.5 6.22386 7.72386 6 8 6Z" fill="black"/>
<path fill-rule="evenodd" clip-rule="evenodd" d="M8 2.5C10.0476 2.5 11.7389 4.04534 11.9717 6.03125C13.6839 6.26088 15 7.72385 15 9.5C15 11.4361 13.4361 13 11.5 13H4.5C2.56386 13 1 11.4361 1 9.5C1 7.72418 2.31556 6.2613 4.02734 6.03125C4.26003 4.04529 5.95241 2.5 8 2.5ZM8 3.5C6.34614 3.5 5 4.84614 5 6.5C5 6.77614 4.77614 7 4.5 7C3.11614 7 2 8.11614 2 9.5C2 10.8839 3.11614 12 4.5 12H11.5C12.8839 12 14 10.8839 14 9.5C14 8.11614 12.8839 7 11.5 7C11.2239 7 11 6.77614 11 6.5C11 4.84614 9.65386 3.5 8 3.5Z" fill="black"/>
</svg>
