<svg width="16" height="16" viewBox="0 0 16 16" fill="none" xmlns="http://www.w3.org/2000/svg">
<path d="M5.75 6C6.43614 6 7 6.56386 7 7.25V11C7 11.2761 6.77614 11.5 6.5 11.5C6.22386 11.5 6 11.2761 6 11V7.25C6 7.11614 5.88386 7 5.75 7C5.61614 7 5.5 7.11614 5.5 7.25V11C5.5 11.5539 5.94614 12 6.5 12C7.05386 12 7.5 11.5539 7.5 11V8.75C7.5 8.47386 7.72386 8.25 8 8.25C8.27614 8.25 8.5 8.47386 8.5 8.75V11C8.5 12.1061 7.60614 13 6.5 13C5.39386 13 4.5 12.1061 4.5 11V7.25C4.5 6.56386 5.06386 6 5.75 6Z" fill="currentColor"/>
<path fill-rule="evenodd" clip-rule="evenodd" d="M9.09766 1.00977C9.19389 1.02894 9.28311 1.07608 9.35352 1.14648L13.3535 5.14648C13.4473 5.24025 13.5 5.36739 13.5 5.5V13.5C13.5 14.3261 12.8261 15 12 15H4C3.17386 15 2.5 14.3261 2.5 13.5V2.5C2.5 1.67386 3.17386 1 4 1H9L9.09766 1.00977ZM4 2C3.72614 2 3.5 2.22614 3.5 2.5V13.5C3.5 13.7739 3.72614 14 4 14H12C12.2739 14 12.5 13.7739 12.5 13.5V6.5H10C9.17386 6.5 8.5 5.82614 8.5 5V2H4ZM9.5 5C9.5 5.27386 9.72614 5.5 10 5.5H12.293L9.5 2.70703V5Z" fill="currentColor"/>
</svg>
