<svg width="16" height="16" viewBox="0 0 16 16" fill="none" xmlns="http://www.w3.org/2000/svg">
<path fill-rule="evenodd" clip-rule="evenodd" d="M9 1.5C9.04291 1.5 9.08429 1.50644 9.12402 1.5166C9.14294 1.52145 9.16151 1.52718 9.17969 1.53418C9.18994 1.53814 9.20004 1.54227 9.20996 1.54688C9.22914 1.55575 9.24767 1.56588 9.26562 1.57715C9.27183 1.58105 9.27817 1.5847 9.28418 1.58887C9.30879 1.60587 9.33207 1.62504 9.35352 1.64648L13.3535 5.64648C13.4221 5.71506 13.4706 5.80346 13.4902 5.90234C13.4966 5.93428 13.5 5.96696 13.5 6V7.5C13.5 7.66718 13.4164 7.82328 13.2773 7.91602L10.2773 9.91602C10.1094 10.028 9.89061 10.028 9.72266 9.91602L8.5957 9.16504L7.64844 10.3018L8.31445 10.0361L8.43164 10.0049C8.55135 9.98836 8.67452 10.0154 8.77734 10.084L10.0732 10.9473L12.8418 10.0254C12.9942 9.97458 13.1616 10.0008 13.292 10.0947C13.4224 10.1887 13.5 10.3393 13.5 10.5V13C13.5 13.8261 12.8261 14.5 12 14.5H4C3.17386 14.5 2.5 13.8261 2.5 13V3C2.5 2.17386 3.17386 1.5 4 1.5H9ZM4 2.5C3.72614 2.5 3.5 2.72614 3.5 3V13C3.5 13.2739 3.72614 13.5 4 13.5H12C12.2739 13.5 12.5 13.2739 12.5 13V11.1934L10.1582 11.9746C10.0118 12.0234 9.85104 12.0016 9.72266 11.916L8.44043 11.0615L6.18555 11.9639C5.97306 12.0489 5.73027 11.979 5.5957 11.7939C5.46116 11.6087 5.46966 11.3555 5.61621 11.1797L8.11621 8.17969L8.18262 8.11328C8.34971 7.97595 8.59138 7.96001 8.77734 8.08398L10 8.89844L12.5 7.23242V6.5H10C9.17386 6.5 8.5 5.82614 8.5 5V2.5H4ZM9.5 5C9.5 5.27386 9.72614 5.5 10 5.5H11.793L9.5 3.20703V5Z" fill="black"/>
</svg>
