<svg width="16" height="16" viewBox="0 0 16 16" fill="none" xmlns="http://www.w3.org/2000/svg">
<path d="M8 11.5C8.27614 11.5 8.5 11.7239 8.5 12C8.5 12.2761 8.27614 12.5 8 12.5C7.72386 12.5 7.5 12.2761 7.5 12C7.5 11.7239 7.72386 11.5 8 11.5Z" fill="currentColor"/>
<path d="M7.99023 7.5C8.81627 7.50013 9.49023 8.17394 9.49023 9C9.49023 9.60854 9.07292 10.0841 8.58984 10.2871L8.59082 10.2881L8.5 10.3271V10.5C8.5 10.7761 8.27603 10.9999 8 11C7.72397 10.9999 7.5 10.7761 7.5 10.5V10.25C7.5 9.94693 7.65759 9.66146 7.91602 9.50098L8.0332 9.44043L8.18945 9.37207L8.2002 9.36719C8.39248 9.28774 8.49023 9.12715 8.49023 9C8.49023 8.72622 8.26399 8.50013 7.99023 8.5C7.75075 8.5 7.54719 8.67286 7.5 8.89941L7.48047 9.10059C7.43396 9.32848 7.23184 9.49989 6.99023 9.5C6.71409 9.5 6.49023 9.27614 6.49023 9C6.49023 8.17386 7.16409 7.5 7.99023 7.5Z" fill="currentColor"/>
<path fill-rule="evenodd" clip-rule="evenodd" d="M9 1.5C9.04291 1.5 9.08429 1.50644 9.12402 1.5166C9.14294 1.52145 9.16151 1.52718 9.17969 1.53418C9.18994 1.53814 9.20004 1.54227 9.20996 1.54688C9.22914 1.55575 9.24767 1.56588 9.26562 1.57715C9.27183 1.58105 9.27817 1.5847 9.28418 1.58887C9.30879 1.60587 9.33207 1.62504 9.35352 1.64648L13.3535 5.64648C13.4221 5.71506 13.4706 5.80346 13.4902 5.90234C13.4966 5.93428 13.5 5.96696 13.5 6V13C13.5 13.8261 12.8261 14.5 12 14.5H4C3.17386 14.5 2.5 13.8261 2.5 13V3C2.5 2.17386 3.17386 1.5 4 1.5H9ZM4 2.5C3.72614 2.5 3.5 2.72614 3.5 3V13C3.5 13.2739 3.72614 13.5 4 13.5H12C12.2739 13.5 12.5 13.2739 12.5 13V6.5H10C9.17386 6.5 8.5 5.82614 8.5 5V2.5H4ZM9.5 5C9.5 5.27386 9.72614 5.5 10 5.5H11.793L9.5 3.20703V5Z" fill="currentColor"/>
</svg>
