<svg width="16" height="16" viewBox="0 0 16 16" fill="none" xmlns="http://www.w3.org/2000/svg">
<path d="M5 8C5.27614 8 5.5 8.22386 5.5 8.5V10.5C5.5 10.7761 5.27614 11 5 11C4.72386 11 4.5 10.7761 4.5 10.5V8.5C4.5 8.22386 4.72386 8 5 8Z" fill="black"/>
<path d="M7 8C7.27614 8 7.5 8.22386 7.5 8.5V10.5C7.5 10.7761 7.27614 11 7 11C6.72386 11 6.5 10.7761 6.5 10.5V8.5C6.5 8.22386 6.72386 8 7 8Z" fill="black"/>
<path d="M9 8C9.27614 8 9.5 8.22386 9.5 8.5V10.5C9.5 10.7761 9.27614 11 9 11C8.72386 11 8.5 10.7761 8.5 10.5V8.5C8.5 8.22386 8.72386 8 9 8Z" fill="black"/>
<path d="M11 8C11.2761 8 11.5 8.22386 11.5 8.5V10.5C11.5 10.7761 11.2761 11 11 11C10.7239 11 10.5 10.7761 10.5 10.5V8.5C10.5 8.22386 10.7239 8 11 8Z" fill="black"/>
<path fill-rule="evenodd" clip-rule="evenodd" d="M8 2.5C10.0476 2.5 11.7389 4.04534 11.9717 6.03125C13.6839 6.26088 15 7.72385 15 9.5C15 11.4361 13.4361 13 11.5 13H4.5C2.56386 13 1 11.4361 1 9.5C1 7.72418 2.31556 6.2613 4.02734 6.03125C4.26003 4.04529 5.95241 2.5 8 2.5ZM8 3.5C6.34614 3.5 5 4.84614 5 6.5C5 6.77614 4.77614 7 4.5 7C3.11614 7 2 8.11614 2 9.5C2 10.8839 3.11614 12 4.5 12H11.5C12.8839 12 14 10.8839 14 9.5C14 8.11614 12.8839 7 11.5 7C11.2239 7 11 6.77614 11 6.5C11 4.84614 9.65386 3.5 8 3.5Z" fill="black"/>
</svg>
