<svg width="16" height="16" viewBox="0 0 16 16" fill="none" xmlns="http://www.w3.org/2000/svg">
<path fill-rule="evenodd" clip-rule="evenodd" d="M8 5C8.9665 5 9.75 5.7835 9.75 6.75C9.75 7.23996 9.5481 7.68233 9.22363 8H9.25C10.0761 8 10.75 8.67386 10.75 9.5V10.5C10.75 10.7761 10.5261 11 10.25 11H5.75C5.47386 11 5.25 10.7761 5.25 10.5V9.5C5.25 8.67386 5.92386 8 6.75 8H6.77637C6.4519 7.68233 6.25 7.23996 6.25 6.75C6.25 5.7835 7.0335 5 8 5ZM6.75 9C6.47614 9 6.25 9.22614 6.25 9.5V10H9.75V9.5C9.75 9.22614 9.52386 9 9.25 9H6.75ZM8 6C7.58579 6 7.25 6.33579 7.25 6.75C7.25 7.16421 7.58579 7.5 8 7.5C8.41421 7.5 8.75 7.16421 8.75 6.75C8.75 6.33579 8.41421 6 8 6Z" fill="black"/>
<path fill-rule="evenodd" clip-rule="evenodd" d="M8 2.5C10.0476 2.5 11.7389 4.04534 11.9717 6.03125C13.6839 6.26088 15 7.72385 15 9.5C15 11.4361 13.4361 13 11.5 13H4.5C2.56386 13 1 11.4361 1 9.5C1 7.72418 2.31556 6.2613 4.02734 6.03125C4.26003 4.04529 5.95241 2.5 8 2.5ZM8 3.5C6.34614 3.5 5 4.84614 5 6.5C5 6.77614 4.77614 7 4.5 7C3.11614 7 2 8.11614 2 9.5C2 10.8839 3.11614 12 4.5 12H11.5C12.8839 12 14 10.8839 14 9.5C14 8.11614 12.8839 7 11.5 7C11.2239 7 11 6.77614 11 6.5C11 4.84614 9.65386 3.5 8 3.5Z" fill="black"/>
</svg>
