<svg width="16" height="16" viewBox="0 0 16 16" fill="none" xmlns="http://www.w3.org/2000/svg">
<path fill-rule="evenodd" clip-rule="evenodd" d="M6 5.5C6.9665 5.5 7.75 6.2835 7.75 7.25C7.75 7.73996 7.5481 8.18233 7.22363 8.5H7.25C8.07614 8.5 8.75 9.17386 8.75 10V11C8.75 11.2761 8.52614 11.5 8.25 11.5H3.75C3.47386 11.5 3.25 11.2761 3.25 11V10C3.25 9.17386 3.92386 8.5 4.75 8.5H4.77637C4.4519 8.18233 4.25 7.73996 4.25 7.25C4.25 6.2835 5.0335 5.5 6 5.5ZM4.75 9.5C4.47614 9.5 4.25 9.72614 4.25 10V10.5H7.75V10C7.75 9.72614 7.52386 9.5 7.25 9.5H4.75ZM6 6.5C5.58579 6.5 5.25 6.83579 5.25 7.25C5.25 7.66421 5.58579 8 6 8C6.41421 8 6.75 7.66421 6.75 7.25C6.75 6.83579 6.41421 6.5 6 6.5Z" fill="black"/>
<path d="M8.53809 5.73145C8.78549 5.60913 9.08549 5.71077 9.20801 5.95801C9.47461 6.49726 9.5244 7.02314 9.50977 7.40723C9.50628 7.49825 9.49816 7.58278 9.48926 7.6582C10.2812 8.15225 10.7499 9.04576 10.75 10V11C10.7498 11.2759 10.5259 11.4999 10.25 11.5C9.97408 11.4999 9.75017 11.2759 9.75 11V10C9.74988 9.27346 9.34443 8.6459 8.73633 8.39062C8.49862 8.29065 8.37598 8.02636 8.45312 7.78027C8.45389 7.77736 8.45441 7.772 8.45605 7.76562C8.46028 7.74924 8.46753 7.72186 8.47461 7.68555C8.48895 7.61192 8.50467 7.50219 8.50977 7.36914C8.51999 7.10086 8.48465 6.75158 8.31152 6.40137C8.18944 6.15394 8.29077 5.85381 8.53809 5.73145Z" fill="black"/>
<path fill-rule="evenodd" clip-rule="evenodd" d="M6.98047 2.5C7.4368 2.50012 7.8851 2.67901 8.21289 3.0166L8.69727 3.5H13.5C14.3261 3.5 15 4.17386 15 5V7C15 7.03443 14.9969 7.06811 14.9902 7.10059V12C14.9902 12.8192 14.3274 13.4869 13.5107 13.498C13.5072 13.4981 13.5036 13.5 13.5 13.5H2.5C1.67386 13.5 1 12.8261 1 12V4C1 3.17386 1.67386 2.5 2.5 2.5H6.98047ZM2.5 3.5C2.22614 3.5 2 3.72614 2 4V12C2 12.2739 2.22614 12.5 2.5 12.5H13.4902C13.764 12.4999 13.9902 12.2738 13.9902 12V7C13.9902 6.72622 13.764 6.50013 13.4902 6.5H10.4902C10.3577 6.5 10.2305 6.44721 10.1367 6.35352L7.49902 3.71582C7.36768 3.5788 7.18022 3.50012 6.98047 3.5H2.5ZM10.6973 5.5H13.4902C13.6692 5.50003 13.8406 5.53285 14 5.59082V5C14 4.72614 13.7739 4.5 13.5 4.5H9.69727L10.6973 5.5Z" fill="black"/>
</svg>
