<svg width="16" height="16" viewBox="0 0 16 16" fill="none" xmlns="http://www.w3.org/2000/svg">
<path fill-rule="evenodd" clip-rule="evenodd" d="M8 6.5C8.9665 6.5 9.75 7.2835 9.75 8.25C9.75 8.73996 9.5481 9.18233 9.22363 9.5H9.25C10.0761 9.5 10.75 10.1739 10.75 11V12C10.75 12.2761 10.5261 12.5 10.25 12.5H5.75C5.47386 12.5 5.25 12.2761 5.25 12V11C5.25 10.1739 5.92386 9.5 6.75 9.5H6.77637C6.4519 9.18233 6.25 8.73996 6.25 8.25C6.25 7.2835 7.0335 6.5 8 6.5ZM6.75 10.5C6.47614 10.5 6.25 10.7261 6.25 11V11.5H9.75V11C9.75 10.7261 9.52386 10.5 9.25 10.5H6.75ZM8 7.5C7.58579 7.5 7.25 7.83579 7.25 8.25C7.25 8.66421 7.58579 9 8 9C8.41421 9 8.75 8.66421 8.75 8.25C8.75 7.83579 8.41421 7.5 8 7.5Z" fill="currentColor"/>
<path fill-rule="evenodd" clip-rule="evenodd" d="M9.09766 1.00977C9.19389 1.02894 9.28311 1.07608 9.35352 1.14648L13.3535 5.14648C13.4473 5.24025 13.5 5.36739 13.5 5.5V13.5C13.5 14.3261 12.8261 15 12 15H4C3.17386 15 2.5 14.3261 2.5 13.5V2.5C2.5 1.67386 3.17386 1 4 1H9L9.09766 1.00977ZM4 2C3.72614 2 3.5 2.22614 3.5 2.5V13.5C3.5 13.7739 3.72614 14 4 14H12C12.2739 14 12.5 13.7739 12.5 13.5V6.5H10C9.17386 6.5 8.5 5.82614 8.5 5V2H4ZM9.5 5C9.5 5.27386 9.72614 5.5 10 5.5H12.293L9.5 2.70703V5Z" fill="currentColor"/>
</svg>
