<svg width="16" height="16" viewBox="0 0 16 16" fill="none" xmlns="http://www.w3.org/2000/svg">
<path d="M11 7C11.2761 7 11.5 7.22386 11.5 7.5C11.5 7.77614 11.2761 8 11 8C10.7239 8 10.5 7.77614 10.5 7.5C10.5 7.22386 10.7239 7 11 7Z" fill="currentColor"/>
<path fill-rule="evenodd" clip-rule="evenodd" d="M10.3701 1.5C10.909 1.50004 11.4017 1.79251 11.6689 2.25684L11.7197 2.35156L11.7217 2.35547L13.3418 5.77637L13.3799 5.88965C13.4528 6.24412 13.4949 6.60418 13.498 6.97754C13.4982 6.98502 13.5 6.99249 13.5 7V8C13.5 8.82843 12.8284 9.5 12 9.5H8.5V10H13C13.2761 10 13.5 10.2239 13.5 10.5V11.5869C14.0823 11.793 14.5 12.3471 14.5 13C14.5 13.8284 13.8284 14.5 13 14.5C12.1716 14.5 11.5 13.8284 11.5 13C11.5 12.3471 11.9177 11.793 12.5 11.5869V11H8.5V11.5869C9.08234 11.793 9.5 12.3471 9.5 13C9.5 13.8284 8.82843 14.5 8 14.5C7.17157 14.5 6.5 13.8284 6.5 13C6.5 12.3471 6.91766 11.793 7.5 11.5869V11H3.5V11.5869C4.08234 11.793 4.5 12.3471 4.5 13C4.5 13.8284 3.82843 14.5 3 14.5C2.17157 14.5 1.5 13.8284 1.5 13C1.5 12.3471 1.91766 11.793 2.5 11.5869V10.5C2.5 10.2239 2.72386 10 3 10H7.5V9.5H4C3.17157 9.5 2.5 8.82843 2.5 8V7C2.5 6.9925 2.50087 6.98502 2.50098 6.97754C2.50408 6.60417 2.54717 6.24412 2.62012 5.88965L2.6582 5.77637L4.27832 2.35645C4.52328 1.82667 5.05225 1.50004 5.62988 1.5H10.3701ZM3 12.5C2.72386 12.5 2.5 12.7239 2.5 13C2.5 13.2761 2.72386 13.5 3 13.5C3.27614 13.5 3.5 13.2761 3.5 13C3.5 12.7239 3.27614 12.5 3 12.5ZM8 12.5C7.72386 12.5 7.5 12.7239 7.5 13C7.5 13.2761 7.72386 13.5 8 13.5C8.27614 13.5 8.5 13.2761 8.5 13C8.5 12.7239 8.27614 12.5 8 12.5ZM13 12.5C12.7239 12.5 12.5 12.7239 12.5 13C12.5 13.2761 12.7239 13.5 13 13.5C13.2761 13.5 13.5 13.2761 13.5 13C13.5 12.7239 13.2761 12.5 13 12.5ZM4 6.5C3.72647 6.5 3.50417 6.71965 3.5 6.99219V8C3.5 8.27614 3.72386 8.5 4 8.5H12C12.2761 8.5 12.5 8.27614 12.5 8V7.01953C12.5 7.01041 12.4991 7.0013 12.499 6.99219C12.4948 6.71965 12.2735 6.5 12 6.5H4ZM5.62988 2.5C5.42973 2.50004 5.26078 2.61161 5.18457 2.77832L5.18164 2.78418L3.8916 5.50488C3.92743 5.50232 3.96352 5.5 4 5.5H12C12.0361 5.5 12.0719 5.50237 12.1074 5.50488L10.8203 2.78809L10.7832 2.72461C10.6879 2.58272 10.5322 2.50004 10.3701 2.5H5.62988Z" fill="currentColor"/>
</svg>
