<svg width="16" height="16" viewBox="0 0 16 16" fill="none" xmlns="http://www.w3.org/2000/svg">
<path fill-rule="evenodd" clip-rule="evenodd" d="M5.49023 6.5C6.39367 6.50009 7.18211 6.98323 7.61816 7.70312C7.7677 7.66378 7.92603 7.63968 8.08984 7.63965C9.15587 7.63978 10.0205 8.50425 10.0205 9.57031C10.0203 10.6362 9.15577 11.4999 8.08984 11.5H5.49023C4.11409 11.5 2.99023 10.3761 2.99023 9C2.99023 7.62386 4.11409 6.5 5.49023 6.5ZM5.49023 7.5C4.66638 7.5 3.99023 8.17614 3.99023 9C3.99023 9.82386 4.66638 10.5 5.49023 10.5H8.08984C8.60349 10.4999 9.02034 10.0839 9.02051 9.57031C9.02051 9.05654 8.60359 8.63978 8.08984 8.63965C7.93749 8.63972 7.77886 8.68625 7.63574 8.76465L6.80176 9.39844C6.58178 9.56498 6.26836 9.52163 6.10156 9.30176C5.93494 9.08177 5.97835 8.76838 6.19824 8.60156L6.74316 8.18652C6.47784 7.7731 6.01504 7.50008 5.49023 7.5Z" fill="currentColor"/>
<path fill-rule="evenodd" clip-rule="evenodd" d="M6.98047 2.5C7.4368 2.50012 7.8851 2.67901 8.21289 3.0166L8.69727 3.5H13.5C14.3261 3.5 15 4.17386 15 5V7C15 7.03443 14.9969 7.06811 14.9902 7.10059V12C14.9902 12.8192 14.3274 13.4869 13.5107 13.498C13.5072 13.4981 13.5036 13.5 13.5 13.5H2.5C1.67386 13.5 1 12.8261 1 12V4C1 3.17386 1.67386 2.5 2.5 2.5H6.98047ZM2.5 3.5C2.22614 3.5 2 3.72614 2 4V12C2 12.2739 2.22614 12.5 2.5 12.5H13.4902C13.764 12.4999 13.9902 12.2738 13.9902 12V7C13.9902 6.72622 13.764 6.50013 13.4902 6.5H10.4902C10.3577 6.5 10.2305 6.44721 10.1367 6.35352L7.49902 3.71582C7.36768 3.5788 7.18022 3.50012 6.98047 3.5H2.5ZM10.6973 5.5H13.4902C13.6692 5.50003 13.8406 5.53285 14 5.59082V5C14 4.72614 13.7739 4.5 13.5 4.5H9.69727L10.6973 5.5Z" fill="currentColor"/>
</svg>
