<svg width="16" height="16" viewBox="0 0 16 16" fill="none" xmlns="http://www.w3.org/2000/svg">
<path fill-rule="evenodd" clip-rule="evenodd" d="M6 5.25C6.9665 5.25 7.75 6.0335 7.75 7C7.75 7.9665 6.9665 8.75 6 8.75C5.0335 8.75 4.25 7.9665 4.25 7C4.25 6.0335 5.0335 5.25 6 5.25ZM6 6.25C5.58579 6.25 5.25 6.58579 5.25 7C5.25 7.41421 5.58579 7.75 6 7.75C6.41421 7.75 6.75 7.41421 6.75 7C6.75 6.58579 6.41421 6.25 6 6.25Z" fill="currentColor"/>
<path fill-rule="evenodd" clip-rule="evenodd" d="M9 1.5C9.04291 1.5 9.08429 1.50644 9.12402 1.5166C9.14294 1.52145 9.16151 1.52718 9.17969 1.53418C9.18994 1.53814 9.20004 1.54227 9.20996 1.54688C9.22914 1.55575 9.24767 1.56588 9.26562 1.57715C9.27183 1.58105 9.27817 1.5847 9.28418 1.58887C9.30879 1.60587 9.33207 1.62504 9.35352 1.64648L13.3535 5.64648C13.4221 5.71506 13.4706 5.80346 13.4902 5.90234C13.4966 5.93428 13.5 5.96696 13.5 6V13C13.5 13.8261 12.8261 14.5 12 14.5H4C3.17386 14.5 2.5 13.8261 2.5 13V3C2.5 2.17386 3.17386 1.5 4 1.5H9ZM7.85352 11.8535C7.65826 12.0488 7.34175 12.0488 7.14648 11.8535L6 10.707L3.5332 13.1729C3.60451 13.3625 3.78698 13.5 4 13.5H12C12.2739 13.5 12.5 13.2739 12.5 13V11.207L10.5 9.20703L7.85352 11.8535ZM4 2.5C3.72614 2.5 3.5 2.72614 3.5 3V11.793L5.64648 9.64648L5.72461 9.58203C5.91869 9.45387 6.18265 9.47562 6.35352 9.64648L7.5 10.793L10.1465 8.14648L10.2246 8.08203C10.4187 7.95387 10.6827 7.97562 10.8535 8.14648L12.5 9.79297V6.5H10C9.17386 6.5 8.5 5.82614 8.5 5V2.5H4ZM9.5 5C9.5 5.27386 9.72614 5.5 10 5.5H11.793L9.5 3.20703V5Z" fill="currentColor"/>
</svg>
