<svg width="16" height="16" viewBox="0 0 16 16" fill="none" xmlns="http://www.w3.org/2000/svg">
<path d="M6.30859 6.53809C6.49543 6.4607 6.71052 6.50349 6.85352 6.64648L7.85352 7.64648C8.04877 7.84175 8.04878 8.15826 7.85352 8.35352C7.65826 8.54877 7.34174 8.54877 7.14648 8.35352L7 8.20703V11C6.99999 11.2761 6.77614 11.5 6.5 11.5C6.22386 11.5 6.00001 11.2761 6 11V7C6 6.79779 6.1218 6.61549 6.30859 6.53809Z" fill="black"/>
<path d="M4.5 6.5C4.77614 6.5 5 6.72386 5 7V11C5 11.2022 4.8782 11.3845 4.69141 11.4619C4.50457 11.5393 4.28948 11.4965 4.14648 11.3535L3.14648 10.3535C2.95122 10.1583 2.95122 9.84175 3.14648 9.64648C3.34175 9.45123 3.65825 9.45122 3.85352 9.64648L4 9.79297V7C4 6.72386 4.22386 6.5 4.5 6.5Z" fill="black"/>
<path fill-rule="evenodd" clip-rule="evenodd" d="M6.98047 2.5C7.4368 2.50012 7.8851 2.67901 8.21289 3.0166L8.69727 3.5H13.5C14.3261 3.5 15 4.17386 15 5V7C15 7.03443 14.9969 7.06811 14.9902 7.10059V12C14.9902 12.8192 14.3274 13.4869 13.5107 13.498C13.5072 13.4981 13.5036 13.5 13.5 13.5H2.5C1.67386 13.5 1 12.8261 1 12V4C1 3.17386 1.67386 2.5 2.5 2.5H6.98047ZM2.5 3.5C2.22614 3.5 2 3.72614 2 4V12C2 12.2739 2.22614 12.5 2.5 12.5H13.4902C13.764 12.4999 13.9902 12.2738 13.9902 12V7C13.9902 6.72622 13.764 6.50013 13.4902 6.5H10.4902C10.3577 6.5 10.2305 6.44721 10.1367 6.35352L7.49902 3.71582C7.36767 3.57879 7.18022 3.50012 6.98047 3.5H2.5ZM10.6973 5.5H13.4902C13.6692 5.50003 13.8406 5.53285 14 5.59082V5C14 4.72614 13.7739 4.5 13.5 4.5H9.69727L10.6973 5.5Z" fill="black"/>
</svg>
