<svg width="16" height="16" viewBox="0 0 16 16" fill="none" xmlns="http://www.w3.org/2000/svg">
<path fill-rule="evenodd" clip-rule="evenodd" d="M6.58984 1.5C6.94752 1.5 7.27573 1.62788 7.53613 1.83398L7.64355 1.92676L8.7168 3H12.0098C12.8359 3 13.5098 3.67386 13.5098 4.5V8C13.5098 8.82614 12.8359 9.5 12.0098 9.5H8.5V10H13C13.2761 10 13.5 10.2239 13.5 10.5V11.5869C14.0823 11.793 14.5 12.3471 14.5 13C14.5 13.8284 13.8284 14.5 13 14.5C12.1716 14.5 11.5 13.8284 11.5 13C11.5 12.3471 11.9177 11.793 12.5 11.5869V11H8.5V11.5869C9.08234 11.793 9.5 12.3471 9.5 13C9.5 13.8284 8.82843 14.5 8 14.5C7.17157 14.5 6.5 13.8284 6.5 13C6.5 12.3471 6.91766 11.793 7.5 11.5869V11H3.5V11.5869C4.08234 11.793 4.5 12.3471 4.5 13C4.5 13.8284 3.82843 14.5 3 14.5C2.17157 14.5 1.5 13.8284 1.5 13C1.5 12.3471 1.91766 11.793 2.5 11.5869V10.5C2.5 10.2239 2.72386 10 3 10H7.5V9.5H4C3.17386 9.5 2.5 8.82614 2.5 8V3C2.5 2.17386 3.17386 1.5 4 1.5H6.58984ZM3 12.5C2.72386 12.5 2.5 12.7239 2.5 13C2.5 13.2761 2.72386 13.5 3 13.5C3.27614 13.5 3.5 13.2761 3.5 13C3.5 12.7239 3.27614 12.5 3 12.5ZM8 12.5C7.72386 12.5 7.5 12.7239 7.5 13C7.5 13.2761 7.72386 13.5 8 13.5C8.27614 13.5 8.5 13.2761 8.5 13C8.5 12.7239 8.27614 12.5 8 12.5ZM13 12.5C12.7239 12.5 12.5 12.7239 12.5 13C12.5 13.2761 12.7239 13.5 13 13.5C13.2761 13.5 13.5 13.2761 13.5 13C13.5 12.7239 13.2761 12.5 13 12.5ZM4 2.5C3.72614 2.5 3.5 2.72614 3.5 3V8C3.5 8.27386 3.72614 8.5 4 8.5H12.0098C12.2836 8.5 12.5098 8.27386 12.5098 8V4.5C12.5098 4.22614 12.2836 4 12.0098 4H8.50977C8.37724 3.99994 8.24996 3.94723 8.15625 3.85352L6.95605 2.65332L6.87305 2.58691C6.78595 2.52981 6.6882 2.5 6.58984 2.5H4Z" fill="currentColor"/>
</svg>
