<svg width="16" height="16" viewBox="0 0 16 16" fill="none" xmlns="http://www.w3.org/2000/svg">
<path d="M10.1465 6.64648C10.3417 6.45124 10.6583 6.45124 10.8535 6.64648C11.0488 6.84174 11.0488 7.15825 10.8535 7.35352L7.85352 10.3535C7.65825 10.5488 7.34175 10.5488 7.14648 10.3535L5.64648 8.85352C5.45123 8.65825 5.45122 8.34174 5.64648 8.14648C5.84175 7.95124 6.15826 7.95124 6.35352 8.14648L7.5 9.29297L10.1465 6.64648Z" fill="currentColor"/>
<path fill-rule="evenodd" clip-rule="evenodd" d="M8 2.5C9.86441 2.5 11.4294 3.77656 11.8721 5.50293C11.9144 5.50115 11.9571 5.5 12 5.5C13.9361 5.5 15.5 7.06386 15.5 9C15.5 10.9361 13.9361 12.5 12 12.5H4C2.06386 12.5 0.5 10.9361 0.5 9C0.5 7.06386 2.06386 5.5 4 5.5C4.04259 5.5 4.08494 5.50118 4.12695 5.50293C4.56958 3.77644 6.1355 2.5 8 2.5ZM8 3.5C6.47487 3.5 5.21494 4.63979 5.02637 6.11328C5.00902 6.2489 4.93629 6.37208 4.82617 6.45312C4.71616 6.53395 4.57781 6.56567 4.44336 6.54199C4.29438 6.5157 4.144 6.5 4 6.5C2.61614 6.5 1.5 7.61614 1.5 9C1.5 10.3839 2.61614 11.5 4 11.5H12C13.3839 11.5 14.5 10.3839 14.5 9C14.5 7.61614 13.3839 6.5 12 6.5C11.856 6.5 11.7056 6.5157 11.5566 6.54199C11.4222 6.56567 11.2838 6.53395 11.1738 6.45312C11.0637 6.37208 10.991 6.2489 10.9736 6.11328C10.7851 4.63979 9.52513 3.5 8 3.5Z" fill="currentColor"/>
</svg>
