<svg width="16" height="16" viewBox="0 0 16 16" fill="none" xmlns="http://www.w3.org/2000/svg">
<path fill-rule="evenodd" clip-rule="evenodd" d="M6.5 5.5C7.4665 5.5 8.25 6.2835 8.25 7.25C8.25 7.73996 8.0481 8.18233 7.72363 8.5H7.75C8.57614 8.5 9.25 9.17386 9.25 10V11C9.25 11.2761 9.02614 11.5 8.75 11.5H4.25C3.97386 11.5 3.75 11.2761 3.75 11V10C3.75 9.17386 4.42386 8.5 5.25 8.5H5.27637C4.9519 8.18233 4.75 7.73996 4.75 7.25C4.75 6.2835 5.5335 5.5 6.5 5.5ZM5.25 9.5C4.97614 9.5 4.75 9.72614 4.75 10V10.5H8.25V10C8.25 9.72614 8.02386 9.5 7.75 9.5H5.25ZM6.5 6.5C6.08579 6.5 5.75 6.83579 5.75 7.25C5.75 7.66421 6.08579 8 6.5 8C6.91421 8 7.25 7.66421 7.25 7.25C7.25 6.83579 6.91421 6.5 6.5 6.5Z" fill="black"/>
<path fill-rule="evenodd" clip-rule="evenodd" d="M6.98047 2.5C7.4368 2.50012 7.8851 2.67901 8.21289 3.0166L9.69727 4.5H12.9902C13.8163 4.50012 14.4902 5.17393 14.4902 6V12C14.4902 12.8192 13.8274 13.4869 13.0107 13.498C13.0072 13.4981 13.0036 13.5 13 13.5H3C2.17386 13.5 1.5 12.8261 1.5 12V4C1.5 3.17386 2.17386 2.5 3 2.5H6.98047ZM3 3.5C2.72614 3.5 2.5 3.72614 2.5 4V12C2.5 12.2739 2.72614 12.5 3 12.5H12.9902C13.264 12.4999 13.4902 12.2738 13.4902 12V6C13.4902 5.72622 13.264 5.50013 12.9902 5.5H9.49023C9.35768 5.5 9.23048 5.44721 9.13672 5.35352L7.49902 3.71582C7.36768 3.5788 7.18022 3.50012 6.98047 3.5H3Z" fill="black"/>
</svg>
