<svg width="16" height="16" viewBox="0 0 16 16" fill="none" xmlns="http://www.w3.org/2000/svg">
<path fill-rule="evenodd" clip-rule="evenodd" d="M6.12988 7.93066C6.12988 7.18261 6.91554 6.7134 7.56055 7.02246L7.6875 7.09473L10.0371 8.66406C10.6338 9.06189 10.6335 9.92716 10.0371 10.3252L10.0381 10.3262L7.6875 11.8965C7.02411 12.3385 6.13027 11.8579 6.12988 11.0605V7.93066ZM7.13281 7.92871C7.13183 7.92915 7.13045 7.92926 7.12988 7.92969V11.0605C7.13053 11.0611 7.13171 11.0619 7.13281 11.0625L9.48047 9.49512L7.13379 7.92773L7.13281 7.92871Z" fill="black"/>
<path fill-rule="evenodd" clip-rule="evenodd" d="M9 1.5C9.04291 1.5 9.08429 1.50644 9.12402 1.5166C9.14294 1.52145 9.16151 1.52718 9.17969 1.53418C9.18994 1.53814 9.20004 1.54227 9.20996 1.54688C9.22914 1.55575 9.24767 1.56588 9.26562 1.57715C9.27183 1.58105 9.27817 1.5847 9.28418 1.58887C9.30879 1.60587 9.33207 1.62504 9.35352 1.64648L13.3535 5.64648C13.4221 5.71506 13.4706 5.80346 13.4902 5.90234C13.4966 5.93428 13.5 5.96696 13.5 6V13C13.5 13.8261 12.8261 14.5 12 14.5H4C3.17386 14.5 2.5 13.8261 2.5 13V3C2.5 2.17386 3.17386 1.5 4 1.5H9ZM4 2.5C3.72614 2.5 3.5 2.72614 3.5 3V13C3.5 13.2739 3.72614 13.5 4 13.5H12C12.2739 13.5 12.5 13.2739 12.5 13V6.5H10C9.17386 6.5 8.5 5.82614 8.5 5V2.5H4ZM9.5 5C9.5 5.27386 9.72614 5.5 10 5.5H11.793L9.5 3.20703V5Z" fill="black"/>
</svg>
