<svg width="16" height="16" viewBox="0 0 16 16" fill="none" xmlns="http://www.w3.org/2000/svg">
<path d="M8.80859 6.03809C8.99543 5.9607 9.21052 6.00349 9.35352 6.14648L10.3535 7.14648C10.5488 7.34175 10.5488 7.65826 10.3535 7.85352C10.1583 8.04877 9.84174 8.04877 9.64648 7.85352L9.5 7.70703V10.5C9.49999 10.7761 9.27614 11 9 11C8.72386 11 8.50001 10.7761 8.5 10.5V6.5C8.5 6.29779 8.6218 6.11549 8.80859 6.03809Z" fill="currentColor"/>
<path d="M7 6C7.27614 6 7.5 6.22386 7.5 6.5V10.5C7.5 10.7022 7.3782 10.8845 7.19141 10.9619C7.00457 11.0393 6.78948 10.9965 6.64648 10.8535L5.64648 9.85352C5.45122 9.65825 5.45122 9.34175 5.64648 9.14648C5.84175 8.95123 6.15825 8.95122 6.35352 9.14648L6.5 9.29297V6.5C6.5 6.22386 6.72386 6 7 6Z" fill="currentColor"/>
<path fill-rule="evenodd" clip-rule="evenodd" d="M8 2.5C10.0476 2.5 11.7389 4.04534 11.9717 6.03125C13.6839 6.26088 15 7.72385 15 9.5C15 11.4361 13.4361 13 11.5 13H4.5C2.56386 13 1 11.4361 1 9.5C1 7.72418 2.31556 6.2613 4.02734 6.03125C4.26003 4.04529 5.95241 2.5 8 2.5ZM8 3.5C6.34614 3.5 5 4.84614 5 6.5C5 6.77614 4.77614 7 4.5 7C3.11614 7 2 8.11614 2 9.5C2 10.8839 3.11614 12 4.5 12H11.5C12.8839 12 14 10.8839 14 9.5C14 8.11614 12.8839 7 11.5 7C11.2239 7 11 6.77614 11 6.5C11 4.84614 9.65386 3.5 8 3.5Z" fill="currentColor"/>
</svg>
