<svg width="16" height="16" viewBox="0 0 16 16" fill="none" xmlns="http://www.w3.org/2000/svg">
<path fill-rule="evenodd" clip-rule="evenodd" d="M5.99023 6.5C6.89367 6.50008 7.68211 6.98322 8.11816 7.70312C8.26771 7.66378 8.42603 7.63968 8.58984 7.63965C9.65588 7.63977 10.5205 8.50424 10.5205 9.57031C10.5203 10.6362 9.65577 11.4999 8.58984 11.5H5.99023C4.61409 11.5 3.49023 10.3761 3.49023 9C3.49023 7.62386 4.61409 6.5 5.99023 6.5ZM5.99023 7.5C5.16638 7.5 4.49023 8.17614 4.49023 9C4.49023 9.82386 5.16638 10.5 5.99023 10.5H8.58984C9.1035 10.4999 9.52034 10.0839 9.52051 9.57031C9.52051 9.05654 9.1036 8.63977 8.58984 8.63965C8.43749 8.63972 8.27887 8.68624 8.13574 8.76465L7.30176 9.39844C7.08178 9.56498 6.76836 9.52163 6.60156 9.30176C6.43494 9.08177 6.47835 8.76838 6.69824 8.60156L7.24316 8.18652C6.97784 7.7731 6.51504 7.50008 5.99023 7.5Z" fill="currentColor"/>
<path fill-rule="evenodd" clip-rule="evenodd" d="M6.98047 2.5C7.4368 2.50012 7.8851 2.67901 8.21289 3.0166L9.69727 4.5H12.9902C13.8163 4.50012 14.4902 5.17393 14.4902 6V12C14.4902 12.8192 13.8274 13.4869 13.0107 13.498C13.0072 13.4981 13.0036 13.5 13 13.5H3C2.17386 13.5 1.5 12.8261 1.5 12V4C1.5 3.17386 2.17386 2.5 3 2.5H6.98047ZM3 3.5C2.72614 3.5 2.5 3.72614 2.5 4V12C2.5 12.2739 2.72614 12.5 3 12.5H12.9902C13.264 12.4999 13.4902 12.2738 13.4902 12V6C13.4902 5.72622 13.264 5.50013 12.9902 5.5H9.49023C9.35768 5.5 9.23048 5.44721 9.13672 5.35352L7.49902 3.71582C7.36768 3.5788 7.18022 3.50012 6.98047 3.5H3Z" fill="currentColor"/>
</svg>
