<svg width="16" height="16" viewBox="0 0 16 16" fill="none" xmlns="http://www.w3.org/2000/svg">
<path d="M8.01562 6.00098C8.03625 6.00164 8.05672 6.00363 8.07715 6.00684C8.0907 6.00894 8.10402 6.01148 8.11719 6.01465C8.13539 6.01905 8.15318 6.02479 8.1709 6.03125C8.18031 6.03468 8.19008 6.03705 8.19922 6.04102C8.20309 6.0427 8.2071 6.04411 8.21094 6.0459L8.2793 6.08496C8.2814 6.08638 8.28308 6.0884 8.28516 6.08984C8.30909 6.10653 8.33217 6.12514 8.35352 6.14648L9.85352 7.64648C10.0488 7.84175 10.0488 8.15826 9.85352 8.35352C9.65826 8.54878 9.34175 8.54877 9.14648 8.35352L8.5 7.70703V10.5C8.5 10.7761 8.27614 11 8 11C7.72386 11 7.5 10.7761 7.5 10.5V7.70703L6.85352 8.35352C6.65826 8.54878 6.34175 8.54877 6.14648 8.35352C5.95122 8.15825 5.95122 7.84175 6.14648 7.64648L7.64648 6.14648L7.72461 6.08203C7.74996 6.06529 7.77633 6.05069 7.80371 6.03906C7.80748 6.03745 7.81161 6.03667 7.81543 6.03516C7.84061 6.02519 7.86638 6.01743 7.89258 6.01172C7.90092 6.00989 7.90948 6.00922 7.91797 6.00781C7.94067 6.00408 7.96338 6.00157 7.98633 6.00098C7.99088 6.00085 7.99542 6 8 6C8.00524 6 8.01043 6.00082 8.01562 6.00098Z" fill="currentColor"/>
<path fill-rule="evenodd" clip-rule="evenodd" d="M8 2.5C10.0476 2.5 11.7389 4.04534 11.9717 6.03125C13.6839 6.26088 15 7.72385 15 9.5C15 11.4361 13.4361 13 11.5 13H4.5C2.56386 13 1 11.4361 1 9.5C1 7.72418 2.31556 6.2613 4.02734 6.03125C4.26003 4.04529 5.95241 2.5 8 2.5ZM8 3.5C6.34614 3.5 5 4.84614 5 6.5C5 6.77614 4.77614 7 4.5 7C3.11614 7 2 8.11614 2 9.5C2 10.8839 3.11614 12 4.5 12H11.5C12.8839 12 14 10.8839 14 9.5C14 8.11614 12.8839 7 11.5 7C11.2239 7 11 6.77614 11 6.5C11 4.84614 9.65386 3.5 8 3.5Z" fill="currentColor"/>
</svg>
