<svg width="16" height="16" viewBox="0 0 16 16" fill="none" xmlns="http://www.w3.org/2000/svg">
<path d="M5.5 6.5C5.77614 6.5 6 6.72386 6 7V9.79297L6.64648 9.14648C6.84175 8.95122 7.15825 8.95122 7.35352 9.14648C7.54877 9.34175 7.54878 9.65826 7.35352 9.85352L5.85352 11.3535C5.81945 11.3876 5.7804 11.4134 5.74023 11.4355C5.69596 11.46 5.64884 11.4801 5.59766 11.4902C5.5329 11.5031 5.46611 11.5032 5.40137 11.4902C5.35024 11.48 5.30299 11.4601 5.25879 11.4355C5.21891 11.4134 5.18034 11.3874 5.14648 11.3535L3.64648 9.85352C3.45122 9.65825 3.45122 9.34175 3.64648 9.14648C3.84175 8.95122 4.15825 8.95122 4.35352 9.14648L5 9.79297V7C5 6.72386 5.22386 6.5 5.5 6.5Z" fill="currentColor"/>
<path fill-rule="evenodd" clip-rule="evenodd" d="M6.98047 2.5C7.43682 2.50012 7.88511 2.67901 8.21289 3.0166L8.69727 3.5H13.5C14.3261 3.5 15 4.17386 15 5V7C15 7.03443 14.9969 7.06811 14.9902 7.10059V12C14.9902 12.8192 14.3274 13.4869 13.5107 13.498C13.5072 13.4981 13.5036 13.5 13.5 13.5H2.5C1.67386 13.5 1 12.8261 1 12V4C1 3.17386 1.67386 2.5 2.5 2.5H6.98047ZM2.5 3.5C2.22614 3.5 2 3.72614 2 4V12C2 12.2739 2.22614 12.5 2.5 12.5H13.4902C13.764 12.4999 13.9902 12.2738 13.9902 12V7C13.9902 6.72622 13.764 6.50013 13.4902 6.5H10.4902C10.3577 6.5 10.2305 6.44721 10.1367 6.35352L7.49902 3.71582C7.36766 3.57878 7.18021 3.50012 6.98047 3.5H2.5ZM10.6973 5.5H13.4902C13.6692 5.50003 13.8406 5.53285 14 5.59082V5C14 4.72614 13.7739 4.5 13.5 4.5H9.69727L10.6973 5.5Z" fill="currentColor"/>
</svg>
