<svg width="16" height="16" viewBox="0 0 16 16" fill="none" xmlns="http://www.w3.org/2000/svg">
<path d="M12 12C12.2761 12 12.5 12.2239 12.5 12.5C12.5 12.7761 12.2761 13 12 13C11.7239 13 11.5 12.7761 11.5 12.5C11.5 12.2239 11.7239 12 12 12Z" fill="black"/>
<path fill-rule="evenodd" clip-rule="evenodd" d="M8.93066 3.50977C9.15859 3.55633 9.33008 3.75832 9.33008 4V5.16992H10.5C10.7761 5.16992 11 5.39381 11 5.66992V7.33008C11 7.60619 10.7761 7.83008 10.5 7.83008H9.33008V9C9.33008 9.27611 9.10618 9.49995 8.83008 9.5H7.16992C6.89382 9.49995 6.66992 9.27611 6.66992 9V7.83008H5.5C5.22388 7.83008 5.00004 7.60619 5 7.33008V5.66992L5.00977 5.56934C5.05632 5.34141 5.25831 5.16992 5.5 5.16992H6.66992V4C6.66992 3.72389 6.89382 3.50005 7.16992 3.5H8.83008L8.93066 3.50977ZM7.66992 5.66992C7.66992 5.94606 7.44606 6.16992 7.16992 6.16992H6V6.83008H7.16992C7.44606 6.83008 7.66992 7.05394 7.66992 7.33008V8.5H8.33008V7.33008C8.33008 7.05394 8.55394 6.83008 8.83008 6.83008H10V6.16992H8.83008C8.55394 6.16992 8.33008 5.94606 8.33008 5.66992V4.5H7.66992V5.66992Z" fill="black"/>
<path fill-rule="evenodd" clip-rule="evenodd" d="M11.1807 1.5C11.8413 1.50029 12.4217 1.93422 12.6152 2.55664L12.6494 2.68359V2.68652L14.3799 10.8867V10.8896C14.4524 11.242 14.4945 11.5998 14.498 11.9707C14.4982 11.9805 14.5 11.9902 14.5 12V13C14.5 13.8284 13.8284 14.5 13 14.5H3C2.22536 14.5 1.5883 13.9128 1.50879 13.1592C1.49182 13.1089 1.48047 13.056 1.48047 13V12.0195C1.4805 11.6312 1.5249 11.2574 1.60059 10.8896L1.60156 10.8867L3.33105 2.68652L3.33203 2.68359C3.48213 1.99382 4.09577 1.5 4.80078 1.5H11.1807ZM3 11.5C2.72386 11.5 2.5 11.7239 2.5 12V13C2.5 13.2761 2.72386 13.5 3 13.5H13C13.2761 13.5 13.5 13.2761 13.5 13V12.0195C13.5 12.0101 13.4991 12.0006 13.499 11.9912C13.4943 11.7191 13.2732 11.5 13 11.5H3ZM4.80078 2.5C4.56708 2.5 4.35992 2.66432 4.30859 2.89258L4.30957 2.89355L2.69824 10.5293C2.79566 10.5094 2.89671 10.5 3 10.5H13C13.0961 10.5 13.1901 10.5091 13.2812 10.5264L11.6709 2.89355C11.6195 2.66564 11.414 2.50031 11.1807 2.5H4.80078Z" fill="black"/>
</svg>
