<svg width="16" height="16" viewBox="0 0 16 16" fill="none" xmlns="http://www.w3.org/2000/svg">
<path d="M10.1465 7.64648C10.3417 7.45123 10.6583 7.45125 10.8535 7.64648C11.0488 7.84175 11.0488 8.15825 10.8535 8.35352L7.85352 11.3535C7.65825 11.5488 7.34175 11.5488 7.14648 11.3535L5.64648 9.85352C5.45125 9.65825 5.45123 9.34174 5.64648 9.14648C5.84174 8.95123 6.15825 8.95125 6.35352 9.14648L7.5 10.293L10.1465 7.64648Z" fill="black"/>
<path fill-rule="evenodd" clip-rule="evenodd" d="M9.09766 1.00977C9.19389 1.02894 9.28311 1.07608 9.35352 1.14648L13.3535 5.14648C13.4473 5.24025 13.5 5.36739 13.5 5.5V13.5C13.5 14.3261 12.8261 15 12 15H4C3.17386 15 2.5 14.3261 2.5 13.5V2.5C2.5 1.67386 3.17386 1 4 1H9L9.09766 1.00977ZM4 2C3.72614 2 3.5 2.22614 3.5 2.5V13.5C3.5 13.7739 3.72614 14 4 14H12C12.2739 14 12.5 13.7739 12.5 13.5V6.5H10C9.17386 6.5 8.5 5.82614 8.5 5V2H4ZM9.5 5C9.5 5.27386 9.72614 5.5 10 5.5H12.293L9.5 2.70703V5Z" fill="black"/>
</svg>
