<svg width="16" height="16" viewBox="0 0 16 16" fill="none" xmlns="http://www.w3.org/2000/svg">
<path fill-rule="evenodd" clip-rule="evenodd" d="M7 7C7.9665 7 8.75 7.7835 8.75 8.75C8.75 9.23996 8.5481 9.68233 8.22363 10H8.25C9.07614 10 9.75 10.6739 9.75 11.5V12.5C9.75 12.7761 9.52614 13 9.25 13H4.75C4.47386 13 4.25 12.7761 4.25 12.5V11.5C4.25 10.6739 4.92386 10 5.75 10H5.77637C5.4519 9.68233 5.25 9.23996 5.25 8.75C5.25 7.7835 6.0335 7 7 7ZM5.75 11C5.47614 11 5.25 11.2261 5.25 11.5V12H8.75V11.5C8.75 11.2261 8.52386 11 8.25 11H5.75ZM7 8C6.58579 8 6.25 8.33579 6.25 8.75C6.25 9.16421 6.58579 9.5 7 9.5C7.41421 9.5 7.75 9.16421 7.75 8.75C7.75 8.33579 7.41421 8 7 8Z" fill="currentColor"/>
<path d="M9.53809 7.23145C9.78549 7.10913 10.0855 7.21077 10.208 7.45801C10.4746 7.99726 10.5244 8.52314 10.5098 8.90723C10.5063 8.99825 10.4982 9.08278 10.4893 9.1582C11.2812 9.65225 11.7499 10.5458 11.75 11.5V12.5C11.7498 12.7759 11.5259 12.9999 11.25 13C10.9741 12.9999 10.7502 12.7759 10.75 12.5V11.5C10.7499 10.7735 10.3444 10.1459 9.73633 9.89062C9.49862 9.79065 9.37598 9.52636 9.45312 9.28027C9.45389 9.27736 9.45441 9.272 9.45605 9.26562C9.46028 9.24924 9.46753 9.22186 9.47461 9.18555C9.48895 9.11192 9.50467 9.00219 9.50977 8.86914C9.51999 8.60086 9.48465 8.25158 9.31152 7.90137C9.18944 7.65394 9.29077 7.35381 9.53809 7.23145Z" fill="currentColor"/>
<path fill-rule="evenodd" clip-rule="evenodd" d="M9.09766 1.00977C9.19389 1.02894 9.28311 1.07608 9.35352 1.14648L13.3535 5.14648C13.4473 5.24025 13.5 5.36739 13.5 5.5V13.5C13.5 14.3261 12.8261 15 12 15H4C3.17386 15 2.5 14.3261 2.5 13.5V2.5C2.5 1.67386 3.17386 1 4 1H9L9.09766 1.00977ZM4 2C3.72614 2 3.5 2.22614 3.5 2.5V13.5C3.5 13.7739 3.72614 14 4 14H12C12.2739 14 12.5 13.7739 12.5 13.5V6.5H10C9.17386 6.5 8.5 5.82614 8.5 5V2H4ZM9.5 5C9.5 5.27386 9.72614 5.5 10 5.5H12.293L9.5 2.70703V5Z" fill="currentColor"/>
</svg>
