<svg width="16" height="16" viewBox="0 0 16 16" fill="none" xmlns="http://www.w3.org/2000/svg">
<path fill-rule="evenodd" clip-rule="evenodd" d="M6.99023 7C7.89367 7.00009 8.68211 7.48323 9.11816 8.20312C9.2677 8.16378 9.42603 8.13968 9.58984 8.13965C10.6559 8.13978 11.5205 9.00425 11.5205 10.0703C11.5203 11.1362 10.6558 11.9999 9.58984 12H6.99023C5.61409 12 4.49023 10.8761 4.49023 9.5C4.49023 8.12386 5.61409 7 6.99023 7ZM6.99023 8C6.16638 8 5.49023 8.67614 5.49023 9.5C5.49023 10.3239 6.16638 11 6.99023 11H9.58984C10.1035 10.9999 10.5203 10.5839 10.5205 10.0703C10.5205 9.55654 10.1036 9.13978 9.58984 9.13965C9.43749 9.13972 9.27886 9.18625 9.13574 9.26465L8.30176 9.89844C8.08178 10.065 7.76836 10.0216 7.60156 9.80176C7.43494 9.58177 7.47835 9.26838 7.69824 9.10156L8.24316 8.68652C7.97784 8.2731 7.51504 8.00008 6.99023 8Z" fill="currentColor"/>
<path fill-rule="evenodd" clip-rule="evenodd" d="M9.09766 1.00977C9.19389 1.02894 9.28311 1.07608 9.35352 1.14648L13.3535 5.14648C13.4473 5.24025 13.5 5.36739 13.5 5.5V13.5C13.5 14.3261 12.8261 15 12 15H4C3.17386 15 2.5 14.3261 2.5 13.5V2.5C2.5 1.67386 3.17386 1 4 1H9L9.09766 1.00977ZM4 2C3.72614 2 3.5 2.22614 3.5 2.5V13.5C3.5 13.7739 3.72614 14 4 14H12C12.2739 14 12.5 13.7739 12.5 13.5V6.5H10C9.17386 6.5 8.5 5.82614 8.5 5V2H4ZM9.5 5C9.5 5.27386 9.72614 5.5 10 5.5H12.293L9.5 2.70703V5Z" fill="currentColor"/>
</svg>
