<svg width="16" height="16" viewBox="0 0 16 16" fill="none" xmlns="http://www.w3.org/2000/svg">
<path fill-rule="evenodd" clip-rule="evenodd" d="M6.65234 2.50879C7.04794 2.5479 7.4264 2.72154 7.71289 3.0166L9.19727 4.5H12.9902C13.8163 4.50013 14.4902 5.17394 14.4902 6V11.5C14.4902 12.3192 13.8274 12.9869 13.0107 12.998C13.0072 12.9981 13.0036 13 13 13H3C2.17386 13 1.5 12.3261 1.5 11.5V4C1.5 3.17386 2.17386 2.5 3 2.5H6.48047L6.65234 2.50879ZM3 3.5C2.72614 3.5 2.5 3.72614 2.5 4V11.5C2.5 11.7739 2.72614 12 3 12H12.9902C13.264 11.9999 13.4902 11.7738 13.4902 11.5V6C13.4902 5.72622 13.264 5.50013 12.9902 5.5H8.99023C8.85768 5.5 8.73048 5.44721 8.63672 5.35352L6.99902 3.71582C6.90045 3.61298 6.7702 3.54323 6.62695 3.51465L6.48047 3.5H3Z" fill="currentColor"/>
</svg>
