<svg width="16" height="16" viewBox="0 0 16 16" fill="none" xmlns="http://www.w3.org/2000/svg">
<path fill-rule="evenodd" clip-rule="evenodd" d="M8 1.5C10.2091 1.5 12 3.29086 12 5.5C12 7.53975 10.4731 9.22165 8.5 9.46777V10H13C13.2761 10 13.5 10.2239 13.5 10.5V11.5869C14.0823 11.793 14.5 12.3471 14.5 13C14.5 13.8284 13.8284 14.5 13 14.5C12.1716 14.5 11.5 13.8284 11.5 13C11.5 12.3471 11.9177 11.793 12.5 11.5869V11H8.5V11.5869C9.08234 11.793 9.5 12.3471 9.5 13C9.5 13.8284 8.82843 14.5 8 14.5C7.17157 14.5 6.5 13.8284 6.5 13C6.5 12.3471 6.91766 11.793 7.5 11.5869V11H3.5V11.5869C4.08234 11.793 4.5 12.3471 4.5 13C4.5 13.8284 3.82843 14.5 3 14.5C2.17157 14.5 1.5 13.8284 1.5 13C1.5 12.3471 1.91766 11.793 2.5 11.5869V10.5C2.5 10.2239 2.72386 10 3 10H7.5V9.46777C5.52692 9.22165 4 7.53975 4 5.5C4 3.29086 5.79086 1.5 8 1.5ZM3 12.5C2.72386 12.5 2.5 12.7239 2.5 13C2.5 13.2761 2.72386 13.5 3 13.5C3.27614 13.5 3.5 13.2761 3.5 13C3.5 12.7239 3.27614 12.5 3 12.5ZM8 12.5C7.72386 12.5 7.5 12.7239 7.5 13C7.5 13.2761 7.72386 13.5 8 13.5C8.27614 13.5 8.5 13.2761 8.5 13C8.5 12.7239 8.27614 12.5 8 12.5ZM13 12.5C12.7239 12.5 12.5 12.7239 12.5 13C12.5 13.2761 12.7239 13.5 13 13.5C13.2761 13.5 13.5 13.2761 13.5 13C13.5 12.7239 13.2761 12.5 13 12.5ZM7.20996 6C7.28569 6.96 7.57676 7.81961 8 8.49316C8.42764 7.82158 8.71573 6.963 8.79004 6H7.20996ZM5.04199 6C5.20729 6.98513 5.85378 7.80417 6.73047 8.21484C6.44507 7.54832 6.26234 6.79734 6.20801 6H5.04199ZM9.79297 6C9.73987 6.79503 9.5597 7.54495 9.27441 8.21191C10.1485 7.80044 10.793 6.9832 10.958 6H9.79297ZM6.72461 2.78711C5.85075 3.19865 5.20694 4.01696 5.04199 5H6.20703C6.26014 4.20486 6.4393 3.45424 6.72461 2.78711ZM7.99805 2.50586C7.57044 3.17737 7.28432 4.03713 7.20996 5H8.79004C8.71418 4.03931 8.42183 3.17961 7.99805 2.50586ZM9.26953 2.78418C9.55504 3.45097 9.73763 4.20242 9.79199 5H10.958C10.7927 4.01473 10.1464 3.19479 9.26953 2.78418Z" fill="black"/>
</svg>
