<svg width="16" height="16" viewBox="0 0 16 16" fill="none" xmlns="http://www.w3.org/2000/svg">
<path fill-rule="evenodd" clip-rule="evenodd" d="M6.65234 3.00879C7.04794 3.0479 7.4264 3.22155 7.71289 3.5166L8.19727 4H13C13.8261 4 14.5 4.67386 14.5 5.5V7.5C14.5 7.53443 14.4969 7.56811 14.4902 7.60059V11.5C14.4902 12.3192 13.8274 12.9869 13.0107 12.998C13.0072 12.9981 13.0036 13 13 13H3C2.17386 13 1.5 12.3261 1.5 11.5V4.5C1.5 3.67386 2.17386 3 3 3H6.48047L6.65234 3.00879ZM3 4C2.72614 4 2.5 4.22614 2.5 4.5V11.5C2.5 11.7739 2.72614 12 3 12H12.9902C13.264 11.9999 13.4902 11.7738 13.4902 11.5V7.5C13.4902 7.22622 13.264 7.00013 12.9902 7H9.99023C9.85768 7 9.73048 6.94721 9.63672 6.85352L6.99902 4.21582C6.90045 4.11298 6.77019 4.04323 6.62695 4.01465L6.48047 4H3ZM10.1973 6H12.9902C13.1692 6.00003 13.3406 6.03285 13.5 6.09082V5.5C13.5 5.22614 13.2739 5 13 5H9.19727L10.1973 6Z" fill="black"/>
</svg>
