<svg width="16" height="16" viewBox="0 0 16 16" fill="none" xmlns="http://www.w3.org/2000/svg">
<path d="M6.7002 8.09961C6.92109 7.9342 7.23478 7.97939 7.40039 8.2002C7.5658 8.42109 7.52061 8.73478 7.2998 8.90039L5.83301 10L7.2998 11.0996C7.52061 11.2652 7.5658 11.5789 7.40039 11.7998C7.23478 12.0206 6.92109 12.0658 6.7002 11.9004L4.7002 10.4004C4.57429 10.306 4.5 10.1574 4.5 10C4.5 9.84262 4.57429 9.69404 4.7002 9.59961L6.7002 8.09961Z" fill="currentColor"/>
<path d="M8.59961 8.2002C8.76522 7.97939 9.07891 7.9342 9.2998 8.09961L11.2998 9.59961C11.4257 9.69404 11.5 9.84262 11.5 10C11.5 10.1574 11.4257 10.306 11.2998 10.4004L9.2998 11.9004C9.07891 12.0658 8.76522 12.0206 8.59961 11.7998C8.4342 11.5789 8.47939 11.2652 8.7002 11.0996L10.166 10L8.7002 8.90039C8.47939 8.73478 8.4342 8.42109 8.59961 8.2002Z" fill="currentColor"/>
<path fill-rule="evenodd" clip-rule="evenodd" d="M9.09766 1.00977C9.19389 1.02894 9.28311 1.07608 9.35352 1.14648L13.3535 5.14648C13.4473 5.24025 13.5 5.36739 13.5 5.5V13.5C13.5 14.3261 12.8261 15 12 15H4C3.17386 15 2.5 14.3261 2.5 13.5V2.5C2.5 1.67386 3.17386 1 4 1H9L9.09766 1.00977ZM4 2C3.72614 2 3.5 2.22614 3.5 2.5V13.5C3.5 13.7739 3.72614 14 4 14H12C12.2739 14 12.5 13.7739 12.5 13.5V6.5H10C9.17386 6.5 8.5 5.82614 8.5 5V2H4ZM9.5 5C9.5 5.27386 9.72614 5.5 10 5.5H12.293L9.5 2.70703V5Z" fill="currentColor"/>
</svg>
