<svg width="16" height="16" viewBox="0 0 16 16" fill="none" xmlns="http://www.w3.org/2000/svg">
<path fill-rule="evenodd" clip-rule="evenodd" d="M6.39355 6.55957C6.5561 6.47258 6.75381 6.48175 6.90723 6.58398L10.6572 9.08398C10.7963 9.17672 10.8799 9.33283 10.8799 9.5C10.8799 9.66718 10.7963 9.82328 10.6572 9.91602L6.90723 12.416C6.75381 12.5183 6.55611 12.5274 6.39355 12.4404C6.23131 12.3533 6.12988 12.1842 6.12988 12V7L6.13477 6.93164C6.1564 6.77473 6.25163 6.63576 6.39355 6.55957ZM7.12988 11.0654L9.47852 9.5L7.12988 7.93359V11.0654Z" fill="currentColor"/>
<path fill-rule="evenodd" clip-rule="evenodd" d="M9.09766 1.00977C9.19389 1.02894 9.28311 1.07608 9.35352 1.14648L13.3535 5.14648C13.4473 5.24025 13.5 5.36739 13.5 5.5V13.5C13.5 14.3261 12.8261 15 12 15H4C3.17386 15 2.5 14.3261 2.5 13.5V2.5C2.5 1.67386 3.17386 1 4 1H9L9.09766 1.00977ZM4 2C3.72614 2 3.5 2.22614 3.5 2.5V13.5C3.5 13.7739 3.72614 14 4 14H12C12.2739 14 12.5 13.7739 12.5 13.5V6.5H10C9.17386 6.5 8.5 5.82614 8.5 5V2H4ZM9.5 5C9.5 5.27386 9.72614 5.5 10 5.5H12.293L9.5 2.70703V5Z" fill="currentColor"/>
</svg>
