<svg width="16" height="16" viewBox="0 0 16 16" fill="none" xmlns="http://www.w3.org/2000/svg">
<path d="M11 11.5C11.2761 11.5 11.5 11.7239 11.5 12C11.5 12.2761 11.2761 12.5 11 12.5H5C4.72386 12.5 4.5 12.2761 4.5 12C4.5 11.7239 4.72386 11.5 5 11.5H11Z" fill="black"/>
<path d="M11 9.5C11.2761 9.5 11.5 9.72386 11.5 10C11.5 10.2761 11.2761 10.5 11 10.5H5C4.72386 10.5 4.5 10.2761 4.5 10C4.5 9.72386 4.72386 9.5 5 9.5H11Z" fill="black"/>
<path d="M11 7.5C11.2761 7.5 11.5 7.72386 11.5 8C11.5 8.27614 11.2761 8.5 11 8.5H5C4.72386 8.5 4.5 8.27614 4.5 8C4.5 7.72386 4.72386 7.5 5 7.5H11Z" fill="black"/>
<path fill-rule="evenodd" clip-rule="evenodd" d="M9 1.5C9.04291 1.5 9.08429 1.50644 9.12402 1.5166C9.14294 1.52145 9.16151 1.52718 9.17969 1.53418C9.18994 1.53814 9.20004 1.54227 9.20996 1.54688C9.22914 1.55575 9.24767 1.56588 9.26562 1.57715C9.27183 1.58105 9.27817 1.5847 9.28418 1.58887C9.30879 1.60587 9.33207 1.62504 9.35352 1.64648L13.3535 5.64648C13.4221 5.71506 13.4706 5.80346 13.4902 5.90234C13.4966 5.93428 13.5 5.96696 13.5 6V13C13.5 13.8261 12.8261 14.5 12 14.5H4C3.17386 14.5 2.5 13.8261 2.5 13V3C2.5 2.17386 3.17386 1.5 4 1.5H9ZM4 2.5C3.72614 2.5 3.5 2.72614 3.5 3V13C3.5 13.2739 3.72614 13.5 4 13.5H12C12.2739 13.5 12.5 13.2739 12.5 13V6.5H10C9.17386 6.5 8.5 5.82614 8.5 5V2.5H4ZM9.5 5C9.5 5.27386 9.72614 5.5 10 5.5H11.793L9.5 3.20703V5Z" fill="black"/>
</svg>
