<svg width="16" height="16" viewBox="0 0 16 16" fill="none" xmlns="http://www.w3.org/2000/svg">
<path fill-rule="evenodd" clip-rule="evenodd" d="M6.66406 2.50879C7.06803 2.55086 7.4444 2.73743 7.72363 3.0166L9.20703 4.5H12C12.826 4.50013 13.5 5.17394 13.5 6V7H13.9102C14.7992 7.00026 15.3904 7.90062 15.0762 8.71094L15.0742 8.71484L13.8047 11.9053L13.8037 11.9072C13.5396 12.5606 12.8994 13.0098 12.1797 13.0098H2.62012C2.5788 13.0097 2.5384 13.0036 2.5 12.9941C1.94537 12.9387 1.50997 12.4692 1.50977 11.9004V4C1.50977 3.17394 2.18373 2.50013 3.00977 2.5H6.49023L6.66406 2.50879ZM5.85938 8C5.55982 8.00027 5.27923 8.18999 5.16309 8.47559L3.74707 12.0098H12.1797C12.48 12.0098 12.7601 11.8188 12.876 11.5322L14.1426 8.34961C14.2083 8.18017 14.0807 8.00027 13.9102 8H5.85938ZM3.00977 3.5C2.73602 3.50013 2.50977 3.72622 2.50977 4V11.9004C2.50999 11.9539 2.55593 11.9996 2.60938 12C2.64414 12 2.68328 11.9745 2.69727 11.9404L4.23535 8.10352L4.23633 8.10254C4.50041 7.44939 5.13997 7.00026 5.85938 7H12.5V6C12.5 5.72622 12.2738 5.50013 12 5.5H9C8.86754 5.49994 8.74018 5.44715 8.64648 5.35352L7.0166 3.72363C6.9109 3.61798 6.77462 3.54447 6.63281 3.51465L6.49023 3.5H3.00977Z" fill="black"/>
</svg>
