<svg width="16" height="16" viewBox="0 0 16 16" fill="none" xmlns="http://www.w3.org/2000/svg">
<path fill-rule="evenodd" clip-rule="evenodd" d="M6 5.25C6.9665 5.25 7.75 6.0335 7.75 7C7.75 7.9665 6.9665 8.75 6 8.75C5.0335 8.75 4.25 7.9665 4.25 7C4.25 6.0335 5.0335 5.25 6 5.25ZM6 6.25C5.58579 6.25 5.25 6.58579 5.25 7C5.25 7.41421 5.58579 7.75 6 7.75C6.41421 7.75 6.75 7.41421 6.75 7C6.75 6.58579 6.41421 6.25 6 6.25Z" fill="black"/>
<path fill-rule="evenodd" clip-rule="evenodd" d="M9.09766 1.00977C9.19389 1.02894 9.28311 1.07608 9.35352 1.14648L13.3535 5.14648C13.4473 5.24025 13.5 5.36739 13.5 5.5V13.5C13.5 14.3261 12.8261 15 12 15H4C3.17386 15 2.5 14.3261 2.5 13.5V2.5C2.5 1.67386 3.17386 1 4 1H9L9.09766 1.00977ZM7.85352 12.3535C7.65826 12.5488 7.34175 12.5488 7.14648 12.3535L6 11.207L3.5332 13.6729C3.60451 13.8625 3.78698 14 4 14H12C12.2739 14 12.5 13.7739 12.5 13.5V11.707L10.5 9.70703L7.85352 12.3535ZM4 2C3.72614 2 3.5 2.22614 3.5 2.5V12.293L5.64648 10.1465L5.72461 10.082C5.91869 9.95387 6.18265 9.97562 6.35352 10.1465L7.5 11.293L10.1465 8.64648L10.2246 8.58203C10.4187 8.45387 10.6827 8.47562 10.8535 8.64648L12.5 10.293V6.5H10C9.17386 6.5 8.5 5.82614 8.5 5V2H4ZM9.5 5C9.5 5.27386 9.72614 5.5 10 5.5H12.293L9.5 2.70703V5Z" fill="black"/>
</svg>
