<svg width="16" height="16" viewBox="0 0 16 16" fill="none" xmlns="http://www.w3.org/2000/svg">
<path d="M12 12C12.2761 12 12.5 12.2239 12.5 12.5C12.5 12.7761 12.2761 13 12 13C11.7239 13 11.5 12.7761 11.5 12.5C11.5 12.2239 11.7239 12 12 12Z" fill="currentColor"/>
<path d="M10 7.5C10.2761 7.5 10.5 7.72386 10.5 8C10.5 8.27614 10.2761 8.5 10 8.5H6C5.72386 8.5 5.5 8.27614 5.5 8C5.5 7.72386 5.72386 7.5 6 7.5H10Z" fill="currentColor"/>
<path fill-rule="evenodd" clip-rule="evenodd" d="M7.72461 3.58203C7.91868 3.45388 8.18266 3.47563 8.35352 3.64648L10.3535 5.64648C10.4965 5.78948 10.5393 6.00458 10.4619 6.19141C10.3845 6.3782 10.2022 6.49999 10 6.5H6C5.79779 6.5 5.61549 6.37821 5.53809 6.19141C5.4607 6.00457 5.50349 5.78948 5.64648 5.64648L7.64648 3.64648L7.72461 3.58203ZM7.20703 5.5H8.79297L8 4.70703L7.20703 5.5Z" fill="currentColor"/>
<path fill-rule="evenodd" clip-rule="evenodd" d="M11.1807 1.5C11.8413 1.50029 12.4217 1.93422 12.6152 2.55664L12.6494 2.68359V2.68652L14.3799 10.8867V10.8896C14.4524 11.242 14.4945 11.5998 14.498 11.9707C14.4982 11.9805 14.5 11.9902 14.5 12V13C14.5 13.8284 13.8284 14.5 13 14.5H3C2.22536 14.5 1.5883 13.9128 1.50879 13.1592C1.49182 13.1089 1.48047 13.056 1.48047 13V12.0195C1.4805 11.6311 1.5249 11.2574 1.60059 10.8896L1.60156 10.8867L3.33105 2.68652L3.33203 2.68359C3.48214 1.99381 4.09578 1.5 4.80078 1.5H11.1807ZM3 11.5C2.72386 11.5 2.5 11.7239 2.5 12V13C2.5 13.2761 2.72386 13.5 3 13.5H13C13.2761 13.5 13.5 13.2761 13.5 13V12.0195C13.5 12.0101 13.4991 12.0006 13.499 11.9912C13.4943 11.7191 13.2732 11.5 13 11.5H3ZM4.80078 2.5C4.56707 2.5 4.35992 2.66433 4.30859 2.89258L4.30957 2.89355L2.69824 10.5293C2.79566 10.5094 2.89671 10.5 3 10.5H13C13.0961 10.5 13.1901 10.5091 13.2812 10.5264L11.6709 2.89355C11.6195 2.66563 11.414 2.50031 11.1807 2.5H4.80078Z" fill="currentColor"/>
</svg>
