<svg width="16" height="16" viewBox="0 0 16 16" fill="none" xmlns="http://www.w3.org/2000/svg">
<path fill-rule="evenodd" clip-rule="evenodd" d="M8 1.5C9.78184 1.5 11.2473 2.82466 11.4697 4.54492C12.6229 4.76602 13.5 5.78435 13.5 7C13.5 8.37614 12.3761 9.5 11 9.5H8.5V10H13C13.2761 10 13.5 10.2239 13.5 10.5V11.5869C14.0823 11.793 14.5 12.3471 14.5 13C14.5 13.8284 13.8284 14.5 13 14.5C12.1716 14.5 11.5 13.8284 11.5 13C11.5 12.3471 11.9177 11.793 12.5 11.5869V11H8.5V11.5869C9.08234 11.793 9.5 12.3471 9.5 13C9.5 13.8284 8.82843 14.5 8 14.5C7.17157 14.5 6.5 13.8284 6.5 13C6.5 12.3471 6.91766 11.793 7.5 11.5869V11H3.5V11.5869C4.08234 11.793 4.5 12.3471 4.5 13C4.5 13.8284 3.82843 14.5 3 14.5C2.17157 14.5 1.5 13.8284 1.5 13C1.5 12.3471 1.91766 11.793 2.5 11.5869V10.5C2.5 10.2239 2.72386 10 3 10H7.5V9.5H5C3.62386 9.5 2.5 8.37614 2.5 7C2.5 5.78469 3.37657 4.7664 4.5293 4.54492C4.75168 2.8246 6.21812 1.5 8 1.5ZM3 12.5C2.72386 12.5 2.5 12.7239 2.5 13C2.5 13.2761 2.72386 13.5 3 13.5C3.27614 13.5 3.5 13.2761 3.5 13C3.5 12.7239 3.27614 12.5 3 12.5ZM8 12.5C7.72386 12.5 7.5 12.7239 7.5 13C7.5 13.2761 7.72386 13.5 8 13.5C8.27614 13.5 8.5 13.2761 8.5 13C8.5 12.7239 8.27614 12.5 8 12.5ZM13 12.5C12.7239 12.5 12.5 12.7239 12.5 13C12.5 13.2761 12.7239 13.5 13 13.5C13.2761 13.5 13.5 13.2761 13.5 13C13.5 12.7239 13.2761 12.5 13 12.5ZM8 2.5C6.61614 2.5 5.5 3.61614 5.5 5C5.5 5.27614 5.27614 5.5 5 5.5C4.17614 5.5 3.5 6.17614 3.5 7C3.5 7.82386 4.17614 8.5 5 8.5H11C11.8239 8.5 12.5 7.82386 12.5 7C12.5 6.17614 11.8239 5.5 11 5.5C10.7239 5.5 10.5 5.27614 10.5 5C10.5 3.61614 9.38386 2.5 8 2.5Z" fill="currentColor"/>
</svg>
