<svg width="16" height="16" viewBox="0 0 16 16" fill="none" xmlns="http://www.w3.org/2000/svg">
<path fill-rule="evenodd" clip-rule="evenodd" d="M7 6.5C7.9665 6.5 8.75 7.2835 8.75 8.25C8.75 8.73996 8.5481 9.18233 8.22363 9.5H8.25C9.07614 9.5 9.75 10.1739 9.75 11V12C9.75 12.2761 9.52614 12.5 9.25 12.5H4.75C4.47386 12.5 4.25 12.2761 4.25 12V11C4.25 10.1739 4.92386 9.5 5.75 9.5H5.77637C5.4519 9.18233 5.25 8.73996 5.25 8.25C5.25 7.2835 6.0335 6.5 7 6.5ZM5.75 10.5C5.47614 10.5 5.25 10.7261 5.25 11V11.5H8.75V11C8.75 10.7261 8.52386 10.5 8.25 10.5H5.75ZM7 7.5C6.58579 7.5 6.25 7.83579 6.25 8.25C6.25 8.66421 6.58579 9 7 9C7.41421 9 7.75 8.66421 7.75 8.25C7.75 7.83579 7.41421 7.5 7 7.5Z" fill="currentColor"/>
<path d="M9.53809 6.73145C9.78549 6.60913 10.0855 6.71076 10.208 6.95801C10.4746 7.49726 10.5244 8.02314 10.5098 8.40723C10.5063 8.49825 10.4982 8.58278 10.4893 8.6582C11.2812 9.15225 11.7499 10.0458 11.75 11V12C11.7498 12.2759 11.5259 12.4999 11.25 12.5C10.9741 12.4999 10.7502 12.2759 10.75 12V11C10.7499 10.2735 10.3444 9.64589 9.73633 9.39062C9.4986 9.29065 9.37598 9.02637 9.45312 8.78027C9.45389 8.77736 9.45441 8.772 9.45605 8.76562C9.46029 8.74924 9.46753 8.72186 9.47461 8.68555C9.48895 8.61192 9.50467 8.50219 9.50977 8.36914C9.51999 8.10086 9.48464 7.75158 9.31152 7.40137C9.18943 7.15393 9.29075 6.85381 9.53809 6.73145Z" fill="currentColor"/>
<path fill-rule="evenodd" clip-rule="evenodd" d="M9 1.5C9.04291 1.5 9.08429 1.50644 9.12402 1.5166C9.14294 1.52145 9.16151 1.52718 9.17969 1.53418C9.18994 1.53814 9.20004 1.54227 9.20996 1.54688C9.22914 1.55575 9.24767 1.56588 9.26562 1.57715C9.27183 1.58105 9.27817 1.5847 9.28418 1.58887C9.30879 1.60587 9.33207 1.62504 9.35352 1.64648L13.3535 5.64648C13.4221 5.71506 13.4706 5.80346 13.4902 5.90234C13.4966 5.93428 13.5 5.96696 13.5 6V13C13.5 13.8261 12.8261 14.5 12 14.5H4C3.17386 14.5 2.5 13.8261 2.5 13V3C2.5 2.17386 3.17386 1.5 4 1.5H9ZM4 2.5C3.72614 2.5 3.5 2.72614 3.5 3V13C3.5 13.2739 3.72614 13.5 4 13.5H12C12.2739 13.5 12.5 13.2739 12.5 13V6.5H10C9.17386 6.5 8.5 5.82614 8.5 5V2.5H4ZM9.5 5C9.5 5.27386 9.72614 5.5 10 5.5H11.793L9.5 3.20703V5Z" fill="currentColor"/>
</svg>
