<svg width="16" height="16" viewBox="0 0 16 16" fill="none" xmlns="http://www.w3.org/2000/svg">
<path d="M8 10.5C8.27614 10.5 8.5 10.7239 8.5 11C8.5 11.2761 8.27614 11.5 8 11.5C7.72386 11.5 7.5 11.2761 7.5 11C7.5 10.7239 7.72386 10.5 8 10.5Z" fill="currentColor"/>
<path d="M6.58691 9.08594C7.3705 8.30288 8.63956 8.29813 9.41699 9.08887C9.61037 9.28558 9.60742 9.60226 9.41113 9.7959C9.21424 9.98945 8.8977 9.98687 8.7041 9.79004C8.32185 9.40119 7.6904 9.39704 7.29395 9.79297C7.09868 9.98823 6.78218 9.98823 6.58691 9.79297C6.39171 9.5977 6.39167 9.28118 6.58691 9.08594Z" fill="currentColor"/>
<path d="M5.17676 7.67676C6.74203 6.11157 9.26875 6.11152 10.834 7.67676C11.0288 7.87199 11.0289 8.18864 10.834 8.38379C10.6388 8.57884 10.3222 8.57865 10.127 8.38379C8.95224 7.20908 7.05853 7.20913 5.88379 8.38379C5.68864 8.57885 5.37202 8.57867 5.17676 8.38379C4.9816 8.18855 4.98161 7.872 5.17676 7.67676Z" fill="currentColor"/>
<path fill-rule="evenodd" clip-rule="evenodd" d="M8 2.5C10.0476 2.5 11.7389 4.04534 11.9717 6.03125C13.6839 6.26088 15 7.72385 15 9.5C15 11.4361 13.4361 13 11.5 13H4.5C2.56386 13 1 11.4361 1 9.5C1 7.72418 2.31556 6.2613 4.02734 6.03125C4.26003 4.04529 5.95241 2.5 8 2.5ZM8 3.5C6.34614 3.5 5 4.84614 5 6.5C5 6.77614 4.77614 7 4.5 7C3.11614 7 2 8.11614 2 9.5C2 10.8839 3.11614 12 4.5 12H11.5C12.8839 12 14 10.8839 14 9.5C14 8.11614 12.8839 7 11.5 7C11.2239 7 11 6.77614 11 6.5C11 4.84614 9.65386 3.5 8 3.5Z" fill="currentColor"/>
</svg>
