<svg width="16" height="16" viewBox="0 0 16 16" fill="none" xmlns="http://www.w3.org/2000/svg">
<path d="M8 9.5C8.27614 9.5 8.5 9.72386 8.5 10C8.5 10.2761 8.27614 10.5 8 10.5C7.72386 10.5 7.5 10.2761 7.5 10C7.5 9.72386 7.72386 9.5 8 9.5Z" fill="currentColor"/>
<path d="M7.99023 5.5C8.81627 5.50013 9.49023 6.17394 9.49023 7C9.49023 7.60854 9.07291 8.08407 8.58984 8.28711L8.59082 8.28809L8.5 8.32715V8.5C8.5 8.77606 8.27603 8.99987 8 9C7.72396 8.99987 7.5 8.77606 7.5 8.5V8.25C7.5 7.94693 7.65759 7.66146 7.91602 7.50098L8.0332 7.44043L8.18945 7.37207L8.2002 7.36719C8.39248 7.28774 8.49023 7.12715 8.49023 7C8.49023 6.72622 8.26398 6.50013 7.99023 6.5C7.75075 6.5 7.54719 6.67287 7.5 6.89941L7.48047 7.10059C7.43396 7.32848 7.23184 7.49988 6.99023 7.5C6.71409 7.5 6.49023 7.27614 6.49023 7C6.49023 6.17386 7.16409 5.5 7.99023 5.5Z" fill="currentColor"/>
<path fill-rule="evenodd" clip-rule="evenodd" d="M8 2.5C9.86441 2.5 11.4294 3.77656 11.8721 5.50293C11.9144 5.50115 11.9571 5.5 12 5.5C13.9361 5.5 15.5 7.06386 15.5 9C15.5 10.9361 13.9361 12.5 12 12.5H4C2.06386 12.5 0.5 10.9361 0.5 9C0.5 7.06386 2.06386 5.5 4 5.5C4.04259 5.5 4.08494 5.50118 4.12695 5.50293C4.56958 3.77644 6.1355 2.5 8 2.5ZM8 3.5C6.47487 3.5 5.21494 4.63979 5.02637 6.11328C5.00902 6.2489 4.93629 6.37208 4.82617 6.45312C4.71616 6.53395 4.57781 6.56567 4.44336 6.54199C4.29438 6.5157 4.144 6.5 4 6.5C2.61614 6.5 1.5 7.61614 1.5 9C1.5 10.3839 2.61614 11.5 4 11.5H12C13.3839 11.5 14.5 10.3839 14.5 9C14.5 7.61614 13.3839 6.5 12 6.5C11.856 6.5 11.7056 6.5157 11.5566 6.54199C11.4222 6.56567 11.2838 6.53395 11.1738 6.45312C11.0637 6.37208 10.991 6.2489 10.9736 6.11328C10.7851 4.63979 9.52513 3.5 8 3.5Z" fill="currentColor"/>
</svg>
