<svg width="16" height="16" viewBox="0 0 16 16" fill="none" xmlns="http://www.w3.org/2000/svg">
<path fill-rule="evenodd" clip-rule="evenodd" d="M8 6.5C8.9665 6.5 9.75 7.2835 9.75 8.25C9.75 8.73996 9.5481 9.18233 9.22363 9.5H9.25C10.0761 9.5 10.75 10.1739 10.75 11V12C10.75 12.2761 10.5261 12.5 10.25 12.5H5.75C5.47386 12.5 5.25 12.2761 5.25 12V11C5.25 10.1739 5.92386 9.5 6.75 9.5H6.77637C6.4519 9.18233 6.25 8.73996 6.25 8.25C6.25 7.2835 7.0335 6.5 8 6.5ZM6.75 10.5C6.47614 10.5 6.25 10.7261 6.25 11V11.5H9.75V11C9.75 10.7261 9.52386 10.5 9.25 10.5H6.75ZM8 7.5C7.58579 7.5 7.25 7.83579 7.25 8.25C7.25 8.66421 7.58579 9 8 9C8.41421 9 8.75 8.66421 8.75 8.25C8.75 7.83579 8.41421 7.5 8 7.5Z" fill="black"/>
<path fill-rule="evenodd" clip-rule="evenodd" d="M9 1.5C9.04291 1.5 9.08429 1.50644 9.12402 1.5166C9.14294 1.52145 9.16151 1.52718 9.17969 1.53418C9.18994 1.53814 9.20004 1.54227 9.20996 1.54688C9.22914 1.55575 9.24767 1.56588 9.26562 1.57715C9.27183 1.58105 9.27817 1.5847 9.28418 1.58887C9.30879 1.60587 9.33207 1.62504 9.35352 1.64648L13.3535 5.64648C13.4221 5.71506 13.4706 5.80346 13.4902 5.90234C13.4966 5.93428 13.5 5.96696 13.5 6V13C13.5 13.8261 12.8261 14.5 12 14.5H4C3.17386 14.5 2.5 13.8261 2.5 13V3C2.5 2.17386 3.17386 1.5 4 1.5H9ZM4 2.5C3.72614 2.5 3.5 2.72614 3.5 3V13C3.5 13.2739 3.72614 13.5 4 13.5H12C12.2739 13.5 12.5 13.2739 12.5 13V6.5H10C9.17386 6.5 8.5 5.82614 8.5 5V2.5H4ZM9.5 5C9.5 5.27386 9.72614 5.5 10 5.5H11.793L9.5 3.20703V5Z" fill="black"/>
</svg>
