<svg width="16" height="16" viewBox="0 0 16 16" fill="none" xmlns="http://www.w3.org/2000/svg">
<path d="M3.5 10.5C3.77614 10.5 4 10.7239 4 11C4 11.2761 3.77614 11.5 3.5 11.5C3.22386 11.5 3 11.2761 3 11C3 10.7239 3.22386 10.5 3.5 10.5Z" fill="currentColor"/>
<path d="M3.5 8.5C4.87614 8.5 6 9.62386 6 11C6 11.2761 5.77614 11.5 5.5 11.5C5.22386 11.5 5 11.2761 5 11C5 10.1761 4.32386 9.5 3.5 9.5C3.22386 9.5 3 9.27614 3 9C3 8.72386 3.22386 8.5 3.5 8.5Z" fill="currentColor"/>
<path d="M3.5 6.5C5.98614 6.5 8 8.51386 8 11C8 11.2761 7.77614 11.5 7.5 11.5C7.22386 11.5 7 11.2761 7 11C7 9.06614 5.43386 7.5 3.5 7.5C3.22386 7.5 3 7.27614 3 7C3 6.72386 3.22386 6.5 3.5 6.5Z" fill="currentColor"/>
<path fill-rule="evenodd" clip-rule="evenodd" d="M6.98047 2.5C7.4368 2.50012 7.8851 2.67901 8.21289 3.0166L8.69727 3.5H13.5C14.3261 3.5 15 4.17386 15 5V7C15 7.03443 14.9969 7.06811 14.9902 7.10059V12C14.9902 12.8192 14.3274 13.4869 13.5107 13.498C13.5072 13.4981 13.5036 13.5 13.5 13.5H2.5C1.67386 13.5 1 12.8261 1 12V4C1 3.17386 1.67386 2.5 2.5 2.5H6.98047ZM2.5 3.5C2.22614 3.5 2 3.72614 2 4V12C2 12.2739 2.22614 12.5 2.5 12.5H13.4902C13.764 12.4999 13.9902 12.2738 13.9902 12V7C13.9902 6.72622 13.764 6.50013 13.4902 6.5H10.4902C10.3577 6.5 10.2305 6.44721 10.1367 6.35352L7.49902 3.71582C7.36767 3.57879 7.18022 3.50012 6.98047 3.5H2.5ZM10.6973 5.5H13.4902C13.6692 5.50003 13.8406 5.53285 14 5.59082V5C14 4.72614 13.7739 4.5 13.5 4.5H9.69727L10.6973 5.5Z" fill="currentColor"/>
</svg>
