<svg width="16" height="16" viewBox="0 0 16 16" fill="none" xmlns="http://www.w3.org/2000/svg">
<path d="M6.80859 6.53809C6.99543 6.4607 7.21052 6.50349 7.35352 6.64648L8.35352 7.64648C8.54877 7.84175 8.54878 8.15826 8.35352 8.35352C8.15826 8.54877 7.84174 8.54877 7.64648 8.35352L7.5 8.20703V11C7.49999 11.2761 7.27614 11.5 7 11.5C6.72386 11.5 6.50001 11.2761 6.5 11V7C6.5 6.79779 6.6218 6.61549 6.80859 6.53809Z" fill="black"/>
<path d="M5 6.5C5.27614 6.5 5.5 6.72386 5.5 7V11C5.5 11.2022 5.3782 11.3845 5.19141 11.4619C5.00457 11.5393 4.78948 11.4965 4.64648 11.3535L3.64648 10.3535C3.45122 10.1583 3.45122 9.84175 3.64648 9.64648C3.84175 9.45123 4.15825 9.45122 4.35352 9.64648L4.5 9.79297V7C4.5 6.72386 4.72386 6.5 5 6.5Z" fill="black"/>
<path fill-rule="evenodd" clip-rule="evenodd" d="M6.98047 2.5C7.4368 2.50012 7.8851 2.67901 8.21289 3.0166L9.69727 4.5H12.9902C13.8163 4.50013 14.4902 5.17394 14.4902 6V12C14.4902 12.8192 13.8274 13.4869 13.0107 13.498C13.0072 13.4981 13.0036 13.5 13 13.5H3C2.17386 13.5 1.5 12.8261 1.5 12V4C1.5 3.17386 2.17386 2.5 3 2.5H6.98047ZM3 3.5C2.72614 3.5 2.5 3.72614 2.5 4V12C2.5 12.2739 2.72614 12.5 3 12.5H12.9902C13.264 12.4999 13.4902 12.2738 13.4902 12V6C13.4902 5.72622 13.264 5.50013 12.9902 5.5H9.49023C9.35768 5.5 9.23048 5.44721 9.13672 5.35352L7.49902 3.71582C7.36768 3.5788 7.18022 3.50012 6.98047 3.5H3Z" fill="black"/>
</svg>
