<svg width="16" height="16" viewBox="0 0 16 16" fill="none" xmlns="http://www.w3.org/2000/svg">
<path d="M8 11.5C8.27614 11.5 8.5 11.7239 8.5 12C8.5 12.2761 8.27614 12.5 8 12.5C7.72386 12.5 7.5 12.2761 7.5 12C7.5 11.7239 7.72386 11.5 8 11.5Z" fill="currentColor"/>
<path d="M7.99023 7.5C8.81627 7.50013 9.49023 8.17394 9.49023 9C9.49023 9.60854 9.07292 10.0841 8.58984 10.2871L8.59082 10.2881L8.5 10.3271V10.5C8.5 10.7761 8.27603 10.9999 8 11C7.72397 10.9999 7.5 10.7761 7.5 10.5V10.25C7.5 9.94693 7.65759 9.66146 7.91602 9.50098L8.0332 9.44043L8.18945 9.37207L8.2002 9.36719C8.39247 9.28774 8.49023 9.12715 8.49023 9C8.49023 8.72622 8.26398 8.50013 7.99023 8.5C7.75075 8.5 7.54719 8.67287 7.5 8.89941L7.48047 9.10059C7.43396 9.32848 7.23184 9.49988 6.99023 9.5C6.71409 9.5 6.49023 9.27614 6.49023 9C6.49023 8.17386 7.16409 7.5 7.99023 7.5Z" fill="currentColor"/>
<path fill-rule="evenodd" clip-rule="evenodd" d="M9.09766 1.00977C9.19389 1.02894 9.28311 1.07608 9.35352 1.14648L13.3535 5.14648C13.4473 5.24025 13.5 5.36739 13.5 5.5V13.5C13.5 14.3261 12.8261 15 12 15H4C3.17386 15 2.5 14.3261 2.5 13.5V2.5C2.5 1.67386 3.17386 1 4 1H9L9.09766 1.00977ZM4 2C3.72614 2 3.5 2.22614 3.5 2.5V13.5C3.5 13.7739 3.72614 14 4 14H12C12.2739 14 12.5 13.7739 12.5 13.5V6.5H10C9.17386 6.5 8.5 5.82614 8.5 5V2H4ZM9.5 5C9.5 5.27386 9.72614 5.5 10 5.5H12.293L9.5 2.70703V5Z" fill="currentColor"/>
</svg>
