<svg width="16" height="16" viewBox="0 0 16 16" fill="none" xmlns="http://www.w3.org/2000/svg">
<path d="M12 12C12.2761 12 12.5 12.2239 12.5 12.5C12.5 12.7761 12.2761 13 12 13C11.7239 13 11.5 12.7761 11.5 12.5C11.5 12.2239 11.7239 12 12 12Z" fill="black"/>
<path fill-rule="evenodd" clip-rule="evenodd" d="M8 4C8.82614 4 9.5 4.67386 9.5 5.5V6H10C10.2761 6 10.5 6.22386 10.5 6.5V9C10.5 9.27614 10.2761 9.5 10 9.5H6C5.72386 9.5 5.5 9.27614 5.5 9V6.5C5.5 6.22386 5.72386 6 6 6H6.5V5.5C6.5 4.67386 7.17386 4 8 4ZM6.5 8.5H9.5V7H6.5V8.5ZM8 5C7.72614 5 7.5 5.22614 7.5 5.5V6H8.5V5.5C8.5 5.22614 8.27386 5 8 5Z" fill="black"/>
<path fill-rule="evenodd" clip-rule="evenodd" d="M11.3115 1.50586C11.9169 1.55903 12.4345 1.97568 12.6152 2.55664L12.6494 2.68359V2.68652L14.3799 10.8867V10.8896C14.4524 11.242 14.4945 11.5998 14.498 11.9707C14.4982 11.9805 14.5 11.9902 14.5 12V13C14.5 13.8284 13.8284 14.5 13 14.5H3C2.22536 14.5 1.5883 13.9128 1.50879 13.1592C1.49182 13.1089 1.48047 13.056 1.48047 13V12.0195C1.4805 11.6311 1.5249 11.2574 1.60059 10.8896L1.60156 10.8867L3.33105 2.68652L3.33203 2.68359C3.48214 1.99381 4.09578 1.5 4.80078 1.5H11.1807L11.3115 1.50586ZM3 11.5C2.72386 11.5 2.5 11.7239 2.5 12V13C2.5 13.2761 2.72386 13.5 3 13.5H13C13.2761 13.5 13.5 13.2761 13.5 13V12.0195C13.5 12.0101 13.4991 12.0006 13.499 11.9912C13.4943 11.7191 13.2732 11.5 13 11.5H3ZM4.80078 2.5C4.56707 2.5 4.35992 2.66433 4.30859 2.89258L4.30957 2.89355L2.69824 10.5293C2.79566 10.5094 2.89671 10.5 3 10.5H13C13.0961 10.5 13.1901 10.5091 13.2812 10.5264L11.6709 2.89355C11.626 2.69412 11.4629 2.54259 11.2666 2.50781L11.1807 2.5H4.80078Z" fill="black"/>
</svg>
