<svg width="16" height="16" viewBox="0 0 16 16" fill="none" xmlns="http://www.w3.org/2000/svg">
<path d="M6.7002 8.09961C6.92109 7.9342 7.23478 7.97939 7.40039 8.2002C7.5658 8.42109 7.52061 8.73478 7.2998 8.90039L5.83301 10L7.2998 11.0996C7.52061 11.2652 7.5658 11.5789 7.40039 11.7998C7.23478 12.0206 6.92109 12.0658 6.7002 11.9004L4.7002 10.4004C4.57429 10.306 4.5 10.1574 4.5 10C4.5 9.84262 4.57429 9.69404 4.7002 9.59961L6.7002 8.09961Z" fill="currentColor"/>
<path d="M8.59961 8.2002C8.76522 7.97939 9.07891 7.9342 9.2998 8.09961L11.2998 9.59961C11.4257 9.69404 11.5 9.84262 11.5 10C11.5 10.1574 11.4257 10.306 11.2998 10.4004L9.2998 11.9004C9.07891 12.0658 8.76522 12.0206 8.59961 11.7998C8.4342 11.5789 8.47939 11.2652 8.7002 11.0996L10.166 10L8.7002 8.90039C8.47939 8.73478 8.4342 8.42109 8.59961 8.2002Z" fill="currentColor"/>
<path fill-rule="evenodd" clip-rule="evenodd" d="M9 1.5C9.04291 1.5 9.08429 1.50644 9.12402 1.5166C9.14294 1.52145 9.16151 1.52718 9.17969 1.53418C9.18994 1.53814 9.20004 1.54227 9.20996 1.54688C9.22914 1.55575 9.24767 1.56588 9.26562 1.57715C9.27183 1.58105 9.27817 1.5847 9.28418 1.58887C9.30879 1.60587 9.33207 1.62504 9.35352 1.64648L13.3535 5.64648C13.4221 5.71506 13.4706 5.80346 13.4902 5.90234C13.4966 5.93428 13.5 5.96696 13.5 6V13C13.5 13.8261 12.8261 14.5 12 14.5H4C3.17386 14.5 2.5 13.8261 2.5 13V3C2.5 2.17386 3.17386 1.5 4 1.5H9ZM4 2.5C3.72614 2.5 3.5 2.72614 3.5 3V13C3.5 13.2739 3.72614 13.5 4 13.5H12C12.2739 13.5 12.5 13.2739 12.5 13V6.5H10C9.17386 6.5 8.5 5.82614 8.5 5V2.5H4ZM9.5 5C9.5 5.27386 9.72614 5.5 10 5.5H11.793L9.5 3.20703V5Z" fill="currentColor"/>
</svg>
