<svg width="16" height="16" viewBox="0 0 16 16" fill="none" xmlns="http://www.w3.org/2000/svg">
<path fill-rule="evenodd" clip-rule="evenodd" d="M5.87695 5.93262C6.2731 5.60301 6.85112 5.62459 7.22363 5.99707L9.08301 7.85645C9.34303 8.13101 9.50975 8.50137 9.50977 8.91016V10.5C9.50967 11.0561 9.06585 11.5 8.50977 11.5H4.50977C3.9538 11.4999 3.50986 11.056 3.50977 10.5V8.91016C3.50978 8.51261 3.65923 8.13385 3.94629 7.84668L5.7959 5.99707C5.82039 5.97257 5.84839 5.95129 5.87695 5.93262ZM6.51367 6.7041C6.49523 6.7225 6.47392 6.73778 6.45312 6.75293L4.65332 8.55371C4.56067 8.64647 4.50977 8.76794 4.50977 8.91016V10.5H8.50977V8.91016C8.50976 8.77907 8.4563 8.64934 8.35645 8.54395L6.51465 6.70215L6.51367 6.7041Z" fill="black"/>
<path fill-rule="evenodd" clip-rule="evenodd" d="M6.98047 2.5C7.4368 2.50012 7.8851 2.67901 8.21289 3.0166L9.69727 4.5H12.9902C13.8163 4.50012 14.4902 5.17393 14.4902 6V12C14.4902 12.8192 13.8274 13.4869 13.0107 13.498C13.0072 13.4981 13.0036 13.5 13 13.5H3C2.17386 13.5 1.5 12.8261 1.5 12V4C1.5 3.17386 2.17386 2.5 3 2.5H6.98047ZM3 3.5C2.72614 3.5 2.5 3.72614 2.5 4V12C2.5 12.2739 2.72614 12.5 3 12.5H12.9902C13.264 12.4999 13.4902 12.2738 13.4902 12V6C13.4902 5.72622 13.264 5.50013 12.9902 5.5H9.49023C9.35768 5.5 9.23048 5.44721 9.13672 5.35352L7.49902 3.71582C7.36768 3.5788 7.18022 3.50012 6.98047 3.5H3Z" fill="black"/>
</svg>
