<svg width="16" height="16" viewBox="0 0 16 16" fill="none" xmlns="http://www.w3.org/2000/svg">
<path fill-rule="evenodd" clip-rule="evenodd" d="M8 6C9.38071 6 10.5 7.11929 10.5 8.5C10.5 9.88071 9.38071 11 8 11C6.61929 11 5.5 9.88071 5.5 8.5C5.5 7.11929 6.61929 6 8 6ZM7.35449 9.85156C7.55028 9.94524 7.76847 10 8 10C8.82843 10 9.5 9.32843 9.5 8.5C9.5 8.26847 9.44524 8.05028 9.35156 7.85449L7.35449 9.85156ZM8 7C7.17157 7 6.5 7.67157 6.5 8.5C6.5 8.73107 6.55413 8.94904 6.64746 9.14453L8.64453 7.14746C8.44904 7.05413 8.23107 7 8 7Z" fill="currentColor"/>
<path fill-rule="evenodd" clip-rule="evenodd" d="M8 2.5C10.0476 2.5 11.7389 4.04534 11.9717 6.03125C13.6839 6.26088 15 7.72385 15 9.5C15 11.4361 13.4361 13 11.5 13H4.5C2.56386 13 1 11.4361 1 9.5C1 7.72418 2.31556 6.2613 4.02734 6.03125C4.26003 4.04529 5.95241 2.5 8 2.5ZM8 3.5C6.34614 3.5 5 4.84614 5 6.5C5 6.77614 4.77614 7 4.5 7C3.11614 7 2 8.11614 2 9.5C2 10.8839 3.11614 12 4.5 12H11.5C12.8839 12 14 10.8839 14 9.5C14 8.11614 12.8839 7 11.5 7C11.2239 7 11 6.77614 11 6.5C11 4.84614 9.65386 3.5 8 3.5Z" fill="currentColor"/>
</svg>
