<svg width="16" height="16" viewBox="0 0 16 16" fill="none" xmlns="http://www.w3.org/2000/svg">
<path fill-rule="evenodd" clip-rule="evenodd" d="M6.5 5.5C7.4665 5.5 8.25 6.2835 8.25 7.25C8.25 7.73996 8.0481 8.18233 7.72363 8.5H7.75C8.57614 8.5 9.25 9.17386 9.25 10V11C9.25 11.2761 9.02614 11.5 8.75 11.5H4.25C3.97386 11.5 3.75 11.2761 3.75 11V10C3.75 9.17386 4.42386 8.5 5.25 8.5H5.27637C4.9519 8.18233 4.75 7.73996 4.75 7.25C4.75 6.2835 5.5335 5.5 6.5 5.5ZM5.25 9.5C4.97614 9.5 4.75 9.72614 4.75 10V10.5H8.25V10C8.25 9.72614 8.02386 9.5 7.75 9.5H5.25ZM6.5 6.5C6.08579 6.5 5.75 6.83579 5.75 7.25C5.75 7.66421 6.08579 8 6.5 8C6.91421 8 7.25 7.66421 7.25 7.25C7.25 6.83579 6.91421 6.5 6.5 6.5Z" fill="currentColor"/>
<path d="M9.03809 5.73145C9.28549 5.60913 9.5855 5.71076 9.70801 5.95801C9.97461 6.49726 10.0244 7.02314 10.0098 7.40723C10.0063 7.49825 9.99816 7.58278 9.98926 7.6582C10.7812 8.15225 11.2499 9.04576 11.25 10V11C11.2498 11.2759 11.0259 11.4999 10.75 11.5C10.4741 11.4999 10.2502 11.2759 10.25 11V10C10.2499 9.27346 9.84443 8.6459 9.23633 8.39062C8.9986 8.29065 8.87598 8.02637 8.95312 7.78027C8.95389 7.77736 8.95441 7.772 8.95605 7.76562C8.96029 7.74924 8.96753 7.72186 8.97461 7.68555C8.98895 7.61192 9.00467 7.50219 9.00977 7.36914C9.01999 7.10086 8.98464 6.75158 8.81152 6.40137C8.68943 6.15393 8.79075 5.85381 9.03809 5.73145Z" fill="currentColor"/>
<path fill-rule="evenodd" clip-rule="evenodd" d="M6.98047 2.5C7.4368 2.50012 7.8851 2.67901 8.21289 3.0166L9.69727 4.5H12.9902C13.8163 4.50012 14.4902 5.17393 14.4902 6V12C14.4902 12.8192 13.8274 13.4869 13.0107 13.498C13.0072 13.4981 13.0036 13.5 13 13.5H3C2.17386 13.5 1.5 12.8261 1.5 12V4C1.5 3.17386 2.17386 2.5 3 2.5H6.98047ZM3 3.5C2.72614 3.5 2.5 3.72614 2.5 4V12C2.5 12.2739 2.72614 12.5 3 12.5H12.9902C13.264 12.4999 13.4902 12.2738 13.4902 12V6C13.4902 5.72622 13.264 5.50013 12.9902 5.5H9.49023C9.35768 5.5 9.23048 5.44721 9.13672 5.35352L7.49902 3.71582C7.36768 3.5788 7.18022 3.50012 6.98047 3.5H3Z" fill="currentColor"/>
</svg>
