<svg width="16" height="16" viewBox="0 0 16 16" fill="none" xmlns="http://www.w3.org/2000/svg">
<path fill-rule="evenodd" clip-rule="evenodd" d="M6 6C7.38071 6 8.5 7.11929 8.5 8.5C8.5 9.88071 7.38071 11 6 11C4.61929 11 3.5 9.88071 3.5 8.5C3.5 7.11929 4.61929 6 6 6ZM5.35449 9.85156C5.55028 9.94524 5.76847 10 6 10C6.82843 10 7.5 9.32843 7.5 8.5C7.5 8.26847 7.44524 8.05028 7.35156 7.85449L5.35449 9.85156ZM6 7C5.17157 7 4.5 7.67157 4.5 8.5C4.5 8.73107 4.55413 8.94904 4.64746 9.14453L6.64453 7.14746C6.44904 7.05413 6.23107 7 6 7Z" fill="black"/>
<path fill-rule="evenodd" clip-rule="evenodd" d="M6.98047 2.5C7.4368 2.50012 7.8851 2.67901 8.21289 3.0166L9.69727 4.5H12.9902C13.8163 4.50012 14.4902 5.17393 14.4902 6V12C14.4902 12.8192 13.8274 13.4869 13.0107 13.498C13.0072 13.4981 13.0036 13.5 13 13.5H3C2.17386 13.5 1.5 12.8261 1.5 12V4C1.5 3.17386 2.17386 2.5 3 2.5H6.98047ZM3 3.5C2.72614 3.5 2.5 3.72614 2.5 4V12C2.5 12.2739 2.72614 12.5 3 12.5H12.9902C13.264 12.4999 13.4902 12.2738 13.4902 12V6C13.4902 5.72622 13.264 5.50013 12.9902 5.5H9.49023C9.35768 5.5 9.23048 5.44721 9.13672 5.35352L7.49902 3.71582C7.36768 3.5788 7.18022 3.50012 6.98047 3.5H3Z" fill="black"/>
</svg>
