<svg width="16" height="16" viewBox="0 0 16 16" fill="none" xmlns="http://www.w3.org/2000/svg">
<path d="M6 6.5C6.27614 6.5 6.5 6.72386 6.5 7V9.79297L7.14648 9.14648C7.34175 8.95122 7.65825 8.95122 7.85352 9.14648C8.04877 9.34175 8.04878 9.65826 7.85352 9.85352L6.35352 11.3535C6.31945 11.3876 6.2804 11.4134 6.24023 11.4355C6.19596 11.46 6.14884 11.4801 6.09766 11.4902C6.0329 11.5031 5.96611 11.5032 5.90137 11.4902C5.85024 11.48 5.80299 11.4601 5.75879 11.4355C5.71891 11.4134 5.68034 11.3874 5.64648 11.3535L4.14648 9.85352C3.95122 9.65825 3.95122 9.34175 4.14648 9.14648C4.34175 8.95122 4.65825 8.95122 4.85352 9.14648L5.5 9.79297V7C5.5 6.72386 5.72386 6.5 6 6.5Z" fill="currentColor"/>
<path fill-rule="evenodd" clip-rule="evenodd" d="M6.98047 2.5C7.43682 2.50012 7.88511 2.67901 8.21289 3.0166L9.69727 4.5H12.9902C13.8163 4.50013 14.4902 5.17394 14.4902 6V12C14.4902 12.8192 13.8274 13.4869 13.0107 13.498C13.0072 13.4981 13.0036 13.5 13 13.5H3C2.17386 13.5 1.5 12.8261 1.5 12V4C1.5 3.17386 2.17386 2.5 3 2.5H6.98047ZM3 3.5C2.72614 3.5 2.5 3.72614 2.5 4V12C2.5 12.2739 2.72614 12.5 3 12.5H12.9902C13.264 12.4999 13.4902 12.2738 13.4902 12V6C13.4902 5.72622 13.264 5.50013 12.9902 5.5H9.49023C9.35768 5.5 9.23048 5.44721 9.13672 5.35352L7.49902 3.71582C7.36767 3.57878 7.18022 3.50012 6.98047 3.5H3Z" fill="currentColor"/>
</svg>
