<svg width="16" height="16" viewBox="0 0 16 16" fill="none" xmlns="http://www.w3.org/2000/svg">
<path d="M8 11.5C8.27614 11.5 8.5 11.7239 8.5 12C8.5 12.2761 8.27614 12.5 8 12.5C7.72386 12.5 7.5 12.2761 7.5 12C7.5 11.7239 7.72386 11.5 8 11.5Z" fill="currentColor"/>
<path fill-rule="evenodd" clip-rule="evenodd" d="M9 10C9.82843 10 10.5 10.6716 10.5 11.5V12.5C10.5 13.3284 9.82843 14 9 14H3C2.17157 14 1.5 13.3284 1.5 12.5V11.5C1.5 10.6716 2.17157 10 3 10H9ZM3 11C2.72386 11 2.5 11.2239 2.5 11.5V12.5C2.5 12.7761 2.72386 13 3 13H9C9.27614 13 9.5 12.7761 9.5 12.5V11.5C9.5 11.2239 9.27614 11 9 11H3Z" fill="currentColor"/>
<path d="M13.0156 8.50098C13.0362 8.50164 13.0567 8.50363 13.0771 8.50684C13.0907 8.50894 13.104 8.51148 13.1172 8.51465C13.1354 8.51904 13.1532 8.52479 13.1709 8.53125C13.1803 8.53468 13.1901 8.53705 13.1992 8.54102C13.2031 8.5427 13.2071 8.54411 13.2109 8.5459L13.2793 8.58496C13.2814 8.58638 13.2831 8.5884 13.2852 8.58984C13.3091 8.60653 13.3322 8.62514 13.3535 8.64648L14.3535 9.64648C14.5488 9.84174 14.5488 10.1583 14.3535 10.3535C14.1583 10.5488 13.8417 10.5488 13.6465 10.3535L13.5 10.207V11C13.5 11.8261 12.8261 12.5 12 12.5C11.7239 12.5 11.5 12.2761 11.5 12C11.5 11.7583 11.6714 11.5563 11.8994 11.5098L12.1006 11.4902C12.3272 11.4431 12.5 11.2395 12.5 11V10.207L12.3535 10.3535C12.1583 10.5488 11.8417 10.5488 11.6465 10.3535C11.4512 10.1583 11.4512 9.84174 11.6465 9.64648L12.6465 8.64648L12.7246 8.58203C12.75 8.56529 12.7763 8.55069 12.8037 8.53906C12.8075 8.53745 12.8116 8.53667 12.8154 8.53516C12.8406 8.5252 12.8664 8.51743 12.8926 8.51172C12.9009 8.50989 12.9095 8.50922 12.918 8.50781C12.9407 8.50408 12.9634 8.50157 12.9863 8.50098C12.9909 8.50085 12.9954 8.5 13 8.5C13.0052 8.5 13.0104 8.50082 13.0156 8.50098Z" fill="currentColor"/>
<path d="M5 3.5C5.27614 3.5 5.5 3.72386 5.5 4C5.5 4.27614 5.27614 4.5 5 4.5H4C3.72614 4.5 3.5 4.72614 3.5 5V6.79297L3.64648 6.64648C3.84175 6.45124 4.15826 6.45124 4.35352 6.64648C4.54877 6.84174 4.54876 7.15825 4.35352 7.35352L3.35352 8.35352C3.31945 8.38758 3.28039 8.41337 3.24023 8.43555C3.19596 8.46002 3.14884 8.48009 3.09766 8.49023C3.03289 8.50308 2.96611 8.5032 2.90137 8.49023C2.85024 8.48 2.80299 8.46008 2.75879 8.43555C2.71891 8.41343 2.68034 8.38737 2.64648 8.35352L1.64648 7.35352C1.45123 7.15825 1.45122 6.84174 1.64648 6.64648C1.84175 6.45124 2.15826 6.45124 2.35352 6.64648L2.5 6.79297V5C2.5 4.17386 3.17386 3.5 4 3.5H5Z" fill="currentColor"/>
<path fill-rule="evenodd" clip-rule="evenodd" d="M10.0977 1.50977C10.1939 1.52894 10.2831 1.57608 10.3535 1.64648L11.207 2.5H14L14.1006 2.50977C14.3286 2.55629 14.5 2.75829 14.5 3V7C14.5 7.27614 14.2761 7.5 14 7.5H7C6.72386 7.5 6.5 7.27614 6.5 7V2C6.5 1.72386 6.72386 1.5 7 1.5H10L10.0977 1.50977ZM7.5 6.5H13.5V3.5H11C10.8674 3.5 10.7403 3.44728 10.6465 3.35352L9.79297 2.5H7.5V6.5Z" fill="currentColor"/>
</svg>
