<svg width="16" height="16" viewBox="0 0 16 16" fill="none" xmlns="http://www.w3.org/2000/svg">
<path d="M8 11.5C8.27614 11.5 8.5 11.7239 8.5 12C8.5 12.2761 8.27614 12.5 8 12.5C7.72386 12.5 7.5 12.2761 7.5 12C7.5 11.7239 7.72386 11.5 8 11.5Z" fill="currentColor"/>
<path fill-rule="evenodd" clip-rule="evenodd" d="M9 10C9.82843 10 10.5 10.6716 10.5 11.5V12.5C10.5 13.3284 9.82843 14 9 14H3C2.17157 14 1.5 13.3284 1.5 12.5V11.5C1.5 10.6716 2.17157 10 3 10H9ZM3 11C2.72386 11 2.5 11.2239 2.5 11.5V12.5C2.5 12.7761 2.72386 13 3 13H9C9.27614 13 9.5 12.7761 9.5 12.5V11.5C9.5 11.2239 9.27614 11 9 11H3Z" fill="currentColor"/>
<path d="M13.0156 7.50098C13.0362 7.50164 13.0567 7.50363 13.0771 7.50684C13.0907 7.50894 13.104 7.51148 13.1172 7.51465C13.1354 7.51904 13.1532 7.52479 13.1709 7.53125C13.1803 7.53468 13.1901 7.53705 13.1992 7.54102C13.2031 7.5427 13.2071 7.54411 13.2109 7.5459L13.2793 7.58496C13.2814 7.58638 13.2831 7.5884 13.2852 7.58984C13.3091 7.60653 13.3322 7.62514 13.3535 7.64648L14.3535 8.64648C14.5488 8.84174 14.5488 9.15825 14.3535 9.35352C14.1583 9.54878 13.8417 9.54878 13.6465 9.35352L13.5 9.20703V11C13.5 11.8261 12.8261 12.5 12 12.5C11.7239 12.5 11.5 12.2761 11.5 12C11.5 11.7583 11.6714 11.5563 11.8994 11.5098L12.1006 11.4902C12.3272 11.4431 12.5 11.2395 12.5 11V9.20703L12.3535 9.35352C12.1583 9.54878 11.8417 9.54878 11.6465 9.35352C11.4512 9.15825 11.4512 8.84174 11.6465 8.64648L12.6465 7.64648L12.7246 7.58203C12.75 7.56529 12.7763 7.55069 12.8037 7.53906C12.8075 7.53745 12.8116 7.53667 12.8154 7.53516C12.8406 7.5252 12.8664 7.51743 12.8926 7.51172C12.9009 7.50989 12.9095 7.50922 12.918 7.50781C12.9407 7.50408 12.9634 7.50157 12.9863 7.50098C12.9909 7.50085 12.9954 7.5 13 7.5C13.0052 7.5 13.0104 7.50082 13.0156 7.50098Z" fill="currentColor"/>
<path d="M4 3.5C4.27614 3.5 4.5 3.72386 4.5 4C4.5 4.24171 4.32855 4.44371 4.10059 4.49023L3.89941 4.50977C3.67284 4.55693 3.5 4.7605 3.5 5V6.79297L3.64648 6.64648C3.84175 6.45124 4.15826 6.45124 4.35352 6.64648C4.54877 6.84174 4.54876 7.15825 4.35352 7.35352L3.35352 8.35352C3.31945 8.38758 3.28039 8.41337 3.24023 8.43555C3.19596 8.46002 3.14884 8.48009 3.09766 8.49023C3.03289 8.50308 2.96611 8.5032 2.90137 8.49023C2.85024 8.48 2.80299 8.46008 2.75879 8.43555C2.71891 8.41343 2.68034 8.38737 2.64648 8.35352L1.64648 7.35352C1.45123 7.15825 1.45122 6.84174 1.64648 6.64648C1.84175 6.45124 2.15826 6.45124 2.35352 6.64648L2.5 6.79297V5C2.5 4.17386 3.17386 3.5 4 3.5Z" fill="currentColor"/>
<path d="M12 3.5C12.2761 3.5 12.5 3.72386 12.5 4C12.5 4.27614 12.2761 4.5 12 4.5C11.7239 4.5 11.5 4.27614 11.5 4C11.5 3.72386 11.7239 3.5 12 3.5Z" fill="currentColor"/>
<path fill-rule="evenodd" clip-rule="evenodd" d="M13 2C13.8284 2 14.5 2.67157 14.5 3.5V4.5C14.5 5.32843 13.8284 6 13 6H7C6.17157 6 5.5 5.32843 5.5 4.5V3.5C5.5 2.67157 6.17157 2 7 2H13ZM7 3C6.72386 3 6.5 3.22386 6.5 3.5V4.5C6.5 4.77614 6.72386 5 7 5H13C13.2761 5 13.5 4.77614 13.5 4.5V3.5C13.5 3.22386 13.2761 3 13 3H7Z" fill="currentColor"/>
</svg>
