<svg width="16" height="16" viewBox="0 0 16 16" fill="none" xmlns="http://www.w3.org/2000/svg">
<path fill-rule="evenodd" clip-rule="evenodd" d="M8 3C9.93 3 11.5 4.57 11.5 6.5C13.16 6.5 14.5 7.84 14.5 9.5C14.5 11.16 13.16 12.5 11.5 12.5H4.5C2.84 12.5 1.5 11.16 1.5 9.5C1.5 7.84 2.84 6.5 4.5 6.5C4.5 4.57 6.07 3 8 3ZM9.87012 6.63965C9.6702 6.43985 9.36013 6.43995 9.16016 6.63965L8.00977 7.79004L6.86035 6.63965C6.66047 6.43977 6.3504 6.44001 6.15039 6.63965C5.95039 6.83964 5.9504 7.14961 6.15039 7.34961L7.2998 8.5L6.15039 9.65039C5.9504 9.85039 5.95039 10.1604 6.15039 10.3604C6.2404 10.4601 6.38015 10.5098 6.5 10.5098C6.61986 10.5098 6.74966 10.4601 6.84961 10.3604L8 9.20996L9.15039 10.3604C9.2404 10.4601 9.38015 10.5098 9.5 10.5098C9.61986 10.5098 9.74966 10.4601 9.84961 10.3604C10.0496 10.1604 10.0496 9.85039 9.84961 9.65039H9.87012L8.71973 8.5L9.87012 7.34961C10.0699 7.1496 10.07 6.83956 9.87012 6.63965Z" fill="black"/>
</svg>
