<svg width="16" height="16" viewBox="0 0 16 16" fill="none" xmlns="http://www.w3.org/2000/svg">
<path fill-rule="evenodd" clip-rule="evenodd" d="M8 3C9.93 3 11.5 4.57 11.5 6.5C13.16 6.5 14.5 7.84 14.5 9.5C14.5 11.16 13.16 12.5 11.5 12.5H4.5C2.84 12.5 1.5 11.16 1.5 9.5C1.5 7.84 2.84 6.5 4.5 6.5C4.5 4.57 6.07 3 8 3ZM7.00977 6C6.72988 6.00013 6.50977 6.22008 6.50977 6.5V9.29004L6.36035 9.13965C6.16048 8.93977 5.8504 8.94002 5.65039 9.13965C5.45039 9.33965 5.45039 9.64961 5.65039 9.84961L6.65039 10.8496C6.74039 10.9496 6.87 11 7 11C7.06 11 7.13043 10.99 7.19043 10.96C7.38021 10.8799 7.5 10.6999 7.5 10.5H7.50977V6.5C7.50977 6.22 7.28977 6 7.00977 6ZM9.33984 6.13965C9.19984 5.99984 8.98969 5.95032 8.7998 6.03027C8.60995 6.11033 8.49023 6.29032 8.49023 6.49023V10.4902C8.49036 10.7701 8.71031 10.9902 8.99023 10.9902C9.27004 10.9901 9.49011 10.77 9.49023 10.4902V7.7002L9.63965 7.84961C9.83965 8.04961 10.1496 8.04961 10.3496 7.84961H10.3398C10.5397 7.64961 10.5398 7.33961 10.3398 7.13965L9.33984 6.13965Z" fill="currentColor"/>
</svg>
