<svg width="16" height="16" viewBox="0 0 16 16" fill="none" xmlns="http://www.w3.org/2000/svg">
<path fill-rule="evenodd" clip-rule="evenodd" d="M8 3C9.93 3 11.5 4.57 11.5 6.5C13.16 6.5 14.5 7.84 14.5 9.5C14.5 11.16 13.16 12.5 11.5 12.5H4.5C2.84 12.5 1.5 11.16 1.5 9.5C1.5 7.84 2.84 6.5 4.5 6.5C4.5 4.57 6.07 3 8 3ZM6.75 8.5C6.2 8.5 5.75 8.95 5.75 9.5V10C5.75 10.28 5.97 10.5 6.25 10.5H9.75C10.03 10.5 10.25 10.28 10.25 10V9.5C10.25 8.95 9.8 8.5 9.25 8.5H6.75ZM8 5.5C7.31 5.5 6.75 6.06 6.75 6.75C6.75 7.44 7.31 8 8 8C8.69 8 9.25 7.44 9.25 6.75C9.25 6.06 8.69 5.5 8 5.5Z" fill="currentColor"/>
</svg>
