<svg width="16" height="16" viewBox="0 0 16 16" fill="none" xmlns="http://www.w3.org/2000/svg">
<path fill-rule="evenodd" clip-rule="evenodd" d="M8 3C9.93 3 11.5 4.57 11.5 6.5C13.16 6.5 14.5 7.84 14.5 9.5C14.5 11.16 13.16 12.5 11.5 12.5H4.5C2.84 12.5 1.5 11.16 1.5 9.5C1.5 7.84 2.84 6.5 4.5 6.5C4.5 4.57 6.07 3 8 3ZM8.19043 10.04C8.01043 9.97004 7.78039 10.0104 7.65039 10.1504C7.55039 10.2404 7.5 10.37 7.5 10.5C7.5 10.56 7.51004 10.6304 7.54004 10.6904C7.56008 10.7503 7.6005 10.8097 7.65039 10.8496C7.6903 10.8995 7.7497 10.9399 7.80957 10.96C7.86957 11 7.94 11 8 11C8.13 11 8.25961 10.9496 8.34961 10.8496C8.44961 10.7596 8.5 10.63 8.5 10.5C8.5 10.37 8.44961 10.2404 8.34961 10.1504C8.3097 10.1005 8.2503 10.0601 8.19043 10.04ZM9.41992 8.58008C8.63992 7.80009 7.36984 7.80008 6.58984 8.58008C6.38998 8.78006 6.38994 9.09008 6.58984 9.29004C6.78981 9.49 7.0998 9.48993 7.2998 9.29004C7.6898 8.90004 8.31996 8.90004 8.70996 9.29004C8.79985 9.38992 8.93967 9.44031 9.05957 9.44043C9.17957 9.44043 9.31016 9.39004 9.41016 9.29004H9.41992C9.61992 9.09004 9.61992 8.78008 9.41992 8.58008ZM10.8398 7.16992C9.32982 5.66004 6.68965 5.65996 5.17969 7.16992C4.97987 7.36985 4.97994 7.67991 5.17969 7.87988C5.37965 8.07984 5.68964 8.07976 5.88965 7.87988C7.01961 6.74992 8.99986 6.75 10.1299 7.87988C10.2199 7.97988 10.3605 8.03027 10.4805 8.03027C10.6003 8.03015 10.7302 7.97976 10.8301 7.87988H10.8398C11.0398 7.67988 11.0398 7.36992 10.8398 7.16992Z" fill="black"/>
</svg>
