<svg width="16" height="16" viewBox="0 0 16 16" fill="none" xmlns="http://www.w3.org/2000/svg">
<path fill-rule="evenodd" clip-rule="evenodd" d="M8 3C9.93 3 11.5 4.57 11.5 6.5C13.16 6.5 14.5 7.84 14.5 9.5C14.5 11.16 13.16 12.5 11.5 12.5H4.5C2.84 12.5 1.5 11.16 1.5 9.5C1.5 7.84 2.84 6.5 4.5 6.5C4.5 4.57 6.07 3 8 3ZM5 8C4.72 8 4.5 8.22 4.5 8.5V10.5C4.5 10.78 4.72 11 5 11C5.28 11 5.5 10.78 5.5 10.5V8.5C5.5 8.22 5.28 8 5 8ZM7 8C6.72 8 6.5 8.22 6.5 8.5V10.5C6.5 10.78 6.72 11 7 11C7.28 11 7.5 10.78 7.5 10.5V8.5C7.5 8.22 7.28 8 7 8ZM9 8C8.72 8 8.5 8.22 8.5 8.5V10.5C8.5 10.78 8.72 11 9 11C9.28 11 9.5 10.78 9.5 10.5V8.5C9.5 8.22 9.28 8 9 8ZM11 8C10.72 8 10.5 8.22 10.5 8.5V10.5C10.5 10.78 10.72 11 11 11C11.28 11 11.5 10.78 11.5 10.5V8.5C11.5 8.22 11.28 8 11 8Z" fill="black"/>
</svg>
