<svg width="16" height="16" viewBox="0 0 16 16" fill="none" xmlns="http://www.w3.org/2000/svg">
<path fill-rule="evenodd" clip-rule="evenodd" d="M13 11C13.55 11 14 11.45 14 12V13C14 13.55 13.55 14 13 14H3C2.45 14 2 13.55 2 13V12C2 11.45 2.45 11 3 11H13ZM12 12C11.72 12 11.5 12.22 11.5 12.5C11.5 12.78 11.72 13 12 13C12.28 13 12.5 12.78 12.5 12.5C12.5 12.22 12.28 12 12 12Z" fill="black"/>
<path fill-rule="evenodd" clip-rule="evenodd" d="M11.1904 2C11.6603 2.0002 12.07 2.33018 12.1699 2.79004H12.1504L13.7002 10.1299C13.4803 10.0399 13.2401 9.99027 12.9902 9.99023H2.99023C2.74034 9.99023 2.5002 10.04 2.28027 10.1299L3.83008 2.79004C3.93005 2.33018 4.33975 2.0002 4.80957 2H11.1904ZM6.99023 4C5.89023 4 4.99023 4.9 4.99023 6C4.99023 7.1 5.89023 8 6.99023 8H9.58984C10.3797 8 11.0194 7.36017 11.0195 6.57031C11.0195 5.78031 10.3798 5.13965 9.58984 5.13965C9.32996 5.13968 9.08004 5.20993 8.87012 5.33984L7.73047 6.20996C7.62053 6.28992 7.48031 6.30945 7.36035 6.26953C7.06037 6.16954 7.00004 5.77009 7.25 5.58008L8.45996 4.66016C8.09001 4.26021 7.58013 4.00007 6.99023 4Z" fill="black"/>
</svg>
