<svg width="16" height="16" viewBox="0 0 16 16" fill="none" xmlns="http://www.w3.org/2000/svg">
<path fill-rule="evenodd" clip-rule="evenodd" d="M13 11C13.55 11 14 11.45 14 12V13C14 13.55 13.55 14 13 14H3C2.45 14 2 13.55 2 13V12C2 11.45 2.45 11 3 11H13ZM12 12C11.72 12 11.5 12.22 11.5 12.5C11.5 12.78 11.72 13 12 13C12.28 13 12.5 12.78 12.5 12.5C12.5 12.22 12.28 12 12 12Z" fill="currentColor"/>
<path fill-rule="evenodd" clip-rule="evenodd" d="M11.1904 2C11.6603 2.0002 12.07 2.33018 12.1699 2.79004H12.1504L13.7002 10.1299C13.4803 10.0399 13.2401 9.99027 12.9902 9.99023H2.99023C2.74033 9.99023 2.50021 10.0399 2.28027 10.1299L3.83008 2.79004C3.93005 2.33018 4.33975 2.0002 4.80957 2H11.1904ZM7.66016 3.49023C7.38016 3.49023 7.16016 3.71023 7.16016 3.99023V5.16016H5.99023C5.71023 5.16016 5.49023 5.38016 5.49023 5.66016V6.33008C5.49027 6.61004 5.71026 6.83008 5.99023 6.83008H7.16016V8C7.16016 8.28 7.38016 8.5 7.66016 8.5H8.33008C8.61005 8.49997 8.83008 8.27998 8.83008 8V6.83008H10C10.28 6.83008 10.5 6.61004 10.5 6.33008V5.66016C10.5 5.38016 10.28 5.16016 10 5.16016H8.83008V3.99023C8.83008 3.71025 8.61005 3.49027 8.33008 3.49023H7.66016Z" fill="currentColor"/>
</svg>
