<svg width="16" height="16" viewBox="0 0 16 16" fill="none" xmlns="http://www.w3.org/2000/svg">
<path fill-rule="evenodd" clip-rule="evenodd" d="M13 11C13.55 11 14 11.45 14 12V13C14 13.55 13.55 14 13 14H3C2.45 14 2 13.55 2 13V12C2 11.45 2.45 11 3 11H13ZM12 12C11.72 12 11.5 12.22 11.5 12.5C11.5 12.78 11.72 13 12 13C12.28 13 12.5 12.78 12.5 12.5C12.5 12.22 12.28 12 12 12Z" fill="currentColor"/>
<path d="M8 4C8.38 4 8.76957 4.15043 9.05957 4.44043C9.63957 5.02043 9.63957 5.97957 9.05957 6.55957C8.47957 7.13957 7.52043 7.13957 6.94043 6.55957C6.36043 5.97957 6.36043 5.02043 6.94043 4.44043C7.23043 4.15043 7.62 4 8 4Z" fill="currentColor"/>
<path fill-rule="evenodd" clip-rule="evenodd" d="M11.1904 2C11.6603 2.0002 12.07 2.33018 12.1699 2.79004H12.1504L13.7002 10.1299C13.4803 10.0399 13.2401 9.99027 12.9902 9.99023H2.99023C2.74033 9.99023 2.50021 10.0399 2.28027 10.1299L3.83008 2.79004C3.93005 2.33018 4.33975 2.0002 4.80957 2H11.1904ZM9.77051 3.71973C8.79064 2.74985 7.2005 2.74011 6.23047 3.71973C5.26047 4.69973 5.26047 6.28977 6.23047 7.25977C6.72045 7.74968 7.36005 7.99023 8 7.99023C8.47995 7.99023 8.95991 7.86002 9.37988 7.58008L10.4805 8.67969C10.5705 8.77964 10.7101 8.83008 10.8301 8.83008C10.9501 8.83006 11.0797 8.77967 11.1797 8.67969H11.1904C11.39 8.4797 11.3902 8.16961 11.1904 7.96973L10.0898 6.87012C10.7298 5.90016 10.6204 4.56973 9.77051 3.71973Z" fill="currentColor"/>
</svg>
