<svg width="16" height="16" viewBox="0 0 16 16" fill="none" xmlns="http://www.w3.org/2000/svg">
<path d="M6 7C6.28 7 6.5 7.22 6.5 7.5V8H5.5V7.5C5.5 7.22 5.72 7 6 7Z" fill="currentColor"/>
<path fill-rule="evenodd" clip-rule="evenodd" d="M6.49023 3C6.82015 3.00007 7.14017 3.14017 7.37012 3.37012L9 5H13.0098C13.5598 5 14.0098 5.45 14.0098 6V12C14.0098 12.55 13.5598 13 13.0098 13H3.00977C2.45988 12.9999 2.00977 12.5499 2.00977 12V4C2.00977 3.45008 2.45988 3.00013 3.00977 3H6.49023ZM6 6C5.17 6 4.5 6.67 4.5 7.5V8H4.25C3.97 8 3.75 8.22 3.75 8.5V10.5C3.75 10.78 3.97 11 4.25 11H7.75C8.03 11 8.25 10.78 8.25 10.5V8.5C8.25 8.22 8.03 8 7.75 8H7.5V7.5C7.5 6.67 6.83 6 6 6Z" fill="currentColor"/>
</svg>
