<svg width="16" height="16" viewBox="0 0 16 16" fill="none" xmlns="http://www.w3.org/2000/svg">
<path fill-rule="evenodd" clip-rule="evenodd" d="M9.00002 10.5C9.55 10.5 10 10.95 10 11.5V12.5C10 13.05 9.55 13.5 9.00002 13.5H3.00002C2.45002 13.5 2.00002 13.05 2.00002 12.5V11.5C2.00002 10.95 2.45002 10.5 3.00002 10.5H9.00002ZM8.00002 11.5C7.72002 11.5 7.50002 11.72 7.50002 12C7.50002 12.28 7.72002 12.5 8.00002 12.5C8.28 12.5 8.50002 12.28 8.50002 12C8.50002 11.72 8.28 11.5 8.00002 11.5Z" fill="black"/>
<path d="M13.0156 8.50098C13.0363 8.50164 13.0567 8.50363 13.0772 8.50684C13.0907 8.50894 13.104 8.51148 13.1172 8.51465C13.1341 8.51873 13.1505 8.52441 13.167 8.53027C13.1781 8.53422 13.1895 8.53729 13.2002 8.54199C13.216 8.54892 13.2309 8.55777 13.2461 8.56641C13.2594 8.57395 13.2727 8.58116 13.2852 8.58984C13.3091 8.60653 13.3322 8.62515 13.3535 8.64648L14.3535 9.64648C14.5488 9.84174 14.5488 10.1583 14.3535 10.3535C14.1583 10.5488 13.8418 10.5488 13.6465 10.3535L13.5 10.207V11C13.5 11.8261 12.8261 12.5 12 12.5C11.7239 12.5 11.5 12.2761 11.5 12C11.5 11.7583 11.6715 11.5563 11.8994 11.5098L12.1006 11.4902C12.3272 11.443 12.5 11.2395 12.5 11V10.207L12.3535 10.3535C12.1583 10.5488 11.8418 10.5488 11.6465 10.3535C11.4512 10.1583 11.4512 9.84175 11.6465 9.64648L12.6465 8.64648L12.7246 8.58203C12.75 8.56529 12.7764 8.55069 12.8037 8.53906C12.8075 8.53745 12.8116 8.53667 12.8155 8.53516C12.8406 8.5252 12.8664 8.51743 12.8926 8.51172C12.9009 8.50989 12.9095 8.50922 12.918 8.50781C12.9407 8.50408 12.9634 8.50157 12.9864 8.50098C12.9909 8.50085 12.9955 8.5 13 8.5C13.0053 8.5 13.0105 8.50082 13.0156 8.50098Z" fill="black"/>
<path d="M5.00002 3.5C5.27615 3.50002 5.50002 3.72387 5.50002 4C5.50002 4.27613 5.27615 4.49998 5.00002 4.5H4.00002C3.72617 4.5 3.50002 4.72614 3.50002 5V6.79297L3.64651 6.64648C3.84177 6.45126 4.15829 6.45123 4.35354 6.64648C4.54878 6.84174 4.54876 7.15825 4.35354 7.35352L3.35354 8.35352C3.31948 8.38757 3.2804 8.41337 3.24026 8.43555C3.19599 8.46002 3.14886 8.48009 3.09768 8.49023C3.03292 8.50308 2.96613 8.5032 2.90139 8.49023C2.85026 8.48001 2.80302 8.46008 2.75881 8.43555C2.71893 8.41343 2.68037 8.38737 2.64651 8.35352L1.64651 7.35352C1.45125 7.15825 1.45125 6.84175 1.64651 6.64648C1.84177 6.45126 2.15829 6.45123 2.35354 6.64648L2.50002 6.79297V5C2.50002 4.17386 3.17388 3.5 4.00002 3.5H5.00002Z" fill="black"/>
<path d="M10.5 2C11.6799 2.00002 12.6395 2.95982 12.6397 4.13965C13.4297 4.13965 14.0703 4.78031 14.0703 5.57031C14.0702 6.36017 13.4296 7 12.6397 7H8.36037C7.57048 7 6.92988 6.36017 6.92971 5.57031C6.92971 4.78031 7.57037 4.13965 8.36037 4.13965C8.36057 2.95981 9.32014 2 10.5 2Z" fill="black"/>
</svg>
