<svg width="16" height="16" viewBox="0 0 16 16" fill="none" xmlns="http://www.w3.org/2000/svg">
<path fill-rule="evenodd" clip-rule="evenodd" d="M6.48047 3C6.8103 3.00013 7.13024 3.13024 7.37012 3.37012L8 4H13C13.55 4 14 4.45 14 5V12C14 12.22 13.9303 12.4201 13.8203 12.5801C13.6303 12.8301 13.33 13 13 13H3C2.45 13 2 12.55 2 12V4C2 3.45 2.45 3 3 3H6.48047ZM5.75 6.5C5.47 6.5 5.25 6.72 5.25 7V8.5H4.5C4.37 8.5 4.25039 8.55039 4.15039 8.65039C3.9504 8.85039 3.95039 9.16036 4.15039 9.36035L5.65039 10.8604C5.7404 10.9601 5.88015 11.0098 6 11.0098C6.11986 11.0098 6.24966 10.9601 6.34961 10.8604L7.84961 9.36035C8.04961 9.16036 8.0496 8.85039 7.84961 8.65039C7.74961 8.55039 7.63 8.5 7.5 8.5H6.75V7C6.75 6.72 6.53 6.5 6.25 6.5H5.75ZM8.99023 5L9.7002 5.70996C9.89019 5.88992 10.1402 6 10.4102 6H12.4902C12.7701 5.99987 12.9902 5.77992 12.9902 5.5C12.9902 5.22008 12.7701 5.00013 12.4902 5H8.99023Z" fill="black"/>
</svg>
