<svg width="16" height="16" viewBox="0 0 16 16" fill="none" xmlns="http://www.w3.org/2000/svg">
<path fill-rule="evenodd" clip-rule="evenodd" d="M8 3C9.93 3 11.5 4.57 11.5 6.5C13.16 6.5 14.5 7.84 14.5 9.5C14.5 11.16 13.16 12.5 11.5 12.5H4.5C2.84 12.5 1.5 11.16 1.5 9.5C1.5 7.84 2.84 6.5 4.5 6.5C4.5 4.57 6.07 3 8 3ZM8 6C7.72 6 7.5 6.22 7.5 6.5V8H6C5.72 8 5.5 8.22 5.5 8.5C5.5 8.78 5.72 9 6 9H7.5V10.5C7.5 10.78 7.72 11 8 11C8.28 11 8.5 10.78 8.5 10.5V9H10C10.28 9 10.5 8.78 10.5 8.5C10.5 8.22 10.28 8 10 8H8.5V6.5C8.5 6.22 8.28 6 8 6Z" fill="black"/>
</svg>
