<svg width="16" height="16" viewBox="0 0 16 16" fill="none" xmlns="http://www.w3.org/2000/svg">
<path fill-rule="evenodd" clip-rule="evenodd" d="M6.49023 3C6.82015 3.00007 7.14017 3.14017 7.37012 3.37012L9 5H13.0098C13.5598 5 14.0098 5.45 14.0098 6V12C14.0098 12.55 13.5598 13 13.0098 13H3.00977C2.45988 12.9999 2.00977 12.5499 2.00977 12V4C2.00977 3.45008 2.45988 3.00013 3.00977 3H6.49023ZM4.75 9C4.2 9 3.75 9.45 3.75 10V10.5C3.75 10.78 3.97 11 4.25 11H7.75C8.03 11 8.25 10.78 8.25 10.5V10C8.25 9.45 7.8 9 7.25 9H4.75ZM6 6C5.31 6 4.75 6.56 4.75 7.25C4.75 7.94 5.31 8.5 6 8.5C6.69 8.5 7.25 7.94 7.25 7.25C7.25 6.56 6.69 6 6 6Z" fill="currentColor"/>
</svg>
