<svg width="16" height="16" viewBox="0 0 16 16" fill="none" xmlns="http://www.w3.org/2000/svg">
<path d="M12.56 4.56L10.44 2.44C10.16 2.16 9.78 2 9.38 2H4C3.45 2 3 2.45 3 3V13C3 13.55 3.45 14 4 14H12C12.55 14 13 13.55 13 13V5.62C13 5.22 12.84 4.84 12.56 4.56ZM4.75 6.75C4.75 6.06 5.31 5.5 6 5.5C6.69 5.5 7.25 6.06 7.25 6.75C7.25 7.44 6.69 8 6 8C5.31 8 4.75 7.44 4.75 6.75ZM11.5 12C11.5 12.28 11.28 12.5 11 12.5H5.5L9.65 8.35C9.85 8.15 10.16 8.15 10.36 8.35L11.51 9.5V12H11.5ZM11.5 6H10C9.45 6 9 5.55 9 5V3.5C9 3.22 9.22 3 9.5 3C9.78 3 10 3.22 10 3.5V5H11.5C11.78 5 12 5.22 12 5.5C12 5.78 11.78 6 11.5 6Z" fill="currentColor"/>
</svg>
