<svg width="16" height="16" viewBox="0 0 16 16" fill="none" xmlns="http://www.w3.org/2000/svg">
<path fill-rule="evenodd" clip-rule="evenodd" d="M9.37988 2C9.77988 2 10.1604 2.16043 10.4404 2.44043L12.5596 4.55957C12.8396 4.83957 13 5.22012 13 5.62012V13C13 13.55 12.55 14 12 14H4C3.45 14 3 13.55 3 13V3C3 2.45 3.45 2 4 2H9.37988ZM6.5 8.5C5.4 8.5 4.5 9.4 4.5 10.5C4.5 11.6 5.4 12.5 6.5 12.5H8.75C9.03 12.5 9.25 12.28 9.25 12C9.25 11.72 9.03 11.5 8.75 11.5H6.5C5.95 11.5 5.5 11.05 5.5 10.5C5.5 9.95 5.95 9.5 6.5 9.5H10.25C10.39 9.5 10.5 9.61 10.5 9.75C10.5 9.89 10.39 10 10.25 10H6.5C6.22 10 6 10.22 6 10.5C6 10.78 6.22 11 6.5 11H10.25C10.94 11 11.5 10.44 11.5 9.75C11.5 9.06 10.94 8.5 10.25 8.5H6.5ZM9.5 3C9.22 3 9 3.22 9 3.5V5C9 5.55 9.45 6 10 6H11.5C11.78 6 12 5.78 12 5.5C12 5.22 11.78 5 11.5 5H10V3.5C10 3.22 9.78 3 9.5 3Z" fill="black"/>
</svg>
