<svg width="16" height="16" viewBox="0 0 16 16" fill="none" xmlns="http://www.w3.org/2000/svg">
<path d="M8 7.5C8.28 7.5 8.5 7.72 8.5 8V8.5H7.5V8C7.5 7.72 7.72 7.5 8 7.5Z" fill="currentColor"/>
<path fill-rule="evenodd" clip-rule="evenodd" d="M9.37988 2C9.77988 2 10.1604 2.16043 10.4404 2.44043L12.5596 4.55957C12.8396 4.83957 13 5.22012 13 5.62012V13C13 13.55 12.55 14 12 14H4C3.45 14 3 13.55 3 13V3C3 2.45 3.45 2 4 2H9.37988ZM8 6.5C7.17 6.5 6.5 7.17 6.5 8V8.5H6.25C5.97 8.5 5.75 8.72 5.75 9V11C5.75 11.28 5.97 11.5 6.25 11.5H9.75C10.03 11.5 10.25 11.28 10.25 11V9C10.25 8.72 10.03 8.5 9.75 8.5H9.5V8C9.5 7.17 8.83 6.5 8 6.5ZM9.5 3C9.22 3 9 3.22 9 3.5V5C9 5.55 9.45 6 10 6H11.5C11.78 6 12 5.78 12 5.5C12 5.22 11.78 5 11.5 5H10V3.5C10 3.22 9.78 3 9.5 3Z" fill="currentColor"/>
</svg>
