<svg width="16" height="16" viewBox="0 0 16 16" fill="none" xmlns="http://www.w3.org/2000/svg">
<path fill-rule="evenodd" clip-rule="evenodd" d="M12 10.5C12.55 10.5 13 10.95 13 11.5V12.5C13 13.05 12.55 13.5 12 13.5H4C3.45 13.5 3 13.05 3 12.5V11.5C3 10.95 3.45 10.5 4 10.5H12ZM11 11.5C10.72 11.5 10.5 11.72 10.5 12C10.5 12.28 10.72 12.5 11 12.5C11.28 12.5 11.5 12.28 11.5 12C11.5 11.72 11.28 11.5 11 11.5Z" fill="black"/>
<path fill-rule="evenodd" clip-rule="evenodd" d="M12 6.5C12.55 6.5 13 6.95 13 7.5V8.5C13 9.05 12.55 9.5 12 9.5H4C3.45 9.5 3 9.05 3 8.5V7.5C3 6.95 3.45 6.5 4 6.5H12ZM11 7.5C10.72 7.5 10.5 7.72 10.5 8C10.5 8.28 10.72 8.5 11 8.5C11.28 8.5 11.5 8.28 11.5 8C11.5 7.72 11.28 7.5 11 7.5Z" fill="black"/>
<path fill-rule="evenodd" clip-rule="evenodd" d="M12 2.5C12.55 2.5 13 2.95 13 3.5V4.5C13 5.05 12.55 5.5 12 5.5H4C3.45 5.5 3 5.05 3 4.5V3.5C3 2.95 3.45 2.5 4 2.5H12ZM11 3.5C10.72 3.5 10.5 3.72 10.5 4C10.5 4.28 10.72 4.5 11 4.5C11.28 4.5 11.5 4.28 11.5 4C11.5 3.72 11.28 3.5 11 3.5Z" fill="black"/>
</svg>
