<svg width="16" height="16" viewBox="0 0 16 16" fill="none" xmlns="http://www.w3.org/2000/svg">
<path fill-rule="evenodd" clip-rule="evenodd" d="M6.48047 3C6.81031 3.00012 7.13023 3.13023 7.37012 3.37012L8 4H13C13.55 4 14 4.45 14 5V12C14 12.22 13.9303 12.4201 13.8203 12.5801C13.6303 12.8301 13.33 13 13 13H3C2.45 13 2 12.55 2 12V4C2 3.45 2.45 3 3 3H6.48047ZM8.37012 7.13965C8.1702 6.93985 7.86013 6.93994 7.66016 7.13965L5.50977 9.29004L4.36035 8.13965C4.16048 7.93977 3.8504 7.94002 3.65039 8.13965C3.45039 8.33965 3.45039 8.64961 3.65039 8.84961L5.15039 10.3496C5.24039 10.4496 5.38 10.5 5.5 10.5C5.62 10.5 5.74961 10.4496 5.84961 10.3496L8.34961 7.84961H8.37012C8.56986 7.6496 8.57003 7.33956 8.37012 7.13965ZM8.99023 5L9.7002 5.70996C9.89019 5.88992 10.1402 6 10.4102 6H12.4902C12.7701 5.99987 12.9902 5.77992 12.9902 5.5C12.9902 5.22008 12.7701 5.00013 12.4902 5H8.99023Z" fill="currentColor"/>
</svg>
