<svg width="16" height="16" viewBox="0 0 16 16" fill="none" xmlns="http://www.w3.org/2000/svg">
<path fill-rule="evenodd" clip-rule="evenodd" d="M6.48047 3C6.81031 3.00012 7.13023 3.13023 7.37012 3.37012L8 4H13C13.55 4 14 4.45 14 5V12C14 12.22 13.9303 12.4201 13.8203 12.5801C13.6303 12.8301 13.33 13 13 13H3C2.45 13 2 12.55 2 12V4C2 3.45 2.45 3 3 3H6.48047ZM5.99023 7C4.89023 7 3.99023 7.9 3.99023 9C3.99023 10.1 4.89023 11 5.99023 11H8.58984C9.37974 11 10.0194 10.3602 10.0195 9.57031C10.0195 8.78031 9.37984 8.13965 8.58984 8.13965C8.32996 8.13968 8.08004 8.20993 7.87012 8.33984L6.73047 9.20996C6.62053 9.28992 6.48031 9.30945 6.36035 9.26953C6.06037 9.16954 6.00004 8.77009 6.25 8.58008L7.45996 7.66016C7.09001 7.26021 6.58013 7.00007 5.99023 7ZM8.99023 5L9.7002 5.70996C9.89019 5.88992 10.1402 6 10.4102 6H12.4902C12.7701 5.99987 12.9902 5.77992 12.9902 5.5C12.9902 5.22008 12.7701 5.00013 12.4902 5H8.99023Z" fill="currentColor"/>
</svg>
