<svg width="16" height="16" viewBox="0 0 16 16" fill="none" xmlns="http://www.w3.org/2000/svg">
<path fill-rule="evenodd" clip-rule="evenodd" d="M12 6C12.55 6 13 6.45 13 7V8C13 8.55 12.55 9 12 9H8.5V10H13C13.2761 10 13.5 10.2239 13.5 10.5V11.8545C13.9414 12.0474 14.25 12.4875 14.25 13C14.25 13.6904 13.6904 14.25 13 14.25C12.3096 14.25 11.75 13.6904 11.75 13C11.75 12.4875 12.0586 12.0474 12.5 11.8545V11H8.5V11.8545C8.94138 12.0474 9.25 12.4875 9.25 13C9.25 13.6904 8.69036 14.25 8 14.25C7.30964 14.25 6.75 13.6904 6.75 13C6.75 12.4875 7.05862 12.0474 7.5 11.8545V11H3.5V11.8545C3.94138 12.0474 4.25 12.4875 4.25 13C4.25 13.6904 3.69036 14.25 3 14.25C2.30964 14.25 1.75 13.6904 1.75 13C1.75 12.4875 2.05862 12.0474 2.5 11.8545V10.5C2.5 10.2239 2.72386 10 3 10H7.5V9H4C3.45 9 3 8.55 3 8V7C3 6.45 3.45 6 4 6H12ZM11 7C10.72 7 10.5 7.22 10.5 7.5C10.5 7.78 10.72 8 11 8C11.28 8 11.5 7.78 11.5 7.5C11.5 7.22 11.28 7 11 7Z" fill="currentColor"/>
<path d="M9.80957 2C10.5496 2 11.2203 2.40004 11.5703 3.04004L12.71 5.13965C12.49 5.04969 12.2499 5 12 5H3.99023C3.74037 5 3.50018 5.04974 3.28027 5.13965L4.41992 3.04004C4.77987 2.40013 5.44981 2.00011 6.17969 2H9.80957Z" fill="currentColor"/>
</svg>
