<svg width="16" height="16" viewBox="0 0 16 16" fill="none" xmlns="http://www.w3.org/2000/svg">
<path fill-rule="evenodd" clip-rule="evenodd" d="M6.49023 3C6.82015 3.00007 7.14017 3.14017 7.37012 3.37012L9 5H13.0098C13.5598 5 14.0098 5.45 14.0098 6V12C14.0098 12.55 13.5598 13 13.0098 13H3.00977C2.45988 12.9999 2.00977 12.5499 2.00977 12V4C2.00977 3.45008 2.45988 3.00013 3.00977 3H6.49023ZM8.37012 7.13965C8.1702 6.93985 7.86013 6.93994 7.66016 7.13965L5.50977 9.29004L4.36035 8.13965C4.16048 7.93977 3.8504 7.94002 3.65039 8.13965C3.45039 8.33965 3.45039 8.64961 3.65039 8.84961L5.15039 10.3496C5.24039 10.4496 5.38 10.5 5.5 10.5C5.62 10.5 5.74961 10.4496 5.84961 10.3496L8.34961 7.84961H8.37012C8.56986 7.6496 8.57003 7.33956 8.37012 7.13965Z" fill="black"/>
</svg>
