<svg width="16" height="16" viewBox="0 0 16 16" fill="none" xmlns="http://www.w3.org/2000/svg">
<path fill-rule="evenodd" clip-rule="evenodd" d="M6.48047 3C6.81031 3.00012 7.13023 3.13023 7.37012 3.37012L8 4H13C13.55 4 14 4.45 14 5V12C14 12.22 13.9303 12.4201 13.8203 12.5801C13.6303 12.8301 13.33 13 13 13H3C2.45 13 2 12.55 2 12V4C2 3.45 2.45 3 3 3H6.48047ZM5.00977 6C4.72988 6.00013 4.50977 6.22008 4.50977 6.5V9.29004L4.36035 9.13965C4.16048 8.93977 3.8504 8.94002 3.65039 9.13965C3.45039 9.33965 3.45039 9.64961 3.65039 9.84961L4.65039 10.8496C4.74039 10.9496 4.87 11 5 11C5.06 11 5.13043 10.99 5.19043 10.96C5.38021 10.8799 5.5 10.6999 5.5 10.5H5.50977V6.5C5.50977 6.22 5.28977 6 5.00977 6ZM7.33984 6.13965C7.19984 5.99984 6.98969 5.95032 6.7998 6.03027C6.60995 6.11033 6.49023 6.29032 6.49023 6.49023V10.4902C6.49036 10.7701 6.71031 10.9902 6.99023 10.9902C7.27004 10.9901 7.49011 10.77 7.49023 10.4902V7.7002L7.63965 7.84961C7.83965 8.04961 8.14961 8.04961 8.34961 7.84961H8.33984C8.53973 7.64961 8.5398 7.33961 8.33984 7.13965L7.33984 6.13965ZM8.99023 5L9.7002 5.70996C9.89019 5.88992 10.1402 6 10.4102 6H12.4902C12.7701 5.99987 12.9902 5.77992 12.9902 5.5C12.9902 5.22008 12.7701 5.00013 12.4902 5H8.99023Z" fill="currentColor"/>
</svg>
