<svg width="16" height="16" viewBox="0 0 16 16" fill="none" xmlns="http://www.w3.org/2000/svg">
<path fill-rule="evenodd" clip-rule="evenodd" d="M8 1.5C10.2091 1.5 12 3.29086 12 5.5C12 7.53975 10.4731 9.22165 8.5 9.46777V10H13C13.2761 10 13.5 10.2239 13.5 10.5V11.8545C13.9414 12.0474 14.25 12.4875 14.25 13C14.25 13.6904 13.6904 14.25 13 14.25C12.3096 14.25 11.75 13.6904 11.75 13C11.75 12.4875 12.0586 12.0474 12.5 11.8545V11H8.5V11.8545C8.94138 12.0474 9.25 12.4875 9.25 13C9.25 13.6904 8.69036 14.25 8 14.25C7.30964 14.25 6.75 13.6904 6.75 13C6.75 12.4875 7.05862 12.0474 7.5 11.8545V11H3.5V11.8545C3.94138 12.0474 4.25 12.4875 4.25 13C4.25 13.6904 3.69036 14.25 3 14.25C2.30964 14.25 1.75 13.6904 1.75 13C1.75 12.4875 2.05862 12.0474 2.5 11.8545V10.5C2.5 10.2239 2.72386 10 3 10H7.5V9.46777C5.52692 9.22165 4 7.53975 4 5.5C4 3.29086 5.79086 1.5 8 1.5ZM7.20996 6C7.28569 6.96 7.57676 7.81961 8 8.49316C8.42764 7.82158 8.71573 6.963 8.79004 6H7.20996ZM5.04199 6C5.20729 6.98513 5.85378 7.80417 6.73047 8.21484C6.44507 7.54832 6.26234 6.79734 6.20801 6H5.04199ZM9.79297 6C9.73987 6.79503 9.5597 7.54495 9.27441 8.21191C10.1485 7.80044 10.793 6.9832 10.958 6H9.79297ZM6.72461 2.78711C5.85075 3.19865 5.20694 4.01696 5.04199 5H6.20703C6.26014 4.20485 6.4393 3.45424 6.72461 2.78711ZM7.99805 2.50586C7.57044 3.17737 7.28432 4.03713 7.20996 5H8.79004C8.71418 4.03931 8.42183 3.17961 7.99805 2.50586ZM9.26953 2.78418C9.55504 3.45096 9.73763 4.20242 9.79199 5H10.958C10.7927 4.01473 10.1464 3.19479 9.26953 2.78418Z" fill="black"/>
</svg>
