<svg width="16" height="16" viewBox="0 0 16 16" fill="none" xmlns="http://www.w3.org/2000/svg">
<path fill-rule="evenodd" clip-rule="evenodd" d="M8 3C9.93 3 11.5 4.57 11.5 6.5C13.16 6.5 14.5 7.84 14.5 9.5C14.5 11.16 13.16 12.5 11.5 12.5H4.5C2.84 12.5 1.5 11.16 1.5 9.5C1.5 7.84 2.84 6.5 4.5 6.5C4.5 4.57 6.07 3 8 3ZM8 9.75C7.59 9.75 7.25 10.09 7.25 10.5C7.25 10.91 7.59 11.25 8 11.25C8.41 11.25 8.75 10.91 8.75 10.5C8.75 10.09 8.41 9.75 8 9.75ZM8.00977 4.99023C7.11988 4.99037 6.38965 5.72043 6.38965 6.61035C6.38983 6.89006 6.60994 7.11016 6.88965 7.11035C7.16953 7.11035 7.38946 6.89018 7.38965 6.61035C7.38965 6.27043 7.66988 5.99037 8.00977 5.99023C8.34977 5.99023 8.62988 6.27012 8.62988 6.62012C8.62981 6.81008 8.46972 6.99986 8.25977 7.08984L8.08008 7.16992C7.73008 7.31992 7.50977 7.65027 7.50977 8.03027V8.30957C7.50977 8.58949 7.72988 8.80944 8.00977 8.80957C8.28977 8.80957 8.50977 8.58957 8.50977 8.30957L8.45996 8.09961L8.63965 8.01953L8.65039 8.00977C9.24004 7.75974 9.62973 7.22006 9.62988 6.61035C9.62988 5.72035 8.89977 4.99023 8.00977 4.99023Z" fill="currentColor"/>
</svg>
