<svg width="16" height="16" viewBox="0 0 16 16" fill="none" xmlns="http://www.w3.org/2000/svg">
<path fill-rule="evenodd" clip-rule="evenodd" d="M13 11C13.55 11 14 11.45 14 12V13C14 13.55 13.55 14 13 14H3C2.45 14 2 13.55 2 13V12C2 11.45 2.45 11 3 11H13ZM12 12C11.72 12 11.5 12.22 11.5 12.5C11.5 12.78 11.72 13 12 13C12.28 13 12.5 12.78 12.5 12.5C12.5 12.22 12.28 12 12 12Z" fill="currentColor"/>
<path fill-rule="evenodd" clip-rule="evenodd" d="M11.1904 2C11.6603 2.0002 12.07 2.33018 12.1699 2.79004H12.1504L13.7002 10.1299C13.4803 10.0399 13.2401 9.99027 12.9902 9.99023H2.99023C2.74033 9.99023 2.50021 10.0399 2.28027 10.1299L3.83008 2.79004C3.93005 2.33018 4.33975 2.0002 4.80957 2H11.1904ZM7.37012 3.66016C7.17012 3.46016 6.86016 3.46017 6.66016 3.66016L5.66016 4.66016C5.61016 4.70016 5.5798 4.76031 5.5498 4.82031C5.49994 4.94024 5.49985 5.08031 5.5498 5.2002C5.57984 5.2602 5.66016 5.36035 5.66016 5.36035L6.66016 6.36035C6.7501 6.46009 6.88993 6.5097 7.00977 6.50977C7.12977 6.50977 7.26035 6.46035 7.36035 6.36035C7.56022 6.16048 7.55997 5.8504 7.36035 5.65039L7.20996 5.5H8.5C9.05 5.5 9.5 5.95 9.5 6.5C9.5 7.05 9.05 7.5 8.5 7.5H6C5.72 7.5 5.5 7.72 5.5 8C5.5 8.28 5.72 8.5 6 8.5H8.5L8.50977 8.51953C9.60977 8.51953 10.5098 7.61953 10.5098 6.51953C10.5095 5.41974 9.60961 4.51953 8.50977 4.51953H7.21973L7.37012 4.37012C7.57007 4.17016 7.56998 3.86016 7.37012 3.66016Z" fill="currentColor"/>
</svg>
