<svg width="16" height="16" viewBox="0 0 16 16" fill="none" xmlns="http://www.w3.org/2000/svg">
<path d="M11.5 6.5C11.5 4.57 9.93 3 8 3C6.07 3 4.5 4.57 4.5 6.5C2.84 6.5 1.5 7.84 1.5 9.5C1.5 11.16 2.84 12.5 4.5 12.5H11.5C13.16 12.5 14.5 11.16 14.5 9.5C14.5 7.84 13.16 6.5 11.5 6.5ZM8.5 10.5H6C5.72 10.5 5.5 10.28 5.5 10C5.5 9.72 5.72 9.5 6 9.5H8.5C9.05 9.5 9.5 9.05 9.5 8.5C9.5 7.95 9.05 7.5 8.5 7.5H7.21L7.36 7.65C7.56 7.85 7.56 8.16 7.36 8.36C7.26 8.46 7.13 8.51 7.01 8.51C6.89 8.51 6.75 8.46 6.66 8.36L5.66 7.36C5.66 7.36 5.58 7.26 5.55 7.2C5.5 7.08 5.5 6.94 5.55 6.82C5.58 6.76 5.61 6.7 5.66 6.66L6.66 5.66C6.86 5.46 7.17 5.46 7.37 5.66C7.57 5.86 7.57 6.17 7.37 6.37L7.22 6.52H8.51C9.61 6.52 10.51 7.42 10.51 8.52C10.51 9.62 9.61 10.52 8.51 10.52L8.5 10.5Z" fill="black"/>
</svg>
