<svg width="16" height="16" viewBox="0 0 16 16" fill="none" xmlns="http://www.w3.org/2000/svg">
<path fill-rule="evenodd" clip-rule="evenodd" d="M8 3C9.93 3 11.5 4.57 11.5 6.5C13.16 6.5 14.5 7.84 14.5 9.5C14.5 11.16 13.16 12.5 11.5 12.5H4.5C2.84 12.5 1.5 11.16 1.5 9.5C1.5 7.84 2.84 6.5 4.5 6.5C4.5 4.57 6.07 3 8 3ZM8 5.99023C7.88015 5.99023 7.75034 6.0399 7.65039 6.13965L6.15039 7.63965C5.95039 7.83965 5.95039 8.14961 6.15039 8.34961C6.25039 8.44961 6.37 8.5 6.5 8.5H7.25V10C7.25 10.28 7.47 10.5 7.75 10.5H8.25C8.53 10.5 8.75 10.28 8.75 10V8.5H9.5C9.63 8.5 9.74961 8.44961 9.84961 8.34961C10.0496 8.14961 10.0496 7.83965 9.84961 7.63965L8.34961 6.13965C8.2596 6.03991 8.11984 5.99023 8 5.99023Z" fill="currentColor"/>
</svg>
