<svg width="16" height="16" viewBox="0 0 16 16" fill="none" xmlns="http://www.w3.org/2000/svg">
<path fill-rule="evenodd" clip-rule="evenodd" d="M9.37988 2C9.77988 2 10.1604 2.16043 10.4404 2.44043L12.5596 4.55957C12.8396 4.83957 13 5.22012 13 5.62012V13C13 13.55 12.55 14 12 14H4C3.45 14 3 13.55 3 13V3C3 2.45 3.45 2 4 2H9.37988ZM6.99023 7.5C5.89023 7.5 4.99023 8.4 4.99023 9.5C4.99023 10.6 5.89023 11.5 6.99023 11.5H9.58984C10.3797 11.5 11.0203 10.8602 11.0205 10.0703C11.0205 9.28031 10.3798 8.63965 9.58984 8.63965C9.32997 8.63968 9.08004 8.70994 8.87012 8.83984L7.73047 9.70996C7.62053 9.78992 7.48031 9.80945 7.36035 9.76953C7.06037 9.66954 7.00004 9.27009 7.25 9.08008L8.45996 8.16016C8.09001 7.76021 7.58013 7.50007 6.99023 7.5ZM9.5 3C9.22 3 9 3.22 9 3.5V5C9 5.55 9.45 6 10 6H11.5C11.78 6 12 5.78 12 5.5C12 5.22 11.78 5 11.5 5H10V3.5C10 3.22 9.78 3 9.5 3Z" fill="currentColor"/>
</svg>
