<svg width="16" height="16" viewBox="0 0 16 16" fill="none" xmlns="http://www.w3.org/2000/svg">
<path fill-rule="evenodd" clip-rule="evenodd" d="M9.37988 2C9.77988 2 10.1604 2.16043 10.4404 2.44043L12.5596 4.55957C12.8396 4.83957 13 5.22012 13 5.62012V13C13 13.55 12.55 14 12 14H4C3.45 14 3 13.55 3 13V3C3 2.45 3.45 2 4 2H9.37988ZM5.75 10C5.2 10 4.75 10.45 4.75 11V11.5C4.75 11.78 4.97 12 5.25 12H8.75C9.03 12 9.25 11.78 9.25 11.5V11C9.25 10.45 8.8 10 8.25 10H5.75ZM9.98047 10C10.1504 10.29 10.25 10.6401 10.25 11V11.5C10.25 11.68 10.2201 11.84 10.1602 12H11.25C11.53 12 11.75 11.78 11.75 11.5V11C11.75 10.45 11.3 10 10.75 10H9.98047ZM7 7C6.31 7 5.75 7.56 5.75 8.25C5.75 8.94 6.31 9.5 7 9.5C7.69 9.5 8.25 8.94 8.25 8.25C8.25 7.56 7.69 7 7 7ZM9.5 7.25C9.34 7.25 9.18957 7.29035 9.05957 7.36035C9.17953 7.63031 9.25 7.93006 9.25 8.25C9.25 8.56994 9.17953 8.86969 9.05957 9.13965C9.18957 9.20965 9.34 9.25 9.5 9.25C10.05 9.25 10.5 8.8 10.5 8.25C10.5 7.7 10.05 7.25 9.5 7.25ZM9.5 3C9.22 3 9 3.22 9 3.5V5C9 5.55 9.45 6 10 6H11.5C11.78 6 12 5.78 12 5.5C12 5.22 11.78 5 11.5 5H10V3.5C10 3.22 9.78 3 9.5 3Z" fill="black"/>
</svg>
