<svg width="16" height="16" viewBox="0 0 16 16" fill="none" xmlns="http://www.w3.org/2000/svg">
<path fill-rule="evenodd" clip-rule="evenodd" d="M6.48047 3C6.81031 3.00012 7.13023 3.13023 7.37012 3.37012L8 4H13C13.55 4 14 4.45 14 5V12C14 12.22 13.9303 12.4201 13.8203 12.5801C13.6303 12.8301 13.33 13 13 13H3C2.45 13 2 12.55 2 12V4C2 3.45 2.45 3 3 3H6.48047ZM4.34961 10.6504C4.20961 10.5004 3.98957 10.46 3.80957 10.54C3.7497 10.5601 3.6903 10.6005 3.65039 10.6504C3.55039 10.7404 3.5 10.87 3.5 11C3.5 11.13 3.55039 11.2596 3.65039 11.3496C3.6903 11.3995 3.7497 11.4399 3.80957 11.46C3.86957 11.5 3.94 11.5 4 11.5C4.13 11.5 4.25961 11.4496 4.34961 11.3496C4.44961 11.2596 4.5 11.13 4.5 11C4.5 10.87 4.44961 10.7404 4.34961 10.6504ZM4 8.5C3.72 8.5 3.5 8.72 3.5 9C3.5 9.28 3.72 9.5 4 9.5C4.83 9.5 5.5 10.17 5.5 11C5.5 11.28 5.72 11.5 6 11.5C6.28 11.5 6.5 11.28 6.5 11C6.5 9.62 5.38 8.5 4 8.5ZM4 6.5C3.72 6.5 3.5 6.72 3.5 7C3.5 7.28 3.72 7.5 4 7.5C5.93 7.5 7.5 9.07 7.5 11C7.5 11.28 7.72 11.5 8 11.5C8.28 11.5 8.5 11.28 8.5 11C8.5 8.52 6.48 6.5 4 6.5ZM8.99023 5L9.7002 5.70996C9.89019 5.88992 10.1402 6 10.4102 6H12.4902C12.7701 5.99987 12.9902 5.77992 12.9902 5.5C12.9902 5.22008 12.7701 5.00013 12.4902 5H8.99023Z" fill="currentColor"/>
</svg>
