<svg width="16" height="16" viewBox="0 0 16 16" fill="none" xmlns="http://www.w3.org/2000/svg">
<path fill-rule="evenodd" clip-rule="evenodd" d="M9.37988 2C9.77988 2 10.1604 2.16043 10.4404 2.44043L12.5596 4.55957C12.8396 4.83957 13 5.22012 13 5.62012V13C13 13.55 12.55 14 12 14H4C3.45 14 3 13.55 3 13V3C3 2.45 3.45 2 4 2H9.37988ZM10.3701 8.13965C10.1702 7.93985 9.86013 7.93994 9.66016 8.13965L7.50977 10.29L6.36035 9.13965C6.16048 8.93977 5.8504 8.94002 5.65039 9.13965C5.45039 9.33965 5.45039 9.64961 5.65039 9.84961L7.15039 11.3496C7.24039 11.4496 7.38 11.5 7.5 11.5C7.62 11.5 7.74961 11.4496 7.84961 11.3496L10.3496 8.84961H10.3701C10.5699 8.6496 10.57 8.33956 10.3701 8.13965ZM9.5 3C9.22 3 9 3.22 9 3.5V5C9 5.55 9.45 6 10 6H11.5C11.78 6 12 5.78 12 5.5C12 5.22 11.78 5 11.5 5H10V3.5C10 3.22 9.78 3 9.5 3Z" fill="black"/>
</svg>
