<svg width="16" height="16" viewBox="0 0 16 16" fill="none" xmlns="http://www.w3.org/2000/svg">
<path fill-rule="evenodd" clip-rule="evenodd" d="M9.37988 2C9.77988 2 10.1604 2.16043 10.4404 2.44043L12.5596 4.55957C12.8396 4.83957 13 5.22012 13 5.62012V13C13 13.55 12.55 14 12 14H4C3.45 14 3 13.55 3 13V3C3 2.45 3.45 2 4 2H9.37988ZM8 11C7.59 11 7.25 11.34 7.25 11.75C7.25 12.16 7.59 12.5 8 12.5C8.41 12.5 8.75 12.16 8.75 11.75C8.75 11.34 8.41 11 8 11ZM8.00977 6.49023C7.11988 6.49037 6.38965 7.22043 6.38965 8.11035C6.38983 8.39006 6.60994 8.61016 6.88965 8.61035C7.16953 8.61035 7.38946 8.39018 7.38965 8.11035C7.38965 7.77043 7.66988 7.49037 8.00977 7.49023C8.34977 7.49023 8.62988 7.77012 8.62988 8.12012C8.62981 8.31008 8.46972 8.49986 8.25977 8.58984L8.08008 8.66992C7.73008 8.81992 7.50977 9.15027 7.50977 9.53027V9.80957C7.50977 10.0895 7.72988 10.3094 8.00977 10.3096C8.28977 10.3096 8.50977 10.0896 8.50977 9.80957L8.45996 9.59961L8.63965 9.51953L8.65039 9.50977C9.24004 9.25974 9.62973 8.72006 9.62988 8.11035C9.62988 7.22035 8.89977 6.49023 8.00977 6.49023ZM9.5 3C9.22 3 9 3.22 9 3.5V5C9 5.55 9.45 6 10 6H11.5C11.78 6 12 5.78 12 5.5C12 5.22 11.78 5 11.5 5H10V3.5C10 3.22 9.78 3 9.5 3Z" fill="currentColor"/>
</svg>
