<svg width="16" height="16" viewBox="0 0 16 16" fill="none" xmlns="http://www.w3.org/2000/svg">
<path fill-rule="evenodd" clip-rule="evenodd" d="M13 11C13.55 11 14 11.45 14 12V13C14 13.55 13.55 14 13 14H3C2.45 14 2 13.55 2 13V12C2 11.45 2.45 11 3 11H13ZM12 12C11.72 12 11.5 12.22 11.5 12.5C11.5 12.78 11.72 13 12 13C12.28 13 12.5 12.78 12.5 12.5C12.5 12.22 12.28 12 12 12Z" fill="black"/>
<path fill-rule="evenodd" clip-rule="evenodd" d="M11.1904 2C11.6603 2.0002 12.07 2.33018 12.1699 2.79004H12.1504L13.7002 10.1299C13.4803 10.0399 13.2401 9.99027 12.9902 9.99023H2.99023C2.74034 9.99023 2.5002 10.04 2.28027 10.1299L3.83008 2.79004C3.93005 2.33018 4.33975 2.0002 4.80957 2H11.1904ZM8 7.5C7.59 7.5 7.25 7.84 7.25 8.25C7.25 8.66 7.59 9 8 9C8.41 9 8.75 8.66 8.75 8.25C8.75 7.84 8.41 7.5 8 7.5ZM8.00977 3C7.61455 3.00557 7.30033 3.33388 7.33008 3.73047L7.48047 6C7.50048 6.2799 7.72989 6.49987 8.00977 6.5C8.28977 6.5 8.52004 6.28 8.54004 6L8.69043 3.73047C8.71027 3.34365 8.40503 3.00548 8.00977 3Z" fill="black"/>
</svg>
