<svg width="16" height="16" viewBox="0 0 16 16" fill="none" xmlns="http://www.w3.org/2000/svg">
<path fill-rule="evenodd" clip-rule="evenodd" d="M6.48047 3C6.8103 3.00013 7.13024 3.13024 7.37012 3.37012L8 4H13C13.55 4 14 4.45 14 5V12C14 12.22 13.9303 12.4201 13.8203 12.5801C13.6303 12.8301 13.33 13 13 13H3C2.45 13 2 12.55 2 12V4C2 3.45 2.45 3 3 3H6.48047ZM6 6C5.72 6 5.5 6.22 5.5 6.5V8H4C3.72 8 3.5 8.22 3.5 8.5C3.5 8.78 3.72 9 4 9H5.5V10.5C5.5 10.78 5.72 11 6 11C6.28 11 6.5 10.78 6.5 10.5V9H8C8.28 9 8.5 8.78 8.5 8.5C8.5 8.22 8.28 8 8 8H6.5V6.5C6.5 6.22 6.28 6 6 6ZM8.99023 5L9.7002 5.70996C9.89019 5.88992 10.1402 6 10.4102 6H12.4902C12.7701 5.99987 12.9902 5.77992 12.9902 5.5C12.9902 5.22008 12.7701 5.00013 12.4902 5H8.99023Z" fill="currentColor"/>
</svg>
