<svg width="16" height="16" viewBox="0 0 16 16" fill="none" xmlns="http://www.w3.org/2000/svg">
<path d="M6 7C6.28 7 6.5 7.22 6.5 7.5V8H5.5V7.5C5.5 7.22 5.72 7 6 7Z" fill="currentColor"/>
<path fill-rule="evenodd" clip-rule="evenodd" d="M6.48047 3C6.81031 3.00012 7.13023 3.13023 7.37012 3.37012L8 4H13C13.55 4 14 4.45 14 5V12C14 12.22 13.9303 12.4201 13.8203 12.5801C13.6303 12.8301 13.33 13 13 13H3C2.45 13 2 12.55 2 12V4C2 3.45 2.45 3 3 3H6.48047ZM6 6C5.17 6 4.5 6.67 4.5 7.5V8H4.25C3.97 8 3.75 8.22 3.75 8.5V10.5C3.75 10.78 3.97 11 4.25 11H7.75C8.03 11 8.25 10.78 8.25 10.5V8.5C8.25 8.22 8.03 8 7.75 8H7.5V7.5C7.5 6.67 6.83 6 6 6ZM8.99023 5L9.7002 5.70996C9.89019 5.88992 10.1402 6 10.4102 6H12.4902C12.7701 5.99987 12.9902 5.77992 12.9902 5.5C12.9902 5.22008 12.7701 5.00013 12.4902 5H8.99023Z" fill="currentColor"/>
</svg>
