<svg width="16" height="16" viewBox="0 0 16 16" fill="none" xmlns="http://www.w3.org/2000/svg">
<path d="M8 6.5C8.28 6.5 8.5 6.72 8.5 7V7.5H7.5V7C7.5 6.72 7.72 6.5 8 6.5Z" fill="black"/>
<path fill-rule="evenodd" clip-rule="evenodd" d="M8 3C9.93 3 11.5 4.57 11.5 6.5C13.16 6.5 14.5 7.84 14.5 9.5C14.5 11.16 13.16 12.5 11.5 12.5H4.5C2.84 12.5 1.5 11.16 1.5 9.5C1.5 7.84 2.84 6.5 4.5 6.5C4.5 4.57 6.07 3 8 3ZM8 5.5C7.17 5.5 6.5 6.17 6.5 7V7.5H6.25C5.97 7.5 5.75 7.72 5.75 8V10C5.75 10.28 5.97 10.5 6.25 10.5H9.75C10.03 10.5 10.25 10.28 10.25 10V8C10.25 7.72 10.03 7.5 9.75 7.5H9.5V7C9.5 6.17 8.83 5.5 8 5.5Z" fill="black"/>
</svg>
