<svg width="16" height="16" viewBox="0 0 16 16" fill="none" xmlns="http://www.w3.org/2000/svg">
<path fill-rule="evenodd" clip-rule="evenodd" d="M12 2.5C12.55 2.5 13 2.95 13 3.5V4.5C13 5.05 12.55 5.5 12 5.5H8.5V6.5H12C12.55 6.5 13 6.95 13 7.5V8.5C13 9.05 12.55 9.5 12 9.5H8.5V11.3545C8.7881 11.4804 9.01851 11.7119 9.14453 12H12.5C12.7761 12 13 12.2239 13 12.5C13 12.7761 12.7761 13 12.5 13H9.14453C8.95152 13.4412 8.51237 13.75 8 13.75C7.48763 13.75 7.04848 13.4412 6.85547 13H3.5C3.22386 13 3 12.7761 3 12.5C3 12.2239 3.22386 12 3.5 12H6.85547C6.98149 11.7119 7.2119 11.4804 7.5 11.3545V9.5H4C3.45 9.5 3 9.05 3 8.5V7.5C3 6.95 3.45 6.5 4 6.5H7.5V5.5H4C3.45 5.5 3 5.05 3 4.5V3.5C3 2.95 3.45 2.5 4 2.5H12ZM11 7.5C10.72 7.5 10.5 7.72 10.5 8C10.5 8.28 10.72 8.5 11 8.5C11.28 8.5 11.5 8.28 11.5 8C11.5 7.72 11.28 7.5 11 7.5ZM11 3.5C10.72 3.5 10.5 3.72 10.5 4C10.5 4.28 10.72 4.5 11 4.5C11.28 4.5 11.5 4.28 11.5 4C11.5 3.72 11.28 3.5 11 3.5Z" fill="currentColor"/>
</svg>
