<svg width="16" height="16" viewBox="0 0 16 16" fill="none" xmlns="http://www.w3.org/2000/svg">
<path fill-rule="evenodd" clip-rule="evenodd" d="M9.37988 2C9.77988 2 10.1604 2.16043 10.4404 2.44043L12.5596 4.55957C12.8396 4.83957 13 5.22012 13 5.62012V7.51953C13 7.81946 12.86 8.1098 12.6201 8.2998L10.7998 9.75977H10.79C10.61 9.88977 10.3597 9.89977 10.1797 9.75977L8.87012 8.78027C8.66012 8.62028 8.36043 8.66036 8.19043 8.86035L6.94043 10.3604C6.76053 10.5702 7.01987 10.8699 7.25977 10.7305L8.20996 10.1602C8.38993 10.0602 8.60954 10.0705 8.76953 10.1904L10.1904 11.2598C10.3704 11.4096 10.6199 11.3997 10.7998 11.2598L12.1904 10.1504C12.5204 9.89048 13 10.1201 13 10.54V13C13 13.55 12.55 14 12 14H4C3.45 14 3 13.55 3 13V3C3 2.45 3.45 2 4 2H9.37988ZM9.5 3C9.22 3 9 3.22 9 3.5V5C9 5.55 9.45 6 10 6H11.5C11.78 6 12 5.78 12 5.5C12 5.22 11.78 5 11.5 5H10V3.5C10 3.22 9.78 3 9.5 3Z" fill="black"/>
</svg>
