<svg width="16" height="16" viewBox="0 0 16 16" fill="none" xmlns="http://www.w3.org/2000/svg">
<path fill-rule="evenodd" clip-rule="evenodd" d="M8 3C9.93 3 11.5 4.57 11.5 6.5C13.16 6.5 14.5 7.84 14.5 9.5C14.5 11.16 13.16 12.5 11.5 12.5H4.5C2.84 12.5 1.5 11.16 1.5 9.5C1.5 7.84 2.84 6.5 4.5 6.5C4.5 4.57 6.07 3 8 3ZM7.75 6.20996C7.47001 6.20996 7.25002 6.42998 7.25 6.70996V8.20996H6.5C6.37001 8.20996 6.25039 8.26037 6.15039 8.36035C5.95039 8.56035 5.95039 8.87031 6.15039 9.07031L7.65039 10.5703C7.7404 10.6701 7.88015 10.7197 8 10.7197C8.11986 10.7197 8.24966 10.6701 8.34961 10.5703L9.84961 9.07031C10.0496 8.87031 10.0496 8.56035 9.84961 8.36035C9.74961 8.26037 9.62999 8.20996 9.5 8.20996H8.75V6.70996C8.74998 6.42998 8.52999 6.20996 8.25 6.20996H7.75Z" fill="currentColor"/>
</svg>
