<svg width="16" height="16" viewBox="0 0 16 16" fill="none" xmlns="http://www.w3.org/2000/svg">
<path fill-rule="evenodd" clip-rule="evenodd" d="M8 3C9.93 3 11.5 4.57 11.5 6.5C13.16 6.5 14.5 7.84 14.5 9.5C14.5 11.16 13.16 12.5 11.5 12.5H4.5C2.84 12.5 1.5 11.16 1.5 9.5C1.5 7.84 2.84 6.5 4.5 6.5C4.5 4.57 6.07 3 8 3ZM10.3701 7.13965C10.1702 6.93985 9.86013 6.93994 9.66016 7.13965L7.50977 9.29004L6.36035 8.13965C6.16048 7.93977 5.8504 7.94002 5.65039 8.13965C5.45039 8.33965 5.45039 8.64961 5.65039 8.84961L7.15039 10.3496C7.24039 10.4496 7.38 10.5 7.5 10.5C7.62 10.5 7.74961 10.4496 7.84961 10.3496L10.3496 7.84961H10.3701C10.5699 7.6496 10.57 7.33956 10.3701 7.13965Z" fill="black"/>
</svg>
