<svg width="16" height="16" viewBox="0 0 16 16" fill="none" xmlns="http://www.w3.org/2000/svg">
<path fill-rule="evenodd" clip-rule="evenodd" d="M6.48047 3C6.81031 3.00012 7.13023 3.13023 7.37012 3.37012L8 4H13C13.55 4 14 4.45 14 5V12C14 12.22 13.9303 12.4201 13.8203 12.5801C13.6303 12.8301 13.33 13 13 13H3C2.45 13 2 12.55 2 12V4C2 3.45 2.45 3 3 3H6.48047ZM5.5 9.5C5.09 9.5 4.75 9.84 4.75 10.25C4.75 10.66 5.09 11 5.5 11C5.91 11 6.25 10.66 6.25 10.25C6.25 9.84 5.91 9.5 5.5 9.5ZM5.50977 5C5.11455 5.00557 4.80033 5.33388 4.83008 5.73047L4.98047 8C5.00048 8.2799 5.22989 8.49987 5.50977 8.5C5.78977 8.5 6.02004 8.28 6.04004 8L6.19043 5.73047C6.21027 5.34365 5.90503 5.00548 5.50977 5ZM8.99023 5L9.7002 5.70996C9.89019 5.88992 10.1402 6 10.4102 6H12.4902C12.7701 5.99987 12.9902 5.77992 12.9902 5.5C12.9902 5.22008 12.7701 5.00013 12.4902 5H8.99023Z" fill="black"/>
</svg>
