<svg width="16" height="16" viewBox="0 0 16 16" fill="none" xmlns="http://www.w3.org/2000/svg">
<path fill-rule="evenodd" clip-rule="evenodd" d="M9.37988 2C9.77988 2 10.1604 2.16043 10.4404 2.44043L12.5596 4.55957C12.8396 4.83957 13 5.22012 13 5.62012V13C13 13.55 12.55 14 12 14H4C3.45 14 3 13.55 3 13V3C3 2.45 3.45 2 4 2H9.37988ZM8 11C7.59 11 7.25 11.34 7.25 11.75C7.25 12.16 7.59 12.5 8 12.5C8.41 12.5 8.75 12.16 8.75 11.75C8.75 11.34 8.41 11 8 11ZM8.00977 6.5C7.61455 6.50557 7.30033 6.83388 7.33008 7.23047L7.48047 9.5C7.50048 9.7799 7.72989 9.99987 8.00977 10C8.28977 10 8.52004 9.78 8.54004 9.5L8.69043 7.23047C8.71027 6.84365 8.40503 6.50548 8.00977 6.5ZM9.5 3C9.22 3 9 3.22 9 3.5V5C9 5.55 9.45 6 10 6H11.5C11.78 6 12 5.78 12 5.5C12 5.22 11.78 5 11.5 5H10V3.5C10 3.22 9.78 3 9.5 3Z" fill="currentColor"/>
</svg>
