<svg width="16" height="16" viewBox="0 0 16 16" fill="none" xmlns="http://www.w3.org/2000/svg">
<path fill-rule="evenodd" clip-rule="evenodd" d="M6.49023 3C6.82015 3.00007 7.14017 3.14017 7.37012 3.37012L9 5H13.0098C13.5598 5 14.0098 5.45 14.0098 6V12C14.0098 12.55 13.5598 13 13.0098 13H3.00977C2.45988 12.9999 2.00977 12.5499 2.00977 12V4C2.00977 3.45008 2.45988 3.00013 3.00977 3H6.49023ZM5.99023 7C4.89023 7 3.99023 7.9 3.99023 9C3.99023 10.1 4.89023 11 5.99023 11H8.58984C9.37974 11 10.0194 10.3602 10.0195 9.57031C10.0195 8.78031 9.37984 8.13965 8.58984 8.13965C8.32996 8.13968 8.08004 8.20993 7.87012 8.33984L6.73047 9.20996C6.62053 9.28992 6.48031 9.30945 6.36035 9.26953C6.06037 9.16954 6.00004 8.77009 6.25 8.58008L7.45996 7.66016C7.09001 7.26021 6.58013 7.00007 5.99023 7Z" fill="black"/>
</svg>
