<svg width="16" height="16" viewBox="0 0 16 16" fill="none" xmlns="http://www.w3.org/2000/svg">
<path fill-rule="evenodd" clip-rule="evenodd" d="M6.48047 3C6.81031 3.00012 7.13023 3.13023 7.37012 3.37012L8 4H13C13.55 4 14 4.45 14 5V12C14 12.22 13.9303 12.4201 13.8203 12.5801C13.6303 12.8301 13.33 13 13 13H3C2.45 13 2 12.55 2 12V4C2 3.45 2.45 3 3 3H6.48047ZM5.5 9.87012C5.09 9.87012 4.75 10.2101 4.75 10.6201C4.75007 11.0301 5.09004 11.3701 5.5 11.3701C5.90996 11.3701 6.24993 11.0301 6.25 10.6201C6.25 10.2101 5.91 9.87012 5.5 9.87012ZM5.50977 5.12012C4.61988 5.12025 3.88965 5.85032 3.88965 6.74023C3.88977 7.02 4.1099 7.24004 4.38965 7.24023C4.66957 7.24023 4.88953 7.02013 4.88965 6.74023C4.88965 6.40032 5.16988 6.12025 5.50977 6.12012C5.84977 6.12012 6.12988 6.4 6.12988 6.75C6.12988 6.94 5.96977 7.12973 5.75977 7.21973L5.58008 7.2998C5.23008 7.4498 5.00977 7.78016 5.00977 8.16016V8.44043C5.00999 8.72014 5.23002 8.9403 5.50977 8.94043C5.78962 8.94043 6.00954 8.72023 6.00977 8.44043L5.95996 8.23047L6.13965 8.15039L6.15039 8.13965C6.74006 7.88959 7.12979 7.34998 7.12988 6.74023C7.12988 5.85023 6.39977 5.12012 5.50977 5.12012ZM8.99023 5L9.7002 5.70996C9.89019 5.88992 10.1402 6 10.4102 6H12.4902C12.7701 5.99987 12.9902 5.77992 12.9902 5.5C12.9902 5.22008 12.7701 5.00013 12.4902 5H8.99023Z" fill="black"/>
</svg>
