<svg width="16" height="16" viewBox="0 0 16 16" fill="none" xmlns="http://www.w3.org/2000/svg">
<path fill-rule="evenodd" clip-rule="evenodd" d="M13 11C13.55 11 14 11.45 14 12V13C14 13.55 13.55 14 13 14H3C2.45 14 2 13.55 2 13V12C2 11.45 2.45 11 3 11H13ZM12 12C11.72 12 11.5 12.22 11.5 12.5C11.5 12.78 11.72 13 12 13C12.28 13 12.5 12.78 12.5 12.5C12.5 12.22 12.28 12 12 12Z" fill="currentColor"/>
<path d="M11.1797 2.00977C11.6496 2.00977 12.0601 2.33989 12.1602 2.7998L13.71 10.1396C13.49 10.0497 13.2499 10 13 10H2.98047C2.73047 10 2.48953 10.0496 2.26953 10.1396L3.82031 2.7998C3.9204 2.34 4.32997 2.00985 4.7998 2.00977H11.1797Z" fill="currentColor"/>
</svg>
