<svg width="16" height="16" viewBox="0 0 16 16" fill="none" xmlns="http://www.w3.org/2000/svg">
<path d="M7.34961 7.86035C7.43957 8.05032 7.5 8.27006 7.5 8.5C7.49999 9.32999 6.82999 10 6 10C5.77006 10 5.5603 9.93957 5.36035 9.84961L7.34961 7.86035Z" fill="currentColor"/>
<path d="M6 7C6.22994 7 6.4397 7.06043 6.63965 7.15039L4.65039 9.13965C4.56043 8.94968 4.5 8.72994 4.5 8.5C4.5 7.67 5.17 7 6 7Z" fill="currentColor"/>
<path fill-rule="evenodd" clip-rule="evenodd" d="M6.48047 3C6.8103 3.00013 7.13024 3.13024 7.37012 3.37012L8 4H13C13.55 4 14 4.45 14 5V12C14 12.22 13.9303 12.4201 13.8203 12.5801C13.6303 12.8301 13.33 13 13 13H3C2.45 13 2 12.55 2 12V4C2 3.45 2.45 3 3 3H6.48047ZM6.00977 6.00977C4.62995 6.0099 3.50989 7.12995 3.50977 8.50977C3.50977 9.19971 3.7903 9.81954 4.24023 10.2695C4.69023 10.7195 5.31 11 6 11C7.38 11 8.5 9.88 8.5 8.5C8.5 7.81018 8.2203 7.19021 7.77051 6.74023C7.32051 6.29023 6.69977 6.00977 6.00977 6.00977ZM8.99023 5L9.7002 5.70996C9.89019 5.88992 10.1402 6 10.4102 6H12.4902C12.7701 5.99987 12.9902 5.77992 12.9902 5.5C12.9902 5.22008 12.7701 5.00013 12.4902 5H8.99023Z" fill="currentColor"/>
</svg>
