<svg width="16" height="16" viewBox="0 0 16 16" fill="none" xmlns="http://www.w3.org/2000/svg">
<path fill-rule="evenodd" clip-rule="evenodd" d="M8 3C9.93 3 11.5 4.57 11.5 6.5C13.16 6.5 14.5 7.84 14.5 9.5C14.5 11.16 13.16 12.5 11.5 12.5H4.5C2.84 12.5 1.5 11.16 1.5 9.5C1.5 7.84 2.84 6.5 4.5 6.5C4.5 4.57 6.07 3 8 3ZM8 9.75C7.59 9.75 7.25 10.09 7.25 10.5C7.25 10.91 7.59 11.25 8 11.25C8.41 11.25 8.75 10.91 8.75 10.5C8.75 10.09 8.41 9.75 8 9.75ZM8.00977 5.25C7.61455 5.25557 7.30033 5.58388 7.33008 5.98047L7.48047 8.25C7.50048 8.5299 7.72989 8.74987 8.00977 8.75C8.28977 8.75 8.52004 8.53 8.54004 8.25L8.69043 5.98047C8.71027 5.59365 8.40503 5.25548 8.00977 5.25Z" fill="black"/>
</svg>
