<svg width="16" height="16" viewBox="0 0 16 16" fill="none" xmlns="http://www.w3.org/2000/svg">
<path d="M7.34961 7.86035C7.43957 8.05032 7.5 8.27006 7.5 8.5C7.49999 9.32999 6.82999 10 6 10C5.77006 10 5.5603 9.93957 5.36035 9.84961L7.34961 7.86035Z" fill="black"/>
<path d="M6 7C6.22994 7 6.4397 7.06043 6.63965 7.15039L4.65039 9.13965C4.56043 8.94968 4.5 8.72994 4.5 8.5C4.5 7.67 5.17 7 6 7Z" fill="black"/>
<path fill-rule="evenodd" clip-rule="evenodd" d="M6.49023 3C6.82015 3.00007 7.14017 3.14017 7.37012 3.37012L9 5H13.0098C13.5598 5 14.0098 5.45 14.0098 6V12C14.0098 12.55 13.5598 13 13.0098 13H3.00977C2.45988 12.9999 2.00977 12.5499 2.00977 12V4C2.00977 3.45008 2.45988 3.00013 3.00977 3H6.49023ZM6.00977 6.00977C4.62996 6.0099 3.50989 7.12996 3.50977 8.50977C3.50977 9.19971 3.7903 9.81954 4.24023 10.2695C4.69023 10.7195 5.31 11 6 11C7.38 11 8.5 9.88 8.5 8.5C8.5 7.81019 8.2203 7.1902 7.77051 6.74023C7.32051 6.29023 6.69977 6.00977 6.00977 6.00977Z" fill="black"/>
</svg>
