<svg width="16" height="16" viewBox="0 0 16 16" fill="none" xmlns="http://www.w3.org/2000/svg">
<path d="M9.34961 8.86035C9.43957 9.05032 9.5 9.27006 9.5 9.5C9.49999 10.33 8.82999 11 8 11C7.77006 11 7.5603 10.9396 7.36035 10.8496L9.34961 8.86035Z" fill="currentColor"/>
<path d="M8 8C8.22994 8 8.4397 8.06043 8.63965 8.15039L6.65039 10.1396C6.56043 9.94968 6.5 9.72995 6.5 9.5C6.5 8.67 7.17 8 8 8Z" fill="currentColor"/>
<path fill-rule="evenodd" clip-rule="evenodd" d="M9.37988 2C9.77988 2 10.1604 2.16043 10.4404 2.44043L12.5596 4.55957C12.8396 4.83957 13 5.22012 13 5.62012V13C13 13.55 12.55 14 12 14H4C3.45 14 3 13.55 3 13V3C3 2.45 3.45 2 4 2H9.37988ZM8.00977 7.00977C6.62995 7.0099 5.50989 8.12995 5.50977 9.50977C5.50977 10.1997 5.7903 10.8195 6.24023 11.2695C6.69023 11.7195 7.31 12 8 12C9.38 12 10.5 10.88 10.5 9.5C10.5 8.81 10.2195 8.19023 9.76953 7.74023C9.31954 7.2903 8.69971 7.00977 8.00977 7.00977ZM9.5 3C9.22 3 9 3.22 9 3.5V5C9 5.55 9.45 6 10 6H11.5C11.78 6 12 5.78 12 5.5C12 5.22 11.78 5 11.5 5H10V3.5C10 3.22 9.78 3 9.5 3Z" fill="currentColor"/>
</svg>
