<svg width="16" height="16" viewBox="0 0 16 16" fill="none" xmlns="http://www.w3.org/2000/svg">
<path fill-rule="evenodd" clip-rule="evenodd" d="M6.48047 3C6.8103 3.00013 7.13024 3.13024 7.37012 3.37012L8 4H13C13.55 4 14 4.45 14 5V12C14 12.22 13.9303 12.4201 13.8203 12.5801C13.6303 12.8301 13.33 13 13 13H3C2.45 13 2 12.55 2 12V4C2 3.45 2.45 3 3 3H6.48047ZM6.34961 7.34961C6.1496 7.14999 5.83952 7.14975 5.63965 7.34961L4.29004 8.7002C4.11008 8.89019 4 9.14019 4 9.41016V10.5C4 10.78 4.22 11 4.5 11H7.5C7.78 11 8 10.78 8 10.5H7.99023V9.41016C7.99023 9.14025 7.89007 8.89017 7.7002 8.7002L6.34961 7.34961ZM8.99023 5L9.7002 5.70996C9.89019 5.88992 10.1402 6 10.4102 6H12.4902C12.7701 5.99987 12.9902 5.77992 12.9902 5.5C12.9902 5.22008 12.7701 5.00013 12.4902 5H8.99023Z" fill="currentColor"/>
</svg>
