<svg width="16" height="16" viewBox="0 0 16 16" fill="none" xmlns="http://www.w3.org/2000/svg">
<path d="M4.5 3V4H4C3.72 4 3.5 4.22 3.5 4.5C3.5 4.78 3.72 5 4 5H4.5V6H4C3.72 6 3.5 6.22 3.5 6.5C3.5 6.78 3.72 7 4 7H4.5V8H4C3.72 8 3.5 8.22 3.5 8.5C3.5 8.78 3.72 9 4 9H4.5V10H4C3.72 10 3.5 10.22 3.5 10.5C3.5 10.78 3.72 11 4 11H4.5V13H3C2.45 13 2 12.55 2 12V4C2 3.45 2.45 3 3 3H4.5Z" fill="currentColor"/>
<path fill-rule="evenodd" clip-rule="evenodd" d="M6.48047 3C6.8103 3.00013 7.13024 3.13024 7.37012 3.37012L8 4H13C13.55 4 14 4.45 14 5V12C14 12.22 13.9303 12.4201 13.8203 12.5801C13.6303 12.8301 13.33 13 13 13H5.5V12H6C6.28 12 6.5 11.78 6.5 11.5C6.5 11.22 6.28 11 6 11H5.5V10H6C6.28 10 6.5 9.78 6.5 9.5C6.5 9.22 6.28 9 6 9H5.5V8H6C6.28 8 6.5 7.78 6.5 7.5C6.5 7.22 6.28 7 6 7H5.5V6H6C6.28 6 6.5 5.78 6.5 5.5C6.5 5.22 6.28 5 6 5H5.5V3H6.48047ZM8.99023 5L9.7002 5.70996C9.89019 5.88992 10.1402 6 10.4102 6H12.4902C12.7701 5.99987 12.9902 5.77992 12.9902 5.5C12.9902 5.22008 12.7701 5.00013 12.4902 5H8.99023Z" fill="currentColor"/>
</svg>
