<svg width="16" height="16" viewBox="0 0 16 16" fill="none" xmlns="http://www.w3.org/2000/svg">
<path fill-rule="evenodd" clip-rule="evenodd" d="M6.49023 3C6.82015 3.00007 7.14017 3.14017 7.37012 3.37012L9 5H13.0098C13.5598 5 14.0098 5.45 14.0098 6V12C14.0098 12.55 13.5598 13 13.0098 13H3.00977C2.45988 12.9999 2.00977 12.5499 2.00977 12V4C2.00977 3.45008 2.45988 3.00013 3.00977 3H6.49023ZM5.75 6.5C5.47 6.5 5.25 6.72 5.25 7V8.5H4.5C4.37 8.5 4.25039 8.55039 4.15039 8.65039C3.9504 8.85039 3.95039 9.16036 4.15039 9.36035L5.65039 10.8604C5.7404 10.9601 5.88015 11.0098 6 11.0098C6.11986 11.0098 6.24966 10.9601 6.34961 10.8604L7.84961 9.36035C8.04961 9.16036 8.0496 8.85039 7.84961 8.65039C7.74961 8.55039 7.63 8.5 7.5 8.5H6.75V7C6.75 6.72 6.53 6.5 6.25 6.5H5.75Z" fill="currentColor"/>
</svg>
