<svg width="16" height="16" viewBox="0 0 16 16" fill="none" xmlns="http://www.w3.org/2000/svg">
<path fill-rule="evenodd" clip-rule="evenodd" d="M9.00002 10.5C9.55 10.5 10 10.95 10 11.5V12.5C10 13.05 9.55 13.5 9.00002 13.5H3.00002C2.45002 13.5 2.00002 13.05 2.00002 12.5V11.5C2.00002 10.95 2.45002 10.5 3.00002 10.5H9.00002ZM8.00002 11.5C7.72002 11.5 7.50002 11.72 7.50002 12C7.50002 12.28 7.72002 12.5 8.00002 12.5C8.28 12.5 8.50002 12.28 8.50002 12C8.50002 11.72 8.28 11.5 8.00002 11.5Z" fill="currentColor"/>
<path d="M13.0156 7.50098C13.0363 7.50164 13.0567 7.50363 13.0772 7.50684C13.0907 7.50894 13.104 7.51148 13.1172 7.51465C13.1341 7.51873 13.1505 7.52441 13.167 7.53027C13.1781 7.53422 13.1895 7.53729 13.2002 7.54199C13.216 7.54892 13.2309 7.55777 13.2461 7.56641C13.2594 7.57395 13.2727 7.58116 13.2852 7.58984C13.3091 7.60653 13.3322 7.62515 13.3535 7.64648L14.3535 8.64648C14.5488 8.84174 14.5488 9.15825 14.3535 9.35352C14.1583 9.54877 13.8418 9.54877 13.6465 9.35352L13.5 9.20703V11C13.5 11.8261 12.8261 12.5 12 12.5C11.7239 12.5 11.5 12.2761 11.5 12C11.5 11.7583 11.6715 11.5563 11.8994 11.5098L12.1006 11.4902C12.3272 11.443 12.5 11.2395 12.5 11V9.20703L12.3535 9.35352C12.1583 9.54877 11.8418 9.54877 11.6465 9.35352C11.4512 9.15825 11.4512 8.84175 11.6465 8.64648L12.6465 7.64648L12.7246 7.58203C12.75 7.56529 12.7764 7.55069 12.8037 7.53906C12.8075 7.53745 12.8116 7.53667 12.8155 7.53516C12.8406 7.5252 12.8664 7.51742 12.8926 7.51172C12.9009 7.50989 12.9095 7.50922 12.918 7.50781C12.9407 7.50408 12.9634 7.50157 12.9864 7.50098C12.9909 7.50086 12.9955 7.5 13 7.5C13.0053 7.5 13.0105 7.50082 13.0156 7.50098Z" fill="currentColor"/>
<path d="M4.00002 3.5C4.27615 3.50002 4.50002 3.72387 4.50002 4C4.50002 4.2417 4.32856 4.44369 4.10061 4.49023L3.89944 4.50977C3.67286 4.55693 3.50002 4.7605 3.50002 5V6.79297L3.64651 6.64648C3.84177 6.45126 4.15829 6.45123 4.35354 6.64648C4.54878 6.84174 4.54876 7.15825 4.35354 7.35352L3.35354 8.35352C3.31948 8.38757 3.2804 8.41337 3.24026 8.43555C3.19599 8.46002 3.14886 8.48009 3.09768 8.49023C3.03292 8.50308 2.96613 8.5032 2.90139 8.49023C2.85026 8.48001 2.80302 8.46008 2.75881 8.43555C2.71893 8.41343 2.68037 8.38737 2.64651 8.35352L1.64651 7.35352C1.45125 7.15825 1.45125 6.84175 1.64651 6.64648C1.84177 6.45126 2.15829 6.45123 2.35354 6.64648L2.50002 6.79297V5C2.50002 4.17386 3.17388 3.5 4.00002 3.5Z" fill="currentColor"/>
<path fill-rule="evenodd" clip-rule="evenodd" d="M13 2.5C13.55 2.50002 14 2.95001 14 3.5V4.5C14 5.04999 13.55 5.49998 13 5.5H7.00002C6.45002 5.5 6.00002 5.05 6.00002 4.5V3.5C6.00002 2.95 6.45002 2.5 7.00002 2.5H13ZM12 3.5C11.72 3.5 11.5 3.72 11.5 4C11.5 4.28 11.72 4.5 12 4.5C12.28 4.49998 12.5 4.27999 12.5 4C12.5 3.72001 12.28 3.50002 12 3.5Z" fill="currentColor"/>
</svg>
