<svg width="16" height="16" viewBox="0 0 16 16" fill="none" xmlns="http://www.w3.org/2000/svg">
<path fill-rule="evenodd" clip-rule="evenodd" d="M9.37988 2C9.77988 2 10.1604 2.16043 10.4404 2.44043L12.5596 4.55957C12.8396 4.83957 13 5.22012 13 5.62012V13C13 13.55 12.55 14 12 14H4C3.45 14 3 13.55 3 13V3C3 2.45 3.45 2 4 2H9.37988ZM10.8701 8.34961C10.6702 8.14984 10.3601 8.14994 10.1602 8.34961L8.00977 10.5L6.86035 9.34961C6.66048 9.14975 6.3504 9.14999 6.15039 9.34961L4.5 11V11.5C4.5 11.78 4.72 12 5 12H11C11.28 12 11.5 11.78 11.5 11.5H11.5205V9L10.8701 8.34961ZM6 5.5C5.31 5.5 4.75 6.06 4.75 6.75C4.75 7.44 5.31 8 6 8C6.69 8 7.25 7.44 7.25 6.75C7.25 6.06 6.69 5.5 6 5.5ZM9.5 3C9.22 3 9 3.22 9 3.5V5C9 5.55 9.45 6 10 6H11.5C11.78 6 12 5.78 12 5.5C12 5.22 11.78 5 11.5 5H10V3.5C10 3.22 9.78 3 9.5 3Z" fill="currentColor"/>
</svg>
