<svg width="16" height="16" viewBox="0 0 16 16" fill="none" xmlns="http://www.w3.org/2000/svg">
<path fill-rule="evenodd" clip-rule="evenodd" d="M6.49023 3C6.82015 3.00007 7.14017 3.14017 7.37012 3.37012L9 5H13.0098C13.5598 5 14.0098 5.45 14.0098 6V12C14.0098 12.55 13.5598 13 13.0098 13H3.00977C2.45988 12.9999 2.00977 12.5499 2.00977 12V4C2.00977 3.45008 2.45988 3.00013 3.00977 3H6.49023ZM4.34961 10.6504C4.20961 10.5004 3.98957 10.46 3.80957 10.54C3.7497 10.5601 3.6903 10.6005 3.65039 10.6504C3.55039 10.7404 3.5 10.87 3.5 11C3.5 11.13 3.55039 11.2596 3.65039 11.3496C3.6903 11.3995 3.7497 11.4399 3.80957 11.46C3.86957 11.5 3.94 11.5 4 11.5C4.13 11.5 4.25961 11.4496 4.34961 11.3496C4.44961 11.2596 4.5 11.13 4.5 11C4.5 10.87 4.44961 10.7404 4.34961 10.6504ZM4 8.5C3.72 8.5 3.5 8.72 3.5 9C3.5 9.28 3.72 9.5 4 9.5C4.83 9.5 5.5 10.17 5.5 11C5.5 11.28 5.72 11.5 6 11.5C6.28 11.5 6.5 11.28 6.5 11C6.5 9.62 5.38 8.5 4 8.5ZM4 6.5C3.72 6.5 3.5 6.72 3.5 7C3.5 7.28 3.72 7.5 4 7.5C5.93 7.5 7.5 9.07 7.5 11C7.5 11.28 7.72 11.5 8 11.5C8.28 11.5 8.5 11.28 8.5 11C8.5 8.52 6.48 6.5 4 6.5Z" fill="currentColor"/>
</svg>
