<svg width="16" height="16" viewBox="0 0 16 16" fill="none" xmlns="http://www.w3.org/2000/svg">
<path fill-rule="evenodd" clip-rule="evenodd" d="M9.37988 2C9.77988 2 10.1604 2.16043 10.4404 2.44043L12.5596 4.55957C12.8396 4.83957 13 5.22012 13 5.62012V13C13 13.55 12.55 14 12 14H4C3.45 14 3 13.55 3 13V3C3 2.45 3.45 2 4 2H9.37988ZM7.40039 8.2002C7.23047 7.9803 6.92018 7.92989 6.7002 8.09961L4.7002 9.59961C4.5702 9.68961 4.5 9.84 4.5 10C4.5 10.16 4.5702 10.3104 4.7002 10.4004L6.7002 11.9004C6.79014 11.9702 6.90011 12 7 12C7.15 12 7.30039 11.9298 7.40039 11.7998C7.5701 11.5798 7.5197 11.2695 7.2998 11.0996L5.83008 10L7.2998 8.90039C7.5197 8.73047 7.5701 8.42018 7.40039 8.2002ZM9.2998 8.09961C9.07982 7.92989 8.76953 7.9803 8.59961 8.2002C8.4299 8.42018 8.4803 8.73047 8.7002 8.90039L10.1699 10L8.7002 11.0996C8.4803 11.2695 8.4299 11.5798 8.59961 11.7998C8.69961 11.9298 8.85 12 9 12C9.09989 12 9.20986 11.9702 9.2998 11.9004L11.2998 10.4004C11.4298 10.3104 11.5 10.16 11.5 10C11.5 9.84 11.4298 9.68961 11.2998 9.59961L9.2998 8.09961ZM9.5 3C9.22 3 9 3.22 9 3.5V5C9 5.55 9.45 6 10 6H11.5C11.78 6 12 5.78 12 5.5C12 5.22 11.78 5 11.5 5H10V3.5C10 3.22 9.78 3 9.5 3Z" fill="currentColor"/>
</svg>
