<svg width="16" height="16" viewBox="0 0 16 16" fill="none" xmlns="http://www.w3.org/2000/svg">
<path fill-rule="evenodd" clip-rule="evenodd" d="M6.49023 3C6.82015 3.00007 7.14017 3.14017 7.37012 3.37012L9 5H13.0098C13.5598 5 14.0098 5.45 14.0098 6V12C14.0098 12.55 13.5598 13 13.0098 13H3.00977C2.45988 12.9999 2.00977 12.5499 2.00977 12V4C2.00977 3.45008 2.45988 3.00013 3.00977 3H6.49023ZM5.5 9.87012C5.09 9.87012 4.75 10.2101 4.75 10.6201C4.75007 11.0301 5.09004 11.3701 5.5 11.3701C5.90996 11.3701 6.24993 11.0301 6.25 10.6201C6.25 10.2101 5.91 9.87012 5.5 9.87012ZM5.50977 5.12012C4.61988 5.12025 3.88965 5.85032 3.88965 6.74023C3.88977 7.02 4.1099 7.24004 4.38965 7.24023C4.66957 7.24023 4.88953 7.02013 4.88965 6.74023C4.88965 6.40032 5.16988 6.12025 5.50977 6.12012C5.84977 6.12012 6.12988 6.4 6.12988 6.75C6.12988 6.94 5.96977 7.12973 5.75977 7.21973L5.58008 7.2998C5.23008 7.4498 5.00977 7.78016 5.00977 8.16016V8.44043C5.00999 8.72014 5.23002 8.9403 5.50977 8.94043C5.78962 8.94043 6.00954 8.72023 6.00977 8.44043L5.95996 8.23047L6.13965 8.15039L6.15039 8.13965C6.74006 7.88959 7.12979 7.34998 7.12988 6.74023C7.12988 5.85023 6.39977 5.12012 5.50977 5.12012Z" fill="currentColor"/>
</svg>
