<svg width="16" height="16" viewBox="0 0 16 16" fill="none" xmlns="http://www.w3.org/2000/svg">
<path d="M6.37012 2.99023C6.76993 2.99027 7.14975 3.1499 7.42969 3.42969L8.99023 4.99023H12.3496C12.8996 4.99023 13.3496 5.44023 13.3496 5.99023V6.49023H5.83984C5.11992 6.49029 4.48972 6.91991 4.21973 7.58984L2.92969 10.7998C2.82969 11.0598 2.94996 11.3502 3.20996 11.4502C3.27994 11.4802 3.3404 11.4902 3.40039 11.4902C3.59026 11.4901 3.78041 11.3795 3.86035 11.1797L5.15039 7.96973C5.27042 7.69004 5.5399 7.50016 5.84961 7.5H14.25L14.2402 7.48047C14.63 7.48059 14.9403 7.77985 14.9805 8.13965C15.0005 8.25962 14.9797 8.38979 14.9297 8.50977L13.6602 11.7002C13.5602 11.94 13.4 12.1296 13.2002 12.2695C13.0002 12.4095 12.76 12.4902 12.5 12.4902H2.99023C2.44032 12.4902 1.99037 12.0401 1.99023 11.4902V3.99023C1.99023 3.44023 2.44023 2.99023 2.99023 2.99023H6.37012Z" fill="currentColor"/>
</svg>
