<svg width="16" height="16" viewBox="0 0 16 16" fill="none" xmlns="http://www.w3.org/2000/svg">
<path fill-rule="evenodd" clip-rule="evenodd" d="M9.37988 2C9.77988 2 10.1604 2.16043 10.4404 2.44043L12.5596 4.55957C12.8396 4.83957 13 5.22012 13 5.62012V13C13 13.55 12.55 14 12 14H4C3.45 14 3 13.55 3 13V3C3 2.45 3.45 2 4 2H9.37988ZM8 7C7.72 7 7.5 7.22 7.5 7.5V9H6C5.72 9 5.5 9.22 5.5 9.5C5.5 9.78 5.72 10 6 10H7.5V11.5C7.5 11.78 7.72 12 8 12C8.28 12 8.5 11.78 8.5 11.5V10H10C10.28 10 10.5 9.78 10.5 9.5C10.5 9.22 10.28 9 10 9H8.5V7.5C8.5 7.22 8.28 7 8 7ZM9.5 3C9.22 3 9 3.22 9 3.5V5C9 5.55 9.45 6 10 6H11.5C11.78 6 12 5.78 12 5.5C12 5.22 11.78 5 11.5 5H10V3.5C10 3.22 9.78 3 9.5 3Z" fill="black"/>
</svg>
