<svg width="16" height="16" viewBox="0 0 16 16" fill="none" xmlns="http://www.w3.org/2000/svg">
<path fill-rule="evenodd" clip-rule="evenodd" d="M6.48047 3C6.8103 3.00013 7.13024 3.13024 7.37012 3.37012L8 4H13C13.55 4 14 4.45 14 5V12C14 12.22 13.9303 12.4201 13.8203 12.5801C13.6303 12.8301 13.33 13 13 13H3C2.45 13 2 12.55 2 12V4C2 3.45 2.45 3 3 3H6.48047ZM4.75 9C4.2 9 3.75 9.45 3.75 10V10.5C3.75 10.78 3.97 11 4.25 11H7.75C8.03 11 8.25 10.78 8.25 10.5V10C8.25 9.45 7.8 9 7.25 9H4.75ZM6 6C5.31 6 4.75 6.56 4.75 7.25C4.75 7.94 5.31 8.5 6 8.5C6.69 8.5 7.25 7.94 7.25 7.25C7.25 6.56 6.69 6 6 6ZM8.99023 5L9.7002 5.70996C9.89019 5.88992 10.1402 6 10.4102 6H12.4902C12.7701 5.99987 12.9902 5.77992 12.9902 5.5C12.9902 5.22008 12.7701 5.00013 12.4902 5H8.99023Z" fill="currentColor"/>
</svg>
