<svg width="16" height="16" viewBox="0 0 16 16" fill="none" xmlns="http://www.w3.org/2000/svg">
<path d="M9.34961 7.86035C9.43957 8.05032 9.5 8.27006 9.5 8.5C9.49999 9.32999 8.82999 10 8 10C7.77006 10 7.5603 9.93957 7.36035 9.84961L9.34961 7.86035Z" fill="currentColor"/>
<path d="M8 7C8.22994 7 8.4397 7.06043 8.63965 7.15039L6.65039 9.13965C6.56043 8.94968 6.5 8.72994 6.5 8.5C6.5 7.67 7.17 7 8 7Z" fill="currentColor"/>
<path fill-rule="evenodd" clip-rule="evenodd" d="M8 3C9.93 3 11.5 4.57 11.5 6.5C13.16 6.5 14.5 7.84 14.5 9.5C14.5 11.16 13.16 12.5 11.5 12.5H4.5C2.84 12.5 1.5 11.16 1.5 9.5C1.5 7.84 2.84 6.5 4.5 6.5C4.5 4.57 6.07 3 8 3ZM8.00977 6.00977C6.62995 6.0099 5.50989 7.12995 5.50977 8.50977C5.50977 9.19971 5.7903 9.81954 6.24023 10.2695C6.69023 10.7195 7.31 11 8 11C9.38 11 10.5 9.88 10.5 8.5C10.5 7.81018 10.2203 7.19021 9.77051 6.74023C9.32051 6.29023 8.69977 6.00977 8.00977 6.00977Z" fill="currentColor"/>
</svg>
