<svg width="16" height="16" viewBox="0 0 16 16" fill="none" xmlns="http://www.w3.org/2000/svg">
<path fill-rule="evenodd" clip-rule="evenodd" d="M13 11C13.55 11 14 11.45 14 12V13C14 13.55 13.55 14 13 14H3C2.45 14 2 13.55 2 13V12C2 11.45 2.45 11 3 11H13ZM12 12C11.72 12 11.5 12.22 11.5 12.5C11.5 12.78 11.72 13 12 13C12.28 13 12.5 12.78 12.5 12.5C12.5 12.22 12.28 12 12 12Z" fill="currentColor"/>
<path fill-rule="evenodd" clip-rule="evenodd" d="M11.1904 2C11.6603 2.0002 12.07 2.33018 12.1699 2.79004H12.1504L13.7002 10.1299C13.4803 10.0399 13.2401 9.99027 12.9902 9.99023H2.99023C2.74034 9.99023 2.5002 10.04 2.28027 10.1299L3.83008 2.79004C3.93005 2.33018 4.33975 2.0002 4.80957 2H11.1904ZM8 7.5C7.72 7.5 7.5 7.72 7.5 8C7.5 8.28 7.72 8.5 8 8.5C8.28 8.5 8.5 8.28 8.5 8C8.5 7.72 8.28 7.5 8 7.5ZM9.41992 6.08008C8.63992 5.30009 7.36984 5.30008 6.58984 6.08008C6.38998 6.28006 6.38994 6.59008 6.58984 6.79004C6.78981 6.99 7.0998 6.98993 7.2998 6.79004C7.6898 6.40004 8.31996 6.40004 8.70996 6.79004C8.79985 6.88992 8.93967 6.94031 9.05957 6.94043C9.17957 6.94043 9.31016 6.89004 9.41016 6.79004H9.41992C9.61992 6.59004 9.61992 6.28008 9.41992 6.08008ZM10.8398 4.66992C9.32982 3.16004 6.68965 3.15996 5.17969 4.66992C4.97987 4.86986 4.97994 5.17991 5.17969 5.37988C5.37965 5.57984 5.68964 5.57976 5.88965 5.37988C7.01961 4.24992 8.99986 4.25 10.1299 5.37988C10.2199 5.47988 10.3605 5.53027 10.4805 5.53027C10.6003 5.53015 10.7302 5.47976 10.8301 5.37988H10.8398C11.0398 5.17988 11.0398 4.86992 10.8398 4.66992Z" fill="currentColor"/>
</svg>
