<svg width="16" height="16" viewBox="0 0 16 16" fill="none" xmlns="http://www.w3.org/2000/svg">
<path fill-rule="evenodd" clip-rule="evenodd" d="M6.49023 3C6.82015 3.00007 7.14017 3.14017 7.37012 3.37012L9 5H13.0098C13.5598 5 14.0098 5.45 14.0098 6V12C14.0098 12.55 13.5598 13 13.0098 13H3.00977C2.45988 12.9999 2.00977 12.5499 2.00977 12V4C2.00977 3.45008 2.45988 3.00013 3.00977 3H6.49023ZM6 6C5.72 6 5.5 6.22 5.5 6.5V8H4C3.72 8 3.5 8.22 3.5 8.5C3.5 8.78 3.72 9 4 9H5.5V10.5C5.5 10.78 5.72 11 6 11C6.28 11 6.5 10.78 6.5 10.5V9H8C8.28 9 8.5 8.78 8.5 8.5C8.5 8.22 8.28 8 8 8H6.5V6.5C6.5 6.22 6.28 6 6 6Z" fill="currentColor"/>
</svg>
