<svg width="16" height="16" viewBox="0 0 16 16" fill="none" xmlns="http://www.w3.org/2000/svg">
<path d="M4.5 3V4H4C3.72 4 3.5 4.22 3.5 4.5C3.5 4.78 3.72 5 4 5H4.5V6H4C3.72 6 3.5 6.22 3.5 6.5C3.5 6.78 3.72 7 4 7H4.5V8H4C3.72 8 3.5 8.22 3.5 8.5C3.5 8.78 3.72 9 4 9H4.5V10H4C3.72 10 3.5 10.22 3.5 10.5C3.5 10.78 3.72 11 4 11H4.5V13H3C2.45 13 2 12.55 2 12V4C2 3.45 2.45 3 3 3H4.5Z" fill="currentColor"/>
<path d="M6.48047 3C6.8103 3.00013 7.13024 3.13024 7.37012 3.37012L9 5H12.9902C13.5401 5.00013 13.9902 5.45008 13.9902 6V12C13.9902 12.13 13.9599 12.2504 13.9199 12.3604C13.91 12.3803 13.8996 12.4098 13.8896 12.4297C13.8397 12.5197 13.7897 12.6097 13.7197 12.6797L13.6797 12.7197C13.6097 12.7897 13.5199 12.8504 13.4199 12.9004C13.3999 12.9104 13.3697 12.9197 13.3398 12.9297C13.2299 12.9697 13.12 13 13 13H5.5V12H6C6.28 12 6.5 11.78 6.5 11.5C6.5 11.22 6.28 11 6 11H5.5V10H6C6.28 10 6.5 9.78 6.5 9.5C6.5 9.22 6.28 9 6 9H5.5V8H6C6.28 8 6.5 7.78 6.5 7.5C6.5 7.22 6.28 7 6 7H5.5V6H6C6.28 6 6.5 5.78 6.5 5.5C6.5 5.22 6.28 5 6 5H5.5V3H6.48047Z" fill="currentColor"/>
</svg>
