<svg width="16" height="16" viewBox="0 0 16 16" fill="none" xmlns="http://www.w3.org/2000/svg">
<path fill-rule="evenodd" clip-rule="evenodd" d="M6.49023 3C6.82015 3.00007 7.14017 3.14017 7.37012 3.37012L9 5H13.0098C13.5598 5 14.0098 5.45 14.0098 6V12C14.0098 12.55 13.5598 13 13.0098 13H3.00977C2.45988 12.9999 2.00977 12.5499 2.00977 12V4C2.00977 3.45008 2.45988 3.00013 3.00977 3H6.49023ZM5.5 9.5C5.09 9.5 4.75 9.84 4.75 10.25C4.75 10.66 5.09 11 5.5 11C5.91 11 6.25 10.66 6.25 10.25C6.25 9.84 5.91 9.5 5.5 9.5ZM5.50977 5C5.11455 5.00557 4.80033 5.33388 4.83008 5.73047L4.98047 8C5.00048 8.2799 5.22989 8.49987 5.50977 8.5C5.78977 8.5 6.02004 8.28 6.04004 8L6.19043 5.73047C6.21027 5.34365 5.90503 5.00548 5.50977 5Z" fill="black"/>
</svg>
