<svg width="16" height="16" viewBox="0 0 16 16" fill="none" xmlns="http://www.w3.org/2000/svg">
<path fill-rule="evenodd" clip-rule="evenodd" d="M6.49023 3C6.82015 3.00007 7.14017 3.14017 7.37012 3.37012L9 5H13.0098C13.5598 5 14.0098 5.45 14.0098 6V12C14.0098 12.55 13.5598 13 13.0098 13H3.00977C2.45988 12.9999 2.00977 12.5499 2.00977 12V4C2.00977 3.45008 2.45988 3.00013 3.00977 3H6.49023ZM5.00977 6C4.72988 6.00013 4.50977 6.22008 4.50977 6.5V9.29004L4.36035 9.13965C4.16048 8.93977 3.8504 8.94002 3.65039 9.13965C3.45039 9.33965 3.45039 9.64961 3.65039 9.84961L4.65039 10.8496C4.74039 10.9496 4.87 11 5 11C5.06 11 5.13043 10.99 5.19043 10.96C5.38021 10.8799 5.5 10.6999 5.5 10.5H5.50977V6.5C5.50977 6.22 5.28977 6 5.00977 6ZM7.33984 6.13965C7.19984 5.99984 6.98969 5.95032 6.7998 6.03027C6.60995 6.11033 6.49023 6.29032 6.49023 6.49023V10.4902C6.49036 10.7701 6.71031 10.9902 6.99023 10.9902C7.27004 10.9901 7.49011 10.77 7.49023 10.4902V7.7002L7.63965 7.84961C7.83965 8.04961 8.14961 8.04961 8.34961 7.84961H8.33984C8.53972 7.64961 8.5398 7.33961 8.33984 7.13965L7.33984 6.13965Z" fill="black"/>
</svg>
