<svg width="16" height="16" viewBox="0 0 16 16" fill="none" xmlns="http://www.w3.org/2000/svg">
<g clip-path="url(#clip0_3164_3615)">
<path d="M13 5H9L7.37 3.37C7.14 3.14 6.82 3 6.49 3H3C2.45 3 2 3.45 2 4V12C2 12.55 2.45 13 3 13H13C13.55 13 14 12.55 14 12V6C14 5.45 13.55 5 13 5ZM9 10.38C9 10.73 8.72 11 8.38 11H4.63C4.28 11 4.01 10.72 4.01 10.38V9.02C4.01 8.69 4.14 8.37 4.38 8.14L6.07 6.45C6.31 6.21 6.71 6.21 6.95 6.45L8.64 8.14C8.87 8.37 9.01 8.69 9.01 9.02V10.38H9Z" fill="black"/>
</g>
<defs>
<clipPath id="clip0_3164_3615">
<rect width="12" height="10" fill="white" transform="translate(2 3)"/>
</clipPath>
</defs>
</svg>
