<svg width="16" height="16" viewBox="0 0 16 16" fill="none" xmlns="http://www.w3.org/2000/svg">
<path d="M8 2C9.66 2 11 3.34 11 5C12.1 5 13 5.9 13 7C13 8.1 12.1 9 11 9H8.5V10H13C13.2761 10 13.5 10.2239 13.5 10.5V11.8545C13.9414 12.0474 14.25 12.4875 14.25 13C14.25 13.6904 13.6904 14.25 13 14.25C12.3096 14.25 11.75 13.6904 11.75 13C11.75 12.4875 12.0586 12.0474 12.5 11.8545V11H8.5V11.8545C8.94138 12.0474 9.25 12.4875 9.25 13C9.25 13.6904 8.69036 14.25 8 14.25C7.30964 14.25 6.75 13.6904 6.75 13C6.75 12.4875 7.05862 12.0474 7.5 11.8545V11H3.5V11.8545C3.94138 12.0474 4.25 12.4875 4.25 13C4.25 13.6904 3.69036 14.25 3 14.25C2.30964 14.25 1.75 13.6904 1.75 13C1.75 12.4875 2.05862 12.0474 2.5 11.8545V10.5C2.5 10.2239 2.72386 10 3 10H7.5V9H5C3.9 9 3 8.1 3 7C3 5.9 3.9 5 5 5C5 3.34 6.34 2 8 2Z" fill="black"/>
</svg>
