<svg width="16" height="16" viewBox="0 0 16 16" fill="none" xmlns="http://www.w3.org/2000/svg">
<path fill-rule="evenodd" clip-rule="evenodd" d="M10.79 2.49023C11.4299 2.49026 12.0098 2.90978 12.21 3.51953L13.9805 8.83984V8.90039H14C14.01 8.93059 14.0205 9 14.0205 9V12C14.0205 12.5498 13.5703 12.9997 13.0205 13H3.02051C2.47051 13 2.01954 12.55 2.01953 12V9C2.01953 8.97014 2.03986 8.93034 2.04004 8.90039V8.83984L3.80957 3.51953C4.00965 2.89969 4.58057 2.49023 5.23047 2.49023H10.79ZM5.21973 3.5C5.00987 3.50011 4.82001 3.63999 4.75 3.83984H4.73047L3.17969 8.5H6.49023C6.62014 8.50007 6.73991 8.56045 6.83984 8.65039C6.93977 8.74039 6.99023 8.87005 6.99023 9C6.99024 9.54999 7.44024 10 7.99023 10C8.54012 9.99987 8.99023 9.54991 8.99023 9C8.99023 8.87018 9.04985 8.75031 9.13965 8.65039C9.22965 8.55039 9.36023 8.5 9.49023 8.5H12.7998L11.25 3.83984C11.19 3.63998 11.0001 3.5001 10.7803 3.5H5.21973Z" fill="currentColor"/>
</svg>
