<svg width="16" height="16" viewBox="0 0 16 16" fill="none" xmlns="http://www.w3.org/2000/svg">
<path d="M10.1465 6.14648C10.3417 5.95122 10.6583 5.95122 10.8535 6.14648C11.0487 6.34175 11.0488 6.65827 10.8535 6.85352L7.85352 9.85352C7.65827 10.0488 7.34175 10.0487 7.14648 9.85352L5.64648 8.35352C5.45122 8.15825 5.45122 7.84175 5.64648 7.64648C5.84175 7.45122 6.15825 7.45122 6.35352 7.64648L7.5 8.79297L10.1465 6.14648Z" fill="currentColor"/>
<path fill-rule="evenodd" clip-rule="evenodd" d="M12 3.5C13.3761 3.5 14.5 4.62386 14.5 6V6.08691C15.0814 6.2937 15.5 6.84915 15.5 7.5V8.5C15.5 9.15074 15.0813 9.70524 14.5 9.91211V10C14.5 11.3761 13.3761 12.5 12 12.5H4C2.62386 12.5 1.5 11.3761 1.5 10V6C1.5 4.62386 2.62386 3.5 4 3.5H12ZM4 4.5C3.17614 4.5 2.5 5.17614 2.5 6V10C2.5 10.8239 3.17614 11.5 4 11.5H12C12.8239 11.5 13.5 10.8239 13.5 10V9.5C13.5 9.25829 13.6714 9.05629 13.8994 9.00977L14.1006 8.99023C14.3272 8.94307 14.5 8.7395 14.5 8.5V7.5C14.5 7.2605 14.3272 7.05693 14.1006 7.00977L13.8994 6.99023C13.6714 6.94371 13.5 6.74171 13.5 6.5V6C13.5 5.17614 12.8239 4.5 12 4.5H4Z" fill="currentColor"/>
</svg>
