<svg width="16" height="16" viewBox="0 0 16 16" fill="none" xmlns="http://www.w3.org/2000/svg">
<path d="M8 10.5C8.27614 10.5 8.5 10.7239 8.5 11C8.5 11.2761 8.27614 11.5 8 11.5H6C5.72386 11.5 5.5 11.2761 5.5 11C5.5 10.7239 5.72386 10.5 6 10.5H8Z" fill="currentColor"/>
<path d="M10 10.5C10.2761 10.5 10.5 10.7239 10.5 11C10.5 11.2761 10.2761 11.5 10 11.5C9.72386 11.5 9.5 11.2761 9.5 11C9.5 10.7239 9.72386 10.5 10 10.5Z" fill="currentColor"/>
<path d="M6 8.5C6.27614 8.5 6.5 8.72386 6.5 9C6.5 9.27614 6.27614 9.5 6 9.5C5.72386 9.5 5.5 9.27614 5.5 9C5.5 8.72386 5.72386 8.5 6 8.5Z" fill="currentColor"/>
<path d="M8 8.5C8.27614 8.5 8.5 8.72386 8.5 9C8.5 9.27614 8.27614 9.5 8 9.5C7.72386 9.5 7.5 9.27614 7.5 9C7.5 8.72386 7.72386 8.5 8 8.5Z" fill="currentColor"/>
<path d="M10 8.5C10.2761 8.5 10.5 8.72386 10.5 9C10.5 9.27614 10.2761 9.5 10 9.5C9.72386 9.5 9.5 9.27614 9.5 9C9.5 8.72386 9.72386 8.5 10 8.5Z" fill="currentColor"/>
<path d="M6 6.5C6.27614 6.5 6.5 6.72386 6.5 7C6.5 7.27614 6.27614 7.5 6 7.5C5.72386 7.5 5.5 7.27614 5.5 7C5.5 6.72386 5.72386 6.5 6 6.5Z" fill="currentColor"/>
<path d="M8 6.5C8.27614 6.5 8.5 6.72386 8.5 7C8.5 7.27614 8.27614 7.5 8 7.5C7.72386 7.5 7.5 7.27614 7.5 7C7.5 6.72386 7.72386 6.5 8 6.5Z" fill="currentColor"/>
<path d="M10 6.5C10.2761 6.5 10.5 6.72386 10.5 7C10.5 7.27614 10.2761 7.5 10 7.5C9.72386 7.5 9.5 7.27614 9.5 7C9.5 6.72386 9.72386 6.5 10 6.5Z" fill="currentColor"/>
<path d="M6 4.5C6.27614 4.5 6.5 4.72386 6.5 5C6.5 5.27614 6.27614 5.5 6 5.5C5.72386 5.5 5.5 5.27614 5.5 5C5.5 4.72386 5.72386 4.5 6 4.5Z" fill="currentColor"/>
<path d="M8 4.5C8.27614 4.5 8.5 4.72386 8.5 5C8.5 5.27614 8.27614 5.5 8 5.5C7.72386 5.5 7.5 5.27614 7.5 5C7.5 4.72386 7.72386 4.5 8 4.5Z" fill="currentColor"/>
<path d="M10 4.5C10.2761 4.5 10.5 4.72386 10.5 5C10.5 5.27614 10.2761 5.5 10 5.5C9.72386 5.5 9.5 5.27614 9.5 5C9.5 4.72386 9.72386 4.5 10 4.5Z" fill="currentColor"/>
<path fill-rule="evenodd" clip-rule="evenodd" d="M11 2.5C11.8284 2.5 12.5 3.17157 12.5 4V12C12.5 12.8284 11.8284 13.5 11 13.5H5C4.17157 13.5 3.5 12.8284 3.5 12V4C3.5 3.17157 4.17157 2.5 5 2.5H11ZM5 3.5C4.72386 3.5 4.5 3.72386 4.5 4V12C4.5 12.2761 4.72386 12.5 5 12.5H11C11.2761 12.5 11.5 12.2761 11.5 12V4C11.5 3.72386 11.2761 3.5 11 3.5H5Z" fill="currentColor"/>
</svg>
