<svg width="16" height="16" viewBox="0 0 16 16" fill="none" xmlns="http://www.w3.org/2000/svg">
<path fill-rule="evenodd" clip-rule="evenodd" d="M10 5.5C10.2761 5.5 10.5 5.72386 10.5 6V10C10.5 10.2761 10.2761 10.5 10 10.5H6C5.72386 10.5 5.5 10.2761 5.5 10V6C5.5 5.72386 5.72386 5.5 6 5.5H10ZM6.5 9.5H9.5V6.5H6.5V9.5Z" fill="black"/>
<path fill-rule="evenodd" clip-rule="evenodd" d="M10 1.5C10.2761 1.5 10.5 1.72386 10.5 2V3.5H11C11.8284 3.5 12.5 4.17157 12.5 5V5.5H14C14.2761 5.5 14.5 5.72386 14.5 6C14.5 6.27614 14.2761 6.5 14 6.5H12.5V7.5H14C14.2761 7.5 14.5 7.72386 14.5 8C14.5 8.27614 14.2761 8.5 14 8.5H12.5V9.5H14C14.2761 9.5 14.5 9.72386 14.5 10C14.5 10.2761 14.2761 10.5 14 10.5H12.5V11C12.5 11.8284 11.8284 12.5 11 12.5H10.5V14C10.5 14.2761 10.2761 14.5 10 14.5C9.72386 14.5 9.5 14.2761 9.5 14V12.5H8.5V14C8.5 14.2761 8.27614 14.5 8 14.5C7.72386 14.5 7.5 14.2761 7.5 14V12.5H6.5V14C6.5 14.2761 6.27614 14.5 6 14.5C5.72386 14.5 5.5 14.2761 5.5 14V12.5H5C4.17157 12.5 3.5 11.8284 3.5 11V10.5H2C1.72386 10.5 1.5 10.2761 1.5 10C1.5 9.72386 1.72386 9.5 2 9.5H3.5V8.5H2C1.72386 8.5 1.5 8.27614 1.5 8C1.5 7.72386 1.72386 7.5 2 7.5H3.5V6.5H2C1.72386 6.5 1.5 6.27614 1.5 6C1.5 5.72386 1.72386 5.5 2 5.5H3.5V5C3.5 4.17157 4.17157 3.5 5 3.5H5.5V2C5.5 1.72386 5.72386 1.5 6 1.5C6.27614 1.5 6.5 1.72386 6.5 2V3.5H7.5V2C7.5 1.72386 7.72386 1.5 8 1.5C8.27614 1.5 8.5 1.72386 8.5 2V3.5H9.5V2C9.5 1.72386 9.72386 1.5 10 1.5ZM5 4.5C4.72386 4.5 4.5 4.72386 4.5 5V11C4.5 11.2761 4.72386 11.5 5 11.5H11C11.2761 11.5 11.5 11.2761 11.5 11V5C11.5 4.72386 11.2761 4.5 11 4.5H5Z" fill="black"/>
</svg>
