<svg width="16" height="16" viewBox="0 0 16 16" fill="none" xmlns="http://www.w3.org/2000/svg">
<path fill-rule="evenodd" clip-rule="evenodd" d="M13 3C13.8284 3 14.5 3.67157 14.5 4.5V10.5C14.5 11.3284 13.8284 12 13 12H10.5V13.5C10.5 13.7761 10.2761 14 10 14H6C5.72386 14 5.5 13.7761 5.5 13.5V12H3C2.17157 12 1.5 11.3284 1.5 10.5V4.5C1.5 3.67157 2.17157 3 3 3H13ZM6.5 12V13H9.5V12H6.5ZM2.5 10.5C2.5 10.7761 2.72386 11 3 11H13C13.2761 11 13.5 10.7761 13.5 10.5V10H2.5V10.5ZM3 4C2.72386 4 2.5 4.22386 2.5 4.5V9H13.5V4.5C13.5 4.22386 13.2761 4 13 4H3Z" fill="black"/>
</svg>
