<svg width="16" height="16" viewBox="0 0 16 16" fill="none" xmlns="http://www.w3.org/2000/svg">
<path d="M12.5 4C12.7761 4 13 4.22386 13 4.5V5.5C13 5.77614 12.7761 6 12.5 6C12.2239 6 12 5.77614 12 5.5V4.5C12 4.22386 12.2239 4 12.5 4Z" fill="black"/>
<path fill-rule="evenodd" clip-rule="evenodd" d="M13 2.5C13.8261 2.5 14.5 3.17386 14.5 4V11.5C14.5 12.3261 13.8261 13 13 13H10C9.17386 13 8.5 12.3261 8.5 11.5V11H6.5V12H7.5C7.77614 12 8 12.2239 8 12.5C8 12.7761 7.77614 13 7.5 13H4.5C4.22386 13 4 12.7761 4 12.5C4 12.2239 4.22386 12 4.5 12H5.5V11H3C2.17157 11 1.5 10.3284 1.5 9.5V6C1.5 5.17157 2.17157 4.5 3 4.5H8.5V4C8.5 3.17386 9.17386 2.5 10 2.5H13ZM10 3.5C9.72614 3.5 9.5 3.72614 9.5 4V4.58691C10.0823 4.79297 10.5 5.34707 10.5 6V9.5C10.5 10.1528 10.0822 10.706 9.5 10.9121V11.5C9.5 11.7739 9.72614 12 10 12H13C13.2739 12 13.5 11.7739 13.5 11.5V4C13.5 3.72614 13.2739 3.5 13 3.5H10ZM3 5.5C2.72386 5.5 2.5 5.72386 2.5 6V9.5C2.5 9.77614 2.72386 10 3 10H9C9.27614 10 9.5 9.77614 9.5 9.5V6C9.5 5.72386 9.27614 5.5 9 5.5H3Z" fill="black"/>
</svg>
