<svg width="16" height="16" viewBox="0 0 16 16" fill="none" xmlns="http://www.w3.org/2000/svg">
<path d="M5 5.5C5.27614 5.5 5.5 5.72386 5.5 6V6.5H6C6.27614 6.5 6.5 6.72386 6.5 7C6.5 7.27614 6.27614 7.5 6 7.5H5.5V8C5.5 8.27614 5.27614 8.5 5 8.5C4.72386 8.5 4.5 8.27614 4.5 8V7.5H4C3.72386 7.5 3.5 7.27614 3.5 7C3.5 6.72386 3.72386 6.5 4 6.5H4.5V6C4.5 5.72386 4.72386 5.5 5 5.5Z" fill="black"/>
<path d="M11 7.5C11.2761 7.5 11.5 7.72386 11.5 8C11.5 8.27614 11.2761 8.5 11 8.5C10.7239 8.5 10.5 8.27614 10.5 8C10.5 7.72386 10.7239 7.5 11 7.5Z" fill="black"/>
<path d="M10 6.5C10.2761 6.5 10.5 6.72386 10.5 7C10.5 7.27614 10.2761 7.5 10 7.5C9.72386 7.5 9.5 7.27614 9.5 7C9.5 6.72386 9.72386 6.5 10 6.5Z" fill="black"/>
<path d="M12 6.5C12.2761 6.5 12.5 6.72386 12.5 7C12.5 7.27614 12.2761 7.5 12 7.5C11.7239 7.5 11.5 7.27614 11.5 7C11.5 6.72386 11.7239 6.5 12 6.5Z" fill="black"/>
<path d="M11 5.5C11.2761 5.5 11.5 5.72386 11.5 6C11.5 6.27614 11.2761 6.5 11 6.5C10.7239 6.5 10.5 6.27614 10.5 6C10.5 5.72386 10.7239 5.5 11 5.5Z" fill="black"/>
<path fill-rule="evenodd" clip-rule="evenodd" d="M11 3.5C12.9361 3.5 14.5 5.06386 14.5 7V10.0498C14.5 11.4059 13.4059 12.5 12.0498 12.5C11.2224 12.4999 10.4564 12.086 10.0039 11.4072L8.73242 9.5H7.26758L5.99219 11.4131C5.53187 12.0846 4.76993 12.4999 3.9502 12.5C2.67874 12.5 1.63774 11.5385 1.5127 10.3008L1.5 10.0498V7C1.5 5.06386 3.06386 3.5 5 3.5H11ZM5 4.5C3.61614 4.5 2.5 5.61614 2.5 7V10.0498L2.50781 10.1992C2.58197 10.9323 3.19675 11.5 3.9502 11.5C4.42794 11.4999 4.88311 11.2573 5.16309 10.8525L6.58398 8.72266L6.62207 8.67285C6.71635 8.56391 6.8539 8.5 7 8.5H9C9.16718 8.5 9.32328 8.58356 9.41602 8.72266L10.8359 10.8525C11.1033 11.2536 11.5574 11.4999 12.0498 11.5C12.8537 11.5 13.5 10.8537 13.5 10.0498V7C13.5 5.61614 12.3839 4.5 11 4.5H5Z" fill="black"/>
</svg>
