<svg width="16" height="16" viewBox="0 0 16 16" fill="none" xmlns="http://www.w3.org/2000/svg">
<path d="M5 7.5C5.27614 7.5 5.5 7.72386 5.5 8V8.5H6C6.27614 8.5 6.5 8.72386 6.5 9C6.5 9.27614 6.27614 9.5 6 9.5H5.5V10C5.5 10.2761 5.27614 10.5 5 10.5C4.72386 10.5 4.5 10.2761 4.5 10V9.5H4C3.72386 9.5 3.5 9.27614 3.5 9C3.5 8.72386 3.72386 8.5 4 8.5H4.5V8C4.5 7.72386 4.72386 7.5 5 7.5Z" fill="currentColor"/>
<path d="M11 9.5C11.2761 9.5 11.5 9.72386 11.5 10C11.5 10.2761 11.2761 10.5 11 10.5C10.7239 10.5 10.5 10.2761 10.5 10C10.5 9.72386 10.7239 9.5 11 9.5Z" fill="currentColor"/>
<path d="M10 8.5C10.2761 8.5 10.5 8.72386 10.5 9C10.5 9.27614 10.2761 9.5 10 9.5C9.72386 9.5 9.5 9.27614 9.5 9C9.5 8.72386 9.72386 8.5 10 8.5Z" fill="currentColor"/>
<path d="M12 8.5C12.2761 8.5 12.5 8.72386 12.5 9C12.5 9.27614 12.2761 9.5 12 9.5C11.7239 9.5 11.5 9.27614 11.5 9C11.5 8.72386 11.7239 8.5 12 8.5Z" fill="currentColor"/>
<path d="M11 7.5C11.2761 7.5 11.5 7.72386 11.5 8C11.5 8.27614 11.2761 8.5 11 8.5C10.7239 8.5 10.5 8.27614 10.5 8C10.5 7.72386 10.7239 7.5 11 7.5Z" fill="currentColor"/>
<path fill-rule="evenodd" clip-rule="evenodd" d="M11 5.5C12.9361 5.5 14.5 7.06386 14.5 9V12.0498C14.5 13.4059 13.4059 14.5 12.0498 14.5C11.2224 14.4999 10.4564 14.086 10.0039 13.4072L8.73242 11.5H7.26758L5.99219 13.4131C5.53187 14.0846 4.76993 14.4999 3.9502 14.5C2.67874 14.5 1.63774 13.5385 1.5127 12.3008L1.5 12.0498V9C1.5 7.06386 3.06386 5.5 5 5.5H11ZM5 6.5C3.61614 6.5 2.5 7.61614 2.5 9V12.0498L2.50781 12.1992C2.58197 12.9323 3.19675 13.5 3.9502 13.5C4.42794 13.4999 4.88311 13.2573 5.16309 12.8525L6.58398 10.7227L6.62207 10.6729C6.71635 10.5639 6.8539 10.5 7 10.5H9C9.16718 10.5 9.32328 10.5836 9.41602 10.7227L10.8359 12.8525C11.1033 13.2536 11.5574 13.4999 12.0498 13.5C12.8537 13.5 13.5 12.8537 13.5 12.0498V9C13.5 7.61614 12.3839 6.5 11 6.5H5Z" fill="currentColor"/>
<path d="M8 1.5C8.27614 1.5 8.5 1.72386 8.5 2V4C8.5 4.27614 8.27614 4.5 8 4.5C7.72386 4.5 7.5 4.27614 7.5 4V2C7.5 1.72386 7.72386 1.5 8 1.5Z" fill="currentColor"/>
</svg>
