<svg width="16" height="16" viewBox="0 0 16 16" fill="none" xmlns="http://www.w3.org/2000/svg">
<path fill-rule="evenodd" clip-rule="evenodd" d="M10.3799 1.5C10.914 1.5 11.4212 1.71422 11.7939 2.08691L13.9131 4.20605C14.2858 4.57875 14.5 5.086 14.5 5.62012V13C14.5 13.8261 13.8261 14.5 13 14.5H3C2.17386 14.5 1.5 13.8261 1.5 13V3C1.5 2.17386 2.17386 1.5 3 1.5H10.3799ZM3 2.5C2.72614 2.5 2.5 2.72614 2.5 3V13C2.5 13.2739 2.72614 13.5 3 13.5H3.50879L3.5 9.00098C3.49974 8.8682 3.55269 8.74046 3.64648 8.64648C3.74025 8.55272 3.86739 8.5 4 8.5H12C12.2761 8.5 12.5 8.72386 12.5 9V13.5H13C13.2739 13.5 13.5 13.2739 13.5 13V5.62012C13.5 5.35423 13.3934 5.10039 13.2061 4.91309L11.0869 2.79395C10.9281 2.6351 10.7213 2.53479 10.5 2.50781V6C10.5 6.27614 10.2761 6.5 10 6.5H4C3.72386 6.5 3.5 6.27614 3.5 6V2.5H3ZM4.50879 13.5H11.5V9.5H4.50098L4.50879 13.5ZM4.5 5.5H9.5V2.5H4.5V5.5Z" fill="black"/>
</svg>
