<svg width="16" height="16" viewBox="0 0 16 16" fill="none" xmlns="http://www.w3.org/2000/svg">
<path fill-rule="evenodd" clip-rule="evenodd" d="M4.5 8.5C5.30232 8.5 6.02908 8.81706 6.56738 9.33008C6.58665 9.34442 6.60653 9.35851 6.62402 9.37598C6.63924 9.39121 6.65122 9.40918 6.66406 9.42578C7.18075 9.96471 7.5 10.6944 7.5 11.5C7.5 13.1569 6.15685 14.5 4.5 14.5C2.84315 14.5 1.5 13.1569 1.5 11.5C1.5 9.84315 2.84315 8.5 4.5 8.5ZM4.5 9.5C3.39543 9.5 2.5 10.3954 2.5 11.5C2.5 12.6046 3.39543 13.5 4.5 13.5C5.60457 13.5 6.5 12.6046 6.5 11.5C6.5 11.1291 6.39667 10.7831 6.2207 10.4854L4.85352 11.8535C4.65832 12.0484 4.34168 12.0484 4.14648 11.8535C3.95143 11.6582 3.95129 11.3407 4.14648 11.1455L5.51367 9.77734C5.21625 9.60195 4.87027 9.5 4.5 9.5Z" fill="currentColor"/>
<path fill-rule="evenodd" clip-rule="evenodd" d="M11.5 8.5C13.1569 8.5 14.5 9.84315 14.5 11.5C14.5 13.1569 13.1569 14.5 11.5 14.5C9.84315 14.5 8.5 13.1569 8.5 11.5C8.5 9.84315 9.84315 8.5 11.5 8.5ZM11.5 9.5C10.5683 9.5 9.78765 10.1377 9.56543 11H11.5C11.7761 11 12 11.2239 12 11.5C12 11.7761 11.7761 12 11.5 12H9.56543C9.78765 12.8623 10.5683 13.5 11.5 13.5C12.6046 13.5 13.5 12.6046 13.5 11.5C13.5 10.3954 12.6046 9.5 11.5 9.5Z" fill="currentColor"/>
<path fill-rule="evenodd" clip-rule="evenodd" d="M4.5 1.5C6.15685 1.5 7.5 2.84315 7.5 4.5C7.5 6.15685 6.15685 7.5 4.5 7.5C2.84315 7.5 1.5 6.15685 1.5 4.5C1.5 2.84315 2.84315 1.5 4.5 1.5ZM5 4.5C5 4.77614 4.77614 5 4.5 5C4.22386 5 4 4.77614 4 4.5V2.56543C3.13768 2.78765 2.5 3.56829 2.5 4.5C2.5 5.60457 3.39543 6.5 4.5 6.5C5.60457 6.5 6.5 5.60457 6.5 4.5C6.5 3.56829 5.86232 2.78765 5 2.56543V4.5Z" fill="currentColor"/>
<path fill-rule="evenodd" clip-rule="evenodd" d="M11.5 1.5C13.1569 1.5 14.5 2.84315 14.5 4.5C14.5 5.29883 14.1848 6.02196 13.6758 6.55957C13.66 6.58172 13.6439 6.60415 13.624 6.62402C13.6042 6.6439 13.5817 6.65995 13.5596 6.67578C13.022 7.18485 12.2988 7.5 11.5 7.5C9.84315 7.5 8.5 6.15685 8.5 4.5C8.5 2.84315 9.84315 1.5 11.5 1.5ZM11.5 2.5C10.3954 2.5 9.5 3.39543 9.5 4.5C9.5 5.60457 10.3954 6.5 11.5 6.5C11.8704 6.5 12.2162 6.39722 12.5137 6.22168L11.1465 4.85352C10.9512 4.65825 10.9512 4.34175 11.1465 4.14648C11.3417 3.95122 11.6583 3.95122 11.8535 4.14648L13.2217 5.51367C13.3972 5.21616 13.5 4.87045 13.5 4.5C13.5 3.39543 12.6046 2.5 11.5 2.5Z" fill="currentColor"/>
</svg>
