<svg width="16" height="16" viewBox="0 0 16 16" fill="none" xmlns="http://www.w3.org/2000/svg">
<path fill-rule="evenodd" clip-rule="evenodd" d="M5.10969 3.5C6.42399 3.5 7.49915 4.56195 7.49934 5.88965V11C7.49934 11.8261 6.82548 12.5 5.99934 12.5C5.1735 12.4996 4.49934 11.8259 4.49934 11V8.44824C3.23139 8.18777 2.31587 6.95981 2.53645 5.58105V5.5791C2.74185 4.32217 3.90256 3.50015 5.10969 3.5ZM5.10969 4.5C4.31799 4.50015 3.63853 5.03668 3.52277 5.73828C3.40088 6.50024 3.84917 7.17673 4.50031 7.41113V6C4.50031 5.72386 4.72417 5.5 5.00031 5.5C5.27631 5.50017 5.50031 5.72396 5.50031 6L5.49934 11C5.49934 11.2736 5.72578 11.4996 5.99934 11.5C6.27319 11.5 6.49934 11.2739 6.49934 11V5.88965C6.49915 5.11768 5.87515 4.5 5.10969 4.5Z" fill="currentColor"/>
<path fill-rule="evenodd" clip-rule="evenodd" d="M10.89 3.5C12.0217 3.50013 13.1132 4.2226 13.4144 5.34863L13.4642 5.5791V5.58105C13.6847 6.9599 12.7684 8.18793 11.5003 8.44824V11C11.5003 11.826 10.8263 12.4998 10.0003 12.5C9.17417 12.5 8.50031 11.8261 8.50031 11V5.88965C8.5005 4.56207 9.57582 3.50019 10.89 3.5ZM10.89 4.5C10.1247 4.50019 9.5005 5.11779 9.50031 5.88965V11C9.50031 11.2739 9.72645 11.5 10.0003 11.5C10.274 11.4998 10.5003 11.2738 10.5003 11V6C10.5003 5.72386 10.7242 5.5 11.0003 5.5C11.2763 5.50017 11.5003 5.72396 11.5003 6V7.41211C12.1508 7.17791 12.5981 6.50157 12.4769 5.74023L12.4486 5.61035C12.2763 4.97256 11.6327 4.50013 10.89 4.5Z" fill="currentColor"/>
</svg>
