<svg width="16" height="16" viewBox="0 0 16 16" fill="none" xmlns="http://www.w3.org/2000/svg">
<path d="M9 12C9.27614 12 9.5 12.2239 9.5 12.5C9.5 12.7761 9.27614 13 9 13H7C6.72386 13 6.5 12.7761 6.5 12.5C6.5 12.2239 6.72386 12 7 12H9Z" fill="currentColor"/>
<path d="M9.14648 5.14648C9.34175 4.95122 9.65825 4.95122 9.85352 5.14648C10.0488 5.34175 10.0488 5.65825 9.85352 5.85352L8.70703 7L9.85352 8.14648C10.0488 8.34175 10.0488 8.65825 9.85352 8.85352C9.65825 9.04877 9.34175 9.04877 9.14648 8.85352L8 7.70703L6.85352 8.85352C6.65825 9.04877 6.34175 9.04877 6.14648 8.85352C5.95122 8.65825 5.95123 8.34175 6.14648 8.14648L7.29297 7L6.14648 5.85352C5.95122 5.65825 5.95123 5.34175 6.14648 5.14648C6.34175 4.95122 6.65825 4.95122 6.85352 5.14648L8 6.29297L9.14648 5.14648Z" fill="currentColor"/>
<path fill-rule="evenodd" clip-rule="evenodd" d="M11 1.5C11.8284 1.5 12.5 2.17157 12.5 3V13C12.5 13.8284 11.8284 14.5 11 14.5H5C4.17157 14.5 3.5 13.8284 3.5 13V3C3.5 2.17157 4.17157 1.5 5 1.5H11ZM5 2.5C4.72386 2.5 4.5 2.72386 4.5 3V13C4.5 13.2761 4.72386 13.5 5 13.5H11C11.2761 13.5 11.5 13.2761 11.5 13V3C11.5 2.72386 11.2761 2.5 11 2.5H5Z" fill="currentColor"/>
</svg>
