<svg width="16" height="16" viewBox="0 0 16 16" fill="none" xmlns="http://www.w3.org/2000/svg">
<path d="M10 12C10.2761 12 10.5 12.2239 10.5 12.5C10.5 12.7761 10.2761 13 10 13H6C5.72386 13 5.5 12.7761 5.5 12.5C5.5 12.2239 5.72386 12 6 12H10Z" fill="currentColor"/>
<path d="M10 10C10.2761 10 10.5 10.2239 10.5 10.5C10.5 10.7761 10.2761 11 10 11H6C5.72386 11 5.5 10.7761 5.5 10.5C5.5 10.2239 5.72386 10 6 10H10Z" fill="currentColor"/>
<path d="M12 6C12.2761 6 12.5 6.22386 12.5 6.5C12.5 6.77614 12.2761 7 12 7H10C9.72386 7 9.5 6.77614 9.5 6.5C9.5 6.22386 9.72386 6 10 6H12Z" fill="currentColor"/>
<path fill-rule="evenodd" clip-rule="evenodd" d="M11 1C11.8261 1 12.5 1.67386 12.5 2.5V4H13C13.8261 4 14.5 4.67386 14.5 5.5V10.5C14.5 11.3261 13.8261 12 13 12H12.5V13.5C12.5 14.3261 11.8261 15 11 15H5C4.17386 15 3.5 14.3261 3.5 13.5V12H3C2.17386 12 1.5 11.3261 1.5 10.5V5.5C1.5 4.67386 2.17386 4 3 4H3.5V2.5C3.5 1.67386 4.17386 1 5 1H11ZM4.5 13.5C4.5 13.7739 4.72614 14 5 14H11C11.2739 14 11.5 13.7739 11.5 13.5V9H4.5V13.5ZM3 5C2.72614 5 2.5 5.22614 2.5 5.5V10.5C2.5 10.7739 2.72614 11 3 11H3.5V8.5C3.5 8.22386 3.72386 8 4 8H12C12.2761 8 12.5 8.22386 12.5 8.5V11H13C13.2739 11 13.5 10.7739 13.5 10.5V5.5C13.5 5.22614 13.2739 5 13 5H3ZM5 2C4.72614 2 4.5 2.22614 4.5 2.5V4H11.5V2.5C11.5 2.22614 11.2739 2 11 2H5Z" fill="currentColor"/>
</svg>
