<svg width="16" height="16" viewBox="0 0 16 16" fill="none" xmlns="http://www.w3.org/2000/svg">
<path d="M8 8.5C8.27614 8.5 8.5 8.72386 8.5 9C8.5 9.27614 8.27614 9.5 8 9.5C7.72386 9.5 7.5 9.27614 7.5 9C7.5 8.72386 7.72386 8.5 8 8.5Z" fill="black"/>
<path fill-rule="evenodd" clip-rule="evenodd" d="M12 3C13.3807 3 14.5 4.11929 14.5 5.5V10.5C14.5 11.8807 13.3807 13 12 13H4C2.61929 13 1.5 11.8807 1.5 10.5V5.5C1.5 4.11929 2.61929 3 4 3H12ZM2.5 10.5C2.5 11.3284 3.17157 12 4 12H12C12.8284 12 13.5 11.3284 13.5 10.5V7.5H2.5V10.5ZM4 4C3.17157 4 2.5 4.67157 2.5 5.5V6.5H13.5V5.5C13.5 4.67157 12.8284 4 12 4H4Z" fill="black"/>
</svg>
