<svg width="16" height="16" viewBox="0 0 16 16" fill="none" xmlns="http://www.w3.org/2000/svg">
<path fill-rule="evenodd" clip-rule="evenodd" d="M8.01044 1.5C11.5254 1.50027 14.1719 4.71835 13.4802 8.17773L12.8503 11.3047L12.8513 11.3057C12.7271 11.9403 12.21 12.4105 11.5808 12.4873L11.3981 13.3271C11.2478 14.0166 10.6342 14.5107 9.92939 14.5107H9.90888C9.69979 15.0874 9.14856 15.5 8.4997 15.5H7.4997C6.67141 15.4998 5.9997 14.8283 5.9997 14C5.9997 13.1717 6.67141 12.5002 7.4997 12.5H8.4997C9.15662 12.5 9.71369 12.9228 9.91669 13.5107H9.92939C10.1641 13.5107 10.3714 13.344 10.4216 13.1143L10.6042 12.2695C10.1121 11.9557 9.82646 11.3609 9.9499 10.7334V10.7314L10.3601 8.69141C10.497 7.99823 11.1019 7.50001 11.8102 7.5C12.0815 7.50005 12.3322 7.57262 12.5476 7.69629C12.9207 4.96712 10.798 2.50026 8.01044 2.5C5.21298 2.5 3.09816 4.96753 3.47333 7.69824C3.68858 7.57377 3.93922 7.5 4.21064 7.5C4.9187 7.50029 5.52296 7.99846 5.65986 8.69141L6.07001 10.7314L6.07099 10.7324C6.25197 11.6392 5.55733 12.4998 4.61982 12.5C3.91079 12.4998 3.30551 12 3.16962 11.3057L2.53974 8.17871C1.84821 4.71989 4.48459 1.5 8.01044 1.5ZM7.4997 13.5C7.2237 13.5002 6.9997 13.724 6.9997 14C6.9997 14.276 7.2237 14.4998 7.4997 14.5H8.4997C8.77584 14.5 8.9997 14.2761 8.9997 14C8.9997 13.7239 8.77584 13.5 8.4997 13.5H7.4997ZM4.21064 8.5C3.90849 8.5 3.68233 8.77937 3.74091 9.07227L4.11005 10.9014C4.11159 10.9091 4.11083 10.9171 4.11201 10.9248L4.15009 11.1113L4.15107 11.1143C4.19527 11.3394 4.38938 11.4998 4.61982 11.5C4.92181 11.4998 5.14807 11.2205 5.08955 10.9277L4.68037 8.88867L4.67939 8.88574C4.63521 8.66066 4.44102 8.50029 4.21064 8.5ZM11.8102 8.5C11.5796 8.50001 11.3847 8.66043 11.3405 8.88574V8.88867L10.9304 10.9258C10.871 11.2278 11.0961 11.4999 11.4001 11.5C11.6307 11.4999 11.8257 11.3395 11.8698 11.1143V11.1113L11.9069 10.9219C11.908 10.9151 11.9085 10.9082 11.9099 10.9014L12.28 9.07129C12.3378 8.77023 12.1135 8.50016 11.8102 8.5Z" fill="currentColor"/>
</svg>
