<svg width="16" height="16" viewBox="0 0 16 16" fill="none" xmlns="http://www.w3.org/2000/svg">
<path fill-rule="evenodd" clip-rule="evenodd" d="M5 6.25C5.9665 6.25 6.75 7.0335 6.75 8C6.75 8.9665 5.9665 9.75 5 9.75C4.0335 9.75 3.25 8.9665 3.25 8C3.25 7.0335 4.0335 6.25 5 6.25ZM5 7.25C4.58579 7.25 4.25 7.58579 4.25 8C4.25 8.41421 4.58579 8.75 5 8.75C5.41421 8.75 5.75 8.41421 5.75 8C5.75 7.58579 5.41421 7.25 5 7.25Z" fill="black"/>
<path fill-rule="evenodd" clip-rule="evenodd" d="M11 6.25C11.9665 6.25 12.75 7.0335 12.75 8C12.75 8.9665 11.9665 9.75 11 9.75C10.0335 9.75 9.25 8.9665 9.25 8C9.25 7.0335 10.0335 6.25 11 6.25ZM11 7.25C10.5858 7.25 10.25 7.58579 10.25 8C10.25 8.41421 10.5858 8.75 11 8.75C11.4142 8.75 11.75 8.41421 11.75 8C11.75 7.58579 11.4142 7.25 11 7.25Z" fill="black"/>
<path fill-rule="evenodd" clip-rule="evenodd" d="M12 4.5C13.3761 4.5 14.5 5.62386 14.5 7V9C14.5 10.3761 13.3761 11.5 12 11.5H10.4404C10.4383 11.5 10.4357 11.4991 10.4336 11.499C9.369 11.4921 8.41561 10.8114 8.07715 9.79297C8.06829 9.76774 8.05742 9.75802 8.0498 9.75293C8.03908 9.74587 8.02179 9.74023 8.00098 9.74023C7.98008 9.74029 7.96514 9.74647 7.95703 9.75195C7.95215 9.75526 7.94323 9.76183 7.93555 9.78516L7.93457 9.78613C7.5963 10.8135 6.63305 11.5 5.55957 11.5H4C2.62386 11.5 1.5 10.3761 1.5 9V7C1.5 5.62386 2.62386 4.5 4 4.5H12ZM4 5.5C3.17614 5.5 2.5 6.17614 2.5 7V9C2.5 9.82386 3.17614 10.5 4 10.5H5.55957C6.2057 10.5 6.78232 10.0867 6.98438 9.47461C7.28851 8.54432 8.5224 8.51135 8.94824 9.29785L9.02246 9.4668L9.02539 9.47363C9.22716 10.0862 9.80373 10.5 10.4502 10.5H12C12.8239 10.5 13.5 9.82386 13.5 9V7C13.5 6.17614 12.8239 5.5 12 5.5H4Z" fill="black"/>
</svg>
