<svg width="16" height="16" viewBox="0 0 16 16" fill="none" xmlns="http://www.w3.org/2000/svg">
<path fill-rule="evenodd" clip-rule="evenodd" d="M11 5.5C11.2761 5.5 11.5 5.72386 11.5 6V12C11.5 12.2761 11.2761 12.5 11 12.5H5C4.72386 12.5 4.5 12.2761 4.5 12V6C4.5 5.72386 4.72386 5.5 5 5.5H11ZM5.5 11.5H6.5V10.5H5.5V11.5ZM5.5 7.5H7C7.27614 7.5 7.5 7.72386 7.5 8V11.5H8.5V6.5H5.5V7.5ZM9.5 11.5H10.5V10.5H9.5V11.5ZM5.5 9.5H6.5V8.5H5.5V9.5ZM9.5 8.5V9.5H10.5V8.5H9.5ZM9.5 7.5H10.5V6.5H9.5V7.5Z" fill="currentColor"/>
<path fill-rule="evenodd" clip-rule="evenodd" d="M9.74121 1.50781C10.04 1.5382 10.3129 1.6573 10.5361 1.83398L10.6436 1.92676L13.0635 4.34668C13.3506 4.63388 13.5 5.01253 13.5 5.41016V13C13.5 13.8261 12.8261 14.5 12 14.5H4C3.17386 14.5 2.5 13.8261 2.5 13V3C2.5 2.17386 3.17386 1.5 4 1.5H9.58984L9.74121 1.50781ZM4 2.5C3.72614 2.5 3.5 2.72614 3.5 3V13C3.5 13.2739 3.72614 13.5 4 13.5H12C12.2739 13.5 12.5 13.2739 12.5 13V5.41016C12.5 5.26786 12.4492 5.14649 12.3564 5.05371L9.95605 2.65332L9.87305 2.58691C9.81491 2.54879 9.75207 2.52284 9.6875 2.50977L9.58984 2.5H4Z" fill="currentColor"/>
</svg>
