<svg width="16" height="16" viewBox="0 0 16 16" fill="none" xmlns="http://www.w3.org/2000/svg">
<path fill-rule="evenodd" clip-rule="evenodd" d="M12 3C12.8261 3 13.5 3.67386 13.5 4.5V10H14.5C14.7761 10 15 10.2239 15 10.5V11.5C15 12.3261 14.3261 13 13.5 13H2.5C1.67386 13 1 12.3261 1 11.5V10.5C1 10.2239 1.22386 10 1.5 10H2.5V4.5C2.5 3.67386 3.17386 3 4 3H12ZM2 11.5C2 11.7739 2.22614 12 2.5 12H13.5C13.7739 12 14 11.7739 14 11.5V11H2V11.5ZM4 4C3.72614 4 3.5 4.22614 3.5 4.5V10H12.5V4.5C12.5 4.22614 12.2739 4 12 4H4Z" fill="black"/>
</svg>
