<svg width="16" height="16" viewBox="0 0 16 16" fill="none" xmlns="http://www.w3.org/2000/svg">
<path d="M8 4.5C8.27614 4.5 8.5 4.72386 8.5 5V7C8.5 7.27614 8.27614 7.5 8 7.5C7.72386 7.5 7.5 7.27614 7.5 7V5C7.5 4.72386 7.72386 4.5 8 4.5Z" fill="black"/>
<path fill-rule="evenodd" clip-rule="evenodd" d="M8 1.5C10.4853 1.5 12.5 3.51472 12.5 6V10C12.5 12.4853 10.4853 14.5 8 14.5C5.51472 14.5 3.5 12.4853 3.5 10V6C3.5 3.51472 5.51472 1.5 8 1.5ZM8 2.5C6.067 2.5 4.5 4.067 4.5 6V10C4.5 11.933 6.067 13.5 8 13.5C9.933 13.5 11.5 11.933 11.5 10V6C11.5 4.067 9.933 2.5 8 2.5Z" fill="black"/>
</svg>
