<svg width="16" height="16" viewBox="0 0 16 16" fill="none" xmlns="http://www.w3.org/2000/svg">
<path fill-rule="evenodd" clip-rule="evenodd" d="M5 6.5C5.82843 6.5 6.5 7.17157 6.5 8C6.5 8.82843 5.82843 9.5 5 9.5C4.17157 9.5 3.5 8.82843 3.5 8C3.5 7.17157 4.17157 6.5 5 6.5ZM5 7.5C4.72386 7.5 4.5 7.72386 4.5 8C4.5 8.27614 4.72386 8.5 5 8.5C5.27614 8.5 5.5 8.27614 5.5 8C5.5 7.72386 5.27614 7.5 5 7.5Z" fill="black"/>
<path fill-rule="evenodd" clip-rule="evenodd" d="M11 6.5C11.8284 6.5 12.5 7.17157 12.5 8C12.5 8.82843 11.8284 9.5 11 9.5C10.1716 9.5 9.5 8.82843 9.5 8C9.5 7.17157 10.1716 6.5 11 6.5ZM11 7.5C10.7239 7.5 10.5 7.72386 10.5 8C10.5 8.27614 10.7239 8.5 11 8.5C11.2761 8.5 11.5 8.27614 11.5 8C11.5 7.72386 11.2761 7.5 11 7.5Z" fill="black"/>
<path fill-rule="evenodd" clip-rule="evenodd" d="M12 4.5C13.3761 4.5 14.5 5.62386 14.5 7V9C14.5 10.3761 13.3761 11.5 12 11.5H10.4404C10.4383 11.5 10.4357 11.4991 10.4336 11.499C9.369 11.4921 8.41561 10.8114 8.07715 9.79297C8.06829 9.76774 8.05742 9.75802 8.0498 9.75293C8.03908 9.74587 8.02179 9.74023 8.00098 9.74023C7.98009 9.74029 7.96514 9.74647 7.95703 9.75195C7.95214 9.75526 7.94322 9.76184 7.93555 9.78516L7.93457 9.78613C7.5963 10.8135 6.63305 11.5 5.55957 11.5H4C2.62386 11.5 1.5 10.3761 1.5 9V7C1.5 5.62386 2.62386 4.5 4 4.5H12ZM4 5.5C3.17614 5.5 2.5 6.17614 2.5 7V9C2.5 9.82386 3.17614 10.5 4 10.5H5.55957C6.2057 10.5 6.78232 10.0867 6.98438 9.47461C7.28851 8.54432 8.5224 8.51135 8.94824 9.29785L9.02246 9.4668L9.02539 9.47363C9.22717 10.0862 9.80373 10.5 10.4502 10.5H12C12.8239 10.5 13.5 9.82386 13.5 9V7C13.5 6.17614 12.8239 5.5 12 5.5H4Z" fill="black"/>
</svg>
