<svg width="16" height="16" viewBox="0 0 16 16" fill="none" xmlns="http://www.w3.org/2000/svg">
<path fill-rule="evenodd" clip-rule="evenodd" d="M6.02344 1.49512C6.78147 1.54502 7.4759 1.9401 7.9082 2.55469L7.99707 2.68945L10.1611 6.25586L13.3838 6.44043C13.9235 6.46676 14.43 6.70343 14.8037 7.07715C15.2702 7.54409 15.2961 8.29547 14.8828 8.79492C14.8608 8.83375 14.8358 8.8712 14.8037 8.90332C14.424 9.28294 13.9191 9.50082 13.3965 9.53906H13.3887L10.1611 9.72363L7.99805 13.2861L7.99902 13.2871C7.54665 14.0409 6.73175 14.4901 5.86035 14.4902H4.99023C4.82407 14.4902 4.66815 14.4073 4.5752 14.2695C4.48247 14.1318 4.46422 13.9567 4.52637 13.8027L6.19238 9.67969L4.28613 9.5166L3.71777 10.6631L3.7168 10.6641C3.46071 11.1757 2.93616 11.4902 2.37988 11.4902H2C1.72394 11.4902 1.50013 11.2663 1.5 10.9902V4.99023C1.5 4.71409 1.72386 4.49023 2 4.49023H2.37988C2.93755 4.49023 3.46811 4.79713 3.71777 5.31738L4.28613 6.46289L6.19238 6.2998L4.52637 2.17773C4.46414 2.02379 4.48252 1.84869 4.5752 1.71094C4.66814 1.57312 4.824 1.49023 4.99023 1.49023H5.86035L6.02344 1.49512ZM7.37402 6.55273C7.43337 6.6998 7.41892 6.8668 7.33594 7.00195C7.25296 7.13687 7.11092 7.22462 6.95312 7.23828L4.03223 7.48828C3.82789 7.5056 3.63334 7.39649 3.54199 7.21289L2.82227 5.7627L2.81738 5.75293C2.76017 5.63156 2.64413 5.5388 2.5 5.50488V10.4736C2.63618 10.4389 2.7568 10.3477 2.82227 10.2178L3.54199 8.76758C3.6333 8.58386 3.82781 8.47485 4.03223 8.49219L6.95312 8.74219C7.11098 8.75586 7.25298 8.84351 7.33594 8.97852C7.41886 9.11371 7.43344 9.28068 7.37402 9.42773L5.73145 13.4902H5.86035C6.38846 13.4901 6.87403 13.2191 7.1416 12.7734L7.14258 12.7705L9.44238 8.98047C9.52778 8.83989 9.67757 8.75063 9.8418 8.74121L13.3311 8.54102C13.5958 8.52009 13.8417 8.41751 14.0332 8.25293C14.0514 8.22563 14.0732 8.20029 14.0967 8.17676C14.2012 8.07215 14.201 7.88896 14.0967 7.78418C13.8905 7.57798 13.6161 7.4532 13.3359 7.43945H13.3311L9.8418 7.23926C9.67763 7.22985 9.5278 7.14048 9.44238 7L7.14258 3.20996C6.90631 2.82377 6.50264 2.56216 6.05469 2.50293L5.86035 2.49023H5.73145L7.37402 6.55273Z" fill="currentColor"/>
</svg>
