<svg width="16" height="16" viewBox="0 0 16 16" fill="none" xmlns="http://www.w3.org/2000/svg">
<path fill-rule="evenodd" clip-rule="evenodd" d="M8.5655 1.75187C8.67793 1.55519 8.90903 1.45857 9.128 1.51652C9.34707 1.57473 9.50006 1.77324 9.50007 1.99992V6.49992H11.0001C11.1783 6.49995 11.3432 6.59481 11.4327 6.74894C11.5221 6.903 11.5229 7.09329 11.4346 7.24797L7.43464 14.248C7.32224 14.4447 7.09112 14.5412 6.87214 14.4833C6.65302 14.4251 6.50007 14.2266 6.50007 13.9999V9.49992H5.00007C4.82184 9.49992 4.65692 9.40505 4.56745 9.2509C4.47807 9.09682 4.4772 8.90657 4.5655 8.75187L8.5655 1.75187ZM5.86238 8.49992H7.00007C7.27616 8.49997 7.50005 8.72382 7.50007 8.99992V12.1161L10.1378 7.49992H9.00007C8.72393 7.49992 8.50007 7.27606 8.50007 6.99992V3.88273L5.86238 8.49992Z" fill="currentColor"/>
<path d="M1.66609 5.16691C1.86132 4.97168 2.17785 4.97173 2.37312 5.16691C2.5682 5.36219 2.56832 5.67874 2.37312 5.87394C1.19877 7.04871 1.19851 8.9425 2.37312 10.1171C2.56819 10.3124 2.56832 10.6289 2.37312 10.8241C2.17788 11.0189 1.86121 11.019 1.66609 10.8241C0.100953 9.259 0.10121 6.7322 1.66609 5.16691Z" fill="currentColor"/>
<path d="M13.627 5.16691C13.8223 4.97166 14.1388 4.97165 14.3341 5.16691C15.8988 6.7322 15.8991 9.25903 14.3341 10.8241C14.139 11.0191 13.8223 11.0188 13.627 10.8241C13.4318 10.6289 13.4319 10.3124 13.627 10.1171C14.8016 8.94252 14.8013 7.04871 13.627 5.87394C13.4318 5.67868 13.4318 5.36217 13.627 5.16691Z" fill="currentColor"/>
<path d="M3.08894 6.5839C3.28581 6.39037 3.60237 6.39299 3.79597 6.58976C3.98952 6.78668 3.98699 7.10321 3.79011 7.29679C3.40147 7.67924 3.39674 8.31065 3.79304 8.70695C3.98828 8.90221 3.98829 9.21873 3.79304 9.41398C3.59775 9.60875 3.28111 9.60906 3.08601 9.41398C2.30261 8.63058 2.29847 7.36154 3.08894 6.5839Z" fill="currentColor"/>
<path d="M12.2032 6.58976C12.3968 6.39295 12.7133 6.39041 12.9102 6.5839C13.7011 7.3615 13.6967 8.63044 12.9132 9.41398C12.7179 9.60875 12.4012 9.60902 12.2061 9.41398C12.0111 9.21887 12.0114 8.90223 12.2061 8.70695C12.6025 8.31053 12.5981 7.67921 12.2091 7.29679C12.0124 7.10333 12.0101 6.78667 12.2032 6.58976Z" fill="currentColor"/>
</svg>
