<svg width="16" height="16" viewBox="0 0 16 16" fill="none" xmlns="http://www.w3.org/2000/svg">
<path d="M8 7.49986C8.2761 7.49986 8.49993 7.72377 8.5 7.99986V8.99986C8.5 9.276 8.27614 9.49986 8 9.49986C7.72386 9.49986 7.5 9.276 7.5 8.99986V7.99986C7.50007 7.72377 7.7239 7.49986 8 7.49986Z" fill="black"/>
<path fill-rule="evenodd" clip-rule="evenodd" d="M8 5.49986C9.93295 5.49986 11.4999 7.06692 11.5 8.99986V10.9999C11.5 12.9329 9.933 14.4999 8 14.4999C6.067 14.4999 4.5 12.9329 4.5 10.9999V8.99986C4.50007 7.06692 6.06705 5.49986 8 5.49986ZM8 6.49986C6.61933 6.49986 5.50007 7.6192 5.5 8.99986V10.9999C5.5 12.3806 6.61929 13.4999 8 13.4999C9.38071 13.4999 10.5 12.3806 10.5 10.9999V8.99986C10.4999 7.6192 9.38067 6.49986 8 6.49986Z" fill="black"/>
<path d="M6.64648 4.0565C7.3917 3.3115 8.6083 3.3115 9.35352 4.0565C9.54851 4.25171 9.54851 4.56832 9.35352 4.76353C9.15831 4.95851 8.84169 4.95852 8.64648 4.76353C8.29179 4.40905 7.70821 4.40905 7.35352 4.76353C7.15831 4.95851 6.84169 4.95852 6.64648 4.76353C6.45149 4.56832 6.4515 4.25171 6.64648 4.0565Z" fill="black"/>
<path d="M5.22754 2.64536C6.7617 1.12265 9.23767 1.12053 10.7637 2.64634C10.9587 2.84153 10.9586 3.15815 10.7637 3.35337C10.5685 3.54847 10.2519 3.54842 10.0566 3.35337C8.92264 2.21956 7.07834 2.21823 5.93262 3.35533C5.73672 3.54964 5.42011 3.54804 5.22559 3.3524C5.03114 3.15648 5.03179 2.83991 5.22754 2.64536Z" fill="black"/>
</svg>
