<svg width="16" height="16" viewBox="0 0 16 16" fill="none" xmlns="http://www.w3.org/2000/svg">
<path d="M4 10.5C4.27614 10.5 4.5 10.7239 4.5 11C4.5 11.2761 4.27614 11.5 4 11.5C3.72386 11.5 3.5 11.2761 3.5 11C3.5 10.7239 3.72386 10.5 4 10.5Z" fill="currentColor"/>
<path d="M10 10.5C10.2761 10.5 10.5 10.7239 10.5 11C10.5 11.2761 10.2761 11.5 10 11.5H6C5.72386 11.5 5.5 11.2761 5.5 11C5.5 10.7239 5.72386 10.5 6 10.5H10Z" fill="currentColor"/>
<path d="M12 10.5C12.2761 10.5 12.5 10.7239 12.5 11C12.5 11.2761 12.2761 11.5 12 11.5C11.7239 11.5 11.5 11.2761 11.5 11C11.5 10.7239 11.7239 10.5 12 10.5Z" fill="currentColor"/>
<path d="M4 8.5C4.27614 8.5 4.5 8.72386 4.5 9C4.5 9.27614 4.27614 9.5 4 9.5C3.72386 9.5 3.5 9.27614 3.5 9C3.5 8.72386 3.72386 8.5 4 8.5Z" fill="currentColor"/>
<path d="M6 8.5C6.27614 8.5 6.5 8.72386 6.5 9C6.5 9.27614 6.27614 9.5 6 9.5C5.72386 9.5 5.5 9.27614 5.5 9C5.5 8.72386 5.72386 8.5 6 8.5Z" fill="currentColor"/>
<path d="M8 8.5C8.27614 8.5 8.5 8.72386 8.5 9C8.5 9.27614 8.27614 9.5 8 9.5C7.72386 9.5 7.5 9.27614 7.5 9C7.5 8.72386 7.72386 8.5 8 8.5Z" fill="currentColor"/>
<path d="M10 8.5C10.2761 8.5 10.5 8.72386 10.5 9C10.5 9.27614 10.2761 9.5 10 9.5C9.72386 9.5 9.5 9.27614 9.5 9C9.5 8.72386 9.72386 8.5 10 8.5Z" fill="currentColor"/>
<path d="M12 8.5C12.2761 8.5 12.5 8.72386 12.5 9C12.5 9.27614 12.2761 9.5 12 9.5C11.7239 9.5 11.5 9.27614 11.5 9C11.5 8.72386 11.7239 8.5 12 8.5Z" fill="currentColor"/>
<path fill-rule="evenodd" clip-rule="evenodd" d="M13 6.5C13.8284 6.5 14.5 7.17157 14.5 8V12C14.5 12.8284 13.8284 13.5 13 13.5H3C2.17157 13.5 1.5 12.8284 1.5 12V8C1.5 7.17157 2.17157 6.5 3 6.5H13ZM3 7.5C2.72386 7.5 2.5 7.72386 2.5 8V12C2.5 12.2761 2.72386 12.5 3 12.5H13C13.2761 12.5 13.5 12.2761 13.5 12V8C13.5 7.72386 13.2761 7.5 13 7.5H3Z" fill="currentColor"/>
<path d="M8 1.5C8.27614 1.5 8.5 1.72386 8.5 2V5C8.5 5.27614 8.27614 5.5 8 5.5C7.72386 5.5 7.5 5.27614 7.5 5V2C7.5 1.72386 7.72386 1.5 8 1.5Z" fill="currentColor"/>
</svg>
