<svg width="16" height="16" viewBox="0 0 16 16" fill="none" xmlns="http://www.w3.org/2000/svg">
<path d="M7 3.5C7.27614 3.5 7.5 3.72386 7.5 4V6C7.5 6.27614 7.27614 6.5 7 6.5C6.72386 6.5 6.5 6.27614 6.5 6V4C6.5 3.72386 6.72386 3.5 7 3.5Z" fill="black"/>
<path d="M9 3.5C9.27614 3.5 9.5 3.72386 9.5 4V6C9.5 6.27614 9.27614 6.5 9 6.5C8.72386 6.5 8.5 6.27614 8.5 6V4C8.5 3.72386 8.72386 3.5 9 3.5Z" fill="black"/>
<path d="M11 3.5C11.2761 3.5 11.5 3.72386 11.5 4V6C11.5 6.27614 11.2761 6.5 11 6.5C10.7239 6.5 10.5 6.27614 10.5 6V4C10.5 3.72386 10.7239 3.5 11 3.5Z" fill="black"/>
<path fill-rule="evenodd" clip-rule="evenodd" d="M12 1.5C12.8261 1.5 13.5 2.17386 13.5 3V13C13.5 13.8261 12.8261 14.5 12 14.5H4.10059C4.0681 14.5066 4.03445 14.5098 4 14.5098C3.17386 14.5098 2.5 13.8359 2.5 13.0098V8.41992C2.50002 8.02231 2.64933 7.64364 2.93652 7.35645L4.5 5.79297V3C4.5 2.17386 5.17386 1.5 6 1.5H12ZM6 2.5C5.72614 2.5 5.5 2.72614 5.5 3V6C5.5 6.13261 5.44728 6.25975 5.35352 6.35352L3.64355 8.06348C3.55079 8.15624 3.50002 8.27761 3.5 8.41992V13.0098C3.5 13.2664 3.69886 13.4789 3.94922 13.5049C3.96599 13.5032 3.98278 13.5 4 13.5H12C12.2739 13.5 12.5 13.2739 12.5 13V3C12.5 2.72614 12.2739 2.5 12 2.5H6Z" fill="black"/>
</svg>
