<svg width="16" height="16" viewBox="0 0 16 16" fill="none" xmlns="http://www.w3.org/2000/svg">
<path d="M12 6C12.2761 6 12.5 6.22386 12.5 6.5C12.5 6.77614 12.2761 7 12 7H10C9.72386 7 9.5 6.77614 9.5 6.5C9.5 6.22386 9.72386 6 10 6H12Z" fill="currentColor"/>
<path fill-rule="evenodd" clip-rule="evenodd" d="M11 1.5C11.8261 1.5 12.5 2.17386 12.5 3V4H13C13.8261 4 14.5 4.67386 14.5 5.5V10.5C14.5 11.3261 13.8261 12 13 12H12.5V13C12.5 13.8261 11.8261 14.5 11 14.5H5C4.17386 14.5 3.5 13.8261 3.5 13V12H3C2.17386 12 1.5 11.3261 1.5 10.5V5.5C1.5 4.67386 2.17386 4 3 4H3.5V3C3.5 2.17386 4.17386 1.5 5 1.5H11ZM4.5 13C4.5 13.2739 4.72614 13.5 5 13.5H11C11.2739 13.5 11.5 13.2739 11.5 13V9H4.5V13ZM3 5C2.72614 5 2.5 5.22614 2.5 5.5V10.5C2.5 10.7739 2.72614 11 3 11H3.5V8.5C3.5 8.22386 3.72386 8 4 8H12C12.2761 8 12.5 8.22386 12.5 8.5V11H13C13.2739 11 13.5 10.7739 13.5 10.5V5.5C13.5 5.22614 13.2739 5 13 5H3ZM5 2.5C4.72614 2.5 4.5 2.72614 4.5 3V4H11.5V3C11.5 2.72614 11.2739 2.5 11 2.5H5Z" fill="currentColor"/>
</svg>
