<svg width="16" height="16" viewBox="0 0 16 16" fill="none" xmlns="http://www.w3.org/2000/svg">
<path fill-rule="evenodd" clip-rule="evenodd" d="M8 1.5C11.5899 1.5 14.5 4.41015 14.5 8C14.5 11.5455 11.6613 14.4253 8.13281 14.4961C8.08737 14.5097 8.0401 14.5205 7.99023 14.5205C7.93936 14.5205 7.89098 14.5092 7.84473 14.4951C6.16116 14.4556 4.63677 13.7781 3.50391 12.6924C3.46589 12.6707 3.42892 12.6457 3.39648 12.6133C3.36376 12.5805 3.33816 12.5433 3.31641 12.5049C2.19226 11.3364 1.5 9.74946 1.5 8C1.5 4.41015 4.41015 1.5 8 1.5ZM9.7207 6.98535C9.89667 7.28312 10 7.62907 10 8C10 8.93518 9.35744 9.71767 8.49023 9.93652V13.4766C11.2981 13.2285 13.5 10.8723 13.5 8C13.5 6.66101 13.0209 5.43429 12.2256 4.48047L9.7207 6.98535ZM4.48535 12.2305C5.31583 12.9212 6.3529 13.371 7.49023 13.4756V9.93164C7.3129 9.88497 7.14568 9.81516 6.99121 9.72461L4.48535 12.2305ZM7.5 2.52344C4.69679 2.77609 2.5 5.13101 2.5 8C2.5 9.34097 2.9809 10.569 3.77832 11.5234L6.28223 9.01953C6.10447 8.72067 6 8.37297 6 8C6 7.06829 6.63768 6.28765 7.5 6.06543V2.52344ZM8 7C7.44772 7 7 7.44772 7 8C7 8.55228 7.44772 9 8 9C8.55228 9 9 8.55228 9 8C9 7.44772 8.55228 7 8 7ZM8.5 6.06543C8.68287 6.11256 8.85499 6.18469 9.01367 6.27832L11.5186 3.77344C10.685 3.07875 9.6431 2.62647 8.5 2.52344V6.06543Z" fill="black"/>
</svg>
