<svg width="16" height="16" viewBox="0 0 16 16" fill="none" xmlns="http://www.w3.org/2000/svg">
<path d="M5 7.49988C5.2761 7.49988 5.49993 7.7238 5.5 7.99988V8.49988H6C6.2761 8.49988 6.49993 8.7238 6.5 8.99988C6.5 9.27603 6.27614 9.49988 6 9.49988H5.5V9.99988C5.5 10.276 5.27614 10.4999 5 10.4999C4.72386 10.4999 4.5 10.276 4.5 9.99988V9.49988H4C3.72386 9.49988 3.5 9.27603 3.5 8.99988C3.50007 8.7238 3.7239 8.49988 4 8.49988H4.5V7.99988C4.50007 7.7238 4.7239 7.49988 5 7.49988Z" fill="black"/>
<path d="M11 9.49988C11.2761 9.49988 11.4999 9.7238 11.5 9.99988C11.5 10.276 11.2761 10.4999 11 10.4999C10.7239 10.4999 10.5 10.276 10.5 9.99988C10.5001 9.7238 10.7239 9.49988 11 9.49988Z" fill="black"/>
<path d="M10 8.49988C10.2761 8.49988 10.4999 8.7238 10.5 8.99988C10.5 9.27603 10.2761 9.49988 10 9.49988C9.72386 9.49988 9.5 9.27603 9.5 8.99988C9.50007 8.7238 9.7239 8.49988 10 8.49988Z" fill="black"/>
<path d="M12 8.49988C12.2761 8.49988 12.4999 8.7238 12.5 8.99988C12.5 9.27603 12.2761 9.49988 12 9.49988C11.7239 9.49988 11.5 9.27603 11.5 8.99988C11.5001 8.7238 11.7239 8.49988 12 8.49988Z" fill="black"/>
<path d="M11 7.49988C11.2761 7.49988 11.4999 7.7238 11.5 7.99988C11.5 8.27603 11.2761 8.49988 11 8.49988C10.7239 8.49988 10.5 8.27603 10.5 7.99988C10.5001 7.7238 10.7239 7.49988 11 7.49988Z" fill="black"/>
<path fill-rule="evenodd" clip-rule="evenodd" d="M11 5.49988C12.9361 5.49988 14.4999 7.0638 14.5 8.99988V12.0497C14.5 13.4058 13.4059 14.4999 12.0498 14.4999C11.2224 14.4998 10.4564 14.0859 10.0039 13.4071L8.73242 11.4999H7.26758L5.99219 13.413C5.53187 14.0845 4.76995 14.4998 3.9502 14.4999C2.67874 14.4999 1.63774 13.5384 1.5127 12.3007L1.5 12.0497V8.99988C1.50007 7.0638 3.0639 5.49988 5 5.49988H11ZM5 6.49988C3.61618 6.49988 2.50007 7.61608 2.5 8.99988V12.0497L2.50781 12.1991C2.58197 12.9322 3.19674 13.4999 3.9502 13.4999C4.42794 13.4998 4.8831 13.2572 5.16309 12.8524L6.58398 10.7225L6.62207 10.6727C6.71635 10.5638 6.85393 10.4999 7 10.4999H9C9.16714 10.4999 9.32328 10.5835 9.41602 10.7225L10.8359 12.8524C11.1033 13.2535 11.5574 13.4998 12.0498 13.4999C12.8537 13.4999 13.5 12.8535 13.5 12.0497V8.99988C13.4999 7.61608 12.3838 6.49988 11 6.49988H5Z" fill="black"/>
<path d="M6.64648 4.05652C7.3917 3.31152 8.6083 3.31152 9.35352 4.05652C9.5485 4.25174 9.54851 4.56835 9.35352 4.76356C9.15831 4.95854 8.8417 4.95853 8.64648 4.76356C8.29179 4.40908 7.70821 4.40908 7.35352 4.76356C7.15831 4.95854 6.8417 4.95853 6.64648 4.76356C6.45148 4.56834 6.45149 4.25174 6.64648 4.05652Z" fill="black"/>
<path d="M5.22754 2.64539C6.7617 1.12268 9.23767 1.12056 10.7637 2.64637C10.9587 2.84156 10.9586 3.15818 10.7637 3.3534C10.5685 3.5485 10.2519 3.54843 10.0566 3.3534C8.92264 2.2196 7.07834 2.21826 5.93262 3.35535C5.73673 3.54968 5.42011 3.54805 5.22559 3.35242C5.03113 3.15651 5.03178 2.83994 5.22754 2.64539Z" fill="black"/>
</svg>
