<svg width="16" height="16" viewBox="0 0 16 16" fill="none" xmlns="http://www.w3.org/2000/svg">
<path d="M8 7.5C8.27614 7.5 8.5 7.72386 8.5 8V9C8.5 9.27614 8.27614 9.5 8 9.5C7.72386 9.5 7.5 9.27614 7.5 9V8C7.5 7.72386 7.72386 7.5 8 7.5Z" fill="black"/>
<path fill-rule="evenodd" clip-rule="evenodd" d="M8 5.5C9.933 5.5 11.5 7.067 11.5 9V11C11.5 12.933 9.933 14.5 8 14.5C6.067 14.5 4.5 12.933 4.5 11V9C4.5 7.067 6.067 5.5 8 5.5ZM8 6.5C6.61929 6.5 5.5 7.61929 5.5 9V11C5.5 12.3807 6.61929 13.5 8 13.5C9.38071 13.5 10.5 12.3807 10.5 11V9C10.5 7.61929 9.38071 6.5 8 6.5Z" fill="black"/>
<path d="M8 1.5C8.27614 1.5 8.5 1.72386 8.5 2V4C8.5 4.27614 8.27614 4.5 8 4.5C7.72386 4.5 7.5 4.27614 7.5 4V2C7.5 1.72386 7.72386 1.5 8 1.5Z" fill="black"/>
</svg>
