<svg width="16" height="16" viewBox="0 0 16 16" fill="none" xmlns="http://www.w3.org/2000/svg">
<path d="M9 12C9.27614 12 9.5 12.2239 9.5 12.5C9.5 12.7761 9.27614 13 9 13H7C6.72386 13 6.5 12.7761 6.5 12.5C6.5 12.2239 6.72386 12 7 12H9Z" fill="currentColor"/>
<path d="M8 9C8.41421 9 8.75 9.33579 8.75 9.75C8.75 10.1642 8.41421 10.5 8 10.5C7.58579 10.5 7.25 10.1642 7.25 9.75C7.25 9.33579 7.58579 9 8 9Z" fill="currentColor"/>
<path d="M8 4.48047C8.88987 4.48047 9.6199 5.20979 9.62012 6.09961C9.62012 6.70961 9.22965 7.25 8.63965 7.5L8.45996 7.58008L8.50977 7.79004C8.50975 8.07003 8.28976 8.29004 8.00977 8.29004L8 8.2998C7.72 8.2998 7.5 8.0798 7.5 7.7998V7.51953C7.50019 7.13973 7.72046 6.81009 8.07031 6.66016L8.25 6.58008C8.45987 6.49013 8.61993 6.30024 8.62012 6.11035C8.62012 5.76035 8.34 5.48047 8 5.48047C7.66013 5.48047 7.3801 5.75979 7.37988 6.09961C7.37988 6.37961 7.15988 6.59961 6.87988 6.59961C6.59994 6.59955 6.37988 6.37957 6.37988 6.09961C6.3801 5.20979 7.11013 4.48047 8 4.48047Z" fill="currentColor"/>
<path fill-rule="evenodd" clip-rule="evenodd" d="M11 1.5C11.8284 1.5 12.5 2.17157 12.5 3V13C12.5 13.8284 11.8284 14.5 11 14.5H5C4.17157 14.5 3.5 13.8284 3.5 13V3C3.5 2.17157 4.17157 1.5 5 1.5H11ZM5 2.5C4.72386 2.5 4.5 2.72386 4.5 3V13C4.5 13.2761 4.72386 13.5 5 13.5H11C11.2761 13.5 11.5 13.2761 11.5 13V3C11.5 2.72386 11.2761 2.5 11 2.5H5Z" fill="currentColor"/>
</svg>
