<svg width="16" height="16" viewBox="0 0 16 16" fill="none" xmlns="http://www.w3.org/2000/svg">
<path d="M4 9.5C4.27614 9.5 4.5 9.72386 4.5 10V11C4.5 11.2761 4.27614 11.5 4 11.5C3.72386 11.5 3.5 11.2761 3.5 11V10C3.5 9.72386 3.72386 9.5 4 9.5Z" fill="black"/>
<path fill-rule="evenodd" clip-rule="evenodd" d="M13 6.5C13.8284 6.5 14.5 7.17157 14.5 8V13C14.5 13.8284 13.8284 14.5 13 14.5H3C2.17157 14.5 1.5 13.8284 1.5 13V8C1.5 7.17157 2.17157 6.5 3 6.5H13ZM3 7.5C2.72386 7.5 2.5 7.72386 2.5 8V13C2.5 13.2761 2.72386 13.5 3 13.5H13C13.2761 13.5 13.5 13.2761 13.5 13V8C13.5 7.72386 13.2761 7.5 13 7.5H3Z" fill="black"/>
<path d="M8 1.5C8.82614 1.5 9.5 2.17386 9.5 3V5C9.5 5.27614 9.27614 5.5 9 5.5C8.72386 5.5 8.5 5.27614 8.5 5V3C8.5 2.72614 8.27386 2.5 8 2.5H3C2.72614 2.5 2.5 2.72614 2.5 3V5C2.5 5.27614 2.27614 5.5 2 5.5C1.72386 5.5 1.5 5.27614 1.5 5V3C1.5 2.17386 2.17386 1.5 3 1.5H8Z" fill="black"/>
<path d="M12 1.5C12.8261 1.5 13.5 2.17386 13.5 3V3.79297L13.6465 3.64648C13.8417 3.45122 14.1583 3.45122 14.3535 3.64648C14.5488 3.84175 14.5488 4.15825 14.3535 4.35352L13.3535 5.35352C13.3328 5.37428 13.3096 5.39173 13.2861 5.4082C13.276 5.41533 13.2654 5.42145 13.2549 5.42773C13.2384 5.43758 13.2215 5.44628 13.2041 5.4541C13.1957 5.45789 13.1873 5.46154 13.1787 5.46484C13.1578 5.47286 13.1369 5.4802 13.1152 5.48535C13.1004 5.48887 13.0854 5.49103 13.0703 5.49316C13.0509 5.49594 13.0314 5.49758 13.0117 5.49805C13.0019 5.49828 12.9922 5.49839 12.9824 5.49805C12.9625 5.49735 12.9427 5.4953 12.9229 5.49219C12.9124 5.49056 12.9019 5.48959 12.8916 5.4873C12.8636 5.48107 12.8357 5.47315 12.8086 5.46191C12.7838 5.45163 12.7607 5.43859 12.7383 5.4248C12.7272 5.41795 12.7167 5.41015 12.7061 5.40234C12.6891 5.38997 12.6733 5.37659 12.6582 5.3623C12.6547 5.35898 12.6499 5.35696 12.6465 5.35352L11.6465 4.35352C11.4512 4.15825 11.4512 3.84175 11.6465 3.64648C11.8417 3.45122 12.1583 3.45122 12.3535 3.64648L12.5 3.79297V3C12.5 2.72614 12.2739 2.5 12 2.5H11C10.7239 2.5 10.5 2.27614 10.5 2C10.5 1.72386 10.7239 1.5 11 1.5H12Z" fill="black"/>
</svg>
