<svg width="16" height="16" viewBox="0 0 16 16" fill="none" xmlns="http://www.w3.org/2000/svg">
<path d="M8 6C8.27614 6 8.5 6.22386 8.5 6.5V8.29297L9.35352 9.14648C9.54878 9.34175 9.54878 9.65825 9.35352 9.85352C9.15825 10.0488 8.84175 10.0488 8.64648 9.85352L7.64648 8.85352C7.55272 8.75975 7.5 8.63261 7.5 8.5V6.5C7.5 6.22386 7.72386 6 8 6Z" fill="black"/>
<path fill-rule="evenodd" clip-rule="evenodd" d="M8.88965 1C9.48264 1 10.0023 1.41306 10.1201 2.00195L10.4287 3.54688C11.3272 3.74318 12 4.54265 12 5.5V10.5C12 11.4573 11.3271 12.2558 10.4287 12.4521L10.1201 13.998C10.0023 14.5869 9.48264 15 8.88965 15H7.12012C6.52712 15 6.00743 14.587 5.88965 13.998L5.58105 12.4541C4.67781 12.2614 4 11.4607 4 10.5V5.5C4 4.53919 4.67771 3.73756 5.58105 3.54492L5.88965 2.00195C6.00743 1.41305 6.52712 1.00001 7.12012 1H8.88965ZM6.60938 12.5L6.87012 13.8018C6.89233 13.9128 6.99312 14 7.12012 14H8.88965C9.01665 14 9.11743 13.9128 9.13965 13.8018L9.40039 12.5H6.60938ZM6 4.5C5.44772 4.5 5 4.94772 5 5.5V10.5C5 11.0523 5.44772 11.5 6 11.5H10C10.5523 11.5 11 11.0523 11 10.5V5.5C11 4.94772 10.5523 4.5 10 4.5H6ZM7.12012 2C6.99312 2.00001 6.89233 2.08716 6.87012 2.19824L6.60938 3.5H9.40039L9.13965 2.19824C9.11743 2.08715 9.01665 2 8.88965 2H7.12012Z" fill="black"/>
</svg>
