<svg width="16" height="16" viewBox="0 0 16 16" fill="none" xmlns="http://www.w3.org/2000/svg">
<path d="M9 12C9.27614 12 9.5 12.2239 9.5 12.5C9.5 12.7761 9.27614 13 9 13H7C6.72386 13 6.5 12.7761 6.5 12.5C6.5 12.2239 6.72386 12 7 12H9Z" fill="black"/>
<path d="M9.39648 5.64648C9.59175 5.45122 9.90825 5.45122 10.1035 5.64648C10.2988 5.84175 10.2988 6.15825 10.1035 6.35352L7.70312 8.75391C7.60939 8.84743 7.48203 8.90039 7.34961 8.90039C7.21714 8.90029 7.08977 8.84758 6.99609 8.75391L5.89648 7.65332C5.70132 7.45805 5.70126 7.14152 5.89648 6.94629C6.09172 6.75116 6.40828 6.75116 6.60352 6.94629L7.34961 7.69238L9.39648 5.64648Z" fill="black"/>
<path fill-rule="evenodd" clip-rule="evenodd" d="M11 1.5C11.8284 1.5 12.5 2.17157 12.5 3V13C12.5 13.8284 11.8284 14.5 11 14.5H5C4.17157 14.5 3.5 13.8284 3.5 13V3C3.5 2.17157 4.17157 1.5 5 1.5H11ZM5 2.5C4.72386 2.5 4.5 2.72386 4.5 3V13C4.5 13.2761 4.72386 13.5 5 13.5H11C11.2761 13.5 11.5 13.2761 11.5 13V3C11.5 2.72386 11.2761 2.5 11 2.5H5Z" fill="black"/>
</svg>
