<svg width="16" height="15" viewBox="0 0 16 15" fill="none" xmlns="http://www.w3.org/2000/svg">
<path fill-rule="evenodd" clip-rule="evenodd" d="M10.3799 1.40625C10.914 1.40625 11.4212 1.60708 11.7939 1.95648L13.9131 3.94318C14.2858 4.29258 14.5 4.76813 14.5 5.26886V12.1875C14.5 12.962 13.8261 13.5938 13 13.5938H3C2.17386 13.5938 1.5 12.962 1.5 12.1875V2.8125C1.5 2.03799 2.17386 1.40625 3 1.40625H10.3799ZM3 2.34375C2.72614 2.34375 2.5 2.55576 2.5 2.8125V12.1875C2.5 12.4442 2.72614 12.6562 3 12.6562H3.50879L3.5 8.43842C3.49974 8.31394 3.55269 8.19418 3.64648 8.10608C3.74025 8.01818 3.86739 7.96875 4 7.96875H12C12.2761 7.96875 12.5 8.17862 12.5 8.4375V12.6562H13C13.2739 12.6562 13.5 12.4442 13.5 12.1875V5.26886C13.5 5.01959 13.3934 4.78161 13.2061 4.60602L11.0869 2.61932C10.9281 2.47041 10.7213 2.37636 10.5 2.35107V5.625C10.5 5.88388 10.2761 6.09375 10 6.09375H4C3.72386 6.09375 3.5 5.88388 3.5 5.625V2.34375H3ZM4.50879 12.6562H11.5V8.90625H4.50098L4.50879 12.6562ZM4.5 5.15625H9.5V2.34375H4.5V5.15625Z" fill="currentColor"/>
</svg>
