<svg width="16" height="16" viewBox="0 0 16 16" fill="none" xmlns="http://www.w3.org/2000/svg">
<path d="M12.5 4C12.7761 4 13 4.22386 13 4.5V5.5C13 5.77614 12.7761 6 12.5 6C12.2239 6 12 5.77614 12 5.5V4.5C12 4.22386 12.2239 4 12.5 4Z" fill="black"/>
<path fill-rule="evenodd" clip-rule="evenodd" d="M13 2.5C13.8261 2.5 14.5 3.17386 14.5 4V11.5C14.5 12.3261 13.8261 13 13 13H10C9.79377 13 9.58896 12.9609 9.39844 12.8789C9.21158 12.949 9.01038 12.9902 8.7998 12.9902C8.22527 12.9902 7.68894 12.709 7.36523 12.2305L7.36426 12.2285L6.62305 11.1201H5.90723L5.16504 12.2285L5.16406 12.2305C4.84029 12.7089 4.30403 12.9902 3.72949 12.9902C2.84274 12.99 2.10705 12.3097 2.01855 11.4453L2.00977 11.2695V9.37012C2.00977 8.0658 3.06211 7.00013 4.37988 7H8.14941C8.26852 7 8.3855 7.01137 8.5 7.02832V4C8.5 3.17386 9.17386 2.5 10 2.5H13ZM10 3.5C9.72614 3.5 9.5 3.72614 9.5 4V7.42188C10.1152 7.84827 10.5195 8.55852 10.5195 9.37012V11.2695C10.5195 11.5306 10.4587 11.7777 10.3535 12H13C13.2739 12 13.5 11.7739 13.5 11.5V4C13.5 3.72614 13.2739 3.5 13 3.5H10ZM4.37988 8C3.61788 8.00013 3.00977 8.6146 3.00977 9.37012V11.2695L3.02441 11.4141C3.0922 11.7402 3.3851 11.99 3.72949 11.9902C3.97439 11.9902 4.19864 11.8716 4.33496 11.6709L5.37305 10.1201H7.15723L8.19434 11.6699L8.24902 11.7412C8.38653 11.8989 8.58516 11.9902 8.7998 11.9902C9.19365 11.9902 9.51953 11.6634 9.51953 11.2695V9.37012C9.51953 8.86854 9.25285 8.43497 8.85547 8.19629C8.79486 8.17793 8.73987 8.14869 8.69141 8.11035C8.5252 8.03909 8.34169 8 8.14941 8H4.37988Z" fill="black"/>
</svg>
