<svg width="16" height="16" viewBox="0 0 16 16" fill="none" xmlns="http://www.w3.org/2000/svg">
<path fill-rule="evenodd" clip-rule="evenodd" d="M8.00074 2C11.7855 2.00045 14.6224 5.45855 13.8806 9.16797L13.7605 9.76953L13.6912 10.1104L13.1502 12.8047L13.1511 12.8057C13.0153 13.5001 12.4091 13.9999 11.7 14C10.7642 13.9998 10.0692 13.1512 10.2498 12.2334V12.2314L10.8601 9.19141C10.997 8.49822 11.602 8 12.3103 8C12.559 8.00005 12.7901 8.06172 12.9929 8.16699C13.096 5.39945 10.879 3.00041 8.00074 3C5.12174 3 2.90296 5.39979 3.0066 8.16797C3.20943 8.06175 3.4411 8.00002 3.69019 8C4.39841 8.00014 5.00351 8.4983 5.14039 9.19141L5.75074 12.2314C5.93173 13.1382 5.23794 13.9997 4.30054 14C3.59132 14 2.98529 13.5002 2.84937 12.8057L2.11988 9.16797C1.37801 5.45829 4.21558 2 8.00074 2ZM3.69019 9C3.38936 9.00007 3.16351 9.27683 3.21949 9.56836L3.22535 9.5957L3.59058 11.4014C3.59218 11.4094 3.59132 11.4178 3.59253 11.4258L3.83082 12.6113V12.6143C3.87503 12.8395 4.06988 13 4.30054 13C4.60216 12.9997 4.82829 12.7212 4.77027 12.4287L4.15992 9.38867V9.38574C4.11576 9.16051 3.92075 9.00014 3.69019 9ZM12.3103 9C12.0796 9 11.8848 9.16043 11.8406 9.38574V9.38867L11.2302 12.4258C11.1708 12.7277 11.396 12.9998 11.7 13C11.9305 12.9999 12.1255 12.8395 12.1697 12.6143V12.6113L12.407 11.4258C12.4082 11.4177 12.4083 11.4094 12.4099 11.4014L12.7752 9.5957L12.78 9.56738C12.8353 9.26786 12.6122 9.00019 12.3103 9Z" fill="black"/>
</svg>
