<svg width="16" height="16" viewBox="0 0 16 16" fill="none" xmlns="http://www.w3.org/2000/svg">
<path d="M4 10.4999C4.2761 10.4999 4.49993 10.7238 4.5 10.9999C4.5 11.276 4.27614 11.4999 4 11.4999C3.72386 11.4999 3.5 11.276 3.5 10.9999C3.50007 10.7238 3.7239 10.4999 4 10.4999Z" fill="currentColor"/>
<path d="M10 10.4999C10.2761 10.4999 10.4999 10.7238 10.5 10.9999C10.5 11.276 10.2761 11.4999 10 11.4999H6C5.72386 11.4999 5.5 11.276 5.5 10.9999C5.50007 10.7238 5.7239 10.4999 6 10.4999H10Z" fill="currentColor"/>
<path d="M12 10.4999C12.2761 10.4999 12.4999 10.7238 12.5 10.9999C12.5 11.276 12.2761 11.4999 12 11.4999C11.7239 11.4999 11.5 11.276 11.5 10.9999C11.5001 10.7238 11.7239 10.4999 12 10.4999Z" fill="currentColor"/>
<path d="M4 8.49986C4.2761 8.49986 4.49993 8.72377 4.5 8.99986C4.5 9.276 4.27614 9.49986 4 9.49986C3.72386 9.49986 3.5 9.276 3.5 8.99986C3.50007 8.72377 3.7239 8.49986 4 8.49986Z" fill="currentColor"/>
<path d="M6 8.49986C6.2761 8.49986 6.49993 8.72377 6.5 8.99986C6.5 9.276 6.27614 9.49986 6 9.49986C5.72386 9.49986 5.5 9.276 5.5 8.99986C5.50007 8.72377 5.7239 8.49986 6 8.49986Z" fill="currentColor"/>
<path d="M8 8.49986C8.2761 8.49986 8.49993 8.72377 8.5 8.99986C8.5 9.276 8.27614 9.49986 8 9.49986C7.72386 9.49986 7.5 9.276 7.5 8.99986C7.50007 8.72377 7.7239 8.49986 8 8.49986Z" fill="currentColor"/>
<path d="M10 8.49986C10.2761 8.49986 10.4999 8.72377 10.5 8.99986C10.5 9.276 10.2761 9.49986 10 9.49986C9.72386 9.49986 9.5 9.276 9.5 8.99986C9.50007 8.72377 9.7239 8.49986 10 8.49986Z" fill="currentColor"/>
<path d="M12 8.49986C12.2761 8.49986 12.4999 8.72377 12.5 8.99986C12.5 9.276 12.2761 9.49986 12 9.49986C11.7239 9.49986 11.5 9.276 11.5 8.99986C11.5001 8.72377 11.7239 8.49986 12 8.49986Z" fill="currentColor"/>
<path fill-rule="evenodd" clip-rule="evenodd" d="M13 6.49986C13.8284 6.49986 14.4999 7.17149 14.5 7.99986V11.9999C14.5 12.8283 13.8284 13.4999 13 13.4999H3C2.17157 13.4999 1.5 12.8283 1.5 11.9999V7.99986C1.50007 7.17149 2.17162 6.49986 3 6.49986H13ZM3 7.49986C2.7239 7.49986 2.50007 7.72377 2.5 7.99986V11.9999C2.5 12.276 2.72386 12.4999 3 12.4999H13C13.2761 12.4999 13.5 12.276 13.5 11.9999V7.99986C13.4999 7.72377 13.2761 7.49986 13 7.49986H3Z" fill="currentColor"/>
<path d="M6.64648 4.5565C7.3917 3.8115 8.6083 3.8115 9.35352 4.5565C9.54851 4.75171 9.54851 5.06832 9.35352 5.26353C9.15831 5.45851 8.84169 5.45852 8.64648 5.26353C8.29179 4.90905 7.70821 4.90905 7.35352 5.26353C7.15831 5.45851 6.84169 5.45852 6.64648 5.26353C6.45149 5.06832 6.4515 4.75171 6.64648 4.5565Z" fill="currentColor"/>
<path d="M5.22754 3.14536C6.7617 1.62265 9.23767 1.62053 10.7637 3.14634C10.9587 3.34153 10.9586 3.65815 10.7637 3.85337C10.5685 4.04847 10.2519 4.04842 10.0566 3.85337C8.92264 2.71956 7.07834 2.71823 5.93262 3.85533C5.73672 4.04964 5.42011 4.04804 5.22559 3.8524C5.03114 3.65648 5.03179 3.33991 5.22754 3.14536Z" fill="currentColor"/>
</svg>
