<svg width="16" height="16" viewBox="0 0 16 16" fill="none" xmlns="http://www.w3.org/2000/svg">
<path fill-rule="evenodd" clip-rule="evenodd" d="M11.5 3.5C12.3261 3.5 13 4.17386 13 5V5.5H13.5C14.3284 5.5 15 6.17157 15 7V12C15 12.8284 14.3284 13.5 13.5 13.5H2.5C1.67386 13.5 1 12.8261 1 12V11C1 10.7239 1.22386 10.5 1.5 10.5H2.5V5C2.5 4.17386 3.17386 3.5 4 3.5H11.5ZM2 11.5V12C2 12.2739 2.22614 12.5 2.5 12.5H10.0869C10.0315 12.3435 10 12.1755 10 12V11.5H2ZM11.5 6.5C11.2239 6.5 11 6.72386 11 7V12C11 12.2761 11.2239 12.5 11.5 12.5H13.5C13.7761 12.5 14 12.2761 14 12V7C14 6.72386 13.7761 6.5 13.5 6.5H11.5ZM4 4.5C3.72614 4.5 3.5 4.72614 3.5 5V10.5H10V7C10 6.17157 10.6716 5.5 11.5 5.5H12V5C12 4.72614 11.7739 4.5 11.5 4.5H4Z" fill="black"/>
</svg>
