<svg width="16" height="16" viewBox="0 0 16 16" fill="none" xmlns="http://www.w3.org/2000/svg">
<path fill-rule="evenodd" clip-rule="evenodd" d="M8 8.5C8.16717 8.5 8.32328 8.58356 8.41602 8.72266L10.416 11.7227C10.5183 11.8761 10.5274 12.0738 10.4404 12.2363C10.3533 12.3986 10.1842 12.5 10 12.5H6C5.81578 12.5 5.64666 12.3986 5.55957 12.2363C5.47256 12.0737 5.4817 11.8761 5.58398 11.7227L7.58398 8.72266L7.62207 8.67285C7.71635 8.56391 7.8539 8.5 8 8.5ZM6.93457 11.5H9.06543L8 9.90137L6.93457 11.5Z" fill="black"/>
<path fill-rule="evenodd" clip-rule="evenodd" d="M10 1.5C10.8261 1.5 11.5 2.17386 11.5 3V5.37988C11.5 5.64577 11.6066 5.89961 11.7939 6.08691L12.9131 7.20605C13.2858 7.57875 13.5 8.086 13.5 8.62012V13C13.5 13.8261 12.8261 14.5 12 14.5H4C3.17386 14.5 2.5 13.8261 2.5 13V3C2.5 2.17386 3.17386 1.5 4 1.5H10ZM4 2.5C3.72614 2.5 3.5 2.72614 3.5 3V13C3.5 13.2739 3.72614 13.5 4 13.5H12C12.2739 13.5 12.5 13.2739 12.5 13V8.62012C12.5 8.35423 12.3934 8.10039 12.2061 7.91309L11.0869 6.79395C10.7142 6.42125 10.5 5.914 10.5 5.37988V3C10.5 2.72614 10.2739 2.5 10 2.5H4Z" fill="black"/>
</svg>
