<svg width="16" height="16" viewBox="0 0 16 16" fill="none" xmlns="http://www.w3.org/2000/svg">
<path fill-rule="evenodd" clip-rule="evenodd" d="M10.0684 8.50488C10.2253 8.52653 10.3643 8.6217 10.4404 8.76367C10.5274 8.92625 10.5183 9.12392 10.416 9.27734L8.41602 12.2773C8.32328 12.4164 8.16717 12.5 8 12.5C7.83282 12.5 7.67672 12.4164 7.58398 12.2773L5.58398 9.27734C5.4817 9.12392 5.47256 8.92625 5.55957 8.76367C5.64666 8.60137 5.81578 8.5 6 8.5H10L10.0684 8.50488ZM8 11.0986L9.06543 9.5H6.93457L8 11.0986Z" fill="currentColor"/>
<path fill-rule="evenodd" clip-rule="evenodd" d="M10 1.5C10.8261 1.5 11.5 2.17386 11.5 3V5.37988C11.5 5.64577 11.6066 5.89961 11.7939 6.08691L12.9131 7.20605C13.2858 7.57875 13.5 8.086 13.5 8.62012V13C13.5 13.8261 12.8261 14.5 12 14.5H4C3.17386 14.5 2.5 13.8261 2.5 13V3C2.5 2.17386 3.17386 1.5 4 1.5H10ZM4 2.5C3.72614 2.5 3.5 2.72614 3.5 3V13C3.5 13.2739 3.72614 13.5 4 13.5H12C12.2739 13.5 12.5 13.2739 12.5 13V8.62012C12.5 8.35423 12.3934 8.10039 12.2061 7.91309L11.0869 6.79395C10.7142 6.42125 10.5 5.914 10.5 5.37988V3C10.5 2.72614 10.2739 2.5 10 2.5H4Z" fill="currentColor"/>
</svg>
