<svg width="16" height="15" viewBox="0 0 16 15" fill="none" xmlns="http://www.w3.org/2000/svg">
<path d="M11 1.5C11.8284 1.5 12.5 2.17157 12.5 3V13C12.5 13.8284 11.8284 14.5 11 14.5H5C4.17157 14.5 3.5 13.8284 3.5 13V3C3.5 2.17157 4.17157 1.5 5 1.5H11ZM5 2.5C4.72386 2.5 4.5 2.72386 4.5 3V13C4.5 13.2761 4.72386 13.5 5 13.5H11C11.2761 13.5 11.5 13.2761 11.5 13V3C11.5 2.72386 11.2761 2.5 11 2.5H5ZM9 12C9.27614 12 9.5 12.2239 9.5 12.5C9.5 12.7761 9.27614 13 9 13H7C6.72386 13 6.5 12.7761 6.5 12.5C6.5 12.2239 6.72386 12 7 12H9ZM8 9C8.27614 9 8.5 9.22386 8.5 9.5C8.5 9.77614 8.27614 10 8 10C7.72386 10 7.5 9.77614 7.5 9.5C7.5 9.22386 7.72386 9 8 9ZM8 4.5C8.27614 4.5 8.5 4.72386 8.5 5V8C8.5 8.27614 8.27614 8.5 8 8.5C7.72386 8.5 7.5 8.27614 7.5 8V5C7.5 4.72386 7.72386 4.5 8 4.5Z" fill="black"/>
</svg>
