<svg width="16" height="15" viewBox="0 0 16 15" fill="none" xmlns="http://www.w3.org/2000/svg">
<path d="M9 11.25C9.27614 11.25 9.5 11.4599 9.5 11.7188C9.5 11.9776 9.27614 12.1875 9 12.1875H7C6.72386 12.1875 6.5 11.9776 6.5 11.7188C6.5 11.4599 6.72386 11.25 7 11.25H9Z" fill="black"/>
<path d="M9.39648 5.29358C9.59175 5.11052 9.90825 5.11052 10.1035 5.29358C10.2988 5.47664 10.2988 5.77336 10.1035 5.95642L7.70312 8.20679C7.60939 8.29446 7.48203 8.34412 7.34961 8.34412C7.21714 8.34402 7.08977 8.29461 6.99609 8.20679L5.89648 7.17499C5.70132 6.99192 5.70126 6.69517 5.89648 6.51215C6.09172 6.32921 6.40828 6.32921 6.60352 6.51215L7.34961 7.21161L9.39648 5.29358Z" fill="black"/>
<path fill-rule="evenodd" clip-rule="evenodd" d="M11 1.40625C11.8284 1.40625 12.5 2.03585 12.5 2.8125V12.1875C12.5 12.9642 11.8284 13.5938 11 13.5938H5C4.17157 13.5938 3.5 12.9642 3.5 12.1875V2.8125C3.5 2.03585 4.17157 1.40625 5 1.40625H11ZM5 2.34375C4.72386 2.34375 4.5 2.55362 4.5 2.8125V12.1875C4.5 12.4464 4.72386 12.6562 5 12.6562H11C11.2761 12.6562 11.5 12.4464 11.5 12.1875V2.8125C11.5 2.55362 11.2761 2.34375 11 2.34375H5Z" fill="black"/>
</svg>
