<svg width="16" height="15" viewBox="0 0 16 15" fill="none" xmlns="http://www.w3.org/2000/svg">
<path d="M11 1.5C11.8284 1.5 12.5 2.17157 12.5 3V13C12.5 13.8284 11.8284 14.5 11 14.5H5C4.17157 14.5 3.5 13.8284 3.5 13V3C3.5 2.17157 4.17157 1.5 5 1.5H11ZM5 2.5C4.72386 2.5 4.5 2.72386 4.5 3V13C4.5 13.2761 4.72386 13.5 5 13.5H11C11.2761 13.5 11.5 13.2761 11.5 13V3C11.5 2.72386 11.2761 2.5 11 2.5H5ZM9 12C9.27614 12 9.5 12.2239 9.5 12.5C9.5 12.7761 9.27614 13 9 13H7C6.72386 13 6.5 12.7761 6.5 12.5C6.5 12.2239 6.72386 12 7 12H9ZM8 9C8.27614 9 8.5 9.22386 8.5 9.5C8.5 9.77614 8.27614 10 8 10C7.72386 10 7.5 9.77614 7.5 9.5C7.5 9.22386 7.72386 9 8 9ZM8 4.50977C8.96606 4.50977 9.74987 5.29373 9.75 6.25977C9.75 6.96599 9.26399 7.51198 8.69336 7.75098L8.69238 7.75L8.5 7.83301V8.12988C8.49994 8.40597 8.2761 8.62988 8 8.62988C7.7239 8.62988 7.50006 8.40597 7.5 8.12988V7.81934C7.50026 7.42876 7.72956 7.08168 8.08691 6.92285L8.09277 6.91992L8.30273 6.83008L8.30664 6.82812C8.59581 6.70704 8.75 6.47338 8.75 6.25977C8.74987 5.84602 8.41378 5.50977 8 5.50977C7.58622 5.50977 7.25013 5.84602 7.25 6.25977C7.25 6.53591 7.02614 6.75977 6.75 6.75977C6.47386 6.75977 6.25 6.53591 6.25 6.25977C6.25013 5.29373 7.03394 4.50977 8 4.50977Z" fill="black"/>
</svg>
