<svg width="16" height="16" viewBox="0 0 16 16" fill="none" xmlns="http://www.w3.org/2000/svg">
<path d="M9 12C9.27614 12 9.5 12.2239 9.5 12.5C9.5 12.7761 9.27614 13 9 13H7C6.72386 13 6.5 12.7761 6.5 12.5C6.5 12.2239 6.72386 12 7 12H9Z" fill="currentColor"/>
<path d="M8 8C8.27614 8 8.5 8.22386 8.5 8.5C8.5 8.77614 8.27614 9 8 9C7.72386 9 7.5 8.77614 7.5 8.5C7.5 8.22386 7.72386 8 8 8Z" fill="currentColor"/>
<path d="M6.89648 6.95703C7.50175 6.35177 8.49825 6.35177 9.10352 6.95703C9.29851 7.15232 9.29869 7.46889 9.10352 7.66406C8.90832 7.85896 8.59168 7.85896 8.39648 7.66406C8.18175 7.44932 7.81825 7.44932 7.60352 7.66406C7.40832 7.85896 7.09168 7.85896 6.89648 7.66406C6.70131 7.46889 6.7015 7.15232 6.89648 6.95703Z" fill="currentColor"/>
<path d="M5.83691 5.89648C7.03219 4.70143 8.96887 4.70129 10.1641 5.89648C10.359 6.09168 10.359 6.40832 10.1641 6.60352C9.96889 6.79869 9.65232 6.7985 9.45703 6.60352C8.65236 5.79885 7.3487 5.79899 6.54395 6.60352C6.34876 6.79871 6.03219 6.79856 5.83691 6.60352C5.64165 6.40825 5.64165 6.09175 5.83691 5.89648Z" fill="currentColor"/>
<path fill-rule="evenodd" clip-rule="evenodd" d="M11 1.5C11.8284 1.5 12.5 2.17157 12.5 3V13C12.5 13.8284 11.8284 14.5 11 14.5H5C4.17157 14.5 3.5 13.8284 3.5 13V3C3.5 2.17157 4.17157 1.5 5 1.5H11ZM5 2.5C4.72386 2.5 4.5 2.72386 4.5 3V13C4.5 13.2761 4.72386 13.5 5 13.5H11C11.2761 13.5 11.5 13.2761 11.5 13V3C11.5 2.72386 11.2761 2.5 11 2.5H5Z" fill="currentColor"/>
</svg>
