<svg width="16" height="15" viewBox="0 0 16 15" fill="none" xmlns="http://www.w3.org/2000/svg">
<path d="M9 11.25C9.27614 11.25 9.5 11.4599 9.5 11.7188C9.5 11.9776 9.27614 12.1875 9 12.1875H7C6.72386 12.1875 6.5 11.9776 6.5 11.7188C6.5 11.4599 6.72386 11.25 7 11.25H9Z" fill="currentColor"/>
<path fill-rule="evenodd" clip-rule="evenodd" d="M11 1.40625C11.8284 1.40625 12.5 2.03585 12.5 2.8125V12.1875C12.5 12.9642 11.8284 13.5938 11 13.5938H5C4.17157 13.5938 3.5 12.9642 3.5 12.1875V2.8125C3.5 2.03585 4.17157 1.40625 5 1.40625H11ZM5 2.34375C4.72386 2.34375 4.5 2.55362 4.5 2.8125V12.1875C4.5 12.4464 4.72386 12.6562 5 12.6562H11C11.2761 12.6562 11.5 12.4464 11.5 12.1875V2.8125C11.5 2.55362 11.2761 2.34375 11 2.34375H5Z" fill="currentColor"/>
</svg>
