<svg width="16" height="16" viewBox="0 0 16 16" fill="none" xmlns="http://www.w3.org/2000/svg">
<path fill-rule="evenodd" clip-rule="evenodd" d="M8.5 1.5C8.77614 1.5 9 1.72386 9 2V4.5C9.82614 4.5 10.5 5.17386 10.5 6V6.83984C10.5 8.59661 9.25633 10.2125 7.5 10.4668V12.5C7.5 13.0539 7.94614 13.5 8.5 13.5C9.05386 13.5 9.5 13.0539 9.5 12.5C9.5 11.3939 10.3939 10.5 11.5 10.5C12.6061 10.5 13.5 11.3939 13.5 12.5V14C13.5 14.2761 13.2761 14.5 13 14.5C12.7239 14.5 12.5 14.2761 12.5 14V12.5C12.5 11.9461 12.0539 11.5 11.5 11.5C10.9461 11.5 10.5 11.9461 10.5 12.5C10.5 13.6061 9.60614 14.5 8.5 14.5C7.39386 14.5 6.5 13.6061 6.5 12.5V10.4668C4.80405 10.2254 3.5 8.77226 3.5 7V6C3.5 5.17386 4.17386 4.5 5 4.5V2C5 1.72386 5.22386 1.5 5.5 1.5C5.77614 1.5 6 1.72386 6 2V4.5H8V2C8 1.72386 8.22386 1.5 8.5 1.5ZM5 5.5C4.72614 5.5 4.5 5.72614 4.5 6V7C4.5 8.34553 5.54736 9.43249 6.86719 9.50098H6.99023C6.99349 9.50091 6.99673 9.5 7 9.5C7.00327 9.5 7.00651 9.50091 7.00977 9.50098H7.13574C8.4545 9.43563 9.5 8.23947 9.5 6.83984V6C9.5 5.72614 9.27386 5.5 9 5.5H5Z" fill="black"/>
</svg>
