<svg width="16" height="16" viewBox="0 0 16 16" fill="none" xmlns="http://www.w3.org/2000/svg">
<path d="M9.52832 3.80762C9.63453 3.55306 9.92695 3.43232 10.1816 3.53809C11.6273 4.14045 12.7026 5.26999 13.2617 6.61816C13.8206 7.96596 13.8643 9.52435 13.2617 10.9814L13.2607 10.9824C12.6583 12.428 11.5289 13.5025 10.1807 14.0615C8.83303 14.6202 7.27524 14.6649 5.81836 14.0625L5.81738 14.0615C4.37179 13.4591 3.2963 12.3296 2.7373 10.9814C2.17862 9.63382 2.13494 8.07603 2.7373 6.61914L2.73828 6.61816C3.34063 5.17252 4.47023 4.09718 5.81836 3.53809C6.0733 3.43264 6.36592 3.55375 6.47168 3.80859C6.57725 4.06355 6.45603 4.3561 6.20117 4.46191C5.08974 4.92286 4.15871 5.80805 3.66113 7.00195C3.16416 8.20451 3.20016 9.48678 3.66113 10.5986C4.12185 11.7097 5.00696 12.6399 6.20019 13.1377C7.40297 13.6351 8.68573 13.5987 9.79785 13.1377C10.9091 12.6769 11.8392 11.7922 12.3369 10.5986C12.8342 9.39594 12.7988 8.11401 12.3379 7.00195C11.8769 5.89031 10.991 4.95949 9.79687 4.46191C9.54231 4.35558 9.42229 4.06234 9.52832 3.80762Z" fill="currentColor"/>
<path d="M8 1.5C8.27614 1.5 8.5 1.72386 8.5 2V8C8.5 8.27614 8.27614 8.5 8 8.5C7.72386 8.5 7.5 8.27614 7.5 8V2C7.5 1.72386 7.72386 1.5 8 1.5Z" fill="currentColor"/>
</svg>
