<svg width="16" height="16" viewBox="0 0 16 16" fill="none" xmlns="http://www.w3.org/2000/svg">
<path fill-rule="evenodd" clip-rule="evenodd" d="M11 1.49023C11.1889 1.49023 11.3614 1.59688 11.4463 1.76562C11.531 1.93433 11.5139 2.1365 11.4014 2.28809L9.69141 4.58887L9.69043 4.58789C9.43366 5.00379 8.99741 5.27399 8.5 5.30371V6.41016C8.50012 6.59148 8.59472 6.75617 8.74902 6.84668L11.21 8.2666L11.2109 8.26758C11.6754 8.53724 11.9599 9.03257 11.96 9.57031V12.4199C11.9599 12.9577 11.6753 13.453 11.2109 13.7227L8.75 15.1416L8.75098 15.1426C8.55036 15.259 8.32961 15.3209 8.10645 15.3369C8.07206 15.3444 8.03663 15.3496 8 15.3496C7.96378 15.3496 7.92857 15.3452 7.89453 15.3379C7.67101 15.322 7.44995 15.2592 7.24902 15.1426L4.79004 13.7227C4.32565 13.453 4.04007 12.9577 4.04004 12.4199V9C4.04011 8.72391 4.26394 8.5 4.54004 8.5C4.6626 8.5 4.77339 8.54595 4.86035 8.61914C4.88031 8.62741 4.90071 8.63541 4.91992 8.64648L8 10.4229L10.4727 8.99609L8.25 7.71289L8.24902 7.71191C7.78477 7.44227 7.50012 6.94775 7.5 6.41016V5.30371C7.01226 5.27364 6.56687 5.00555 6.30859 4.58789L4.59863 2.28809C4.48615 2.13651 4.46901 1.93433 4.55371 1.76562C4.63863 1.59689 4.81109 1.49025 5 1.49023H11ZM5.04004 12.4199C5.04007 12.6013 5.13472 12.7659 5.28906 12.8564L7.5 14.1318V11.2891L5.04004 9.87109V12.4199ZM8.5 11.2891V14.1318L10.71 12.8564C10.8648 12.766 10.9599 12.6016 10.96 12.4199V9.87109L8.5 11.2891ZM7.11133 3.99219L7.14551 4.04492C7.23843 4.20997 7.41364 4.31047 7.58984 4.31055H7.89941C7.93194 4.30389 7.96551 4.29981 8 4.2998C8.03449 4.2998 8.06806 4.3039 8.10059 4.31055H8.41016C8.59359 4.31048 8.76019 4.21242 8.85449 4.04492L8.88867 3.99219L10.0059 2.49023H5.99414L7.11133 3.99219Z" fill="currentColor"/>
</svg>
