<svg width="16" height="15" viewBox="0 0 16 15" fill="none" xmlns="http://www.w3.org/2000/svg">
<path d="M12 5.625C12.2761 5.625 12.5 5.83487 12.5 6.09375C12.5 6.35263 12.2761 6.5625 12 6.5625H10C9.72386 6.5625 9.5 6.35263 9.5 6.09375C9.5 5.83487 9.72386 5.625 10 5.625H12Z" fill="currentColor"/>
<path fill-rule="evenodd" clip-rule="evenodd" d="M11 1.40625C11.8261 1.40625 12.5 2.03799 12.5 2.8125V3.75H13C13.8261 3.75 14.5 4.38174 14.5 5.15625V9.84375C14.5 10.6183 13.8261 11.25 13 11.25H12.5V12.1875C12.5 12.962 11.8261 13.5938 11 13.5938H5C4.17386 13.5938 3.5 12.962 3.5 12.1875V11.25H3C2.17386 11.25 1.5 10.6183 1.5 9.84375V5.15625C1.5 4.38174 2.17386 3.75 3 3.75H3.5V2.8125C3.5 2.03799 4.17386 1.40625 5 1.40625H11ZM4.5 12.1875C4.5 12.4442 4.72614 12.6562 5 12.6562H11C11.2739 12.6562 11.5 12.4442 11.5 12.1875V8.4375H4.5V12.1875ZM3 4.6875C2.72614 4.6875 2.5 4.89951 2.5 5.15625V9.84375C2.5 10.1005 2.72614 10.3125 3 10.3125H3.5V7.96875C3.5 7.70987 3.72386 7.5 4 7.5H12C12.2761 7.5 12.5 7.70987 12.5 7.96875V10.3125H13C13.2739 10.3125 13.5 10.1005 13.5 9.84375V5.15625C13.5 4.89951 13.2739 4.6875 13 4.6875H3ZM5 2.34375C4.72614 2.34375 4.5 2.55576 4.5 2.8125V3.75H11.5V2.8125C11.5 2.55576 11.2739 2.34375 11 2.34375H5Z" fill="currentColor"/>
</svg>
