<svg width="16" height="15" viewBox="0 0 16 15" fill="none" xmlns="http://www.w3.org/2000/svg">
<path d="M12 7.96875C12.2761 7.96875 12.5 8.17862 12.5 8.4375C12.5 8.69638 12.2761 8.90625 12 8.90625H10C9.72386 8.90625 9.5 8.69638 9.5 8.4375C9.5 8.17862 9.72386 7.96875 10 7.96875H12Z" fill="black"/>
<path fill-rule="evenodd" clip-rule="evenodd" d="M11 1.40625C11.8261 1.40625 12.5 2.03799 12.5 2.8125V6.09375H13C13.8284 6.09375 14.5 6.72335 14.5 7.5V9.375C14.5 10.1517 13.8284 10.7812 13 10.7812H12.5V12.1875C12.5 12.962 11.8261 13.5938 11 13.5938H5C4.17386 13.5938 3.5 12.962 3.5 12.1875V10.7812H3C2.17157 10.7812 1.5 10.1517 1.5 9.375V7.5C1.5 6.72335 2.17157 6.09375 3 6.09375H3.5V2.8125C3.5 2.03799 4.17386 1.40625 5 1.40625H11ZM4.5 12.1875C4.5 12.4442 4.72614 12.6562 5 12.6562H11C11.2739 12.6562 11.5 12.4442 11.5 12.1875V10.7812H4.5V12.1875ZM3 7.03125C2.72386 7.03125 2.5 7.24112 2.5 7.5V9.375C2.5 9.63388 2.72386 9.84375 3 9.84375H13C13.2761 9.84375 13.5 9.63388 13.5 9.375V7.5C13.5 7.24112 13.2761 7.03125 13 7.03125H3ZM5 2.34375C4.72614 2.34375 4.5 2.55576 4.5 2.8125V6.09375H11.5V2.8125C11.5 2.55576 11.2739 2.34375 11 2.34375H5Z" fill="black"/>
</svg>
