<svg width="16" height="16" viewBox="0 0 16 16" fill="none" xmlns="http://www.w3.org/2000/svg">
<path d="M12.5 3C12.5 2.72614 12.2739 2.5 12 2.5H5.62012C5.35423 2.5 5.10039 2.60664 4.91309 2.79395L3.79395 3.91309C3.60664 4.10039 3.5 4.35423 3.5 4.62012V13C3.5 13.2739 3.72614 13.5 4 13.5H12C12.2739 13.5 12.5 13.2739 12.5 13V3ZM4.5 7V5C4.5 4.72386 4.72386 4.5 5 4.5C5.27614 4.5 5.5 4.72386 5.5 5V7C5.5 7.27614 5.27614 7.5 5 7.5C4.72386 7.5 4.5 7.27614 4.5 7ZM6.5 6V4C6.5 3.72386 6.72386 3.5 7 3.5C7.27614 3.5 7.5 3.72386 7.5 4V6C7.5 6.27614 7.27614 6.5 7 6.5C6.72386 6.5 6.5 6.27614 6.5 6ZM8.5 6V4C8.5 3.72386 8.72386 3.5 9 3.5C9.27614 3.5 9.5 3.72386 9.5 4V6C9.5 6.27614 9.27614 6.5 9 6.5C8.72386 6.5 8.5 6.27614 8.5 6ZM10.5 6V4C10.5 3.72386 10.7239 3.5 11 3.5C11.2761 3.5 11.5 3.72386 11.5 4V6C11.5 6.27614 11.2761 6.5 11 6.5C10.7239 6.5 10.5 6.27614 10.5 6ZM13.5 13C13.5 13.8261 12.8261 14.5 12 14.5H4C3.17386 14.5 2.5 13.8261 2.5 13V4.62012C2.5 4.086 2.71422 3.57875 3.08691 3.20605L4.20605 2.08691C4.57875 1.71422 5.086 1.5 5.62012 1.5H12C12.8261 1.5 13.5 2.17386 13.5 3V13Z" fill="currentColor"/>
</svg>
