<svg width="16" height="16" viewBox="0 0 16 16" fill="none" xmlns="http://www.w3.org/2000/svg">
<path fill-rule="evenodd" clip-rule="evenodd" d="M3 1.5C3.27614 1.5 3.5 1.72386 3.5 2V8.56543C4.36232 8.78765 5 9.56829 5 10.5C5 11.4316 4.3622 12.2113 3.5 12.4336V14C3.5 14.2761 3.27614 14.5 3 14.5C2.72386 14.5 2.5 14.2761 2.5 14V12.4336C1.6378 12.2113 1 11.4316 1 10.5C1 9.56829 1.63768 8.78765 2.5 8.56543V2C2.5 1.72386 2.72386 1.5 3 1.5ZM3 9.5C2.44772 9.5 2 9.94772 2 10.5C2 11.0523 2.44772 11.5 3 11.5C3.55228 11.5 4 11.0523 4 10.5C4 9.94772 3.55228 9.5 3 9.5Z" fill="black"/>
<path fill-rule="evenodd" clip-rule="evenodd" d="M8 1.5C8.27614 1.5 8.5 1.72386 8.5 2V3.56543C9.36232 3.78765 10 4.56829 10 5.5C10 6.43162 9.3622 7.21129 8.5 7.43359V14C8.5 14.2761 8.27614 14.5 8 14.5C7.72386 14.5 7.5 14.2761 7.5 14V7.43359C6.6378 7.21129 6 6.43162 6 5.5C6 4.56829 6.63768 3.78765 7.5 3.56543V2C7.5 1.72386 7.72386 1.5 8 1.5ZM8 4.5C7.44772 4.5 7 4.94772 7 5.5C7 6.05228 7.44772 6.5 8 6.5C8.55228 6.5 9 6.05228 9 5.5C9 4.94772 8.55228 4.5 8 4.5Z" fill="black"/>
<path fill-rule="evenodd" clip-rule="evenodd" d="M13 1.5C13.2761 1.5 13.5 1.72386 13.5 2V6.56543C14.3623 6.78765 15 7.56829 15 8.5C15 9.43162 14.3622 10.2113 13.5 10.4336V14C13.5 14.2761 13.2761 14.5 13 14.5C12.7239 14.5 12.5 14.2761 12.5 14V10.4336C11.6378 10.2113 11 9.43162 11 8.5C11 7.56829 11.6377 6.78765 12.5 6.56543V2C12.5 1.72386 12.7239 1.5 13 1.5ZM13 7.5C12.4477 7.5 12 7.94772 12 8.5C12 9.05228 12.4477 9.5 13 9.5C13.5523 9.5 14 9.05228 14 8.5C14 7.94772 13.5523 7.5 13 7.5Z" fill="black"/>
</svg>
