<svg width="16" height="15" viewBox="0 0 16 15" fill="none" xmlns="http://www.w3.org/2000/svg">
<path d="M12 8.90625C12.2761 8.90625 12.5 9.11612 12.5 9.375C12.5 9.63388 12.2761 9.84375 12 9.84375H10C9.72386 9.84375 9.5 9.63388 9.5 9.375C9.5 9.11612 9.72386 8.90625 10 8.90625H12Z" fill="currentColor"/>
<path fill-rule="evenodd" clip-rule="evenodd" d="M11 1.40625C11.8261 1.40625 12.5 2.03799 12.5 2.8125V7.03125H13C13.8284 7.03125 14.5 7.66085 14.5 8.4375V10.3125C14.5 11.0892 13.8284 11.7188 13 11.7188H12.5V13.125C12.5 13.3839 12.2761 13.5938 12 13.5938C11.7239 13.5938 11.5 13.3839 11.5 13.125V11.7188H10.5V13.125C10.5 13.3839 10.2761 13.5938 10 13.5938C9.72386 13.5938 9.5 13.3839 9.5 13.125V11.7188H8.5V13.125C8.5 13.3839 8.27614 13.5938 8 13.5938C7.72386 13.5938 7.5 13.3839 7.5 13.125V11.7188H6.5V13.125C6.5 13.3839 6.27614 13.5938 6 13.5938C5.72386 13.5938 5.5 13.3839 5.5 13.125V11.7188H4.5V13.125C4.5 13.3839 4.27614 13.5938 4 13.5938C3.72386 13.5938 3.5 13.3839 3.5 13.125V11.7188H3C2.17157 11.7188 1.5 11.0892 1.5 10.3125V8.4375C1.5 7.66085 2.17157 7.03125 3 7.03125H3.5V2.8125C3.5 2.03799 4.17386 1.40625 5 1.40625H11ZM3 7.96875C2.72386 7.96875 2.5 8.17862 2.5 8.4375V10.3125C2.5 10.5714 2.72386 10.7812 3 10.7812H13C13.2761 10.7812 13.5 10.5714 13.5 10.3125V8.4375C13.5 8.17862 13.2761 7.96875 13 7.96875H3ZM5 2.34375C4.72614 2.34375 4.5 2.55576 4.5 2.8125V7.03125H11.5V2.8125C11.5 2.55576 11.2739 2.34375 11 2.34375H5Z" fill="currentColor"/>
</svg>
