<svg width="16" height="16" viewBox="0 0 16 16" fill="none" xmlns="http://www.w3.org/2000/svg">
<path d="M8.5 10C8.77614 10 9 10.2239 9 10.5C9 10.7761 8.77614 11 8.5 11H6.5C6.22386 11 6 10.7761 6 10.5C6 10.2239 6.22386 10 6.5 10H8.5Z" fill="black"/>
<path fill-rule="evenodd" clip-rule="evenodd" d="M12 3.5C12.8261 3.5 13.5 4.17386 13.5 5V5.5C14.3284 5.5 15 6.17157 15 7V12C15 12.8284 14.3284 13.5 13.5 13.5H11.5C10.8471 13.5 10.293 13.0823 10.0869 12.5H3C2.17386 12.5 1.5 11.8261 1.5 11V5C1.5 4.17386 2.17386 3.5 3 3.5H12ZM11.5 6.5C11.2239 6.5 11 6.72386 11 7V12C11 12.2761 11.2239 12.5 11.5 12.5H13.5C13.7761 12.5 14 12.2761 14 12V7C14 6.72386 13.7761 6.5 13.5 6.5H11.5ZM3 4.5C2.72614 4.5 2.5 4.72614 2.5 5V11C2.5 11.2739 2.72614 11.5 3 11.5H10V7C10 6.17157 10.6716 5.5 11.5 5.5H12.5V5C12.5 4.72614 12.2739 4.5 12 4.5H3Z" fill="black"/>
</svg>
