<svg width="16" height="16" viewBox="0 0 16 16" fill="none" xmlns="http://www.w3.org/2000/svg">
<path d="M9 10C9.27614 10 9.5 10.2239 9.5 10.5C9.5 10.7761 9.27614 11 9 11H7C6.72386 11 6.5 10.7761 6.5 10.5C6.5 10.2239 6.72386 10 7 10H9Z" fill="black"/>
<path fill-rule="evenodd" clip-rule="evenodd" d="M13 3.5C13.8284 3.5 14.5 4.17157 14.5 5V11C14.5 11.8284 13.8284 12.5 13 12.5H3C2.17157 12.5 1.5 11.8284 1.5 11V5C1.5 4.17157 2.17157 3.5 3 3.5H13ZM3 4.5C2.72386 4.5 2.5 4.72386 2.5 5V11C2.5 11.2761 2.72386 11.5 3 11.5H13C13.2761 11.5 13.5 11.2761 13.5 11V5C13.5 4.72386 13.2761 4.5 13 4.5H3Z" fill="black"/>
</svg>
