<svg width="16" height="16" viewBox="0 0 16 16" fill="none" xmlns="http://www.w3.org/2000/svg">
<path d="M4 9C4.27614 9 4.5 9.22386 4.5 9.5C4.5 9.77614 4.27614 10 4 10C3.72386 10 3.5 9.77614 3.5 9.5C3.5 9.22386 3.72386 9 4 9Z" fill="currentColor"/>
<path d="M4 7C5.37614 7 6.5 8.12386 6.5 9.5C6.5 9.77614 6.27614 10 6 10C5.72386 10 5.5 9.77614 5.5 9.5C5.5 8.67614 4.82386 8 4 8C3.72386 8 3.5 7.77614 3.5 7.5C3.5 7.22386 3.72386 7 4 7Z" fill="currentColor"/>
<path d="M4 5C6.48614 5 8.5 7.01386 8.5 9.5C8.5 9.77614 8.27614 10 8 10C7.72386 10 7.5 9.77614 7.5 9.5C7.5 7.56614 5.93386 6 4 6C3.72386 6 3.5 5.77614 3.5 5.5C3.5 5.22386 3.72386 5 4 5Z" fill="currentColor"/>
<path fill-rule="evenodd" clip-rule="evenodd" d="M13 3C13.8284 3 14.5 3.67157 14.5 4.5V10.5C14.5 11.3284 13.8284 12 13 12H8.5V13H10C10.2761 13 10.5 13.2239 10.5 13.5C10.5 13.7761 10.2761 14 10 14H6C5.72386 14 5.5 13.7761 5.5 13.5C5.5 13.2239 5.72386 13 6 13H7.5V12H3C2.17157 12 1.5 11.3284 1.5 10.5V4.5C1.5 3.67157 2.17157 3 3 3H13ZM3 4C2.72386 4 2.5 4.22386 2.5 4.5V10.5C2.5 10.7761 2.72386 11 3 11H13C13.2761 11 13.5 10.7761 13.5 10.5V4.5C13.5 4.22386 13.2761 4 13 4H3Z" fill="currentColor"/>
</svg>
