<svg width="16" height="16" viewBox="0 0 16 16" fill="none" xmlns="http://www.w3.org/2000/svg">
<path fill-rule="evenodd" clip-rule="evenodd" d="M6.76367 5.05957C6.92625 4.97256 7.12392 4.9817 7.27734 5.08398L10.2773 7.08398C10.4164 7.17672 10.5 7.33283 10.5 7.5C10.5 7.66717 10.4164 7.82328 10.2773 7.91602L7.27734 9.91602C7.12392 10.0183 6.92625 10.0274 6.76367 9.94043C6.60138 9.85334 6.5 9.68421 6.5 9.5V5.5L6.50488 5.43164C6.52653 5.2747 6.6217 5.13575 6.76367 5.05957ZM7.5 8.56543L9.09863 7.5L7.5 6.43359V8.56543Z" fill="black"/>
<path fill-rule="evenodd" clip-rule="evenodd" d="M13 3C13.8284 3 14.5 3.67157 14.5 4.5V10.5C14.5 11.3284 13.8284 12 13 12H8.5V13H10C10.2761 13 10.5 13.2239 10.5 13.5C10.5 13.7761 10.2761 14 10 14H6C5.72386 14 5.5 13.7761 5.5 13.5C5.5 13.2239 5.72386 13 6 13H7.5V12H3C2.17157 12 1.5 11.3284 1.5 10.5V4.5C1.5 3.67157 2.17157 3 3 3H13ZM3 4C2.72386 4 2.5 4.22386 2.5 4.5V10.5C2.5 10.7761 2.72386 11 3 11H13C13.2761 11 13.5 10.7761 13.5 10.5V4.5C13.5 4.22386 13.2761 4 13 4H3Z" fill="black"/>
</svg>
