<svg width="16" height="16" viewBox="0 0 16 16" fill="none" xmlns="http://www.w3.org/2000/svg">
<path fill-rule="evenodd" clip-rule="evenodd" d="M8 1.5C8.16717 1.5 8.32328 1.58356 8.41602 1.72266L10.416 4.72266C10.5183 4.87608 10.5274 5.07375 10.4404 5.23633C10.3533 5.39862 10.1842 5.5 10 5.5H8.5V12.1387L10.752 10.8555C10.8825 10.7784 10.9697 10.6484 10.9932 10.5H10C9.72386 10.5 9.5 10.2761 9.5 10V7C9.5 6.72386 9.72386 6.5 10 6.5H13C13.2761 6.5 13.5 6.72386 13.5 7V10C13.5 10.2761 13.2761 10.5 13 10.5H11.9951C11.9684 11.0065 11.6922 11.4664 11.251 11.7227L11.248 11.7246L8.5 13.29V14C8.5 14.0072 8.49737 14.0143 8.49707 14.0215C8.49624 14.0414 8.49448 14.0611 8.49121 14.0811C8.48865 14.0967 8.48542 14.1119 8.48145 14.127C8.47728 14.1428 8.47259 14.1583 8.4668 14.1738C8.46079 14.19 8.45387 14.2054 8.44629 14.2207C8.44192 14.2295 8.43951 14.2394 8.43457 14.248C8.43148 14.2535 8.42611 14.2574 8.42285 14.2627C8.41415 14.2767 8.40453 14.2897 8.39453 14.3027C8.38412 14.3163 8.37387 14.3295 8.3623 14.3418C8.35182 14.3529 8.34055 14.3629 8.3291 14.373C8.31651 14.3841 8.30454 14.3956 8.29102 14.4053C8.27712 14.4153 8.26198 14.4231 8.24707 14.4316C8.23408 14.439 8.22156 14.4469 8.20801 14.4531C8.19257 14.4602 8.1764 14.4652 8.16016 14.4707C8.14585 14.4756 8.13187 14.4808 8.11719 14.4844C8.10182 14.4881 8.08619 14.4899 8.07031 14.4922C8.05178 14.4949 8.03344 14.4975 8.01465 14.498C8.00977 14.4982 8.00492 14.5 8 14.5C7.99244 14.5 7.98502 14.4974 7.97754 14.4971C7.95758 14.4962 7.93787 14.4945 7.91797 14.4912C7.90236 14.4886 7.88716 14.4854 7.87207 14.4814C7.85628 14.4773 7.84071 14.4726 7.8252 14.4668C7.80909 14.4608 7.79359 14.4539 7.77832 14.4463C7.76976 14.442 7.76036 14.4394 7.75195 14.4346L4.75195 12.7246L4.74902 12.7227C4.28457 12.453 4 11.9577 4 11.4199V10.4336C3.1378 10.2113 2.5 9.43162 2.5 8.5C2.5 7.39543 3.39543 6.5 4.5 6.5C5.60457 6.5 6.5 7.39543 6.5 8.5C6.5 9.43162 5.8622 10.2113 5 10.4336V11.4199C5 11.6009 5.09438 11.7648 5.24805 11.8555L7.5 13.1387V5.5H6C5.81579 5.5 5.64665 5.39862 5.55957 5.23633C5.47256 5.07375 5.4817 4.87608 5.58398 4.72266L7.58398 1.72266L7.62207 1.67285C7.71635 1.56392 7.8539 1.5 8 1.5ZM4.5 7.5C3.94772 7.5 3.5 7.94772 3.5 8.5C3.5 9.05228 3.94772 9.5 4.5 9.5C5.05228 9.5 5.5 9.05228 5.5 8.5C5.5 7.94772 5.05228 7.5 4.5 7.5ZM10.5 9.5H12.5V7.5H10.5V9.5ZM6.93457 4.5H9.06543L8 2.90137L6.93457 4.5Z" fill="black"/>
</svg>
