<svg width="16" height="16" viewBox="0 0 16 16" fill="none" xmlns="http://www.w3.org/2000/svg">
<path fill-rule="evenodd" clip-rule="evenodd" d="M9.38965 3C9.75963 3 10.1103 3.20984 10.2803 3.5498L11 5H13.0205C13.5703 5.00027 14.0205 5.45016 14.0205 6V12C14.0205 12.5498 13.5703 12.9997 13.0205 13H3.02051C2.47051 13 2.01953 12.55 2.01953 12V6C2.01953 5.45 2.47051 5 3.02051 5H5.02051L5.74023 3.5498C5.90027 3.20999 6.25003 3.00006 6.62988 3H9.38965ZM8 6C6.62001 6.00002 5.5 7.12001 5.5 8.5C5.5 9.87999 6.62001 11 8 11C9.38 11 10.5 9.88 10.5 8.5C10.5 7.12 9.38 6 8 6Z" fill="black"/>
</svg>
