<svg width="16" height="16" viewBox="0 0 16 16" fill="none" xmlns="http://www.w3.org/2000/svg">
<path fill-rule="evenodd" clip-rule="evenodd" d="M8 2C11.31 2 14 4.69 14 8C14 11.31 11.31 14 8 14C4.69 14 2 11.31 2 8C2 4.69 4.69 2 8 2ZM8.99023 6.12988C8.65029 5.91992 8.21987 6.15992 8.21973 6.5498V7.66016L5.76953 6.12988C5.42965 5.92034 5.00014 6.16007 5 6.5498V9.45996C5 9.84985 5.43956 10.0896 5.76953 9.87988L8.21973 8.34961V9.45996C8.21973 9.84996 8.66023 10.0899 8.99023 9.87988L11.2998 8.42969C11.6098 8.22968 11.6098 7.78008 11.2998 7.58008L8.99023 6.12988Z" fill="black"/>
</svg>
