<svg width="16" height="16" viewBox="0 0 16 16" fill="none" xmlns="http://www.w3.org/2000/svg">
<path fill-rule="evenodd" clip-rule="evenodd" d="M11 3C11.55 3 12 3.45 12 4V12C12 12.55 11.55 13 11 13H3C2.45 13 2 12.55 2 12V4C2 3.45 2.45 3 3 3H11ZM9.36035 8.34961C9.16048 8.14975 8.8504 8.15 8.65039 8.34961L5.5 11.5H10.5098V9.5L9.36035 8.34961ZM5.5 5C4.67 5 4 5.67 4 6.5C4 7.33 4.67 8 5.5 8C6.33 8 7 7.33 7 6.5C7 5.67 6.33 5 5.5 5Z" fill="black"/>
<path d="M13 4C13.55 4 14 4.45 14 5V11C14 11.55 13.55 12 13 12V4Z" fill="black"/>
</svg>
