<svg width="16" height="16" viewBox="0 0 16 16" fill="none" xmlns="http://www.w3.org/2000/svg">
<path d="M2.50977 7.5C2.78591 7.5 3.00977 7.72386 3.00977 8C3.00977 10.7538 5.24626 12.9901 8 12.9902C9.64011 12.9901 11.0459 11.9638 11.9805 10.6328C12.1057 10.4545 12.3322 10.3779 12.54 10.4434C12.748 10.5091 12.8896 10.7018 12.8896 10.9199V13.5098C12.8896 13.7859 12.6658 14.0098 12.3896 14.0098C12.1137 14.0096 11.8896 13.7858 11.8896 13.5098V12.2803C10.8816 13.2669 9.55415 13.9902 8 13.9902C4.69397 13.9901 2.00977 11.3061 2.00977 8C2.00977 7.72394 2.23374 7.50013 2.50977 7.5Z" fill="black"/>
<path fill-rule="evenodd" clip-rule="evenodd" d="M8 5.25C8.83 5.25 9.5 5.92 9.5 6.75V7.25H9.75C10.03 7.25 10.25 7.47 10.25 7.75V9.75C10.25 10.03 10.03 10.25 9.75 10.25H6.25C5.97 10.25 5.75 10.03 5.75 9.75V7.75C5.75 7.47 5.97 7.25 6.25 7.25H6.5V6.75C6.5 5.92 7.17 5.25 8 5.25ZM8 6.25C7.72 6.25 7.5 6.47 7.5 6.75V7.25H8.5V6.75C8.5 6.47 8.28 6.25 8 6.25Z" fill="black"/>
<path d="M3.61035 1.99023C3.88633 1.99043 4.11035 2.21421 4.11035 2.49023V3.71973C5.11834 2.73316 6.44589 2.00988 8 2.00977C11.3059 2.00996 13.9901 4.69409 13.9902 8C13.9901 8.27591 13.7661 8.4998 13.4902 8.5C13.2142 8.49993 12.9904 8.27599 12.9902 8C12.9901 5.24637 10.7536 3.00996 8 3.00977C6.35994 3.00992 4.95408 4.03628 4.01953 5.36719C3.89431 5.54553 3.66778 5.62205 3.45996 5.55664C3.25207 5.49095 3.11046 5.29808 3.11035 5.08008V2.49023C3.11035 2.21409 3.33421 1.99023 3.61035 1.99023Z" fill="black"/>
</svg>
