<svg width="16" height="16" viewBox="0 0 16 16" fill="none" xmlns="http://www.w3.org/2000/svg">
<path d="M10 7C10.5523 7 11 7.44772 11 8V9.24707L13.2002 7.59961C13.5302 7.35004 14 7.59018 14 8V12C14 12.4099 13.5302 12.65 13.2002 12.4004L11 10.752V12C11 12.5523 10.5523 13 10 13H4C3.44772 13 3 12.5523 3 12V8C3 7.44772 3.44772 7 4 7H10Z" fill="black"/>
<path d="M4.5 2C5.88071 2 7 3.11929 7 4.5C7 5.88071 5.88071 7 4.5 7C3.11929 7 2 5.88071 2 4.5C2 3.11929 3.11929 2 4.5 2Z" fill="black"/>
<path d="M9.5 2C10.8807 2 12 3.11929 12 4.5C12 5.88071 10.8807 7 9.5 7C8.11929 7 7 5.88071 7 4.5C7 3.11929 8.11929 2 9.5 2Z" fill="black"/>
</svg>
