<svg width="16" height="16" viewBox="0 0 16 16" fill="none" xmlns="http://www.w3.org/2000/svg">
<path fill-rule="evenodd" clip-rule="evenodd" d="M8.00004 1.5C8.27616 1.50002 8.50004 1.72387 8.50004 2V2.5293C9.59533 2.65966 10.5691 3.22953 11.2198 4.07324L12.6465 2.64648C12.8418 2.45124 13.1583 2.45123 13.3536 2.64648C13.5488 2.84174 13.5488 3.15827 13.3536 3.35352L11.7403 4.96582C11.8613 5.25315 11.9505 5.55845 12.003 5.87793L12.8135 10.7578C12.9638 11.6747 12.2559 12.4999 11.3301 12.5H9.93461C9.71287 13.3631 8.93323 14 8.00004 14C7.06684 14 6.28722 13.3631 6.06547 12.5H4.69047C4.54319 12.5 4.40226 12.4763 4.26859 12.4375L2.85355 13.8535C2.65831 14.0488 2.34179 14.0487 2.14652 13.8535C1.95126 13.6583 1.95126 13.3417 2.14652 13.1465L3.4473 11.8447C3.2395 11.5408 3.14151 11.1587 3.20707 10.7588L4.01664 5.87793C4.02474 5.82926 4.04083 5.78371 4.06156 5.74121C4.40237 4.03111 5.80147 2.75233 7.50004 2.5332V2C7.50004 1.72386 7.7239 1.5 8.00004 1.5ZM7.13383 12.5C7.30633 12.7991 7.6287 13 8.00004 13C8.37138 13 8.69376 12.7991 8.86625 12.5H7.13383ZM5.20707 11.5H11.3301C11.6443 11.4999 11.8759 11.2239 11.8262 10.9209L11.0166 6.04199C11.0006 5.94375 10.9792 5.84646 10.9541 5.75195L5.20707 11.5ZM8.01957 3.5C6.53346 3.50023 5.26366 4.57416 5.02348 6.04102C5.016 6.08656 5.00009 6.12872 4.98148 6.16895L4.1934 10.9219C4.18378 10.9813 4.18677 11.0393 4.1973 11.0947L10.5039 4.78809C9.94974 4.00215 9.03538 3.5 8.01957 3.5Z" fill="black"/>
</svg>
