<svg width="16" height="16" viewBox="0 0 16 16" fill="none" xmlns="http://www.w3.org/2000/svg">
<path d="M13.5 3.96973C13.7799 3.96973 13.9999 4.18986 14 4.46973V11.46C14 11.74 13.78 11.96 13.5 11.96H12.5C12.22 11.96 12 11.74 12 11.46V8.7002L7.67969 11.8799C7.3997 12.0897 7.00003 11.89 7 11.54V8.70996L2.67969 11.8896C2.39969 12.0996 2 11.8998 2 11.5498V4.41016C2 4.07017 2.39969 3.86037 2.67969 4.07031L7 7.25V4.41992C7.00006 4.08003 7.39972 3.87029 7.67969 4.08008L12 7.25977V4.5C12 4.22 12.22 4 12.5 4H13.5V3.96973Z" fill="currentColor"/>
</svg>
