<svg width="16" height="16" viewBox="0 0 16 16" fill="none" xmlns="http://www.w3.org/2000/svg">
<path d="M9.50021 13C9.50021 13.8299 8.8301 14.4999 8.00021 14.5C7.17021 14.5 6.50021 13.83 6.50021 13H9.50021Z" fill="black"/>
<path d="M7.99044 2C8.27021 2.00025 8.49044 2.22016 8.49044 2.5V3.04004C10.0002 3.26021 11.2305 4.42012 11.4904 5.95996L12.3 10.8398C12.4 11.4498 11.9298 12 11.3098 12H4.67013C4.05013 12 3.57989 11.4498 3.67989 10.8398L4.49044 5.95996C4.75048 4.41002 5.98048 3.25003 7.49044 3.04004V2.5C7.49044 2.22 7.71044 2 7.99044 2Z" fill="black"/>
</svg>
