<svg width="16" height="16" viewBox="0 0 16 16" fill="none" xmlns="http://www.w3.org/2000/svg">
<path fill-rule="evenodd" clip-rule="evenodd" d="M13 3C13.55 3 14 3.45 14 4V12C14 12.55 13.55 13 13 13H3C2.45 13 2 12.55 2 12V4C2 3.45 2.45 3 3 3H13ZM7.78027 7.26953C7.45028 7.04959 7 7.29045 7 7.69043V10.3203C7.00023 10.7201 7.45036 10.9602 7.78027 10.7402L9.75 9.41992C10.05 9.21991 10.05 8.78984 9.75 8.58984L7.78027 7.26953ZM3.7002 5.5H5.2998L6.7998 4H5.2002L3.7002 5.5ZM6.7002 5.5H8.2998L9.7998 4H8.2002L6.7002 5.5ZM9.7002 5.5H11.2998L12.79 4H11.2002L9.7002 5.5Z" fill="currentColor"/>
</svg>
