<svg width="16" height="16" viewBox="0 0 16 16" fill="none" xmlns="http://www.w3.org/2000/svg">
<path d="M2.5 4H3.5C3.78 4 4 4.22 4 4.5V7.25977L8.32031 4.08008C8.60028 3.87029 8.99994 4.08003 9 4.41992V7.25L13.3203 4.07031C13.6003 3.86037 14 4.07017 14 4.41016V11.5498C14 11.8998 13.6003 12.0996 13.3203 11.8896L9 8.70996V11.54C8.99997 11.89 8.6003 12.0897 8.32031 11.8799L4 8.7002V11.46C4 11.74 3.78 11.96 3.5 11.96H2.5C2.22 11.96 2 11.74 2 11.46V4.46973C2.00014 4.18986 2.22009 3.96973 2.5 3.96973V4Z" fill="black"/>
</svg>
