<svg width="16" height="16" viewBox="0 0 16 16" fill="none" xmlns="http://www.w3.org/2000/svg">
<path fill-rule="evenodd" clip-rule="evenodd" d="M8 2C11.31 2 14 4.69 14 8C14 11.31 11.31 14 8 14C4.69 14 2 11.31 2 8C2 4.69 4.69 2 8 2ZM6 5.5C5.72003 5.5 5.50005 5.68996 5.5 5.91992V10.0801C5.50005 10.31 5.72003 10.5 6 10.5H6.5C6.77997 10.5 6.99995 10.31 7 10.0801V8.62012L9.74023 10.3301C10.0802 10.5398 10.5097 10.3 10.5098 9.91016V6.08984C10.5096 5.70002 10.0702 5.46018 9.74023 5.66992L7 7.37988V5.91992C6.99995 5.68996 6.77997 5.5 6.5 5.5H6Z" fill="black"/>
</svg>
