<svg width="16" height="16" viewBox="0 0 16 16" fill="none" xmlns="http://www.w3.org/2000/svg">
<path fill-rule="evenodd" clip-rule="evenodd" d="M8 2C11.31 2 14 4.69 14 8C14 11.31 11.31 14 8 14C4.69 14 2 11.31 2 8C2 4.69 4.69 2 8 2ZM5.5 9.25C5.22 9.25 5 9.47 5 9.75V10.25C5 10.53 5.22 10.75 5.5 10.75H10.5C10.78 10.75 11 10.53 11 10.25V9.75C11 9.47 10.78 9.25 10.5 9.25H5.5ZM8.36035 4.62012C8.17035 4.39012 7.81988 4.39012 7.62988 4.62012L5.25 7.46973H5.24023C4.98023 7.77973 5.20035 8.25 5.61035 8.25H10.3701C10.78 8.24991 11.0002 7.7797 10.7402 7.46973L8.36035 4.62012Z" fill="black"/>
</svg>
