<svg width="16" height="16" viewBox="0 0 16 16" fill="none" xmlns="http://www.w3.org/2000/svg">
<path d="M2 11.5C2.27614 11.5 2.5 11.7239 2.5 12C2.5 12.2761 2.27614 12.5 2 12.5C1.72386 12.5 1.5 12.2761 1.5 12C1.5 11.7239 1.72386 11.5 2 11.5Z" fill="black"/>
<path d="M2 9.5C3.37614 9.5 4.5 10.6239 4.5 12C4.5 12.2761 4.27614 12.5 4 12.5C3.72386 12.5 3.5 12.2761 3.5 12C3.5 11.1761 2.82386 10.5 2 10.5C1.72386 10.5 1.5 10.2761 1.5 10C1.5 9.72386 1.72386 9.5 2 9.5Z" fill="black"/>
<path d="M2 7.5C4.48614 7.5 6.5 9.51386 6.5 12C6.5 12.2761 6.27614 12.5 6 12.5C5.72386 12.5 5.5 12.2761 5.5 12C5.5 10.0661 3.93386 8.5 2 8.5C1.72386 8.5 1.5 8.27614 1.5 8C1.5 7.72386 1.72386 7.5 2 7.5Z" fill="black"/>
<path d="M13 3.5C13.8261 3.5 14.5 4.17386 14.5 5V11C14.5 11.8261 13.8261 12.5 13 12.5H8C7.72386 12.5 7.5 12.2761 7.5 12C7.5 11.7239 7.72386 11.5 8 11.5H13C13.2739 11.5 13.5 11.2739 13.5 11V5C13.5 4.72614 13.2739 4.5 13 4.5H3C2.72614 4.5 2.5 4.72614 2.5 5V6C2.5 6.27614 2.27614 6.5 2 6.5C1.72386 6.5 1.5 6.27614 1.5 6V5C1.5 4.17386 2.17386 3.5 3 3.5H13Z" fill="black"/>
</svg>
