<svg width="16" height="16" viewBox="0 0 16 16" fill="none" xmlns="http://www.w3.org/2000/svg">
<path fill-rule="evenodd" clip-rule="evenodd" d="M11 4C11.55 4 12 4.45 12 5V13C12 13.55 11.55 14 11 14H3C2.45 14 2 13.55 2 13V5C2 4.45 2.45 4 3 4H11ZM9.36035 9.34961C9.16048 9.14975 8.8504 9.15 8.65039 9.34961L5.5 12.5H10.5098V10.5L9.36035 9.34961ZM5.5 6C4.67 6 4 6.67 4 7.5C4 8.33 4.67 9 5.5 9C6.33 9 7 8.33 7 7.5C7 6.67 6.33 6 5.5 6Z" fill="currentColor"/>
<path d="M13 2C13.55 2 14 2.45 14 3V11C14 11.55 13.55 12 13 12V4C13 3.45 12.55 3 12 3H4C4 2.45 4.45 2 5 2H13Z" fill="currentColor"/>
</svg>
