<svg width="16" height="16" viewBox="0 0 16 16" fill="none" xmlns="http://www.w3.org/2000/svg">
<path d="M12 7.5C12.28 7.5 12.5 7.72 12.5 8C12.5 10.31 10.74 12.2002 8.5 12.4502V13.5H10C10.28 13.5 10.5 13.72 10.5 14C10.5 14.28 10.28 14.5 10 14.5H6C5.72 14.5 5.5 14.28 5.5 14C5.5 13.72 5.72 13.5 6 13.5H7.5V12.4502C5.26 12.2002 3.5 10.31 3.5 8C3.5 7.72 3.72 7.5 4 7.5C4.28 7.5 4.5 7.72 4.5 8C4.5 9.93 6.07 11.5 8 11.5C9.93 11.5 11.5 9.93 11.5 8C11.5 7.72 11.72 7.5 12 7.5Z" fill="currentColor"/>
<path d="M8 2C9.38 2 10.5 3.12 10.5 4.5V8C10.5 9.38 9.38 10.5 8 10.5C6.62 10.5 5.5 9.38 5.5 8V4.5C5.5 3.12 6.62 2 8 2Z" fill="currentColor"/>
</svg>
