<svg width="16" height="16" viewBox="0 0 16 16" fill="none" xmlns="http://www.w3.org/2000/svg">
<path d="M11.6504 3.12002C12.1002 3.05026 12.5 3.40038 12.5 3.86026V10.4101C12.5 11.1801 11.9999 11.8901 11.21 11.9901C10.42 12.0901 9.7298 11.59 9.5498 10.87C9.51981 10.75 9.5 10.6299 9.5 10.4999C9.50006 9.66996 10.17 8.99991 11 8.99991H11.5V6.12002L5.5 6.99991V11.4999C5.5 12.3299 4.83 12.9999 4 12.9999C3.17 12.9999 2.5 12.3299 2.5 11.4999C2.50006 10.67 3.17004 9.99991 4 9.99991H4.5V4.99014C4.5 4.49014 4.87035 4.06991 5.36035 3.99991H5.37012L11.6504 3.12002Z" fill="currentColor"/>
</svg>
