<svg width="16" height="16" viewBox="0 0 16 16" fill="none" xmlns="http://www.w3.org/2000/svg">
<path d="M9 3C9.55 3 10 3.45 10 4C10 4.55 9.55 5 9 5H6V11C6 12.1 5.1 13 4 13C2.9 13 2 12.1 2 11C2 9.9 2.9 9 4 9H5V4C5 3.45 5.45 3 6 3H9Z" fill="currentColor"/>
<path d="M13.5 10.5C13.7761 10.5 14 10.7239 14 11C14 11.2761 13.7761 11.5 13.5 11.5H8C7.72386 11.5 7.5 11.2761 7.5 11C7.5 10.7239 7.72386 10.5 8 10.5H13.5Z" fill="currentColor"/>
<path d="M13.5 8.5C13.7761 8.5 14 8.72386 14 9C14 9.27614 13.7761 9.5 13.5 9.5H8C7.72386 9.5 7.5 9.27614 7.5 9C7.5 8.72386 7.72386 8.5 8 8.5H13.5Z" fill="currentColor"/>
<path d="M13.5 6.5C13.7761 6.5 14 6.72386 14 7C14 7.27614 13.7761 7.5 13.5 7.5H8C7.72386 7.5 7.5 7.27614 7.5 7C7.5 6.72386 7.72386 6.5 8 6.5H13.5Z" fill="currentColor"/>
</svg>
