<svg width="16" height="16" viewBox="0 0 16 16" fill="none" xmlns="http://www.w3.org/2000/svg">
<path d="M8 7.25C8.41421 7.25 8.75 7.58579 8.75 8C8.75 8.41421 8.41421 8.75 8 8.75C7.58579 8.75 7.25 8.41421 7.25 8C7.25 7.58579 7.58579 7.25 8 7.25Z" fill="black"/>
<path fill-rule="evenodd" clip-rule="evenodd" d="M8 2C11.31 2 14 4.69 14 8C14 11.31 11.31 14 8 14C4.69 14 2 11.31 2 8C2 4.69 4.69 2 8 2ZM4 7.5C3.72 7.5 3.5 7.72 3.5 8C3.5 10.48 5.52 12.5 8 12.5C8.28 12.5 8.5 12.28 8.5 12C8.5 11.72 8.28 11.5 8 11.5C6.07 11.5 4.5 9.93 4.5 8C4.5 7.72 4.28 7.5 4 7.5ZM8 5.5C6.62 5.5 5.5 6.62 5.5 8C5.5 9.38 6.62 10.5 8 10.5C9.38 10.5 10.5 9.38 10.5 8C10.5 6.62 9.38 5.5 8 5.5ZM8 3.5C7.72 3.5 7.5 3.72 7.5 4C7.5 4.28 7.72 4.5 8 4.5C9.93 4.5 11.5 6.07 11.5 8C11.5 8.28 11.72 8.5 12 8.5C12.28 8.5 12.5 8.28 12.5 8C12.5 5.52 10.48 3.5 8 3.5Z" fill="black"/>
</svg>
