<svg width="16" height="16" viewBox="0 0 16 16" fill="none" xmlns="http://www.w3.org/2000/svg">
<path fill-rule="evenodd" clip-rule="evenodd" d="M11 3C11.55 3 12 3.45 12 4V12C12 12.55 11.55 13 11 13H3C2.45 13 2 12.55 2 12V4C2 3.45 2.45 3 3 3H11ZM9.51953 5.46973C9.21961 5.23001 8.81999 5.15032 8.4502 5.24023L6.13965 5.82031C5.46987 5.99046 5 6.59042 5 7.28027V9C4.45 9 4 9.45 4 10C4 10.55 4.45 11 5 11C5.55 11 6 10.55 6 10V7.28027C6 7.05032 6.15995 6.85008 6.37988 6.79004L8.69043 6.20996C8.79021 6.19016 8.86045 6.22981 8.90039 6.25977C8.94039 6.2898 8.99999 6.35011 9 6.45996V8C8.45 8 8 8.45 8 9C8 9.55 8.45 10 9 10C9.55 10 10 9.55 10 9V6.45996C9.99999 6.06998 9.81952 5.70972 9.51953 5.46973Z" fill="currentColor"/>
<path d="M13 4C13.55 4 14 4.45 14 5V11C14 11.55 13.55 12 13 12V4Z" fill="currentColor"/>
</svg>
