<svg width="16" height="16" viewBox="0 0 16 16" fill="none" xmlns="http://www.w3.org/2000/svg">
<path fill-rule="evenodd" clip-rule="evenodd" d="M8 2C11.31 2 14 4.69 14 8C14 11.31 11.31 14 8 14C4.69 14 2 11.31 2 8C2 4.69 4.69 2 8 2ZM6.25 5C5.97 5 5.75 5.22 5.75 5.5V10.5C5.75 10.78 5.97 11 6.25 11H6.75C7.03 11 7.25 10.78 7.25 10.5V5.5C7.25 5.22 7.03 5 6.75 5H6.25ZM9.25 5C8.97 5 8.75 5.22 8.75 5.5V10.5C8.75 10.78 8.97 11 9.25 11H9.75C10.03 11 10.25 10.78 10.25 10.5V5.5C10.25 5.22 10.03 5 9.75 5H9.25Z" fill="black"/>
</svg>
