<svg width="16" height="16" viewBox="0 0 16 16" fill="none" xmlns="http://www.w3.org/2000/svg">
<path fill-rule="evenodd" clip-rule="evenodd" d="M8 2C11.31 2 14 4.69 14 8C14 11.31 11.31 14 8 14C4.69 14 2 11.31 2 8C2 4.69 4.69 2 8 2ZM11 6.54004C11 6.15015 10.5604 5.91042 10.2305 6.12012L7.78027 7.65039V6.54004C7.78027 6.15004 7.33977 5.91012 7.00977 6.12012L4.7002 7.57031C4.39021 7.77032 4.3902 8.21992 4.7002 8.41992L7.00977 9.87012C7.34971 10.0801 7.78013 9.84008 7.78027 9.4502V8.33984L10.2305 9.87012C10.5704 10.0797 10.9999 9.83993 11 9.4502V6.54004Z" fill="black"/>
</svg>
