<svg width="16" height="16" viewBox="0 0 16 16" fill="none" xmlns="http://www.w3.org/2000/svg">
<path d="M2.15039 11.6504C2.29039 11.5104 2.51043 11.46 2.69043 11.54C2.7503 11.5601 2.8097 11.6005 2.84961 11.6504C2.94961 11.7404 3 11.87 3 12C3 12.13 2.94961 12.2596 2.84961 12.3496C2.8097 12.3995 2.7503 12.4399 2.69043 12.46C2.63043 12.49 2.57 12.5 2.5 12.5C2.37 12.5 2.24039 12.4496 2.15039 12.3496C2.05039 12.2596 2 12.13 2 12C2 11.87 2.05039 11.7404 2.15039 11.6504Z" fill="black"/>
<path d="M2.5 9.5C3.88 9.5 5 10.62 5 12C5 12.28 4.78 12.5 4.5 12.5C4.22 12.5 4 12.28 4 12C4 11.17 3.33 10.5 2.5 10.5C2.22 10.5 2 10.28 2 10C2 9.72 2.22 9.5 2.5 9.5Z" fill="black"/>
<path d="M2.5 7.5C4.98 7.5 7 9.52 7 12C7 12.28 6.78 12.5 6.5 12.5C6.22 12.5 6 12.28 6 12C6 10.07 4.43 8.5 2.5 8.5C2.22 8.5 2 8.28 2 8C2 7.72 2.22 7.5 2.5 7.5Z" fill="black"/>
<path d="M12.5 3.5C13.33 3.5 14 4.17 14 5V11C14 11.83 13.33 12.5 12.5 12.5H8.5C8.22 12.5 8 12.28 8 12C8 8.97 5.53 6.5 2.5 6.5C2.22 6.5 2 6.28 2 6V5C2 4.17 2.67 3.5 3.5 3.5H12.5Z" fill="black"/>
</svg>
