<svg width="16" height="16" viewBox="0 0 16 16" fill="none" xmlns="http://www.w3.org/2000/svg">
<path fill-rule="evenodd" clip-rule="evenodd" d="M8 2C11.31 2 14 4.69 14 8C14 11.31 11.31 14 8 14C4.69 14 2 11.31 2 8C2 4.69 4.69 2 8 2ZM11.0205 5.50977C10.7406 5.50977 10.5206 5.72988 10.5205 6.00977V7.11035L8.28027 5.70996C8.13036 5.62001 7.93046 5.61037 7.77051 5.7002C7.61061 5.79014 7.5099 5.95978 7.50977 6.13965V7.11035L5.27051 5.70996C5.11051 5.61996 4.91977 5.6102 4.75977 5.7002C4.60003 5.79018 4.50013 5.95988 4.5 6.13965V9.88965C4.5 10.0696 4.59985 10.2401 4.75977 10.3301C4.82977 10.3701 4.92 10.3896 5 10.3896C5.09 10.3896 5.17977 10.3596 5.25977 10.3096L7.5 8.91016V9.87988C7.5 10.0599 7.5998 10.2303 7.75977 10.3203C7.82977 10.3603 7.92 10.3799 8 10.3799C8.08997 10.3799 8.17979 10.3498 8.25977 10.2998L10.5 8.90039V10C10.5 10.28 10.72 10.5 11 10.5C11.28 10.5 11.5 10.28 11.5 10L11.5205 10.0098V6.00977C11.5204 5.73004 11.3002 5.51002 11.0205 5.50977Z" fill="currentColor"/>
</svg>
