<svg width="16" height="16" viewBox="0 0 16 16" fill="none" xmlns="http://www.w3.org/2000/svg">
<path fill-rule="evenodd" clip-rule="evenodd" d="M8 2C11.31 2 14 4.69 14 8C14 11.31 11.31 14 8 14C4.69 14 2 11.31 2 8C2 4.69 4.69 2 8 2ZM5 5.5C4.72 5.5 4.5 5.72 4.5 6L4.52051 5.99023V9.99023C4.52063 10.2701 4.74059 10.4902 5.02051 10.4902C5.3002 10.49 5.52039 10.27 5.52051 9.99023V8.88965L7.75977 10.29C7.83977 10.34 7.93051 10.3701 8.02051 10.3701C8.10034 10.37 8.17994 10.3495 8.25977 10.3096C8.41973 10.2196 8.52046 10.0501 8.52051 9.87012V8.90039L10.7598 10.2998C10.8398 10.3498 10.9305 10.3799 11.0205 10.3799C11.1002 10.3798 11.18 10.3601 11.2598 10.3203C11.4198 10.2303 11.5205 10.0599 11.5205 9.87988V6.12988C11.5205 5.94993 11.4197 5.78041 11.2598 5.69043C11.0998 5.60043 10.9 5.6002 10.75 5.7002L8.50977 7.09961V6.12988C8.50972 5.95 8.40986 5.78044 8.25 5.69043C8.09003 5.60045 7.89023 5.60025 7.74023 5.7002L5.5 7.09961V6C5.5 5.72 5.28 5.5 5 5.5Z" fill="currentColor"/>
</svg>
