<svg width="16" height="16" viewBox="0 0 16 16" fill="none" xmlns="http://www.w3.org/2000/svg">
<path fill-rule="evenodd" clip-rule="evenodd" d="M8 2C11.31 2 14 4.69 14 8C14 11.31 11.31 14 8 14C4.69 14 2 11.31 2 8C2 4.69 4.69 2 8 2ZM9.5 5.5C9.22003 5.5 9.00005 5.68996 9 5.91992V7.37988L6.25977 5.66992C5.91984 5.46018 5.49035 5.70002 5.49023 6.08984V9.91016C5.49035 10.3 5.92983 10.5398 6.25977 10.3301L9 8.62012V10.0801C9.00005 10.31 9.22003 10.5 9.5 10.5H10C10.28 10.5 10.5 10.31 10.5 10.0801V5.91992C10.5 5.68996 10.28 5.5 10 5.5H9.5Z" fill="black"/>
</svg>
