<svg width="16" height="16" viewBox="0 0 16 16" fill="none" xmlns="http://www.w3.org/2000/svg">
<path d="M8.2002 3.60009C8.53019 3.35022 9 3.59052 9 4.00048V12.0005C8.99968 12.4102 8.53008 12.6498 8.2002 12.3999L5 10.0005H3C2.45014 10.0005 2.00022 9.55029 2 9.00048V7.00048C2 6.45048 2.45 6.00048 3 6.00048H5L8.2002 3.60009Z" fill="currentColor"/>
<path d="M12.9902 3.63036C13.1902 3.43036 13.5002 3.43036 13.7002 3.63036C14.86 4.79033 15.5 6.34012 15.5 7.97997C15.5 9.61983 14.86 11.1696 13.7002 12.3296C13.6002 12.4296 13.4696 12.48 13.3496 12.48L13.3398 12.4995C13.21 12.4995 13.0802 12.4499 12.9902 12.3501C12.7902 12.1501 12.7902 11.8401 12.9902 11.6401C13.9602 10.6701 14.5 9.36971 14.5 7.98974C14.4999 6.60997 13.96 5.32023 12.9902 4.34032C12.7903 4.14034 12.7903 3.83036 12.9902 3.63036Z" fill="currentColor"/>
<path d="M11.6504 5.22021C11.8504 5.02033 12.1604 5.02025 12.3604 5.22021C13.8901 6.75023 13.8903 9.23056 12.3604 10.7505C12.2604 10.8505 12.1298 10.8999 12.0098 10.8999L12 10.9097C11.8701 10.9097 11.7404 10.86 11.6504 10.7602C11.4504 10.5602 11.4504 10.2503 11.6504 10.0503C12.7902 8.91036 12.7901 7.07016 11.6504 5.93017C11.4504 5.73017 11.4504 5.42021 11.6504 5.22021Z" fill="currentColor"/>
<path d="M10.2402 6.63036C10.4402 6.43036 10.7502 6.43036 10.9502 6.63036C11.31 6.99033 11.5098 7.47012 11.5098 7.97997C11.5098 8.48983 11.31 8.96961 10.9502 9.32958C10.8502 9.42958 10.7196 9.47997 10.5996 9.47997L10.5898 9.4995C10.46 9.49947 10.3302 9.44993 10.2402 9.35009C10.0402 9.15009 10.0402 8.84013 10.2402 8.64013C10.4102 8.47013 10.5098 8.23971 10.5098 7.98974C10.5097 7.73998 10.42 7.52021 10.2402 7.34032C10.0403 7.15034 10.0403 6.83037 10.2402 6.63036Z" fill="currentColor"/>
</svg>
