<svg width="16" height="16" viewBox="0 0 16 16" fill="none" xmlns="http://www.w3.org/2000/svg">
<path d="M8.2002 3.59969C8.53018 3.35006 9 3.5902 9 4.00008V12.0001C8.99999 12.4099 8.53018 12.6501 8.2002 12.4005L5 10.0001H3C2.45 10.0001 2.00001 9.55007 2 9.00008V7.00008C2 6.45008 2.45 6.00008 3 6.00008H5L8.2002 3.59969Z" fill="currentColor"/>
<path d="M11.6465 5.14559C11.8417 4.9509 12.1584 4.95086 12.3535 5.14559C12.5486 5.3407 12.5483 5.65732 12.3535 5.85262L11.707 6.4991L12.3535 7.14559C12.5486 7.3407 12.5483 7.65732 12.3535 7.85262L11.707 8.4991L12.3535 9.14559C12.5486 9.3407 12.5483 9.65732 12.3535 9.85262L11.3535 10.8526C11.1583 11.0479 10.8417 11.0479 10.6465 10.8526C10.4516 10.6573 10.4514 10.3407 10.6465 10.1456L11.293 9.4991L10.6465 8.85262C10.4516 8.65732 10.4514 8.34072 10.6465 8.14559L11.293 7.4991L10.6465 6.85262C10.4516 6.65732 10.4514 6.34072 10.6465 6.14559L11.6465 5.14559Z" fill="currentColor"/>
</svg>
