<svg width="16" height="16" viewBox="0 0 16 16" fill="none" xmlns="http://www.w3.org/2000/svg">
<path fill-rule="evenodd" clip-rule="evenodd" d="M13 3C13.55 3 14 3.45 14 4V12C14 12.55 13.55 13 13 13H3C2.45 13 2 12.55 2 12V4C2 3.45 2.45 3 3 3H13ZM3 11.5C3 11.78 3.22 12 3.5 12C3.78 12 4 11.78 4 11.5V10H3V11.5ZM12 11.5C12 11.78 12.22 12 12.5 12C12.78 12 13 11.78 13 11.5V10H12V11.5ZM7.28027 6.17969C6.95038 5.95976 6.5003 6.19985 6.5 6.59961V9.40039C6.5003 9.80015 6.95038 10.0402 7.28027 9.82031L9.37988 8.41992V8.41016C9.67988 8.21016 9.67988 7.78008 9.37988 7.58008L7.28027 6.17969ZM3 9H4V7H3V9ZM12 9H13V7H12V9ZM3.5 4C3.22 4 3 4.22 3 4.5V6H4V4.5C4 4.22 3.78 4 3.5 4ZM12.5 4C12.22 4 12 4.22 12 4.5V6H13V4.5C13 4.22 12.78 4 12.5 4Z" fill="black"/>
</svg>
