<svg width="16" height="16" viewBox="0 0 16 16" fill="none" xmlns="http://www.w3.org/2000/svg">
<path d="M9.16016 3.36044C10.5002 2.83044 12.0303 2.8904 13.3203 3.5704H13.3096C13.7195 3.79036 13.9901 4.20987 13.9902 4.67977V12.1202C13.9901 12.49 13.6004 12.7195 13.2705 12.5499C11.7007 11.75 9.77044 11.83 8.27051 12.8097C8.10051 12.9197 7.88973 12.9197 7.71973 12.8097C6.21977 11.8299 4.28961 11.7499 2.71973 12.5499C2.38981 12.7197 2.00013 12.49 2 12.1202V4.68954C2.00018 4.21987 2.26006 3.79038 2.67969 3.5704C3.96968 2.9004 5.49985 2.83044 6.83984 3.36044C7.22973 3.52039 7.49985 3.8898 7.5 4.30965V11.0098C7.5 11.2898 7.72 11.5098 8 11.5098C8.28 11.5098 8.5 11.2898 8.5 11.0098V4.30965C8.50015 3.8898 8.77027 3.52039 9.16016 3.36044Z" fill="currentColor"/>
</svg>
