<svg width="16" height="16" viewBox="0 0 16 16" fill="none" xmlns="http://www.w3.org/2000/svg">
<path d="M12 4V3C12 2.45 11.55 2 11 2H4C3.45 2 3 2.45 3 3V13C3 13.55 3.45 14 4 14H12C12.56 14 13 13.55 13 13V5C13 4.45 12.55 4 12 4ZM11 4H4.5C4.22 4 4 3.78 4 3.5C4 3.22 4.22 3 4.5 3H10.5C10.78 3 11 3.22 11 3.5V4ZM8 12.25C7.59 12.25 7.25 11.91 7.25 11.5C7.25 11.09 7.59 10.75 8 10.75C8.41 10.75 8.75 11.09 8.75 11.5C8.75 11.91 8.41 12.25 8 12.25ZM8 9.8C7.72 9.8 7.5 9.58 7.5 9.3V9.02C7.5 8.64 7.72 8.31 8.07 8.16L8.25 8.08C8.46 7.99 8.62 7.8 8.62 7.61C8.62 7.26 8.34 6.98 8 6.98C7.66 6.98 7.38 7.26 7.38 7.6C7.38 7.88 7.16 8.1 6.88 8.1C6.6 8.1 6.38 7.88 6.38 7.6C6.38 6.71 7.11 5.98 8 5.98C8.89 5.98 9.62 6.71 9.62 7.6C9.62 8.21 9.23 8.75 8.64 9L8.46 9.08L8.51 9.29C8.51 9.57 8.29 9.79 8.01 9.79L8 9.8Z" fill="currentColor"/>
</svg>
