<svg width="16" height="16" viewBox="0 0 16 16" fill="none" xmlns="http://www.w3.org/2000/svg">
<path fill-rule="evenodd" clip-rule="evenodd" d="M10.29 2.71045C10.68 2.32045 11.3199 2.32045 11.7099 2.71045L13.29 4.28956C13.68 4.67956 13.68 5.32045 13.29 5.71045L12 6.99952L10.3896 10.2105C10.1396 10.7101 9.69 11.0897 9.15037 11.2397L3.87009 12.7495C3.49022 12.8595 3.14032 12.5102 3.24998 12.1304L4.75974 6.8501C4.90974 6.3101 5.29001 5.85987 5.79001 5.60987L8.99998 3.99952L10.29 2.71045ZM7.34959 8.64991C7.15962 8.45023 6.84031 8.4502 6.65037 8.64991L4.55955 10.73C4.35987 10.9299 4.35988 11.24 4.55955 11.4399C4.65955 11.5399 4.79013 11.5903 4.91013 11.5903C5.0401 11.5903 5.17051 11.5399 5.27048 11.4399L7.34959 9.3501C7.54959 9.1601 7.54959 8.83991 7.34959 8.64991ZM10.1797 4.47998C9.98971 4.28022 9.67042 4.28024 9.48044 4.47998C9.38054 4.5699 9.33015 4.69972 9.33005 4.82959C9.33005 4.95959 9.38044 5.09018 9.48044 5.18018L10.8203 6.52002C11.0103 6.71987 11.3305 6.71997 11.5205 6.52002C11.7202 6.33005 11.7202 6.00978 11.5205 5.81983L10.1797 4.47998Z" fill="currentColor"/>
</svg>
