<svg width="16" height="16" viewBox="0 0 16 16" fill="none" xmlns="http://www.w3.org/2000/svg">
<path d="M8.69043 9.5H7.30957L8 8.12012L8.69043 9.5Z" fill="black"/>
<path fill-rule="evenodd" clip-rule="evenodd" d="M11 2C11.55 2 12 2.45 12 3V4C12.55 4 13 4.45 13 5V13C13 13.55 12.56 14 12 14H4C3.45 14 3 13.55 3 13V3C3 2.45 3.45 2 4 2H11ZM8.4502 6.76953C8.28005 6.42991 7.72964 6.42984 7.55957 6.76953L5.55957 10.7695C5.42957 11.0195 5.53027 11.3204 5.78027 11.4404C6.0302 11.5701 6.33026 11.4696 6.4502 11.2197L6.80957 10.5H9.19043L9.5498 11.2197C9.6398 11.3997 9.82 11.5 10 11.5C10.0699 11.5 10.1498 11.4901 10.2197 11.4502L10.2305 11.4404C10.4703 11.3204 10.5702 11.0195 10.4502 10.7695L8.4502 6.76953ZM4.5 3C4.22 3 4 3.22 4 3.5C4 3.78 4.22 4 4.5 4H11V3.5C11 3.22 10.78 3 10.5 3H4.5Z" fill="black"/>
</svg>
