<svg width="16" height="16" viewBox="0 0 16 16" fill="none" xmlns="http://www.w3.org/2000/svg">
<path d="M12 4V3C12 2.45 11.55 2 11 2H4C3.45 2 3 2.45 3 3V13C3 13.55 3.45 14 4 14H12C12.56 14 13 13.55 13 13V5C13 4.45 12.55 4 12 4ZM11 4H4.5C4.22 4 4 3.78 4 3.5C4 3.22 4.22 3 4.5 3H10.5C10.78 3 11 3.22 11 3.5V4ZM8 5.75C8.41 5.75 8.75 6.09 8.75 6.5C8.75 6.91 8.41 7.25 8 7.25C7.59 7.25 7.25 6.91 7.25 6.5C7.25 6.09 7.59 5.75 8 5.75ZM9 12H7C6.72 12 6.5 11.78 6.5 11.5C6.5 11.22 6.72 11 7 11H7.5V9H7C6.72 9 6.5 8.78 6.5 8.5C6.5 8.22 6.72 8 7 8H8C8.28 8 8.5 8.22 8.5 8.5V11H9C9.28 11 9.5 11.22 9.5 11.5C9.5 11.78 9.28 12 9 12Z" fill="black"/>
</svg>
