<svg width="16" height="16" viewBox="0 0 16 16" fill="none" xmlns="http://www.w3.org/2000/svg">
<path fill-rule="evenodd" clip-rule="evenodd" d="M11 2C11.55 2 12 2.45 12 3V4C12.55 4 13 4.45 13 5V13C13 13.55 12.56 14 12 14H4C3.45 14 3 13.55 3 13V3C3 2.45 3.45 2 4 2H11ZM7 7.5C6.72 7.5 6.5 7.72 6.5 8C6.5 8.28 6.72 8.5 7 8.5H7.5V10.5H7C6.72 10.5 6.5 10.72 6.5 11C6.5 11.28 6.72 11.5 7 11.5H9C9.28 11.5 9.5 11.28 9.5 11C9.5 10.72 9.28 10.5 9 10.5H8.5V8C8.5 7.72 8.28 7.5 8 7.5H7ZM8.19043 6.04004C8.01043 5.96004 7.79039 6.01039 7.65039 6.15039C7.6005 6.1903 7.56008 6.2497 7.54004 6.30957C7.50004 6.36957 7.5 6.43 7.5 6.5C7.5 6.63 7.55039 6.75961 7.65039 6.84961C7.74039 6.94961 7.87 7 8 7C8.07 7 8.13043 6.98996 8.19043 6.95996C8.2503 6.93992 8.3097 6.8995 8.34961 6.84961C8.44961 6.75961 8.5 6.63 8.5 6.5C8.5 6.43 8.48996 6.36957 8.45996 6.30957C8.43992 6.2497 8.3995 6.1903 8.34961 6.15039C8.3097 6.1005 8.2503 6.06008 8.19043 6.04004ZM4.5 3C4.22 3 4 3.22 4 3.5C4 3.78 4.22 4 4.5 4H11V3.5C11 3.22 10.78 3 10.5 3H4.5Z" fill="currentColor"/>
</svg>
