<svg width="16" height="16" viewBox="0 0 16 16" fill="none" xmlns="http://www.w3.org/2000/svg">
<path d="M3.66016 2.03965C4.92007 1.82979 6 2.80042 6 4.01035V9.01035C5.26 8.45035 4.12 8.34043 3.25 8.84043C3.01016 8.98049 2.93035 9.28019 3.07031 9.52012C3.21038 9.75991 3.51009 9.83976 3.75 9.69981C3.97998 9.56983 4.24003 9.49961 4.5 9.49961C5.32989 9.49961 5.99982 10.1698 6 10.9996C6 11.2796 6.22 11.4996 6.5 11.4996C6.78 11.4996 7 11.2796 7 10.9996V3.99961H13V4.01035C13.55 4.01035 14 4.46035 14 5.01035V12.0104C13.9998 12.5602 13.5499 13.0104 13 13.0104H4.11035C3.11045 13.0104 2.1904 12.3301 2.03027 11.3502L2 4.11973C2.0001 3.11981 2.68023 2.19964 3.66016 2.03965Z" fill="black"/>
</svg>
