<svg width="16" height="16" viewBox="0 0 16 16" fill="none" xmlns="http://www.w3.org/2000/svg">
<path d="M13 5C13.55 5 14 5.45 14 6V11C14 11.55 13.55 12 13 12H10.5V12.5C10.5 12.78 10.28 13 10 13H6C5.72 13 5.5 12.78 5.5 12.5V12H3C2.45 12 2 11.55 2 11V6C2 5.45 2.45 5 3 5V10.5C3 10.78 3.22 11 3.5 11H6C6.24512 11 6.44443 11.1686 6.49023 11.3984L6.50977 11.6016C6.55557 11.8314 6.75488 12 7 12H9C9.24512 12 9.44443 11.8314 9.49023 11.6016L9.50977 11.3984C9.55557 11.1686 9.75488 11 10 11H12.5C12.78 11 13 10.78 13 10.5V5Z" fill="black"/>
<path d="M7 3C7.28 3 7.5 3.22 7.5 3.5V8.5C7.5 8.78 7.72 9 8 9C8.28 9 8.5 8.78 8.5 8.5V3.5C8.5 3.22 8.72 3 9 3H11.5C11.78 3 12 3.22 12 3.5V9.5C12 9.78 11.78 10 11.5 10H8.96973C8.70994 10.0001 8.50015 10.2099 8.5 10.4697V10.5C8.5 10.8 8.22992 11.0402 7.91992 10.9902C7.66009 10.9502 7.49021 10.6903 7.5 10.4404C7.51 10.1904 7.26953 10 7.01953 10H4.5C4.22 10 4 9.78 4 9.5V3.5C4 3.22 4.22 3 4.5 3H7Z" fill="black"/>
</svg>
