<svg width="16" height="16" viewBox="0 0 16 16" fill="none" xmlns="http://www.w3.org/2000/svg">
<path fill-rule="evenodd" clip-rule="evenodd" d="M11 2C11.55 2 12 2.45 12 3V4C12.55 4 13 4.45 13 5V13C13 13.55 12.56 14 12 14H4C3.45 14 3 13.55 3 13V3C3 2.45 3.45 2 4 2H11ZM8.19043 10.54C8.07043 10.49 7.92957 10.49 7.80957 10.54C7.7497 10.5601 7.6903 10.6005 7.65039 10.6504C7.6005 10.6903 7.56008 10.7497 7.54004 10.8096C7.50004 10.8696 7.5 10.94 7.5 11C7.5 11.13 7.55039 11.2596 7.65039 11.3496C7.6903 11.3995 7.7497 11.4399 7.80957 11.46C7.86957 11.49 7.94 11.5 8 11.5C8.13 11.5 8.25961 11.4496 8.34961 11.3496C8.44961 11.2596 8.5 11.13 8.5 11C8.5 10.94 8.48996 10.8696 8.45996 10.8096C8.43992 10.7497 8.3995 10.6903 8.34961 10.6504C8.3097 10.6005 8.2503 10.5601 8.19043 10.54ZM8 6.5C7.17 6.5 6.5 7.17 6.5 8C6.5 8.28 6.72 8.5 7 8.5C7.24512 8.5 7.44443 8.33143 7.49023 8.10156L7.50977 7.89844C7.55557 7.66857 7.75488 7.5 8 7.5C8.28 7.5 8.5 7.72 8.5 8C8.5 8.15 8.37996 8.30012 8.20996 8.37012L8.04004 8.44043C7.71009 8.57045 7.5 8.89003 7.5 9.25V9.5C7.5 9.78 7.72 10 8 10C8.28 10 8.5 9.78 8.5 9.5V9.33984L8.58984 9.2998C9.13984 9.0698 9.5 8.57 9.5 8C9.5 7.17 8.83 6.5 8 6.5ZM4.5 3C4.22 3 4 3.22 4 3.5C4 3.78 4.22 4 4.5 4H11V3.5C11 3.22 10.78 3 10.5 3H4.5Z" fill="black"/>
</svg>
