<svg width="16" height="16" viewBox="0 0 16 16" fill="none" xmlns="http://www.w3.org/2000/svg">
<path fill-rule="evenodd" clip-rule="evenodd" d="M11 2C12.1 2 13 2.9 13 4V12C13 13.1 12.1 14 11 14H3.5C3.22 14 3 13.78 3 13.5V2.5C3 2.22 3.22 2 3.5 2H11ZM5 3C4.72 3 4.5 3.22 4.5 3.5V12.5C4.5 12.78 4.72 13 5 13C5.28 13 5.5 12.78 5.5 12.5V3.5C5.5 3.22 5.28 3 5 3ZM8 2.99023V6.38965C8 6.6195 8.26965 6.72986 8.42969 6.57031L9.5 5.5L10.5703 6.57031C10.7304 6.71987 11 6.6095 11 6.38965V2.99023H8Z" fill="black"/>
</svg>
