<svg width="16" height="16" viewBox="0 0 16 16" fill="none" xmlns="http://www.w3.org/2000/svg">
<path d="M12.6596 10.0996L13.0697 10.3798C13.5197 10.6798 13.5197 11.3298 13.0697 11.6298L8.69961 14.54C8.27965 14.8198 7.72986 14.8199 7.30996 14.54L2.93984 11.6298C2.49006 11.3298 2.48998 10.6798 2.93984 10.3798L3.35 10.0996L7.17031 12.6504C7.67027 12.9901 8.33059 12.9903 8.83047 12.6504L12.6498 10.0996H12.6596Z" fill="currentColor"/>
<path d="M13.0697 7.37984C13.5197 7.67984 13.5197 8.32984 13.0697 8.62984L8.69961 11.54C8.27965 11.8198 7.72986 11.8199 7.30996 11.54L2.93984 8.62984C2.49006 8.3298 2.48998 7.67982 2.93984 7.37984L3.35 7.09957L7.17031 9.65035C7.67027 9.9901 8.33059 9.99027 8.83047 9.65035L12.6498 7.09957H12.6596L13.0697 7.37984Z" fill="currentColor"/>
<path d="M7.30996 1.45992C7.72985 1.17999 8.27965 1.18014 8.69961 1.45992L13.0697 4.37008C13.5197 4.67008 13.5197 5.32008 13.0697 5.62008L8.69961 8.53023C8.27968 8.80996 7.72982 8.81011 7.30996 8.53023L2.93984 5.62008C2.49 5.32008 2.49005 4.6701 2.93984 4.37008L7.30996 1.45992Z" fill="currentColor"/>
</svg>
