<svg width="16" height="16" viewBox="0 0 16 16" fill="none" xmlns="http://www.w3.org/2000/svg">
<path d="M11.9096 8.59957L13.0697 9.37984C13.5197 9.67984 13.5197 10.3298 13.0697 10.6298L8.69961 13.54C8.27965 13.8198 7.72986 13.8199 7.30996 13.54L2.93984 10.6298C2.49006 10.3298 2.48998 9.67982 2.93984 9.37984L4.1 8.59957L7.17031 10.6504C7.67027 10.9901 8.33059 10.9903 8.83047 10.6504L11.8998 8.59957H11.9096Z" fill="black"/>
<path d="M7.30996 2.45992C7.72985 2.17999 8.27965 2.18014 8.69961 2.45992L13.0697 5.37008C13.5197 5.67008 13.5197 6.32008 13.0697 6.62008L8.69961 9.53023C8.27968 9.80996 7.72982 9.81011 7.30996 9.53023L2.93984 6.62008C2.49 6.32008 2.49005 5.6701 2.93984 5.37008L7.30996 2.45992Z" fill="black"/>
</svg>
