<svg width="16" height="16" viewBox="0 0 16 16" fill="none" xmlns="http://www.w3.org/2000/svg">
<path d="M7 1.5C8.37614 1.5 9.5 2.62386 9.5 4V11C9.5 11.8261 8.82614 12.5 8 12.5C7.17386 12.5 6.5 11.8261 6.5 11V5C6.5 4.72386 6.72386 4.5 7 4.5C7.27614 4.5 7.5 4.72386 7.5 5V11C7.5 11.2739 7.72614 11.5 8 11.5C8.27386 11.5 8.5 11.2739 8.5 11V4C8.5 3.17614 7.82386 2.5 7 2.5C6.17614 2.5 5.5 3.17614 5.5 4V11C5.5 12.3839 6.61614 13.5 8 13.5C9.38386 13.5 10.5 12.3839 10.5 11V5C10.5 4.72386 10.7239 4.5 11 4.5C11.2761 4.5 11.5 4.72386 11.5 5V11C11.5 12.9361 9.93614 14.5 8 14.5C6.06386 14.5 4.5 12.9361 4.5 11V4C4.5 2.62386 5.62386 1.5 7 1.5Z" fill="currentColor"/>
</svg>
