<svg width="16" height="16" viewBox="0 0 16 16" fill="none" xmlns="http://www.w3.org/2000/svg">
<path fill-rule="evenodd" clip-rule="evenodd" d="M7 6.5C7.82843 6.5 8.5 7.17157 8.5 8C8.5 8.82843 7.82843 9.5 7 9.5C6.17157 9.5 5.5 8.82843 5.5 8C5.5 7.17157 6.17157 6.5 7 6.5ZM7 7.5C6.72386 7.5 6.5 7.72386 6.5 8C6.5 8.27614 6.72386 8.5 7 8.5C7.27614 8.5 7.5 8.27614 7.5 8C7.5 7.72386 7.27614 7.5 7 7.5Z" fill="currentColor"/>
<path d="M10 8.5C10.2761 8.5 10.5 8.72386 10.5 9C10.5 9.27614 10.2761 9.5 10 9.5C9.72386 9.5 9.5 9.27614 9.5 9C9.5 8.72386 9.72386 8.5 10 8.5Z" fill="currentColor"/>
<path d="M9 5.5C9.27614 5.5 9.5 5.72386 9.5 6C9.5 6.27614 9.27614 6.5 9 6.5C8.72386 6.5 8.5 6.27614 8.5 6C8.5 5.72386 8.72386 5.5 9 5.5Z" fill="currentColor"/>
<path fill-rule="evenodd" clip-rule="evenodd" d="M9 1.5C9.27614 1.5 9.5 1.72386 9.5 2C9.5 2.27614 9.27614 2.5 9 2.5H8.5V3.52832C9.36763 3.62425 10.1604 3.9668 10.8076 4.48438L11.5381 3.75488L11.1865 3.40332C10.9913 3.20805 10.9913 2.89152 11.1865 2.69629C11.3818 2.50118 11.6983 2.50115 11.8936 2.69629L13.3037 4.10645C13.4988 4.30168 13.4988 4.61826 13.3037 4.81348C13.1085 5.00869 12.792 5.00859 12.5967 4.81348L12.2451 4.46191L11.5146 5.19141C12.0327 5.83886 12.3757 6.63189 12.4717 7.5H13.5V7C13.5 6.72386 13.7239 6.5 14 6.5C14.2761 6.5 14.5 6.72386 14.5 7V9C14.5 9.27614 14.2761 9.5 14 9.5C13.7239 9.5 13.5 9.27614 13.5 9V8.5H12.4717C12.3757 9.36784 12.0324 10.1603 11.5146 10.8076L12.2451 11.5381L12.5967 11.1865C12.7919 10.9913 13.1085 10.9913 13.3037 11.1865C13.4989 11.3818 13.4989 11.6983 13.3037 11.8936L11.8936 13.3037C11.6983 13.4988 11.3817 13.4988 11.1865 13.3037C10.9913 13.1085 10.9914 12.792 11.1865 12.5967L11.5381 12.2451L10.8076 11.5146C10.1603 12.0324 9.3678 12.3747 8.5 12.4707V13.5H9C9.27614 13.5 9.5 13.7239 9.5 14C9.5 14.2761 9.27614 14.5 9 14.5H7C6.72386 14.5 6.5 14.2761 6.5 14C6.5 13.7239 6.72386 13.5 7 13.5H7.5V12.4707C6.63194 12.3747 5.83883 12.0327 5.19141 11.5146L4.46191 12.2451L4.81348 12.5967C5.00859 12.792 5.00869 13.1085 4.81348 13.3037C4.61826 13.4988 4.30168 13.4988 4.10645 13.3037L2.69629 11.8936C2.50115 11.6983 2.50118 11.3818 2.69629 11.1865C2.89152 10.9913 3.20805 10.9913 3.40332 11.1865L3.75488 11.5381L4.48438 10.8076C3.9668 10.1604 3.62425 9.36763 3.52832 8.5H2.5V9C2.5 9.27614 2.27614 9.5 2 9.5C1.72386 9.5 1.5 9.27614 1.5 9V7C1.5 6.72386 1.72386 6.5 2 6.5C2.27614 6.5 2.5 6.72386 2.5 7V7.5H3.52832C3.62428 6.63211 3.96653 5.83877 4.48438 5.19141L3.75488 4.46191L3.40332 4.81348C3.20807 5.00858 2.89151 5.00862 2.69629 4.81348C2.5013 4.61824 2.50124 4.30164 2.69629 4.10645L4.10645 2.69629C4.30164 2.50118 4.61822 2.50128 4.81348 2.69629C5.00864 2.89153 5.00864 3.20808 4.81348 3.40332L4.46191 3.75488L5.19141 4.48438C5.83877 3.96653 6.63211 3.62428 7.5 3.52832V2.5H7C6.72386 2.5 6.5 2.27614 6.5 2C6.5 1.72386 6.72386 1.5 7 1.5H9ZM8 4.5C6.067 4.5 4.5 6.067 4.5 8C4.5 9.933 6.067 11.5 8 11.5C9.933 11.5 11.5 9.933 11.5 8C11.5 6.067 9.933 4.5 8 4.5Z" fill="currentColor"/>
</svg>
