<svg width="16" height="16" viewBox="0 0 16 16" fill="none" xmlns="http://www.w3.org/2000/svg">
<path fill-rule="evenodd" clip-rule="evenodd" d="M9 1.5C9.82614 1.5 10.5 2.17386 10.5 3V3.5H13C13.8284 3.5 14.5 4.17157 14.5 5V12C14.5 12.8284 13.8284 13.5 13 13.5H3C2.17157 13.5 1.5 12.8284 1.5 12V5C1.5 4.17157 2.17157 3.5 3 3.5H5.5V3C5.5 2.17386 6.17386 1.5 7 1.5H9ZM5.5 12.5H10.5V4.5H5.5V12.5ZM11.5 12.5H13C13.2761 12.5 13.5 12.2761 13.5 12V5C13.5 4.72386 13.2761 4.5 13 4.5H11.5V12.5ZM3 4.5C2.72386 4.5 2.5 4.72386 2.5 5V12C2.5 12.2761 2.72386 12.5 3 12.5H4.5V4.5H3ZM7 2.5C6.72614 2.5 6.5 2.72614 6.5 3V3.5H9.5V3C9.5 2.72614 9.27386 2.5 9 2.5H7Z" fill="currentColor"/>
</svg>
