<svg width="16" height="16" viewBox="0 0 16 16" fill="none" xmlns="http://www.w3.org/2000/svg">
<path d="M2.69141 11.0663C2.93075 10.9291 3.23652 11.0116 3.37402 11.2509C3.51136 11.4902 3.42859 11.7959 3.18945 11.9335L2.31934 12.4335C2.07996 12.571 1.77431 12.4883 1.63672 12.2489C1.49922 12.0095 1.58191 11.7039 1.82129 11.5663L2.69141 11.0663Z" fill="black"/>
<path d="M12.626 11.2509C12.7635 11.0116 13.0692 10.9291 13.3086 11.0663L14.1787 11.5663C14.4181 11.7039 14.5007 12.0095 14.3633 12.2489C14.2257 12.4881 13.92 12.5709 13.6807 12.4335L12.8105 11.9335C12.5715 11.7959 12.4887 11.4902 12.626 11.2509Z" fill="black"/>
<path d="M7 5.49991C7.27613 5.49991 7.49998 5.72379 7.5 5.99991C7.5 6.27606 7.27614 6.49991 7 6.49991H6C5.17616 6.49991 4.50002 7.17607 4.5 7.99991C4.5 8.82377 5.17614 9.49991 6 9.49991H7C7.27613 9.49991 7.49998 9.72379 7.5 9.99991C7.5 10.2761 7.27614 10.4999 7 10.4999H6C4.62386 10.4999 3.5 9.37606 3.5 7.99991C3.50002 6.62379 4.62387 5.49991 6 5.49991H7Z" fill="black"/>
<path d="M10 5.49991C11.3761 5.49991 12.5 6.62379 12.5 7.99991C12.5 9.37606 11.3761 10.4999 10 10.4999H9C8.72386 10.4999 8.5 10.2761 8.5 9.99991C8.50002 9.72379 8.72387 9.49991 9 9.49991H10C10.8239 9.49991 11.5 8.82377 11.5 7.99991C11.5 7.17607 10.8238 6.49991 10 6.49991H9C8.72386 6.49991 8.5 6.27606 8.5 5.99991C8.50002 5.72379 8.72387 5.49991 9 5.49991H10Z" fill="black"/>
<path d="M2 7.49991C2.27613 7.49991 2.49998 7.72379 2.5 7.99991C2.5 8.27606 2.27614 8.49991 2 8.49991H1C0.723858 8.49991 0.5 8.27606 0.5 7.99991C0.500023 7.72379 0.723872 7.49991 1 7.49991H2Z" fill="black"/>
<path d="M15 7.49991C15.2761 7.49991 15.5 7.72379 15.5 7.99991C15.5 8.27606 15.2761 8.49991 15 8.49991H14C13.7239 8.49991 13.5 8.27606 13.5 7.99991C13.5 7.72379 13.7239 7.49991 14 7.49991H15Z" fill="black"/>
<path d="M1.63672 3.75089C1.77433 3.5116 2.07998 3.42885 2.31934 3.56632L3.18945 4.06632C3.42859 4.20392 3.51134 4.50964 3.37402 4.74894C3.23651 4.9882 2.93076 5.07074 2.69141 4.93351L1.82129 4.43351C1.58191 4.29593 1.49922 3.99029 1.63672 3.75089Z" fill="black"/>
<path d="M13.6807 3.56632C13.92 3.42894 14.2257 3.51173 14.3633 3.75089C14.5007 3.99028 14.4181 4.29594 14.1787 4.43351L13.3086 4.93351C13.0692 5.07076 12.7635 4.98821 12.626 4.74894C12.4887 4.50967 12.5715 4.20393 12.8105 4.06632L13.6807 3.56632Z" fill="black"/>
</svg>
