<svg width="16" height="16" viewBox="0 0 16 16" fill="none" xmlns="http://www.w3.org/2000/svg">
<path d="M6 4.5C6.27614 4.5 6.5 4.72386 6.5 5C6.5 5.27614 6.27614 5.5 6 5.5H5C3.61614 5.5 2.5 6.61614 2.5 8C2.5 9.38386 3.61614 10.5 5 10.5H6C6.27614 10.5 6.5 10.7239 6.5 11C6.5 11.2761 6.27614 11.5 6 11.5H5C3.06386 11.5 1.5 9.93614 1.5 8C1.5 6.06386 3.06386 4.5 5 4.5H6Z" fill="currentColor"/>
<path d="M11 4.5C12.9361 4.5 14.5 6.06386 14.5 8C14.5 9.93614 12.9361 11.5 11 11.5H10C9.72386 11.5 9.5 11.2761 9.5 11C9.5 10.7239 9.72386 10.5 10 10.5H11C12.3839 10.5 13.5 9.38386 13.5 8C13.5 6.61614 12.3839 5.5 11 5.5H10C9.72386 5.5 9.5 5.27614 9.5 5C9.5 4.72386 9.72386 4.5 10 4.5H11Z" fill="currentColor"/>
<path d="M11 7.5C11.2761 7.5 11.5 7.72386 11.5 8C11.5 8.27614 11.2761 8.5 11 8.5H5C4.72386 8.5 4.5 8.27614 4.5 8C4.5 7.72386 4.72386 7.5 5 7.5H11Z" fill="currentColor"/>
</svg>
