<svg width="16" height="16" viewBox="0 0 16 16" fill="none" xmlns="http://www.w3.org/2000/svg">
<path d="M10.3965 5.81543C10.592 5.62051 10.9095 5.62092 11.1045 5.81641C11.2995 6.01191 11.299 6.32941 11.1035 6.52441L7.43262 10.1836C7.23731 10.3783 6.92163 10.3785 6.72656 10.1836L4.89648 8.35352C4.70125 8.15827 4.70127 7.84175 4.89648 7.64648C5.09175 7.4513 5.40828 7.45126 5.60352 7.64648L7.0791 9.12207L10.3965 5.81543Z" fill="black"/>
<path fill-rule="evenodd" clip-rule="evenodd" d="M11 2C12.66 2 14 3.34 14 5V11C14 12.66 12.66 14 11 14H5C3.34 14 2 12.66 2 11V5C2 3.34 3.34 2 5 2H11ZM5 3C3.9 3 3 3.9 3 5V11C3 12.1 3.9 13 5 13H11C12.1 13 13 12.1 13 11V5C13 3.9 12.1 3 11 3H5Z" fill="black"/>
</svg>
