<svg width="16" height="16" viewBox="0 0 16 16" fill="none" xmlns="http://www.w3.org/2000/svg">
<path fill-rule="evenodd" clip-rule="evenodd" d="M7.99974 1.5C8.27588 1.5 8.49974 1.72386 8.49974 2V2.56543C9.36218 2.78757 9.99974 3.5682 9.99974 4.5C9.99974 5.1491 9.68887 5.72348 9.2097 6.08887L10.5866 9.35742C11.1539 8.73546 11.5007 7.90862 11.5007 7C11.5007 6.72386 11.7246 6.5 12.0007 6.5C12.2765 6.50037 12.5007 6.72409 12.5007 7C12.5007 8.33072 11.9223 9.52493 11.0046 10.3486L12.4607 13.8057C12.5679 14.0601 12.4485 14.3537 12.1941 14.4609C11.9397 14.568 11.6461 14.4486 11.5388 14.1943L10.1687 10.9424C9.52554 11.2967 8.78716 11.4999 8.00071 11.5C7.21319 11.5 6.47443 11.2931 5.83079 10.9385L4.46067 14.1943C4.35339 14.4486 4.0598 14.5681 3.8054 14.4609C3.5512 14.3536 3.43167 14.06 3.5388 13.8057L6.7888 6.08789C6.31043 5.72245 5.99974 5.14846 5.99974 4.5C5.99974 3.56838 6.63754 2.78774 7.49974 2.56543V2C7.49974 1.72394 7.72371 1.50014 7.99974 1.5ZM8.28782 6.47559C8.19366 6.48918 8.09766 6.5 7.99974 6.5C7.90139 6.49999 7.80522 6.48931 7.71067 6.47559L6.22239 10.0107C6.74531 10.3192 7.35198 10.5 8.00071 10.5C8.65004 10.4999 9.25699 10.3216 9.77806 10.0137L8.28782 6.47559ZM7.99974 3.5C7.44757 3.50014 6.99974 3.9478 6.99974 4.5C6.99974 4.90587 7.24218 5.2544 7.58958 5.41113C7.59757 5.41403 7.60608 5.41562 7.61399 5.41895C7.62104 5.42191 7.62766 5.42644 7.6345 5.42969C7.74777 5.47425 7.87065 5.49997 7.99974 5.5C8.12752 5.5 8.2497 5.47533 8.36204 5.43164C8.36998 5.42779 8.37725 5.42242 8.38548 5.41895C8.39365 5.4155 8.40262 5.41411 8.41087 5.41113C8.75806 5.25432 8.99974 4.90572 8.99974 4.5C8.99974 3.94772 8.55202 3.5 7.99974 3.5Z" fill="black"/>
</svg>
