<svg width="16" height="16" viewBox="0 0 16 16" fill="none" xmlns="http://www.w3.org/2000/svg">
<path d="M8.5 1.5C10.7061 1.5 12.5 3.29386 12.5 5.5C12.5 5.92285 12.4316 6.34522 12.3057 6.73438L12.3027 6.74219L10.373 12.3818L10.3711 12.3867C9.91826 13.6639 8.86449 14.5 7.5 14.5C5.84386 14.5 4.5 13.1561 4.5 11.5V11C4.5 10.7239 4.72386 10.5 5 10.5C5.27614 10.5 5.5 10.7239 5.5 11V11.5C5.5 12.6039 6.39614 13.5 7.5 13.5C8.39551 13.5 9.10154 12.9755 9.42871 12.0527L11.3564 6.41797C11.4489 6.12929 11.5 5.81425 11.5 5.5C11.5 3.84614 10.1539 2.5 8.5 2.5C6.84614 2.5 5.5 3.84614 5.5 5.5V6C5.5 6.27614 5.27614 6.5 5 6.5C4.72386 6.5 4.5 6.27614 4.5 6V5.5C4.5 3.29386 6.29386 1.5 8.5 1.5Z" fill="currentColor"/>
<path d="M8.5 3.5C9.60614 3.5 10.5 4.39386 10.5 5.5V6C10.5 6.27614 10.2761 6.5 10 6.5C9.72386 6.5 9.5 6.27614 9.5 6V5.5C9.5 4.94614 9.05386 4.5 8.5 4.5C7.94614 4.5 7.5 4.94614 7.5 5.5V7.58691C8.08144 7.7937 8.5 8.34915 8.5 9C8.5 9.82614 7.82614 10.5 7 10.5C6.72386 10.5 6.5 10.2761 6.5 10C6.5 9.75829 6.67145 9.55629 6.89941 9.50977L7.10059 9.49023C7.32716 9.44307 7.5 9.2395 7.5 9C7.5 8.7605 7.32716 8.55693 7.10059 8.50977L6.89941 8.49023C6.67145 8.44371 6.5 8.24171 6.5 8V5.5C6.5 4.39386 7.39386 3.5 8.5 3.5Z" fill="currentColor"/>
</svg>
