<svg width="16" height="16" viewBox="0 0 16 16" fill="none" xmlns="http://www.w3.org/2000/svg">
<path d="M6.5 11.25C6.91421 11.25 7.25 11.5858 7.25 12C7.25 12.4142 6.91421 12.75 6.5 12.75C6.08579 12.75 5.75 12.4142 5.75 12C5.75 11.5858 6.08579 11.25 6.5 11.25Z" fill="currentColor"/>
<path d="M9.5 11.25C9.91421 11.25 10.25 11.5858 10.25 12C10.25 12.4142 9.91421 12.75 9.5 12.75C9.08579 12.75 8.75 12.4142 8.75 12C8.75 11.5858 9.08579 11.25 9.5 11.25Z" fill="currentColor"/>
<path d="M6.5 3.5C6.77614 3.5 7 3.72386 7 4V9.5C7 9.77614 6.77614 10 6.5 10C6.22386 10 6 9.77614 6 9.5V4C6 3.72386 6.22386 3.5 6.5 3.5Z" fill="currentColor"/>
<path d="M9.5 3.5C9.77614 3.5 10 3.72386 10 4V9.5C10 9.77614 9.77614 10 9.5 10C9.22386 10 9 9.77614 9 9.5V4C9 3.72386 9.22386 3.5 9.5 3.5Z" fill="currentColor"/>
</svg>
