<svg width="16" height="16" viewBox="0 0 16 16" fill="none" xmlns="http://www.w3.org/2000/svg">
<path fill-rule="evenodd" clip-rule="evenodd" d="M7.99983 4.5C9.93597 4.5 11.4998 6.06386 11.4998 8C11.4998 9.93614 9.93597 11.5 7.99983 11.5C6.06373 11.5 4.49983 9.93611 4.49983 8C4.49983 6.06389 6.06373 4.50005 7.99983 4.5ZM7.99983 5.5C6.61601 5.50005 5.49983 6.61617 5.49983 8C5.49983 9.38383 6.61601 10.5 7.99983 10.5C9.38368 10.5 10.4998 9.38386 10.4998 8C10.4998 6.61614 9.38368 5.5 7.99983 5.5Z" fill="black"/>
<path d="M7.99983 2.5C11.1564 2.5 13.8708 4.65499 15.4461 7.77441C15.5706 8.02085 15.4718 8.32176 15.2254 8.44629C14.979 8.5707 14.6781 8.47194 14.5535 8.22559C13.0888 5.32513 10.6632 3.5 7.99983 3.5C5.3365 3.50003 2.9108 5.32513 1.44612 8.22559C1.32158 8.47194 1.02067 8.57073 0.774241 8.44629C0.527912 8.32175 0.429115 8.02083 0.553538 7.77441C2.12885 4.655 4.84326 2.50003 7.99983 2.5Z" fill="black"/>
</svg>
