<svg width="16" height="16" viewBox="0 0 16 16" fill="none" xmlns="http://www.w3.org/2000/svg">
<path fill-rule="evenodd" clip-rule="evenodd" d="M12.6463 2.64648C12.8416 2.45122 13.1581 2.45123 13.3533 2.64648C13.5486 2.84175 13.5486 3.15825 13.3533 3.35352L12.5555 4.14941C13.721 5.06492 14.7085 6.31382 15.4461 7.77441C15.5706 8.02085 15.4718 8.32176 15.2254 8.44629C14.979 8.5707 14.6781 8.47194 14.5535 8.22559C13.8467 6.82584 12.9158 5.67689 11.8426 4.8623L10.8035 5.90234C11.2409 6.48653 11.4998 7.21238 11.4998 8C11.4998 9.93614 9.93597 11.5 7.99983 11.5C7.21224 11.5 6.48634 11.2411 5.90217 10.8037L3.35334 13.3535C3.15808 13.5487 2.84156 13.5488 2.64631 13.3535C2.45107 13.1583 2.4511 12.8417 2.64631 12.6465L5.19514 10.0967C4.7583 9.51269 4.49983 8.78709 4.49983 8C4.49983 6.06389 6.06373 4.50005 7.99983 4.5C8.78691 4.5 9.51252 4.75848 10.0965 5.19531L10.9881 4.30273C10.058 3.78349 9.04756 3.5 7.99983 3.5C5.3365 3.50003 2.9108 5.32513 1.44612 8.22559C1.32158 8.47194 1.02067 8.57073 0.774241 8.44629C0.527912 8.32175 0.429115 8.02083 0.553538 7.77441C2.12885 4.655 4.84326 2.50003 7.99983 2.5C9.33734 2.5 10.5948 2.88805 11.7205 3.57129L12.6463 2.64648ZM6.61994 10.0859C7.01511 10.3474 7.48906 10.5 7.99983 10.5C9.38368 10.5 10.4998 9.38386 10.4998 8C10.4998 7.48921 10.3472 7.0153 10.0858 6.62012L6.61994 10.0859ZM7.99983 5.5C6.61601 5.50005 5.49983 6.61617 5.49983 8C5.49983 8.51027 5.65194 8.98397 5.91291 9.37891L9.37873 5.91309C8.9838 5.65212 8.51009 5.5 7.99983 5.5Z" fill="currentColor"/>
</svg>
