<svg width="16" height="16" viewBox="0 0 16 16" fill="none" xmlns="http://www.w3.org/2000/svg">
<path fill-rule="evenodd" clip-rule="evenodd" d="M12.6461 2.64648C12.8413 2.45128 13.1579 2.45139 13.3531 2.64648C13.5484 2.84175 13.5484 3.15825 13.3531 3.35352L12.5582 4.14746C13.5861 4.95392 14.4751 6.0199 15.1744 7.26367C15.4309 7.71647 15.4319 8.27379 15.1754 8.72656L15.1744 8.72559C13.5746 11.5614 10.9817 13.4902 7.99962 13.4902C6.66433 13.4901 5.40724 13.1045 4.28185 12.4238L3.35314 13.3535C3.15786 13.5486 2.8413 13.5487 2.64611 13.3535C2.45108 13.1583 2.4511 12.8417 2.64611 12.6465L3.44494 11.8467C2.41475 11.0394 1.52424 9.97077 0.823842 8.72461L0.824818 8.72363C0.56952 8.27122 0.568753 7.71577 0.824818 7.26367C2.42462 4.42834 5.01794 2.50021 7.99962 2.5C9.3369 2.5 10.5957 2.8869 11.7223 3.56934L12.6461 2.64648ZM10.8033 5.90137C11.2411 6.48569 11.4996 7.21203 11.4996 8C11.4996 9.93614 9.93577 11.5 7.99962 11.5C7.21185 11.4999 6.48617 11.2403 5.90197 10.8027L5.01427 11.6914C5.94358 12.2082 6.95283 12.4901 7.99962 12.4902C10.5173 12.4902 12.8251 10.8573 14.3053 8.2334C14.3884 8.08649 14.3884 7.90377 14.3053 7.75684L14.3043 7.75488C13.6351 6.56421 12.796 5.58108 11.8453 4.86035L10.8033 5.90137ZM7.99962 3.5C5.4821 3.50021 3.17598 5.13214 1.69591 7.75586L1.69494 7.75684C1.61181 7.90381 1.61174 8.08645 1.69494 8.2334L1.69591 8.23535C2.36605 9.42759 3.20662 10.4118 4.1588 11.1328L5.19396 10.0967C4.7574 9.5128 4.49962 8.78681 4.49962 8C4.49962 6.06399 6.06367 4.50022 7.99962 4.5C8.7864 4.5 9.51243 4.75781 10.0963 5.19434L10.9908 4.30078C10.06 3.78234 9.04835 3.5 7.99962 3.5ZM6.61974 10.085C7.01495 10.3466 7.48869 10.4999 7.99962 10.5C9.38348 10.5 10.4996 9.38386 10.4996 8C10.4996 7.48885 10.3474 7.01449 10.0856 6.61914L6.61974 10.085ZM7.99962 5.5C6.61595 5.50022 5.49962 6.61628 5.49962 8C5.49962 8.50992 5.65207 8.98316 5.91271 9.37793L9.37755 5.91309C8.9828 5.65248 8.5095 5.5 7.99962 5.5Z" fill="black"/>
</svg>
