<svg width="16" height="16" viewBox="0 0 16 16" fill="none" xmlns="http://www.w3.org/2000/svg">
<path d="M14.5667 5.75107C14.7044 5.51193 15.0101 5.4291 15.2493 5.5665C15.4884 5.70423 15.5713 6.00993 15.4339 6.24912C14.9494 7.09069 14.359 7.8468 13.6858 8.49326L14.6497 9.68662C14.8225 9.90142 14.7891 10.2164 14.5745 10.3897C14.3598 10.563 14.0449 10.529 13.8714 10.3145L12.928 9.14658C12.226 9.68754 11.4534 10.1163 10.6282 10.4112L11.0862 11.8478C11.1702 12.1107 11.0249 12.3926 10.762 12.4767C10.4992 12.5603 10.2182 12.4151 10.1341 12.1524L9.66632 10.6886C9.1272 10.8068 8.57059 10.8702 8.0003 10.8702C7.42966 10.8702 6.87263 10.8064 6.33331 10.6876L5.86651 12.1524C5.7824 12.4153 5.50057 12.5606 5.23761 12.4767C4.97473 12.3925 4.82941 12.1107 4.91339 11.8478L5.37237 10.4103C4.54788 10.1147 3.77591 9.6852 3.07452 9.14463L2.12921 10.3145C1.9558 10.5291 1.64086 10.5628 1.42608 10.3897C1.21133 10.2162 1.17843 9.90142 1.35186 9.68662L2.31573 8.49131C1.64217 7.84486 1.05243 7.08882 0.567684 6.2501C0.429524 6.01101 0.511224 5.70565 0.750301 5.56748C0.98937 5.42939 1.29476 5.51105 1.43292 5.7501C2.88152 8.25646 5.30206 9.87021 8.0003 9.87021C9.73041 9.87018 11.3443 9.20914 12.6624 8.07334C12.6702 8.0662 12.6775 8.05858 12.6858 8.05185C12.6898 8.04863 12.6945 8.04615 12.6985 8.04306C13.4218 7.41261 14.0553 6.63915 14.5667 5.75107Z" fill="currentColor"/>
</svg>
