<svg width="16" height="16" viewBox="0 0 16 16" fill="none" xmlns="http://www.w3.org/2000/svg">
<path fill-rule="evenodd" clip-rule="evenodd" d="M11.6312 2.51367C12.5568 2.65024 13.0309 3.76497 12.4213 4.53125L12.4203 4.5332L9.49938 8.17578V11C9.49938 11.1325 9.44748 11.2598 9.35387 11.3535L7.35387 13.3535C7.21097 13.4964 6.99566 13.5391 6.80895 13.4619C6.62219 13.3845 6.49938 13.2022 6.49938 13V8.1748L3.57946 4.5332L3.57848 4.53125C2.92816 3.71383 3.51131 2.50013 4.55992 2.5H11.4398L11.6312 2.51367ZM4.48571 3.51074C4.32406 3.55977 4.2483 3.76501 4.35973 3.90723L7.39 7.6875C7.46104 7.77619 7.49938 7.88636 7.49938 8V11.793L8.49938 10.793V8C8.49938 7.88639 8.53872 7.77618 8.60973 7.6875L11.64 3.90723C11.7515 3.76498 11.6758 3.55972 11.514 3.51074L11.4398 3.5H4.55992L4.48571 3.51074Z" fill="currentColor"/>
</svg>
