<svg width="16" height="16" viewBox="0 0 16 16" fill="none" xmlns="http://www.w3.org/2000/svg">
<path fill-rule="evenodd" clip-rule="evenodd" d="M11.79 1.5C12.6813 1.50005 13.1362 2.58086 12.4883 3.20898L12.4873 3.20801L10.6963 5L12.4873 6.79102C13.1431 7.4267 12.6603 8.49995 11.79 8.5H5.5V14C5.5 14.2761 5.27614 14.5 5 14.5C4.72386 14.5 4.5 14.2761 4.5 14V2C4.5 1.72386 4.72386 1.5 5 1.5H11.79ZM5.5 7.5H11.7822L9.63672 5.35352C9.54295 5.25975 9.49023 5.13261 9.49023 5C9.49023 4.86739 9.54295 4.74025 9.63672 4.64648L11.7822 2.5H5.5V7.5Z" fill="black"/>
</svg>
