<svg width="16" height="16" viewBox="0 0 16 16" fill="none" xmlns="http://www.w3.org/2000/svg">
<path fill-rule="evenodd" clip-rule="evenodd" d="M8.04004 1.49023C9.05507 1.49039 9.80111 2.18733 10.0488 3.0498C10.8404 2.61914 11.8698 2.6719 12.5908 3.38379L12.6328 3.42578L12.6348 3.42871C13.3438 4.14638 13.3779 5.16188 12.9473 5.94629C13.8141 6.20135 14.5095 6.96208 14.5098 7.97949V8.04004C14.5096 9.05622 13.8111 9.80295 12.9473 10.0498C13.3783 10.8416 13.3287 11.8707 12.6162 12.5918L12.5723 12.6357C11.8547 13.3446 10.8383 13.3786 10.0537 12.9482C9.81078 13.773 9.10949 14.4423 8.16504 14.5049L8.01953 14.5098H7.95996C6.94412 14.5096 6.19819 13.8117 5.95117 12.9482C5.15937 13.3794 4.1304 13.3278 3.40918 12.6152L3.36719 12.5732L3.36426 12.5713C2.6553 11.8536 2.61991 10.8374 3.05078 10.0527C2.22659 9.80945 1.55768 9.109 1.49512 8.16504L1.49023 8.01953V7.95996C1.49039 6.94428 2.18775 6.19804 3.05078 5.95117C2.61991 5.15949 2.67183 4.13021 3.38379 3.40918L3.42871 3.36426C4.14624 2.65575 5.16211 2.62034 5.94629 3.05078C6.20192 2.18482 6.96276 1.49044 7.97949 1.49023H8.04004ZM8.47754 10.4531C8.32289 10.4831 8.1634 10.5 8 10.5C7.83965 10.5 7.6832 10.4829 7.53125 10.4541L6.95215 11.8604L6.95117 11.8623C6.62219 12.6525 7.1891 13.5095 7.95996 13.5098H8.01953C8.76034 13.5098 9.31171 12.7481 9.1084 12L9.05762 11.8506L8.47754 10.4531ZM10.0693 9.40234C9.89173 9.66392 9.66567 9.8895 9.4043 10.0674L9.98145 11.4678C10.3116 12.2592 11.321 12.4663 11.8691 11.9248L11.9072 11.8867C12.4654 11.3184 12.2552 10.3071 11.4697 9.98242L10.0693 9.40234ZM4.77832 9.87793L4.53125 9.98145C4.52985 9.98202 4.52777 9.98185 4.52637 9.98242C3.73939 10.3145 3.53594 11.32 4.0752 11.8672L4.1123 11.9043L4.22363 12C4.8042 12.4363 5.714 12.2065 6.01855 11.4688L6.59766 10.0693C6.33555 9.89137 6.10871 9.66536 5.93066 9.40332L4.77832 9.87793ZM8 6.5C7.8088 6.5 7.62617 6.53634 7.45801 6.60156C7.44527 6.60814 7.43342 6.61749 7.41992 6.62305C7.408 6.62794 7.39487 6.6289 7.38281 6.63281C6.86231 6.86815 6.5 7.39163 6.5 8C6.5 8.19024 6.53697 8.3716 6.60156 8.53906C6.60851 8.55237 6.61721 8.56496 6.62305 8.5791C6.62808 8.59133 6.62979 8.60482 6.63379 8.61719C6.86921 9.13749 7.39177 9.5 8 9.5C8.19254 9.5 8.37579 9.4616 8.54492 9.39551C8.55648 9.38966 8.5679 9.38295 8.58008 9.37793C8.59065 9.37358 8.60162 9.37076 8.6123 9.36719C9.13498 9.13274 9.5 8.60995 9.5 8C9.5 7.80867 9.46276 7.62626 9.39746 7.45801C9.39097 7.4454 9.38245 7.43327 9.37695 7.41992C9.37203 7.40791 9.37014 7.39496 9.36621 7.38281C9.13079 6.86251 8.60823 6.5 8 6.5ZM4.1377 6.95117C3.34746 6.62207 2.49048 7.18904 2.49023 7.95996V8.01953C2.49023 8.80954 3.35617 9.384 4.14844 9.05762L5.5459 8.47754C5.51599 8.32294 5.5 8.16333 5.5 8C5.5 7.83972 5.5161 7.68315 5.54492 7.53125L4.13965 6.95215L4.1377 6.95117ZM13.5098 7.97949C13.5094 7.239 12.7479 6.68743 12 6.89062L11.8545 6.93945C11.8535 6.93985 11.8525 6.94101 11.8516 6.94141L11.8496 6.94238L11.6338 7.03125L10.4521 7.52051C10.4823 7.6758 10.5 7.83588 10.5 8C10.5 8.16002 10.4828 8.31612 10.4541 8.46777L11.8604 9.04785H11.8623C12.6525 9.37695 13.5095 8.81096 13.5098 8.04004V7.97949ZM6.01758 4.53125C5.68709 3.74239 4.68104 3.53494 4.13281 4.07324L4.13379 4.07422L4.0957 4.1123L3.99902 4.22363C3.56311 4.80421 3.79374 5.71405 4.53125 6.01855L5.92969 6.59766C6.1073 6.33596 6.33329 6.10961 6.59473 5.93164L6.01758 4.53125ZM11.7764 3.99902C11.1958 3.56316 10.286 3.79287 9.98145 4.53027L9.40137 5.92969C9.6632 6.10726 9.88931 6.33326 10.0674 6.59473L11.3359 6.07227L11.4678 6.01758C12.2575 5.68734 12.4649 4.68112 11.9258 4.13281L11.8887 4.0957L11.7764 3.99902ZM7.97949 2.49023C7.18975 2.49056 6.6152 3.35635 6.94141 4.14844L6.94238 4.15039L7.52051 5.54688C7.67575 5.51671 7.83594 5.5 8 5.5C8.15995 5.5 8.31617 5.51621 8.46777 5.54492L9.04785 4.13965V4.1377C9.37707 3.34743 8.811 2.49048 8.04004 2.49023H7.97949Z" fill="currentColor"/>
</svg>
