<svg width="16" height="16" viewBox="0 0 16 16" fill="none" xmlns="http://www.w3.org/2000/svg">
<path fill-rule="evenodd" clip-rule="evenodd" d="M8.16699 1.50391C8.21394 1.49802 8.26105 1.50049 8.30762 1.50781C10.2115 1.59652 11.9008 2.50417 13.0322 3.88672C13.0473 3.90261 13.0602 3.92033 13.0732 3.93848C13.9653 5.05127 14.5 6.46286 14.5 8C14.5 9.53588 13.9659 10.9462 13.0752 12.0586C13.0617 12.0776 13.0479 12.0957 13.0322 12.1123C11.9008 13.4952 10.2118 14.4025 8.30762 14.4912C8.26097 14.4986 8.21403 14.501 8.16699 14.4951C8.11147 14.4965 8.05585 14.5 8 14.5C7.94382 14.5 7.88787 14.4965 7.83203 14.4951C7.785 14.5009 7.73802 14.4987 7.69141 14.4912C5.78742 14.4022 4.09802 13.4952 2.9668 12.1123C2.95163 12.0962 2.93894 12.078 2.92578 12.0596C2.03455 10.947 1.5 9.53638 1.5 8C1.5 6.4576 2.038 5.0413 2.93555 3.92676C2.94511 3.9143 2.95334 3.90099 2.96387 3.88965C4.0951 2.50528 5.78621 1.59687 7.69141 1.50781C7.73793 1.5004 7.78509 1.4981 7.83203 1.50391C7.88786 1.50249 7.94383 1.5 8 1.5C8.05585 1.5 8.11148 1.50251 8.16699 1.50391ZM8 11C7.57375 11 7.15371 11.0302 6.74121 11.0898C7.04378 11.9958 7.47485 12.8055 7.99902 13.4834C8.52357 12.8053 8.95417 11.9954 9.25684 11.0889C8.8451 11.0303 8.42584 11 8 11ZM5.75586 11.292C5.19612 11.4414 4.65294 11.6468 4.12988 11.9062C4.82563 12.5956 5.70397 13.1 6.68652 13.3408C6.30627 12.7195 5.9927 12.0309 5.75586 11.292ZM10.2432 11.2881C10.0063 12.0283 9.69424 12.7186 9.31348 13.3408C10.297 13.0998 11.176 12.5946 11.8721 11.9043C11.3484 11.6425 10.8044 11.4367 10.2432 11.2881ZM2.52344 8.5C2.61066 9.46768 2.9486 10.3624 3.47168 11.1201C4.11909 10.7794 4.7961 10.5132 5.49707 10.3262C5.37003 9.73969 5.28955 9.12875 5.26172 8.5H2.52344ZM10.7383 8.5C10.7105 9.12773 10.6295 9.73763 10.5029 10.3232C11.2035 10.5092 11.8804 10.7752 12.5283 11.1191C13.0511 10.3616 13.3894 9.46739 13.4766 8.5H10.7383ZM6.26367 8.5C6.29087 9.05997 6.36199 9.60194 6.47461 10.1201C6.97373 10.0413 7.48275 10 8 10C8.51628 10 9.02473 10.0395 9.52344 10.1172C9.63574 9.59977 9.70917 9.05909 9.73633 8.5H6.26367ZM6.47461 5.87891C6.36188 6.39737 6.29089 6.93969 6.26367 7.5H9.73633C9.70915 6.94023 9.63596 6.39885 9.52344 5.88086C9.02465 5.95845 8.51637 5.99999 8 6C7.48274 6 6.97371 5.95768 6.47461 5.87891ZM12.5283 4.87988C11.8803 5.22383 11.2037 5.49001 10.5029 5.67578C10.6296 6.26169 10.7105 6.87193 10.7383 7.5H13.4766C13.3893 6.53232 13.0514 5.6376 12.5283 4.87988ZM3.47168 4.87793C2.94808 5.63592 2.61071 6.53176 2.52344 7.5H5.26172C5.28957 6.87092 5.36991 6.25962 5.49707 5.67285C4.79592 5.48575 4.11926 5.21881 3.47168 4.87793ZM7.99902 2.51562C7.47498 3.19319 7.04384 4.00264 6.74121 4.9082C7.15375 4.9678 7.5737 5 8 5C8.42586 4.99999 8.84508 4.96872 9.25684 4.91016C8.9541 4.00375 8.52361 3.19368 7.99902 2.51562ZM9.31348 2.6582C9.69413 3.28016 10.0063 3.97012 10.2432 4.70996C10.8041 4.56142 11.3477 4.35633 11.8711 4.09473C11.1751 3.40483 10.2966 2.89911 9.31348 2.6582ZM6.68652 2.6582C5.70411 2.89894 4.8256 3.40362 4.12988 4.09277C4.65304 4.35219 5.196 4.55778 5.75586 4.70703C5.99276 3.96816 6.30623 3.27945 6.68652 2.6582Z" fill="black"/>
</svg>
