<svg width="16" height="16" viewBox="0 0 16 16" fill="none" xmlns="http://www.w3.org/2000/svg">
<path fill-rule="evenodd" clip-rule="evenodd" d="M5.5 5.5C6.32843 5.5 7 6.17157 7 7C7 7.33813 6.88602 7.64855 6.69727 7.89941C7.18416 8.2639 7.5 8.84376 7.5 9.5V10C7.5 10.2761 7.27614 10.5 7 10.5H4C3.72386 10.5 3.5 10.2761 3.5 10V9.5C3.5 8.84405 3.81522 8.26393 4.30176 7.89941C4.11321 7.64863 4 7.33792 4 7C4 6.17157 4.67157 5.5 5.5 5.5ZM5.5 8.5C4.94614 8.5 4.5 8.94614 4.5 9.5H6.5C6.5 8.94614 6.05386 8.5 5.5 8.5ZM5.5 6.5C5.22386 6.5 5 6.72386 5 7C5 7.27614 5.22386 7.5 5.5 7.5C5.77614 7.5 6 7.27614 6 7C6 6.72386 5.77614 6.5 5.5 6.5Z" fill="currentColor"/>
<path d="M11 9.5C11.2761 9.5 11.5 9.72386 11.5 10C11.5 10.2761 11.2761 10.5 11 10.5H9C8.72386 10.5 8.5 10.2761 8.5 10C8.5 9.72386 8.72386 9.5 9 9.5H11Z" fill="currentColor"/>
<path d="M12 7.5C12.2761 7.5 12.5 7.72386 12.5 8C12.5 8.27614 12.2761 8.5 12 8.5H9C8.72386 8.5 8.5 8.27614 8.5 8C8.5 7.72386 8.72386 7.5 9 7.5H12Z" fill="currentColor"/>
<path d="M12 5.5C12.2761 5.5 12.5 5.72386 12.5 6C12.5 6.27614 12.2761 6.5 12 6.5H9C8.72386 6.5 8.5 6.27614 8.5 6C8.5 5.72386 8.72386 5.5 9 5.5H12Z" fill="currentColor"/>
<path fill-rule="evenodd" clip-rule="evenodd" d="M13 3.5C13.8284 3.5 14.5 4.17157 14.5 5V11C14.5 11.8284 13.8284 12.5 13 12.5H3C2.17157 12.5 1.5 11.8284 1.5 11V5C1.5 4.17157 2.17157 3.5 3 3.5H13ZM3 4.5C2.72386 4.5 2.5 4.72386 2.5 5V11C2.5 11.2761 2.72386 11.5 3 11.5H13C13.2761 11.5 13.5 11.2761 13.5 11V5C13.5 4.72386 13.2761 4.5 13 4.5H3Z" fill="currentColor"/>
</svg>
