<svg width="16" height="16" viewBox="0 0 16 16" fill="none" xmlns="http://www.w3.org/2000/svg">
<path d="M10.6466 10.1465C10.8418 9.95137 11.1584 9.95137 11.3536 10.1465C11.5488 10.3417 11.5488 10.6582 11.3536 10.8535L8.35353 13.8536C8.15826 14.0488 7.84174 14.0488 7.64647 13.8536L4.64639 10.8535C4.45124 10.6582 4.45116 10.3417 4.64639 10.1465C4.84163 9.95137 5.1582 9.95137 5.35344 10.1465L8 12.793L10.6466 10.1465ZM7.7246 2.0819C7.91863 1.95385 8.18269 1.97564 8.35353 2.14636L11.3536 5.1464C11.5488 5.34162 11.5488 5.65817 11.3536 5.85344C11.1583 6.0487 10.8418 6.0487 10.6466 5.85344L8 3.20692L5.35344 5.85344C5.15817 6.0487 4.84166 6.0487 4.64639 5.85344C4.45124 5.65817 4.45116 5.34162 4.64639 5.1464L7.64647 2.14636L7.7246 2.0819Z" fill="black"/>
</svg>
