<svg width="16" height="16" viewBox="0 0 16 16" fill="none" xmlns="http://www.w3.org/2000/svg">
<path fill-rule="evenodd" clip-rule="evenodd" d="M8 3C12.1461 3 15.5 6.35386 15.5 10.5C15.5 10.7761 15.2761 11 15 11H10.2803C9.59 12.613 7.48202 13.0094 6.23633 11.7637C6.006 11.5333 5.83227 11.2739 5.71094 11H1C0.723858 11 0.5 10.7761 0.5 10.5C0.5 6.35386 3.85386 3 8 3ZM7.42383 8.625C6.44578 9.01029 6.17277 10.286 6.94336 11.0566C7.70383 11.8171 8.98177 11.555 9.37598 10.5732L9.4248 10.4492C9.43442 10.3544 9.4693 10.2679 9.52441 10.1963L10.6504 7.34863L7.42383 8.625ZM8 4C4.57443 4 1.7753 6.64046 1.52051 10H5.49902C5.49675 9.0352 6.04963 8.09106 7.05664 7.69434L11.3564 5.99512C11.5417 5.92197 11.7527 5.96563 11.8936 6.10645C12.0344 6.2473 12.078 6.45829 12.0049 6.64355L10.6777 10H14.4795C14.2247 6.64046 11.4256 4 8 4Z" fill="currentColor"/>
</svg>
