<svg width="16" height="16" viewBox="0 0 16 16" fill="none" xmlns="http://www.w3.org/2000/svg">
<path fill-rule="evenodd" clip-rule="evenodd" d="M13 1.5C13.8284 1.5 14.5 2.17157 14.5 3V13C14.5 13.8284 13.8284 14.5 13 14.5H3C2.17157 14.5 1.5 13.8284 1.5 13V3C1.5 2.17157 2.17157 1.5 3 1.5H13ZM11 7.5C10.7605 7.5 10.5569 7.67284 10.5098 7.89941L10.4902 8.10059C10.4437 8.32855 10.2417 8.5 10 8.5H8.49023V9.58691C9.07157 9.79376 9.49023 10.3492 9.49023 11C9.49023 11.6507 9.07141 12.2052 8.49023 12.4121V13.5H13C13.2761 13.5 13.5 13.2761 13.5 13V8.50977H12C11.7239 8.50977 11.5 8.28591 11.5 8.00977C11.4999 7.72277 11.2705 7.5 11 7.5ZM2.5 13C2.5 13.2761 2.72386 13.5 3 13.5H7.49023V12C7.49023 11.7583 7.66168 11.5563 7.88965 11.5098L8.09082 11.4902C8.31728 11.443 8.49023 11.2394 8.49023 11C8.49023 10.7606 8.31728 10.557 8.09082 10.5098L7.88965 10.4902C7.66168 10.4437 7.49023 10.2417 7.49023 10V8.5H6.41211C6.20524 9.08128 5.65074 9.5 5 9.5C4.34533 9.5 3.79103 9.07761 3.58594 8.49023H2.5V13ZM3 2.5C2.72386 2.5 2.5 2.72386 2.5 3V7.49023H4C4.27614 7.49023 4.5 7.71409 4.5 7.99023C4.50013 8.27723 4.72946 8.5 5 8.5C5.2395 8.5 5.44307 8.32716 5.49023 8.10059L5.50977 7.89941C5.55638 7.67156 5.75837 7.5 6 7.5H7.50977V6.41211C6.92859 6.20518 6.50977 5.65066 6.50977 5C6.50977 4.34923 6.92843 3.79376 7.50977 3.58691V2.5H3ZM8.50977 4C8.50977 4.24171 8.33832 4.44371 8.11035 4.49023L7.90918 4.50977C7.68272 4.55703 7.50977 4.76058 7.50977 5C7.50977 5.23942 7.68272 5.44297 7.90918 5.49023L8.11035 5.50977C8.33832 5.55629 8.50977 5.75829 8.50977 6V7.5H9.58789C9.79476 6.91872 10.3493 6.5 11 6.5C11.6547 6.5 12.209 6.92239 12.4141 7.50977H13.5V3C13.5 2.72386 13.2761 2.5 13 2.5H8.50977V4Z" fill="currentColor"/>
</svg>
