<svg width="16" height="16" viewBox="0 0 16 16" fill="none" xmlns="http://www.w3.org/2000/svg">
<path fill-rule="evenodd" clip-rule="evenodd" d="M11.2803 2.5C11.8887 2.5001 12.4234 2.86956 12.6592 3.40527L12.7021 3.51465L12.7041 3.52246L14.4746 8.8418C14.4768 8.84839 14.4766 8.85566 14.4785 8.8623C14.4855 8.88673 14.4899 8.91169 14.4932 8.9375C14.4947 8.94961 14.4965 8.96149 14.4971 8.97363C14.4975 8.9824 14.5 8.99112 14.5 9V12C14.5 12.8261 13.8261 13.5 13 13.5H3C2.17386 13.5 1.5 12.8261 1.5 12V9C1.5 8.99113 1.5015 8.98239 1.50195 8.97363C1.50257 8.96152 1.50435 8.94959 1.50586 8.9375C1.50908 8.91174 1.51352 8.88669 1.52051 8.8623C1.52244 8.85557 1.52317 8.84848 1.52539 8.8418L3.2959 3.52246L3.29688 3.51855C3.50612 2.90578 4.07645 2.50011 4.71973 2.5H11.2803ZM2.5 12C2.5 12.2739 2.72614 12.5 3 12.5H13C13.2739 12.5 13.5 12.2739 13.5 12V9.5H9.93457C9.71282 10.3631 8.9332 11 8 11C7.06681 11 6.28717 10.3631 6.06543 9.5H2.5V12ZM4.71973 3.5C4.50322 3.50011 4.31386 3.63474 4.24316 3.8418L2.69336 8.5H6.5C6.77614 8.5 7 8.72386 7 9C7 9.55385 7.44616 9.99998 8 10C8.55386 10 9 9.55386 9 9C9 8.72387 9.22387 8.50002 9.5 8.5H13.3066L11.7578 3.84473C11.6857 3.63927 11.4909 3.50011 11.2803 3.5H4.71973Z" fill="black"/>
</svg>
