<svg width="16" height="16" viewBox="0 0 16 16" fill="none" xmlns="http://www.w3.org/2000/svg">
<path d="M12.99 6.98031C12.99 6.66094 12.8372 6.36234 12.5789 6.1766C12.5596 6.16281 12.5419 6.14669 12.5251 6.1307L8.58862 3.26644L8.44995 3.18246C8.1157 3.01512 7.71243 3.04324 7.40112 3.26644L3.40405 6.17464L3.40112 6.1766C3.14275 6.36234 2.98999 6.66094 2.98999 6.98031V12.4998L2.99976 12.6004C3.04685 12.8271 3.25042 12.9998 3.48999 12.9998H5.48999C5.76385 12.9998 5.98999 12.7737 5.98999 12.4998V9.99984C5.99009 9.44379 6.43391 8.99984 6.98999 8.99984H8.98999C9.54607 8.99984 9.98989 9.44379 9.98999 9.99984V12.4998C9.98999 12.7737 10.2161 12.9998 10.49 12.9998H12.49C12.7638 12.9998 12.99 12.7737 12.99 12.4998V6.98031ZM13.99 12.4998C13.99 13.326 13.3161 13.9998 12.49 13.9998H10.49C9.66385 13.9998 8.98999 13.326 8.98999 12.4998V9.99984H6.98999V12.4998C6.98999 13.326 6.31613 13.9998 5.48999 13.9998H3.48999C2.71553 13.9998 2.07492 13.4078 1.9978 12.6532L1.98999 12.4998V6.98031C1.98999 6.41982 2.22537 5.88912 2.63354 5.51449L2.81812 5.3641L6.81616 2.45589L6.81909 2.45394C7.4793 1.98069 8.35035 1.9508 9.03687 2.36507L9.17163 2.45394L9.17456 2.45589L13.1746 5.36605C13.2034 5.38707 13.2286 5.41152 13.2517 5.43734C13.7167 5.81416 13.99 6.37872 13.99 6.98031V12.4998Z" fill="black"/>
</svg>
