<svg width="16" height="16" viewBox="0 0 16 16" fill="none" xmlns="http://www.w3.org/2000/svg">
<path d="M4.5 10.5C5.88071 10.5 7 9.38071 7 8C7 6.61929 5.88071 5.5 4.5 5.5C3.11929 5.5 2 6.61929 2 8C2 9.38071 3.11929 10.5 4.5 10.5Z" stroke="black" stroke-linecap="round" stroke-linejoin="round"/>
<path d="M11.5 10.5C12.8807 10.5 14 9.38071 14 8C14 6.61929 12.8807 5.5 11.5 5.5C10.1193 5.5 9 6.61929 9 8C9 9.38071 10.1193 10.5 11.5 10.5Z" stroke="black" stroke-linecap="round" stroke-linejoin="round"/>
<path d="M7 8C7 7.45 7.45 7 8 7C8.55 7 9 7.45 9 8" stroke="black" stroke-linecap="round" stroke-linejoin="round"/>
</svg>
