<svg width="16" height="16" viewBox="0 0 16 16" fill="none" xmlns="http://www.w3.org/2000/svg">
<path fill-rule="evenodd" clip-rule="evenodd" d="M10 3.5C12.4853 3.5 14.5 5.51472 14.5 8C14.5 10.4853 12.4853 12.5 10 12.5H6C3.51472 12.5 1.5 10.4853 1.5 8C1.5 5.51472 3.51472 3.5 6 3.5H10ZM10 4.5C8.067 4.5 6.5 6.067 6.5 8C6.5 9.933 8.067 11.5 10 11.5C11.933 11.5 13.5 9.933 13.5 8C13.5 6.067 11.933 4.5 10 4.5ZM6 4.5C4.067 4.5 2.5 6.067 2.5 8C2.5 9.933 4.067 11.5 6 11.5H7.17285C6.15283 10.675 5.5 9.41406 5.5 8C5.5 6.58594 6.15283 5.32496 7.17285 4.5H6Z" fill="currentColor"/>
</svg>
