<svg width="16" height="16" viewBox="0 0 16 16" fill="none" xmlns="http://www.w3.org/2000/svg">
<path fill-rule="evenodd" clip-rule="evenodd" d="M12 1.5C13.3807 1.5 14.5 2.61929 14.5 4V12C14.5 13.3807 13.3807 14.5 12 14.5H4C2.61929 14.5 1.5 13.3807 1.5 12V4C1.5 2.61929 2.61929 1.5 4 1.5H12ZM6.49023 10.0977C6.44835 10.3071 6.27807 10.4667 6.06641 10.4951C5.85469 10.5235 5.64826 10.4147 5.55273 10.2236L4.69141 8.5H2.5V12C2.5 12.8284 3.17157 13.5 4 13.5H12C12.8284 13.5 13.5 12.8284 13.5 12V8.5H11C10.8106 8.5 10.6374 8.39302 10.5527 8.22363L10.2041 7.52637L9.49023 11.0977C9.44578 11.3199 9.25745 11.4849 9.03125 11.499C8.80497 11.5131 8.59709 11.3733 8.52539 11.1582L7.12012 6.94434L6.49023 10.0977ZM4 2.5C3.17157 2.5 2.5 3.17157 2.5 4V7.5H5C5.18939 7.5 5.36257 7.60698 5.44727 7.77637L5.79492 8.47266L6.50977 4.90234L6.5332 4.82129C6.6022 4.64085 6.77092 4.51336 6.96875 4.50098C7.19503 4.48689 7.40292 4.62671 7.47461 4.8418L8.87891 9.05469L9.50977 5.90234L9.53125 5.82617C9.59474 5.6548 9.7483 5.52973 9.93359 5.50488C10.1453 5.47653 10.3517 5.58532 10.4473 5.77637L11.3086 7.5H13.5V4C13.5 3.17157 12.8284 2.5 12 2.5H4Z" fill="currentColor"/>
</svg>
