<svg width="16" height="16" viewBox="0 0 16 16" fill="none" xmlns="http://www.w3.org/2000/svg">
<path d="M7.72461 9.58204C7.91869 9.45388 8.18265 9.47563 8.35352 9.6465L11.3536 12.6465C11.5488 12.8418 11.5488 13.1583 11.3536 13.3536C11.1583 13.5488 10.8418 13.5488 10.6465 13.3536L8 10.7071L5.35349 13.3536C5.15822 13.5488 4.84171 13.5488 4.64645 13.3536C4.45118 13.1583 4.45118 12.8418 4.64645 12.6465L7.64648 9.6465L7.72461 9.58204ZM10.6465 2.64645C10.8418 2.45118 11.1583 2.45118 11.3536 2.64645C11.5488 2.84171 11.5488 3.15822 11.3536 3.35348L8.35352 6.3535C8.15826 6.54877 7.84174 6.54877 7.64648 6.3535L4.64645 3.35348C4.45118 3.15822 4.45118 2.84171 4.64645 2.64645C4.84171 2.45118 5.15822 2.45118 5.35349 2.64645L8 5.29295L10.6465 2.64645Z" fill="currentColor"/>
</svg>
