<svg width="16" height="16" viewBox="0 0 16 16" fill="none" xmlns="http://www.w3.org/2000/svg">
<path fill-rule="evenodd" clip-rule="evenodd" d="M6 8.5C6.82843 8.5 7.5 9.17157 7.5 10V12C7.5 12.8284 6.82843 13.5 6 13.5H4C3.17157 13.5 2.5 12.8284 2.5 12V10C2.5 9.17157 3.17157 8.5 4 8.5H6ZM4 9.5C3.72386 9.5 3.5 9.72386 3.5 10V12C3.5 12.2761 3.72386 12.5 4 12.5H6C6.27614 12.5 6.5 12.2761 6.5 12V10C6.5 9.72386 6.27614 9.5 6 9.5H4Z" fill="currentColor"/>
<path fill-rule="evenodd" clip-rule="evenodd" d="M12 8.5C12.8284 8.5 13.5 9.17157 13.5 10V12C13.5 12.8284 12.8284 13.5 12 13.5H10C9.17157 13.5 8.5 12.8284 8.5 12V10C8.5 9.17157 9.17157 8.5 10 8.5H12ZM10 9.5C9.72386 9.5 9.5 9.72386 9.5 10V12C9.5 12.2761 9.72386 12.5 10 12.5H12C12.2761 12.5 12.5 12.2761 12.5 12V10C12.5 9.72386 12.2761 9.5 12 9.5H10Z" fill="currentColor"/>
<path fill-rule="evenodd" clip-rule="evenodd" d="M6 2.5C6.82843 2.5 7.5 3.17157 7.5 4V6C7.5 6.82843 6.82843 7.5 6 7.5H4C3.17157 7.5 2.5 6.82843 2.5 6V4C2.5 3.17157 3.17157 2.5 4 2.5H6ZM4 3.5C3.72386 3.5 3.5 3.72386 3.5 4V6C3.5 6.27614 3.72386 6.5 4 6.5H6C6.27614 6.5 6.5 6.27614 6.5 6V4C6.5 3.72386 6.27614 3.5 6 3.5H4Z" fill="currentColor"/>
<path fill-rule="evenodd" clip-rule="evenodd" d="M12 2.5C12.8284 2.5 13.5 3.17157 13.5 4V6C13.5 6.82843 12.8284 7.5 12 7.5H10C9.17157 7.5 8.5 6.82843 8.5 6V4C8.5 3.17157 9.17157 2.5 10 2.5H12ZM10 3.5C9.72386 3.5 9.5 3.72386 9.5 4V6C9.5 6.27614 9.72386 6.5 10 6.5H12C12.2761 6.5 12.5 6.27614 12.5 6V4C12.5 3.72386 12.2761 3.5 12 3.5H10Z" fill="currentColor"/>
</svg>
