<svg width="16" height="16" viewBox="0 0 16 16" fill="none" xmlns="http://www.w3.org/2000/svg">
<path fill-rule="evenodd" clip-rule="evenodd" d="M13.6464 2.14648C13.8417 1.95124 14.1582 1.95123 14.3535 2.14648C14.5487 2.34174 14.5487 2.65827 14.3535 2.85352L11.1923 6.01367C11.9298 6.1082 12.5 6.73683 12.5 7.5V11.5C12.5 12.3284 11.8284 13 11 13H4.99996C4.76844 13 4.55024 12.9452 4.35445 12.8516L2.35348 14.8535C2.15823 15.0488 1.84171 15.0487 1.64645 14.8535C1.45118 14.6583 1.45118 14.3417 1.64645 14.1465L3.64742 12.1445C3.55409 11.949 3.49996 11.7311 3.49996 11.5V7.5C3.49996 6.67157 4.17154 6 4.99996 6H5.49996V4.5C5.49996 3.12386 6.62382 2 7.99996 2C9.37609 2.00002 10.5 3.12387 10.5 4.5V5.29297L13.6464 2.14648ZM5.20699 12H11C11.2761 12 11.5 11.7761 11.5 11.5V7.5C11.5 7.22387 11.2761 7.00002 11 7H10.207L5.20699 12ZM4.99996 7C4.72382 7 4.49996 7.22386 4.49996 7.5V11.293L8.79293 7H4.99996ZM7.99996 3C7.1761 3 6.49996 3.67614 6.49996 4.5V6H9.49996V4.5C9.49996 3.67615 8.8238 3.00002 7.99996 3Z" fill="black"/>
</svg>
