<svg width="16" height="16" viewBox="0 0 16 16" fill="none" xmlns="http://www.w3.org/2000/svg">
<path d="M4.5 12.5C5.88071 12.5 7 11.3807 7 10C7 8.61929 5.88071 7.5 4.5 7.5C3.11929 7.5 2 8.61929 2 10C2 11.3807 3.11929 12.5 4.5 12.5Z" stroke="black" stroke-linecap="round" stroke-linejoin="round"/>
<path d="M11.5 12.5C12.8807 12.5 14 11.3807 14 10C14 8.61929 12.8807 7.5 11.5 7.5C10.1193 7.5 9 8.61929 9 10C9 11.3807 10.1193 12.5 11.5 12.5Z" stroke="black" stroke-linecap="round" stroke-linejoin="round"/>
<path d="M7 10C7 9.45 7.45 9 8 9C8.55 9 9 9.45 9 10" stroke="black" stroke-linecap="round" stroke-linejoin="round"/>
<path d="M2.08008 9.35995L3.43008 4.15995C3.72008 3.04995 4.96008 2.47995 5.99008 2.99995" stroke="black" stroke-linecap="round" stroke-linejoin="round"/>
<path d="M13.92 9.35995L12.57 4.15995C12.28 3.04995 11.04 2.47995 10.01 2.99995" stroke="black" stroke-linecap="round" stroke-linejoin="round"/>
</svg>
