<svg width="16" height="16" viewBox="0 0 16 16" fill="none" xmlns="http://www.w3.org/2000/svg">
<path fill-rule="evenodd" clip-rule="evenodd" d="M10.1464 2.13576C11.1716 1.11103 12.8283 1.11097 13.8535 2.13576C14.8786 3.16088 14.8783 4.81749 13.8535 5.84279L7.64352 12.0537C7.3564 12.3407 6.97738 12.4892 6.58004 12.4893H4.21774L2.35348 14.3535C2.15823 14.5488 1.84171 14.5487 1.64645 14.3535C1.45118 14.1583 1.45118 13.8418 1.64645 13.6465L3.49996 11.793V9.41017C3.50005 9.00138 3.66764 8.62999 3.9277 8.35548L3.93649 8.34572L10.1464 2.13576ZM13.1464 2.84279C12.5118 2.20852 11.4881 2.20858 10.8535 2.84279L4.65231 9.04298C4.55259 9.14829 4.50005 9.27924 4.49996 9.41017V10.793L11.6464 3.6465C11.8417 3.45127 12.1582 3.45125 12.3535 3.6465C12.5487 3.84175 12.5487 4.15828 12.3535 4.35353L5.21774 11.4893H6.58004C6.72228 11.4892 6.84379 11.4384 6.93649 11.3457L13.1464 5.13576C13.7808 4.50099 13.781 3.47738 13.1464 2.84279Z" fill="black"/>
</svg>
