<svg width="16" height="16" viewBox="0 0 16 16" fill="none" xmlns="http://www.w3.org/2000/svg">
<path d="M13 11.5C13.28 11.5 13.5 11.72 13.5 12C13.5 12.28 13.28 12.5 13 12.5H5.5C5.22 12.5 5 12.28 5 12C5 11.72 5.22 11.5 5.5 11.5H13Z" fill="black"/>
<path d="M13 7.5C13.28 7.5 13.5 7.72 13.5 8C13.5 8.28 13.28 8.5 13 8.5H5.5C5.22 8.5 5 8.28 5 8C5 7.72 5.22 7.5 5.5 7.5H13Z" fill="black"/>
<path d="M3 3.25C3.41 3.25 3.75 3.59 3.75 4C3.75 4.41 3.41 4.75 3 4.75C2.59 4.75 2.25 4.41 2.25 4C2.25 3.59 2.59 3.25 3 3.25Z" fill="black"/>
<path d="M3 7.25C3.41 7.25 3.75 7.59 3.75 8C3.75 8.41 3.41 8.75 3 8.75C2.59 8.75 2.25 8.41 2.25 8C2.25 7.59 2.59 7.25 3 7.25Z" fill="black"/>
<path d="M3 11.25C3.41 11.25 3.75 11.59 3.75 12C3.75 12.41 3.41 12.75 3 12.75C2.59 12.75 2.25 12.41 2.25 12C2.25 11.59 2.59 11.25 3 11.25Z" fill="black"/>
<path d="M13 3.5C13.28 3.5 13.5 3.72 13.5 4C13.5 4.28 13.28 4.5 13 4.5H5.5C5.22 4.5 5 4.28 5 4C5 3.72 5.22 3.5 5.5 3.5H13Z" fill="black"/>
</svg>
