<svg width="16" height="16" viewBox="0 0 16 16" fill="none" xmlns="http://www.w3.org/2000/svg">
<path fill-rule="evenodd" clip-rule="evenodd" d="M7.05176 3.10687C7.58038 2.69259 8.30399 2.67755 8.84863 3.05804C8.87772 3.07307 8.90675 3.08909 8.93262 3.1098L12.7432 6.1596C13.2295 6.54067 13.4902 7.12842 13.4902 7.72015V12.5004C13.49 13.0563 13.0461 13.5003 12.4902 13.5004H9.99023C9.43424 13.5004 8.99047 13.0564 8.99023 12.5004V10.5004H6.99023V12.5004C6.99 13.0563 6.54611 13.5003 5.99023 13.5004H3.49023C2.93424 13.5004 2.49047 13.0564 2.49023 12.5004V7.72015C2.49023 7.10801 2.76917 6.53426 3.2373 6.1596L7.04785 3.1098L7.05176 3.10687ZM8.22852 3.84515C8.05049 3.74781 7.8343 3.76443 7.66895 3.89398L7.66797 3.893L3.8623 6.94085C3.6308 7.12621 3.49023 7.41255 3.49023 7.72015V12.5004H5.99023V10.0004C5.99023 9.72428 6.21409 9.50042 6.49023 9.50042H9.49023C9.76626 9.50055 9.99023 9.72436 9.99023 10.0004V12.5004H12.4902V7.72015C12.4902 7.41414 12.3531 7.12384 12.123 6.94476L8.36328 3.93499L8.22852 3.84515Z" fill="black"/>
</svg>
