<svg width="16" height="16" viewBox="0 0 16 16" fill="none" xmlns="http://www.w3.org/2000/svg">
<path d="M8 8.5C8.27614 8.5 8.5 8.72386 8.5 9V11C8.5 11.2761 8.27614 11.5 8 11.5C7.72386 11.5 7.5 11.2761 7.5 11V9C7.5 8.72386 7.72386 8.5 8 8.5Z" fill="currentColor"/>
<path fill-rule="evenodd" clip-rule="evenodd" d="M8 2.5C9.37614 2.5 10.5 3.62386 10.5 5V6.5H11C11.8284 6.5 12.5 7.17157 12.5 8V12C12.5 12.8284 11.8284 13.5 11 13.5H5C4.17157 13.5 3.5 12.8284 3.5 12V8C3.5 7.17157 4.17157 6.5 5 6.5H5.5V5C5.5 3.62386 6.62386 2.5 8 2.5ZM5 7.5C4.72386 7.5 4.5 7.72386 4.5 8V12C4.5 12.2761 4.72386 12.5 5 12.5H11C11.2761 12.5 11.5 12.2761 11.5 12V8C11.5 7.72386 11.2761 7.5 11 7.5H5ZM8 3.5C7.17614 3.5 6.5 4.17614 6.5 5V6.5H9.5V5C9.5 4.17614 8.82386 3.5 8 3.5Z" fill="currentColor"/>
</svg>
