<svg width="16" height="16" viewBox="0 0 16 16" fill="none" xmlns="http://www.w3.org/2000/svg">
<path d="M5 10.5C5.27614 10.5 5.5 10.7239 5.5 11C5.5 11.2761 5.27614 11.5 5 11.5C4.72386 11.5 4.5 11.2761 4.5 11C4.5 10.7239 4.72386 10.5 5 10.5Z" fill="currentColor"/>
<path d="M7 10.5C7.27614 10.5 7.5 10.7239 7.5 11C7.5 11.2761 7.27614 11.5 7 11.5C6.72386 11.5 6.5 11.2761 6.5 11C6.5 10.7239 6.72386 10.5 7 10.5Z" fill="currentColor"/>
<path d="M9 10.5C9.27614 10.5 9.5 10.7239 9.5 11C9.5 11.2761 9.27614 11.5 9 11.5C8.72386 11.5 8.5 11.2761 8.5 11C8.5 10.7239 8.72386 10.5 9 10.5Z" fill="currentColor"/>
<path d="M11 10.5C11.2761 10.5 11.5 10.7239 11.5 11C11.5 11.2761 11.2761 11.5 11 11.5C10.7239 11.5 10.5 11.2761 10.5 11C10.5 10.7239 10.7239 10.5 11 10.5Z" fill="currentColor"/>
<path d="M5 8.5C5.27614 8.5 5.5 8.72386 5.5 9C5.5 9.27614 5.27614 9.5 5 9.5C4.72386 9.5 4.5 9.27614 4.5 9C4.5 8.72386 4.72386 8.5 5 8.5Z" fill="currentColor"/>
<path d="M7 8.5C7.27614 8.5 7.5 8.72386 7.5 9C7.5 9.27614 7.27614 9.5 7 9.5C6.72386 9.5 6.5 9.27614 6.5 9C6.5 8.72386 6.72386 8.5 7 8.5Z" fill="currentColor"/>
<path d="M9 8.5C9.27614 8.5 9.5 8.72386 9.5 9C9.5 9.27614 9.27614 9.5 9 9.5C8.72386 9.5 8.5 9.27614 8.5 9C8.5 8.72386 8.72386 8.5 9 8.5Z" fill="currentColor"/>
<path d="M11 8.5C11.2761 8.5 11.5 8.72386 11.5 9C11.5 9.27614 11.2761 9.5 11 9.5C10.7239 9.5 10.5 9.27614 10.5 9C10.5 8.72386 10.7239 8.5 11 8.5Z" fill="currentColor"/>
<path d="M5 6.5C5.27614 6.5 5.5 6.72386 5.5 7C5.5 7.27614 5.27614 7.5 5 7.5C4.72386 7.5 4.5 7.27614 4.5 7C4.5 6.72386 4.72386 6.5 5 6.5Z" fill="currentColor"/>
<path d="M7 6.5C7.27614 6.5 7.5 6.72386 7.5 7C7.5 7.27614 7.27614 7.5 7 7.5C6.72386 7.5 6.5 7.27614 6.5 7C6.5 6.72386 6.72386 6.5 7 6.5Z" fill="currentColor"/>
<path d="M9 6.5C9.27614 6.5 9.5 6.72386 9.5 7C9.5 7.27614 9.27614 7.5 9 7.5C8.72386 7.5 8.5 7.27614 8.5 7C8.5 6.72386 8.72386 6.5 9 6.5Z" fill="currentColor"/>
<path d="M11 6.5C11.2761 6.5 11.5 6.72386 11.5 7C11.5 7.27614 11.2761 7.5 11 7.5C10.7239 7.5 10.5 7.27614 10.5 7C10.5 6.72386 10.7239 6.5 11 6.5Z" fill="currentColor"/>
<path d="M5 4.5C5.27614 4.5 5.5 4.72386 5.5 5C5.5 5.27614 5.27614 5.5 5 5.5C4.72386 5.5 4.5 5.27614 4.5 5C4.5 4.72386 4.72386 4.5 5 4.5Z" fill="currentColor"/>
<path d="M7 4.5C7.27614 4.5 7.5 4.72386 7.5 5C7.5 5.27614 7.27614 5.5 7 5.5C6.72386 5.5 6.5 5.27614 6.5 5C6.5 4.72386 6.72386 4.5 7 4.5Z" fill="currentColor"/>
<path d="M9 4.5C9.27614 4.5 9.5 4.72386 9.5 5C9.5 5.27614 9.27614 5.5 9 5.5C8.72386 5.5 8.5 5.27614 8.5 5C8.5 4.72386 8.72386 4.5 9 4.5Z" fill="currentColor"/>
<path d="M11 4.5C11.2761 4.5 11.5 4.72386 11.5 5C11.5 5.27614 11.2761 5.5 11 5.5C10.7239 5.5 10.5 5.27614 10.5 5C10.5 4.72386 10.7239 4.5 11 4.5Z" fill="currentColor"/>
<path fill-rule="evenodd" clip-rule="evenodd" d="M12.5 1.5C13.6061 1.5 14.5 2.39386 14.5 3.5C14.5 4.07385 14.2584 4.581 13.8867 4.93945L13.8857 4.94141C13.8516 4.97448 13.8516 5.02552 13.8857 5.05859L13.8936 5.06641L14.0234 5.20801C14.3127 5.55264 14.5 5.99356 14.5 6.5C14.5 7.07385 14.2584 7.581 13.8867 7.93945L13.8857 7.94141C13.8516 7.97448 13.8516 8.02552 13.8857 8.05859L13.8936 8.06641L14.0234 8.20801C14.3127 8.55264 14.5 8.99356 14.5 9.5C14.5 10.0738 14.2584 10.581 13.8867 10.9395L13.8857 10.9414C13.8516 10.9745 13.8516 11.0255 13.8857 11.0586L13.8936 11.0664L14.0234 11.209C14.3134 11.5564 14.5 12.0038 14.5 12.5C14.5 13.6061 13.6061 14.5 12.5 14.5C11.9262 14.5 11.419 14.2584 11.0605 13.8867L11.0586 13.8857C11.0255 13.8516 10.9745 13.8516 10.9414 13.8857L10.9336 13.8936C10.5719 14.2553 10.0787 14.5 9.5 14.5C8.92617 14.5 8.41901 14.2584 8.06055 13.8867L8.05859 13.8857C8.02552 13.8516 7.97448 13.8516 7.94141 13.8857L7.93359 13.8936C7.57186 14.2553 7.07871 14.5 6.5 14.5C5.92617 14.5 5.41901 14.2584 5.06055 13.8867L5.05859 13.8857C5.02552 13.8516 4.97448 13.8516 4.94141 13.8857L4.93359 13.8936C4.5705 14.2566 4.06698 14.5 3.5 14.5C2.39386 14.5 1.5 13.6061 1.5 12.5C1.5 11.9262 1.74158 11.419 2.11328 11.0605L2.11426 11.0586C2.14843 11.0255 2.14843 10.9745 2.11426 10.9414L2.10645 10.9336C1.74472 10.5719 1.5 10.0787 1.5 9.5C1.5 8.92615 1.74158 8.419 2.11328 8.06055L2.11426 8.05859C2.14843 8.02552 2.14843 7.97448 2.11426 7.94141L2.10645 7.93359C1.74472 7.57187 1.5 7.07872 1.5 6.5C1.5 5.92615 1.74158 5.419 2.11328 5.06055L2.11426 5.05859C2.14843 5.02552 2.14843 4.97448 2.11426 4.94141L2.10645 4.93359C1.74336 4.57051 1.5 4.06699 1.5 3.5C1.5 2.39386 2.39386 1.5 3.5 1.5C4.00208 1.5 4.45369 1.68434 4.79883 1.97949L4.93945 2.11328L4.94141 2.11426C4.97448 2.14843 5.02552 2.14843 5.05859 2.11426L5.06641 2.10645L5.20801 1.97656C5.55265 1.68734 5.99357 1.5 6.5 1.5C7.00208 1.5 7.45369 1.68434 7.79883 1.97949L7.93945 2.11328L7.94141 2.11426C7.97448 2.14843 8.02552 2.14843 8.05859 2.11426L8.06641 2.10645L8.20801 1.97656C8.55265 1.68734 8.99357 1.5 9.5 1.5C10.0021 1.5 10.4537 1.68434 10.7988 1.97949L10.9395 2.11328L10.9414 2.11426C10.9745 2.14843 11.0255 2.14843 11.0586 2.11426L11.0664 2.10645L11.209 1.97656C11.5564 1.68663 12.0038 1.5 12.5 1.5ZM12.5 2.5C12.227 2.5 11.9703 2.61657 11.7734 2.81348L11.7725 2.8125C11.3451 3.24999 10.6442 3.24875 10.2197 2.80664C10.0382 2.61861 9.78594 2.5 9.5 2.5C9.21871 2.5 8.9717 2.61521 8.77344 2.81348L8.77246 2.8125C8.34511 3.24999 7.64418 3.24875 7.21973 2.80664C7.03822 2.61861 6.78594 2.5 6.5 2.5C6.21871 2.5 5.9717 2.61521 5.77344 2.81348L5.77246 2.8125C5.34511 3.24999 4.64418 3.24875 4.21973 2.80664C4.03822 2.61861 3.78594 2.5 3.5 2.5C2.94614 2.5 2.5 2.94614 2.5 3.5C2.5 3.77301 2.61656 4.02965 2.81348 4.22656C3.25096 4.65392 3.24779 5.35485 2.80566 5.7793L2.80664 5.78027C2.6186 5.96179 2.5 6.21407 2.5 6.5C2.5 6.78128 2.6152 7.02829 2.81348 7.22656C3.25096 7.65392 3.24779 8.35485 2.80566 8.7793L2.80664 8.78027C2.6186 8.96179 2.5 9.21407 2.5 9.5C2.5 9.78128 2.6152 10.0283 2.81348 10.2266C3.25096 10.6539 3.24779 11.3549 2.80566 11.7793L2.80664 11.7803C2.6186 11.9618 2.5 12.2141 2.5 12.5C2.5 13.0539 2.94614 13.5 3.5 13.5C3.77302 13.5 4.02966 13.3834 4.22656 13.1865C4.65392 12.749 5.35583 12.7513 5.78027 13.1934L5.85156 13.2598C6.0254 13.4086 6.24961 13.5 6.5 13.5C6.78129 13.5 7.0283 13.3848 7.22656 13.1865C7.65392 12.749 8.35583 12.7513 8.78027 13.1934L8.85156 13.2598C9.0254 13.4086 9.24961 13.5 9.5 13.5C9.78129 13.5 10.0283 13.3848 10.2266 13.1865C10.6539 12.749 11.3558 12.7513 11.7803 13.1934L11.8516 13.2598C12.0254 13.4086 12.2496 13.5 12.5 13.5C13.0539 13.5 13.5 13.0539 13.5 12.5C13.5 12.227 13.3834 11.9704 13.1865 11.7734C12.7493 11.3458 12.7517 10.643 13.1943 10.2188C13.3818 10.0373 13.5 9.78543 13.5 9.5C13.5 9.21872 13.3848 8.97171 13.1865 8.77344C12.7493 8.34581 12.7517 7.64297 13.1943 7.21875C13.3818 7.0373 13.5 6.78543 13.5 6.5C13.5 6.21872 13.3848 5.97171 13.1865 5.77344C12.7493 5.34581 12.7517 4.64297 13.1943 4.21875C13.3818 4.0373 13.5 3.78543 13.5 3.5C13.5 2.94614 13.0539 2.5 12.5 2.5Z" fill="currentColor"/>
</svg>
