<svg width="16" height="16" viewBox="0 0 16 16" fill="none" xmlns="http://www.w3.org/2000/svg">
<path fill-rule="evenodd" clip-rule="evenodd" d="M5.51255 1.99478C8.82914 0.620999 12.6314 2.19596 14.0052 5.51255C15.379 8.82914 13.804 12.6314 10.4874 14.0052C7.17084 15.379 3.36855 13.804 1.99478 10.4874C0.620999 7.17084 2.19596 3.36855 5.51255 1.99478ZM6.36543 13.2508C7.40171 13.574 8.53752 13.5925 9.63347 13.2501L8.86362 11.3915C8.28312 11.5401 7.6902 11.5336 7.13547 11.3917L6.36543 13.2508ZM11.0087 9.78739C10.7168 10.2797 10.3028 10.7036 9.7875 11.0088L10.5573 12.8674C11.5742 12.3347 12.3635 11.5184 12.8678 10.5574L11.0087 9.78739ZM3.13165 10.5577C3.66428 11.5744 4.48085 12.3639 5.44165 12.8681L6.21169 11.0091C5.71964 10.7172 5.2963 10.3026 4.99114 9.7875L3.13165 10.5577ZM11.3915 7.13637C11.5401 7.7166 11.533 8.3091 11.3914 8.86361L13.2504 9.63365C13.5734 8.59754 13.5933 7.46186 13.251 6.36614L11.3915 7.13637ZM7.04328 5.69029C6.40869 5.95315 5.94011 6.44727 5.69424 7.03445C5.69306 7.03746 5.69306 7.04092 5.69182 7.04391C5.69058 7.04691 5.68813 7.04936 5.68684 7.05232C5.44549 7.64138 5.42744 8.32211 5.69029 8.9567C5.95305 9.59106 6.44718 10.0589 7.03408 10.3048C7.0373 10.3061 7.04071 10.3068 7.04391 10.3082C7.04664 10.3093 7.04925 10.3111 7.05194 10.3122C7.64115 10.5538 8.32188 10.5726 8.9567 10.3097C10.2323 9.78131 10.8381 8.31889 10.3097 7.04328C10.0467 6.40846 9.55209 5.94041 8.96463 5.69461C8.96189 5.69354 8.95879 5.69294 8.95607 5.69182C8.95287 5.69049 8.94992 5.6886 8.94676 5.68721C8.35785 5.44612 7.67765 5.42753 7.04328 5.69029ZM9.78702 4.99035C10.2796 5.2823 10.7034 5.69694 11.0088 6.21249L12.8683 5.44226C12.3355 4.42518 11.5184 3.63554 10.5571 3.13131L9.78702 4.99035ZM2.74829 6.3658C2.42526 7.40195 2.40663 8.53808 2.74897 9.63384L4.60845 8.86362C4.45991 8.28332 4.46563 7.69041 4.60734 7.13585L2.74829 6.3658ZM5.44226 3.13165C4.42537 3.6644 3.63518 4.48094 3.13093 5.44202L4.98998 6.21207C5.28194 5.71968 5.69669 5.29554 6.21211 4.99024L5.44226 3.13165ZM7.13599 4.60755C7.71607 4.45904 8.30884 4.46618 8.86324 4.60771L9.63328 2.74866C8.59732 2.42585 7.46165 2.40671 6.36614 2.74897L7.13599 4.60755Z" fill="currentColor"/>
</svg>
