<svg width="16" height="16" viewBox="0 0 16 16" fill="none" xmlns="http://www.w3.org/2000/svg">
<path fill-rule="evenodd" clip-rule="evenodd" d="M11.3398 2.5C12.536 2.5 13.5097 3.47381 13.5098 4.66992C13.5098 5.86607 12.536 6.83984 11.3398 6.83984H10.1699V9.16992H11.3398C12.5359 9.16992 13.5097 10.1438 13.5098 11.3398C13.5098 12.536 12.536 13.5098 11.3398 13.5098C10.1438 13.5097 9.16992 12.5359 9.16992 11.3398V10.1699H6.83984V11.3398C6.83984 12.536 5.86607 13.5098 4.66992 13.5098C3.47383 13.5097 2.5 12.536 2.5 11.3398C2.50008 10.1438 3.47388 9.16997 4.66992 9.16992H5.83984V6.83984H4.66992C3.47383 6.83979 2.5 5.86604 2.5 4.66992C2.50004 3.47384 3.47385 2.50005 4.66992 2.5C5.86604 2.5 6.8398 3.47382 6.83984 4.66992V5.83984H9.16992V4.66992C9.16996 3.47387 10.1438 2.50008 11.3398 2.5ZM4.66992 10.1699C4.02615 10.17 3.50008 10.6961 3.5 11.3398C3.5 11.9837 4.0261 12.5097 4.66992 12.5098C5.31377 12.5098 5.83984 11.9837 5.83984 11.3398V10.1699H4.66992ZM10.1699 11.3398C10.1699 11.9837 10.6961 12.5097 11.3398 12.5098C11.9837 12.5098 12.5098 11.9837 12.5098 11.3398C12.5097 10.6961 11.9837 10.1699 11.3398 10.1699H10.1699V11.3398ZM6.83984 9.16992H9.16992V6.83984H6.83984V9.16992ZM4.66992 3.5C4.02613 3.50005 3.50004 4.02614 3.5 4.66992C3.5 5.31374 4.0261 5.83979 4.66992 5.83984H5.83984V4.66992C5.8398 4.02609 5.31375 3.5 4.66992 3.5ZM11.3398 3.5C10.6961 3.50008 10.17 4.02614 10.1699 4.66992V5.83984H11.3398C11.9837 5.83984 12.5098 5.31377 12.5098 4.66992C12.5097 4.0261 11.9837 3.5 11.3398 3.5Z" fill="currentColor"/>
</svg>
