<svg width="16" height="16" viewBox="0 0 16 16" fill="none" xmlns="http://www.w3.org/2000/svg">
<path fill-rule="evenodd" clip-rule="evenodd" d="M8 3C12.1461 3 15.5 6.35386 15.5 10.5C15.5 10.7761 15.2761 11 15 11H10.2959C9.91857 11.8625 9.05786 12.5 8 12.5C6.93548 12.5 6.0774 11.8621 5.70215 11H1C0.723858 11 0.5 10.7761 0.5 10.5C0.5 6.35386 3.85386 3 8 3ZM6.61914 9.43945C6.20428 10.415 6.91555 11.5 8 11.5C9.07647 11.5 9.79493 10.4132 9.38086 9.43945L8 6.25684L6.61914 9.43945ZM8 4C4.57443 4 1.7753 6.64046 1.52051 10H5.49805C5.50084 9.68453 5.56469 9.36109 5.7002 9.04395L5.70117 9.04102L7.54102 4.80078L7.5752 4.73535C7.66552 4.5903 7.82571 4.50001 8 4.5C8.19917 4.50001 8.37968 4.61808 8.45898 4.80078L10.2988 9.04102L10.2998 9.04395C10.4354 9.36121 10.4987 9.68462 10.501 10H14.4795C14.2247 6.64046 11.4256 4 8 4Z" fill="black"/>
</svg>
