<svg width="16" height="16" viewBox="0 0 16 16" fill="none" xmlns="http://www.w3.org/2000/svg">
<path d="M5 11.25C5.41421 11.25 5.75 11.5858 5.75 12C5.75 12.4142 5.41421 12.75 5 12.75C4.58579 12.75 4.25 12.4142 4.25 12C4.25 11.5858 4.58579 11.25 5 11.25Z" fill="black"/>
<path d="M8 11.25C8.41421 11.25 8.75 11.5858 8.75 12C8.75 12.4142 8.41421 12.75 8 12.75C7.58579 12.75 7.25 12.4142 7.25 12C7.25 11.5858 7.58579 11.25 8 11.25Z" fill="black"/>
<path d="M11 11.25C11.4142 11.25 11.75 11.5858 11.75 12C11.75 12.4142 11.4142 12.75 11 12.75C10.5858 12.75 10.25 12.4142 10.25 12C10.25 11.5858 10.5858 11.25 11 11.25Z" fill="black"/>
<path d="M5 3.5C5.27614 3.5 5.5 3.72386 5.5 4V9.5C5.5 9.77614 5.27614 10 5 10C4.72386 10 4.5 9.77614 4.5 9.5V4C4.5 3.72386 4.72386 3.5 5 3.5Z" fill="black"/>
<path d="M8 3.5C8.27614 3.5 8.5 3.72386 8.5 4V9.5C8.5 9.77614 8.27614 10 8 10C7.72386 10 7.5 9.77614 7.5 9.5V4C7.5 3.72386 7.72386 3.5 8 3.5Z" fill="black"/>
<path d="M11 3.5C11.2761 3.5 11.5 3.72386 11.5 4V9.5C11.5 9.77614 11.2761 10 11 10C10.7239 10 10.5 9.77614 10.5 9.5V4C10.5 3.72386 10.7239 3.5 11 3.5Z" fill="black"/>
</svg>
