<svg width="16" height="16" viewBox="0 0 16 16" fill="none" xmlns="http://www.w3.org/2000/svg">
<path fill-rule="evenodd" clip-rule="evenodd" d="M7.99985 5.5C9.38057 5.5 10.4999 6.61929 10.4999 8C10.4999 9.38071 9.38057 10.5 7.99985 10.5C6.61921 10.4999 5.49985 9.38066 5.49985 8C5.49985 6.61934 6.61921 5.50008 7.99985 5.5ZM7.99985 6.5C7.1715 6.50008 6.49985 7.17162 6.49985 8C6.49985 8.82838 7.1715 9.49992 7.99985 9.5C8.82828 9.5 9.49985 8.82843 9.49985 8C9.49985 7.17157 8.82828 6.5 7.99985 6.5Z" fill="currentColor"/>
<path fill-rule="evenodd" clip-rule="evenodd" d="M8.41978 1.5C9.17101 1.50005 9.80021 2.05539 9.90513 2.78906L9.98228 3.3291C10.3697 3.49129 10.7319 3.69887 11.0624 3.94727L11.5633 3.74609C12.262 3.46015 13.0515 3.7522 13.4217 4.38867L13.4227 4.39062L13.8417 5.11914L13.9061 5.24219C14.195 5.86624 14.0173 6.6165 13.4686 7.04199L13.037 7.38281C13.0628 7.5845 13.0799 7.79115 13.0799 8C13.0799 8.20616 13.0636 8.41559 13.0379 8.61719L13.4696 8.95703L13.4706 8.95898C14.0485 9.41845 14.2202 10.2295 13.8417 10.8809L13.4227 11.6094L13.4217 11.6113C13.0461 12.2571 12.2537 12.5245 11.5672 12.2559L11.5633 12.2539L11.0624 12.0518C10.7318 12.3002 10.3697 12.5077 9.98228 12.6699L9.90415 13.21C9.7993 13.9437 9.17107 14.5 8.41978 14.5H7.57993C6.82915 14.4998 6.19989 13.945 6.09458 13.2119L6.01548 12.6689C5.62854 12.5067 5.2665 12.3 4.93638 12.0518L4.43638 12.2539L4.4354 12.2529C3.73674 12.5386 2.94706 12.2478 2.577 11.6113L2.57603 11.6094L2.15708 10.8809L2.0936 10.7578C1.80471 10.1338 1.9816 9.38254 2.53013 8.95703L2.96079 8.61719C2.93493 8.41557 2.91978 8.20876 2.91978 8C2.91978 7.79355 2.93504 7.58369 2.96079 7.38184L2.53013 7.04297L2.52817 7.04102C1.95082 6.58157 1.77898 5.77021 2.15708 5.11914L2.57603 4.39062L2.577 4.38867C2.95244 3.74292 3.74506 3.47596 4.43149 3.74414L4.43638 3.74609L4.93638 3.94727C5.26647 3.69909 5.6286 3.49224 6.01548 3.33008L6.09458 2.78809C6.19989 2.05498 6.82915 1.50019 7.57993 1.5H8.41978ZM7.57993 2.5C7.33148 2.50019 7.12 2.68464 7.08482 2.93066L6.9647 3.76172C6.93801 3.94582 6.81108 4.10036 6.6356 4.16211C6.15192 4.33236 5.71642 4.58162 5.34556 4.89941C5.20394 5.02066 5.00582 5.05303 4.83286 4.9834L4.06724 4.6748C3.83404 4.58402 3.56651 4.67785 3.44224 4.8916L3.02329 5.61914L3.02232 5.62109C2.90158 5.82894 2.94912 6.0962 3.14927 6.25684L3.80942 6.77734C3.95609 6.89304 4.02635 7.08118 3.99107 7.26465C3.9467 7.49542 3.91978 7.75369 3.91978 8C3.91978 8.24479 3.94572 8.49437 3.99107 8.73926C4.02475 8.92167 3.95506 9.10777 3.80942 9.22266L3.14927 9.74316L3.14439 9.74609C2.97747 9.87466 2.9144 10.1001 2.98423 10.2969L3.02232 10.3789L3.02329 10.3809L3.44224 11.1084L3.49692 11.1855C3.63747 11.3495 3.86609 11.4072 4.05845 11.3281L4.06333 11.3262L4.83286 11.0166L4.89927 10.9951C5.05473 10.9565 5.22174 10.9946 5.34556 11.1006C5.71642 11.4184 6.15192 11.6676 6.6356 11.8379C6.81108 11.8996 6.93801 12.0542 6.9647 12.2383L7.08482 13.0684C7.12 13.3144 7.33148 13.4998 7.57993 13.5H8.41978C8.66836 13.4999 8.8797 13.3145 8.91489 13.0684L9.03501 12.2383L9.04966 12.1709C9.09414 12.0173 9.2107 11.892 9.36411 11.8379C9.8478 11.6676 10.2833 11.4184 10.6542 11.1006L10.7098 11.0586C10.8447 10.9722 11.0156 10.9558 11.1668 11.0166L11.9315 11.3242C12.1648 11.4155 12.433 11.3223 12.5575 11.1084L12.9764 10.3809L12.9774 10.3789C13.0983 10.171 13.0507 9.90384 12.8504 9.74316L12.1903 9.22266C12.0437 9.10697 11.9734 8.91878 12.0086 8.73535C12.053 8.50458 12.0799 8.24632 12.0799 8C12.0799 7.75519 12.053 7.50566 12.0077 7.26074C11.9741 7.0784 12.0447 6.89219 12.1903 6.77734L12.8504 6.25684L12.8543 6.25391C13.0452 6.1071 13.1011 5.83387 12.9774 5.62109L12.9764 5.61914L12.5575 4.8916L12.5028 4.81445C12.3621 4.6503 12.1328 4.59236 11.9403 4.67188L11.9364 4.67383L11.1668 4.9834C10.9939 5.05289 10.7957 5.02074 10.6542 4.89941C10.2833 4.58162 9.8478 4.33236 9.36411 4.16211C9.1888 4.10028 9.06168 3.9457 9.03501 3.76172L8.91489 2.93164C8.8797 2.68552 8.66835 2.50005 8.41978 2.5H7.57993Z" fill="currentColor"/>
</svg>
