<svg width="16" height="16" viewBox="0 0 16 16" fill="none" xmlns="http://www.w3.org/2000/svg">
<path fill-rule="evenodd" clip-rule="evenodd" d="M8.20705 3.40617C9.42228 2.19135 11.3786 2.1912 12.5938 3.40617C13.809 4.62143 13.809 6.5786 12.5938 7.79386L11.294 9.09367C10.892 9.4956 10.4081 9.76133 9.89748 9.89738C9.76141 10.4079 9.4957 10.8919 9.09377 11.2939L7.79396 12.5937C6.5787 13.8089 4.62151 13.8089 3.40627 12.5937C2.19131 11.3785 2.19149 9.42219 3.40627 8.20695L4.70705 6.90617C5.10862 6.50473 5.59165 6.23763 6.10158 6.10148C6.23772 5.59153 6.50483 5.10854 6.90627 4.70695L8.20705 3.40617ZM6.0088 7.19621C5.7943 7.29734 5.59213 7.43523 5.41408 7.6132L4.1133 8.91398C3.28905 9.73869 3.28886 11.062 4.1133 11.8866C4.93802 12.7114 6.26219 12.7113 7.08693 11.8866L8.38673 10.5868C8.56487 10.4087 8.70156 10.2058 8.80275 9.99113C8.11145 9.9246 7.43785 9.62525 6.90627 9.09367C6.37443 8.56175 6.075 7.88783 6.0088 7.19621ZM6.99904 6.99894C7.02272 7.50258 7.22634 7.99959 7.6133 8.38663C7.99999 8.77333 8.4967 8.97584 9.00002 8.99992C8.97596 8.49657 8.77345 7.99991 8.38673 7.6132C7.99967 7.22622 7.50271 7.0226 6.99904 6.99894ZM11.8867 4.1132C11.0621 3.28875 9.73879 3.2889 8.91408 4.1132L7.6133 5.41398C7.43532 5.59205 7.29743 5.79418 7.1963 6.0087C7.88795 6.07489 8.56183 6.37431 9.09377 6.90617C9.62537 7.43777 9.92471 8.11132 9.99123 8.80265C10.2059 8.70147 10.4088 8.56478 10.5869 8.38663L11.8867 7.08683C12.7115 6.26209 12.7115 4.93794 11.8867 4.1132Z" fill="black"/>
</svg>
