<svg width="16" height="16" viewBox="0 0 16 16" fill="none" xmlns="http://www.w3.org/2000/svg">
<path fill-rule="evenodd" clip-rule="evenodd" d="M7.58594 1.62009C7.87804 1.53225 8.18865 1.53909 8.47852 1.63571L8.47754 1.63669L14.1582 3.52536C14.3623 3.5934 14.5 3.78479 14.5 3.99997V5.99997C14.5 6.27608 14.2761 6.49997 14 6.49997H13.5V11.5H14C14.2761 11.5 14.5 11.7239 14.5 12V14C14.5 14.2761 14.2761 14.5 14 14.5H2C1.72386 14.5 1.5 14.2761 1.5 14V12C1.50005 11.7239 1.72389 11.5 2 11.5H2.5V6.49997H2C1.72388 6.49997 1.50003 6.27608 1.5 5.99997V3.99997L1.50586 3.92087C1.53494 3.73908 1.66307 3.58493 1.8418 3.52536L7.52246 1.63571L7.58594 1.62009ZM2.5 13.5H13.5V12.5H2.5V13.5ZM11 6.49997V11.5H12.5V6.49997H11ZM3.5 11.5H5V6.49997H3.5V11.5ZM6 11.5H7.5V6.49997H6V11.5ZM8.5 11.5H10V6.49997H8.5V11.5ZM8.16211 2.58395C8.05223 2.54733 7.94598 2.55039 7.85547 2.582C7.84189 2.58675 7.82737 2.58919 7.81348 2.59274L2.5 4.36032V5.49997H13.5V4.36032L8.16211 2.58395Z" fill="currentColor"/>
</svg>
