<svg width="16" height="16" viewBox="0 0 16 16" fill="none" xmlns="http://www.w3.org/2000/svg">
<path fill-rule="evenodd" clip-rule="evenodd" d="M6 8.5C6.82843 8.5 7.5 9.17157 7.5 10V12.5C7.5 13.3284 6.82843 14 6 14H3.5C2.67157 14 2 13.3284 2 12.5V10C2 9.17157 2.67157 8.5 3.5 8.5H6ZM3.5 9.5C3.22386 9.5 3 9.72386 3 10V12.5C3 12.7761 3.22386 13 3.5 13H6C6.27614 13 6.5 12.7761 6.5 12.5V10C6.5 9.72386 6.27614 9.5 6 9.5H3.5Z" fill="currentColor"/>
<path fill-rule="evenodd" clip-rule="evenodd" d="M12.5 8.5C13.3284 8.5 14 9.17157 14 10V12.5C14 13.3284 13.3284 14 12.5 14H10C9.17157 14 8.5 13.3284 8.5 12.5V10C8.5 9.17157 9.17157 8.5 10 8.5H12.5ZM10 9.5C9.72386 9.5 9.5 9.72386 9.5 10V12.5C9.5 12.7761 9.72386 13 10 13H12.5C12.7761 13 13 12.7761 13 12.5V10C13 9.72386 12.7761 9.5 12.5 9.5H10Z" fill="currentColor"/>
<path fill-rule="evenodd" clip-rule="evenodd" d="M6 2C6.82843 2 7.5 2.67157 7.5 3.5V6C7.5 6.82843 6.82843 7.5 6 7.5H3.5C2.67157 7.5 2 6.82843 2 6V3.5C2 2.67157 2.67157 2 3.5 2H6ZM3.5 3C3.22386 3 3 3.22386 3 3.5V6C3 6.27614 3.22386 6.5 3.5 6.5H6C6.27614 6.5 6.5 6.27614 6.5 6V3.5C6.5 3.22386 6.27614 3 6 3H3.5Z" fill="currentColor"/>
<path fill-rule="evenodd" clip-rule="evenodd" d="M12.5 2C13.3284 2 14 2.67157 14 3.5V6C14 6.82843 13.3284 7.5 12.5 7.5H10C9.17157 7.5 8.5 6.82843 8.5 6V3.5C8.5 2.67157 9.17157 2 10 2H12.5ZM10 3C9.72386 3 9.5 3.22386 9.5 3.5V6C9.5 6.27614 9.72386 6.5 10 6.5H12.5C12.7761 6.5 13 6.27614 13 6V3.5C13 3.22386 12.7761 3 12.5 3H10Z" fill="currentColor"/>
</svg>
