<svg width="16" height="16" viewBox="0 0 16 16" fill="none" xmlns="http://www.w3.org/2000/svg">
<path fill-rule="evenodd" clip-rule="evenodd" d="M8.16699 1.50391C8.21394 1.49802 8.26105 1.50049 8.30762 1.50781C10.99 1.6328 13.2467 3.38325 14.1162 5.79688C14.1252 5.81695 14.1314 5.83801 14.1377 5.85938C14.3715 6.52983 14.5 7.24983 14.5 8C14.5 8.7455 14.3726 9.46103 14.1416 10.1279C14.1348 10.1535 14.1268 10.1783 14.1162 10.2021C13.2469 12.6162 10.9903 14.3662 8.30762 14.4912C8.26097 14.4986 8.21403 14.501 8.16699 14.4951C8.11147 14.4965 8.05585 14.5 8 14.5C7.94382 14.5 7.88787 14.4965 7.83203 14.4951C7.785 14.5009 7.73802 14.4987 7.69141 14.4912C5.00907 14.3658 2.75195 12.6161 1.88281 10.2021C1.87409 10.1825 1.86846 10.1616 1.8623 10.1406C1.62849 9.47017 1.5 8.75017 1.5 8C1.5 7.24733 1.62895 6.52489 1.86426 5.85254C1.87009 5.83371 1.87489 5.81468 1.88281 5.79688C2.75218 3.38338 5.00937 1.63318 7.69141 1.50781C7.73793 1.5004 7.78509 1.4981 7.83203 1.50391C7.88786 1.50249 7.94383 1.5 8 1.5C8.05585 1.5 8.11148 1.50251 8.16699 1.50391ZM6.56641 10.5C6.86549 11.6456 7.36353 12.6615 7.99902 13.4834C8.63481 12.6615 9.13346 11.6459 9.43262 10.5H6.56641ZM3.10156 10.5C3.81914 11.9032 5.1206 12.957 6.68652 13.3408C6.17346 12.5025 5.78138 11.5419 5.53711 10.5H3.10156ZM10.4629 10.5C10.2188 11.542 9.82646 12.5025 9.31348 13.3408C10.8794 12.957 12.1809 11.9032 12.8984 10.5H10.4629ZM6.3623 6.5C6.28971 6.98393 6.25 7.48518 6.25 8C6.25 8.51482 6.28971 9.01607 6.3623 9.5H9.63672C9.70931 9.01606 9.74902 8.51486 9.74902 8C9.74902 7.48516 9.7093 6.98393 9.63672 6.5H6.3623ZM10.6475 6.5C10.7136 6.98749 10.749 7.48861 10.749 8C10.749 8.5114 10.7136 9.0125 10.6475 9.5H13.292C13.4269 9.02309 13.5 8.5201 13.5 8C13.5 7.4799 13.4269 6.97691 13.292 6.5H10.6475ZM2.70801 6.5C2.5731 6.97691 2.5 7.4799 2.5 8C2.5 8.5201 2.5731 9.02309 2.70801 9.5H5.35254C5.28628 9.01248 5.25 8.51142 5.25 8C5.25 7.48858 5.28628 6.98752 5.35254 6.5H2.70801ZM7.99902 2.51562C7.36331 3.33758 6.86556 4.35413 6.56641 5.5H9.43262C9.1334 4.35384 8.63503 3.33769 7.99902 2.51562ZM9.31348 2.6582C9.82667 3.49673 10.2187 4.45772 10.4629 5.5H12.8984C12.1808 4.09674 10.8795 3.04196 9.31348 2.6582ZM6.68652 2.6582C5.1205 3.04196 3.81918 4.09674 3.10156 5.5H5.53711C5.78145 4.45781 6.17325 3.49668 6.68652 2.6582Z" fill="black"/>
</svg>
