<svg width="16" height="16" viewBox="0 0 16 16" fill="none" xmlns="http://www.w3.org/2000/svg">
<path fill-rule="evenodd" clip-rule="evenodd" d="M8 1.5C11.5899 1.5 14.5 4.41015 14.5 8C14.5 11.5899 11.5899 14.5 8 14.5C4.41015 14.5 1.5 11.5899 1.5 8C1.5 4.41015 4.41015 1.5 8 1.5ZM10.0957 10.8027C9.51142 11.2403 8.78616 11.5 8 11.5C7.21356 11.5 6.48771 11.2406 5.90332 10.8027L4.48047 12.2256C5.43429 13.0209 6.66101 13.5 8 13.5C9.33872 13.5 10.5648 13.0206 11.5186 12.2256L10.0957 10.8027ZM3.77344 4.48047C2.97837 5.43422 2.5 6.66123 2.5 8C2.5 9.3385 2.97865 10.5649 3.77344 11.5186L5.19629 10.0957C4.75891 9.5115 4.5 8.78595 4.5 8C4.5 7.21377 4.75862 6.48763 5.19629 5.90332L3.77344 4.48047ZM10.8027 5.90332C11.2406 6.48771 11.5 7.21356 11.5 8C11.5 8.78616 11.2403 9.51142 10.8027 10.0957L12.2256 11.5186C13.0206 10.5648 13.5 9.33872 13.5 8C13.5 6.66101 13.0209 5.43429 12.2256 4.48047L10.8027 5.90332ZM8 5.5C7.31312 5.5 6.69112 5.77719 6.23926 6.22559C6.23702 6.22791 6.23569 6.23111 6.2334 6.2334C6.23111 6.23569 6.22791 6.23702 6.22559 6.23926C5.77719 6.69112 5.5 7.31312 5.5 8C5.5 8.68663 5.77747 9.30795 6.22559 9.75977C6.22808 9.76215 6.23095 9.76415 6.2334 9.7666C6.23548 9.76869 6.23722 9.77132 6.23926 9.77344C6.69116 10.2221 7.31287 10.5 8 10.5C9.38071 10.5 10.5 9.38071 10.5 8C10.5 7.31287 10.2221 6.69116 9.77344 6.23926C9.77132 6.23722 9.76869 6.23548 9.7666 6.2334C9.76415 6.23095 9.76215 6.22808 9.75977 6.22559C9.30795 5.77747 8.68663 5.5 8 5.5ZM8 2.5C6.66123 2.5 5.43422 2.97837 4.48047 3.77344L5.90332 5.19629C6.48763 4.75862 7.21377 4.5 8 4.5C8.78595 4.5 9.5115 4.75891 10.0957 5.19629L11.5186 3.77344C10.5649 2.97865 9.3385 2.5 8 2.5Z" fill="currentColor"/>
</svg>
