<svg width="16" height="16" viewBox="0 0 16 16" fill="none" xmlns="http://www.w3.org/2000/svg">
<path fill-rule="evenodd" clip-rule="evenodd" d="M6.8184 1.12126C10.3637 0.385905 13.4999 3.07843 13.5 6.50017C13.5 6.53574 13.4936 6.57079 13.4864 6.60466C13.4434 8.69409 12.2315 10.492 10.4893 11.384V12.3957C10.4964 12.4293 10.5 12.4644 10.5 12.5002C10.5 12.5357 10.4963 12.5703 10.4893 12.6037V13.4904C10.4891 14.3163 9.8153 14.9904 8.9893 14.9904H6.9893C6.16367 14.99 5.48954 14.3161 5.4893 13.4904V11.3849C3.45035 10.3409 2.13709 8.06156 2.57719 5.52458C2.95199 3.35482 4.65631 1.57373 6.8184 1.12126ZM6.4893 13.0002V13.4904C6.48954 13.7638 6.71595 13.99 6.9893 13.9904H8.9893C9.26301 13.9904 9.48906 13.7641 9.4893 13.4904V13.0002H6.4893ZM12.4971 6.40544C12.4399 3.65269 9.90294 1.50136 7.02153 2.0988C5.37434 2.4437 4.0444 3.74791 3.63286 5.36736L3.56254 5.69548C3.18439 7.87553 4.3793 9.81946 6.19047 10.6125C6.3723 10.6922 6.4893 10.8719 6.4893 11.0705V12.0002H9.4893V11.0705C9.4893 10.8721 9.60751 10.6923 9.78911 10.6125C11.3745 9.91885 12.4891 8.33346 12.4893 6.4904C12.4893 6.46176 12.4924 6.43305 12.4971 6.40544Z" fill="currentColor"/>
</svg>
