<svg width="16" height="16" viewBox="0 0 16 16" fill="none" xmlns="http://www.w3.org/2000/svg">
<path d="M8 11.5C8.27614 11.5 8.5 11.7239 8.5 12V14C8.5 14.2761 8.27614 14.5 8 14.5C7.72386 14.5 7.5 14.2761 7.5 14V12C7.5 11.7239 7.72386 11.5 8 11.5Z" fill="currentColor"/>
<path d="M4.81641 10.4766C5.01164 10.2814 5.3282 10.2814 5.52344 10.4766C5.71858 10.6718 5.71858 10.9884 5.52344 11.1836L4.11328 12.5938C3.91802 12.7887 3.60143 12.7888 3.40625 12.5938C3.21118 12.3986 3.21129 12.082 3.40625 11.8867L4.81641 10.4766Z" fill="currentColor"/>
<path d="M10.4766 10.4766C10.6718 10.2813 10.9883 10.2813 11.1836 10.4766L12.5938 11.8867C12.7888 12.082 12.7889 12.3986 12.5938 12.5938C12.3986 12.7889 12.082 12.7888 11.8867 12.5938L10.4766 11.1836C10.2813 10.9883 10.2813 10.6718 10.4766 10.4766Z" fill="currentColor"/>
<path d="M4 7.5C4.27614 7.5 4.5 7.72386 4.5 8C4.5 8.27614 4.27614 8.5 4 8.5H2C1.72386 8.5 1.5 8.27614 1.5 8C1.5 7.72386 1.72386 7.5 2 7.5H4Z" fill="currentColor"/>
<path d="M14 7.5C14.2761 7.5 14.5 7.72386 14.5 8C14.5 8.27614 14.2761 8.5 14 8.5H12C11.7239 8.5 11.5 8.27614 11.5 8C11.5 7.72386 11.7239 7.5 12 7.5H14Z" fill="currentColor"/>
<path d="M3.40625 3.40625C3.60144 3.21106 3.918 3.21119 4.11328 3.40625L5.52344 4.81641C5.71853 5.01168 5.71863 5.32823 5.52344 5.52344C5.32823 5.71864 5.01168 5.71853 4.81641 5.52344L3.40625 4.11328C3.2112 3.918 3.21106 3.60144 3.40625 3.40625Z" fill="currentColor"/>
<path d="M11.8867 3.40625C12.0819 3.21125 12.3985 3.21122 12.5938 3.40625C12.7889 3.60145 12.7888 3.91803 12.5938 4.11328L11.1836 5.52344C10.9884 5.7186 10.6718 5.7186 10.4766 5.52344C10.2815 5.32819 10.2814 5.01162 10.4766 4.81641L11.8867 3.40625Z" fill="currentColor"/>
<path d="M8 1.5C8.27614 1.5 8.5 1.72386 8.5 2V4C8.5 4.27614 8.27614 4.5 8 4.5C7.72386 4.5 7.5 4.27614 7.5 4V2C7.5 1.72386 7.72386 1.5 8 1.5Z" fill="currentColor"/>
</svg>
