<svg width="16" height="16" viewBox="0 0 16 16" fill="none" xmlns="http://www.w3.org/2000/svg">
<path fill-rule="evenodd" clip-rule="evenodd" d="M8.10254 2.66734C8.46601 1.92819 9.52248 1.92802 9.88672 2.66637L14.4375 11.7767C14.5148 11.9317 14.5061 12.1157 14.415 12.263C14.3239 12.4102 14.1633 12.5003 13.9902 12.5004H1.99023C1.71418 12.5004 1.49038 12.2764 1.49023 12.0004C1.49023 11.8893 1.52764 11.7874 1.58887 11.7045L4.55273 5.77672L4.58887 5.71617C4.68129 5.58228 4.83438 5.50043 5 5.50035C5.18929 5.50044 5.36261 5.6074 5.44727 5.77672L5.99902 6.88121L8.10254 2.66734ZM6.44727 8.22301C6.36271 8.39246 6.18936 8.50018 6 8.50035C5.81079 8.50026 5.63744 8.39318 5.55273 8.22398L5 7.11852L2.80859 11.5004H13.1816L8.99512 3.11852L6.44727 8.22301Z" fill="currentColor"/>
</svg>
