<svg width="16" height="16" viewBox="0 0 16 16" fill="none" xmlns="http://www.w3.org/2000/svg">
<path fill-rule="evenodd" clip-rule="evenodd" d="M8.35496 2.69871C9.7218 1.33188 11.9383 1.33188 13.3052 2.69871C14.6717 4.06551 14.6718 6.28116 13.3052 7.64793L7.64793 13.3052C6.28115 14.6717 4.06549 14.6717 2.69871 13.3052C1.33188 11.9383 1.33188 9.7218 2.69871 8.35496L8.35496 2.69871ZM3.40574 9.06199C2.42943 10.0383 2.42943 11.6218 3.40574 12.5981C4.382 13.5741 5.96464 13.5741 6.9409 12.5981L9.41551 10.1235L5.87937 6.58738L3.40574 9.06199ZM12.5981 3.40574C11.6218 2.42943 10.0383 2.42943 9.06199 3.40574L6.58641 5.88035L10.1225 9.41648L12.5981 6.9409C13.5742 5.96465 13.5742 4.38202 12.5981 3.40574Z" fill="currentColor"/>
</svg>
