<svg width="16" height="16" viewBox="0 0 16 16" fill="none" xmlns="http://www.w3.org/2000/svg">
<path fill-rule="evenodd" clip-rule="evenodd" d="M4 7.5C4.82843 7.5 5.5 8.17157 5.5 9C5.5 9.82843 4.82843 10.5 4 10.5C3.17157 10.5 2.5 9.82843 2.5 9C2.5 8.17157 3.17157 7.5 4 7.5ZM4 8.5C3.72386 8.5 3.5 8.72386 3.5 9C3.5 9.27614 3.72386 9.5 4 9.5C4.27614 9.5 4.5 9.27614 4.5 9C4.5 8.72386 4.27614 8.5 4 8.5Z" fill="black"/>
<path d="M9 8.5C9.27614 8.5 9.5 8.72386 9.5 9C9.5 9.82614 8.82614 10.5 8 10.5C7.17386 10.5 6.5 9.82614 6.5 9C6.5 8.72386 6.72386 8.5 7 8.5C7.24171 8.5 7.44371 8.67145 7.49023 8.89941L7.50977 9.10059C7.55693 9.32716 7.7605 9.5 8 9.5C8.2395 9.5 8.44307 9.32716 8.49023 9.10059L8.50977 8.89941C8.55629 8.67145 8.75829 8.5 9 8.5Z" fill="black"/>
<path fill-rule="evenodd" clip-rule="evenodd" d="M12 7.5C12.8284 7.5 13.5 8.17157 13.5 9C13.5 9.82843 12.8284 10.5 12 10.5C11.1716 10.5 10.5 9.82843 10.5 9C10.5 8.17157 11.1716 7.5 12 7.5ZM12 8.5C11.7239 8.5 11.5 8.72386 11.5 9C11.5 9.27614 11.7239 9.5 12 9.5C12.2761 9.5 12.5 9.27614 12.5 9C12.5 8.72386 12.2761 8.5 12 8.5Z" fill="black"/>
<path fill-rule="evenodd" clip-rule="evenodd" d="M8 1.5C8.82843 1.5 9.5 2.17157 9.5 3C9.5 3.65281 9.08218 4.20597 8.5 4.41211V5.5H12C13.933 5.5 15.5 7.067 15.5 9C15.5 10.933 13.933 12.5 12 12.5H4C2.067 12.5 0.5 10.933 0.5 9C0.5 7.067 2.067 5.5 4 5.5H7.5V4.41211C6.91782 4.20597 6.5 3.65281 6.5 3C6.5 2.17157 7.17157 1.5 8 1.5ZM4 6.5C2.61929 6.5 1.5 7.61929 1.5 9C1.5 10.3807 2.61929 11.5 4 11.5H12C13.3807 11.5 14.5 10.3807 14.5 9C14.5 7.61929 13.3807 6.5 12 6.5H4ZM8 2.5C7.72386 2.5 7.5 2.72386 7.5 3C7.5 3.27614 7.72386 3.5 8 3.5C8.27614 3.5 8.5 3.27614 8.5 3C8.5 2.72386 8.27614 2.5 8 2.5Z" fill="black"/>
</svg>
