<svg width="16" height="16" viewBox="0 0 16 16" fill="none" xmlns="http://www.w3.org/2000/svg">
<path fill-rule="evenodd" clip-rule="evenodd" d="M8 1.5C11.5861 1.5 14.5 4.41386 14.5 8C14.5 8.36974 14.467 8.72549 14.4141 9.0752C14.4136 9.07853 14.4117 9.08164 14.4111 9.08496C14.4084 9.10063 14.4045 9.11573 14.4004 9.13086C14.3969 9.14385 14.3922 9.15632 14.3877 9.16895C14.3828 9.18254 14.3781 9.19596 14.3721 9.20898C14.3643 9.22585 14.3553 9.24191 14.3457 9.25781C14.3401 9.26697 14.3352 9.2764 14.3291 9.28516C14.3123 9.30922 14.2944 9.33256 14.2734 9.35352L9.35352 14.2734C9.27812 14.3488 9.1806 14.398 9.0752 14.4141C8.72547 14.4671 8.36973 14.5 8 14.5C4.41386 14.5 1.5 11.5861 1.5 8C1.5 4.41386 4.41386 1.5 8 1.5ZM8 2.5C4.96614 2.5 2.5 4.96614 2.5 8C2.5 11.0339 4.96614 13.5 8 13.5C8.17115 13.5 8.34022 13.4883 8.50977 13.4727V11.5801C8.50977 9.88528 9.88256 8.50013 11.5898 8.5H13.4746C13.4897 8.33374 13.5 8.16782 13.5 8C13.5 4.96614 11.0339 2.5 8 2.5ZM11.5898 9.5C10.4374 9.50013 9.50977 10.435 9.50977 11.5801V12.7021L12.7119 9.5H11.5898Z" fill="currentColor"/>
</svg>
