<svg width="16" height="16" viewBox="0 0 16 16" fill="none" xmlns="http://www.w3.org/2000/svg">
<path fill-rule="evenodd" clip-rule="evenodd" d="M13 1.5C13.8261 1.5 14.5 2.17386 14.5 3V9C14.5 9.03273 14.4966 9.06544 14.4902 9.09766C14.4801 9.14884 14.46 9.19596 14.4355 9.24023C14.4134 9.28039 14.3876 9.31945 14.3535 9.35352L9.35352 14.3535C9.32129 14.3857 9.28481 14.411 9.24707 14.4326C9.20106 14.459 9.15135 14.4796 9.09766 14.4902C9.06544 14.4966 9.03273 14.5 9 14.5H3C2.17386 14.5 1.5 13.8261 1.5 13V3C1.5 2.17386 2.17386 1.5 3 1.5H13ZM3 2.5C2.72614 2.5 2.5 2.72614 2.5 3V13C2.5 13.2739 2.72614 13.5 3 13.5H8.5V10C8.5 9.17386 9.17386 8.5 10 8.5H13.5V3C13.5 2.72614 13.2739 2.5 13 2.5H3ZM10 9.5C9.72614 9.5 9.5 9.72614 9.5 10V12.793L12.793 9.5H10Z" fill="black"/>
</svg>
