<svg width="16" height="16" viewBox="0 0 16 16" fill="none" xmlns="http://www.w3.org/2000/svg">
<path fill-rule="evenodd" clip-rule="evenodd" d="M7.93066 2.57988C8.7461 1.48975 10.4899 2.05482 10.4902 3.42949V5.4998H12.8398C13.7491 5.49995 14.4568 6.30414 14.3242 7.20878L14.3252 7.20976L13.6152 12.2098C13.5103 12.9433 12.881 13.4997 12.1299 13.4998H4C3.17386 13.4998 2.5 12.8259 2.5 11.9998V6.9998C2.5001 6.17374 3.17392 5.4998 4 5.4998H5.74023L7.93066 2.57988ZM9.49023 3.42949C9.48986 3.02544 8.97535 2.85096 8.73047 3.17851L6.5 6.15312V12.4998H12.1299C12.3783 12.4997 12.5898 12.3151 12.625 12.0691L13.335 7.06914L13.3359 7.06523C13.3795 6.77237 13.1484 6.49995 12.8398 6.4998H9.99023C9.71413 6.4998 9.4903 6.27589 9.49023 5.9998V3.42949ZM4 6.4998C3.7262 6.4998 3.5001 6.72602 3.5 6.9998V11.9998C3.5 12.2737 3.72614 12.4998 4 12.4998H5.5V6.4998H4Z" fill="currentColor"/>
</svg>
