<svg width="16" height="16" viewBox="0 0 16 16" fill="none" xmlns="http://www.w3.org/2000/svg">
<path fill-rule="evenodd" clip-rule="evenodd" d="M10 3.5C12.4853 3.5 14.5 5.51472 14.5 8C14.5 10.4853 12.4853 12.5 10 12.5H6C3.51472 12.5 1.5 10.4853 1.5 8C1.5 5.51472 3.51472 3.5 6 3.5H10ZM8.82715 4.5C9.84717 5.32496 10.5 6.58594 10.5 8C10.5 9.41406 9.84717 10.675 8.82715 11.5H10C11.933 11.5 13.5 9.933 13.5 8C13.5 6.067 11.933 4.5 10 4.5H8.82715ZM5.82031 4.50488C3.97083 4.59842 2.5 6.12727 2.5 8C2.5 9.933 4.067 11.5 6 11.5C7.933 11.5 9.5 9.933 9.5 8C9.5 6.067 7.933 4.5 6 4.5C5.93973 4.5 5.87983 4.50187 5.82031 4.50488Z" fill="black"/>
</svg>
