<svg width="16" height="16" viewBox="0 0 16 16" fill="none" xmlns="http://www.w3.org/2000/svg">
<path d="M9.5 7C9.77614 7 10 7.22386 10 7.5C10 7.77614 9.77614 8 9.5 8H5.5C5.22386 8 5 7.77614 5 7.5C5 7.22386 5.22386 7 5.5 7H9.5Z" fill="black"/>
<path fill-rule="evenodd" clip-rule="evenodd" d="M7.5 2.5C10.2614 2.5 12.5 4.73858 12.5 7.5C12.5 8.70064 12.0764 9.80213 11.3711 10.6641L14.3535 13.6465C14.5485 13.8418 14.5487 14.1584 14.3535 14.3535C14.1584 14.5487 13.8418 14.5485 13.6465 14.3535L10.6641 11.3711C9.80213 12.0764 8.70064 12.5 7.5 12.5C4.73858 12.5 2.5 10.2614 2.5 7.5C2.5 4.73858 4.73858 2.5 7.5 2.5ZM7.5 3.5C5.29086 3.5 3.5 5.29086 3.5 7.5C3.5 9.70914 5.29086 11.5 7.5 11.5C8.59712 11.5 9.58983 11.0571 10.3125 10.3418C10.3172 10.3367 10.3213 10.3311 10.3262 10.3262C10.3311 10.3213 10.3367 10.3172 10.3418 10.3125C11.0571 9.58983 11.5 8.59712 11.5 7.5C11.5 5.29086 9.70914 3.5 7.5 3.5Z" fill="black"/>
</svg>
