<svg width="16" height="16" viewBox="0 0 16 16" fill="none" xmlns="http://www.w3.org/2000/svg">
<path d="M6 10.5C6.27614 10.5 6.5 10.7239 6.5 11V11.6348L7.05078 11.3174C7.28991 11.1796 7.59544 11.261 7.7334 11.5C7.87128 11.7391 7.78882 12.0446 7.5498 12.1826L7 12.499L7.5498 12.8174C7.78883 12.9554 7.87128 13.2609 7.7334 13.5C7.59544 13.739 7.28991 13.8204 7.05078 13.6826L6.5 13.3643V14C6.5 14.2761 6.27614 14.5 6 14.5C5.72386 14.5 5.5 14.2761 5.5 14V13.3652L4.9502 13.6826C4.71114 13.8205 4.40568 13.7389 4.26758 13.5C4.12964 13.2609 4.21124 12.9555 4.4502 12.8174L5 12.499L4.4502 12.1826C4.21124 12.0445 4.12964 11.7391 4.26758 11.5C4.40569 11.2611 4.71114 11.1795 4.9502 11.3174L5.5 11.6338V11C5.5 10.7239 5.72386 10.5 6 10.5Z" fill="currentColor"/>
<path fill-rule="evenodd" clip-rule="evenodd" d="M4.5 1.5C6.37964 1.5 7.95597 2.80476 8.3877 4.55371C8.58648 4.51877 8.79102 4.5 9 4.5C10.7663 4.5 12.2219 5.80165 12.4639 7.5H12.5C14.1561 7.5 15.5 8.84386 15.5 10.5C15.5 12.1561 14.1561 13.5 12.5 13.5C12.2239 13.5 12 13.2761 12 13C12 12.7239 12.2239 12.5 12.5 12.5C13.6039 12.5 14.5 11.6039 14.5 10.5C14.5 9.39614 13.6039 8.5 12.5 8.5H12C11.7239 8.5 11.5 8.27614 11.5 8C11.5 6.61614 10.3839 5.5 9 5.5C8.7115 5.5 8.43527 5.55032 8.17773 5.63965C8.15918 5.64723 8.14076 5.6548 8.12109 5.66016C7.17306 6.01501 6.5 6.92593 6.5 8C6.5 8.27614 6.27614 8.5 6 8.5H5.5C4.39614 8.5 3.5 9.39614 3.5 10.5C3.5 10.6319 3.51521 10.7706 3.54102 10.9082C3.59171 11.1794 3.41365 11.4401 3.14258 11.4912C2.87117 11.5421 2.60948 11.3632 2.55859 11.0918C2.52443 10.9095 2.5 10.708 2.5 10.5C2.5 10.0066 2.62072 9.54157 2.83203 9.13086C1.46205 8.4976 0.5 7.11354 0.5 5.5C0.5 5.3103 0.607525 5.13727 0.777344 5.05273C0.947214 4.96821 1.15041 4.98713 1.30176 5.10156C1.62712 5.34746 2.05176 5.5 2.5 5.5C3.60386 5.5 4.5 4.60386 4.5 3.5C4.5 3.05176 4.34746 2.62712 4.10156 2.30176C3.98713 2.15041 3.96821 1.94721 4.05273 1.77734C4.13727 1.60752 4.3103 1.5 4.5 1.5ZM5.36816 2.62988C5.45202 2.90665 5.5 3.19932 5.5 3.5C5.5 5.15614 4.15614 6.5 2.5 6.5C2.19964 6.5 1.90736 6.45185 1.63086 6.36816C1.90367 7.26306 2.58533 7.98094 3.45605 8.30762C3.99204 7.80767 4.70969 7.5 5.5 7.5H5.53613C5.70085 6.34366 6.42863 5.37206 7.43359 4.86914C7.19913 3.8014 6.40045 2.94377 5.36816 2.62988Z" fill="currentColor"/>
<path d="M10 8.5C10.2761 8.5 10.5 8.72386 10.5 9V9.63477L11.0508 9.31738C11.2899 9.17964 11.5954 9.26095 11.7334 9.5C11.8713 9.73912 11.7888 10.0446 11.5498 10.1826L11 10.499L11.5498 10.8174C11.7888 10.9554 11.8713 11.2609 11.7334 11.5C11.5954 11.739 11.2899 11.8204 11.0508 11.6826L10.5 11.3643V12C10.5 12.2761 10.2761 12.5 10 12.5C9.72386 12.5 9.5 12.2761 9.5 12V11.3652L8.9502 11.6826C8.71114 11.8205 8.40568 11.7389 8.26758 11.5C8.12964 11.2609 8.21124 10.9555 8.4502 10.8174L9 10.499L8.4502 10.1826C8.21124 10.0445 8.12964 9.73909 8.26758 9.5C8.40569 9.26113 8.71114 9.17947 8.9502 9.31738L9.5 9.63379V9C9.5 8.72386 9.72386 8.5 10 8.5Z" fill="currentColor"/>
</svg>
