<svg width="16" height="16" viewBox="0 0 16 16" fill="none" xmlns="http://www.w3.org/2000/svg">
<path fill-rule="evenodd" clip-rule="evenodd" d="M8.5 2.5C10.3688 2.5 11.9282 3.78988 12.3633 5.51758C14.1281 5.69869 15.5 7.18651 15.5 9C15.5 10.9361 13.9361 12.5 12 12.5C11.7239 12.5 11.5 12.2761 11.5 12C11.5 11.7239 11.7239 11.5 12 11.5C13.3839 11.5 14.5 10.3839 14.5 9C14.5 7.61614 13.3839 6.5 12 6.5H11.9502C11.7012 6.5 11.4901 6.31681 11.4551 6.07031C11.2493 4.62107 10.0052 3.5 8.5 3.5C6.99475 3.5 5.75073 4.62107 5.54492 6.07031C5.5099 6.31681 5.29878 6.5 5.0498 6.5H4C2.61614 6.5 1.5 7.61614 1.5 9C1.5 10.3839 2.61614 11.5 4 11.5H4.69141L6.55273 7.77637L6.58887 7.71582C6.68135 7.58197 6.83437 7.5 7 7.5H10C10.1733 7.5 10.3347 7.5899 10.4258 7.7373C10.5167 7.88466 10.5247 8.06875 10.4473 8.22363L9.80859 9.5H11C11.1921 9.5 11.3669 9.61017 11.4502 9.7832C11.5335 9.95644 11.5107 10.1624 11.3906 10.3125L7.39062 15.3125C7.25806 15.4782 7.03524 15.5418 6.83496 15.4717C6.63459 15.4014 6.5 15.2123 6.5 15V12.5H4C2.06386 12.5 0.5 10.9361 0.5 9C0.5 7.06386 2.06386 5.5 4 5.5H4.6416C5.0828 3.78119 6.63756 2.5 8.5 2.5ZM5.80859 11.5H7C7.27614 11.5 7.5 11.7239 7.5 12V13.5742L9.95898 10.5H9C8.82671 10.5 8.66532 10.4101 8.57422 10.2627C8.48331 10.1153 8.4753 9.93125 8.55273 9.77637L9.19141 8.5H7.30859L5.80859 11.5Z" fill="currentColor"/>
</svg>
