<svg width="16" height="16" viewBox="0 0 16 16" fill="none" xmlns="http://www.w3.org/2000/svg">
<path fill-rule="evenodd" clip-rule="evenodd" d="M8 11.5C8.82843 11.5 9.5 12.1716 9.5 13C9.5 13.8284 8.82843 14.5 8 14.5C7.17157 14.5 6.5 13.8284 6.5 13C6.5 12.1716 7.17157 11.5 8 11.5ZM8 12.5C7.72386 12.5 7.5 12.7239 7.5 13C7.5 13.2761 7.72386 13.5 8 13.5C8.27614 13.5 8.5 13.2761 8.5 13C8.5 12.7239 8.27614 12.5 8 12.5Z" fill="currentColor"/>
<path fill-rule="evenodd" clip-rule="evenodd" d="M4.5 1.5C6.37964 1.5 7.95597 2.80476 8.3877 4.55371C8.58648 4.51877 8.79102 4.5 9 4.5C10.7663 4.5 12.2219 5.80165 12.4639 7.5H12.5C14.1561 7.5 15.5 8.84386 15.5 10.5C15.5 12.1561 14.1561 13.5 12.5 13.5C12.2239 13.5 12 13.2761 12 13C12 12.7239 12.2239 12.5 12.5 12.5C13.6039 12.5 14.5 11.6039 14.5 10.5C14.5 9.39614 13.6039 8.5 12.5 8.5H12C11.7239 8.5 11.5 8.27614 11.5 8C11.5 6.61614 10.3839 5.5 9 5.5C8.7115 5.5 8.43527 5.55032 8.17773 5.63965C8.15918 5.64723 8.14076 5.6548 8.12109 5.66016C7.17306 6.01501 6.5 6.92593 6.5 8C6.5 8.27614 6.27614 8.5 6 8.5H5.5C4.39614 8.5 3.5 9.39614 3.5 10.5C3.5 11.6039 4.39614 12.5 5.5 12.5C5.77614 12.5 6 12.7239 6 13C6 13.2761 5.77614 13.5 5.5 13.5C3.84386 13.5 2.5 12.1561 2.5 10.5C2.5 10.0066 2.62072 9.54157 2.83203 9.13086C1.46205 8.4976 0.5 7.11354 0.5 5.5C0.5 5.3103 0.607525 5.13727 0.777344 5.05273C0.947214 4.96821 1.15041 4.98713 1.30176 5.10156C1.62712 5.34746 2.05176 5.5 2.5 5.5C3.60386 5.5 4.5 4.60386 4.5 3.5C4.5 3.05176 4.34746 2.62712 4.10156 2.30176C3.98713 2.15041 3.96821 1.94721 4.05273 1.77734C4.13727 1.60752 4.3103 1.5 4.5 1.5ZM5.36816 2.62988C5.45202 2.90665 5.5 3.19932 5.5 3.5C5.5 5.15614 4.15614 6.5 2.5 6.5C2.19964 6.5 1.90736 6.45185 1.63086 6.36816C1.90367 7.26306 2.58533 7.98094 3.45605 8.30762C3.99204 7.80767 4.70969 7.5 5.5 7.5H5.53613C5.70085 6.34366 6.42863 5.37206 7.43359 4.86914C7.19913 3.8014 6.40044 2.94377 5.36816 2.62988Z" fill="currentColor"/>
<path fill-rule="evenodd" clip-rule="evenodd" d="M11 9.5C11.8284 9.5 12.5 10.1716 12.5 11C12.5 11.8284 11.8284 12.5 11 12.5C10.1716 12.5 9.5 11.8284 9.5 11C9.5 10.1716 10.1716 9.5 11 9.5ZM11 10.5C10.7239 10.5 10.5 10.7239 10.5 11C10.5 11.2761 10.7239 11.5 11 11.5C11.2761 11.5 11.5 11.2761 11.5 11C11.5 10.7239 11.2761 10.5 11 10.5Z" fill="currentColor"/>
</svg>
