<svg width="16" height="16" viewBox="0 0 16 16" fill="none" xmlns="http://www.w3.org/2000/svg">
<path d="M9 11.5C9.82614 11.5 10.5 12.1739 10.5 13C10.5 13.8261 9.82614 14.5 9 14.5C8.72386 14.5 8.5 14.2761 8.5 14C8.5 13.7583 8.67145 13.5563 8.89941 13.5098L9.10059 13.4902C9.32716 13.4431 9.5 13.2395 9.5 13C9.5 12.7261 9.27386 12.5 9 12.5H6C5.72386 12.5 5.5 12.2761 5.5 12C5.5 11.7239 5.72386 11.5 6 11.5H9Z" fill="currentColor"/>
<path d="M8.5 2.5C10.3688 2.5 11.9282 3.78988 12.3633 5.51758C14.1281 5.69869 15.5 7.18651 15.5 9C15.5 10.9361 13.9361 12.5 12 12.5C11.7239 12.5 11.5 12.2761 11.5 12C11.5 11.7239 11.7239 11.5 12 11.5C13.3839 11.5 14.5 10.3839 14.5 9C14.5 7.61614 13.3839 6.5 12 6.5H11.9502C11.7012 6.5 11.4901 6.31681 11.4551 6.07031C11.2493 4.62107 10.0052 3.5 8.5 3.5C6.99475 3.5 5.75073 4.62107 5.54492 6.07031C5.5099 6.31681 5.29878 6.5 5.0498 6.5H4C2.61614 6.5 1.5 7.61614 1.5 9C1.5 10.3839 2.61614 11.5 4 11.5C4.27614 11.5 4.5 11.7239 4.5 12C4.5 12.2761 4.27614 12.5 4 12.5C2.06386 12.5 0.5 10.9361 0.5 9C0.5 7.06386 2.06386 5.5 4 5.5H4.6416C5.0828 3.78119 6.63756 2.5 8.5 2.5Z" fill="currentColor"/>
<path d="M12 7.5C12.8261 7.5 13.5 8.17386 13.5 9C13.5 9.82614 12.8261 10.5 12 10.5H5C4.72386 10.5 4.5 10.2761 4.5 10C4.5 9.72386 4.72386 9.5 5 9.5H12C12.2739 9.5 12.5 9.27386 12.5 9C12.5 8.7605 12.3272 8.55693 12.1006 8.50977L11.8994 8.49023C11.6714 8.44371 11.5 8.24171 11.5 8C11.5 7.72386 11.7239 7.5 12 7.5Z" fill="currentColor"/>
</svg>
