<svg width="16" height="16" viewBox="0 0 16 16" fill="none" xmlns="http://www.w3.org/2000/svg">
<path d="M6 10.5C6.27614 10.5 6.5 10.7239 6.5 11V11.6348L7.05078 11.3174C7.28991 11.1796 7.59544 11.2609 7.7334 11.5C7.87129 11.7391 7.78884 12.0446 7.5498 12.1826L7 12.499L7.5498 12.8174C7.78884 12.9554 7.87129 13.2609 7.7334 13.5C7.59544 13.7391 7.28991 13.8204 7.05078 13.6826L6.5 13.3643V14C6.5 14.2761 6.27614 14.5 6 14.5C5.72386 14.5 5.5 14.2761 5.5 14V13.3652L4.9502 13.6826C4.71114 13.8205 4.40568 13.7389 4.26758 13.5C4.12964 13.2609 4.21124 12.9555 4.4502 12.8174L5 12.499L4.4502 12.1826C4.21124 12.0445 4.12964 11.7391 4.26758 11.5C4.40568 11.2611 4.71114 11.1795 4.9502 11.3174L5.5 11.6338V11C5.5 10.7239 5.72386 10.5 6 10.5Z" fill="currentColor"/>
<path d="M8.5 2.5C10.3688 2.5 11.9282 3.78988 12.3633 5.51758C14.1281 5.69869 15.5 7.18651 15.5 9C15.5 10.9361 13.9361 12.5 12 12.5C11.7239 12.5 11.5 12.2761 11.5 12C11.5 11.7239 11.7239 11.5 12 11.5C13.3839 11.5 14.5 10.3839 14.5 9C14.5 7.61614 13.3839 6.5 12 6.5H11.9502C11.7012 6.5 11.4901 6.31681 11.4551 6.07031C11.2493 4.62107 10.0052 3.5 8.5 3.5C6.99475 3.5 5.75073 4.62107 5.54492 6.07031C5.5099 6.31681 5.29878 6.5 5.0498 6.5H4C2.61614 6.5 1.5 7.61614 1.5 9C1.5 10.0926 2.19094 11.017 3.16504 11.3584C3.42559 11.4497 3.5629 11.7346 3.47168 11.9951C3.38039 12.2556 3.0955 12.3929 2.83496 12.3018C1.46917 11.8231 0.5 10.5273 0.5 9C0.5 7.06386 2.06386 5.5 4 5.5H4.6416C5.0828 3.78119 6.63756 2.5 8.5 2.5Z" fill="currentColor"/>
<path d="M10 7.5C10.2761 7.5 10.5 7.72386 10.5 8V8.63477L11.0508 8.31738C11.2899 8.17962 11.5954 8.26094 11.7334 8.5C11.8713 8.73912 11.7888 9.04459 11.5498 9.18262L11 9.49902L11.5498 9.81738C11.7888 9.9554 11.8713 10.2609 11.7334 10.5C11.5954 10.7391 11.2899 10.8204 11.0508 10.6826L10.5 10.3643V11C10.5 11.2761 10.2761 11.5 10 11.5C9.72386 11.5 9.5 11.2761 9.5 11V10.3652L8.9502 10.6826C8.71114 10.8205 8.40568 10.7389 8.26758 10.5C8.12964 10.2609 8.21124 9.95546 8.4502 9.81738L9 9.49902L8.4502 9.18262C8.21124 9.04454 8.12964 8.73909 8.26758 8.5C8.40568 8.26112 8.71114 8.17946 8.9502 8.31738L9.5 8.63379V8C9.5 7.72386 9.72386 7.5 10 7.5Z" fill="currentColor"/>
</svg>
