<svg width="16" height="16" viewBox="0 0 16 16" fill="none" xmlns="http://www.w3.org/2000/svg">
<path d="M5.55273 14.2764C5.67623 14.0294 5.97664 13.9292 6.22363 14.0527C6.47062 14.1762 6.57076 14.4766 6.44727 14.7236L6.19727 15.2236C6.07377 15.4706 5.77336 15.5708 5.52637 15.4473C5.27938 15.3238 5.17924 15.0234 5.30273 14.7764L5.55273 14.2764Z" fill="black"/>
<path d="M7.55273 14.2764C7.67623 14.0294 7.97664 13.9292 8.22363 14.0527C8.47062 14.1762 8.57076 14.4766 8.44727 14.7236L8.19727 15.2236C8.07377 15.4706 7.77336 15.5708 7.52637 15.4473C7.27938 15.3238 7.17924 15.0234 7.30273 14.7764L7.55273 14.2764Z" fill="black"/>
<path d="M9.55273 14.2764C9.67623 14.0294 9.97664 13.9292 10.2236 14.0527C10.4706 14.1762 10.5708 14.4766 10.4473 14.7236L10.1973 15.2236C10.0738 15.4706 9.77336 15.5708 9.52637 15.4473C9.27938 15.3238 9.17924 15.0234 9.30273 14.7764L9.55273 14.2764Z" fill="black"/>
<path fill-rule="evenodd" clip-rule="evenodd" d="M4.5 1.5C6.37964 1.5 7.95597 2.80476 8.3877 4.55371C8.58648 4.51877 8.79102 4.5 9 4.5C10.7663 4.5 12.2219 5.80165 12.4639 7.5H12.5C14.1561 7.5 15.5 8.84386 15.5 10.5C15.5 12.1561 14.1561 13.5 12.5 13.5C12.2239 13.5 12 13.2761 12 13C12 12.7239 12.2239 12.5 12.5 12.5C13.6039 12.5 14.5 11.6039 14.5 10.5C14.5 9.39614 13.6039 8.5 12.5 8.5H12C11.7239 8.5 11.5 8.27614 11.5 8C11.5 6.61614 10.3839 5.5 9 5.5C8.7115 5.5 8.43527 5.55032 8.17773 5.63965C8.15918 5.64723 8.14076 5.6548 8.12109 5.66016C7.17306 6.01501 6.5 6.92593 6.5 8C6.5 8.27614 6.27614 8.5 6 8.5H5.5C4.39614 8.5 3.5 9.39614 3.5 10.5C3.5 11.6039 4.39614 12.5 5.5 12.5C5.77614 12.5 6 12.7239 6 13C6 13.2761 5.77614 13.5 5.5 13.5C3.84386 13.5 2.5 12.1561 2.5 10.5C2.5 10.0066 2.62072 9.54157 2.83203 9.13086C1.46205 8.4976 0.5 7.11354 0.5 5.5C0.5 5.3103 0.607525 5.13727 0.777344 5.05273C0.947214 4.96821 1.15041 4.98713 1.30176 5.10156C1.62712 5.34746 2.05176 5.5 2.5 5.5C3.60386 5.5 4.5 4.60386 4.5 3.5C4.5 3.05176 4.34746 2.62712 4.10156 2.30176C3.98713 2.15041 3.96821 1.94721 4.05273 1.77734C4.13727 1.60752 4.3103 1.5 4.5 1.5ZM5.36816 2.62988C5.45202 2.90665 5.5 3.19932 5.5 3.5C5.5 5.15614 4.15614 6.5 2.5 6.5C2.19964 6.5 1.90736 6.45185 1.63086 6.36816C1.90367 7.26306 2.58533 7.98094 3.45605 8.30762C3.99204 7.80767 4.70969 7.5 5.5 7.5H5.53613C5.70085 6.34366 6.42863 5.37206 7.43359 4.86914C7.19913 3.8014 6.40045 2.94377 5.36816 2.62988Z" fill="black"/>
<path d="M6.55273 12.2764C6.67623 12.0294 6.97664 11.9292 7.22363 12.0527C7.47062 12.1762 7.57076 12.4766 7.44727 12.7236L7.19727 13.2236C7.07377 13.4706 6.77336 13.5708 6.52637 13.4473C6.27938 13.3238 6.17924 13.0234 6.30273 12.7764L6.55273 12.2764Z" fill="black"/>
<path d="M8.55273 12.2764C8.67623 12.0294 8.97664 11.9292 9.22363 12.0527C9.47062 12.1762 9.57076 12.4766 9.44727 12.7236L9.19727 13.2236C9.07377 13.4706 8.77336 13.5708 8.52637 13.4473C8.27938 13.3238 8.17924 13.0234 8.30273 12.7764L8.55273 12.2764Z" fill="black"/>
<path d="M10.5527 12.2764C10.6762 12.0294 10.9766 11.9292 11.2236 12.0527C11.4706 12.1762 11.5708 12.4766 11.4473 12.7236L11.1973 13.2236C11.0738 13.4706 10.7734 13.5708 10.5264 13.4473C10.2794 13.3238 10.1792 13.0234 10.3027 12.7764L10.5527 12.2764Z" fill="black"/>
<path d="M7.55273 10.2764C7.67623 10.0294 7.97664 9.92924 8.22363 10.0527C8.47062 10.1762 8.57076 10.4766 8.44727 10.7236L8.19727 11.2236C8.07377 11.4706 7.77336 11.5708 7.52637 11.4473C7.27938 11.3238 7.17924 11.0234 7.30273 10.7764L7.55273 10.2764Z" fill="black"/>
<path d="M9.55273 10.2764C9.67623 10.0294 9.97664 9.92924 10.2236 10.0527C10.4706 10.1762 10.5708 10.4766 10.4473 10.7236L10.1973 11.2236C10.0738 11.4706 9.77336 11.5708 9.52637 11.4473C9.27938 11.3238 9.17924 11.0234 9.30273 10.7764L9.55273 10.2764Z" fill="black"/>
<path d="M11.5527 10.2764C11.6762 10.0294 11.9766 9.92924 12.2236 10.0527C12.4706 10.1762 12.5708 10.4766 12.4473 10.7236L12.1973 11.2236C12.0738 11.4706 11.7734 11.5708 11.5264 11.4473C11.2794 11.3238 11.1792 11.0234 11.3027 10.7764L11.5527 10.2764Z" fill="black"/>
</svg>
