<svg width="16" height="16" viewBox="0 0 16 16" fill="none" xmlns="http://www.w3.org/2000/svg">
<path fill-rule="evenodd" clip-rule="evenodd" d="M11.7393 7.49121C13.832 7.61632 15.5098 9.26471 15.5098 11.4805C15.5095 13.7027 13.6394 15.4901 11.5 15.4902C9.36083 15.4901 7.63635 13.8188 7.51074 11.7197C7.49882 11.5179 7.6101 11.3285 7.79199 11.2402C7.97411 11.1521 8.19172 11.1828 8.34277 11.3174C8.71964 11.6531 9.20421 11.8603 9.74023 11.8604C10.9137 11.8601 11.8698 10.9039 11.8701 9.73047C11.8701 9.20318 11.6614 8.70918 11.3262 8.33301C11.15 8.13527 11.1596 7.83385 11.3467 7.64648L11.3564 7.63672L11.4385 7.57031C11.527 7.51314 11.6323 7.48494 11.7393 7.49121ZM12.6934 8.72266C12.8047 9.03886 12.8701 9.3777 12.8701 9.73047C12.8698 11.4562 11.466 12.8601 9.74023 12.8604C9.39476 12.8603 9.06605 12.7987 8.75977 12.6943C9.22331 13.7522 10.2708 14.4901 11.5 14.4902C13.1001 14.4901 14.5095 13.1376 14.5098 11.4805C14.5098 10.1929 13.7651 9.1663 12.6934 8.72266Z" fill="black"/>
<path d="M6 9.5C6.27614 9.5 6.5 9.72386 6.5 10V10.5C6.5 10.7761 6.27614 11 6 11C5.72386 11 5.5 10.7761 5.5 10.5V10C5.5 9.72386 5.72386 9.5 6 9.5Z" fill="black"/>
<path d="M2.82227 8.47168C3.02028 8.27948 3.3369 8.28354 3.5293 8.48145C3.72128 8.6793 3.71692 8.99606 3.51953 9.18848L3.15918 9.53809C2.96127 9.73048 2.64466 9.72604 2.45215 9.52832C2.25974 9.33032 2.26394 9.01375 2.46191 8.82129L2.82227 8.47168Z" fill="black"/>
<path d="M8.46191 8.48145C8.65442 8.28364 8.97101 8.27926 9.16895 8.47168L9.5293 8.82129C9.72692 9.01369 9.73112 9.33039 9.53906 9.52832C9.34663 9.72627 9.03004 9.73042 8.83203 9.53809L8.47168 9.18848C8.27379 8.99598 8.26946 8.67941 8.46191 8.48145Z" fill="black"/>
<path fill-rule="evenodd" clip-rule="evenodd" d="M6 3C7.65685 3 9 4.34315 9 6C9 7.65685 7.65685 9 6 9C4.34315 9 3 7.65685 3 6C3 4.34315 4.34315 3 6 3ZM6 4C4.89543 4 4 4.89543 4 6C4 7.10457 4.89543 8 6 8C7.10457 8 8 7.10457 8 6C8 4.89543 7.10457 4 6 4Z" fill="black"/>
<path d="M2 5.5C2.27614 5.5 2.5 5.72386 2.5 6C2.5 6.27614 2.27614 6.5 2 6.5H1.5C1.22386 6.5 1 6.27614 1 6C1 5.72386 1.22386 5.5 1.5 5.5H2Z" fill="black"/>
<path d="M10.5 5.5C10.7761 5.5 11 5.72386 11 6C11 6.27614 10.7761 6.5 10.5 6.5H10C9.72386 6.5 9.5 6.27614 9.5 6C9.5 5.72386 9.72386 5.5 10 5.5H10.5Z" fill="black"/>
<path d="M2.45215 2.47168C2.64465 2.27387 2.96125 2.26949 3.15918 2.46191L3.51953 2.81152C3.71692 3.00395 3.72128 3.3207 3.5293 3.51855C3.33694 3.71642 3.02029 3.72041 2.82227 3.52832L2.46191 3.17871C2.26402 2.98621 2.2597 2.66964 2.45215 2.47168Z" fill="black"/>
<path d="M8.83203 2.46191C9.03004 2.2695 9.3466 2.2737 9.53906 2.47168C9.73111 2.66961 9.72689 2.98631 9.5293 3.17871L9.16895 3.52832C8.97104 3.72068 8.65442 3.71626 8.46191 3.51855C8.26952 3.32056 8.27374 3.00399 8.47168 2.81152L8.83203 2.46191Z" fill="black"/>
<path d="M6 1C6.27614 1 6.5 1.22386 6.5 1.5V2C6.5 2.27614 6.27614 2.5 6 2.5C5.72386 2.5 5.5 2.27614 5.5 2V1.5C5.5 1.22386 5.72386 1 6 1Z" fill="black"/>
</svg>
