<svg width="16" height="16" viewBox="0 0 16 16" fill="none" xmlns="http://www.w3.org/2000/svg">
<path fill-rule="evenodd" clip-rule="evenodd" d="M8 1.5C8.27614 1.5 8.5 1.72386 8.5 2V2.52051C11.8531 2.77641 14.5 5.58212 14.5 9C14.5 9.27614 14.2761 9.5 14 9.5H8.5V13C8.5 13.8261 7.82614 14.5 7 14.5C6.17386 14.5 5.5 13.8261 5.5 13C5.5 12.7239 5.72386 12.5 6 12.5C6.24171 12.5 6.44371 12.6714 6.49023 12.8994L6.50977 13.1006C6.55693 13.3272 6.7605 13.5 7 13.5C7.27386 13.5 7.5 13.2739 7.5 13V9.5H2C1.72386 9.5 1.5 9.27614 1.5 9C1.5 5.58212 4.14695 2.77641 7.5 2.52051V2C7.5 1.72386 7.72386 1.5 8 1.5ZM6.27148 3.77832C4.2346 4.45395 2.72334 6.2898 2.52344 8.5H5.20996C5.25573 6.99531 5.50453 5.62306 5.90137 4.58105C6.01132 4.2924 6.13391 4.02186 6.27148 3.77832ZM7.9873 3.5C7.86058 3.50091 7.68426 3.56682 7.46777 3.80664C7.24954 4.04851 7.03008 4.42686 6.83594 4.93652C6.48946 5.84616 6.25455 7.09328 6.20898 8.5H9.77051C9.72495 7.09333 9.49099 5.84615 9.14453 4.93652C8.95041 4.42689 8.73092 4.04853 8.5127 3.80664C8.29533 3.56579 8.11807 3.50044 7.99121 3.5H7.9873ZM9.70215 3.77051C9.84169 4.01632 9.96784 4.28896 10.0791 4.58105C10.4759 5.62305 10.7247 6.99535 10.7705 8.5H13.4766C13.2758 6.28036 11.7522 4.43905 9.70215 3.77051Z" fill="currentColor"/>
</svg>
