<svg width="16" height="16" viewBox="0 0 16 16" fill="none" xmlns="http://www.w3.org/2000/svg">
<path d="M3 9.5C3.27614 9.5 3.5 9.72386 3.5 10C3.5 10.2761 3.27614 10.5 3 10.5H2C1.72386 10.5 1.5 10.2761 1.5 10C1.5 9.72386 1.72386 9.5 2 9.5H3Z" fill="black"/>
<path fill-rule="evenodd" clip-rule="evenodd" d="M8 6.5C9.93614 6.5 11.5 8.06386 11.5 10C11.5 10.2761 11.2761 10.5 11 10.5H5C4.72386 10.5 4.5 10.2761 4.5 10C4.5 8.06386 6.06386 6.5 8 6.5ZM8 7.5C6.78746 7.5 5.78055 8.35693 5.5498 9.5H10.4502C10.2195 8.35693 9.21254 7.5 8 7.5Z" fill="black"/>
<path d="M14 9.5C14.2761 9.5 14.5 9.72386 14.5 10C14.5 10.2761 14.2761 10.5 14 10.5H13C12.7239 10.5 12.5 10.2761 12.5 10C12.5 9.72386 12.7239 9.5 13 9.5H14Z" fill="black"/>
<path d="M3.39355 5.40918C3.58726 5.21285 3.90395 5.21004 4.10059 5.40332L4.81152 6.10352C5.00788 6.29726 5.0098 6.61392 4.81641 6.81055C4.62254 7.00718 4.30602 7.00929 4.10938 6.81543L3.39941 6.11621C3.20304 5.92247 3.20015 5.60581 3.39355 5.40918Z" fill="black"/>
<path d="M11.8896 5.40332C12.0863 5.21009 12.403 5.21276 12.5967 5.40918C12.79 5.60575 12.788 5.92245 12.5918 6.11621L11.8809 6.81543C11.6842 7.00927 11.3677 7.00717 11.1738 6.81055C10.9803 6.61388 10.9832 6.29728 11.1797 6.10352L11.8896 5.40332Z" fill="black"/>
<path d="M8 3.5C8.27614 3.5 8.5 3.72386 8.5 4V5C8.5 5.27614 8.27614 5.5 8 5.5C7.72386 5.5 7.5 5.27614 7.5 5V4C7.5 3.72386 7.72386 3.5 8 3.5Z" fill="black"/>
</svg>
