<svg width="16" height="16" viewBox="0 0 16 16" fill="none" xmlns="http://www.w3.org/2000/svg">
<path d="M9.62402 0.67089C9.77119 0.502758 10.0119 0.452302 10.2139 0.547843C10.4159 0.643424 10.5298 0.861607 10.4932 1.08202L9.58984 6.49999H13C13.196 6.49999 13.3739 6.61456 13.4551 6.79296C13.5361 6.97162 13.5052 7.18145 13.376 7.32909L6.37598 15.3291C6.22881 15.4972 5.98812 15.5477 5.78613 15.4521C5.58415 15.3566 5.47017 15.1384 5.50684 14.918L6.41016 9.49999H3C2.80397 9.49999 2.62608 9.38543 2.54492 9.20702C2.46385 9.02837 2.49483 8.81854 2.62402 8.67089L9.62402 0.67089ZM4.10156 8.49999H7C7.14698 8.49999 7.28683 8.5646 7.38184 8.67675C7.47673 8.78884 7.51726 8.93715 7.49316 9.08202L6.78223 13.3467L11.8984 7.49999H9C8.85302 7.49999 8.71317 7.43538 8.61816 7.32323C8.52328 7.21114 8.48274 7.06283 8.50684 6.91796L9.2168 2.65234L4.10156 8.49999Z" fill="black"/>
</svg>
