<svg width="16" height="16" viewBox="0 0 16 16" fill="none" xmlns="http://www.w3.org/2000/svg">
<path d="M12 13.4997C12.2761 13.4997 12.4999 13.7237 12.5 13.9997C12.5 14.2759 12.2761 14.4997 12 14.4997H4C3.72386 14.4997 3.5 14.2759 3.5 13.9997C3.50014 13.7237 3.72395 13.4997 4 13.4997H12Z" fill="black"/>
<path d="M6 11.4997C6.27605 11.4997 6.49986 11.7237 6.5 11.9997C6.5 12.2759 6.27614 12.4997 6 12.4997H3C2.72386 12.4997 2.5 12.2759 2.5 11.9997C2.50014 11.7237 2.72395 11.4997 3 11.4997H6Z" fill="black"/>
<path d="M13 11.4997C13.2761 11.4997 13.4999 11.7237 13.5 11.9997C13.5 12.2759 13.2761 12.4997 13 12.4997H8C7.72386 12.4997 7.5 12.2759 7.5 11.9997C7.50014 11.7237 7.72395 11.4997 8 11.4997H13Z" fill="black"/>
<path d="M9 9.49974C9.27605 9.49974 9.49986 9.72372 9.5 9.99974C9.5 10.2759 9.27614 10.4997 9 10.4997H2C1.72386 10.4997 1.5 10.2759 1.5 9.99974C1.50014 9.72372 1.72395 9.49974 2 9.49974H9Z" fill="black"/>
<path d="M14 9.49974C14.2761 9.49974 14.4999 9.72372 14.5 9.99974C14.5 10.2759 14.2761 10.4997 14 10.4997H11C10.7239 10.4997 10.5 10.2759 10.5 9.99974C10.5001 9.72372 10.7239 9.49974 11 9.49974H14Z" fill="black"/>
<path fill-rule="evenodd" clip-rule="evenodd" d="M8.30371 1.52025C10.0844 1.67766 11.4901 3.10601 11.4902 4.99974C11.4902 6.94214 9.84994 8.50923 7.98047 8.50951C6.1097 8.50951 4.6076 7.04781 4.49121 5.21166C4.47856 5.01022 4.58845 4.82036 4.76953 4.73119C4.95056 4.64227 5.1675 4.67066 5.31934 4.80346C5.63643 5.08091 6.04211 5.24974 6.48047 5.24974C7.45403 5.24948 8.24011 4.46356 8.24023 3.48998C8.24018 3.07601 8.09473 2.707 7.85254 2.40209C7.78259 2.34724 7.72642 2.2747 7.69336 2.18822C7.62323 2.00412 7.66733 1.7953 7.80664 1.65599L7.81641 1.64623C7.91415 1.54862 8.04846 1.49524 8.18652 1.49974C8.22652 1.50111 8.26582 1.5097 8.30371 1.52025ZM9.14355 2.77806C9.2047 3.00311 9.24021 3.24109 9.24023 3.48998C9.24011 5.01586 8.0063 6.24948 6.48047 6.24974C6.23284 6.24974 5.99383 6.2134 5.7666 6.15111C6.18176 6.95973 7.01384 7.50951 7.98047 7.50951C9.31059 7.50923 10.4902 6.37701 10.4902 4.99974C10.4901 3.99602 9.94639 3.18075 9.14355 2.77806Z" fill="black"/>
</svg>
