<svg width="16" height="16" viewBox="0 0 16 16" fill="none" xmlns="http://www.w3.org/2000/svg">
<path fill-rule="evenodd" clip-rule="evenodd" d="M5 5.5C5.17041 5.50003 5.329 5.58698 5.4209 5.73047L5.42285 5.73242C5.42373 5.7338 5.42506 5.7366 5.42676 5.73926C5.43017 5.7446 5.43495 5.75258 5.44141 5.7627C5.45471 5.78353 5.47494 5.81421 5.5 5.85352C5.55012 5.93212 5.62174 6.04572 5.70996 6.18457C5.8866 6.46259 6.12815 6.84355 6.38672 7.25488C6.9013 8.07347 7.49367 9.02659 7.77539 9.52344C8.06002 10.0098 8.16988 10.5813 8.16992 11.1396C8.16992 12.9635 6.77733 14.5 5 14.5C3.22267 14.5 1.83008 12.9635 1.83008 11.1396C1.83013 10.5784 1.95552 10.0134 2.22168 9.5293L2.22461 9.52344C2.50637 9.02654 3.09876 8.07338 3.61328 7.25488C3.87187 6.84352 4.11339 6.4626 4.29004 6.18457C4.37825 6.04572 4.44988 5.93213 4.5 5.85352C4.52506 5.81421 4.5453 5.78352 4.55859 5.7627C4.56505 5.75258 4.56982 5.74461 4.57324 5.73926C4.57495 5.73658 4.57628 5.73379 4.57715 5.73242L4.5791 5.73047C4.671 5.58696 4.82958 5.50003 5 5.5ZM4.45996 7.78711C3.94435 8.60734 3.36748 9.53467 3.09766 10.0098L3.09863 10.0107C2.92502 10.3264 2.83013 10.7213 2.83008 11.1396C2.83008 12.4758 3.8374 13.5 5 13.5C6.1626 13.5 7.16992 12.4758 7.16992 11.1396C7.16987 10.7011 7.08123 10.3163 6.90918 10.0244L6.90527 10.0166C6.637 9.54346 6.05795 8.611 5.54004 7.78711C5.34291 7.47352 5.15589 7.17749 5 6.93164C4.8441 7.17749 4.65709 7.47352 4.45996 7.78711Z" fill="black"/>
<path fill-rule="evenodd" clip-rule="evenodd" d="M12 5.49023C12.1707 5.49023 12.33 5.57775 12.4219 5.72168L12.4229 5.72266C12.4235 5.72371 12.4246 5.72563 12.4258 5.72754C12.4283 5.73153 12.4318 5.73767 12.4365 5.74512C12.4465 5.76077 12.4618 5.78406 12.4805 5.81348C12.518 5.87252 12.5716 5.95826 12.6377 6.0625C12.77 6.27124 12.9509 6.55732 13.1445 6.86621C13.5282 7.47842 13.972 8.1951 14.1846 8.57324C14.4051 8.96248 14.5 9.41206 14.5 9.85059C14.4997 11.283 13.4083 12.5 12 12.5C10.5903 12.5 9.5003 11.2714 9.5 9.85059C9.5 9.41206 9.59491 8.96248 9.81543 8.57324C10.028 8.1951 10.4718 7.47842 10.8555 6.86621C11.0491 6.55732 11.23 6.27124 11.3623 6.0625C11.4284 5.95826 11.482 5.87252 11.5195 5.81348C11.5382 5.78406 11.5535 5.76077 11.5635 5.74512C11.5682 5.73767 11.5717 5.73153 11.5742 5.72754C11.5754 5.72563 11.5765 5.72371 11.5771 5.72266L11.5781 5.72168C11.67 5.57775 11.8293 5.49023 12 5.49023ZM11.7021 7.39746C11.3142 8.01636 10.8834 8.71314 10.6855 9.06543L10.6846 9.06641C10.5652 9.2771 10.5 9.54927 10.5 9.85059C10.5003 10.7892 11.2101 11.5 12 11.5C12.7913 11.5 13.4997 10.7976 13.5 9.85059C13.5 9.54927 13.4348 9.2771 13.3154 9.06641L13.3145 9.06543C13.1166 8.71314 12.6858 8.01636 12.2979 7.39746C12.193 7.23017 12.0916 7.06895 12 6.92383C11.9084 7.06895 11.807 7.23017 11.7021 7.39746Z" fill="black"/>
<path fill-rule="evenodd" clip-rule="evenodd" d="M8.66992 0.5C8.8403 0.500053 8.99893 0.586998 9.09082 0.730469L9.0918 0.731445C9.09229 0.73222 9.09284 0.733892 9.09375 0.735352C9.09589 0.738704 9.09937 0.744494 9.10352 0.750977C9.11184 0.764004 9.12407 0.783203 9.13965 0.807617C9.17104 0.856795 9.21623 0.927778 9.27148 1.01465C9.38205 1.18849 9.53357 1.42656 9.69531 1.68359C9.85573 1.93851 10.0294 2.21551 10.1846 2.46777L10.5645 3.10352L10.5664 3.10547C10.7316 3.40049 10.803 3.7298 10.8213 4.05078C10.8382 4.10101 10.8496 4.15402 10.8496 4.20996C10.8496 5.44359 9.90726 6.5 8.67969 6.5C7.45227 6.49982 6.50977 5.44348 6.50977 4.20996C6.50977 3.83999 6.58077 3.44957 6.77344 3.10547L6.77441 3.10352C6.95124 2.79147 7.32378 2.19331 7.64453 1.68359C7.80617 1.42673 7.95684 1.18845 8.06738 1.01465C8.12254 0.927925 8.16782 0.856817 8.19922 0.807617C8.21467 0.783405 8.22702 0.764013 8.23535 0.750977C8.23948 0.744518 8.24296 0.738735 8.24512 0.735352C8.24612 0.733784 8.24747 0.732302 8.24805 0.731445C8.33991 0.58791 8.49952 0.500078 8.66992 0.5ZM8.49023 2.21582C8.16691 2.72963 7.80929 3.30503 7.64551 3.59375C7.55826 3.7496 7.50977 3.96005 7.50977 4.20996C7.50977 4.95621 8.06738 5.49982 8.67969 5.5C9.2601 5.5 9.78981 5.01158 9.84375 4.3252C9.83501 4.28818 9.83008 4.24964 9.83008 4.20996C9.83007 3.96115 9.78086 3.75231 9.69434 3.59668L9.33203 2.99121C9.18162 2.7467 9.01063 2.47326 8.84863 2.21582C8.78688 2.11769 8.7259 2.02268 8.66895 1.93262C8.61207 2.02255 8.55188 2.11786 8.49023 2.21582Z" fill="black"/>
</svg>
