<svg width="16" height="16" viewBox="0 0 16 16" fill="none" xmlns="http://www.w3.org/2000/svg">
<path fill-rule="evenodd" clip-rule="evenodd" d="M8 3.5C12.1461 3.5 15.5 6.85386 15.5 11C15.5 11.2761 15.2761 11.5 15 11.5H9C8.75829 11.5 8.55629 11.3286 8.50977 11.1006L8.49023 10.8994C8.44307 10.6728 8.2395 10.5 8 10.5C7.7605 10.5 7.55693 10.6728 7.50977 10.8994L7.49023 11.1006C7.44371 11.3286 7.24171 11.5 7 11.5H1C0.723858 11.5 0.5 11.2761 0.5 11C0.5 6.85386 3.85386 3.5 8 3.5ZM8 4.5C4.57443 4.5 1.7753 7.14046 1.52051 10.5H2.52344C2.77633 7.69795 5.13243 5.5 8 5.5C10.8676 5.5 13.2237 7.69795 13.4766 10.5H14.4795C14.2247 7.14046 11.4256 4.5 8 4.5ZM8 8.5C6.78746 8.5 5.78055 9.35693 5.5498 10.5H6.58789C6.79476 9.91872 7.34926 9.5 8 9.5C8.65074 9.5 9.20524 9.91872 9.41211 10.5H10.4502C10.2195 9.35693 9.21255 8.5 8 8.5ZM8 6.5C5.68517 6.5 3.77736 8.25117 3.52832 10.5H4.53613C4.77807 8.80165 6.2337 7.5 8 7.5C9.7663 7.5 11.2219 8.80165 11.4639 10.5H12.4717C12.2226 8.25117 10.3148 6.5 8 6.5Z" fill="currentColor"/>
</svg>
