<svg width="16" height="16" viewBox="0 0 16 16" fill="none" xmlns="http://www.w3.org/2000/svg">
<path fill-rule="evenodd" clip-rule="evenodd" d="M8 1.5C8.27614 1.5 8.5 1.72386 8.5 2V3.80957L10.7578 2.5625C10.9127 2.47683 11.1014 2.47945 11.2539 2.56934C11.4064 2.65924 11.5 2.82301 11.5 3V5.40332L12.9502 4.56738C13.1893 4.42943 13.4948 4.51098 13.6328 4.75C13.7708 4.98919 13.6884 5.29462 13.4492 5.43262L11.959 6.29199L14.2422 7.55566C14.4009 7.6436 14.4997 7.81072 14.5 7.99219C14.5002 8.17364 14.4016 8.34127 14.2432 8.42969L11.9561 9.70508L13.4492 10.5674C13.6884 10.7054 13.7708 11.0108 13.6328 11.25C13.4948 11.489 13.1893 11.5706 12.9502 11.4326L11.5 10.5957V13C11.5 13.1773 11.4058 13.3419 11.2529 13.4316C11.1002 13.5211 10.9115 13.5227 10.7568 13.4365L8.5 12.1758V14C8.5 14.2761 8.27614 14.5 8 14.5C7.72386 14.5 7.5 14.2761 7.5 14V12.1758L5.24316 13.4365C5.0885 13.5227 4.89981 13.5211 4.74707 13.4316C4.59416 13.3419 4.5 13.1773 4.5 13V10.5947L3.04981 11.4326C2.81074 11.5704 2.50524 11.4889 2.36719 11.25C2.22934 11.011 2.31098 10.7055 2.54981 10.5674L4.04297 9.70508L1.75684 8.42969C1.59836 8.34127 1.49979 8.17364 1.5 7.99219C1.50033 7.81072 1.5991 7.6436 1.75781 7.55566L4.04004 6.29199L2.54981 5.43262C2.31098 5.29452 2.22934 4.98903 2.36719 4.75C2.50524 4.51109 2.81074 4.42955 3.04981 4.56738L4.5 5.40332V3C4.5 2.82301 4.59363 2.65924 4.74609 2.56934C4.89856 2.47945 5.08732 2.47683 5.24219 2.5625L7.5 3.80957V2C7.5 1.72386 7.72386 1.5 8 1.5ZM5.5 10.0176V12.1484L7.5 11.0322V8.86426L5.5 10.0176ZM8.5 11.0322L10.5 12.1484V10.0186L8.5 8.86523V11.0322ZM3.0293 7.99414L5.05078 9.12305L7 7.99902L5.05176 6.875L3.0293 7.99414ZM9 7.99902L10.9473 9.12305L12.9697 7.99414L10.9473 6.875L9 7.99902ZM5.5 5.98047L7.5 7.13477V4.95312L5.5 3.84766V5.98047ZM8.5 4.95312V7.13379L10.5 5.97949V3.84766L8.5 4.95312Z" fill="black"/>
</svg>
