<svg width="16" height="16" viewBox="0 0 16 16" fill="none" xmlns="http://www.w3.org/2000/svg">
<path fill-rule="evenodd" clip-rule="evenodd" d="M8 1.5C8.27614 1.5 8.5 1.72386 8.5 2V4.79297L9.64648 3.64648C9.84175 3.45122 10.1583 3.45122 10.3535 3.64648C10.5488 3.84175 10.5488 4.15826 10.3535 4.35352L8.70215 6.00488L9.99512 7.29785L11.6465 5.64648C11.8417 5.45122 12.1583 5.45122 12.3535 5.64648C12.5488 5.84175 12.5488 6.15826 12.3535 6.35352L11.207 7.5H14C14.2761 7.5 14.5 7.72386 14.5 8C14.5 8.27614 14.2761 8.5 14 8.5H11.207L12.3535 9.64648C12.5488 9.84175 12.5488 10.1583 12.3535 10.3535C12.1583 10.5488 11.8417 10.5488 11.6465 10.3535L10.001 8.70801L8.70801 10.001L10.3535 11.6465C10.5488 11.8417 10.5488 12.1583 10.3535 12.3535C10.1583 12.5488 9.84175 12.5488 9.64648 12.3535L8.5 11.207V14C8.5 14.2761 8.27614 14.5 8 14.5C7.72386 14.5 7.5 14.2761 7.5 14V11.207L6.35352 12.3535C6.15826 12.5488 5.84175 12.5488 5.64648 12.3535C5.45122 12.1583 5.45122 11.8417 5.64648 11.6465L7.28613 10.0059L5.99316 8.71289L4.35352 10.3535C4.15826 10.5488 3.84175 10.5488 3.64648 10.3535C3.45122 10.1583 3.45122 9.84175 3.64648 9.64648L4.79297 8.5H2C1.72386 8.5 1.5 8.27614 1.5 8C1.5 7.72386 1.72386 7.5 2 7.5H4.79297L3.64648 6.35352C3.45122 6.15825 3.45122 5.84175 3.64648 5.64648C3.84175 5.45122 4.15825 5.45122 4.35352 5.64648L6 7.29297L7.29297 6L5.64648 4.35352C5.45122 4.15825 5.45122 3.84175 5.64648 3.64648C5.84175 3.45122 6.15825 3.45122 6.35352 3.64648L7.5 4.79297V2C7.5 1.72386 7.72386 1.5 8 1.5ZM6.70117 8.00684L7.99512 9.30078L9.29004 8.00684L7.99512 6.71289L6.70117 8.00684Z" fill="black"/>
</svg>
