<svg width="16" height="16" viewBox="0 0 16 16" fill="none" xmlns="http://www.w3.org/2000/svg">
<path fill-rule="evenodd" clip-rule="evenodd" d="M7.99962 1.5C8.27576 1.5 8.49962 1.72386 8.49962 2V3.13281L9.48009 2.56738C9.71914 2.4293 10.0245 2.51097 10.1627 2.75C10.3008 2.98903 10.219 3.29441 9.98009 3.43262L8.49962 4.28809V5.5498C9.03993 5.65939 9.51518 5.94492 9.86778 6.3418L10.9596 5.71289V4C10.9596 3.72399 11.1836 3.50022 11.4596 3.5C11.7357 3.5 11.9596 3.72386 11.9596 4V5.13672L12.9508 4.56641C13.1899 4.42899 13.4956 4.51108 13.6334 4.75C13.7712 4.98921 13.689 5.29568 13.4498 5.43359L12.4654 6L13.4488 6.56641C13.6881 6.70397 13.7708 7.00966 13.6334 7.24902C13.4958 7.4882 13.1901 7.57091 12.9508 7.43359L11.4625 6.57812L10.3697 7.20801C10.4529 7.45708 10.4996 7.72295 10.4996 8C10.4996 8.27673 10.4528 8.5422 10.3697 8.79102L11.4625 9.4209L12.9508 8.56641C13.1901 8.42909 13.4958 8.51179 13.6334 8.75098C13.7708 8.99034 13.6881 9.29603 13.4488 9.43359L12.4645 9.99805L13.4498 10.5664C13.689 10.7043 13.7713 11.0108 13.6334 11.25C13.4956 11.4889 13.1899 11.571 12.9508 11.4336L11.9596 10.8623V12C11.9596 12.2761 11.7357 12.5 11.4596 12.5C11.1836 12.4998 10.9596 12.276 10.9596 12V10.2861L9.86778 9.65723C9.51518 10.0543 9.0401 10.3396 8.49962 10.4492V11.7109L9.98009 12.5674C10.219 12.7056 10.3008 13.011 10.1627 13.25C10.0245 13.489 9.71914 13.5707 9.48009 13.4326L8.49962 12.8652V14C8.49962 14.2761 8.27576 14.5 7.99962 14.5C7.72365 14.4998 7.49962 14.276 7.49962 14V12.8662L6.52013 13.4326C6.28108 13.5708 5.97571 13.489 5.83751 13.25C5.69936 13.0109 5.78107 12.7056 6.02013 12.5674L7.49962 11.7119V10.4492C6.95927 10.3394 6.48394 10.0544 6.13146 9.65723L5.04064 10.2861V12C5.04064 12.2759 4.81647 12.4996 4.54064 12.5C4.26449 12.5 4.04064 12.2761 4.04064 12V10.8623L3.0504 11.4336C2.81124 11.5714 2.50477 11.4891 2.36681 11.25C2.22893 11.0108 2.31121 10.7043 2.5504 10.5664L3.53478 9.99805L2.55138 9.43359C2.312 9.29602 2.22931 8.99038 2.36681 8.75098C2.50443 8.51174 2.81009 8.42895 3.04942 8.56641L4.53673 9.4209L5.6295 8.79102C5.54653 8.54226 5.49962 8.27665 5.49962 8C5.49962 7.72303 5.54635 7.45701 5.6295 7.20801L4.53673 6.57812L3.04942 7.43359C2.81008 7.57105 2.50443 7.48826 2.36681 7.24902C2.22931 7.00962 2.312 6.70398 2.55138 6.56641L3.53478 6L2.5504 5.43359C2.31121 5.29568 2.22893 4.98923 2.36681 4.75C2.50477 4.51094 2.81123 4.42856 3.0504 4.56641L4.04064 5.13672V4C4.04064 3.72386 4.26449 3.5 4.54064 3.5C4.81647 3.50036 5.04064 3.72408 5.04064 4V5.71289L6.13146 6.3418C6.48393 5.9449 6.95944 5.65953 7.49962 5.5498V4.28711L6.02013 3.43262C5.78107 3.29443 5.69936 2.98907 5.83751 2.75C5.97571 2.51099 6.28108 2.42924 6.52013 2.56738L7.49962 3.13281V2C7.49962 1.72398 7.72365 1.5002 7.99962 1.5ZM7.99962 6.5C7.44805 6.50013 6.96713 6.79859 6.70665 7.24219C6.70532 7.24459 6.7051 7.24761 6.70372 7.25C6.70236 7.25236 6.70023 7.2545 6.69884 7.25684C6.57332 7.47612 6.49962 7.72923 6.49962 8C6.49962 8.26934 6.57162 8.52174 6.69591 8.74023C6.69802 8.7437 6.70169 8.74647 6.70372 8.75C6.70495 8.75214 6.70545 8.75469 6.70665 8.75684C6.96703 9.20083 7.44775 9.49987 7.99962 9.5C8.55151 9.5 9.03211 9.20075 9.29259 8.75684C9.29385 8.75456 9.29519 8.75227 9.29649 8.75C9.29862 8.74631 9.30113 8.74287 9.30333 8.73926C9.42747 8.52086 9.49962 8.26917 9.49962 8C9.49962 7.72927 9.42686 7.4761 9.30138 7.25684C9.29995 7.25445 9.29789 7.25242 9.29649 7.25C9.29505 7.24749 9.29399 7.24471 9.29259 7.24219C9.03201 6.79867 8.55121 6.5 7.99962 6.5Z" fill="black"/>
</svg>
