<svg width="16" height="16" viewBox="0 0 16 16" fill="none" xmlns="http://www.w3.org/2000/svg">
<path d="M8 9.5C8.27614 9.5 8.5 9.72386 8.5 10V12.793L9.64648 11.6465C9.84175 11.4512 10.1583 11.4512 10.3535 11.6465C10.5488 11.8417 10.5488 12.1583 10.3535 12.3535L8.35352 14.3535C8.31945 14.3876 8.2804 14.4134 8.24023 14.4355C8.19596 14.46 8.14884 14.4801 8.09766 14.4902C8.0329 14.5031 7.96611 14.5032 7.90137 14.4902C7.85024 14.48 7.80299 14.4601 7.75879 14.4355C7.71891 14.4134 7.68034 14.3874 7.64648 14.3535L5.64648 12.3535C5.45122 12.1583 5.45122 11.8417 5.64648 11.6465C5.84175 11.4512 6.15825 11.4512 6.35352 11.6465L7.5 12.793V10C7.5 9.72386 7.72386 9.5 8 9.5Z" fill="currentColor"/>
<path d="M3 7.5C3.27614 7.5 3.5 7.72386 3.5 8C3.5 8.27614 3.27614 8.5 3 8.5H2C1.72386 8.5 1.5 8.27614 1.5 8C1.5 7.72386 1.72386 7.5 2 7.5H3Z" fill="currentColor"/>
<path fill-rule="evenodd" clip-rule="evenodd" d="M8 4.5C9.93614 4.5 11.5 6.06386 11.5 8C11.5 8.27614 11.2761 8.5 11 8.5H5C4.72386 8.5 4.5 8.27614 4.5 8C4.5 6.06386 6.06386 4.5 8 4.5ZM8 5.5C6.78746 5.5 5.78055 6.35693 5.5498 7.5H10.4502C10.2195 6.35693 9.21254 5.5 8 5.5Z" fill="currentColor"/>
<path d="M14 7.5C14.2761 7.5 14.5 7.72386 14.5 8C14.5 8.27614 14.2761 8.5 14 8.5H13C12.7239 8.5 12.5 8.27614 12.5 8C12.5 7.72386 12.7239 7.5 13 7.5H14Z" fill="currentColor"/>
<path d="M3.39355 3.40918C3.58726 3.21285 3.90395 3.21004 4.10059 3.40332L4.81152 4.10352C5.00788 4.29726 5.0098 4.61392 4.81641 4.81055C4.62254 5.00718 4.30602 5.00929 4.10938 4.81543L3.39941 4.11621C3.20305 3.92247 3.20015 3.60581 3.39355 3.40918Z" fill="currentColor"/>
<path d="M11.8896 3.40332C12.0863 3.21009 12.403 3.21276 12.5967 3.40918C12.79 3.60575 12.788 3.92245 12.5918 4.11621L11.8809 4.81543C11.6842 5.00927 11.3677 5.00717 11.1738 4.81055C10.9803 4.61388 10.9832 4.29728 11.1797 4.10352L11.8896 3.40332Z" fill="currentColor"/>
<path d="M8 1.5C8.27614 1.5 8.5 1.72386 8.5 2V3C8.5 3.27614 8.27614 3.5 8 3.5C7.72386 3.5 7.5 3.27614 7.5 3V2C7.5 1.72386 7.72386 1.5 8 1.5Z" fill="currentColor"/>
</svg>
