<svg width="16" height="16" viewBox="0 0 16 16" fill="none" xmlns="http://www.w3.org/2000/svg">
<path d="M13.5 8C13.5 4.96614 11.0339 2.5 8 2.5C4.96614 2.5 2.5 4.96614 2.5 8C2.5 10.4839 4.51614 12.5 7 12.5C9.48386 12.5 11.5 10.4839 11.5 8C11.5 6.06614 9.93386 4.5 8 4.5C6.06614 4.5 4.5 6.06614 4.5 8C4.5 9.38386 5.61614 10.5 7 10.5C8.38386 10.5 9.5 9.38386 9.5 8C9.5 7.17614 8.82386 6.5 8 6.5C7.17614 6.5 6.5 7.17614 6.5 8C6.5 8.27386 6.72614 8.5 7 8.5C7.2395 8.5 7.44307 8.32716 7.49023 8.10059L7.50977 7.89941C7.55629 7.67145 7.75829 7.5 8 7.5C8.27614 7.5 8.5 7.72386 8.5 8C8.5 8.82614 7.82614 9.5 7 9.5C6.17386 9.5 5.5 8.82614 5.5 8C5.5 6.62386 6.62386 5.5 8 5.5C9.37614 5.5 10.5 6.62386 10.5 8C10.5 9.93614 8.93614 11.5 7 11.5C5.06386 11.5 3.5 9.93614 3.5 8C3.5 5.51386 5.51386 3.5 8 3.5C10.4861 3.5 12.5 5.51386 12.5 8C12.5 11.0361 10.0361 13.5 7 13.5C3.96386 13.5 1.5 11.0361 1.5 8C1.5 4.41386 4.41386 1.5 8 1.5C11.5861 1.5 14.5 4.41386 14.5 8C14.5 12.1461 11.1461 15.5 7 15.5C6.72386 15.5 6.5 15.2761 6.5 15C6.5 14.7239 6.72386 14.5 7 14.5C10.5939 14.5 13.5 11.5939 13.5 8Z" fill="black"/>
</svg>
