<svg width="16" height="16" viewBox="0 0 16 16" fill="none" xmlns="http://www.w3.org/2000/svg">
<path d="M13.4802 8.00976C13.4802 6.59573 12.9475 5.18503 11.866 4.10351L11.865 4.10156C11.2078 3.43835 10.4241 2.98613 9.58862 2.73242C10.7651 4.66135 10.5207 7.21638 8.85327 8.88379C7.17696 10.5599 4.604 10.7975 2.67163 9.59961C2.92507 10.4495 3.38498 11.2475 4.05346 11.916H4.05249C5.13584 12.9898 6.54792 13.5302 7.95971 13.5303C9.37383 13.5303 10.7844 12.9976 11.866 11.916C12.9393 10.8327 13.4802 9.4213 13.4802 8.00976ZM14.4802 8.00976C14.4802 9.67756 13.8406 11.3456 12.5749 12.6221L12.574 12.624C11.2956 13.9024 9.62559 14.5303 7.95971 14.5303C6.29208 14.5302 4.6248 13.8905 3.34839 12.625L3.34643 12.624C2.17615 11.4537 1.54832 9.94707 1.45093 8.41211C1.43724 8.19622 1.56441 7.99508 1.76538 7.91504C1.96608 7.83537 2.19534 7.89381 2.33374 8.05957C2.34388 8.07174 2.35468 8.08397 2.36694 8.09766C2.40467 8.11924 2.44117 8.14454 2.47339 8.17676C4.03806 9.74133 6.58151 9.74125 8.14624 8.17676C9.71095 6.61205 9.71088 4.06865 8.14624 2.50391C8.11531 2.47298 8.07367 2.43725 8.00952 2.38379C7.84374 2.24539 7.78531 2.01614 7.86499 1.81543C7.94497 1.6146 8.14537 1.4875 8.36108 1.50098C9.89334 1.59809 11.4008 2.2144 12.573 3.39648H12.574C13.8522 4.67481 14.4802 6.34408 14.4802 8.00976Z" fill="currentColor"/>
</svg>
