<svg width="16" height="16" viewBox="0 0 16 16" fill="none" xmlns="http://www.w3.org/2000/svg">
<path fill-rule="evenodd" clip-rule="evenodd" d="M8 5.5C9.38071 5.5 10.5 6.61929 10.5 8C10.5 9.38071 9.38071 10.5 8 10.5C6.61929 10.5 5.5 9.38071 5.5 8C5.5 6.61929 6.61929 5.5 8 5.5ZM8 6.5C7.17157 6.5 6.5 7.17157 6.5 8C6.5 8.82843 7.17157 9.5 8 9.5C8.82843 9.5 9.5 8.82843 9.5 8C9.5 7.17157 8.82843 6.5 8 6.5Z" fill="black"/>
<path fill-rule="evenodd" clip-rule="evenodd" d="M8.93555 2.50098C10.1834 2.51213 11.3321 2.88017 12.3232 3.49414C12.5761 3.64634 12.8127 3.82402 13.0293 3.99219C13.0587 4.0083 13.0874 4.02687 13.1133 4.04883C14.5461 5.26618 15.4776 7.07938 15.5 9.08203L15.498 9.36523C15.4792 10.0215 15.3609 10.6547 15.1514 11.2549C15.0811 11.4556 14.8914 11.5901 14.6787 11.5898C14.4661 11.5893 14.2766 11.4539 14.207 11.2529C13.9652 10.5547 13.578 9.91811 13.0859 9.37305C12.1874 11.8198 9.83322 13.5379 7.06543 13.5H7.0625C5.82035 13.4886 4.67735 13.1209 3.68945 12.5117C3.39766 12.3433 3.13441 12.1462 2.90137 11.9639C2.8962 11.9598 2.89075 11.9544 2.88574 11.9502C1.4527 10.7323 0.521669 8.91842 0.5 6.91504L0.500977 6.91406C0.490514 6.15753 0.608494 5.4301 0.847656 4.74512L0.878906 4.67285C0.965071 4.51248 1.13411 4.40903 1.32031 4.40918C1.53302 4.40947 1.72225 4.54518 1.79199 4.74609C2.03362 5.44414 2.4213 6.08001 2.91309 6.625C3.81182 4.17936 6.16593 2.4637 8.93262 2.50098L8.93359 2.5H8.93652L8.93555 2.50098ZM8.92285 3.5C6.33459 3.46353 4.17858 5.24545 3.64844 7.66699C3.61088 7.83798 3.48609 7.97691 3.32031 8.0332C3.15448 8.08942 2.97078 8.05431 2.83691 7.94141C2.3244 7.50904 1.87632 6.99936 1.51172 6.43164C1.50627 6.50817 1.5032 6.58561 1.50098 6.66309L1.5 6.90234V6.9043C1.51833 8.59716 2.30402 10.1406 3.52637 11.1826C3.74989 11.3573 3.96458 11.5167 4.18945 11.6465C4.19386 11.649 4.19879 11.6516 4.20312 11.6543C5.05146 12.1799 6.02295 12.4908 7.07422 12.5H7.07715C9.66537 12.5364 11.8215 10.7545 12.3516 8.33301L12.3691 8.27051C12.4203 8.12846 12.5336 8.01515 12.6787 7.96582C12.8445 7.90953 13.0282 7.94488 13.1621 8.05762C13.6745 8.48981 14.1217 8.99989 14.4863 9.56738C14.4973 9.41257 14.5023 9.25533 14.5 9.09668V9.09473C14.4816 7.41614 13.7078 5.88523 12.5029 4.84375C12.4927 4.83693 12.4814 4.83087 12.4717 4.82324C12.2452 4.64604 12.0248 4.48194 11.8027 4.34863L11.7959 4.34473C10.9478 3.81939 9.97671 3.50923 8.92578 3.5H8.92285Z" fill="black"/>
</svg>
