<svg width="16" height="16" viewBox="0 0 16 16" fill="none" xmlns="http://www.w3.org/2000/svg">
<path d="M12 12C13.66 12 15 10.66 15 9.00001C15 7.34001 13.66 6.00001 12 6.00001C11.98 6.00001 11.97 6.00001 11.95 6.00001C11.71 4.30001 10.26 2.99001 8.5 2.99001C6.74 2.99001 5.19 4.40001 5.03 6.18001C4.71 6.06001 4.36 5.99001 4 5.99001C2.34 5.99001 1 7.33001 1 8.99001C1 10.65 2.34 11.99 4 11.99" stroke="black" stroke-linecap="round" stroke-linejoin="round"/>
<path d="M6 11C6.55228 11 7 10.5523 7 10C7 9.44772 6.55228 9 6 9C5.44772 9 5 9.44772 5 10C5 10.5523 5.44772 11 6 11Z" stroke="black" stroke-miterlimit="10"/>
<path d="M6 15C6.55228 15 7 14.5523 7 14C7 13.4477 6.55228 13 6 13C5.44772 13 5 13.4477 5 14C5 14.5523 5.44772 15 6 15Z" stroke="black" stroke-miterlimit="10"/>
<path d="M10 14C10.5523 14 11 13.5523 11 13C11 12.4477 10.5523 12 10 12C9.44772 12 9 12.4477 9 13C9 13.5523 9.44772 14 10 14Z" stroke="black" stroke-miterlimit="10"/>
<path d="M10 10C10.5523 10 11 9.55228 11 9C11 8.44772 10.5523 8 10 8C9.44772 8 9 8.44772 9 9C9 9.55228 9.44772 10 10 10Z" stroke="black" stroke-miterlimit="10"/>
</svg>
