<svg width="16" height="16" viewBox="0 0 16 16" fill="none" xmlns="http://www.w3.org/2000/svg">
<path d="M7.9938 6.00766L5.99268 8.00879L7.99376 10.0099L9.99488 8.00875L7.9938 6.00766Z" stroke="black" stroke-linecap="round" stroke-linejoin="round"/>
<path d="M8 6V2" stroke="black" stroke-linecap="round" stroke-linejoin="round"/>
<path d="M5.53003 2.53003L8.00003 5L10.46 2.53003" stroke="black" stroke-linecap="round" stroke-linejoin="round"/>
<path d="M10 8H14" stroke="black" stroke-linecap="round" stroke-linejoin="round"/>
<path d="M13.46 5.53003L11 8L13.46 10.47" stroke="black" stroke-linecap="round" stroke-linejoin="round"/>
<path d="M8 10V14" stroke="black" stroke-linecap="round" stroke-linejoin="round"/>
<path d="M10.46 13.47L8.00003 11L5.53003 13.47" stroke="black" stroke-linecap="round" stroke-linejoin="round"/>
<path d="M6 8H2" stroke="black" stroke-linecap="round" stroke-linejoin="round"/>
<path d="M2.53003 10.47L5.00003 8L2.53003 5.53003" stroke="black" stroke-linecap="round" stroke-linejoin="round"/>
<path d="M3.76001 3.77002L7 7" stroke="black" stroke-linecap="round" stroke-linejoin="round"/>
<path d="M12.23 3.77002L9 7" stroke="black" stroke-linecap="round" stroke-linejoin="round"/>
<path d="M12.23 12.23L9 9" stroke="black" stroke-linecap="round" stroke-linejoin="round"/>
<path d="M3.76001 12.23L7 9" stroke="black" stroke-linecap="round" stroke-linejoin="round"/>
</svg>
