<svg width="16" height="16" viewBox="0 0 16 16" fill="none" xmlns="http://www.w3.org/2000/svg">
<path d="M3.78 8.68C3.01 8.25 2.5 7.43 2.5 6.5C2.5 5.12 3.62 4 5 4C6.03 4 6.92 4.63 7.3 5.53" stroke="black" stroke-linecap="round" stroke-linejoin="round"/>
<path d="M5 2.5V2" stroke="black" stroke-linecap="round" stroke-linejoin="round"/>
<path d="M2.43 3.43999L2.11 3.04999" stroke="black" stroke-linecap="round" stroke-linejoin="round"/>
<path d="M1.06 5.81L0.57 5.72" stroke="black" stroke-linecap="round" stroke-linejoin="round"/>
<path d="M1.54 8.5L1.1 8.75" stroke="black" stroke-linecap="round" stroke-linejoin="round"/>
<path d="M7.57001 3.43999L7.89001 3.04999" stroke="black" stroke-linecap="round" stroke-linejoin="round"/>
<path d="M12.5 13C13.88 13 15 11.88 15 10.5C15 9.12 13.88 8 12.5 8H12C12 6.34 10.66 5 9 5C7.34 5 6 6.34 6 8H5.5C4.12 8 3 9.12 3 10.5C3 11.71 3.86 12.72 5 12.95" stroke="black" stroke-linecap="round" stroke-linejoin="round"/>
<path d="M6.75 13L7 12.5" stroke="black" stroke-linecap="round" stroke-linejoin="round"/>
<path d="M5.75 15L6 14.5" stroke="black" stroke-linecap="round" stroke-linejoin="round"/>
<path d="M8.75 13L9 12.5" stroke="black" stroke-linecap="round" stroke-linejoin="round"/>
<path d="M7.75 15L8 14.5" stroke="black" stroke-linecap="round" stroke-linejoin="round"/>
<path d="M10.75 13L11 12.5" stroke="black" stroke-linecap="round" stroke-linejoin="round"/>
<path d="M9.75 15L10 14.5" stroke="black" stroke-linecap="round" stroke-linejoin="round"/>
</svg>
