<svg width="16" height="16" viewBox="0 0 16 16" fill="none" xmlns="http://www.w3.org/2000/svg">
<path d="M5.16993 9C5.16993 9 3.88993 6.16 4.99993 4C5.99993 2.05 7.99993 2 7.99993 2" stroke="black" stroke-linecap="round" stroke-linejoin="round"/>
<path d="M7.44997 10.95C7.44997 10.95 4.34997 10.64 3.02997 8.59998C1.83997 6.75998 2.79998 5 2.79998 5" stroke="black" stroke-linecap="round" stroke-linejoin="round"/>
<path d="M10.2799 9.94995C10.2799 9.94995 8.45995 12.4799 6.03995 12.5999C3.84995 12.7099 2.80994 10.9999 2.80994 10.9999" stroke="black" stroke-linecap="round" stroke-linejoin="round"/>
<path d="M10.82 7C10.82 7 12.1 9.84 10.99 12C9.98999 13.95 7.98999 14 7.98999 14" stroke="black" stroke-linecap="round" stroke-linejoin="round"/>
<path d="M8.54004 5.05005C8.54004 5.05005 11.64 5.36009 12.96 7.40009C14.15 9.24009 13.19 11.0001 13.19 11.0001" stroke="black" stroke-linecap="round" stroke-linejoin="round"/>
<path d="M5.71997 6.05007C5.71997 6.05007 7.53998 3.52011 9.95998 3.40011C12.15 3.29011 13.19 5.00008 13.19 5.00008" stroke="black" stroke-linecap="round" stroke-linejoin="round"/>
<path d="M8 11C9.65685 11 11 9.65685 11 8C11 6.34315 9.65685 5 8 5C6.34315 5 5 6.34315 5 8C5 9.65685 6.34315 11 8 11Z" stroke="black" stroke-linecap="round" stroke-linejoin="round"/>
</svg>
