<svg width="16" height="16" viewBox="0 0 16 16" fill="none" xmlns="http://www.w3.org/2000/svg">
<path d="M9.11882 6.45672C10.3327 6.1281 11.451 6.90395 11.9987 8.01336C12.5589 9.14841 12.5964 10.7176 11.7028 12.2692C11.1207 13.2771 10.4409 13.8867 9.89323 14.2448C9.62051 14.4231 9.38196 14.5382 9.20671 14.61C9.11923 14.6459 9.04748 14.6714 8.99479 14.6882C8.96862 14.6965 8.94664 14.7022 8.93034 14.7067C8.92232 14.709 8.91528 14.7112 8.90983 14.7126C8.90708 14.7133 8.90409 14.714 8.90202 14.7145L8.89909 14.7155H8.89714C8.6288 14.7802 8.3585 14.6156 8.29362 14.3473C8.22906 14.079 8.39442 13.8085 8.66276 13.7438C8.66761 13.7425 8.6768 13.7396 8.69108 13.735C8.7197 13.7259 8.76654 13.7094 8.8278 13.6843C8.95054 13.6339 9.13211 13.548 9.34636 13.4079C9.77355 13.1286 10.3389 12.631 10.8366 11.7692C11.5723 10.4913 11.5059 9.27546 11.1012 8.45574C10.6839 7.61072 9.97641 7.26123 9.38054 7.42254C9.11403 7.49462 8.8394 7.33651 8.76725 7.07C8.69553 6.80376 8.85269 6.52897 9.11882 6.45672Z" fill="currentColor"/>
<path d="M9.19499 8.19695C9.38941 8.00142 9.7061 8.00098 9.90202 8.195C10.7949 9.08148 10.6791 10.4387 9.99186 11.4675C9.28828 12.5206 7.94833 13.3395 6.15983 13.3395C4.99569 13.3395 4.1288 13.0553 3.5446 12.7604C3.25386 12.6136 3.03433 12.465 2.88444 12.3493C2.80981 12.2917 2.75144 12.2419 2.71061 12.2048C2.69051 12.1865 2.67378 12.1706 2.66179 12.1589L2.63835 12.1354C2.64162 12.132 2.67495 12.099 2.99968 11.7897L2.63737 12.1345C2.44738 11.9345 2.45514 11.6177 2.65495 11.4274C2.85388 11.2381 3.16834 11.2452 3.35905 11.4421C3.35905 11.4421 3.35974 11.4426 3.361 11.444C3.36455 11.4475 3.3726 11.4547 3.38347 11.4645C3.40553 11.4846 3.44279 11.5171 3.49479 11.5573C3.59971 11.6383 3.76626 11.7524 3.99479 11.8679C4.45049 12.0979 5.16434 12.3395 6.15983 12.3395C7.63101 12.3395 8.65089 11.6735 9.15983 10.9118C9.68483 10.1258 9.63461 9.33744 9.19792 8.90399C9.00232 8.70943 9.0006 8.39282 9.19499 8.19695Z" fill="currentColor"/>
<path d="M2.361 5.09051C2.62563 5.16857 2.77655 5.44597 2.6989 5.71063L2.69987 5.70867L2.70085 5.7077C2.70069 5.70819 2.69926 5.70923 2.6989 5.71063C2.69764 5.71549 2.69618 5.72554 2.69304 5.73992C2.68664 5.76922 2.67651 5.81788 2.66765 5.88348C2.64991 6.01477 2.63484 6.21491 2.64909 6.47039C2.67757 6.97966 2.82519 7.7179 3.32292 8.57977C4.05858 9.85685 5.14515 10.4076 6.05827 10.4665C7.00046 10.5269 7.65812 10.0871 7.81608 9.49188C7.8868 9.22521 8.16074 9.06613 8.42741 9.13641C8.69419 9.20716 8.8534 9.48095 8.78288 9.74774C8.46072 10.9623 7.22878 11.5429 5.99382 11.4636C4.80864 11.3872 3.52242 10.723 2.62956 9.36102L2.45671 9.07977C1.87477 8.07202 1.68663 7.18013 1.65007 6.52703C1.63188 6.20182 1.65109 5.93736 1.67643 5.74969C1.68908 5.6561 1.70371 5.58103 1.7155 5.52703C1.72136 5.50017 1.7269 5.47799 1.73112 5.4616C1.7332 5.45351 1.73547 5.44653 1.73698 5.44109C1.73772 5.4384 1.73836 5.43533 1.73893 5.43328V5.43035L1.73991 5.42938C1.73999 5.42911 1.74036 5.4287 2.2194 5.57L1.73991 5.42938C1.81804 5.1647 2.09629 5.01265 2.361 5.09051Z" fill="currentColor"/>
<path d="M10.0055 4.5368C11.2698 4.61808 12.6494 5.36802 13.5436 6.92059C14.1255 7.92832 14.3127 8.82023 14.3493 9.47332C14.3674 9.7984 14.3483 10.0631 14.3229 10.2507C14.3103 10.3441 14.2956 10.4194 14.2839 10.4733C14.278 10.5001 14.2724 10.5224 14.2682 10.5388C14.2662 10.5466 14.2648 10.5539 14.2633 10.5593C14.2626 10.5619 14.262 10.5651 14.2614 10.5671L14.2604 10.57L14.2594 10.571C14.1811 10.8355 13.903 10.9879 13.6383 10.9098C13.3749 10.8321 13.2241 10.5563 13.2995 10.2927C13.2996 10.2922 13.3001 10.2909 13.3005 10.2897C13.3018 10.2847 13.3043 10.274 13.3073 10.2604C13.3137 10.2312 13.3228 10.1823 13.3317 10.1169C13.3494 9.98565 13.3645 9.78532 13.3503 9.52996C13.3218 9.02071 13.1741 8.28241 12.6764 7.42059C11.9407 6.14337 10.8543 5.59258 9.94108 5.53387C8.99894 5.47349 8.34116 5.91327 8.18327 6.50848C8.11235 6.77506 7.83864 6.9345 7.57194 6.86395C7.3053 6.79323 7.14622 6.51928 7.21647 6.25262C7.53857 5.03806 8.7706 4.45748 10.0055 4.5368Z" fill="currentColor"/>
<path d="M7.2028 1.2702C7.43521 1.26213 7.64909 1.41813 7.70573 1.65301C7.77014 1.9205 7.60632 2.18968 7.33952 2.25555H7.34147C7.34087 2.25568 7.3392 2.25607 7.33757 2.25652C7.33255 2.25792 7.32211 2.26091 7.30827 2.26531C7.27966 2.27445 7.23308 2.29031 7.17253 2.31512C7.04975 2.36546 6.86735 2.45231 6.653 2.59246C6.27933 2.83688 5.79951 3.24778 5.35222 3.92352L5.16276 4.23016C4.42698 5.5081 4.49355 6.72389 4.89811 7.54363C5.3153 8.38878 6.02294 8.73876 6.61882 8.57781C6.8853 8.50567 7.15986 8.66295 7.2321 8.92938C7.30415 9.19579 7.14688 9.47039 6.88054 9.54266C5.66691 9.87097 4.54935 9.09611 4.00163 7.98699C3.44141 6.85204 3.40316 5.28267 4.29655 3.73113C4.87865 2.72323 5.55839 2.11375 6.10612 1.75555C6.37866 1.57735 6.61737 1.46219 6.79264 1.39031C6.88011 1.35446 6.95284 1.32898 7.00554 1.31219C7.03158 1.3039 7.05374 1.29719 7.06999 1.29266C7.07776 1.2905 7.08515 1.2882 7.0905 1.2868C7.09284 1.28619 7.09548 1.2862 7.09733 1.28582L7.10026 1.28484L7.10222 1.28387L7.2028 1.2702Z" fill="currentColor"/>
<path d="M9.8405 2.65984C11.0046 2.65993 11.8716 2.94405 12.4557 3.23895C12.7466 3.3858 12.966 3.53436 13.1159 3.65008C13.1907 3.70785 13.2488 3.75743 13.2897 3.79461C13.31 3.81306 13.3265 3.8287 13.3385 3.84051C13.3445 3.84634 13.3493 3.85214 13.3532 3.85613C13.3552 3.85807 13.3576 3.85953 13.3591 3.86102L13.362 3.86395C13.36 3.86617 13.3383 3.88777 13.1286 4.08758L13.363 3.86492C13.553 4.06479 13.5449 4.38158 13.3454 4.57195C13.1455 4.76235 12.8288 4.75419 12.6383 4.55438C12.6346 4.55071 12.6271 4.54417 12.6169 4.53484C12.5947 4.51468 12.5569 4.48155 12.5046 4.44109C12.3996 4.36012 12.2337 4.24679 12.0055 4.13152C11.5499 3.9015 10.8359 3.65993 9.8405 3.65984C8.36932 3.65984 7.34851 4.32591 6.83952 5.08758C6.31453 5.87358 6.36569 6.66195 6.80241 7.09539C6.99806 7.28983 6.99948 7.60648 6.80534 7.80242C6.61085 7.99818 6.29426 7.99868 6.09831 7.80438C5.20522 6.91785 5.32113 5.56079 6.00847 4.53191C6.71213 3.47893 8.05213 2.65984 9.8405 2.65984Z" fill="currentColor"/>
</svg>
