<svg width="16" height="16" viewBox="0 0 16 16" fill="none" xmlns="http://www.w3.org/2000/svg">
<path d="M10.33 4.21C10.33 3.9 10.27 3.6 10.13 3.35C9.79 2.75 8.66999 1 8.66999 1C8.66999 1 7.55 2.75 7.21 3.35C7.07 3.6 7.00999 3.9 7.00999 4.21C7.00999 5.2 7.76 6 8.68 6C9.6 6 10.35 5.2 10.35 4.21H10.33Z" stroke="black" stroke-linecap="round" stroke-linejoin="round"/>
<path d="M7.67 11.14C7.67 10.64 7.57 10.16 7.34 9.77C6.79 8.8 5 6 5 6C5 6 3.21 8.8 2.66 9.77C2.44 10.17 2.33 10.65 2.33 11.14C2.33 12.72 3.53 14 5 14C6.47 14 7.67 12.72 7.67 11.14Z" stroke="black" stroke-linecap="round" stroke-linejoin="round"/>
<path d="M14 9.84999C14 9.47999 13.92 9.11999 13.75 8.81999C13.34 8.08999 12 5.98999 12 5.98999C12 5.98999 10.66 8.08999 10.25 8.81999C10.08 9.11999 10 9.47999 10 9.84999C10 11.03 10.9 12 12 12C13.1 12 14 11.04 14 9.84999Z" stroke="black" stroke-linecap="round" stroke-linejoin="round"/>
</svg>
