<svg width="16" height="16" viewBox="0 0 16 16" fill="none" xmlns="http://www.w3.org/2000/svg">
<path d="M8 13C8.55228 13 9 12.5523 9 12C9 11.4477 8.55228 11 8 11C7.44772 11 7 11.4477 7 12C7 12.5523 7.44772 13 8 13Z" stroke="black" stroke-linecap="round" stroke-linejoin="round"/>
<path d="M8 11V3.17001" stroke="black" stroke-linecap="round" stroke-linejoin="round"/>
<path d="M10 9.78V3C10 1.9 9.1 1 8 1C6.9 1 6 1.9 6 3V9.78C5.39 10.33 5 11.12 5 12C5 13.66 6.34 15 8 15C9.66 15 11 13.66 11 12C11 11.11 10.61 10.33 10 9.78Z" stroke="black" stroke-linecap="round" stroke-linejoin="round"/>
</svg>
