<svg width="16" height="16" viewBox="0 0 16 16" fill="none" xmlns="http://www.w3.org/2000/svg">
<path fill-rule="evenodd" clip-rule="evenodd" d="M8 5.66992C8.27611 5.66992 8.49995 5.89382 8.5 6.16992V10.5869C9.08234 10.793 9.5 11.3471 9.5 12C9.5 12.8284 8.82843 13.5 8 13.5C7.17157 13.5 6.5 12.8284 6.5 12C6.5 11.3471 6.91766 10.793 7.5 10.5869V6.16992C7.50005 5.89382 7.72389 5.66992 8 5.66992ZM8 11.5C7.72386 11.5 7.5 11.7239 7.5 12C7.5 12.2761 7.72386 12.5 8 12.5C8.27614 12.5 8.5 12.2761 8.5 12C8.5 11.7239 8.27614 11.5 8 11.5Z" fill="currentColor"/>
<path fill-rule="evenodd" clip-rule="evenodd" d="M8 0.5C9.37614 0.5 10.5 1.62386 10.5 3V9.56738C11.1121 10.1931 11.5 11.0411 11.5 12C11.5 13.9361 9.93614 15.5 8 15.5C6.06386 15.5 4.5 13.9361 4.5 12C4.5 11.0512 4.88761 10.1959 5.5 9.56836V3C5.5 1.62386 6.62386 0.5 8 0.5ZM8 1.5C7.17614 1.5 6.5 2.17614 6.5 3V9.78027C6.49992 9.92173 6.44001 10.0566 6.33496 10.1514C5.82236 10.6135 5.5 11.2717 5.5 12C5.5 13.3839 6.61614 14.5 8 14.5C9.38386 14.5 10.5 13.3839 10.5 12C10.5 11.2626 10.1783 10.6142 9.66504 10.1514C9.55999 10.0566 9.50008 9.92173 9.5 9.78027V3C9.5 2.17614 8.82386 1.5 8 1.5Z" fill="currentColor"/>
</svg>
