<svg width="16" height="16" viewBox="0 0 16 16" fill="none" xmlns="http://www.w3.org/2000/svg">
<path d="M3.59 8.88C2.1 8.48 0.98999 7.12 0.98999 5.5C1.39999 5.81 1.92999 6 2.48999 6C3.86999 6 4.98999 4.88 4.98999 3.5C4.98999 2.94 4.79999 2.41 4.48999 2C6.30999 2 7.81001 3.39999 7.98001 5.17999" stroke="black" stroke-linecap="round" stroke-linejoin="round"/>
<path d="M12.5 13C13.88 13 15 11.88 15 10.5C15 9.12 13.88 8 12.5 8C12.33 8 12.16 8.01999 12 8.04999V8C12 6.34 10.66 5 9 5C7.34 5 6 6.34 6 8V8.04999C5.84 8.01999 5.67 8 5.5 8C4.12 8 3 9.12 3 10.5C3 11.88 4.12 13 5.5 13H12.5Z" stroke="black" stroke-linecap="round" stroke-linejoin="round"/>
</svg>
