<svg width="16" height="16" viewBox="0 0 16 16" fill="none" xmlns="http://www.w3.org/2000/svg">
<path d="M13 9C12.53 9 12.1 9.17 11.76 9.44C11.36 8.59 10.5 8 9.5 8C8.12 8 7 9.12 7 10.5C7 11.88 8.12 13 9.5 13H13C14.1 13 15 12.1 15 11C15 9.9 14.1 9 13 9Z" stroke="black" stroke-linecap="round" stroke-linejoin="round"/>
<path d="M12.95 9C12.98 8.84 13 8.67 13 8.5C13 7.12 11.88 6 10.5 6H10C10 4.34 8.66 3 7 3C5.34 3 4 4.34 4 6H3.5C2.12 6 1 7.12 1 8.5C1 9.88 2.12 11 3.5 11H7.05" stroke="black" stroke-linecap="round" stroke-linejoin="round"/>
</svg>
