<svg width="16" height="16" viewBox="0 0 16 16" fill="none" xmlns="http://www.w3.org/2000/svg">
<path d="M3.60001 8.88C2.11001 8.48 1 7.12 1 5.5C1.41 5.81 1.94 6 2.5 6C3.88 6 5 4.88 5 3.5C5 2.94 4.81 2.41 4.5 2C6.32 2 7.81999 3.4 7.98999 5.18" stroke="black" stroke-linecap="round" stroke-linejoin="round"/>
<path d="M15 8H8" stroke="black" stroke-linecap="round" stroke-linejoin="round"/>
<path d="M14 10H7" stroke="black" stroke-linecap="round" stroke-linejoin="round"/>
<path d="M13 12H6" stroke="black" stroke-linecap="round" stroke-linejoin="round"/>
<path d="M12 14H5" stroke="black" stroke-linecap="round" stroke-linejoin="round"/>
<path d="M12 8C12 6.34 10.66 5 9 5C7.34 5 6 6.34 6 8H5.5C4.12 8 3 9.12 3 10.5C3 11.32 3.39 12.04 4 12.5" stroke="black" stroke-linecap="round" stroke-linejoin="round"/>
</svg>
