<svg width="16" height="16" viewBox="0 0 16 16" fill="none" xmlns="http://www.w3.org/2000/svg">
<path d="M12 13H12.5C13.88 13 15 11.88 15 10.5C15 9.12 13.88 8 12.5 8C12.33 8 12.16 8.02 12 8.05V8C12 6.34 10.66 5 9 5C7.34 5 6 6.34 6 8V8.05C5.84 8.02 5.67 8 5.5 8C4.12 8 3 9.12 3 10.5C3 11.88 4.12 13 5.5 13H6" stroke="black" stroke-linecap="round" stroke-linejoin="round"/>
<path d="M3.6 8.88C2.11 8.48 1 7.12 1 5.5C1.41 5.81 1.94 6 2.5 6C3.88 6 5 4.88 5 3.5C5 2.94 4.81 2.41 4.5 2C6.32 2 7.82 3.4 7.99 5.18" stroke="black" stroke-linecap="round" stroke-linejoin="round"/>
<path d="M9 15L10 13H8L9 11" stroke="black" stroke-linecap="round" stroke-linejoin="round"/>
</svg>
