<svg width="16" height="16" viewBox="0 0 16 16" fill="none" xmlns="http://www.w3.org/2000/svg">
<path d="M6 12C6.55228 12 7 11.5523 7 11C7 10.4477 6.55228 10 6 10C5.44772 10 5 10.4477 5 11C5 11.5523 5.44772 12 6 12Z" stroke="black" stroke-linecap="round" stroke-linejoin="round"/>
<path d="M9 14C9.55228 14 10 13.5523 10 13C10 12.4477 9.55228 12 9 12C8.44772 12 8 12.4477 8 13C8 13.5523 8.44772 14 9 14Z" stroke="black" stroke-linecap="round" stroke-linejoin="round"/>
<path d="M9 10C9.55228 10 10 9.55228 10 9C10 8.44772 9.55228 8 9 8C8.44772 8 8 8.44772 8 9C8 9.55228 8.44772 10 9 10Z" stroke="black" stroke-linecap="round" stroke-linejoin="round"/>
<path d="M11 11H12C13.66 11 15 9.65999 15 7.99999C15 6.33999 13.66 4.99999 12 4.99999C11.98 4.99999 11.97 4.99999 11.95 4.99999C11.71 3.29999 10.26 1.98999 8.5 1.98999C6.74 1.98999 5.19 3.39999 5.03 5.17999C4.71 5.05999 4.36 4.98999 4 4.98999C2.34 4.98999 1 6.32999 1 7.98999C1 9.64999 2.34 10.99 4 10.99H5" stroke="black" stroke-linecap="round" stroke-linejoin="round"/>
</svg>
