<svg width="16" height="16" viewBox="0 0 16 16" fill="none" xmlns="http://www.w3.org/2000/svg">
<path d="M8 11L7.97 14" stroke="black" stroke-linecap="round" stroke-linejoin="round"/>
<path d="M8 7C8 4.79 9.79 3 12 3V7M8 7C7.45 7 7 6.55 7 6V4.5C7 3.67 6.33 3 5.5 3C4.67 3 4 3.67 4 4.5V5V7C4 9.21 5.79 11 8 11C10.21 11 12 9.21 12 7M8 7H12" stroke="black" stroke-linecap="round" stroke-linejoin="round"/>
<path d="M3 13H12" stroke="black" stroke-linecap="round" stroke-linejoin="round"/>
<path d="M4 12L3 13L4 14" stroke="black" stroke-linecap="round" stroke-linejoin="round"/>
<path d="M13 12L12 13L13 14" stroke="black" stroke-linecap="round" stroke-linejoin="round"/>
<path d="M5 5H3" stroke="black" stroke-linecap="round" stroke-linejoin="round"/>
</svg>
