<svg width="16" height="16" viewBox="0 0 16 16" fill="none" xmlns="http://www.w3.org/2000/svg">
<path d="M3.78 8.68C3.01 8.25 2.5 7.43 2.5 6.5C2.5 5.12 3.62 4 5 4C6.03 4 6.91999 4.63 7.29999 5.53" stroke="black" stroke-linecap="round" stroke-linejoin="round"/>
<path d="M5 2.5V2" stroke="black" stroke-linecap="round" stroke-linejoin="round"/>
<path d="M2.42999 3.43999L2.10999 3.04999" stroke="black" stroke-linecap="round" stroke-linejoin="round"/>
<path d="M1.06 5.81L0.570007 5.72" stroke="black" stroke-linecap="round" stroke-linejoin="round"/>
<path d="M1.54001 8.5L1.10001 8.75" stroke="black" stroke-linecap="round" stroke-linejoin="round"/>
<path d="M7.57001 3.43999L7.89001 3.04999" stroke="black" stroke-linecap="round" stroke-linejoin="round"/>
<path d="M15 8H8" stroke="black" stroke-linecap="round" stroke-linejoin="round"/>
<path d="M14 10H7" stroke="black" stroke-linecap="round" stroke-linejoin="round"/>
<path d="M13 12H6" stroke="black" stroke-linecap="round" stroke-linejoin="round"/>
<path d="M12 14H5" stroke="black" stroke-linecap="round" stroke-linejoin="round"/>
<path d="M12 8C12 6.34 10.66 5 9 5C7.34 5 6 6.34 6 8H5.5C4.12 8 3 9.12 3 10.5C3 11.32 3.39 12.04 4 12.5" stroke="black" stroke-linecap="round" stroke-linejoin="round"/>
</svg>
