<svg width="16" height="16" viewBox="0 0 16 16" fill="none" xmlns="http://www.w3.org/2000/svg">
<path d="M5 10H12C12.55 10 13 9.55 13 9C13 8.45 12.55 8 12 8" stroke="black" stroke-linecap="round" stroke-linejoin="round"/>
<path d="M6 12H9C9.55 12 10 12.45 10 13C10 13.55 9.55 14 9 14" stroke="black" stroke-linecap="round" stroke-linejoin="round"/>
<path d="M12 12C13.66 12 15 10.66 15 9C15 7.34 13.66 6 12 6H11.95C11.71 4.31 10.26 3 8.5 3C6.74 3 5.29 4.31 5.05 6H4C2.34 6 1 7.34 1 9C1 10.66 2.34 12 4 12" stroke="black" stroke-linecap="round" stroke-linejoin="round"/>
</svg>
