<svg width="16" height="16" viewBox="0 0 16 16" fill="none" xmlns="http://www.w3.org/2000/svg">
<path fill-rule="evenodd" clip-rule="evenodd" d="M6 12.5C6.82843 12.5 7.5 13.1716 7.5 14C7.5 14.8284 6.82843 15.5 6 15.5C5.17157 15.5 4.5 14.8284 4.5 14C4.5 13.1716 5.17157 12.5 6 12.5ZM6 13.5C5.72386 13.5 5.5 13.7239 5.5 14C5.5 14.2761 5.72386 14.5 6 14.5C6.27614 14.5 6.5 14.2761 6.5 14C6.5 13.7239 6.27614 13.5 6 13.5Z" fill="black"/>
<path fill-rule="evenodd" clip-rule="evenodd" d="M10 11.5C10.8284 11.5 11.5 12.1716 11.5 13C11.5 13.8284 10.8284 14.5 10 14.5C9.17157 14.5 8.5 13.8284 8.5 13C8.5 12.1716 9.17157 11.5 10 11.5ZM10 12.5C9.72386 12.5 9.5 12.7239 9.5 13C9.5 13.2761 9.72386 13.5 10 13.5C10.2761 13.5 10.5 13.2761 10.5 13C10.5 12.7239 10.2761 12.5 10 12.5Z" fill="black"/>
<path d="M8.5 2.49023C10.3703 2.49023 11.9293 3.78208 12.3633 5.51855C14.128 5.6997 15.4999 7.18665 15.5 9C15.4999 10.936 13.9361 12.5 12 12.5C11.7239 12.5 11.5001 12.276 11.5 12C11.5001 11.724 11.7239 11.5 12 11.5C13.3838 11.5 14.4999 10.3838 14.5 9C14.4999 7.70264 13.5188 6.64025 12.2559 6.5127L12 6.5H11.9502C11.7012 6.5 11.4901 6.31679 11.4551 6.07031C11.249 4.61059 10.0044 3.49023 8.5 3.49023C7.00001 3.49023 5.66545 4.70149 5.52832 6.22461C5.51428 6.37998 5.42798 6.52049 5.2959 6.60352C5.16383 6.68643 5.00052 6.70315 4.85449 6.64844C4.58621 6.54783 4.2955 6.49023 4 6.49023C2.61614 6.49023 1.5 7.60638 1.5 8.99023C1.50012 10.374 2.61622 11.4902 4 11.4902C4.27614 11.4902 4.5 11.7141 4.5 11.9902C4.49988 12.2663 4.27607 12.4902 4 12.4902C2.06393 12.4902 0.500123 10.9263 0.5 8.99023C0.5 7.05409 2.06386 5.49023 4 5.49023C4.21478 5.49023 4.42577 5.5109 4.62988 5.5498C5.06329 3.79875 6.67816 2.49023 8.5 2.49023Z" fill="black"/>
<path fill-rule="evenodd" clip-rule="evenodd" d="M6 8.5C6.82843 8.5 7.5 9.17157 7.5 10C7.5 10.8284 6.82843 11.5 6 11.5C5.17157 11.5 4.5 10.8284 4.5 10C4.5 9.17157 5.17157 8.5 6 8.5ZM6 9.5C5.72386 9.5 5.5 9.72386 5.5 10C5.5 10.2761 5.72386 10.5 6 10.5C6.27614 10.5 6.5 10.2761 6.5 10C6.5 9.72386 6.27614 9.5 6 9.5Z" fill="black"/>
<path fill-rule="evenodd" clip-rule="evenodd" d="M10 7.5C10.8284 7.5 11.5 8.17157 11.5 9C11.5 9.82843 10.8284 10.5 10 10.5C9.17157 10.5 8.5 9.82843 8.5 9C8.5 8.17157 9.17157 7.5 10 7.5ZM10 8.5C9.72386 8.5 9.5 8.72386 9.5 9C9.5 9.27614 9.72386 9.5 10 9.5C10.2761 9.5 10.5 9.27614 10.5 9C10.5 8.72386 10.2761 8.5 10 8.5Z" fill="black"/>
</svg>
