<svg width="16" height="16" viewBox="0 0 16 16" fill="none" xmlns="http://www.w3.org/2000/svg">
<path d="M3.13 9C4.74 10.61 7.36 10.61 8.97 9C10.58 7.39 10.58 4.76997 8.97 3.15997C8.92 3.10997 8.87001 3.07002 8.82001 3.02002C10.12 3.10002 11.39 3.63 12.38 4.62C13.46 5.7 13.99 7.11001 13.99 8.51001C13.99 9.91001 13.45 11.33 12.38 12.4C11.3 13.48 9.88999 14.01 8.48999 14.01C7.08999 14.01 5.67001 13.47 4.60001 12.4C3.61001 11.41 3.08 10.14 3 8.84003C3.05 8.89003 3.09001 8.93999 3.14001 8.98999L3.13 9Z" stroke="black" stroke-linecap="round" stroke-linejoin="round"/>
<path d="M3 5L4.32999 4.33002L5 3L5.66 4.33002L7 5L5.66 5.66998L5 7L4.32999 5.66998L3 5Z" stroke="black" stroke-linecap="round" stroke-linejoin="round"/>
</svg>
