<svg width="16" height="16" viewBox="0 0 16 16" fill="none" xmlns="http://www.w3.org/2000/svg">
<path d="M3.55273 13.2764C3.67623 13.0294 3.97664 12.9292 4.22363 13.0527C4.47062 13.1762 4.57076 13.4766 4.44727 13.7236L4.19727 14.2236C4.07377 14.4706 3.77336 14.5708 3.52637 14.4473C3.27938 14.3238 3.17924 14.0234 3.30273 13.7764L3.55273 13.2764Z" fill="black"/>
<path d="M5.55273 13.2764C5.67623 13.0294 5.97664 12.9292 6.22363 13.0527C6.47062 13.1762 6.57076 13.4766 6.44727 13.7236L6.19727 14.2236C6.07377 14.4706 5.77336 14.5708 5.52637 14.4473C5.27938 14.3238 5.17924 14.0234 5.30273 13.7764L5.55273 13.2764Z" fill="black"/>
<path d="M7.55273 13.2764C7.67623 13.0294 7.97664 12.9292 8.22363 13.0527C8.47062 13.1762 8.57076 13.4766 8.44727 13.7236L8.19727 14.2236C8.07377 14.4706 7.77336 14.5708 7.52637 14.4473C7.27938 14.3238 7.17924 14.0234 7.30273 13.7764L7.55273 13.2764Z" fill="black"/>
<path d="M9.55273 13.2764C9.67623 13.0294 9.97664 12.9292 10.2236 13.0527C10.4706 13.1762 10.5708 13.4766 10.4473 13.7236L10.1973 14.2236C10.0738 14.4706 9.77336 14.5708 9.52637 14.4473C9.27938 14.3238 9.17924 14.0234 9.30273 13.7764L9.55273 13.2764Z" fill="black"/>
<path d="M4.55273 11.2764C4.67623 11.0294 4.97664 10.9292 5.22363 11.0527C5.47062 11.1762 5.57076 11.4766 5.44727 11.7236L5.19727 12.2236C5.07377 12.4706 4.77336 12.5708 4.52637 12.4473C4.27938 12.3238 4.17924 12.0234 4.30273 11.7764L4.55273 11.2764Z" fill="black"/>
<path d="M6.55273 11.2764C6.67623 11.0294 6.97664 10.9292 7.22363 11.0527C7.47062 11.1762 7.57076 11.4766 7.44727 11.7236L7.19727 12.2236C7.07377 12.4706 6.77336 12.5708 6.52637 12.4473C6.27938 12.3238 6.17924 12.0234 6.30273 11.7764L6.55273 11.2764Z" fill="black"/>
<path d="M8.55273 11.2764C8.67623 11.0294 8.97664 10.9292 9.22363 11.0527C9.47062 11.1762 9.57076 11.4766 9.44727 11.7236L9.19727 12.2236C9.07377 12.4706 8.77336 12.5708 8.52637 12.4473C8.27938 12.3238 8.17924 12.0234 8.30273 11.7764L8.55273 11.2764Z" fill="black"/>
<path d="M10.5527 11.2764C10.6762 11.0294 10.9766 10.9292 11.2236 11.0527C11.4706 11.1762 11.5708 11.4766 11.4473 11.7236L11.1973 12.2236C11.0738 12.4706 10.7734 12.5708 10.5264 12.4473C10.2794 12.3238 10.1792 12.0234 10.3027 11.7764L10.5527 11.2764Z" fill="black"/>
<path d="M8.5 2.5C10.3688 2.5 11.9282 3.78988 12.3633 5.51758C14.1281 5.69869 15.5 7.18651 15.5 9C15.5 10.7377 14.2401 12.1729 12.5938 12.4531C12.3216 12.4993 12.064 12.316 12.0176 12.0439C11.9713 11.7718 12.1537 11.5133 12.4258 11.4668C13.5994 11.267 14.5 10.2423 14.5 9C14.5 7.61614 13.3839 6.5 12 6.5H11.9502C11.7012 6.5 11.4901 6.31681 11.4551 6.07031C11.2493 4.62107 10.0052 3.5 8.5 3.5C6.99475 3.5 5.75073 4.62107 5.54492 6.07031C5.5099 6.31681 5.29878 6.5 5.0498 6.5H4C2.61614 6.5 1.5 7.61614 1.5 9C1.5 10.0826 2.18174 10.9989 3.15039 11.3496C3.40999 11.4436 3.54419 11.7306 3.4502 11.9902C3.35619 12.2499 3.06922 12.384 2.80957 12.29C1.45833 11.8007 0.5 10.5173 0.5 9C0.5 7.06386 2.06386 5.5 4 5.5H4.6416C5.0828 3.78119 6.63756 2.5 8.5 2.5Z" fill="black"/>
<path d="M5.55273 9.27637C5.67623 9.02938 5.97664 8.92924 6.22363 9.05273C6.47062 9.17623 6.57076 9.47664 6.44727 9.72363L6.19727 10.2236C6.07377 10.4706 5.77336 10.5708 5.52637 10.4473C5.27938 10.3238 5.17924 10.0234 5.30273 9.77637L5.55273 9.27637Z" fill="black"/>
<path d="M7.55273 9.27637C7.67623 9.02938 7.97664 8.92924 8.22363 9.05273C8.47062 9.17623 8.57076 9.47664 8.44727 9.72363L8.19727 10.2236C8.07377 10.4706 7.77336 10.5708 7.52637 10.4473C7.27938 10.3238 7.17924 10.0234 7.30273 9.77637L7.55273 9.27637Z" fill="black"/>
<path d="M9.55273 9.27637C9.67623 9.02938 9.97664 8.92924 10.2236 9.05273C10.4706 9.17623 10.5708 9.47664 10.4473 9.72363L10.1973 10.2236C10.0738 10.4706 9.77336 10.5708 9.52637 10.4473C9.27938 10.3238 9.17924 10.0234 9.30273 9.77637L9.55273 9.27637Z" fill="black"/>
<path d="M11.5527 9.27637C11.6762 9.02938 11.9766 8.92924 12.2236 9.05273C12.4706 9.17623 12.5708 9.47664 12.4473 9.72363L12.1973 10.2236C12.0738 10.4706 11.7734 10.5708 11.5264 10.4473C11.2794 10.3238 11.1792 10.0234 11.3027 9.77637L11.5527 9.27637Z" fill="black"/>
</svg>
