<svg width="16" height="16" viewBox="0 0 16 16" fill="none" xmlns="http://www.w3.org/2000/svg">
<path d="M5.55236 14.2764C5.6758 14.0295 5.97633 13.9295 6.22326 14.0527C6.47025 14.1762 6.57038 14.4766 6.44689 14.7236L6.19689 15.2236C6.07335 15.4705 5.77293 15.5707 5.52599 15.4473C5.27927 15.3237 5.17903 15.0232 5.30236 14.7764L5.55236 14.2764Z" fill="currentColor"/>
<path d="M7.55236 14.2764C7.6758 14.0295 7.97632 13.9295 8.22326 14.0527C8.47025 14.1762 8.57038 14.4766 8.44689 14.7236L8.19689 15.2236C8.07335 15.4705 7.77293 15.5707 7.52599 15.4473C7.27927 15.3237 7.17903 15.0232 7.30236 14.7764L7.55236 14.2764Z" fill="currentColor"/>
<path d="M9.55236 14.2764C9.6758 14.0295 9.97632 13.9295 10.2233 14.0527C10.4702 14.1762 10.5704 14.4766 10.4469 14.7236L10.1969 15.2236C10.0733 15.4705 9.77293 15.5707 9.52599 15.4473C9.27927 15.3237 9.17903 15.0232 9.30236 14.7764L9.55236 14.2764Z" fill="currentColor"/>
<path fill-rule="evenodd" clip-rule="evenodd" d="M4.99962 3.5C6.03751 3.5 6.95393 4.03305 7.49181 4.83984C7.94813 4.62208 8.4593 4.50006 8.99962 4.5C10.7659 4.5 12.2215 5.80167 12.4635 7.5H12.4996C14.1558 7.5 15.4996 8.84386 15.4996 10.5C15.4996 12.1561 14.1558 13.5 12.4996 13.5C12.2237 13.4998 11.9996 13.276 11.9996 13C11.9996 12.724 12.2237 12.5002 12.4996 12.5C13.6035 12.5 14.4996 11.6039 14.4996 10.5C14.4996 9.39614 13.6035 8.5 12.4996 8.5H11.9996C11.7237 8.4998 11.4996 8.27602 11.4996 8C11.4996 6.61614 10.3835 5.5 8.99962 5.5C8.48119 5.50008 7.99983 5.65605 7.60119 5.9248C7.59212 5.93171 7.58346 5.93899 7.57384 5.94531C6.9244 6.39619 6.49962 7.147 6.49962 8C6.49962 8.27614 6.27577 8.5 5.99962 8.5H5.49962C4.39594 8.5002 3.49962 9.39627 3.49962 10.5C3.49962 11.4676 4.18773 12.276 5.09826 12.46C5.36892 12.5146 5.54442 12.7782 5.48986 13.0488C5.43523 13.3194 5.17155 13.4948 4.90099 13.4404C3.53199 13.1641 2.49962 11.9521 2.49962 10.5C2.49962 9.85779 2.70348 9.26353 3.04748 8.77539C2.40297 8.22338 1.99962 7.40534 1.99962 6.5C1.99962 4.84398 3.34365 3.5002 4.99962 3.5ZM4.99962 4.5C3.89594 4.5002 2.99962 5.39627 2.99962 6.5C2.99962 7.12897 3.29211 7.69452 3.75548 8.0625C4.24729 7.70978 4.84862 7.50008 5.49962 7.5H5.53576C5.65438 6.66727 6.06598 5.93082 6.66173 5.39551C6.30217 4.85476 5.68912 4.5 4.99962 4.5Z" fill="currentColor"/>
<path d="M6.55236 12.2764C6.6758 12.0295 6.97633 11.9295 7.22326 12.0527C7.47025 12.1762 7.57038 12.4766 7.44689 12.7236L7.19689 13.2236C7.07335 13.4705 6.77293 13.5707 6.52599 13.4473C6.27927 13.3237 6.17903 13.0232 6.30236 12.7764L6.55236 12.2764Z" fill="currentColor"/>
<path d="M8.55236 12.2764C8.6758 12.0295 8.97632 11.9295 9.22326 12.0527C9.47025 12.1762 9.57038 12.4766 9.44689 12.7236L9.19689 13.2236C9.07335 13.4705 8.77293 13.5707 8.52599 13.4473C8.27927 13.3237 8.17903 13.0232 8.30236 12.7764L8.55236 12.2764Z" fill="currentColor"/>
<path d="M10.5524 12.2764C10.6758 12.0295 10.9763 11.9295 11.2233 12.0527C11.4702 12.1762 11.5704 12.4766 11.4469 12.7236L11.1969 13.2236C11.0733 13.4705 10.7729 13.5707 10.526 13.4473C10.2793 13.3237 10.179 13.0232 10.3024 12.7764L10.5524 12.2764Z" fill="currentColor"/>
<path d="M1.29357 8.06543C1.53361 7.92931 1.83886 8.01296 1.97521 8.25293C2.11147 8.49295 2.02665 8.79814 1.78673 8.93457L1.34728 9.18457C1.10725 9.32095 0.802114 9.23701 0.665639 8.99707C0.529245 8.75702 0.613136 8.45188 0.853139 8.31543L1.29357 8.06543Z" fill="currentColor"/>
<path d="M0.65978 5.22754L1.15001 5.31836C1.42153 5.36823 1.60111 5.62888 1.55138 5.90039C1.50132 6.17177 1.24082 6.35162 0.96935 6.30176L0.480093 6.21191C0.208735 6.16201 0.0282068 5.90125 0.0777488 5.62988C0.127708 5.35864 0.388498 5.17807 0.65978 5.22754Z" fill="currentColor"/>
<path d="M1.79259 2.66309C2.00602 2.48804 2.32153 2.51912 2.49669 2.73242L2.81603 3.12305C2.99117 3.3365 2.9601 3.651 2.74669 3.82617C2.53322 4.00117 2.21868 3.97025 2.04357 3.75684L1.72326 3.36719C1.54822 3.15373 1.57919 2.83822 1.79259 2.66309Z" fill="currentColor"/>
<path d="M7.50353 2.73242C7.6786 2.51935 7.99327 2.48844 8.20665 2.66309C8.42011 2.83823 8.45109 3.15371 8.27599 3.36719L7.95666 3.75684C7.78149 3.97031 7.46603 4.00133 7.25255 3.82617C7.0395 3.65104 7.00845 3.3364 7.18322 3.12305L7.50353 2.73242Z" fill="currentColor"/>
<path d="M4.99962 1.5C5.27577 1.5 5.49962 1.72386 5.49962 2V2.5C5.49962 2.77614 5.27577 3 4.99962 3C4.72365 2.9998 4.49962 2.77602 4.49962 2.5V2C4.49962 1.72398 4.72365 1.5002 4.99962 1.5Z" fill="currentColor"/>
</svg>
