<svg width="16" height="16" viewBox="0 0 16 16" fill="none" xmlns="http://www.w3.org/2000/svg">
<path d="M5.5 13C4.12 13 3 11.88 3 10.5C3 9.12 4.12 8 5.5 8C5.67 8 5.84 8.02 6 8.05V8C6 6.34 7.34 5 9 5C10.66 5 12 6.34 12 8V8.05C12.16 8.02 12.33 8 12.5 8C13.88 8 15 9.12 15 10.5C15 11.88 13.88 13 12.5 13" stroke="black" stroke-linecap="round" stroke-linejoin="round"/>
<path d="M3.6 8.88C2.11 8.48 1 7.12 1 5.5C1.41 5.81 1.94 6 2.5 6C3.88 6 5 4.88 5 3.5C5 2.94 4.81 2.41 4.5 2C6.32 2 7.82 3.4 7.99 5.18" stroke="black" stroke-linecap="round" stroke-linejoin="round"/>
<path d="M6.5 14L7.5 12" stroke="black" stroke-linecap="round" stroke-linejoin="round"/>
<path d="M8.5 14L9.5 12" stroke="black" stroke-linecap="round" stroke-linejoin="round"/>
<path d="M10.5 14L11.5 12" stroke="black" stroke-linecap="round" stroke-linejoin="round"/>
</svg>
