<svg width="16" height="16" viewBox="0 0 16 16" fill="none" xmlns="http://www.w3.org/2000/svg">
<path d="M3.60001 8.88C2.11001 8.48 1 7.12 1 5.5C1.41 5.81 1.94 6 2.5 6C3.88 6 5 4.88 5 3.5C5 2.94 4.81 2.41 4.5 2C6.32 2 7.82001 3.4 7.99001 5.18" stroke="black" stroke-linecap="round" stroke-linejoin="round"/>
<path d="M12.5 13C13.88 13 15 11.88 15 10.5C15 9.12 13.88 8 12.5 8H12C12 6.34 10.66 5 9 5C7.34 5 6 6.34 6 8H5.5C4.12 8 3 9.12 3 10.5C3 10.67 3.02 10.84 3.05 11" stroke="black" stroke-linecap="round" stroke-linejoin="round"/>
<path d="M10 9V12" stroke="black" stroke-linecap="round" stroke-linejoin="round"/>
<path d="M8.69998 9.75L11.3 11.25" stroke="black" stroke-linecap="round" stroke-linejoin="round"/>
<path d="M8.69998 11.25L11.3 9.75" stroke="black" stroke-linecap="round" stroke-linejoin="round"/>
<path d="M6 11V14" stroke="black" stroke-linecap="round" stroke-linejoin="round"/>
<path d="M4.69998 11.75L7.29999 13.25" stroke="black" stroke-linecap="round" stroke-linejoin="round"/>
<path d="M4.69998 13.25L7.29999 11.75" stroke="black" stroke-linecap="round" stroke-linejoin="round"/>
</svg>
