<svg width="16" height="16" viewBox="0 0 16 16" fill="none" xmlns="http://www.w3.org/2000/svg">
<path d="M12 13.4997C12.2761 13.4997 12.4999 13.7237 12.5 13.9997C12.5 14.2759 12.2761 14.4997 12 14.4997H4C3.72386 14.4997 3.5 14.2759 3.5 13.9997C3.50014 13.7237 3.72394 13.4997 4 13.4997H12Z" fill="black"/>
<path d="M9 11.4997C9.27606 11.4997 9.49986 11.7237 9.5 11.9997C9.5 12.2759 9.27614 12.4997 9 12.4997H2C1.72386 12.4997 1.5 12.2759 1.5 11.9997C1.50014 11.7237 1.72394 11.4997 2 11.4997H9Z" fill="black"/>
<path d="M14 11.4997C14.2761 11.4997 14.4999 11.7237 14.5 11.9997C14.5 12.2759 14.2761 12.4997 14 12.4997H11C10.7239 12.4997 10.5 12.2759 10.5 11.9997C10.5001 11.7237 10.7239 11.4997 11 11.4997H14Z" fill="black"/>
<path d="M6.93652 2.35618C7.52176 1.77125 8.46853 1.77117 9.05371 2.35618L12.2998 5.60227C12.3379 5.63107 12.3719 5.66449 12.4004 5.70286L13.3438 6.64622C13.5389 6.84149 13.539 7.159 13.3438 7.35423C13.1486 7.54908 12.8319 7.54892 12.6367 7.35423L12.5 7.21751V9.49974H14C14.276 9.49986 14.4999 9.72379 14.5 9.99974C14.5 10.2758 14.276 10.4996 14 10.4997H8.00977C7.73373 10.4996 7.50977 10.2758 7.50977 9.99974C7.5099 9.72379 7.73381 9.49986 8.00977 9.49974H11.5V6.21751L8.34668 3.06419C8.15194 2.86945 7.83829 2.86945 7.64355 3.06419L4.5 6.20774V9.49974H6C6.27606 9.49974 6.49986 9.72371 6.5 9.99974C6.5 10.2759 6.27614 10.4997 6 10.4997H2C1.72386 10.4997 1.5 10.2759 1.5 9.99974C1.50014 9.72371 1.72394 9.49974 2 9.49974H3.5V7.20774L3.35352 7.35423C3.15835 7.549 2.84165 7.549 2.64648 7.35423C2.45126 7.159 2.45133 6.84149 2.64648 6.64622L6.93652 2.35618Z" fill="black"/>
</svg>
