<svg width="16" height="16" viewBox="0 0 16 16" fill="none" xmlns="http://www.w3.org/2000/svg">
<path d="M8 14C8.55228 14 9 13.5523 9 13C9 12.4477 8.55228 12 8 12C7.44772 12 7 12.4477 7 13C7 13.5523 7.44772 14 8 14Z" stroke="black" stroke-linecap="round" stroke-linejoin="round"/>
<path d="M11 12C11.5523 12 12 11.5523 12 11C12 10.4477 11.5523 10 11 10C10.4477 10 10 10.4477 10 11C10 11.5523 10.4477 12 11 12Z" stroke="black" stroke-linecap="round" stroke-linejoin="round"/>
<path d="M3.78 8.68C3.01 8.25 2.5 7.43 2.5 6.5C2.5 5.12 3.62 4 5 4C6.03 4 6.91999 4.63 7.29999 5.53" stroke="black" stroke-linecap="round" stroke-linejoin="round"/>
<path d="M5 2.5V2" stroke="black" stroke-linecap="round" stroke-linejoin="round"/>
<path d="M2.42999 3.43999L2.10999 3.04999" stroke="black" stroke-linecap="round" stroke-linejoin="round"/>
<path d="M1.06 5.81L0.570007 5.72" stroke="black" stroke-linecap="round" stroke-linejoin="round"/>
<path d="M1.54001 8.5L1.10001 8.75" stroke="black" stroke-linecap="round" stroke-linejoin="round"/>
<path d="M7.57001 3.43999L7.89001 3.04999" stroke="black" stroke-linecap="round" stroke-linejoin="round"/>
<path d="M12.5 13C13.88 13 15 11.88 15 10.5C15 9.12 13.88 8 12.5 8H12C12 6.34 10.66 5 9 5C7.34 5 6 6.34 6 8H5.5C4.12 8 3 9.12 3 10.5C3 11.88 4.12 13 5.5 13" stroke="black" stroke-linecap="round" stroke-linejoin="round"/>
</svg>
