<svg width="16" height="16" viewBox="0 0 16 16" fill="none" xmlns="http://www.w3.org/2000/svg">
<path d="M11.7 8C12.11 8.46 12.37 9.06998 12.37 9.72998C12.37 11.18 11.19 12.36 9.74002 12.36C9.07002 12.36 8.47001 12.1 8.01001 11.69C8.12001 13.53 9.63002 14.99 11.5 14.99C13.37 14.99 15.01 13.42 15.01 11.48C15.01 9.53998 13.55 8.09999 11.71 7.98999L11.7 8Z" stroke="black" stroke-linecap="round" stroke-linejoin="round"/>
<path d="M6 8.5C7.38071 8.5 8.5 7.38071 8.5 6C8.5 4.61929 7.38071 3.5 6 3.5C4.61929 3.5 3.5 4.61929 3.5 6C3.5 7.38071 4.61929 8.5 6 8.5Z" stroke="black" stroke-linecap="round" stroke-linejoin="round"/>
<path d="M6 2V1.5" stroke="black" stroke-linecap="round" stroke-linejoin="round"/>
<path d="M6 10V10.5" stroke="black" stroke-linecap="round" stroke-linejoin="round"/>
<path d="M8.82007 3.16998L9.18007 2.82001" stroke="black" stroke-linecap="round" stroke-linejoin="round"/>
<path d="M3.17006 8.83002L2.81006 9.17999" stroke="black" stroke-linecap="round" stroke-linejoin="round"/>
<path d="M10 6H10.5" stroke="black" stroke-linecap="round" stroke-linejoin="round"/>
<path d="M2 6H1.5" stroke="black" stroke-linecap="round" stroke-linejoin="round"/>
<path d="M8.82007 8.83002L9.18007 9.17999" stroke="black" stroke-linecap="round" stroke-linejoin="round"/>
<path d="M3.17006 3.16998L2.81006 2.82001" stroke="black" stroke-linecap="round" stroke-linejoin="round"/>
</svg>
