<svg width="16" height="16" viewBox="0 0 16 16" fill="none" xmlns="http://www.w3.org/2000/svg">
<path d="M12 13.5C12.2761 13.5 12.5 13.7239 12.5 14C12.5 14.2761 12.2761 14.5 12 14.5H4C3.72386 14.5 3.5 14.2761 3.5 14C3.5 13.7239 3.72386 13.5 4 13.5H12Z" fill="currentColor"/>
<path d="M6 11.5C6.27614 11.5 6.5 11.7239 6.5 12C6.5 12.2761 6.27614 12.5 6 12.5H3C2.72386 12.5 2.5 12.2761 2.5 12C2.5 11.7239 2.72386 11.5 3 11.5H6Z" fill="currentColor"/>
<path d="M13 11.5C13.2761 11.5 13.5 11.7239 13.5 12C13.5 12.2761 13.2761 12.5 13 12.5H8C7.72386 12.5 7.5 12.2761 7.5 12C7.5 11.7239 7.72386 11.5 8 11.5H13Z" fill="currentColor"/>
<path d="M9 9.5C9.27614 9.5 9.5 9.72386 9.5 10C9.5 10.2761 9.27614 10.5 9 10.5H2C1.72386 10.5 1.5 10.2761 1.5 10C1.5 9.72386 1.72386 9.5 2 9.5H9Z" fill="currentColor"/>
<path d="M14 9.5C14.2761 9.5 14.5 9.72386 14.5 10C14.5 10.2761 14.2761 10.5 14 10.5H11C10.7239 10.5 10.5 10.2761 10.5 10C10.5 9.72386 10.7239 9.5 11 9.5H14Z" fill="currentColor"/>
<path d="M3 7.5C3.27614 7.5 3.5 7.72386 3.5 8C3.5 8.27614 3.27614 8.5 3 8.5H2C1.72386 8.5 1.5 8.27614 1.5 8C1.5 7.72386 1.72386 7.5 2 7.5H3Z" fill="currentColor"/>
<path fill-rule="evenodd" clip-rule="evenodd" d="M8 4.5C9.93614 4.5 11.5 6.06386 11.5 8C11.5 8.27614 11.2761 8.5 11 8.5H5C4.72386 8.5 4.5 8.27614 4.5 8C4.5 6.06386 6.06386 4.5 8 4.5ZM8 5.5C6.78746 5.5 5.78055 6.35693 5.5498 7.5H10.4502C10.2195 6.35693 9.21254 5.5 8 5.5Z" fill="currentColor"/>
<path d="M14 7.5C14.2761 7.5 14.5 7.72386 14.5 8C14.5 8.27614 14.2761 8.5 14 8.5H13C12.7239 8.5 12.5 8.27614 12.5 8C12.5 7.72386 12.7239 7.5 13 7.5H14Z" fill="currentColor"/>
<path d="M3.40625 3.40625C3.60144 3.21108 3.91801 3.21121 4.11328 3.40625L4.81348 4.10645C5.00855 4.30172 5.00866 4.61827 4.81348 4.81348C4.61828 5.00868 4.30172 5.00856 4.10645 4.81348L3.40625 4.11328C3.21121 3.918 3.21106 3.60144 3.40625 3.40625Z" fill="currentColor"/>
<path d="M11.8867 3.40625C12.082 3.21126 12.3986 3.21117 12.5938 3.40625C12.7888 3.60144 12.7887 3.91803 12.5938 4.11328L11.8936 4.81348C11.6983 5.00862 11.3818 5.00862 11.1865 4.81348C10.9914 4.61824 10.9914 4.30168 11.1865 4.10645L11.8867 3.40625Z" fill="currentColor"/>
<path d="M8 1.5C8.27614 1.5 8.5 1.72386 8.5 2V3C8.5 3.27614 8.27614 3.5 8 3.5C7.72386 3.5 7.5 3.27614 7.5 3V2C7.5 1.72386 7.72386 1.5 8 1.5Z" fill="currentColor"/>
</svg>
