<svg width="16" height="16" viewBox="0 0 16 16" fill="none" xmlns="http://www.w3.org/2000/svg">
<path fill-rule="evenodd" clip-rule="evenodd" d="M7 2.5C8.7663 2.5 10.2219 3.80165 10.4639 5.5H10.5C12.1561 5.5 13.5 6.84386 13.5 8.5C13.5 8.51665 13.4984 8.53324 13.498 8.5498C14.6373 8.78198 15.5 9.79428 15.5 11C15.5 12.3761 14.3761 13.5 13 13.5H9.5C8.19491 13.5 7.08723 12.6642 6.6748 11.5H3.5C1.84386 11.5 0.5 10.1561 0.5 8.5C0.5 6.84386 1.84386 5.5 3.5 5.5H3.53613C3.77807 3.80165 5.2337 2.5 7 2.5ZM9.5 8.5C8.39614 8.5 7.5 9.39614 7.5 10.5C7.5 11.6039 8.39614 12.5 9.5 12.5H13C13.8239 12.5 14.5 11.8239 14.5 11C14.5 10.1761 13.8239 9.5 13 9.5C12.653 9.5 12.3311 9.62569 12.0713 9.83203C11.9518 9.92694 11.7951 9.96142 11.6465 9.92676C11.4979 9.89197 11.3727 9.79136 11.3076 9.65332C10.9862 8.97039 10.2974 8.5 9.5 8.5ZM7 3.5C5.61614 3.5 4.5 4.61614 4.5 6C4.5 6.27614 4.27614 6.5 4 6.5H3.5C2.39614 6.5 1.5 7.39614 1.5 8.5C1.5 9.60386 2.39614 10.5 3.5 10.5H6.5C6.5 8.84386 7.84386 7.5 9.5 7.5C10.5025 7.5 11.3843 7.99464 11.9277 8.74805C12.1061 8.66171 12.2968 8.59512 12.4971 8.55273C12.4976 8.53503 12.5 8.51749 12.5 8.5C12.5 7.39614 11.6039 6.5 10.5 6.5H10C9.72386 6.5 9.5 6.27614 9.5 6C9.5 4.61614 8.38386 3.5 7 3.5Z" fill="currentColor"/>
</svg>
