<svg width="16" height="16" viewBox="0 0 16 16" fill="none" xmlns="http://www.w3.org/2000/svg">
<path fill-rule="evenodd" clip-rule="evenodd" d="M11.0002 1.5C11.1734 1.50008 11.3349 1.58996 11.426 1.7373C11.5168 1.88461 11.5249 2.06881 11.4475 2.22363L9.80882 5.5H13.0002C13.1911 5.50008 13.3656 5.6088 13.4494 5.78027C13.5332 5.95171 13.5118 6.15595 13.3948 6.30664L6.39476 15.3066C6.25428 15.4873 6.00864 15.5498 5.79905 15.458C5.58969 15.3661 5.46954 15.1436 5.50706 14.918L6.41038 9.5H4.00022C3.84337 9.5 3.6953 9.42597 3.60081 9.30078C3.50652 9.17557 3.47669 9.01304 3.51976 8.8623L5.51976 1.8623L5.54905 1.78516C5.63084 1.61331 5.80508 1.5 6.00022 1.5H11.0002ZM4.66331 8.5H7.00022C7.14712 8.50007 7.28711 8.56467 7.38206 8.67676C7.47688 8.78883 7.51747 8.93722 7.49339 9.08203L6.81761 13.1348L11.9787 6.5H9.00022C8.82697 6.5 8.66556 6.41004 8.57444 6.2627C8.48353 6.11534 8.47552 5.93125 8.55296 5.77637L10.1916 2.5H6.37718L4.66331 8.5Z" fill="currentColor"/>
</svg>
