<svg width="16" height="16" viewBox="0 0 16 16" fill="none" xmlns="http://www.w3.org/2000/svg">
<path d="M9.72998 3L7.99998 4L6.26999 3" stroke="black" stroke-linecap="round" stroke-linejoin="round"/>
<path d="M4.53998 4V6L2.79999 7" stroke="black" stroke-linecap="round" stroke-linejoin="round"/>
<path d="M2.79999 9L4.53998 10V12" stroke="black" stroke-linecap="round" stroke-linejoin="round"/>
<path d="M6.26999 13L7.99998 12L9.72998 13" stroke="black" stroke-linecap="round" stroke-linejoin="round"/>
<path d="M11.46 12V10L13.2 9" stroke="black" stroke-linecap="round" stroke-linejoin="round"/>
<path d="M13.2 7L11.46 6V4" stroke="black" stroke-linecap="round" stroke-linejoin="round"/>
<path d="M8 10C9.10457 10 10 9.10457 10 8C10 6.89543 9.10457 6 8 6C6.89543 6 6 6.89543 6 8C6 9.10457 6.89543 10 8 10Z" stroke="black" stroke-linecap="round" stroke-linejoin="round"/>
<path d="M8 2V6" stroke="black" stroke-linecap="round" stroke-linejoin="round"/>
<path d="M2.79999 5L6.26999 7" stroke="black" stroke-linecap="round" stroke-linejoin="round"/>
<path d="M2.79999 11L6.26999 9" stroke="black" stroke-linecap="round" stroke-linejoin="round"/>
<path d="M8 14V10" stroke="black" stroke-linecap="round" stroke-linejoin="round"/>
<path d="M13.2 11L9.72998 9" stroke="black" stroke-linecap="round" stroke-linejoin="round"/>
<path d="M13.2 5L9.72998 7" stroke="black" stroke-linecap="round" stroke-linejoin="round"/>
</svg>
