<svg width="16" height="16" viewBox="0 0 16 16" fill="none" xmlns="http://www.w3.org/2000/svg">
<path d="M13.78 10.43C13.78 10.43 14.19 9.04 13.11 7.17C11.48 4.34 8.17998 4.57 7.69998 6.38" stroke="black" stroke-linecap="round" stroke-linejoin="round"/>
<path d="M13 4.21C13 4.21 12 3.16 9.83999 3.16C6.57999 3.16 5.11999 6.13 6.44999 7.45" stroke="black" stroke-linecap="round" stroke-linejoin="round"/>
<path d="M7.21998 1.76999C7.21998 1.76999 5.80998 2.11 4.72998 3.98C3.09998 6.81 4.93998 9.54999 6.74998 9.05999" stroke="black" stroke-linecap="round" stroke-linejoin="round"/>
<path d="M2.21998 5.57001C2.21998 5.57001 1.80998 6.96001 2.88998 8.83001C4.51998 11.66 7.81998 11.43 8.29998 9.62001" stroke="black" stroke-linecap="round" stroke-linejoin="round"/>
<path d="M3 11.79C3 11.79 4 12.84 6.16 12.84C9.42 12.84 10.88 9.86999 9.55 8.54999" stroke="black" stroke-linecap="round" stroke-linejoin="round"/>
<path d="M8.78 14.23C8.78 14.23 10.19 13.89 11.27 12.02C12.9 9.18998 11.06 6.44999 9.25 6.93999" stroke="black" stroke-linecap="round" stroke-linejoin="round"/>
</svg>
