<svg width="16" height="16" viewBox="0 0 16 16" fill="none" xmlns="http://www.w3.org/2000/svg">
<path d="M3.60001 8.88C2.11001 8.48 1 7.12 1 5.5C1.41 5.81 1.94 6 2.5 6C3.88 6 5 4.88 5 3.5C5 2.94 4.81 2.41 4.5 2C6.32 2 7.81999 3.4 7.98999 5.18" stroke="black" stroke-linecap="round" stroke-linejoin="round"/>
<path d="M8 14C8.55228 14 9 13.5523 9 13C9 12.4477 8.55228 12 8 12C7.44772 12 7 12.4477 7 13C7 13.5523 7.44772 14 8 14Z" stroke="black" stroke-linecap="round" stroke-linejoin="round"/>
<path d="M11 12C11.5523 12 12 11.5523 12 11C12 10.4477 11.5523 10 11 10C10.4477 10 10 10.4477 10 11C10 11.5523 10.4477 12 11 12Z" stroke="black" stroke-linecap="round" stroke-linejoin="round"/>
<path d="M12.5 13C13.88 13 15 11.88 15 10.5C15 9.12 13.88 8 12.5 8H12C12 6.34 10.66 5 9 5C7.34 5 6 6.34 6 8H5.5C4.12 8 3 9.12 3 10.5C3 11.88 4.12 13 5.5 13" stroke="black" stroke-linecap="round" stroke-linejoin="round"/>
</svg>
