<svg width="16" height="16" viewBox="0 0 16 16" fill="none" xmlns="http://www.w3.org/2000/svg">
<path fill-rule="evenodd" clip-rule="evenodd" d="M7.99964 11.5C8.82807 11.5 9.49964 12.1716 9.49964 13C9.49964 13.8284 8.82807 14.5 7.99964 14.5C7.17138 14.4998 6.49964 13.8283 6.49964 13C6.49964 12.1717 7.17138 11.5002 7.99964 11.5ZM7.99964 12.5C7.72367 12.5002 7.49964 12.724 7.49964 13C7.49964 13.276 7.72367 13.4998 7.99964 13.5C8.27578 13.5 8.49964 13.2761 8.49964 13C8.49964 12.7239 8.27578 12.5 7.99964 12.5Z" fill="currentColor"/>
<path fill-rule="evenodd" clip-rule="evenodd" d="M4.99964 3.5C6.03752 3.5 6.95394 4.03305 7.49183 4.83984C7.94814 4.62208 8.45931 4.50006 8.99964 4.5C10.7659 4.5 12.2216 5.80167 12.4635 7.5H12.4996C14.1558 7.5 15.4996 8.84386 15.4996 10.5C15.4996 12.1561 14.1558 13.5 12.4996 13.5C12.2237 13.4998 11.9996 13.276 11.9996 13C11.9996 12.724 12.2237 12.5002 12.4996 12.5C13.6035 12.5 14.4996 11.6039 14.4996 10.5C14.4996 9.39614 13.6035 8.5 12.4996 8.5H11.9996C11.7237 8.4998 11.4996 8.27602 11.4996 8C11.4996 6.61614 10.3835 5.5 8.99964 5.5C8.4812 5.50008 7.99985 5.65605 7.6012 5.9248C7.59213 5.93171 7.58347 5.93899 7.57386 5.94531C6.92441 6.39619 6.49964 7.147 6.49964 8C6.49964 8.27614 6.27578 8.5 5.99964 8.5H5.49964C4.39595 8.5002 3.49964 9.39627 3.49964 10.5C3.49964 11.6037 4.39595 12.4998 5.49964 12.5C5.77578 12.5 5.99964 12.7239 5.99964 13C5.99964 13.2761 5.77578 13.5 5.49964 13.5C3.84367 13.4998 2.49964 12.156 2.49964 10.5C2.49964 9.85779 2.70349 9.26353 3.04749 8.77539C2.40299 8.22338 1.99964 7.40534 1.99964 6.5C1.99964 4.84398 3.34367 3.5002 4.99964 3.5ZM4.99964 4.5C3.89595 4.5002 2.99964 5.39627 2.99964 6.5C2.99964 7.12897 3.29213 7.69452 3.7555 8.0625C4.24731 7.70978 4.84863 7.50008 5.49964 7.5H5.53577C5.65439 6.66727 6.066 5.93082 6.66175 5.39551C6.30218 4.85476 5.68914 4.5 4.99964 4.5Z" fill="currentColor"/>
<path fill-rule="evenodd" clip-rule="evenodd" d="M10.9996 9.5C11.8281 9.5 12.4996 10.1716 12.4996 11C12.4996 11.8284 11.8281 12.5 10.9996 12.5C10.1714 12.4998 9.49964 11.8283 9.49964 11C9.49964 10.1717 10.1714 9.5002 10.9996 9.5ZM10.9996 10.5C10.7237 10.5002 10.4996 10.724 10.4996 11C10.4996 11.276 10.7237 11.4998 10.9996 11.5C11.2758 11.5 11.4996 11.2761 11.4996 11C11.4996 10.7239 11.2758 10.5 10.9996 10.5Z" fill="currentColor"/>
<path d="M1.29358 8.06543C1.53362 7.92931 1.83888 8.01296 1.97522 8.25293C2.11148 8.49294 2.02666 8.79814 1.78675 8.93457L1.34729 9.18457C1.10727 9.32095 0.802129 9.237 0.665654 8.99707C0.52926 8.75702 0.613151 8.45188 0.853154 8.31543L1.29358 8.06543Z" fill="currentColor"/>
<path d="M0.659795 5.22754L1.15003 5.31836C1.42155 5.36823 1.60113 5.62888 1.5514 5.90039C1.50134 6.17178 1.24084 6.35162 0.969365 6.30176L0.480107 6.21191C0.208758 6.162 0.0282225 5.90125 0.0777635 5.62988C0.127721 5.35864 0.388517 5.17808 0.659795 5.22754Z" fill="currentColor"/>
<path d="M1.79261 2.66309C2.00603 2.48803 2.32154 2.51912 2.49671 2.73242L2.81604 3.12305C2.99118 3.3365 2.96012 3.651 2.74671 3.82617C2.53324 4.00116 2.2187 3.97025 2.04358 3.75684L1.72327 3.36719C1.54823 3.15373 1.57921 2.83822 1.79261 2.66309Z" fill="currentColor"/>
<path d="M7.50354 2.73242C7.67862 2.51935 7.99329 2.48845 8.20667 2.66309C8.42012 2.83823 8.4511 3.15371 8.27601 3.36719L7.95667 3.75684C7.78151 3.97031 7.46604 4.00134 7.25257 3.82617C7.03951 3.65104 7.00847 3.3364 7.18323 3.12305L7.50354 2.73242Z" fill="currentColor"/>
<path d="M4.99964 1.5C5.27578 1.5 5.49964 1.72386 5.49964 2V2.5C5.49964 2.77614 5.27578 3 4.99964 3C4.72367 2.9998 4.49964 2.77602 4.49964 2.5V2C4.49964 1.72398 4.72367 1.5002 4.99964 1.5Z" fill="currentColor"/>
</svg>
