<svg width="16" height="16" viewBox="0 0 16 16" fill="none" xmlns="http://www.w3.org/2000/svg">
<path d="M5 2.5V2" stroke="black" stroke-linecap="round" stroke-linejoin="round"/>
<path d="M2.42998 3.43999L2.10999 3.04999" stroke="black" stroke-linecap="round" stroke-linejoin="round"/>
<path d="M1.06 5.81L0.570007 5.72" stroke="black" stroke-linecap="round" stroke-linejoin="round"/>
<path d="M1.53999 8.5L1.10001 8.75" stroke="black" stroke-linecap="round" stroke-linejoin="round"/>
<path d="M7.57001 3.43999L7.89 3.04999" stroke="black" stroke-linecap="round" stroke-linejoin="round"/>
<path d="M12.5 13C13.88 13 15 11.88 15 10.5C15 9.12 13.88 8 12.5 8H12C12 6.34 10.66 5 9 5C7.34 5 6 6.34 6 8H5.5C4.12 8 3 9.12 3 10.5C3 10.67 3.02 10.84 3.05 11" stroke="black" stroke-linecap="round" stroke-linejoin="round"/>
<path d="M10 9V12" stroke="black" stroke-linecap="round" stroke-linejoin="round"/>
<path d="M8.69998 9.75L11.3 11.25" stroke="black" stroke-linecap="round" stroke-linejoin="round"/>
<path d="M8.69998 11.25L11.3 9.75" stroke="black" stroke-linecap="round" stroke-linejoin="round"/>
<path d="M6 11V14" stroke="black" stroke-linecap="round" stroke-linejoin="round"/>
<path d="M4.69998 11.75L7.29999 13.25" stroke="black" stroke-linecap="round" stroke-linejoin="round"/>
<path d="M4.69998 13.25L7.29999 11.75" stroke="black" stroke-linecap="round" stroke-linejoin="round"/>
<path d="M3.78 8.68C3.01 8.25 2.5 7.43 2.5 6.5C2.5 5.12 3.62 4 5 4C6.03 4 6.92 4.63 7.3 5.53" stroke="black" stroke-linecap="round" stroke-linejoin="round"/>
</svg>
