<svg width="16" height="16" viewBox="0 0 16 16" fill="none" xmlns="http://www.w3.org/2000/svg">
<path fill-rule="evenodd" clip-rule="evenodd" d="M8 1.5C8.27614 1.5 8.5 1.72386 8.5 2V3.78906L10.1064 2.17773C10.3013 1.98215 10.6178 1.98094 10.8135 2.17578C11.0088 2.37064 11.0091 2.68726 10.8145 2.88281L8.5 5.20703V5.80664L8.99219 6.29883L11.876 3.41602C12.0712 3.22108 12.3888 3.22107 12.584 3.41602C12.7789 3.61114 12.7787 3.92782 12.584 4.12305L9.7002 7.00684L10.1934 7.5H10.792L13.1055 5.17773C13.3002 4.98217 13.6168 4.98119 13.8125 5.17578C14.008 5.37058 14.009 5.68718 13.8145 5.88281L12.2031 7.5H14C14.2761 7.5 14.5 7.72386 14.5 8C14.5 8.27614 14.2761 8.5 14 8.5H12.2031L13.8145 10.1172C14.0092 10.3129 14.0081 10.6294 13.8125 10.8242C13.6169 11.0189 13.3003 11.0187 13.1055 10.8232L10.791 8.5H10.2109L9.70898 9.00098L12.584 11.876C12.7792 12.0712 12.7792 12.3887 12.584 12.584C12.3887 12.7792 12.0712 12.7792 11.876 12.584L9.00098 9.70898L8.5 10.2109V10.793L10.8145 13.1172C11.0091 13.3127 11.0088 13.6294 10.8135 13.8242C10.618 14.0189 10.3014 14.0183 10.1064 13.8232L8.5 12.21V14C8.5 14.2761 8.27614 14.5 8 14.5C7.72386 14.5 7.5 14.2761 7.5 14V12.2061L5.88379 13.8232C5.68857 14.0185 5.37203 14.0184 5.17676 13.8232C4.98162 13.628 4.98153 13.3114 5.17676 13.1162L7.5 10.793V10.2227L6.99121 9.71387L4.1123 12.584C3.91672 12.7786 3.60013 12.7785 3.40527 12.583C3.21066 12.3875 3.21188 12.0708 3.40723 11.876L6.2832 9.00684L5.77637 8.5H5.20703L2.88379 10.8242C2.68867 11.0191 2.37198 11.0189 2.17676 10.8242C1.9815 10.629 1.9815 10.3115 2.17676 10.1162L3.79297 8.5H2C1.72386 8.5 1.5 8.27614 1.5 8C1.5 7.72386 1.72386 7.5 2 7.5H3.79297L2.17676 5.88379C1.9815 5.68853 1.9815 5.37202 2.17676 5.17676C2.37202 4.9815 2.68853 4.9815 2.88379 5.17676L5.20703 7.5H5.79395L6.29199 7.00098L3.40723 4.12402C3.21216 3.92918 3.21086 3.61247 3.40527 3.41699C3.59998 3.22181 3.91672 3.22091 4.1123 3.41504L6.99902 6.29395L7.5 5.79395V5.20703L5.17676 2.88379C4.9815 2.68853 4.9815 2.37202 5.17676 2.17676C5.37202 1.9815 5.68853 1.9815 5.88379 2.17676L7.5 3.79297V2C7.5 1.72386 7.72386 1.5 8 1.5ZM6.7002 8.00879L7.27246 8.58105C7.30124 8.59984 7.32828 8.62217 7.35352 8.64746C7.37836 8.67239 7.40044 8.69918 7.41895 8.72754L7.99414 9.30273L8.62793 8.66797C8.6342 8.66095 8.63975 8.65322 8.64648 8.64648C8.65322 8.63975 8.66095 8.6342 8.66797 8.62793L9.28809 8.00879L7.99414 6.71484L6.7002 8.00879Z" fill="currentColor"/>
</svg>
