<svg width="16" height="16" viewBox="0 0 16 16" fill="none" xmlns="http://www.w3.org/2000/svg">
<path d="M2 10H10.5C11.33 10 12 10.67 12 11.5C12 12.33 11.33 13 10.5 13C9.67 13 9 12.33 9 11.5" stroke="black" stroke-linecap="round" stroke-linejoin="round"/>
<path d="M2 8H12.5C13.33 8 14 7.33 14 6.5C14 5.67 13.33 5 12.5 5C11.67 5 11 5.67 11 6.5" stroke="black" stroke-linecap="round" stroke-linejoin="round"/>
<path d="M2 6H7.5C8.33 6 9 5.33 9 4.5C9 3.67 8.33 3 7.5 3C6.67 3 6 3.67 6 4.5" stroke="black" stroke-linecap="round" stroke-linejoin="round"/>
<path d="M2 12H7" stroke="black" stroke-linecap="round" stroke-linejoin="round"/>
</svg>
