<svg width="16" height="16" viewBox="0 0 16 16" fill="none" xmlns="http://www.w3.org/2000/svg">
<path d="M8 12.5C8.27614 12.5 8.5 12.7239 8.5 13V14C8.5 14.2761 8.27614 14.5 8 14.5C7.72386 14.5 7.5 14.2761 7.5 14V13C7.5 12.7239 7.72386 12.5 8 12.5Z" fill="currentColor"/>
<path d="M4.10938 11.1836C4.30605 10.9901 4.62267 10.9929 4.81641 11.1895C5.00982 11.3861 5.00797 11.7028 4.81152 11.8965L4.10059 12.5957C3.90395 12.7895 3.58741 12.7874 3.39355 12.5908C3.20002 12.3942 3.20292 12.0776 3.39941 11.8838L4.10938 11.1836Z" fill="currentColor"/>
<path fill-rule="evenodd" clip-rule="evenodd" d="M8 4.5C9.933 4.5 11.5 6.067 11.5 8C11.5 9.933 9.933 11.5 8 11.5C6.067 11.5 4.5 9.933 4.5 8C4.5 6.067 6.067 4.5 8 4.5ZM7.5 5.5498C6.35886 5.78142 5.5 6.79051 5.5 8C5.5 9.20943 6.35895 10.2175 7.5 10.4492V5.5498ZM8.5 10.4492C9.64105 10.2175 10.5 9.20943 10.5 8C10.5 6.79051 9.64114 5.78142 8.5 5.5498V10.4492Z" fill="currentColor"/>
<path d="M3 7.5C3.27614 7.5 3.5 7.72386 3.5 8C3.5 8.27614 3.27614 8.5 3 8.5H2C1.72386 8.5 1.5 8.27614 1.5 8C1.5 7.72386 1.72386 7.5 2 7.5H3Z" fill="currentColor"/>
<path d="M3.39355 3.40918C3.58726 3.21285 3.90395 3.21004 4.10059 3.40332L4.81152 4.10352C5.00788 4.29726 5.0098 4.61392 4.81641 4.81055C4.62254 5.00719 4.30602 5.0093 4.10938 4.81543L3.39941 4.11621C3.20304 3.92247 3.20015 3.60581 3.39355 3.40918Z" fill="currentColor"/>
<path d="M8 1.5C8.27614 1.5 8.5 1.72386 8.5 2V3C8.5 3.27614 8.27614 3.5 8 3.5C7.72386 3.5 7.5 3.27614 7.5 3V2C7.5 1.72386 7.72386 1.5 8 1.5Z" fill="currentColor"/>
</svg>
