<svg width="16" height="16" viewBox="0 0 16 16" fill="none" xmlns="http://www.w3.org/2000/svg">
<path fill-rule="evenodd" clip-rule="evenodd" d="M4.99962 3.5C6.03751 3.5 6.95393 4.03305 7.49181 4.83984C7.94813 4.62208 8.4593 4.50006 8.99962 4.5C10.7659 4.5 12.2215 5.80167 12.4635 7.5H12.4996C14.1558 7.5 15.4996 8.84386 15.4996 10.5C15.4996 12.1561 14.1558 13.5 12.4996 13.5H5.49962C3.84365 13.4998 2.49962 12.156 2.49962 10.5C2.49962 9.85779 2.70348 9.26353 3.04748 8.77539C2.40297 8.22338 1.99962 7.40534 1.99962 6.5C1.99962 4.84398 3.34365 3.5002 4.99962 3.5ZM8.99962 5.5C8.48119 5.50008 7.99983 5.65605 7.60119 5.9248C7.59212 5.93171 7.58346 5.93899 7.57384 5.94531C6.9244 6.39619 6.49962 7.147 6.49962 8C6.49962 8.27614 6.27577 8.5 5.99962 8.5H5.49962C4.39594 8.5002 3.49962 9.39627 3.49962 10.5C3.49962 11.6037 4.39594 12.4998 5.49962 12.5H12.4996C13.6035 12.5 14.4996 11.6039 14.4996 10.5C14.4996 9.39614 13.6035 8.5 12.4996 8.5H11.9996C11.7237 8.4998 11.4996 8.27602 11.4996 8C11.4996 6.61614 10.3835 5.5 8.99962 5.5ZM4.99962 4.5C3.89594 4.5002 2.99962 5.39627 2.99962 6.5C2.99962 7.12897 3.29211 7.69452 3.75548 8.0625C4.24729 7.70978 4.84862 7.50008 5.49962 7.5H5.53576C5.65438 6.66727 6.06598 5.93082 6.66173 5.39551C6.30217 4.85476 5.68912 4.5 4.99962 4.5Z" fill="black"/>
<path d="M1.29357 8.06543C1.53361 7.92931 1.83886 8.01296 1.97521 8.25293C2.11147 8.49295 2.02665 8.79814 1.78673 8.93457L1.34728 9.18457C1.10726 9.32095 0.802114 9.23701 0.665639 8.99707C0.529245 8.75702 0.613136 8.45188 0.853139 8.31543L1.29357 8.06543Z" fill="black"/>
<path d="M0.65978 5.22754L1.15001 5.31836C1.42153 5.36823 1.60111 5.62888 1.55138 5.90039C1.50132 6.17177 1.24082 6.35162 0.96935 6.30176L0.480093 6.21191C0.208733 6.16201 0.0282067 5.90125 0.0777488 5.62988C0.127708 5.35864 0.388497 5.17807 0.65978 5.22754Z" fill="black"/>
<path d="M1.79259 2.66309C2.00601 2.48804 2.32153 2.51912 2.49669 2.73242L2.81603 3.12305C2.99117 3.3365 2.9601 3.651 2.74669 3.82617C2.53322 4.00117 2.21868 3.97025 2.04357 3.75684L1.72326 3.36719C1.54822 3.15373 1.57919 2.83822 1.79259 2.66309Z" fill="black"/>
<path d="M7.50353 2.73242C7.67861 2.51935 7.99328 2.48843 8.20666 2.66309C8.42011 2.83823 8.45109 3.15371 8.27599 3.36719L7.95666 3.75684C7.78149 3.97031 7.46603 4.00133 7.25255 3.82617C7.03949 3.65104 7.00845 3.33641 7.18322 3.12305L7.50353 2.73242Z" fill="black"/>
<path d="M4.99962 1.5C5.27577 1.5 5.49962 1.72386 5.49962 2V2.5C5.49962 2.77614 5.27577 3 4.99962 3C4.72365 2.9998 4.49962 2.77602 4.49962 2.5V2C4.49962 1.72398 4.72365 1.5002 4.99962 1.5Z" fill="black"/>
</svg>
