<svg width="16" height="16" viewBox="0 0 16 16" fill="none" xmlns="http://www.w3.org/2000/svg">
<path fill-rule="evenodd" clip-rule="evenodd" d="M8.85059 2.52051C10.2663 2.60763 11.6532 3.18564 12.7334 4.26563C13.9116 5.44379 14.4901 6.98385 14.4902 8.50977C14.4902 10.0364 13.901 11.5852 12.7334 12.7529C11.5552 13.9312 10.0162 14.5097 8.49023 14.5098C6.96344 14.5098 5.4139 13.9207 4.24609 12.7529C3.16612 11.6727 2.5881 10.2858 2.50098 8.87012C2.48848 8.66291 2.60563 8.46911 2.79492 8.38379C2.9842 8.29871 3.20667 8.33968 3.35352 8.48633C3.38899 8.52182 3.42007 8.55639 3.44141 8.58008C3.46474 8.606 3.47902 8.62157 3.49316 8.63574C3.5181 8.66068 3.54003 8.68841 3.55859 8.7168C4.97854 10.0592 7.22587 10.0358 8.61621 8.64551C10.0306 7.23074 10.0308 4.92732 8.61621 3.5127C8.60213 3.49865 8.58649 3.48428 8.56055 3.46094C8.53686 3.43963 8.50231 3.40855 8.4668 3.37305C8.3201 3.22615 8.27907 3.00378 8.36426 2.81446C8.44973 2.62526 8.64335 2.50782 8.85059 2.52051ZM10.0557 3.76074C11.0802 5.53124 10.8366 7.83989 9.32324 9.35352C7.81417 10.8622 5.5154 11.1085 3.74707 10.0947C3.98418 10.8086 4.38539 11.478 4.95312 12.0459C5.92532 13.0181 7.21703 13.5098 8.49023 13.5098C9.76407 13.5097 11.0447 13.0275 12.0264 12.0459C12.9983 11.0738 13.4902 9.78279 13.4902 8.50977C13.4901 7.23601 13.008 5.95425 12.0264 4.97266C11.4533 4.39979 10.7768 3.99699 10.0557 3.76074Z" fill="currentColor"/>
<path fill-rule="evenodd" clip-rule="evenodd" d="M5.00195 2.5C5.1911 2.50074 5.36409 2.60794 5.44824 2.77735L6.03223 3.95703L7.22363 4.55274C7.39302 4.63743 7.5 4.81062 7.5 5C7.5 5.18939 7.39302 5.36257 7.22363 5.44727L6.03223 6.04199L5.44824 7.22266C5.36409 7.39207 5.1911 7.49926 5.00195 7.5C4.81257 7.50057 4.63892 7.39375 4.55371 7.22461L3.95801 6.04102L2.77539 5.44629C2.60674 5.36133 2.5 5.18885 2.5 5C2.5 4.81116 2.60674 4.63867 2.77539 4.55371L3.95801 3.95801L4.55371 2.77539L4.58984 2.71485C4.68272 2.58121 4.83627 2.4995 5.00195 2.5ZM4.77637 4.55469C4.72816 4.65039 4.65039 4.72816 4.55469 4.77637L4.11035 5L4.55469 5.22364L4.62305 5.26465C4.68762 5.31134 4.74017 5.37346 4.77637 5.44531L4.99609 5.88086L5.21191 5.44727C5.26025 5.35003 5.33939 5.27122 5.43652 5.22266L5.88184 5L5.43652 4.77735C5.33939 4.72878 5.26025 4.64998 5.21191 4.55274L4.99609 4.11817L4.77637 4.55469Z" fill="currentColor"/>
</svg>
