<svg width="16" height="16" viewBox="0 0 16 16" fill="none" xmlns="http://www.w3.org/2000/svg">
<path d="M7.75 14L8 13.5" stroke="black" stroke-linecap="round" stroke-linejoin="round"/>
<path d="M9.75 14L10 13.5" stroke="black" stroke-linecap="round" stroke-linejoin="round"/>
<path d="M11.75 14L12 13.5" stroke="black" stroke-linecap="round" stroke-linejoin="round"/>
<path d="M5.75 14L6 13.5" stroke="black" stroke-linecap="round" stroke-linejoin="round"/>
<path d="M3.75 14L4 13.5" stroke="black" stroke-linecap="round" stroke-linejoin="round"/>
<path d="M12 12C13.66 12 15 10.66 15 9C15 7.34 13.66 6 12 6H11.95C11.71 4.31 10.26 3 8.5 3C6.74 3 5.29 4.31 5.05 6H4C2.34 6 1 7.34 1 9C1 10.66 2.34 12 4 12H12Z" stroke="black" stroke-linecap="round" stroke-linejoin="round"/>
</svg>
