<svg width="16" height="16" viewBox="0 0 16 16" fill="none" xmlns="http://www.w3.org/2000/svg">
<path d="M5.99964 10.5C6.27578 10.5 6.49964 10.7239 6.49964 11V11.6348L7.05042 11.3174C7.28955 11.1795 7.59503 11.2609 7.73304 11.5C7.87103 11.7392 7.78862 12.0446 7.54944 12.1826L6.99964 12.499L7.54944 12.8174C7.78862 12.9554 7.87103 13.2608 7.73304 13.5C7.59503 13.7391 7.28955 13.8205 7.05042 13.6826L6.49964 13.3643V14C6.49964 14.2761 6.27578 14.5 5.99964 14.5C5.72367 14.4998 5.49964 14.276 5.49964 14V13.3652L4.94983 13.6826C4.71076 13.8205 4.40527 13.7389 4.26722 13.5C4.12936 13.261 4.21099 12.9555 4.44983 12.8174L4.99964 12.499L4.44983 12.1826C4.21099 12.0445 4.12935 11.739 4.26722 11.5C4.40527 11.2611 4.71076 11.1795 4.94983 11.3174L5.49964 11.6338V11C5.49964 10.724 5.72367 10.5002 5.99964 10.5Z" fill="black"/>
<path fill-rule="evenodd" clip-rule="evenodd" d="M4.99964 3.5C6.03752 3.5 6.95394 4.03305 7.49183 4.83984C7.94814 4.62208 8.45931 4.50006 8.99964 4.5C10.7659 4.5 12.2216 5.80167 12.4635 7.5H12.4996C14.1558 7.5 15.4996 8.84386 15.4996 10.5C15.4996 12.1561 14.1558 13.5 12.4996 13.5C12.2237 13.4998 11.9996 13.276 11.9996 13C11.9996 12.724 12.2237 12.5002 12.4996 12.5C13.6035 12.5 14.4996 11.6039 14.4996 10.5C14.4996 9.39614 13.6035 8.5 12.4996 8.5H11.9996C11.7237 8.4998 11.4996 8.27602 11.4996 8C11.4996 6.61614 10.3835 5.5 8.99964 5.5C8.4812 5.50008 7.99985 5.65605 7.6012 5.9248C7.59213 5.93171 7.58347 5.93899 7.57386 5.94531C6.92441 6.39619 6.49964 7.147 6.49964 8C6.49964 8.27614 6.27578 8.5 5.99964 8.5H5.49964C4.39595 8.5002 3.49964 9.39627 3.49964 10.5C3.49964 10.6319 3.51486 10.7706 3.54065 10.9082C3.59135 11.1794 3.41329 11.4401 3.14222 11.4912C2.87093 11.5419 2.6091 11.3631 2.55823 11.0918C2.52407 10.9095 2.49964 10.7079 2.49964 10.5C2.49964 9.85779 2.70349 9.26353 3.04749 8.77539C2.40299 8.22338 1.99964 7.40534 1.99964 6.5C1.99964 4.84398 3.34367 3.5002 4.99964 3.5ZM4.99964 4.5C3.89595 4.5002 2.99964 5.39627 2.99964 6.5C2.99964 7.12897 3.29213 7.69452 3.7555 8.0625C4.24731 7.70978 4.84863 7.50008 5.49964 7.5H5.53577C5.65439 6.66727 6.066 5.93082 6.66175 5.39551C6.30219 4.85476 5.68914 4.5 4.99964 4.5Z" fill="black"/>
<path d="M9.99964 8.5C10.2758 8.5 10.4996 8.72386 10.4996 9V9.63477L11.0504 9.31738C11.2895 9.17951 11.595 9.26095 11.733 9.5C11.871 9.73919 11.7886 10.0446 11.5494 10.1826L10.9996 10.499L11.5494 10.8174C11.7886 10.9554 11.871 11.2608 11.733 11.5C11.595 11.7391 11.2896 11.8205 11.0504 11.6826L10.4996 11.3643V12C10.4996 12.2761 10.2758 12.5 9.99964 12.5C9.72367 12.4998 9.49964 12.276 9.49964 12V11.3652L8.94983 11.6826C8.71076 11.8205 8.40527 11.7389 8.26722 11.5C8.12936 11.261 8.21099 10.9555 8.44983 10.8174L8.99964 10.499L8.44983 10.1826C8.21099 10.0445 8.12935 9.73904 8.26722 9.5C8.40527 9.26109 8.71076 9.17954 8.94983 9.31738L9.49964 9.63379V9C9.49964 8.72398 9.72367 8.5002 9.99964 8.5Z" fill="black"/>
<path d="M1.29358 8.06543C1.53362 7.92932 1.83888 8.01297 1.97522 8.25293C2.11147 8.49294 2.02666 8.79814 1.78675 8.93457L1.34729 9.18457C1.10727 9.32095 0.802132 9.237 0.665654 8.99707C0.529255 8.75702 0.613148 8.45188 0.853154 8.31543L1.29358 8.06543Z" fill="black"/>
<path d="M0.659795 5.22754L1.15003 5.31836C1.42155 5.36823 1.60113 5.62888 1.5514 5.90039C1.50134 6.17178 1.24084 6.35162 0.969365 6.30176L0.480107 6.21191C0.208758 6.162 0.0282225 5.90125 0.0777635 5.62988C0.127721 5.35864 0.388517 5.17808 0.659795 5.22754Z" fill="black"/>
<path d="M1.79261 2.66309C2.00603 2.48804 2.32154 2.51912 2.49671 2.73242L2.81604 3.12305C2.99118 3.3365 2.96012 3.651 2.74671 3.82617C2.53323 4.00117 2.2187 3.97026 2.04358 3.75684L1.72327 3.36719C1.54823 3.15373 1.57921 2.83822 1.79261 2.66309Z" fill="black"/>
<path d="M7.50354 2.73242C7.67862 2.51935 7.99329 2.48843 8.20667 2.66309C8.42013 2.83823 8.4511 3.15371 8.27601 3.36719L7.95667 3.75684C7.78151 3.97032 7.46605 4.00133 7.25257 3.82617C7.03951 3.65104 7.00847 3.33641 7.18323 3.12305L7.50354 2.73242Z" fill="black"/>
<path d="M4.99964 1.5C5.27578 1.5 5.49964 1.72386 5.49964 2V2.5C5.49964 2.77614 5.27578 3 4.99964 3C4.72367 2.9998 4.49964 2.77602 4.49964 2.5V2C4.49964 1.72398 4.72367 1.5002 4.99964 1.5Z" fill="black"/>
</svg>
