<svg width="16" height="16" viewBox="0 0 16 16" fill="none" xmlns="http://www.w3.org/2000/svg">
<path d="M3.55273 13.2764C3.67623 13.0294 3.97664 12.9292 4.22363 13.0527C4.47062 13.1762 4.57076 13.4766 4.44727 13.7236L4.19727 14.2236C4.07377 14.4706 3.77336 14.5708 3.52637 14.4473C3.27938 14.3238 3.17924 14.0234 3.30273 13.7764L3.55273 13.2764ZM5.55273 13.2764C5.67623 13.0294 5.97664 12.9292 6.22363 13.0527C6.47062 13.1762 6.57076 13.4766 6.44727 13.7236L6.19727 14.2236C6.07377 14.4706 5.77336 14.5708 5.52637 14.4473C5.27938 14.3238 5.17924 14.0234 5.30273 13.7764L5.55273 13.2764ZM7.55273 13.2764C7.67623 13.0294 7.97664 12.9292 8.22363 13.0527C8.47062 13.1762 8.57076 13.4766 8.44727 13.7236L8.19727 14.2236C8.07377 14.4706 7.77336 14.5708 7.52637 14.4473C7.27938 14.3238 7.17924 14.0234 7.30273 13.7764L7.55273 13.2764ZM9.55273 13.2764C9.67623 13.0294 9.97664 12.9292 10.2236 13.0527C10.4706 13.1762 10.5708 13.4766 10.4473 13.7236L10.1973 14.2236C10.0738 14.4706 9.77336 14.5708 9.52637 14.4473C9.27938 14.3238 9.17924 14.0234 9.30273 13.7764L9.55273 13.2764ZM11.5527 13.2764C11.6762 13.0294 11.9766 12.9292 12.2236 13.0527C12.4706 13.1762 12.5708 13.4766 12.4473 13.7236L12.1973 14.2236C12.0738 14.4706 11.7734 14.5708 11.5264 14.4473C11.2794 14.3238 11.1792 14.0234 11.3027 13.7764L11.5527 13.2764ZM8.5 2.5C10.3688 2.5 11.9282 3.78988 12.3633 5.51758C14.1281 5.69869 15.5 7.18651 15.5 9C15.5 10.9361 13.9361 12.5 12 12.5H4C2.06386 12.5 0.5 10.9361 0.5 9C0.5 7.06386 2.06386 5.5 4 5.5H4.6416C5.0828 3.78119 6.63756 2.5 8.5 2.5ZM8.5 3.5C6.99475 3.5 5.75073 4.62107 5.54492 6.07031C5.5099 6.31681 5.29878 6.5 5.0498 6.5H4C2.61614 6.5 1.5 7.61614 1.5 9C1.5 10.3839 2.61614 11.5 4 11.5H12C13.3839 11.5 14.5 10.3839 14.5 9C14.5 7.61614 13.3839 6.5 12 6.5H11.9502C11.7012 6.5 11.4901 6.31681 11.4551 6.07031C11.2493 4.62107 10.0052 3.5 8.5 3.5Z" fill="black"/>
</svg>
