<svg width="16" height="16" viewBox="0 0 16 16" fill="none" xmlns="http://www.w3.org/2000/svg">
<path d="M11.5 6.5C11.5 5.67713 11.1658 4.92491 10.6191 4.38672L10.6133 4.38086C10.0751 3.8342 9.32287 3.5 8.5 3.5C7.67713 3.5 6.92491 3.8342 6.38672 4.38086L6.37988 4.38672C6.02534 4.73459 5.76542 5.17425 5.62402 5.66406C6.24711 5.84878 6.835 6.18852 7.32324 6.67676C7.5185 6.87202 7.5185 7.18853 7.32324 7.38379C7.12796 7.57878 6.81138 7.57896 6.61621 7.38379C6.03203 6.79961 5.26032 6.5 4.5 6.5C3.67713 6.5 2.92491 6.8342 2.38672 7.38086L2.38086 7.38672C1.8342 7.92491 1.5 8.67713 1.5 9.5C1.5 11.1539 2.84614 12.5 4.5 12.5H12C12.6908 12.5 13.3156 12.2176 13.7666 11.7666C14.2176 11.3156 14.5 10.6908 14.5 10C14.5 8.61614 13.3839 7.5 12 7.5C11.7239 7.5 11.5 7.27614 11.5 7V6.5ZM12.5 6.53516C14.1984 6.77703 15.5 8.23365 15.5 10C15.5 10.9692 15.1026 11.8446 14.4736 12.4736C13.8446 13.1026 12.9692 13.5 12 13.5H4.5C2.29386 13.5 0.5 11.7061 0.5 9.5C0.5 8.40295 0.94643 7.39563 1.67969 6.67383C2.40109 5.94399 3.40582 5.5 4.5 5.5C4.54394 5.5 4.58788 5.50144 4.63184 5.50293C4.81101 4.80437 5.17164 4.17132 5.67969 3.67285C6.40105 2.94331 7.40606 2.5 8.5 2.5C9.59418 2.5 10.5989 2.94399 11.3203 3.67383L11.4551 3.8125C12.1081 4.52192 12.5 5.47162 12.5 6.5V6.53516Z" fill="black"/>
</svg>
