<svg width="16" height="16" viewBox="0 0 16 16" fill="none" xmlns="http://www.w3.org/2000/svg">
<path d="M12 13.5C12.2761 13.5 12.5 13.7239 12.5 14C12.5 14.2761 12.2761 14.5 12 14.5H5C4.72386 14.5 4.5 14.2761 4.5 14C4.5 13.7239 4.72386 13.5 5 13.5H12Z" fill="currentColor"/>
<path d="M8.5 2.5C10.3695 2.5 11.9289 3.79091 12.3633 5.51953C13.7302 5.65933 14.8616 6.57892 15.3018 7.83496C15.3552 7.98772 15.3318 8.15698 15.2383 8.28906C15.1445 8.42124 14.9921 8.49997 14.8301 8.5H8C7.72386 8.5 7.5 8.27614 7.5 8C7.5 7.72386 7.72386 7.5 8 7.5H14.0029C13.5481 6.89149 12.822 6.5 12 6.5H11.9502C11.7012 6.5 11.4901 6.31681 11.4551 6.07031C11.2493 4.62107 10.0052 3.5 8.5 3.5C6.99475 3.5 5.75073 4.62107 5.54492 6.07031C5.5099 6.31681 5.29878 6.5 5.0498 6.5H4C2.61614 6.5 1.5 7.61614 1.5 9C1.5 10.3839 2.61614 11.5 4 11.5C4.27614 11.5 4.5 11.7239 4.5 12C4.5 12.2761 4.27614 12.5 4 12.5C2.06386 12.5 0.5 10.9361 0.5 9C0.5 7.06386 2.06386 5.5 4 5.5H4.6416C5.0828 3.78119 6.63756 2.5 8.5 2.5Z" fill="currentColor"/>
<path d="M13 11.5C13.2761 11.5 13.5 11.7239 13.5 12C13.5 12.2761 13.2761 12.5 13 12.5H6C5.72386 12.5 5.5 12.2761 5.5 12C5.5 11.7239 5.72386 11.5 6 11.5H13Z" fill="currentColor"/>
<path d="M14 9.5C14.2761 9.5 14.5 9.72386 14.5 10C14.5 10.2761 14.2761 10.5 14 10.5H7C6.72386 10.5 6.5 10.2761 6.5 10C6.5 9.72386 6.72386 9.5 7 9.5H14Z" fill="currentColor"/>
</svg>
