<svg width="16" height="16" viewBox="0 0 16 16" fill="none" xmlns="http://www.w3.org/2000/svg">
<path d="M8.01562 9.50098C8.03625 9.50164 8.05672 9.50363 8.07715 9.50684C8.0907 9.50894 8.10402 9.51148 8.11719 9.51465C8.13539 9.51904 8.15318 9.52479 8.1709 9.53125C8.18031 9.53468 8.19008 9.53705 8.19922 9.54102C8.20309 9.5427 8.2071 9.54411 8.21094 9.5459L8.2793 9.58496C8.2814 9.58638 8.28308 9.5884 8.28516 9.58984C8.30909 9.60653 8.33217 9.62514 8.35352 9.64648L10.3535 11.6465C10.5488 11.8417 10.5488 12.1583 10.3535 12.3535C10.1583 12.5488 9.84175 12.5488 9.64648 12.3535L8.5 11.207V14C8.5 14.2761 8.27614 14.5 8 14.5C7.72386 14.5 7.5 14.2761 7.5 14V11.207L6.35352 12.3535C6.15825 12.5488 5.84175 12.5488 5.64648 12.3535C5.45122 12.1583 5.45123 11.8417 5.64648 11.6465L7.64648 9.64648L7.72461 9.58203C7.74996 9.56529 7.77634 9.55069 7.80371 9.53906C7.80748 9.53745 7.81161 9.53667 7.81543 9.53516C7.84061 9.52519 7.86638 9.51743 7.89258 9.51172C7.90092 9.50989 7.90948 9.50922 7.91797 9.50781C7.94067 9.50408 7.96338 9.50157 7.98633 9.50098C7.99088 9.50085 7.99542 9.5 8 9.5C8.00524 9.5 8.01043 9.50082 8.01562 9.50098Z" fill="black"/>
<path d="M3 7.5C3.27614 7.5 3.5 7.72386 3.5 8C3.5 8.27614 3.27614 8.5 3 8.5H2C1.72386 8.5 1.5 8.27614 1.5 8C1.5 7.72386 1.72386 7.5 2 7.5H3Z" fill="black"/>
<path fill-rule="evenodd" clip-rule="evenodd" d="M8 4.5C9.93614 4.5 11.5 6.06386 11.5 8C11.5 8.27614 11.2761 8.5 11 8.5H5C4.72386 8.5 4.5 8.27614 4.5 8C4.5 6.06386 6.06386 4.5 8 4.5ZM8 5.5C6.78746 5.5 5.78055 6.35693 5.5498 7.5H10.4502C10.2195 6.35693 9.21254 5.5 8 5.5Z" fill="black"/>
<path d="M14 7.5C14.2761 7.5 14.5 7.72386 14.5 8C14.5 8.27614 14.2761 8.5 14 8.5H13C12.7239 8.5 12.5 8.27614 12.5 8C12.5 7.72386 12.7239 7.5 13 7.5H14Z" fill="black"/>
<path d="M3.39355 3.40918C3.58726 3.21285 3.90395 3.21004 4.10059 3.40332L4.81152 4.10352C5.00788 4.29726 5.00979 4.61392 4.81641 4.81055C4.62254 5.00718 4.30602 5.00929 4.10938 4.81543L3.39941 4.11621C3.20304 3.92247 3.20015 3.60581 3.39355 3.40918Z" fill="black"/>
<path d="M11.8896 3.40332C12.0863 3.21009 12.403 3.21276 12.5967 3.40918C12.79 3.60575 12.788 3.92245 12.5918 4.11621L11.8809 4.81543C11.6842 5.00927 11.3677 5.00717 11.1738 4.81055C10.9803 4.61388 10.9832 4.29728 11.1797 4.10352L11.8896 3.40332Z" fill="black"/>
<path d="M8 1.5C8.27614 1.5 8.5 1.72386 8.5 2V3C8.5 3.27614 8.27614 3.5 8 3.5C7.72386 3.5 7.5 3.27614 7.5 3V2C7.5 1.72386 7.72386 1.5 8 1.5Z" fill="black"/>
</svg>
