<svg width="16" height="16" viewBox="0 0 16 16" fill="none" xmlns="http://www.w3.org/2000/svg">
<path d="M10.5 9.5C11.6061 9.5 12.5 10.3939 12.5 11.5C12.5 12.6061 11.6061 13.5 10.5 13.5C9.39386 13.5 8.5 12.6061 8.5 11.5C8.5 11.2239 8.72386 11 9 11C9.27614 11 9.5 11.2239 9.5 11.5C9.5 12.0539 9.94614 12.5 10.5 12.5C11.0539 12.5 11.5 12.0539 11.5 11.5C11.5 10.9461 11.0539 10.5 10.5 10.5H2C1.72386 10.5 1.5 10.2761 1.5 10C1.5 9.72386 1.72386 9.5 2 9.5H10.5Z" fill="black"/>
<path d="M7 11.5C7.27614 11.5 7.5 11.7239 7.5 12C7.5 12.2761 7.27614 12.5 7 12.5H2C1.72386 12.5 1.5 12.2761 1.5 12C1.5 11.7239 1.72386 11.5 2 11.5H7Z" fill="black"/>
<path d="M12.5 4.5C13.6061 4.5 14.5 5.39386 14.5 6.5C14.5 7.60614 13.6061 8.5 12.5 8.5H2C1.72386 8.5 1.5 8.27614 1.5 8C1.5 7.72386 1.72386 7.5 2 7.5H12.5C13.0539 7.5 13.5 7.05386 13.5 6.5C13.5 5.94614 13.0539 5.5 12.5 5.5C11.9461 5.5 11.5 5.94614 11.5 6.5C11.5 6.77614 11.2761 7 11 7C10.7239 7 10.5 6.77614 10.5 6.5C10.5 5.39386 11.3939 4.5 12.5 4.5Z" fill="black"/>
<path d="M7.5 2.5C8.60614 2.5 9.5 3.39386 9.5 4.5C9.5 5.60614 8.60614 6.5 7.5 6.5H2C1.72386 6.5 1.5 6.27614 1.5 6C1.5 5.72386 1.72386 5.5 2 5.5H7.5C8.05386 5.5 8.5 5.05386 8.5 4.5C8.5 3.94614 8.05386 3.5 7.5 3.5C6.94614 3.5 6.5 3.94614 6.5 4.5C6.5 4.77614 6.27614 5 6 5C5.72386 5 5.5 4.77614 5.5 4.5C5.5 3.39386 6.39386 2.5 7.5 2.5Z" fill="black"/>
</svg>
