<svg width="16" height="16" viewBox="0 0 16 16" fill="none" xmlns="http://www.w3.org/2000/svg">
<path fill-rule="evenodd" clip-rule="evenodd" d="M12.0001 2.5C12.2762 2.50007 12.5001 2.7239 12.5001 3V7C12.5001 9.31871 10.7481 11.2252 8.49524 11.4717L8.4845 12.5H11.7931L12.6466 11.6465C12.8419 11.4513 13.1584 11.4512 13.3536 11.6465C13.5488 11.8417 13.5488 12.1583 13.3536 12.3535L12.7072 13L13.3536 13.6465C13.5488 13.8417 13.5488 14.1583 13.3536 14.3535C13.1584 14.5488 12.8419 14.5487 12.6466 14.3535L11.7931 13.5H8.47473L8.46985 14.0049C8.46708 14.281 8.24104 14.5027 7.96497 14.5C7.68895 14.4972 7.46716 14.2711 7.46985 13.9951L7.47473 13.5H4.20715L4.35364 13.6465C4.54881 13.8417 4.54881 14.1583 4.35364 14.3535C4.1584 14.5488 3.84187 14.5487 3.64661 14.3535L2.64661 13.3535C2.45134 13.1583 2.45134 12.8417 2.64661 12.6465L3.64661 11.6465C3.84187 11.4513 4.1584 11.4512 4.35364 11.6465C4.54881 11.8417 4.54881 12.1583 4.35364 12.3535L4.20715 12.5H7.4845L7.49524 11.4707C5.24696 11.2199 3.50012 9.31545 3.50012 7V5.5H3.00012C2.72398 5.5 2.50012 5.27614 2.50012 5C2.50012 4.72386 2.72398 4.5 3.00012 4.5H3.50012C3.50012 3.39386 4.39398 2.5 5.50012 2.5C6.60621 2.50007 7.50012 3.3939 7.50012 4.5V6C7.50012 6.08681 7.52482 6.16772 7.56458 6.23926C7.92587 4.11573 9.77332 2.5 12.0001 2.5ZM5.50012 3.5C4.94626 3.5 4.50012 3.94614 4.50012 4.5H5.00012C5.27621 4.50007 5.50012 4.7239 5.50012 5C5.50012 5.2761 5.27621 5.49993 5.00012 5.5H4.50012V7C4.50012 8.93386 6.06626 10.5 8.00012 10.5C9.76412 10.4999 11.2215 9.19668 11.464 7.5H8.00012C7.17398 7.5 6.50012 6.82614 6.50012 6V4.5C6.50012 3.94618 6.05392 3.50007 5.50012 3.5ZM11.5001 3.53516C9.96667 3.75422 8.75539 4.96657 8.53625 6.5H11.5001V3.53516Z" fill="black"/>
</svg>
