<svg width="16" height="16" viewBox="0 0 16 16" fill="none" xmlns="http://www.w3.org/2000/svg">
<path fill-rule="evenodd" clip-rule="evenodd" d="M11 2C11.55 2 12 2.45 12 3V4C12.55 4 13 4.45 13 5V13C13 13.55 12.56 14 12 14H4C3.45 14 3 13.55 3 13V3C3 2.45 3.45 2 4 2H11ZM8 6.5C7.17 6.5 6.5 7.17 6.5 8C6.5 8.5 6.74012 8.93996 7.12012 9.20996C6.46012 9.53996 6 10.21 6 11C6 11.28 6.22 11.5 6.5 11.5H9.5C9.78 11.5 10 11.28 10 11C10 10.21 9.53988 9.53996 8.87988 9.20996C9.24988 8.93996 9.5 8.5 9.5 8C9.5 7.17 8.83 6.5 8 6.5ZM4.5 3C4.22 3 4 3.22 4 3.5C4 3.78 4.22 4 4.5 4H11V3.5C11 3.22 10.78 3 10.5 3H4.5Z" fill="black"/>
</svg>
