<svg width="16" height="16" viewBox="0 0 16 16" fill="none" xmlns="http://www.w3.org/2000/svg">
<path fill-rule="evenodd" clip-rule="evenodd" d="M8 2C11.31 2 14 4.46 14 7.5V7.50977C14 8.97965 13.3599 10.3196 12.3301 11.3096L12.7598 13.0303C12.8596 13.4301 12.46 13.7701 12.0801 13.6104L9.95996 12.7002C9.33999 12.8902 8.68996 13 8 13C4.69 13 2 10.54 2 7.5C2 4.46 4.69 2 8 2ZM10.8604 5.46973C10.6605 5.26983 10.3504 5.27005 10.1504 5.46973L7.16992 8.4502L5.86035 7.13965C5.66047 6.93977 5.3504 6.94001 5.15039 7.13965C4.95039 7.33964 4.9504 7.64961 5.15039 7.84961L6.82031 9.51953C6.9103 9.61952 7.03994 9.66991 7.16992 9.66992C7.29992 9.66992 7.43051 9.60953 7.52051 9.51953L10.8604 6.17969C11.06 5.97969 11.0602 5.66962 10.8604 5.46973Z" fill="black"/>
</svg>
