<svg width="16" height="16" viewBox="0 0 16 16" fill="none" xmlns="http://www.w3.org/2000/svg">
<path fill-rule="evenodd" clip-rule="evenodd" d="M8 2C11.31 2 14 4.46 14 7.5V7.50977C14 8.97964 13.3599 10.3196 12.3301 11.3096L12.7598 13.0303C12.8596 13.4301 12.46 13.7701 12.0801 13.6104L9.95996 12.7002C9.33999 12.8902 8.68997 13 8 13C4.69 13 2 10.54 2 7.5C2 4.46 4.69 2 8 2ZM8 9.5C7.59 9.5 7.25 9.84 7.25 10.25C7.25 10.66 7.59 11 8 11C8.41 11 8.75 10.66 8.75 10.25C8.75 9.84 8.41 9.5 8 9.5ZM8 3.99023C6.9 3.99023 6 4.89023 6 5.99023C6.00012 6.27012 6.22008 6.49023 6.5 6.49023C6.77992 6.49023 6.99988 6.27012 7 5.99023C7 5.44023 7.46 4.99023 8 4.99023C8.53991 4.99023 8.99985 5.42985 9 5.96973V6C9 6.31999 8.76014 6.63027 8.41016 6.78027L8.16016 6.87988C7.76016 7.04988 7.5 7.44012 7.5 7.87012V8.24023C7.50012 8.52012 7.72008 8.74023 8 8.74023C8.27992 8.74023 8.49988 8.52012 8.5 8.24023L8.54004 7.80957L8.79004 7.70996C9.50993 7.40999 9.98988 6.75015 10 6.03027V5.99023C10 4.89023 9.1 3.99023 8 3.99023Z" fill="currentColor"/>
</svg>
