<svg width="16" height="16" viewBox="0 0 16 16" fill="none" xmlns="http://www.w3.org/2000/svg">
<path d="M4.2403 3.45996C4.50019 3.3002 4.83995 3.39996 4.96002 3.67969L4.95026 3.66992L5.88971 5.75977C5.99968 5.98971 5.91991 6.25961 5.71002 6.38965C5.57006 6.47962 5.40025 6.60006 5.2403 6.75C4.5603 7.39 5.38987 8.77043 6.29987 9.69043C7.20987 10.6104 8.60033 11.43 9.2403 10.75C9.39011 10.5902 9.50972 10.4202 9.59967 10.2803C9.72967 10.0703 10.0005 9.99961 10.2305 10.0996L12.3204 11.04C12.6001 11.1601 12.6999 11.4999 12.5401 11.7598C12.3501 12.0698 12.1503 12.3303 11.9503 12.5303C10.3902 14.1002 7.21992 13.4601 4.87994 11.1201C2.53996 8.78013 1.90982 5.60981 3.46979 4.0498C3.66979 3.8498 3.9303 3.64996 4.2403 3.45996ZM11.0001 2C11.8066 2.00001 12.5371 2.32007 13.0762 2.83789C13.0921 2.85033 13.1095 2.86232 13.1241 2.87695C13.139 2.89195 13.1505 2.90947 13.1631 2.92578C13.6801 3.46476 14.0001 4.19421 14.0001 5C14.0001 6.65684 12.6569 7.99998 11.0001 8C10.1935 8 9.46301 7.67992 8.92389 7.16211C8.90819 7.14982 8.89149 7.13846 8.87701 7.12402C8.86238 7.10939 8.85039 7.09206 8.83795 7.07617C8.32012 6.53705 8.00006 5.80656 8.00006 5C8.00006 3.34315 9.34321 2 11.0001 2ZM9.98541 6.72168C10.2831 6.89748 10.6293 7 11.0001 7C12.1046 6.99998 13.0001 6.10456 13.0001 5C13.0001 4.62926 12.8975 4.28302 12.7217 3.98535L9.98541 6.72168ZM11.0001 3C9.89549 3 9.00006 3.89543 9.00006 5C9.00006 5.37076 9.10257 5.71697 9.27838 6.01465L12.0147 3.27832C11.717 3.10251 11.3708 3.00001 11.0001 3Z" fill="black"/>
</svg>
