<svg width="16" height="16" viewBox="0 0 16 16" fill="none" xmlns="http://www.w3.org/2000/svg">
<path d="M4.24028 3.45996C4.50016 3.30021 4.83993 3.39999 4.96001 3.67969L4.95024 3.66992L5.88969 5.75977C5.99966 5.98971 5.91989 6.25961 5.71001 6.38965C5.57005 6.47962 5.40023 6.60007 5.24028 6.75C4.56028 7.39 5.38985 8.77043 6.29985 9.69043C7.20985 10.6104 8.60031 11.43 9.24028 10.75C9.39009 10.5902 9.50971 10.4202 9.59965 10.2803C9.72965 10.0703 10.0005 9.99961 10.2305 10.0996L12.3204 11.04C12.6001 11.1601 12.6998 11.4999 12.5401 11.7598C12.3501 12.0698 12.1502 12.3303 11.9502 12.5303C10.3902 14.1002 7.21992 13.4601 4.87993 11.1201C2.53994 8.78013 1.90979 5.60981 3.46977 4.0498C3.66977 3.8498 3.93028 3.64996 4.24028 3.45996Z" fill="black"/>
<path d="M11 2.5C11.2762 2.50002 11.5 2.72387 11.5 3V4.5H13C13.2762 4.50002 13.5 4.72387 13.5 5C13.5 5.27613 13.2762 5.49998 13 5.5H11.5V7C11.5 7.27613 11.2762 7.49998 11 7.5C10.7239 7.5 10.5 7.27614 10.5 7V5.5H9.00004C8.7239 5.5 8.50004 5.27614 8.50004 5C8.50004 4.72386 8.7239 4.5 9.00004 4.5H10.5V3C10.5 2.72386 10.7239 2.5 11 2.5Z" fill="black"/>
</svg>
