<svg width="16" height="16" viewBox="0 0 16 16" fill="none" xmlns="http://www.w3.org/2000/svg">
<path d="M4.24025 3.45989C4.5001 3.30019 4.83988 3.39999 4.95997 3.67961L4.95021 3.66985L5.88966 5.75969C5.99963 5.98963 5.91984 6.25953 5.70997 6.38958C5.57003 6.47954 5.40019 6.60001 5.24025 6.74993C4.56025 7.38993 5.38982 8.77036 6.29982 9.69036C7.20982 10.6103 8.60027 11.4299 9.24025 10.7499C9.39007 10.5901 9.50968 10.4201 9.59962 10.2802C9.72958 10.0703 9.99955 10.0006 10.2295 10.1005L12.3203 11.04C12.6 11.16 12.6998 11.4998 12.5401 11.7597C12.3501 12.0697 12.1502 12.3302 11.9502 12.5302C10.3902 14.1002 7.2199 13.46 4.8799 11.12C2.53993 8.78005 1.90975 5.60972 3.46974 4.04973C3.66973 3.84975 3.93027 3.64987 4.24025 3.45989Z" fill="black"/>
<path d="M11 6.49993C11.2761 6.49993 11.5 6.72382 11.5 6.99993C11.5 7.27607 11.2762 7.49992 11 7.49993C10.7239 7.49993 10.5 7.27607 10.5 6.99993C10.5001 6.72382 10.7239 6.49993 11 6.49993Z" fill="black"/>
<path d="M9.58693 5.08684C10.3705 4.30335 11.6394 4.29889 12.417 5.08977C12.6101 5.28666 12.6077 5.60335 12.4111 5.7968C12.2144 5.99019 11.8977 5.98732 11.7041 5.79094C11.3217 5.40196 10.6904 5.39751 10.294 5.79387C10.0988 5.98897 9.78222 5.98868 9.58693 5.79387C9.39173 5.59861 9.3917 5.28208 9.58693 5.08684Z" fill="black"/>
<path d="M8.17677 3.67668C9.74204 2.1115 12.2688 2.11145 13.834 3.67668C14.0289 3.87191 14.0289 4.18855 13.834 4.38372C13.6388 4.57881 13.3222 4.57862 13.127 4.38372C11.9523 3.209 10.0585 3.20906 8.8838 4.38372C8.68864 4.57883 8.37204 4.57866 8.17677 4.38372C7.9816 4.18846 7.98159 3.87192 8.17677 3.67668Z" fill="black"/>
</svg>
