<svg width="16" height="16" viewBox="0 0 16 16" fill="none" xmlns="http://www.w3.org/2000/svg">
<path d="M4.24027 3.46C4.50016 3.30023 4.83993 3.4 4.96 3.67973L4.95023 3.66996L5.88968 5.7598C5.99966 5.98975 5.91989 6.25965 5.71 6.38969C5.57003 6.47966 5.40023 6.6001 5.24027 6.75004C4.56027 7.39004 5.38984 8.77047 6.29984 9.69047C7.20984 10.6104 8.6003 11.43 9.24027 10.75C9.39008 10.5902 9.50969 10.4202 9.59964 10.2803C9.72964 10.0703 10.0005 9.99965 10.2305 10.0996L12.3203 11.0401C12.6001 11.1602 12.6999 11.4999 12.5401 11.7598C12.3501 12.0698 12.1502 12.3303 11.9502 12.5303C10.3902 14.1003 7.21989 13.4601 4.87992 11.1202C2.53993 8.78017 1.9098 5.60986 3.46976 4.04984C3.66976 3.84984 3.93027 3.65 4.24027 3.46Z" fill="black"/>
<path d="M12.6465 2.64652C12.8418 2.45126 13.1583 2.45126 13.3535 2.64652C13.5488 2.84179 13.5488 3.1583 13.3535 3.35355L10.2071 6.50004H12C12.2762 6.50006 12.5 6.72391 12.5 7.00004C12.5 7.27615 12.2761 7.50002 12 7.50004H9.00003C8.96699 7.50004 8.93393 7.49678 8.9014 7.49027C8.85027 7.48005 8.80303 7.46011 8.75882 7.43559C8.71894 7.41347 8.68038 7.38741 8.64652 7.35355C8.5489 7.25593 8.50004 7.12797 8.50003 7.00004V4.00004C8.50003 3.7239 8.72389 3.50004 9.00003 3.50004C9.27616 3.50006 9.50003 3.72391 9.50003 4.00004V5.79301L12.6465 2.64652Z" fill="black"/>
</svg>
