<svg width="16" height="16" viewBox="0 0 16 16" fill="none" xmlns="http://www.w3.org/2000/svg">
<path d="M2.84003 3.26007C4.40003 1.70007 7.8803 2.65019 10.6203 5.38019C13.3601 8.11015 14.3004 11.6005 12.7404 13.1605C12.4604 13.4404 12.0499 13.6998 11.55 13.9398C11.2901 14.0597 10.9704 13.94 10.8703 13.6702L9.95038 11.2796C9.86056 11.0497 9.95016 10.7805 10.1799 10.6605C10.3299 10.5805 10.4505 10.5002 10.5305 10.4202C11.1603 9.79019 10.5701 8.15999 9.20038 6.80011C7.83045 5.44018 6.21033 4.8402 5.58026 5.47003C5.50031 5.54998 5.41998 5.66977 5.34003 5.81964C5.22003 6.03964 4.95991 6.14011 4.71991 6.05011L2.33026 5.13019C2.06026 5.03019 1.92975 4.70952 2.05975 4.44952C2.28971 3.94968 2.5601 3.54001 2.84003 3.26007Z" fill="currentColor"/>
</svg>
