<svg width="16" height="16" viewBox="0 0 16 16" fill="none" xmlns="http://www.w3.org/2000/svg">
<path d="M4.24025 3.46C4.50014 3.30024 4.83991 3.4 4.95998 3.67973L4.95021 3.66996L5.88967 5.7598C5.99964 5.98976 5.91988 6.25966 5.70998 6.38969C5.57002 6.47966 5.40021 6.6001 5.24025 6.75004C4.56025 7.39004 5.38982 8.77047 6.29982 9.69047C7.20983 10.6104 8.60029 11.43 9.24025 10.75C9.39007 10.5902 9.50968 10.4202 9.59963 10.2803C9.72953 10.0705 9.99962 9.99998 10.2295 10.0996L12.3203 11.0401C12.6 11.1602 12.6998 11.4999 12.5401 11.7598C12.3501 12.0698 12.1502 12.3303 11.9502 12.5303C10.3902 14.1003 7.21988 13.4601 4.8799 11.1202C2.53991 8.78016 1.90976 5.60985 3.46974 4.04984C3.66974 3.84984 3.93025 3.65 4.24025 3.46Z" fill="currentColor"/>
<path d="M9.6465 2.64652C9.84176 2.45126 10.1583 2.45126 10.3535 2.64652C10.5488 2.84179 10.5488 3.1583 10.3535 3.35355L10.207 3.50004H11.5C12.6062 3.50004 13.5 4.3939 13.5 5.50004C13.5 6.60616 12.6061 7.50004 11.5 7.50004H9.00002C8.72389 7.50004 8.50004 7.27616 8.50002 7.00004C8.50002 6.7239 8.72388 6.50004 9.00002 6.50004H11.5C12.0539 6.50004 12.5 6.05388 12.5 5.50004C12.5 4.94618 12.0539 4.50004 11.5 4.50004H10.207L10.3535 4.64652C10.5488 4.84179 10.5488 5.1583 10.3535 5.35355C10.1583 5.54879 9.84176 5.54879 9.6465 5.35355L8.6465 4.35355C8.61233 4.31938 8.58571 4.28058 8.56349 4.24027C8.53911 4.19606 8.51891 4.14879 8.50881 4.09769C8.49601 4.03306 8.4959 3.96603 8.50881 3.90141C8.519 3.85037 8.53905 3.80298 8.56349 3.75883C8.58564 3.71879 8.61253 3.6805 8.6465 3.64652L9.6465 2.64652Z" fill="currentColor"/>
</svg>
