<svg width="16" height="16" viewBox="0 0 16 16" fill="none" xmlns="http://www.w3.org/2000/svg">
<path d="M8.00977 5.08984C11.3197 5.08984 14.0097 6.8799 14.0098 9.08984C14.0098 9.36981 13.9599 9.69985 13.8799 10.0498C13.8099 10.3398 13.4899 10.5103 13.21 10.4004H13.2305L11.0898 9.58984C10.8499 9.49979 10.7095 9.24971 10.7695 9.00977C10.8095 8.84978 10.8496 8.63988 10.8496 8.41992C10.8796 7.48995 9.31952 7.08984 8.01953 7.08984C6.71964 7.08994 5.16047 7.48006 5.19043 8.41992C5.20042 8.63979 5.22957 8.83983 5.26953 9.00977C5.31952 9.25969 5.18008 9.49978 4.9502 9.58984L2.80957 10.4004C2.51972 10.51 2.20961 10.3396 2.13965 10.0498C2.04969 9.6999 2.00977 9.36978 2.00977 9.08984C2.00986 6.87995 4.69994 5.08993 8.00977 5.08984Z" fill="currentColor"/>
</svg>
