<svg width="16" height="16" viewBox="0 0 16 16" fill="none" xmlns="http://www.w3.org/2000/svg">
<path d="M4.24028 3.45996C4.50016 3.30021 4.83993 3.39999 4.96001 3.67969L4.95024 3.66992L5.88969 5.75977C5.99966 5.98971 5.91989 6.25961 5.71001 6.38965C5.57005 6.47962 5.40023 6.60007 5.24028 6.75C4.56028 7.39 5.38985 8.77043 6.29985 9.69043C7.20985 10.6104 8.60031 11.43 9.24028 10.75C9.39009 10.5902 9.50971 10.4202 9.59965 10.2803C9.72965 10.0703 10.0005 9.99961 10.2305 10.0996L12.3204 11.04C12.6001 11.1601 12.6998 11.4999 12.5401 11.7598C12.3501 12.0698 12.1502 12.3303 11.9502 12.5303C10.3902 14.1002 7.21992 13.4601 4.87993 11.1201C2.53994 8.78013 1.90979 5.60981 3.46977 4.0498C3.66977 3.8498 3.93028 3.64996 4.24028 3.45996Z" fill="currentColor"/>
<path d="M11.5 3C11.78 3.00002 12 3.22001 12 3.5V4L13.46 3.26953V3.25977C13.7099 3.13991 13.9998 3.31987 14 3.59961V6.38965C14 6.66958 13.71 6.85029 13.46 6.73047L12 6V6.5C12 6.77999 11.78 6.99998 11.5 7H8.50004C8.22004 7 8.00004 6.78 8.00004 6.5V3.5C8.00004 3.22 8.22004 3 8.50004 3H11.5Z" fill="currentColor"/>
</svg>
