<svg width="16" height="16" viewBox="0 0 16 16" fill="none" xmlns="http://www.w3.org/2000/svg">
<path d="M13 6.00977C13.5499 6.00977 13.9999 6.45988 14 7.00977V11.0098C14 11.5598 13.55 12.0098 13 12.0098H12V13.0703C11.9998 13.4701 11.5496 13.7102 11.2197 13.4902L9 12.0098H7C6.45 12.0098 6 11.5598 6 11.0098V7.00977C6.00013 6.45988 6.45008 6.00977 7 6.00977H13Z" fill="currentColor"/>
<path d="M9 2C9.55 2 10 2.45 10 3V5H7C5.9 5 5 5.9 5 7V9.33984L4.78027 9.49023C4.45036 9.71018 4.00023 9.47012 4 9.07031V8H3C2.45 8 2 7.55 2 7V3C2 2.45 2.45 2 3 2H9Z" fill="currentColor"/>
</svg>
