<svg width="16" height="16" viewBox="0 0 16 16" fill="none" xmlns="http://www.w3.org/2000/svg">
<path d="M9.64648 8.64648C9.84175 8.45122 10.1583 8.45122 10.3535 8.64648C10.5488 8.84175 10.5488 9.15825 10.3535 9.35352L8.70703 11L10.3535 12.6465C10.5488 12.8417 10.5488 13.1583 10.3535 13.3535C10.1583 13.5488 9.84175 13.5488 9.64648 13.3535L8 11.707L6.35352 13.3535C6.15825 13.5488 5.84175 13.5488 5.64648 13.3535C5.45122 13.1583 5.45122 12.8417 5.64648 12.6465L7.29297 11L5.64648 9.35352C5.45122 9.15825 5.45122 8.84175 5.64648 8.64648C5.84175 8.45122 6.15825 8.45122 6.35352 8.64648L8 10.293L9.64648 8.64648Z" fill="currentColor"/>
<path d="M8.00977 3.33008C11.3198 3.33008 14.0098 5.12008 14.0098 7.33008C14.0098 7.61007 13.9599 7.94006 13.8799 8.29004C13.8099 8.58001 13.4899 8.74964 13.21 8.63965H13.2305L11.0898 7.83008C10.8499 7.74005 10.7096 7.48993 10.7695 7.25C10.8095 7.09003 10.8496 6.88011 10.8496 6.66016C10.8796 5.73016 9.31953 5.33008 8.01953 5.33008C6.71962 5.33017 5.16043 5.72027 5.19043 6.66016C5.20043 6.88004 5.22955 7.08007 5.26953 7.25C5.31952 7.49995 5.18011 7.74004 4.9502 7.83008L2.80957 8.63965C2.51964 8.74945 2.20963 8.57995 2.13965 8.29004C2.04967 7.94009 2.00977 7.61005 2.00977 7.33008C2.00977 5.12013 4.69988 3.33017 8.00977 3.33008Z" fill="currentColor"/>
</svg>
