<svg width="16" height="16" viewBox="0 0 16 16" fill="none" xmlns="http://www.w3.org/2000/svg">
<path d="M4.96 3.68C4.84 3.4 4.5 3.3 4.24 3.46C3.93 3.65 3.67001 3.85 3.47001 4.05C1.91001 5.61 2.54002 8.78 4.88002 11.12C7.22002 13.46 10.39 14.1 11.95 12.53C12.15 12.33 12.35 12.07 12.54 11.76C12.7 11.5 12.6 11.16 12.32 11.04L10.23 10.1C10 10 9.73002 10.07 9.60002 10.28C9.51002 10.42 9.39 10.59 9.24 10.75C8.6 11.43 7.21 10.61 6.3 9.69C5.39 8.77 4.56 7.39 5.24 6.75C5.4 6.6 5.57 6.48 5.71 6.39C5.92 6.26 6.00003 5.99 5.89003 5.76L4.95003 3.67L4.96 3.68Z" fill="black"/>
<path d="M11 8.5C11.4142 8.5 11.75 8.16421 11.75 7.75C11.75 7.33579 11.4142 7 11 7C10.5858 7 10.25 7.33579 10.25 7.75C10.25 8.16421 10.5858 8.5 11 8.5Z" fill="black"/>
<path d="M11 6.30001C10.72 6.30001 10.5 6.08001 10.5 5.80001V5.52001C10.5 5.14001 10.72 4.81001 11.07 4.66001L11.25 4.58001C11.46 4.49001 11.62 4.30001 11.62 4.11001C11.62 3.76001 11.34 3.48001 11 3.48001C10.66 3.48001 10.38 3.76001 10.38 4.10001C10.38 4.38001 10.16 4.60001 9.88 4.60001C9.6 4.60001 9.38 4.38001 9.38 4.10001C9.38 3.21001 10.11 2.48001 11 2.48001C11.89 2.48001 12.62 3.21001 12.62 4.10001C12.62 4.71001 12.23 5.25001 11.64 5.50001L11.46 5.58001L11.51 5.79001C11.51 6.07001 11.29 6.29001 11.01 6.29001L11 6.30001Z" fill="black"/>
</svg>
