<svg width="16" height="16" viewBox="0 0 16 16" fill="none" xmlns="http://www.w3.org/2000/svg">
<path d="M4.24028 3.45996C4.50016 3.30021 4.83993 3.39999 4.96001 3.67969L4.95024 3.66992L5.88969 5.75977C5.99966 5.98971 5.91989 6.25961 5.71001 6.38965C5.57005 6.47962 5.40023 6.60007 5.24028 6.75C4.56028 7.39 5.38985 8.77043 6.29985 9.69043C7.20985 10.6104 8.60031 11.43 9.24028 10.75C9.39009 10.5902 9.50971 10.4202 9.59965 10.2803C9.72965 10.0703 10.0005 9.99961 10.2305 10.0996L12.3204 11.04C12.6001 11.1601 12.6998 11.4999 12.5401 11.7598C12.3501 12.0698 12.1502 12.3303 11.9502 12.5303C10.3902 14.1002 7.21992 13.4601 4.87993 11.1201C2.53994 8.78013 1.90979 5.60981 3.46977 4.0498C3.66977 3.8498 3.93028 3.64996 4.24028 3.45996Z" fill="black"/>
<path d="M11 7C11.2762 7.00002 11.5 7.22387 11.5 7.5C11.5 7.77613 11.2762 7.99998 11 8C10.7239 8 10.5 7.77614 10.5 7.5C10.5 7.22386 10.7239 7 11 7Z" fill="black"/>
<path d="M11 1.50977C12.1061 1.50978 12.9999 2.40375 13 3.50977V3.51953C13 4.31321 12.4462 4.95146 11.7901 5.22168L11.7862 5.22363L11.5362 5.32422L11.5284 5.32715C11.5257 5.32817 11.5187 5.33175 11.5118 5.3418C11.5046 5.35239 11.5001 5.36638 11.5 5.37988V5.75C11.4999 6.02602 11.2761 6.24998 11 6.25C10.724 6.25 10.5002 6.02603 10.5 5.75V5.37988C10.5001 4.95524 10.7557 4.55493 11.1641 4.39551L11.4092 4.29688C11.7276 4.16575 11.941 3.90356 11.9893 3.63477L12 3.51953V3.50977C11.9999 2.95603 11.5538 2.50978 11 2.50977C10.4463 2.50977 10.0002 2.95602 10 3.50977C10 3.7859 9.77617 4.00975 9.50004 4.00977C9.2239 4.00977 9.00004 3.78591 9.00004 3.50977C9.00018 2.40374 9.89398 1.50977 11 1.50977Z" fill="black"/>
</svg>
