<svg width="16" height="16" viewBox="0 0 16 16" fill="none" xmlns="http://www.w3.org/2000/svg">
<path d="M6.32031 2.5C6.94018 2.50012 7.48 2.87052 7.70996 3.44043L9.45996 7.80957C9.51996 7.95957 9.50016 8.14027 9.41016 8.28027C9.32014 8.4202 9.15995 8.5 9 8.5H7.5V11C7.5 11.83 6.83 12.5 6 12.5H4C3.72 12.5 3.5 12.28 3.5 12V3C3.5 2.72 3.72 2.5 4 2.5H6.32031Z" fill="currentColor"/>
<path d="M11.6504 5.21973C11.8504 5.02009 12.1605 5.01985 12.3604 5.21973C13.1004 5.95973 13.5098 6.94024 13.5098 7.99023C13.5097 9.04002 13.1001 10.0198 12.3604 10.7598C12.2604 10.8598 12.1298 10.9102 12.0098 10.9102H12C11.87 10.9102 11.7404 10.8597 11.6504 10.7598C11.4504 10.5598 11.4504 10.2498 11.6504 10.0498C12.2001 9.49988 12.5 8.77002 12.5 7.99023C12.5 7.21024 12.2004 6.47969 11.6504 5.92969C11.4504 5.72969 11.4504 5.41973 11.6504 5.21973Z" fill="currentColor"/>
<path d="M10.2402 6.63965C10.4402 6.43997 10.7503 6.4398 10.9502 6.63965C11.7001 7.38954 11.6999 8.59959 10.9502 9.34961C10.8502 9.44961 10.7196 9.5 10.5996 9.5H10.5898C10.4599 9.49997 10.3302 9.44958 10.2402 9.34961C10.0403 9.14961 10.0403 8.83963 10.2402 8.63965C10.5999 8.27963 10.6001 7.69951 10.2402 7.34961C10.0403 7.14961 10.0403 6.83963 10.2402 6.63965Z" fill="currentColor"/>
</svg>
