<svg width="16" height="16" viewBox="0 0 16 16" fill="none" xmlns="http://www.w3.org/2000/svg">
<path d="M7.5 9.99985C8.87995 9.99985 9.99992 11.1199 10 12.4999C10 12.7799 9.78 12.9999 9.5 12.9999H2.5C2.22 12.9999 2 12.7799 2 12.4999C2.00008 11.1199 3.12005 9.99985 4.5 9.99985H7.5Z" fill="black"/>
<path d="M6 3.99985C7.38066 3.99985 8.49992 5.11921 8.5 6.49985C8.5 7.88057 7.38071 8.99985 6 8.99985C4.61929 8.99985 3.5 7.88057 3.5 6.49985C3.50008 5.11921 4.61934 3.99985 6 3.99985Z" fill="black"/>
<path fill-rule="evenodd" clip-rule="evenodd" d="M11.6797 2.5897C11.8797 2.46972 12.1301 2.46975 12.3301 2.5897L13.9297 3.50962C14.1297 3.61962 14.25 3.84017 14.25 4.07017V5.91978C14.25 6.14978 14.1297 6.36032 13.9297 6.48032L12.3301 7.40025C12.1301 7.52021 11.8797 7.52023 11.6797 7.40025L10.0801 6.48032C9.88008 6.37032 9.75977 6.14978 9.75977 5.91978V4.07017C9.75977 3.84017 9.88008 3.62962 10.0801 3.50962L11.6797 2.5897ZM12 4.35044C11.64 4.35044 11.3497 4.63992 11.3496 4.99985C11.3496 5.35985 11.64 5.65025 12 5.65025C12.36 5.65025 12.6504 5.35985 12.6504 4.99985C12.6503 4.63992 12.36 4.35044 12 4.35044Z" fill="black"/>
</svg>
