<svg width="16" height="16" viewBox="0 0 16 16" fill="none" xmlns="http://www.w3.org/2000/svg">
<path d="M6.94043 4.93985C7.52036 4.36024 8.47964 4.36024 9.05957 4.93985C9.63957 5.51985 9.63957 6.47996 9.05957 7.05996C8.89793 7.22154 8.7047 7.33766 8.5 7.41055V14.0004C8.4998 14.2802 8.27987 14.5004 8 14.5004C7.72013 14.5004 7.5002 14.2802 7.5 14.0004V7.41055C7.2953 7.33766 7.10207 7.22154 6.94043 7.05996C6.36043 6.47996 6.36043 5.51985 6.94043 4.93985Z" fill="black"/>
<path d="M4.11035 2.10977C4.31036 1.91005 4.62041 1.90986 4.82031 2.10977C5.02017 2.30968 5.02002 2.61974 4.82031 2.81973C3.97031 3.66973 3.5 4.80039 3.5 6.00039C3.50011 7.20023 3.97041 8.33018 4.82031 9.18008C5.02006 9.38005 5.02013 9.69011 4.82031 9.89004C4.72031 9.99004 4.58973 10.0404 4.46973 10.0404H4.45996C4.33007 10.0404 4.20034 9.98988 4.11035 9.89004C3.07045 8.85014 2.50011 7.47023 2.5 6.00039C2.5 4.53039 3.07035 3.14977 4.11035 2.10977Z" fill="black"/>
<path d="M11.1904 2.10977C11.3904 1.91006 11.7005 1.90986 11.9004 2.10977C12.9403 3.14976 13.5098 4.53043 13.5098 6.00039C13.5097 7.47016 12.9402 8.85016 11.9004 9.89004C11.8004 9.99004 11.6698 10.0404 11.5498 10.0404H11.54C11.4101 10.0404 11.2804 9.98988 11.1904 9.89004C10.9904 9.69004 10.9904 9.38008 11.1904 9.18008C12.0402 8.3302 12.5097 7.20017 12.5098 6.00039C12.5098 4.80043 12.0404 3.66972 11.1904 2.81973C10.9904 2.61973 10.9904 2.30977 11.1904 2.10977Z" fill="black"/>
<path d="M5.53027 3.52969C5.73027 3.33 6.04033 3.32982 6.24023 3.52969C6.44013 3.72959 6.43993 4.03964 6.24023 4.23965C5.77023 4.70965 5.50977 5.34016 5.50977 6.01016C5.5098 6.68009 5.77029 7.30973 6.24023 7.77969C6.44013 7.97959 6.43993 8.28964 6.24023 8.48965C6.14023 8.58965 6.00965 8.64004 5.88965 8.64004L5.87988 8.61953C5.75001 8.6195 5.62024 8.56996 5.53027 8.47012C4.87036 7.81021 4.5001 6.93025 4.5 6.00039C4.5 5.07039 4.86027 4.18969 5.53027 3.52969Z" fill="black"/>
<path d="M9.76953 3.51016C9.96953 3.31016 10.2805 3.31016 10.4805 3.51016C11.1402 4.1701 11.5097 5.05007 11.5098 5.97988C11.5098 6.90969 11.1502 7.78966 10.4805 8.44961C10.3805 8.54961 10.2499 8.6 10.1299 8.6L10.1201 8.61953C9.99012 8.61953 9.85953 8.57012 9.76953 8.47012C9.5698 8.27022 9.5699 7.96011 9.76953 7.76016C10.2395 7.29016 10.5 6.65965 10.5 5.98965C10.4999 5.31977 10.2395 4.69004 9.76953 4.22012C9.5698 4.02022 9.5699 3.71011 9.76953 3.51016Z" fill="black"/>
</svg>
