<svg width="16" height="16" viewBox="0 0 16 16" fill="none" xmlns="http://www.w3.org/2000/svg">
<path d="M12.6503 2.64981C12.8403 2.45006 13.1606 2.44989 13.3505 2.64981C13.5503 2.83974 13.5502 3.16002 13.3505 3.35L12.1698 4.52969C12.4697 4.67963 12.7598 4.85983 13.0497 5.06973C13.3697 5.26973 13.6804 5.50969 13.9804 5.77969V5.79043C14.2 5.98049 14.1998 6.31006 13.9999 6.51992L13.29 7.22012C13.1001 7.39993 12.8005 7.3998 12.6005 7.22012C12.2906 6.95019 11.9502 6.71013 11.6103 6.51016C11.3003 6.32016 10.9898 6.15969 10.6698 6.02969L9.88957 6.80996C10.2295 6.91993 10.5599 7.05974 10.8798 7.23965C11.2198 7.41965 11.5505 7.63981 11.8505 7.89981C12.0703 8.08984 12.07 8.43033 11.87 8.63027L11.1601 9.34024C10.9701 9.53011 10.6804 9.51966 10.4804 9.35977C10.1404 9.0898 9.75999 8.8804 9.37004 8.75039C8.99014 8.60043 8.59024 8.52019 8.19035 8.51016L7.03996 9.65957C7.52994 9.48959 8.06049 9.44997 8.56047 9.55996C8.94032 9.62001 9.31044 9.77048 9.65031 10.0004C9.91986 10.1705 9.95005 10.55 9.73039 10.7699L8.35051 12.1498C8.16052 12.3398 7.84032 12.3398 7.65031 12.1498L6.10051 10.6L4.35051 12.35C4.26051 12.45 4.12992 12.5004 3.99992 12.5004C3.87002 12.5004 3.74028 12.4499 3.65031 12.35C3.45031 12.16 3.45031 11.8398 3.65031 11.6498L12.6503 2.64981Z" fill="currentColor"/>
<path d="M4.69035 9.18985L4.1298 8.63027C3.9298 8.43027 3.93031 8.08981 4.15031 7.89981C5.08017 7.12002 6.18999 6.66047 7.33977 6.54043L4.69035 9.18985Z" fill="currentColor"/>
<path d="M2.02043 5.78945C4.28801 3.7619 7.33378 3.09155 10.1112 3.76797L8.36027 5.51992C7.80027 5.47992 7.22008 5.52027 6.66008 5.63027C5.49011 5.86027 4.36029 6.39016 3.40031 7.22012C3.20032 7.40011 2.89988 7.40009 2.70988 7.22012L1.99992 6.51992C1.79997 6.30992 1.80045 5.97944 2.02043 5.78945Z" fill="currentColor"/>
<path d="M10.12 3.76992C10.1171 3.76921 10.1142 3.76868 10.1112 3.76797L10.12 3.76016V3.76992Z" fill="currentColor"/>
</svg>
