<svg width="16" height="16" viewBox="0 0 16 16" fill="none" xmlns="http://www.w3.org/2000/svg">
<path d="M6.00008 4C6.40991 4.00004 6.65004 4.46984 6.40047 4.7998L4.50008 7.33301V12C4.50008 12.28 4.28006 12.5 4.00008 12.5C3.72008 12.5 3.50008 12.28 3.50008 12V7.33301L1.59969 4.7998C1.35006 4.46982 1.5902 4 2.00008 4H6.00008Z" fill="black"/>
<path d="M7.00008 9.5C7.2762 9.50003 7.50008 9.72388 7.50008 10V12C7.50008 12.2761 7.2762 12.5 7.00008 12.5H6.00008C5.72394 12.5 5.50008 12.2761 5.50008 12V10C5.50008 9.72386 5.72394 9.5 6.00008 9.5H7.00008Z" fill="black"/>
<path d="M10.0001 7.5C10.2762 7.50003 10.5001 7.72388 10.5001 8V12C10.5001 12.2761 10.2762 12.5 10.0001 12.5H9.00008C8.72394 12.5 8.50008 12.2761 8.50008 12V8C8.50008 7.72386 8.72394 7.5 9.00008 7.5H10.0001Z" fill="black"/>
<path d="M13.0001 5.5C13.2801 5.50003 13.5001 5.72002 13.5001 6V12C13.5001 12.28 13.2801 12.5 13.0001 12.5H12.0001C11.7201 12.5 11.5001 12.28 11.5001 12V6C11.5001 5.87 11.5505 5.74039 11.6505 5.65039C11.7505 5.56042 11.8701 5.5 12.0001 5.5H13.0001Z" fill="black"/>
</svg>
