<svg width="16" height="16" viewBox="0 0 16 16" fill="none" xmlns="http://www.w3.org/2000/svg">
<path d="M5.5 6.5C6.05228 6.5 6.5 6.94772 6.5 7.5C6.5 8.05228 6.05228 8.5 5.5 8.5C4.94772 8.5 4.5 8.05228 4.5 7.5C4.5 6.94772 4.94772 6.5 5.5 6.5Z" fill="black"/>
<path d="M10.5 6.5C11.0523 6.5 11.5 6.94772 11.5 7.5C11.5 8.05228 11.0523 8.5 10.5 8.5C9.94772 8.5 9.5 8.05228 9.5 7.5C9.5 6.94772 9.94772 6.5 10.5 6.5Z" fill="black"/>
<path fill-rule="evenodd" clip-rule="evenodd" d="M8 2C11.31 2 14 4.46 14 7.5V7.50977C14 8.97964 13.3599 10.3196 12.3301 11.3096L12.7598 13.0303C12.8596 13.4301 12.46 13.7701 12.0801 13.6104L9.95996 12.7002C9.33999 12.8902 8.68997 13 8 13C4.69 13 2 10.54 2 7.5C2 4.46 4.69 2 8 2ZM10.5 5.5C9.4 5.5 8.5 6.4 8.5 7.5C8.5 7.87 8.61027 8.2 8.78027 8.5H7.21973C7.38973 8.2 7.5 7.87 7.5 7.5C7.5 6.4 6.6 5.5 5.5 5.5C4.4 5.5 3.5 6.4 3.5 7.5C3.5 8.6 4.4 9.5 5.5 9.5H10.5C11.6 9.5 12.5 8.6 12.5 7.5C12.5 6.4 11.6 5.5 10.5 5.5Z" fill="black"/>
</svg>
