<svg width="16" height="16" viewBox="0 0 16 16" fill="none" xmlns="http://www.w3.org/2000/svg">
<path d="M4.24028 3.45996C4.50016 3.30021 4.83993 3.39999 4.96001 3.67969L4.95024 3.66992L5.88969 5.75977C5.99966 5.98971 5.91989 6.25961 5.71001 6.38965C5.57005 6.47962 5.40023 6.60007 5.24028 6.75C4.56028 7.39 5.38985 8.77043 6.29985 9.69043C7.20985 10.6104 8.60031 11.43 9.24028 10.75C9.39009 10.5902 9.50971 10.4202 9.59965 10.2803C9.72965 10.0703 10.0005 9.99961 10.2305 10.0996L12.3204 11.04C12.6001 11.1601 12.6998 11.4999 12.5401 11.7598C12.3501 12.0698 12.1502 12.3303 11.9502 12.5303C10.3902 14.1002 7.21992 13.4601 4.87993 11.1201C2.53994 8.78013 1.90979 5.60981 3.46977 4.0498C3.66977 3.8498 3.93028 3.64996 4.24028 3.45996Z" fill="black"/>
<path fill-rule="evenodd" clip-rule="evenodd" d="M10.5 2.5C11.3086 2.50001 12.0406 2.82171 12.5801 3.3418C12.5944 3.35327 12.6098 3.36367 12.6231 3.37695C12.6367 3.39057 12.6475 3.40618 12.6592 3.4209C13.1787 3.9603 13.5 4.69196 13.5 5.5C13.5 7.15684 12.1569 8.49998 10.5 8.5C9.6945 8.5 8.96475 8.18075 8.42583 7.66406C8.40917 7.65117 8.39131 7.63931 8.37602 7.62402C8.36041 7.60841 8.34812 7.59028 8.33501 7.57324C7.81887 7.03441 7.50004 6.30507 7.50004 5.5C7.50004 3.84315 8.84319 2.5 10.5 2.5ZM9.4854 7.2207C9.78316 7.39666 10.1291 7.5 10.5 7.5C11.6046 7.49998 12.5 6.60456 12.5 5.5C12.5 5.12908 12.3967 4.78312 12.2207 4.48535L9.4854 7.2207ZM10.5 3.5C9.39548 3.5 8.50004 4.39543 8.50004 5.5C8.50004 5.87045 8.60282 6.21616 8.77837 6.51367L11.5137 3.77832C11.2162 3.60277 10.8705 3.50001 10.5 3.5Z" fill="black"/>
</svg>
