<svg width="16" height="16" viewBox="0 0 16 16" fill="none" xmlns="http://www.w3.org/2000/svg">
<path d="M4.24028 3.45996C4.50016 3.30021 4.83993 3.39999 4.96001 3.67969L4.95024 3.66992L5.88969 5.75977C5.99966 5.98971 5.91989 6.25961 5.71001 6.38965C5.57005 6.47962 5.40023 6.60007 5.24028 6.75C4.56028 7.39 5.38985 8.77043 6.29985 9.69043C7.20985 10.6104 8.60031 11.43 9.24028 10.75C9.39009 10.5902 9.50971 10.4202 9.59965 10.2803C9.72965 10.0703 10.0005 9.99961 10.2305 10.0996L12.3204 11.04C12.6001 11.1601 12.6998 11.4999 12.5401 11.7598C12.3501 12.0698 12.1502 12.3303 11.9502 12.5303C10.3902 14.1002 7.21992 13.4601 4.87993 11.1201C2.53994 8.78013 1.90979 5.60981 3.46977 4.0498C3.66977 3.8498 3.93028 3.64996 4.24028 3.45996Z" fill="currentColor"/>
<path d="M13 2.5C13.0327 2.5 13.0655 2.50242 13.0977 2.50879C13.1488 2.51889 13.1961 2.53909 13.2403 2.56348C13.2806 2.58569 13.3194 2.61231 13.3536 2.64648C13.3874 2.68034 13.4135 2.71891 13.4356 2.75879C13.4601 2.80299 13.4801 2.85024 13.4903 2.90137C13.4968 2.93389 13.5 2.96695 13.5 3V6C13.5 6.27613 13.2762 6.49998 13 6.5C12.7239 6.5 12.5 6.27614 12.5 6V4.20703L9.35356 7.35352C9.1583 7.54877 8.84179 7.54876 8.64653 7.35352C8.45127 7.15825 8.45127 6.84175 8.64653 6.64648L11.793 3.5H10C9.7239 3.5 9.50004 3.27614 9.50004 3C9.50004 2.72386 9.7239 2.5 10 2.5H13Z" fill="currentColor"/>
</svg>
