<svg width="16" height="16" viewBox="0 0 16 16" fill="none" xmlns="http://www.w3.org/2000/svg">
<path d="M10 5.5C12.21 5.5 14 7.18 14 9.25C14 10.0589 13.7206 10.7977 13.2617 11.4072L13.8096 13.3398C13.8696 13.5698 13.6197 13.7501 13.4297 13.6201L11.8398 12.5596C11.2898 12.8296 10.67 13 10 13C7.79 13 6 11.32 6 9.25C6 7.18 7.79 5.5 10 5.5Z" fill="currentColor"/>
<path d="M6 2C7.73986 2 9.21942 3.04995 9.76953 4.50977C7.11974 4.61998 5 6.70015 5 9.25L5.00977 9.25977V9.37988C4.70995 9.3099 4.43001 9.20022 4.16016 9.07031L2.57031 10.1299C2.38031 10.2599 2.13043 10.0696 2.19043 9.84961L2.74023 7.91016C2.28023 7.30016 2 6.56 2 5.75C2 3.68 3.79 2 6 2Z" fill="currentColor"/>
</svg>
