<svg width="16" height="16" viewBox="0 0 16 16" fill="none" xmlns="http://www.w3.org/2000/svg">
<path d="M7.11035 9.29043C7.48035 8.55043 8.53039 8.55043 8.90039 9.29043L10.2803 12.0502H10.2695C10.6095 12.7202 10.1199 13.5004 9.37988 13.5004H6.62012C5.88012 13.5004 5.40047 12.7102 5.73047 12.0502L7.11035 9.29043Z" fill="black"/>
<path d="M4.11035 2.60977C4.31036 2.41005 4.62041 2.40986 4.82031 2.60977C5.02017 2.80968 5.02002 3.11974 4.82031 3.31973C3.97031 4.16973 3.5 5.30039 3.5 6.50039C3.50011 7.70023 3.97041 8.83018 4.82031 9.68008C5.02006 9.88005 5.02013 10.1901 4.82031 10.39C4.72031 10.49 4.58973 10.5404 4.46973 10.5404H4.45996C4.33007 10.5404 4.20034 10.4899 4.11035 10.39C3.07045 9.35014 2.50011 7.97023 2.5 6.50039C2.5 5.03039 3.07035 3.64977 4.11035 2.60977Z" fill="black"/>
<path d="M11.1904 2.60977C11.3904 2.41006 11.7005 2.40986 11.9004 2.60977C12.9403 3.64976 13.5098 5.03043 13.5098 6.50039C13.5097 7.97016 12.9402 9.35016 11.9004 10.39C11.8004 10.49 11.6698 10.5404 11.5498 10.5404H11.54C11.4101 10.5404 11.2804 10.4899 11.1904 10.39C10.9904 10.19 10.9904 9.88008 11.1904 9.68008C12.0402 8.8302 12.5097 7.70017 12.5098 6.50039C12.5098 5.30043 12.0404 4.16972 11.1904 3.31973C10.9904 3.11973 10.9904 2.80977 11.1904 2.60977Z" fill="black"/>
<path d="M5.53027 4.02969C5.73027 3.83 6.04033 3.82982 6.24023 4.02969C6.44013 4.22959 6.43993 4.53964 6.24023 4.73965C5.77023 5.20965 5.50977 5.84016 5.50977 6.51016C5.5098 7.18009 5.77029 7.80973 6.24023 8.27969C6.44013 8.47959 6.43993 8.78964 6.24023 8.98965C6.14023 9.08965 6.00965 9.14004 5.88965 9.14004L5.87988 9.11953C5.75001 9.1195 5.62024 9.06996 5.53027 8.97012C4.87036 8.31021 4.5001 7.43025 4.5 6.50039C4.5 5.57039 4.86027 4.68969 5.53027 4.02969Z" fill="black"/>
<path d="M9.76953 4.01016C9.96953 3.81016 10.2805 3.81016 10.4805 4.01016C11.1402 4.6701 11.5097 5.55007 11.5098 6.47988C11.5098 7.40969 11.1502 8.28966 10.4805 8.94961C10.3805 9.04961 10.2499 9.1 10.1299 9.1L10.1201 9.11953C9.99012 9.11953 9.85953 9.07012 9.76953 8.97012C9.5698 8.77022 9.5699 8.46011 9.76953 8.26016C10.2395 7.79016 10.5 7.15965 10.5 6.48965C10.4999 5.81977 10.2395 5.19004 9.76953 4.72012C9.5698 4.52022 9.5699 4.21011 9.76953 4.01016Z" fill="black"/>
<path d="M6.94043 5.43985C7.52036 4.86024 8.47964 4.86024 9.05957 5.43985C9.63957 6.01985 9.63957 6.97996 9.05957 7.55996C8.76959 7.84983 8.37991 8.00039 8 8.00039C7.62009 8.00039 7.23041 7.84984 6.94043 7.55996C6.36043 6.97996 6.36043 6.01985 6.94043 5.43985Z" fill="black"/>
</svg>
