<svg width="16" height="16" viewBox="0 0 16 16" fill="none" xmlns="http://www.w3.org/2000/svg">
<path fill-rule="evenodd" clip-rule="evenodd" d="M8 2C11.31 2 14 4.46 14 7.5V7.50977C14 8.97964 13.3599 10.3196 12.3301 11.3096L12.7598 13.0303C12.8596 13.4301 12.46 13.7701 12.0801 13.6104L9.95996 12.7002C9.33999 12.8902 8.68997 13 8 13C4.69 13 2 10.54 2 7.5C2 4.46 4.69 2 8 2ZM7 6.5C6.72 6.5 6.5 6.72 6.5 7C6.5 7.28 6.72 7.5 7 7.5H7.5V9.5H7C6.72 9.5 6.5 9.72 6.5 10C6.5 10.28 6.72 10.5 7 10.5H9C9.28 10.5 9.5 10.28 9.5 10C9.5 9.72 9.28 9.5 9 9.5H8.5V7C8.5 6.72 8.28 6.5 8 6.5H7ZM8 4.25C7.59 4.25 7.25 4.59 7.25 5C7.25 5.41 7.59 5.75 8 5.75C8.41 5.75 8.75 5.41 8.75 5C8.75 4.59 8.41 4.25 8 4.25Z" fill="black"/>
</svg>
