<svg width="16" height="16" viewBox="0 0 16 16" fill="none" xmlns="http://www.w3.org/2000/svg">
<path d="M6.35041 9.98953C7.35028 9.32992 8.66018 9.32979 9.65999 9.98953C9.91989 10.1595 9.96001 10.5398 9.7303 10.7698L8.36018 12.1399C8.16021 12.3399 7.85022 12.3398 7.65022 12.1399L6.2801 10.7698C6.06014 10.5498 6.09043 10.1695 6.35041 9.98953Z" fill="black"/>
<path d="M4.15022 7.89969C6.37019 6.02998 9.64029 6.02984 11.8602 7.89969C12.0802 8.07969 12.0797 8.43016 11.8797 8.63016H11.8699L11.16 9.34012C10.97 9.53008 10.6803 9.51964 10.4803 9.35965C9.6903 8.72966 8.70983 8.45004 7.74983 8.51004C6.96005 8.56006 6.18021 8.83989 5.52034 9.35965C5.31034 9.51965 5.01967 9.53012 4.83967 9.34012L4.12971 8.63016C3.9298 8.43015 3.93025 8.08966 4.15022 7.89969Z" fill="black"/>
<path d="M2.02034 5.77957C5.43029 2.74 10.5902 2.73984 13.9901 5.77957C14.2001 5.96957 14.1998 6.31004 13.9998 6.51004L13.2899 7.22C13.0999 7.40992 12.8004 7.40964 12.6004 7.22977C10.9204 5.75977 8.71999 5.23016 6.65999 5.63016C5.4901 5.86014 4.36016 6.38991 3.40022 7.22977C3.20022 7.40977 2.89979 7.41 2.70979 7.22L1.99983 6.51004H2.00959C1.80975 6.31002 1.81039 5.96952 2.02034 5.77957Z" fill="black"/>
</svg>
