<svg width="16" height="16" viewBox="0 0 16 16" fill="none" xmlns="http://www.w3.org/2000/svg">
<path d="M8.00977 8.33008C11.3198 8.33008 14.0098 10.1201 14.0098 12.3301C14.0098 12.6101 13.9599 12.9401 13.8799 13.29C13.8099 13.58 13.4899 13.7496 13.21 13.6396H13.2305L11.0898 12.8301C10.8499 12.74 10.7105 12.49 10.7705 12.25C10.8105 12.09 10.8496 11.88 10.8496 11.6602C10.8796 10.7303 9.32041 10.3302 8.02051 10.3301C6.72051 10.3301 5.16043 10.7202 5.19043 11.6602C5.20044 11.8801 5.23052 12.08 5.27051 12.25C5.32045 12.4999 5.18009 12.74 4.9502 12.8301L2.80957 13.6396C2.51964 13.7495 2.20963 13.58 2.13965 13.29C2.04967 12.9401 2.00977 12.61 2.00977 12.3301C2.00977 10.1201 4.69988 8.33017 8.00977 8.33008Z" fill="currentColor"/>
<path d="M6 2.5C6.27614 2.5 6.5 2.72386 6.5 3C6.5 3.27614 6.27614 3.5 6 3.5H5.2168L7.65332 5.93652C7.84802 6.13117 8.16172 6.13112 8.35645 5.93652L11.6465 2.64648C11.8417 2.45139 12.1583 2.45139 12.3535 2.64648C12.5486 2.84172 12.5486 3.15828 12.3535 3.35352L9.06348 6.64355C8.47822 7.22868 7.53151 7.22873 6.94629 6.64355L4.5 4.19727V5C4.5 5.27614 4.27614 5.5 4 5.5C3.72386 5.5 3.5 5.27614 3.5 5V3C3.5 2.72386 3.72386 2.5 4 2.5H6Z" fill="currentColor"/>
</svg>
