<svg width="16" height="16" viewBox="0 0 16 16" fill="none" xmlns="http://www.w3.org/2000/svg">
<path d="M7.5 10C8.88 10 10 11.12 10 12.5C10 12.78 9.78 13 9.5 13H2.5C2.22 13 2 12.78 2 12.5C2 11.12 3.12 10 4.5 10H7.5Z" fill="currentColor"/>
<path d="M6 4C7.38071 4 8.5 5.11929 8.5 6.5C8.5 7.88071 7.38071 9 6 9C4.61929 9 3.5 7.88071 3.5 6.5C3.5 5.11929 4.61929 4 6 4Z" fill="currentColor"/>
<path fill-rule="evenodd" clip-rule="evenodd" d="M11.5 2.5C12.6046 2.5 13.5 3.39543 13.5 4.5C13.5 4.87063 13.3964 5.21606 13.2207 5.51367L14.3535 6.64648C14.5483 6.84178 14.5486 7.1584 14.3535 7.35352C14.1584 7.54863 13.8418 7.54835 13.6465 7.35352L12.5137 6.2207C12.2161 6.3964 11.8706 6.5 11.5 6.5C10.3954 6.5 9.5 5.60457 9.5 4.5C9.5 3.39543 10.3954 2.5 11.5 2.5ZM11.5 3.5C10.9477 3.5 10.5 3.94772 10.5 4.5C10.5 5.05228 10.9477 5.5 11.5 5.5C12.0523 5.5 12.5 5.05228 12.5 4.5C12.5 3.94772 12.0523 3.5 11.5 3.5Z" fill="currentColor"/>
</svg>
