<svg width="16" height="16" viewBox="0 0 16 16" fill="none" xmlns="http://www.w3.org/2000/svg">
<path d="M8 7.5C8.27614 7.5 8.5 7.72386 8.5 8V11.793L9.64648 10.6465C9.84175 10.4512 10.1583 10.4512 10.3535 10.6465C10.5488 10.8417 10.5488 11.1583 10.3535 11.3535L8.35352 13.3535C8.31945 13.3876 8.2804 13.4134 8.24023 13.4355C8.19596 13.46 8.14884 13.4801 8.09766 13.4902C8.0329 13.5031 7.96611 13.5032 7.90137 13.4902C7.85024 13.48 7.80299 13.4601 7.75879 13.4355C7.71891 13.4134 7.68034 13.3874 7.64648 13.3535L5.64648 11.3535C5.45122 11.1583 5.45122 10.8417 5.64648 10.6465C5.84175 10.4512 6.15825 10.4512 6.35352 10.6465L7.5 11.793V8C7.5 7.72386 7.72386 7.5 8 7.5Z" fill="currentColor"/>
<path d="M8.00977 3.33008C11.3198 3.33008 14.0098 5.12008 14.0098 7.33008C14.0098 7.61007 13.9599 7.94006 13.8799 8.29004C13.8099 8.58001 13.4899 8.74964 13.21 8.63965H13.2305L11.0898 7.83008C10.8499 7.74005 10.7096 7.48993 10.7695 7.25C10.8095 7.09003 10.8496 6.88011 10.8496 6.66016C10.8796 5.73016 9.31953 5.33008 8.01953 5.33008C6.71962 5.33017 5.16043 5.72027 5.19043 6.66016C5.20043 6.88004 5.22955 7.08007 5.26953 7.25C5.31952 7.49995 5.18011 7.74004 4.9502 7.83008L2.80957 8.63965C2.51964 8.74945 2.20963 8.57995 2.13965 8.29004C2.04967 7.94009 2.00977 7.61005 2.00977 7.33008C2.00977 5.12013 4.69988 3.33017 8.00977 3.33008Z" fill="currentColor"/>
</svg>
