<svg width="16" height="16" viewBox="0 0 16 16" fill="none" xmlns="http://www.w3.org/2000/svg">
<path d="M13 5C13.55 5 14 5.45 14 6V12C14 12.55 13.55 13 13 13H3C2.45 13 2 12.55 2 12V6.00977C2.00013 5.45987 2.45008 5.00977 3 5.00977V7.66992L7.44043 10.6299C7.78036 10.8497 8.2099 10.8498 8.5498 10.6299L13 7.66992V5Z" fill="currentColor"/>
<path fill-rule="evenodd" clip-rule="evenodd" d="M11 2C11.55 2 12 2.45 12 3V7.12988L8 9.7998L4 7.12988V3C4 2.45 4.45 2 5 2H11ZM6 5.5C5.72 5.5 5.5 5.72 5.5 6C5.5 6.28 5.72 6.5 6 6.5H10C10.28 6.5 10.5 6.28 10.5 6C10.5 5.72 10.28 5.5 10 5.5H6ZM6 3.5C5.72 3.5 5.5 3.72 5.5 4C5.5 4.28 5.72 4.5 6 4.5H10C10.28 4.5 10.5 4.28 10.5 4C10.5 3.72 10.28 3.5 10 3.5H6Z" fill="currentColor"/>
</svg>
