<svg width="16" height="16" viewBox="0 0 16 16" fill="none" xmlns="http://www.w3.org/2000/svg">
<path d="M7.5 9.99962C8.87987 9.99962 9.99979 11.1198 10 12.4996C10 12.7796 9.78 12.9996 9.5 12.9996H2.5C2.22 12.9996 2 12.7796 2 12.4996C2.00021 11.1198 3.12013 9.99962 4.5 9.99962H7.5Z" fill="currentColor"/>
<path d="M6 3.99962C7.38058 3.99962 8.49979 5.11909 8.5 6.49962C8.5 7.88034 7.38071 8.99962 6 8.99962C4.61929 8.99962 3.5 7.88034 3.5 6.49962C3.50021 5.11909 4.61942 3.99962 6 3.99962Z" fill="currentColor"/>
<path d="M12.4902 3.5299C13.0402 2.98006 13.9305 2.97995 14.4805 3.5299C15.0302 4.07986 15.0302 4.97018 14.4805 5.52013L12.4902 7.51037C12.2203 7.78024 11.77 7.78018 11.5 7.51037L9.50977 5.52013C8.95986 4.97015 8.95987 4.07988 9.50977 3.5299C10.0597 2.97992 10.95 2.97997 11.5 3.5299L12 4.0299L12.5 3.5299H12.4902Z" fill="currentColor"/>
</svg>
