<svg width="16" height="16" viewBox="0 0 16 16" fill="none" xmlns="http://www.w3.org/2000/svg">
<path d="M8.5 9C9.88 9 11 10.12 11 11.5V12.5C11 12.78 10.78 13 10.5 13H2.5C2.22 13 2 12.78 2 12.5V11.5C2 10.12 3.12 9 4.5 9H8.5Z" fill="black"/>
<path d="M11.6504 10.0205C12.9602 10.1007 14 11.1701 14 12.5C14 12.78 13.78 13 13.5 13H11.9102C11.9601 12.84 12 12.68 12 12.5V11.5C12 10.9702 11.8702 10.4704 11.6504 10.0205Z" fill="black"/>
<path d="M10.0205 4C11.3903 4.01026 12.5 5.13016 12.5 6.5C12.5 7.60985 11.7703 8.54 10.7705 8.87012C10.2705 8.44012 9.64973 8.1398 8.96973 8.0498C9.74973 7.3598 10.25 6.37 10.25 5.25C10.25 4.81006 10.1605 4.38996 10.0205 4Z" fill="black"/>
<path d="M6.5 2.5C8.02 2.5 9.25 3.73 9.25 5.25C9.25 6.77 8.02 8 6.5 8C4.98 8 3.75 6.77 3.75 5.25C3.75 3.73 4.98 2.5 6.5 2.5Z" fill="black"/>
</svg>
