<svg width="16" height="16" viewBox="0 0 16 16" fill="none" xmlns="http://www.w3.org/2000/svg">
<path d="M7.5 10C8.88 10 10 11.12 10 12.5C10 12.78 9.78 13 9.5 13H2.5C2.22 13 2 12.78 2 12.5C2 11.12 3.12 10 4.5 10H7.5Z" fill="black"/>
<path d="M6 4C7.38071 4 8.5 5.11929 8.5 6.5C8.5 7.88071 7.38071 9 6 9C4.61929 9 3.5 7.88071 3.5 6.5C3.5 5.11929 4.61929 4 6 4Z" fill="black"/>
<path d="M14 4.5C14.2761 4.5 14.5 4.72386 14.5 5C14.5 5.27614 14.2761 5.5 14 5.5H10C9.72386 5.5 9.5 5.27614 9.5 5C9.5 4.72386 9.72386 4.5 10 4.5H14Z" fill="black"/>
</svg>
