<svg width="16" height="16" viewBox="0 0 16 16" fill="none" xmlns="http://www.w3.org/2000/svg">
<path d="M7.5 10C8.88 10 10 11.12 10 12.5C9.99998 12.78 9.77999 13 9.5 13H2.5C2.22001 13 2.00002 12.78 2 12.5C2 11.12 3.12 10 4.5 10H7.5Z" fill="currentColor"/>
<path d="M6 4.00002C7.38071 4.00002 8.5 5.11931 8.5 6.50002C8.49998 7.88072 7.3807 9.00002 6 9.00002C4.6193 9.00002 3.50002 7.88072 3.5 6.50002C3.5 5.11931 4.61929 4.00002 6 4.00002Z" fill="currentColor"/>
<path d="M13.3965 2.89651C13.5917 2.70125 13.9083 2.70125 14.1035 2.89651C14.2988 3.09177 14.2988 3.40828 14.1035 3.60354L12.707 5.00002L14.1035 6.39651C14.2988 6.59177 14.2988 6.90828 14.1035 7.10354C13.9083 7.29878 13.5917 7.29878 13.3965 7.10354L12 5.70705L10.6035 7.10354C10.4083 7.29878 10.0917 7.29878 9.89648 7.10354C9.70123 6.90828 9.70124 6.59177 9.89648 6.39651L11.293 5.00002L9.89648 3.60354C9.70123 3.40828 9.70124 3.09177 9.89648 2.89651C10.0917 2.70125 10.4083 2.70125 10.6035 2.89651L12 4.29299L13.3965 2.89651Z" fill="currentColor"/>
</svg>
