<svg width="16" height="16" viewBox="0 0 16 16" fill="none" xmlns="http://www.w3.org/2000/svg">
<path d="M7.5 10C8.88 10 10 11.12 10 12.5C10 12.78 9.78 13 9.5 13H2.5C2.22 13 2 12.78 2 12.5C2 11.12 3.12 10 4.5 10H7.5Z" fill="black"/>
<path d="M6 4C7.38071 4 8.5 5.11929 8.5 6.5C8.5 7.88071 7.38071 9 6 9C4.61929 9 3.5 7.88071 3.5 6.5C3.5 5.11929 4.61929 4 6 4Z" fill="black"/>
<path d="M12 7C12.4142 7 12.75 7.33579 12.75 7.75C12.75 8.16421 12.4142 8.5 12 8.5C11.5858 8.5 11.25 8.16421 11.25 7.75C11.25 7.33579 11.5858 7 12 7Z" fill="black"/>
<path d="M12 2.47949C12.8899 2.47949 13.6199 3.20978 13.6201 4.09961C13.6201 4.70961 13.2296 5.25 12.6396 5.5L12.46 5.58008L12.5098 5.79004C12.5097 6.07001 12.2897 6.29004 12.0098 6.29004L12 6.2998C11.72 6.2998 11.5 6.0798 11.5 5.7998V5.51953C11.5002 5.13972 11.7205 4.8101 12.0703 4.66016L12.25 4.58008C12.4599 4.49014 12.6199 4.30023 12.6201 4.11035C12.6201 3.76035 12.34 3.48047 12 3.48047C11.6601 3.48047 11.3801 3.75978 11.3799 4.09961C11.3799 4.37961 11.1599 4.59961 10.8799 4.59961C10.5999 4.59955 10.3799 4.37957 10.3799 4.09961C10.3801 3.20978 11.1101 2.47949 12 2.47949Z" fill="black"/>
</svg>
