<svg width="16" height="16" viewBox="0 0 16 16" fill="none" xmlns="http://www.w3.org/2000/svg">
<path d="M7.5 9.99964C8.87988 9.99964 9.9998 11.1198 10 12.4996C10 12.7796 9.78 12.9996 9.5 12.9996H2.5C2.22 12.9996 2 12.7796 2 12.4996C2.0002 11.1198 3.12012 9.99964 4.5 9.99964H7.5Z" fill="currentColor"/>
<path d="M6 3.99964C7.38059 3.99964 8.4998 5.1191 8.5 6.49964C8.5 7.88035 7.38071 8.99964 6 8.99964C4.61929 8.99964 3.5 7.88035 3.5 6.49964C3.5002 5.1191 4.61941 3.99964 6 3.99964Z" fill="currentColor"/>
<path d="M12.8799 2.35023C13.0799 2.15023 13.3898 2.15023 13.5898 2.35023L14.6504 3.4098C14.8502 3.60969 14.8501 3.91977 14.6504 4.11976L12.0596 6.7096C11.8696 6.88959 11.6196 6.99964 11.3496 6.99964H10.5C10.22 6.99964 10 6.77964 10 6.49964V5.65003C10 5.38003 10.1 5.13007 10.29 4.94007L12.8799 2.35023Z" fill="currentColor"/>
</svg>
