<svg width="16" height="16" viewBox="0 0 16 16" fill="none" xmlns="http://www.w3.org/2000/svg">
<path fill-rule="evenodd" clip-rule="evenodd" d="M12 2.5C13.1 2.5 14 3.4 14 4.5V10.25C14 11.35 13.1 12.25 12 12.25H11V13.46C11 13.8799 10.5204 14.1095 10.1904 13.8496L8.19043 12.25H4C2.9 12.25 2 11.35 2 10.25V4.5C2 3.4 2.9 2.5 4 2.5H12ZM5 8.25C4.72 8.25 4.5 8.47 4.5 8.75C4.5 9.03 4.72 9.25 5 9.25H9C9.28 9.25 9.5 9.03 9.5 8.75C9.5 8.47 9.28 8.25 9 8.25H5ZM5 5.75C4.72 5.75 4.5 5.97 4.5 6.25C4.5 6.53 4.72 6.75 5 6.75H11C11.28 6.75 11.5 6.53 11.5 6.25C11.5 5.97 11.28 5.75 11 5.75H5Z" fill="black"/>
</svg>
