<svg width="16" height="16" viewBox="0 0 16 16" fill="none" xmlns="http://www.w3.org/2000/svg">
<path fill-rule="evenodd" clip-rule="evenodd" d="M12 2.5C13.1 2.5 14 3.4 14 4.5V10.25C14 11.35 13.1 12.25 12 12.25H11V13.46C11 13.8799 10.5204 14.1095 10.1904 13.8496L8.19043 12.25H4C2.9 12.25 2 11.35 2 10.25V4.5C2 3.4 2.9 2.5 4 2.5H12ZM6.62012 4.65039C6.42012 4.45039 6.11016 4.45039 5.91016 4.65039L4.41016 6.15039C4.21028 6.35039 4.2102 6.66039 4.41016 6.86035L5.91016 8.36035C6.0001 8.4601 6.13993 8.5097 6.25977 8.50977C6.37977 8.50977 6.51035 8.46035 6.61035 8.36035C6.81022 8.16048 6.80997 7.8504 6.61035 7.65039L5.95996 7H9.5C10.05 7 10.5 7.45 10.5 8C10.5 8.55 10.05 9 9.5 9H8C7.72 9 7.5 9.22 7.5 9.5C7.5 9.78 7.72 10 8 10H9.5L9.50977 10.0098C10.6098 10.0098 11.5098 9.10977 11.5098 8.00977C11.5096 6.90987 10.6097 6.00977 9.50977 6.00977H5.96973L6.62012 5.36035C6.82003 5.16044 6.81986 4.8504 6.62012 4.65039Z" fill="currentColor"/>
</svg>
