<svg width="16" height="16" viewBox="0 0 16 16" fill="none" xmlns="http://www.w3.org/2000/svg">
<path fill-rule="evenodd" clip-rule="evenodd" d="M11 2C12.1 2 13 2.9 13 4V12C13 13.1 12.1 14 11 14H3.5C3.22 14 3 13.78 3 13.5V2.5C3 2.22 3.22 2 3.5 2H11ZM5 3C4.72 3 4.5 3.22 4.5 3.5V12.5C4.5 12.78 4.72 13 5 13C5.28 13 5.5 12.78 5.5 12.5V3.5C5.5 3.22 5.28 3 5 3ZM9 5.5C8.17 5.5 7.5 6.17 7.5 7C7.5 7.5 7.74012 7.93996 8.12012 8.20996C7.46012 8.53996 7 9.21 7 10C7 10.28 7.22 10.5 7.5 10.5H10.5C10.78 10.5 11 10.28 11 10C11 9.21 10.5399 8.53996 9.87988 8.20996C10.2499 7.93996 10.5 7.5 10.5 7C10.5 6.17 9.83 5.5 9 5.5Z" fill="currentColor"/>
</svg>
