<svg width="16" height="16" viewBox="0 0 16 16" fill="none" xmlns="http://www.w3.org/2000/svg">
<path fill-rule="evenodd" clip-rule="evenodd" d="M13.0201 2.38951C13.4099 2.22979 13.8 2.60987 13.6705 3.00963L10.3902 12.8505C10.22 13.3801 9.53987 13.5294 9.14996 13.1395L7.39996 11.3895L5.74957 12.4901C5.41962 12.7097 4.98027 12.4796 4.97028 12.0897L4.85992 8.91979L2.02008 7.49987C1.6301 7.30986 1.65012 6.74971 2.06012 6.58971L13.0103 2.37975L13.0201 2.38951ZM11.4097 4.38951C11.2597 4.15998 10.9501 4.10015 10.7203 4.24987L5.72028 7.57994C5.49028 7.72994 5.42965 8.04037 5.57965 8.27037C5.67956 8.41019 5.83976 8.48995 5.99957 8.4901C6.09952 8.4901 6.1899 8.46995 6.27985 8.41002L11.2798 5.07994H11.2701C11.5 4.92993 11.5597 4.6195 11.4097 4.38951Z" fill="currentColor"/>
</svg>
