<svg width="16" height="16" viewBox="0 0 16 16" fill="none" xmlns="http://www.w3.org/2000/svg">
<path d="M4 9.5C4.27614 9.5 4.5 9.72386 4.5 10V12C4.5 12.2761 4.27614 12.5 4 12.5H3C2.72386 12.5 2.5 12.2761 2.5 12V10C2.5 9.72386 2.72386 9.5 3 9.5H4Z" fill="black"/>
<path d="M7 7.5C7.27614 7.5 7.5 7.72386 7.5 8V12C7.5 12.2761 7.27614 12.5 7 12.5H6C5.72386 12.5 5.5 12.2761 5.5 12V8C5.5 7.72386 5.72386 7.5 6 7.5H7Z" fill="black"/>
<path d="M10 5.5C10.28 5.5 10.5 5.72 10.5 6V12C10.5 12.28 10.28 12.5 10 12.5H9C8.72 12.5 8.5 12.28 8.5 12V6C8.5 5.87 8.55039 5.74039 8.65039 5.65039C8.75039 5.5604 8.87001 5.5 9 5.5H10Z" fill="black"/>
<path d="M13 3.54004C13.28 3.54004 13.5 3.76004 13.5 4.04004V12C13.5 12.28 13.28 12.5 13 12.5H12C11.72 12.5 11.5 12.28 11.5 12V4.04004C11.5 3.91004 11.5504 3.78043 11.6504 3.69043C11.7504 3.60044 11.87 3.54004 12 3.54004H13Z" fill="black"/>
</svg>
