<svg width="16" height="16" viewBox="0 0 16 16" fill="none" xmlns="http://www.w3.org/2000/svg">
<path d="M6.00008 4C6.40991 4.00004 6.65004 4.46984 6.40047 4.7998L4.50008 7.33301V12C4.50008 12.28 4.28006 12.5 4.00008 12.5C3.72008 12.5 3.50008 12.28 3.50008 12V7.33301L1.59969 4.7998C1.35006 4.46982 1.5902 4 2.00008 4H6.00008Z" fill="currentColor"/>
<path d="M7.00008 9.5C7.2762 9.50003 7.50008 9.72388 7.50008 10V12C7.50008 12.2761 7.2762 12.5 7.00008 12.5H6.00008C5.72394 12.5 5.50008 12.2761 5.50008 12V10C5.50008 9.72386 5.72394 9.5 6.00008 9.5H7.00008Z" fill="currentColor"/>
<path d="M10.0001 7C10.2762 7.00003 10.5001 7.22388 10.5001 7.5V12C10.5001 12.2761 10.2762 12.5 10.0001 12.5H9.00008C8.72394 12.5 8.50008 12.2761 8.50008 12V7.5C8.50008 7.22386 8.72394 7 9.00008 7H10.0001Z" fill="currentColor"/>
<path d="M13.0001 4C13.2801 4.00003 13.5001 4.22002 13.5001 4.5V12C13.5001 12.28 13.2801 12.5 13.0001 12.5H12.0001C11.7201 12.5 11.5001 12.28 11.5001 12V4.5C11.5001 4.37 11.5505 4.24039 11.6505 4.15039C11.7505 4.06042 11.8701 4 12.0001 4H13.0001Z" fill="currentColor"/>
</svg>
