<svg width="16" height="16" viewBox="0 0 16 16" fill="none" xmlns="http://www.w3.org/2000/svg">
<path d="M12.6503 2.6498C12.8403 2.45005 13.1606 2.44988 13.3505 2.6498C13.5503 2.83974 13.5502 3.16001 13.3505 3.34999L12.1698 4.52968C12.4697 4.67963 12.7598 4.85982 13.0497 5.06972C13.3697 5.26972 13.6804 5.50968 13.9804 5.77968V5.79042C14.2 5.98048 14.1998 6.31005 13.9999 6.51992L13.29 7.22011C13.1001 7.39992 12.8005 7.39979 12.6005 7.22011C12.2906 6.95018 11.9502 6.71012 11.6103 6.51015C11.3003 6.32015 10.9898 6.15968 10.6698 6.02968L9.88957 6.80995C10.2295 6.91992 10.5599 7.05973 10.8798 7.23964C11.2198 7.41964 11.5505 7.6398 11.8505 7.8998C12.0703 8.08983 12.07 8.43032 11.87 8.63027L11.1601 9.34023C10.9701 9.5301 10.6804 9.51965 10.4804 9.35976C10.1404 9.08979 9.75999 8.88039 9.37004 8.75038C8.99014 8.60043 8.59024 8.52019 8.19035 8.51015L7.03996 9.65956C7.52994 9.48958 8.06049 9.44996 8.56047 9.55995C8.94032 9.62 9.31044 9.77047 9.65031 10.0004C9.91986 10.1704 9.95005 10.55 9.73039 10.7699L8.35051 12.1498C8.16052 12.3398 7.84032 12.3397 7.65031 12.1498L6.10051 10.6L4.35051 12.35C4.26051 12.45 4.12992 12.5004 3.99992 12.5004C3.87002 12.5004 3.74028 12.4499 3.65031 12.35C3.45031 12.16 3.45031 11.8398 3.65031 11.6498L12.6503 2.6498Z" fill="currentColor"/>
<path d="M4.69035 9.18984L4.1298 8.63027C3.9298 8.43027 3.93031 8.0898 4.15031 7.8998C5.08017 7.12001 6.18999 6.66046 7.33977 6.54042L4.69035 9.18984Z" fill="currentColor"/>
<path d="M2.02043 5.78945C4.28801 3.76189 7.33378 3.09154 10.1112 3.76796L8.36027 5.51992C7.80027 5.47992 7.22008 5.52027 6.66008 5.63027C5.49011 5.86026 4.36029 6.39015 3.40031 7.22011C3.20032 7.4001 2.89988 7.40008 2.70988 7.22011L1.99992 6.51992C1.79997 6.30991 1.80045 5.97943 2.02043 5.78945Z" fill="currentColor"/>
<path d="M10.12 3.76992C10.1171 3.7692 10.1142 3.76867 10.1112 3.76796L10.12 3.76015V3.76992Z" fill="currentColor"/>
</svg>
