<svg width="16" height="16" viewBox="0 0 16 16" fill="none" xmlns="http://www.w3.org/2000/svg">
<path fill-rule="evenodd" clip-rule="evenodd" d="M13 4C13.55 4 14 4.45 14 5V11C14 11.55 13.55 12 13 12H3C2.45 12 2 11.55 2 11V5C2 4.45 2.45 4 3 4H13ZM12.9004 5.17969C12.7304 4.95976 12.4202 4.92002 12.2002 5.08984L8.32031 8.09961C8.14031 8.23961 7.88996 8.23961 7.70996 8.09961L3.79004 5.09961C3.57005 4.92975 3.2598 4.97048 3.08984 5.19043C2.92024 5.41029 2.96012 5.71968 3.17969 5.88965L5.91016 7.98047L3.17969 10.0703C2.96011 10.2403 2.92026 10.5497 3.08984 10.7695C3.18984 10.8995 3.34023 10.9697 3.49023 10.9697C3.59016 10.9697 3.70011 10.94 3.79004 10.8701L6.74023 8.62012L7.09961 8.90039C7.36955 9.11034 7.67985 9.20991 8.00977 9.20996C8.33961 9.20996 8.65977 9.11019 8.92969 8.90039L9.28027 8.62988L12.2002 10.8896C12.3001 10.9596 12.3999 10.9902 12.5098 10.9902C12.6598 10.9902 12.8102 10.9298 12.9102 10.7998C13.08 10.5798 13.0402 10.2696 12.8203 10.0996L12.8096 10.0801L10.0898 7.98047L12.8096 5.87988C13.0296 5.70988 13.0704 5.39969 12.9004 5.17969Z" fill="currentColor"/>
</svg>
