<svg width="16" height="16" viewBox="0 0 16 16" fill="none" xmlns="http://www.w3.org/2000/svg">
<path d="M4.44954 2.05976C4.70954 1.92976 5.0302 2.06027 5.1302 2.33027L6.05012 4.71992C6.14011 4.95991 6.03965 5.22004 5.81965 5.34003C5.66978 5.41998 5.54999 5.50032 5.47004 5.58027C4.84021 6.21034 5.44019 7.83046 6.80012 9.20039C8.16006 10.5702 9.79029 11.1594 10.4202 10.5295C10.5001 10.4495 10.5796 10.3296 10.6595 10.1799C10.7795 9.94994 11.0497 9.86051 11.2796 9.95039L13.6702 10.8703C13.94 10.9705 14.0597 11.2901 13.9398 11.55C13.6998 12.0499 13.4395 12.4604 13.1595 12.7404C11.5993 14.2997 8.10989 13.3598 5.3802 10.6203C2.6502 7.88031 1.70008 4.40003 3.26008 2.84003C3.54003 2.56009 3.94968 2.28973 4.44954 2.05976Z" fill="currentColor"/>
</svg>
