<svg width="16" height="16" viewBox="0 0 16 16" fill="none" xmlns="http://www.w3.org/2000/svg">
<path d="M6.35041 9.98952C7.35028 9.3299 8.66018 9.32977 9.65999 9.98952C9.91989 10.1595 9.96001 10.5398 9.7303 10.7698L8.36018 12.1399C8.16021 12.3399 7.85022 12.3398 7.65022 12.1399L6.2801 10.7698C6.06014 10.5498 6.09043 10.1695 6.35041 9.98952Z" fill="black"/>
<path d="M4.15022 7.89968C6.37019 6.02997 9.64029 6.02983 11.8602 7.89968C12.0802 8.07968 12.0797 8.43014 11.8797 8.63014H11.8699L11.16 9.34011C10.97 9.53007 10.6803 9.51963 10.4803 9.35964C9.6903 8.72964 8.70983 8.45003 7.74983 8.51003C6.96005 8.56004 6.18021 8.83988 5.52034 9.35964C5.31034 9.51964 5.01967 9.53011 4.83967 9.34011L4.12971 8.63014C3.9298 8.43013 3.93025 8.08965 4.15022 7.89968Z" fill="black"/>
<path d="M2.02034 5.77956C5.43029 2.73998 10.5902 2.73982 13.9901 5.77956C14.2001 5.96956 14.1998 6.31003 13.9998 6.51003L13.2899 7.21999C13.0999 7.40991 12.8004 7.40962 12.6004 7.22975C10.9204 5.75975 8.71999 5.23014 6.65999 5.63014C5.4901 5.86012 4.36016 6.38989 3.40022 7.22975C3.20022 7.40975 2.89979 7.40999 2.70979 7.21999L1.99983 6.51003H2.00959C1.80975 6.31001 1.81039 5.96951 2.02034 5.77956Z" fill="black"/>
</svg>
