<svg width="16" height="16" viewBox="0 0 16 16" fill="none" xmlns="http://www.w3.org/2000/svg">
<path d="M7.5 10C8.88 10 10 11.12 10 12.5C10 12.78 9.78 13 9.5 13H2.5C2.22 13 2 12.78 2 12.5C2 11.12 3.12 10 4.5 10H7.5Z" fill="black"/>
<path d="M6 4C7.38071 4 8.5 5.11929 8.5 6.5C8.5 7.88071 7.38071 9 6 9C4.61929 9 3.5 7.88071 3.5 6.5C3.5 5.11929 4.61929 4 6 4Z" fill="black"/>
<path fill-rule="evenodd" clip-rule="evenodd" d="M12 2.5C13.3807 2.5 14.5 3.61929 14.5 5C14.5 6.38071 13.3807 7.5 12 7.5C10.6193 7.5 9.5 6.38071 9.5 5C9.5 3.61929 10.6193 2.5 12 2.5ZM11.3545 6.35156C11.5503 6.44524 11.7685 6.5 12 6.5C12.8284 6.5 13.5 5.82843 13.5 5C13.5 4.76847 13.4452 4.55028 13.3516 4.35449L11.3545 6.35156ZM12 3.5C11.1716 3.5 10.5 4.17157 10.5 5C10.5 5.23107 10.5541 5.44904 10.6475 5.64453L12.6445 3.64746C12.449 3.55413 12.2311 3.5 12 3.5Z" fill="black"/>
</svg>
