<svg width="16" height="16" viewBox="0 0 16 16" fill="none" xmlns="http://www.w3.org/2000/svg">
<path d="M7.11035 9.29042C7.48035 8.55042 8.53039 8.55042 8.90039 9.29042L10.2803 12.0502H10.2695C10.6095 12.7202 10.1199 13.5004 9.37988 13.5004H6.62012C5.88012 13.5004 5.40047 12.7102 5.73047 12.0502L7.11035 9.29042Z" fill="currentColor"/>
<path d="M4.11035 2.60976C4.31036 2.41004 4.62041 2.40985 4.82031 2.60976C5.02017 2.80967 5.02003 3.11973 4.82031 3.31972C3.97031 4.16972 3.5 5.30038 3.5 6.50038C3.50011 7.70022 3.97041 8.83017 4.82031 9.68007C5.02006 9.88004 5.02013 10.1901 4.82031 10.39C4.72031 10.49 4.58973 10.5404 4.46973 10.5404H4.45996C4.33007 10.5404 4.20034 10.4899 4.11035 10.39C3.07045 9.35013 2.50011 7.97022 2.5 6.50038C2.5 5.03038 3.07035 3.64976 4.11035 2.60976Z" fill="currentColor"/>
<path d="M11.1904 2.60976C11.3904 2.41005 11.7005 2.40986 11.9004 2.60976C12.9403 3.64975 13.5098 5.03042 13.5098 6.50038C13.5097 7.97016 12.9402 9.35015 11.9004 10.39C11.8004 10.49 11.6698 10.5404 11.5498 10.5404H11.54C11.4101 10.5404 11.2804 10.4899 11.1904 10.39C10.9904 10.19 10.9904 9.88007 11.1904 9.68007C12.0402 8.83019 12.5097 7.70016 12.5098 6.50038C12.5098 5.30042 12.0404 4.16971 11.1904 3.31972C10.9904 3.11972 10.9904 2.80976 11.1904 2.60976Z" fill="currentColor"/>
<path d="M5.53027 4.02968C5.73027 3.82999 6.04033 3.82982 6.24023 4.02968C6.44013 4.22958 6.43993 4.53963 6.24023 4.73964C5.77023 5.20964 5.50977 5.84015 5.50977 6.51015C5.5098 7.18008 5.77029 7.80972 6.24023 8.27968C6.44013 8.47958 6.43993 8.78963 6.24023 8.98964C6.14023 9.08964 6.00965 9.14003 5.88965 9.14003L5.87988 9.11952C5.75001 9.11949 5.62024 9.06995 5.53027 8.97011C4.87036 8.3102 4.5001 7.43024 4.5 6.50038C4.5 5.57038 4.86027 4.68968 5.53027 4.02968Z" fill="currentColor"/>
<path d="M9.76953 4.01015C9.96953 3.81015 10.2805 3.81015 10.4805 4.01015C11.1402 4.67009 11.5097 5.55006 11.5098 6.47988C11.5098 7.40968 11.1502 8.28965 10.4805 8.9496C10.3805 9.0496 10.2499 9.09999 10.1299 9.09999L10.1201 9.11952C9.99012 9.11952 9.85953 9.07011 9.76953 8.97011C9.5698 8.77021 9.5699 8.46011 9.76953 8.26015C10.2395 7.79015 10.5 7.15964 10.5 6.48964C10.4999 5.81977 10.2395 5.19003 9.76953 4.72011C9.5698 4.52021 9.5699 4.21011 9.76953 4.01015Z" fill="currentColor"/>
<path d="M6.94043 5.43984C7.52036 4.86023 8.47964 4.86023 9.05957 5.43984C9.63957 6.01984 9.63957 6.97995 9.05957 7.55995C8.76959 7.84983 8.37991 8.00038 8 8.00038C7.62008 8.00038 7.23041 7.84983 6.94043 7.55995C6.36043 6.97995 6.36043 6.01984 6.94043 5.43984Z" fill="currentColor"/>
</svg>
