<svg width="16" height="16" viewBox="0 0 16 16" fill="none" xmlns="http://www.w3.org/2000/svg">
<path fill-rule="evenodd" clip-rule="evenodd" d="M8 2C11.31 2 14 4.46 14 7.5V7.50977C14 8.97964 13.3599 10.3196 12.3301 11.3096L12.7598 13.0303C12.8596 13.4301 12.46 13.7701 12.0801 13.6104L9.95996 12.7002C9.33999 12.8902 8.68997 13 8 13C4.69 13 2 10.54 2 7.5C2 4.46 4.69 2 8 2ZM8 9.5C7.59 9.5 7.25 9.84 7.25 10.25C7.25 10.66 7.59 11 8 11C8.41 11 8.75 10.66 8.75 10.25C8.75 9.84 8.41 9.5 8 9.5ZM8.03027 4.25C7.61027 4.23 7.27004 4.58 7.29004 5L7.46973 8C7.48973 8.28 7.72 8.5 8 8.5C8.28 8.5 8.51027 8.28 8.53027 8L8.7002 5.04004C8.73019 4.64013 8.43014 4.27016 8.03027 4.25Z" fill="currentColor"/>
</svg>
