<svg width="16" height="16" viewBox="0 0 16 16" fill="none" xmlns="http://www.w3.org/2000/svg">
<path d="M7.5 9.99962C8.87988 9.99962 9.9998 11.1198 10 12.4996C10 12.7796 9.78 12.9996 9.5 12.9996H2.5C2.22 12.9996 2 12.7796 2 12.4996C2.0002 11.1198 3.12012 9.99962 4.5 9.99962H7.5Z" fill="currentColor"/>
<path d="M6 3.99962C7.38059 3.99962 8.4998 5.11908 8.5 6.49962C8.5 7.88034 7.38071 8.99962 6 8.99962C4.61929 8.99962 3.5 7.88034 3.5 6.49962C3.5002 5.11908 4.61941 3.99962 6 3.99962Z" fill="currentColor"/>
<path d="M12.8799 2.35021C13.0799 2.15021 13.3898 2.15021 13.5898 2.35021L14.6504 3.40978C14.8502 3.60968 14.8501 3.91975 14.6504 4.11974L12.0596 6.70959C11.8696 6.88958 11.6196 6.99962 11.3496 6.99962H10.5C10.22 6.99962 10 6.77962 10 6.49962V5.65002C10 5.38002 10.1 5.13005 10.29 4.94005L12.8799 2.35021Z" fill="currentColor"/>
</svg>
