<svg width="16" height="16" viewBox="0 0 16 16" fill="none" xmlns="http://www.w3.org/2000/svg">
<path d="M4.51953 6.0301C7.40953 6.2801 9.71973 8.59029 9.96973 11.4803C9.98956 11.7602 9.74964 12.0096 9.46973 12.0096V11.9998H8.46973C8.20986 11.9997 7.99974 11.79 7.96973 11.5301C7.84973 10.5301 7.35965 9.62982 6.63965 8.99982C6.04969 8.47996 5.28983 8.12008 4.45996 8.0301C4.2 8.00009 3.99028 7.80005 3.99023 7.5301V6.5301C3.99023 6.24025 4.22973 6.00039 4.51953 6.0301Z" fill="currentColor"/>
<path d="M4.59961 9.06037C5.77961 9.30037 6.70043 10.2202 6.94043 11.4002C7.00022 11.71 6.76013 11.9996 6.44043 11.9998H4.5C4.22 11.9998 4 11.7798 4 11.4998V9.56037C4 9.24048 4.28973 9.0006 4.59961 9.06037Z" fill="currentColor"/>
<path d="M4.54004 3.02033C9.09001 3.28036 12.74 6.93032 13 11.4803C13.0098 11.7601 12.77 11.9997 12.4902 11.9998H11.4902C11.2204 11.9998 11.0104 11.7902 10.9902 11.5203C10.8402 9.30036 9.65988 7.36026 7.91992 6.19025C6.92004 5.52033 5.7503 5.09966 4.48047 5.00959C4.21059 4.99959 4.00018 4.79016 4 4.52033V3.52033L4.01953 3.5301C4.01953 3.2401 4.26004 3.00033 4.54004 3.02033Z" fill="currentColor"/>
</svg>
