<svg width="16" height="16" viewBox="0 0 16 16" fill="none" xmlns="http://www.w3.org/2000/svg">
<path d="M12.6503 2.64981C12.8403 2.45006 13.1606 2.4499 13.3505 2.64981C13.5503 2.83975 13.5502 3.16003 13.3505 3.35001L12.1698 4.5297C12.4697 4.67964 12.7598 4.85983 13.0497 5.06974C13.3697 5.26974 13.6804 5.5097 13.9804 5.7797V5.79044C14.2 5.9805 14.1998 6.31006 13.9999 6.51993L13.29 7.22013C13.1001 7.39994 12.8005 7.39981 12.6005 7.22013C12.2906 6.9502 11.9502 6.71013 11.6103 6.51017C11.3003 6.32017 10.9898 6.1597 10.6698 6.0297L9.88957 6.80997C10.2295 6.91993 10.5599 7.05974 10.8798 7.23966C11.2198 7.41966 11.5505 7.63981 11.8505 7.89981C12.0703 8.08984 12.07 8.43034 11.87 8.63028L11.1601 9.34024C10.9701 9.53011 10.6804 9.51967 10.4804 9.35977C10.1404 9.08981 9.75999 8.8804 9.37004 8.7504C8.99014 8.60044 8.59024 8.5202 8.19035 8.51017L7.03996 9.65958C7.52994 9.4896 8.06049 9.44998 8.56047 9.55997C8.94032 9.62002 9.31044 9.77049 9.65031 10.0004C9.91986 10.1705 9.95005 10.55 9.73039 10.7699L8.35051 12.1498C8.16052 12.3398 7.84032 12.3398 7.65031 12.1498L6.10051 10.6L4.35051 12.35C4.26051 12.45 4.12992 12.5004 3.99992 12.5004C3.87002 12.5004 3.74028 12.4499 3.65031 12.35C3.45031 12.16 3.45031 11.8398 3.65031 11.6498L12.6503 2.64981Z" fill="currentColor"/>
<path d="M4.69035 9.18985L4.1298 8.63028C3.9298 8.43028 3.93031 8.08981 4.15031 7.89981C5.08017 7.12003 6.18999 6.66047 7.33977 6.54044L4.69035 9.18985Z" fill="currentColor"/>
<path d="M2.02043 5.78946C4.28801 3.76191 7.33378 3.09156 10.1112 3.76798L8.36027 5.51993C7.80027 5.47993 7.22008 5.52028 6.66008 5.63028C5.49011 5.86028 4.36029 6.39017 3.40031 7.22013C3.20032 7.40012 2.89988 7.4001 2.70988 7.22013L1.99992 6.51993C1.79997 6.30993 1.80045 5.97945 2.02043 5.78946Z" fill="currentColor"/>
<path d="M10.12 3.76993C10.1171 3.76922 10.1142 3.76869 10.1112 3.76798L10.12 3.76017V3.76993Z" fill="currentColor"/>
</svg>
