<svg width="16" height="16" viewBox="0 0 16 16" fill="none" xmlns="http://www.w3.org/2000/svg">
<path d="M7.5 10C8.88 10 10 11.12 10 12.5C9.99998 12.78 9.77999 13 9.5 13H2.5C2.22001 13 2.00002 12.78 2 12.5C2 11.12 3.12 10 4.5 10H7.5Z" fill="black"/>
<path d="M6 4.00004C7.38071 4.00004 8.5 5.11933 8.5 6.50004C8.49998 7.88073 7.3807 9.00004 6 9.00004C4.6193 9.00004 3.50002 7.88073 3.5 6.50004C3.5 5.11933 4.61929 4.00004 6 4.00004Z" fill="black"/>
<path d="M13.3965 2.89652C13.5917 2.70126 13.9083 2.70126 14.1035 2.89652C14.2988 3.09179 14.2988 3.4083 14.1035 3.60355L12.707 5.00004L14.1035 6.39652C14.2988 6.59179 14.2988 6.9083 14.1035 7.10355C13.9083 7.29879 13.5917 7.29879 13.3965 7.10355L12 5.70707L10.6035 7.10355C10.4083 7.29879 10.0917 7.29879 9.89648 7.10355C9.70123 6.9083 9.70124 6.59179 9.89648 6.39652L11.293 5.00004L9.89648 3.60355C9.70123 3.4083 9.70124 3.09179 9.89648 2.89652C10.0917 2.70126 10.4083 2.70126 10.6035 2.89652L12 4.29301L13.3965 2.89652Z" fill="black"/>
</svg>
