<svg width="16" height="16" viewBox="0 0 16 16" fill="none" xmlns="http://www.w3.org/2000/svg">
<path d="M6.94043 4.93984C7.52036 4.36023 8.47964 4.36023 9.05957 4.93984C9.63957 5.51984 9.63957 6.47995 9.05957 7.05995C8.89793 7.22153 8.7047 7.33765 8.5 7.41054V14.0004C8.4998 14.2802 8.27987 14.5004 8 14.5004C7.72013 14.5004 7.5002 14.2802 7.5 14.0004V7.41054C7.2953 7.33765 7.10207 7.22153 6.94043 7.05995C6.36043 6.47995 6.36043 5.51984 6.94043 4.93984Z" fill="black"/>
<path d="M4.11035 2.10976C4.31036 1.91004 4.62041 1.90985 4.82031 2.10976C5.02017 2.30967 5.02003 2.61973 4.82031 2.81972C3.97031 3.66972 3.5 4.80038 3.5 6.00038C3.50011 7.20022 3.97041 8.33017 4.82031 9.18007C5.02006 9.38004 5.02013 9.6901 4.82031 9.89003C4.72031 9.99003 4.58973 10.0404 4.46973 10.0404H4.45996C4.33007 10.0404 4.20034 9.98987 4.11035 9.89003C3.07045 8.85013 2.50011 7.47022 2.5 6.00038C2.5 4.53038 3.07035 3.14976 4.11035 2.10976Z" fill="black"/>
<path d="M11.1904 2.10976C11.3904 1.91005 11.7005 1.90986 11.9004 2.10976C12.9403 3.14975 13.5098 4.53042 13.5098 6.00038C13.5097 7.47016 12.9402 8.85015 11.9004 9.89003C11.8004 9.99003 11.6698 10.0404 11.5498 10.0404H11.54C11.4101 10.0404 11.2804 9.98987 11.1904 9.89003C10.9904 9.69003 10.9904 9.38007 11.1904 9.18007C12.0402 8.33019 12.5097 7.20016 12.5098 6.00038C12.5098 4.80042 12.0404 3.66971 11.1904 2.81972C10.9904 2.61972 10.9904 2.30976 11.1904 2.10976Z" fill="black"/>
<path d="M5.53027 3.52968C5.73027 3.32999 6.04033 3.32982 6.24023 3.52968C6.44013 3.72958 6.43993 4.03963 6.24023 4.23964C5.77023 4.70964 5.50977 5.34015 5.50977 6.01015C5.5098 6.68008 5.77029 7.30972 6.24023 7.77968C6.44013 7.97958 6.43993 8.28963 6.24023 8.48964C6.14023 8.58964 6.00965 8.64003 5.88965 8.64003L5.87988 8.61952C5.75001 8.61949 5.62024 8.56995 5.53027 8.47011C4.87036 7.8102 4.5001 6.93024 4.5 6.00038C4.5 5.07038 4.86027 4.18968 5.53027 3.52968Z" fill="black"/>
<path d="M9.76953 3.51015C9.96953 3.31015 10.2805 3.31015 10.4805 3.51015C11.1402 4.17009 11.5097 5.05006 11.5098 5.97988C11.5098 6.90968 11.1502 7.78965 10.4805 8.4496C10.3805 8.5496 10.2499 8.59999 10.1299 8.59999L10.1201 8.61952C9.99012 8.61952 9.85953 8.57011 9.76953 8.47011C9.5698 8.27021 9.5699 7.96011 9.76953 7.76015C10.2395 7.29015 10.5 6.65964 10.5 5.98964C10.4999 5.31977 10.2395 4.69003 9.76953 4.22011C9.5698 4.02021 9.5699 3.71011 9.76953 3.51015Z" fill="black"/>
</svg>
