<svg width="16" height="16" viewBox="0 0 16 16" fill="none" xmlns="http://www.w3.org/2000/svg">
<path d="M4.24023 3.45996C4.50011 3.30022 4.83988 3.4 4.95996 3.67969L4.95019 3.66992L5.88964 5.75977C5.99962 5.98971 5.91985 6.25961 5.70996 6.38965C5.57 6.47962 5.40018 6.60007 5.24023 6.75C4.56023 7.39 5.3898 8.77043 6.2998 9.69043C7.2098 10.6104 8.60026 11.43 9.24023 10.75C9.39005 10.5902 9.50966 10.4202 9.59961 10.2803C9.7295 10.0704 9.9996 9.99995 10.2295 10.0996L12.3203 11.04C12.6 11.1601 12.6998 11.4999 12.54 11.7598C12.35 12.0698 12.1502 12.3303 11.9502 12.5303C10.3902 14.1003 7.21987 13.4601 4.87988 11.1201C2.53988 8.78012 1.90972 5.6098 3.46972 4.0498C3.66972 3.84981 3.93023 3.64996 4.24023 3.45996Z" fill="currentColor"/>
<path fill-rule="evenodd" clip-rule="evenodd" d="M13 3.25C13.9665 3.25 14.75 4.0335 14.75 5C14.75 5.90617 14.0613 6.6517 13.1787 6.74121L13 6.75H9L8.82128 6.74121C7.93872 6.65171 7.25 5.90618 7.25 5C7.25 4.0335 8.0335 3.25 9 3.25C9.96649 3.25 10.75 4.0335 10.75 5C10.75 5.26878 10.6874 5.52244 10.5791 5.75H11.4209C11.3126 5.52244 11.25 5.26878 11.25 5C11.25 4.0335 12.0335 3.25 13 3.25ZM9 4.25C8.58578 4.25 8.25 4.58579 8.25 5C8.25 5.41421 8.58578 5.75 9 5.75C9.41421 5.75 9.75 5.41421 9.75 5C9.75 4.58579 9.41421 4.25 9 4.25ZM13 4.25C12.5858 4.25 12.25 4.58579 12.25 5C12.25 5.41421 12.5858 5.75 13 5.75C13.4142 5.75 13.75 5.41421 13.75 5C13.75 4.58579 13.4142 4.25 13 4.25Z" fill="currentColor"/>
</svg>
