<svg width="16" height="16" viewBox="0 0 16 16" fill="none" xmlns="http://www.w3.org/2000/svg">
<path d="M2.84006 3.26007C4.40006 1.70007 7.88033 2.65019 10.6203 5.38019C13.3601 8.11015 14.3004 11.6005 12.7404 13.1605C12.4605 13.4404 12.05 13.6998 11.55 13.9398C11.2901 14.0597 10.9705 13.94 10.8703 13.6702L9.95041 11.2796C9.86059 11.0497 9.95019 10.7805 10.1799 10.6605C10.3299 10.5805 10.4505 10.5002 10.5305 10.4202C11.1603 9.79019 10.5702 8.15999 9.20041 6.80011C7.83048 5.44018 6.21036 4.8402 5.58029 5.47003C5.50034 5.54998 5.42001 5.66977 5.34006 5.81964C5.22006 6.03964 4.95994 6.14011 4.71994 6.05011L2.33029 5.13019C2.06029 5.03019 1.92978 4.70952 2.05978 4.44952C2.28974 3.94968 2.56013 3.54001 2.84006 3.26007Z" fill="black"/>
</svg>
