<svg width="16" height="16" viewBox="0 0 16 16" fill="none" xmlns="http://www.w3.org/2000/svg">
<path d="M2.7002 2.69962C2.90016 2.49997 3.21025 2.49986 3.41016 2.69962C3.61005 2.89952 3.60984 3.20957 3.41016 3.40958C0.880156 5.93958 0.880156 10.07 3.41016 12.6C3.61006 12.8 3.61002 13.11 3.41016 13.31C3.31016 13.41 3.17957 13.4604 3.05957 13.4604L3.0498 13.4496C2.91994 13.4496 2.79015 13.4 2.7002 13.3002C1.28028 11.8803 0.500091 10.0003 0.5 8.0004C0.5 6.0004 1.2802 4.10962 2.7002 2.69962Z" fill="currentColor"/>
<path d="M12.5996 2.68985C12.7995 2.48996 13.1096 2.49016 13.3096 2.68985C14.7295 4.10977 15.5097 5.9898 15.5098 7.98966C15.5098 9.98966 14.7296 11.8804 13.3096 13.2904C13.2096 13.3902 13.0798 13.4399 12.96 13.4399L12.9502 13.4496C12.8202 13.4496 12.6896 13.4002 12.5996 13.3002C12.3998 13.1003 12.4 12.7902 12.5996 12.5902C15.1296 10.0602 15.1296 5.92981 12.5996 3.39981C12.4 3.19984 12.3998 2.88975 12.5996 2.68985Z" fill="currentColor"/>
<path d="M4.11035 4.10978C4.31036 3.91005 4.6204 3.90987 4.82031 4.10978C5.02016 4.30969 5.02003 4.61975 4.82031 4.81974C3.97031 5.66974 3.5 6.8004 3.5 8.0004C3.50012 9.20024 3.97042 10.3302 4.82031 11.1801C5.02006 11.3801 5.02013 11.6901 4.82031 11.89C4.72031 11.99 4.58973 12.0404 4.46973 12.0404H4.45996C4.33007 12.0404 4.20034 11.9899 4.11035 11.89C3.07046 10.8502 2.50011 9.47024 2.5 8.0004C2.5 6.5304 3.07035 5.14978 4.11035 4.10978Z" fill="currentColor"/>
<path d="M11.1904 4.10978C11.3904 3.91006 11.7005 3.90987 11.9004 4.10978C12.9403 5.14977 13.5098 6.53044 13.5098 8.0004C13.5097 9.47017 12.9402 10.8502 11.9004 11.89C11.8004 11.99 11.6698 12.0404 11.5498 12.0404H11.54C11.4101 12.0404 11.2804 11.9899 11.1904 11.89C10.9904 11.69 10.9904 11.3801 11.1904 11.1801C12.0402 10.3302 12.5097 9.20018 12.5098 8.0004C12.5098 6.80044 12.0404 5.66973 11.1904 4.81974C10.9904 4.61974 10.9904 4.30978 11.1904 4.10978Z" fill="currentColor"/>
<path d="M5.53027 5.5297C5.73027 5.33 6.04033 5.32983 6.24023 5.5297C6.44014 5.7296 6.43994 6.03965 6.24023 6.23966C5.77023 6.70966 5.50977 7.34017 5.50977 8.01017C5.50981 8.68009 5.77029 9.30974 6.24023 9.7797C6.44014 9.9796 6.43994 10.2896 6.24023 10.4897C6.14023 10.5897 6.00965 10.64 5.88965 10.64L5.87988 10.6195C5.75001 10.6195 5.62024 10.57 5.53027 10.4701C4.87037 9.81022 4.5001 8.93025 4.5 8.0004C4.5 7.0704 4.86027 6.1897 5.53027 5.5297Z" fill="currentColor"/>
<path d="M9.76953 5.51017C9.96953 5.31017 10.2805 5.31017 10.4805 5.51017C11.1402 6.17011 11.5097 7.05008 11.5098 7.97989C11.5098 8.9097 11.1502 9.78966 10.4805 10.4496C10.3805 10.5496 10.2499 10.6 10.1299 10.6L10.1201 10.6195C9.99012 10.6195 9.85953 10.5701 9.76953 10.4701C9.5698 10.2702 9.56991 9.96012 9.76953 9.76017C10.2395 9.29017 10.5 8.65966 10.5 7.98966C10.4999 7.31978 10.2395 6.69005 9.76953 6.22013C9.5698 6.02023 9.56991 5.71012 9.76953 5.51017Z" fill="currentColor"/>
<path d="M6.94043 6.93985C7.52036 6.36024 8.47964 6.36024 9.05957 6.93985C9.63957 7.51985 9.63957 8.47997 9.05957 9.05997C8.76959 9.34984 8.37991 9.5004 8 9.5004C7.62009 9.5004 7.23041 9.34984 6.94043 9.05997C6.36043 8.47997 6.36043 7.51985 6.94043 6.93985Z" fill="currentColor"/>
</svg>
