<svg width="16" height="16" viewBox="0 0 16 16" fill="none" xmlns="http://www.w3.org/2000/svg">
<path d="M7.5 9.99961C8.87987 9.99961 9.99979 11.1198 10 12.4996C10 12.7796 9.78 12.9996 9.5 12.9996H2.5C2.22 12.9996 2 12.7796 2 12.4996C2.00021 11.1198 3.12013 9.99961 4.5 9.99961H7.5Z" fill="currentColor"/>
<path d="M6 3.99961C7.38058 3.99961 8.49979 5.11908 8.5 6.49961C8.5 7.88032 7.38071 8.99961 6 8.99961C4.61929 8.99961 3.5 7.88032 3.5 6.49961C3.50021 5.11908 4.61942 3.99961 6 3.99961Z" fill="currentColor"/>
<path d="M12.4902 3.52988C13.0402 2.98005 13.9305 2.97994 14.4805 3.52988C15.0302 4.07984 15.0302 4.97016 14.4805 5.52012L12.4902 7.51035C12.2203 7.78023 11.77 7.78016 11.5 7.51035L9.50977 5.52012C8.95986 4.97014 8.95987 4.07986 9.50977 3.52988C10.0597 2.97991 10.95 2.97995 11.5 3.52988L12 4.02988L12.5 3.52988H12.4902Z" fill="currentColor"/>
</svg>
