<svg width="16" height="16" viewBox="0 0 16 16" fill="none" xmlns="http://www.w3.org/2000/svg">
<path fill-rule="evenodd" clip-rule="evenodd" d="M13 4C13.55 4 14 4.45 14 5V11C14 11.55 13.55 12 13 12H3C2.45 12 2 11.55 2 11V5C2 4.45 2.45 4 3 4H13ZM12.9102 5.2002C12.7402 4.9802 12.43 4.94035 12.21 5.11035L8.33008 8.12012C8.15008 8.26011 7.89972 8.26011 7.71973 8.12012L3.7998 5.12012C3.57981 4.95018 3.26959 4.98998 3.09961 5.20996C2.92976 5.42995 2.97049 5.7402 3.19043 5.91016L7.11035 8.91016C7.38015 9.1199 7.68983 9.21963 8.01953 9.21973C8.34953 9.21973 8.67043 9.12016 8.94043 8.91016L12.8203 5.90039C13.0402 5.73044 13.08 5.42018 12.9102 5.2002Z" fill="black"/>
</svg>
