<svg width="16" height="16" viewBox="0 0 16 16" fill="none" xmlns="http://www.w3.org/2000/svg">
<path d="M4.24022 3.45988C4.50007 3.30018 4.83985 3.39998 4.95994 3.67961L4.95018 3.66984L5.88963 5.75968C5.9996 5.98962 5.91981 6.25952 5.70994 6.38957C5.57 6.47953 5.40016 6.60001 5.24022 6.74992C4.56022 7.38992 5.38979 8.77035 6.29979 9.69035C7.20979 10.6103 8.60024 11.4299 9.24022 10.7499C9.39004 10.5901 9.50965 10.4201 9.59959 10.2802C9.72955 10.0703 9.99952 10.0006 10.2295 10.1005L12.3203 11.04C12.6 11.16 12.6997 11.4998 12.54 11.7597C12.35 12.0697 12.1502 12.3302 11.9502 12.5302C10.3902 14.1002 7.21987 13.46 4.87987 11.12C2.5399 8.78004 1.90972 5.60971 3.46971 4.04972C3.6697 3.84974 3.93024 3.64987 4.24022 3.45988Z" fill="black"/>
<path d="M11 6.49992C11.2761 6.49992 11.4999 6.72382 11.5 6.99992C11.5 7.27606 11.2761 7.49992 11 7.49992C10.7238 7.49992 10.5 7.27606 10.5 6.99992C10.5 6.72381 10.7239 6.49992 11 6.49992Z" fill="black"/>
<path d="M9.5869 5.08683C10.3704 4.30335 11.6394 4.29888 12.417 5.08976C12.61 5.28665 12.6077 5.60334 12.4111 5.79679C12.2144 5.99019 11.8977 5.98731 11.7041 5.79093C11.3217 5.40195 10.6904 5.3975 10.2939 5.79386C10.0988 5.98896 9.78219 5.98867 9.5869 5.79386C9.3917 5.5986 9.39167 5.28208 9.5869 5.08683Z" fill="black"/>
<path d="M8.17674 3.67668C9.74201 2.11149 12.2687 2.11144 13.834 3.67668C14.0288 3.8719 14.0289 4.18854 13.834 4.38371C13.6388 4.57881 13.3222 4.57861 13.1269 4.38371C11.9522 3.209 10.0585 3.20905 8.88377 4.38371C8.68861 4.57882 8.37201 4.57866 8.17674 4.38371C7.98157 4.18846 7.98155 3.87192 8.17674 3.67668Z" fill="black"/>
</svg>
