<svg width="16" height="16" viewBox="0 0 16 16" fill="none" xmlns="http://www.w3.org/2000/svg">
<path d="M4.24023 3.45996C4.50011 3.30022 4.83988 3.4 4.95996 3.67969L4.95019 3.66992L5.88964 5.75977C5.99962 5.98971 5.91985 6.25961 5.70996 6.38965C5.57 6.47962 5.40018 6.60007 5.24023 6.75C4.56023 7.39 5.3898 8.77043 6.2998 9.69043C7.2098 10.6104 8.60026 11.43 9.24023 10.75C9.39005 10.5902 9.50966 10.4202 9.59961 10.2803C9.7295 10.0704 9.9996 9.99995 10.2295 10.0996L12.3203 11.04C12.6 11.1601 12.6998 11.4999 12.54 11.7598C12.35 12.0698 12.1502 12.3303 11.9502 12.5303C10.3902 14.1003 7.21987 13.4601 4.87988 11.1201C2.53988 8.78012 1.90972 5.6098 3.46972 4.0498C3.66972 3.84981 3.93023 3.64996 4.24023 3.45996Z" fill="currentColor"/>
<path d="M10 3C10.2761 3 10.5 3.22386 10.5 3.5V6.5C10.5 6.77614 10.2761 7 10 7C9.72385 7 9.5 6.77614 9.5 6.5V3.5C9.5 3.22386 9.72385 3 10 3Z" fill="currentColor"/>
<path d="M12 3C12.2761 3 12.5 3.22386 12.5 3.5V6.5C12.5 6.77614 12.2761 7 12 7C11.7239 7 11.5 6.77614 11.5 6.5V3.5C11.5 3.22386 11.7239 3 12 3Z" fill="currentColor"/>
</svg>
