<svg width="16" height="16" viewBox="0 0 16 16" fill="none" xmlns="http://www.w3.org/2000/svg">
<path d="M5.5 7.5C6.05228 7.5 6.5 7.94772 6.5 8.5C6.5 9.05228 6.05228 9.5 5.5 9.5C4.94772 9.5 4.5 9.05228 4.5 8.5C4.5 7.94772 4.94772 7.5 5.5 7.5Z" fill="currentColor"/>
<path d="M10.5 7.5C11.0523 7.5 11.5 7.94772 11.5 8.5C11.5 9.05228 11.0523 9.5 10.5 9.5C9.94772 9.5 9.5 9.05228 9.5 8.5C9.5 7.94772 9.94772 7.5 10.5 7.5Z" fill="currentColor"/>
<path fill-rule="evenodd" clip-rule="evenodd" d="M13 3C13.55 3 14 3.45 14 4V12C14 12.55 13.55 13 13 13H3C2.45 13 2 12.55 2 12V4C2 3.45 2.45 3 3 3H13ZM10.5 6.5C9.4 6.5 8.5 7.4 8.5 8.5C8.5 8.87 8.61027 9.2 8.78027 9.5H7.21973C7.38973 9.2 7.5 8.87 7.5 8.5C7.5 7.4 6.6 6.5 5.5 6.5C4.4 6.5 3.5 7.4 3.5 8.5C3.5 9.6 4.4 10.5 5.5 10.5H10.5C11.6 10.5 12.5 9.6 12.5 8.5C12.5 7.4 11.6 6.5 10.5 6.5ZM5 4.5C4.72 4.5 4.5 4.72 4.5 5C4.5 5.28 4.72 5.5 5 5.5H11C11.28 5.5 11.5 5.28 11.5 5C11.5 4.72 11.28 4.5 11 4.5H5Z" fill="currentColor"/>
</svg>
