<svg width="16" height="16" viewBox="0 0 16 16" fill="none" xmlns="http://www.w3.org/2000/svg">
<path d="M11 12.5004C11.28 12.5004 11.5 12.7204 11.5 13.0004C11.4998 13.2802 11.2799 13.5004 11 13.5004H3C2.72012 13.5004 2.50018 13.2802 2.5 13.0004C2.5 12.7204 2.72 12.5004 3 12.5004H11Z" fill="black"/>
<path d="M13 10.5004C13.28 10.5004 13.5 10.7204 13.5 11.0004C13.4998 11.2802 13.2799 11.5004 13 11.5004H3C2.72012 11.5004 2.50018 11.2802 2.5 11.0004C2.5 10.7204 2.72 10.5004 3 10.5004H13Z" fill="black"/>
<path d="M8.00977 1.71034C8.25977 1.70034 8.52973 1.81038 8.71973 2.00038L10.0098 3.29042C10.3996 3.6804 10.3997 4.30963 10.0098 4.6996L5.36035 9.34999C5.27035 9.43999 5.13977 9.50038 5.00977 9.50038H3C2.72013 9.50038 2.5002 9.2802 2.5 9.00038V7.00038C2.5 6.87038 2.55039 6.7398 2.65039 6.6498L7.2998 2.00038C7.48975 1.81044 7.73986 1.7104 8.00977 1.71034Z" fill="black"/>
</svg>
