<svg width="16" height="16" viewBox="0 0 16 16" fill="none" xmlns="http://www.w3.org/2000/svg">
<path d="M7.24009 8.66016C8.55008 8.10017 9.99983 9.07002 9.99985 10.5C9.99985 11.94 8.55009 12.8998 7.24009 12.3398L4.0604 10.96C3.6604 10.78 3.6604 10.21 4.0604 10.04L7.24009 8.66016Z" fill="currentColor"/>
<path d="M7.99985 3.49023C11.6898 3.49023 14.7102 6.34984 14.9803 9.96973C15.0003 10.2496 14.7602 10.49 14.4803 10.4902H10.9999C10.9999 8.84037 9.66018 7.49045 8.02036 7.49023C7.61036 7.49023 7.2197 7.58023 6.8397 7.74023L3.66001 9.12012C3.11002 9.36012 2.75962 9.90001 2.75962 10.5H1.52036C1.24051 10.5 1.00065 10.2603 1.02036 9.98047C1.29036 6.35051 4.3099 3.50006 7.99985 3.5V3.49023Z" fill="currentColor"/>
</svg>
