<svg width="16" height="16" viewBox="0 0 16 16" fill="none" xmlns="http://www.w3.org/2000/svg">
<path d="M12.6503 2.65039C12.8403 2.45039 13.1595 2.45039 13.3495 2.65039C13.5495 2.84039 13.5495 3.15961 13.3495 3.34961L12.5497 4.15039C12.8096 4.35026 13.0696 4.56976 13.3095 4.80957C14.1394 5.6095 14.8701 6.60966 15.4501 7.76953C15.5701 8.01944 15.4702 8.32012 15.2304 8.4502C15.1504 8.4802 15.0799 8.5 14.9999 8.5C14.82 8.49999 14.6398 8.4003 14.5497 8.23047C14.0097 7.16047 13.3495 6.24953 12.5995 5.51953C12.3497 5.27972 12.0998 5.05999 11.83 4.87012L10.4404 6.25977C10.6503 6.54976 10.8096 6.88048 10.8896 7.23047C10.9595 7.47038 10.9999 7.73012 10.9999 8C10.9999 9.66 9.65993 11 7.99993 11C7.73006 11 7.4703 10.9596 7.23039 10.8896C6.8804 10.8096 6.54969 10.6504 6.25969 10.4404L3.34954 13.3496C3.25954 13.4496 3.12993 13.5 2.99993 13.5C2.86994 13.5 2.74031 13.4496 2.65032 13.3496C2.45035 13.1596 2.45035 12.8404 2.65032 12.6504L11.7197 3.58008H11.7304L12.6503 2.65039Z" fill="currentColor"/>
<path d="M7.99993 5C8.26993 5 8.53043 5.04035 8.77043 5.11035L5.11028 8.76953C5.04034 8.52963 4.99993 8.26987 4.99993 8C4.99993 6.34002 6.33995 5.00003 7.99993 5Z" fill="currentColor"/>
<path d="M7.99993 2.5C8.95991 2.5 9.89998 2.69986 10.79 3.08984L10.0204 3.86035C9.37043 3.62035 8.68993 3.5 7.99993 3.5C5.38995 3.50003 2.94011 5.27049 1.45012 8.23047C1.32011 8.47012 1.02024 8.56983 0.770434 8.4502C0.530434 8.3202 0.429731 8.01953 0.549731 7.76953C2.21973 4.46971 5.00003 2.50003 7.99993 2.5Z" fill="currentColor"/>
</svg>
