<svg width="16" height="16" viewBox="0 0 16 16" fill="none" xmlns="http://www.w3.org/2000/svg">
<path fill-rule="evenodd" clip-rule="evenodd" d="M5.55957 2.22023C5.83957 2.08023 6.1702 2.08023 6.4502 2.22023L9.55957 3.77004C9.83957 3.91004 10.1702 3.91004 10.4502 3.77004L13.2803 2.35988C13.6102 2.20014 14 2.44018 14 2.81008V11.23C14 11.71 13.7296 12.1401 13.3096 12.3501L10.4502 13.7798C10.1702 13.9198 9.83957 13.9198 9.55957 13.7798L6.4502 12.23C6.1702 12.09 5.83957 12.09 5.55957 12.23L2.73047 13.6402C2.40047 13.8002 2.00977 13.56 2.00977 13.19V4.77004C2.00977 4.29004 2.2802 3.85992 2.7002 3.64992L5.55957 2.22023ZM10 5.00051C9.72001 5.00051 9.5 5.22051 9.5 5.50051V12.5005C9.50025 12.7803 9.72017 13.0005 10 13.0005C10.2798 13.0005 10.4997 12.7803 10.5 12.5005V5.50051C10.5 5.22051 10.28 5.00051 10 5.00051ZM6 3.00051C5.72001 3.00051 5.5 3.22051 5.5 3.50051V10.5005C5.50025 10.7803 5.72017 11.0005 6 11.0005C6.27984 11.0005 6.49975 10.7803 6.5 10.5005V3.50051C6.5 3.22051 6.28 3.00051 6 3.00051Z" fill="black"/>
</svg>
