<svg width="16" height="16" viewBox="0 0 16 16" fill="none" xmlns="http://www.w3.org/2000/svg">
<path fill-rule="evenodd" clip-rule="evenodd" d="M13 4C13.55 4 14 4.45 14 5V11C14 11.55 13.55 12 13 12H3C2.45 12 2 11.55 2 11V5C2 4.45 2.45 4 3 4H13ZM5.5 5.5C4.67 5.5 4 6.17 4 7C4 7.5 4.24012 7.93996 4.62012 8.20996C3.96012 8.53996 3.5 9.21 3.5 10C3.5 10.28 3.72 10.5 4 10.5H7C7.28 10.5 7.5 10.28 7.5 10C7.5 9.21 7.03988 8.53996 6.37988 8.20996C6.74988 7.93996 7 7.5 7 7C7 6.17 6.33 5.5 5.5 5.5ZM9 9.5C8.72 9.5 8.5 9.72 8.5 10C8.5 10.28 8.72 10.5 9 10.5H11C11.28 10.5 11.5 10.28 11.5 10C11.5 9.72 11.28 9.5 11 9.5H9ZM9 7.5C8.72 7.5 8.5 7.72 8.5 8C8.5 8.28 8.72 8.5 9 8.5H12C12.28 8.5 12.5 8.28 12.5 8C12.5 7.72 12.28 7.5 12 7.5H9ZM9 5.5C8.72 5.5 8.5 5.72 8.5 6C8.5 6.28 8.72 6.5 9 6.5H12C12.28 6.5 12.5 6.28 12.5 6C12.5 5.72 12.28 5.5 12 5.5H9Z" fill="currentColor"/>
</svg>
