<svg width="16" height="16" viewBox="0 0 16 16" fill="none" xmlns="http://www.w3.org/2000/svg">
<path d="M10.5 14C10.5 14.55 10.05 15 9.5 15H6.5C5.95 15 5.5 14.55 5.5 14V12.8896C6.25 13.2796 7.1 13.5 8 13.5C8.9 13.5 9.75 13.2796 10.5 12.8896V14Z" fill="black"/>
<path fill-rule="evenodd" clip-rule="evenodd" d="M8 3.5C10.48 3.5 12.5 5.52 12.5 8C12.5 10.48 10.48 12.5 8 12.5C5.52 12.5 3.5 10.48 3.5 8C3.5 5.52 5.52 3.5 8 3.5ZM8.00977 5.00977C7.72996 5.00989 7.50989 5.22996 7.50977 5.50977V8.00977C7.50977 8.13977 7.57016 8.27035 7.66016 8.36035L9.19043 9.88965C9.28043 9.98964 9.42005 10.04 9.54004 10.04C9.66003 10.04 9.78966 9.98963 9.88965 9.88965L9.90039 9.90039C10.1002 9.70053 10.1 9.39044 9.90039 9.19043L8.50977 7.7998V5.50977C8.50964 5.22988 8.28969 5.00977 8.00977 5.00977Z" fill="black"/>
<path d="M9.5 1C10.05 1 10.5 1.45 10.5 2V3.11035C9.75 2.72035 8.9 2.5 8 2.5C7.1 2.5 6.25 2.72035 5.5 3.11035V2C5.5 1.45 5.95 1 6.5 1H9.5Z" fill="black"/>
</svg>
