<svg width="16" height="16" viewBox="0 0 16 16" fill="none" xmlns="http://www.w3.org/2000/svg">
<path d="M12.6503 2.64987C12.8403 2.45013 13.1606 2.44996 13.3505 2.64987C13.5503 2.83981 13.5502 3.16009 13.3505 3.35007L12.1698 4.52976C12.4697 4.6797 12.7598 4.85989 13.0497 5.0698C13.3697 5.2698 13.6804 5.50976 13.9804 5.77976V5.7905C14.2 5.98056 14.1998 6.31012 13.9999 6.51999L13.2899 7.22019C13.1 7.4 12.8005 7.39987 12.6005 7.22019C12.2906 6.95026 11.9502 6.71019 11.6103 6.51023C11.3003 6.32023 10.9898 6.15976 10.6698 6.02976L9.88955 6.81003C10.2294 6.91999 10.5599 7.0598 10.8798 7.23972C11.2198 7.41972 11.5505 7.63987 11.8505 7.89987C12.0703 8.0899 12.07 8.4304 11.87 8.63034L11.1601 9.3403C10.9701 9.53017 10.6803 9.51973 10.4804 9.35984C10.1404 9.08987 9.75998 8.88046 9.37002 8.75046C8.99013 8.6005 8.59023 8.52026 8.19034 8.51023L7.03995 9.65964C7.52993 9.48966 8.06048 9.45004 8.56045 9.56003C8.9403 9.62008 9.31043 9.77055 9.6503 10.0005C9.91985 10.1705 9.95003 10.5501 9.73037 10.77L8.35049 12.1499C8.16051 12.3399 7.8403 12.3398 7.6503 12.1499L6.10049 10.6001L4.35049 12.3501C4.26049 12.4501 4.12991 12.5005 3.99991 12.5005C3.87 12.5004 3.74027 12.4499 3.6503 12.3501C3.4503 12.1601 3.4503 11.8399 3.6503 11.6499L12.6503 2.64987Z" fill="currentColor"/>
<path d="M4.69034 9.18991L4.12979 8.63034C3.92979 8.43034 3.9303 8.08987 4.1503 7.89987C5.08016 7.12009 6.18997 6.66054 7.33975 6.5405L4.69034 9.18991Z" fill="currentColor"/>
<path d="M2.02041 5.78952C4.28799 3.76197 7.33377 3.09162 10.1112 3.76804L8.36026 5.51999C7.80026 5.47999 7.22006 5.52034 6.66006 5.63034C5.4901 5.86034 4.36028 6.39023 3.4003 7.22019C3.20031 7.40018 2.89987 7.40016 2.70987 7.22019L1.99991 6.51999C1.79995 6.30999 1.80043 5.97951 2.02041 5.78952Z" fill="currentColor"/>
<path d="M10.12 3.76999C10.1171 3.76928 10.1141 3.76875 10.1112 3.76804L10.12 3.76023V3.76999Z" fill="currentColor"/>
</svg>
