<svg width="16" height="16" viewBox="0 0 16 16" fill="none" xmlns="http://www.w3.org/2000/svg">
<path d="M6.5 8.5C7.05228 8.5 7.5 8.94772 7.5 9.5V12C7.5 12.5523 7.05228 13 6.5 13H4C3.44772 13 3 12.5523 3 12V9.5C3 8.94772 3.44772 8.5 4 8.5H6.5Z" fill="black"/>
<path d="M12 8.5C12.5523 8.5 13 8.94772 13 9.5V12C13 12.5523 12.5523 13 12 13H9.5C8.94772 13 8.5 12.5523 8.5 12V9.5C8.5 8.94772 8.94772 8.5 9.5 8.5H12Z" fill="black"/>
<path d="M6.5 3C7.05228 3 7.5 3.44772 7.5 4V6.5C7.5 7.05228 7.05228 7.5 6.5 7.5H4C3.44772 7.5 3 7.05228 3 6.5V4C3 3.44772 3.44772 3 4 3H6.5Z" fill="black"/>
<path d="M12 3C12.5523 3 13 3.44772 13 4V6.5C13 7.05228 12.5523 7.5 12 7.5H9.5C8.94772 7.5 8.5 7.05228 8.5 6.5V4C8.5 3.44772 8.94772 3 9.5 3H12Z" fill="black"/>
</svg>
