<svg width="16" height="16" viewBox="0 0 16 16" fill="none" xmlns="http://www.w3.org/2000/svg">
<path d="M7.58008 1.73039C7.77008 1.45039 8.23016 1.45039 8.41016 1.73039L10.4102 4.73039C10.5099 4.88034 10.5196 5.08029 10.4297 5.24015C10.3397 5.39991 10.17 5.49982 9.99023 5.49992H8.5V12.1474L10.7598 10.8603C10.8977 10.7827 10.9838 10.6452 11.0049 10.4999H10C9.72 10.4999 9.5 10.2799 9.5 9.99992V6.99992C9.50002 6.71994 9.72001 6.49992 10 6.49992H13C13.28 6.49992 13.5 6.71994 13.5 6.99992V9.99992C13.5 10.2799 13.28 10.4999 13 10.4999H12.0049C11.981 11.0128 11.6996 11.4817 11.25 11.7304L8.5 13.2978V13.9999C8.5 14.2799 8.28 14.4999 8 14.4999C7.97376 14.4999 7.94663 14.4968 7.91895 14.4921C7.90497 14.4899 7.89146 14.4866 7.87793 14.4833C7.87206 14.4818 7.86622 14.4802 7.86035 14.4784C7.8019 14.4619 7.74838 14.4362 7.70117 14.4013L4.75 12.7196C4.28008 12.4496 3.99023 11.9498 3.99023 11.4198V10.4306C3.13544 10.2034 2.5 9.42364 2.5 8.49992C2.50002 7.39993 3.40001 6.49992 4.5 6.49992C5.59999 6.49992 6.49998 7.39993 6.5 8.49992C6.5 9.43066 5.85487 10.2151 4.99023 10.4355V11.4198C4.99023 11.5998 5.09023 11.7695 5.24023 11.8495L7.5 13.1366V5.49992H6C5.82 5.49992 5.64957 5.40015 5.55957 5.24015C5.46963 5.08024 5.48024 4.88035 5.58008 4.73039L7.58008 1.73039Z" fill="currentColor"/>
</svg>
