<svg width="16" height="16" viewBox="0 0 16 16" fill="none" xmlns="http://www.w3.org/2000/svg">
<path d="M2.40041 4.38957C3.44046 2.96001 5.29015 2.62994 6.70998 3.3798C6.86994 3.45978 6.94959 3.66978 6.88967 3.83976L6.12014 6.00968C6.00014 6.33968 6.12041 6.69957 6.40041 6.88957L7.70998 7.79972C7.88998 7.91972 7.99025 8.12 7.99025 8.33V9.96964C7.99025 10.2495 8.35968 10.3599 8.50978 10.1103L9.66017 8.16984C9.85002 7.85986 9.76945 7.45034 9.47951 7.23039L8.00002 6.11027C7.78008 5.94032 7.74987 5.62008 7.92971 5.41007C8.4096 4.8602 9.27959 3.86045 9.67971 3.40031C9.82971 3.23031 10.03 3.11023 10.25 3.07023C11.47 2.84023 12.7904 3.27984 13.6104 4.41984V4.41007C14.5802 5.76006 14.3496 7.64053 13.1797 8.81046L8.70021 13.29C8.31028 13.6799 7.68024 13.6799 6.90041 12.9003L2.80959 8.81046C1.62959 7.63046 1.41041 5.73957 2.40041 4.38957Z" fill="currentColor"/>
</svg>
