<svg width="16" height="16" viewBox="0 0 16 16" fill="none" xmlns="http://www.w3.org/2000/svg">
<path d="M6.5 3C7.05 3 7.5 3.45 7.5 4V10.5C7.5 10.78 7.72 11 8 11C8.28 11 8.5 10.78 8.5 10.5V4C8.5 3.45 8.95 3 9.5 3H13.0098C13.5598 3 14.0098 3.45 14.0098 4V11C14.0098 11.55 13.5598 12 13.0098 12H8.98047C8.72056 12 8.50991 12.2099 8.50977 12.4697V12.5C8.50977 12.8 8.23969 13.0402 7.92969 12.9902C7.66999 12.9501 7.49998 12.6902 7.50977 12.4404C7.51976 12.1905 7.28019 12.0001 7.03027 12H3C2.45 12 2 11.55 2 11V4C2 3.45 2.45 3 3 3H6.5Z" fill="currentColor"/>
</svg>
