<svg width="16" height="16" viewBox="0 0 16 16" fill="none" xmlns="http://www.w3.org/2000/svg">
<path d="M12.6498 2.65039C12.8398 2.45039 13.16 2.45039 13.35 2.65039C13.5497 2.84035 13.5497 3.15965 13.35 3.34961L10.5004 6.2002V8C10.5004 9.37987 9.3802 10.4998 8.00038 10.5C7.88038 10.5 7.75979 10.4897 7.64979 10.4697C7.26988 10.4197 6.91946 10.29 6.61952 10.0801L5.90956 10.79C6.18956 11.01 6.50045 11.18 6.83045 11.29C7.20033 11.4299 7.59053 11.5 8.00038 11.5C9.9302 11.4998 11.5004 9.92987 11.5004 8C11.5004 7.72 11.7204 7.5 12.0004 7.5C12.2802 7.5002 12.5004 7.72013 12.5004 8C12.5004 10.3099 10.7402 12.2 8.50038 12.4502V13.5H10.0004C10.2802 13.5002 10.5004 13.7201 10.5004 14C10.5004 14.2799 10.2802 14.4998 10.0004 14.5H6.00038C5.72038 14.5 5.50038 14.28 5.50038 14C5.50038 13.72 5.72038 13.5 6.00038 13.5H7.50038V12.4502C7.00052 12.3902 6.52035 12.2499 6.08045 12.04C5.76045 11.9 5.4696 11.71 5.1996 11.5L3.34999 13.3496C3.26007 13.4495 3.13025 13.4999 3.00038 13.5C2.87038 13.5 2.73979 13.4496 2.64979 13.3496C2.45019 13.1597 2.45019 12.8403 2.64979 12.6504L12.6498 2.65039Z" fill="black"/>
<path d="M4.00038 7.5C4.28019 7.5002 4.50038 7.72013 4.50038 8C4.50038 8.41 4.57034 8.79992 4.71034 9.16992L3.9496 9.92969C3.65972 9.33979 3.50038 8.68984 3.50038 8C3.50038 7.72 3.72038 7.5 4.00038 7.5Z" fill="black"/>
<path d="M8.00038 2C9.05003 2.00016 9.94964 2.64993 10.3197 3.55957L5.52967 8.34961C5.50973 8.23973 5.50038 8.11984 5.50038 8V4.5C5.50038 3.12 6.62038 2 8.00038 2Z" fill="black"/>
</svg>
