<svg width="16" height="16" viewBox="0 0 16 16" fill="none" xmlns="http://www.w3.org/2000/svg">
<path fill-rule="evenodd" clip-rule="evenodd" d="M8 1.5C8.28 1.5 8.5 1.72 8.5 2V2.5H12.5C12.6207 2.5 12.7289 2.54243 12.8145 2.61133C12.8216 2.61649 12.8281 2.62236 12.835 2.62793C12.8423 2.63456 12.8505 2.64039 12.8574 2.64746C12.8941 2.68173 12.9263 2.7219 12.9502 2.76953L15.4502 7.76953C15.4696 7.80986 15.48 7.85256 15.4883 7.89453C15.4891 7.89841 15.4895 7.90234 15.4902 7.90625C15.495 7.93375 15.4978 7.96084 15.498 7.98828C15.4981 7.99219 15.5 7.99607 15.5 8C15.5 9.65 14.15 11 12.5 11C10.85 11 9.5 9.65 9.5 8C9.5 7.8935 9.53109 7.79518 9.58594 7.71484L11.6943 3.5H8.5V12.5H13C13.28 12.5 13.5 12.72 13.5 13C13.5 13.28 13.28 13.5 13 13.5H3C2.72 13.5 2.5 13.28 2.5 13C2.5 12.72 2.72 12.5 3 12.5H7.5V3.5H4.31543L6.4502 7.76953C6.46955 7.80986 6.48004 7.85256 6.48828 7.89453C6.48909 7.89841 6.48952 7.90234 6.49023 7.90625C6.49497 7.93375 6.4978 7.96084 6.49805 7.98828C6.49813 7.99219 6.5 7.99607 6.5 8C6.5 9.65 5.15 11 3.5 11C1.85 11 0.5 9.65 0.5 8C0.5 7.8935 0.531088 7.79518 0.585938 7.71484L3.0332 2.82129C3.10394 2.63208 3.28342 2.5 3.5 2.5H7.5V2C7.5 1.72 7.72 1.5 8 1.5ZM1.80957 7.5H5.19043L3.5 4.11035L1.80957 7.5ZM10.8096 7.5H14.1904L12.5 4.11035L10.8096 7.5Z" fill="black"/>
</svg>
