<svg width="16" height="16" viewBox="0 0 16 16" fill="none" xmlns="http://www.w3.org/2000/svg">
<path d="M8.00037 5C9.6602 5.0002 11.0004 6.34012 11.0004 8C11.0004 9.65988 9.6602 10.9998 8.00037 11C6.34037 11 5.00037 9.66 5.00037 8C5.00037 6.34 6.34037 5 8.00037 5Z" fill="currentColor"/>
<path d="M8.01014 2.50977C11.0101 2.50983 13.7904 4.48033 15.4603 7.78027C15.5801 8.0302 15.4895 8.33025 15.2396 8.4502C15.1698 8.49001 15.09 8.49999 15.0101 8.5H15.0004C14.8205 8.5 14.6403 8.4002 14.5502 8.23047C13.0603 5.27062 10.6102 3.50018 8.00037 3.5C5.39037 3.5 2.93959 5.27047 1.44959 8.23047C1.32941 8.48008 1.0195 8.5801 0.779671 8.4502C0.529905 8.33016 0.440151 8.02018 0.559944 7.78027C2.22994 4.48027 5.01014 2.50977 8.01014 2.50977Z" fill="currentColor"/>
</svg>
