<svg width="16" height="16" viewBox="0 0 16 16" fill="none" xmlns="http://www.w3.org/2000/svg">
<path d="M6 7.50006C6.82843 7.50006 7.5 8.17163 7.5 9.00006C7.49995 9.82844 6.8284 10.5001 6 10.5001C5.1716 10.5001 4.50005 9.82844 4.5 9.00006C4.5 8.17163 5.17157 7.50006 6 7.50006Z" fill="currentColor"/>
<path fill-rule="evenodd" clip-rule="evenodd" d="M11.8203 1.53033C12.0802 1.43049 12.3696 1.54992 12.4697 1.80963C12.5697 2.0695 12.4502 2.35988 12.1904 2.46002L5.78711 5.00006H13C13.55 5.00006 14 5.45006 14 6.00006V12.0001C14 12.55 13.55 13.0001 13 13.0001H3C2.45003 13.0001 2.00005 12.55 2 12.0001V6.00006C2 5.45006 2.45 5.00006 3 5.00006H3.07129L11.8203 1.53033ZM6 6.50006C4.62 6.50006 3.5 7.62006 3.5 9.00006C3.50005 10.38 4.62003 11.5001 6 11.5001C7.37997 11.5001 8.49995 10.38 8.5 9.00006C8.5 7.62006 7.38 6.50006 6 6.50006ZM10 10.5001C9.72 10.5001 9.5 10.7201 9.5 11.0001C9.50005 11.28 9.72003 11.5001 10 11.5001H12C12.28 11.5001 12.5 11.28 12.5 11.0001C12.5 10.7201 12.28 10.5001 12 10.5001H10ZM10 8.50006C9.72 8.50006 9.5 8.72006 9.5 9.00006C9.50005 9.28002 9.72003 9.50006 10 9.50006H12C12.28 9.50006 12.5 9.28002 12.5 9.00006C12.5 8.72006 12.28 8.50006 12 8.50006H10ZM10 6.50006C9.72 6.50006 9.5 6.72006 9.5 7.00006C9.50005 7.28002 9.72003 7.50006 10 7.50006H12C12.28 7.50006 12.5 7.28002 12.5 7.00006C12.5 6.72006 12.28 6.50006 12 6.50006H10Z" fill="currentColor"/>
</svg>
