<svg width="16" height="16" viewBox="0 0 16 16" fill="none" xmlns="http://www.w3.org/2000/svg">
<path d="M13 2.5C13.83 2.5 14.5 3.17 14.5 4C14.5 4.83 13.83 5.5 13 5.5C12.35 5.5 11.7998 5.08 11.5898 4.5H6C5.17 4.5 4.5 5.17 4.5 6C4.5 6.83 5.17 7.5 6 7.5H10C11.38 7.5 12.5 8.62 12.5 10C12.5 11.38 11.38 12.5 10 12.5H4.41016C4.20016 13.08 3.65 13.5 3 13.5C2.17 13.5 1.5 12.83 1.5 12C1.5 11.17 2.17 10.5 3 10.5C3.65 10.5 4.20016 10.92 4.41016 11.5H10C10.83 11.5 11.5 10.83 11.5 10C11.5 9.17 10.83 8.5 10 8.5H6C4.62 8.5 3.5 7.38 3.5 6C3.5 4.62 4.62 3.5 6 3.5H11.5898C11.7998 2.92 12.35 2.5 13 2.5Z" fill="black"/>
</svg>
