<svg width="16" height="16" viewBox="0 0 16 16" fill="none" xmlns="http://www.w3.org/2000/svg">
<path d="M2.69043 11.0697C2.93036 10.93 3.2302 11.0105 3.37012 11.2504C3.50981 11.4902 3.43013 11.79 3.19043 11.93L2.32031 12.43C2.2404 12.48 2.15025 12.5003 2.07031 12.5004C1.90035 12.5004 1.72967 12.4103 1.63965 12.2504C1.49965 12.0104 1.58031 11.7097 1.82031 11.5697L2.69043 11.0697Z" fill="black"/>
<path d="M12.6299 11.2504C12.7698 11.0105 13.0696 10.9301 13.3096 11.0697L14.1797 11.5697C14.4197 11.7097 14.5004 12.0104 14.3604 12.2504C14.2703 12.4103 14.0996 12.5004 13.9297 12.5004C13.8498 12.5003 13.7596 12.48 13.6797 12.43L12.8096 11.93C12.5699 11.79 12.4902 11.4902 12.6299 11.2504Z" fill="black"/>
<path d="M7 5.50036C7.28 5.50036 7.5 5.72036 7.5 6.00036C7.49981 6.28018 7.27988 6.50036 7 6.50036H6C5.17 6.50036 4.5 7.17036 4.5 8.00036C4.5002 8.83019 5.17012 9.50036 6 9.50036H7C7.28 9.50036 7.5 9.72036 7.5 10.0004C7.49981 10.2802 7.27988 10.5004 7 10.5004H6C4.62012 10.5004 3.5002 9.38019 3.5 8.00036C3.5 6.62036 4.62 5.50036 6 5.50036H7Z" fill="black"/>
<path d="M10 5.50036C11.38 5.50036 12.5 6.62036 12.5 8.00036C12.4998 9.38019 11.3799 10.5004 10 10.5004H9C8.72012 10.5004 8.50019 10.2802 8.5 10.0004C8.5 9.72036 8.72 9.50036 9 9.50036H10C10.8299 9.50036 11.4998 8.83019 11.5 8.00036C11.5 7.17036 10.83 6.50036 10 6.50036H9C8.72012 6.50036 8.50019 6.28018 8.5 6.00036C8.5 5.72036 8.72 5.50036 9 5.50036H10Z" fill="black"/>
<path d="M2 7.50036C2.28 7.50036 2.5 7.72036 2.5 8.00036C2.49981 8.28018 2.27988 8.50036 2 8.50036H1C0.720122 8.50036 0.500192 8.28018 0.5 8.00036C0.5 7.72036 0.72 7.50036 1 7.50036H2Z" fill="black"/>
<path d="M15 7.50036C15.28 7.50036 15.5 7.72036 15.5 8.00036C15.4998 8.28018 15.2799 8.50036 15 8.50036H14C13.7201 8.50036 13.5002 8.28018 13.5 8.00036C13.5 7.72036 13.72 7.50036 14 7.50036H15Z" fill="black"/>
<path d="M1.63965 3.75036C1.77965 3.51036 2.09031 3.42969 2.32031 3.56969L3.19043 4.06969C3.4303 4.20973 3.51009 4.51041 3.37012 4.75036C3.28015 4.91008 3.11021 5.00022 2.94043 5.00036C2.86053 5.00036 2.77035 4.9799 2.69043 4.93005L1.82031 4.43005C1.58047 4.29014 1.50002 3.99028 1.63965 3.75036Z" fill="black"/>
<path d="M13.6797 3.56969C13.9197 3.42969 14.2204 3.51036 14.3604 3.75036C14.5 3.99029 14.4195 4.29013 14.1797 4.43005L13.3096 4.93005C13.2297 4.97987 13.1394 5.00036 13.0596 5.00036C12.8898 5.00019 12.7198 4.91007 12.6299 4.75036C12.4899 4.51043 12.5697 4.20975 12.8096 4.06969L13.6797 3.56969Z" fill="black"/>
</svg>
