<svg width="16" height="16" viewBox="0 0 16 16" fill="none" xmlns="http://www.w3.org/2000/svg">
<path fill-rule="evenodd" clip-rule="evenodd" d="M7.28952 1.69971C7.67943 1.3098 8.30965 1.30999 8.69968 1.69971L14.2895 7.28955C14.6795 7.67955 14.6795 8.30971 14.2895 8.69971L8.69968 14.2896C8.30968 14.6796 7.67952 14.6796 7.28952 14.2896L1.69968 8.69971C1.30996 8.30969 1.30977 7.67946 1.69968 7.28955L7.28952 1.69971ZM7.99948 9.99951C7.71987 9.99976 7.49973 10.2199 7.49948 10.4995C7.49948 10.7794 7.71971 10.9993 7.99948 10.9995C8.27948 10.9995 8.49948 10.7795 8.49948 10.4995C8.49923 10.2197 8.27932 9.99951 7.99948 9.99951ZM7.99948 4.99951C7.71987 4.99976 7.49973 5.2199 7.49948 5.49951V8.49951C7.49948 8.77935 7.71971 8.99926 7.99948 8.99951C8.27948 8.99951 8.49948 8.77951 8.49948 8.49951V5.49951C8.49923 5.21974 8.27932 4.99951 7.99948 4.99951Z" fill="currentColor"/>
</svg>
