<svg width="16" height="16" viewBox="0 0 16 16" fill="none" xmlns="http://www.w3.org/2000/svg">
<path d="M7.5 6C7.77614 6 8 6.22386 8 6.5V9.5C8 9.77614 7.77614 10 7.5 10H4.5C4.22386 10 4 9.77614 4 9.5V6.5C4 6.22386 4.22386 6 4.5 6H7.5Z" fill="black"/>
<path fill-rule="evenodd" clip-rule="evenodd" d="M12 4C13.1 4 14 4.9 14 6V6.5C14.55 6.5 15 6.95 15 7.5V8.5C15 9.05 14.55 9.5 14 9.5V10C14 11.1 13.1 12 12 12H4C2.9 12 2 11.1 2 10V6C2 4.9 2.9 4 4 4H12ZM4 5C3.45 5 3 5.45 3 6V10C3 10.55 3.45 11 4 11H12C12.55 11 13 10.55 13 10V6C13 5.45 12.55 5 12 5H4Z" fill="black"/>
</svg>
