<svg width="16" height="16" viewBox="0 0 16 16" fill="none" xmlns="http://www.w3.org/2000/svg">
<path d="M9.64013 1.64978C9.84011 1.44993 10.1501 1.44989 10.3501 1.64978L14.3501 5.64978H14.3306C14.5303 5.84967 14.5302 6.15978 14.3306 6.35974C14.2406 6.45974 14.1 6.51013 13.98 6.51013C13.86 6.51011 13.7303 6.4597 13.6304 6.35974L13.02 5.75037L10.6304 8.60974C10.8104 8.90974 10.8999 9.24998 10.8999 9.59998C10.8999 10.1098 10.7001 10.5896 10.3403 10.9496L9.93017 11.3597C9.84029 11.4596 9.70045 11.51 9.58056 11.5101C9.46056 11.5101 9.32997 11.4597 9.22997 11.3597L7.28954 9.41931L3.35985 13.35C3.25992 13.4498 3.13015 13.5003 3.01024 13.5004H3.00048C2.87048 13.5004 2.73989 13.45 2.64989 13.35C2.45001 13.15 2.45006 12.84 2.64989 12.64L6.57958 8.70935L4.64013 6.7699C4.44014 6.5699 4.44013 6.25993 4.64013 6.05994L5.05028 5.64978C5.66029 5.03999 6.67022 4.91984 7.39013 5.35974L10.2505 2.97009L9.64013 2.35974C9.44022 2.15974 9.44016 1.84975 9.64013 1.64978Z" fill="currentColor"/>
</svg>
