<svg width="16" height="16" viewBox="0 0 16 16" fill="none" xmlns="http://www.w3.org/2000/svg">
<path d="M8 2C11.3137 2 14 4.68629 14 8C14 11.3137 11.3137 14 8 14C4.68629 14 2 11.3137 2 8C2 4.68629 4.68629 2 8 2ZM11.3535 5.64648C11.1583 5.45122 10.8417 5.45122 10.6465 5.64648L7 9.29297L5.35352 7.64648C5.15825 7.45122 4.84175 7.45122 4.64648 7.64648C4.45125 7.84175 4.45123 8.15826 4.64648 8.35352L6.64648 10.3535C6.84174 10.5488 7.15825 10.5487 7.35352 10.3535L11.3535 6.35352C11.5488 6.15826 11.5488 5.84175 11.3535 5.64648Z" fill="currentColor"/>
</svg>
