<svg width="16" height="16" viewBox="0 0 16 16" fill="none" xmlns="http://www.w3.org/2000/svg">
<path d="M12.5 4H10V3.5C10 2.67 9.33 2 8.5 2H7.5C6.67 2 6 2.67 6 3.5V4H3.5C3.22 4 3 4.22 3 4.5C3 4.78 3.22 5 3.5 5H3.56L4.41 12.61C4.47 13.12 4.89 13.5 5.4 13.5H10.61C11.12 13.5 11.55 13.12 11.6 12.61L12.45 5H12.51C12.79 5 13.01 4.78 13.01 4.5C13.01 4.22 12.79 4 12.51 4H12.5ZM7 3.5C7 3.22 7.22 3 7.5 3H8.5C8.78 3 9 3.22 9 3.5V4H7V3.5ZM6.78 12C6.78 12 6.76 12 6.75 12C6.49 12 6.27 11.8 6.25 11.53L5.92 6.53C5.9 6.25 6.11 6.02 6.39 6C6.66 5.98 6.9 6.19 6.92 6.47L7.25 11.47C7.27 11.75 7.06 11.98 6.78 12ZM9.75 11.53C9.73 11.79 9.51 12 9.25 12C9.24 12 9.23 12 9.22 12C8.94 11.98 8.74 11.74 8.75 11.47L9.08 6.47C9.1 6.19 9.34 5.99 9.61 6C9.89 6.02 10.09 6.26 10.08 6.53L9.75 11.53Z" fill="currentColor"/>
</svg>
