<svg width="16" height="16" viewBox="0 0 16 16" fill="none" xmlns="http://www.w3.org/2000/svg">
<path fill-rule="evenodd" clip-rule="evenodd" d="M2.15038 9.37013C1.18038 4.99013 4.9901 1.18041 9.3701 2.15041C11.59 2.65045 13.3696 4.44022 13.8496 6.66017L13.8603 6.65041C14.0002 7.28016 14.0304 7.91001 13.9805 8.50978C13.9505 8.81978 13.8001 9.1101 13.5801 9.3301L9.33983 13.5703C9.11997 13.7901 8.83021 13.9396 8.52049 13.9697C7.92049 14.0197 7.30014 13.9896 6.66014 13.8496C4.44019 13.3696 2.64042 11.5901 2.15038 9.37013ZM11.0898 8.00002C9.38993 8.00013 8.00975 9.38016 8.00975 11.0801V12.4102C8.0098 12.69 8.22992 12.91 8.50975 12.9102C8.78972 12.9102 9.0097 12.6901 9.00975 12.4102V11.0801C9.00975 9.93017 9.93993 9.00013 11.0898 9.00002H12.4199C12.6999 9.00002 12.9199 8.78002 12.9199 8.50002C12.9199 8.22004 12.6999 8.00002 12.4199 8.00002H11.0898Z" fill="black"/>
</svg>
