<svg width="16" height="16" viewBox="0 0 16 16" fill="none" xmlns="http://www.w3.org/2000/svg">
<path d="M4.97998 7.99961C4.97998 9.10961 5.58998 10.0802 6.47998 10.6002H6.50049L5.26025 12.7496C5.12033 12.9995 4.79026 13.0901 4.55029 12.9205C3.85029 12.4305 3.24955 11.7896 2.78955 10.9996C2.33973 10.2098 2.09023 9.36971 2.01025 8.52989C1.98033 8.23994 2.23029 7.99961 2.51025 7.99961H4.97998Z" fill="currentColor"/>
<path d="M13.4702 8.01036C13.76 8.01049 13.9999 8.24991 13.9702 8.53965L13.98 8.52989C13.83 10.2499 12.9497 11.8805 11.4497 12.9205C11.2097 13.0801 10.8797 12.9895 10.7397 12.7496L9.50049 10.61C10.3902 10.09 11.0004 9.12006 11.0005 8.01036H13.4702Z" fill="currentColor"/>
<path d="M8.00049 5.99961C8.36032 5.9997 8.71061 6.1002 9.00049 6.27012C9.60015 6.62011 10.0003 7.25995 10.0005 7.99961C10.0005 8.73948 9.6003 9.38004 9.00049 9.73008C8.71061 9.90001 8.36032 9.99953 8.00049 9.99961C7.64064 9.99961 7.29041 9.89995 7.00049 9.73008C6.40049 9.38008 6.00049 8.73961 6.00049 7.99961C6.00063 7.25979 6.4006 6.62006 7.00049 6.27012C7.29042 6.10024 7.64062 5.99961 8.00049 5.99961Z" fill="currentColor"/>
<path d="M5.47021 2.56016C7.12012 1.80026 8.95986 1.84025 10.5298 2.56016C10.7898 2.68016 10.8797 3.01036 10.7397 3.26036L9.49951 5.40001C9.05959 5.15013 8.53936 4.99961 7.99951 4.99961C7.45968 4.9997 6.93938 5.15008 6.49951 5.40001L5.26025 3.26036C5.12025 3.01036 5.21021 2.68016 5.47021 2.56016Z" fill="currentColor"/>
</svg>
