<svg width="16" height="16" viewBox="0 0 16 16" fill="none" xmlns="http://www.w3.org/2000/svg">
<path fill-rule="evenodd" clip-rule="evenodd" d="M11.6504 0.650395C11.7904 0.510404 12.0104 0.460046 12.1904 0.540044C12.3802 0.62012 12.5 0.800141 12.5 1V3.5H15C15.1999 3.5 15.3799 3.6198 15.46 3.80957C15.54 3.99957 15.4896 4.20961 15.3496 4.34961L13.3496 6.34961C13.2596 6.43961 13.13 6.5 13 6.5H11.9004C12.2947 7.26926 12.5 8.1184 12.5 9C12.5 12.03 10.03 14.5 7 14.5C3.97 14.5 1.5 12.03 1.5 9C1.5 5.97001 3.97 3.5 7 3.5C7.88161 3.5 8.73075 3.70527 9.5 4.09961V3C9.5 2.87001 9.55039 2.74039 9.65039 2.6504L11.6504 0.650395ZM7 4.5C4.52 4.5 2.5 6.52001 2.5 9C2.5 11.48 4.52 13.5 7 13.5C9.48 13.5 11.5 11.48 11.5 9C11.5 8.10152 11.2363 7.23877 10.7383 6.5H10.21L9.44141 7.26758C9.7911 7.7581 10 8.35518 10 9C10 10.65 8.65 12 7 12C5.35 12 4 10.65 4 9C4 7.35001 5.35 6 7 6C7.64434 6 8.24113 6.20841 8.73145 6.55762L9.5 5.78907V5.26075C8.76134 4.76292 7.89829 4.5 7 4.5ZM7 7C5.9 7 5 7.90001 5 9C5 10.1 5.9 11 7 11C8.1 11 9 10.1 9 9C9 8.63107 8.89677 8.28581 8.7207 7.98829L7.36035 9.34961C7.26035 9.44961 7.12977 9.5 7.00977 9.5H7C6.87 9.5 6.74039 9.44961 6.65039 9.34961C6.45039 9.14961 6.45039 8.83965 6.65039 8.63965L8.01074 7.27833C7.71347 7.10268 7.36846 7 7 7Z" fill="currentColor"/>
</svg>
