<svg width="16" height="16" viewBox="0 0 16 16" fill="none" xmlns="http://www.w3.org/2000/svg">
<path d="M2.7002 2.69965C2.90016 2.5 3.21025 2.49989 3.41016 2.69965C3.61005 2.89955 3.60984 3.2096 3.41016 3.40961C0.880156 5.93961 0.880156 10.07 3.41016 12.6C3.61006 12.8 3.61002 13.11 3.41016 13.31C3.31016 13.41 3.17957 13.4604 3.05957 13.4604L3.0498 13.4496C2.91994 13.4496 2.79015 13.4001 2.7002 13.3002C1.28028 11.8803 0.500091 10.0003 0.5 8.00043C0.5 6.00043 1.2802 4.10965 2.7002 2.69965Z" fill="currentColor"/>
<path d="M12.5996 2.68988C12.7995 2.48999 13.1096 2.49019 13.3096 2.68988C14.7295 4.1098 15.5097 5.98983 15.5098 7.98969C15.5098 9.98969 14.7296 11.8805 13.3096 13.2905C13.2096 13.3902 13.0798 13.4399 12.96 13.4399L12.9502 13.4496C12.8202 13.4496 12.6896 13.4002 12.5996 13.3002C12.3998 13.1003 12.4 12.7902 12.5996 12.5903C15.1296 10.0603 15.1296 5.92985 12.5996 3.39985C12.4 3.19987 12.3998 2.88978 12.5996 2.68988Z" fill="currentColor"/>
<path d="M4.11035 4.10981C4.31036 3.91008 4.6204 3.9099 4.82031 4.10981C5.02016 4.30972 5.02003 4.61978 4.82031 4.81977C3.97031 5.66977 3.5 6.80043 3.5 8.00043C3.50012 9.20027 3.97042 10.3302 4.82031 11.1801C5.02006 11.3801 5.02013 11.6901 4.82031 11.8901C4.72031 11.9901 4.58973 12.0405 4.46973 12.0405H4.45996C4.33007 12.0405 4.20034 11.9899 4.11035 11.8901C3.07046 10.8502 2.50011 9.47027 2.5 8.00043C2.5 6.53043 3.07035 5.14981 4.11035 4.10981Z" fill="currentColor"/>
<path d="M11.1904 4.10981C11.3904 3.91009 11.7005 3.9099 11.9004 4.10981C12.9403 5.1498 13.5098 6.53047 13.5098 8.00043C13.5097 9.4702 12.9402 10.8502 11.9004 11.8901C11.8004 11.9901 11.6698 12.0405 11.5498 12.0405H11.54C11.4101 12.0405 11.2804 11.9899 11.1904 11.8901C10.9904 11.6901 10.9904 11.3801 11.1904 11.1801C12.0402 10.3302 12.5097 9.20021 12.5098 8.00043C12.5098 6.80047 12.0404 5.66976 11.1904 4.81977C10.9904 4.61977 10.9904 4.30981 11.1904 4.10981Z" fill="currentColor"/>
<path d="M5.53027 5.52973C5.73027 5.33003 6.04033 5.32986 6.24023 5.52973C6.44014 5.72963 6.43994 6.03968 6.24023 6.23969C5.77023 6.70969 5.50977 7.3402 5.50977 8.0102C5.50981 8.68012 5.77029 9.30977 6.24023 9.77973C6.44014 9.97963 6.43994 10.2897 6.24023 10.4897C6.14023 10.5897 6.00965 10.6401 5.88965 10.6401L5.87988 10.6196C5.75001 10.6195 5.62024 10.57 5.53027 10.4702C4.87037 9.81025 4.5001 8.93029 4.5 8.00043C4.5 7.07043 4.86027 6.18973 5.53027 5.52973Z" fill="currentColor"/>
<path d="M9.76953 5.5102C9.96953 5.3102 10.2805 5.3102 10.4805 5.5102C11.1402 6.17014 11.5097 7.05011 11.5098 7.97992C11.5098 8.90973 11.1502 9.7897 10.4805 10.4497C10.3805 10.5497 10.2499 10.6 10.1299 10.6L10.1201 10.6196C9.99012 10.6196 9.85953 10.5702 9.76953 10.4702C9.5698 10.2703 9.56991 9.96015 9.76953 9.7602C10.2395 9.2902 10.5 8.65969 10.5 7.98969C10.4999 7.31981 10.2395 6.69008 9.76953 6.22016C9.5698 6.02026 9.56991 5.71015 9.76953 5.5102Z" fill="currentColor"/>
<path d="M6.94043 6.93988C7.52036 6.36027 8.47964 6.36027 9.05957 6.93988C9.63957 7.51988 9.63957 8.48 9.05957 9.06C8.76959 9.34987 8.37991 9.50043 8 9.50043C7.62009 9.50043 7.23041 9.34987 6.94043 9.06C6.36043 8.48 6.36043 7.51988 6.94043 6.93988Z" fill="currentColor"/>
</svg>
