<svg width="16" height="16" viewBox="0 0 16 16" fill="none" xmlns="http://www.w3.org/2000/svg">
<path fill-rule="evenodd" clip-rule="evenodd" d="M11 2C11.83 2 12.5 2.67 12.5 3.5V11.5C12.5 12.33 11.83 13 11 13H10.5V12H11C11.28 12 11.5 11.78 11.5 11.5V3.5C11.5 3.22 11.28 3 11 3H6.59961L8.40039 3.71973C9.07013 3.98973 9.49985 4.62985 9.5 5.34961V13.3896C9.5 13.8095 9.29003 14.1897 8.9502 14.4297C8.7402 14.5697 8.5 14.6396 8.25 14.6396C8.09 14.6396 7.94004 14.6098 7.79004 14.5498L3.80957 12.96C3.6198 12.8898 3.5 12.6999 3.5 12.5V2.5C3.5 2.41 3.51957 2.32976 3.55957 2.25977C3.59956 2.18982 3.64977 2.12982 3.71973 2.08984C3.73969 2.06988 3.76986 2.05997 3.7998 2.04004C3.8598 2.01004 3.93 2 4 2H11ZM7 8C6.72 8 6.5 8.22 6.5 8.5V9.5C6.5 9.78 6.72 10 7 10C7.28 10 7.5 9.78 7.5 9.5V8.5C7.5 8.22 7.28 8 7 8Z" fill="black"/>
</svg>
