<svg width="16" height="16" viewBox="0 0 16 16" fill="none" xmlns="http://www.w3.org/2000/svg">
<path d="M7.53989 6.55957C7.71999 6.16005 8.28963 6.16012 8.45981 6.55957L9.8397 9.74023C10.3996 11.0502 9.42983 12.5 7.99985 12.5C6.56 12.4999 5.60019 11.0501 6.16001 9.74023L7.53989 6.55957Z" fill="black"/>
<path d="M7.99985 3.5C11.6899 3.5 14.7103 6.36047 14.9803 9.98047C15 10.2601 14.76 10.4998 14.4803 10.5H10.9999C10.9999 10.11 10.9196 9.71961 10.7596 9.34961L9.37974 6.16992C9.1397 5.62001 8.5998 5.26953 7.99985 5.26953C7.39992 5.26958 6.85997 5.62 6.61997 6.16992L5.24009 9.34961C5.08009 9.71961 4.99985 10.1 4.99985 10.5H1.52036C1.24051 10.5 1.00065 10.2603 1.02036 9.98047C1.29036 6.35051 4.30991 3.50006 7.99985 3.5Z" fill="black"/>
</svg>
