<svg width="16" height="16" viewBox="0 0 16 16" fill="none" xmlns="http://www.w3.org/2000/svg">
<path fill-rule="evenodd" clip-rule="evenodd" d="M10.1003 2.00977C10.6402 2.00985 11.1198 2.35042 11.2897 2.86035L12.8005 7.40039H12.7897C12.9196 7.78032 12.8498 8.19058 12.6198 8.52051L8.40008 14.4297C8.20008 14.7097 7.79051 14.7097 7.59051 14.4297L3.36981 8.52051C3.13989 8.20062 3.07007 7.78029 3.19989 7.40039L4.70965 2.86035C4.87965 2.35035 5.36008 2.00977 5.90008 2.00977H10.1003ZM7.99969 5.5C7.16987 5.5002 6.4997 6.17013 6.49969 7C6.49969 7.64989 6.91984 8.20008 7.49969 8.41016V12C7.49969 12.2799 7.71987 12.4998 7.99969 12.5C8.27969 12.5 8.49969 12.28 8.49969 12V8.41016C9.07969 8.20016 9.49969 7.65 9.49969 7C9.49968 6.17001 8.82969 5.5 7.99969 5.5Z" fill="currentColor"/>
</svg>
