<svg width="16" height="16" viewBox="0 0 16 16" fill="none" xmlns="http://www.w3.org/2000/svg">
<path d="M7 1.5C8.38 1.5 9.5 2.62 9.5 4V11C9.5 11.83 8.83 12.5 8 12.5C7.17 12.5 6.5 11.83 6.5 11V5C6.5 4.72 6.72 4.5 7 4.5C7.28 4.5 7.5 4.72 7.5 5V11C7.5 11.28 7.72 11.5 8 11.5C8.28 11.5 8.5 11.28 8.5 11V4C8.5 3.17 7.83 2.5 7 2.5C6.17 2.5 5.5 3.17 5.5 4V11C5.5 12.38 6.62 13.5 8 13.5C9.38 13.5 10.5 12.38 10.5 11V5C10.5 4.72 10.72 4.5 11 4.5C11.28 4.5 11.5 4.72 11.5 5V11C11.5 12.93 9.93 14.5 8 14.5C6.07 14.5 4.5 12.93 4.5 11V4C4.5 2.62 5.62 1.5 7 1.5Z" fill="black"/>
</svg>
