<svg width="16" height="16" viewBox="0 0 16 16" fill="none" xmlns="http://www.w3.org/2000/svg">
<path fill-rule="evenodd" clip-rule="evenodd" d="M7.28943 1.69971C7.67933 1.3098 8.30956 1.30999 8.69958 1.69971L14.2894 7.28955C14.6794 7.67955 14.6794 8.30971 14.2894 8.69971L8.69958 14.2896C8.30958 14.6796 7.67943 14.6796 7.28943 14.2896L1.69958 8.69971C1.30987 8.30969 1.30968 7.67946 1.69958 7.28955L7.28943 1.69971ZM7.99939 9.99951C7.58977 9.99978 7.24966 10.3399 7.24939 10.7495C7.24939 11.1594 7.58961 11.4992 7.99939 11.4995C8.40939 11.4995 8.74939 11.1595 8.74939 10.7495C8.74912 10.3397 8.40923 9.99951 7.99939 9.99951ZM8.02966 4.74951C7.60994 4.72966 7.26973 5.07981 7.28943 5.49951L7.47009 8.49951C7.49008 8.77935 7.71961 8.99926 7.99939 8.99951C8.27939 8.99951 8.50966 8.77951 8.52966 8.49951L8.69958 5.53955C8.72934 5.13971 8.42952 4.7695 8.02966 4.74951Z" fill="currentColor"/>
</svg>
