<svg width="16" height="16" viewBox="0 0 16 16" fill="none" xmlns="http://www.w3.org/2000/svg">
<path d="M8 4.5C8.28 4.5 8.5 4.72 8.5 5V7.79004L9.84961 9.13965C10.0496 9.33964 10.0496 9.64961 9.84961 9.84961C9.74961 9.94961 9.62 10 9.5 10C9.38 10 9.24039 9.94961 9.15039 9.84961L7.65039 8.34961C7.5604 8.25961 7.5 8.12999 7.5 8V5C7.5 4.72 7.72 4.5 8 4.5Z" fill="black"/>
<path fill-rule="evenodd" clip-rule="evenodd" d="M8 2C11.31 2 14 4.69 14 8V13C14 13.55 13.55 14 13 14H3C2.45 14 2 13.55 2 13V8C2 4.69 4.69 2 8 2ZM8 3.5C5.52 3.5 3.5 5.52 3.5 8C3.5 10.48 5.52 12.5 8 12.5C10.48 12.5 12.5 10.48 12.5 8C12.5 5.52 10.48 3.5 8 3.5Z" fill="black"/>
</svg>
