<svg width="16" height="16" viewBox="0 0 16 16" fill="none" xmlns="http://www.w3.org/2000/svg">
<path d="M5.99964 6.0002C6.27964 6.0002 6.49964 6.2202 6.49964 6.5002V7.0002H5.99964C5.71989 7.00001 5.49976 6.77997 5.49964 6.5002C5.49964 6.22032 5.71981 6.00039 5.99964 6.0002Z" fill="currentColor"/>
<path d="M9.99964 6.0002C10.2796 6.0002 10.4996 6.2202 10.4996 6.5002C10.4995 6.78009 10.2796 7.0002 9.99964 7.0002H9.49964V6.5002C9.49964 6.22032 9.71981 6.00039 9.99964 6.0002Z" fill="currentColor"/>
<path fill-rule="evenodd" clip-rule="evenodd" d="M6.9098 1.59981C10.1396 0.929842 12.9896 3.37967 12.9899 6.48946C12.9899 8.53944 11.7499 10.2995 9.98988 11.0695V12.4895C9.98988 13.5895 9.08988 14.4895 7.98988 14.4895C6.88992 14.4894 5.98988 13.5894 5.98988 12.4895V11.0695C3.98 10.1895 2.64997 8.02948 3.06995 5.60958C3.41004 3.63983 4.95982 2.01967 6.91956 1.60958L6.9098 1.59981ZM7.49964 11.0002C7.2198 11.0004 6.99964 11.2203 6.99964 11.5002C6.9998 11.7799 7.2199 12 7.49964 12.0002H8.49964C8.77954 12.0002 8.99948 11.7801 8.99964 11.5002C8.99964 11.2202 8.77964 11.0002 8.49964 11.0002H7.49964ZM9.99964 5.0002C9.1698 5.00038 8.49964 5.67031 8.49964 6.5002V7.0002H7.49964V6.5002C7.49964 5.6702 6.82964 5.0002 5.99964 5.0002C5.1698 5.00038 4.49964 5.67031 4.49964 6.5002C4.4998 7.32995 5.1699 8.00002 5.99964 8.0002H6.49964V9.0002C6.4998 9.27994 6.7199 9.50002 6.99964 9.5002C7.27954 9.5002 7.49948 9.28006 7.49964 9.0002V8.0002H8.49964V9.0002C8.4998 9.27994 8.7199 9.50002 8.99964 9.5002C9.27954 9.5002 9.49948 9.28006 9.49964 9.0002V8.0002H9.99964C10.8295 8.0002 11.4995 7.33006 11.4996 6.5002C11.4996 5.6702 10.8296 5.0002 9.99964 5.0002Z" fill="currentColor"/>
</svg>
