<svg width="16" height="16" viewBox="0 0 16 16" fill="none" xmlns="http://www.w3.org/2000/svg">
<path fill-rule="evenodd" clip-rule="evenodd" d="M9.58984 2C9.84984 2 10.11 2.11004 10.29 2.29004L12.71 4.70996C12.89 4.88996 13 5.15016 13 5.41016V13C13 13.55 12.55 14 12 14H4C3.45 14 3 13.55 3 13V3C3 2.45 3.45 2 4 2H9.58984ZM4.5 10.5V11.5H6.5V10.5H4.5ZM4.5 6.5V7.5H7C7.28 7.5 7.5 7.72 7.5 8V11.5H8.5V6.5H4.5ZM9.5 10.5V11.5H11.5V10.5H9.5ZM4.5 8.5V9.5H6.5V8.5H4.5ZM9.5 8.5V9.5H11.5V8.5H9.5ZM9.5 6.5V7.5H11.5V6.5H9.5Z" fill="currentColor"/>
</svg>
