<svg width="16" height="16" viewBox="0 0 16 16" fill="none" xmlns="http://www.w3.org/2000/svg">
<path d="M5.25035 9.75029C5.44035 9.42029 5.92047 9.42029 6.12047 9.75029L8.13023 13.2298C8.33019 13.5697 8.07014 14.0094 7.67027 13.9895C6.36031 13.9196 5.10018 13.4198 4.09019 12.5599C3.91026 12.4099 3.87974 12.1399 3.98961 11.93L5.25035 9.75029Z" fill="currentColor"/>
<path d="M12.6 10.5003C12.9999 10.5003 13.2396 10.9396 13.0199 11.2796C12.2999 12.3696 11.2396 13.2204 9.98961 13.6604C9.76973 13.7401 9.51967 13.6298 9.39976 13.43L8.14976 11.2503C7.95976 10.9203 8.20043 10.5003 8.58043 10.5003H12.6Z" fill="currentColor"/>
<path d="M5.11949 6.48955C5.49934 6.48955 5.73974 6.90961 5.55015 7.23955V7.25029L3.54039 10.7298C3.3404 11.0698 2.82956 11.0602 2.65953 10.7103C2.06953 9.54025 1.86972 8.19994 2.10972 6.88994C2.14972 6.66002 2.36982 6.48966 2.60972 6.48955H5.11949Z" fill="currentColor"/>
<path d="M12.4603 5.26982C12.6604 4.93005 13.1702 4.94041 13.3402 5.29033C13.93 6.46017 14.1299 7.79988 13.89 9.10967C13.85 9.33967 13.63 9.51006 13.39 9.51006H10.8802C10.5003 9.51006 10.2599 9.09002 10.4496 8.76006V8.75029L12.4603 5.26982Z" fill="currentColor"/>
<path d="M8.33043 2.01006C9.64011 2.08014 10.8997 2.58002 11.9095 3.43974C12.0895 3.58968 12.1199 3.85967 12.0101 4.06963L10.7503 6.25029C10.5604 6.58003 10.0804 6.57985 9.88023 6.25029L7.86949 2.76982C7.66977 2.42986 7.93053 1.99006 8.33043 2.01006Z" fill="currentColor"/>
<path d="M6.01012 2.34014C6.23 2.2602 6.4799 2.36982 6.59996 2.56963L7.84996 4.75029C8.03969 5.08018 7.80004 5.5001 7.42027 5.50029H3.39976C2.99994 5.50012 2.76 5.05994 2.97984 4.72002C3.69984 3.63002 4.76012 2.78014 6.01012 2.34014Z" fill="currentColor"/>
</svg>
