<svg width="16" height="16" viewBox="0 0 16 16" fill="none" xmlns="http://www.w3.org/2000/svg">
<path fill-rule="evenodd" clip-rule="evenodd" d="M12.9995 4V4.00977C13.5495 4.00977 13.9994 4.45987 13.9995 5.00977V11.0098C13.9995 11.5598 13.5495 12.0098 12.9995 12.0098H5.82961C5.29983 12.0097 4.80032 11.7997 4.42043 11.4199L1.71047 8.70996C1.32047 8.31996 1.32047 7.6898 1.71047 7.2998L4.42043 4.58984C4.79032 4.21011 5.29988 4.0001 5.82961 4H12.9995ZM10.8696 6.13965C10.6696 5.94001 10.3596 5.93978 10.1597 6.13965L9.01027 7.29004L7.85988 6.13965C7.65992 5.93993 7.34985 5.93986 7.14992 6.13965C6.95 6.33957 6.95016 6.6496 7.14992 6.84961L8.30031 8L7.14992 9.15039C6.95016 9.3504 6.95 9.66043 7.14992 9.86035C7.23981 9.96012 7.3797 10.0096 7.49953 10.0098C7.61948 10.0098 7.75013 9.96027 7.85012 9.86035L8.99953 8.70996L10.1499 9.86035C10.2398 9.96012 10.3797 10.0096 10.4995 10.0098C10.6195 10.0098 10.7501 9.96027 10.8501 9.86035C11.05 9.66043 11.0499 9.3504 10.8501 9.15039H10.8696L9.72023 8L10.8696 6.84961C11.0696 6.64961 11.0696 6.33964 10.8696 6.13965Z" fill="black"/>
</svg>
