<svg width="16" height="16" viewBox="0 0 16 16" fill="none" xmlns="http://www.w3.org/2000/svg">
<path d="M7.51029 7.78986L5.6597 9.64045C5.46005 9.84046 5.45982 10.1505 5.6597 10.3504C5.7497 10.4504 5.8903 10.4998 6.01029 10.4998C6.13012 10.4997 6.26 10.4502 6.3599 10.3504L8.21048 8.49982H11.2203L7.6597 12.0604C7.36978 12.3402 6.99994 12.4998 6.60013 12.4998H4.22025L2.3599 14.3504C2.26997 14.4502 2.14009 14.4998 2.01029 14.4998C1.8803 14.4998 1.7497 14.4504 1.6597 14.3504C1.45979 14.1605 1.45995 13.8402 1.6597 13.6502L3.51029 11.7899V9.40998C3.51031 9.01016 3.66995 8.64034 3.94974 8.35041L7.51029 4.78986V7.78986Z" fill="black"/>
<path d="M9.55033 2.76056C10.5403 1.77057 12.2595 1.77057 13.2495 2.76056C13.7495 3.25056 14.0201 3.91017 14.0201 4.61017C14.02 5.31014 13.7495 5.96981 13.2495 6.45978L12.2105 7.49982H9.21048L11.3599 5.35041C11.5599 5.15045 11.5598 4.84045 11.3599 4.64045C11.1599 4.44045 10.8499 4.44045 10.6499 4.64045L8.51029 6.77912V3.79963L9.55033 2.76056Z" fill="black"/>
<path d="M8.51029 6.79963L8.49955 6.78986L8.51029 6.77912V6.79963Z" fill="black"/>
</svg>
