<svg width="16" height="16" viewBox="0 0 16 16" fill="none" xmlns="http://www.w3.org/2000/svg">
<path d="M13.5 11C13.7761 11 14 11.2239 14 11.5V12.5C14 12.7761 13.7761 13 13.5 13H2.5C2.22386 13 2 12.7761 2 12.5V11.5C2 11.2239 2.22386 11 2.5 11H13.5Z" fill="black"/>
<path d="M13.5 7C13.7761 7 14 7.22386 14 7.5V8.5C14 8.77614 13.7761 9 13.5 9H2.5C2.22386 9 2 8.77614 2 8.5V7.5C2 7.22386 2.22386 7 2.5 7H13.5Z" fill="black"/>
<path d="M13.5 3C13.7761 3 14 3.22386 14 3.5V4.5C14 4.77614 13.7761 5 13.5 5H2.5C2.22386 5 2 4.77614 2 4.5V3.5C2 3.22386 2.22386 3 2.5 3H13.5Z" fill="black"/>
</svg>
