<svg width="16" height="16" viewBox="0 0 16 16" fill="none" xmlns="http://www.w3.org/2000/svg">
<path d="M4.51953 6.02998C7.40953 6.27998 9.71973 8.59017 9.96973 11.4802C9.98956 11.7601 9.74964 12.0095 9.46973 12.0095V11.9997H8.46973C8.20986 11.9996 7.99974 11.7899 7.96973 11.53C7.84973 10.53 7.35965 9.6297 6.63965 8.9997C6.04969 8.47984 5.28983 8.11996 4.45996 8.02998C4.2 7.99997 3.99028 7.79993 3.99023 7.52998V6.52998C3.99023 6.24012 4.22973 6.00027 4.51953 6.02998Z" fill="currentColor"/>
<path d="M4.59961 9.06025C5.77961 9.30025 6.70043 10.2201 6.94043 11.4001C7.00022 11.7099 6.76013 11.9994 6.44043 11.9997H4.5C4.22 11.9997 4 11.7797 4 11.4997V9.56025C4 9.24036 4.28973 9.00047 4.59961 9.06025Z" fill="currentColor"/>
<path d="M4.54004 3.02021C9.09001 3.28024 12.74 6.93019 13 11.4802C13.0098 11.76 12.77 11.9996 12.4902 11.9997H11.4902C11.2204 11.9997 11.0104 11.79 10.9902 11.5202C10.8402 9.30024 9.65988 7.36014 7.91992 6.19013C6.92004 5.52021 5.7503 5.09953 4.48047 5.00947C4.21059 4.99947 4.00018 4.79004 4 4.52021V3.52021L4.01953 3.52998C4.01953 3.23998 4.26004 3.00021 4.54004 3.02021Z" fill="currentColor"/>
</svg>
