<svg width="16" height="16" viewBox="0 0 16 16" fill="none" xmlns="http://www.w3.org/2000/svg">
<path fill-rule="evenodd" clip-rule="evenodd" d="M8 0.5C8.28 0.5 8.5 0.72 8.5 1V2.52344C11.1323 2.76239 13.2376 4.86769 13.4766 7.5H15C15.28 7.5 15.5 7.72 15.5 8C15.5 8.28 15.28 8.5 15 8.5H13.4766C13.2376 11.1323 11.1323 13.2366 8.5 13.4756V15C8.5 15.28 8.28 15.5 8 15.5C7.72 15.5 7.5 15.28 7.5 15V13.4756C4.86773 13.2366 2.76239 11.1323 2.52344 8.5H1C0.72 8.5 0.5 8.28 0.5 8C0.5 7.72 0.72 7.5 1 7.5H2.52344C2.76239 4.86769 4.86769 2.76239 7.5 2.52344V1C7.5 0.72 7.72 0.5 8 0.5ZM8.5 5C8.5 5.28 8.28 5.5 8 5.5C7.72 5.5 7.5 5.28 7.5 5V3.52832C5.41839 3.75984 3.75984 5.41839 3.52832 7.5H5C5.28 7.5 5.5 7.72 5.5 8C5.5 8.28 5.28 8.5 5 8.5H3.52832C3.75984 10.5816 5.41844 12.2391 7.5 12.4707V11C7.5 10.72 7.72 10.5 8 10.5C8.28 10.5 8.5 10.72 8.5 11V12.4707C10.5816 12.2391 12.2402 10.5816 12.4717 8.5H11C10.72 8.5 10.5 8.28 10.5 8C10.5 7.72 10.72 7.5 11 7.5H12.4717C12.2402 5.41839 10.5816 3.75984 8.5 3.52832V5Z" fill="black"/>
</svg>
