<svg width="16" height="16" viewBox="0 0 16 16" fill="none" xmlns="http://www.w3.org/2000/svg">
<path d="M12.3604 13.6504C12.56 13.8504 12.5602 14.1605 12.3604 14.3604C12.2704 14.4604 12.1298 14.5098 12.0098 14.5098C11.8899 14.5097 11.7601 14.4601 11.6602 14.3604L8.50977 11.21V14C8.50977 14.28 8.28977 14.5 8.00977 14.5C7.72987 14.4999 7.50977 14.2799 7.50977 14V11.21L4.36035 14.3604C4.16048 14.5602 3.8504 14.56 3.65039 14.3604C3.45039 14.1604 3.45039 13.8504 3.65039 13.6504L6.2998 11H9.70996L12.3604 13.6504Z" fill="black"/>
<path fill-rule="evenodd" clip-rule="evenodd" d="M8 1.5C8.28 1.5 8.5 1.72 8.5 2V2.5H14C14.28 2.5 14.5 2.72 14.5 3C14.5 3.28 14.28 3.5 14 3.5H13V9C13 9.55 12.55 10 12 10H4C3.45 10 3 9.55 3 9V3.5H2C1.72 3.5 1.5 3.28 1.5 3C1.5 2.72 1.72 2.5 2 2.5H7.5V2C7.5 1.72 7.72 1.5 8 1.5ZM4.5 3.5C4.22 3.5 4 3.72 4 4C4 4.28 4.22 4.5 4.5 4.5H11.5C11.78 4.5 12 4.28 12 4C12 3.72 11.78 3.5 11.5 3.5H4.5Z" fill="black"/>
</svg>
