<svg width="16" height="16" viewBox="0 0 16 16" fill="none" xmlns="http://www.w3.org/2000/svg">
<path d="M3.76979 2.34028C4.15979 1.95028 4.78995 1.96028 5.17995 2.34028L6.59011 3.75043C6.97976 4.14036 6.97974 4.76967 6.59011 5.15961L6.20046 5.55024C5.97046 5.78024 5.86018 6.11012 5.92018 6.43012C6.02021 6.94012 6.3404 7.74973 7.2903 8.69965C8.24018 9.64953 9.04982 9.96972 9.55983 10.0698C9.87967 10.1297 10.1998 10.0202 10.4397 9.79047L11.1799 9.05024C11.3799 8.85024 11.6899 8.85024 11.8899 9.05024L13.6497 10.81C14.0397 11.2 14.0397 11.8302 13.6497 12.2202L13.1799 12.6899C12.9399 12.9299 12.6496 13.1204 12.3196 13.2104C11.3603 13.4621 9.31294 13.4127 6.17702 10.4096L5.88014 10.1196C2.58074 6.8201 2.51968 4.66052 2.77956 3.67035C2.86956 3.34035 3.05007 3.05 3.30007 2.81L3.76979 2.34028Z" fill="currentColor"/>
</svg>
