<svg width="16" height="16" viewBox="0 0 16 16" fill="none" xmlns="http://www.w3.org/2000/svg">
<path fill-rule="evenodd" clip-rule="evenodd" d="M3.34961 6.65031C3.34961 3.86033 5.80995 1.64977 8.66992 2.04972H8.67969C11.0097 2.37972 12.6704 4.33035 12.6504 6.69035C12.6403 7.48014 12.46 8.24993 12.0801 8.8798C11.3401 10.0998 9.29016 13.1103 8.41016 14.4003C8.21016 14.6901 7.78986 14.6901 7.58984 14.4003C6.70984 13.1103 4.65992 10.0998 3.91992 8.8798C3.53003 8.23992 3.34966 7.46012 3.34961 6.65031ZM5.87988 6.49992C5.59993 6.49996 5.3799 6.71996 5.37988 6.99992C5.37988 7.27989 5.59993 7.49987 5.87988 7.49992H10.1201C10.4 7.49984 10.6201 7.27987 10.6201 6.99992C10.6201 6.71998 10.4 6.5 10.1201 6.49992H5.87988Z" fill="black"/>
</svg>
