<svg width="16" height="16" viewBox="0 0 16 16" fill="none" xmlns="http://www.w3.org/2000/svg">
<path d="M8 13.5C8.28 13.5 8.5 13.72 8.5 14V15C8.5 15.28 8.28 15.5 8 15.5C7.72 15.5 7.5 15.28 7.5 15V14C7.5 13.72 7.72 13.5 8 13.5Z" fill="black"/>
<path d="M3.41016 11.8799C3.61015 11.69 3.92016 11.69 4.12012 11.8799C4.32007 12.0798 4.31997 12.3898 4.12012 12.5898L3.41016 13.2998C3.31016 13.3998 3.17957 13.4502 3.05957 13.4502H3.0498C2.91988 13.4501 2.79014 13.3997 2.7002 13.2998C2.50024 13.0998 2.50021 12.7898 2.7002 12.5898L3.41016 11.8799Z" fill="black"/>
<path d="M11.8896 11.8799C12.0896 11.68 12.3996 11.6901 12.5996 11.8799L13.3096 12.5898C13.5096 12.7898 13.5096 13.0998 13.3096 13.2998C13.2096 13.3997 13.0799 13.4502 12.96 13.4502H12.9502C12.8202 13.4502 12.6896 13.3998 12.5996 13.2998L11.8896 12.5898C11.6899 12.3899 11.6898 12.0798 11.8896 11.8799Z" fill="black"/>
<path fill-rule="evenodd" clip-rule="evenodd" d="M8 4C10.21 4 12 5.79 12 8C12 10.21 10.21 12 8 12C5.79 12 4 10.21 4 8C4 5.79 5.79 4 8 4ZM6 7.5C5.72 7.5 5.5 7.72 5.5 8C5.5 8.28 5.72 8.5 6 8.5H10C10.28 8.5 10.5 8.28 10.5 8C10.5 7.72 10.28 7.5 10 7.5H6Z" fill="black"/>
<path d="M2 7.5C2.28 7.5 2.5 7.72 2.5 8C2.5 8.28 2.28 8.5 2 8.5H1C0.72 8.5 0.5 8.28 0.5 8C0.5 7.72 0.72 7.5 1 7.5H2Z" fill="black"/>
<path d="M15 7.5C15.28 7.5 15.5 7.72 15.5 8C15.5 8.28 15.28 8.5 15 8.5H14C13.72 8.5 13.5 8.28 13.5 8C13.5 7.72 13.72 7.5 14 7.5H15Z" fill="black"/>
<path d="M2.7002 2.69043C2.9002 2.49043 3.21016 2.50043 3.41016 2.69043L4.12012 3.40039C4.31987 3.6004 4.32003 3.91043 4.12012 4.11035C4.02027 4.21012 3.89032 4.25963 3.77051 4.25977H3.75977C3.62997 4.25969 3.50008 4.2101 3.41016 4.11035L2.7002 3.40039C2.50025 3.20044 2.50035 2.89043 2.7002 2.69043Z" fill="black"/>
<path d="M12.5996 2.69043C12.7996 2.50043 13.1096 2.50043 13.3096 2.69043C13.5095 2.89043 13.5096 3.2004 13.3096 3.40039L12.5996 4.11035C12.4997 4.2101 12.3698 4.25976 12.25 4.25977H12.2402C12.1102 4.25977 11.9796 4.21033 11.8896 4.11035C11.6898 3.91048 11.69 3.6004 11.8896 3.40039L12.5996 2.69043Z" fill="black"/>
<path d="M8 0.5C8.28 0.5 8.5 0.72 8.5 1V2C8.5 2.28 8.28 2.5 8 2.5C7.72 2.5 7.5 2.28 7.5 2V1C7.5 0.72 7.72 0.5 8 0.5Z" fill="black"/>
</svg>
