<svg width="16" height="16" viewBox="0 0 16 16" fill="none" xmlns="http://www.w3.org/2000/svg">
<path fill-rule="evenodd" clip-rule="evenodd" d="M3.76006 3.75993C6.10006 1.40994 9.90053 1.40994 12.2405 3.75993C14.5903 6.09994 14.5905 9.90046 12.2405 12.2404C9.90058 14.5903 6.10007 14.5902 3.76006 12.2404C1.41006 9.9004 1.41006 6.09993 3.76006 3.75993ZM4.13018 9.00017C4.30019 9.67011 4.65026 10.3103 5.17021 10.8302C6.73023 12.3901 9.27042 12.3902 10.8304 10.8302C11.3503 10.3103 11.7004 9.67013 11.8704 9.00017H4.13018ZM10.8304 5.17009C9.27037 3.61009 6.73021 3.61009 5.17021 5.17009C4.65021 5.69009 4.30018 6.33017 4.13018 7.00017H11.8704C11.7004 6.33025 11.3503 5.69006 10.8304 5.17009Z" fill="black"/>
</svg>
