<svg width="16" height="16" viewBox="0 0 16 16" fill="none" xmlns="http://www.w3.org/2000/svg">
<path d="M2 10.5C2.28 10.5 2.5 10.72 2.5 11V13C2.5 13.28 2.72 13.5 3 13.5H5C5.28 13.5 5.5 13.72 5.5 14C5.5 14.28 5.28 14.5 5 14.5H3C2.17 14.5 1.5 13.83 1.5 13V11C1.5 10.72 1.72 10.5 2 10.5Z" fill="black"/>
<path d="M14 10.5C14.28 10.5 14.5 10.72 14.5 11V13C14.5 13.83 13.83 14.5 13 14.5H11C10.72 14.5 10.5 14.28 10.5 14C10.5 13.72 10.72 13.5 11 13.5H13C13.28 13.5 13.5 13.28 13.5 13V11C13.5 10.72 13.72 10.5 14 10.5Z" fill="black"/>
<path d="M13 7.5C13.28 7.5 13.5 7.72 13.5 8C13.5 8.28 13.28 8.5 13 8.5H3C2.72 8.5 2.5 8.28 2.5 8C2.5 7.72 2.72 7.5 3 7.5H13Z" fill="black"/>
<path d="M5 1.5C5.28 1.5 5.5 1.72 5.5 2C5.5 2.28 5.28 2.5 5 2.5H3C2.72 2.5 2.5 2.72 2.5 3V5C2.5 5.28 2.28 5.5 2 5.5C1.72 5.5 1.5 5.28 1.5 5V3C1.5 2.17 2.17 1.5 3 1.5H5Z" fill="black"/>
<path d="M13 1.5C13.83 1.5 14.5 2.17 14.5 3V5C14.5 5.28 14.28 5.5 14 5.5C13.72 5.5 13.5 5.28 13.5 5V3C13.5 2.72 13.28 2.5 13 2.5H11C10.72 2.5 10.5 2.28 10.5 2C10.5 1.72 10.72 1.5 11 1.5H13Z" fill="black"/>
</svg>
