<svg width="16" height="16" viewBox="0 0 16 16" fill="none" xmlns="http://www.w3.org/2000/svg">
<path fill-rule="evenodd" clip-rule="evenodd" d="M8.42 2C8.91997 2.00003 9.34024 2.37037 9.41023 2.86035L9.53035 3.69043C10.07 3.88036 10.5598 4.15983 10.9796 4.51953L11.7501 4.20996C12.21 4.03006 12.7403 4.20976 12.9903 4.63965L13.4102 5.37012C13.6601 5.80008 13.5502 6.34044 13.1602 6.65039L12.5001 7.16992C12.5501 7.42992 12.5802 7.72 12.5802 8C12.5802 8.28 12.5501 8.56008 12.5001 8.83008L13.1602 9.34961C13.5502 9.64956 13.6601 10.1999 13.4102 10.6299L12.9903 11.3604C12.7403 11.7902 12.21 11.9799 11.7501 11.79L10.9796 11.4805C10.5598 11.8402 10.07 12.1196 9.53035 12.3096L9.41023 13.1396C9.34024 13.6296 8.91997 14 8.42 14H7.58015C7.08015 14 6.65992 13.6296 6.58992 13.1396L6.4698 12.3096C5.92992 12.1196 5.43953 11.8404 5.01961 11.4805L4.25008 11.79C3.79015 11.97 3.25989 11.7902 3.00984 11.3604L2.58992 10.6299C2.33999 10.1999 2.44995 9.65959 2.83992 9.34961L3.50008 8.83008C3.45008 8.57008 3.42 8.28 3.42 8C3.42 7.72 3.45008 7.43992 3.50008 7.16992L2.83992 6.65039C2.44995 6.35041 2.33999 5.8001 2.58992 5.37012L3.00984 4.63965C3.25989 4.2098 3.79015 4.01999 4.25008 4.20996L5.01961 4.51953C5.43953 4.1596 5.92992 3.88042 6.4698 3.69043L6.58992 2.86035C6.65992 2.37035 7.08015 2 7.58015 2H8.42ZM8.00008 6C6.90008 6 6.00008 6.9 6.00008 8C6.00008 9.1 6.90008 10 8.00008 10C9.10002 9.99993 10.0001 9.09996 10.0001 8C10.0001 6.90004 9.10002 6.00007 8.00008 6Z" fill="black"/>
</svg>
