<svg width="16" height="16" viewBox="0 0 16 16" fill="none" xmlns="http://www.w3.org/2000/svg">
<path d="M12.6596 10.0995L13.0697 10.3798C13.5197 10.6798 13.5197 11.3298 13.0697 11.6298L8.69961 14.54C8.27965 14.8198 7.72986 14.8199 7.30996 14.54L2.93984 11.6298C2.49006 11.3298 2.48998 10.6798 2.93984 10.3798L3.35 10.0995L7.17031 12.6503C7.67027 12.9901 8.33059 12.9902 8.83047 12.6503L12.6498 10.0995H12.6596Z" fill="black"/>
<path d="M13.0697 7.37981C13.5197 7.67981 13.5197 8.32981 13.0697 8.62981L8.69961 11.54C8.27965 11.8198 7.72986 11.8199 7.30996 11.54L2.93984 8.62981C2.49006 8.32977 2.48998 7.67979 2.93984 7.37981L3.35 7.09954L7.17031 9.65032C7.67027 9.99007 8.33059 9.99024 8.83047 9.65032L12.6498 7.09954H12.6596L13.0697 7.37981Z" fill="black"/>
<path d="M7.30996 1.45989C7.72985 1.17996 8.27965 1.18011 8.69961 1.45989L13.0697 4.37005C13.5197 4.67005 13.5197 5.32005 13.0697 5.62005L8.69961 8.5302C8.27968 8.80992 7.72982 8.81008 7.30996 8.5302L2.93984 5.62005C2.49 5.32005 2.49005 4.67007 2.93984 4.37005L7.30996 1.45989Z" fill="black"/>
</svg>
