<svg width="16" height="16" viewBox="0 0 16 16" fill="none" xmlns="http://www.w3.org/2000/svg">
<path d="M2.99023 11.9998C3.26013 11.9999 3.48047 12.2103 3.48047 12.4803H3.5V13.9705C3.49977 14.2503 3.26999 14.5096 2.99023 14.4998C2.71023 14.4898 2.5 14.2798 2.5 13.9998V12.4803C2.5 12.2103 2.72023 11.9998 2.99023 11.9998Z" fill="currentColor"/>
<path d="M7.99023 9.49979C8.26013 9.49991 8.48047 9.71034 8.48047 9.98026H8.5V13.9705C8.49977 14.2503 8.26999 14.5096 7.99023 14.4998C7.71023 14.4898 7.5 14.2798 7.5 13.9998V9.98026C7.5 9.71026 7.72023 9.49979 7.99023 9.49979Z" fill="currentColor"/>
<path d="M12.9902 11.4998C13.2601 11.4999 13.4805 11.7103 13.4805 11.9803H13.5V13.9705C13.4998 14.2503 13.27 14.5096 12.9902 14.4998C12.7102 14.4898 12.5 14.2798 12.5 13.9998V11.9803C12.5 11.7103 12.7202 11.4998 12.9902 11.4998Z" fill="currentColor"/>
<path d="M3 7.49979C3.96991 7.49979 4.74985 8.27992 4.75 9.24979C4.75 10.2198 3.97 10.9998 3 10.9998C2.03 10.9998 1.25 10.2198 1.25 9.24979C1.25015 8.27992 2.03009 7.49979 3 7.49979Z" fill="currentColor"/>
<path d="M13 6.99979C13.9699 6.99979 14.7499 7.77992 14.75 8.74979C14.75 9.71979 13.97 10.4998 13 10.4998C12.03 10.4998 11.25 9.71979 11.25 8.74979C11.2501 7.77992 12.0301 6.99979 13 6.99979Z" fill="currentColor"/>
<path d="M8 4.99979C8.96991 4.99979 9.74985 5.77992 9.75 6.74979C9.75 7.71979 8.97 8.49979 8 8.49979C7.03 8.49979 6.25 7.71979 6.25 6.74979C6.25015 5.77992 7.03009 4.99979 8 4.99979Z" fill="currentColor"/>
<path d="M3.00977 1.49979C3.28975 1.48979 3.52049 1.75008 3.52051 2.03006H3.5V6.0203C3.49989 6.2902 3.2797 6.49979 3.00977 6.49979C2.73995 6.49966 2.52061 6.29012 2.52051 6.0203V1.99979C2.52067 1.72003 2.72999 1.5099 3.00977 1.49979Z" fill="currentColor"/>
<path d="M13.0098 1.49979C13.2898 1.48979 13.5205 1.75008 13.5205 2.03006H13.5V5.5203C13.4999 5.7902 13.2797 5.99979 13.0098 5.99979C12.7399 5.99966 12.5206 5.79012 12.5205 5.5203V1.99979C12.5207 1.72003 12.73 1.5099 13.0098 1.49979Z" fill="currentColor"/>
<path d="M8.00977 1.49979C8.28975 1.48979 8.52049 1.75008 8.52051 2.03006H8.5V3.5203C8.49989 3.7902 8.2797 3.99979 8.00977 3.99979C7.73995 3.99966 7.52061 3.79012 7.52051 3.5203V1.99979C7.52067 1.72003 7.72999 1.5099 8.00977 1.49979Z" fill="currentColor"/>
</svg>
