<svg width="16" height="16" viewBox="0 0 16 16" fill="none" xmlns="http://www.w3.org/2000/svg">
<path fill-rule="evenodd" clip-rule="evenodd" d="M10.5 2C10.78 2 11 2.22 11 2.5V5.16992C11 5.6999 10.7901 6.20008 10.4102 6.58008L9 7.99023L10.4102 9.40039C10.7899 9.77027 10.9999 10.2799 11 10.8096V13.4805C10.9998 13.7602 10.7798 13.9805 10.5 13.9805H5.5C5.22016 13.9805 5.00025 13.7602 5 13.4805V10.8096C5.00011 10.2799 5.21012 9.78025 5.58984 9.40039L7 7.99023L5.58984 6.58008C5.20987 6.21008 5 5.6999 5 5.16992V2.5C5 2.22 5.22 2 5.5 2H10.5ZM8.34961 10.7402C8.14961 10.5403 7.83962 10.5403 7.63965 10.7402L6.12012 12.2598C5.85019 12.5297 6.03989 12.9998 6.42969 13H9.55957C9.94957 13 10.1401 12.5298 9.87012 12.2598L8.34961 10.7402ZM6.42969 5C6.03989 5.00025 5.85019 5.4703 6.12012 5.74023L7.63965 7.25977C7.83962 7.45974 8.14961 7.45968 8.34961 7.25977L9.87012 5.74023C10.1401 5.47023 9.94957 5 9.55957 5H6.42969Z" fill="currentColor"/>
</svg>
