<svg width="16" height="16" viewBox="0 0 16 16" fill="none" xmlns="http://www.w3.org/2000/svg">
<path fill-rule="evenodd" clip-rule="evenodd" d="M8.00055 3C10.7503 3.00019 13.1999 4.77008 14.7398 7.50977C14.9098 7.80977 14.9098 8.18047 14.7398 8.48047C13.1999 11.2101 10.7502 12.99 8.00055 12.9902C5.25069 12.9902 2.80033 11.2202 1.26031 8.48047C1.09031 8.18047 1.09031 7.80977 1.26031 7.50977C2.80032 4.77991 5.25063 3 8.00055 3ZM8.00055 5C6.34055 5 5.00055 6.34 5.00055 8C5.00055 9.66 6.34055 11 8.00055 11C9.66035 10.9998 11.0005 9.65986 11.0005 8C11.0005 6.34014 9.66035 5.00023 8.00055 5Z" fill="black"/>
</svg>
