<svg width="16" height="16" viewBox="0 0 16 16" fill="none" xmlns="http://www.w3.org/2000/svg">
<path fill-rule="evenodd" clip-rule="evenodd" d="M13 8C13.55 8 14 8.45 14 9V11C14 11.55 13.55 12 13 12H12.5V14C12.5 14.28 12.28 14.5 12 14.5C11.72 14.5 11.5 14.28 11.5 14V12H10.5V14C10.5 14.28 10.28 14.5 10 14.5C9.72 14.5 9.5 14.28 9.5 14V12H8.5V14C8.5 14.28 8.28 14.5 8 14.5C7.72 14.5 7.5 14.28 7.5 14V12H6.5V14C6.5 14.28 6.28 14.5 6 14.5C5.72 14.5 5.5 14.28 5.5 14V12H4.5V14C4.5 14.28 4.28 14.5 4 14.5C3.72 14.5 3.5 14.28 3.5 14V12H3C2.45 12 2 11.55 2 11V9C2 8.45 2.45 8 3 8H13ZM10 9.5C9.72 9.5 9.5 9.72 9.5 10C9.5 10.28 9.72 10.5 10 10.5H12C12.28 10.5 12.5 10.28 12.5 10C12.5 9.72 12.28 9.5 12 9.5H10Z" fill="black"/>
<path fill-rule="evenodd" clip-rule="evenodd" d="M11 2C11.55 2 12 2.45 12 3V7H4V3C4 2.45 4.45 2 5 2H11ZM6 5C5.72 5 5.5 5.22 5.5 5.5C5.5 5.78 5.72 6 6 6H10C10.28 6 10.5 5.78 10.5 5.5C10.5 5.22 10.28 5 10 5H6ZM6 3C5.72 3 5.5 3.22 5.5 3.5C5.5 3.78 5.72 4 6 4H10C10.28 4 10.5 3.78 10.5 3.5C10.5 3.22 10.28 3 10 3H6Z" fill="black"/>
</svg>
