<svg width="16" height="16" viewBox="0 0 16 16" fill="none" xmlns="http://www.w3.org/2000/svg">
<path d="M6 11.5C6.55228 11.5 7 11.9477 7 12.5C7 13.0523 6.55228 13.5 6 13.5C5.44772 13.5 5 13.0523 5 12.5C5 11.9477 5.44772 11.5 6 11.5Z" fill="black"/>
<path d="M10 11.5C10.5523 11.5 11 11.9477 11 12.5C11 13.0523 10.5523 13.5 10 13.5C9.44772 13.5 9 13.0523 9 12.5C9 11.9477 9.44772 11.5 10 11.5Z" fill="black"/>
<path d="M6.5 3C6.77614 3 7 3.22386 7 3.5V9.5C7 9.77614 6.77614 10 6.5 10H5.5C5.22386 10 5 9.77614 5 9.5V3.5C5 3.22386 5.22386 3 5.5 3H6.5Z" fill="black"/>
<path d="M10.5 3C10.7761 3 11 3.22386 11 3.5V9.5C11 9.77614 10.7761 10 10.5 10H9.5C9.22386 10 9 9.77614 9 9.5V3.5C9 3.22386 9.22386 3 9.5 3H10.5Z" fill="black"/>
</svg>
