<svg width="16" height="16" viewBox="0 0 16 16" fill="none" xmlns="http://www.w3.org/2000/svg">
<path fill-rule="evenodd" clip-rule="evenodd" d="M8.5 1.5C9.33 1.5 10 2.17 10 3V3.5H12.0098C12.2898 3.5 12.5098 3.72 12.5098 4C12.5098 4.28 12.2898 4.5 12.0098 4.5H11.9502L11.0996 12.1104C11.0494 12.62 10.6201 12.9998 10.1104 13H5.90039C5.39051 13 4.97031 12.6202 4.91016 12.1104L4.05957 4.5H4C3.72 4.5 3.5 4.28 3.5 4C3.5 3.72 3.72 3.5 4 3.5H6V3C6 2.17 6.67 1.5 7.5 1.5H8.5ZM6.63965 5.5C6.35982 5.52017 6.14993 5.75039 6.16992 6.03027L6.5 11.0303C6.52013 11.3001 6.74009 11.5 7 11.5H7.03027C7.31014 11.4799 7.51999 11.2496 7.5 10.9697L7.16992 5.96973C7.14978 5.68987 6.90956 5.48001 6.63965 5.5ZM9.36035 5.5C9.09044 5.49 8.85022 5.68987 8.83008 5.96973L8.5 10.9697C8.49 11.2396 8.68987 11.4799 8.96973 11.5H9C9.25991 11.5 9.47987 11.2901 9.5 11.0303L9.83008 6.03027C9.84007 5.76039 9.64017 5.52017 9.36035 5.5ZM7.5 2.5C7.22 2.5 7 2.72 7 3V3.5H9V3C9 2.72 8.78 2.5 8.5 2.5H7.5Z" fill="black"/>
</svg>
