<svg width="16" height="16" viewBox="0 0 16 16" fill="none" xmlns="http://www.w3.org/2000/svg">
<path fill-rule="evenodd" clip-rule="evenodd" d="M8 2C8.16999 2 8.34001 2.00953 8.5 2.01953C9.78 2.12953 10.9501 2.62992 11.8701 3.41992C12.1301 3.62991 12.3701 3.86991 12.5801 4.12988C13.4701 5.16988 14 6.52 14 8C14 11.1399 11.5701 13.7304 8.49023 13.9805C8.33023 13.9905 8.17 14 8 14C7.83007 14 7.65019 13.9897 7.49023 13.9697C6.21023 13.8697 5.04988 13.3698 4.12988 12.5898C3.87993 12.3699 3.63965 12.1298 3.42969 11.8799C2.5298 10.8399 2 9.4799 2 8C2 4.86 4.42 2.27953 7.5 2.01953C7.65999 2.00953 7.83001 2 8 2ZM4.83984 11.8799C5.57984 12.4799 6.49023 12.8697 7.49023 12.9697V9.92969C7.31038 9.88972 7.14014 9.82036 6.99023 9.73047L4.83984 11.8799ZM8 7C7.45 7 7 7.45 7 8C7 8.55 7.45 9 8 9C8.55 9 9 8.55 9 8C9 7.72 8.88996 7.48004 8.70996 7.29004C8.51996 7.11004 8.28 7 8 7ZM8.5 6.07031C8.68989 6.1103 8.85961 6.18036 9.01953 6.28027L11.1602 4.12988C10.4202 3.51989 9.49999 3.12028 8.5 3.03027V6.07031Z" fill="black"/>
</svg>
