<svg width="16" height="16" viewBox="0 0 16 16" fill="none" xmlns="http://www.w3.org/2000/svg">
<path fill-rule="evenodd" clip-rule="evenodd" d="M3.34961 6.6503C3.34961 3.86033 5.80996 1.64978 8.66992 2.04972H8.67969C11.0097 2.37972 12.6704 4.33034 12.6504 6.69034C12.6403 7.48015 12.46 8.24993 12.0801 8.8798C11.3401 10.0998 9.29016 13.1103 8.41016 14.4003C8.21015 14.6901 7.78985 14.6901 7.58984 14.4003C6.70984 13.1103 4.65992 10.0998 3.91992 8.8798C3.53004 8.23992 3.34966 7.46012 3.34961 6.6503ZM9.87012 5.13956C9.67021 4.93978 9.36012 4.93988 9.16016 5.13956L8.00977 6.28995L6.86035 5.13956C6.66047 4.93969 6.3504 4.93993 6.15039 5.13956C5.9504 5.33955 5.95041 5.64952 6.15039 5.84952L7.2998 6.99991L6.15039 8.1503C5.95039 8.3503 5.95039 8.66027 6.15039 8.86027C6.2404 8.96002 6.38015 9.00968 6.5 9.00968C6.61986 9.00968 6.74966 8.96003 6.84961 8.86027L8 7.70988L9.15039 8.86027C9.2404 8.96002 9.38015 9.00968 9.5 9.00968C9.61986 9.00968 9.74966 8.96003 9.84961 8.86027C10.0496 8.66027 10.0496 8.3503 9.84961 8.1503H9.87012L8.71973 6.99991L9.87012 5.84952C10.0698 5.64951 10.07 5.33947 9.87012 5.13956Z" fill="black"/>
</svg>
