<svg width="16" height="16" viewBox="0 0 16 16" fill="none" xmlns="http://www.w3.org/2000/svg">
<path d="M6 2.5C6.28 2.5 6.5 2.72 6.5 3V13C6.5 13.28 6.28 13.5 6 13.5C5.72 13.5 5.5 13.28 5.5 13V3C5.5 2.72 5.72 2.5 6 2.5Z" fill="black"/>
<path d="M8 3.5C8.28 3.5 8.5 3.72 8.5 4V12C8.5 12.28 8.28 12.5 8 12.5C7.72 12.5 7.5 12.28 7.5 12V4C7.5 3.72 7.72 3.5 8 3.5Z" fill="black"/>
<path d="M4 5.5C4.28 5.5 4.5 5.72 4.5 6V10C4.5 10.28 4.28 10.5 4 10.5C3.72 10.5 3.5 10.28 3.5 10V6C3.5 5.72 3.72 5.5 4 5.5Z" fill="black"/>
<path d="M12 5.5C12.28 5.5 12.5 5.72 12.5 6V10C12.5 10.28 12.28 10.5 12 10.5C11.72 10.5 11.5 10.28 11.5 10V6C11.5 5.72 11.72 5.5 12 5.5Z" fill="black"/>
<path d="M10 6.5C10.28 6.5 10.5 6.72 10.5 7V9C10.5 9.28 10.28 9.5 10 9.5C9.72 9.5 9.5 9.28 9.5 9V7C9.5 6.72 9.72 6.5 10 6.5Z" fill="black"/>
<path d="M2 7C2.28 7 2.5 7.22 2.5 7.5V8.5C2.5 8.78 2.28 9 2 9C1.72 9 1.5 8.78 1.5 8.5V7.5C1.5 7.22 1.72 7 2 7Z" fill="black"/>
<path d="M14 7C14.28 7 14.5 7.22 14.5 7.5V8.5C14.5 8.78 14.28 9 14 9C13.72 9 13.5 8.78 13.5 8.5V7.5C13.5 7.22 13.72 7 14 7Z" fill="black"/>
</svg>
