<svg width="16" height="16" viewBox="0 0 16 16" fill="none" xmlns="http://www.w3.org/2000/svg">
<path d="M4.5 5C4.77614 5 5 5.22386 5 5.5V12.5C5 12.7761 4.77614 13 4.5 13H2.5C2.22386 13 2 12.7761 2 12.5V5.5C2 5.22386 2.22386 5 2.5 5H4.5Z" fill="black"/>
<path d="M9 7C9.27614 7 9.5 7.22386 9.5 7.5V12.5C9.5 12.7761 9.27614 13 9 13H7C6.72386 13 6.5 12.7761 6.5 12.5V7.5C6.5 7.22386 6.72386 7 7 7H9Z" fill="black"/>
<path d="M13.5 3C13.7761 3 14 3.22386 14 3.5V12.5C14 12.7761 13.7761 13 13.5 13H11.5C11.2239 13 11 12.7761 11 12.5V3.5C11 3.22386 11.2239 3 11.5 3H13.5Z" fill="black"/>
</svg>
