<svg width="16" height="16" viewBox="0 0 16 16" fill="none" xmlns="http://www.w3.org/2000/svg">
<path d="M8 11.5C8.28 11.5 8.5 11.72 8.5 12V14C8.5 14.28 8.28 14.5 8 14.5C7.72 14.5 7.5 14.28 7.5 14V12C7.5 11.72 7.72 11.5 8 11.5Z" fill="black"/>
<path d="M4.82031 10.4697C5.02031 10.2701 5.33038 10.2699 5.53027 10.4697C5.73017 10.6696 5.72995 10.9797 5.53027 11.1797L4.12012 12.5898C4.02012 12.6898 3.88953 12.7402 3.76953 12.7402H3.75977C3.62984 12.7402 3.50011 12.6898 3.41016 12.5898C3.21016 12.3898 3.21016 12.0799 3.41016 11.8799L4.82031 10.4697Z" fill="black"/>
<path d="M10.4795 10.4697C10.6795 10.2697 10.9904 10.2697 11.1904 10.4697L12.5996 11.8799C12.7996 12.0799 12.7996 12.3898 12.5996 12.5898C12.4996 12.6898 12.37 12.7402 12.25 12.7402H12.2402C12.1102 12.7402 11.9796 12.6898 11.8896 12.5898L10.4795 11.1797C10.2799 10.9797 10.2797 10.6696 10.4795 10.4697Z" fill="black"/>
<path d="M4 7.5C4.28 7.5 4.5 7.72 4.5 8C4.5 8.28 4.28 8.5 4 8.5H2C1.72 8.5 1.5 8.28 1.5 8C1.5 7.72 1.72 7.5 2 7.5H4Z" fill="black"/>
<path d="M14 7.5C14.28 7.5 14.5 7.72 14.5 8C14.5 8.28 14.28 8.5 14 8.5H12C11.72 8.5 11.5 8.28 11.5 8C11.5 7.72 11.72 7.5 12 7.5H14Z" fill="black"/>
<path d="M3.41016 3.40039C3.61016 3.20039 3.92012 3.20039 4.12012 3.40039L5.53027 4.80957C5.73015 5.00945 5.7299 5.31952 5.53027 5.51953C5.43027 5.61953 5.29969 5.66992 5.17969 5.66992H5.16992C5.03993 5.66991 4.9103 5.61952 4.82031 5.51953L3.41016 4.11035C3.21019 3.91038 3.21025 3.60039 3.41016 3.40039Z" fill="black"/>
<path d="M11.8896 3.40039C12.0896 3.20039 12.3996 3.20039 12.5996 3.40039C12.7996 3.60039 12.7996 3.91036 12.5996 4.11035L11.1904 5.51953C11.0904 5.61953 10.9598 5.66992 10.8398 5.66992H10.8301C10.7001 5.66992 10.5695 5.61953 10.4795 5.51953C10.28 5.31952 10.2797 5.00941 10.4795 4.80957L11.8896 3.40039Z" fill="black"/>
<path d="M8 1.5C8.28 1.5 8.5 1.72 8.5 2V4C8.5 4.28 8.28 4.5 8 4.5C7.72 4.5 7.5 4.28 7.5 4V2C7.5 1.72 7.72 1.5 8 1.5Z" fill="black"/>
</svg>
