<svg width="16" height="16" viewBox="0 0 16 16" fill="none" xmlns="http://www.w3.org/2000/svg">
<path d="M9.50024 13C9.50024 13.8299 8.83013 14.4999 8.00024 14.5C7.17024 14.5 6.50024 13.83 6.50024 13H9.50024Z" fill="black"/>
<path d="M7.99047 2C8.27024 2.00025 8.49047 2.22016 8.49047 2.5V3.04004C10.0003 3.26021 11.2305 4.42012 11.4905 5.95996L12.3 10.8398C12.4 11.4498 11.9298 12 11.3098 12H4.67016C4.05016 12 3.57992 11.4498 3.67992 10.8398L4.49047 5.95996C4.75051 4.41002 5.98051 3.25003 7.49047 3.04004V2.5C7.49047 2.22 7.71047 2 7.99047 2Z" fill="black"/>
</svg>
