<svg width="16" height="16" viewBox="0 0 16 16" fill="none" xmlns="http://www.w3.org/2000/svg">
<path d="M13 2.5C13.83 2.5 14.5 3.17 14.5 4C14.5 4.83 13.83 5.5 13 5.5H12.9102L11.0205 9.91016C11.3203 10.1901 11.5097 10.58 11.5098 11.0098C11.5098 11.8398 10.8398 12.5098 10.0098 12.5098C9.17988 12.5096 8.50977 11.8397 8.50977 11.0098C8.50982 10.68 8.61975 10.37 8.80957 10.1201L6.37012 6.45996C6.25012 6.48996 6.13 6.50977 6 6.50977H5.91016L4.02051 10.9199C4.32027 11.1998 4.50963 11.5898 4.50977 12.0195C4.50977 12.8495 3.83977 13.5195 3.00977 13.5195C2.17988 13.5194 1.50977 12.8494 1.50977 12.0195C1.51002 11.1898 2.18004 10.5197 3.00977 10.5195H3.09961L4.99023 6.11035C4.69023 5.83035 4.5 5.43977 4.5 5.00977C4.50012 4.17987 5.17008 3.50977 6 3.50977C6.82992 3.50977 7.49988 4.17987 7.5 5.00977C7.5 5.33977 7.3902 5.65039 7.2002 5.90039L9.63965 9.55957C9.75957 9.52959 9.87986 9.50979 10.0098 9.50977H10.0996L11.9902 5.09961C11.6903 4.81961 11.5 4.42997 11.5 4C11.5 3.17 12.17 2.5 13 2.5Z" fill="currentColor"/>
</svg>
