<svg width="16" height="16" viewBox="0 0 16 16" fill="none" xmlns="http://www.w3.org/2000/svg">
<path fill-rule="evenodd" clip-rule="evenodd" d="M12.6498 2.64982C12.8398 2.44988 13.16 2.44992 13.35 2.64982C13.55 2.83981 13.55 3.16001 13.35 3.35002L12.1899 4.51017C12.4599 4.71017 12.7104 4.92959 12.9604 5.15959C13.6404 5.82958 14.2397 6.62018 14.7397 7.51017C14.9097 7.81012 14.9096 8.18969 14.7397 8.48966C13.1998 11.2195 10.7503 13.0002 8.00043 13.0004C7.16047 13.0004 6.35024 12.8397 5.59027 12.5297C5.26028 12.3997 4.95007 12.25 4.64008 12.06L3.35004 13.35C3.26014 13.4499 3.13029 13.5003 3.00043 13.5004C2.87043 13.5004 2.73984 13.45 2.64984 13.35C2.44993 13.16 2.44987 12.8398 2.64984 12.6498L12.6498 2.64982ZM6.26019 10.4399C6.55016 10.6498 6.87997 10.8101 7.22992 10.8901C7.46992 10.9601 7.73043 11.0004 8.00043 11.0004C9.6601 11.0002 11.0002 9.66009 11.0004 8.00041C11.0004 7.73041 10.9601 7.4699 10.8901 7.2299C10.8101 6.87995 10.6498 6.55013 10.4399 6.26017L6.26019 10.4399Z" fill="black"/>
<path d="M8.00043 3.00041C8.84016 3.00046 9.64982 3.16027 10.4096 3.47013L8.76996 5.10978C8.53011 5.03983 8.27024 5.00045 8.00043 5.00041C6.34043 5.00041 5.00043 6.34041 5.00043 8.00041C5.00047 8.27022 5.03986 8.53009 5.1098 8.76994L3.04047 10.8403C2.36047 10.1703 1.76019 9.37966 1.26019 8.48966C1.09031 8.18971 1.09025 7.8101 1.26019 7.51017C2.80019 4.78017 5.25043 3.00041 8.00043 3.00041Z" fill="black"/>
</svg>
