<svg width="16" height="16" viewBox="0 0 16 16" fill="none" xmlns="http://www.w3.org/2000/svg">
<path fill-rule="evenodd" clip-rule="evenodd" d="M12 4C13.1 4 14 4.9 14 6V6.5C14.55 6.5 15 6.95 15 7.5V8.5C15 9.05 14.55 9.5 14 9.5V10C14 11.1 13.1 12 12 12H4C2.9 12 2 11.1 2 10V6C2 4.9 2.9 4 4 4H12ZM11 6.5C10.72 6.5 10.5 6.72 10.5 7V7.5H10C9.72 7.5 9.5 7.72 9.5 8C9.5 8.28 9.72 8.5 10 8.5H10.5V9C10.5 9.28 10.72 9.5 11 9.5C11.28 9.5 11.5 9.28 11.5 9V8.5H12C12.28 8.5 12.5 8.28 12.5 8C12.5 7.72 12.28 7.5 12 7.5H11.5V7C11.5 6.72 11.28 6.5 11 6.5ZM4 7.5C3.72 7.5 3.5 7.72 3.5 8C3.5 8.28 3.72 8.5 4 8.5H6C6.28 8.5 6.5 8.28 6.5 8C6.5 7.72 6.28 7.5 6 7.5H4Z" fill="black"/>
</svg>
