<svg width="16" height="16" viewBox="0 0 16 16" fill="none" xmlns="http://www.w3.org/2000/svg">
<path d="M9.64004 1.64978C9.84002 1.44993 10.15 1.44989 10.35 1.64978L14.35 5.64978H14.3305C14.5302 5.84967 14.5301 6.15978 14.3305 6.35974C14.2405 6.45974 14.0999 6.51013 13.9799 6.51013C13.8599 6.51011 13.7302 6.4597 13.6303 6.35974L13.0199 5.75037L10.6303 8.60974C10.8103 8.90974 10.8998 9.24998 10.8998 9.59998C10.8998 10.1098 10.7 10.5896 10.3402 10.9496L9.93007 11.3597C9.84019 11.4596 9.70036 11.51 9.58047 11.5101C9.46047 11.5101 9.32988 11.4597 9.22988 11.3597L7.28945 9.41931L3.35976 13.35C3.25983 13.4498 3.13006 13.5003 3.01015 13.5004H3.00039C2.87039 13.5004 2.7398 13.45 2.6498 13.35C2.44992 13.15 2.44997 12.84 2.6498 12.64L6.57949 8.70935L4.64004 6.7699C4.44005 6.5699 4.44004 6.25993 4.64004 6.05994L5.05019 5.64978C5.66019 5.03999 6.67012 4.91984 7.39004 5.35974L10.2504 2.97009L9.64004 2.35974C9.44013 2.15974 9.44007 1.84975 9.64004 1.64978Z" fill="currentColor"/>
</svg>
