<svg width="16" height="16" viewBox="0 0 16 16" fill="none" xmlns="http://www.w3.org/2000/svg">
<path fill-rule="evenodd" clip-rule="evenodd" d="M8 1C8.55 1 9 1.45 9 2H10.5C10.78 2 11 2.22 11 2.5V3H12C12.55 3 13 3.45 13 4V13C13 13.55 12.55 14 12 14H4C3.45 14 3 13.55 3 13V4C3 3.45 3.45 3 4 3H5V2.5C5 2.22 5.22 2 5.5 2H7C7 1.45 7.45 1 8 1ZM8 10.5C7.72 10.5 7.5 10.72 7.5 11C7.5 11.28 7.72 11.5 8 11.5C8.28 11.5 8.5 11.28 8.5 11C8.5 10.72 8.28 10.5 8 10.5ZM8 6.5C7.72 6.5 7.5 6.72 7.5 7V9.5C7.5 9.78 7.72 10 8 10C8.28 10 8.5 9.78 8.5 9.5V7C8.5 6.72 8.28 6.5 8 6.5ZM5.5 4C5.22 4 5 4.22 5 4.5C5 4.78 5.22 5 5.5 5H10.5C10.78 5 11 4.78 11 4.5C11 4.22 10.78 4 10.5 4H5.5Z" fill="black"/>
</svg>
