<svg width="16" height="16" viewBox="0 0 16 16" fill="none" xmlns="http://www.w3.org/2000/svg">
<path d="M6.5498 4.78027C6.47995 4.93022 6.48039 5.11986 6.57031 5.25977C6.67031 5.40977 6.83 5.5 7 5.5H8.19043L7.5498 6.78027C7.43003 7.02022 7.53038 7.32025 7.78027 7.4502C7.85017 7.48012 7.92012 7.5 8 7.5C8.18 7.5 8.3602 7.39973 8.4502 7.21973L9.4502 5.21973C9.52005 5.06978 9.51961 4.88014 9.42969 4.74023C9.32969 4.59023 9.17 4.5 9 4.5H7.80957C7.80957 4.5 9 2.08 9 2H10C10.55 2 11 2.45 11 3V7C11 8.49 9.92 9.7202 8.5 9.9502V13.5H10.5C10.78 13.5 11 13.72 11 14C11 14.28 10.78 14.5 10.5 14.5H5.5C5.22 14.5 5 14.28 5 14C5 13.72 5.22 13.5 5.5 13.5H7.5V9.9502C6.08 9.7202 5 8.49 5 7V3C5 2.45 5.45 2 6 2H7.94043L6.5498 4.78027Z" fill="currentColor"/>
</svg>
