<svg width="16" height="16" viewBox="0 0 16 16" fill="none" xmlns="http://www.w3.org/2000/svg">
<path fill-rule="evenodd" clip-rule="evenodd" d="M3.34961 6.65031C3.34961 3.86033 5.80996 1.64977 8.66992 2.04972H8.67969C11.0097 2.37972 12.6704 4.33034 12.6504 6.69034C12.6403 7.48014 12.46 8.24993 12.0801 8.8798C11.3401 10.0998 9.29016 13.1103 8.41016 14.4003C8.21015 14.6901 7.78986 14.6901 7.58984 14.4003C6.70984 13.1103 4.65992 10.0998 3.91992 8.8798C3.53003 8.23992 3.34966 7.46012 3.34961 6.65031ZM10.8701 5.13956C10.6702 4.93977 10.3601 4.93988 10.1602 5.13956L7.50977 7.78995L6.36035 6.63956C6.16048 6.4397 5.8504 6.43996 5.65039 6.63956C5.45039 6.83956 5.45039 7.14952 5.65039 7.34952L7.15039 8.84952C7.24039 8.94952 7.38 8.99992 7.5 8.99992C7.61999 8.99991 7.74962 8.94952 7.84961 8.84952L10.8496 5.84952H10.8701C11.0698 5.64952 11.07 5.33947 10.8701 5.13956Z" fill="currentColor"/>
</svg>
