<svg width="16" height="16" viewBox="0 0 16 16" fill="none" xmlns="http://www.w3.org/2000/svg">
<path d="M9.16016 3.3604C10.5002 2.8304 12.0303 2.89036 13.3203 3.57036H13.3096C13.7195 3.79032 13.9901 4.20983 13.9902 4.67973V12.1202C13.9901 12.4899 13.6004 12.7195 13.2705 12.5499C11.7007 11.7499 9.77044 11.8299 8.27051 12.8096C8.10051 12.9196 7.88973 12.9196 7.71973 12.8096C6.21977 11.8298 4.28961 11.7499 2.71973 12.5499C2.38981 12.7197 2.00013 12.49 2 12.1202V4.6895C2.00018 4.21983 2.26006 3.79035 2.67969 3.57036C3.96968 2.90036 5.49985 2.8304 6.83984 3.3604C7.22973 3.52035 7.49985 3.88976 7.5 4.30962V11.0098C7.5 11.2898 7.72 11.5098 8 11.5098C8.28 11.5098 8.5 11.2898 8.5 11.0098V4.30962C8.50015 3.88976 8.77027 3.52035 9.16016 3.3604Z" fill="black"/>
</svg>
