<svg width="16" height="16" viewBox="0 0 16 16" fill="none" xmlns="http://www.w3.org/2000/svg">
<path fill-rule="evenodd" clip-rule="evenodd" d="M9.66016 2C10.1901 2.00005 10.6904 2.20989 11.0703 2.58984L13.4102 4.92969C13.7901 5.29965 14 5.8099 14 6.33984V9.65039C13.9999 10.1801 13.7899 10.6797 13.4102 11.0596L11.0703 13.4004C10.7004 13.7803 10.1901 13.9902 9.66016 13.9902H6.34961C5.81994 13.9901 5.32029 13.78 4.94043 13.4004L2.59961 11.0596C2.21996 10.6897 2.00987 10.1801 2.00977 9.65039V6.33984C2.00981 5.80991 2.21966 5.30965 2.59961 4.92969L4.94043 2.58984C5.31032 2.21012 5.81988 2.0001 6.34961 2H9.66016ZM8 10C7.72 10 7.5 10.22 7.5 10.5C7.5 10.78 7.72 11 8 11C8.28 11 8.5 10.78 8.5 10.5C8.5 10.22 8.28 10 8 10ZM8 5C7.72 5 7.5 5.22 7.5 5.5V8.5C7.5 8.78 7.72 9 8 9C8.28 9 8.5 8.78 8.5 8.5V5.5C8.5 5.22 8.28 5 8 5Z" fill="currentColor"/>
</svg>
