<svg width="16" height="16" viewBox="0 0 16 16" fill="none" xmlns="http://www.w3.org/2000/svg">
<path d="M12.6503 2.65039C12.8403 2.45039 13.1595 2.45039 13.3495 2.65039C13.5495 2.84039 13.5495 3.15961 13.3495 3.34961L12.5497 4.15039C12.8096 4.35026 13.0696 4.56976 13.3095 4.80957C14.1394 5.6095 14.8702 6.60966 15.4501 7.76953C15.5701 8.01944 15.4702 8.32012 15.2304 8.4502C15.1504 8.4802 15.0799 8.5 14.9999 8.5C14.82 8.49999 14.6398 8.4003 14.5497 8.23047C14.0097 7.16047 13.3495 6.24953 12.5995 5.51953C12.3497 5.27972 12.0998 5.05999 11.83 4.87012L10.4404 6.25977C10.6504 6.54976 10.8096 6.88048 10.8896 7.23047C10.9595 7.47038 10.9999 7.73012 10.9999 8C10.9999 9.66 9.65994 11 7.99994 11C7.73007 11 7.47031 10.9596 7.23041 10.8896C6.88041 10.8096 6.5497 10.6504 6.2597 10.4404L3.34955 13.3496C3.25955 13.4496 3.12994 13.5 2.99994 13.5C2.86995 13.5 2.74032 13.4496 2.65033 13.3496C2.45036 13.1596 2.45036 12.8404 2.65033 12.6504L11.7197 3.58008H11.7304L12.6503 2.65039Z" fill="black"/>
<path d="M7.99994 5C8.26994 5 8.53045 5.04035 8.77045 5.11035L5.11029 8.76953C5.04035 8.52963 4.99994 8.26987 4.99994 8C4.99994 6.34002 6.33997 5.00003 7.99994 5Z" fill="black"/>
<path d="M7.99994 2.5C8.95992 2.5 9.89999 2.69986 10.79 3.08984L10.0204 3.86035C9.37045 3.62035 8.68994 3.5 7.99994 3.5C5.38996 3.50003 2.94012 5.27049 1.45013 8.23047C1.32012 8.47012 1.02026 8.56983 0.770447 8.4502C0.530447 8.3202 0.429743 8.01953 0.549743 7.76953C2.21975 4.46971 5.00004 2.50003 7.99994 2.5Z" fill="black"/>
</svg>
