<svg width="16" height="16" viewBox="0 0 16 16" fill="none" xmlns="http://www.w3.org/2000/svg">
<path d="M7.11035 9.29048C7.48035 8.55048 8.53039 8.55048 8.90039 9.29048L10.2803 12.0503H10.2695C10.6095 12.7203 10.1199 13.5004 9.37988 13.5004H6.62012C5.88012 13.5004 5.40047 12.7103 5.73047 12.0503L7.11035 9.29048Z" fill="currentColor"/>
<path d="M4.11035 2.60982C4.31036 2.4101 4.62041 2.40991 4.82031 2.60982C5.02017 2.80973 5.02002 3.11979 4.82031 3.31978C3.97031 4.16978 3.5 5.30045 3.5 6.50045C3.50011 7.70029 3.97041 8.83023 4.82031 9.68013C5.02006 9.8801 5.02013 10.1902 4.82031 10.3901C4.72031 10.4901 4.58973 10.5405 4.46973 10.5405H4.45996C4.33007 10.5405 4.20034 10.4899 4.11035 10.3901C3.07045 9.3502 2.50011 7.97028 2.5 6.50045C2.5 5.03045 3.07035 3.64982 4.11035 2.60982Z" fill="currentColor"/>
<path d="M11.1904 2.60982C11.3904 2.41011 11.7005 2.40992 11.9004 2.60982C12.9403 3.64981 13.5098 5.03048 13.5098 6.50045C13.5097 7.97022 12.9402 9.35021 11.9004 10.3901C11.8004 10.4901 11.6698 10.5405 11.5498 10.5405H11.54C11.4101 10.5405 11.2804 10.4899 11.1904 10.3901C10.9904 10.1901 10.9904 9.88013 11.1904 9.68013C12.0402 8.83025 12.5097 7.70022 12.5098 6.50045C12.5098 5.30048 12.0404 4.16977 11.1904 3.31978C10.9904 3.11978 10.9904 2.80982 11.1904 2.60982Z" fill="currentColor"/>
<path d="M5.53027 4.02974C5.73027 3.83005 6.04033 3.82988 6.24023 4.02974C6.44013 4.22964 6.43993 4.53969 6.24023 4.7397C5.77023 5.2097 5.50977 5.84021 5.50977 6.51021C5.5098 7.18014 5.77029 7.80978 6.24023 8.27974C6.44013 8.47964 6.43993 8.78969 6.24023 8.9897C6.14023 9.0897 6.00965 9.14009 5.88965 9.14009L5.87988 9.11959C5.75001 9.11955 5.62024 9.07001 5.53027 8.97017C4.87036 8.31026 4.5001 7.4303 4.5 6.50045C4.5 5.57045 4.86027 4.68974 5.53027 4.02974Z" fill="currentColor"/>
<path d="M9.76953 4.01021C9.96953 3.81021 10.2805 3.81021 10.4805 4.01021C11.1402 4.67015 11.5097 5.55012 11.5098 6.47994C11.5098 7.40975 11.1502 8.28971 10.4805 8.94966C10.3805 9.04966 10.2499 9.10005 10.1299 9.10005L10.1201 9.11959C9.99012 9.11959 9.85953 9.07017 9.76953 8.97017C9.5698 8.77027 9.5699 8.46017 9.76953 8.26021C10.2395 7.79021 10.5 7.1597 10.5 6.4897C10.4999 5.81983 10.2395 5.19009 9.76953 4.72017C9.5698 4.52027 9.5699 4.21017 9.76953 4.01021Z" fill="currentColor"/>
<path d="M6.94043 5.4399C7.52036 4.86029 8.47964 4.86029 9.05957 5.4399C9.63957 6.0199 9.63957 6.98002 9.05957 7.56002C8.76959 7.84989 8.37991 8.00045 8 8.00045C7.62009 8.00044 7.23041 7.84989 6.94043 7.56002C6.36043 6.98002 6.36043 6.0199 6.94043 5.4399Z" fill="currentColor"/>
</svg>
