<svg width="16" height="16" viewBox="0 0 16 16" fill="none" xmlns="http://www.w3.org/2000/svg">
<path fill-rule="evenodd" clip-rule="evenodd" d="M10.8296 2.16992C11.5996 2.16992 12.3598 2.45994 12.9498 3.0498C14.1198 4.2198 14.1198 6.12004 12.9498 7.29004L7.28961 12.9502C6.70976 13.5398 5.94017 13.83 5.17047 13.8301C4.40059 13.8301 3.64031 13.54 3.05035 12.9502C1.88035 11.7802 1.88035 9.87996 3.05035 8.70996L8.71051 3.0498C9.29037 2.4601 10.0599 2.17002 10.8296 2.16992ZM10.8296 3.16992C10.2898 3.17003 9.78963 3.37986 9.40973 3.75977L6.94 6.24023L9.77008 9.07031L12.2398 6.58984C13.0198 5.80984 13.0198 4.53977 12.2398 3.75977C11.8598 3.37989 11.3696 3.16992 10.8296 3.16992Z" fill="black"/>
</svg>
