<svg width="16" height="16" viewBox="0 0 16 16" fill="none" xmlns="http://www.w3.org/2000/svg">
<path fill-rule="evenodd" clip-rule="evenodd" d="M7.99991 1.5C8.27991 1.5 8.49991 1.72 8.49991 2V2.56543C9.35985 2.78903 9.99991 3.57261 9.99991 4.5C9.99991 5.14345 9.69055 5.71654 9.21475 6.08301L10.5907 9.34961C11.155 8.72797 11.4999 7.90377 11.4999 7C11.4999 6.72003 11.72 6.50005 11.9999 6.5C12.2799 6.5 12.4999 6.72 12.4999 7C12.4999 8.32427 11.9231 9.51639 11.0087 10.3408L12.4696 13.8096C12.5796 14.0595 12.4601 14.3599 12.2001 14.46C12.1401 14.49 12.0697 14.5 12.0097 14.5H11.9999C11.7999 14.5 11.6199 14.3894 11.5399 14.1895L10.1708 10.9395C9.52654 11.2961 8.78651 11.5 7.99991 11.5C7.2346 11.5 6.49521 11.3082 5.83585 10.9443L4.46963 14.1904C4.38951 14.3801 4.19951 14.5 4.00967 14.5H3.99991C3.94005 14.5 3.87035 14.4898 3.81045 14.46C3.56045 14.35 3.43995 14.0596 3.53995 13.8096L5.12198 10.0527C5.13118 10.0233 5.14295 9.99468 5.15811 9.9668L6.7919 6.08789C6.31237 5.72166 5.99991 5.1464 5.99991 4.5C5.99991 3.57267 6.64005 2.78908 7.49991 2.56543V2C7.49991 1.72003 7.71995 1.50005 7.99991 1.5ZM8.28995 6.47559C8.19508 6.48954 8.09849 6.5 7.99991 6.5C7.904 6.5 7.81009 6.48979 7.71768 6.47656L6.22745 10.0156C6.76425 10.333 7.37102 10.5 7.99991 10.5C8.6495 10.5 9.25731 10.3203 9.7792 10.0107L8.28995 6.47559Z" fill="currentColor"/>
</svg>
