<svg width="16" height="16" viewBox="0 0 16 16" fill="none" xmlns="http://www.w3.org/2000/svg">
<path fill-rule="evenodd" clip-rule="evenodd" d="M8 2C11.31 2 14 4.69 14 8C14 11.31 11.31 14 8 14C4.69 14 2 11.31 2 8C2 4.69 4.69 2 8 2ZM8 3.5C7.72 3.5 7.5 3.72 7.5 4V8C7.5 8.13 7.56039 8.25961 7.65039 8.34961L9.65039 10.3496C9.74039 10.4496 9.88 10.5 10 10.5C10.12 10.5 10.2496 10.4496 10.3496 10.3496C10.5496 10.1496 10.5496 9.83965 10.3496 9.63965L8.5 7.79004V4C8.5 3.72 8.28 3.5 8 3.5Z" fill="black"/>
</svg>
