<svg width="16" height="16" viewBox="0 0 16 16" fill="none" xmlns="http://www.w3.org/2000/svg">
<path d="M14.03 10.93L13.19 10.58L13.54 9.74001C13.65 9.48001 13.52 9.19001 13.27 9.09001L12.43 8.74001L12.01 7.73001C12.94 6.91001 13.28 5.57002 12.78 4.36002C12.15 2.83002 10.4 2.12001 8.86999 2.75001C9.12999 3.02001 9.36999 3.31001 9.54999 3.65001C10.1 4.70001 10.16 5.94001 9.69999 7.04001C9.49999 7.51001 9.21999 7.93001 8.88999 8.28001C9.28999 8.44001 9.72999 8.53001 10.17 8.50001L12.04 13.01C12.09 13.13 12.19 13.23 12.31 13.28L12.96 13.55C13.22 13.66 13.51 13.53 13.61 13.28L14.31 11.59C14.42 11.33 14.29 11.04 14.04 10.94L14.03 10.93Z" fill="currentColor"/>
<path d="M3.50999 3.82001C2.62999 5.15001 2.92999 6.79002 3.98999 7.73002L2.11999 12.24C2.06999 12.36 2.06999 12.5 2.11999 12.62L2.38999 13.27C2.49999 13.53 2.78999 13.65 3.03999 13.54L4.72999 12.84C4.98999 12.73 5.10999 12.44 4.99999 12.19L4.64999 11.35L5.48999 11C5.74999 10.89 5.86999 10.6 5.75999 10.35L5.40999 9.51002L5.82999 8.50002C7.05999 8.58002 8.25999 7.87002 8.75999 6.66002C9.46999 4.95002 8.48999 2.98001 6.58999 2.57001C5.41999 2.32001 4.15999 2.83001 3.49999 3.83001L3.50999 3.82001ZM7.10999 5.43001C7.36999 5.54001 7.48999 5.83001 7.37999 6.08001C7.26999 6.33001 6.97999 6.46001 6.72999 6.35001L4.87999 5.58001C4.61999 5.47001 4.49999 5.18001 4.60999 4.93001C4.71999 4.68001 5.00999 4.55001 5.25999 4.66001L7.10999 5.43001Z" fill="currentColor"/>
</svg>
