<svg width="16" height="16" viewBox="0 0 16 16" fill="none" xmlns="http://www.w3.org/2000/svg">
<path fill-rule="evenodd" clip-rule="evenodd" d="M8.18359 1.50391C8.22109 1.50035 8.25875 1.50197 8.2959 1.50684C10.9689 1.62761 13.2301 3.37587 14.1084 5.78027C14.1273 5.81945 14.1422 5.86088 14.1504 5.90527C14.3756 6.56321 14.5 7.26742 14.5 8C14.5 8.73226 14.3754 9.43606 14.1504 10.0938C14.1422 10.1382 14.1272 10.1795 14.1084 10.2188C13.2318 12.6198 10.9764 14.3654 8.30859 14.4912C8.2826 14.4955 8.25673 14.5 8.23047 14.5C8.21348 14.5 8.19603 14.497 8.17871 14.4951C8.11931 14.4967 8.05978 14.5 8 14.5C7.93989 14.5 7.88004 14.4968 7.82031 14.4951C7.80332 14.497 7.7862 14.5 7.76953 14.5C7.7426 14.5 7.71564 14.4957 7.68848 14.4912C5.02188 14.3643 2.76685 12.6191 1.89062 10.2188C1.87188 10.1796 1.85676 10.1381 1.84863 10.0938C1.62371 9.43614 1.5 8.73214 1.5 8C1.5 7.26753 1.62352 6.56313 1.84863 5.90527C1.85684 5.86096 1.87182 5.8194 1.89062 5.78027C2.76922 3.37454 5.03319 1.62609 7.70801 1.50684C7.74396 1.50208 7.78025 1.50063 7.81641 1.50391C7.87741 1.5022 7.93859 1.5 8 1.5C8.06141 1.5 8.12259 1.5022 8.18359 1.50391ZM6.5625 10.5C6.85736 11.6192 7.3468 12.6446 7.99902 13.4893C8.6519 12.6485 9.14368 11.6223 9.43848 10.5H6.5625ZM3.10449 10.5C3.82399 11.9016 5.12714 12.9556 6.69043 13.3398C6.17229 12.4917 5.78348 11.5267 5.54102 10.5H3.10449ZM10.459 10.5C10.2165 11.5269 9.82687 12.4916 9.30859 13.3398C10.8723 12.9558 12.1759 11.9019 12.8955 10.5H10.459ZM6.35449 6.5C6.27973 6.99051 6.24024 7.49269 6.24023 8C6.24023 8.50773 6.2796 9.00981 6.35449 9.5H9.64551C9.72027 9.00949 9.75977 8.5073 9.75977 8C9.75976 7.49226 9.7204 6.99019 9.64551 6.5H6.35449ZM10.6445 6.5C10.7126 6.99241 10.75 7.49402 10.75 8C10.75 8.50598 10.7126 9.0076 10.6445 9.5H13.29C13.4258 9.02277 13.5 8.51984 13.5 8C13.5 7.48016 13.4258 6.97723 13.29 6.5H10.6445ZM2.70996 6.5C2.5742 6.97723 2.5 7.48016 2.5 8C2.5 8.51984 2.5742 9.02277 2.70996 9.5H5.35547C5.28745 9.0076 5.25 8.50598 5.25 8C5.25 7.49402 5.28744 6.99241 5.35547 6.5H2.70996ZM7.99902 2.50977C7.34628 3.35047 6.85629 4.3779 6.56152 5.5H9.4375C9.14246 4.38009 8.65185 3.35473 7.99902 2.50977ZM9.30859 2.65918C9.82709 3.50761 10.2164 4.47281 10.459 5.5H12.8955C12.1758 4.09804 10.8724 3.04316 9.30859 2.65918ZM6.69043 2.65918C5.12704 3.04335 3.82403 4.09831 3.10449 5.5H5.54102C5.78355 4.47299 6.17207 3.50751 6.69043 2.65918Z" fill="currentColor"/>
</svg>
