<svg width="16" height="16" viewBox="0 0 16 16" fill="none" xmlns="http://www.w3.org/2000/svg">
<path fill-rule="evenodd" clip-rule="evenodd" d="M6.9098 1.59981C10.1396 0.929842 12.9896 3.37967 12.9899 6.48946C12.9899 8.53944 11.7499 10.2995 9.98988 11.0695V12.4895C9.98988 13.5895 9.08988 14.4895 7.98988 14.4895C6.88992 14.4894 5.98988 13.5894 5.98988 12.4895V11.0695C3.98 10.1895 2.64997 8.02948 3.06995 5.60958C3.41004 3.63983 4.95982 2.01967 6.91956 1.60958L6.9098 1.59981ZM7.49964 11.0002C7.2198 11.0004 6.99964 11.2203 6.99964 11.5002C6.9998 11.7799 7.2199 12 7.49964 12.0002H8.49964C8.77954 12.0002 8.99948 11.7801 8.99964 11.5002C8.99964 11.2202 8.77964 11.0002 8.49964 11.0002H7.49964ZM9.35999 7.05977C8.61002 6.30986 7.40002 6.30988 6.65003 7.05977C6.45005 7.25975 6.45009 7.56973 6.65003 7.76973C6.85003 7.96973 7.15999 7.96973 7.35999 7.76973C7.70998 7.40985 8.29006 7.40982 8.65003 7.76973C8.73995 7.86964 8.87972 7.92003 8.99964 7.92012C9.11964 7.92012 9.25023 7.86973 9.35023 7.76973H9.35999C9.5599 7.56973 9.55996 7.25974 9.35999 7.05977ZM10.7701 5.63985C9.25015 4.10985 6.76988 4.10985 5.23988 5.63985C5.03994 5.83982 5.03999 6.14982 5.23988 6.34981C5.43987 6.5498 5.74984 6.54979 5.94984 6.34981C7.08982 5.20983 8.92995 5.20987 10.07 6.34981C10.1598 6.44969 10.2997 6.50009 10.4196 6.5002C10.5396 6.5002 10.6701 6.44981 10.7701 6.34981C10.97 6.14982 10.97 5.83981 10.7701 5.63985Z" fill="black"/>
</svg>
