<svg width="16" height="16" viewBox="0 0 16 16" fill="none" xmlns="http://www.w3.org/2000/svg">
<path d="M3.66016 2.03967C4.92007 1.8298 6 2.80043 6 4.01037V9.01037C5.26 8.45037 4.12 8.34045 3.25 8.84045C3.01016 8.9805 2.93035 9.28021 3.07031 9.52014C3.21038 9.75993 3.51009 9.83977 3.75 9.69982C3.97998 9.56985 4.24003 9.49963 4.5 9.49963C5.32989 9.49963 5.99982 10.1698 6 10.9996C6 11.2796 6.22 11.4996 6.5 11.4996C6.78 11.4996 7 11.2796 7 10.9996V3.99963H13V4.01037C13.55 4.01037 14 4.46037 14 5.01037V12.0104C13.9998 12.5602 13.5499 13.0104 13 13.0104H4.11035C3.11045 13.0104 2.1904 12.3301 2.03027 11.3502L2 4.11975C2.0001 3.11983 2.68023 2.19966 3.66016 2.03967Z" fill="currentColor"/>
</svg>
