<svg width="16" height="16" viewBox="0 0 16 16" fill="none" xmlns="http://www.w3.org/2000/svg">
<path fill-rule="evenodd" clip-rule="evenodd" d="M11 2C11.28 2 11.5 2.22 11.5 2.5V3H13C13.55 3 14 3.45 14 4V13C14 13.55 13.55 14 13 14H3C2.45 14 2 13.55 2 13V4C2 3.45 2.45 3 3 3H4.5V2.5C4.5 2.22 4.72 2 5 2C5.28 2 5.5 2.22 5.5 2.5V3H7.5V2.5C7.5 2.22 7.72 2 8 2C8.28 2 8.5 2.22 8.5 2.5V3H10.5V2.5C10.5 2.22 10.72 2 11 2ZM3.5 5.5C3.22 5.5 3 5.72 3 6C3 6.28 3.22 6.5 3.5 6.5H12.5C12.78 6.5 13 6.28 13 6C13 5.72 12.78 5.5 12.5 5.5H3.5Z" fill="black"/>
</svg>
