<svg width="16" height="16" viewBox="0 0 16 16" fill="none" xmlns="http://www.w3.org/2000/svg">
<path d="M3.91992 8.5C4.11992 9.03 4.64 9.41992 5.25 9.41992C5.86 9.41992 6.38008 9.04 6.58008 8.5H7.5V9.83008C7.50005 10.11 7.72003 10.3301 8 10.3301C8.23 10.3301 8.41992 10.52 8.41992 10.75C8.41992 10.98 8.23977 11.1699 8.00977 11.1699C7.7299 11.18 7.49029 11.39 7.49023 11.6699V13.0098C7.49023 13.5597 7.04013 14.0096 6.49023 14.0098H3.5C2.67 14.0098 2 13.3398 2 12.5098V9.5C2 8.95 2.45 8.5 3 8.5H3.91992Z" fill="currentColor"/>
<path d="M10.75 7.58008C10.98 7.58008 11.1699 7.76023 11.1699 7.99023C11.18 8.27009 11.3901 8.50972 11.6699 8.50977H13.0098C13.5597 8.50977 14.0096 8.95986 14.0098 9.50977V12.5C14.0097 13.33 13.3398 14 12.5098 14H9.5C8.95001 14 8.50002 13.55 8.5 13V12.0801C9.02999 11.8801 9.41991 11.36 9.41992 10.75C9.41992 10.14 9.04 9.61992 8.5 9.41992V8.5H9.83008C10.11 8.49996 10.3301 8.27996 10.3301 8C10.3301 7.77 10.52 7.58008 10.75 7.58008Z" fill="currentColor"/>
<path d="M6.5 2C7.05 2 7.5 2.45 7.5 3V3.91992C6.97 4.11992 6.58008 4.64 6.58008 5.25C6.58008 5.86 6.96 6.38008 7.5 6.58008V7.5H6.16992C5.88995 7.50004 5.66992 7.72002 5.66992 8C5.66992 8.23 5.48 8.41992 5.25 8.41992C5.02 8.41992 4.83008 8.23977 4.83008 8.00977C4.81997 7.7299 4.60996 7.49028 4.33008 7.49023H2.99023C2.44032 7.49023 1.99037 7.04012 1.99023 6.49023V3.5C1.99023 2.67 2.66023 2 3.49023 2H6.5Z" fill="currentColor"/>
<path d="M12.5 1.99023C13.33 1.99026 14 2.66025 14 3.49023V6.5C14 7.04998 13.55 7.49998 13 7.5H12.0801C11.8801 6.97001 11.36 6.5801 10.75 6.58008C10.14 6.58008 9.61992 6.96 9.41992 7.5H8.5V6.16992C8.49995 5.88998 8.27995 5.66995 8 5.66992C7.77 5.66992 7.58008 5.48 7.58008 5.25C7.58008 5.02 7.76023 4.83008 7.99023 4.83008C8.27008 4.81995 8.50971 4.60994 8.50977 4.33008V2.99023C8.50977 2.4403 8.95985 1.99034 9.50977 1.99023H12.5Z" fill="currentColor"/>
</svg>
