<svg width="16" height="16" viewBox="0 0 16 16" fill="none" xmlns="http://www.w3.org/2000/svg">
<path d="M7.51023 7.78986L5.65964 9.64045C5.45999 9.84046 5.45976 10.1505 5.65964 10.3504C5.74964 10.4504 5.89024 10.4998 6.01023 10.4998C6.13006 10.4997 6.25994 10.4502 6.35984 10.3504L8.21042 8.49982H11.2202L7.65964 12.0604C7.36972 12.3402 6.99988 12.4998 6.60007 12.4998H4.22019L2.35984 14.3504C2.26991 14.4502 2.14003 14.4998 2.01023 14.4998C1.88024 14.4998 1.74964 14.4504 1.65964 14.3504C1.45972 14.1605 1.45989 13.8402 1.65964 13.6502L3.51023 11.7899V9.40998C3.51025 9.01016 3.66989 8.64034 3.94968 8.35041L7.51023 4.78986V7.78986Z" fill="currentColor"/>
<path d="M9.55027 2.76056C10.5403 1.77057 12.2595 1.77057 13.2495 2.76056C13.7495 3.25056 14.02 3.91017 14.02 4.61017C14.02 5.31014 13.7495 5.96981 13.2495 6.45978L12.2104 7.49982H9.21042L11.3598 5.35041C11.5598 5.15045 11.5597 4.84045 11.3598 4.64045C11.1598 4.44045 10.8499 4.44045 10.6499 4.64045L8.51023 6.77912V3.79963L9.55027 2.76056Z" fill="currentColor"/>
<path d="M8.51023 6.79963L8.49949 6.78986L8.51023 6.77912V6.79963Z" fill="currentColor"/>
</svg>
