<svg width="16" height="16" viewBox="0 0 16 16" fill="none" xmlns="http://www.w3.org/2000/svg">
<path fill-rule="evenodd" clip-rule="evenodd" d="M3.34961 6.65031C3.34961 3.86033 5.80995 1.64977 8.66992 2.04972H8.67969C11.0097 2.37972 12.6704 4.33035 12.6504 6.69035C12.6403 7.48014 12.46 8.24993 12.0801 8.8798C11.3401 10.0998 9.29016 13.1103 8.41016 14.4003C8.21016 14.6901 7.78986 14.6901 7.58984 14.4003C6.70984 13.1103 4.65992 10.0998 3.91992 8.8798C3.53003 8.23992 3.34966 7.46012 3.34961 6.65031ZM8 8.49992C7.72001 8.49992 7.50001 8.71993 7.5 8.99992C7.5 9.27992 7.72 9.49992 8 9.49992C8.27999 9.4999 8.5 9.27991 8.5 8.99992C8.49999 8.71994 8.27998 8.49993 8 8.49992ZM7.99023 4.50968C7.16032 4.50968 6.49037 5.1798 6.49023 6.00968C6.49023 6.28968 6.71023 6.50968 6.99023 6.50968C7.27011 6.50955 7.49023 6.2896 7.49023 6.00968C7.49037 5.72981 7.71032 5.50968 7.99023 5.50968C8.27002 5.50982 8.4901 5.72989 8.49023 6.00968C8.49023 6.15961 8.37007 6.30976 8.2002 6.3798L8.04004 6.45011C7.71012 6.58008 7.5001 6.89979 7.5 7.25968V7.50968C7.5 7.78968 7.72 8.00968 8 8.00968C8.27999 8.00967 8.5 7.78967 8.5 7.50968V7.33976L8.58984 7.29972L8.58008 7.30949C9.12994 7.07944 9.49023 6.57959 9.49023 6.00968C9.49009 5.17989 8.82003 4.50982 7.99023 4.50968Z" fill="black"/>
</svg>
