<svg width="16" height="16" viewBox="0 0 16 16" fill="none" xmlns="http://www.w3.org/2000/svg">
<path fill-rule="evenodd" clip-rule="evenodd" d="M7 2.5C7.38991 2.5 7.74002 2.64974 8 2.88965C8.25998 2.64974 8.61009 2.5 9 2.5H12C12.28 2.5 12.5 2.72 12.5 3V5H13.5C13.78 5 14 5.22 14 5.5V11.5C14 11.78 13.78 12 13.5 12H10V12.5C10 12.78 9.78 13 9.5 13H6.5C6.22 13 6 12.78 6 12.5V12H2.5C2.22 12 2 11.78 2 11.5V5.5C2 5.22 2.22 5 2.5 5H3.5V3C3.5 2.72 3.72 2.5 4 2.5H7ZM4.5 3.5V9.5H7C7.16998 9.5 7.34001 9.52986 7.5 9.58984V4C7.5 3.72 7.28 3.5 7 3.5H4.5ZM9 3.5C8.72 3.5 8.5 3.72 8.5 4V9.58984C8.65998 9.52986 8.82002 9.5 9 9.5H11.5V3.5H9Z" fill="black"/>
</svg>
