<svg width="16" height="16" viewBox="0 0 16 16" fill="none" xmlns="http://www.w3.org/2000/svg">
<path fill-rule="evenodd" clip-rule="evenodd" d="M7.27985 2.59961C7.49 1.79999 8.4904 1.79995 8.71051 2.59961L10.4498 9H11.3199C11.7299 9 12.1005 9.24988 12.2505 9.62988L13.5904 12.9697H13.5796C13.7696 13.4596 13.4102 13.9998 12.8804 14H3.10016C2.57016 14 2.19996 13.4597 2.39996 12.9697L3.73981 9.62988C3.88981 9.24988 4.26047 9 4.67047 9H5.53961L7.27985 2.59961ZM5.3902 10.6904C5.2202 10.4704 4.9 10.4404 4.69 10.6104C4.47031 10.7803 4.44026 11.0897 4.60992 11.3096C5.21992 12.0696 6.45055 12.5 8.00055 12.5C9.55032 12.4999 10.7803 12.0595 11.3902 11.3096C11.5599 11.0996 11.5298 10.7803 11.3101 10.6104C11.1001 10.4404 10.7799 10.4804 10.6099 10.6904C10.4594 10.8808 9.80909 11.4999 8.00055 11.5C6.19163 11.5 5.5407 10.8808 5.3902 10.6904Z" fill="currentColor"/>
</svg>
