<svg width="16" height="16" viewBox="0 0 16 16" fill="none" xmlns="http://www.w3.org/2000/svg">
<path fill-rule="evenodd" clip-rule="evenodd" d="M8 2C11.31 2 14 4.69 14 8C14 11.31 11.31 14 8 14C4.69 14 2 11.31 2 8C2 4.69 4.69 2 8 2ZM7 7C6.72 7 6.5 7.22 6.5 7.5C6.5 7.78 6.72 8 7 8H7.5V10H7C6.72 10 6.5 10.22 6.5 10.5C6.5 10.78 6.72 11 7 11H9C9.28 11 9.5 10.78 9.5 10.5C9.5 10.22 9.28 10 9 10H8.5V7.5C8.5 7.22 8.28 7 8 7H7ZM8 5C7.72 5 7.5 5.22 7.5 5.5C7.5 5.78 7.72 6 8 6C8.28 6 8.5 5.78 8.5 5.5C8.5 5.22 8.28 5 8 5Z" fill="black"/>
</svg>
