<svg width="16" height="16" viewBox="0 0 16 16" fill="none" xmlns="http://www.w3.org/2000/svg">
<path d="M7.2998 10.71C7.6898 10.32 8.31996 10.32 8.70996 10.71L11.1504 13.1504C11.4598 13.4605 11.2396 14 10.7998 14H5.20996C4.75999 14 4.54036 13.4604 4.86035 13.1504L7.2998 10.71Z" fill="black"/>
<path d="M8 1.49023C9.73983 1.49023 11.3697 2.16987 12.5996 3.38965C13.8296 4.60965 14.5 6.25023 14.5 7.99023C14.4999 9.73014 13.8196 11.3599 12.5996 12.5898C12.4996 12.6898 12.37 12.7402 12.25 12.7402H12.2402C12.1102 12.7402 11.9796 12.6898 11.8896 12.5898C11.6899 12.3899 11.6899 12.0798 11.8896 11.8799C12.9296 10.8399 13.4999 9.46014 13.5 7.99023C13.5 6.52023 12.9296 5.13961 11.8896 4.09961C10.8497 3.05985 9.46982 2.49023 8 2.49023C6.53018 2.49023 5.15031 3.05985 4.11035 4.09961C3.07035 5.13961 2.5 6.52023 2.5 7.99023C2.50006 9.46014 3.07041 10.8399 4.11035 11.8799C4.31014 12.0798 4.31005 12.3899 4.11035 12.5898C3.91039 12.7898 3.60039 12.7897 3.40039 12.5898C2.17045 11.3599 1.50006 9.73014 1.5 7.99023C1.5 6.25023 2.18039 4.61965 3.40039 3.38965C4.62035 2.15988 6.26017 1.49023 8 1.49023Z" fill="black"/>
<path d="M8 3.5C9.2 3.5 10.3297 3.97031 11.1797 4.82031C12.9297 6.57031 12.9297 9.42969 11.1797 11.1797C11.0797 11.2797 10.9501 11.3301 10.8301 11.3301C10.7001 11.3301 10.5705 11.2796 10.4805 11.1797C10.2805 10.9797 10.2805 10.6697 10.4805 10.4697C11.8401 9.10969 11.8403 6.87941 10.4805 5.51953C9.16059 4.19965 6.85033 4.19989 5.53027 5.51953C4.17028 6.87953 4.17029 9.10973 5.53027 10.4697C5.73018 10.6696 5.72999 10.9797 5.53027 11.1797C5.33027 11.3797 5.02031 11.3797 4.82031 11.1797C3.07032 9.42969 3.07032 6.57031 4.82031 4.82031C5.67031 3.97031 6.8 3.5 8 3.5Z" fill="black"/>
<path d="M6.23047 6.21973C7.2005 5.24012 8.79064 5.24986 9.77051 6.21973C10.2404 6.68972 10.5 7.32028 10.5 7.99023C10.4999 8.65998 10.2402 9.28986 9.77051 9.75977C9.67051 9.85977 9.53992 9.91016 9.41992 9.91016H9.41016C9.28016 9.91016 9.14957 9.85977 9.05957 9.75977C8.85995 9.55979 8.85979 9.24969 9.05957 9.0498C9.33952 8.76985 9.49994 8.39016 9.5 7.99023C9.5 7.59023 9.33957 7.20969 9.05957 6.92969C8.47966 6.3502 7.52034 6.3502 6.94043 6.92969C6.66043 7.20969 6.5 7.59023 6.5 7.99023C6.50006 8.39016 6.66048 8.76985 6.94043 9.0498C7.1402 9.23971 7.14005 9.55978 6.94043 9.75977C6.74047 9.95973 6.43047 9.95965 6.23047 9.75977C5.76052 9.28982 5.50006 8.66015 5.5 7.99023C5.5 7.32023 5.76047 6.68973 6.23047 6.21973Z" fill="black"/>
<path d="M7.80957 7.54004C7.98957 7.46004 8.20961 7.51039 8.34961 7.65039C8.44961 7.74039 8.5 7.87 8.5 8C8.5 8.06 8.49996 8.13043 8.45996 8.19043C8.43992 8.2503 8.3995 8.3097 8.34961 8.34961C8.3097 8.3995 8.2503 8.43992 8.19043 8.45996C8.13043 8.48996 8.07 8.5 8 8.5C7.94 8.5 7.86957 8.48996 7.80957 8.45996C7.7497 8.43992 7.6903 8.3995 7.65039 8.34961C7.6005 8.3097 7.56008 8.2503 7.54004 8.19043C7.51004 8.13043 7.5 8.06 7.5 8C7.5 7.87 7.55039 7.74039 7.65039 7.65039C7.6903 7.6005 7.7497 7.56008 7.80957 7.54004Z" fill="black"/>
</svg>
