<svg width="16" height="16" viewBox="0 0 16 16" fill="none" xmlns="http://www.w3.org/2000/svg">
<path d="M8.00026 8C9.17015 8.0001 10.19 8.67046 10.6799 9.65039C10.8499 9.98032 10.9598 10.3503 10.9797 10.7402C10.9997 10.8302 11.0003 10.9101 11.0003 11C11.0003 12.6599 9.66014 13.9999 8.00026 14C6.34026 14 5.00026 12.66 5.00026 11C5.00026 10.5102 5.11974 10.0503 5.31959 9.65039C5.35956 9.58045 5.39 9.51016 5.42994 9.4502C5.62994 9.1202 5.89045 8.82961 6.20045 8.59961C6.70037 8.22981 7.32047 8 8.00026 8Z" fill="black"/>
<path d="M6.38014 3C6.75999 3.00006 7.10976 3.20999 7.26979 3.5498L7.42994 3.87988H7.43971L5.39967 7.95996C5.16973 8.14993 4.97002 8.3704 4.80006 8.61035L2.35963 3.71973C2.19001 3.38984 2.44003 3.0001 2.80983 3H6.38014Z" fill="black"/>
<path d="M13.1799 3C13.5498 3 13.7899 3.38978 13.6301 3.71973H13.6399L11.2005 8.61035C10.4805 7.63041 9.31017 7.00007 8.00026 7C7.63026 7 7.26018 7.05039 6.92018 7.15039L8.00026 5L8.71998 3.5498C8.88995 3.21 9.23983 3.00015 9.60963 3H13.1799Z" fill="black"/>
</svg>
