<svg width="16" height="16" viewBox="0 0 16 16" fill="none" xmlns="http://www.w3.org/2000/svg">
<path d="M8.2002 3.59969C8.53018 3.35006 9 3.5902 9 4.00008V12.0001C8.99999 12.4099 8.53018 12.6501 8.2002 12.4005L5 10.0001H3C2.45 10.0001 2.00001 9.55007 2 9.00008V7.00008C2 6.45008 2.45 6.00008 3 6.00008H5L8.2002 3.59969Z" fill="black"/>
<path d="M12.6504 5.21981C12.8504 5.02013 13.1605 5.01991 13.3604 5.21981C14.8902 6.74975 14.8902 9.23008 13.3604 10.7501C13.2604 10.8501 13.1298 10.9005 13.0098 10.9005L13 10.9102C12.87 10.9102 12.7404 10.8598 12.6504 10.7598C12.4504 10.5598 12.4504 10.2499 12.6504 10.0499C13.7901 8.90988 13.7902 7.06967 12.6504 5.92977C12.4504 5.72977 12.4504 5.41981 12.6504 5.21981Z" fill="black"/>
<path d="M11.2402 6.63973C11.4402 6.44 11.7503 6.43984 11.9502 6.63973C12.7001 7.38964 12.6999 8.59967 11.9502 9.34969C11.8502 9.44969 11.7196 9.50008 11.5996 9.50008H11.5898C11.4599 9.50005 11.3302 9.44966 11.2402 9.34969C11.0403 9.14969 11.0402 8.83972 11.2402 8.63973C11.6 8.27971 11.6001 7.6996 11.2402 7.34969C11.0403 7.14969 11.0402 6.83972 11.2402 6.63973Z" fill="black"/>
</svg>
