<svg width="16" height="16" viewBox="0 0 16 16" fill="none" xmlns="http://www.w3.org/2000/svg">
<path fill-rule="evenodd" clip-rule="evenodd" d="M8.18359 1.50391C8.22109 1.50035 8.25875 1.50197 8.2959 1.50684C11.7395 1.66242 14.5 4.51916 14.5 8C14.5 9.5175 13.9739 10.9152 13.0967 12.0234C13.0725 12.0655 13.0426 12.1019 13.0088 12.1338C11.8763 13.503 10.1958 14.4022 8.30859 14.4912C8.2826 14.4955 8.25673 14.5 8.23047 14.5C8.21348 14.5 8.19603 14.497 8.17871 14.4951C8.11931 14.4967 8.05978 14.5 8 14.5C7.93989 14.5 7.88004 14.4968 7.82031 14.4951C7.80332 14.497 7.7862 14.5 7.76953 14.5C7.7426 14.5 7.71564 14.4957 7.68848 14.4912C5.79588 14.4011 4.11053 13.4967 2.97852 12.1201C2.95147 12.0926 2.92725 12.0619 2.90625 12.0273C2.02724 10.9185 1.5 9.51925 1.5 8C1.5 4.51784 4.26258 1.66044 7.70801 1.50684C7.74396 1.50208 7.78025 1.50063 7.81641 1.50391C7.87741 1.5022 7.93859 1.5 8 1.5C8.06141 1.5 8.12259 1.5022 8.18359 1.50391ZM9.26074 11.0977C8.42555 10.9779 7.57513 10.9782 6.73926 11.0986C7.03776 11.9852 7.46484 12.7975 7.99902 13.4893C8.53414 12.8001 8.96214 11.9871 9.26074 11.0977ZM5.76172 11.2959C5.20256 11.4425 4.65575 11.6449 4.13086 11.9033C4.82771 12.5941 5.70814 13.0984 6.69043 13.3398C6.30848 12.7146 5.99658 12.026 5.76172 11.2959ZM10.2373 11.2949C10.0024 12.0254 9.69077 12.7143 9.30859 13.3398C10.291 13.0986 11.1712 12.5941 11.8682 11.9033C11.3436 11.6445 10.797 11.4414 10.2373 11.2949ZM10.7383 8.5C10.7099 9.12231 10.627 9.73517 10.4971 10.3291C11.1975 10.5136 11.8743 10.7781 12.5234 11.1201C13.0485 10.3617 13.3888 9.46683 13.4766 8.5H10.7383ZM2.52344 8.5C2.61116 9.46635 2.95094 10.361 3.47559 11.1191C4.12709 10.7742 4.80318 10.5098 5.50195 10.3262C5.37237 9.73317 5.29001 9.12126 5.26172 8.5H2.52344ZM6.25391 8.5C6.28169 9.05426 6.35539 9.59898 6.47168 10.126C6.97105 10.0491 7.4807 10.0098 8 10.0098C8.51832 10.0098 9.0279 10.0494 9.52734 10.127C9.64352 9.59935 9.71834 9.05431 9.74609 8.5H6.25391ZM6.46973 5.88184C6.35469 6.40664 6.28151 6.94884 6.25391 7.5H9.74609C9.71846 6.94876 9.6445 6.40714 9.5293 5.88281C9.02954 5.9598 8.51971 6 8 6C7.48065 6 6.97012 5.95969 6.46973 5.88184ZM12.5283 4.88672C11.8758 5.23263 11.199 5.49755 10.499 5.68164C10.6276 6.27225 10.7101 6.88141 10.7383 7.5H13.4766C13.3891 6.53611 13.0507 5.64365 12.5283 4.88672ZM3.4707 4.88574C2.94826 5.64272 2.61094 6.53602 2.52344 7.5H5.26172C5.28992 6.88083 5.37118 6.27082 5.5 5.67969C4.79839 5.49459 4.12081 5.22888 3.4707 4.88574ZM7.99902 2.50977C7.46239 3.20092 7.03404 4.01763 6.73535 4.91016C7.57257 5.03061 8.42478 5.03109 9.2627 4.91016C8.96383 4.01961 8.53548 3.2041 7.99902 2.50977ZM6.69043 2.65918C5.70459 2.90143 4.82111 3.40892 4.12305 4.10352C4.64894 4.36371 5.19753 4.56666 5.75879 4.71387C5.99409 3.97988 6.30659 3.28736 6.69043 2.65918ZM9.30859 2.65918C9.69235 3.28714 10.0049 3.97917 10.2402 4.71289C10.8009 4.56574 11.3488 4.36209 11.875 4.10254C11.177 3.40847 10.2941 2.90117 9.30859 2.65918Z" fill="black"/>
</svg>
