<svg width="16" height="16" viewBox="0 0 16 16" fill="none" xmlns="http://www.w3.org/2000/svg">
<path fill-rule="evenodd" clip-rule="evenodd" d="M7.5 2.5C10.26 2.5 12.5 4.74 12.5 7.5C12.5 8.60984 12.137 9.635 11.5244 10.4648L13.5303 12.4697C13.8203 12.7597 13.8203 13.2403 13.5303 13.5303C13.3903 13.6703 13.2 13.75 13 13.75C12.8 13.75 12.6097 13.6703 12.4697 13.5303L10.4648 11.5244C9.635 12.137 8.60984 12.5 7.5 12.5C4.74 12.5 2.5 10.26 2.5 7.5C2.5 4.74 4.74 2.5 7.5 2.5ZM7.5 4C5.57 4 4 5.57 4 7.5C4 9.43 5.57 11 7.5 11C9.43 11 11 9.43 11 7.5C11 5.57 9.43 4 7.5 4Z" fill="black"/>
</svg>
