<svg width="16" height="16" viewBox="0 0 16 16" fill="none" xmlns="http://www.w3.org/2000/svg">
<path fill-rule="evenodd" clip-rule="evenodd" d="M9.5 1.5C9.78 1.5 10 1.72 10 2C10 2.28 9.78 2.5 9.5 2.5H8.5V3.52344C9.64053 3.62697 10.6818 4.08087 11.5156 4.77637L12.249 4.04883L11.54 3.33984C11.3401 3.13984 11.34 2.82987 11.54 2.62988C11.74 2.42999 12.05 2.42995 12.25 2.62988L13.2627 3.64258C13.2822 3.65728 13.3024 3.67253 13.3203 3.69043C13.3377 3.7078 13.3519 3.72721 13.3662 3.74609L14.3701 4.75C14.57 4.94997 14.57 5.25999 14.3701 5.45996C14.2701 5.55996 14.1395 5.61035 14.0195 5.61035H14.0098C13.8799 5.6103 13.7501 5.55984 13.6602 5.45996L12.959 4.75879L12.2256 5.48633C13.0205 6.44035 13.5 7.66566 13.5 9C13.5 12.03 11.03 14.5 8 14.5C4.97 14.5 2.5 12.03 2.5 9C2.5 6.13853 4.70295 3.77735 7.5 3.52344V2.5H6.5C6.22 2.5 6 2.28 6 2C6 1.72 6.22 1.5 6.5 1.5H9.5ZM8 5C7.72 5 7.5 5.22 7.5 5.5V9C7.5 9.12999 7.5604 9.25961 7.65039 9.34961L9.65039 11.3496C9.74039 11.4496 9.88 11.5 10 11.5C10.12 11.5 10.2496 11.4496 10.3496 11.3496C10.5496 11.1496 10.5496 10.8396 10.3496 10.6396L8.5 8.79004V5.5C8.5 5.22 8.28 5 8 5Z" fill="currentColor"/>
</svg>
