<svg width="16" height="16" viewBox="0 0 16 16" fill="none" xmlns="http://www.w3.org/2000/svg">
<path fill-rule="evenodd" clip-rule="evenodd" d="M7.9996 1.5C9.0996 1.5 9.9996 2.4 9.9996 3.5C9.9996 4.42742 9.35958 5.21002 8.4996 5.43359V7.5H8.9996C9.2796 7.5 9.4996 7.72 9.4996 8C9.4996 8.28 9.2796 8.5 8.9996 8.5H8.4996V12.4707C10.2649 12.2745 11.7244 11.0526 12.2691 9.41602C12.0732 9.54654 11.8149 9.52432 11.6402 9.34961C11.4403 9.14961 11.4403 8.83962 11.6402 8.63965L12.6402 7.63965C12.8402 7.43996 13.1503 7.43982 13.3502 7.63965L14.3502 8.63965C14.5501 8.83956 14.5499 9.1496 14.3502 9.34961C14.2502 9.44961 14.1196 9.5 13.9996 9.5C13.8697 9.4999 13.7399 9.44951 13.65 9.34961L13.3902 9.09082C12.9142 11.4419 10.9318 13.2549 8.4996 13.4756V14C8.4996 14.28 8.2796 14.5 7.9996 14.5C7.7198 14.4998 7.4996 14.2799 7.4996 14V13.4756C5.06735 13.2546 3.08458 11.4412 2.60898 9.08984L2.35019 9.34961C2.15019 9.54961 1.84023 9.54961 1.64023 9.34961C1.4403 9.14961 1.44025 8.83962 1.64023 8.63965L2.64023 7.63965C2.84021 7.43996 3.15028 7.43982 3.35019 7.63965L4.35019 8.63965C4.5501 8.83956 4.54991 9.1496 4.35019 9.34961C4.25019 9.44961 4.1196 9.5 3.9996 9.5C3.90487 9.49993 3.81026 9.4731 3.73105 9.41992C4.27666 11.0545 5.736 12.2743 7.4996 12.4707V8.5H6.9996C6.7198 8.49979 6.4996 8.27986 6.4996 8C6.4996 7.72014 6.7198 7.50021 6.9996 7.5H7.4996V5.43359C6.64001 5.20975 5.9996 4.42714 5.9996 3.5C5.9996 2.40014 6.89979 1.50022 7.9996 1.5ZM7.9996 2.5C7.44979 2.50022 6.9996 2.95014 6.9996 3.5C6.9996 4.04986 7.44979 4.49978 7.9996 4.5C8.5496 4.5 8.9996 4.05 8.9996 3.5C8.9996 2.95 8.5496 2.5 7.9996 2.5Z" fill="black"/>
</svg>
