<svg width="16" height="16" viewBox="0 0 16 16" fill="none" xmlns="http://www.w3.org/2000/svg">
<path fill-rule="evenodd" clip-rule="evenodd" d="M7.5 2.28985C7.80995 2.10991 8.19004 2.10994 8.5 2.28985L12.7002 4.70977C13.0101 4.88975 13.2001 5.21996 13.2002 5.57989V10.4305C13.2001 10.7902 13.0099 11.1196 12.7002 11.2996L8.5 13.7205C8.19009 13.9004 7.80989 13.9004 7.5 13.7205L3.2998 11.2996C2.99015 11.1196 2.79995 10.7902 2.7998 10.4305V5.57989C2.79987 5.21998 2.98989 4.88975 3.2998 4.70977L7.5 2.28985ZM8 5.99981C6.90011 5.99984 6.00014 6.89995 6 7.99981C6 9.0998 6.90002 9.99979 8 9.99981C9.1 9.99981 10 9.09981 10 7.99981C9.99986 6.89993 9.09992 5.99981 8 5.99981Z" fill="black"/>
</svg>
