<svg width="16" height="16" viewBox="0 0 16 16" fill="none" xmlns="http://www.w3.org/2000/svg">
<path fill-rule="evenodd" clip-rule="evenodd" d="M7.13969 2.50042C7.51969 1.83042 8.49016 1.83042 8.87016 2.50042L14.0596 11.4897H14.0801C14.4601 12.1597 13.98 12.9897 13.21 12.9897H2.82035C2.05035 12.9897 1.57024 12.1597 1.95024 11.4897L7.13969 2.50042ZM8.00004 10.5004C7.72005 10.5004 7.50004 10.7204 7.50004 11.0004C7.50024 11.2802 7.72017 11.5004 8.00004 11.5004C8.27992 11.5004 8.49985 11.2802 8.50004 11.0004C8.50004 10.7204 8.28004 10.5004 8.00004 10.5004ZM8.00004 5.50042C7.72005 5.50043 7.50004 5.72043 7.50004 6.00042V9.00042C7.50024 9.28024 7.72017 9.50042 8.00004 9.50042C8.27992 9.50042 8.49985 9.28025 8.50004 9.00042V6.00042C8.50004 5.72042 8.28004 5.50042 8.00004 5.50042Z" fill="black"/>
</svg>
