<svg width="16" height="16" viewBox="0 0 16 16" fill="none" xmlns="http://www.w3.org/2000/svg">
<path d="M3.78988 14.2698H3.78011L3.78499 14.2688L3.78988 14.2698Z" fill="currentColor"/>
<path d="M12.2098 14.2698H12.2L12.2039 14.2688L12.2098 14.2698Z" fill="currentColor"/>
<path d="M7.99984 6.50023C8.82984 6.50023 9.49984 7.17023 9.49984 8.00023C9.49969 8.8301 8.82975 9.50023 7.99984 9.50023C7.17001 9.50014 6.49998 8.83005 6.49984 8.00023C6.49984 7.17028 7.16992 6.50032 7.99984 6.50023Z" fill="currentColor"/>
<path fill-rule="evenodd" clip-rule="evenodd" d="M2.27035 2.27952C2.99041 1.55986 4.28072 1.54034 5.89046 2.25023C6.56986 2.54606 7.2811 2.95318 7.99593 3.4514C8.71051 2.95346 9.42128 2.54591 10.1004 2.25023C11.72 1.55048 12.9995 1.56002 13.7196 2.27952C14.4395 2.99949 14.4497 4.28974 13.7498 5.89964C13.4538 6.57964 13.0445 7.2906 12.5457 8.00609C13.0404 8.7172 13.4458 9.42396 13.7401 10.0998C14.4401 11.7198 14.4298 13 13.7098 13.72C13.3406 14.0891 12.8321 14.268 12.2039 14.2688C11.5953 14.2677 10.887 14.0991 10.0897 13.7502C9.41347 13.4558 8.70641 13.0499 7.99496 12.5549C7.28349 13.0499 6.57645 13.4558 5.90023 13.7502C5.11237 14.0893 4.39394 14.2678 3.78499 14.2688C3.15733 14.2678 2.64912 14.0889 2.28011 13.72C1.56011 13 1.54984 11.7098 2.24984 10.0998C2.54404 9.42411 2.94867 8.71703 3.4432 8.00609C2.94454 7.29075 2.53606 6.57949 2.24007 5.89964C1.54015 4.27973 1.55037 2.9995 2.27035 2.27952ZM4.07113 8.84984C3.69883 9.41211 3.391 9.96774 3.15999 10.5002C2.65008 11.6801 2.58033 12.6198 2.98031 13.0198C3.3803 13.4197 4.31996 13.35 5.49984 12.8401C6.03261 12.6089 6.58765 12.2996 7.15023 11.927C6.59788 11.4884 6.05012 10.9997 5.52035 10.47C4.99377 9.94338 4.50767 9.39879 4.07113 8.84984ZM11.9227 8.843C11.4849 9.39402 10.9981 9.94144 10.4696 10.47C9.94096 10.9985 9.39372 11.4852 8.84261 11.9231C9.40747 12.2976 9.96496 12.608 10.4998 12.8401C11.6798 13.3501 12.6203 13.4198 13.0203 13.0198C13.4201 12.6197 13.3495 11.6799 12.8397 10.5002C12.6076 9.96536 12.2972 9.40785 11.9227 8.843ZM7.99984 4.6848C7.4028 5.14298 6.8054 5.66442 6.23031 6.23949C5.65875 6.81104 5.13964 7.40491 4.68343 7.99827C5.14204 8.59605 5.66429 9.19397 6.24007 9.76976C6.81196 10.3416 7.40613 10.8602 7.99984 11.3166C8.59358 10.8602 9.18769 10.3417 9.7596 9.76976C10.3356 9.19381 10.8575 8.59524 11.3162 7.9973C10.8602 7.40418 10.3417 6.81081 9.77035 6.23949C9.19508 5.66422 8.59707 5.14311 7.99984 4.6848ZM12.2098 2.72972C11.7498 2.72977 11.16 2.8802 10.4901 3.17015C9.95752 3.40119 9.40202 3.70892 8.83968 4.08128C9.38855 4.51776 9.9333 5.00305 10.4598 5.52953C10.9896 6.05938 11.4782 6.60795 11.9168 7.16038C12.2895 6.59774 12.5988 6.04283 12.8299 5.50999C13.3399 4.32999 13.4096 3.38949 13.0096 2.98949C12.8396 2.81979 12.5595 2.72972 12.2098 2.72972ZM3.78988 2.72972C3.4401 2.72975 3.16007 2.81965 2.99007 2.98949C2.59007 3.38948 2.65977 4.33 3.16976 5.50999C3.39989 6.04045 3.7066 6.59347 4.07699 7.15355C4.51439 6.60318 5.0022 6.05743 5.53011 5.52953C6.05782 5.00184 6.60398 4.51561 7.15414 4.07835C6.59372 3.70767 6.04038 3.40041 5.5096 3.17015C4.83972 2.88023 4.24981 2.72972 3.78988 2.72972Z" fill="currentColor"/>
</svg>
