<svg width="16" height="16" viewBox="0 0 16 16" fill="none" xmlns="http://www.w3.org/2000/svg">
<path d="M13 10.5C13.28 10.5 13.5 10.72 13.5 11C13.5 11.28 13.28 11.5 13 11.5H3C2.72 11.5 2.5 11.28 2.5 11C2.5 10.72 2.72 10.5 3 10.5H13Z" fill="black"/>
<path d="M13 7.5C13.28 7.5 13.5 7.72 13.5 8C13.5 8.28 13.28 8.5 13 8.5H3C2.72 8.5 2.5 8.28 2.5 8C2.5 7.72 2.72 7.5 3 7.5H13Z" fill="black"/>
<path d="M13 4.5C13.28 4.5 13.5 4.72 13.5 5C13.5 5.28 13.28 5.5 13 5.5H3C2.72 5.5 2.5 5.28 2.5 5C2.5 4.72 2.72 4.5 3 4.5H13Z" fill="black"/>
</svg>
