<svg width="16" height="16" viewBox="0 0 16 16" fill="none" xmlns="http://www.w3.org/2000/svg">
<path d="M9.41997 3.06056C10.01 2.47056 10.9501 2.47056 11.5401 3.06056C11.8199 3.3405 11.9598 3.69019 11.9698 4.04005C12.3198 4.05005 12.6802 4.19976 12.9502 4.46974C13.5402 5.05965 13.54 5.99984 12.9502 6.58986C12.3602 7.17986 11.4201 7.17986 10.8301 6.58986L6.58989 10.8301C7.17989 11.4201 7.17989 12.3602 6.58989 12.9502C5.99988 13.5401 5.05974 13.5402 4.46977 12.9502C4.18979 12.6702 4.05008 12.3197 4.04008 11.9697C3.69008 11.9597 3.32961 11.8101 3.05961 11.5401C2.46983 10.9501 2.46976 10.0099 3.05961 9.41994C3.64955 8.83 4.58972 8.83012 5.17973 9.41994L9.41997 5.1797C8.83023 4.58977 8.83026 3.65051 9.41997 3.06056Z" fill="currentColor"/>
<path d="M10.8204 9.41994C11.4103 8.83034 12.3496 8.83035 12.9395 9.41994C13.5295 10.0099 13.5295 10.9501 12.9395 11.5401C12.6695 11.8099 12.3099 11.9597 11.96 11.9697C11.95 12.3197 11.8102 12.6702 11.5303 12.9502C10.9404 13.5402 10.0002 13.54 9.4102 12.9502C8.8202 12.3602 8.8202 11.4201 9.4102 10.8301L8.70024 10.1201L10.1104 8.70997L10.8204 9.41994Z" fill="currentColor"/>
<path d="M4.46977 3.04982C5.05972 2.45992 5.99989 2.45999 6.58989 3.04982C7.17987 3.6398 7.17984 4.57993 6.58989 5.16994L7.29985 5.8799L5.88969 7.29005L5.17973 6.58009C4.58972 7.16999 3.64958 7.17006 3.05961 6.58009C2.46981 5.99012 2.46978 5.04993 3.05961 4.45998C3.32961 4.18997 3.69008 4.04029 4.04008 4.03029C4.05008 3.68029 4.18977 3.32982 4.46977 3.04982Z" fill="currentColor"/>
</svg>
