<svg width="16" height="16" viewBox="0 0 16 16" fill="none" xmlns="http://www.w3.org/2000/svg">
<path fill-rule="evenodd" clip-rule="evenodd" d="M3.34961 6.65041C3.34961 3.86048 5.81001 1.64996 8.66992 2.04983H8.67969C11.0097 2.37983 12.6704 4.33045 12.6504 6.69045C12.6403 7.48027 12.46 8.25003 12.0801 8.8799C11.3401 10.0999 9.29016 13.1104 8.41016 14.4004C8.21012 14.6901 7.78983 14.6902 7.58984 14.4004C6.70984 13.1104 4.65992 10.0999 3.91992 8.8799C3.53005 8.24004 3.34967 7.4602 3.34961 6.65041ZM10.8701 5.13967C10.6702 4.93991 10.3601 4.93993 10.1602 5.13967L7.50977 7.79006L6.36035 6.63967C6.16046 6.43983 5.85038 6.44001 5.65039 6.63967C5.45041 6.83965 5.45044 7.14963 5.65039 7.34963L7.15039 8.84963C7.24037 8.9496 7.38002 8.99999 7.5 9.00002C7.62 9.00002 7.75059 8.94963 7.85059 8.84963L10.8506 5.84963H10.8701C11.0699 5.64962 11.07 5.3396 10.8701 5.13967Z" fill="black"/>
</svg>
