<svg width="16" height="16" viewBox="0 0 16 16" fill="none" xmlns="http://www.w3.org/2000/svg">
<path fill-rule="evenodd" clip-rule="evenodd" d="M7.5 2.28973C7.80995 2.10979 8.19004 2.10982 8.5 2.28973L12.7002 4.70965C13.0101 4.88962 13.2001 5.21984 13.2002 5.57977V10.4304C13.2001 10.7901 13.0099 11.1195 12.7002 11.2995L8.5 13.7204C8.19009 13.9002 7.80989 13.9003 7.5 13.7204L3.2998 11.2995C2.99015 11.1195 2.79995 10.79 2.7998 10.4304V5.57977C2.79987 5.21986 2.98989 4.88963 3.2998 4.70965L7.5 2.28973ZM8 5.99969C6.90011 5.99972 6.00014 6.89982 6 7.99969C6 9.09968 6.90002 9.99967 8 9.99969C9.1 9.99969 10 9.09969 10 7.99969C9.99986 6.89981 9.09992 5.99969 8 5.99969Z" fill="currentColor"/>
</svg>
