<svg width="16" height="16" viewBox="0 0 16 16" fill="none" xmlns="http://www.w3.org/2000/svg">
<path d="M13.6498 2.14982C13.8398 1.94986 14.16 1.94993 14.35 2.14982C14.55 2.33982 14.55 2.66002 14.35 2.85002L10.6996 6.50041H11.0004C11.3202 6.50049 11.6101 6.60002 11.85 6.76994C12.24 7.02994 12.5004 7.49041 12.5004 8.00041V12.0004C12.5002 12.8301 11.8301 13.5002 11.0004 13.5004H5.00039C4.6404 13.5004 4.30019 13.3698 4.0502 13.1498L2.35 14.85C2.26009 14.9499 2.13026 15.0003 2.00039 15.0004C1.87039 15.0004 1.73981 14.95 1.64981 14.85C1.44992 14.66 1.44985 14.3398 1.64981 14.1498L13.6498 2.14982Z" fill="currentColor"/>
<path d="M8.00039 2.50041C9.05017 2.50057 9.94974 3.15016 10.3197 4.05998L9.48965 4.89006C9.43966 4.11018 8.83019 3.5006 8.00039 3.50041C7.17039 3.50041 6.50039 4.17041 6.50039 5.00041V6.50041H7.88027L3.50039 10.8803V8.00041C3.50039 7.17041 4.17039 6.50041 5.00039 6.50041H5.50039V5.00041C5.50039 3.62041 6.62039 2.50041 8.00039 2.50041Z" fill="currentColor"/>
</svg>
