<svg width="16" height="16" viewBox="0 0 16 16" fill="none" xmlns="http://www.w3.org/2000/svg">
<path d="M5.25038 9.75029C5.44038 9.42029 5.9205 9.42029 6.1205 9.75029L8.13026 13.2298C8.33023 13.5697 8.07017 14.0094 7.6703 13.9895C6.36034 13.9196 5.10021 13.4198 4.09022 12.5599C3.91029 12.4099 3.87977 12.1399 3.98964 11.93L5.25038 9.75029Z" fill="black"/>
<path d="M12.6 10.5003C12.9999 10.5003 13.2397 10.9396 13.0199 11.2796C12.2999 12.3696 11.2396 13.2204 9.98964 13.6604C9.76976 13.7401 9.5197 13.6298 9.39979 13.43L8.14979 11.2503C7.95979 10.9203 8.20046 10.5003 8.58046 10.5003H12.6Z" fill="black"/>
<path d="M5.11952 6.48955C5.49937 6.48955 5.73977 6.90961 5.55018 7.23955V7.25029L3.54042 10.7298C3.34043 11.0698 2.82959 11.0602 2.65956 10.7103C2.06956 9.54025 1.86976 8.19994 2.10976 6.88994C2.14975 6.66002 2.36985 6.48966 2.60976 6.48955H5.11952Z" fill="black"/>
<path d="M12.4603 5.26982C12.6604 4.93005 13.1703 4.94041 13.3402 5.29033C13.93 6.46017 14.1299 7.79988 13.89 9.10967C13.85 9.33967 13.63 9.51006 13.39 9.51006H10.8803C10.5004 9.51006 10.2599 9.09002 10.4496 8.76006V8.75029L12.4603 5.26982Z" fill="black"/>
<path d="M8.33046 2.01006C9.64014 2.08014 10.8997 2.58002 11.9096 3.43974C12.0895 3.58968 12.12 3.85967 12.0101 4.06963L10.7504 6.25029C10.5604 6.58003 10.0804 6.57985 9.88026 6.25029L7.86952 2.76982C7.6698 2.42986 7.93056 1.99006 8.33046 2.01006Z" fill="black"/>
<path d="M6.01015 2.34014C6.23003 2.2602 6.47993 2.36982 6.59999 2.56963L7.84999 4.75029C8.03972 5.08018 7.80007 5.5001 7.4203 5.50029H3.39979C2.99997 5.50012 2.76003 5.05994 2.97987 4.72002C3.69987 3.63002 4.76015 2.78014 6.01015 2.34014Z" fill="black"/>
</svg>
