<svg width="16" height="16" viewBox="0 0 16 16" fill="none" xmlns="http://www.w3.org/2000/svg">
<path fill-rule="evenodd" clip-rule="evenodd" d="M11.8799 2C13.0499 2 14 2.95012 14 4.12012L13.9805 4.11035C13.9804 4.67022 13.7603 5.21044 13.3604 5.61035L10.8301 8.13965L11.8301 9.13965C12.03 9.33957 12.0298 9.6496 11.8301 9.84961C11.7402 9.94947 11.6004 9.99986 11.4805 10C11.3605 10 11.2299 9.94961 11.1299 9.84961L10.1299 8.84961L5.57031 13.4102C5.20036 13.7901 4.69009 14 4.16016 14H2.49023C2.21023 14 1.99023 13.78 1.99023 13.5V11.8301C1.99023 11.3001 2.20008 10.7999 2.58008 10.4199L7.13965 5.86035L6.13965 4.86035C5.93978 4.66048 5.94003 4.3504 6.13965 4.15039C6.33965 3.95039 6.64961 3.95039 6.84961 4.15039L7.84961 5.15039L10.3799 2.62012C10.7799 2.22015 11.3199 2.00003 11.8799 2ZM3.29004 11.1201C3.10006 11.3101 3 11.5601 3 11.8301V13H4.16992C4.4399 13 4.68989 12.8999 4.87988 12.71L9.44043 8.15039L7.84961 6.55957L3.29004 11.1201Z" fill="black"/>
</svg>
