<svg width="16" height="16" viewBox="0 0 16 16" fill="none" xmlns="http://www.w3.org/2000/svg">
<path fill-rule="evenodd" clip-rule="evenodd" d="M8.00043 3C10.7502 3.00019 13.1998 4.77008 14.7397 7.50977C14.9097 7.80977 14.9097 8.18047 14.7397 8.48047C13.1998 11.2101 10.7501 12.99 8.00043 12.9902C5.25058 12.9902 2.80021 11.2202 1.2602 8.48047C1.0902 8.18047 1.0902 7.80977 1.2602 7.50977C2.80021 4.77991 5.25052 3 8.00043 3ZM8.00043 5C6.34043 5 5.00043 6.34 5.00043 8C5.00043 9.66 6.34043 11 8.00043 11C9.66023 10.9998 11.0004 9.65986 11.0004 8C11.0004 6.34014 9.66023 5.00023 8.00043 5Z" fill="black"/>
</svg>
