<svg width="16" height="16" viewBox="0 0 16 16" fill="none" xmlns="http://www.w3.org/2000/svg">
<path d="M3.99975 11.5C4.55203 11.5 4.99975 11.9477 4.99975 12.5C4.99975 13.0523 4.55203 13.5 3.99975 13.5C3.44757 13.4999 2.99975 13.0522 2.99975 12.5C2.99975 11.9478 3.44757 11.5001 3.99975 11.5Z" fill="currentColor"/>
<path d="M7.99975 11.5C8.55203 11.5 8.99975 11.9477 8.99975 12.5C8.99975 13.0523 8.55203 13.5 7.99975 13.5C7.44757 13.4999 6.99975 13.0522 6.99975 12.5C6.99975 11.9478 7.44757 11.5001 7.99975 11.5Z" fill="currentColor"/>
<path d="M11.9997 11.5C12.552 11.5 12.9997 11.9477 12.9997 12.5C12.9997 13.0523 12.552 13.5 11.9997 13.5C11.4476 13.4999 10.9997 13.0522 10.9997 12.5C10.9997 11.9478 11.4476 11.5001 11.9997 11.5Z" fill="currentColor"/>
<path d="M4.70971 3C4.99971 3 5.22971 3.25004 5.20971 3.54004L4.78002 9.54004C4.76 9.80001 4.54 9.99999 4.28002 10H3.70971C3.44984 9.99985 3.22971 9.79993 3.20971 9.54004L2.78002 3.54004C2.76002 3.25004 2.99002 3 3.28002 3H4.70971Z" fill="currentColor"/>
<path d="M8.70971 3C8.99971 3 9.22971 3.25004 9.20971 3.54004L8.78002 9.54004C8.76 9.80001 8.54 9.99999 8.28002 10H7.70971C7.44984 9.99985 7.22971 9.79993 7.20971 9.54004L6.78002 3.54004C6.76002 3.25004 6.99002 3 7.28002 3H8.70971Z" fill="currentColor"/>
<path d="M12.7097 3C12.9997 3 13.2297 3.25004 13.2097 3.54004L12.78 9.54004C12.76 9.80001 12.54 9.99999 12.28 10H11.7097C11.4498 9.99985 11.2297 9.79993 11.2097 9.54004L10.78 3.54004C10.76 3.25004 10.99 3 11.28 3H12.7097Z" fill="currentColor"/>
</svg>
