<svg width="16" height="16" viewBox="0 0 16 16" fill="none" xmlns="http://www.w3.org/2000/svg">
<path d="M7.99975 11.5C8.55203 11.5 8.99975 11.9477 8.99975 12.5C8.99975 13.0523 8.55203 13.5 7.99975 13.5C7.44757 13.4999 6.99975 13.0522 6.99975 12.5C6.99975 11.9478 7.44757 11.5001 7.99975 11.5Z" fill="black"/>
<path d="M8.70971 3C8.99971 3 9.22971 3.25004 9.20971 3.54004L8.78002 9.54004C8.76 9.80001 8.54 9.99999 8.28002 10H7.70971C7.44984 9.99985 7.22971 9.79993 7.20971 9.54004L6.78002 3.54004C6.76002 3.25004 6.99002 3 7.28002 3H8.70971Z" fill="black"/>
</svg>
