<svg width="16" height="16" viewBox="0 0 16 16" fill="none" xmlns="http://www.w3.org/2000/svg">
<path d="M6.35044 9.98946C7.3503 9.32984 8.66021 9.32971 9.66001 9.98946C9.91991 10.1594 9.96004 10.5397 9.73032 10.7697L8.3602 12.1398C8.16023 12.3398 7.85025 12.3398 7.65024 12.1398L6.28013 10.7697C6.06016 10.5497 6.09045 10.1694 6.35044 9.98946Z" fill="black"/>
<path d="M4.15024 7.89961C6.37021 6.02991 9.64031 6.02976 11.8602 7.89961C12.0802 8.07961 12.0797 8.43008 11.8797 8.63008H11.87L11.16 9.34004C10.97 9.53001 10.6803 9.51957 10.4803 9.35958C9.69032 8.72958 8.70985 8.44997 7.74985 8.50997C6.96007 8.55998 6.18023 8.83982 5.52036 9.35958C5.31036 9.51958 5.0197 9.53004 4.8397 9.34004L4.12973 8.63008C3.92982 8.43007 3.93028 8.08959 4.15024 7.89961Z" fill="black"/>
<path d="M2.02036 5.7795C5.43031 2.73992 10.5902 2.73976 13.9901 5.7795C14.2001 5.9695 14.1999 6.30997 13.9999 6.50997L13.2899 7.21993C13.0999 7.40985 12.8004 7.40956 12.6004 7.22969C10.9204 5.75969 8.72001 5.23008 6.66001 5.63008C5.49012 5.86006 4.36018 6.38983 3.40024 7.22969C3.20024 7.40969 2.89981 7.40993 2.70981 7.21993L1.99985 6.50997H2.00962C1.80978 6.30994 1.81042 5.96945 2.02036 5.7795Z" fill="black"/>
</svg>
