<svg width="16" height="16" viewBox="0 0 16 16" fill="none" xmlns="http://www.w3.org/2000/svg">
<path d="M7.70023 2.10959C7.88008 1.97992 8.11999 1.9799 8.29984 2.10959L10.2998 3.60959C10.4298 3.69958 10.5 3.85 10.5 4.00998V7.50022C10.5 7.66012 10.4297 7.80966 10.2998 7.89963L8.50003 9.24924V9.63693L11.1797 10.5305C11.3296 10.5805 11.45 10.7 11.5 10.8498L12.5 13.8498C12.59 14.1098 12.4497 14.3997 12.1797 14.4797C12.1297 14.4997 12.0695 14.51 12.0196 14.51L12 14.5002C11.7901 14.5002 11.6004 14.3702 11.5303 14.1604L10.6104 11.4006L8.50003 10.6936V13.0002C8.49995 13.2801 8.27996 13.5002 8.00003 13.5002C7.72008 13.5002 7.50011 13.2801 7.50003 13.0002V10.7004L5.41019 11.4006L4.49026 14.1604C4.40023 14.4202 4.12028 14.5596 3.86038 14.4797C3.60038 14.3897 3.46007 14.1098 3.54007 13.8498L4.54007 10.8498C4.59013 10.7 4.71048 10.5805 4.86038 10.5305L7.50003 9.65061V9.24924L5.70023 7.89963C5.5703 7.80966 5.50009 7.66013 5.50003 7.50022V4.00998C5.50005 3.85 5.57024 3.69958 5.70023 3.60959L7.70023 2.10959Z" fill="currentColor"/>
</svg>
