<svg width="16" height="16" viewBox="0 0 16 16" fill="none" xmlns="http://www.w3.org/2000/svg">
<path fill-rule="evenodd" clip-rule="evenodd" d="M2.91961 3.07975C3.97947 2.75979 5.08968 3.36984 5.40984 4.41959C5.52641 4.80573 5.51836 5.19849 5.4118 5.55729L7.29949 6.6901L10.7096 4.86002C11.1495 4.62008 11.6297 4.49973 12.1296 4.49967H14.4001C14.6499 4.4998 14.7497 4.82958 14.53 4.95963L9.48016 7.99967L14.53 11.0397C14.7499 11.1697 14.65 11.4995 14.4001 11.4997H12.1296C11.6297 11.4996 11.1495 11.3702 10.7096 11.1403L7.29949 9.31022L5.42156 10.4352C5.52908 10.796 5.53697 11.1909 5.41961 11.5797C5.15961 12.4497 4.35969 13.0104 3.49969 13.0104V12.9997C3.30987 12.9996 3.12017 12.9695 2.93035 12.9196C1.87051 12.5996 1.26985 11.4902 1.58953 10.4303C1.75055 9.89697 2.11206 9.47978 2.56609 9.23795C2.58023 9.22818 2.59472 9.21814 2.61004 9.20963L4.8698 7.99967L2.61004 6.78971L2.60906 6.78873C2.13003 6.55058 1.7452 6.12355 1.57977 5.56998C1.25985 4.51011 1.86982 3.39986 2.91961 3.07975ZM3.4948 9.99967C3.06685 10.0019 2.66928 10.2815 2.53973 10.7096C2.37976 11.2395 2.67985 11.7997 3.20965 11.9499C3.73965 12.1099 4.29988 11.8099 4.44988 11.2799C4.60988 10.7499 4.30996 10.1897 3.77996 10.0397C3.69143 10.0102 3.59316 9.99999 3.4948 9.99967ZM3.49969 3.99967C3.40977 3.99969 3.30953 4.00974 3.20965 4.03971C2.67991 4.19978 2.37998 4.75989 2.53973 5.28971C2.69971 5.81966 3.25977 6.11953 3.78973 5.95963C4.31964 5.79966 4.61948 5.2403 4.45965 4.72037C4.32965 4.29037 3.92969 4.01041 3.49969 4.01041V3.99967Z" fill="currentColor"/>
</svg>
