<svg width="16" height="16" viewBox="0 0 16 16" fill="none" xmlns="http://www.w3.org/2000/svg">
<path d="M8 1.5C8.28 1.5 8.5 1.72 8.5 2V8C8.5 8.28 8.28 8.5 8 8.5C7.72 8.5 7.5 8.28 7.5 8V6.58789C7.29102 6.66217 7.09952 6.78134 6.94043 6.94043C6.66043 7.22043 6.5 7.6 6.5 8C6.5 8.4 6.66043 8.77957 6.94043 9.05957C7.51043 9.62957 8.48957 9.62957 9.05957 9.05957C9.33957 8.77957 9.5 8.4 9.5 8C9.5 7.72 9.72 7.5 10 7.5C10.28 7.5 10.5 7.72 10.5 8C10.5 8.66977 10.2402 9.29958 9.77051 9.76953C8.82051 10.7095 7.18047 10.7095 6.23047 9.76953C5.76047 9.29953 5.5 8.67 5.5 8C5.5 7.33 5.76047 6.70047 6.23047 6.23047C6.58047 5.88047 7.02001 5.6398 7.5 5.5498V4.53418C6.75374 4.63883 6.07143 4.97853 5.53027 5.51953C4.87027 6.17953 4.5 7.06 4.5 8C4.5 8.94 4.86027 9.81047 5.53027 10.4805C6.85033 11.8001 9.16059 11.8004 10.4805 10.4805C11.1405 9.82047 11.5098 8.93999 11.5098 8C11.5098 7.72008 11.7299 7.50013 12.0098 7.5C12.2898 7.5 12.5098 7.72 12.5098 8C12.5098 9.19983 12.0402 10.3297 11.1904 11.1797C10.3404 12.0297 9.20977 12.5 8.00977 12.5H8C6.8 12.5 5.67031 12.0297 4.82031 11.1797C3.97031 10.3297 3.5 9.2 3.5 8C3.5 6.8 3.97031 5.67031 4.82031 4.82031C5.55115 4.08948 6.48866 3.63913 7.5 3.52734V2.51953C6.22 2.62953 5.03035 3.19036 4.11035 4.11035C3.07035 5.15035 2.5 6.53 2.5 8C2.5 9.47 3.07035 10.8496 4.11035 11.8896C5.15035 12.9296 6.53 13.5 8 13.5C9.47 13.5 10.8496 12.9296 11.8896 11.8896C12.9296 10.8496 13.5 9.47 13.5 8C13.5 7.72 13.72 7.5 14 7.5C14.28 7.5 14.5 7.72 14.5 8C14.5 9.73999 13.8196 11.3696 12.5996 12.5996C11.3796 13.8296 9.74 14.5 8 14.5C6.26 14.5 4.63039 13.8196 3.40039 12.5996C2.1704 11.3796 1.5 9.74 1.5 8C1.5 6.26001 2.1804 4.63039 3.40039 3.40039C4.62039 2.17039 6.26 1.5 8 1.5Z" fill="black"/>
</svg>
