<svg width="16" height="16" viewBox="0 0 16 16" fill="none" xmlns="http://www.w3.org/2000/svg">
<path d="M8.2002 3.60007C8.53019 3.3502 9 3.59051 9 4.00046V12.0005C8.99968 12.4102 8.53008 12.6498 8.2002 12.3999L5 10.0005H3C2.45014 10.0005 2.00022 9.55028 2 9.00046V7.00046C2 6.45046 2.45 6.00046 3 6.00046H5L8.2002 3.60007Z" fill="currentColor"/>
<path d="M12.9902 3.63035C13.1902 3.43035 13.5002 3.43035 13.7002 3.63035C14.86 4.79031 15.5 6.3401 15.5 7.97996C15.5 9.61981 14.86 11.1696 13.7002 12.3296C13.6002 12.4296 13.4696 12.48 13.3496 12.48L13.3398 12.4995C13.21 12.4995 13.0802 12.4499 12.9902 12.3501C12.7902 12.1501 12.7902 11.8401 12.9902 11.6401C13.9602 10.6701 14.5 9.36969 14.5 7.98972C14.4999 6.60996 13.96 5.32021 12.9902 4.34031C12.7903 4.14033 12.7903 3.83035 12.9902 3.63035Z" fill="currentColor"/>
<path d="M11.6504 5.22019C11.8504 5.02032 12.1604 5.02023 12.3604 5.22019C13.8901 6.75021 13.8903 9.23055 12.3604 10.7505C12.2604 10.8504 12.1298 10.8999 12.0098 10.8999L12 10.9096C11.8701 10.9096 11.7404 10.86 11.6504 10.7602C11.4504 10.5602 11.4504 10.2503 11.6504 10.0503C12.7902 8.91034 12.7901 7.07014 11.6504 5.93015C11.4504 5.73015 11.4504 5.42019 11.6504 5.22019Z" fill="currentColor"/>
<path d="M10.2402 6.63035C10.4402 6.43035 10.7502 6.43035 10.9502 6.63035C11.31 6.99031 11.5098 7.4701 11.5098 7.97996C11.5098 8.48981 11.31 8.9696 10.9502 9.32957C10.8502 9.42957 10.7196 9.47996 10.5996 9.47996L10.5898 9.49949C10.46 9.49945 10.3302 9.44991 10.2402 9.35007C10.0402 9.15007 10.0402 8.84011 10.2402 8.64011C10.4102 8.47012 10.5098 8.23969 10.5098 7.98972C10.5097 7.73996 10.42 7.52019 10.2402 7.34031C10.0403 7.15033 10.0403 6.83035 10.2402 6.63035Z" fill="currentColor"/>
</svg>
