<svg width="16" height="16" viewBox="0 0 16 16" fill="none" xmlns="http://www.w3.org/2000/svg">
<path fill-rule="evenodd" clip-rule="evenodd" d="M12.5 2C13.33 2 14 2.67 14 3.5C14 3.93 13.82 4.31008 13.54 4.58008C13.3001 4.81007 13.3001 5.18993 13.54 5.41992C13.82 5.69992 14 6.07 14 6.5C14 6.93 13.82 7.31008 13.54 7.58008C13.3001 7.81007 13.3001 8.18993 13.54 8.41992C13.82 8.69992 14 9.07 14 9.5C14 9.93 13.82 10.3101 13.54 10.5801C13.3001 10.8101 13.3001 11.1899 13.54 11.4199C13.82 11.6999 14 12.08 14 12.5C14 13.33 13.33 14 12.5 14C12.07 14 11.6899 13.82 11.4199 13.54C11.1899 13.3001 10.8101 13.3001 10.5801 13.54C10.3001 13.82 9.93 14 9.5 14C9.07 14 8.68992 13.82 8.41992 13.54C8.18993 13.3001 7.81007 13.3001 7.58008 13.54C7.30008 13.82 6.93 14 6.5 14C6.07 14 5.68992 13.82 5.41992 13.54C5.18993 13.3001 4.81007 13.3001 4.58008 13.54C4.30008 13.82 3.92 14 3.5 14C2.67 14 2 13.33 2 12.5C2 12.07 2.17996 11.6899 2.45996 11.4199C2.69993 11.1899 2.69993 10.8101 2.45996 10.5801C2.17996 10.3001 2 9.93 2 9.5C2 9.07 2.17996 8.68992 2.45996 8.41992C2.69993 8.18993 2.69993 7.81007 2.45996 7.58008C2.17996 7.30008 2 6.93 2 6.5C2 6.07 2.17996 5.68992 2.45996 5.41992C2.69993 5.18993 2.69993 4.81007 2.45996 4.58008C2.17996 4.30008 2 3.92 2 3.5C2 2.67 2.67 2 3.5 2C3.93 2 4.31008 2.17996 4.58008 2.45996C4.81007 2.69993 5.18993 2.69993 5.41992 2.45996C5.69992 2.17996 6.07 2 6.5 2C6.93 2 7.31008 2.17996 7.58008 2.45996C7.81007 2.69993 8.18993 2.69993 8.41992 2.45996C8.69992 2.17996 9.07 2 9.5 2C9.93 2 10.3101 2.17996 10.5801 2.45996C10.8101 2.69993 11.1899 2.69993 11.4199 2.45996C11.6999 2.17996 12.08 2 12.5 2ZM5 10.5C4.72 10.5 4.5 10.72 4.5 11C4.5 11.28 4.72 11.5 5 11.5C5.28 11.5 5.5 11.28 5.5 11C5.5 10.72 5.28 10.5 5 10.5ZM7 10.5C6.72 10.5 6.5 10.72 6.5 11C6.5 11.28 6.72 11.5 7 11.5C7.28 11.5 7.5 11.28 7.5 11C7.5 10.72 7.28 10.5 7 10.5ZM9 10.5C8.72 10.5 8.5 10.72 8.5 11C8.5 11.28 8.72 11.5 9 11.5C9.28 11.5 9.5 11.28 9.5 11C9.5 10.72 9.28 10.5 9 10.5ZM11 10.5C10.72 10.5 10.5 10.72 10.5 11C10.5 11.28 10.72 11.5 11 11.5C11.28 11.5 11.5 11.28 11.5 11C11.5 10.72 11.28 10.5 11 10.5ZM5 8.5C4.72 8.5 4.5 8.72 4.5 9C4.5 9.28 4.72 9.5 5 9.5C5.28 9.5 5.5 9.28 5.5 9C5.5 8.72 5.28 8.5 5 8.5ZM7 8.5C6.72 8.5 6.5 8.72 6.5 9C6.5 9.28 6.72 9.5 7 9.5C7.28 9.5 7.5 9.28 7.5 9C7.5 8.72 7.28 8.5 7 8.5ZM9 8.5C8.72 8.5 8.5 8.72 8.5 9C8.5 9.28 8.72 9.5 9 9.5C9.28 9.5 9.5 9.28 9.5 9C9.5 8.72 9.28 8.5 9 8.5ZM11 8.5C10.72 8.5 10.5 8.72 10.5 9C10.5 9.28 10.72 9.5 11 9.5C11.28 9.5 11.5 9.28 11.5 9C11.5 8.72 11.28 8.5 11 8.5ZM5 6.5C4.72 6.5 4.5 6.72 4.5 7C4.5 7.28 4.72 7.5 5 7.5C5.28 7.5 5.5 7.28 5.5 7C5.5 6.72 5.28 6.5 5 6.5ZM7 6.5C6.72 6.5 6.5 6.72 6.5 7C6.5 7.28 6.72 7.5 7 7.5C7.28 7.5 7.5 7.28 7.5 7C7.5 6.72 7.28 6.5 7 6.5ZM9 6.5C8.72 6.5 8.5 6.72 8.5 7C8.5 7.28 8.72 7.5 9 7.5C9.28 7.5 9.5 7.28 9.5 7C9.5 6.72 9.28 6.5 9 6.5ZM11 6.5C10.72 6.5 10.5 6.72 10.5 7C10.5 7.28 10.72 7.5 11 7.5C11.28 7.5 11.5 7.28 11.5 7C11.5 6.72 11.28 6.5 11 6.5ZM5 4.5C4.72 4.5 4.5 4.72 4.5 5C4.5 5.28 4.72 5.5 5 5.5C5.28 5.5 5.5 5.28 5.5 5C5.5 4.72 5.28 4.5 5 4.5ZM7 4.5C6.72 4.5 6.5 4.72 6.5 5C6.5 5.28 6.72 5.5 7 5.5C7.28 5.5 7.5 5.28 7.5 5C7.5 4.72 7.28 4.5 7 4.5ZM9 4.5C8.72 4.5 8.5 4.72 8.5 5C8.5 5.28 8.72 5.5 9 5.5C9.28 5.5 9.5 5.28 9.5 5C9.5 4.72 9.28 4.5 9 4.5ZM11 4.5C10.72 4.5 10.5 4.72 10.5 5C10.5 5.28 10.72 5.5 11 5.5C11.28 5.5 11.5 5.28 11.5 5C11.5 4.72 11.28 4.5 11 4.5Z" fill="black"/>
</svg>
