<svg width="16" height="16" viewBox="0 0 16 16" fill="none" xmlns="http://www.w3.org/2000/svg">
<path fill-rule="evenodd" clip-rule="evenodd" d="M3.34961 6.6503C3.34961 3.86033 5.80996 1.64978 8.66992 2.04972H8.67969C11.0097 2.37972 12.6704 4.33034 12.6504 6.69034C12.6403 7.48015 12.46 8.24993 12.0801 8.8798C11.3401 10.0998 9.29016 13.1103 8.41016 14.4003C8.21015 14.6901 7.78985 14.6901 7.58984 14.4003C6.70984 13.1103 4.65992 10.0998 3.91992 8.8798C3.53004 8.23992 3.34966 7.46012 3.34961 6.6503ZM8 4.49991C6.90001 4.49991 6.00001 5.39992 6 6.49991C6 7.59991 6.9 8.49991 8 8.49991C9.1 8.49991 10 7.59991 10 6.49991C9.99999 5.39992 9.09999 4.49991 8 4.49991Z" fill="black"/>
</svg>
