<svg width="16" height="16" viewBox="0 0 16 16" fill="none" xmlns="http://www.w3.org/2000/svg">
<path d="M12.0002 11C12.0001 11.55 10.2101 12.9999 8.0002 13C5.79025 13 4.00028 11.55 4.0002 11V9.12014L6.99043 10.6201C7.31031 10.78 7.65034 10.8604 8.0002 10.8604C8.35009 10.8603 8.70004 10.7801 9.00996 10.6201L12.0002 9.12014V11Z" fill="black"/>
<path d="M7.43965 3.26955C7.78953 3.08961 8.20984 3.08974 8.55977 3.26955L13.55 5.76955C13.7698 5.87946 13.8796 6.06973 13.9396 6.26955C13.9696 6.33955 14.0002 6.42002 14.0002 6.50002V10C14.0002 10.2799 13.7801 10.4999 13.5002 10.5C13.2202 10.5 13.0002 10.28 13.0002 10V7.50002L8.55977 9.71975C8.20978 9.8997 7.78962 9.89973 7.43965 9.71975L2.45039 7.21975C1.85039 6.91975 1.85039 6.06955 2.45039 5.76955L7.43965 3.26955Z" fill="black"/>
</svg>
