<svg width="16" height="16" viewBox="0 0 16 16" fill="none" xmlns="http://www.w3.org/2000/svg">
<path fill-rule="evenodd" clip-rule="evenodd" d="M7.13969 2.50042C7.51969 1.83042 8.49016 1.83042 8.87016 2.50042L14.0596 11.4897H14.0801C14.4601 12.1597 13.98 12.9897 13.21 12.9897H2.82035C2.05035 12.9897 1.57024 12.1597 1.95024 11.4897L7.13969 2.50042ZM8.15043 5.51996C7.89043 5.43996 7.61055 5.58027 7.52055 5.84027L6.52055 8.84027C6.46058 9.04025 6.51998 9.25032 6.66996 9.38031C6.81995 9.51024 7.03981 9.5396 7.21977 9.44964L8.13969 8.98968L7.52055 10.8403C7.44061 11.1002 7.58 11.3801 7.83989 11.4702C7.88988 11.5001 7.95004 11.5004 8.00004 11.5004C8.20004 11.5004 8.39977 11.3696 8.46977 11.1596L9.46977 8.1596V8.14984C9.5297 7.94989 9.47029 7.73978 9.32035 7.6098C9.17041 7.47985 8.95051 7.4506 8.77055 7.54046L7.84965 8.00042L8.46977 6.14984C8.54966 5.88997 8.41021 5.61005 8.15043 5.51996Z" fill="currentColor"/>
</svg>
