<svg width="16" height="16" viewBox="0 0 16 16" fill="none" xmlns="http://www.w3.org/2000/svg">
<path fill-rule="evenodd" clip-rule="evenodd" d="M7.28943 1.69971C7.67933 1.3098 8.30956 1.30999 8.69958 1.69971L14.2894 7.28955C14.6794 7.67955 14.6794 8.30971 14.2894 8.69971L8.69958 14.2896C8.30958 14.6796 7.67943 14.6796 7.28943 14.2896L1.69959 8.69971C1.30987 8.30969 1.30968 7.67946 1.69959 7.28955L7.28943 1.69971ZM7.99939 9.99951C7.71978 9.99976 7.49964 10.2199 7.49939 10.4995C7.49939 10.7794 7.71962 10.9993 7.99939 10.9995C8.27939 10.9995 8.49939 10.7795 8.49939 10.4995C8.49914 10.2197 8.27923 9.99951 7.99939 9.99951ZM7.99939 4.99951C7.71978 4.99976 7.49964 5.2199 7.49939 5.49951V8.49951C7.49939 8.77935 7.71962 8.99926 7.99939 8.99951C8.27939 8.99951 8.49939 8.77951 8.49939 8.49951V5.49951C8.49914 5.21974 8.27923 4.99951 7.99939 4.99951Z" fill="black"/>
</svg>
