<svg width="16" height="16" viewBox="0 0 16 16" fill="none" xmlns="http://www.w3.org/2000/svg">
<path fill-rule="evenodd" clip-rule="evenodd" d="M7.13963 2.50042C7.51963 1.83042 8.4901 1.83042 8.8701 2.50042L14.0596 11.4897H14.0801C14.4601 12.1597 13.9799 12.9897 13.2099 12.9897H2.8203C2.0503 12.9897 1.57018 12.1597 1.95018 11.4897L7.13963 2.50042ZM8.15038 5.51996C7.89038 5.43996 7.61049 5.58027 7.52049 5.84027L6.52049 8.84027C6.46053 9.04025 6.51992 9.25032 6.66991 9.38031C6.81989 9.51024 7.03975 9.5396 7.21971 9.44964L8.13963 8.98968L7.52049 10.8403C7.44055 11.1002 7.57994 11.3801 7.83983 11.4702C7.88982 11.5001 7.94999 11.5004 7.99998 11.5004C8.19998 11.5004 8.39971 11.3696 8.46971 11.1596L9.46971 8.1596V8.14984C9.52964 7.94989 9.47024 7.73978 9.3203 7.6098C9.17036 7.47985 8.95045 7.4506 8.77049 7.54046L7.84959 8.00042L8.46971 6.14984C8.5496 5.88997 8.41015 5.61005 8.15038 5.51996Z" fill="black"/>
</svg>
