<svg width="16" height="16" viewBox="0 0 16 16" fill="none" xmlns="http://www.w3.org/2000/svg">
<path d="M6.94043 4.9399C7.52036 4.36029 8.47964 4.36029 9.05957 4.9399C9.63957 5.5199 9.63957 6.48002 9.05957 7.06002C8.89793 7.22159 8.7047 7.33771 8.5 7.4106V14.0004C8.4998 14.2803 8.27987 14.5004 8 14.5004C7.72013 14.5004 7.5002 14.2803 7.5 14.0004V7.4106C7.2953 7.33771 7.10207 7.22159 6.94043 7.06002C6.36043 6.48002 6.36043 5.5199 6.94043 4.9399Z" fill="currentColor"/>
<path d="M4.11035 2.10982C4.31036 1.9101 4.62041 1.90991 4.82031 2.10982C5.02017 2.30973 5.02002 2.61979 4.82031 2.81978C3.97031 3.66978 3.5 4.80045 3.5 6.00045C3.50011 7.20029 3.97041 8.33023 4.82031 9.18013C5.02006 9.3801 5.02013 9.69016 4.82031 9.89009C4.72031 9.99009 4.58973 10.0405 4.46973 10.0405H4.45996C4.33007 10.0405 4.20034 9.98994 4.11035 9.89009C3.07045 8.8502 2.50011 7.47028 2.5 6.00045C2.5 4.53045 3.07035 3.14982 4.11035 2.10982Z" fill="currentColor"/>
<path d="M11.1904 2.10982C11.3904 1.91011 11.7005 1.90992 11.9004 2.10982C12.9403 3.14981 13.5098 4.53048 13.5098 6.00045C13.5097 7.47022 12.9402 8.85021 11.9004 9.89009C11.8004 9.99009 11.6698 10.0405 11.5498 10.0405H11.54C11.4101 10.0405 11.2804 9.98993 11.1904 9.89009C10.9904 9.69009 10.9904 9.38013 11.1904 9.18013C12.0402 8.33025 12.5097 7.20022 12.5098 6.00045C12.5098 4.80048 12.0404 3.66977 11.1904 2.81978C10.9904 2.61978 10.9904 2.30982 11.1904 2.10982Z" fill="currentColor"/>
<path d="M5.53027 3.52974C5.73027 3.33005 6.04033 3.32988 6.24023 3.52974C6.44013 3.72964 6.43993 4.03969 6.24023 4.2397C5.77023 4.7097 5.50977 5.34021 5.50977 6.01021C5.5098 6.68014 5.77029 7.30978 6.24023 7.77974C6.44013 7.97964 6.43993 8.28969 6.24023 8.4897C6.14023 8.5897 6.00965 8.64009 5.88965 8.64009L5.87988 8.61959C5.75001 8.61955 5.62024 8.57001 5.53027 8.47017C4.87036 7.81026 4.5001 6.9303 4.5 6.00045C4.5 5.07045 4.86027 4.18974 5.53027 3.52974Z" fill="currentColor"/>
<path d="M9.76953 3.51021C9.96953 3.31021 10.2805 3.31021 10.4805 3.51021C11.1402 4.17015 11.5097 5.05012 11.5098 5.97994C11.5098 6.90975 11.1502 7.78971 10.4805 8.44966C10.3805 8.54966 10.2499 8.60005 10.1299 8.60005L10.1201 8.61959C9.99012 8.61959 9.85953 8.57017 9.76953 8.47017C9.5698 8.27027 9.5699 7.96017 9.76953 7.76021C10.2395 7.29021 10.5 6.6597 10.5 5.9897C10.4999 5.31983 10.2395 4.69009 9.76953 4.22017C9.5698 4.02027 9.5699 3.71017 9.76953 3.51021Z" fill="currentColor"/>
</svg>
