<svg width="16" height="16" viewBox="0 0 16 16" fill="none" xmlns="http://www.w3.org/2000/svg">
<path fill-rule="evenodd" clip-rule="evenodd" d="M8.18007 6.99986C8.64013 5.65995 10.0401 4.76042 11.6 5.06041H11.6303C12.8 5.29051 13.75 6.24986 13.9701 7.42955C14.3201 9.33955 12.8699 10.9999 11.0199 10.9999C9.70993 10.9998 8.5996 10.1699 8.1996 8.99986H6.01991L5.36952 9.65026C5.16951 9.84991 4.85945 9.85014 4.65956 9.65026L4.01015 8.99986L3.35976 9.65026C3.15976 9.85002 2.84972 9.85014 2.6498 9.65026L1.35976 8.36022C1.15983 8.16029 1.15998 7.85026 1.35976 7.65026L1.85976 7.15026C1.94976 7.05026 2.08034 6.99986 2.21034 6.99986H8.18007ZM11.0004 6.49986C10.7204 6.49986 10.5005 6.71993 10.5004 6.99986V8.99986C10.5004 9.27986 10.7204 9.49987 11.0004 9.49987C11.2802 9.49965 11.5004 9.27973 11.5004 8.99986V6.99986C11.5003 6.72007 11.2801 6.50008 11.0004 6.49986Z" fill="currentColor"/>
</svg>
