<svg width="16" height="16" viewBox="0 0 16 16" fill="none" xmlns="http://www.w3.org/2000/svg">
<path fill-rule="evenodd" clip-rule="evenodd" d="M8.5 1.5C9.33 1.5 10 2.17 10 3V3.5H12.0098C12.2898 3.5 12.5098 3.72 12.5098 4C12.5098 4.28 12.2898 4.5 12.0098 4.5H11.9502L11.0996 12.1104C11.0494 12.62 10.6201 12.9998 10.1104 13H5.90039C5.39051 13 4.97031 12.6202 4.91016 12.1104L4.05957 4.5H4C3.72 4.5 3.5 4.28 3.5 4C3.5 3.72 3.72 3.5 4 3.5H6V3C6 2.17 6.67 1.5 7.5 1.5H8.5ZM9.37012 6.63965C9.1702 6.43985 8.86013 6.43994 8.66016 6.63965L8.00977 7.29004L7.36035 6.63965C7.16047 6.43977 6.8504 6.44002 6.65039 6.63965C6.45039 6.83965 6.45039 7.14961 6.65039 7.34961L7.2998 8L6.65039 8.65039C6.45039 8.85039 6.45039 9.16035 6.65039 9.36035C6.7404 9.46009 6.88015 9.50977 7 9.50977C7.11985 9.50977 7.24966 9.4601 7.34961 9.36035L8 8.70996L8.65039 9.36035C8.7404 9.46009 8.88015 9.50977 9 9.50977C9.11985 9.50977 9.24966 9.4601 9.34961 9.36035C9.54961 9.16035 9.54961 8.85039 9.34961 8.65039H9.37012L8.71973 8L9.37012 7.34961C9.56986 7.1496 9.57003 6.83956 9.37012 6.63965ZM7.5 2.5C7.22 2.5 7 2.72 7 3V3.5H9V3C9 2.72 8.78 2.5 8.5 2.5H7.5Z" fill="black"/>
</svg>
