<svg width="16" height="16" viewBox="0 0 16 16" fill="none" xmlns="http://www.w3.org/2000/svg">
<path fill-rule="evenodd" clip-rule="evenodd" d="M11.3301 2.49023C12.53 2.49028 13.5 3.46019 13.5 4.66016C13.4999 5.86005 12.53 6.83003 11.3301 6.83008H10.1602V9.16016H11.3301C12.53 9.16021 13.5 10.1301 13.5 11.3301C13.5 12.53 12.53 13.5 11.3301 13.5C10.1401 13.5 9.16021 12.53 9.16016 11.3301V10.1602H6.83008V11.3301C6.83003 12.52 5.86006 13.4999 4.66016 13.5C3.46019 13.5 2.49028 12.53 2.49023 11.3301C2.49023 10.1301 3.46016 9.16016 4.66016 9.16016H5.83008V6.83008H4.66016C3.46021 6.83008 2.49032 5.86008 2.49023 4.66016C2.49023 3.46016 3.46016 2.49023 4.66016 2.49023C5.86009 2.49032 6.83008 3.46021 6.83008 4.66016V5.83008H9.16016V4.66016C9.16016 3.47016 10.1301 2.49023 11.3301 2.49023ZM4.66992 10.1699C4.03001 10.17 3.50007 10.6899 3.5 11.3398C3.5 11.9898 4.01996 12.5097 4.66992 12.5098C5.31992 12.5098 5.83984 11.9898 5.83984 11.3398V10.1699H4.66992ZM10.1699 11.3398C10.1699 11.9798 10.6899 12.5097 11.3398 12.5098C11.9898 12.5098 12.5098 11.9898 12.5098 11.3398C12.5097 10.6899 11.9898 10.1699 11.3398 10.1699H10.1699V11.3398ZM6.83008 9.16992H9.16016V6.83984H6.83008V9.16992ZM4.66992 3.5C4.02998 3.50005 3.50003 4.01998 3.5 4.66992C3.5 5.31989 4.01996 5.83979 4.66992 5.83984H5.83984V4.66992C5.83981 4.02995 5.3199 3.5 4.66992 3.5ZM11.3398 3.49023C10.6899 3.49032 10.1699 4.01021 10.1699 4.66016V5.83008H11.3398C11.9798 5.83008 12.5097 5.31008 12.5098 4.66016C12.5098 4.01016 11.9898 3.49023 11.3398 3.49023Z" fill="black"/>
</svg>
