<svg width="16" height="16" viewBox="0 0 16 16" fill="none" xmlns="http://www.w3.org/2000/svg">
<path fill-rule="evenodd" clip-rule="evenodd" d="M8 1C8.55 1 9 1.45 9 2H10.5C10.78 2 11 2.22 11 2.5V3H12C12.55 3 13 3.45 13 4V13C13 13.55 12.55 14 12 14H4C3.45 14 3 13.55 3 13V4C3 3.45 3.45 3 4 3H5V2.5C5 2.22 5.22 2 5.5 2H7C7 1.45 7.45 1 8 1ZM8 11C7.59 11 7.25 11.34 7.25 11.75C7.25 12.16 7.59 12.5 8 12.5C8.41 12.5 8.75 12.16 8.75 11.75C8.75 11.34 8.41 11 8 11ZM8.01953 6.5C7.61975 6.50026 7.30009 6.83063 7.33008 7.23047L7.48047 9.5C7.50048 9.77991 7.72988 9.99988 8.00977 10C8.28977 10 8.52004 9.78 8.54004 9.5L8.69043 7.23047H8.70996C8.72996 6.84047 8.41953 6.5 8.01953 6.5ZM5.5 4C5.22 4 5 4.22 5 4.5C5 4.78 5.22 5 5.5 5H10.5C10.78 5 11 4.78 11 4.5C11 4.22 10.78 4 10.5 4H5.5Z" fill="currentColor"/>
</svg>
