<svg width="16" height="16" viewBox="0 0 16 16" fill="none" xmlns="http://www.w3.org/2000/svg">
<path fill-rule="evenodd" clip-rule="evenodd" d="M7.80996 1.54004C7.99996 1.46005 8.21001 1.5104 8.35 1.65039L11.35 4.65039C11.5499 4.8504 11.55 5.1604 11.35 5.36035L8.69961 8.00977L11.35 10.6602C11.55 10.8602 11.55 11.1701 11.35 11.3701L8.35 14.3701C8.25011 14.47 8.13023 14.5204 8.00039 14.5205V14.5C7.94039 14.5 7.86996 14.49 7.80996 14.46C7.62 14.3799 7.50039 14.2 7.50039 14V9.20996L5.35 11.3604C5.15004 11.5602 4.84001 11.5602 4.64004 11.3604C4.44008 11.1604 4.44015 10.8504 4.64004 10.6504L7.29043 8L4.64004 5.35059C4.44004 5.15059 4.44004 4.83965 4.64004 4.63965C4.83997 4.43999 5.15008 4.43997 5.35 4.63965L7.50039 6.79004V2C7.50044 1.80005 7.62 1.62002 7.80996 1.54004ZM8.50039 12.7998L10.2904 11.0098L8.50039 9.21973V12.7998ZM8.50039 6.79981L10.2904 5.00977L8.50039 3.21973V6.79981Z" fill="black"/>
</svg>
