<svg width="16" height="16" viewBox="0 0 16 16" fill="none" xmlns="http://www.w3.org/2000/svg">
<path fill-rule="evenodd" clip-rule="evenodd" d="M12.9995 4V4.00977C13.5494 4.00977 13.9994 4.45987 13.9995 5.00977V11.0098C13.9995 11.5598 13.5495 12.0098 12.9995 12.0098H5.82959C5.29981 12.0097 4.8003 11.7997 4.42041 11.4199L1.71045 8.70996C1.32045 8.31996 1.32045 7.6898 1.71045 7.2998L4.42041 4.58984C4.7903 4.21011 5.29986 4.0001 5.82959 4H12.9995ZM10.8696 6.13965C10.6696 5.94001 10.3596 5.93978 10.1597 6.13965L9.01026 7.29004L7.85987 6.13965C7.6599 5.93993 7.34983 5.93986 7.14991 6.13965C6.94999 6.33957 6.95015 6.6496 7.14991 6.84961L8.3003 8L7.14991 9.15039C6.95015 9.3504 6.94999 9.66043 7.14991 9.86035C7.23979 9.96012 7.37968 10.0096 7.49952 10.0098C7.61947 10.0098 7.75012 9.96027 7.8501 9.86035L8.99952 8.70996L10.1499 9.86035C10.2398 9.96012 10.3797 10.0096 10.4995 10.0098C10.6195 10.0098 10.7501 9.96027 10.8501 9.86035C11.05 9.66043 11.0499 9.3504 10.8501 9.15039H10.8696L9.72022 8L10.8696 6.84961C11.0696 6.64961 11.0696 6.33964 10.8696 6.13965Z" fill="currentColor"/>
</svg>
