<svg width="16" height="16" viewBox="0 0 16 16" fill="none" xmlns="http://www.w3.org/2000/svg">
<path d="M10.4598 7.38965C10.8698 7.22965 11.2702 7.63004 11.1102 8.04004L11.12 8.0498L9.8397 11.2695C9.3097 12.5895 7.5997 12.9299 6.5897 11.9199C5.56992 10.8999 5.92017 9.18989 7.24009 8.66992L10.4598 7.38965Z" fill="black"/>
<path d="M7.99985 3.49023C11.6898 3.49023 14.7102 6.34984 14.9803 9.96973C15.0003 10.2496 14.7602 10.49 14.4803 10.4902H11.2098L12.0399 8.40039C12.2599 7.85039 12.1298 7.21004 11.7098 6.79004C11.2899 6.37018 10.6603 6.24019 10.1004 6.45996L6.87974 7.74023C6.48987 7.89023 6.1599 8.11047 5.86997 8.40039C5.32016 8.94032 4.99992 9.68992 4.99985 10.4697V10.5H1.52036C1.24051 10.5 1.00065 10.2603 1.02036 9.98047C1.29036 6.35051 4.30991 3.50007 7.99985 3.5V3.49023Z" fill="black"/>
</svg>
