<svg width="16" height="16" viewBox="0 0 16 16" fill="none" xmlns="http://www.w3.org/2000/svg">
<path fill-rule="evenodd" clip-rule="evenodd" d="M7.13963 2.50042C7.51963 1.83042 8.4901 1.83042 8.8701 2.50042L14.0596 11.4897H14.0801C14.4601 12.1597 13.9799 12.9897 13.2099 12.9897H2.82029C2.05029 12.9897 1.57018 12.1597 1.95018 11.4897L7.13963 2.50042ZM7.99998 10.5004C7.71999 10.5004 7.49998 10.7204 7.49998 11.0004C7.50018 11.2802 7.72011 11.5004 7.99998 11.5004C8.27986 11.5004 8.49979 11.2802 8.49998 11.0004C8.49998 10.7204 8.27998 10.5004 7.99998 10.5004ZM7.99998 5.50042C7.71999 5.50043 7.49998 5.72043 7.49998 6.00042V9.00042C7.50018 9.28024 7.72011 9.50042 7.99998 9.50042C8.27986 9.50042 8.49979 9.28025 8.49998 9.00042V6.00042C8.49998 5.72042 8.27998 5.50042 7.99998 5.50042Z" fill="currentColor"/>
</svg>
