<svg width="16" height="16" viewBox="0 0 16 16" fill="none" xmlns="http://www.w3.org/2000/svg">
<path d="M6.00005 4C6.40988 4.00004 6.65001 4.46984 6.40044 4.7998L4.50005 7.33301V12C4.50005 12.28 4.28003 12.5 4.00005 12.5C3.72005 12.5 3.50005 12.28 3.50005 12V7.33301L1.59966 4.7998C1.35002 4.46982 1.59017 4 2.00005 4H6.00005Z" fill="currentColor"/>
<path d="M7.00005 9.5C7.27617 9.50003 7.50005 9.72388 7.50005 10V12C7.50005 12.2761 7.27617 12.5 7.00005 12.5H6.00005C5.72391 12.5 5.50005 12.2761 5.50005 12V10C5.50005 9.72386 5.72391 9.5 6.00005 9.5H7.00005Z" fill="currentColor"/>
<path d="M10.0001 7.5C10.2762 7.50003 10.5001 7.72388 10.5001 8V12C10.5001 12.2761 10.2762 12.5 10.0001 12.5H9.00005C8.72391 12.5 8.50005 12.2761 8.50005 12V8C8.50005 7.72386 8.72391 7.5 9.00005 7.5H10.0001Z" fill="currentColor"/>
<path d="M13.0001 5.5C13.28 5.50003 13.5001 5.72002 13.5001 6V12C13.5001 12.28 13.28 12.5 13.0001 12.5H12.0001C11.7201 12.5 11.5001 12.28 11.5001 12V6C11.5001 5.87 11.5504 5.74039 11.6504 5.65039C11.7504 5.56042 11.8701 5.5 12.0001 5.5H13.0001Z" fill="currentColor"/>
</svg>
