<svg width="16" height="16" viewBox="0 0 16 16" fill="none" xmlns="http://www.w3.org/2000/svg">
<path fill-rule="evenodd" clip-rule="evenodd" d="M10.8296 2.16992C11.5995 2.16992 12.3597 2.45994 12.9497 3.0498C14.1197 4.2198 14.1197 6.12004 12.9497 7.29004L7.28955 12.9502C6.70969 13.5398 5.94011 13.83 5.17041 13.8301C4.40053 13.8301 3.64025 13.54 3.05029 12.9502C1.88029 11.7802 1.88029 9.87996 3.05029 8.70996L8.71045 3.0498C9.29031 2.4601 10.0598 2.17002 10.8296 2.16992ZM10.8296 3.16992C10.2897 3.17003 9.78957 3.37986 9.40967 3.75977L6.93994 6.24023L9.77002 9.07031L12.2397 6.58984C13.0197 5.80984 13.0197 4.53977 12.2397 3.75977C11.8598 3.37989 11.3695 3.16992 10.8296 3.16992Z" fill="currentColor"/>
</svg>
