<svg width="16" height="16" viewBox="0 0 16 16" fill="none" xmlns="http://www.w3.org/2000/svg">
<path fill-rule="evenodd" clip-rule="evenodd" d="M6.9098 1.59981C10.1396 0.929842 12.9896 3.37967 12.9899 6.48946C12.9899 8.53944 11.7499 10.2995 9.98988 11.0695V12.4895C9.98988 13.5895 9.08988 14.4895 7.98988 14.4895C6.88992 14.4894 5.98988 13.5894 5.98988 12.4895V11.0695C3.98 10.1895 2.64997 8.02948 3.06995 5.60957C3.41004 3.63983 4.95983 2.01967 6.91956 1.60958L6.9098 1.59981ZM7.49964 11.0002C7.21981 11.0004 6.99964 11.2203 6.99964 11.5002C6.9998 11.7799 7.21991 12 7.49964 12.0002H8.49964C8.77954 12.0002 8.99948 11.7801 8.99964 11.5002C8.99964 11.2202 8.77964 11.0002 8.49964 11.0002H7.49964Z" fill="black"/>
</svg>
