<svg width="16" height="16" viewBox="0 0 16 16" fill="none" xmlns="http://www.w3.org/2000/svg">
<path d="M8.00034 5C9.66016 5.0002 11.0003 6.34012 11.0003 8C11.0003 9.65988 9.66016 10.9998 8.00034 11C6.34034 11 5.00034 9.66 5.00034 8C5.00034 6.34 6.34034 5 8.00034 5Z" fill="black"/>
<path d="M8.0101 2.50977C11.01 2.50983 13.7903 4.48033 15.4603 7.78027C15.58 8.0302 15.4895 8.33025 15.2396 8.4502C15.1697 8.49001 15.0899 8.49999 15.0101 8.5H15.0003C14.8205 8.5 14.6402 8.4002 14.5501 8.23047C13.0602 5.27062 10.6102 3.50018 8.00034 3.5C5.39034 3.5 2.93955 5.27047 1.44955 8.23047C1.32937 8.48008 1.01946 8.5801 0.779633 8.4502C0.529867 8.33016 0.440113 8.02018 0.559906 7.78027C2.22991 4.48027 5.0101 2.50977 8.0101 2.50977Z" fill="black"/>
</svg>
