<svg width="16" height="16" viewBox="0 0 16 16" fill="none" xmlns="http://www.w3.org/2000/svg">
<path d="M9.73975 1.48012C9.95966 1.32019 10.2799 1.36973 10.4399 1.5895C11.7899 3.4695 12.5103 5.68989 12.5103 7.98989C12.5103 10.2899 11.7999 12.5103 10.4399 14.3903C10.3399 14.5301 10.1897 14.6002 10.0298 14.6002V14.61C9.92986 14.61 9.82969 14.5801 9.73975 14.5202C9.51976 14.3602 9.46038 14.05 9.63037 13.82C10.8603 12.11 11.5103 10.0996 11.5103 7.99965C11.5102 5.89993 10.8601 3.89015 9.63037 2.18032C9.47043 1.9604 9.51996 1.64018 9.73975 1.48012Z" fill="black"/>
<path d="M7.61963 2.81997C7.83954 2.66003 8.14978 2.69981 8.31983 2.91958C9.41983 4.39958 9.99952 6.15012 9.99952 7.98012C9.99946 9.81002 9.41976 11.5598 8.31983 13.0397C8.21992 13.1696 8.07027 13.2398 7.92041 13.2399V13.2594C7.82041 13.2594 7.70963 13.2298 7.61963 13.1598C7.39985 12.9898 7.35009 12.6795 7.52002 12.4596C8.48994 11.1497 9.01025 9.60981 9.01026 7.98989C9.01026 6.36997 8.49993 4.83012 7.52002 3.52016C7.35009 3.30025 7.39987 2.99001 7.61963 2.81997Z" fill="black"/>
<path d="M5.48975 4.19008C5.69975 4.02008 6.01994 4.05016 6.18994 4.27016C7.03983 5.34008 7.50045 6.62979 7.50049 7.99965C7.50049 9.36965 7.04994 10.6601 6.18994 11.7301C6.09001 11.8499 5.94014 11.9195 5.8003 11.9196C5.6903 11.9196 5.57975 11.8802 5.48975 11.8102C5.26983 11.6403 5.23989 11.32 5.40967 11.11C6.11967 10.22 6.50049 9.13965 6.50049 7.99965C6.50045 6.85978 6.11958 5.7902 5.40967 4.89028C5.23974 4.67037 5.27 4.36013 5.48975 4.19008Z" fill="black"/>
<path d="M3.32959 5.5602C3.52949 5.3703 3.84952 5.38004 4.03955 5.57973C4.65954 6.23972 5.01024 7.08991 5.01026 7.98989C5.01026 8.88989 4.66955 9.74005 4.03955 10.4C3.93964 10.4998 3.81 10.5601 3.68018 10.5602H3.67041C3.55041 10.5602 3.41959 10.5096 3.32959 10.4196C3.12997 10.2295 3.12019 9.90948 3.31006 9.70962C3.75993 9.23964 3.99951 8.62979 3.99951 7.98989C3.9995 7.34998 3.74996 6.74013 3.31006 6.27016C3.12017 6.07028 3.12992 5.75024 3.32959 5.5602Z" fill="black"/>
</svg>
