<svg width="16" height="16" viewBox="0 0 16 16" fill="none" xmlns="http://www.w3.org/2000/svg">
<path d="M9.99962 2C10.2796 2 10.56 2.02986 10.8199 2.08984C11.2098 2.16982 11.3399 2.64965 11.0602 2.92969L8.98986 5V7H10.9899L13.0602 4.92969C13.3402 4.65001 13.82 4.79008 13.9 5.16992C13.96 5.43992 13.9899 5.71023 13.9899 5.99023L13.9996 6C13.9996 8.21 12.2096 10 9.99962 10C9.41977 9.99994 8.85986 9.8696 8.35998 9.63965L4.99962 13C4.44961 13.5498 3.54956 13.5499 2.99962 13C2.44989 12.45 2.44989 11.55 2.99962 11L6.35998 7.63965C6.13006 7.13973 5.99962 6.57988 5.99962 6C5.99962 3.79013 7.78981 2.00022 9.99962 2Z" fill="black"/>
</svg>
