<svg width="16" height="16" viewBox="0 0 16 16" fill="none" xmlns="http://www.w3.org/2000/svg">
<path d="M6.75977 12.4501C7.03977 12.8601 7.5 13.1103 8 13.1103C8.49999 13.1103 8.96024 12.8699 9.24023 12.4599C9.60015 11.93 10.07 11.2302 10.5498 10.5204C10.8298 10.5804 11.0696 10.7802 11.1396 11.0702L11.1602 11.0605L11.8604 13.87C11.9302 14.18 11.7 14.4901 11.3701 14.4902H4.65039C4.32039 14.4902 4.08016 14.19 4.16016 13.87L4.86035 11.0605C4.93035 10.7705 5.1702 10.5597 5.4502 10.5097C5.93019 11.2197 6.39977 11.9201 6.75977 12.4501Z" fill="black"/>
<path fill-rule="evenodd" clip-rule="evenodd" d="M8.17969 1.49993C10.2697 1.58993 11.9796 3.44 11.9297 5.53997C11.9197 6.18997 11.7602 6.81024 11.4502 7.32024C10.8402 8.33028 9.19014 10.7603 8.41016 11.9003C8.22014 12.1902 7.78985 12.1902 7.58984 11.9003C6.80986 10.7603 5.15983 8.32028 4.5498 7.32024C4.2198 6.77024 4.07031 6.10962 4.07031 5.42962C4.07055 3.19992 5.92997 1.40012 8.17969 1.49993ZM8 3.99993C7.17004 3.99993 6.50007 4.66999 6.5 5.49993C6.5 6.32993 7.17 6.99993 8 6.99993C8.83 6.99993 9.5 6.32993 9.5 5.49993C9.49993 4.66999 8.82996 3.99993 8 3.99993Z" fill="black"/>
</svg>
