<svg width="16" height="16" viewBox="0 0 16 16" fill="none" xmlns="http://www.w3.org/2000/svg">
<path fill-rule="evenodd" clip-rule="evenodd" d="M11.9096 3.03027C12.4995 3.00028 13 3.48992 12.9701 4.08984C12.6201 11.9998 8.39966 12 6.23966 12H4.69962L3.35001 13.3496C3.26012 13.4495 3.12031 13.4999 3.0004 13.5C2.8804 13.5 2.74982 13.4496 2.64982 13.3496C2.45012 13.1496 2.44992 12.8395 2.64982 12.6396L4.0004 11.29V9.75C4.0004 7.59003 3.99995 3.36964 11.9096 3.01953V3.03027ZM11.3598 4.63965C11.1598 4.43996 10.8497 4.43983 10.6498 4.63965L5.64982 9.63965C5.44992 9.83955 5.45012 10.1496 5.64982 10.3496C5.73982 10.4496 5.8804 10.5 6.0004 10.5C6.12029 10.4999 6.25013 10.4495 6.35001 10.3496L11.35 5.34961H11.3598C11.5597 5.14961 11.5597 4.83961 11.3598 4.63965Z" fill="black"/>
</svg>
