<svg width="16" height="16" viewBox="0 0 16 16" fill="none" xmlns="http://www.w3.org/2000/svg">
<path fill-rule="evenodd" clip-rule="evenodd" d="M3.76 3.75993C6.1 1.40994 9.90047 1.40994 12.2405 3.75993C14.5903 6.09994 14.5904 9.90046 12.2405 12.2404C9.90052 14.5903 6.10001 14.5902 3.76 12.2404C1.41 9.9004 1.41 6.09993 3.76 3.75993ZM4.13011 9.00017C4.30013 9.67011 4.6502 10.3103 5.17015 10.8302C6.73017 12.3901 9.27036 12.3902 10.8303 10.8302C11.3503 10.3103 11.7003 9.67013 11.8703 9.00017H4.13011ZM10.8303 5.17009C9.27031 3.61009 6.73015 3.61009 5.17015 5.17009C4.65015 5.69009 4.30011 6.33017 4.13011 7.00017H11.8703C11.7004 6.33025 11.3502 5.69006 10.8303 5.17009Z" fill="currentColor"/>
</svg>
