<svg width="16" height="16" viewBox="0 0 16 16" fill="none" xmlns="http://www.w3.org/2000/svg">
<path d="M9.50038 13C9.50038 13.8299 8.8302 14.4998 8.00038 14.5C7.17038 14.5 6.50038 13.83 6.50038 13H9.50038Z" fill="black"/>
<path d="M12.6498 2.65039C12.8398 2.45039 13.16 2.45039 13.35 2.65039C13.5497 2.84035 13.5497 3.15965 13.35 3.34961L11.3402 5.36035C11.4002 5.55021 11.4597 5.75014 11.4896 5.95996L11.5902 6.53027L12.31 10.8398C12.41 11.4498 11.9397 12 11.3197 12H4.6996L2.84999 13.8496C2.76008 13.9495 2.63025 13.9999 2.50038 14C2.37038 14 2.23979 13.9496 2.14979 13.8496C1.95019 13.6597 1.95019 13.3403 2.14979 13.1504L12.6498 2.65039Z" fill="black"/>
<path d="M8.00038 2C8.28022 2.00017 8.50038 2.22011 8.50038 2.5V3C8.50038 3 8.48964 3.03004 8.48964 3.04004C9.09964 3.13004 9.66003 3.38023 10.14 3.74023L3.81972 10.0596L4.51015 5.95996C4.76017 4.41999 6.00016 3.26004 7.51015 3.04004C7.51015 3.04004 7.50038 3.02 7.50038 3V2.5C7.50038 2.22 7.72038 2 8.00038 2Z" fill="black"/>
</svg>
