<svg width="16" height="16" viewBox="0 0 16 16" fill="none" xmlns="http://www.w3.org/2000/svg">
<path fill-rule="evenodd" clip-rule="evenodd" d="M3 4.5C3.83 4.5 4.5 5.17 4.5 6C4.5 6.65435 4.08296 7.20753 3.5 7.41309V8.7998L5.34961 10.6504C5.43961 10.7404 5.5 10.87 5.5 11V14C5.5 14.28 5.28 14.5 5 14.5C4.72 14.5 4.5 14.28 4.5 14V11.21L2.65039 9.36035C2.56039 9.27035 2.5 9.13977 2.5 9.00977V7.41309C1.91704 7.20753 1.5 6.65435 1.5 6C1.5 5.17 2.17 4.5 3 4.5ZM3 5.5C2.72 5.5 2.5 5.72 2.5 6C2.5 6.28 2.72 6.5 3 6.5C3.28 6.5 3.5 6.28 3.5 6C3.5 5.72 3.28 5.5 3 5.5Z" fill="black"/>
<path fill-rule="evenodd" clip-rule="evenodd" d="M6 1.5C6.83 1.5 7.5 2.17 7.5 3C7.5 3.65435 7.08296 4.20753 6.5 4.41309V8.7998L7.34961 9.65039C7.43961 9.74039 7.5 9.87001 7.5 10V14C7.5 14.28 7.28 14.5 7 14.5C6.72 14.5 6.5 14.28 6.5 14V10.21L5.65039 9.36035C5.56039 9.27035 5.5 9.13977 5.5 9.00977V4.41309C4.91704 4.20753 4.5 3.65435 4.5 3C4.5 2.17 5.17 1.5 6 1.5ZM6 2.5C5.72 2.5 5.5 2.72 5.5 3C5.5 3.28 5.72 3.5 6 3.5C6.28 3.5 6.5 3.28 6.5 3C6.5 2.72 6.28 2.5 6 2.5Z" fill="black"/>
<path fill-rule="evenodd" clip-rule="evenodd" d="M10 1.5C10.83 1.5 11.5 2.17 11.5 3C11.5 3.65435 11.083 4.20753 10.5 4.41309V8.00977C10.5 8.13977 10.4496 8.27035 10.3496 8.36035L9.5 9.20996V14C9.5 14.28 9.28 14.5 9 14.5C8.72 14.5 8.5 14.28 8.5 14V9C8.5 8.87001 8.55039 8.74039 8.65039 8.65039L9.5 7.7998V4.41309C8.91704 4.20753 8.5 3.65435 8.5 3C8.5 2.17 9.17 1.5 10 1.5ZM10 2.5C9.72 2.5 9.5 2.72 9.5 3C9.5 3.28 9.72 3.5 10 3.5C10.28 3.5 10.5 3.28 10.5 3C10.5 2.72 10.28 2.5 10 2.5Z" fill="black"/>
<path fill-rule="evenodd" clip-rule="evenodd" d="M13 4.5C13.83 4.5 14.5 5.17 14.5 6C14.5 6.65435 14.083 7.20753 13.5 7.41309V8.00977C13.5 8.13977 13.4496 8.27035 13.3496 8.36035L11.5 10.21V14C11.5 14.28 11.28 14.5 11 14.5C10.72 14.5 10.5 14.28 10.5 14V10C10.5 9.87001 10.5504 9.74039 10.6504 9.65039L12.5 7.7998V7.41309C11.917 7.20753 11.5 6.65435 11.5 6C11.5 5.17 12.17 4.5 13 4.5ZM13 5.5C12.72 5.5 12.5 5.72 12.5 6C12.5 6.28 12.72 6.5 13 6.5C13.28 6.5 13.5 6.28 13.5 6C13.5 5.72 13.28 5.5 13 5.5Z" fill="black"/>
</svg>
