<svg width="16" height="16" viewBox="0 0 16 16" fill="none" xmlns="http://www.w3.org/2000/svg">
<path d="M12.6498 2.64982C12.8398 2.44986 13.16 2.44993 13.35 2.64982C13.55 2.83982 13.55 3.16002 13.35 3.35002L10.0004 6.69963L12.4603 5.65959L13.3002 5.30021C13.6302 5.1603 14.0004 5.40021 14.0004 5.76017V10.2397C14.0004 10.5997 13.6302 10.8396 13.3002 10.6996L10.0004 9.29045V11.0004C10.0002 11.5501 9.55007 12.0002 9.00038 12.0004H4.6996L2.34999 14.35C2.26007 14.4499 2.13025 14.5003 2.00038 14.5004C1.87038 14.5004 1.73979 14.45 1.64979 14.35C1.4499 14.16 1.44983 13.8398 1.64979 13.6498L12.6498 2.64982Z" fill="currentColor"/>
<path d="M9.00038 4.00041C9.24016 4.0005 9.47013 4.08983 9.64003 4.23966L2.23963 11.6401C2.0898 11.4702 2.00047 11.2402 2.00038 11.0004V5.00041C2.00038 4.45041 2.45038 4.00041 3.00038 4.00041H9.00038Z" fill="currentColor"/>
</svg>
