<svg width="16" height="16" viewBox="0 0 16 16" fill="none" xmlns="http://www.w3.org/2000/svg">
<path d="M8.5302 2.82056C8.66013 2.60068 8.99957 2.69 8.99992 2.93971V7.00025H10.1396C10.5196 7.00025 10.7602 7.41025 10.5702 7.75025L7.45988 13.1799C7.32988 13.3999 6.99016 13.3098 6.99016 13.0598V9.00025H5.85051C5.47058 9.00025 5.23005 8.59021 5.41984 8.25025L8.5302 2.82056Z" fill="black"/>
<path d="M2.16984 5.17017C2.36983 4.97019 2.6798 4.97022 2.8798 5.17017C3.0798 5.37017 3.0798 5.68014 2.8798 5.88014C1.70993 7.05015 1.70985 8.95041 2.8798 10.1204C3.07975 10.3204 3.07979 10.6303 2.8798 10.8303C2.77989 10.9301 2.65005 10.9797 2.5302 10.9797H2.52043C2.39046 10.9797 2.25984 10.9303 2.16984 10.8303C0.609886 9.27037 0.609969 6.73018 2.16984 5.17017Z" fill="black"/>
<path d="M13.1298 5.17017C13.3298 4.97021 13.6398 4.9703 13.8398 5.17017C15.3998 6.73017 15.3998 9.27033 13.8398 10.8303C13.7398 10.9301 13.61 10.9797 13.4902 10.9797H13.4804C13.3504 10.9797 13.2198 10.9303 13.1298 10.8303C12.9299 10.6304 12.9301 10.3204 13.1298 10.1204C14.2998 8.95037 14.2998 7.05014 13.1298 5.88014C12.93 5.6802 12.93 5.37014 13.1298 5.17017Z" fill="black"/>
<path d="M3.58977 6.5901C3.78974 6.39013 4.09972 6.39019 4.29973 6.5901C4.49973 6.7901 4.49973 7.10006 4.29973 7.30006C4.10984 7.49004 4.00969 7.7401 4.00969 8.01002C4.00969 8.27994 4.10983 8.53 4.29973 8.71998C4.49973 8.90998 4.49973 9.22994 4.29973 9.42994C4.19977 9.52983 4.07004 9.5803 3.95012 9.58033L3.94035 9.55982C3.8104 9.55982 3.67976 9.51034 3.58977 9.41041C3.20982 9.03047 2.99999 8.53016 2.99992 8.00025C2.99992 7.47033 3.20987 6.96008 3.58977 6.5901Z" fill="black"/>
<path d="M11.7099 6.57056C11.9099 6.37056 12.2198 6.37056 12.4198 6.57056C12.7997 6.95046 13.0096 7.44994 13.0097 7.97974C13.0097 8.50974 12.7998 9.0199 12.4198 9.3899C12.3199 9.48985 12.1902 9.54024 12.0702 9.54029L12.0605 9.55982C11.9305 9.55982 11.7999 9.51035 11.7099 9.41041C11.51 9.21049 11.5101 8.90046 11.7099 8.70045C11.8998 8.51054 11.9998 8.26033 11.9999 7.99049C11.9999 7.72055 11.8998 7.47051 11.7099 7.28053C11.51 7.09063 11.5102 6.77059 11.7099 6.57056Z" fill="black"/>
</svg>
