<svg width="16" height="16" viewBox="0 0 16 16" fill="none" xmlns="http://www.w3.org/2000/svg">
<path fill-rule="evenodd" clip-rule="evenodd" d="M8.35034 2.73039C9.09029 2.42047 9.9102 2.42042 10.6501 2.73039C11.39 3.04042 11.9703 3.6106 12.2703 4.35051C12.835 5.72275 12.3053 7.27904 11.0935 8.03996L11.4949 9.00871L12.4197 8.62981C12.6697 8.51981 12.9701 8.65031 13.0701 8.90031C13.1798 9.15025 13.0495 9.44977 12.7996 9.54973L11.8757 9.92863L12.2615 10.8603L13.1902 10.4804C13.4401 10.3804 13.7395 10.49 13.8396 10.7499C13.9496 10.9999 13.8201 11.3003 13.5701 11.4003L12.6433 11.7792L13.0701 12.8095C13.1801 13.0695 13.0496 13.3599 12.7996 13.4599C12.7397 13.4897 12.67 13.4999 12.6101 13.4999C12.4103 13.4999 12.2302 13.3801 12.1501 13.1904L11.5437 11.7275C11.5392 11.7184 11.534 11.7096 11.53 11.7001C11.5262 11.6914 11.5245 11.6816 11.5212 11.6728L10.7917 9.91203C10.7801 9.89221 10.7687 9.87126 10.7595 9.84953C10.7509 9.8299 10.7467 9.80911 10.741 9.78899L10.1726 8.41789C9.9507 8.46958 9.72554 8.49992 9.49975 8.49992C9.10998 8.49989 8.72014 8.42029 8.35034 8.27043C8.22926 8.21971 8.11369 8.1589 8.00171 8.09465C7.88874 8.15926 7.77287 8.22068 7.65014 8.27043C7.28014 8.42043 6.88975 8.49992 6.49975 8.49992C6.27358 8.4999 6.04819 8.46977 5.82592 8.41789L5.4226 9.38957L6.35034 9.77043C6.60005 9.88054 6.72973 10.17 6.61987 10.4198C6.53987 10.6098 6.34991 10.7304 6.15991 10.7304C6.10009 10.7304 6.03031 10.7202 5.97045 10.6904L5.04174 10.3095L4.65796 11.2372L5.5896 11.62C5.8396 11.73 5.9701 12.0204 5.8601 12.2704C5.78005 12.4602 5.59001 12.58 5.40014 12.58C5.34014 12.58 5.26971 12.57 5.20971 12.54L4.2771 12.1572L3.85034 13.1904C3.77034 13.3802 3.58022 13.4998 3.39038 13.4999C3.33038 13.4999 3.25995 13.4899 3.19995 13.4599C2.95012 13.3499 2.82061 13.0604 2.93042 12.8105L4.29956 9.50188C4.30329 9.49144 4.30576 9.47997 4.3103 9.46965C4.31384 9.46162 4.31811 9.45399 4.32202 9.44621L4.90503 8.04094C3.68508 7.2803 3.15615 5.72331 3.73022 4.35051C4.04022 3.61051 4.61034 3.03039 5.35034 2.73039C6.0903 2.42046 6.9002 2.42041 7.65014 2.73039C7.77055 2.78084 7.88541 2.84039 7.99682 2.90422C8.10996 2.83948 8.2274 2.78023 8.35034 2.73039ZM6.49975 3.49992C6.23987 3.49996 5.98011 3.55037 5.73022 3.65031C5.24022 3.85031 4.85014 4.24039 4.65014 4.73039C4.23031 5.75034 4.7103 6.9198 5.73022 7.33977C6.1957 7.52594 6.69478 7.5364 7.15698 7.3759C6.98279 7.15835 6.83788 6.91578 6.73022 6.65031C6.43026 5.91041 6.42035 5.09043 6.73022 4.35051C6.84216 4.0833 6.98831 3.83695 7.16381 3.61711C6.9435 3.54081 6.71813 3.49992 6.49975 3.49992ZM9.49975 3.49992C9.27412 3.49995 9.04922 3.53982 8.83667 3.61516C9.01404 3.83497 9.16117 4.08142 9.27026 4.35051C9.57007 5.09039 9.58019 5.91047 9.27026 6.65031C9.15953 6.9146 9.01353 7.15692 8.84057 7.37492C9.30348 7.53634 9.80392 7.5263 10.2703 7.33977C11.2899 6.9197 11.77 5.75018 11.3503 4.73039C11.1504 4.2405 10.7601 3.85036 10.2703 3.65031C10.0203 3.55031 9.75975 3.49992 9.49975 3.49992ZM7.99975 4.18156C7.85871 4.34346 7.74249 4.52806 7.65991 4.73039C7.45009 5.2202 7.4501 5.76988 7.65991 6.25969C7.74239 6.46178 7.85894 6.64578 7.99975 6.80754C8.14066 6.64573 8.25707 6.46188 8.3396 6.25969C8.54951 5.76977 8.54952 5.2203 8.3396 4.73039C8.25697 4.52796 8.14089 4.34352 7.99975 4.18156Z" fill="black"/>
</svg>
