<svg width="16" height="16" viewBox="0 0 16 16" fill="none" xmlns="http://www.w3.org/2000/svg">
<path fill-rule="evenodd" clip-rule="evenodd" d="M7.13969 2.50042C7.51969 1.83042 8.49016 1.83042 8.87016 2.50042L14.0596 11.4897H14.0801C14.4601 12.1597 13.98 12.9897 13.21 12.9897H2.82035C2.05035 12.9897 1.57024 12.1597 1.95024 11.4897L7.13969 2.50042ZM8.00004 10.0004C7.59005 10.0004 7.25004 10.3404 7.25004 10.7504C7.25025 11.1603 7.59017 11.5004 8.00004 11.5004C8.40992 11.5004 8.74984 11.1603 8.75004 10.7504C8.75004 10.3404 8.41004 10.0004 8.00004 10.0004ZM8.03032 4.75042C7.61032 4.73042 7.27008 5.08042 7.29008 5.50042L7.46977 8.50042C7.48994 8.78025 7.72017 9.00042 8.00004 9.00042C8.27992 9.00042 8.51015 8.78026 8.53032 8.50042L8.70024 5.54046C8.73023 5.14055 8.43019 4.77057 8.03032 4.75042Z" fill="black"/>
</svg>
