<svg width="16" height="16" viewBox="0 0 16 16" fill="none" xmlns="http://www.w3.org/2000/svg">
<path d="M9.52985 3.80957C9.63994 3.55976 9.93033 3.44008 10.1802 3.54004C11.5901 4.12006 12.6803 5.22018 13.2603 6.62012C13.8402 8.03006 13.8403 9.58054 13.2603 10.9805C12.6803 12.3902 11.58 13.4796 10.1802 14.0596C9.48024 14.3496 8.73958 14.5 7.99958 14.5C7.25973 14.4999 6.51974 14.3495 5.81989 14.0596C4.41014 13.4796 3.31981 12.3802 2.73981 10.9805C2.15984 9.57054 2.1599 8.02006 2.73981 6.62012C3.31979 5.21017 4.41997 4.12006 5.81989 3.54004C6.0698 3.44008 6.37017 3.55976 6.47028 3.80957C6.58028 4.05957 6.44977 4.35996 6.19977 4.45996C5.03988 4.93998 4.1397 5.84007 3.65974 7C3.17985 8.15982 3.17993 9.43977 3.65974 10.5996C4.13969 11.7595 5.03994 12.6596 6.19977 13.1396C7.35977 13.6196 8.64036 13.6196 9.80036 13.1396C10.9602 12.6596 11.8605 11.7595 12.3404 10.5996C12.8202 9.43978 12.8203 8.15981 12.3404 7C11.8604 5.84009 10.9602 4.93999 9.80036 4.45996C9.55036 4.34996 9.41985 4.05957 9.52985 3.80957Z" fill="black"/>
<path d="M7.99958 1.5C8.27958 1.5 8.49958 1.72 8.49958 2V8C8.49958 8.28 8.27958 8.5 7.99958 8.5C7.71978 8.49978 7.49958 8.27986 7.49958 8V2C7.49958 1.72014 7.71978 1.50022 7.99958 1.5Z" fill="black"/>
</svg>
