<svg width="16" height="16" viewBox="0 0 16 16" fill="none" xmlns="http://www.w3.org/2000/svg">
<path fill-rule="evenodd" clip-rule="evenodd" d="M8 2C11.03 2 13.5 4.47 13.5 7.5V10.5C13.5 11.33 12.83 12 12 12H11.5V12.5C11.5 12.56 11.4897 12.6199 11.4697 12.6699C11.3897 13.4198 10.7503 13.9998 9.98047 14C9.59047 14 9.23973 13.8601 8.96973 13.6201C8.41981 14.1198 7.51022 14.09 6.99023 13.6104C6.71024 13.8603 6.36998 14 6 14C5.17 14 4.5 13.33 4.5 12.5V12H4C3.17 12 2.5 11.33 2.5 10.5V7.5C2.5 4.47 4.97 2 8 2ZM7.98047 10.5C7.70047 10.5 7.48047 10.72 7.48047 11V11.5C7.48047 11.78 7.70047 12 7.98047 12C8.26025 11.9998 8.48047 11.7798 8.48047 11.5V11C8.48047 10.7202 8.26025 10.5002 7.98047 10.5ZM7.33008 7.15039C7.14008 6.95039 6.81988 6.95039 6.62988 7.15039L5.98047 7.7998L5.33008 7.15039C5.14008 6.95039 4.81988 6.95039 4.62988 7.15039C4.43023 7.34034 4.43023 7.65966 4.62988 7.84961L5.28027 8.5L4.62988 9.15039C4.43023 9.34034 4.43023 9.65966 4.62988 9.84961C4.71988 9.94961 4.85047 10 4.98047 10C5.11031 9.99988 5.24019 9.94949 5.33008 9.84961L5.98047 9.2002L6.62988 9.84961C6.71988 9.94961 6.85047 10 6.98047 10C7.11031 9.99988 7.24019 9.94949 7.33008 9.84961C7.52976 9.65966 7.52976 9.34034 7.33008 9.15039L6.67969 8.5L7.33008 7.84961C7.52976 7.65966 7.52976 7.34034 7.33008 7.15039ZM11.3301 7.15039C11.1401 6.95039 10.8199 6.95039 10.6299 7.15039L9.98047 7.7998L9.33008 7.15039C9.14008 6.95039 8.81988 6.95039 8.62988 7.15039C8.43023 7.34034 8.43023 7.65966 8.62988 7.84961L9.28027 8.5L8.62988 9.15039C8.43023 9.34034 8.43023 9.65966 8.62988 9.84961C8.71988 9.94961 8.85047 10 8.98047 10C9.11031 9.99988 9.24019 9.94949 9.33008 9.84961L9.98047 9.2002L10.6299 9.84961C10.7199 9.94961 10.8505 10 10.9805 10C11.1103 9.99988 11.2402 9.94949 11.3301 9.84961C11.5298 9.65966 11.5298 9.34034 11.3301 9.15039L10.6797 8.5L11.3301 7.84961C11.5298 7.65966 11.5298 7.34034 11.3301 7.15039Z" fill="currentColor"/>
</svg>
