<svg width="16" height="16" viewBox="0 0 16 16" fill="none" xmlns="http://www.w3.org/2000/svg">
<path fill-rule="evenodd" clip-rule="evenodd" d="M8 2C11.31 2 14 4.69 14 8C14 11.31 11.31 14 8 14C4.69 14 2 11.31 2 8C2 4.69 4.69 2 8 2ZM8 10.5C7.72 10.5 7.5 10.72 7.5 11C7.5 11.28 7.72 11.5 8 11.5C8.28 11.5 8.5 11.28 8.5 11C8.5 10.72 8.28 10.5 8 10.5ZM8 4.99023C6.9 4.99023 6 5.89023 6 6.99023C6.00012 7.27012 6.22008 7.49023 6.5 7.49023C6.77992 7.49023 6.99988 7.27012 7 6.99023C7 6.44023 7.46 5.99023 8 5.99023C8.53991 5.99023 8.99984 6.42985 9 6.96973V7C9 7.31999 8.76014 7.63027 8.41016 7.78027L8.16016 7.87988C7.76016 8.04988 7.5 8.44012 7.5 8.87012V9.24023C7.50012 9.52012 7.72008 9.74023 8 9.74023C8.27992 9.74023 8.49988 9.52012 8.5 9.24023L8.54004 8.80957L8.79004 8.70996C9.50993 8.40999 9.98988 7.75015 10 7.03027V6.99023C10 5.89023 9.1 4.99023 8 4.99023Z" fill="black"/>
</svg>
