<svg width="16" height="16" viewBox="0 0 16 16" fill="none" xmlns="http://www.w3.org/2000/svg">
<path fill-rule="evenodd" clip-rule="evenodd" d="M3.34961 6.6503C3.34961 3.86033 5.80996 1.64978 8.66992 2.04972H8.67969C11.0097 2.37972 12.6704 4.33034 12.6504 6.69034C12.6403 7.48015 12.46 8.24993 12.0801 8.8798C11.3401 10.0998 9.29016 13.1103 8.41016 14.4003C8.21015 14.6901 7.78985 14.6901 7.58984 14.4003C6.70984 13.1103 4.65992 10.0998 3.91992 8.8798C3.53004 8.23992 3.34966 7.46012 3.34961 6.6503ZM8 4.3798C7.72005 4.3798 7.50007 4.59986 7.5 4.8798V6.49991H5.87988C5.59995 6.49998 5.37989 6.71997 5.37988 6.99991C5.37988 7.27987 5.59994 7.49985 5.87988 7.49991H7.5V9.12003C7.50005 9.39999 7.72003 9.62003 8 9.62003C8.27997 9.62003 8.49995 9.39999 8.5 9.12003V7.49991H10.1201C10.4001 7.49985 10.6201 7.27987 10.6201 6.99991C10.6201 6.71997 10.4001 6.49998 10.1201 6.49991H8.5V4.8798C8.49993 4.59986 8.27995 4.3798 8 4.3798Z" fill="black"/>
</svg>
