<svg width="16" height="16" viewBox="0 0 16 16" fill="none" xmlns="http://www.w3.org/2000/svg">
<path fill-rule="evenodd" clip-rule="evenodd" d="M9 2C9.28 2 9.5 2.22 9.5 2.5C9.5 2.78 9.28 3 9 3H8.5V3.5498C9.36 3.6498 10.14 3.98 10.79 4.5L11.1797 4.11035L10.8301 3.75977C10.6302 3.55976 10.6301 3.24978 10.8301 3.0498C11.0301 2.84996 11.3401 2.84992 11.54 3.0498L12.9502 4.45996C13.1501 4.65992 13.15 4.96995 12.9502 5.16992C12.7502 5.3699 12.4402 5.36985 12.2402 5.16992L11.8896 4.82031L11.5 5.20996C12.02 5.84996 12.3502 6.64 12.4502 7.5H13V7C13 6.72 13.22 6.5 13.5 6.5C13.78 6.5 14 6.72 14 7V9C14 9.28 13.78 9.5 13.5 9.5C13.22 9.5 13 9.28 13 9V8.5H12.4502C12.3502 9.36 12.02 10.14 11.5 10.79L11.8896 11.1797L12.2402 10.8301C12.4402 10.6301 12.7502 10.6301 12.9502 10.8301C13.15 11.0301 13.1501 11.3401 12.9502 11.54L11.54 12.9502C11.3401 13.1501 11.0301 13.15 10.8301 12.9502C10.6301 12.7502 10.6302 12.4402 10.8301 12.2402L11.1797 11.8896L10.79 11.5C10.15 12.02 9.36 12.3502 8.5 12.4502V13H9C9.28 13 9.5 13.22 9.5 13.5C9.5 13.78 9.28 14 9 14H7C6.72 14 6.5 13.78 6.5 13.5C6.5 13.22 6.72 13 7 13H7.5V12.4502C6.64 12.3502 5.85996 12.02 5.20996 11.5L4.82031 11.8896L5.16992 12.2402C5.36984 12.4402 5.36989 12.7502 5.16992 12.9502C4.96994 13.15 4.65992 13.1501 4.45996 12.9502L3.0498 11.54C2.84994 11.3401 2.84998 11.0301 3.0498 10.8301C3.24978 10.6301 3.55976 10.6301 3.75977 10.8301L4.11035 11.1797L4.5 10.79C3.98 10.15 3.6498 9.36 3.5498 8.5H3V9C3 9.28 2.78 9.5 2.5 9.5C2.22 9.5 2 9.28 2 9V7C2 6.72 2.22 6.5 2.5 6.5C2.78 6.5 3 6.72 3 7V7.5H3.5498C3.6498 6.64 3.98 5.85996 4.5 5.20996L4.11035 4.82031L3.75977 5.16992C3.55976 5.36985 3.24978 5.3699 3.0498 5.16992C2.84998 4.96995 2.84994 4.65992 3.0498 4.45996L4.45996 3.0498C4.65992 2.84992 4.96994 2.84996 5.16992 3.0498C5.36989 3.24978 5.36984 3.55976 5.16992 3.75977L4.82031 4.11035L5.20996 4.5C5.84996 3.98 6.64 3.6498 7.5 3.5498V3H7C6.72 3 6.5 2.78 6.5 2.5C6.5 2.22 6.72 2 7 2H9ZM7 6.5C6.17 6.5 5.5 7.17 5.5 8C5.5 8.83 6.17 9.5 7 9.5C7.83 9.5 8.5 8.83 8.5 8C8.5 7.17 7.83 6.5 7 6.5ZM10 8.5C9.72 8.5 9.5 8.72 9.5 9C9.5 9.28 9.72 9.5 10 9.5C10.28 9.5 10.5 9.28 10.5 9C10.5 8.72 10.28 8.5 10 8.5ZM9 5.5C8.72 5.5 8.5 5.72 8.5 6C8.5 6.28 8.72 6.5 9 6.5C9.28 6.5 9.5 6.28 9.5 6C9.5 5.72 9.28 5.5 9 5.5Z" fill="black"/>
</svg>
