<svg width="16" height="16" viewBox="0 0 16 16" fill="none" xmlns="http://www.w3.org/2000/svg">
<path fill-rule="evenodd" clip-rule="evenodd" d="M10.29 2.71047C10.68 2.32047 11.3199 2.32047 11.7099 2.71047L13.29 4.28957C13.68 4.67957 13.68 5.32047 13.29 5.71047L12 6.99953L10.3896 10.2105C10.1396 10.7101 9.69001 11.0897 9.15037 11.2398L3.8701 12.7495C3.49023 12.8595 3.14033 12.5102 3.24998 12.1304L4.75975 6.85012C4.90975 6.31012 5.29002 5.85988 5.79002 5.60988L8.99998 3.99953L10.29 2.71047ZM7.34959 8.64992C7.15963 8.45024 6.84032 8.45021 6.65037 8.64992L4.55955 10.73C4.35988 10.9299 4.35989 11.24 4.55955 11.44C4.65955 11.54 4.79014 11.5904 4.91014 11.5904C5.0401 11.5903 5.17052 11.5399 5.27049 11.44L7.34959 9.35012C7.54959 9.16012 7.54959 8.83992 7.34959 8.64992ZM10.1797 4.48C9.98971 4.28023 9.67042 4.28025 9.48045 4.48C9.38055 4.56991 9.33016 4.69974 9.33006 4.82961C9.33006 4.95961 9.38045 5.0902 9.48045 5.1802L10.8203 6.52004C11.0103 6.71988 11.3305 6.71999 11.5205 6.52004C11.7202 6.33007 11.7202 6.00979 11.5205 5.81984L10.1797 4.48Z" fill="currentColor"/>
</svg>
