<svg width="16" height="16" viewBox="0 0 16 16" fill="none" xmlns="http://www.w3.org/2000/svg">
<path fill-rule="evenodd" clip-rule="evenodd" d="M2.9197 3.07975C3.97956 2.75979 5.08977 3.36984 5.40993 4.41959C5.5265 4.80573 5.51845 5.19849 5.41189 5.55729L7.29958 6.6901L10.7097 4.86002C11.1496 4.62008 11.6298 4.49973 12.1297 4.49967H14.4002C14.65 4.4998 14.7498 4.82958 14.5301 4.95963L9.48025 7.99967L14.5301 11.0397C14.75 11.1697 14.6501 11.4995 14.4002 11.4997H12.1297C11.6298 11.4996 11.1496 11.3702 10.7097 11.1403L7.29958 9.31022L5.42165 10.4352C5.52917 10.796 5.53706 11.1909 5.4197 11.5797C5.1597 12.4497 4.35978 13.0104 3.49978 13.0104V12.9997C3.30996 12.9996 3.12026 12.9695 2.93044 12.9196C1.8706 12.5996 1.26994 11.4902 1.58962 10.4303C1.75064 9.89697 2.11215 9.47978 2.56618 9.23795C2.58032 9.22818 2.59481 9.21814 2.61013 9.20963L4.8699 7.99967L2.61013 6.78971L2.60915 6.78873C2.13012 6.55058 1.74529 6.12355 1.57986 5.56998C1.25994 4.51011 1.86991 3.39986 2.9197 3.07975ZM3.4949 9.99967C3.06694 10.0019 2.66937 10.2815 2.53982 10.7096C2.37985 11.2395 2.67994 11.7997 3.20974 11.9499C3.73974 12.1099 4.29997 11.8099 4.44997 11.2799C4.60997 10.7499 4.31005 10.1897 3.78005 10.0397C3.69152 10.0102 3.59325 9.99999 3.4949 9.99967ZM3.49978 3.99967C3.40986 3.99969 3.30962 4.00974 3.20974 4.03971C2.68001 4.19978 2.38007 4.75989 2.53982 5.28971C2.6998 5.81966 3.25986 6.11953 3.78982 5.95963C4.31973 5.79966 4.61957 5.2403 4.45974 4.72037C4.32974 4.29037 3.92978 4.01041 3.49978 4.01041V3.99967Z" fill="black"/>
</svg>
