<svg width="16" height="16" viewBox="0 0 16 16" fill="none" xmlns="http://www.w3.org/2000/svg">
<path d="M7.99949 11.4995C8.55162 11.4995 8.99923 11.9474 8.99949 12.4995C8.99949 13.0518 8.55177 13.4995 7.99949 13.4995C7.44739 13.4993 6.99949 13.0516 6.99949 12.4995C6.99974 11.9476 7.44755 11.4997 7.99949 11.4995Z" fill="black"/>
<path d="M8.11961 2.99948C9.72961 3.05948 11.0195 4.44026 10.9995 6.05026C10.9794 7.34012 10.1594 8.41983 8.99949 8.81979V9.49948C8.99949 9.77948 8.77949 9.99948 8.49949 9.99948H7.49949C7.2197 9.99925 6.99949 9.77934 6.99949 9.49948V8.67038C6.99949 7.97038 7.43008 7.31983 8.10008 7.10983C8.76967 6.8999 8.95962 6.50019 8.98972 6.13034C9.03972 5.60042 8.70002 5.1101 8.18015 5.01999C7.66019 4.93 7.23006 5.21993 7.06004 5.64987C6.98004 5.84987 6.79957 5.99948 6.57957 5.99948H5.53953C5.22971 5.99925 4.9903 5.71951 5.05027 5.40964C5.33039 3.99992 6.59988 2.93966 8.11961 2.99948Z" fill="black"/>
</svg>
