<svg width="16" height="16" viewBox="0 0 16 16" fill="none" xmlns="http://www.w3.org/2000/svg">
<path d="M14.5697 5.75036C14.7097 5.51036 15.0104 5.42969 15.2504 5.56969C15.4902 5.70974 15.57 6.01042 15.4301 6.25036C14.9371 7.10632 14.346 7.85804 13.683 8.4945L14.64 9.68005C14.81 9.89005 14.7797 10.2103 14.5697 10.3802C14.4798 10.46 14.37 10.4896 14.2602 10.4896V10.5004C14.1102 10.5004 13.9695 10.4399 13.8695 10.3099L12.9281 9.14489C12.219 9.69087 11.4463 10.1158 10.6322 10.4076L11.0902 11.8402C11.17 12.1001 11.03 12.3801 10.7602 12.4701C10.7102 12.4901 10.6598 12.4896 10.6098 12.4896V12.5004C10.3998 12.5003 10.2003 12.3597 10.1303 12.1498L9.66251 10.6879C9.11963 10.8072 8.56373 10.8695 8.0004 10.8695C7.43759 10.8695 6.88168 10.8074 6.33927 10.6879L5.86954 12.1595C5.79954 12.3695 5.61003 12.5101 5.39005 12.5101V12.5004C5.39005 12.5004 5.28966 12.4998 5.23966 12.4798C4.9799 12.3997 4.82969 12.1098 4.90958 11.85L5.36954 10.4076C4.55704 10.1157 3.7856 9.69044 3.07755 9.14587L2.13028 10.3197C2.03028 10.4397 1.88966 10.5101 1.73966 10.5101V10.5004C1.62981 10.5003 1.51998 10.4599 1.43009 10.39C1.2201 10.22 1.17982 9.89981 1.35977 9.68981L2.32267 8.49645C1.65719 7.85896 1.06422 7.10604 0.569736 6.25036C0.429736 6.01036 0.5104 5.70969 0.7504 5.56969C0.990329 5.43003 1.29017 5.5105 1.43009 5.75036C2.92011 8.33014 5.38052 9.8695 8.0004 9.8695C9.68253 9.86939 11.2974 9.23343 12.6332 8.09606C12.648 8.08021 12.6628 8.06413 12.6801 8.05016C12.6921 8.04047 12.7055 8.03317 12.7182 8.02477C13.4282 7.40346 14.0566 6.63873 14.5697 5.75036Z" fill="black"/>
</svg>
