<svg width="16" height="16" viewBox="0 0 16 16" fill="none" xmlns="http://www.w3.org/2000/svg">
<path fill-rule="evenodd" clip-rule="evenodd" d="M8.00006 1C10.6315 1.00003 12.7881 3.03643 12.9835 5.61816C15.1288 7.07617 15.8177 9.96796 14.5001 12.25C13.5801 13.8499 11.8901 14.7499 10.1602 14.75C9.42773 14.75 8.68785 14.5861 7.99811 14.2529C7.30417 14.5859 6.5722 14.75 5.8399 14.75C4.10995 14.75 2.43006 13.8499 1.50006 12.25C0.182601 9.96832 0.871092 7.07737 3.01568 5.61914C3.21052 3.0369 5.36822 1 8.00006 1ZM3.07525 6.8623C1.77364 8.10477 1.43445 10.1231 2.37994 11.75C3.31765 13.3782 5.23595 14.0966 6.9649 13.5859C5.9098 12.706 5.28775 11.4485 5.18561 10.1309C4.09286 9.38463 3.31117 8.21729 3.07525 6.8623ZM12.9239 6.8623C12.6879 8.21747 11.9065 9.38467 10.8135 10.1309C10.7114 11.4475 10.0909 12.7042 9.03717 13.584C10.7655 14.0893 12.6829 13.3775 13.6202 11.75C14.5571 10.123 14.2236 8.10474 12.9239 6.8623ZM9.72369 10.6934C9.18619 10.891 8.60585 11 8.00006 11C7.39549 11 6.81594 10.8922 6.27936 10.6953C6.51408 11.6625 7.10651 12.5397 8.00006 13.1113C8.89433 12.5393 9.48811 11.6612 9.72369 10.6934ZM8.00006 6.3877C7.48 6.72143 7.02971 7.18017 6.70025 7.75C6.37152 8.3208 6.19921 8.93983 6.16998 9.55664C6.71845 9.83928 7.34026 10 8.00006 10C8.66112 9.99999 9.28383 9.83835 9.83307 9.55469C9.80334 8.93854 9.63122 8.32018 9.29986 7.75C8.97043 7.18018 8.52009 6.72144 8.00006 6.3877ZM10.17 5.75C9.78671 5.75 9.40631 5.80739 9.0401 5.91504C9.47725 6.28067 9.85883 6.72804 10.1602 7.25C10.4632 7.77475 10.6594 8.33202 10.7569 8.89648C11.4766 8.21128 11.9425 7.26177 11.9952 6.20215C11.4106 5.90153 10.7822 5.75 10.17 5.75ZM5.83014 5.75C5.20943 5.75 4.58049 5.89214 4.00396 6.19824C4.05565 7.25873 4.5215 8.20956 5.24127 8.89551C5.33885 8.33123 5.53702 7.77457 5.8399 7.25C6.14117 6.72823 6.52209 6.2806 6.95904 5.91504C6.59311 5.80755 6.21309 5.75002 5.83014 5.75ZM8.00006 2C6.11617 2 4.53823 3.30091 4.11334 5.05371C5.4047 4.58028 6.8073 4.67297 8.00006 5.24609C9.19257 4.67314 10.5947 4.5806 11.8858 5.05371C11.4608 3.30103 9.88385 2.00003 8.00006 2Z" fill="black"/>
</svg>
