<svg width="16" height="16" viewBox="0 0 16 16" fill="none" xmlns="http://www.w3.org/2000/svg">
<path d="M4 11.5C4.55228 11.5 5 11.9477 5 12.5C5 13.0523 4.55228 13.5 4 13.5C3.44772 13.5 3 13.0523 3 12.5C3 11.9477 3.44772 11.5 4 11.5Z" fill="currentColor"/>
<path d="M8 11.5C8.55228 11.5 9 11.9477 9 12.5C9 13.0523 8.55228 13.5 8 13.5C7.44772 13.5 7 13.0523 7 12.5C7 11.9477 7.44772 11.5 8 11.5Z" fill="currentColor"/>
<path d="M12 11.5C12.5523 11.5 13 11.9477 13 12.5C13 13.0523 12.5523 13.5 12 13.5C11.4477 13.5 11 13.0523 11 12.5C11 11.9477 11.4477 11.5 12 11.5Z" fill="currentColor"/>
<path d="M4.5 3C4.77614 3 5 3.22386 5 3.5V9.5C5 9.77614 4.77614 10 4.5 10H3.5C3.22386 10 3 9.77614 3 9.5V3.5C3 3.22386 3.22386 3 3.5 3H4.5Z" fill="currentColor"/>
<path d="M8.5 3C8.77614 3 9 3.22386 9 3.5V9.5C9 9.77614 8.77614 10 8.5 10H7.5C7.22386 10 7 9.77614 7 9.5V3.5C7 3.22386 7.22386 3 7.5 3H8.5Z" fill="currentColor"/>
<path d="M12.5 3C12.7761 3 13 3.22386 13 3.5V9.5C13 9.77614 12.7761 10 12.5 10H11.5C11.2239 10 11 9.77614 11 9.5V3.5C11 3.22386 11.2239 3 11.5 3H12.5Z" fill="currentColor"/>
</svg>
