<svg width="16" height="16" viewBox="0 0 16 16" fill="none" xmlns="http://www.w3.org/2000/svg">
<path d="M4 11C4.55228 11 5 11.4477 5 12C5 12.5523 4.55228 13 4 13C3.44772 13 3 12.5523 3 12C3 11.4477 3.44772 11 4 11Z" fill="black"/>
<path d="M12.5 11C12.7761 11 13 11.2239 13 11.5V12.5C13 12.7761 12.7761 13 12.5 13H6.5C6.22386 13 6 12.7761 6 12.5V11.5C6 11.2239 6.22386 11 6.5 11H12.5Z" fill="black"/>
<path d="M4 7C4.55228 7 5 7.44772 5 8C5 8.55228 4.55228 9 4 9C3.44772 9 3 8.55228 3 8C3 7.44772 3.44772 7 4 7Z" fill="black"/>
<path d="M12.5 7C12.7761 7 13 7.22386 13 7.5V8.5C13 8.77614 12.7761 9 12.5 9H6.5C6.22386 9 6 8.77614 6 8.5V7.5C6 7.22386 6.22386 7 6.5 7H12.5Z" fill="black"/>
<path d="M4 3C4.55228 3 5 3.44772 5 4C5 4.55228 4.55228 5 4 5C3.44772 5 3 4.55228 3 4C3 3.44772 3.44772 3 4 3Z" fill="black"/>
<path d="M12.5 3C12.7761 3 13 3.22386 13 3.5V4.5C13 4.77614 12.7761 5 12.5 5H6.5C6.22386 5 6 4.77614 6 4.5V3.5C6 3.22386 6.22386 3 6.5 3H12.5Z" fill="black"/>
</svg>
