<svg width="16" height="16" viewBox="0 0 16 16" fill="none" xmlns="http://www.w3.org/2000/svg">
<path d="M11.9096 8.59954L13.0697 9.37981C13.5197 9.67981 13.5197 10.3298 13.0697 10.6298L8.69961 13.54C8.27965 13.8198 7.72986 13.8199 7.30996 13.54L2.93984 10.6298C2.49006 10.3298 2.48998 9.67979 2.93984 9.37981L4.1 8.59954L7.17031 10.6503C7.67027 10.9901 8.33059 10.9902 8.83047 10.6503L11.8998 8.59954H11.9096Z" fill="currentColor"/>
<path d="M7.30996 2.45989C7.72985 2.17996 8.27965 2.18011 8.69961 2.45989L13.0697 5.37005C13.5197 5.67005 13.5197 6.32005 13.0697 6.62005L8.69961 9.5302C8.27968 9.80992 7.72982 9.81008 7.30996 9.5302L2.93984 6.62005C2.49 6.32005 2.49005 5.67007 2.93984 5.37005L7.30996 2.45989Z" fill="currentColor"/>
</svg>
