<svg width="16" height="16" viewBox="0 0 16 16" fill="none" xmlns="http://www.w3.org/2000/svg">
<path d="M5.31018 9.65029C5.54018 9.25029 5.82983 9.2501 5.94983 9.4501L8.31018 13.5399C8.42009 13.7299 8.29 13.9899 8.06018 13.9901C6.62018 14.0001 5.18948 13.4997 4.08948 12.5497C3.90983 12.3996 3.86996 12.1294 3.98987 11.9296L5.31018 9.65029Z" fill="currentColor"/>
<path d="M12.9596 10.4999C13.1896 10.4999 13.3401 10.7403 13.2301 10.9403C12.5201 12.2003 11.3698 13.18 9.98987 13.6601C9.76987 13.7401 9.52002 13.6396 9.40002 13.4296L8.08948 11.1503C7.85948 10.7503 8.0001 10.4999 8.2301 10.4999H12.9596Z" fill="currentColor"/>
<path d="M5.22034 6.49014C5.67999 6.4903 5.82956 6.74039 5.70959 6.94033L5.72034 6.9501L3.35998 11.0399C3.24998 11.2299 2.95948 11.2497 2.83948 11.0497C2.10974 9.80991 1.83038 8.32023 2.10022 6.89053C2.1402 6.66066 2.34965 6.49033 2.58948 6.49014H5.22034Z" fill="currentColor"/>
<path d="M12.6393 4.95986C12.7493 4.76986 13.0398 4.7501 13.1598 4.9501C13.8898 6.19009 14.17 7.68026 13.9 9.11025C13.86 9.34019 13.6497 9.50965 13.4098 9.50967H10.7799C10.3201 9.50967 10.17 9.2604 10.2897 9.06045L10.2799 9.04971L12.6393 4.95986Z" fill="currentColor"/>
<path d="M7.94006 2.00967C9.37996 1.99974 10.8099 2.50016 11.9098 3.4501C12.0898 3.6001 12.1294 3.87022 12.0094 4.07021L10.6901 6.35049C10.4601 6.75031 10.1694 6.74968 10.0494 6.54971L7.69006 2.45986C7.5801 2.26987 7.71008 2.00967 7.94006 2.00967Z" fill="currentColor"/>
<path d="M6.0094 2.33974C6.22938 2.25975 6.47923 2.36025 6.59924 2.57021L7.74963 4.56045C8.04938 5.09031 7.80925 5.4999 7.42932 5.4999H3.03967C2.80972 5.49989 2.66026 5.26042 2.77014 5.06045C3.48011 3.8005 4.62947 2.81977 6.0094 2.33974Z" fill="currentColor"/>
</svg>
