<svg width="16" height="16" viewBox="0 0 16 16" fill="none" xmlns="http://www.w3.org/2000/svg">
<path d="M7.99958 11.4995C8.55171 11.4995 8.99933 11.9474 8.99958 12.4995C8.99958 13.0518 8.55187 13.4995 7.99958 13.4995C7.44748 13.4993 6.99958 13.0516 6.99958 12.4995C6.99984 11.9476 7.44764 11.4997 7.99958 11.4995Z" fill="currentColor"/>
<path d="M8.1197 2.99948C9.7297 3.05948 11.0196 4.44026 10.9996 6.05026C10.9794 7.34012 10.1595 8.41983 8.99958 8.81979V9.49948C8.99958 9.77948 8.77958 9.99948 8.49958 9.99948H7.49958C7.21979 9.99925 6.99958 9.77934 6.99958 9.49948V8.67038C6.99958 7.97038 7.43017 7.31983 8.10017 7.10983C8.76977 6.8999 8.95971 6.50019 8.98982 6.13034C9.03981 5.60042 8.70011 5.1101 8.18025 5.01999C7.66028 4.93 7.23015 5.21993 7.06013 5.64987C6.98013 5.84987 6.79966 5.99948 6.57966 5.99948H5.53962C5.2298 5.99925 4.99039 5.71951 5.05036 5.40964C5.33049 3.99992 6.59997 2.93966 8.1197 2.99948Z" fill="currentColor"/>
</svg>
