<svg width="16" height="16" viewBox="0 0 16 16" fill="none" xmlns="http://www.w3.org/2000/svg">
<path fill-rule="evenodd" clip-rule="evenodd" d="M3.34961 6.65041C3.34961 3.86048 5.81 1.64995 8.66992 2.04983H8.67969C11.0097 2.37983 12.6704 4.33045 12.6504 6.69045C12.6403 7.48027 12.46 8.25003 12.0801 8.8799C11.3401 10.0999 9.29016 13.1104 8.41016 14.4004C8.21013 14.6901 7.78983 14.6902 7.58984 14.4004C6.70984 13.1104 4.65992 10.0999 3.91992 8.8799C3.53005 8.24004 3.34967 7.46021 3.34961 6.65041ZM8 9.25002C7.59004 9.25007 7.25 9.59005 7.25 10C7.25 10.41 7.59004 10.75 8 10.75C8.41 10.75 8.75 10.41 8.75 10C8.75 9.59002 8.41 9.25002 8 9.25002ZM8 3.74026C6.90004 3.74031 6 4.64029 6 5.74026C6.00012 6.02012 6.22012 6.24021 6.5 6.24026C6.77992 6.24026 6.99988 6.02015 7 5.74026C7 5.19029 7.46004 4.74031 8 4.74026C8.53991 4.74026 8.99984 5.17988 9 5.71975V5.75002C9 6.07002 8.76016 6.3803 8.41016 6.5303L8.16016 6.6299C7.76016 6.7999 7.5 7.19014 7.5 7.62014V7.99026C7.50012 8.27012 7.72012 8.49021 8 8.49026C8.27992 8.49026 8.49988 8.27015 8.5 7.99026L8.54004 7.55959L8.79004 7.45998C9.50995 7.16002 9.98988 6.50019 10 5.7803V5.74026C10 4.64026 9.1 3.74026 8 3.74026Z" fill="currentColor"/>
</svg>
