<svg width="16" height="16" viewBox="0 0 16 16" fill="none" xmlns="http://www.w3.org/2000/svg">
<path fill-rule="evenodd" clip-rule="evenodd" d="M9.23047 3.22998C10.2004 2.26025 11.7896 2.26025 12.7695 3.22998C13.2394 3.69988 13.4999 4.32967 13.5 4.99951C13.5 5.66951 13.2395 6.30002 12.7695 6.77002L11.7695 7.77002C11.2796 8.25984 10.6399 8.49951 10 8.49951C9.519 8.49951 9.03841 8.36375 8.62109 8.08838L8.08789 8.62158C8.35488 9.02615 8.49992 9.50136 8.5 9.99951C8.5 10.6695 8.23953 11.3 7.76953 11.77L6.76953 12.77C6.27957 13.2598 5.63988 13.4995 5 13.4995C4.36012 13.4995 3.72043 13.2598 3.23047 12.77C2.76047 12.3 2.5 11.6695 2.5 10.9995C2.50011 10.3297 2.76057 9.69988 3.23047 9.22998L4.23047 8.22998C5.07949 7.38116 6.40283 7.27544 7.37695 7.91259L7.91113 7.37842C7.64422 6.97381 7.5 6.49766 7.5 5.99951C7.50011 5.32967 7.76057 4.69988 8.23047 4.22998L9.23047 3.22998ZM6 8.49951C5.62009 8.49951 5.23041 8.65008 4.94043 8.93994L3.94043 9.93994C3.66053 10.2198 3.50011 10.5997 3.5 10.9995C3.5 11.3995 3.66043 11.7801 3.94043 12.0601C4.52037 12.6397 5.47963 12.6397 6.05957 12.0601L7.05957 11.0601C7.33957 10.7801 7.5 10.3995 7.5 9.99951C7.49994 9.77388 7.44724 9.55545 7.35254 9.35693L6.36035 10.3501C6.26035 10.4501 6.12977 10.4995 6.00977 10.4995H6C5.87011 10.4995 5.74038 10.4499 5.65039 10.3501C5.45039 10.1501 5.45039 9.84013 5.65039 9.64013L6.64258 8.64697C6.4388 8.55016 6.21796 8.49951 6 8.49951ZM11 3.49951C10.6201 3.49951 10.2304 3.65008 9.94043 3.93994L8.94043 4.93994C8.66053 5.21984 8.50011 5.59967 8.5 5.99951C8.5 6.22502 8.55292 6.44363 8.64746 6.64209L9.65039 5.64013C9.85039 5.44025 10.1604 5.44017 10.3604 5.64013C10.5601 5.8401 10.5601 6.15018 10.3604 6.35009L9.3584 7.35107C9.91457 7.61152 10.6038 7.51558 11.0596 7.06006L12.0596 6.06006C12.3396 5.78006 12.5 5.39951 12.5 4.99951C12.4999 4.59967 12.3395 4.21984 12.0596 3.93994C11.7696 3.65008 11.3799 3.49951 11 3.49951Z" fill="black"/>
</svg>
