<svg width="16" height="16" viewBox="0 0 16 16" fill="none" xmlns="http://www.w3.org/2000/svg">
<path d="M10.69 6.69001C10.31 6.69001 9.95 6.79001 9.63 6.96001C10.05 6.54001 10.31 5.96001 10.31 5.32001C10.31 4.04001 9.27 3.01001 8 3.01001C6.73 3.01001 5.69 4.05001 5.69 5.32001C5.69 5.96001 5.95 6.54001 6.37 6.96001C6.05 6.79001 5.7 6.69001 5.31 6.69001C4.03 6.69001 3 7.73001 3 9.00001C3 10.27 4.04 11.31 5.31 11.31C6.1 11.31 6.79001 10.92 7.21001 10.32L6 13H10L8.78999 10.32C9.20999 10.92 9.9 11.31 10.69 11.31C11.97 11.31 13 10.27 13 9.00001C13 7.73001 11.96 6.69001 10.69 6.69001Z" stroke="black" stroke-linecap="round" stroke-linejoin="round"/>
</svg>
