<svg width="16" height="16" viewBox="0 0 16 16" fill="none" xmlns="http://www.w3.org/2000/svg">
<path d="M12.7998 1.48047C13.0759 1.48047 13.2998 1.70433 13.2998 1.98047V4.81055C13.2996 5.02824 13.1587 5.22129 12.9512 5.28711C12.7434 5.35277 12.5161 5.27575 12.3906 5.09766C11.3561 3.62682 9.81046 2.5 8 2.5C4.9663 2.5 2.50025 4.96636 2.5 8C2.50025 11.0336 4.9663 13.5 8 13.5C11.0337 13.5 13.4998 11.0336 13.5 8C13.5003 7.72407 13.724 7.5 14 7.5C14.276 7.5 14.4997 7.72407 14.5 8C14.4998 11.5859 11.586 14.5 8 14.5C4.41401 14.5 1.50025 11.5859 1.5 8C1.50025 4.41407 4.41401 1.5 8 1.5C9.72443 1.5 11.1921 2.32034 12.2998 3.43652V1.98047C12.2998 1.70439 12.5237 1.48057 12.7998 1.48047Z" fill="currentColor"/>
<path d="M9.99121 5.50977C10.2189 5.55653 10.3896 5.7585 10.3896 6C10.3896 6.2415 10.2189 6.44347 9.99121 6.49023L9.88965 6.5H8.57227L8.51172 7.28027H8.99023C9.77049 7.2804 10.4497 7.83662 10.5801 8.6084L10.5986 8.76562V8.76758C10.6336 9.30096 10.4327 9.75037 10.0898 10.0576C9.75738 10.3555 9.3158 10.5 8.87988 10.5C8.1729 10.4999 7.47226 10.0398 7.2373 9.36426C7.14669 9.10349 7.28515 8.81826 7.5459 8.72754C7.80664 8.63699 8.09192 8.77541 8.18262 9.03613C8.26786 9.28036 8.56717 9.49994 8.87988 9.5C9.10387 9.5 9.29783 9.42453 9.42285 9.3125C9.53726 9.20985 9.61543 9.05921 9.60059 8.83301C9.57818 8.5266 9.31683 8.28041 8.99023 8.28027H8.20996C7.78251 8.28025 7.45935 7.91513 7.49121 7.50098L7.61133 5.96094L7.62793 5.86621C7.68676 5.65359 7.88205 5.50002 8.11035 5.5H9.88965L9.99121 5.50977Z" fill="currentColor"/>
<path d="M5.64648 5.64648C5.78948 5.50349 6.00457 5.4607 6.19141 5.53809C6.3782 5.61549 6.5 5.7978 6.5 6V9.91016C6.49991 10.1862 6.27608 10.4102 6 10.4102C5.72391 10.4102 5.50009 10.1862 5.5 9.91016V7.20703L5.35352 7.35352C5.15826 7.54877 4.84175 7.54877 4.64648 7.35352C4.45122 7.15825 4.45123 6.84175 4.64648 6.64648L5.64648 5.64648Z" fill="currentColor"/>
</svg>
