<svg width="16" height="16" viewBox="0 0 16 16" fill="none" xmlns="http://www.w3.org/2000/svg">
<path d="M5.64648 9.64648C5.84175 9.45122 6.15825 9.45122 6.35352 9.64648C6.54877 9.84175 6.54878 10.1583 6.35352 10.3535L3.20703 13.5H5C5.27614 13.5 5.5 13.7239 5.5 14C5.5 14.2761 5.27614 14.5 5 14.5H2C1.96695 14.5 1.93389 14.4967 1.90137 14.4902C1.85024 14.48 1.80299 14.4601 1.75879 14.4355C1.71891 14.4134 1.68034 14.3874 1.64648 14.3535C1.6123 14.3193 1.58569 14.2805 1.56348 14.2402C1.53909 14.196 1.51889 14.1488 1.50879 14.0977C1.50242 14.0655 1.5 14.0327 1.5 14V11C1.5 10.7239 1.72386 10.5 2 10.5C2.27614 10.5 2.5 10.7239 2.5 11V12.793L5.64648 9.64648Z" fill="black"/>
<path d="M9.64648 9.64648C9.84175 9.45122 10.1583 9.45122 10.3535 9.64648L13.5 12.793V11C13.5 10.7239 13.7239 10.5 14 10.5C14.2761 10.5 14.5 10.7239 14.5 11V14C14.5 14.0327 14.4966 14.0654 14.4902 14.0977C14.4801 14.1488 14.46 14.196 14.4355 14.2402C14.4134 14.2804 14.3876 14.3194 14.3535 14.3535C14.3194 14.3876 14.2804 14.4134 14.2402 14.4355C14.196 14.46 14.1488 14.4801 14.0977 14.4902C14.0654 14.4966 14.0327 14.5 14 14.5H11C10.7239 14.5 10.5 14.2761 10.5 14C10.5 13.7239 10.7239 13.5 11 13.5H12.793L9.64648 10.3535C9.45122 10.1583 9.45122 9.84175 9.64648 9.64648Z" fill="black"/>
<path d="M5 1.5C5.27614 1.5 5.5 1.72386 5.5 2C5.5 2.27614 5.27614 2.5 5 2.5H3.20703L6.35352 5.64648C6.54877 5.84175 6.54878 6.15826 6.35352 6.35352C6.15826 6.54878 5.84175 6.54877 5.64648 6.35352L2.5 3.20703V5C2.5 5.27614 2.27614 5.5 2 5.5C1.72386 5.5 1.5 5.27614 1.5 5V2C1.5 1.96701 1.5023 1.93383 1.50879 1.90137C1.51898 1.85033 1.53903 1.80293 1.56348 1.75879C1.58563 1.71875 1.61251 1.68046 1.64648 1.64648C1.68046 1.61251 1.71875 1.58563 1.75879 1.56348C1.80293 1.53903 1.85033 1.51898 1.90137 1.50879C1.93383 1.5023 1.96701 1.5 2 1.5H5Z" fill="black"/>
<path d="M14 1.5C14.0327 1.5 14.0655 1.50242 14.0977 1.50879C14.1488 1.51889 14.196 1.53909 14.2402 1.56348C14.2805 1.58569 14.3193 1.6123 14.3535 1.64648C14.3874 1.68034 14.4134 1.71891 14.4355 1.75879C14.4601 1.80299 14.48 1.85024 14.4902 1.90137C14.4967 1.93389 14.5 1.96695 14.5 2V5C14.5 5.27614 14.2761 5.5 14 5.5C13.7239 5.5 13.5 5.27614 13.5 5V3.20703L10.3535 6.35352C10.1583 6.54878 9.84175 6.54877 9.64648 6.35352C9.45122 6.15825 9.45122 5.84175 9.64648 5.64648L12.793 2.5H11C10.7239 2.5 10.5 2.27614 10.5 2C10.5 1.72386 10.7239 1.5 11 1.5H14Z" fill="black"/>
</svg>
