<svg width="16" height="16" viewBox="0 0 16 16" fill="none" xmlns="http://www.w3.org/2000/svg">
<path fill-rule="evenodd" clip-rule="evenodd" d="M6.5 3.5C7.60457 3.5 8.5 4.39543 8.5 5.5C8.5 6.60457 7.60457 7.5 6.5 7.5C5.39543 7.5 4.5 6.60457 4.5 5.5C4.5 4.39543 5.39543 3.5 6.5 3.5ZM6.5 4.5C5.94772 4.5 5.5 4.94772 5.5 5.5C5.5 6.05228 5.94772 6.5 6.5 6.5C7.05228 6.5 7.5 6.05228 7.5 5.5C7.5 4.94772 7.05228 4.5 6.5 4.5Z" fill="black"/>
<path fill-rule="evenodd" clip-rule="evenodd" d="M12 1.5C12.8284 1.5 13.5 2.17157 13.5 3V10.9004C13.5132 10.9657 13.5131 11.0333 13.5 11.0986V13C13.5 13.8284 12.8284 14.5 12 14.5H4C3.17157 14.5 2.5 13.8284 2.5 13V3C2.5 2.17157 3.17157 1.5 4 1.5H12ZM10.0039 8.7041L5.20703 13.5H12C12.2761 13.5 12.5 13.2761 12.5 13V11.1973L10.0049 8.70215L10.0039 8.7041ZM4 2.5C3.72386 2.5 3.5 2.72386 3.5 3V13C3.5 13.2144 3.63557 13.3958 3.8252 13.4668L9.29688 7.99707C9.69214 7.60181 10.3186 7.60181 10.7139 7.99707L12.5 9.7832V3C12.5 2.72386 12.2761 2.5 12 2.5H4Z" fill="black"/>
</svg>
