<svg width="16" height="16" viewBox="0 0 16 16" fill="none" xmlns="http://www.w3.org/2000/svg">
<path d="M6 2.5C6.27614 2.5 6.5 2.72386 6.5 3V13C6.5 13.2761 6.27614 13.5 6 13.5C5.72386 13.5 5.5 13.2761 5.5 13V3C5.5 2.72386 5.72386 2.5 6 2.5Z" fill="black"/>
<path d="M8 3.5C8.27614 3.5 8.5 3.72386 8.5 4V12C8.5 12.2761 8.27614 12.5 8 12.5C7.72386 12.5 7.5 12.2761 7.5 12V4C7.5 3.72386 7.72386 3.5 8 3.5Z" fill="black"/>
<path d="M4 5.5C4.27614 5.5 4.5 5.72386 4.5 6V10C4.5 10.2761 4.27614 10.5 4 10.5C3.72386 10.5 3.5 10.2761 3.5 10V6C3.5 5.72386 3.72386 5.5 4 5.5Z" fill="black"/>
<path d="M12 5.5C12.2761 5.5 12.5 5.72386 12.5 6V10C12.5 10.2761 12.2761 10.5 12 10.5C11.7239 10.5 11.5 10.2761 11.5 10V6C11.5 5.72386 11.7239 5.5 12 5.5Z" fill="black"/>
<path d="M10 6.5C10.2761 6.5 10.5 6.72386 10.5 7V9C10.5 9.27614 10.2761 9.5 10 9.5C9.72386 9.5 9.5 9.27614 9.5 9V7C9.5 6.72386 9.72386 6.5 10 6.5Z" fill="black"/>
<path d="M2 7C2.27614 7 2.5 7.22386 2.5 7.5V8.5C2.5 8.77614 2.27614 9 2 9C1.72386 9 1.5 8.77614 1.5 8.5V7.5C1.5 7.22386 1.72386 7 2 7Z" fill="black"/>
<path d="M14 7C14.2761 7 14.5 7.22386 14.5 7.5V8.5C14.5 8.77614 14.2761 9 14 9C13.7239 9 13.5 8.77614 13.5 8.5V7.5C13.5 7.22386 13.7239 7 14 7Z" fill="black"/>
</svg>
