<svg width="16" height="16" viewBox="0 0 16 16" fill="none" xmlns="http://www.w3.org/2000/svg">
<path fill-rule="evenodd" clip-rule="evenodd" d="M11 5.5C11.2761 5.5 11.5 5.72386 11.5 6V10C11.5 10.2761 11.2761 10.5 11 10.5C10.7239 10.5 10.5 10.2761 10.5 10V8.90332L8.26562 10.3037C8.11154 10.4002 7.91691 10.4054 7.75781 10.3174C7.59881 10.2293 7.50005 10.0617 7.5 9.87988V8.90332L5.26562 10.3037C5.11154 10.4002 4.91691 10.4054 4.75781 10.3174C4.59881 10.2293 4.50005 10.0617 4.5 9.87988V6.12012L4.50488 6.05273C4.52596 5.89767 4.61864 5.75968 4.75781 5.68262C4.91694 5.59455 5.11152 5.59971 5.26562 5.69629L7.5 7.0957V6.12012L7.50488 6.05273C7.52596 5.89767 7.61864 5.75968 7.75781 5.68262C7.91694 5.59455 8.11152 5.59971 8.26562 5.69629L10.5 7.0957V6C10.5 5.72386 10.7239 5.5 11 5.5ZM5.5 8.97559L7.05762 8L5.5 7.02344V8.97559ZM8.5 8.97559L10.0576 8L8.5 7.02344V8.97559Z" fill="currentColor"/>
<path fill-rule="evenodd" clip-rule="evenodd" d="M8 1.5C11.5899 1.5 14.5 4.41015 14.5 8C14.5 11.5899 11.5899 14.5 8 14.5C4.41015 14.5 1.5 11.5899 1.5 8C1.5 4.41015 4.41015 1.5 8 1.5ZM8 2.5C4.96243 2.5 2.5 4.96243 2.5 8C2.5 11.0376 4.96243 13.5 8 13.5C11.0376 13.5 13.5 11.0376 13.5 8C13.5 4.96243 11.0376 2.5 8 2.5Z" fill="currentColor"/>
</svg>
