<svg width="16" height="16" viewBox="0 0 16 16" fill="none" xmlns="http://www.w3.org/2000/svg">
<path fill-rule="evenodd" clip-rule="evenodd" d="M6.26367 5.22949C6.42615 5.14248 6.62391 5.15178 6.77734 5.25391L10.2773 7.58398C10.4164 7.6767 10.5 7.83286 10.5 8C10.5 8.16716 10.4164 8.3233 10.2773 8.41602L6.77734 10.7461C6.6239 10.8482 6.42617 10.8575 6.26367 10.7705C6.10139 10.6834 6.00006 10.5142 6 10.3301V5.66992L6.00488 5.60156C6.02654 5.44465 6.12172 5.30566 6.26367 5.22949ZM7 9.39648L9.09766 8L7 6.60254V9.39648Z" fill="currentColor"/>
<path fill-rule="evenodd" clip-rule="evenodd" d="M13 2.5C13.8284 2.5 14.5 3.17157 14.5 4V12C14.5 12.8284 13.8284 13.5 13 13.5H3C2.17157 13.5 1.5 12.8284 1.5 12V4C1.5 3.17157 2.17157 2.5 3 2.5H13ZM2.5 12C2.5 12.2761 2.72386 12.5 3 12.5H3.5V10.5H2.5V12ZM4.5 12.5H11.5V3.5H4.5V12.5ZM12.5 10.5V12.5H13C13.2761 12.5 13.5 12.2761 13.5 12V10.5H12.5ZM12.5 9.5H13.5V6.5H12.5V9.5ZM2.5 9.5H3.5V6.5H2.5V9.5ZM3 3.5C2.72386 3.5 2.5 3.72386 2.5 4V5.5H3.5V3.5H3ZM12.5 5.5H13.5V4C13.5 3.72386 13.2761 3.5 13 3.5H12.5V5.5Z" fill="currentColor"/>
</svg>
