<svg width="16" height="16" viewBox="0 0 16 16" fill="none" xmlns="http://www.w3.org/2000/svg">
<path fill-rule="evenodd" clip-rule="evenodd" d="M7.89844 3.20167C8.56437 2.6975 9.5 3.18583 9.5 4.00049V12.0005C9.49965 12.8148 8.56423 13.303 7.89844 12.7993L4.83398 10.5005H3C2.17401 10.5005 1.50025 9.82643 1.5 9.00049V7.00049C1.5 6.17435 2.17386 5.50049 3 5.50049H4.83301L7.89844 3.20167ZM5.2998 6.39991C5.21328 6.46476 5.10813 6.50049 5 6.50049H3C2.72614 6.50049 2.5 6.72664 2.5 7.00049V9.00049C2.50025 9.27415 2.72629 9.50049 3 9.50049H5L5.08008 9.50635C5.15939 9.51922 5.23487 9.55146 5.2998 9.6001L8.5 12.0005V4.00049L5.2998 6.39991Z" fill="black"/>
<path d="M12.9863 3.646C13.1815 3.45101 13.4981 3.45106 13.6934 3.646C16.0986 6.05121 16.0984 9.94776 13.6934 12.353C13.4981 12.5483 13.1816 12.5483 12.9863 12.353C12.7913 12.1578 12.7912 11.8412 12.9863 11.646C15.0009 9.63125 15.001 6.36771 12.9863 4.35303C12.7913 4.15775 12.7912 3.84118 12.9863 3.646Z" fill="black"/>
<path d="M11.6465 5.23682C11.8417 5.04156 12.1583 5.04156 12.3535 5.23682C13.8793 6.76283 13.8772 9.23879 12.3545 10.773C12.16 10.9684 11.8433 10.9691 11.6475 10.7749C11.4518 10.5804 11.4512 10.2638 11.6455 10.0679C12.7824 8.92213 12.7802 7.07778 11.6465 5.94385C11.4513 5.74863 11.4513 5.43209 11.6465 5.23682Z" fill="black"/>
<path d="M10.2363 6.646C10.4315 6.45101 10.7481 6.45106 10.9434 6.646C11.6886 7.3912 11.6884 8.60776 10.9434 9.35303C10.7481 9.5483 10.4316 9.5483 10.2363 9.35303C10.0413 9.15775 10.0412 8.84118 10.2363 8.646C10.5909 8.29125 10.591 7.70771 10.2363 7.35303C10.0413 7.15775 10.0412 6.84118 10.2363 6.646Z" fill="black"/>
</svg>
