<svg width="16" height="16" viewBox="0 0 16 16" fill="none" xmlns="http://www.w3.org/2000/svg">
<path fill-rule="evenodd" clip-rule="evenodd" d="M12.4998 10.5002C13.0521 10.5002 13.4998 10.9479 13.4998 11.5002V13.0002C13.4998 13.5524 13.0521 14.0002 12.4998 14.0002H3.49984C2.94769 14.0001 2.49993 13.5523 2.49984 13.0002V11.5002C2.49984 10.9479 2.94763 10.5003 3.49984 10.5002H12.4998ZM3.49984 13.0002H12.4998V11.5002H3.49984V13.0002Z" fill="black"/>
<path fill-rule="evenodd" clip-rule="evenodd" d="M7.1932 2.0363C7.57384 1.53077 8.29268 1.51462 8.71371 1.94157L8.79476 2.03337L8.79574 2.03532L13.286 7.8654L13.287 7.86637C13.7972 8.5337 13.3256 9.50016 12.4793 9.50016H3.50961C2.66375 9.49984 2.19323 8.53358 2.70297 7.86637L2.70394 7.8654L7.1932 2.0363ZM7.98617 2.64567L3.49594 8.47575C3.49363 8.47899 3.49217 8.48123 3.49203 8.48161C3.49209 8.48299 3.4928 8.48797 3.49496 8.49235C3.49708 8.49643 3.49918 8.49869 3.49984 8.49919C3.5004 8.49935 3.50422 8.50013 3.50961 8.50016H12.4793L12.4891 8.49919C12.4895 8.49892 12.4926 8.49674 12.495 8.49235C12.4971 8.48793 12.497 8.48394 12.4969 8.48259C12.4967 8.48214 12.4954 8.47821 12.492 8.4738L8.00472 2.64665C8.00238 2.64371 8.00007 2.64176 7.99887 2.64079C7.99772 2.6399 7.9967 2.6392 7.99594 2.63884L7.99105 2.63786L7.98617 2.64567Z" fill="black"/>
</svg>
