<svg width="16" height="16" viewBox="0 0 16 16" fill="none" xmlns="http://www.w3.org/2000/svg">
<path fill-rule="evenodd" clip-rule="evenodd" d="M8 5.5C9.65685 5.5 11 6.84315 11 8.5C11 10.1569 9.65685 11.5 8 11.5C6.34315 11.5 5 10.1569 5 8.5C5 6.84315 6.34315 5.5 8 5.5ZM8 6.5C6.89543 6.5 6 7.39543 6 8.5C6 9.60457 6.89543 10.5 8 10.5C9.10457 10.5 10 9.60457 10 8.5C10 7.39543 9.10457 6.5 8 6.5Z" fill="currentColor"/>
<path fill-rule="evenodd" clip-rule="evenodd" d="M9.37012 2.5C9.92776 2.50004 10.4584 2.80687 10.708 3.32715L11.29 4.5H12.9805C13.8064 4.50025 14.4805 5.17401 14.4805 6V12C14.4805 12.8123 13.8286 13.4749 13.0215 13.4971C13.0143 13.4974 13.0072 13.5 13 13.5H3C2.17386 13.5 1.5 12.8261 1.5 12V6C1.5 5.17386 2.17386 4.5 3 4.5H4.68945L5.27246 3.32715C5.52846 2.81519 6.0539 2.5 6.61035 2.5H9.37012ZM6.61035 3.5C6.42741 3.5 6.25131 3.6044 6.16699 3.77148L5.44824 5.22266C5.36378 5.39269 5.18986 5.5 5 5.5H3C2.72614 5.5 2.5 5.72614 2.5 6V12C2.5 12.2739 2.72614 12.5 3 12.5H12.9805C13.2541 12.4997 13.4805 12.2737 13.4805 12V6C13.4805 5.72629 13.2541 5.50025 12.9805 5.5H10.9805C10.7907 5.5 10.6167 5.39258 10.5322 5.22266L9.8125 3.77246L9.80762 3.7627C9.73525 3.60909 9.56881 3.50004 9.37012 3.5H6.61035Z" fill="currentColor"/>
</svg>
