<svg width="16" height="16" viewBox="0 0 16 16" fill="none" xmlns="http://www.w3.org/2000/svg">
<path fill-rule="evenodd" clip-rule="evenodd" d="M8.0003 1.5C8.2763 1.50017 8.5003 1.72396 8.5003 2V2.5293C10.2616 2.73905 11.7093 4.08629 12.0032 5.87793L12.8138 10.7578C12.9641 11.6746 12.256 12.4998 11.3304 12.5H9.93487C9.71318 13.3631 8.9334 13.9999 8.0003 14C7.06712 14 6.2875 13.3631 6.06573 12.5H4.69073C3.76492 12.5 3.05701 11.6757 3.20733 10.7588L4.0169 5.87793C4.025 5.82927 4.0411 5.7837 4.06183 5.74121C4.40267 4.03105 5.80162 2.75223 7.5003 2.5332V2C7.5003 1.72386 7.72416 1.5 8.0003 1.5ZM7.13409 12.5C7.30661 12.799 7.62901 13 8.0003 13C8.3714 12.9999 8.69304 12.7989 8.86554 12.5H7.13409ZM8.01983 3.5C6.53373 3.50022 5.26394 4.57418 5.02374 6.04102C5.01627 6.08652 5.00033 6.12875 4.98175 6.16895L4.19366 10.9219C4.14464 11.2245 4.37688 11.5 4.69073 11.5H11.3304C11.6444 11.4998 11.8761 11.2238 11.8265 10.9209L11.0169 6.04199C10.7767 4.57506 9.50603 3.50012 8.01983 3.5Z" fill="currentColor"/>
</svg>
