<svg width="16" height="16" viewBox="0 0 16 16" fill="none" xmlns="http://www.w3.org/2000/svg">
<path d="M12.7998 1.48047C13.0759 1.48047 13.2998 1.70433 13.2998 1.98047V4.81055C13.2996 5.02825 13.1587 5.22129 12.9512 5.28711C12.7434 5.35277 12.5161 5.27575 12.3906 5.09766C11.3561 3.62682 9.81045 2.5 8 2.5C4.9663 2.5 2.50025 4.96636 2.5 8C2.50025 11.0336 4.9663 13.5 8 13.5C11.0337 13.5 13.4998 11.0336 13.5 8C13.5003 7.72407 13.724 7.5 14 7.5C14.276 7.5 14.4997 7.72407 14.5 8C14.4998 11.5859 11.586 14.5 8 14.5C4.41401 14.5 1.50025 11.5859 1.5 8C1.50025 4.41407 4.41401 1.5 8 1.5C9.72442 1.5 11.1921 2.32034 12.2998 3.43652V1.98047C12.2998 1.70439 12.5238 1.48058 12.7998 1.48047Z" fill="currentColor"/>
<path fill-rule="evenodd" clip-rule="evenodd" d="M9.5 5.5C10.3284 5.5 11 6.17157 11 7V9C11 9.82843 10.3284 10.5 9.5 10.5C8.67157 10.5 8 9.82843 8 9V7C8 6.17157 8.67157 5.5 9.5 5.5ZM9.5 6.5C9.22386 6.5 9 6.72386 9 7V9C9 9.27614 9.22386 9.5 9.5 9.5C9.77614 9.5 10 9.27614 10 9V7C10 6.72386 9.77614 6.5 9.5 6.5Z" fill="currentColor"/>
<path d="M6.14648 5.64648C6.28948 5.50349 6.50457 5.4607 6.69141 5.53809C6.8782 5.61549 7 5.7978 7 6V9.91016C6.99991 10.1862 6.77608 10.4102 6.5 10.4102C6.22391 10.4102 6.00009 10.1862 6 9.91016V7.20703L5.85352 7.35352C5.65826 7.54877 5.34175 7.54877 5.14648 7.35352C4.95122 7.15825 4.95123 6.84175 5.14648 6.64648L6.14648 5.64648Z" fill="currentColor"/>
</svg>
