<svg width="16" height="16" viewBox="0 0 16 16" fill="none" xmlns="http://www.w3.org/2000/svg">
<path d="M12.1465 3.14651C12.3417 2.95125 12.6583 2.95125 12.8535 3.14651L14.3535 4.64651C14.3847 4.67766 14.4095 4.71271 14.4307 4.74905C14.458 4.7958 14.4793 4.84657 14.4902 4.90139C14.5032 4.96613 14.5031 5.03292 14.4902 5.09768C14.4807 5.14575 14.4627 5.19041 14.4404 5.23245C14.4176 5.27563 14.3899 5.31719 14.3535 5.35354L12.8535 6.85354C12.6583 7.04877 12.3417 7.04877 12.1465 6.85354C11.9512 6.65828 11.9512 6.34177 12.1465 6.14651L12.793 5.50002H10.7402C9.711 5.50002 8.63035 6.36181 8.03027 7.99905C8.62068 9.63487 9.70904 10.5 10.7402 10.5H12.793L12.1465 9.85354C11.9512 9.65828 11.9512 9.34177 12.1465 9.14651C12.3417 8.95125 12.6583 8.95125 12.8535 9.14651L14.3535 10.6465C14.3874 10.6804 14.4134 10.7189 14.4355 10.7588C14.4601 10.803 14.48 10.8503 14.4902 10.9014C14.5032 10.9661 14.5031 11.0329 14.4902 11.0977C14.4801 11.1489 14.46 11.196 14.4355 11.2403C14.4134 11.2804 14.3876 11.3195 14.3535 11.3535L12.8535 12.8535C12.6583 13.0488 12.3417 13.0488 12.1465 12.8535C11.9512 12.6583 11.9512 12.3418 12.1465 12.1465L12.793 11.5H10.7402C9.39924 11.5 8.24038 10.603 7.5 9.25002C6.75962 10.603 5.60076 11.5 4.25977 11.5H2C1.72387 11.5 1.50002 11.2761 1.5 11C1.5 10.7239 1.72386 10.5 2 10.5H4.25977C5.29065 10.5 6.37724 9.63488 6.96777 8.00002C6.36776 6.3626 5.28905 5.50002 4.25977 5.50002H2C1.72387 5.50002 1.50002 5.27615 1.5 5.00002C1.5 4.72388 1.72386 4.50002 2 4.50002H4.25977C5.6039 4.50002 6.75695 5.40104 7.49902 6.75588C8.24107 5.40062 9.39592 4.50002 10.7402 4.50002H12.793L12.1465 3.85354C11.9512 3.65828 11.9512 3.34177 12.1465 3.14651Z" fill="currentColor"/>
</svg>
