<svg width="16" height="16" viewBox="0 0 16 16" fill="none" xmlns="http://www.w3.org/2000/svg">
<path d="M6.00002 9.50004C6.03269 9.50004 6.06551 9.50246 6.09768 9.50883C6.1074 9.51075 6.11649 9.51514 6.126 9.51762C6.20921 9.53927 6.28834 9.58132 6.35354 9.64652C6.38739 9.68038 6.41346 9.71894 6.43557 9.75883C6.4601 9.80303 6.48003 9.85028 6.49026 9.90141C6.49677 9.93393 6.50003 9.96699 6.50002 10V13C6.5 13.2762 6.27614 13.5 6.00002 13.5C5.72389 13.5 5.50004 13.2762 5.50002 13V11.2071L2.35354 14.3536C2.15829 14.5488 1.84177 14.5488 1.64651 14.3536C1.45125 14.1583 1.45125 13.8418 1.64651 13.6465L4.79299 10.5H3.00002C2.72389 10.5 2.50004 10.2762 2.50002 10C2.50002 9.7239 2.72388 9.50004 3.00002 9.50004H6.00002Z" fill="currentColor"/>
<path d="M13 9.50004C13.2761 9.50006 13.5 9.72391 13.5 10C13.5 10.2762 13.2761 10.5 13 10.5H11.2071L14.3535 13.6465C14.5488 13.8418 14.5488 14.1583 14.3535 14.3536C14.1583 14.5488 13.8418 14.5488 13.6465 14.3536L10.5 11.2071V13C10.5 13.2762 10.2761 13.5 10 13.5C9.72389 13.5 9.50004 13.2762 9.50002 13V10C9.50001 9.87208 9.54886 9.74417 9.64651 9.64652C9.71149 9.58154 9.79017 9.53935 9.87307 9.51762C9.88257 9.51512 9.89168 9.51077 9.90139 9.50883C9.93386 9.50234 9.96703 9.50004 10 9.50004H13Z" fill="currentColor"/>
<path d="M1.64651 1.64652C1.84177 1.45126 2.15828 1.45126 2.35354 1.64652L5.50002 4.79301V3.00004C5.50002 2.7239 5.72388 2.50004 6.00002 2.50004C6.27615 2.50006 6.50002 2.72391 6.50002 3.00004V6.00004C6.50002 6.03277 6.49665 6.06548 6.49026 6.09769C6.48012 6.14888 6.46004 6.19601 6.43557 6.24027C6.41339 6.28043 6.3876 6.31949 6.35354 6.35355C6.31948 6.38762 6.28041 6.41341 6.24026 6.43559C6.19599 6.46006 6.14886 6.48013 6.09768 6.49027C6.06546 6.49666 6.03275 6.50004 6.00002 6.50004H3.00002C2.72389 6.50004 2.50004 6.27616 2.50002 6.00004C2.50002 5.7239 2.72388 5.50004 3.00002 5.50004H4.79299L1.64651 2.35355C1.45125 2.15829 1.45125 1.84179 1.64651 1.64652Z" fill="currentColor"/>
<path d="M13.6465 1.64652C13.8418 1.45126 14.1583 1.45126 14.3535 1.64652C14.5488 1.84179 14.5488 2.15831 14.3535 2.35355L11.2071 5.50004H13C13.2761 5.50006 13.5 5.72391 13.5 6.00004C13.5 6.27615 13.2761 6.50002 13 6.50004H10C9.96698 6.50004 9.93391 6.49678 9.90139 6.49027C9.85026 6.48005 9.80302 6.46011 9.75881 6.43559C9.71893 6.41348 9.68037 6.3874 9.64651 6.35355C9.54889 6.25593 9.50003 6.12797 9.50002 6.00004V3.00004C9.50002 2.7239 9.72388 2.50004 10 2.50004C10.2761 2.50006 10.5 2.72391 10.5 3.00004V4.79301L13.6465 1.64652Z" fill="currentColor"/>
</svg>
