<svg width="16" height="16" viewBox="0 0 16 16" fill="none" xmlns="http://www.w3.org/2000/svg">
<path d="M12.7998 1.48047C13.0759 1.48047 13.2998 1.70433 13.2998 1.98047V4.81055C13.2996 5.02825 13.1587 5.22129 12.9512 5.28711C12.7434 5.35277 12.5161 5.27575 12.3906 5.09766C11.3561 3.62682 9.81045 2.5 8 2.5C4.9663 2.5 2.50025 4.96636 2.5 8C2.50025 11.0336 4.9663 13.5 8 13.5C11.0337 13.5 13.4998 11.0336 13.5 8C13.5003 7.72407 13.724 7.5 14 7.5C14.276 7.5 14.4997 7.72407 14.5 8C14.4998 11.5859 11.586 14.5 8 14.5C4.41401 14.5 1.50025 11.5859 1.5 8C1.50025 4.41407 4.41401 1.5 8 1.5C9.72442 1.5 11.1921 2.32034 12.2998 3.43652V1.98047C12.2998 1.70439 12.5238 1.48058 12.7998 1.48047Z" fill="black"/>
<path d="M7.64648 5.64648C7.78948 5.50349 8.00457 5.4607 8.19141 5.53809C8.3782 5.61549 8.5 5.7978 8.5 6V10C8.49999 10.2761 8.27613 10.5 8 10.5C7.72386 10.5 7.50001 10.2761 7.5 10V7.20703L7.35352 7.35352C7.15826 7.54877 6.84175 7.54877 6.64648 7.35352C6.45122 7.15825 6.45123 6.84175 6.64648 6.64648L7.64648 5.64648Z" fill="black"/>
</svg>
