<svg width="16" height="16" viewBox="0 0 16 16" fill="none" xmlns="http://www.w3.org/2000/svg">
<path d="M12.6498 2.65039C12.8398 2.45039 13.16 2.45039 13.35 2.65039C13.5498 2.84035 13.5498 3.15965 13.35 3.34961L10.5004 6.2002V8C10.5004 9.37987 9.38023 10.4998 8.00041 10.5C7.88041 10.5 7.75982 10.4897 7.64982 10.4697C7.26991 10.4197 6.91949 10.29 6.61955 10.0801L5.90959 10.79C6.18959 11.01 6.50049 11.18 6.83049 11.29C7.20036 11.4299 7.59056 11.5 8.00041 11.5C9.93023 11.4998 11.5004 9.92987 11.5004 8C11.5004 7.72 11.7204 7.5 12.0004 7.5C12.2802 7.5002 12.5004 7.72013 12.5004 8C12.5004 10.3099 10.7402 12.2 8.50041 12.4502V13.5H10.0004C10.2802 13.5002 10.5004 13.7201 10.5004 14C10.5004 14.2799 10.2802 14.4998 10.0004 14.5H6.00041C5.72041 14.5 5.50041 14.28 5.50041 14C5.50041 13.72 5.72041 13.5 6.00041 13.5H7.50041V12.4502C7.00056 12.3902 6.52038 12.2499 6.08049 12.04C5.76049 11.9 5.46963 11.71 5.19963 11.5L3.35002 13.3496C3.26011 13.4495 3.13028 13.4999 3.00041 13.5C2.87041 13.5 2.73982 13.4496 2.64982 13.3496C2.45022 13.1597 2.45022 12.8403 2.64982 12.6504L12.6498 2.65039Z" fill="black"/>
<path d="M4.00041 7.5C4.28022 7.5002 4.50041 7.72013 4.50041 8C4.50041 8.41 4.57037 8.79992 4.71037 9.16992L3.94963 9.92969C3.65975 9.33979 3.50041 8.68984 3.50041 8C3.50041 7.72 3.72041 7.5 4.00041 7.5Z" fill="black"/>
<path d="M8.00041 2C9.05006 2.00016 9.94967 2.64993 10.3197 3.55957L5.5297 8.34961C5.50976 8.23973 5.50041 8.11984 5.50041 8V4.5C5.50041 3.12 6.62041 2 8.00041 2Z" fill="black"/>
</svg>
