<svg width="16" height="16" viewBox="0 0 16 16" fill="none" xmlns="http://www.w3.org/2000/svg">
<path d="M12.7998 1.48047C13.0759 1.48047 13.2998 1.70433 13.2998 1.98047V4.81055C13.2996 5.02824 13.1587 5.22129 12.9512 5.28711C12.7434 5.35277 12.5161 5.27575 12.3906 5.09766C11.3561 3.62682 9.81046 2.5 8 2.5C4.9663 2.5 2.50025 4.96636 2.5 8C2.50025 11.0336 4.9663 13.5 8 13.5C11.0337 13.5 13.4998 11.0336 13.5 8C13.5003 7.72407 13.724 7.5 14 7.5C14.276 7.5 14.4997 7.72407 14.5 8C14.4998 11.5859 11.586 14.5 8 14.5C4.41401 14.5 1.50025 11.5859 1.5 8C1.50025 4.41407 4.41401 1.5 8 1.5C9.72443 1.5 11.1921 2.32034 12.2998 3.43652V1.98047C12.2998 1.70439 12.5237 1.48057 12.7998 1.48047Z" fill="black"/>
<path d="M6.00977 5.5C6.37941 5.5 6.75807 5.62158 7.0459 5.87793C7.34443 6.14398 7.51917 6.53358 7.48926 6.99219C7.47161 7.26269 7.37325 7.5081 7.22266 7.71094C7.47267 7.94188 7.6498 8.25218 7.70996 8.6084L7.72852 8.76562V8.76758C7.7635 9.30096 7.56257 9.75037 7.21973 10.0576C6.88727 10.3554 6.44566 10.5 6.00977 10.5C5.30282 10.4999 4.60213 10.0397 4.36719 9.36426C4.27661 9.10354 4.41512 8.81829 4.67578 8.72754C4.93651 8.637 5.22179 8.77543 5.3125 9.03613C5.39773 9.28033 5.69709 9.49988 6.00977 9.5C6.23371 9.5 6.42771 9.42449 6.55273 9.3125C6.66714 9.20985 6.74531 9.05921 6.73047 8.83301C6.70806 8.5266 6.44671 8.28041 6.12012 8.28027H6.09961C5.82375 8.28005 5.59976 8.05615 5.59961 7.78027C5.59961 7.50427 5.82365 7.28049 6.09961 7.28027C6.30697 7.28027 6.47892 7.11387 6.49121 6.92773L6.4873 6.8252C6.47396 6.73312 6.43245 6.67104 6.38086 6.625C6.30123 6.55408 6.16993 6.5 6.00977 6.5C5.79572 6.50012 5.5964 6.65117 5.54199 6.80566C5.45044 7.06615 5.1648 7.20283 4.9043 7.11133C4.64403 7.0198 4.50649 6.73495 4.59766 6.47461C4.8033 5.88932 5.40409 5.50011 6.00977 5.5Z" fill="black"/>
<path fill-rule="evenodd" clip-rule="evenodd" d="M10 5.5C10.8284 5.5 11.5 6.17157 11.5 7V9C11.5 9.82843 10.8284 10.5 10 10.5C9.17157 10.5 8.5 9.82843 8.5 9V7C8.5 6.17157 9.17157 5.5 10 5.5ZM10 6.5C9.72386 6.5 9.5 6.72386 9.5 7V9C9.5 9.27614 9.72386 9.5 10 9.5C10.2761 9.5 10.5 9.27614 10.5 9V7C10.5 6.72386 10.2761 6.5 10 6.5Z" fill="black"/>
</svg>
