<svg width="16" height="16" viewBox="0 0 16 16" fill="none" xmlns="http://www.w3.org/2000/svg">
<path d="M11 4.50002C12.9361 4.50002 14.5 6.06388 14.5 8.00002C14.5 9.93615 12.9361 11.5 11 11.5H9.20703L9.85352 12.1465C10.0488 12.3418 10.0488 12.6583 9.85352 12.8535C9.65826 13.0488 9.34174 13.0488 9.14648 12.8535L7.64648 11.3535C7.45123 11.1583 7.45124 10.8418 7.64648 10.6465L9.14648 9.14651C9.34175 8.95125 9.65825 8.95125 9.85352 9.14651C10.0488 9.34177 10.0488 9.65829 9.85352 9.85354L9.20703 10.5H11C12.3838 10.5 13.5 9.38386 13.5 8.00002C13.5 6.61617 12.3839 5.50002 11 5.50002H10C9.72387 5.50002 9.50002 5.27615 9.5 5.00002C9.5 4.72388 9.72386 4.50002 10 4.50002H11Z" fill="black"/>
<path d="M6.14648 3.14651C6.34175 2.95125 6.65825 2.95125 6.85352 3.14651L8.35352 4.64651C8.54875 4.84177 8.54877 5.15829 8.35352 5.35354L6.85352 6.85354C6.65826 7.04877 6.34174 7.04877 6.14648 6.85354C5.95123 6.65828 5.95124 6.34177 6.14648 6.14651L6.79297 5.50002H5C3.61614 5.50002 2.5 6.61617 2.5 8.00002C2.50002 9.38386 3.61616 10.5 5 10.5H6C6.27614 10.5 6.5 10.7239 6.5 11C6.49998 11.2761 6.27613 11.5 6 11.5H5C3.06387 11.5 1.50002 9.93615 1.5 8.00002C1.5 6.06388 3.06386 4.50002 5 4.50002H6.79297L6.14648 3.85354C5.95123 3.65828 5.95124 3.34177 6.14648 3.14651Z" fill="black"/>
</svg>
