<svg width="16" height="16" viewBox="0 0 16 16" fill="none" xmlns="http://www.w3.org/2000/svg">
<path fill-rule="evenodd" clip-rule="evenodd" d="M12.6465 2.64652C12.8417 2.45126 13.1583 2.45126 13.3535 2.64652C13.5487 2.84179 13.5488 3.15831 13.3535 3.35355L10.9443 5.76176L13.4531 4.69047L13.46 4.68754C13.9518 4.4853 14.4999 4.83653 14.5 5.37992V10.6202C14.4999 11.1644 13.9381 11.5182 13.4531 11.3086L10.5 10.0469V11C10.5 11.8262 9.82613 12.5 9 12.5H4.20703L2.35352 14.3536C2.15827 14.5488 1.84174 14.5488 1.64648 14.3536C1.45123 14.1583 1.45124 13.8418 1.64648 13.6465L2.80664 12.4854C2.07139 12.3899 1.50002 11.7606 1.5 11V5.00004C1.5 4.1739 2.17386 3.50004 3 3.50004H9C9.76056 3.50004 10.3899 4.0714 10.4854 4.80668L12.6465 2.64652ZM10.1963 7.16996C10.0419 7.23585 9.86472 7.21947 9.72461 7.12699C9.69547 7.10775 9.66957 7.08488 9.64551 7.06059L5.20703 11.5H9C9.27384 11.5 9.49998 11.2739 9.5 11V9.29008C9.5 9.12214 9.58449 8.96564 9.72461 8.87309C9.86473 8.78059 10.0419 8.76422 10.1963 8.83012L13.5 10.2422V5.75687L10.1963 7.16996ZM3 4.50004C2.72614 4.50004 2.5 4.72618 2.5 5.00004V11C2.50002 11.2739 2.72616 11.5 3 11.5H3.79297L9.5 5.79301V5.00004C9.5 4.72618 9.27386 4.50004 9 4.50004H3Z" fill="currentColor"/>
</svg>
