<svg width="16" height="16" viewBox="0 0 16 16" fill="none" xmlns="http://www.w3.org/2000/svg">
<path fill-rule="evenodd" clip-rule="evenodd" d="M5.5 4.5C6.60457 4.5 7.5 5.39543 7.5 6.5C7.5 7.60457 6.60457 8.5 5.5 8.5C4.39543 8.5 3.5 7.60457 3.5 6.5C3.5 5.39543 4.39543 4.5 5.5 4.5ZM5.5 5.5C4.94772 5.5 4.5 5.94772 4.5 6.5C4.5 7.05228 4.94772 7.5 5.5 7.5C6.05228 7.5 6.5 7.05228 6.5 6.5C6.5 5.94772 6.05228 5.5 5.5 5.5Z" fill="black"/>
<path fill-rule="evenodd" clip-rule="evenodd" d="M11 2.5C11.6529 2.5 12.207 2.91766 12.4131 3.5H13C13.8261 3.5 14.5 4.17386 14.5 5V11C14.5 11.8261 13.8261 12.5 13 12.5H12.4131C12.207 13.0823 11.6529 13.5 11 13.5H3C2.17157 13.5 1.5 12.8284 1.5 12V4C1.5 3.17157 2.17157 2.5 3 2.5H11ZM9.00391 8.7041L5.20703 12.5H11C11.2761 12.5 11.5 12.2761 11.5 12V11.1973L9.00488 8.70215L9.00391 8.7041ZM3 3.5C2.72386 3.5 2.5 3.72386 2.5 4V12C2.5 12.2761 2.72386 12.5 3 12.5H3.79297L8.29688 7.99707C8.69214 7.60181 9.31861 7.60181 9.71387 7.99707L11.5 9.7832V4C11.5 3.72386 11.2761 3.5 11 3.5H3ZM12.5 10.9004C12.5132 10.9657 12.5131 11.0333 12.5 11.0986V11.5H13C13.2739 11.5 13.5 11.2739 13.5 11V5C13.5 4.72614 13.2739 4.5 13 4.5H12.5V10.9004Z" fill="black"/>
</svg>
