<svg width="16" height="16" viewBox="0 0 16 16" fill="none" xmlns="http://www.w3.org/2000/svg">
<path d="M3.2002 1.48047C3.47625 1.48057 3.7002 1.70439 3.7002 1.98047V3.43652C4.80788 2.32034 6.27558 1.5 8 1.5C11.586 1.5 14.4997 4.41407 14.5 8C14.4998 11.5859 11.586 14.5 8 14.5C4.41401 14.5 1.50025 11.5859 1.5 8C1.50025 7.72407 1.72401 7.5 2 7.5C2.27599 7.5 2.49975 7.72407 2.5 8C2.50025 11.0336 4.9663 13.5 8 13.5C11.0337 13.5 13.4998 11.0336 13.5 8C13.4997 4.96636 11.0337 2.5 8 2.5C6.18954 2.5 4.64386 3.62682 3.60938 5.09766C3.48394 5.27575 3.25655 5.35277 3.04883 5.28711C2.8413 5.22129 2.70043 5.02825 2.7002 4.81055V1.98047C2.7002 1.70433 2.92405 1.48047 3.2002 1.48047Z" fill="black"/>
<path d="M8.88965 5.5C9.16579 5.5 9.38965 5.72386 9.38965 6C9.38965 6.27614 9.16579 6.5 8.88965 6.5H7.57227L7.51172 7.28027H7.99023C8.77051 7.2804 9.44974 7.83662 9.58008 8.6084L9.59863 8.76562V8.76758C9.63361 9.30096 9.43269 9.75037 9.08984 10.0576C8.75738 10.3555 8.3158 10.5 7.87988 10.5C7.17289 10.4999 6.47226 10.0398 6.2373 9.36426C6.14669 9.10349 6.28515 8.81826 6.5459 8.72754C6.80664 8.63699 7.09192 8.77541 7.18262 9.03613C7.26786 9.28037 7.56717 9.49994 7.87988 9.5C8.10387 9.5 8.29783 9.42453 8.42285 9.3125C8.53726 9.20985 8.61543 9.05921 8.60059 8.83301C8.57818 8.52659 8.31682 8.28041 7.99023 8.28027H7.20996C6.7825 8.28025 6.45936 7.91512 6.49121 7.50098L6.61133 5.96094L6.62793 5.86621C6.68676 5.65359 6.88205 5.50002 7.11035 5.5H8.88965Z" fill="black"/>
</svg>
