<svg width="16" height="16" viewBox="0 0 16 16" fill="none" xmlns="http://www.w3.org/2000/svg">
<path fill-rule="evenodd" clip-rule="evenodd" d="M6.52289 3.68803C7.13236 3.23462 7.99946 3.66949 7.99946 4.43022V7.01225L12.5239 3.68706C13.1333 3.23403 14.0004 3.66962 14.0004 4.43022V11.5699C14.0003 12.3094 13.142 12.7715 12.5239 12.3121L7.99946 8.98686V11.5796C7.99936 12.3194 7.14104 12.7819 6.52289 12.3218L1.75336 8.81303L1.75239 8.81206C1.21283 8.4122 1.21291 7.5987 1.75239 7.19877L1.75336 7.1978L6.52289 3.68803ZM2.34711 8.00053V8.00834L6.99946 11.4312V4.57768L2.34711 8.00053ZM8.34418 7.99956L13.0004 11.4214V4.57768L8.34418 7.99956Z" fill="black"/>
</svg>
