<svg width="16" height="16" viewBox="0 0 16 16" fill="none" xmlns="http://www.w3.org/2000/svg">
<path fill-rule="evenodd" clip-rule="evenodd" d="M6.76367 7.05957C6.92625 6.97256 7.12392 6.9817 7.27734 7.08398L10.2773 9.08398C10.4164 9.17672 10.5 9.33283 10.5 9.5C10.5 9.66717 10.4164 9.82328 10.2773 9.91602L7.27734 11.916C7.12392 12.0183 6.92625 12.0274 6.76367 11.9404C6.60138 11.8533 6.5 11.6842 6.5 11.5V7.5L6.50488 7.43164C6.52653 7.2747 6.6217 7.13575 6.76367 7.05957ZM7.5 10.5654L9.09863 9.5L7.5 8.43359V10.5654Z" fill="black"/>
<path fill-rule="evenodd" clip-rule="evenodd" d="M13 2.5C13.3829 2.5 13.731 2.64478 13.9961 2.88086C14.0196 2.89735 14.0425 2.91551 14.0635 2.93652C14.0842 2.95721 14.1019 2.97981 14.1182 3.00293C14.3548 3.26811 14.5 3.61664 14.5 4V12C14.5 12.8284 13.8284 13.5 13 13.5H3C2.17157 13.5 1.5 12.8284 1.5 12V4C1.5 3.17157 2.17157 2.5 3 2.5H13ZM2.5 12C2.5 12.2761 2.72386 12.5 3 12.5H13C13.2761 12.5 13.5 12.2761 13.5 12V6.5H2.5V12ZM3.20703 5.5H4.79297L6.79297 3.5H5.20703L3.20703 5.5ZM6.20703 5.5H7.79297L9.79297 3.5H8.20703L6.20703 5.5ZM12.207 5.5H13.5V4.20703L12.207 5.5ZM9.20703 5.5H10.793L12.793 3.5H11.207L9.20703 5.5ZM3 3.5C2.72386 3.5 2.5 3.72386 2.5 4V4.79297L3.79297 3.5H3Z" fill="black"/>
</svg>
