<svg width="16" height="16" viewBox="0 0 16 16" fill="none" xmlns="http://www.w3.org/2000/svg">
<path fill-rule="evenodd" clip-rule="evenodd" d="M5 5.5C5.27614 5.5 5.5 5.72386 5.5 6V7.0957L7.73438 5.69629C7.88848 5.59971 8.08306 5.59455 8.24219 5.68262C8.40126 5.7707 8.5 5.93828 8.5 6.12012V7.0957L10.7344 5.69629C10.8885 5.59971 11.0831 5.59455 11.2422 5.68262C11.4013 5.7707 11.5 5.93828 11.5 6.12012V9.87988C11.5 10.0617 11.4012 10.2293 11.2422 10.3174C11.0831 10.4054 10.8885 10.4002 10.7344 10.3037L8.5 8.90332V9.87988C8.49995 10.0617 8.40119 10.2293 8.24219 10.3174C8.08309 10.4054 7.88846 10.4002 7.73438 10.3037L5.5 8.90332V10C5.5 10.2761 5.27614 10.5 5 10.5C4.72386 10.5 4.5 10.2761 4.5 10V6C4.5 5.72386 4.72386 5.5 5 5.5ZM5.94141 8L7.5 8.97559V7.02344L5.94141 8ZM8.94141 8L10.5 8.97559V7.02344L8.94141 8Z" fill="currentColor"/>
<path fill-rule="evenodd" clip-rule="evenodd" d="M8 1.5C11.5899 1.5 14.5 4.41015 14.5 8C14.5 11.5899 11.5899 14.5 8 14.5C4.41015 14.5 1.5 11.5899 1.5 8C1.5 4.41015 4.41015 1.5 8 1.5ZM8 2.5C4.96243 2.5 2.5 4.96243 2.5 8C2.5 11.0376 4.96243 13.5 8 13.5C11.0376 13.5 13.5 11.0376 13.5 8C13.5 4.96243 11.0376 2.5 8 2.5Z" fill="currentColor"/>
</svg>
