<svg width="16" height="16" viewBox="0 0 16 16" fill="none" xmlns="http://www.w3.org/2000/svg">
<path d="M10.5 9.5C10.7761 9.5 11 9.72386 11 10C11 10.2761 10.7761 10.5 10.5 10.5H5.5C5.22386 10.5 5 10.2761 5 10C5 9.72386 5.22386 9.5 5.5 9.5H10.5Z" fill="black"/>
<path fill-rule="evenodd" clip-rule="evenodd" d="M8 4.5C8.14826 4.5 8.2888 4.56587 8.38379 4.67969L10.8838 7.67969C11.0079 7.82866 11.0353 8.03628 10.9531 8.21191C10.8708 8.3876 10.694 8.5 10.5 8.5H5.5C5.30599 8.5 5.12916 8.3876 5.04688 8.21191C4.96474 8.03628 4.99208 7.82865 5.11621 7.67969L7.61621 4.67969L7.69531 4.60352C7.78188 4.53699 7.8888 4.5 8 4.5ZM6.56738 7.5H9.43262L8 5.78027L6.56738 7.5Z" fill="black"/>
<path fill-rule="evenodd" clip-rule="evenodd" d="M8 1.5C11.5899 1.5 14.5 4.41015 14.5 8C14.5 11.5899 11.5899 14.5 8 14.5C4.41015 14.5 1.5 11.5899 1.5 8C1.5 4.41015 4.41015 1.5 8 1.5ZM8 2.5C4.96243 2.5 2.5 4.96243 2.5 8C2.5 11.0376 4.96243 13.5 8 13.5C11.0376 13.5 13.5 11.0376 13.5 8C13.5 4.96243 11.0376 2.5 8 2.5Z" fill="black"/>
</svg>
