<svg width="16" height="16" viewBox="0 0 16 16" fill="none" xmlns="http://www.w3.org/2000/svg">
<path d="M12.0879 5.15822C12.2272 4.91979 12.534 4.83923 12.7725 4.97853C13.8119 5.58599 14.4999 6.71815 14.5 8.00002C14.4999 9.93609 12.9361 11.5 11 11.5H10.207L10.8535 12.1465C11.0488 12.3418 11.0488 12.6583 10.8535 12.8535C10.6583 13.0488 10.3417 13.0488 10.1465 12.8535L8.64648 11.3535C8.64322 11.3503 8.64085 11.3461 8.6377 11.3428C8.61828 11.3223 8.59973 11.3009 8.58398 11.2774C8.57607 11.2655 8.57027 11.2526 8.56348 11.2403C8.53908 11.196 8.5189 11.1488 8.50879 11.0977C8.49599 11.033 8.49588 10.966 8.50879 10.9014C8.51898 10.8503 8.53904 10.803 8.56348 10.7588C8.58563 10.7188 8.61251 10.6805 8.64648 10.6465L10.1465 9.1465C10.3417 8.95124 10.6583 8.95124 10.8535 9.1465C11.0488 9.34176 11.0488 9.65827 10.8535 9.85353L10.207 10.5H11C12.3838 10.5 13.4999 9.3838 13.5 8.00002C13.4999 7.08215 13.0078 6.27436 12.2676 5.84181C12.0294 5.70256 11.949 5.39652 12.0879 5.15822Z" fill="currentColor"/>
<path d="M5.14648 3.1465C5.34175 2.95124 5.65825 2.95124 5.85352 3.1465L7.35352 4.6465C7.3735 4.66648 7.39084 4.68881 7.40723 4.71193C7.41791 4.727 7.42673 4.7429 7.43555 4.75881C7.46008 4.80301 7.48001 4.85025 7.49023 4.90138C7.5032 4.96612 7.50308 5.03291 7.49023 5.09767C7.48009 5.14886 7.46002 5.19598 7.43555 5.24025C7.41337 5.28041 7.38758 5.31947 7.35352 5.35353L5.85352 6.85353C5.65826 7.04878 5.34175 7.04878 5.14648 6.85353C4.95122 6.65827 4.95123 6.34176 5.14648 6.1465L5.79297 5.50002H5C3.61614 5.50002 2.5 6.61616 2.5 8.00002C2.50001 9.38387 3.61615 10.5 5 10.5H6C6.27614 10.5 6.5 10.7239 6.5 11C6.49999 11.2762 6.27614 11.5 6 11.5H5C3.06386 11.5 1.50001 9.93615 1.5 8.00002C1.5 6.06387 3.06386 4.50002 5 4.50002H5.79297L5.14648 3.85353C4.95122 3.65827 4.95123 3.34176 5.14648 3.1465Z" fill="currentColor"/>
<path d="M9.64648 2.6465C9.78948 2.5035 10.0046 2.46071 10.1914 2.5381C10.3782 2.61551 10.5 2.79781 10.5 3.00002V7.00002C10.5 7.27614 10.2761 7.50001 10 7.50002C9.72387 7.50002 9.50002 7.27615 9.5 7.00002V4.20705L9.35352 4.35353C9.15826 4.54878 8.84174 4.54877 8.64648 4.35353C8.45123 4.15827 8.45123 3.84176 8.64648 3.6465L9.64648 2.6465Z" fill="currentColor"/>
</svg>
