<svg width="16" height="16" viewBox="0 0 16 16" fill="none" xmlns="http://www.w3.org/2000/svg">
<path fill-rule="evenodd" clip-rule="evenodd" d="M12.0977 2.61527C12.8392 2.51736 13.5 3.10295 13.5 3.85062V10.5C13.4999 11.606 12.6059 12.4999 11.5 12.5C10.3941 12.4999 9.50014 11.606 9.5 10.5C9.50012 9.39408 10.394 8.50017 11.5 8.50004H12.5V6.56644L5.50977 7.43949V11.5098C5.50963 12.6158 4.61582 13.5098 3.50977 13.5098C2.40382 13.5097 1.50991 12.6157 1.50977 11.5098C1.51001 10.404 2.40389 9.50993 3.50977 9.5098H4.50977V7.08793C4.50825 7.07943 4.505 7.0712 4.50391 7.06254C4.49759 7.01204 4.50149 6.96276 4.50977 6.91508V5.11039C4.50977 4.23138 5.15481 3.48624 6.03711 3.37406L12.0977 2.61527ZM3.50977 10.5098C2.95617 10.5099 2.51001 10.9562 2.50977 11.5098C2.50991 12.0635 2.95611 12.5097 3.50977 12.5098C4.06354 12.5098 4.50963 12.0635 4.50977 11.5098V10.5098H3.50977ZM11.5 9.50004C10.9463 9.50017 10.5001 9.94637 10.5 10.5C10.5001 11.0537 10.9463 11.4999 11.5 11.5C12.0537 11.4999 12.4999 11.0537 12.5 10.5V9.50004H11.5ZM12.2275 3.60551L12.2217 3.60648L6.16211 4.36527L6.16309 4.36625C5.78567 4.41431 5.50977 4.72958 5.50977 5.11039V6.43168L12.5 5.55863V3.85062C12.5 3.70017 12.3638 3.58709 12.2275 3.60551Z" fill="black"/>
</svg>
