<svg width="16" height="16" viewBox="0 0 16 16" fill="none" xmlns="http://www.w3.org/2000/svg">
<path fill-rule="evenodd" clip-rule="evenodd" d="M11.8662 2.70294C12.5334 2.19308 13.4997 2.66367 13.5 3.50958V12.4793C13.5 13.3256 12.5335 13.7972 11.8662 13.2869L11.8652 13.286L6.03516 8.79572L6.0332 8.79474C6.02149 8.78563 6.01121 8.77495 6 8.76544V12.4998C6 13.0521 5.55228 13.4998 5 13.4998H3.5C2.94772 13.4998 2.5 13.0521 2.5 12.4998V3.49982C2.5001 2.94762 2.94778 2.49982 3.5 2.49982H5C5.55222 2.49982 5.9999 2.94762 6 3.49982V7.22345C6.01195 7.2136 6.02358 7.20263 6.03613 7.19318L11.8652 2.70392L11.8662 2.70294ZM3.5 12.4998H5V3.49982H3.5V12.4998ZM12.4746 3.49494L6.64551 7.98615L6.6377 7.99103L6.63867 7.99591C6.63903 7.99666 6.63978 7.99774 6.64062 7.99884C6.64165 8.00011 6.64421 8.00218 6.64746 8.0047L12.4727 12.492C12.4771 12.4954 12.481 12.4967 12.4814 12.4969C12.4826 12.497 12.4875 12.4972 12.4922 12.4949L12.499 12.4891C12.4993 12.488 12.5 12.4843 12.5 12.4793V3.50958C12.5 3.50421 12.4992 3.50135 12.499 3.5008C12.4984 3.50006 12.4962 3.49701 12.4922 3.49494C12.4876 3.49268 12.4837 3.49202 12.4824 3.49201C12.482 3.49215 12.4781 3.49253 12.4746 3.49494Z" fill="black"/>
</svg>
