<svg width="16" height="16" viewBox="0 0 16 16" fill="none" xmlns="http://www.w3.org/2000/svg">
<path fill-rule="evenodd" clip-rule="evenodd" d="M8 4.42963C8.00036 3.6696 8.86629 3.23528 9.47559 3.68744L9.47656 3.68646L14.2461 7.19721L14.248 7.19818C14.7873 7.59809 14.7873 8.41158 14.248 8.81146L14.2461 8.81244L9.47656 12.3222L9.47559 12.3212C8.85745 12.7805 8 12.3186 8 11.579V8.98725L3.47656 12.3124L3.47559 12.3115C2.85745 12.7706 2 12.3088 2 11.5693V4.42963C2.00036 3.6696 2.86629 3.23528 3.47559 3.68744L8 7.01166V4.42963ZM9 11.4306L13.6523 8.00678V8.00092L9 4.57709V11.4306ZM3 11.4208L7.65527 7.99896L3 4.57709V11.4208Z" fill="currentColor"/>
</svg>
