<svg width="16" height="16" viewBox="0 0 16 16" fill="none" xmlns="http://www.w3.org/2000/svg">
<path fill-rule="evenodd" clip-rule="evenodd" d="M4 9.5C4.27614 9.5 4.5 9.72386 4.5 10V11.5H6C6.27614 11.5 6.5 11.7239 6.5 12V14C6.5 14.2761 6.27614 14.5 6 14.5H3C2.17386 14.5 1.5 13.8261 1.5 13V10C1.5 9.72386 1.72386 9.5 2 9.5H4ZM2.5 13C2.5 13.2739 2.72614 13.5 3 13.5H5.5V12.5H4C3.72386 12.5 3.5 12.2761 3.5 12V10.5H2.5V13Z" fill="currentColor"/>
<path fill-rule="evenodd" clip-rule="evenodd" d="M14 9.5C14.2761 9.5 14.5 9.72386 14.5 10V13C14.5 13.8261 13.8261 14.5 13 14.5H10C9.72386 14.5 9.5 14.2761 9.5 14V12C9.5 11.7239 9.72386 11.5 10 11.5H11.5V10C11.5 9.72386 11.7239 9.5 12 9.5H14ZM12.5 12C12.5 12.2761 12.2761 12.5 12 12.5H10.5V13.5H13C13.2739 13.5 13.5 13.2739 13.5 13V10.5H12.5V12Z" fill="currentColor"/>
<path fill-rule="evenodd" clip-rule="evenodd" d="M6 1.5C6.27614 1.5 6.5 1.72386 6.5 2V4C6.5 4.27614 6.27614 4.5 6 4.5H4.5V6C4.5 6.27614 4.27614 6.5 4 6.5H2C1.72386 6.5 1.5 6.27614 1.5 6V3C1.5 2.17386 2.17386 1.5 3 1.5H6ZM3 2.5C2.72614 2.5 2.5 2.72614 2.5 3V5.5H3.5V4C3.5 3.72386 3.72386 3.5 4 3.5H5.5V2.5H3Z" fill="currentColor"/>
<path fill-rule="evenodd" clip-rule="evenodd" d="M13 1.5C13.8261 1.5 14.5 2.17386 14.5 3V6C14.5 6.27614 14.2761 6.5 14 6.5H12C11.7239 6.5 11.5 6.27614 11.5 6V4.5H10C9.72386 4.5 9.5 4.27614 9.5 4V2C9.5 1.72386 9.72386 1.5 10 1.5H13ZM10.5 3.5H12C12.2761 3.5 12.5 3.72386 12.5 4V5.5H13.5V3C13.5 2.72614 13.2739 2.5 13 2.5H10.5V3.5Z" fill="currentColor"/>
</svg>
