<svg width="16" height="16" viewBox="0 0 16 16" fill="none" xmlns="http://www.w3.org/2000/svg">
<path fill-rule="evenodd" clip-rule="evenodd" d="M7.89844 3.20167C8.56437 2.6975 9.5 3.18583 9.5 4.00049V12.0005C9.49965 12.8148 8.56423 13.303 7.89844 12.7993L4.83398 10.5005H3C2.17401 10.5005 1.50025 9.82643 1.5 9.00049V7.00049C1.5 6.17435 2.17386 5.50049 3 5.50049H4.83301L7.89844 3.20167ZM5.2998 6.39991C5.21328 6.46476 5.10813 6.50049 5 6.50049H3C2.72614 6.50049 2.5 6.72664 2.5 7.00049V9.00049C2.50025 9.27415 2.72629 9.50049 3 9.50049H5L5.08008 9.50635C5.15939 9.51922 5.23487 9.55146 5.2998 9.6001L8.5 12.0005V4.00049L5.2998 6.39991Z" fill="black"/>
<path d="M11.6465 5.23682C11.8417 5.04156 12.1583 5.04156 12.3535 5.23682C13.8793 6.76283 13.8772 9.23879 12.3545 10.773C12.16 10.9684 11.8433 10.9691 11.6475 10.7749C11.4518 10.5804 11.4512 10.2638 11.6455 10.0679C12.7824 8.92213 12.7802 7.07778 11.6465 5.94385C11.4513 5.74863 11.4513 5.4321 11.6465 5.23682Z" fill="black"/>
<path d="M10.2363 6.64698C10.4316 6.45172 10.7481 6.45172 10.9434 6.64698C11.6885 7.39225 11.6886 8.60878 10.9434 9.35401C10.7481 9.54893 10.4315 9.54907 10.2363 9.35401C10.0412 9.15885 10.0414 8.84227 10.2363 8.64698C10.591 8.29228 10.591 7.70876 10.2363 7.35401C10.0412 7.15885 10.0414 6.84227 10.2363 6.64698Z" fill="black"/>
</svg>
