<svg width="16" height="16" viewBox="0 0 16 16" fill="none" xmlns="http://www.w3.org/2000/svg">
<path d="M8.2002 3.59969C8.53018 3.35006 9 3.5902 9 4.00008V12.0001C8.99999 12.4099 8.53018 12.6501 8.2002 12.4005L5 10.0001H3C2.45 10.0001 2.00001 9.55007 2 9.00008V7.00008C2 6.45008 2.45 6.00008 3 6.00008H5L8.2002 3.59969Z" fill="black"/>
<path d="M11.6504 5.21981C11.8504 5.02013 12.1605 5.01991 12.3604 5.21981C13.8902 6.74975 13.8902 9.23008 12.3604 10.7501C12.2604 10.8501 12.1298 10.9005 12.0098 10.9005L12 10.9102C11.87 10.9102 11.7404 10.8598 11.6504 10.7598C11.4504 10.5598 11.4504 10.2499 11.6504 10.0499C12.7901 8.90988 12.7902 7.06967 11.6504 5.92977C11.4504 5.72977 11.4504 5.41981 11.6504 5.21981Z" fill="black"/>
<path d="M10.2402 6.63973C10.4402 6.44 10.7503 6.43984 10.9502 6.63973C11.7001 7.38964 11.6999 8.59967 10.9502 9.34969C10.8502 9.44969 10.7196 9.50008 10.5996 9.50008H10.5898C10.4599 9.50005 10.3302 9.44966 10.2402 9.34969C10.0403 9.14969 10.0402 8.83972 10.2402 8.63973C10.6 8.27971 10.6001 7.6996 10.2402 7.34969C10.0403 7.14969 10.0402 6.83972 10.2402 6.63973Z" fill="black"/>
</svg>
