<svg width="16" height="16" viewBox="0 0 16 16" fill="none" xmlns="http://www.w3.org/2000/svg">
<path fill-rule="evenodd" clip-rule="evenodd" d="M10 5C10.2761 5 10.5 5.22386 10.5 5.5V10.5C10.5 10.7761 10.2761 11 10 11C9.72386 11 9.5 10.7761 9.5 10.5V8.58887L5.76465 10.9238C5.61062 11.02 5.41669 11.0254 5.25781 10.9375C5.09884 10.8494 5 10.6818 5 10.5V5.5L5.00488 5.43262C5.02595 5.27762 5.11873 5.13959 5.25781 5.0625C5.41669 4.97455 5.61062 4.97999 5.76465 5.07617L9.5 7.41016V5.5C9.5 5.22386 9.72386 5 10 5ZM6 9.59766L8.55664 8L6 6.40137V9.59766Z" fill="currentColor"/>
<path fill-rule="evenodd" clip-rule="evenodd" d="M8 1.5C11.5899 1.5 14.5 4.41015 14.5 8C14.5 11.5899 11.5899 14.5 8 14.5C4.41015 14.5 1.5 11.5899 1.5 8C1.5 4.41015 4.41015 1.5 8 1.5ZM8 2.5C4.96243 2.5 2.5 4.96243 2.5 8C2.5 11.0376 4.96243 13.5 8 13.5C11.0376 13.5 13.5 11.0376 13.5 8C13.5 4.96243 11.0376 2.5 8 2.5Z" fill="currentColor"/>
</svg>
