<svg width="16" height="16" viewBox="0 0 16 16" fill="none" xmlns="http://www.w3.org/2000/svg">
<path fill-rule="evenodd" clip-rule="evenodd" d="M5.5 5.5C6.60457 5.5 7.5 6.39543 7.5 7.5C7.5 8.60457 6.60457 9.5 5.5 9.5C4.39543 9.5 3.5 8.60457 3.5 7.5C3.5 6.39543 4.39543 5.5 5.5 5.5ZM5.5 6.5C4.94772 6.5 4.5 6.94772 4.5 7.5C4.5 8.05228 4.94772 8.5 5.5 8.5C6.05228 8.5 6.5 8.05228 6.5 7.5C6.5 6.94772 6.05228 6.5 5.5 6.5Z" fill="black"/>
<path fill-rule="evenodd" clip-rule="evenodd" d="M13 1.5C13.8261 1.5 14.5 2.17386 14.5 3V11C14.5 11.8261 13.8261 12.5 13 12.5H12.5V13C12.5 13.8284 11.8284 14.5 11 14.5H3C2.17157 14.5 1.5 13.8284 1.5 13V5C1.5 4.17157 2.17157 3.5 3 3.5H3.5V3C3.5 2.17386 4.17386 1.5 5 1.5H13ZM9.00391 9.7041L5.20703 13.5H11C11.2761 13.5 11.5 13.2761 11.5 13V12.1973L9.00488 9.70215L9.00391 9.7041ZM3 4.5C2.72386 4.5 2.5 4.72386 2.5 5V13C2.5 13.2761 2.72386 13.5 3 13.5H3.79297L8.29688 8.99707C8.69214 8.60181 9.31861 8.60181 9.71387 8.99707L11.5 10.7832V5C11.5 4.72386 11.2761 4.5 11 4.5H3ZM5 2.5C4.72614 2.5 4.5 2.72614 4.5 3V3.5H11C11.8284 3.5 12.5 4.17157 12.5 5V11.5H13C13.2739 11.5 13.5 11.2739 13.5 11V3C13.5 2.72614 13.2739 2.5 13 2.5H5Z" fill="black"/>
</svg>
