<svg width="16" height="16" viewBox="0 0 16 16" fill="none" xmlns="http://www.w3.org/2000/svg">
<path d="M3.2002 1.48047C3.47625 1.48058 3.7002 1.70439 3.7002 1.98047V3.43652C4.80788 2.32034 6.27558 1.5 8 1.5C11.586 1.5 14.4997 4.41407 14.5 8C14.4998 11.5859 11.586 14.5 8 14.5C4.41401 14.5 1.50025 11.5859 1.5 8C1.50025 7.72407 1.72401 7.5 2 7.5C2.27599 7.5 2.49975 7.72407 2.5 8C2.50025 11.0336 4.9663 13.5 8 13.5C11.0337 13.5 13.4998 11.0336 13.5 8C13.4997 4.96636 11.0337 2.5 8 2.5C6.18955 2.5 4.64386 3.62682 3.60938 5.09766C3.48394 5.27575 3.25655 5.35277 3.04883 5.28711C2.8413 5.22129 2.70043 5.02825 2.7002 4.81055V1.98047C2.7002 1.70433 2.92405 1.48047 3.2002 1.48047Z" fill="black"/>
<path d="M6.00977 5.5C6.37941 5.5 6.75806 5.62157 7.0459 5.87793C7.34456 6.14408 7.51935 6.53431 7.48926 6.99316C7.47151 7.26344 7.37314 7.50825 7.22266 7.71094C7.47267 7.94189 7.6498 8.25218 7.70996 8.6084L7.72852 8.76562V8.76758C7.7635 9.30096 7.56257 9.75037 7.21973 10.0576C6.88727 10.3554 6.44566 10.5 6.00977 10.5C5.3028 10.4999 4.60213 10.0397 4.36719 9.36426C4.2766 9.10353 4.41511 8.81829 4.67578 8.72754C4.93652 8.63699 5.22179 8.77543 5.3125 9.03613C5.39774 9.28035 5.69709 9.4999 6.00977 9.5C6.23371 9.5 6.42771 9.4245 6.55273 9.3125C6.66714 9.20985 6.74531 9.05921 6.73047 8.83301C6.70806 8.52659 6.4467 8.28041 6.12012 8.28027H6.09961C5.82374 8.28006 5.59976 8.05616 5.59961 7.78027C5.59961 7.50426 5.82365 7.28049 6.09961 7.28027C6.30698 7.28027 6.47892 7.11386 6.49121 6.92773L6.4873 6.8252C6.47396 6.73313 6.43246 6.67104 6.38086 6.625C6.30122 6.55407 6.16994 6.5 6.00977 6.5C5.79572 6.50011 5.59641 6.65115 5.54199 6.80566C5.45044 7.06615 5.1648 7.20283 4.9043 7.11133C4.64402 7.0198 4.50649 6.73496 4.59766 6.47461C4.8033 5.88932 5.40407 5.5001 6.00977 5.5Z" fill="black"/>
<path fill-rule="evenodd" clip-rule="evenodd" d="M10 5.5C10.8284 5.5 11.5 6.17157 11.5 7V9C11.5 9.82843 10.8284 10.5 10 10.5C9.17157 10.5 8.5 9.82843 8.5 9V7C8.5 6.17157 9.17157 5.5 10 5.5ZM10 6.5C9.72386 6.5 9.5 6.72386 9.5 7V9C9.5 9.27614 9.72386 9.5 10 9.5C10.2761 9.5 10.5 9.27614 10.5 9V7C10.5 6.72386 10.2761 6.5 10 6.5Z" fill="black"/>
</svg>
