<svg width="16" height="16" viewBox="0 0 16 16" fill="none" xmlns="http://www.w3.org/2000/svg">
<path d="M12.7998 1.48047C13.0759 1.48047 13.2998 1.70433 13.2998 1.98047V4.81055C13.2996 5.02825 13.1587 5.22129 12.9512 5.28711C12.7434 5.35277 12.5161 5.27575 12.3906 5.09766C11.3561 3.62682 9.81045 2.5 8 2.5C4.9663 2.5 2.50025 4.96636 2.5 8C2.50025 11.0336 4.9663 13.5 8 13.5C11.0337 13.5 13.4998 11.0336 13.5 8C13.5003 7.72407 13.724 7.5 14 7.5C14.276 7.5 14.4997 7.72407 14.5 8C14.4998 11.5859 11.586 14.5 8 14.5C4.41401 14.5 1.50025 11.5859 1.5 8C1.50025 4.41407 4.41401 1.5 8 1.5C9.72442 1.5 11.1921 2.32034 12.2998 3.43652V1.98047C12.2998 1.70439 12.5238 1.48058 12.7998 1.48047Z" fill="currentColor"/>
<path d="M8.88965 5.5C9.16579 5.5 9.38965 5.72386 9.38965 6C9.38965 6.27614 9.16579 6.5 8.88965 6.5H7.57227L7.51172 7.28027H7.99023C8.7705 7.2804 9.44974 7.83662 9.58008 8.6084L9.59863 8.76562V8.76758C9.63361 9.30096 9.43269 9.75037 9.08984 10.0576C8.75738 10.3555 8.3158 10.5 7.87988 10.5C7.1729 10.4999 6.47226 10.0397 6.2373 9.36426C6.1467 9.1035 6.28517 8.81826 6.5459 8.72754C6.80664 8.63699 7.09192 8.77541 7.18262 9.03613C7.26786 9.28037 7.56718 9.49993 7.87988 9.5C8.10386 9.5 8.29783 9.42452 8.42285 9.3125C8.53726 9.20985 8.61543 9.05921 8.60059 8.83301C8.57818 8.52659 8.31682 8.28041 7.99023 8.28027H7.20996C6.78253 8.28023 6.45936 7.91512 6.49121 7.50098L6.61133 5.96094L6.62793 5.86621C6.68676 5.6536 6.88207 5.50003 7.11035 5.5H8.88965Z" fill="currentColor"/>
</svg>
