<svg width="16" height="16" viewBox="0 0 16 16" fill="none" xmlns="http://www.w3.org/2000/svg">
<path fill-rule="evenodd" clip-rule="evenodd" d="M5.5 4.5C6.60457 4.5 7.5 5.39543 7.5 6.5C7.5 7.60457 6.60457 8.5 5.5 8.5C4.39543 8.5 3.5 7.60457 3.5 6.5C3.5 5.39543 4.39543 4.5 5.5 4.5ZM5.5 5.5C4.94772 5.5 4.5 5.94772 4.5 6.5C4.5 7.05228 4.94772 7.5 5.5 7.5C6.05228 7.5 6.5 7.05228 6.5 6.5C6.5 5.94772 6.05228 5.5 5.5 5.5Z" fill="currentColor"/>
<path fill-rule="evenodd" clip-rule="evenodd" d="M13 2.5C13.8284 2.5 14.5 3.17157 14.5 4V9.90039C14.5132 9.96574 14.5131 10.0333 14.5 10.0986V12C14.5 12.8284 13.8284 13.5 13 13.5H3C2.17157 13.5 1.5 12.8284 1.5 12V4C1.5 3.17157 2.17157 2.5 3 2.5H13ZM11.0039 7.7041L6.20703 12.5H13C13.2761 12.5 13.5 12.2761 13.5 12V10.1973L11.0049 7.70215L11.0039 7.7041ZM3 3.5C2.72386 3.5 2.5 3.72386 2.5 4V12C2.5 12.2761 2.72386 12.5 3 12.5H4.79297L10.2969 6.99707C10.6921 6.60181 11.3186 6.60181 11.7139 6.99707L13.5 8.7832V4C13.5 3.72386 13.2761 3.5 13 3.5H3Z" fill="currentColor"/>
</svg>
