<svg width="16" height="16" viewBox="0 0 16 16" fill="none" xmlns="http://www.w3.org/2000/svg">
<path fill-rule="evenodd" clip-rule="evenodd" d="M3.50977 3.52999C3.51011 2.56985 4.54211 1.96385 5.37891 2.44796L13.1299 6.91768C13.1677 6.93956 13.2022 6.96577 13.2324 6.99581C13.9601 7.51428 13.9272 8.63161 13.1309 9.09346L5.37988 13.5622C4.54296 14.047 3.51011 13.4406 3.50977 12.4802V3.52999ZM4.87891 3.31319C4.7162 3.21882 4.5101 3.33119 4.50977 3.52999V12.4802C4.51009 12.6788 4.71626 12.7919 4.87891 12.698L4.87988 12.697L12.6299 8.22725C12.7967 8.12954 12.7963 7.88983 12.6289 7.79268C12.6046 7.77859 12.5827 7.76144 12.5615 7.74386L4.87891 3.31319Z" fill="black"/>
</svg>
