<svg width="16" height="16" viewBox="0 0 16 16" fill="none" xmlns="http://www.w3.org/2000/svg">
<path fill-rule="evenodd" clip-rule="evenodd" d="M8.89844 3.20167C9.56437 2.6975 10.5 3.18583 10.5 4.00049V12.0005C10.4997 12.8148 9.56423 13.303 8.89844 12.7993L5.83398 10.5005H4C3.17401 10.5005 2.50025 9.82643 2.5 9.00049V7.00049C2.5 6.17435 3.17386 5.50049 4 5.50049H5.83301L8.89844 3.20167ZM6.2998 6.39991C6.21328 6.46476 6.10813 6.50049 6 6.50049H4C3.72614 6.50049 3.5 6.72664 3.5 7.00049V9.00049C3.50025 9.27415 3.72629 9.50049 4 9.50049H6L6.08008 9.50635C6.15939 9.51922 6.23487 9.55146 6.2998 9.6001L9.5 12.0005V4.00049L6.2998 6.39991Z" fill="currentColor"/>
<path d="M12.6465 5.146C12.8417 4.95105 13.1583 4.95102 13.3535 5.146C13.5487 5.34118 13.5485 5.65775 13.3535 5.85303L12.707 6.49952L13.3535 7.146C13.5487 7.34118 13.5485 7.65775 13.3535 7.85303L12.707 8.49952L13.3535 9.146C13.5487 9.34118 13.5485 9.65775 13.3535 9.85303L12.3535 10.853C12.1583 11.0483 11.8417 11.0483 11.6465 10.853C11.4514 10.6578 11.4513 10.3412 11.6465 10.146L12.293 9.49952L11.6465 8.85303C11.4514 8.65776 11.4513 8.3412 11.6465 8.146L12.293 7.49952L11.6465 6.85303C11.4514 6.65776 11.4513 6.3412 11.6465 6.146L12.6465 5.146Z" fill="currentColor"/>
</svg>
