<svg width="16" height="16" viewBox="0 0 16 16" fill="none" xmlns="http://www.w3.org/2000/svg">
<path d="M2 7.5C2.27614 7.5 2.5 7.72386 2.5 8C2.5 11.0339 4.96614 13.5 8 13.5C9.81058 13.5 11.3561 12.3733 12.3906 10.9023C12.516 10.724 12.7433 10.6471 12.9512 10.7129C13.1589 10.7787 13.2998 10.9725 13.2998 11.1904V14.0195C13.2998 14.2957 13.0759 14.5195 12.7998 14.5195C12.5238 14.5194 12.2998 14.2956 12.2998 14.0195V12.5625C11.192 13.6791 9.7248 14.5 8 14.5C4.41386 14.5 1.5 11.5861 1.5 8C1.5 7.72386 1.72386 7.5 2 7.5Z" fill="currentColor"/>
<path fill-rule="evenodd" clip-rule="evenodd" d="M8 5C8.82614 5 9.5 5.67386 9.5 6.5V7H10C10.2761 7 10.5 7.22386 10.5 7.5V10C10.5 10.2761 10.2761 10.5 10 10.5H6C5.72386 10.5 5.5 10.2761 5.5 10V7.5C5.5 7.22386 5.72386 7 6 7H6.5V6.5C6.5 5.67386 7.17386 5 8 5ZM6.5 9.5H9.5V8H6.5V9.5ZM8 6C7.72614 6 7.5 6.22614 7.5 6.5V7H8.5V6.5C8.5 6.22614 8.27386 6 8 6Z" fill="currentColor"/>
<path d="M3.2002 1.47949C3.47625 1.4796 3.7002 1.70439 3.7002 1.98047V3.4375C4.8079 2.32106 6.27536 1.50006 8 1.5C11.5859 1.50011 14.4997 4.41414 14.5 8C14.4997 8.27585 14.2759 8.49989 14 8.5C13.7241 8.49989 13.5003 8.27585 13.5 8C13.4997 4.96643 11.0336 2.50011 8 2.5C6.18959 2.50008 4.64382 3.62683 3.60938 5.09766C3.48406 5.27564 3.2574 5.35246 3.0498 5.28711C2.84211 5.22139 2.70044 5.02835 2.7002 4.81055V1.98047C2.7002 1.70433 2.92405 1.47949 3.2002 1.47949Z" fill="currentColor"/>
</svg>
