<svg width="16" height="16" viewBox="0 0 16 16" fill="none" xmlns="http://www.w3.org/2000/svg">
<path fill-rule="evenodd" clip-rule="evenodd" d="M10.2344 5.69629C10.3885 5.59971 10.5831 5.59455 10.7422 5.68262C10.9013 5.7707 11 5.93828 11 6.12012V9.87988C11 10.0617 10.9012 10.2293 10.7422 10.3174C10.5831 10.4054 10.3885 10.4002 10.2344 10.3037L8 8.90332V9.87988C7.99995 10.0617 7.90119 10.2293 7.74219 10.3174C7.58309 10.4054 7.38846 10.4002 7.23438 10.3037L4.23438 8.42383C4.08855 8.33241 4.00004 8.17211 4 8C4.00004 7.82789 4.08854 7.66759 4.23438 7.57617L7.23438 5.69629C7.38848 5.59971 7.58306 5.59455 7.74219 5.68262C7.90126 5.7707 8 5.93828 8 6.12012V7.0957L10.2344 5.69629ZM5.44141 8L7 8.97559V7.02344L5.44141 8ZM8.44141 8L10 8.97559V7.02344L8.44141 8Z" fill="currentColor"/>
<path fill-rule="evenodd" clip-rule="evenodd" d="M8 1.5C11.5899 1.5 14.5 4.41015 14.5 8C14.5 11.5899 11.5899 14.5 8 14.5C4.41015 14.5 1.5 11.5899 1.5 8C1.5 4.41015 4.41015 1.5 8 1.5ZM8 2.5C4.96243 2.5 2.5 4.96243 2.5 8C2.5 11.0376 4.96243 13.5 8 13.5C11.0376 13.5 13.5 11.0376 13.5 8C13.5 4.96243 11.0376 2.5 8 2.5Z" fill="currentColor"/>
</svg>
