<svg width="16" height="16" viewBox="0 0 16 16" fill="none" xmlns="http://www.w3.org/2000/svg">
<path fill-rule="evenodd" clip-rule="evenodd" d="M8.25781 5.68262C8.41694 5.59455 8.61152 5.59971 8.76562 5.69629L11.7656 7.57617C11.9115 7.66759 12 7.82789 12 8C12 8.17211 11.9114 8.33241 11.7656 8.42383L8.76562 10.3037C8.61154 10.4002 8.41691 10.4054 8.25781 10.3174C8.09881 10.2293 8.00005 10.0617 8 9.87988V8.90332L5.76562 10.3037C5.61154 10.4002 5.41691 10.4054 5.25781 10.3174C5.09881 10.2293 5.00005 10.0617 5 9.87988V6.12012L5.00488 6.05273C5.02596 5.89767 5.11864 5.75968 5.25781 5.68262C5.41694 5.59455 5.61152 5.59971 5.76562 5.69629L8 7.0957V6.12012L8.00488 6.05273C8.02596 5.89767 8.11864 5.75968 8.25781 5.68262ZM6 8.97559L7.55762 8L6 7.02344V8.97559ZM9 8.97559L10.5576 8L9 7.02344V8.97559Z" fill="black"/>
<path fill-rule="evenodd" clip-rule="evenodd" d="M8 1.5C11.5899 1.5 14.5 4.41015 14.5 8C14.5 11.5899 11.5899 14.5 8 14.5C4.41015 14.5 1.5 11.5899 1.5 8C1.5 4.41015 4.41015 1.5 8 1.5ZM8 2.5C4.96243 2.5 2.5 4.96243 2.5 8C2.5 11.0376 4.96243 13.5 8 13.5C11.0376 13.5 13.5 11.0376 13.5 8C13.5 4.96243 11.0376 2.5 8 2.5Z" fill="black"/>
</svg>
