<svg width="16" height="16" viewBox="0 0 16 16" fill="none" xmlns="http://www.w3.org/2000/svg">
<path fill-rule="evenodd" clip-rule="evenodd" d="M9 2.5C9.82614 2.5 10.5 3.17386 10.5 4C10.5 4.82614 9.82614 5.5 9 5.5H6.5V11C6.5 12.3761 5.37614 13.5 4 13.5C2.62386 13.5 1.5 12.3761 1.5 11C1.5 9.62386 2.62386 8.5 4 8.5H5.5V4C5.5 3.17386 6.17386 2.5 7 2.5H9ZM4 9.5C3.17614 9.5 2.5 10.1761 2.5 11C2.5 11.8239 3.17614 12.5 4 12.5C4.82386 12.5 5.5 11.8239 5.5 11V9.5H4ZM7 3.5C6.72614 3.5 6.5 3.72614 6.5 4V4.5H9C9.27386 4.5 9.5 4.27386 9.5 4C9.5 3.72614 9.27386 3.5 9 3.5H7Z" fill="currentColor"/>
<path d="M13.5 10.5C13.7761 10.5 14 10.7239 14 11C14 11.2761 13.7761 11.5 13.5 11.5H8C7.72386 11.5 7.5 11.2761 7.5 11C7.5 10.7239 7.72386 10.5 8 10.5H13.5Z" fill="currentColor"/>
<path d="M13.5 8.5C13.7761 8.5 14 8.72386 14 9C14 9.27614 13.7761 9.5 13.5 9.5H8C7.72386 9.5 7.5 9.27614 7.5 9C7.5 8.72386 7.72386 8.5 8 8.5H13.5Z" fill="currentColor"/>
<path d="M13.5 6.5C13.7761 6.5 14 6.72386 14 7C14 7.27614 13.7761 7.5 13.5 7.5H8C7.72386 7.5 7.5 7.27614 7.5 7C7.5 6.72386 7.72386 6.5 8 6.5H13.5Z" fill="currentColor"/>
</svg>
