<svg width="16" height="16" viewBox="0 0 16 16" fill="none" xmlns="http://www.w3.org/2000/svg">
<path d="M12.6498 2.64981C12.8398 2.44985 13.16 2.44992 13.35 2.64981C13.55 2.83981 13.55 3.16 13.35 3.35L10.0004 6.69961L12.4603 5.65957L13.3002 5.3002C13.6302 5.16029 14.0004 5.40019 14.0004 5.76016V10.2396C14.0004 10.5996 13.6302 10.8396 13.3002 10.6996L10.0004 9.29043V11.0004C10.0002 11.5501 9.55007 12.0002 9.00038 12.0004H4.6996L2.34999 14.35C2.26007 14.4499 2.13025 14.5003 2.00038 14.5004C1.87038 14.5004 1.73979 14.45 1.64979 14.35C1.4499 14.16 1.44983 13.8398 1.64979 13.6498L12.6498 2.64981Z" fill="black"/>
<path d="M9.00038 4.00039C9.24016 4.00049 9.47013 4.08981 9.64003 4.23965L2.23963 11.64C2.0898 11.4701 2.00047 11.2402 2.00038 11.0004V5.00039C2.00038 4.45039 2.45038 4.00039 3.00038 4.00039H9.00038Z" fill="black"/>
</svg>
