<svg width="16" height="16" viewBox="0 0 16 16" fill="none" xmlns="http://www.w3.org/2000/svg">
<path d="M6 7.50009C6.82843 7.50009 7.5 8.17166 7.5 9.00009C7.49995 9.82847 6.8284 10.5001 6 10.5001C5.1716 10.5001 4.50005 9.82847 4.5 9.00009C4.5 8.17166 5.17157 7.50009 6 7.50009Z" fill="black"/>
<path fill-rule="evenodd" clip-rule="evenodd" d="M11.8203 1.53036C12.0802 1.43052 12.3696 1.54995 12.4697 1.80966C12.5697 2.06953 12.4502 2.35991 12.1904 2.46005L5.78711 5.00009H13C13.55 5.00009 14 5.45009 14 6.00009V12.0001C14 12.55 13.55 13.0001 13 13.0001H3C2.45003 13.0001 2.00005 12.55 2 12.0001V6.00009C2 5.45009 2.45 5.00009 3 5.00009H3.07129L11.8203 1.53036ZM6 6.50009C4.62 6.50009 3.5 7.62009 3.5 9.00009C3.50005 10.38 4.62003 11.5001 6 11.5001C7.37997 11.5001 8.49995 10.38 8.5 9.00009C8.5 7.62009 7.38 6.50009 6 6.50009ZM10 10.5001C9.72 10.5001 9.5 10.7201 9.5 11.0001C9.50005 11.28 9.72003 11.5001 10 11.5001H12C12.28 11.5001 12.5 11.28 12.5 11.0001C12.5 10.7201 12.28 10.5001 12 10.5001H10ZM10 8.50009C9.72 8.50009 9.5 8.72009 9.5 9.00009C9.50005 9.28005 9.72003 9.50009 10 9.50009H12C12.28 9.50009 12.5 9.28005 12.5 9.00009C12.5 8.72009 12.28 8.50009 12 8.50009H10ZM10 6.50009C9.72 6.50009 9.5 6.72009 9.5 7.00009C9.50005 7.28005 9.72003 7.50009 10 7.50009H12C12.28 7.50009 12.5 7.28005 12.5 7.00009C12.5 6.72009 12.28 6.50009 12 6.50009H10Z" fill="black"/>
</svg>
