<svg width="16" height="16" viewBox="0 0 16 16" fill="none" xmlns="http://www.w3.org/2000/svg">
<path fill-rule="evenodd" clip-rule="evenodd" d="M8.00004 1.5C9.38073 1.50002 10.5 2.6193 10.5 4V4.79297L12.6465 2.64648C12.8418 2.45124 13.1583 2.45123 13.3536 2.64648C13.5488 2.84174 13.5488 3.15827 13.3536 3.35352L10.5 6.20703V8C10.5 9.3807 9.38073 10.5 8.00004 10.5C7.49028 10.5 7.01645 10.3469 6.62113 10.085L5.90336 10.8027C6.48768 11.2404 7.21331 11.5 8.00004 11.5C9.93388 11.5 11.5 9.93385 11.5 8C11.5 7.72386 11.7239 7.5 12 7.5C12.2762 7.50002 12.5 7.72387 12.5 8C12.5 10.317 10.7506 12.222 8.50004 12.4707V13.5H10C10.2762 13.5 10.5 13.7239 10.5 14C10.5 14.2761 10.2762 14.5 10 14.5H6.00004C5.7239 14.5 5.50004 14.2761 5.50004 14C5.50004 13.7239 5.7239 13.5 6.00004 13.5H7.50004V12.4707C6.63172 12.3748 5.83884 12.0326 5.19144 11.5146L3.35355 13.3535C3.15831 13.5488 2.84179 13.5487 2.64652 13.3535C2.45126 13.1583 2.45126 12.8417 2.64652 12.6465L4.48441 10.8076C3.86903 10.0379 3.50004 9.06257 3.50004 8C3.50004 7.72386 3.7239 7.5 4.00004 7.5C4.27616 7.50002 4.50004 7.72387 4.50004 8C4.50004 8.78625 4.7591 9.51156 5.19633 10.0957L5.9141 9.37793C5.65258 8.98283 5.50004 8.50929 5.50004 8V4C5.50004 2.61929 6.61933 1.5 8.00004 1.5ZM7.35453 9.35156C7.55032 9.44523 7.76852 9.5 8.00004 9.5C8.82845 9.49998 9.50004 8.82841 9.50004 8V7.20703L7.35453 9.35156ZM8.00004 2.5C7.17161 2.5 6.50004 3.17157 6.50004 4V8C6.50004 8.23108 6.55417 8.44903 6.6475 8.64453L9.50004 5.79297V4C9.50004 3.17159 8.82845 2.50002 8.00004 2.5Z" fill="black"/>
</svg>
