<svg width="16" height="16" viewBox="0 0 16 16" fill="none" xmlns="http://www.w3.org/2000/svg">
<path d="M12 7.5C12.2761 7.5 12.5 7.72386 12.5 8C12.5 10.3171 10.7505 12.2221 8.5 12.4707V13.5H10C10.2761 13.5 10.5 13.7239 10.5 14C10.5 14.2761 10.2761 14.5 10 14.5H6C5.72386 14.5 5.5 14.2761 5.5 14C5.5 13.7239 5.72386 13.5 6 13.5H7.5V12.4707C5.24945 12.2221 3.5 10.3171 3.5 8C3.5 7.72386 3.72386 7.5 4 7.5C4.27614 7.5 4.5 7.72386 4.5 8C4.5 9.93386 6.06614 11.5 8 11.5C9.93386 11.5 11.5 9.93386 11.5 8C11.5 7.72386 11.7239 7.5 12 7.5Z" fill="currentColor"/>
<path fill-rule="evenodd" clip-rule="evenodd" d="M8 1.5C9.38071 1.5 10.5 2.61929 10.5 4V8C10.5 9.38071 9.38071 10.5 8 10.5C6.61929 10.5 5.5 9.38071 5.5 8V4C5.5 2.61929 6.61929 1.5 8 1.5ZM8 2.5C7.17157 2.5 6.5 3.17157 6.5 4V8C6.5 8.82843 7.17157 9.5 8 9.5C8.82843 9.5 9.5 8.82843 9.5 8V4C9.5 3.17157 8.82843 2.5 8 2.5Z" fill="currentColor"/>
</svg>
