<svg width="16" height="16" viewBox="0 0 16 16" fill="none" xmlns="http://www.w3.org/2000/svg">
<path fill-rule="evenodd" clip-rule="evenodd" d="M8.94824 4.74609C9.73853 4.54549 10.4998 5.1494 10.5 5.95996V9C10.5 9.82614 9.82614 10.5 9 10.5C8.17386 10.5 7.5 9.82614 7.5 9C7.5 8.17386 8.17386 7.5 9 7.5H9.5V5.95996C9.49981 5.79143 9.34226 5.67683 9.19336 5.71484H9.19141L6.88184 6.29492C6.66075 6.35036 6.5 6.55376 6.5 6.78027V10C6.5 10.8261 5.82614 11.5 5 11.5C4.17386 11.5 3.5 10.8261 3.5 10C3.5 9.17386 4.17386 8.5 5 8.5H5.5V6.78027C5.5 6.08694 5.97999 5.48992 6.63867 5.3252L8.94824 4.74609ZM5 9.5C4.72614 9.5 4.5 9.72614 4.5 10C4.5 10.2739 4.72614 10.5 5 10.5C5.27386 10.5 5.5 10.2739 5.5 10V9.5H5ZM9 8.5C8.72614 8.5 8.5 8.72614 8.5 9C8.5 9.27386 8.72614 9.5 9 9.5C9.27386 9.5 9.5 9.27386 9.5 9V8.5H9Z" fill="currentColor"/>
<path fill-rule="evenodd" clip-rule="evenodd" d="M11 2.5C11.6529 2.5 12.207 2.91766 12.4131 3.5H13C13.8261 3.5 14.5 4.17386 14.5 5V11C14.5 11.8261 13.8261 12.5 13 12.5H12.4131C12.207 13.0823 11.6529 13.5 11 13.5H3C2.17157 13.5 1.5 12.8284 1.5 12V4C1.5 3.17157 2.17157 2.5 3 2.5H11ZM3 3.5C2.72386 3.5 2.5 3.72386 2.5 4V12C2.5 12.2761 2.72386 12.5 3 12.5H11C11.2761 12.5 11.5 12.2761 11.5 12V4C11.5 3.72386 11.2761 3.5 11 3.5H3ZM12.5 11.5H13C13.2739 11.5 13.5 11.2739 13.5 11V5C13.5 4.72614 13.2739 4.5 13 4.5H12.5V11.5Z" fill="currentColor"/>
</svg>
