<svg width="16" height="16" viewBox="0 0 16 16" fill="none" xmlns="http://www.w3.org/2000/svg">
<path fill-rule="evenodd" clip-rule="evenodd" d="M6 2.5C6.55228 2.5 7 2.94772 7 3.5V12.5C7 13.0523 6.55228 13.5 6 13.5H4C3.44772 13.5 3 13.0523 3 12.5V3.5C3 2.94772 3.44772 2.5 4 2.5H6ZM4 12.5H6V3.5H4V12.5Z" fill="black"/>
<path fill-rule="evenodd" clip-rule="evenodd" d="M12 2.5C12.5523 2.5 13 2.94772 13 3.5V12.5C13 13.0523 12.5523 13.5 12 13.5H10C9.44772 13.5 9 13.0523 9 12.5V3.5C9 2.94772 9.44772 2.5 10 2.5H12ZM10 12.5H12V3.5H10V12.5Z" fill="black"/>
</svg>
