<svg width="16" height="16" viewBox="0 0 16 16" fill="none" xmlns="http://www.w3.org/2000/svg">
<path d="M6.5 5.5C6.77614 5.5 7 5.72386 7 6V10C7 10.2761 6.77614 10.5 6.5 10.5C6.22386 10.5 6 10.2761 6 10V6C6 5.72386 6.22386 5.5 6.5 5.5Z" fill="black"/>
<path d="M9.5 5.5C9.77614 5.5 10 5.72386 10 6V10C10 10.2761 9.77614 10.5 9.5 10.5C9.22386 10.5 9 10.2761 9 10V6C9 5.72386 9.22386 5.5 9.5 5.5Z" fill="black"/>
<path fill-rule="evenodd" clip-rule="evenodd" d="M8 1.5C11.5899 1.5 14.5 4.41015 14.5 8C14.5 11.5899 11.5899 14.5 8 14.5C4.41015 14.5 1.5 11.5899 1.5 8C1.5 4.41015 4.41015 1.5 8 1.5ZM8 2.5C4.96243 2.5 2.5 4.96243 2.5 8C2.5 11.0376 4.96243 13.5 8 13.5C11.0376 13.5 13.5 11.0376 13.5 8C13.5 4.96243 11.0376 2.5 8 2.5Z" fill="black"/>
</svg>
