<svg width="16" height="16" viewBox="0 0 16 16" fill="none" xmlns="http://www.w3.org/2000/svg">
<path d="M6.14648 3.14651C6.34175 2.95125 6.65825 2.95125 6.85352 3.14651L8.35352 4.64651C8.3735 4.66649 8.39084 4.68882 8.40723 4.71194C8.41791 4.72701 8.42673 4.7429 8.43555 4.75881C8.46008 4.80302 8.48001 4.85026 8.49023 4.90139C8.50319 4.96613 8.50308 5.03292 8.49023 5.09768C8.48009 5.14886 8.46002 5.19599 8.43555 5.24026C8.41337 5.28041 8.38757 5.31948 8.35352 5.35354L6.85352 6.85354C6.65826 7.04877 6.34174 7.04877 6.14648 6.85354C5.95123 6.65828 5.95124 6.34177 6.14648 6.14651L6.79297 5.50002H5C3.61614 5.50002 2.5 6.61617 2.5 8.00002C2.50002 9.38386 3.61616 10.5 5 10.5H11C12.3838 10.5 13.5 9.38386 13.5 8.00002C13.5 6.61617 12.3839 5.50002 11 5.50002C10.7239 5.50002 10.5 5.27615 10.5 5.00002C10.5 4.72388 10.7239 4.50002 11 4.50002C12.9361 4.50002 14.5 6.06388 14.5 8.00002C14.5 9.93615 12.9361 11.5 11 11.5H5C3.06387 11.5 1.50002 9.93615 1.5 8.00002C1.5 6.06388 3.06386 4.50002 5 4.50002H6.79297L6.14648 3.85354C5.95123 3.65828 5.95124 3.34177 6.14648 3.14651Z" fill="black"/>
</svg>
