<svg width="16" height="16" viewBox="0 0 16 16" fill="none" xmlns="http://www.w3.org/2000/svg">
<path fill-rule="evenodd" clip-rule="evenodd" d="M6.25781 5.0625C6.41669 4.97455 6.61062 4.97999 6.76465 5.07617L10.7646 7.57617C10.9108 7.66754 11 7.82761 11 8C11 8.17239 10.9108 8.33246 10.7646 8.42383L6.76465 10.9238C6.61062 11.02 6.41669 11.0254 6.25781 10.9375C6.09884 10.8494 6 10.6818 6 10.5V5.5L6.00488 5.43262C6.02595 5.27762 6.11873 5.13959 6.25781 5.0625ZM7 9.59766L9.55664 8L7 6.40137V9.59766Z" fill="currentColor"/>
<path fill-rule="evenodd" clip-rule="evenodd" d="M8 1.5C11.5899 1.5 14.5 4.41015 14.5 8C14.5 11.5899 11.5899 14.5 8 14.5C4.41015 14.5 1.5 11.5899 1.5 8C1.5 4.41015 4.41015 1.5 8 1.5ZM8 2.5C4.96243 2.5 2.5 4.96243 2.5 8C2.5 11.0376 4.96243 13.5 8 13.5C11.0376 13.5 13.5 11.0376 13.5 8C13.5 4.96243 11.0376 2.5 8 2.5Z" fill="currentColor"/>
</svg>
