<svg width="16" height="16" viewBox="0 0 16 16" fill="none" xmlns="http://www.w3.org/2000/svg">
<path fill-rule="evenodd" clip-rule="evenodd" d="M6 6.50022C7.37614 6.50022 8.5 7.62408 8.5 9.00022C8.49988 10.3763 7.37607 11.5002 6 11.5002C4.62393 11.5002 3.50012 10.3763 3.5 9.00022C3.5 7.62408 4.62386 6.50022 6 6.50022ZM6 7.50022C5.17614 7.50022 4.5 8.17637 4.5 9.00022C4.50012 9.82398 5.17622 10.5002 6 10.5002C6.82378 10.5002 7.49988 9.82398 7.5 9.00022C7.5 8.17637 6.82386 7.50022 6 7.50022Z" fill="black"/>
<path d="M12 10.5002C12.2761 10.5002 12.5 10.7241 12.5 11.0002C12.4999 11.2763 12.2761 11.5002 12 11.5002H10C9.72393 11.5002 9.50012 11.2763 9.5 11.0002C9.5 10.7241 9.72386 10.5002 10 10.5002H12Z" fill="black"/>
<path d="M12 8.50022C12.2761 8.50022 12.5 8.72408 12.5 9.00022C12.4999 9.27626 12.2761 9.50022 12 9.50022H10C9.72393 9.50022 9.50012 9.27626 9.5 9.00022C9.5 8.72408 9.72386 8.50022 10 8.50022H12Z" fill="black"/>
<path d="M12 6.50022C12.2761 6.50022 12.5 6.72408 12.5 7.00022C12.4999 7.27626 12.2761 7.50022 12 7.50022H10C9.72393 7.50022 9.50012 7.27626 9.5 7.00022C9.5 6.72408 9.72386 6.50022 10 6.50022H12Z" fill="black"/>
<path fill-rule="evenodd" clip-rule="evenodd" d="M11.8242 1.53245C12.0827 1.43553 12.3707 1.5661 12.4678 1.82444C12.5646 2.08285 12.4341 2.37094 12.1758 2.468L6.75684 4.50022H13C13.8284 4.50022 14.5 5.1718 14.5 6.00022V12.0002C14.4999 12.8285 13.8284 13.5002 13 13.5002H3C2.17165 13.5002 1.50012 12.8285 1.5 12.0002V6.00022C1.5 5.1718 2.17157 4.50022 3 4.50022H3.91016L11.8242 1.53245ZM3 5.50022C2.72386 5.50022 2.5 5.72408 2.5 6.00022V12.0002C2.50012 12.2763 2.72393 12.5002 3 12.5002H13C13.2761 12.5002 13.4999 12.2763 13.5 12.0002V6.00022C13.5 5.72408 13.2761 5.50022 13 5.50022H3Z" fill="black"/>
</svg>
