<svg width="16" height="16" viewBox="0 0 16 16" fill="none" xmlns="http://www.w3.org/2000/svg">
<path d="M3.2002 1.48047C3.47625 1.48057 3.7002 1.70439 3.7002 1.98047V3.43652C4.80788 2.32034 6.27558 1.5 8 1.5C11.586 1.5 14.4997 4.41407 14.5 8C14.4998 11.5859 11.586 14.5 8 14.5C4.41401 14.5 1.50025 11.5859 1.5 8C1.50025 7.72407 1.72401 7.5 2 7.5C2.27599 7.5 2.49975 7.72407 2.5 8C2.50025 11.0336 4.9663 13.5 8 13.5C11.0337 13.5 13.4998 11.0336 13.5 8C13.4997 4.96636 11.0337 2.5 8 2.5C6.18954 2.5 4.64386 3.62682 3.60938 5.09766C3.48394 5.27575 3.25655 5.35277 3.04883 5.28711C2.8413 5.22129 2.70043 5.02825 2.7002 4.81055V1.98047C2.7002 1.70433 2.92405 1.48047 3.2002 1.48047Z" fill="currentColor"/>
<path d="M7.64648 5.64648C7.78948 5.50349 8.00457 5.4607 8.19141 5.53809C8.3782 5.61549 8.5 5.79779 8.5 6V10C8.49999 10.2761 8.27614 10.5 8 10.5C7.72386 10.5 7.50001 10.2761 7.5 10V7.20703L7.35352 7.35352C7.15826 7.54877 6.84174 7.54877 6.64648 7.35352C6.45122 7.15826 6.45123 6.84175 6.64648 6.64648L7.64648 5.64648Z" fill="currentColor"/>
</svg>
