<svg width="16" height="16" viewBox="0 0 16 16" fill="none" xmlns="http://www.w3.org/2000/svg">
<path fill-rule="evenodd" clip-rule="evenodd" d="M2.60059 3.47949C2.6232 3.48411 2.64463 3.49244 2.66602 3.5H3.5C4.05605 3.5 4.49985 3.94399 4.5 4.5V6.27051L8.02344 3.67676C8.64153 3.21711 9.49979 3.68039 9.5 4.41992V6.25977L13.0234 3.66699C13.6415 3.2072 14.4998 3.67059 14.5 4.41016V11.5498C14.4999 12.3118 13.6291 12.7472 13.0195 12.29L9.5 9.69824V11.54C9.49976 12.3006 8.63283 12.7348 8.02344 12.2812L4.5 9.68848V11.46C4.49987 12.016 4.05606 12.46 3.5 12.46H2.5C1.97857 12.46 1.55563 12.0696 1.50488 11.5625L1.5 11.46V4.46973C1.50015 3.91371 1.94395 3.46973 2.5 3.46973L2.60059 3.47949ZM2.5 11.46H3.5V8.7002C3.5001 8.51177 3.60629 8.33898 3.77441 8.25391C3.94264 8.1689 4.14505 8.18519 4.29688 8.29688L8.5 11.3916V8.70996C8.5001 8.52151 8.60623 8.34873 8.77441 8.26367C8.94264 8.17867 9.14505 8.19496 9.29688 8.30664L13.5 11.4014V4.55762L9.29688 7.65234C9.14505 7.7641 8.94267 7.78129 8.77441 7.69629C8.60627 7.61122 8.5001 7.43843 8.5 7.25V4.56738L4.29688 7.66211C4.14502 7.77389 3.94269 7.79111 3.77441 7.70605C3.6062 7.62095 3.50002 7.44829 3.5 7.25977V4.5H2.5V11.46Z" fill="currentColor"/>
</svg>
