<svg width="16" height="16" viewBox="0 0 16 16" fill="none" xmlns="http://www.w3.org/2000/svg">
<path fill-rule="evenodd" clip-rule="evenodd" d="M13.5 3.46973C14.0561 3.46973 14.4999 3.91371 14.5 4.46973V11.46C14.4999 12.016 14.0561 12.46 13.5 12.46H12.5C11.9439 12.46 11.5001 12.016 11.5 11.46V9.68848L7.97656 12.2822L7.97559 12.2812C7.36622 12.7341 6.50024 12.3004 6.5 11.54V9.69824L2.97949 12.2891C2.36989 12.7463 1.50006 12.3118 1.5 11.5498V4.41016C1.50021 3.67084 2.35753 3.20896 2.97559 3.66797L6.5 6.25977V4.41992C6.50021 3.68065 7.35755 3.21887 7.97559 3.67773L11.5 6.27051V4.5C11.5001 3.94399 11.9439 3.5 12.5 3.5H13.334C13.3861 3.48159 13.4416 3.46973 13.5 3.46973ZM12.5 7.25977C12.5 7.44829 12.3938 7.62095 12.2256 7.70605C12.0573 7.79111 11.855 7.77389 11.7031 7.66211L7.5 4.56738V7.25C7.4999 7.43843 7.39373 7.61122 7.22559 7.69629C7.05733 7.78129 6.85495 7.7641 6.70312 7.65234L2.5 4.55762V11.4014L6.70312 8.30664C6.85495 8.19496 7.05736 8.17867 7.22559 8.26367C7.39377 8.34873 7.4999 8.52151 7.5 8.70996V11.3916L11.7031 8.29688C11.8549 8.18519 12.0574 8.1689 12.2256 8.25391C12.3937 8.33898 12.4999 8.51177 12.5 8.7002V11.46H13.5V4.5H12.5V7.25977Z" fill="currentColor"/>
</svg>
