<svg width="16" height="16" viewBox="0 0 16 16" fill="none" xmlns="http://www.w3.org/2000/svg">
<path fill-rule="evenodd" clip-rule="evenodd" d="M10.2354 5.07617C10.3894 4.97999 10.5833 4.97455 10.7422 5.0625C10.9012 5.15061 11 5.31824 11 5.5V10.5C11 10.6818 10.9012 10.8494 10.7422 10.9375C10.5833 11.0254 10.3894 11.02 10.2354 10.9238L6.5 8.58887V10.5C6.5 10.7761 6.27614 11 6 11C5.72386 11 5.5 10.7761 5.5 10.5V5.5C5.5 5.22386 5.72386 5 6 5C6.27614 5 6.5 5.22386 6.5 5.5V7.41016L10.2354 5.07617ZM7.44238 8L10 9.59766V6.40137L7.44238 8Z" fill="black"/>
<path fill-rule="evenodd" clip-rule="evenodd" d="M8 1.5C11.5899 1.5 14.5 4.41015 14.5 8C14.5 11.5899 11.5899 14.5 8 14.5C4.41015 14.5 1.5 11.5899 1.5 8C1.5 4.41015 4.41015 1.5 8 1.5ZM8 2.5C4.96243 2.5 2.5 4.96243 2.5 8C2.5 11.0376 4.96243 13.5 8 13.5C11.0376 13.5 13.5 11.0376 13.5 8C13.5 4.96243 11.0376 2.5 8 2.5Z" fill="black"/>
</svg>
