<svg width="16" height="16" viewBox="0 0 16 16" fill="none" xmlns="http://www.w3.org/2000/svg">
<path fill-rule="evenodd" clip-rule="evenodd" d="M2.5 3.50981C2.50013 2.71643 3.34985 2.25239 4.00586 2.61821L4.13379 2.70317L4.13477 2.70415L9.96484 7.19341C9.97747 7.20291 9.98798 7.21376 10 7.22368V3.50005C10 2.94776 10.4477 2.50005 11 2.50005H12.5C13.0523 2.50005 13.5 2.94776 13.5 3.50005V12.5C13.5 13.0523 13.0523 13.5 12.5 13.5H11C10.4477 13.5 10 13.0523 10 12.5V8.76567C9.9888 8.77517 9.97851 8.78586 9.9668 8.79497L9.96484 8.79595L4.13477 13.2862L4.13379 13.2872C3.46647 13.7974 2.5 13.3258 2.5 12.4795V3.50981ZM11 12.5H12.5V3.50005H11V12.5ZM3.50879 3.49516C3.50414 3.49745 3.50146 3.49949 3.50098 3.50005C3.50079 3.50071 3.50002 3.50443 3.5 3.50981V12.4795L3.50098 12.4893C3.50125 12.4897 3.50393 12.4928 3.50879 12.4952C3.51316 12.4972 3.5164 12.4972 3.51758 12.4971L3.52637 12.4922L9.35449 8.00395C9.35683 8.00199 9.35852 8.00013 9.35938 7.99907C9.36027 7.99792 9.36095 7.99692 9.36133 7.99614L9.3623 7.99126L9.35449 7.98638L3.52637 3.49712L3.51855 3.49223C3.51735 3.4922 3.51324 3.49301 3.50879 3.49516Z" fill="black"/>
</svg>
