<svg width="16" height="16" viewBox="0 0 16 16" fill="none" xmlns="http://www.w3.org/2000/svg">
<path d="M10.5 4.00018L7.2998 6.3996C7.21326 6.46451 7.10818 6.50018 7 6.50018H5C4.72614 6.50018 4.5 6.72632 4.5 7.00018V9.00018C4.5001 9.27396 4.7262 9.50018 5 9.50018H7L7.08008 9.50604C7.15941 9.5189 7.23485 9.55114 7.2998 9.59979L10.5 12.0002V4.00018ZM11.5 12.0002C11.4999 12.8147 10.5643 13.3029 9.89844 12.799V12.798L6.83398 10.5002H5C4.17392 10.5002 3.50009 9.82624 3.5 9.00018V7.00018C3.5 6.17404 4.17386 5.50018 5 5.50018H6.83301L9.89844 3.20233V3.20135C10.5644 2.69719 11.5 3.18551 11.5 4.00018V12.0002Z" fill="currentColor"/>
</svg>
