<svg width="16" height="16" viewBox="0 0 16 16" fill="none" xmlns="http://www.w3.org/2000/svg">
<path fill-rule="evenodd" clip-rule="evenodd" d="M9.5 1.5C11.1569 1.5 12.5 2.84315 12.5 4.5C12.5 5.55525 11.9536 6.48084 11.1299 7.01562C11.3597 7.27919 11.5 7.62285 11.5 8V8.99902L13.7002 7.34961C13.8517 7.23619 14.0544 7.2181 14.2236 7.30273C14.393 7.38743 14.5 7.56062 14.5 7.75V12.25C14.5 12.4394 14.393 12.6126 14.2236 12.6973C14.0544 12.7819 13.8517 12.7638 13.7002 12.6504L11.5 11V12C11.5 12.8284 10.8284 13.5 10 13.5H4C3.17157 13.5 2.5 12.8284 2.5 12V8C2.5 7.62308 2.63958 7.27912 2.86914 7.01562C2.04581 6.48077 1.5 5.55496 1.5 4.5C1.5 2.84315 2.84315 1.5 4.5 1.5C5.54398 1.5 6.46265 2.03378 7 2.84277C7.53735 2.03378 8.45602 1.5 9.5 1.5ZM4 7.5C3.72386 7.5 3.5 7.72386 3.5 8V12C3.5 12.2761 3.72386 12.5 4 12.5H10C10.2761 12.5 10.5 12.2761 10.5 12V8C10.5 7.72386 10.2761 7.5 10 7.5H4ZM11.833 10L13.5 11.249V8.75L11.833 10ZM7 6.15625C6.91928 6.27785 6.82856 6.39172 6.73145 6.5H7.26855C7.17144 6.39172 7.08072 6.27785 7 6.15625ZM4.5 2.5C3.39543 2.5 2.5 3.39543 2.5 4.5C2.5 5.60457 3.39543 6.5 4.5 6.5C5.60457 6.5 6.5 5.60457 6.5 4.5C6.5 3.39543 5.60457 2.5 4.5 2.5ZM9.5 2.5C8.39543 2.5 7.5 3.39543 7.5 4.5C7.5 5.60457 8.39543 6.5 9.5 6.5C10.6046 6.5 11.5 5.60457 11.5 4.5C11.5 3.39543 10.6046 2.5 9.5 2.5Z" fill="black"/>
</svg>
