<svg width="16" height="16" viewBox="0 0 16 16" fill="none" xmlns="http://www.w3.org/2000/svg">
<path fill-rule="evenodd" clip-rule="evenodd" d="M6.26367 5.22949C6.42615 5.14248 6.62391 5.15178 6.77734 5.25391L10.2773 7.58398C10.4164 7.6767 10.5 7.83286 10.5 8C10.5 8.16716 10.4164 8.3233 10.2773 8.41602L6.77734 10.7461C6.6239 10.8482 6.42617 10.8575 6.26367 10.7705C6.10139 10.6834 6.00006 10.5142 6 10.3301V5.66992L6.00488 5.60156C6.02654 5.44465 6.12172 5.30566 6.26367 5.22949ZM7 9.39648L9.09766 8L7 6.60254V9.39648Z" fill="currentColor"/>
<path fill-rule="evenodd" clip-rule="evenodd" d="M11 1.5C11.8284 1.5 12.5 2.17157 12.5 3V13C12.5 13.8284 11.8284 14.5 11 14.5H5C4.17157 14.5 3.5 13.8284 3.5 13V3C3.5 2.17157 4.17157 1.5 5 1.5H11ZM5 2.5C4.72386 2.5 4.5 2.72386 4.5 3V13C4.5 13.2761 4.72386 13.5 5 13.5H11C11.2761 13.5 11.5 13.2761 11.5 13V3C11.5 2.72386 11.2761 2.5 11 2.5H5Z" fill="currentColor"/>
</svg>
