<svg width="16" height="16" viewBox="0 0 16 16" fill="none" xmlns="http://www.w3.org/2000/svg">
<path fill-rule="evenodd" clip-rule="evenodd" d="M9 3.5C9.82614 3.5 10.5 4.17386 10.5 5V5.95215L13.4531 4.69043L13.46 4.6875C13.9518 4.48525 14.4999 4.8365 14.5 5.37988V10.6201C14.4999 11.1644 13.9381 11.5182 13.4531 11.3086L10.5 10.0469V11C10.5 11.8261 9.82614 12.5 9 12.5H3C2.17386 12.5 1.5 11.8261 1.5 11V5C1.5 4.17386 2.17386 3.5 3 3.5H9ZM3 4.5C2.72614 4.5 2.5 4.72614 2.5 5V11C2.5 11.2739 2.72614 11.5 3 11.5H9C9.27386 11.5 9.5 11.2739 9.5 11V9.29004C9.5 9.1221 9.58448 8.9656 9.72461 8.87305C9.86473 8.78055 10.0419 8.76418 10.1963 8.83008L13.5 10.2422V5.75684L10.1963 7.16992C10.0419 7.23582 9.86473 7.21945 9.72461 7.12695C9.58448 7.0344 9.5 6.8779 9.5 6.70996V5C9.5 4.72614 9.27386 4.5 9 4.5H3Z" fill="currentColor"/>
</svg>
