<svg width="16" height="16" viewBox="0 0 16 16" fill="none" xmlns="http://www.w3.org/2000/svg">
<path d="M11 10H14" stroke="black" stroke-linecap="round" stroke-linejoin="round"/>
<path d="M2 10H9" stroke="black" stroke-linecap="round" stroke-linejoin="round"/>
<path d="M8 12H13" stroke="black" stroke-linecap="round" stroke-linejoin="round"/>
<path d="M3 12H6" stroke="black" stroke-linecap="round" stroke-linejoin="round"/>
<path d="M10 14H11" stroke="black" stroke-linecap="round" stroke-linejoin="round"/>
<path d="M5 14H8" stroke="black" stroke-linecap="round" stroke-linejoin="round"/>
<path d="M8.16998 2C8.51998 2.4 8.73999 2.90999 8.73999 3.48999C8.73999 4.73999 7.72998 5.75 6.47998 5.75C5.90998 5.75 5.38999 5.52999 4.98999 5.17999C5.08999 6.75999 6.37998 8.01001 7.97998 8.01001C9.57998 8.01001 10.99 6.66 10.99 5C10.99 3.34 9.73999 2.10001 8.15999 2.01001L8.16998 2Z" stroke="black" stroke-linecap="round" stroke-linejoin="round"/>
</svg>
