<svg width="16" height="16" viewBox="0 0 16 16" fill="none" xmlns="http://www.w3.org/2000/svg">
<path d="M5.5 13C4.12 13 3 11.88 3 10.5C3 9.12 4.12 8 5.5 8C5.67 8 5.84 8.02 6 8.05V8C6 6.34 7.34 5 9 5C10.66 5 12 6.34 12 8V8.05C12.16 8.02 12.33 8 12.5 8C13.88 8 15 9.12 15 10.5C15 11.88 13.88 13 12.5 13" stroke="black" stroke-linecap="round" stroke-linejoin="round"/>
<path d="M3.78 8.68C3.01 8.25 2.5 7.43 2.5 6.5C2.5 5.12 3.62 4 5 4C6.03 4 6.92 4.63 7.3 5.53" stroke="black" stroke-linecap="round" stroke-linejoin="round"/>
<path d="M5 2.5V2" stroke="black" stroke-linecap="round" stroke-linejoin="round"/>
<path d="M2.42999 3.44005L2.10999 3.05005" stroke="black" stroke-linecap="round" stroke-linejoin="round"/>
<path d="M1.05995 5.80997L0.569946 5.71997" stroke="black" stroke-linecap="round" stroke-linejoin="round"/>
<path d="M1.53998 8.5L1.09998 8.75" stroke="black" stroke-linecap="round" stroke-linejoin="round"/>
<path d="M7.56995 3.44005L7.88995 3.05005" stroke="black" stroke-linecap="round" stroke-linejoin="round"/>
<path d="M9 11V14.94" stroke="black" stroke-linecap="round" stroke-linejoin="round"/>
<path d="M7.29004 11.98L10.71 13.95" stroke="black" stroke-linecap="round" stroke-linejoin="round"/>
<path d="M7.29004 13.95L10.71 11.98" stroke="black" stroke-linecap="round" stroke-linejoin="round"/>
</svg>
