<svg width="16" height="16" viewBox="0 0 16 16" fill="none" xmlns="http://www.w3.org/2000/svg">
<path d="M12.7799 4.42999C12.5499 4.24999 12.3099 4.06998 12.0599 3.91998C11.1399 3.34998 10.0799 3.00999 8.9299 2.99999C6.0999 2.95999 3.7399 4.90999 3.1599 7.55999C2.3299 6.85999 1.6799 5.94997 1.3199 4.90997C1.0999 5.53997 0.989893 6.20997 0.999893 6.90997C1.01989 8.75997 1.8799 10.44 3.2099 11.57C3.4399 11.75 3.6799 11.93 3.9399 12.08C4.8599 12.65 5.9199 12.99 7.0699 13C9.8999 13.04 12.2599 11.09 12.8399 8.44C13.6699 9.14 14.3199 10.05 14.6799 11.09C14.8999 10.46 15.0099 9.79002 14.9999 9.09002C14.9799 7.24002 14.1199 5.55999 12.7899 4.42999H12.7799Z" stroke="black" stroke-linecap="round" stroke-linejoin="round"/>
<path d="M8 10C9.10457 10 10 9.10457 10 8C10 6.89543 9.10457 6 8 6C6.89543 6 6 6.89543 6 8C6 9.10457 6.89543 10 8 10Z" stroke="black" stroke-linecap="round" stroke-linejoin="round"/>
</svg>
