<svg width="16" height="16" viewBox="0 0 16 16" fill="none" xmlns="http://www.w3.org/2000/svg">
<path d="M13 9C12.53 9 12.1 9.17 11.76 9.44C11.36 8.59 10.5 8 9.5 8C8.12 8 7 9.12 7 10.5C7 11.88 8.12 13 9.5 13H13C14.1 13 15 12.1 15 11C15 9.9 14.1 9 13 9Z" stroke="black" stroke-linecap="round" stroke-linejoin="round"/>
<path d="M7.05 11H3.5C2.12 11 1 9.88 1 8.5C1 7.12 2.12 6 3.5 6C3.67 6 3.84 6.01999 4 6.04999V6C4 4.34 5.34 3 7 3C8.66 3 10 4.34 10 6V6.04999C10.16 6.01999 10.33 6 10.5 6C11.88 6 13 7.12 13 8.5C13 8.67 12.98 8.84 12.95 9" stroke="black" stroke-linecap="round" stroke-linejoin="round"/>
</svg>
