<svg width="16" height="16" viewBox="0 0 16 16" fill="none" xmlns="http://www.w3.org/2000/svg">
<path d="M12 12C13.66 12 15 10.66 15 9C15 7.34 13.66 6 12 6C11.98 6 11.97 6 11.95 6C11.71 4.3 10.26 2.98999 8.5 2.98999C6.74 2.98999 5.19 4.39999 5.03 6.17999C4.71 6.05999 4.36 5.98999 4 5.98999C2.34 5.98999 1 7.32999 1 8.98999C1 10.65 2.34 11.99 4 11.99" stroke="black" stroke-linecap="round" stroke-linejoin="round"/>
<path d="M5.5 13L6.5 11" stroke="black" stroke-linecap="round" stroke-linejoin="round"/>
<path d="M7.5 13L8.5 11" stroke="black" stroke-linecap="round" stroke-linejoin="round"/>
<path d="M9.5 13L10.5 11" stroke="black" stroke-linecap="round" stroke-linejoin="round"/>
</svg>
