<svg width="16" height="16" viewBox="0 0 16 16" fill="none" xmlns="http://www.w3.org/2000/svg">
<path d="M5.53015 13C4.15015 13 3.03015 11.88 3.03015 10.5C3.03015 9.12 4.15015 8 5.53015 8C5.70015 8 5.87015 8.02 6.03015 8.05V8C6.03015 6.34 7.37015 5 9.03015 5C10.6902 5 12.0302 6.34 12.0302 8V8.05C12.1902 8.02 12.3602 8 12.5302 8C13.9102 8 15.0302 9.12 15.0302 10.5C15.0302 11.88 13.9102 13 12.5302 13" stroke="black" stroke-linecap="round" stroke-linejoin="round"/>
<path d="M3.81015 8.68C3.04015 8.25 2.53015 7.43 2.53015 6.5C2.53015 5.12 3.65015 4 5.03015 4C6.06015 4 6.95015 4.63 7.33015 5.53" stroke="black" stroke-linecap="round" stroke-linejoin="round"/>
<path d="M5.03015 2.50002V1.90002" stroke="black" stroke-linecap="round" stroke-linejoin="round"/>
<path d="M2.45007 3.43998L2.07007 2.97998" stroke="black" stroke-linecap="round" stroke-linejoin="round"/>
<path d="M1.09012 5.80995L0.500122 5.69995" stroke="black" stroke-linecap="round" stroke-linejoin="round"/>
<path d="M1.56017 8.5L1.05017 8.8" stroke="black" stroke-linecap="round" stroke-linejoin="round"/>
<path d="M7.6001 3.43998L7.9801 2.97998" stroke="black" stroke-linecap="round" stroke-linejoin="round"/>
<path d="M6.53015 14L7.53015 12" stroke="black" stroke-linecap="round" stroke-linejoin="round"/>
<path d="M8.53015 14L9.53015 12" stroke="black" stroke-linecap="round" stroke-linejoin="round"/>
<path d="M10.5302 14L11.5302 12" stroke="black" stroke-linecap="round" stroke-linejoin="round"/>
</svg>
