<svg width="16" height="16" viewBox="0 0 16 16" fill="none" xmlns="http://www.w3.org/2000/svg">
<path d="M12.5 13C13.88 13 15 11.88 15 10.5C15 9.12 13.88 8 12.5 8C12.33 8 12.16 8.01999 12 8.04999V8C12 6.34 10.66 5 9 5C7.34 5 6 6.34 6 8V8.04999C5.84 8.01999 5.67 8 5.5 8C4.12 8 3 9.12 3 10.5C3 11.88 4.12 13 5.5 13H12.5Z" stroke="black" stroke-linecap="round" stroke-linejoin="round"/>
<path d="M3.78 8.67999C3.01 8.24999 2.5 7.43 2.5 6.5C2.5 5.12 3.62 4 5 4C6.03 4 6.91999 4.63003 7.29999 5.53003" stroke="black" stroke-linecap="round" stroke-linejoin="round"/>
<path d="M5 2.5V2" stroke="black" stroke-linecap="round" stroke-linejoin="round"/>
<path d="M2.41998 3.44006L2.09998 3.05005" stroke="black" stroke-linecap="round" stroke-linejoin="round"/>
<path d="M1.05994 5.81L0.559937 5.71997" stroke="black" stroke-linecap="round" stroke-linejoin="round"/>
<path d="M1.52997 8.5L1.09998 8.75" stroke="black" stroke-linecap="round" stroke-linejoin="round"/>
<path d="M7.56995 3.44006L7.88995 3.05005" stroke="black" stroke-linecap="round" stroke-linejoin="round"/>
</svg>
