<svg width="17" height="16" viewBox="0 0 17 16" fill="none" xmlns="http://www.w3.org/2000/svg">
<path d="M5.53015 13C4.15015 13 3.03015 11.88 3.03015 10.5C3.03015 9.12 4.15015 8 5.53015 8C5.70015 8 5.87015 8.01999 6.03015 8.04999V8C6.03015 6.34 7.37015 5 9.03015 5C10.6902 5 12.0302 6.34 12.0302 8V8.04999C12.1902 8.01999 12.3602 8 12.5302 8C13.9102 8 15.0302 9.12 15.0302 10.5C15.0302 11.88 13.9102 13 12.5302 13" stroke="black" stroke-linecap="round" stroke-linejoin="round"/>
<path d="M3.81015 8.67999C3.04015 8.24999 2.53015 7.43 2.53015 6.5C2.53015 5.12 3.65015 4 5.03015 4C6.06015 4 6.95015 4.63003 7.33015 5.53003" stroke="black" stroke-linecap="round" stroke-linejoin="round"/>
<path d="M5.03015 2.5V1.90002" stroke="black" stroke-linecap="round" stroke-linejoin="round"/>
<path d="M2.45007 3.44L2.07007 2.97998" stroke="black" stroke-linecap="round" stroke-linejoin="round"/>
<path d="M1.09012 5.80994L0.500122 5.69995" stroke="black" stroke-linecap="round" stroke-linejoin="round"/>
<path d="M1.56017 8.5L1.05017 8.79999" stroke="black" stroke-linecap="round" stroke-linejoin="round"/>
<path d="M7.6001 3.44L7.9801 2.97998" stroke="black" stroke-linecap="round" stroke-linejoin="round"/>
<path d="M8.03015 14C8.58244 14 9.03015 13.5523 9.03015 13C9.03015 12.4477 8.58244 12 8.03015 12C7.47787 12 7.03015 12.4477 7.03015 13C7.03015 13.5523 7.47787 14 8.03015 14Z" stroke="black" stroke-linecap="round" stroke-linejoin="round"/>
<path d="M11.0302 12C11.5824 12 12.0302 11.5523 12.0302 11C12.0302 10.4477 11.5824 10 11.0302 10C10.4779 10 10.0302 10.4477 10.0302 11C10.0302 11.5523 10.4779 12 11.0302 12Z" stroke="black" stroke-linecap="round" stroke-linejoin="round"/>
</svg>
