<svg width="16" height="16" viewBox="0 0 16 16" fill="none" xmlns="http://www.w3.org/2000/svg">
<path d="M4 12C2.34 12 1 10.66 1 9C1 7.34 2.34 6 4 6C4.36 6 4.71 6.07 5.03 6.19C5.19 4.4 6.67 3 8.5 3C10.33 3 11.71 4.31 11.95 6.01C11.97 6.01 11.98 6.01 12 6.01C13.66 6.01 15 7.35 15 9.01C15 10.67 13.66 12.01 12 12.01" stroke="black" stroke-linecap="round" stroke-linejoin="round"/>
<path d="M6.70002 11.25L5.40002 10.5" stroke="black" stroke-linecap="round" stroke-linejoin="round"/>
<path d="M8 9V10.5" stroke="black" stroke-linecap="round" stroke-linejoin="round"/>
<path d="M9.30005 12.75L10.6 13.5" stroke="black" stroke-linecap="round" stroke-linejoin="round"/>
<path d="M10.6 10.5L9.30005 11.25" stroke="black" stroke-linecap="round" stroke-linejoin="round"/>
<path d="M8 13.5V15" stroke="black" stroke-linecap="round" stroke-linejoin="round"/>
<path d="M5.40002 13.5L6.70002 12.75" stroke="black" stroke-linecap="round" stroke-linejoin="round"/>
<path d="M9.29995 11.25L7.99995 10.5L6.69995 11.25V12.75L7.99995 13.5L9.29995 12.75V11.25Z" stroke="black" stroke-linecap="round" stroke-linejoin="round"/>
</svg>
