<svg width="16" height="16" viewBox="0 0 16 16" fill="none" xmlns="http://www.w3.org/2000/svg">
<path d="M5.5 13C4.12 13 3 11.88 3 10.5C3 9.12 4.12 8 5.5 8C5.67 8 5.84 8.01999 6 8.04999V8C6 6.34 7.34 5 9 5C10.66 5 12 6.34 12 8V8.04999C12.16 8.01999 12.33 8 12.5 8C13.88 8 15 9.12 15 10.5C15 11.88 13.88 13 12.5 13" stroke="black" stroke-linecap="round" stroke-linejoin="round"/>
<path d="M3.59 8.88C2.1 8.48 0.98999 7.12 0.98999 5.5C1.39999 5.81 1.92999 6 2.48999 6C3.86999 6 4.98999 4.88 4.98999 3.5C4.98999 2.94 4.79999 2.41 4.48999 2C6.30999 2 7.81 3.39999 7.98 5.17999" stroke="black" stroke-linecap="round" stroke-linejoin="round"/>
<path d="M8 14C8.55228 14 9 13.5523 9 13C9 12.4477 8.55228 12 8 12C7.44772 12 7 12.4477 7 13C7 13.5523 7.44772 14 8 14Z" stroke="black" stroke-linecap="round" stroke-linejoin="round"/>
<path d="M11 12C11.5523 12 12 11.5523 12 11C12 10.4477 11.5523 10 11 10C10.4477 10 10 10.4477 10 11C10 11.5523 10.4477 12 11 12Z" stroke="black" stroke-linecap="round" stroke-linejoin="round"/>
</svg>
