<svg width="16" height="16" viewBox="0 0 16 16" fill="none" xmlns="http://www.w3.org/2000/svg">
<path d="M12 8C12 6.34 10.66 5 9 5C7.34 5 6 6.34 6 8V8.05C5.84 8.02 5.67 8 5.5 8C4.12 8 3 9.12 3 10.5" stroke="black" stroke-linecap="round" stroke-linejoin="round"/>
<path d="M3.78 8.68C3.01 8.25 2.5 7.43 2.5 6.5C2.5 5.12 3.62 4 5 4C6.03 4 6.92 4.63 7.3 5.53" stroke="black" stroke-linecap="round" stroke-linejoin="round"/>
<path d="M5 2.5V2" stroke="black" stroke-linecap="round" stroke-linejoin="round"/>
<path d="M2.42999 3.44005L2.10999 3.05005" stroke="black" stroke-linecap="round" stroke-linejoin="round"/>
<path d="M1.05995 5.80997L0.569946 5.71997" stroke="black" stroke-linecap="round" stroke-linejoin="round"/>
<path d="M1.53998 8.5L1.09998 8.75" stroke="black" stroke-linecap="round" stroke-linejoin="round"/>
<path d="M7.56995 3.44005L7.88995 3.05005" stroke="black" stroke-linecap="round" stroke-linejoin="round"/>
<path d="M15 8H8" stroke="black" stroke-linecap="round" stroke-linejoin="round"/>
<path d="M14 10H7" stroke="black" stroke-linecap="round" stroke-linejoin="round"/>
<path d="M13 12H6" stroke="black" stroke-linecap="round" stroke-linejoin="round"/>
<path d="M12 14H5" stroke="black" stroke-linecap="round" stroke-linejoin="round"/>
</svg>
