<svg width="16" height="16" viewBox="0 0 16 16" fill="none" xmlns="http://www.w3.org/2000/svg">
<path d="M10 8L9 10H11L7 15V12H5L7 8H10Z" stroke="black" stroke-linecap="round" stroke-linejoin="round"/>
<path d="M9.8 12H12C13.66 12 15 10.66 15 8.99999C15 7.33999 13.66 5.99999 12 5.99999C11.98 5.99999 11.97 5.99999 11.95 5.99999C11.71 4.29999 10.26 2.98999 8.5 2.98999C6.74 2.98999 5.19 4.39999 5.03 6.17999C4.71 6.05999 4.36 5.98999 4 5.98999C2.34 5.98999 1 7.32999 1 8.98999C1 10.65 2.34 11.99 4 11.99H5" stroke="black" stroke-linecap="round" stroke-linejoin="round"/>
</svg>
