<svg width="16" height="16" viewBox="0 0 16 16" fill="none" xmlns="http://www.w3.org/2000/svg">
<path d="M15 10C15 11.66 13.66 13 12 13H4.5C2.57 13 1 11.43 1 9.5C1 7.57 2.57 6 4.5 6C4.68 6 4.86 6.00999 5.03 6.04999C5.25 4.32999 6.72 3 8.5 3C10.43 3 12 4.57 12 6.5C12 6.67 11.99 6.84 11.96 7H12C13.66 7 15 8.34 15 10Z" stroke="black" stroke-linecap="round" stroke-linejoin="round"/>
<path d="M5.03003 6.05005C5.77003 6.16005 6.43003 6.50006 6.94003 7.00006" stroke="black" stroke-linecap="round" stroke-linejoin="round"/>
</svg>
