<svg width="16" height="16" viewBox="0 0 16 16" fill="none" xmlns="http://www.w3.org/2000/svg">
<path d="M10 5.84998C10 5.47998 9.92 5.12001 9.75 4.82001C9.34 4.09001 8 1.98999 8 1.98999C8 1.98999 6.66 4.09001 6.25 4.82001C6.08 5.12001 6 5.47998 6 5.84998C6 7.02998 6.9 8 8 8C9.1 8 10 7.03998 10 5.84998Z" stroke="black" stroke-linecap="round" stroke-linejoin="round"/>
<path d="M7 11.85C7 11.48 6.92 11.12 6.75 10.82C6.34 10.09 5 7.98999 5 7.98999C5 7.98999 3.66 10.09 3.25 10.82C3.08 11.12 3 11.48 3 11.85C3 13.03 3.9 14 5 14C6.1 14 7 13.04 7 11.85Z" stroke="black" stroke-linecap="round" stroke-linejoin="round"/>
<path d="M13 11.85C13 11.48 12.92 11.12 12.75 10.82C12.34 10.09 11 7.98999 11 7.98999C11 7.98999 9.66 10.09 9.25 10.82C9.08 11.12 9 11.48 9 11.85C9 13.03 9.9 14 11 14C12.1 14 13 13.04 13 11.85Z" stroke="black" stroke-linecap="round" stroke-linejoin="round"/>
</svg>
