<svg width="16" height="16" viewBox="0 0 16 16" fill="none" xmlns="http://www.w3.org/2000/svg">
<path d="M7.99997 10L7.96997 14" stroke="black" stroke-linecap="round" stroke-linejoin="round"/>
<path d="M8 6C8 3.79 9.79 2 12 2V6M8 6C7.45 6 7 5.55 7 5V3.5C7 2.67 6.33 2 5.5 2C4.67 2 4 2.67 4 3.5V4V6C4 8.21 5.79 10 8 10C10.21 10 12 8.21 12 6M8 6H12" stroke="black" stroke-linecap="round" stroke-linejoin="round"/>
<path d="M3 12H12" stroke="black" stroke-linecap="round" stroke-linejoin="round"/>
<path d="M4 11L3 12L4 13" stroke="black" stroke-linecap="round" stroke-linejoin="round"/>
<path d="M13 11L12 12L13 13" stroke="black" stroke-linecap="round" stroke-linejoin="round"/>
<path d="M5 4H3" stroke="black" stroke-linecap="round" stroke-linejoin="round"/>
</svg>
