<svg width="16" height="16" viewBox="0 0 16 16" fill="none" xmlns="http://www.w3.org/2000/svg">
<path d="M2.11993 8.53003C3.87993 10.29 6.73994 10.29 8.49994 8.53003C10.2599 6.77003 10.2599 3.91002 8.49994 2.15002C8.44994 2.10002 8.38993 2.05 8.32993 2C9.74993 2.09 11.1399 2.66 12.2199 3.75C13.3999 4.93 13.9799 6.47001 13.9799 8.01001C13.9799 9.55001 13.3899 11.09 12.2199 12.27C11.0399 13.45 9.49993 14.03 7.95993 14.03C6.41993 14.03 4.87995 13.44 3.69995 12.27C2.61995 11.19 2.03995 9.8 1.94995 8.38C1.99995 8.44 2.04995 8.48999 2.09995 8.54999L2.11993 8.53003Z" stroke="black" stroke-linecap="round" stroke-linejoin="round"/>
</svg>
