<svg width="16" height="16" viewBox="0 0 16 16" fill="none" xmlns="http://www.w3.org/2000/svg">
<path d="M11 12.4998C11.2761 12.4998 11.4999 12.7237 11.5 12.9998C11.5 13.2759 11.2761 13.4998 11 13.4998H3C2.72386 13.4998 2.5 13.2759 2.5 12.9998C2.50014 12.7237 2.72394 12.4998 3 12.4998H11Z" fill="currentColor"/>
<path d="M13 10.4998C13.2761 10.4998 13.4999 10.7237 13.5 10.9998C13.5 11.2759 13.2761 11.4998 13 11.4998H3C2.72386 11.4998 2.5 11.2759 2.5 10.9998C2.50014 10.7237 2.72394 10.4998 3 10.4998H13Z" fill="currentColor"/>
<path fill-rule="evenodd" clip-rule="evenodd" d="M6.94629 2.35621C7.53152 1.77128 8.4783 1.7712 9.06348 2.35621L9.65332 2.94703C10.2384 3.5323 10.2385 4.47901 9.65332 5.06421L5.36328 9.35425C5.26956 9.44771 5.14214 9.49976 5.00977 9.49976H3.00977C2.73381 9.49963 2.50989 9.27572 2.50977 8.99976V6.99976C2.50989 6.86743 2.56274 6.73988 2.65625 6.64625L6.94629 2.35621ZM8.35645 3.06421C8.16171 2.86949 7.84805 2.86948 7.65332 3.06421L3.50977 7.20777V8.49976H4.80273L8.94629 4.35621C9.14068 4.16151 9.14074 3.84871 8.94629 3.65406L8.35645 3.06421Z" fill="currentColor"/>
</svg>
