<svg width="16" height="16" viewBox="0 0 16 16" fill="none" xmlns="http://www.w3.org/2000/svg">
<path d="M14.5666 5.75107C14.7043 5.51193 15.01 5.4291 15.2492 5.5665C15.4882 5.70423 15.5711 6.00993 15.4338 6.24912C14.9492 7.09069 14.3588 7.8468 13.6857 8.49326L14.6496 9.68662C14.8224 9.90142 14.789 10.2164 14.5744 10.3897C14.3597 10.563 14.0448 10.529 13.8713 10.3145L12.9279 9.14658C12.2259 9.68754 11.4533 10.1163 10.6281 10.4112L11.0861 11.8478C11.1701 12.1107 11.0248 12.3926 10.7619 12.4767C10.4991 12.5603 10.2181 12.4151 10.134 12.1524L9.66619 10.6886C9.12708 10.8068 8.57047 10.8702 8.00018 10.8702C7.42954 10.8702 6.87251 10.8064 6.33319 10.6876L5.86639 12.1524C5.78227 12.4153 5.50045 12.5606 5.23748 12.4767C4.97461 12.3925 4.82929 12.1107 4.91327 11.8478L5.37225 10.4103C4.54776 10.1147 3.77579 9.6852 3.0744 9.14463L2.12909 10.3145C1.95568 10.5291 1.64074 10.5628 1.42596 10.3897C1.2112 10.2162 1.1783 9.90142 1.35174 9.68662L2.31561 8.49131C1.64205 7.84486 1.05231 7.08882 0.567562 6.2501C0.429402 6.01101 0.511102 5.70565 0.750179 5.56748C0.989248 5.42939 1.29464 5.51105 1.4328 5.7501C2.88139 8.25646 5.30194 9.87021 8.00018 9.87021C9.73029 9.87018 11.3441 9.20914 12.6623 8.07334C12.6701 8.0662 12.6774 8.05858 12.6857 8.05185C12.6897 8.04863 12.6944 8.04615 12.6984 8.04306C13.4216 7.41261 14.0552 6.63915 14.5666 5.75107Z" fill="black"/>
</svg>
