<svg width="16" height="16" viewBox="0 0 16 16" fill="none" xmlns="http://www.w3.org/2000/svg">
<path fill-rule="evenodd" clip-rule="evenodd" d="M8 5.49975C9.38062 5.49975 10.4999 6.61916 10.5 7.99975C10.5 9.38046 9.38071 10.4998 8 10.4998C6.61929 10.4998 5.5 9.38046 5.5 7.99975C5.50015 6.61916 6.61938 5.49975 8 5.49975ZM8 6.49975C7.17166 6.49975 6.50015 7.17145 6.5 7.99975C6.5 8.82818 7.17157 9.49975 8 9.49975C8.82843 9.49975 9.5 8.82818 9.5 7.99975C9.49985 7.17145 8.82834 6.49975 8 6.49975Z" fill="currentColor"/>
<path fill-rule="evenodd" clip-rule="evenodd" d="M7.24902 1.85717C7.71408 1.58734 8.28593 1.58731 8.75098 1.85717L8.75 1.85815L12.9492 4.27709L12.9512 4.27807C13.4153 4.54776 13.7001 5.04232 13.7002 5.57983V10.4304C13.7001 10.9679 13.4153 11.4625 12.9512 11.7322L12.9492 11.7331L8.75 14.1511L8.75098 14.1521C8.28603 14.422 7.71505 14.4217 7.25 14.1521L3.0498 11.7331L3.04883 11.7322C2.58464 11.4625 2.29994 10.9679 2.2998 10.4304V5.57983C2.2999 5.04226 2.58462 4.54774 3.04883 4.27807L3.0498 4.27709L7.24902 1.85717ZM8.24902 2.72241C8.09433 2.63269 7.90565 2.63264 7.75098 2.72241L7.74902 2.72338L3.5498 5.1433C3.39512 5.23374 3.2999 5.39824 3.2998 5.57983V10.4304C3.29994 10.6117 3.3946 10.7764 3.54883 10.8669L7.74902 13.2869L7.75098 13.2878C7.90565 13.3776 8.09435 13.3776 8.24902 13.2878L8.25 13.2869L12.4502 10.8669C12.6048 10.7765 12.7001 10.6119 12.7002 10.4304V5.57983C12.7001 5.3983 12.6048 5.23376 12.4502 5.1433L8.25 2.72338L8.24902 2.72241Z" fill="currentColor"/>
</svg>
