<svg width="16" height="16" viewBox="0 0 16 16" fill="none" xmlns="http://www.w3.org/2000/svg">
<path d="M7.55273 5.77637C7.67623 5.5294 7.97666 5.42926 8.22363 5.55273C8.47062 5.67623 8.57074 5.97665 8.44727 6.22363L7.80859 7.5H9C9.1714 7.5 9.3312 7.58761 9.42285 7.73242C9.51448 7.87738 9.52474 8.05994 9.45117 8.21484L8.50195 10.2148C8.38346 10.4641 8.08528 10.5695 7.83594 10.4512C7.58653 10.3327 7.48016 10.0346 7.59863 9.78516L8.20898 8.5H7C6.82672 8.49999 6.66532 8.4101 6.57422 8.2627C6.48332 8.11535 6.4753 7.93124 6.55273 7.77637L7.55273 5.77637Z" fill="black"/>
<path fill-rule="evenodd" clip-rule="evenodd" d="M13 3.5C13.8261 3.5 14.5 4.17386 14.5 5V6.08691C15.0814 6.2937 15.5 6.84915 15.5 7.5V8.5C15.5 9.15074 15.0813 9.70524 14.5 9.91211V11C14.5 11.8261 13.8261 12.5 13 12.5H3C2.17386 12.5 1.5 11.8261 1.5 11V5C1.5 4.17386 2.17386 3.5 3 3.5H13ZM3 4.5C2.72614 4.5 2.5 4.72614 2.5 5V11C2.5 11.2739 2.72614 11.5 3 11.5H13C13.2739 11.5 13.5 11.2739 13.5 11V9.5C13.5 9.25829 13.6714 9.05629 13.8994 9.00977L14.1006 8.99023C14.3272 8.94307 14.5 8.7395 14.5 8.5V7.5C14.5 7.2605 14.3272 7.05693 14.1006 7.00977L13.8994 6.99023C13.6714 6.94371 13.5 6.74171 13.5 6.5V5C13.5 4.72614 13.2739 4.5 13 4.5H3Z" fill="black"/>
</svg>
