<svg width="16" height="16" viewBox="0 0 16 16" fill="none" xmlns="http://www.w3.org/2000/svg">
<path fill-rule="evenodd" clip-rule="evenodd" d="M8 0.5C8.27614 0.5 8.5 0.723858 8.5 1V2.52344C11.1385 2.76125 13.2388 4.8615 13.4766 7.5H15C15.2761 7.5 15.5 7.72386 15.5 8C15.5 8.27614 15.2761 8.5 15 8.5H13.4766C13.2388 11.1385 11.1385 13.2377 8.5 13.4756V15C8.5 15.2761 8.27614 15.5 8 15.5C7.72386 15.5 7.5 15.2761 7.5 15V13.4756C4.86154 13.2377 2.76125 11.1385 2.52344 8.5H1C0.723858 8.5 0.5 8.27614 0.5 8C0.5 7.72386 0.723858 7.5 1 7.5H2.52344C2.76125 4.8615 4.8615 2.76125 7.5 2.52344V1C7.5 0.723858 7.72386 0.5 8 0.5ZM8.5 5C8.5 5.27614 8.27614 5.5 8 5.5C7.72386 5.5 7.5 5.27614 7.5 5V3.52832C5.41427 3.75893 3.75893 5.41427 3.52832 7.5H5C5.27614 7.5 5.5 7.72386 5.5 8C5.5 8.27614 5.27614 8.5 5 8.5H3.52832C3.75893 10.5857 5.41432 12.24 7.5 12.4707V11C7.5 10.7239 7.72386 10.5 8 10.5C8.27614 10.5 8.5 10.7239 8.5 11V12.4707C10.5857 12.24 12.2411 10.5857 12.4717 8.5H11C10.7239 8.5 10.5 8.27614 10.5 8C10.5 7.72386 10.7239 7.5 11 7.5H12.4717C12.2411 5.41427 10.5857 3.75893 8.5 3.52832V5Z" fill="black"/>
</svg>
