<svg width="16" height="16" viewBox="0 0 16 16" fill="none" xmlns="http://www.w3.org/2000/svg">
<path fill-rule="evenodd" clip-rule="evenodd" d="M9.64644 1.64657C9.8417 1.45131 10.1582 1.45131 10.3535 1.64657L14.3535 5.64656C14.5486 5.84183 14.5487 6.15836 14.3535 6.3536C14.1582 6.54883 13.8417 6.54878 13.6464 6.3536L13.0322 5.73934L10.6376 8.60457C11.0793 9.33986 10.9861 10.3107 10.3535 10.9434L9.94331 11.3536C9.84956 11.4473 9.72234 11.5001 9.5898 11.5001C9.45728 11.5 9.33 11.4473 9.23628 11.3536L7.29488 9.41219L3.35347 13.3536C3.15822 13.5488 2.8417 13.5488 2.64644 13.3536C2.45118 13.1583 2.45119 12.8418 2.64644 12.6466L6.58784 8.70516L4.64644 6.76375C4.45121 6.56853 4.45129 6.25199 4.64644 6.05672L5.05659 5.64656C5.68901 5.01423 6.65932 4.92054 7.39448 5.36141L10.2597 2.96688L9.64644 2.3536C9.45118 2.15833 9.45118 1.84183 9.64644 1.64657ZM7.73042 6.38387C7.53184 6.54968 7.2396 6.53646 7.05659 6.3536C6.70189 5.99889 6.11837 5.99895 5.76363 6.3536L5.70698 6.41024L9.5898 10.293L9.64644 10.2364C10.0011 9.88168 10.0011 9.29816 9.64644 8.94344C9.46352 8.76045 9.45036 8.46822 9.61616 8.26961L12.3222 5.02938L10.9697 3.67684L7.73042 6.38387Z" fill="currentColor"/>
</svg>
