<svg width="16" height="16" viewBox="0 0 16 16" fill="none" xmlns="http://www.w3.org/2000/svg">
<path fill-rule="evenodd" clip-rule="evenodd" d="M6 11C6.82843 11 7.5 11.6716 7.5 12.5C7.5 13.3284 6.82843 14 6 14C5.17157 14 4.5 13.3284 4.5 12.5C4.5 11.6716 5.17157 11 6 11ZM6 12C5.72386 12 5.5 12.2239 5.5 12.5C5.5 12.7761 5.72386 13 6 13C6.27614 13 6.5 12.7761 6.5 12.5C6.5 12.2239 6.27614 12 6 12Z" fill="currentColor"/>
<path fill-rule="evenodd" clip-rule="evenodd" d="M10 11C10.8284 11 11.5 11.6716 11.5 12.5C11.5 13.3284 10.8284 14 10 14C9.17157 14 8.5 13.3284 8.5 12.5C8.5 11.6716 9.17157 11 10 11ZM10 12C9.72386 12 9.5 12.2239 9.5 12.5C9.5 12.7761 9.72386 13 10 13C10.2761 13 10.5 12.7761 10.5 12.5C10.5 12.2239 10.2761 12 10 12Z" fill="currentColor"/>
<path fill-rule="evenodd" clip-rule="evenodd" d="M7 2.5C7.27614 2.5 7.5 2.72386 7.5 3V10C7.5 10.2761 7.27614 10.5 7 10.5H5C4.72386 10.5 4.5 10.2761 4.5 10V3C4.5 2.72386 4.72386 2.5 5 2.5H7ZM5.5 9.5H6.5V3.5H5.5V9.5Z" fill="currentColor"/>
<path fill-rule="evenodd" clip-rule="evenodd" d="M11 2.5C11.2761 2.5 11.5 2.72386 11.5 3V10C11.5 10.2761 11.2761 10.5 11 10.5H9C8.72386 10.5 8.5 10.2761 8.5 10V3C8.5 2.72386 8.72386 2.5 9 2.5H11ZM9.5 9.5H10.5V3.5H9.5V9.5Z" fill="currentColor"/>
</svg>
