<svg width="16" height="16" viewBox="0 0 16 16" fill="none" xmlns="http://www.w3.org/2000/svg">
<path d="M10.1467 6.14648C10.3419 5.95129 10.6585 5.95125 10.8537 6.14648C11.0488 6.34173 11.0488 6.65828 10.8537 6.85352L9.7072 8L10.8537 9.14648C11.0488 9.34173 11.0488 9.65828 10.8537 9.85352C10.6585 10.0487 10.3419 10.0487 10.1467 9.85352L9.00017 8.70703L7.85369 9.85352C7.65846 10.0487 7.34193 10.0487 7.14666 9.85352C6.9514 9.65825 6.9514 9.34175 7.14666 9.14648L8.29314 8L7.14666 6.85352C6.9514 6.65825 6.9514 6.34175 7.14666 6.14648C7.34193 5.95129 7.65845 5.95125 7.85369 6.14648L9.00017 7.29297L10.1467 6.14648Z" fill="black"/>
<path fill-rule="evenodd" clip-rule="evenodd" d="M13.0002 3.5C13.8262 3.50013 14.5002 4.17394 14.5002 5V11C14.5002 11.8261 13.8262 12.4999 13.0002 12.5H5.83025C5.1649 12.5 4.53829 12.2353 4.06658 11.7637L0.656424 8.35352C0.461205 8.15826 0.461205 7.84174 0.656424 7.64648L4.06658 4.23633C4.53257 3.76045 5.17095 3.50002 5.83025 3.5H13.0002ZM5.83025 4.5C5.43203 4.50002 5.05204 4.65772 4.77849 4.93848L1.71697 8L4.77361 11.0566C5.06183 11.3448 5.43579 11.5 5.83025 11.5H13.0002C13.2739 11.4999 13.5002 11.2738 13.5002 11V5C13.5002 4.72622 13.2739 4.50013 13.0002 4.5H5.83025Z" fill="black"/>
</svg>
