<svg width="16" height="16" viewBox="0 0 16 16" fill="none" xmlns="http://www.w3.org/2000/svg">
<path fill-rule="evenodd" clip-rule="evenodd" d="M3.94043 2.93945C5.04477 2.93972 5.94043 3.83602 5.94043 4.94043C5.94035 5.28699 5.85049 5.61232 5.69531 5.89648L7.66602 7.37402L12.7002 3.59961C12.9211 3.43422 13.2348 3.47944 13.4004 3.7002C13.5658 3.92109 13.5206 4.23478 13.2998 4.40039L8.49902 7.99902L13.2998 11.5996C13.5206 11.7652 13.5658 12.0789 13.4004 12.2998C13.2348 12.5206 12.9211 12.5658 12.7002 12.4004L7.66602 8.62402L5.69531 10.1025C5.85081 10.387 5.94043 10.7135 5.94043 11.0605C5.94017 12.1647 5.04461 13.0603 3.94043 13.0605C2.83602 13.0605 1.93972 12.1649 1.93945 11.0605C1.93945 9.95598 2.83586 9.06055 3.94043 9.06055C4.3324 9.06064 4.69727 9.1742 5.00586 9.36914L6.83203 7.99902L5.00586 6.62988C4.69717 6.82499 4.33259 6.94034 3.94043 6.94043C2.83602 6.94043 1.93972 6.04477 1.93945 4.94043C1.93945 3.83586 2.83586 2.93945 3.94043 2.93945ZM3.94043 10.0605C3.38814 10.0605 2.94043 10.5083 2.94043 11.0605C2.94069 11.6126 3.38831 12.0605 3.94043 12.0605C4.49233 12.0603 4.94017 11.6124 4.94043 11.0605C4.94043 10.5084 4.49249 10.0608 3.94043 10.0605ZM3.94043 3.94043C3.38814 3.94043 2.94043 4.38814 2.94043 4.94043C2.94069 5.49249 3.38831 5.94043 3.94043 5.94043C4.49233 5.94017 4.94017 5.49233 4.94043 4.94043C4.94043 4.38831 4.49249 3.94069 3.94043 3.94043Z" fill="black"/>
</svg>
