<svg width="16" height="16" viewBox="0 0 16 16" fill="none" xmlns="http://www.w3.org/2000/svg">
<path fill-rule="evenodd" clip-rule="evenodd" d="M7.80868 1.53806C7.9955 1.46069 8.21061 1.50347 8.3536 1.64645L11.3536 4.64645C11.5488 4.84171 11.5488 5.15824 11.3536 5.35349L8.70712 7.99997L11.3536 10.6465C11.5488 10.8417 11.5488 11.1582 11.3536 11.3535L8.3536 14.3535C8.21062 14.4965 7.9955 14.5392 7.80868 14.4619C7.62189 14.3845 7.5001 14.2022 7.50008 14V9.207L5.3536 11.3535C5.15836 11.5487 4.84184 11.5487 4.64657 11.3535C4.45131 11.1582 4.45131 10.8417 4.64657 10.6465L7.29305 7.99997L4.64657 5.35349C4.45131 5.15822 4.45131 4.84172 4.64657 4.64645C4.84183 4.45121 5.15834 4.4512 5.3536 4.64645L7.50008 6.79294V1.99997C7.50008 1.79776 7.62188 1.61546 7.80868 1.53806ZM8.50008 12.7929L10.2931 11L8.50008 9.207V12.7929ZM8.50008 6.79294L10.2931 4.99997L8.50008 3.207V6.79294Z" fill="currentColor"/>
</svg>
