<svg width="16" height="16" viewBox="0 0 16 16" fill="none" xmlns="http://www.w3.org/2000/svg">
<path fill-rule="evenodd" clip-rule="evenodd" d="M8 1.5C8.27614 1.5 8.5 1.72386 8.5 2V2.5H12.5C12.5291 2.5 12.5578 2.50291 12.5859 2.50781C12.5968 2.5097 12.6075 2.51207 12.6182 2.51465C12.6369 2.5192 12.6549 2.5256 12.6729 2.53223C12.6799 2.53484 12.6874 2.53615 12.6943 2.53906L12.7021 2.54297C12.7266 2.55378 12.7501 2.56651 12.7725 2.58105C12.7785 2.58501 12.7842 2.58954 12.79 2.59375C12.8081 2.60665 12.8245 2.62147 12.8408 2.63672C12.8469 2.64241 12.8536 2.64734 12.8594 2.65332C12.8623 2.6563 12.8654 2.65905 12.8682 2.66211L12.915 2.7207C12.9185 2.72588 12.9205 2.732 12.9238 2.7373C12.9318 2.75015 12.9404 2.76268 12.9473 2.77637L15.4473 7.77637C15.4493 7.78042 15.4502 7.78498 15.4521 7.78906C15.4601 7.80603 15.4657 7.82385 15.4717 7.8418C15.4764 7.8559 15.4819 7.86952 15.4854 7.88379C15.4892 7.90007 15.4909 7.91674 15.4932 7.93359C15.4955 7.95061 15.4975 7.96737 15.498 7.98438C15.4982 7.98958 15.5 7.99475 15.5 8C15.5 9.65614 14.1561 11 12.5 11C10.8439 11 9.5 9.65614 9.5 8C9.5 7.99476 9.50082 7.98957 9.50098 7.98438C9.5015 7.9674 9.50358 7.95058 9.50586 7.93359C9.5081 7.91677 9.5098 7.90004 9.51367 7.88379C9.51709 7.86955 9.52261 7.85587 9.52734 7.8418C9.53334 7.82388 9.53897 7.80601 9.54688 7.78906C9.54884 7.78485 9.55064 7.78055 9.55273 7.77637L11.6914 3.5H8.5V12.5H13C13.2761 12.5 13.5 12.7239 13.5 13C13.5 13.2761 13.2761 13.5 13 13.5H3C2.72386 13.5 2.5 13.2761 2.5 13C2.5 12.7239 2.72386 12.5 3 12.5H7.5V3.5H4.30859L6.44727 7.77637C6.44929 7.78042 6.45024 7.78498 6.45215 7.78906C6.46008 7.80603 6.46566 7.82385 6.47168 7.8418C6.47643 7.8559 6.48192 7.86952 6.48535 7.88379C6.48924 7.90007 6.49092 7.91674 6.49316 7.93359C6.49546 7.95061 6.49753 7.96737 6.49805 7.98438C6.49821 7.98958 6.5 7.99475 6.5 8C6.5 9.65614 5.15614 11 3.5 11C1.84386 11 0.5 9.65614 0.5 8C0.5 7.99476 0.500817 7.98957 0.500977 7.98438C0.501496 7.9674 0.503577 7.95058 0.505859 7.93359C0.508098 7.91677 0.509803 7.90004 0.513672 7.88379C0.517087 7.86955 0.522614 7.85587 0.527344 7.8418C0.533337 7.82388 0.538973 7.80601 0.546875 7.78906C0.548838 7.78485 0.550643 7.78055 0.552734 7.77637L3.05273 2.77637L3.0752 2.7373C3.09926 2.69847 3.12867 2.6636 3.16211 2.63281C3.16946 2.62604 3.17782 2.62056 3.18555 2.61426C3.20603 2.59754 3.22701 2.5817 3.25 2.56836C3.2606 2.56221 3.27119 2.55614 3.28223 2.55078C3.30597 2.53925 3.33079 2.53016 3.35645 2.52246C3.3665 2.51943 3.37644 2.51607 3.38672 2.51367C3.42317 2.50522 3.46098 2.5 3.5 2.5H7.5V2C7.5 1.72386 7.72386 1.5 8 1.5ZM1.56543 8.5C1.78787 9.36194 2.56897 10 3.5 10C4.43103 10 5.21213 9.36194 5.43457 8.5H1.56543ZM10.5654 8.5C10.7879 9.36194 11.569 10 12.5 10C13.431 10 14.2121 9.36194 14.4346 8.5H10.5654ZM1.80859 7.5H5.19141L3.5 4.11816L1.80859 7.5ZM10.8086 7.5H14.1914L12.5 4.11816L10.8086 7.5Z" fill="currentColor"/>
</svg>
