<svg width="16" height="16" viewBox="0 0 16 16" fill="none" xmlns="http://www.w3.org/2000/svg">
<path fill-rule="evenodd" clip-rule="evenodd" d="M7.77011 1.5751C7.93757 1.48853 8.14339 1.50292 8.29843 1.61807L10.2984 3.1083C10.425 3.20257 10.4995 3.3519 10.4996 3.50967V7.4999C10.4995 7.65711 10.4252 7.80498 10.2994 7.89932L8.4996 9.24893V9.63858L11.1578 10.5253L11.2633 10.5751C11.3614 10.636 11.4369 10.7299 11.4742 10.8417L12.4742 13.8417C12.5615 14.1037 12.4198 14.3872 12.1578 14.4745C11.8959 14.5616 11.6123 14.42 11.525 14.1581L10.6041 11.3954L8.4996 10.6933V12.9999C8.4996 13.276 8.27574 13.4999 7.9996 13.4999C7.72364 13.4997 7.4996 13.2759 7.4996 12.9999V10.6933L5.39511 11.3954L4.47421 14.1581C4.38687 14.4201 4.10336 14.5618 3.8414 14.4745C3.57969 14.387 3.43774 14.1035 3.52499 13.8417L4.52499 10.8417C4.57472 10.6925 4.69225 10.5751 4.8414 10.5253L7.4996 9.63858V9.24893L5.6998 7.89932C5.5743 7.80497 5.49974 7.65692 5.4996 7.4999V3.50967C5.49975 3.35191 5.57426 3.20257 5.70077 3.1083L7.70077 1.61807L7.77011 1.5751ZM6.4996 3.75967V7.24893L7.9996 8.37393L9.4996 7.24893V3.75967L7.9996 2.64248L6.4996 3.75967Z" fill="black"/>
</svg>
