<svg width="16" height="16" viewBox="0 0 16 16" fill="none" xmlns="http://www.w3.org/2000/svg">
<path fill-rule="evenodd" clip-rule="evenodd" d="M13 1.5C13.8284 1.5 14.5 2.17157 14.5 3V13C14.5 13.8284 13.8284 14.5 13 14.5H3C2.17157 14.5 1.5 13.8284 1.5 13V3C1.5 2.17157 2.17157 1.5 3 1.5H13ZM6.5 13.5H13C13.2761 13.5 13.5 13.2761 13.5 13V11.5H6.5V13.5ZM2.5 13C2.5 13.2761 2.72386 13.5 3 13.5H5.5V11.5H2.5V13ZM6.5 10.5H13.5V8.5H6.5V10.5ZM2.5 10.5H5.5V8.5H2.5V10.5ZM6.5 7.5H13.5V5.5H6.5V7.5ZM2.5 7.5H5.5V5.5H2.5V7.5ZM3 2.5C2.72386 2.5 2.5 2.72386 2.5 3V4.5H13.5V3C13.5 2.72386 13.2761 2.5 13 2.5H3Z" fill="black"/>
</svg>
