<svg width="16" height="16" viewBox="0 0 16 16" fill="none" xmlns="http://www.w3.org/2000/svg">
<path fill-rule="evenodd" clip-rule="evenodd" d="M7.2157 2.83369C7.70663 2.58297 8.29205 2.58324 8.78309 2.83369L13.7743 5.33271C14.2535 5.57259 14.4945 6.03061 14.4989 6.49092C14.499 6.49385 14.4999 6.49676 14.4999 6.49971V9.99971C14.4999 10.2758 14.276 10.4997 13.9999 10.4997C13.7238 10.4996 13.4999 10.2758 13.4999 9.99971V7.81318L12.4999 8.31416V10.9997C12.4999 11.1933 12.4251 11.3661 12.3514 11.4938C12.2732 11.6294 12.168 11.7626 12.0487 11.8884C11.809 12.141 11.4778 12.4013 11.0848 12.6354C10.299 13.1037 9.21123 13.4997 7.99988 13.4997C6.78859 13.4997 5.70078 13.1037 4.91492 12.6354C4.52203 12.4013 4.19072 12.141 3.95105 11.8884C3.83178 11.7626 3.72657 11.6293 3.64832 11.4938C3.57464 11.3661 3.49988 11.1933 3.49988 10.9997V8.31514L2.22547 7.67744C1.25784 7.193 1.25786 5.81718 2.22547 5.33271L7.2157 2.83369ZM8.78406 10.1774L8.78309 10.1765C8.29202 10.4269 7.70664 10.4272 7.2157 10.1765L4.49988 8.81611V10.9636C4.50281 10.97 4.50702 10.9808 4.51453 10.9938C4.54269 11.0426 4.59429 11.113 4.67664 11.1999C4.84145 11.3736 5.09635 11.5792 5.42664 11.7761C6.08822 12.1703 7.00129 12.4997 7.99988 12.4997C8.99853 12.4997 9.91151 12.1703 10.5731 11.7761C10.9035 11.5792 11.1583 11.3737 11.3231 11.1999C11.4056 11.113 11.4571 11.0426 11.4852 10.9938C11.4928 10.9807 11.4969 10.9701 11.4999 10.9636V8.81514L8.78406 10.1774ZM8.33094 3.72529C8.12448 3.61914 7.87529 3.61913 7.66883 3.72529L7.66394 3.72724L2.67371 6.22724C2.47143 6.32852 2.44593 6.58901 2.59754 6.73017L2.67371 6.78291L4.16785 7.53096C4.20934 7.5458 4.24846 7.56487 4.28406 7.58955L7.66394 9.28291L7.66883 9.28584C7.87509 9.39178 8.12466 9.39172 8.33094 9.28584L8.33582 9.28291L11.7147 7.58955C11.7502 7.56482 11.7895 7.54588 11.8309 7.53096L12.8925 6.99971H7.99988C7.72381 6.99963 7.49988 6.7758 7.49988 6.49971C7.50007 6.22377 7.72392 5.99978 7.99988 5.99971H12.872L8.33582 3.72724L8.33094 3.72529Z" fill="currentColor"/>
</svg>
