<svg width="16" height="16" viewBox="0 0 16 16" fill="none" xmlns="http://www.w3.org/2000/svg">
<path d="M8 5.5C8.27614 5.5 8.5 5.72386 8.5 6V7.79297L9.35352 8.64648C9.54878 8.84175 9.54878 9.15825 9.35352 9.35352C9.15825 9.54878 8.84175 9.54878 8.64648 9.35352L7.64648 8.35352C7.55272 8.25975 7.5 8.13261 7.5 8V6C7.5 5.72386 7.72386 5.5 8 5.5Z" fill="black"/>
<path fill-rule="evenodd" clip-rule="evenodd" d="M8 3.5C10.4853 3.5 12.5 5.51472 12.5 8C12.5 10.4853 10.4853 12.5 8 12.5C5.51472 12.5 3.5 10.4853 3.5 8C3.5 5.51472 5.51472 3.5 8 3.5ZM8 4.5C6.067 4.5 4.5 6.067 4.5 8C4.5 9.933 6.067 11.5 8 11.5C9.933 11.5 11.5 9.933 11.5 8C11.5 6.067 9.933 4.5 8 4.5Z" fill="black"/>
<path fill-rule="evenodd" clip-rule="evenodd" d="M8 1.5C11.5861 1.5 14.5 4.41386 14.5 8V13C14.5 13.8261 13.8261 14.5 13 14.5H3C2.17386 14.5 1.5 13.8261 1.5 13V8C1.5 4.41386 4.41386 1.5 8 1.5ZM8 2.5C4.96614 2.5 2.5 4.96614 2.5 8V13C2.5 13.2739 2.72614 13.5 3 13.5H13C13.2739 13.5 13.5 13.2739 13.5 13V8C13.5 4.96614 11.0339 2.5 8 2.5Z" fill="black"/>
</svg>
