<svg width="16" height="16" viewBox="0 0 16 16" fill="none" xmlns="http://www.w3.org/2000/svg">
<path fill-rule="evenodd" clip-rule="evenodd" d="M7.99996 1.5C9.10451 1.50002 9.99996 2.39544 9.99996 3.5C9.99996 4.43161 9.36214 5.21127 8.49996 5.43359V7.5H8.99996C9.27609 7.50002 9.49996 7.72387 9.49996 8C9.49996 8.27613 9.27609 8.49998 8.99996 8.5H8.49996V12.4707C10.2662 12.275 11.7236 11.0568 12.2685 9.4209C12.0751 9.54462 11.8155 9.52254 11.6464 9.35352C11.4512 9.15825 11.4512 8.84175 11.6464 8.64648L12.6464 7.64648L12.7246 7.58203C12.7766 7.5477 12.8336 7.52454 12.8925 7.51172C12.9009 7.50989 12.9094 7.50922 12.9179 7.50781C12.9406 7.50408 12.9633 7.50157 12.9863 7.50098C12.9908 7.50085 12.9954 7.5 13 7.5C13.0052 7.5 13.0104 7.50082 13.0156 7.50098C13.0362 7.50165 13.0567 7.50363 13.0771 7.50684C13.0907 7.50894 13.104 7.51148 13.1171 7.51465C13.1341 7.51874 13.1505 7.5244 13.167 7.53027C13.1781 7.53422 13.1894 7.53729 13.2002 7.54199C13.216 7.54892 13.2309 7.55777 13.2461 7.56641C13.2852 7.58869 13.3218 7.61483 13.3535 7.64648L14.3535 8.64648C14.5487 8.84174 14.5487 9.15827 14.3535 9.35352C14.1582 9.54876 13.8417 9.54872 13.6464 9.35352L13.3896 9.09668C12.9131 11.4487 10.935 13.2558 8.49996 13.4756V14C8.49996 14.2761 8.27609 14.5 7.99996 14.5C7.72382 14.5 7.49996 14.2761 7.49996 14V13.4756C5.06486 13.2558 3.08582 11.4488 2.60934 9.09668L2.35348 9.35352C2.15823 9.54876 1.84171 9.54872 1.64645 9.35352C1.45118 9.15825 1.45118 8.84175 1.64645 8.64648L2.64645 7.64648L2.72457 7.58203C2.77657 7.5477 2.83365 7.52454 2.89254 7.51172C2.90088 7.50989 2.90944 7.50922 2.91793 7.50781C2.94063 7.50408 2.96334 7.50157 2.98629 7.50098C2.99083 7.50085 2.9954 7.5 2.99996 7.5C3.0052 7.5 3.01039 7.50082 3.01559 7.50098C3.03621 7.50165 3.05668 7.50363 3.07711 7.50684C3.09066 7.50894 3.10398 7.51148 3.11715 7.51465C3.13406 7.51874 3.15046 7.5244 3.16695 7.53027C3.17807 7.53422 3.18942 7.53729 3.20016 7.54199C3.21598 7.54892 3.23088 7.55777 3.24606 7.56641C3.28523 7.58869 3.32183 7.61483 3.35348 7.64648L4.35348 8.64648C4.54868 8.84174 4.5487 9.15827 4.35348 9.35352C4.18423 9.52277 3.92395 9.54505 3.73043 9.4209C4.27524 11.0569 5.73358 12.2751 7.49996 12.4707V8.5H6.99996C6.72382 8.5 6.49996 8.27614 6.49996 8C6.49996 7.72386 6.72382 7.5 6.99996 7.5H7.49996V5.43359C6.63775 5.2113 5.99996 4.43164 5.99996 3.5C5.99996 2.39543 6.89539 1.5 7.99996 1.5ZM7.99996 2.5C7.44768 2.5 6.99996 2.94772 6.99996 3.5C6.99996 4.05228 7.44768 4.5 7.99996 4.5C8.55223 4.49998 8.99996 4.05227 8.99996 3.5C8.99996 2.94773 8.55223 2.50002 7.99996 2.5Z" fill="currentColor"/>
</svg>
