<svg width="16" height="16" viewBox="0 0 16 16" fill="none" xmlns="http://www.w3.org/2000/svg">
<path fill-rule="evenodd" clip-rule="evenodd" d="M8 11C8.82843 11 9.5 11.6716 9.5 12.5C9.5 13.3284 8.82843 14 8 14C7.17157 14 6.5 13.3284 6.5 12.5C6.5 11.6716 7.17157 11 8 11ZM8 12C7.72386 12 7.5 12.2239 7.5 12.5C7.5 12.7761 7.72386 13 8 13C8.27614 13 8.5 12.7761 8.5 12.5C8.5 12.2239 8.27614 12 8 12Z" fill="currentColor"/>
<path fill-rule="evenodd" clip-rule="evenodd" d="M9 2.5C9.27614 2.5 9.5 2.72386 9.5 3V10C9.5 10.2761 9.27614 10.5 9 10.5H7C6.72386 10.5 6.5 10.2761 6.5 10V3C6.5 2.72386 6.72386 2.5 7 2.5H9ZM7.5 9.5H8.5V3.5H7.5V9.5Z" fill="currentColor"/>
</svg>
