<svg width="16" height="16" viewBox="0 0 16 16" fill="none" xmlns="http://www.w3.org/2000/svg">
<path fill-rule="evenodd" clip-rule="evenodd" d="M9.06649 2.70613C9.85171 1.92108 11.1084 1.92106 11.8936 2.70613C12.1538 2.96633 12.3231 3.27683 12.4073 3.60261C12.7372 3.68922 13.051 3.86355 13.3038 4.11628C14.0887 4.90151 14.0888 6.15825 13.3038 6.94343C12.6408 7.60638 11.6427 7.70749 10.8751 7.25105L10.1212 8.00398L10.8653 8.74812C11.6329 8.29187 12.6312 8.39384 13.294 9.05671C14.0789 9.84197 14.0791 11.0987 13.294 11.8839C13.0413 12.1366 12.7273 12.3089 12.3975 12.3956C12.3135 12.722 12.1445 13.0333 11.8839 13.294C11.0987 14.0791 9.84198 14.0789 9.05672 13.294C8.39383 12.6311 8.29184 11.6329 8.74813 10.8653L8.00399 10.1212L7.25106 10.8751C7.7075 11.6427 7.6064 12.6408 6.94344 13.3038C6.15826 14.0888 4.90151 14.0887 4.11629 13.3038C3.85561 13.043 3.68466 12.7318 3.60067 12.4053C3.27152 12.3185 2.95841 12.1459 2.70614 11.8936C1.92108 11.1084 1.9211 9.8517 2.70614 9.06648C3.36885 8.40377 4.36639 8.30203 5.13387 8.75788L5.8868 8.00398L5.13387 7.25105C4.36634 7.70718 3.36896 7.60624 2.70614 6.94343C1.92106 6.15818 1.92101 4.9015 2.70614 4.11628C2.95855 3.86388 3.27131 3.68938 3.60067 3.60261C3.68483 3.27663 3.85595 2.96647 4.11629 2.70613C4.90151 1.92102 6.1582 1.92106 6.94344 2.70613C7.60623 3.36894 7.70715 4.36633 7.25106 5.13386L8.00399 5.88679L8.7579 5.13386C8.30204 4.36638 8.40379 3.36883 9.06649 2.70613ZM11.1866 3.41316C10.7919 3.01862 10.1682 3.01864 9.77352 3.41316C9.37884 3.80785 9.37893 4.4315 9.77352 4.82624C9.86719 4.91997 9.91997 5.04725 9.92 5.17976C9.92 5.31231 9.86722 5.43952 9.77352 5.53327L5.53329 9.77351C5.33805 9.96861 5.02149 9.96861 4.82625 9.77351C4.43151 9.37892 3.80786 9.37882 3.41317 9.77351C3.01866 10.1682 3.01863 10.7919 3.41317 11.1866C3.59353 11.3669 3.83266 11.4634 4.05379 11.4698C4.31858 11.4774 4.53133 11.6904 4.53915 11.9551C4.54554 12.1789 4.63491 12.4072 4.82332 12.5958C5.21806 12.9905 5.84167 12.9905 6.23641 12.5958C6.63075 12.2011 6.63077 11.5783 6.23641 11.1837C6.04133 10.9884 6.04132 10.6719 6.23641 10.4766L7.59969 9.11238C7.61402 9.09317 7.62913 9.07416 7.64657 9.05671C7.66402 9.03926 7.68302 9.02417 7.70223 9.00984L9.00985 7.70222C9.02418 7.68301 9.03928 7.664 9.05672 7.64656C9.07418 7.62911 9.09317 7.61401 9.11239 7.59968L10.4766 6.2364L10.5528 6.1739C10.6343 6.11966 10.7309 6.08994 10.8302 6.08992C10.9626 6.09002 11.09 6.14282 11.1837 6.2364C11.5783 6.63075 12.2011 6.63072 12.5958 6.2364C12.9905 5.84166 12.9905 5.21805 12.5958 4.82331C12.4153 4.64305 12.1763 4.54545 11.9552 4.53913C11.6904 4.53131 11.4774 4.31856 11.4698 4.05378C11.4633 3.83006 11.3751 3.60169 11.1866 3.41316ZM8.71102 9.41413L9.76375 10.4669C9.9587 10.6621 9.95889 10.9787 9.76375 11.1739C9.36909 11.5686 9.36904 12.1923 9.76375 12.587C10.1585 12.9813 10.7822 12.9815 11.1768 12.587C11.3655 12.3983 11.4536 12.1693 11.46 11.9454C11.4678 11.6808 11.6808 11.4678 11.9454 11.46C12.1667 11.4537 12.4065 11.3573 12.587 11.1768C12.9815 10.7822 12.9813 10.1585 12.587 9.76374C12.1923 9.36904 11.5687 9.3691 11.1739 9.76374C10.9788 9.9589 10.6622 9.9587 10.4669 9.76374L9.41415 8.71101L8.71102 9.41413ZM6.23641 3.41316C5.8417 3.01861 5.21801 3.01857 4.82332 3.41316C4.63478 3.60171 4.54564 3.83002 4.53915 4.05378C4.53158 4.31873 4.31874 4.53156 4.05379 4.53913C3.83261 4.54556 3.59356 4.64294 3.41317 4.82331C3.01856 5.218 3.01862 5.84168 3.41317 6.2364C3.80788 6.63109 4.43152 6.63105 4.82625 6.2364L4.90243 6.1739C4.98394 6.11954 5.08035 6.08994 5.17977 6.08992C5.3123 6.08992 5.43953 6.14273 5.53329 6.2364L6.59383 7.29695L7.29696 6.59382L6.23641 5.53327C6.14274 5.43952 6.08993 5.31229 6.08993 5.17976C6.08998 5.04722 6.14269 4.91997 6.23641 4.82624C6.63104 4.43151 6.6311 3.80786 6.23641 3.41316Z" fill="black"/>
</svg>
