<svg width="16" height="16" viewBox="0 0 16 16" fill="none" xmlns="http://www.w3.org/2000/svg">
<path fill-rule="evenodd" clip-rule="evenodd" d="M7.99995 4.5C9.93609 4.5 11.4999 6.06386 11.4999 8C11.4999 9.93614 9.93609 11.5 7.99995 11.5C6.06385 11.5 4.49995 9.93611 4.49995 8C4.49995 6.06389 6.06385 4.50005 7.99995 4.5ZM7.99995 5.5C6.61613 5.50005 5.49995 6.61617 5.49995 8C5.49995 9.38383 6.61613 10.5 7.99995 10.5C9.38381 10.5 10.4999 9.38386 10.4999 8C10.4999 6.61614 9.38381 5.5 7.99995 5.5Z" fill="currentColor"/>
<path d="M7.99995 2.5C11.1565 2.5 13.8709 4.65499 15.4462 7.77441C15.5707 8.02085 15.4719 8.32176 15.2255 8.44629C14.9791 8.5707 14.6782 8.47194 14.5537 8.22559C13.089 5.32513 10.6633 3.5 7.99995 3.5C5.33662 3.50003 2.91092 5.32513 1.44624 8.22559C1.3217 8.47194 1.02079 8.57073 0.774363 8.44629C0.528034 8.32175 0.429237 8.02083 0.55366 7.77441C2.12897 4.655 4.84338 2.50003 7.99995 2.5Z" fill="currentColor"/>
</svg>
