<svg width="16" height="16" viewBox="0 0 16 16" fill="none" xmlns="http://www.w3.org/2000/svg">
<path fill-rule="evenodd" clip-rule="evenodd" d="M4.75098 2.36638C6.83059 1.17493 9.29999 1.2517 11.248 2.36638C11.3632 2.43229 11.4477 2.54108 11.4824 2.66911C11.517 2.79733 11.4999 2.9349 11.4336 3.04997L9.65625 6.13102C10.054 6.48373 10.3404 6.95917 10.4502 7.50016H14C14.2761 7.50016 14.5 7.72402 14.5 8.00016C14.4999 10.2508 13.341 12.4308 11.249 13.634C11.0099 13.7711 10.7042 13.6882 10.5664 13.4494L8.79102 10.3693C8.54216 10.4523 8.27677 10.5002 8 10.5002C7.7229 10.5002 7.45711 10.4525 7.20801 10.3693L5.43359 13.4494C5.29592 13.6881 4.99008 13.7709 4.75098 13.634C3.78552 13.0806 2.96165 12.2778 2.36719 11.2511L2.36523 11.2472C1.78206 10.2213 1.50004 9.10585 1.5 8.00016C1.5 7.72402 1.72386 7.50016 2 7.50016H5.5498C5.65951 6.95942 5.94535 6.48369 6.34277 6.13102L4.56641 3.04997C4.50017 2.93502 4.4831 2.79818 4.51758 2.67009C4.55217 2.54203 4.63597 2.43244 4.75098 2.36638ZM2.52539 8.50016C2.59554 9.26732 2.82563 10.0323 3.23242 10.7492C3.64808 11.4671 4.19492 12.0505 4.82812 12.4953L6.34277 9.86735C5.94585 9.51484 5.6595 9.0404 5.5498 8.50016H2.52539ZM10.4502 8.50016C10.3404 9.04065 10.0535 9.5148 9.65625 9.86735L11.1709 12.4953C12.5286 11.5431 13.333 10.0692 13.4746 8.50016H10.4502ZM8 6.50016C7.73042 6.50016 7.47741 6.57099 7.25879 6.69548C7.25553 6.69746 7.25332 6.70138 7.25 6.70329C7.24761 6.70467 7.24459 6.70489 7.24219 6.70622C6.7984 6.96673 6.5 7.44837 6.5 8.00016C6.50011 8.82849 7.17164 9.50016 8 9.50016C8.82836 9.50016 9.49989 8.82849 9.5 8.00016C9.5 7.44807 9.20103 6.96663 8.75684 6.70622C8.75469 6.70502 8.75214 6.70452 8.75 6.70329C8.74643 6.70123 8.74374 6.69761 8.74023 6.69548C8.52178 6.57125 8.26927 6.50016 8 6.50016ZM10.3027 3.007C8.87525 2.3544 7.19552 2.31766 5.69629 3.00602L7.20801 5.63005C7.45707 5.54685 7.72296 5.50016 8 5.50016C8.27671 5.50016 8.54221 5.54704 8.79102 5.63005L10.3027 3.007Z" fill="currentColor"/>
</svg>
