<svg width="16" height="16" viewBox="0 0 16 16" fill="none" xmlns="http://www.w3.org/2000/svg">
<path d="M8.00023 11.5C8.27629 11.5001 8.50023 11.7239 8.50023 12C8.50023 12.2761 8.27629 12.4999 8.00023 12.5C7.72409 12.5 7.50023 12.2761 7.50023 12C7.50023 11.7239 7.72409 11.5 8.00023 11.5Z" fill="black"/>
<path d="M8.00023 8.62305C8.85104 8.6231 9.68293 8.97664 10.3537 9.64746C10.5485 9.84277 10.5488 10.1594 10.3537 10.3545C10.1586 10.5492 9.8419 10.5491 9.64672 10.3545C9.14765 9.85542 8.5643 9.6231 8.00023 9.62305C7.43611 9.62305 6.85288 9.85536 6.35375 10.3545C6.15864 10.5492 5.8419 10.5491 5.64672 10.3545C5.45157 10.1593 5.45181 9.84275 5.64672 9.64746C6.31759 8.97659 7.14936 8.62305 8.00023 8.62305Z" fill="black"/>
<path d="M8.00023 5.74512C9.55854 5.74515 11.0979 6.39068 12.3537 7.64648C12.5489 7.84174 12.5489 8.15829 12.3537 8.35352C12.1585 8.54874 11.842 8.54866 11.6467 8.35352C10.5626 7.26946 9.2718 6.74515 8.00023 6.74512C6.72863 6.74512 5.43786 7.26943 4.35375 8.35352C4.15853 8.54874 3.84199 8.54866 3.64672 8.35352C3.45151 8.15825 3.45147 7.84173 3.64672 7.64648C4.90258 6.39065 6.44188 5.74512 8.00023 5.74512Z" fill="black"/>
<path d="M8.00023 2.86719C10.266 2.86724 12.5129 3.80568 14.3537 5.64648C14.5488 5.84169 14.5488 6.15829 14.3537 6.35352C14.1585 6.54857 13.8419 6.54857 13.6467 6.35352C11.9776 4.68446 9.97929 3.86723 8.00023 3.86719C6.02119 3.86719 4.02283 4.68453 2.35375 6.35352C2.15853 6.54857 1.84194 6.54857 1.64672 6.35352C1.45154 6.1583 1.45162 5.84175 1.64672 5.64648C3.48755 3.80575 5.73444 2.86719 8.00023 2.86719Z" fill="black"/>
</svg>
