<svg width="16" height="16" viewBox="0 0 16 16" fill="none" xmlns="http://www.w3.org/2000/svg">
<path fill-rule="evenodd" clip-rule="evenodd" d="M6.64648 6.64648C6.79104 6.50193 7.00936 6.45953 7.19727 6.54004L14.1973 9.54004C14.3879 9.6218 14.5085 9.81327 14.5 10.0205C14.4914 10.2279 14.3551 10.409 14.1582 10.4746L11.3955 11.3955L10.4746 14.1582C10.409 14.3551 10.2279 14.4914 10.0205 14.5C9.81327 14.5085 9.6218 14.3879 9.54004 14.1973L6.54004 7.19727C6.45953 7.00936 6.50193 6.79104 6.64648 6.64648ZM9.94141 12.5928L10.5254 10.8418C10.5752 10.6925 10.6925 10.5752 10.8418 10.5254L12.5928 9.94141L7.95215 7.95215L9.94141 12.5928Z" fill="currentColor"/>
<path fill-rule="evenodd" clip-rule="evenodd" d="M12 1.5C12.2761 1.5 12.5 1.72386 12.5 2V4C12.5 4.27614 12.2761 4.5 12 4.5H10C9.72386 4.5 9.5 4.27614 9.5 4V3.50977C8.35511 3.55236 7.34565 3.75405 6.5 4.27051V6C6.5 6.27614 6.27614 6.5 6 6.5H4.27148C3.75483 7.34574 3.55237 8.35492 3.50977 9.5H4C4.27614 9.5 4.5 9.72386 4.5 10V12C4.5 12.2761 4.27614 12.5 4 12.5H2C1.72386 12.5 1.5 12.2761 1.5 12V10C1.5 9.72386 1.72386 9.5 2 9.5H2.50977C2.55414 8.20165 2.7897 6.93792 3.5 5.84961V4C3.5 3.72386 3.72386 3.5 4 3.5H5.84961C6.93793 2.78969 8.20164 2.55316 9.5 2.50879V2C9.5 1.72386 9.72386 1.5 10 1.5H12ZM2.5 11.5H3.5V10.5H2.5V11.5ZM4.5 5.5H5.5V4.5H4.5V5.5ZM10.5 3.5H11.5V2.5H10.5V3.5Z" fill="currentColor"/>
</svg>
