<svg width="16" height="16" viewBox="0 0 16 16" fill="none" xmlns="http://www.w3.org/2000/svg">
<path d="M7.99976 8.49985C8.27583 8.49985 8.49964 8.7238 8.49976 8.99985C8.49976 9.27599 8.2759 9.49985 7.99976 9.49985C7.72373 9.49972 7.49976 9.27591 7.49976 8.99985C7.49987 8.72388 7.7238 8.49998 7.99976 8.49985Z" fill="currentColor"/>
<path d="M7.98999 4.49985C8.81606 4.49985 9.48987 5.1738 9.48999 5.99985C9.48999 6.60844 9.07272 7.08395 8.5896 7.28696L8.49976 7.327V7.49985C8.49976 7.77599 8.2759 7.99985 7.99976 7.99985C7.72372 7.99972 7.49976 7.77591 7.49976 7.49985V7.24985C7.49983 6.94685 7.6574 6.66127 7.91577 6.50082L8.03296 6.44028L8.18921 6.37192L8.19995 6.36703C8.39232 6.2876 8.48999 6.12702 8.48999 5.99985C8.48987 5.72609 8.26378 5.49985 7.98999 5.49985C7.75056 5.49985 7.547 5.67279 7.49976 5.89926L7.48022 6.10043C7.4337 6.3284 7.2317 6.49985 6.98999 6.49985C6.71385 6.49985 6.48999 6.27599 6.48999 5.99985C6.49011 5.1738 7.16392 4.49985 7.98999 4.49985Z" fill="currentColor"/>
<path fill-rule="evenodd" clip-rule="evenodd" d="M2.85034 6.6395C2.85063 3.64586 5.40809 1.25589 8.44409 1.51157L8.73999 1.54477L8.9812 1.58481C11.4093 2.04033 13.1098 4.09833 13.1384 6.57407C13.1458 6.60808 13.1501 6.64333 13.1501 6.67953C13.1501 7.53986 12.9539 8.40427 12.5066 9.12875L12.5076 9.12973C11.7585 10.3645 9.69846 13.3884 8.823 14.6717L8.82202 14.6737C8.42331 15.2518 7.57725 15.2517 7.17847 14.6737L7.17749 14.6717C6.41137 13.5487 4.73773 11.0923 3.82983 9.66879L3.49292 9.12973C3.04531 8.39495 2.85034 7.51963 2.85034 6.6395ZM8.60034 2.535C6.0447 2.17801 3.85064 4.15051 3.85034 6.6395C3.85034 7.37917 4.01523 8.06508 4.34741 8.6102L4.67847 9.1395C5.56934 10.5358 7.22416 12.9654 7.99976 14.1024C8.8862 12.8029 10.9229 9.814 11.6531 8.6102L11.655 8.60629C11.9737 8.09123 12.1356 7.44702 12.1472 6.75864C12.1429 6.73136 12.1401 6.70362 12.1404 6.67563C12.1582 4.56215 10.6874 2.82951 8.60034 2.535Z" fill="currentColor"/>
</svg>
