<svg width="16" height="16" viewBox="0 0 16 16" fill="none" xmlns="http://www.w3.org/2000/svg">
<path d="M6.63672 5.50098C6.91217 5.4828 7.15062 5.69139 7.16895 5.9668L7.49902 10.9668C7.5172 11.2422 7.30858 11.4807 7.0332 11.499C6.75775 11.5172 6.5193 11.3086 6.50098 11.0332L6.1709 6.0332C6.15272 5.75775 6.36131 5.5193 6.63672 5.50098Z" fill="black"/>
<path d="M9.36328 5.50098C9.63865 5.51934 9.84728 5.75778 9.8291 6.0332L9.49902 11.0332C9.4807 11.3086 9.24225 11.5172 8.9668 11.499C8.69139 11.4807 8.4828 11.2422 8.50098 10.9668L8.83105 5.9668C8.84938 5.69139 9.08783 5.4828 9.36328 5.50098Z" fill="black"/>
<path fill-rule="evenodd" clip-rule="evenodd" d="M8.5 1.5C9.32614 1.5 10 2.17386 10 3V3.5H13C13.2761 3.5 13.5 3.72386 13.5 4C13.5 4.27614 13.2761 4.5 13 4.5H12.4375L11.5869 12.1582C11.5112 12.9303 10.8607 13.5 10.0996 13.5H5.88965C5.12061 13.4998 4.49227 12.924 4.40332 12.168V12.165L3.55273 4.5H3C2.72386 4.5 2.5 4.27614 2.5 4C2.5 3.72386 2.72386 3.5 3 3.5H6V3C6 2.17386 6.67386 1.5 7.5 1.5H8.5ZM5.39648 12.0518L5.41602 12.1465C5.48064 12.3586 5.67027 12.4998 5.88965 12.5H10.0996C10.3584 12.5 10.5683 12.3093 10.5928 12.0615V12.0547L11.4316 4.5H4.55859L5.39648 12.0518ZM7.5 2.5C7.22614 2.5 7 2.72614 7 3V3.5H9V3C9 2.72614 8.77386 2.5 8.5 2.5H7.5Z" fill="black"/>
</svg>
