<svg width="16" height="16" viewBox="0 0 16 16" fill="none" xmlns="http://www.w3.org/2000/svg">
<path d="M10.5 4.00022L7.2998 6.39963C7.21326 6.46454 7.10818 6.50022 7 6.50022H5C4.72614 6.50022 4.5 6.72636 4.5 7.00022V9.00022C4.5001 9.274 4.7262 9.50022 5 9.50022H7L7.08008 9.50608C7.15941 9.51894 7.23485 9.55117 7.2998 9.59983L10.5 12.0002V4.00022ZM11.5 12.0002C11.4999 12.8147 10.5643 13.303 9.89844 12.799V12.7981L6.83398 10.5002H5C4.17392 10.5002 3.50009 9.82628 3.5 9.00022V7.00022C3.5 6.17408 4.17386 5.50022 5 5.50022H6.83301L9.89844 3.20237V3.20139C10.5644 2.69723 11.5 3.18555 11.5 4.00022V12.0002Z" fill="black"/>
</svg>
