<svg width="16" height="16" viewBox="0 0 16 16" fill="none" xmlns="http://www.w3.org/2000/svg">
<path fill-rule="evenodd" clip-rule="evenodd" d="M8.75705 2.23047C10.4646 1.57588 12.3749 2.35569 13.1584 3.99316L13.2317 4.15722L13.2326 4.15918L13.3303 4.4248C13.7238 5.64133 13.4163 6.93561 12.5901 7.83691L12.802 8.3457L13.9211 8.80761C14.176 8.91303 14.2977 9.20583 14.1926 9.46093L13.843 10.3086L14.6906 10.6582C14.8131 10.7088 14.9113 10.8063 14.9621 10.9287C15.0128 11.0511 15.0128 11.1891 14.9621 11.3115L13.8821 13.9209C13.7766 14.1757 13.4847 14.2972 13.2297 14.1924L11.9201 13.6523C11.7975 13.6018 11.6996 13.5043 11.6487 13.3818L9.82639 8.98047C9.17324 8.95249 8.54159 8.73794 8.00705 8.36914C7.47065 8.7435 6.83546 8.96258 6.17307 8.99023L5.96116 9.50097L6.42209 10.6191C6.52718 10.8743 6.40569 11.1672 6.15061 11.2725L5.30295 11.6211L5.65256 12.4697C5.75745 12.7246 5.63573 13.0165 5.38108 13.1221L2.7717 14.2021C2.64932 14.2528 2.51127 14.2527 2.38889 14.2021C2.26642 14.1513 2.169 14.0532 2.11838 13.9307L1.57834 12.6211C1.52797 12.4989 1.52787 12.3614 1.57834 12.2393L3.40061 7.83691C2.51369 6.8696 2.22478 5.4497 2.75803 4.15918L2.75901 4.15722C3.49972 2.38655 5.51994 1.5328 7.30002 2.25683C7.31407 2.26123 7.32936 2.26286 7.34299 2.26855C7.57586 2.36598 7.79275 2.48577 7.99241 2.62402C8.19615 2.48141 8.41879 2.35862 8.65745 2.25879C8.68964 2.24537 8.72348 2.23686 8.75705 2.23047ZM6.94748 3.1914C5.67636 2.65969 4.21759 3.26346 3.68186 4.54004L3.68284 4.54101C3.26549 5.55098 3.549 6.66414 4.32053 7.34472C4.48056 7.48598 4.53387 7.71386 4.45237 7.91113L2.5803 12.4297L2.8508 13.0869L4.53733 12.3887L4.18772 11.541C4.1372 11.4185 4.1378 11.2806 4.1887 11.1582C4.23966 11.0358 4.3376 10.9382 4.46018 10.8877L5.30686 10.5381L4.95823 9.69043C4.90784 9.56808 4.90756 9.43081 4.95823 9.30859L5.37815 8.29785C5.46025 8.10061 5.65909 7.97752 5.87229 7.99121C6.3621 8.02275 6.84161 7.90331 7.25608 7.66308C7.06035 7.41526 6.89437 7.1373 6.7678 6.83105L6.76877 6.83008C6.26401 5.62063 6.49156 4.29595 7.24338 3.33496C7.15736 3.28553 7.06833 3.23916 6.97483 3.19922C6.96601 3.19611 6.95616 3.19496 6.94748 3.1914ZM12.3078 4.54004C11.7721 3.26377 10.3141 2.66001 9.04319 3.1914C9.02135 3.20053 8.99836 3.20702 8.9758 3.21289C8.89625 3.2489 8.8193 3.28904 8.74534 3.33203C9.50537 4.29405 9.73863 5.6249 9.23166 6.83984L9.23264 6.84082C9.10847 7.14131 8.94542 7.41385 8.7551 7.6582C9.16881 7.89537 9.64592 8.01281 10.1281 7.98144L10.2072 7.98242C10.3893 7.9997 10.5507 8.11613 10.6223 8.28906L12.4924 12.8066L13.1487 13.0771L13.8469 11.3906L13.0002 11.042C12.8778 10.9915 12.7797 10.8947 12.7287 10.7725C12.6778 10.6501 12.6773 10.5122 12.7278 10.3896L13.0764 9.54101L12.2297 9.19238C12.1072 9.14185 12.0092 9.04422 11.9582 8.92187L11.5383 7.91211C11.4562 7.71457 11.5097 7.4862 11.6701 7.34472C12.4414 6.66418 12.725 5.54983 12.3078 4.54004ZM7.99631 4.00097C7.53471 4.61944 7.36994 5.43344 7.60471 6.20703L7.69163 6.44726L7.6926 6.44922C7.77493 6.64838 7.88075 6.83046 8.00413 6.99511C8.12377 6.83302 8.22714 6.65426 8.30784 6.45898L8.30881 6.45703C8.66241 5.61158 8.51126 4.68519 7.99631 4.00097Z" fill="black"/>
</svg>
