<svg width="16" height="16" viewBox="0 0 16 16" fill="none" xmlns="http://www.w3.org/2000/svg">
<path d="M7 7.5C7.27614 7.5 7.5 7.72386 7.5 8V9C7.5 9.27614 7.27614 9.5 7 9.5C6.72386 9.5 6.5 9.27614 6.5 9V8C6.5 7.72386 6.72386 7.5 7 7.5Z" fill="currentColor"/>
<path fill-rule="evenodd" clip-rule="evenodd" d="M11 1.5C11.8261 1.5 12.5 2.17386 12.5 3V12C12.5 12.8261 11.8261 13.5 11 13.5H9.5V13.9004C9.49972 14.7894 8.59938 15.3806 7.78906 15.0664C7.758 15.0544 7.72953 15.0379 7.70215 15.0205L3.81445 13.4639C3.62474 13.3879 3.50001 13.2044 3.5 13V2L3.50391 1.93848C3.50456 1.93322 3.50602 1.92807 3.50684 1.92285C3.51043 1.89967 3.51677 1.87749 3.52344 1.85547C3.52658 1.84509 3.52842 1.83435 3.53223 1.82422C3.54112 1.80056 3.55321 1.77863 3.56543 1.75684C3.57004 1.74858 3.57305 1.73943 3.57812 1.73145C3.5899 1.71298 3.60413 1.6964 3.61816 1.67969C3.62485 1.67171 3.6305 1.66284 3.6377 1.65527L3.64648 1.64648C3.66921 1.62376 3.69396 1.60299 3.7207 1.58496C3.74281 1.5701 3.76625 1.55788 3.79004 1.54688C3.79903 1.5427 3.80812 1.5388 3.81738 1.53516C3.827 1.53139 3.83688 1.52855 3.84668 1.52539C3.87382 1.51663 3.90171 1.50988 3.93066 1.50586C3.94234 1.50422 3.95406 1.50374 3.96582 1.50293C3.97715 1.50216 3.98847 1.5 4 1.5H11ZM4.5 12.6611L8.15625 14.126C8.16877 14.131 8.18045 14.1376 8.19238 14.1436C8.34849 14.176 8.49973 14.0572 8.5 13.9004V4.84961C8.49983 4.54968 8.30957 4.26929 8.02344 4.15332L4.5 2.73926V12.6611ZM8.39648 3.22559L8.39746 3.22656C9.05067 3.49067 9.49984 4.13011 9.5 4.84961V12.5H11C11.2739 12.5 11.5 12.2739 11.5 12V3C11.5 2.72614 11.2739 2.5 11 2.5H6.58887L8.39648 3.22559Z" fill="currentColor"/>
</svg>
