<svg width="16" height="16" viewBox="0 0 16 16" fill="none" xmlns="http://www.w3.org/2000/svg">
<path fill-rule="evenodd" clip-rule="evenodd" d="M8 1.5C9.9727 1.5 11.7386 2.38012 12.9307 3.76758C12.9409 3.77898 12.9519 3.78958 12.9609 3.80176C13.9204 4.93445 14.5 6.39926 14.5 8C14.5 8.75931 14.3682 9.48765 14.1289 10.165C14.1251 10.1759 14.1217 10.1868 14.1172 10.1973C13.3481 12.338 11.489 13.9569 9.20801 14.3857C9.18778 14.3902 9.16785 14.3946 9.14746 14.3965C8.77485 14.4629 8.39169 14.5 8 14.5C6.02083 14.5 4.24981 13.6141 3.05762 12.2188C3.05141 12.2113 3.04382 12.205 3.03809 12.1973C2.07911 11.0647 1.5 9.60024 1.5 8C1.5 7.24733 1.62895 6.52489 1.86426 5.85254C1.87009 5.83371 1.87489 5.81468 1.88281 5.79688C2.65534 3.65221 4.52394 2.03194 6.8125 1.60938C6.82362 1.60739 6.83455 1.60474 6.8457 1.60352C7.22039 1.53635 7.60599 1.5 8 1.5ZM4.05566 11.8311C5.05508 12.8598 6.4524 13.5 8 13.5C8.09631 13.5 8.19202 13.4971 8.28711 13.4922L5.69141 9L4.05566 11.8311ZM9.34961 13.332C10.8994 12.941 12.1864 11.8924 12.8984 10.5H7.71289L9.34961 13.332ZM2.70801 6.5C2.5731 6.97691 2.5 7.4799 2.5 8C2.5 9.10372 2.82607 10.1309 3.38574 10.9922L5.23828 7.78711C5.2466 7.76943 5.25718 7.753 5.26758 7.73633L5.9834 6.5H2.70801ZM7.1377 6.5L6.26855 8.00195L7.13477 9.5H8.86133L9.73047 7.99512L8.86621 6.5H7.1377ZM10.7646 8.2041C10.7494 8.23825 10.7318 8.27152 10.709 8.30176L10.0166 9.5H13.292C13.4269 9.02309 13.5 8.5201 13.5 8C13.5 6.89561 13.1726 5.86847 12.6123 5.00684L10.7646 8.2041ZM8 2.5C7.90371 2.5 7.80797 2.50195 7.71289 2.50684L10.3076 6.99609L11.9434 4.16797C10.944 3.13976 9.5471 2.5 8 2.5ZM6.65039 2.66602C5.10035 3.05699 3.81369 4.10746 3.10156 5.5H8.28809L6.65039 2.66602Z" fill="currentColor"/>
</svg>
