<svg width="16" height="16" viewBox="0 0 16 16" fill="none" xmlns="http://www.w3.org/2000/svg">
<path fill-rule="evenodd" clip-rule="evenodd" d="M8.00079 1.5C8.50596 1.5 8.97284 1.81667 9.16681 2.35645L9.20196 2.46777L10.8387 8.5H11.3299L11.4442 8.50391C12.0105 8.54685 12.5118 8.90799 12.7244 9.44336L14.0633 12.7812L14.1151 12.9365C14.3213 13.7153 13.7227 14.4999 12.9002 14.5H3.11993C2.23093 14.4997 1.63972 13.5994 1.95392 12.7891L1.95587 12.7842L3.29669 9.44336C3.52354 8.87249 4.07804 8.50004 4.69025 8.5H5.17071L6.80743 2.46875C6.96889 1.86084 7.46206 1.50026 8.00079 1.5ZM4.69025 9.5C4.48372 9.50004 4.29936 9.62628 4.2254 9.81348L4.22443 9.81641L2.88654 13.1504L2.87091 13.2148C2.8541 13.3626 2.97082 13.4998 3.11993 13.5H12.9002C13.0827 13.4999 13.2 13.3129 13.1375 13.1592L13.1365 13.1562L11.7967 9.81641L11.7957 9.81348C11.7311 9.64976 11.5815 9.53275 11.407 9.50586L11.3299 9.5H11.1102L11.4822 10.8691C11.4938 10.9118 11.4998 10.9558 11.4998 11C11.4998 11.3565 11.2823 11.617 11.074 11.7812C10.8601 11.9499 10.5812 12.0804 10.2811 12.1807C9.67509 12.3831 8.86865 12.5 7.99982 12.5C7.13097 12.5 6.32451 12.3831 5.71857 12.1807C5.41847 12.0804 5.13952 11.9499 4.9256 11.7812C4.71742 11.617 4.49982 11.3564 4.49982 11C4.49982 10.9228 4.51933 10.8504 4.5506 10.7852L4.89923 9.5H4.69025ZM8.00079 2.5C7.95945 2.50013 7.9174 2.51399 7.88068 2.54297C7.84561 2.57077 7.80019 2.62418 7.77325 2.72656L7.77228 2.73145L6.05548 9.05078C6.04985 9.10635 6.03482 9.15832 6.01251 9.20703L5.53107 10.9834C5.53536 10.987 5.53965 10.992 5.54474 10.9961C5.6338 11.0663 5.79417 11.1516 6.03595 11.2324C6.51487 11.3924 7.20907 11.5 7.99982 11.5C8.79054 11.5 9.48471 11.3923 9.96368 11.2324C10.2054 11.1517 10.3658 11.0663 10.4549 10.9961C10.463 10.9897 10.4683 10.981 10.4744 10.9756L8.23712 2.73145C8.20848 2.62888 8.16189 2.57291 8.12482 2.54395C8.0859 2.51369 8.04222 2.5 8.00079 2.5Z" fill="currentColor"/>
</svg>
