<svg width="16" height="16" viewBox="0 0 16 16" fill="none" xmlns="http://www.w3.org/2000/svg">
<path fill-rule="evenodd" clip-rule="evenodd" d="M6.00977 1.5C8.29938 1.5 10.0814 3.00994 10.4414 5.02051C12.6957 5.22907 14.5 7.01803 14.5 9.25C14.5 10.0044 14.2848 10.7007 13.9268 11.3047C13.8877 11.3707 13.8481 11.4363 13.8057 11.5L14.4805 13.8623C14.5381 14.0638 14.4642 14.2807 14.2949 14.4043C14.1257 14.5277 13.897 14.5321 13.7227 14.416L11.793 13.1289C11.4539 13.2717 11.0914 13.3806 10.709 13.4424C10.5561 13.4671 10.4002 13.4845 10.2412 13.4932C10.1616 13.4975 10.081 13.5 10 13.5C9.84786 13.5 9.69736 13.4926 9.54883 13.4785C9.3516 13.4599 9.15814 13.4278 8.96875 13.3857C8.95115 13.3818 8.93353 13.3781 8.91602 13.374C8.87542 13.3645 8.8351 13.3543 8.79492 13.3438C8.76395 13.3356 8.73286 13.3281 8.70215 13.3193C8.66246 13.308 8.62323 13.2955 8.58398 13.2832C8.55556 13.2743 8.5272 13.2653 8.49902 13.2559C8.46166 13.2434 8.42461 13.2302 8.3877 13.2168C8.35891 13.2063 8.33027 13.1956 8.30176 13.1846C8.25547 13.1667 8.20959 13.1482 8.16406 13.1289C8.1474 13.1218 8.13081 13.1147 8.11426 13.1074C8.06998 13.0881 8.02593 13.0685 7.98242 13.0479C7.96374 13.039 7.94529 13.0296 7.92676 13.0205C6.70825 12.422 5.80872 11.3125 5.56641 9.97559C5.08534 9.92716 4.63265 9.80455 4.21582 9.62891L2.28711 10.916C2.11276 11.0321 1.88408 11.0278 1.71484 10.9043C1.54567 10.7807 1.47176 10.5638 1.5293 10.3623L2.20312 8C1.77238 7.35315 1.50977 6.58652 1.50977 5.75C1.50977 3.37419 3.55445 1.50012 6.00977 1.5ZM10 6C8.03542 6 6.5 7.48589 6.5 9.25C6.5 9.32145 6.50285 9.39243 6.50781 9.46289L6.50879 9.46387C6.61694 10.9703 7.84728 12.2356 9.47461 12.4629C9.56522 12.4755 9.65704 12.4842 9.75 12.4902C9.83253 12.4956 9.91582 12.5 10 12.5C10.5834 12.5 11.1285 12.3521 11.6191 12.1113L11.6807 12.0859C11.8259 12.0372 11.9876 12.0573 12.1172 12.1436L13.1445 12.8281L12.7793 11.5469C12.7365 11.3964 12.7663 11.2344 12.8604 11.1094C12.9607 10.9763 13.0511 10.8367 13.1299 10.6914C13.2086 10.5462 13.2762 10.3952 13.3311 10.2393C13.386 10.0832 13.4274 9.92204 13.4561 9.75684C13.4846 9.59179 13.5 9.42263 13.5 9.25C13.5 9.19502 13.4981 9.14034 13.4951 9.08594C13.4892 8.97651 13.4774 8.86836 13.46 8.76172C13.4251 8.54909 13.3684 8.34257 13.291 8.14453C13.2137 7.94656 13.1165 7.7568 13.001 7.57812C12.4806 6.77368 11.5945 6.18873 10.54 6.03809C10.4229 6.02135 10.3037 6.00963 10.1826 6.00391C10.1223 6.00106 10.0612 6 10 6ZM6.00977 2.5C4.04531 2.50012 2.50977 3.98597 2.50977 5.75C2.50977 6.44091 2.74832 7.07744 3.14941 7.60938C3.24349 7.73444 3.27333 7.89635 3.23047 8.04688L2.86328 9.3291L3.89258 8.64355L3.9502 8.61133C4.08775 8.54399 4.24991 8.54292 4.38965 8.61133C4.73766 8.78217 5.11365 8.90423 5.51074 8.96191C5.65503 6.91052 7.32837 5.29049 9.4209 5.03516C9.08385 3.60056 7.77363 2.5 6.00977 2.5Z" fill="black"/>
</svg>
