<svg width="16" height="16" viewBox="0 0 16 16" fill="none" xmlns="http://www.w3.org/2000/svg">
<path fill-rule="evenodd" clip-rule="evenodd" d="M10.5 6.5C11.6046 6.5 12.5 7.39543 12.5 8.5C12.5 9.60457 11.6046 10.5 10.5 10.5H5.5C4.39543 10.5 3.5 9.60457 3.5 8.5C3.5 7.39543 4.39543 6.5 5.5 6.5C6.60457 6.5 7.5 7.39543 7.5 8.5C7.5 8.86464 7.40094 9.20563 7.23047 9.5H8.76953C8.59906 9.20563 8.5 8.86464 8.5 8.5C8.5 7.39543 9.39543 6.5 10.5 6.5ZM5.5 7.5C4.94772 7.5 4.5 7.94772 4.5 8.5C4.5 9.05228 4.94772 9.5 5.5 9.5C6.05228 9.5 6.5 9.05228 6.5 8.5C6.5 7.94772 6.05228 7.5 5.5 7.5ZM10.5 7.5C9.94772 7.5 9.5 7.94772 9.5 8.5C9.5 9.05228 9.94772 9.5 10.5 9.5C11.0523 9.5 11.5 9.05228 11.5 8.5C11.5 7.94772 11.0523 7.5 10.5 7.5Z" fill="black"/>
<path fill-rule="evenodd" clip-rule="evenodd" d="M13 2.5C13.8284 2.5 14.5 3.17157 14.5 4V12C14.5 12.8284 13.8284 13.5 13 13.5H3C2.17157 13.5 1.5 12.8284 1.5 12V4C1.5 3.17157 2.17157 2.5 3 2.5H13ZM3 3.5C2.72386 3.5 2.5 3.72386 2.5 4V12C2.5 12.2761 2.72386 12.5 3 12.5H13C13.2761 12.5 13.5 12.2761 13.5 12V4C13.5 3.72386 13.2761 3.5 13 3.5H11.5V5C11.5 5.27614 11.2761 5.5 11 5.5H5C4.72386 5.5 4.5 5.27614 4.5 5V3.5H3ZM5.5 4.5H10.5V3.5H5.5V4.5Z" fill="black"/>
</svg>
