<svg width="16" height="16" viewBox="0 0 16 16" fill="none" xmlns="http://www.w3.org/2000/svg">
<path d="M7.99986 10.4996C8.27584 10.4996 8.4996 10.7236 8.49986 10.9996C8.49986 11.2757 8.276 11.4996 7.99986 11.4996C7.72381 11.4994 7.49986 11.2756 7.49986 10.9996C7.50011 10.7237 7.72397 10.4997 7.99986 10.4996Z" fill="currentColor"/>
<path d="M7.99986 5.49955C8.27584 5.49955 8.4996 5.72363 8.49986 5.99955V8.99955C8.49986 9.2757 8.276 9.49955 7.99986 9.49955C7.72381 9.49944 7.49986 9.27563 7.49986 8.99955V5.99955C7.50011 5.7237 7.72397 5.49967 7.99986 5.49955Z" fill="currentColor"/>
<path fill-rule="evenodd" clip-rule="evenodd" d="M6.69712 2.25053C7.26935 1.24691 8.72063 1.24687 9.29283 2.25053L14.4833 11.2398L14.4852 11.2437C15.0523 12.2443 14.3356 13.4898 13.1795 13.4898H2.7899C1.63388 13.4896 0.917954 12.2442 1.48521 11.2437L1.52134 11.188C1.53505 11.1699 1.55042 11.1531 1.56627 11.1372L6.69712 2.25053ZM8.42466 2.74663C8.23613 2.41467 7.75269 2.41449 7.56431 2.74663L7.56334 2.75053L2.37291 11.7398C2.35772 11.7661 2.33942 11.7904 2.32017 11.813C2.2 12.135 2.43456 12.4896 2.7899 12.4898H13.1795C13.5632 12.4898 13.8074 12.0762 13.6151 11.7369L8.42662 2.75053L8.42466 2.74663Z" fill="currentColor"/>
</svg>
