<svg width="16" height="16" viewBox="0 0 16 16" fill="none" xmlns="http://www.w3.org/2000/svg">
<path fill-rule="evenodd" clip-rule="evenodd" d="M8.00004 6.50002C8.82843 6.50007 9.50004 7.17163 9.50004 8.00002C9.5 8.82839 8.8284 9.49998 8.00004 9.50002C7.17164 9.50002 6.50008 8.82841 6.50004 8.00002C6.50004 7.1716 7.17161 6.50002 8.00004 6.50002ZM8.00004 7.50002C7.7239 7.50002 7.50004 7.72388 7.50004 8.00002C7.50008 8.27613 7.72393 8.50002 8.00004 8.50002C8.27612 8.49998 8.5 8.2761 8.50004 8.00002C8.50004 7.72391 8.27614 7.50007 8.00004 7.50002Z" fill="black"/>
<path fill-rule="evenodd" clip-rule="evenodd" d="M3.89652 1.72561C4.50582 1.74624 5.19189 1.93485 5.90336 2.24319C6.5684 2.53147 7.27759 2.93486 7.99906 3.43655C8.72076 2.93467 9.43049 2.53154 10.0957 2.24319C10.8071 1.93486 11.4924 1.7473 12.1016 1.72659C12.7121 1.70592 13.2967 1.8534 13.7198 2.27639C14.1428 2.69943 14.2912 3.28408 14.2705 3.89456C14.2499 4.50384 14.0613 5.18898 13.753 5.90042C13.4647 6.56562 13.0604 7.27448 12.5586 7.99612C13.0607 8.71797 13.4646 9.4274 13.753 10.0928C14.0613 10.8042 14.2498 11.4894 14.2705 12.0987C14.2912 12.7091 14.1428 13.2938 13.7198 13.7168C13.2967 14.1399 12.7121 14.2883 12.1016 14.2676C11.4923 14.2469 10.8071 14.0584 10.0957 13.75C9.43034 13.4616 8.72093 13.0577 7.99906 12.5557C7.27743 13.0575 6.56855 13.4617 5.90336 13.75C5.19189 14.0584 4.50582 14.247 3.89652 14.2676C3.28622 14.2882 2.70227 14.1398 2.27934 13.7168C1.85642 13.2939 1.70795 12.71 1.72856 12.0996C1.74918 11.4904 1.93787 10.8051 2.24613 10.0938C2.53453 9.42838 2.93745 8.718 3.43949 7.99612C2.9378 7.27464 2.53442 6.56546 2.24613 5.90042C1.93787 5.18913 1.74927 4.50373 1.72856 3.89456C1.70789 3.28409 1.85631 2.69942 2.27934 2.27639C2.70226 1.85349 3.28624 1.70503 3.89652 1.72561ZM4.07328 8.8467C3.69413 9.42039 3.38673 9.97442 3.16313 10.4903C2.88429 11.1336 2.74258 11.6915 2.72758 12.1328C2.71268 12.573 2.82366 12.847 2.98637 13.0098C3.14911 13.1725 3.42307 13.2835 3.86332 13.2686C4.30463 13.2536 4.86252 13.1119 5.5059 12.833C6.02166 12.6095 6.57488 12.301 7.14848 11.9219C6.60243 11.4882 6.05594 11.0032 5.52445 10.4717C4.99267 9.93991 4.50719 9.39308 4.07328 8.8467ZM11.9248 8.8467C11.491 9.39295 11.0063 9.94002 10.4746 10.4717C9.94289 11.0035 9.39599 11.489 8.84965 11.9229C9.42338 12.3021 9.97738 12.6094 10.4932 12.833C11.1365 13.1118 11.6945 13.2526 12.1358 13.2676C12.576 13.2825 12.85 13.1725 13.0127 13.0098C13.1755 12.847 13.2855 12.5731 13.2705 12.1328C13.2556 11.6917 13.1147 11.1344 12.836 10.4912C12.6123 9.97517 12.3043 9.42073 11.9248 8.8467ZM7.99906 4.67776C7.41157 5.12785 6.81427 5.64673 6.23149 6.22952C5.64856 6.81247 5.12979 7.4095 4.67973 7.9971C5.12978 8.58463 5.64861 9.18179 6.23149 9.76467C6.81421 10.3474 7.41164 10.8654 7.99906 11.3155C8.58661 10.8654 9.18472 10.3476 9.76762 9.76467C10.3505 9.18174 10.8682 8.58375 11.3184 7.99612C10.8684 7.4087 10.3503 6.81126 9.76762 6.22854C9.18469 5.64562 8.58664 5.12783 7.99906 4.67776ZM3.86332 2.72463C3.42311 2.70973 3.14911 2.8207 2.98637 2.98342C2.82363 3.14617 2.71268 3.42013 2.72758 3.86038C2.74254 4.30167 2.88429 4.85958 3.16313 5.50295C3.38662 6.01855 3.69439 6.57213 4.07328 7.14553C4.50705 6.5994 4.9929 6.05307 5.52445 5.52151C6.0561 4.98988 6.60228 4.50413 7.14848 4.07034C6.57513 3.69147 6.02145 3.38465 5.5059 3.16116C4.86246 2.88227 4.30466 2.73961 3.86332 2.72463ZM12.1358 2.72561C11.6945 2.74059 11.1365 2.88137 10.4932 3.16018C9.97739 3.38378 9.42337 3.69112 8.84965 4.07034C9.39602 4.50425 9.94286 4.98973 10.4746 5.52151C11.0061 6.053 11.4911 6.59949 11.9248 7.14553C12.304 6.57188 12.6124 6.01871 12.836 5.50295C13.1148 4.85963 13.2556 4.30165 13.2705 3.86038C13.2854 3.42021 13.1755 3.14615 13.0127 2.98342C12.85 2.82072 12.576 2.71072 12.1358 2.72561Z" fill="black"/>
</svg>
