<svg width="16" height="16" viewBox="0 0 16 16" fill="none" xmlns="http://www.w3.org/2000/svg">
<path fill-rule="evenodd" clip-rule="evenodd" d="M7.1605 2.0187C7.54028 1.28886 8.67397 1.34146 8.94566 2.17592C8.95937 2.21829 8.96597 2.26231 8.96812 2.30581L10.0834 5.73061H13.8207C14.7589 5.73118 15.1595 6.92646 14.3949 7.48452L14.3939 7.48549L11.3685 9.68081L12.5257 13.2355C12.8147 14.1246 11.7898 14.8681 11.0375 14.3253L8.01011 12.1281L4.98374 14.3253L4.98277 14.3244C4.22759 14.8734 3.19218 14.1431 3.49546 13.2355L4.65171 9.68081L1.62632 7.48549L1.62535 7.48452C0.860603 6.9263 1.26181 5.73061 2.20054 5.73061H5.93687L7.09507 2.17592L7.1605 2.0187ZM6.77574 6.38491C6.70866 6.59048 6.51638 6.73044 6.30015 6.73061H2.28941L5.53453 9.08608C5.70936 9.21356 5.78319 9.43984 5.71617 9.64565L4.473 13.4601L7.71714 11.1056L7.7855 11.0636C7.95045 10.9806 8.15102 10.9946 8.30406 11.1056L11.5462 13.4591L10.305 9.64565C10.2379 9.43954 10.3113 9.21346 10.4867 9.08608L13.7318 6.73061H9.72007C9.5039 6.73047 9.31164 6.59037 9.24449 6.38491L8.01011 2.59487L6.77574 6.38491Z" fill="black"/>
</svg>
