<svg width="16" height="16" viewBox="0 0 16 16" fill="none" xmlns="http://www.w3.org/2000/svg">
<path fill-rule="evenodd" clip-rule="evenodd" d="M9.99991 1.5C10.6544 1.50004 11.2863 1.6462 11.8495 1.90527C11.9979 1.97363 12.1038 2.11071 12.1327 2.27148C12.1615 2.43243 12.1096 2.59821 11.9941 2.71387L9.49991 5.20703V6.5H10.7929L13.287 4.00684L13.3817 3.93164C13.4844 3.86973 13.6077 3.84656 13.7284 3.86816C13.8893 3.89708 14.0263 4.00286 14.0946 4.15137C14.3536 4.71456 14.4999 5.3456 14.4999 6C14.4999 8.48604 12.4859 10.4998 9.99991 10.5C9.46938 10.5 8.95452 10.4021 8.47843 10.2275L5.35343 13.3535C4.6082 14.0985 3.39161 14.0986 2.6464 13.3535C1.9014 12.6083 1.9014 11.3917 2.6464 10.6465L5.77237 7.51953C5.59826 7.04387 5.49991 6.52996 5.49991 6C5.49991 3.51399 7.51395 1.50021 9.99991 1.5ZM9.99991 2.5C8.06624 2.50021 6.49991 4.06627 6.49991 6C6.49991 6.50529 6.61359 6.99406 6.81437 7.43066C6.90169 7.62061 6.86146 7.84523 6.71378 7.99316L3.35343 11.3535C2.99895 11.7082 2.99895 12.2918 3.35343 12.6465C3.70812 13.001 4.29169 13.001 4.6464 12.6465L8.00675 9.28613C8.15469 9.13844 8.3793 9.09821 8.56925 9.18555C9.00578 9.38631 9.49471 9.49994 9.99991 9.5C11.9336 9.49984 13.4999 7.93376 13.4999 6C13.4999 5.75581 13.4728 5.51565 13.4228 5.2832L11.3534 7.35352C11.2597 7.44709 11.1323 7.49992 10.9999 7.5H8.99991C8.72395 7.49979 8.49991 7.27601 8.49991 7V5C8.49991 4.86748 8.55275 4.74023 8.6464 4.64648L10.7157 2.57715C10.4838 2.52735 10.2435 2.50002 9.99991 2.5Z" fill="currentColor"/>
</svg>
