<svg width="16" height="16" viewBox="0 0 16 16" fill="none" xmlns="http://www.w3.org/2000/svg">
<path d="M9.73946 1.48397C9.96395 1.32359 10.2761 1.37493 10.4367 1.5992C11.724 3.39935 12.5002 5.6108 12.5002 8.00057C12.5001 10.3888 11.7349 12.6008 10.4357 14.4029C10.2744 14.6264 9.96231 14.6769 9.73848 14.5162C9.51448 14.3547 9.46371 14.042 9.6252 13.818C10.8057 12.1804 11.5001 10.1719 11.5002 8.00057C11.5002 5.83071 10.7966 3.82093 9.62422 2.18124C9.46367 1.95673 9.51512 1.64467 9.73946 1.48397Z" fill="currentColor"/>
<path d="M7.62129 2.83846C7.84273 2.67374 8.15659 2.71971 8.32149 2.941C9.37288 4.35348 10.0001 6.10771 10.0002 7.99959C10.0002 9.89148 9.37278 11.6457 8.32149 13.0582C8.1566 13.2797 7.8428 13.3256 7.62129 13.1607C7.40021 12.9958 7.35421 12.6829 7.51875 12.4615C8.4472 11.2141 9.0002 9.66745 9.0002 7.99959C9.00009 6.33187 8.44716 4.78593 7.51875 3.53866C7.35402 3.31717 7.39987 3.00332 7.62129 2.83846Z" fill="currentColor"/>
<path d="M5.48848 4.18905C5.70423 4.01712 6.01842 4.05263 6.19063 4.26815C7.00805 5.29269 7.50008 6.59162 7.5002 7.99959C7.5002 9.40761 7.008 10.7064 6.19063 11.731C6.01841 11.9469 5.70433 11.9824 5.48848 11.8101C5.27284 11.6379 5.23722 11.3238 5.40938 11.108C6.09171 10.2527 6.5002 9.17129 6.5002 7.99959C6.50009 6.82798 6.09172 5.7464 5.40938 4.8912C5.23749 4.67535 5.27275 4.36117 5.48848 4.18905Z" fill="currentColor"/>
<path d="M3.32637 5.57674C3.52702 5.3873 3.84378 5.39587 4.0334 5.59627C4.62402 6.22166 5.00008 7.06239 5.0002 7.99959C5.0002 8.93692 4.62405 9.77745 4.0334 10.4029C3.84381 10.6037 3.52713 10.613 3.32637 10.4234C3.12589 10.2338 3.11732 9.91706 3.30684 9.71639C3.73592 9.26192 4.0002 8.66202 4.0002 7.99959C4.00008 7.33736 3.73579 6.73814 3.30684 6.28377C3.11734 6.08313 3.12595 5.76639 3.32637 5.57674Z" fill="currentColor"/>
</svg>
