<svg width="16" height="16" viewBox="0 0 16 16" fill="none" xmlns="http://www.w3.org/2000/svg">
<path fill-rule="evenodd" clip-rule="evenodd" d="M8 3.50044C9.10457 3.50044 10 4.39587 10 5.50044C9.99977 6.60482 9.10443 7.50044 8 7.50044C6.89557 7.50044 6.00023 6.60482 6 5.50044C6 4.39587 6.89543 3.50044 8 3.50044ZM8 4.50044C7.44772 4.50044 7 4.94815 7 5.50044C7.00023 6.05253 7.44785 6.50044 8 6.50044C8.55215 6.50044 8.99977 6.05253 9 5.50044C9 4.94815 8.55228 4.50044 8 4.50044Z" fill="black"/>
<path fill-rule="evenodd" clip-rule="evenodd" d="M8.20215 1.00141L8.42285 1.01606C10.6238 1.22619 12.3817 3.13286 12.4297 5.34028V5.5561C12.4076 6.26065 12.2425 6.96835 11.8799 7.57661L11.877 7.58052C11.4965 8.20412 10.7192 9.36971 9.99902 10.4409C10.8505 10.8594 11.5 11.5789 11.5 12.5004C11.4998 13.2693 11.0318 13.9067 10.4004 14.3286C9.76508 14.753 8.91528 15.0004 8 15.0004C7.08472 15.0004 6.23492 14.753 5.59961 14.3286C4.9682 13.9067 4.50019 13.2693 4.5 12.5004C4.5 11.5799 5.14797 10.8606 5.99805 10.4418C5.2781 9.37332 4.50268 8.20869 4.12207 7.57856C3.73444 6.94251 3.57038 6.17648 3.57031 5.43013C3.57052 2.9172 5.66621 0.888891 8.20215 1.00141ZM8.82324 12.1831L8.82227 12.184C8.43049 12.7518 7.57256 12.7724 7.17773 12.1821C7.00836 11.9345 6.79893 11.6236 6.56543 11.2797C5.84746 11.5852 5.5 12.0764 5.5 12.5004C5.50019 12.8312 5.70215 13.1937 6.15527 13.4965C6.60495 13.797 7.25537 14.0004 8 14.0004C8.74463 14.0004 9.39505 13.797 9.84473 13.4965C10.2978 13.1937 10.4998 12.8312 10.5 12.5004C10.5 12.0761 10.1517 11.5852 9.43262 11.2797C9.1998 11.6233 8.99247 11.9357 8.82324 12.1831ZM8.1582 2.00044C6.19454 1.91316 4.57052 3.48352 4.57031 5.43013C4.57037 5.9658 4.67433 6.47307 4.88184 6.88813L4.97656 7.06001L4.97852 7.06196C5.57899 8.05609 7.21555 10.4682 8 11.6147C8.78328 10.4698 10.4222 8.0456 11.0234 7.06001C11.279 6.6293 11.4127 6.098 11.4307 5.52485C11.4821 3.69682 9.98235 2.07894 8.1582 2.00044Z" fill="black"/>
</svg>
