<svg width="16" height="16" viewBox="0 0 16 16" fill="none" xmlns="http://www.w3.org/2000/svg">
<path fill-rule="evenodd" clip-rule="evenodd" d="M9.2268 3.23877C10.2031 2.26257 11.7867 2.2625 12.7629 3.23877C13.7388 4.21498 13.7388 5.79768 12.7629 6.77393L11.7659 7.771C10.9102 8.62665 9.58824 8.73255 8.61743 8.08838L8.07934 8.62647C8.72387 9.5972 8.61839 10.919 7.76293 11.7749L6.76586 12.772C5.78955 13.7483 4.20604 13.7483 3.22973 12.772C2.25372 11.7957 2.25361 10.2131 3.22973 9.23682L4.2268 8.23975C5.08142 7.38523 6.40086 7.2789 7.37133 7.92041L7.91039 7.38135C7.26827 6.41085 7.37503 5.0907 8.22973 4.23584L9.2268 3.23877ZM6.63793 8.65381C6.08089 8.3892 5.39486 8.48584 4.93383 8.94678L3.93676 9.94385C3.35117 10.5296 3.35127 11.4792 3.93676 12.0649C4.52251 12.6507 5.47206 12.6506 6.05786 12.0649L7.0559 11.0679C7.51783 10.6056 7.6132 9.91759 7.34594 9.35986L6.35375 10.353C6.15849 10.5483 5.84198 10.5483 5.64672 10.353C5.45156 10.1578 5.45149 9.84123 5.64672 9.646L6.63793 8.65381ZM12.0559 3.9458C11.4702 3.36005 10.5196 3.36012 9.93383 3.9458L8.93676 4.94287C8.4756 5.40418 8.37857 6.09078 8.64379 6.64795L9.64672 5.646C9.84198 5.45115 10.1586 5.45096 10.3538 5.646C10.5489 5.84113 10.5486 6.15774 10.3538 6.35303L9.35082 7.35498C9.9085 7.62189 10.5958 7.52591 11.0579 7.06397L12.0559 6.0669C12.6412 5.48118 12.6413 4.53149 12.0559 3.9458Z" fill="currentColor"/>
</svg>
