<svg width="16" height="16" viewBox="0 0 16 16" fill="none" xmlns="http://www.w3.org/2000/svg">
<path d="M10.5 7.5C10.7761 7.5 11 7.72386 11 8C11 8.27614 10.7761 8.5 10.5 8.5H5.5C5.22386 8.5 5 8.27614 5 8C5 7.72386 5.22386 7.5 5.5 7.5H10.5Z" fill="black"/>
<path fill-rule="evenodd" clip-rule="evenodd" d="M11 2C12.66 2 14 3.34 14 5V11C14 12.66 12.66 14 11 14H5C3.34 14 2 12.66 2 11V5C2 3.34 3.34 2 5 2H11ZM5 3C3.9 3 3 3.9 3 5V11C3 12.1 3.9 13 5 13H11C12.1 13 13 12.1 13 11V5C13 3.9 12.1 3 11 3H5Z" fill="black"/>
</svg>
