<svg width="16" height="16" viewBox="0 0 16 16" fill="none" xmlns="http://www.w3.org/2000/svg">
<path fill-rule="evenodd" clip-rule="evenodd" d="M8.89844 3.20164C9.56437 2.69747 10.5 3.1858 10.5 4.00046V12.0005C10.4997 12.8147 9.56423 13.303 8.89844 12.7993L5.83398 10.5005H4C3.17401 10.5005 2.50025 9.8264 2.5 9.00046V7.00046C2.5 6.17432 3.17386 5.50046 4 5.50046H5.83301L8.89844 3.20164ZM6.2998 6.39988C6.21328 6.46473 6.10813 6.50046 6 6.50046H4C3.72614 6.50046 3.5 6.72661 3.5 7.00046V9.00046C3.50025 9.27412 3.72629 9.50046 4 9.50046H6L6.08008 9.50632C6.15939 9.51919 6.23487 9.55143 6.2998 9.60007L9.5 12.0005V4.00046L6.2998 6.39988Z" fill="black"/>
<path d="M12.6465 5.14597C12.8417 4.95102 13.1583 4.95099 13.3535 5.14597C13.5487 5.34115 13.5485 5.65772 13.3535 5.853L12.707 6.49949L13.3535 7.14597C13.5487 7.34115 13.5485 7.65772 13.3535 7.853L12.707 8.49949L13.3535 9.14597C13.5487 9.34115 13.5485 9.65772 13.3535 9.853L12.3535 10.853C12.1583 11.0483 11.8417 11.0483 11.6465 10.853C11.4514 10.6577 11.4513 10.3412 11.6465 10.146L12.293 9.49949L11.6465 8.853C11.4514 8.65772 11.4513 8.34117 11.6465 8.14597L12.293 7.49949L11.6465 6.853C11.4514 6.65772 11.4513 6.34117 11.6465 6.14597L12.6465 5.14597Z" fill="black"/>
</svg>
