<svg width="16" height="16" viewBox="0 0 16 16" fill="none" xmlns="http://www.w3.org/2000/svg">
<path fill-rule="evenodd" clip-rule="evenodd" d="M9 2.5C9.82614 2.5 10.5 3.17386 10.5 4V4.5H13C13.8284 4.5 14.5 5.17157 14.5 6V12C14.5 12.8284 13.8284 13.5 13 13.5H3C2.17157 13.5 1.5 12.8284 1.5 12V6C1.5 5.17157 2.17157 4.5 3 4.5H5.5V4C5.5 3.17386 6.17386 2.5 7 2.5H9ZM2.5 12C2.5 12.2761 2.72386 12.5 3 12.5H13C13.2761 12.5 13.5 12.2761 13.5 12V8.5H10.5V9C10.5 9.27614 10.2761 9.5 10 9.5C9.72386 9.5 9.5 9.27614 9.5 9V8.5H6.5V9C6.5 9.27614 6.27614 9.5 6 9.5C5.72386 9.5 5.5 9.27614 5.5 9V8.5H2.5V12ZM3 5.5C2.72386 5.5 2.5 5.72386 2.5 6V7.5H5.5V7C5.5 6.72386 5.72386 6.5 6 6.5C6.27614 6.5 6.5 6.72386 6.5 7V7.5H9.5V7C9.5 6.72386 9.72386 6.5 10 6.5C10.2761 6.5 10.5 6.72386 10.5 7V7.5H13.5V6C13.5 5.72386 13.2761 5.5 13 5.5H3ZM7 3.5C6.72614 3.5 6.5 3.72614 6.5 4V4.5H9.5V4C9.5 3.72614 9.27386 3.5 9 3.5H7Z" fill="black"/>
</svg>
