<svg width="16" height="16" viewBox="0 0 16 16" fill="none" xmlns="http://www.w3.org/2000/svg">
<path fill-rule="evenodd" clip-rule="evenodd" d="M14 1.5C14.8284 1.5 15.5 2.17157 15.5 3C15.5 3.82843 14.8284 4.5 14 4.5C13.9358 4.5 13.8727 4.49417 13.8105 4.48633L11.0811 9.96289C11.3397 10.2324 11.5 10.597 11.5 11C11.5 11.8284 10.8284 12.5 10 12.5C9.17157 12.5 8.5 11.8284 8.5 11C8.5 10.662 8.61217 10.3504 8.80078 10.0996L6.36426 6.45312C6.24748 6.48231 6.12582 6.5 6 6.5C5.93575 6.5 5.87267 6.49417 5.81055 6.48633L3.08105 11.9629C3.33968 12.2324 3.5 12.597 3.5 13C3.5 13.8284 2.82843 14.5 2 14.5C1.17157 14.5 0.5 13.8284 0.5 13C0.5 12.1716 1.17157 11.5 2 11.5C2.06388 11.5 2.1267 11.5049 2.18848 11.5127L4.91797 6.03613C4.65991 5.76672 4.5 5.40253 4.5 5C4.5 4.17157 5.17157 3.5 6 3.5C6.82843 3.5 7.5 4.17157 7.5 5C7.5 5.33813 7.38602 5.64855 7.19727 5.89941L9.63379 9.5459C9.75106 9.51646 9.8736 9.5 10 9.5C10.0639 9.5 10.1267 9.50495 10.1885 9.5127L12.918 4.03613C12.6599 3.76672 12.5 3.40253 12.5 3C12.5 2.17157 13.1716 1.5 14 1.5ZM2 12.5C1.72386 12.5 1.5 12.7239 1.5 13C1.5 13.2761 1.72386 13.5 2 13.5C2.27614 13.5 2.5 13.2761 2.5 13C2.5 12.8074 2.39008 12.6421 2.23047 12.5586L2.22754 12.5576C2.22482 12.5563 2.22241 12.5541 2.21973 12.5527C2.15321 12.52 2.07915 12.5 2 12.5ZM10 10.5C9.90584 10.5 9.81836 10.527 9.74316 10.5723C9.73769 10.5763 9.73322 10.5821 9.72754 10.5859C9.72025 10.5908 9.71155 10.5932 9.7041 10.5977C9.58053 10.6887 9.5 10.8347 9.5 11C9.5 11.2761 9.72386 11.5 10 11.5C10.2761 11.5 10.5 11.2761 10.5 11C10.5 10.8074 10.3901 10.6421 10.2305 10.5586L10.2275 10.5576C10.2248 10.5563 10.2224 10.5541 10.2197 10.5527C10.1532 10.52 10.0791 10.5 10 10.5ZM6 4.5C5.72386 4.5 5.5 4.72386 5.5 5C5.5 5.19137 5.60869 5.35541 5.7666 5.43945C5.7688 5.44051 5.77125 5.44129 5.77344 5.44238C5.77723 5.44428 5.78046 5.44724 5.78418 5.44922C5.84971 5.48076 5.92241 5.5 6 5.5C6.09404 5.5 6.18072 5.4719 6.25586 5.42676C6.26146 5.42267 6.26664 5.41795 6.27246 5.41406C6.27934 5.40947 6.28692 5.40557 6.29395 5.40137C6.41798 5.31038 6.5 5.16562 6.5 5C6.5 4.72386 6.27614 4.5 6 4.5ZM14 2.5C13.7239 2.5 13.5 2.72386 13.5 3C13.5 3.19137 13.6087 3.35541 13.7666 3.43945C13.7688 3.44051 13.7712 3.44129 13.7734 3.44238C13.7772 3.44428 13.7805 3.44724 13.7842 3.44922C13.8497 3.48076 13.9224 3.5 14 3.5C14.2761 3.5 14.5 3.27614 14.5 3C14.5 2.72386 14.2761 2.5 14 2.5Z" fill="currentColor"/>
</svg>
