<svg width="16" height="16" viewBox="0 0 16 16" fill="none" xmlns="http://www.w3.org/2000/svg">
<path d="M9 7.5C9.27614 7.5 9.5 7.72386 9.5 8C9.5 8.27614 9.27614 8.5 9 8.5H7C6.72386 8.5 6.5 8.27614 6.5 8C6.5 7.72386 6.72386 7.5 7 7.5H9Z" fill="currentColor"/>
<path fill-rule="evenodd" clip-rule="evenodd" d="M13 2.5C13.8284 2.5 14.5 3.17157 14.5 4V5C14.5 5.65281 14.0822 6.20597 13.5 6.41211V12C13.5 12.8261 12.8261 13.5 12 13.5H4C3.17386 13.5 2.5 12.8261 2.5 12V6.41211C1.91782 6.20597 1.5 5.65281 1.5 5V4C1.5 3.17157 2.17157 2.5 3 2.5H13ZM3.5 12C3.5 12.2739 3.72614 12.5 4 12.5H12C12.2739 12.5 12.5 12.2739 12.5 12V6.5H3.5V12ZM3 3.5C2.72386 3.5 2.5 3.72386 2.5 4V5C2.5 5.27614 2.72386 5.5 3 5.5H13C13.2761 5.5 13.5 5.27614 13.5 5V4C13.5 3.72386 13.2761 3.5 13 3.5H3Z" fill="currentColor"/>
</svg>
