<svg width="16" height="16" viewBox="0 0 16 16" fill="none" xmlns="http://www.w3.org/2000/svg">
<path fill-rule="evenodd" clip-rule="evenodd" d="M10.1466 2.13576C11.1718 1.11103 12.8285 1.11097 13.8536 2.13576C14.8787 3.16088 14.8784 4.81749 13.8536 5.84279L7.64364 12.0537C7.35652 12.3407 6.97751 12.4892 6.58016 12.4893H4.21786L2.3536 14.3535C2.15835 14.5488 1.84183 14.5487 1.64657 14.3535C1.45131 14.1583 1.45131 13.8418 1.64657 13.6465L3.50008 11.793V9.41017C3.50017 9.00138 3.66776 8.62999 3.92782 8.35548L3.93661 8.34572L10.1466 2.13576ZM13.1466 2.84279C12.5119 2.20852 11.4883 2.20858 10.8536 2.84279L4.65243 9.04298C4.55271 9.14829 4.50017 9.27924 4.50008 9.41017V10.793L11.6466 3.6465C11.8418 3.45127 12.1583 3.45125 12.3536 3.6465C12.5488 3.84175 12.5488 4.15828 12.3536 4.35353L5.21786 11.4893H6.58016C6.7224 11.4892 6.84392 11.4384 6.93661 11.3457L13.1466 5.13576C13.7809 4.50099 13.7812 3.47738 13.1466 2.84279Z" fill="black"/>
</svg>
