<svg width="16" height="16" viewBox="0 0 16 16" fill="none" xmlns="http://www.w3.org/2000/svg">
<path d="M3.77539 1.63771C4.13902 1.29226 4.70668 1.25944 5.09765 1.57814L5.17382 1.6465L7.2832 3.75686C7.67839 4.15212 7.67844 4.77861 7.2832 5.17385L6.54394 5.91311C6.42433 6.03271 6.37345 6.19855 6.40136 6.34768C6.48159 6.75265 6.7507 7.47338 7.63378 8.35646C8.51965 9.24228 9.24227 9.50963 9.64648 9.58889C9.78925 9.6145 9.94772 9.56907 10.084 9.4385L10.8164 8.70607C11.2116 8.31103 11.8382 8.31108 12.2334 8.70607L14.3437 10.8164L14.4092 10.8897C14.7164 11.2659 14.7265 11.8467 14.3447 12.2207L13.5361 13.041L13.5332 13.044C13.2457 13.3313 12.8821 13.5749 12.4512 13.6924L12.4473 13.6934C11.2632 14.0044 9.04478 13.8485 5.83105 10.7715L5.5166 10.4639L5.51464 10.4619C2.15147 7.09379 1.97542 4.76354 2.29589 3.54299L2.29785 3.53811C2.41294 3.11633 2.64118 2.75055 2.94824 2.45412L3.76855 1.64455L3.77539 1.63771ZM4.4707 2.35842C4.46977 2.35879 4.4678 2.35877 4.46582 2.36037L3.65136 3.16603L3.64648 3.17092C3.45628 3.35351 3.32696 3.56611 3.26269 3.80178C3.06483 4.56254 3.01473 6.54346 6.22265 9.75588L6.52246 10.0488C9.57382 12.9715 11.4497 12.9192 12.1875 12.7276C12.4163 12.6651 12.6337 12.5284 12.8262 12.336L13.6328 11.5196L11.5244 9.41115L11.5234 9.41311L10.7832 10.1533L10.7764 10.1612C10.4337 10.4895 9.95433 10.6643 9.458 10.5713L9.4541 10.5703C8.83837 10.4496 7.94074 10.0774 6.92675 9.0635C5.9127 8.04944 5.53968 7.15192 5.41894 6.53615V6.53225C5.32692 6.04144 5.49563 5.54643 5.83593 5.20607L6.57617 4.46682L6.57714 4.46486L4.4707 2.35842Z" fill="currentColor"/>
</svg>
