<svg width="16" height="16" viewBox="0 0 16 16" fill="none" xmlns="http://www.w3.org/2000/svg">
<path fill-rule="evenodd" clip-rule="evenodd" d="M9.94612 2.35618C10.5313 1.77127 11.4781 1.77122 12.0633 2.35618L13.6531 3.947C14.2382 4.53228 14.2383 5.47899 13.6531 6.06419L12.4002 7.31614L10.8367 10.4343C10.5259 11.0554 9.96507 11.53 9.28596 11.7195L9.28694 11.7204L3.13752 13.4802C3.12982 13.4824 3.12183 13.4833 3.11408 13.4851C3.10434 13.4874 3.09463 13.4893 3.08479 13.4909C3.05708 13.4957 3.0295 13.4987 3.00178 13.4988C2.99754 13.4988 2.99333 13.4988 2.98908 13.4988C2.96605 13.4983 2.94336 13.4956 2.92073 13.4919C2.91055 13.4903 2.90053 13.4883 2.89045 13.4861C2.86656 13.4807 2.84302 13.4744 2.82014 13.4656C2.81252 13.4626 2.80518 13.4591 2.79768 13.4558C2.77743 13.4468 2.75809 13.4362 2.73908 13.4245C2.73064 13.4193 2.72189 13.4147 2.71369 13.4089C2.69009 13.3924 2.6671 13.374 2.64631 13.3533C2.62644 13.3334 2.60955 13.3113 2.59358 13.2888C2.58661 13.279 2.57925 13.2696 2.57307 13.2595C2.54382 13.2113 2.52317 13.1588 2.51155 13.1042C2.51016 13.0977 2.50876 13.0912 2.50764 13.0847C2.49809 13.029 2.4978 12.9716 2.50764 12.9148C2.50899 12.9069 2.51079 12.8991 2.51252 12.8913C2.51468 12.8817 2.51661 12.8716 2.51936 12.862L4.27912 6.71263L4.2801 6.70774C4.47817 6.03948 4.93823 5.47666 5.56526 5.16282L8.72346 3.57786L9.94612 2.35618ZM6.01448 6.05638L6.0135 6.05735C5.64122 6.24355 5.36097 6.58078 5.23908 6.99192L4.01057 11.281L6.64631 8.64622C6.84152 8.45107 7.15809 8.45114 7.35334 8.64622C7.54859 8.84146 7.54855 9.15798 7.35334 9.35325L4.71858 11.987L9.01252 10.7595L9.01643 10.7575C9.41553 10.6465 9.75347 10.3635 9.94221 9.98606L11.3934 7.09153L8.90705 4.6052L6.01448 6.05638ZM11.3563 3.06419C11.1615 2.86951 10.8479 2.86947 10.6531 3.06419L9.71662 3.99974L12.0096 6.2927L12.9461 5.35618C13.1405 5.16148 13.1406 4.84869 12.9461 4.65403L11.3563 3.06419Z" fill="black"/>
</svg>
