<svg width="16" height="16" viewBox="0 0 16 16" fill="none" xmlns="http://www.w3.org/2000/svg">
<path fill-rule="evenodd" clip-rule="evenodd" d="M8 1.5C10.029 1.5 11.8402 2.43014 13.0322 3.88672C13.0473 3.90261 13.0602 3.92033 13.0732 3.93848C13.9653 5.05127 14.5 6.46286 14.5 8C14.5 9.53588 13.9659 10.9462 13.0752 12.0586C13.0617 12.0776 13.0479 12.0957 13.0322 12.1123C11.8402 13.5692 10.0293 14.5 8 14.5C5.97053 14.5 4.15879 13.5695 2.9668 12.1123C2.95163 12.0962 2.93894 12.078 2.92578 12.0596C2.03455 10.947 1.5 9.53637 1.5 8C1.5 6.4576 2.038 5.0413 2.93555 3.92676C2.94511 3.9143 2.95334 3.90099 2.96387 3.88965C4.15583 2.43096 5.96932 1.5 8 1.5ZM5.97656 11.2363C5.33868 11.3886 4.72141 11.6129 4.12988 11.9062C4.88687 12.6563 5.86001 13.1877 6.94824 13.3984C6.5476 12.7528 6.2191 12.0246 5.97656 11.2363ZM10.0234 11.2324C9.78074 12.0222 9.45215 12.7517 9.05078 13.3984C10.1403 13.1876 11.1146 12.6556 11.8721 11.9043C11.2803 11.6085 10.6626 11.3835 10.0234 11.2324ZM8 11C7.6525 11 7.30921 11.0208 6.9707 11.0605C7.22716 11.8537 7.57775 12.5686 8 13.1768C8.42235 12.5685 8.77184 11.853 9.02832 11.0596C8.69024 11.0206 8.34732 11 8 11ZM2.52344 8.5C2.61066 9.46768 2.9486 10.3624 3.47168 11.1201C4.18986 10.7421 4.94425 10.4549 5.72754 10.2666C5.61078 9.69907 5.53798 9.10777 5.51172 8.5H2.52344ZM10.4883 8.5C10.462 9.10717 10.388 9.69763 10.2715 10.2646C11.0546 10.4515 11.8093 10.7375 12.5283 11.1191C13.0511 10.3616 13.3894 9.46739 13.4766 8.5H10.4883ZM6.51367 8.5C6.53964 9.04808 6.60748 9.57789 6.71289 10.084C7.1354 10.0281 7.56488 10 8 10C8.43496 10 8.8644 10.0278 9.28711 10.083C9.39241 9.57719 9.46038 9.04774 9.48633 8.5H6.51367ZM12.5283 4.87988C11.8092 5.26158 11.0547 5.54768 10.2715 5.73438C10.3881 6.30168 10.462 6.8925 10.4883 7.5H13.4766C13.3893 6.53232 13.0514 5.6376 12.5283 4.87988ZM6.71289 5.91406C6.60733 6.42075 6.53965 6.95125 6.51367 7.5H9.48633C9.46038 6.95193 9.39245 6.42214 9.28711 5.91602C8.86437 5.97114 8.43499 5.99999 8 6C7.56484 6 7.13542 5.96997 6.71289 5.91406ZM3.47168 4.87793C2.94808 5.63592 2.61071 6.53176 2.52344 7.5H5.51172C5.53801 6.89156 5.61056 6.29955 5.72754 5.73145C4.94415 5.5431 4.18997 5.25603 3.47168 4.87793ZM8 2.82227C7.57769 3.43032 7.22713 4.14525 6.9707 4.93848C7.3092 4.97818 7.65252 5 8 5C8.34734 4.99999 8.69022 4.97846 9.02832 4.93945C8.77188 4.14599 8.42242 3.43047 8 2.82227ZM9.05078 2.60059C9.45205 3.247 9.78071 3.97623 10.0234 4.76562C10.6623 4.61455 11.2796 4.39038 11.8711 4.09473C11.1137 3.34393 10.1399 2.81131 9.05078 2.60059ZM6.94824 2.60059C5.86017 2.81129 4.88684 3.34296 4.12988 4.09277C4.72153 4.38615 5.33854 4.61062 5.97656 4.7627C6.21916 3.97451 6.54755 3.24616 6.94824 2.60059Z" fill="black"/>
</svg>
