<svg width="16" height="16" viewBox="0 0 16 16" fill="none" xmlns="http://www.w3.org/2000/svg">
<path fill-rule="evenodd" clip-rule="evenodd" d="M8.56548 1.7519C8.6779 1.55523 8.909 1.4586 9.12798 1.51655C9.34705 1.57476 9.50003 1.77327 9.50005 1.99995V6.49995H11C11.1782 6.49998 11.3432 6.59484 11.4327 6.74897C11.522 6.90303 11.5229 7.09332 11.4346 7.248L7.43462 14.248C7.32222 14.4447 7.09109 14.5413 6.87212 14.4833C6.653 14.4252 6.50005 14.2267 6.50005 13.9999V9.49995H5.00005C4.82182 9.49995 4.65689 9.40508 4.56743 9.25093C4.47804 9.09685 4.47718 8.9066 4.56548 8.7519L8.56548 1.7519ZM5.86235 8.49995H7.00005C7.27614 8.5 7.50003 8.72385 7.50005 8.99995V12.1162L10.1377 7.49995H9.00005C8.72391 7.49995 8.50005 7.27609 8.50005 6.99995V3.88276L5.86235 8.49995Z" fill="black"/>
<path d="M1.66606 5.16694C1.8613 4.97171 2.17783 4.97176 2.37309 5.16694C2.56818 5.36222 2.5683 5.67877 2.37309 5.87397C1.19874 7.04874 1.19849 8.94253 2.37309 10.1171C2.56816 10.3124 2.56829 10.629 2.37309 10.8242C2.17786 11.0189 1.86118 11.0191 1.66606 10.8242C0.10093 9.25903 0.101187 6.73223 1.66606 5.16694Z" fill="black"/>
<path d="M13.627 5.16694C13.8223 4.97169 14.1388 4.97168 14.334 5.16694C15.8988 6.73223 15.8991 9.25906 14.334 10.8242C14.1389 11.0192 13.8223 11.0188 13.627 10.8242C13.4318 10.6289 13.4318 10.3124 13.627 10.1171C14.8016 8.94255 14.8013 7.04874 13.627 5.87397C13.4317 5.67871 13.4317 5.3622 13.627 5.16694Z" fill="black"/>
<path d="M3.08892 6.58393C3.28579 6.3904 3.60235 6.39302 3.79595 6.58979C3.9895 6.78671 3.98697 7.10324 3.79009 7.29682C3.40145 7.67927 3.39672 8.31068 3.79302 8.70698C3.98826 8.90225 3.98827 9.21876 3.79302 9.41401C3.59772 9.60878 3.28109 9.60909 3.08599 9.41401C2.30258 8.63061 2.29845 7.36157 3.08892 6.58393Z" fill="black"/>
<path d="M12.2032 6.58979C12.3967 6.39298 12.7133 6.39044 12.9102 6.58393C13.7011 7.36153 13.6967 8.63047 12.9131 9.41401C12.7179 9.60878 12.4012 9.60905 12.2061 9.41401C12.0111 9.2189 12.0113 8.90226 12.2061 8.70698C12.6025 8.31056 12.598 7.67924 12.209 7.29682C12.0124 7.10336 12.01 6.7867 12.2032 6.58979Z" fill="black"/>
</svg>
