<svg width="16" height="16" viewBox="0 0 16 16" fill="none" xmlns="http://www.w3.org/2000/svg">
<path fill-rule="evenodd" clip-rule="evenodd" d="M11.8974 2.53136C12.7776 2.48828 13.5207 3.21504 13.4785 4.11046L13.4794 4.11144C13.3009 8.14734 12.1273 10.303 10.5869 11.4161C9.0711 12.5111 7.31689 12.5001 6.24994 12.5001H4.20697L3.35345 13.3536C3.15823 13.5488 2.84168 13.5488 2.64642 13.3536C2.45118 13.1584 2.45121 12.8419 2.64642 12.6466L3.5097 11.7833V9.75988C3.5097 8.69292 3.49881 6.93864 4.59369 5.42296C5.70646 3.88291 7.86076 2.71045 11.8945 2.53136H11.8974ZM11.9423 3.52941C8.06887 3.7008 6.2688 4.81221 5.40424 6.0089C4.52177 7.23053 4.50971 8.66685 4.5097 9.75988V10.7833L9.64642 5.6466C9.84169 5.45134 10.1582 5.45134 10.3535 5.6466C10.5486 5.84187 10.5487 6.15841 10.3535 6.35363L5.20697 11.5001H6.24994C7.34299 11.5001 8.77923 11.4881 10.0009 10.6056C11.1976 9.74101 12.309 7.94095 12.4804 4.0675V4.06457C12.4952 3.76321 12.2422 3.51435 11.9453 3.52941H11.9423Z" fill="black"/>
</svg>
