<svg width="16" height="16" viewBox="0 0 16 16" fill="none" xmlns="http://www.w3.org/2000/svg">
<path fill-rule="evenodd" clip-rule="evenodd" d="M5 1.5C5.27614 1.5 5.5 1.72386 5.5 2V5.03516L7.0166 2.41016C7.15469 2.17117 7.46112 2.08961 7.7002 2.22754L10.2998 3.72754C10.4145 3.79378 10.4988 3.90239 10.5332 4.03027C10.5674 4.15825 10.5496 4.29541 10.4834 4.41016L8.96777 7.03125L11.5898 5.51758C11.7047 5.4512 11.8416 5.43246 11.9697 5.4668C12.0978 5.50117 12.2072 5.58535 12.2734 5.7002L13.7734 8.30078C13.9108 8.53975 13.8286 8.84542 13.5898 8.9834L10.9658 10.5H14C14.2761 10.5 14.5 10.7239 14.5 11V14C14.5 14.2761 14.2761 14.5 14 14.5H2C1.72386 14.5 1.5 14.2761 1.5 14V2C1.5 1.72386 1.72386 1.5 2 1.5H5ZM2.5 13.5H4.5V11.5H2.5V13.5ZM5.77344 13.5H13.5V11.5H9.23438L5.77344 13.5ZM7.96582 8.76562L5.95898 12.2383L12.6572 8.36621L11.6562 6.63281L7.96582 8.76562ZM5.5 7.0332V11.0352L9.36621 4.34277L7.63281 3.3418L5.5 7.0332ZM2.5 10.5H4.5V8.5H2.5V10.5ZM2.5 5.5V7.5H4.5V5.5H2.5ZM2.5 4.5H4.5V2.5H2.5V4.5Z" fill="black"/>
</svg>
