<svg width="16" height="16" viewBox="0 0 16 16" fill="none" xmlns="http://www.w3.org/2000/svg">
<path fill-rule="evenodd" clip-rule="evenodd" d="M8 1.5C10.8164 1.5 13.2136 3.29151 14.1162 5.79688C14.1252 5.81695 14.1314 5.83801 14.1377 5.85938C14.3715 6.52983 14.5 7.24983 14.5 8C14.5 8.7455 14.3726 9.46103 14.1416 10.1279C14.1348 10.1535 14.1268 10.1783 14.1162 10.2021C13.2138 12.708 10.8167 14.5 8 14.5C5.18317 14.5 2.78509 12.7081 1.88281 10.2021C1.87409 10.1824 1.86846 10.1616 1.8623 10.1406C1.62849 9.47017 1.5 8.75017 1.5 8C1.5 7.24733 1.62895 6.52489 1.86426 5.85254C1.87009 5.83371 1.87489 5.81468 1.88281 5.79688C2.78533 3.29134 5.18349 1.5 8 1.5ZM3.10156 10.5C3.85877 11.9807 5.26617 13.0726 6.94824 13.3984C6.42562 12.5562 6.02719 11.5732 5.78125 10.5H3.10156ZM10.2188 10.5C9.97277 11.5733 9.57353 12.5561 9.05078 13.3984C10.7333 13.0729 12.1411 11.981 12.8984 10.5H10.2188ZM6.80859 10.5C7.06854 11.5188 7.48042 12.4285 8 13.1768C8.51958 12.4285 8.93146 11.5188 9.19141 10.5H6.80859ZM10.3994 6.5C10.4641 6.98732 10.5 7.48848 10.5 8C10.5 8.51152 10.4641 9.01268 10.3994 9.5H13.292C13.4269 9.02309 13.5 8.5201 13.5 8C13.5 7.4799 13.4269 6.97691 13.292 6.5H10.3994ZM6.6084 6.5C6.53776 6.98308 6.5 7.48457 6.5 8C6.5 8.51544 6.53772 9.01694 6.6084 9.5H9.3916C9.46228 9.01694 9.5 8.51544 9.5 8C9.5 7.48457 9.46224 6.98308 9.3916 6.5H6.6084ZM2.70801 6.5C2.5731 6.97691 2.5 7.4799 2.5 8C2.5 8.5201 2.5731 9.02309 2.70801 9.5H5.60059C5.53594 9.01268 5.5 8.51152 5.5 8C5.5 7.48848 5.53594 6.98732 5.60059 6.5H2.70801ZM9.05078 2.60059C9.57375 3.44305 9.9727 4.42636 10.2188 5.5H12.8984C12.1411 4.01897 10.7333 2.92611 9.05078 2.60059ZM8 2.82227C7.48019 3.57069 7.06849 4.48078 6.80859 5.5H9.19141C8.93151 4.48078 8.51981 3.57069 8 2.82227ZM6.94824 2.60059C5.26609 2.92634 3.8588 4.01925 3.10156 5.5H5.78125C6.02725 4.42655 6.42541 3.44295 6.94824 2.60059Z" fill="black"/>
</svg>
