<svg width="16" height="16" viewBox="0 0 16 16" fill="none" xmlns="http://www.w3.org/2000/svg">
<path fill-rule="evenodd" clip-rule="evenodd" d="M7.89844 3.20164C8.56437 2.69747 9.5 3.1858 9.5 4.00046V12.0005C9.49965 12.8147 8.56423 13.303 7.89844 12.7993L4.83398 10.5005H3C2.17401 10.5005 1.50025 9.8264 1.5 9.00046V7.00046C1.5 6.17432 2.17386 5.50046 3 5.50046H4.83301L7.89844 3.20164ZM5.2998 6.39988C5.21328 6.46473 5.10813 6.50046 5 6.50046H3C2.72614 6.50046 2.5 6.72661 2.5 7.00046V9.00046C2.50025 9.27412 2.72629 9.50046 3 9.50046H5L5.08008 9.50632C5.15939 9.51919 5.23487 9.55143 5.2998 9.60007L8.5 12.0005V4.00046L5.2998 6.39988Z" fill="black"/>
<path d="M12.6465 5.23679C12.8417 5.04153 13.1583 5.04153 13.3535 5.23679C14.8793 6.7628 14.8772 9.23876 13.3545 10.7729C13.16 10.9683 12.8433 10.9691 12.6475 10.7749C12.4518 10.5804 12.4512 10.2637 12.6455 10.0678C13.7824 8.9221 13.7802 7.07774 12.6465 5.94382C12.4513 5.7486 12.4513 5.43206 12.6465 5.23679Z" fill="black"/>
<path d="M11.2363 6.64695C11.4316 6.45169 11.7481 6.45169 11.9434 6.64695C12.6885 7.39222 12.6886 8.60875 11.9434 9.35398C11.7481 9.5489 11.4315 9.54904 11.2363 9.35398C11.0412 9.15882 11.0414 8.84224 11.2363 8.64695C11.591 8.29224 11.591 7.70873 11.2363 7.35398C11.0412 7.15882 11.0414 6.84224 11.2363 6.64695Z" fill="black"/>
</svg>
