<svg width="16" height="16" viewBox="0 0 16 16" fill="none" xmlns="http://www.w3.org/2000/svg">
<path d="M9.14648 5.1463C9.34172 4.95123 9.65829 4.9512 9.85352 5.1463C10.0487 5.34151 10.0486 5.65805 9.85352 5.85333L8.70703 6.99981L9.85352 8.1463C10.0487 8.34151 10.0486 8.65805 9.85352 8.85333C9.65825 9.04859 9.34175 9.04859 9.14648 8.85333L8 7.70684L6.85352 8.85333C6.65825 9.04859 6.34175 9.04859 6.14648 8.85333C5.95134 8.65806 5.95126 8.34152 6.14648 8.1463L7.29297 6.99981L6.14648 5.85333C5.95134 5.65806 5.95126 5.34152 6.14648 5.1463C6.34172 4.95123 6.65829 4.9512 6.85352 5.1463L8 6.29278L9.14648 5.1463Z" fill="currentColor"/>
<path fill-rule="evenodd" clip-rule="evenodd" d="M2.84961 6.63946C2.84995 3.64599 5.40756 1.2561 8.44336 1.51153L8.73926 1.54474L8.98047 1.58477C11.4088 2.04016 13.109 4.09821 13.1377 6.57403C13.145 6.60803 13.1494 6.64332 13.1494 6.6795C13.1494 7.53992 12.9532 8.40419 12.5059 9.12872L12.5068 9.1297C11.7577 10.3646 9.69763 13.3885 8.82227 14.6717L8.82129 14.6736C8.42253 15.2518 7.57646 15.2518 7.17773 14.6736L7.17676 14.6717C6.41053 13.5485 4.73692 11.0921 3.8291 9.66876L3.49219 9.1297C3.04471 8.39498 2.84961 7.51949 2.84961 6.63946ZM8.59961 2.53497C6.04416 2.17824 3.84996 4.15065 3.84961 6.63946C3.84961 7.379 4.0146 8.06508 4.34668 8.61017L4.67773 9.13946C5.56851 10.5356 7.22331 12.9652 7.99902 14.1024C8.88538 12.803 10.9221 9.81406 11.6523 8.61017L11.6543 8.60626C11.9731 8.09116 12.1349 7.44708 12.1465 6.7586C12.1422 6.73139 12.1394 6.70351 12.1396 6.67559C12.1575 4.56204 10.6869 2.82932 8.59961 2.53497Z" fill="currentColor"/>
</svg>
