<svg width="16" height="16" viewBox="0 0 16 16" fill="none" xmlns="http://www.w3.org/2000/svg">
<path fill-rule="evenodd" clip-rule="evenodd" d="M8.00008 1.5C8.27621 1.50002 8.50008 1.72387 8.50008 2V2.5293C9.59538 2.65966 10.5692 3.22953 11.2198 4.07324L12.6466 2.64648C12.8418 2.45124 13.1583 2.45123 13.3536 2.64648C13.5488 2.84174 13.5488 3.15827 13.3536 3.35352L11.7403 4.96582C11.8613 5.25315 11.9506 5.55845 12.003 5.87793L12.8136 10.7578C12.9639 11.6747 12.2559 12.4999 11.3302 12.5H9.93465C9.71292 13.3631 8.93328 14 8.00008 14C7.06688 14 6.28726 13.3631 6.06551 12.5H4.69051C4.54324 12.5 4.40231 12.4763 4.26864 12.4375L2.8536 13.8535C2.65836 14.0488 2.34184 14.0487 2.14657 13.8535C1.95131 13.6583 1.95131 13.3417 2.14657 13.1465L3.44735 11.8447C3.23955 11.5408 3.14156 11.1587 3.20712 10.7588L4.01669 5.87793C4.02478 5.82926 4.04088 5.78371 4.06161 5.74121C4.40241 4.03111 5.80151 2.75233 7.50008 2.5332V2C7.50008 1.72386 7.72394 1.5 8.00008 1.5ZM7.13387 12.5C7.30638 12.7991 7.62874 13 8.00008 13C8.37142 13 8.6938 12.7991 8.8663 12.5H7.13387ZM5.20712 11.5H11.3302C11.6443 11.4999 11.8759 11.2239 11.8263 10.9209L11.0167 6.04199C11.0006 5.94375 10.9793 5.84646 10.9542 5.75195L5.20712 11.5ZM8.01962 3.5C6.53351 3.50023 5.26371 4.57416 5.02352 6.04102C5.01604 6.08656 5.00014 6.12872 4.98153 6.16895L4.19344 10.9219C4.18382 10.9813 4.18681 11.0393 4.19735 11.0947L10.504 4.78809C9.94978 4.00215 9.03543 3.5 8.01962 3.5Z" fill="black"/>
</svg>
