<svg width="16" height="16" viewBox="0 0 16 16" fill="none" xmlns="http://www.w3.org/2000/svg">
<path fill-rule="evenodd" clip-rule="evenodd" d="M13.7738 1.55159C13.9279 1.46857 14.1178 1.46862 14.2728 1.56428C14.4701 1.68619 14.5581 1.92828 14.4847 2.14827L10.8656 12.992C10.5765 13.893 9.43974 14.1266 8.79627 13.4832L7.01013 11.6971L5.35388 13.3533C5.21093 13.4963 4.99575 13.539 4.80896 13.4617C4.62216 13.3843 4.50037 13.202 4.50037 12.9998V9.29377L1.79724 7.94807C1.01939 7.56515 1.06389 6.44167 1.8783 6.12385L1.88025 6.12288L13.7738 1.55159ZM5.76502 9.03791L9.5033 12.7762C9.63977 12.9125 9.86239 12.846 9.91345 12.6873L13.0111 3.4012L5.76502 9.03791ZM5.50037 11.7928L6.3031 10.9901L5.50037 10.1873V11.7928ZM2.24548 7.05354L4.95252 8.40315L11.0306 3.67561L2.24548 7.05354Z" fill="black"/>
</svg>
