<svg width="16" height="16" viewBox="0 0 16 16" fill="none" xmlns="http://www.w3.org/2000/svg">
<path fill-rule="evenodd" clip-rule="evenodd" d="M6.99996 3.5C7.18933 3.5 7.36252 3.60699 7.44722 3.77637C7.53186 3.94564 7.51377 4.14833 7.40035 4.2998L4.49996 8.16699V13C4.49996 13.2761 4.2761 13.5 3.99995 13.5C3.72386 13.4999 3.49995 13.2761 3.49995 13V8.16699L0.599564 4.2998C0.486169 4.14834 0.468073 3.94563 0.552689 3.77637C0.637375 3.607 0.810595 3.50003 0.999955 3.5H6.99996ZM3.99995 7.16602L5.99996 4.5H1.99995L3.99995 7.16602Z" fill="currentColor"/>
<path d="M6.99996 9.5C7.2761 9.5 7.49996 9.72386 7.49996 10V13C7.49996 13.2761 7.2761 13.5 6.99996 13.5C6.72386 13.4999 6.49996 13.2761 6.49996 13V10C6.49996 9.72389 6.72386 9.50005 6.99996 9.5Z" fill="currentColor"/>
<path d="M9.99996 7.5C10.2761 7.5 10.5 7.72386 10.5 8V13C10.5 13.2761 10.2761 13.5 9.99996 13.5C9.72386 13.4999 9.49996 13.2761 9.49996 13V8C9.49996 7.72389 9.72386 7.50005 9.99996 7.5Z" fill="currentColor"/>
<path d="M13 5.5C13.2761 5.5 13.5 5.72386 13.5 6V13C13.5 13.2761 13.2761 13.5 13 13.5C12.7239 13.4999 12.5 13.2761 12.5 13V6C12.5 5.72389 12.7239 5.50005 13 5.5Z" fill="currentColor"/>
</svg>
