<svg width="16" height="16" viewBox="0 0 16 16" fill="none" xmlns="http://www.w3.org/2000/svg">
<path d="M11 6.5C11.2761 6.50002 11.5 6.72387 11.5 7V9C11.5 9.27613 11.2761 9.49998 11 9.5C10.7238 9.5 10.5 9.27614 10.5 9V7C10.5 6.72386 10.7238 6.5 11 6.5Z" fill="black"/>
<path fill-rule="evenodd" clip-rule="evenodd" d="M11 4.5C12.9361 4.50004 14.5 6.06388 14.5 8C14.5 9.93612 12.9361 11.5 11 11.5C9.60278 11.5 8.39906 10.6876 7.84567 9.5H6.20699L5.35348 10.3535C5.15823 10.5488 4.84171 10.5487 4.64645 10.3535L3.99996 9.70703L3.35348 10.3535C3.15823 10.5488 2.84171 10.5487 2.64645 10.3535L0.646447 8.35352C0.451184 8.15825 0.451184 7.84175 0.646447 7.64648L1.64645 6.64648L1.72262 6.58398C1.80414 6.52965 1.90055 6.5 1.99996 6.5H7.84567C8.39906 5.31241 9.60278 4.5 11 4.5ZM11 5.5C9.90656 5.5 8.98503 6.19179 8.65328 7.16211C8.58405 7.36425 8.39333 7.49997 8.17965 7.5H2.20699L1.70699 8L2.99996 9.29297L3.64645 8.64648L3.72457 8.58203C3.91865 8.45391 4.18263 8.47564 4.35348 8.64648L4.99996 9.29297L5.64645 8.64648L5.72262 8.58398C5.80414 8.52965 5.90055 8.5 5.99996 8.5H8.17965C8.39333 8.50003 8.58405 8.63575 8.65328 8.83789C8.98503 9.80821 9.90656 10.5 11 10.5C12.3838 10.5 13.5 9.38383 13.5 8C13.5 6.61617 12.3838 5.50004 11 5.5Z" fill="black"/>
</svg>
