<svg width="16" height="16" viewBox="0 0 16 16" fill="none" xmlns="http://www.w3.org/2000/svg">
<path fill-rule="evenodd" clip-rule="evenodd" d="M11.8701 1.5C13.3161 1.50013 14.4902 2.67406 14.4902 4.12012C14.4902 4.81111 14.2184 5.47884 13.7236 5.97363L11.2021 8.49512L11.8535 9.14648C12.0487 9.34175 12.0488 9.65827 11.8535 9.85352C11.6583 10.0488 11.3417 10.0487 11.1465 9.85352L10.4951 9.20215L5.93359 13.7637C5.46764 14.2395 4.82914 14.4999 4.16992 14.5C4.13696 14.5 4.10412 14.4966 4.07227 14.4902H1.99023C1.71417 14.4902 1.49037 14.2663 1.49023 13.9902V11.8203C1.49023 11.1549 1.75494 10.5284 2.22656 10.0566L6.78809 5.49512L6.14648 4.85352C5.95122 4.65825 5.95122 4.34175 6.14648 4.14648C6.34175 3.95122 6.65825 3.95122 6.85352 4.14648L7.49512 4.78809L10.0166 2.2666C10.5114 1.77187 11.1791 1.50003 11.8701 1.5ZM2.93359 10.7637C2.64543 11.0519 2.49023 11.4258 2.49023 11.8203V13.4902H4.16016L4.22656 13.4961C4.60401 13.4819 4.96114 13.3289 5.22168 13.0615L9.78809 8.49512L7.49512 6.20215L2.93359 10.7637ZM11.8701 2.5C11.4413 2.50003 11.0288 2.66857 10.7236 2.97363L8.20215 5.49512L10.4951 7.78809L13.0166 5.2666C13.3217 4.96148 13.4902 4.54892 13.4902 4.12012C13.4902 3.22634 12.7639 2.50013 11.8701 2.5Z" fill="currentColor"/>
</svg>
