<svg width="16" height="16" viewBox="0 0 16 16" fill="none" xmlns="http://www.w3.org/2000/svg">
<path fill-rule="evenodd" clip-rule="evenodd" d="M8.00067 1.5C8.50584 1.5 8.97272 1.81667 9.16669 2.35645L9.20184 2.46777L10.8386 8.5H11.3298L11.444 8.50391C12.0104 8.54685 12.5116 8.90799 12.7243 9.44336L14.0632 12.7812L14.1149 12.9365C14.3212 13.7153 13.7225 14.4999 12.9001 14.5H3.11981C2.23081 14.4997 1.63959 13.5994 1.9538 12.7891L1.95575 12.7842L3.29657 9.44336C3.52342 8.87249 4.07792 8.50004 4.69012 8.5H5.17059L6.80731 2.46875C6.96877 1.86084 7.46194 1.50026 8.00067 1.5ZM4.69012 9.5C4.4836 9.50004 4.29924 9.62628 4.22528 9.81348L4.2243 9.81641L2.88641 13.1504L2.87079 13.2148C2.85397 13.3626 2.9707 13.4998 3.11981 13.5H12.9001C13.0826 13.4999 13.1999 13.3129 13.1374 13.1592L13.1364 13.1562L11.7966 9.81641L11.7956 9.81348C11.731 9.64976 11.5814 9.53275 11.4069 9.50586L11.3298 9.5H11.11L11.4821 10.8691C11.4937 10.9118 11.4997 10.9558 11.4997 11C11.4997 11.3565 11.2822 11.617 11.0739 11.7812C10.86 11.9499 10.5811 12.0804 10.2809 12.1807C9.67496 12.3831 8.86853 12.5 7.99969 12.5C7.13084 12.5 6.32439 12.3831 5.71844 12.1807C5.41835 12.0804 5.1394 11.9499 4.92548 11.7812C4.71729 11.617 4.4997 11.3564 4.49969 11C4.49969 10.9228 4.51921 10.8504 4.55048 10.7852L4.89911 9.5H4.69012ZM8.00067 2.5C7.95932 2.50013 7.91727 2.51399 7.88055 2.54297C7.84549 2.57077 7.80007 2.62418 7.77313 2.72656L7.77216 2.73145L6.05536 9.05078C6.04973 9.10635 6.03469 9.15832 6.01239 9.20703L5.53094 10.9834C5.53524 10.987 5.53953 10.992 5.54462 10.9961C5.63367 11.0663 5.79405 11.1516 6.03583 11.2324C6.51474 11.3924 7.20895 11.5 7.99969 11.5C8.79041 11.5 9.48459 11.3923 9.96356 11.2324C10.2053 11.1517 10.3656 11.0663 10.4548 10.9961C10.4629 10.9897 10.4682 10.981 10.4743 10.9756L8.237 2.73145C8.20836 2.62888 8.16176 2.57291 8.12469 2.54395C8.08577 2.51369 8.0421 2.5 8.00067 2.5Z" fill="black"/>
</svg>
