<svg width="16" height="16" viewBox="0 0 16 16" fill="none" xmlns="http://www.w3.org/2000/svg">
<path fill-rule="evenodd" clip-rule="evenodd" d="M12.1299 2.5C12.8811 2.50009 13.5103 3.05542 13.6152 3.78906L14.3252 8.79004C14.4585 9.69516 13.7495 10.4999 12.8398 10.5H10.4902V12.5703C10.49 13.9456 8.74477 14.5107 7.92969 13.4189L5.74023 10.5H4C3.17386 10.5 2.5 9.82614 2.5 9V4C2.5 3.17386 3.17386 2.5 4 2.5H12.1299ZM6.5 9.8457L8.73047 12.8203C8.97532 13.1481 9.48997 12.9745 9.49023 12.5703V10C9.49023 9.72386 9.71409 9.5 9.99023 9.5H12.8398C13.1485 9.49989 13.3796 9.22751 13.3359 8.93457L13.335 8.93066L12.625 3.93066C12.5898 3.68458 12.3784 3.50009 12.1299 3.5H6.5V9.8457ZM4 3.5C3.72614 3.5 3.5 3.72614 3.5 4V9C3.5 9.27386 3.72614 9.5 4 9.5H5.5V3.5H4Z" fill="currentColor"/>
</svg>
