<svg width="16" height="16" viewBox="0 0 16 16" fill="none" xmlns="http://www.w3.org/2000/svg">
<path fill-rule="evenodd" clip-rule="evenodd" d="M8 1.5C8.82614 1.5 9.5 2.17386 9.5 3V6.5H12C12.8261 6.5 13.5 7.17386 13.5 8V14C13.5 14.2761 13.2761 14.5 13 14.5H3C2.72386 14.5 2.5 14.2761 2.5 14V8C2.5 7.17386 3.17386 6.5 4 6.5H6.5V3C6.5 2.17386 7.17386 1.5 8 1.5ZM3.5 13.5H4.5V12C4.5 11.7239 4.72386 11.5 5 11.5C5.27614 11.5 5.5 11.7239 5.5 12V13.5H6.5V12C6.5 11.7239 6.72386 11.5 7 11.5C7.27614 11.5 7.5 11.7239 7.5 12V13.5H8.5V12C8.5 11.7239 8.72386 11.5 9 11.5C9.27614 11.5 9.5 11.7239 9.5 12V13.5H10.5V12C10.5 11.7239 10.7239 11.5 11 11.5C11.2761 11.5 11.5 11.7239 11.5 12V13.5H12.5V10.5H3.5V13.5ZM8 2.5C7.72614 2.5 7.5 2.72614 7.5 3V7C7.5 7.27614 7.27614 7.5 7 7.5H4C3.72614 7.5 3.5 7.72614 3.5 8V9.5H12.5V8C12.5 7.72614 12.2739 7.5 12 7.5H9C8.72386 7.5 8.5 7.27614 8.5 7V3C8.5 2.72614 8.27386 2.5 8 2.5Z" fill="currentColor"/>
</svg>
