<svg width="16" height="16" viewBox="0 0 16 16" fill="none" xmlns="http://www.w3.org/2000/svg">
<path d="M8 4.5C8.27614 4.5 8.5 4.72386 8.5 5V7.79297L10.3535 9.64648C10.5488 9.84175 10.5488 10.1583 10.3535 10.3535C10.1583 10.5488 9.84175 10.5488 9.64648 10.3535L7.64648 8.35352C7.55272 8.25975 7.5 8.13261 7.5 8V5C7.5 4.72386 7.72386 4.5 8 4.5Z" fill="currentColor"/>
<path fill-rule="evenodd" clip-rule="evenodd" d="M9 0.5C9.82614 0.5 10.5 1.17386 10.5 2V3.10059C12.2806 4.01101 13.5 5.8628 13.5 8C13.5 10.137 12.2804 11.9879 10.5 12.8984V14C10.5 14.8261 9.82614 15.5 9 15.5H7C6.17386 15.5 5.5 14.8261 5.5 14V12.8984C3.71957 11.9879 2.5 10.137 2.5 8C2.5 5.8628 3.71936 4.01101 5.5 3.10059V2C5.5 1.17386 6.17386 0.5 7 0.5H9ZM9.5 13.291C9.02302 13.426 8.5202 13.5 8 13.5C7.4798 13.5 6.97698 13.426 6.5 13.291V14C6.5 14.2739 6.72614 14.5 7 14.5H9C9.27386 14.5 9.5 14.2739 9.5 14V13.291ZM8 3.5C7.37113 3.5 6.77211 3.62835 6.22852 3.86133C6.20975 3.87106 6.19096 3.88036 6.1709 3.8877C4.59723 4.5887 3.5 6.16606 3.5 8C3.5 9.8338 4.59742 11.4102 6.1709 12.1113C6.19093 12.1186 6.20977 12.128 6.22852 12.1377C6.7722 12.3708 7.37099 12.5 8 12.5C8.62869 12.5 9.22704 12.3705 9.77051 12.1377C9.78922 12.128 9.80812 12.1187 9.82812 12.1113C11.402 11.4104 12.5 9.83412 12.5 8C12.5 6.16574 11.4022 4.58852 9.82812 3.8877C9.80809 3.88033 9.78924 3.87109 9.77051 3.86133C9.22713 3.62857 8.62855 3.5 8 3.5ZM7 1.5C6.72614 1.5 6.5 1.72614 6.5 2V2.70801C6.97691 2.5731 7.4799 2.5 8 2.5C8.5201 2.5 9.02309 2.5731 9.5 2.70801V2C9.5 1.72614 9.27386 1.5 9 1.5H7Z" fill="currentColor"/>
</svg>
