<svg width="16" height="16" viewBox="0 0 16 16" fill="none" xmlns="http://www.w3.org/2000/svg">
<path fill-rule="evenodd" clip-rule="evenodd" d="M4.49805 5.47363C4.65095 5.45455 4.80402 5.50736 4.91309 5.61621L10.3838 11.0869C10.4926 11.196 10.5455 11.3491 10.5264 11.502C10.5071 11.6552 10.418 11.7913 10.2852 11.8701C9.62228 12.2633 8.83468 12.5 8 12.5C5.51304 12.5 3.5 10.4753 3.5 8C3.5 7.16532 3.73665 6.37772 4.12988 5.71484C4.20866 5.58205 4.34485 5.49288 4.49805 5.47363ZM4.70703 6.82422C4.57405 7.1921 4.5 7.58942 4.5 8C4.5 9.92467 6.06696 11.5 8 11.5C8.41037 11.5 8.80708 11.4248 9.1748 11.292L4.70703 6.82422Z" fill="currentColor"/>
<path fill-rule="evenodd" clip-rule="evenodd" d="M8 3.5C10.487 3.5 12.5 5.52467 12.5 8C12.5 8.83468 12.2633 9.62228 11.8701 10.2852C11.7913 10.418 11.6552 10.5071 11.502 10.5264C11.3491 10.5455 11.196 10.4926 11.0869 10.3838L5.61621 4.91309C5.50736 4.80402 5.45455 4.65095 5.47363 4.49805C5.49288 4.34485 5.58205 4.20866 5.71484 4.12988C6.37772 3.73665 7.16532 3.5 8 3.5ZM8 4.5C7.58942 4.5 7.1921 4.57405 6.82422 4.70703L11.292 9.1748C11.4248 8.80708 11.5 8.41037 11.5 8C11.5 6.07533 9.93304 4.5 8 4.5Z" fill="currentColor"/>
<path fill-rule="evenodd" clip-rule="evenodd" d="M8 1.5C11.5961 1.5 14.5 4.40386 14.5 8C14.5 11.5961 11.5961 14.5 8 14.5C4.40386 14.5 1.5 11.5961 1.5 8C1.5 4.40386 4.40386 1.5 8 1.5ZM8 2.5C4.95614 2.5 2.5 4.95614 2.5 8C2.5 11.0439 4.95614 13.5 8 13.5C11.0439 13.5 13.5 11.0439 13.5 8C13.5 4.95614 11.0439 2.5 8 2.5Z" fill="currentColor"/>
</svg>
