<svg width="16" height="16" viewBox="0 0 16 16" fill="none" xmlns="http://www.w3.org/2000/svg">
<path fill-rule="evenodd" clip-rule="evenodd" d="M12 0.5C12.1405 0.500067 12.2666 0.559022 12.3574 0.652344C12.359 0.653909 12.3616 0.654705 12.3633 0.65625C12.4861 0.77904 12.5316 0.949996 12.5 1.1084V3.5H15C15.2021 3.5001 15.3845 3.62188 15.4619 3.80859C15.5393 3.99537 15.4964 4.21052 15.3535 4.35352L13.9434 5.76367C13.4716 6.23532 12.8451 6.5 12.1797 6.5H11.8994C12.2835 7.24984 12.5 8.09621 12.5 9C12.5 12.0361 10.0361 14.5 7 14.5C3.96386 14.5 1.5 12.0361 1.5 9C1.5 5.96386 3.96386 3.5 7 3.5C7.9077 3.5 8.75753 3.71823 9.50977 4.10547V3.83008C9.50977 3.16855 9.77203 2.52793 10.251 2.06152L11.5771 0.735352C11.6655 0.594504 11.8215 0.500086 12 0.5ZM7 4.5C4.51614 4.5 2.5 6.51614 2.5 9C2.5 11.4839 4.51614 13.5 7 13.5C9.48386 13.5 11.5 11.4839 11.5 9C11.5 8.06952 11.2188 7.21792 10.7373 6.5H10.207L9.44336 7.2627C9.79273 7.75316 10 8.35195 10 9C10 10.6569 8.65685 12 7 12C5.34315 12 4 10.6569 4 9C4 7.34315 5.34315 6 7 6C7.64756 6 8.24607 6.20678 8.73633 6.55566L9.50977 5.78223V5.26855C8.78989 4.78312 7.93457 4.5 7 4.5ZM7 7C5.89543 7 5 7.89543 5 9C5 10.1046 5.89543 11 7 11C8.10457 11 9 10.1046 9 9C9 8.62907 8.89667 8.28312 8.7207 7.98535L7.35352 9.35352C7.15827 9.54877 6.84175 9.54874 6.64648 9.35352C6.45122 9.15825 6.45122 8.84175 6.64648 8.64648L8.01367 7.27832C7.71616 7.10278 7.37045 7 7 7ZM10.9482 2.77832C10.6675 3.05187 10.5098 3.43183 10.5098 3.83008V5.5H12.1797C12.5742 5.5 12.9481 5.3448 13.2363 5.05664L13.793 4.5H12C11.724 4.49987 11.5 4.27606 11.5 4V2.22656L10.9482 2.77832Z" fill="black"/>
</svg>
