<svg width="16" height="16" viewBox="0 0 16 16" fill="none" xmlns="http://www.w3.org/2000/svg">
<path fill-rule="evenodd" clip-rule="evenodd" d="M3.58105 1.53642C4.95983 1.31583 6.1878 2.23133 6.44824 3.49931H13C13.8259 3.49931 14.4997 4.17345 14.5 4.99931V11.9993C14.5 12.8255 13.8261 13.4993 13 13.4993H4.11035C2.903 13.4993 1.7414 12.6775 1.53613 11.4202L1.53711 11.4192C1.51465 11.2836 1.5032 11.1495 1.50195 11.0179C1.5017 11.0119 1.5 11.0053 1.5 10.9993V4.10966C1.50011 2.90251 2.32214 1.74183 3.5791 1.53642H3.58105ZM6.5 10.9993C6.5 11.2755 6.27614 11.4993 6 11.4993C5.72386 11.4993 5.5 11.2755 5.5 10.9993C5.49967 10.1757 4.82365 9.49931 4 9.49931C3.14839 9.49931 2.4571 10.2115 2.50391 11.0813L2.52344 11.2571V11.2591C2.63817 11.9618 3.3177 12.4993 4.11035 12.4993H13C13.2739 12.4993 13.5 12.2732 13.5 11.9993V4.99931C13.4997 4.72573 13.2737 4.49931 13 4.49931H6.5V10.9993ZM3.73926 2.52372L3.73828 2.52275C3.03666 2.63851 2.50011 3.31794 2.5 4.10966V9.00126C2.91885 8.68665 3.43869 8.49931 4 8.49931C4.56238 8.49931 5.08137 8.68927 5.5 9.00517V3.99931C5.49963 3.09643 4.68426 2.37267 3.73926 2.52372Z" fill="black"/>
</svg>
