<svg width="16" height="16" viewBox="0 0 16 16" fill="none" xmlns="http://www.w3.org/2000/svg">
<path fill-rule="evenodd" clip-rule="evenodd" d="M8 3C12.1461 3 15.5 6.35386 15.5 10.5C15.5 10.7761 15.2761 11 15 11H10.4512C10.1528 12.5089 8.52961 13.4346 7.04395 12.7998L7.04102 12.7988L2.89551 11H1C0.723858 11 0.5 10.7761 0.5 10.5C0.5 6.35386 3.85386 3 8 3ZM9.5 10.5C9.49994 9.42341 8.41229 8.70369 7.43848 9.11816L4.25586 10.5L7.43555 11.8799C8.41178 12.2972 9.5 11.5855 9.5 10.5ZM8 4C4.57443 4 1.7753 6.64046 1.52051 10H2.89551L7.04102 8.20117L7.04395 8.2002C8.5303 7.56514 10.1516 8.49963 10.4512 10H14.4795C14.2247 6.64046 11.4256 4 8 4Z" fill="black"/>
</svg>
