<svg width="16" height="16" viewBox="0 0 16 16" fill="none" xmlns="http://www.w3.org/2000/svg">
<path fill-rule="evenodd" clip-rule="evenodd" d="M9.50007 2.5C11.1569 2.50003 12.5001 3.84317 12.5001 5.5C12.5001 6.57 11.9379 7.50605 11.0948 8.03711L11.4942 9.00293L12.4171 8.61816C12.6719 8.51184 12.965 8.63286 13.0714 8.8877C13.1775 9.14242 13.0574 9.4356 12.8028 9.54199L11.878 9.92676L12.2618 10.8525L13.1768 10.4688C13.4312 10.3622 13.7241 10.4821 13.8311 10.7363C13.9378 10.9906 13.8184 11.2834 13.5645 11.3906L12.6446 11.7764L13.0723 12.8086C13.1776 13.0634 13.0565 13.3561 12.8018 13.4619C12.5469 13.5675 12.2544 13.4461 12.1485 13.1914L11.5391 11.7217C11.5362 11.7154 11.5321 11.7095 11.5294 11.7031C11.526 11.6952 11.5244 11.6867 11.5216 11.6787L10.7852 9.90332C10.7759 9.88671 10.7654 9.87053 10.7579 9.85254C10.7494 9.83208 10.744 9.81087 10.7383 9.79004L10.1719 8.42188C9.95577 8.47138 9.73125 8.5 9.50007 8.5C8.95295 8.5 8.4417 8.35057 8.00007 8.09473C7.55843 8.3506 7.0472 8.49999 6.50007 8.5C6.26857 8.5 6.04366 8.47151 5.82722 8.42188L5.42683 9.38574L6.35163 9.76758C6.60653 9.87316 6.72748 10.1658 6.62214 10.4209C6.5168 10.6759 6.22488 10.7974 5.96979 10.6924L5.04401 10.3096L4.6612 11.2363L5.58991 11.6172C5.84513 11.7221 5.967 12.0142 5.86237 12.2695C5.75758 12.525 5.4655 12.6468 5.21003 12.542L4.27839 12.1602L3.85163 13.1914C3.74582 13.4462 3.45327 13.5675 3.19831 13.4619C2.94359 13.3561 2.82241 13.0635 2.9278 12.8086L4.90436 8.03711C4.06163 7.50598 3.50007 6.56974 3.50007 5.5C3.50007 3.84315 4.84321 2.5 6.50007 2.5C7.04702 2.50001 7.55852 2.64858 8.00007 2.9043C8.44161 2.6486 8.95313 2.5 9.50007 2.5ZM6.50007 3.5C5.3955 3.5 4.50007 4.39543 4.50007 5.5C4.50007 6.60457 5.3955 7.5 6.50007 7.5C6.73389 7.49999 6.95752 7.45754 7.16608 7.38379C6.74987 6.86877 6.50007 6.21374 6.50007 5.5C6.50007 4.78598 6.74959 4.13034 7.16608 3.61523C6.9576 3.54156 6.73377 3.50001 6.50007 3.5ZM9.50007 3.5C9.26562 3.5 9.04114 3.54209 8.8321 3.61621C9.24874 4.13136 9.50007 4.78584 9.50007 5.5C9.50007 6.21388 9.24846 6.86775 8.8321 7.38281C9.04123 7.457 9.2655 7.5 9.50007 7.5C10.6046 7.49997 11.5001 6.60455 11.5001 5.5C11.5001 4.39545 10.6046 3.50003 9.50007 3.5ZM8.00007 4.17969C7.68964 4.53208 7.50007 4.99346 7.50007 5.5C7.50007 6.00627 7.68993 6.46702 8.00007 6.81934C8.31018 6.46702 8.50007 6.00624 8.50007 5.5C8.50007 4.99349 8.31046 4.53207 8.00007 4.17969Z" fill="black"/>
</svg>
