<svg width="16" height="16" viewBox="0 0 16 16" fill="none" xmlns="http://www.w3.org/2000/svg">
<path fill-rule="evenodd" clip-rule="evenodd" d="M8 1.5C9.933 1.5 11.5 3.067 11.5 5C11.5 6.7632 10.1961 8.22121 8.5 8.46387V14C8.5 14.2761 8.27614 14.5 8 14.5C7.72386 14.5 7.5 14.2761 7.5 14V8.46387C5.8039 8.22121 4.5 6.7632 4.5 5C4.5 3.067 6.067 1.5 8 1.5ZM8 2.5C6.61929 2.5 5.5 3.61929 5.5 5C5.5 6.38071 6.61929 7.5 8 7.5C9.38071 7.5 10.5 6.38071 10.5 5C10.5 3.61929 9.38071 2.5 8 2.5Z" fill="black"/>
</svg>
