<svg width="16" height="16" viewBox="0 0 16 16" fill="none" xmlns="http://www.w3.org/2000/svg">
<path d="M4 11.5C4.27614 11.5 4.5 11.7239 4.5 12C4.5 12.2761 4.27614 12.5 4 12.5C3.72386 12.5 3.5 12.2761 3.5 12C3.5 11.7239 3.72386 11.5 4 11.5Z" fill="black"/>
<path d="M4 8.5C5.93614 8.5 7.5 10.0639 7.5 12C7.5 12.2761 7.27614 12.5 7 12.5C6.72386 12.5 6.5 12.2761 6.5 12C6.5 10.6161 5.38386 9.5 4 9.5C3.72386 9.5 3.5 9.27614 3.5 9C3.5 8.72386 3.72386 8.5 4 8.5Z" fill="black"/>
<path d="M4 5.5C7.58614 5.5 10.5 8.41386 10.5 12C10.5 12.2761 10.2761 12.5 10 12.5C9.72386 12.5 9.5 12.2761 9.5 12C9.5 8.96614 7.03386 6.5 4 6.5C3.72386 6.5 3.5 6.27614 3.5 6C3.5 5.72386 3.72386 5.5 4 5.5Z" fill="black"/>
<path d="M4 2.5C9.24614 2.5 13.5 6.75386 13.5 12C13.5 12.2761 13.2761 12.5 13 12.5C12.7239 12.5 12.5 12.2761 12.5 12C12.5 7.30614 8.69386 3.5 4 3.5C3.72386 3.5 3.5 3.27614 3.5 3C3.5 2.72386 3.72386 2.5 4 2.5Z" fill="black"/>
</svg>
