<svg width="16" height="16" viewBox="0 0 16 16" fill="none" xmlns="http://www.w3.org/2000/svg">
<path fill-rule="evenodd" clip-rule="evenodd" d="M10.5 4C12.7091 4 14.5 5.79086 14.5 8C14.5 10.2091 12.7091 12 10.5 12H5.5C3.29086 12 1.5 10.2091 1.5 8C1.5 5.79086 3.29086 4 5.5 4H10.5ZM10.5 5C8.84315 5 7.5 6.34315 7.5 8C7.5 9.65685 8.84315 11 10.5 11C12.1569 11 13.5 9.65685 13.5 8C13.5 6.34315 12.1569 5 10.5 5ZM5.5 5C3.84315 5 2.5 6.34315 2.5 8C2.5 9.65685 3.84315 11 5.5 11H7.85547C7.02463 10.267 6.5 9.19504 6.5 8C6.5 6.80496 7.02463 5.73296 7.85547 5H5.5Z" fill="black"/>
</svg>
