<svg width="16" height="16" viewBox="0 0 16 16" fill="none" xmlns="http://www.w3.org/2000/svg">
<path fill-rule="evenodd" clip-rule="evenodd" d="M8 0.5C12.1461 0.5 15.5 3.85386 15.5 8C15.5 8.27614 15.2761 8.5 15 8.5H13.4766C13.2237 11.302 10.8676 13.5 8 13.5C4.96386 13.5 2.5 11.0361 2.5 8C2.5 5.13243 4.69795 2.77633 7.5 2.52344V1C7.5 0.723858 7.72386 0.5 8 0.5ZM7.5 3.52832C5.25117 3.77736 3.5 5.68517 3.5 8C3.5 10.4839 5.51614 12.5 8 12.5C10.3148 12.5 12.2226 10.7488 12.4717 8.5H8C7.72386 8.5 7.5 8.27614 7.5 8V3.52832ZM8.5 7.5H14.4795C14.2372 4.30551 11.6945 1.76278 8.5 1.52051V7.5Z" fill="currentColor"/>
</svg>
