<svg width="16" height="16" viewBox="0 0 16 16" fill="none" xmlns="http://www.w3.org/2000/svg">
<path fill-rule="evenodd" clip-rule="evenodd" d="M11.8697 8.50044C12.024 8.50049 12.1705 8.5711 12.2652 8.69283C12.3598 8.81443 12.3928 8.97321 12.3551 9.12251C12.1637 9.87681 11.769 10.5983 11.1832 11.184C9.42808 12.9387 6.57215 12.9386 4.81701 11.184C4.23125 10.5983 3.83653 9.87681 3.64513 9.12251C3.6074 8.97313 3.64134 8.81445 3.73595 8.69283C3.83069 8.57129 3.97636 8.50044 4.13048 8.50044H11.8697ZM4.83947 9.50044C5.00615 9.85466 5.23479 10.1868 5.52404 10.476C6.88878 11.8407 9.11148 11.8407 10.4762 10.476C10.7654 10.1868 10.9941 9.85467 11.1608 9.50044H4.83947Z" fill="black"/>
<path fill-rule="evenodd" clip-rule="evenodd" d="M4.81701 4.81685C6.57226 3.06166 9.42797 3.06166 11.1832 4.81685C11.7689 5.40261 12.1637 6.12311 12.3551 6.8774C12.3928 7.0267 12.3597 7.18547 12.2652 7.30708C12.1705 7.42882 12.024 7.5004 11.8697 7.50044H4.13048C3.97634 7.50044 3.83069 7.42866 3.73595 7.30708C3.64131 7.18543 3.60736 7.02681 3.64513 6.8774C3.83653 6.12308 4.23124 5.40262 4.81701 4.81685ZM10.4762 5.52388C9.11146 4.15921 6.88876 4.15922 5.52404 5.52388C5.23445 5.81346 5.00523 6.14578 4.83849 6.50044H11.1617C10.995 6.14582 10.7657 5.81344 10.4762 5.52388Z" fill="black"/>
<path fill-rule="evenodd" clip-rule="evenodd" d="M3.40783 3.40572C5.94281 0.861834 10.0574 0.861828 12.5924 3.40572C15.1379 5.94074 15.1382 10.0568 12.5934 12.5922L12.5943 12.5932C10.059 15.1391 5.94125 15.1391 3.40587 12.5932C0.861402 10.0576 0.862157 5.94055 3.40783 3.40572ZM11.8854 4.11275C9.74087 1.95938 6.25936 1.95939 4.11486 4.11275L4.1129 4.1147C2.02661 6.19235 1.96139 9.52518 3.91759 11.6811L4.1129 11.8862L4.11486 11.8872C6.25937 14.0406 9.74086 14.0406 11.8854 11.8872L11.8873 11.8862C14.0409 9.7417 14.0408 6.25927 11.8873 4.1147L11.8854 4.11275Z" fill="black"/>
</svg>
