<svg width="16" height="16" viewBox="0 0 16 16" fill="none" xmlns="http://www.w3.org/2000/svg">
<path fill-rule="evenodd" clip-rule="evenodd" d="M6.72853 2.50684C7.07111 2.53939 7.39238 2.68542 7.64357 2.93652L9.20802 4.5H12.001C12.8267 4.50051 13.501 5.17417 13.501 6V6.5H13.9502C14.8054 6.5003 15.3994 7.33773 15.1358 8.14551L13.4649 13.1582C13.3968 13.3622 13.2053 13.4998 12.9903 13.5H1.99025C1.98119 13.5 1.97185 13.4976 1.96291 13.4971C1.94151 13.4963 1.91996 13.4938 1.89845 13.4902C1.89235 13.4891 1.88592 13.4877 1.8799 13.4863C1.86104 13.4824 1.84102 13.4808 1.82228 13.4746C1.58394 13.395 1.44735 13.1533 1.49025 12.9131V4C1.49025 3.17394 2.16422 2.50013 2.99025 2.5H6.58009L6.72853 2.50684ZM4.89064 7.5C4.56155 7.5 4.27549 7.7064 4.17482 8.00781L2.67482 12.5H12.6309L14.1865 7.83203C14.2402 7.66128 14.1135 7.5003 13.9502 7.5H4.89064ZM2.99025 3.5C2.7165 3.50013 2.49025 3.72622 2.49025 4V9.89453L3.22658 7.69141C3.46624 6.97343 4.14013 6.5 4.89064 6.5H12.501V6C12.501 5.72646 12.2744 5.50052 12.001 5.5H9.00099C8.86849 5.5 8.74025 5.44714 8.6465 5.35352L6.93654 3.64355C6.86719 3.57428 6.78165 3.52848 6.68361 3.50977L6.58009 3.5H2.99025Z" fill="currentColor"/>
</svg>
