<svg width="16" height="16" viewBox="0 0 16 16" fill="none" xmlns="http://www.w3.org/2000/svg">
<path fill-rule="evenodd" clip-rule="evenodd" d="M7.15018 1.13971C7.34533 0.944721 7.66197 0.944885 7.85721 1.13971L14.8582 8.14069C15.0531 8.33593 15.0532 8.65254 14.8582 8.84772L14.2029 9.50202C14.7264 10.0903 14.7073 10.9886 14.1433 11.5528L13.4832 12.213C12.9413 12.7548 12.0841 12.798 11.4871 12.3204L7.88749 9.43952C7.68467 9.27767 7.4014 9.29508 7.22342 9.47272L7.20096 9.4942L7.85331 10.1465C8.04835 10.3418 8.04839 10.6584 7.85331 10.8536L4.85331 13.8536C4.10809 14.5986 2.89149 14.5986 2.14628 13.8536C1.40127 13.1084 1.40127 11.8918 2.14628 11.1465L5.14628 8.14655C5.23994 8.05294 5.36738 8.00017 5.49979 8.00006C5.6322 8.00014 5.75963 8.05297 5.85331 8.14655L6.49393 8.78717L6.51639 8.76569C7.05821 8.22421 7.91561 8.18198 8.51249 8.65924L12.1121 11.5391C12.3151 11.7015 12.5981 11.684 12.7762 11.5059L13.4363 10.8458C13.6094 10.6725 13.628 10.4059 13.493 10.212L12.8572 10.8487C12.662 11.0439 12.3455 11.0437 12.1502 10.8487L5.14921 3.8487C4.95401 3.6535 4.95415 3.33694 5.14921 3.14166L7.15018 1.13971ZM2.85331 11.8536C2.49883 12.2083 2.49883 12.7919 2.85331 13.1465C3.208 13.501 3.79158 13.501 4.14628 13.1465L6.79276 10.5001L5.49979 9.20709L2.85331 11.8536ZM6.20975 3.49518L12.5037 9.78815L13.7976 8.4942L7.5037 2.20123L6.20975 3.49518Z" fill="black"/>
</svg>
