<svg width="16" height="16" viewBox="0 0 16 16" fill="none" xmlns="http://www.w3.org/2000/svg">
<path d="M2.14645 7.64657C2.34171 7.45131 2.65822 7.45131 2.85348 7.64657L5.85348 10.6466C6.04866 10.8418 6.04871 11.1584 5.85348 11.3536C5.65824 11.5488 5.34171 11.5488 5.14645 11.3536L2.14645 8.3536C1.95118 8.15834 1.95118 7.84183 2.14645 7.64657Z" fill="black"/>
<path d="M12.6464 5.64657C12.8417 5.45131 13.1582 5.45131 13.3535 5.64657C13.5487 5.84184 13.5487 6.15836 13.3535 6.3536L8.35348 11.3536C8.15824 11.5488 7.84171 11.5488 7.64645 11.3536L4.64645 8.3536C4.45118 8.15834 4.45118 7.84183 4.64645 7.64657C4.84171 7.45131 5.15822 7.45131 5.35348 7.64657L7.99996 10.2931L12.6464 5.64657Z" fill="black"/>
<path d="M10.1464 5.64657C10.3417 5.45131 10.6582 5.45131 10.8535 5.64657C11.0487 5.84184 11.0487 6.15836 10.8535 6.3536L8.35348 8.8536C8.15824 9.04884 7.84171 9.04879 7.64645 8.8536C7.45118 8.65834 7.45118 8.34183 7.64645 8.14657L10.1464 5.64657Z" fill="black"/>
</svg>
