<svg width="16" height="16" viewBox="0 0 16 16" fill="none" xmlns="http://www.w3.org/2000/svg">
<path fill-rule="evenodd" clip-rule="evenodd" d="M7.99962 4.5C9.93577 4.5 11.4996 6.06386 11.4996 8C11.4996 9.93614 9.93577 11.5 7.99962 11.5C6.06367 11.4998 4.49962 9.93601 4.49962 8C4.49962 6.06399 6.06367 4.50022 7.99962 4.5ZM7.99962 5.5C6.61595 5.50022 5.49962 6.61628 5.49962 8C5.49962 9.38372 6.61595 10.4998 7.99962 10.5C9.38348 10.5 10.4996 9.38386 10.4996 8C10.4996 6.61614 9.38348 5.5 7.99962 5.5Z" fill="currentColor"/>
<path fill-rule="evenodd" clip-rule="evenodd" d="M7.99962 2.5C10.9806 2.5 13.5739 4.41706 15.1744 7.26367C15.4309 7.71647 15.4319 8.27379 15.1754 8.72656L15.1744 8.72559C13.5746 11.5614 10.9817 13.4902 7.99962 13.4902C5.01828 13.49 2.4242 11.572 0.823842 8.72461L0.824818 8.72363C0.56952 8.27122 0.568753 7.71577 0.824818 7.26367C2.42462 4.42834 5.01794 2.50021 7.99962 2.5ZM7.99962 3.5C5.4821 3.50021 3.17598 5.13214 1.69591 7.75586L1.69494 7.75684C1.61181 7.90381 1.61174 8.08645 1.69494 8.2334L1.69591 8.23535C3.17538 10.8675 5.48146 12.49 7.99962 12.4902C10.5173 12.4902 12.8251 10.8573 14.3053 8.2334C14.3884 8.08649 14.3884 7.90377 14.3053 7.75684L14.3043 7.75488C12.8248 5.12248 10.518 3.5 7.99962 3.5Z" fill="currentColor"/>
</svg>
