<svg width="16" height="16" viewBox="0 0 16 16" fill="none" xmlns="http://www.w3.org/2000/svg">
<path fill-rule="evenodd" clip-rule="evenodd" d="M10.5898 1.5C10.9475 1.5 11.2757 1.62789 11.5361 1.83398L11.6436 1.92676L14.0635 4.34668C14.3506 4.63388 14.5 5.01253 14.5 5.41016V13C14.5 13.8261 13.8261 14.5 13 14.5H3C2.17386 14.5 1.5 13.8261 1.5 13V3C1.5 2.17386 2.17386 1.5 3 1.5H10.5898ZM3 2.5C2.72614 2.5 2.5 2.72614 2.5 3V13C2.5 13.2739 2.72614 13.5 3 13.5H3.50879L3.5 8.00098C3.49978 7.86822 3.55269 7.74043 3.64648 7.64648C3.74025 7.55272 3.86739 7.5 4 7.5H12C12.2761 7.5 12.5 7.72386 12.5 8V13.5H13C13.2739 13.5 13.5 13.2739 13.5 13V5.41016C13.5 5.26786 13.4492 5.14649 13.3564 5.05371L10.9561 2.65332L10.873 2.58691C10.7859 2.52979 10.6882 2.5 10.5898 2.5H10.5V6C10.5 6.27614 10.2761 6.5 10 6.5H4C3.72386 6.5 3.5 6.27614 3.5 6V2.5H3ZM4.50879 13.5H11.5V8.5H4.50098L4.50879 13.5ZM6.5 5.5H9.5V2.5H6.5V5.5ZM4.5 5.5H5.5V2.5H4.5V5.5Z" fill="currentColor"/>
</svg>
