<svg width="16" height="16" viewBox="0 0 16 16" fill="none" xmlns="http://www.w3.org/2000/svg">
<path fill-rule="evenodd" clip-rule="evenodd" d="M10 1.5C10.2761 1.5 10.5 1.72386 10.5 2V3.5H12C12.8261 3.5 13.5 4.17386 13.5 5V8C13.5 8.82614 12.8261 9.5 12 9.5H10C9.72386 9.5 9.5 9.27614 9.5 9V7.5H5.5V14C5.5 14.2761 5.27614 14.5 5 14.5C4.72386 14.5 4.5 14.2761 4.5 14V2C4.5 1.72386 4.72386 1.5 5 1.5H10ZM10.5 8.5H12C12.2739 8.5 12.5 8.27386 12.5 8V5C12.5 4.72614 12.2739 4.5 12 4.5H10.5V8.5ZM5.5 6.5H9.5V2.5H5.5V6.5Z" fill="black"/>
</svg>
