<svg width="16" height="16" viewBox="0 0 16 16" fill="none" xmlns="http://www.w3.org/2000/svg">
<path fill-rule="evenodd" clip-rule="evenodd" d="M8.00524 2C9.5364 2.0001 11.0775 2.58986 12.2484 3.75879C14.5902 6.1068 14.5902 9.90319 12.2484 12.2412C11.0775 13.4101 9.5364 13.9999 8.00524 14C6.47397 14 4.93208 13.4102 3.7611 12.2412C1.41948 9.89323 1.41948 6.09678 3.7611 3.75879C4.93208 2.58976 6.46396 2 8.00524 2ZM8.00524 2.99902C6.6642 2.99902 5.40304 3.51889 4.46228 4.45801C2.51065 6.40638 2.51065 9.57408 4.46228 11.5225C5.41302 12.4614 6.6643 12.9805 8.00524 12.9805C9.34622 12.9804 10.6075 12.4616 11.5482 11.5225C13.4998 9.57416 13.4996 6.4064 11.5482 4.45801C10.5975 3.51888 9.34622 2.99912 8.00524 2.99902Z" fill="black"/>
</svg>
