<svg width="16" height="16" viewBox="0 0 16 16" fill="none" xmlns="http://www.w3.org/2000/svg">
<path fill-rule="evenodd" clip-rule="evenodd" d="M9.64648 2.64648C9.84173 2.45137 10.1583 2.45134 10.3535 2.64648C10.5487 2.84171 10.5486 3.15827 10.3535 3.35352L10.083 3.62305C10.3457 4.01857 10.5 4.49175 10.5 5V5.58691C10.7788 5.68606 11.0187 5.86591 11.1943 6.09766L11.3564 5.93652C11.4491 5.84382 11.4999 5.7223 11.5 5.58008V3.99023C11.5 3.7141 11.7239 3.49025 12 3.49023C12.2761 3.49023 12.5 3.71409 12.5 3.99023V5.58008C12.4999 5.97758 12.3506 6.35639 12.0635 6.64355L11.5 7.20703V7.5H12C12.8261 7.5 13.5 8.17386 13.5 9V10C13.5 10.2761 13.2761 10.5 13 10.5C12.7239 10.5 12.5 10.2761 12.5 10V9C12.5 8.72614 12.2739 8.5 12 8.5H11.5V10C11.5 10.2859 11.4638 10.5632 11.3994 10.8291L11.9746 11.3193L11.9766 11.3213C12.3047 11.6047 12.5 12.0223 12.5 12.46V14C12.5 14.2761 12.2761 14.5 12 14.5C11.7239 14.5 11.5 14.2761 11.5 14V12.46C11.5 12.3185 11.4358 12.1766 11.3252 12.0801L11.001 11.8027C10.3895 12.8202 9.27604 13.5 8 13.5C6.72408 13.5 5.6096 12.821 4.99805 11.8037L4.6748 12.0801C4.56421 12.1766 4.50001 12.3185 4.5 12.46V14C4.49998 14.2761 4.27613 14.5 4 14.5C3.72387 14.5 3.50002 14.2761 3.5 14V12.46C3.50001 12.0223 3.69527 11.6047 4.02344 11.3213L4.02539 11.3193L4.59961 10.8291C4.53527 10.5633 4.5 10.2859 4.5 10V8.5H4C3.72614 8.5 3.5 8.72614 3.5 9V10C3.5 10.2761 3.27614 10.5 3 10.5C2.72386 10.5 2.5 10.2761 2.5 10V9C2.5 8.17386 3.17386 7.5 4 7.5H4.5V7.20703L3.93652 6.64355C3.68535 6.39234 3.5394 6.07111 3.50684 5.72852L3.5 5.58008V3.99023C3.5 3.71409 3.72386 3.49023 4 3.49023C4.27614 3.49023 4.5 3.71409 4.5 3.99023V5.58008L4.50977 5.68262C4.52839 5.78112 4.57402 5.86696 4.64355 5.93652L4.80469 6.09766C4.98035 5.86569 5.22104 5.68612 5.5 5.58691V5C5.5 4.49194 5.6535 4.01847 5.91602 3.62305L5.64648 3.35352C5.45122 3.15825 5.45122 2.84175 5.64648 2.64648C5.84175 2.45122 6.15825 2.45122 6.35352 2.64648L6.62305 2.91602C7.01847 2.6535 7.49194 2.5 8 2.5C8.50777 2.5 8.98069 2.65378 9.37598 2.91602L9.64648 2.64648ZM6 6.5C5.72614 6.5 5.5 6.72614 5.5 7V10C5.5 11.2125 6.35702 12.2184 7.5 12.4492V6.5H6ZM8.5 12.4492C9.64298 12.2184 10.5 11.2125 10.5 10V7C10.5 6.72614 10.2739 6.5 10 6.5H8.5V12.4492ZM8 3.5C7.59522 3.5 7.22684 3.66397 6.95605 3.92773C6.95153 3.93263 6.94812 3.9386 6.94336 3.94336C6.9386 3.94812 6.93263 3.95153 6.92773 3.95605C6.66397 4.22684 6.5 4.59522 6.5 5V5.5H9.5V5C9.5 4.59498 9.33533 4.22689 9.07129 3.95605C9.06657 3.95168 9.06123 3.94795 9.05664 3.94336C9.05175 3.93847 9.04761 3.93278 9.04297 3.92773C8.77223 3.66426 8.40453 3.5 8 3.5Z" fill="currentColor"/>
</svg>
