<svg width="16" height="16" viewBox="0 0 16 16" fill="none" xmlns="http://www.w3.org/2000/svg">
<path d="M9.64648 5.64648C9.84175 5.45122 10.1583 5.45122 10.3535 5.64648C10.5488 5.84175 10.5488 6.15826 10.3535 6.35352L8.70703 8L10.3535 9.64648C10.5488 9.84175 10.5488 10.1583 10.3535 10.3535C10.1583 10.5487 9.84174 10.5488 9.64648 10.3535L8 8.70703L6.35352 10.3535C6.15825 10.5487 5.84174 10.5488 5.64648 10.3535C5.45123 10.1583 5.45125 9.84175 5.64648 9.64648L7.29297 8L5.64648 6.35352C5.45123 6.15826 5.45125 5.84175 5.64648 5.64648C5.84175 5.45122 6.15825 5.45122 6.35352 5.64648L8 7.29297L9.64648 5.64648Z" fill="black"/>
<path fill-rule="evenodd" clip-rule="evenodd" d="M9.90723 1.5127C10.4792 1.5698 11.0101 1.8238 11.4229 2.23633L13.7588 4.57129L13.9277 4.75488C14.2987 5.19887 14.5 5.76104 14.5 6.33984V9.65039C14.4999 10.3155 14.235 10.9415 13.7637 11.4131L11.4229 13.7539C10.957 14.2295 10.3191 14.4901 9.66016 14.4902H6.34961C5.68432 14.4901 5.05759 14.2255 4.58594 13.7539L2.24609 11.4131C1.77074 10.9472 1.50987 10.3092 1.50977 9.65039V6.33984C1.50981 5.67453 1.77445 5.04788 2.24609 4.57617L4.58594 2.23633C5.05187 1.76038 5.69031 1.5001 6.34961 1.5H9.66016L9.90723 1.5127ZM6.34961 2.5C5.95139 2.5001 5.57135 2.65764 5.29785 2.93848L2.95312 5.2832C2.665 5.57139 2.50981 5.94538 2.50977 6.33984V9.65039C2.50986 9.99883 2.63034 10.3334 2.84863 10.5947L2.94824 10.7021L2.95312 10.7061L5.29297 13.0469C5.58113 13.335 5.95521 13.4901 6.34961 13.4902H9.66016C10.0584 13.4901 10.4384 13.3316 10.7119 13.0508L13.0566 10.7061C13.3445 10.4179 13.4999 10.0446 13.5 9.65039V6.33984C13.5 5.94151 13.3415 5.56164 13.0605 5.28809L10.7158 2.94336C10.4637 2.69139 10.1462 2.54049 9.80664 2.50684L9.66016 2.5H6.34961Z" fill="black"/>
</svg>
