<svg width="16" height="16" viewBox="0 0 16 16" fill="none" xmlns="http://www.w3.org/2000/svg">
<path d="M8.11618 3.63669C9.63144 2.12143 12.0785 2.12143 13.5937 3.63669C15.1087 5.15189 15.1087 7.59805 13.5937 9.11325L8.35349 14.3535C8.25972 14.4473 8.13258 14.5 7.99997 14.5H7.98044C7.84783 14.5 7.71972 14.4473 7.62595 14.3535L2.38669 9.11325C0.871429 7.59799 0.871429 5.15195 2.38669 3.63669C3.90195 2.12143 6.34799 2.12143 7.86325 3.63669L7.98923 3.76267L8.11618 3.63669ZM12.8867 4.34372C11.762 3.21898 9.94795 3.21898 8.82321 4.34372L8.34372 4.82321C8.14846 5.01848 7.83195 5.01847 7.63669 4.82321L7.15622 4.34372C6.03148 3.21898 4.21846 3.21898 3.09372 4.34372C1.96898 5.46846 1.96898 7.28148 3.09372 8.40622L7.99021 13.3027L12.8867 8.40622C14.0111 7.28154 14.0111 5.4684 12.8867 4.34372Z" fill="currentColor"/>
</svg>
