<svg width="16" height="16" viewBox="0 0 16 16" fill="none" xmlns="http://www.w3.org/2000/svg">
<path fill-rule="evenodd" clip-rule="evenodd" d="M4 11C4.82843 11 5.5 11.6716 5.5 12.5C5.5 13.3284 4.82843 14 4 14C3.17157 14 2.5 13.3284 2.5 12.5C2.5 11.6716 3.17157 11 4 11ZM4 12C3.72386 12 3.5 12.2239 3.5 12.5C3.5 12.7761 3.72386 13 4 13C4.27614 13 4.5 12.7761 4.5 12.5C4.5 12.2239 4.27614 12 4 12Z" fill="black"/>
<path fill-rule="evenodd" clip-rule="evenodd" d="M8 11C8.82843 11 9.5 11.6716 9.5 12.5C9.5 13.3284 8.82843 14 8 14C7.17157 14 6.5 13.3284 6.5 12.5C6.5 11.6716 7.17157 11 8 11ZM8 12C7.72386 12 7.5 12.2239 7.5 12.5C7.5 12.7761 7.72386 13 8 13C8.27614 13 8.5 12.7761 8.5 12.5C8.5 12.2239 8.27614 12 8 12Z" fill="black"/>
<path fill-rule="evenodd" clip-rule="evenodd" d="M12 11C12.8284 11 13.5 11.6716 13.5 12.5C13.5 13.3284 12.8284 14 12 14C11.1716 14 10.5 13.3284 10.5 12.5C10.5 11.6716 11.1716 11 12 11ZM12 12C11.7239 12 11.5 12.2239 11.5 12.5C11.5 12.7761 11.7239 13 12 13C12.2761 13 12.5 12.7761 12.5 12.5C12.5 12.2239 12.2761 12 12 12Z" fill="black"/>
<path fill-rule="evenodd" clip-rule="evenodd" d="M5 2.5C5.27614 2.5 5.5 2.72386 5.5 3V10C5.5 10.2761 5.27614 10.5 5 10.5H3C2.72386 10.5 2.5 10.2761 2.5 10V3C2.5 2.72386 2.72386 2.5 3 2.5H5ZM3.5 9.5H4.5V3.5H3.5V9.5Z" fill="black"/>
<path fill-rule="evenodd" clip-rule="evenodd" d="M9 2.5C9.27614 2.5 9.5 2.72386 9.5 3V10C9.5 10.2761 9.27614 10.5 9 10.5H7C6.72386 10.5 6.5 10.2761 6.5 10V3C6.5 2.72386 6.72386 2.5 7 2.5H9ZM7.5 9.5H8.5V3.5H7.5V9.5Z" fill="black"/>
<path fill-rule="evenodd" clip-rule="evenodd" d="M13 2.5C13.2761 2.5 13.5 2.72386 13.5 3V10C13.5 10.2761 13.2761 10.5 13 10.5H11C10.7239 10.5 10.5 10.2761 10.5 10V3C10.5 2.72386 10.7239 2.5 11 2.5H13ZM11.5 9.5H12.5V3.5H11.5V9.5Z" fill="black"/>
</svg>
