<svg width="16" height="16" viewBox="0 0 16 16" fill="none" xmlns="http://www.w3.org/2000/svg">
<path fill-rule="evenodd" clip-rule="evenodd" d="M10.5 4C12.7091 4 14.5 5.79086 14.5 8C14.5 10.2091 12.7091 12 10.5 12H5.5C3.29086 12 1.5 10.2091 1.5 8C1.5 5.79086 3.29086 4 5.5 4H10.5ZM8.14453 5C8.97537 5.73296 9.5 6.80496 9.5 8C9.5 9.19504 8.97537 10.267 8.14453 11H10.5C12.1569 11 13.5 9.65685 13.5 8C13.5 6.34315 12.1569 5 10.5 5H8.14453ZM5.3457 5.00391C3.76055 5.08421 2.5 6.39489 2.5 8C2.5 9.60511 3.76055 10.9158 5.3457 10.9961C5.39681 10.9987 5.44825 11 5.5 11C7.15685 11 8.5 9.65685 8.5 8C8.5 6.34315 7.15685 5 5.5 5C5.44825 5 5.39681 5.00132 5.3457 5.00391Z" fill="currentColor"/>
</svg>
