<svg width="16" height="16" viewBox="0 0 16 16" fill="none" xmlns="http://www.w3.org/2000/svg">
<path d="M4 10.5C4.27614 10.5 4.5 10.7239 4.5 11C4.5 11.2761 4.27614 11.5 4 11.5C3.72386 11.5 3.5 11.2761 3.5 11C3.5 10.7239 3.72386 10.5 4 10.5Z" fill="currentColor"/>
<path d="M12 10.5C12.2761 10.5 12.5 10.7239 12.5 11C12.5 11.2761 12.2761 11.5 12 11.5H6C5.72386 11.5 5.5 11.2761 5.5 11C5.5 10.7239 5.72386 10.5 6 10.5H12Z" fill="currentColor"/>
<path d="M4 7.5C4.27614 7.5 4.5 7.72386 4.5 8C4.5 8.27614 4.27614 8.5 4 8.5C3.72386 8.5 3.5 8.27614 3.5 8C3.5 7.72386 3.72386 7.5 4 7.5Z" fill="currentColor"/>
<path d="M12 7.5C12.2761 7.5 12.5 7.72386 12.5 8C12.5 8.27614 12.2761 8.5 12 8.5H6C5.72386 8.5 5.5 8.27614 5.5 8C5.5 7.72386 5.72386 7.5 6 7.5H12Z" fill="currentColor"/>
<path d="M4 4.5C4.27614 4.5 4.5 4.72386 4.5 5C4.5 5.27614 4.27614 5.5 4 5.5C3.72386 5.5 3.5 5.27614 3.5 5C3.5 4.72386 3.72386 4.5 4 4.5Z" fill="currentColor"/>
<path d="M12 4.5C12.2761 4.5 12.5 4.72386 12.5 5C12.5 5.27614 12.2761 5.5 12 5.5H6C5.72386 5.5 5.5 5.27614 5.5 5C5.5 4.72386 5.72386 4.5 6 4.5H12Z" fill="currentColor"/>
</svg>
