<svg width="16" height="16" viewBox="0 0 16 16" fill="none" xmlns="http://www.w3.org/2000/svg">
<path fill-rule="evenodd" clip-rule="evenodd" d="M8.00045 4.50009C8.82868 4.50032 9.50045 5.1718 9.50045 6.00009C9.50042 6.65273 9.08242 7.20596 8.50045 7.4122V14.0001C8.50041 14.2761 8.27637 14.4999 8.00045 14.5001C7.72433 14.5001 7.50049 14.2762 7.50045 14.0001V7.4122C6.91808 7.20618 6.50048 6.65302 6.50045 6.00009C6.50045 5.17166 7.17202 4.50009 8.00045 4.50009ZM8.00045 5.50009C7.72431 5.50009 7.50045 5.72395 7.50045 6.00009C7.50049 6.27619 7.72433 6.50009 8.00045 6.50009C8.27637 6.49986 8.50041 6.27605 8.50045 6.00009C8.50045 5.72409 8.2764 5.50032 8.00045 5.50009Z" fill="black"/>
<path d="M4.1069 2.1163C4.30211 1.92137 4.61874 1.92132 4.81393 2.1163C5.0089 2.31149 5.00885 2.62811 4.81393 2.82333C3.05925 4.578 3.05939 7.43186 4.81393 9.18661C5.0088 9.38186 5.00896 9.69849 4.81393 9.89364C4.61878 10.0888 4.30219 10.0886 4.1069 9.89364C1.96183 7.74836 1.9617 4.2615 4.1069 2.1163Z" fill="black"/>
<path d="M11.187 2.10653C11.3823 1.91151 11.6988 1.91135 11.894 2.10653C14.039 4.25174 14.039 7.73867 11.894 9.88388C11.6989 10.0789 11.3822 10.0787 11.187 9.88388C10.9918 9.68867 10.9919 9.37212 11.187 9.17685C12.9414 7.42217 12.9414 4.56824 11.187 2.81357C10.9917 2.6183 10.9917 2.3018 11.187 2.10653Z" fill="black"/>
<path d="M5.52682 3.52646C5.72208 3.33143 6.03865 3.33132 6.23385 3.52646C6.42882 3.72166 6.42882 4.03828 6.23385 4.23349C5.25916 5.20821 5.25917 6.79196 6.23385 7.76669C6.42875 7.96195 6.4289 8.27856 6.23385 8.47372C6.03869 8.66884 5.7221 8.66864 5.52682 8.47372C4.16162 7.10847 4.1616 4.8917 5.52682 3.52646Z" fill="black"/>
<path d="M9.76705 3.52646C9.96233 3.33143 10.2789 3.33127 10.4741 3.52646C11.839 4.89166 11.839 7.10852 10.4741 8.47372C10.2789 8.66875 9.9623 8.6686 9.76705 8.47372C9.57183 8.2785 9.5719 7.96196 9.76705 7.76669C10.7415 6.79201 10.7415 5.20817 9.76705 4.23349C9.57179 4.03822 9.57179 3.72172 9.76705 3.52646Z" fill="black"/>
</svg>
