<svg width="16" height="16" viewBox="0 0 16 16" fill="none" xmlns="http://www.w3.org/2000/svg">
<path fill-rule="evenodd" clip-rule="evenodd" d="M12.6464 2.64648C12.8417 2.45122 13.1582 2.45123 13.3535 2.64648C13.5487 2.84175 13.5487 3.15825 13.3535 3.35352L12.5556 4.14941C13.7211 5.06492 14.7086 6.31382 15.4462 7.77441C15.5707 8.02085 15.4719 8.32176 15.2255 8.44629C14.9791 8.5707 14.6782 8.47194 14.5537 8.22559C13.8468 6.82584 12.9159 5.67689 11.8427 4.8623L10.8037 5.90234C11.241 6.48653 11.4999 7.21238 11.4999 8C11.4999 9.93614 9.93609 11.5 7.99995 11.5C7.21236 11.5 6.48646 11.2411 5.90229 10.8037L3.35346 13.3535C3.1582 13.5487 2.84168 13.5488 2.64643 13.3535C2.45119 13.1583 2.45122 12.8417 2.64643 12.6465L5.19526 10.0967C4.75842 9.51269 4.49995 8.78709 4.49995 8C4.49995 6.06389 6.06385 4.50005 7.99995 4.5C8.78703 4.5 9.51264 4.75848 10.0966 5.19531L10.9882 4.30273C10.0581 3.78349 9.04768 3.5 7.99995 3.5C5.33662 3.50003 2.91092 5.32513 1.44624 8.22559C1.3217 8.47194 1.02079 8.57073 0.774363 8.44629C0.528034 8.32175 0.429237 8.02083 0.55366 7.77441C2.12897 4.655 4.84338 2.50003 7.99995 2.5C9.33746 2.5 10.5949 2.88805 11.7207 3.57129L12.6464 2.64648ZM6.62007 10.0859C7.01523 10.3474 7.48918 10.5 7.99995 10.5C9.38381 10.5 10.4999 9.38386 10.4999 8C10.4999 7.48921 10.3473 7.0153 10.0859 6.62012L6.62007 10.0859ZM7.99995 5.5C6.61613 5.50005 5.49995 6.61617 5.49995 8C5.49995 8.51027 5.65206 8.98397 5.91303 9.37891L9.37885 5.91309C8.98392 5.65212 8.51021 5.5 7.99995 5.5Z" fill="black"/>
</svg>
