<svg width="16" height="16" viewBox="0 0 16 16" fill="none" xmlns="http://www.w3.org/2000/svg">
<path fill-rule="evenodd" clip-rule="evenodd" d="M10 2.5C10.6536 2.5 11.2037 2.93126 11.4092 3.50293L14.1348 9.56543C14.3673 9.99166 14.5 10.4803 14.5 11C14.5 12.6569 13.1569 14 11.5 14C9.84315 14 8.5 12.6569 8.5 11V10.5H7.5V11C7.5 12.6569 6.15685 14 4.5 14C2.84315 14 1.5 12.6569 1.5 11C1.5 10.4804 1.63183 9.99156 1.86426 9.56543L4.58984 3.50293C4.79522 2.93111 5.34626 2.50003 6 2.5C6.82614 2.5 7.5 3.17386 7.5 4V4.5H8.5V4C8.5 3.17386 9.17386 2.5 10 2.5ZM4.5 9C3.75271 9 3.10211 9.4104 2.75879 10.0176L2.74609 10.0449C2.73968 10.0592 2.7302 10.0716 2.72266 10.085C2.58112 10.3593 2.5 10.67 2.5 11C2.5 12.1046 3.39543 13 4.5 13C5.60457 13 6.5 12.1046 6.5 11C6.5 9.89543 5.60457 9 4.5 9ZM11.5 9C10.3954 9 9.5 9.89543 9.5 11C9.5 12.1046 10.3954 13 11.5 13C12.6046 13 13.5 12.1046 13.5 11C13.5 10.6699 13.418 10.3594 13.2764 10.085C13.2689 10.0717 13.2603 10.059 13.2539 10.0449L13.2412 10.0176C12.8979 9.4104 12.2473 9 11.5 9ZM7.5 9.5H8.5V5.5H7.5V9.5ZM6 3.5C5.78999 3.50003 5.59266 3.6475 5.52539 3.85449C5.51982 3.87165 5.51325 3.88882 5.50586 3.90527L3.60352 8.13574C3.88656 8.04724 4.18778 8 4.5 8C5.26924 8 5.96902 8.29156 6.5 8.76758V4C6.5 3.72614 6.27386 3.5 6 3.5ZM10 3.5C9.72614 3.5 9.5 3.72614 9.5 4V8.76758C10.031 8.29156 10.7308 8 11.5 8C11.8119 8 12.1127 8.04742 12.3955 8.13574L10.4941 3.90527C10.4867 3.88882 10.4802 3.87165 10.4746 3.85449C10.4073 3.64749 10.21 3.5 10 3.5Z" fill="currentColor"/>
</svg>
