<svg width="16" height="16" viewBox="0 0 16 16" fill="none" xmlns="http://www.w3.org/2000/svg">
<path fill-rule="evenodd" clip-rule="evenodd" d="M7.72474 10.5822C7.91881 10.454 8.18278 10.4758 8.35364 10.6467L11.3536 13.6467C11.4965 13.7897 11.5394 14.0048 11.462 14.1916C11.3846 14.3783 11.2022 14.5001 11.0001 14.5002H5.00013C4.79801 14.5002 4.61568 14.3782 4.53821 14.1916C4.46083 14.0048 4.50366 13.7897 4.64661 13.6467L7.64661 10.6467L7.72474 10.5822ZM6.20716 13.5002H9.79309L8.00013 11.7072L6.20716 13.5002Z" fill="black"/>
<path d="M3.39759 3.39569C5.94131 0.863028 10.0581 0.850073 12.5949 3.39764C15.1282 5.94235 15.1294 10.0584 12.5939 12.5939C12.3987 12.789 12.0821 12.7888 11.8868 12.5939C11.6916 12.3987 11.6916 12.0822 11.8868 11.8869C14.0311 9.74262 14.0319 6.25806 11.8859 4.10272C9.74267 1.95043 6.25894 1.95758 4.10266 4.10467C1.95059 6.24785 1.95769 9.73068 4.10462 11.8869C4.29933 12.0826 4.2983 12.4001 4.10266 12.5949C3.907 12.7893 3.59037 12.7884 3.39563 12.593C0.862825 10.0492 0.849988 5.93247 3.39759 3.39569Z" fill="black"/>
<path d="M4.81751 4.81561C6.58043 3.06392 9.42713 3.04875 11.1847 4.81756C12.9378 6.58194 12.9396 9.4279 11.1837 11.1838C10.9885 11.3789 10.6719 11.3788 10.4767 11.1838C10.2815 10.9885 10.2815 10.672 10.4767 10.4767C11.8407 9.11273 11.8423 6.89829 10.4757 5.52264C9.11333 4.15152 6.89967 4.15644 5.52259 5.5246C4.15149 6.88704 4.15626 9.10067 5.52454 10.4777C5.71913 10.6736 5.71839 10.9901 5.52259 11.1848C5.3268 11.3792 5.0102 11.3783 4.81556 11.1828C3.06393 9.41995 3.0489 6.57319 4.81751 4.81561Z" fill="black"/>
<path d="M6.22669 6.22674C7.20195 5.25148 8.78854 5.25148 9.7638 6.22674C10.7387 7.20202 10.7389 8.78869 9.7638 9.76385C9.56865 9.95895 9.25204 9.95875 9.05677 9.76385C8.86152 9.56861 8.86155 9.25209 9.05677 9.05682C9.64138 8.47219 9.64118 7.51853 9.05677 6.93377C8.47203 6.34904 7.51846 6.34904 6.93372 6.93377C6.34903 7.51852 6.349 8.4721 6.93372 9.05682C7.12869 9.25211 7.12888 9.56869 6.93372 9.76385C6.73855 9.95894 6.42195 9.9588 6.22669 9.76385C5.25144 8.78861 5.25147 7.20201 6.22669 6.22674Z" fill="black"/>
<path d="M8.00013 7.50018C8.27621 7.50025 8.50013 7.72408 8.50013 8.00018C8.50001 8.27618 8.27614 8.50011 8.00013 8.50018C7.72406 8.50018 7.50024 8.27622 7.50013 8.00018C7.50013 7.72404 7.72398 7.50018 8.00013 7.50018Z" fill="black"/>
</svg>
