<svg width="16" height="16" viewBox="0 0 16 16" fill="none" xmlns="http://www.w3.org/2000/svg">
<path d="M8.00488 2.99917C9.346 2.99917 10.597 3.51873 11.5478 4.45795C13.4995 6.40633 13.4995 9.57369 11.5478 11.5221C10.6071 12.4613 9.346 12.9808 8.00488 12.9808C6.66376 12.9808 5.41272 12.4613 4.46193 11.5221C2.5103 9.57369 2.5103 6.40633 4.46193 4.45795C5.40271 3.51873 6.66376 2.99917 8.00488 2.99917ZM8.00488 2C6.4636 2 4.93232 2.58951 3.76135 3.75853C1.41939 6.09659 1.41939 9.89342 3.76135 12.2415C4.93232 13.4105 6.47361 14 8.00488 14C9.53616 14 11.0774 13.4105 12.2484 12.2415C14.5904 9.90341 14.5904 6.10658 12.2484 3.75853C11.0774 2.58951 9.53616 2 8.00488 2Z" fill="black"/>
</svg>
