<svg width="16" height="16" viewBox="0 0 16 16" fill="none" xmlns="http://www.w3.org/2000/svg">
<path fill-rule="evenodd" clip-rule="evenodd" d="M8 1C10.6322 1 12.7873 3.03418 12.9834 5.61621C14.3033 6.51628 15.1699 8.0319 15.1699 9.75C15.1699 12.5114 12.9313 14.75 10.1699 14.75C9.39224 14.75 8.65642 14.5716 8 14.2549C7.34358 14.5716 6.60776 14.75 5.83008 14.75C3.06865 14.75 0.830078 12.5114 0.830078 9.75C0.830078 8.03219 1.6961 6.51634 3.01562 5.61621C3.21166 3.03415 5.36774 1 8 1ZM3.07324 6.85254C2.30766 7.58119 1.83008 8.60966 1.83008 9.75C1.83008 11.9591 3.62094 13.75 5.83008 13.75C6.22367 13.75 6.60361 13.6919 6.96289 13.5859C5.95864 12.7454 5.29044 11.518 5.18555 10.1328C4.08955 9.38499 3.30695 8.21276 3.07324 6.85254ZM12.9258 6.85254C12.692 8.21296 11.9098 9.38504 10.8135 10.1328C10.7085 11.5182 10.0407 12.7454 9.03613 13.5859C9.39567 13.692 9.776 13.75 10.1699 13.75C12.3791 13.75 14.1699 11.9591 14.1699 9.75C14.1699 8.6094 13.6917 7.58122 12.9258 6.85254ZM9.71582 10.6963C9.18055 10.8919 8.60299 11 8 11C7.39669 11 6.81871 10.8921 6.2832 10.6963C6.52765 11.7039 7.15409 12.5607 8 13.1084C8.84584 12.5608 9.47133 11.7038 9.71582 10.6963ZM8 6.39062C6.94923 7.07075 6.23645 8.22925 6.17383 9.55859C6.7214 9.84016 7.3419 10 8 10C8.65779 10 9.27781 9.83991 9.8252 9.55859C9.76256 8.22927 9.05076 7.07074 8 6.39062ZM5.83008 5.75C5.17214 5.75 4.55138 5.90899 4.00391 6.19043C4.05377 7.25437 4.52071 8.20865 5.24316 8.89648C5.44813 7.70496 6.07373 6.65707 6.96289 5.91309C6.60369 5.8072 6.22358 5.75 5.83008 5.75ZM10.1699 5.75C9.7761 5.75 9.3956 5.80703 9.03613 5.91309C9.92555 6.65707 10.5508 7.70477 10.7559 8.89648C11.4786 8.20863 11.9452 7.2546 11.9951 6.19043C11.4478 5.90924 10.8275 5.75 10.1699 5.75ZM8 2C6.11726 2 4.53875 3.30087 4.11328 5.05273C4.6487 4.85699 5.22688 4.75 5.83008 4.75C6.60761 4.75 7.34368 4.92749 8 5.24414C8.65632 4.92749 9.39239 4.75 10.1699 4.75C10.7728 4.75 11.3506 4.85719 11.8857 5.05273C11.4602 3.30098 9.88266 2 8 2Z" fill="currentColor"/>
</svg>
