<svg width="16" height="16" viewBox="0 0 16 16" fill="none" xmlns="http://www.w3.org/2000/svg">
<path fill-rule="evenodd" clip-rule="evenodd" d="M8 1.5C11.5899 1.5 14.5 4.41015 14.5 8C14.5 11.5899 11.5899 14.5 8 14.5C4.41015 14.5 1.5 11.5899 1.5 8C1.5 4.41015 4.41015 1.5 8 1.5ZM4.48047 12.2256C5.31418 12.9208 6.35646 13.3725 7.5 13.4756V11.4639C6.90682 11.379 6.36154 11.1461 5.90332 10.8027L4.48047 12.2256ZM10.0957 10.8027C9.63761 11.1458 9.09291 11.379 8.5 11.4639V13.4756C9.64328 13.3725 10.6849 12.9205 11.5186 12.2256L10.0957 10.8027ZM2.52344 8.5C2.62647 9.6431 3.07875 10.685 3.77344 11.5186L5.19629 10.0957C4.8534 9.63771 4.62093 9.0927 4.53613 8.5H2.52344ZM11.4639 8.5C11.379 9.09291 11.1458 9.63761 10.8027 10.0957L12.2256 11.5186C12.9205 10.6849 13.3735 9.64331 13.4766 8.5H11.4639ZM8 5.5C7.31312 5.5 6.69112 5.77719 6.23926 6.22559C6.23702 6.22791 6.23569 6.23111 6.2334 6.2334C6.23111 6.23569 6.22791 6.23702 6.22559 6.23926C5.77719 6.69112 5.5 7.31312 5.5 8C5.5 8.68663 5.77747 9.30795 6.22559 9.75977C6.22808 9.76215 6.23095 9.76415 6.2334 9.7666C6.23548 9.76869 6.23722 9.77132 6.23926 9.77344C6.69116 10.2221 7.31287 10.5 8 10.5C9.38071 10.5 10.5 9.38071 10.5 8C10.5 7.31287 10.2221 6.69116 9.77344 6.23926C9.77132 6.23722 9.76869 6.23548 9.7666 6.2334C9.76415 6.23095 9.76215 6.22808 9.75977 6.22559C9.30795 5.77747 8.68663 5.5 8 5.5ZM10.8027 5.90332C11.1461 6.36154 11.379 6.90682 11.4639 7.5H13.4766C13.3735 6.35642 12.9208 5.31421 12.2256 4.48047L10.8027 5.90332ZM3.77344 4.48047C3.07848 5.31413 2.62649 6.35664 2.52344 7.5H4.53613C4.62097 6.90703 4.85314 6.36144 5.19629 5.90332L3.77344 4.48047ZM7.5 2.52344C6.35664 2.62649 5.31413 3.07848 4.48047 3.77344L5.90332 5.19629C6.36148 4.85312 6.90697 4.61997 7.5 4.53516V2.52344ZM8.5 4.53516C9.09276 4.61994 9.63767 4.85337 10.0957 5.19629L11.5186 3.77344C10.685 3.07875 9.6431 2.62647 8.5 2.52344V4.53516Z" fill="black"/>
</svg>
