<svg width="16" height="16" viewBox="0 0 16 16" fill="none" xmlns="http://www.w3.org/2000/svg">
<path d="M10.5 11.5C10.7761 11.5 11 11.7239 11 12V12.0098C11 12.2859 10.7761 12.5098 10.5 12.5098C10.2239 12.5098 10 12.2859 10 12.0098V12C10 11.7239 10.2239 11.5 10.5 11.5Z" fill="currentColor"/>
<path d="M6.20703 9.08691C6.4023 8.89171 6.71882 8.89167 6.91406 9.08691C7.10881 9.2822 7.1091 9.59884 6.91406 9.79395L6.20703 10.5L6.91406 11.207C7.1088 11.4023 7.10915 11.719 6.91406 11.9141C6.71897 12.1092 6.40234 12.1088 6.20703 11.9141L5.5 11.207L4.79395 11.9141C4.59884 12.1091 4.2822 12.1088 4.08691 11.9141C3.89167 11.7188 3.89171 11.4023 4.08691 11.207L4.79297 10.5L4.08691 9.79395C3.89165 9.59868 3.89165 9.28218 4.08691 9.08691C4.28218 8.89165 4.59868 8.89165 4.79395 9.08691L5.5 9.79297L6.20703 9.08691Z" fill="currentColor"/>
<path d="M12 10C12.2761 10 12.5 10.2239 12.5 10.5C12.5 10.7761 12.2761 11 12 11H9C8.72386 11 8.5 10.7761 8.5 10.5C8.5 10.2239 8.72386 10 9 10H12Z" fill="currentColor"/>
<path d="M10.5 8.5C10.7761 8.5 11 8.72386 11 9V9.00977C11 9.28591 10.7761 9.50977 10.5 9.50977C10.2239 9.50977 10 9.28591 10 9.00977V9C10 8.72386 10.2239 8.5 10.5 8.5Z" fill="currentColor"/>
<path d="M5.5 3.5C5.77614 3.5 6 3.72386 6 4V5H7C7.27614 5 7.5 5.22386 7.5 5.5C7.5 5.77614 7.27614 6 7 6H6V7C6 7.27614 5.77614 7.5 5.5 7.5C5.22386 7.5 5 7.27614 5 7V6H4C3.72386 6 3.5 5.77614 3.5 5.5C3.5 5.22386 3.72386 5 4 5H5V4C5 3.72386 5.22386 3.5 5.5 3.5Z" fill="currentColor"/>
<path d="M12 5C12.2761 5 12.5 5.22386 12.5 5.5C12.5 5.77614 12.2761 6 12 6H9C8.72386 6 8.5 5.77614 8.5 5.5C8.5 5.22386 8.72386 5 9 5H12Z" fill="currentColor"/>
<path fill-rule="evenodd" clip-rule="evenodd" d="M12 1.5C13.3807 1.5 14.5 2.61929 14.5 4V12C14.5 13.3807 13.3807 14.5 12 14.5H4C2.61929 14.5 1.5 13.3807 1.5 12V4C1.5 2.61929 2.61929 1.5 4 1.5H12ZM4 2.5C3.17157 2.5 2.5 3.17157 2.5 4V12C2.5 12.8284 3.17157 13.5 4 13.5H12C12.8284 13.5 13.5 12.8284 13.5 12V4C13.5 3.17157 12.8284 2.5 12 2.5H4Z" fill="currentColor"/>
</svg>
