<svg width="16" height="16" viewBox="0 0 16 16" fill="none" xmlns="http://www.w3.org/2000/svg">
<path d="M7.52525 5.84233C7.61257 5.58036 7.8961 5.43861 8.15806 5.52592C8.42003 5.61325 8.56179 5.89676 8.47447 6.15874L7.8563 8.01323L8.77623 7.55327C8.95697 7.4629 9.17425 7.49037 9.32701 7.6226C9.47968 7.75511 9.5384 7.96694 9.47447 8.15874L8.47447 11.1587C8.38695 11.4204 8.10346 11.5624 7.84166 11.4751C7.57986 11.3879 7.43827 11.1042 7.52525 10.8423L8.14341 8.98784L7.22349 9.4478C7.04287 9.53794 6.82536 9.51051 6.67271 9.37846C6.52006 9.24607 6.46156 9.03405 6.52525 8.84233L7.52525 5.84233Z" fill="currentColor"/>
<path fill-rule="evenodd" clip-rule="evenodd" d="M6.69712 2.25053C7.26936 1.24692 8.72064 1.24687 9.29283 2.25053L14.4833 11.2398L14.4852 11.2437C15.0523 12.2443 14.3356 13.4898 13.1795 13.4898H2.7899C1.63385 13.4896 0.917964 12.2442 1.48521 11.2437L1.52134 11.188C1.53505 11.1699 1.55041 11.1531 1.56626 11.1373L6.69712 2.25053ZM8.42466 2.74663C8.23613 2.41466 7.75269 2.41449 7.56431 2.74663L7.56333 2.75053L2.37291 11.7398C2.35773 11.7661 2.33941 11.7904 2.32017 11.813C2.19999 12.135 2.43458 12.4896 2.7899 12.4898H13.1795C13.5632 12.4898 13.8074 12.0762 13.6151 11.7369L8.42662 2.75053L8.42466 2.74663Z" fill="currentColor"/>
</svg>
