<svg width="16" height="16" viewBox="0 0 16 16" fill="none" xmlns="http://www.w3.org/2000/svg">
<path fill-rule="evenodd" clip-rule="evenodd" d="M9.99992 5.00017C10.8261 5.00017 11.4999 5.67403 11.4999 6.50017C11.4998 7.32622 10.826 8.00017 9.99992 8.00017H9.49992V9.00017C9.49981 9.27622 9.276 9.50017 8.99992 9.50017C8.72388 9.50013 8.50003 9.2762 8.49992 9.00017V8.00017H7.49992V9.00017C7.49981 9.27622 7.276 9.50017 6.99992 9.50017C6.72388 9.50013 6.50003 9.2762 6.49992 9.00017V8.00017H5.99992C5.17388 8.00013 4.50003 7.3262 4.49992 6.50017C4.49992 5.67405 5.17381 5.00021 5.99992 5.00017C6.82606 5.00017 7.49992 5.67403 7.49992 6.50017V7.00017H8.49992V6.50017C8.49992 5.67405 9.17381 5.00021 9.99992 5.00017ZM5.99992 6.00017C5.7261 6.00021 5.49992 6.22634 5.49992 6.50017C5.50003 6.77391 5.72616 7.00013 5.99992 7.00017H6.49992V6.50017C6.49992 6.22631 6.27378 6.00017 5.99992 6.00017ZM9.99992 6.00017C9.7261 6.00021 9.49992 6.22634 9.49992 6.50017V7.00017H9.99992C10.2737 7.00017 10.4998 6.77394 10.4999 6.50017C10.4999 6.22631 10.2738 6.00017 9.99992 6.00017Z" fill="black"/>
<path fill-rule="evenodd" clip-rule="evenodd" d="M6.81828 1.12126C10.3636 0.385909 13.4998 3.07843 13.4999 6.50017C13.4999 6.53574 13.4935 6.57079 13.4862 6.60466C13.4433 8.69408 12.2314 10.492 10.4892 11.384V12.3957C10.4963 12.4293 10.4999 12.4644 10.4999 12.5002C10.4999 12.5357 10.4962 12.5703 10.4892 12.6037V13.4904C10.4889 14.3163 9.81518 14.9904 8.98918 14.9904H6.98918C6.16355 14.99 5.48942 14.3161 5.48918 13.4904V11.3849C3.45023 10.3409 2.13696 8.06155 2.57707 5.52458C2.95186 3.35481 4.65618 1.57373 6.81828 1.12126ZM6.48918 13.0002V13.4904C6.48942 13.7638 6.71583 13.99 6.98918 13.9904H8.98918C9.26289 13.9904 9.48894 13.7641 9.48918 13.4904V13.0002H6.48918ZM12.497 6.40544C12.4398 3.65269 9.90281 1.50137 7.02141 2.0988C5.37421 2.4437 4.04428 3.7479 3.63273 5.36736L3.56242 5.69548C3.18427 7.87553 4.37917 9.81946 6.19035 10.6125C6.37218 10.6922 6.48918 10.8719 6.48918 11.0705V12.0002H9.48918V11.0705C9.48918 10.8721 9.60739 10.6923 9.78898 10.6125C11.3744 9.91885 12.489 8.33346 12.4892 6.4904C12.4892 6.46176 12.4923 6.43305 12.497 6.40544Z" fill="black"/>
</svg>
