<svg width="16" height="16" viewBox="0 0 16 16" fill="none" xmlns="http://www.w3.org/2000/svg">
<path fill-rule="evenodd" clip-rule="evenodd" d="M7.07056 2.50488C7.23156 2.52779 7.37347 2.62828 7.44751 2.77637L7.99927 3.88086L8.55298 2.77637L8.58911 2.71582C8.68157 2.58211 8.83474 2.50006 9.00025 2.5H14.0002L14.0647 2.50391C14.2126 2.5232 14.3464 2.60852 14.426 2.7373C14.5168 2.88448 14.5247 3.06889 14.4475 3.22363L11.2336 9.66016C11.4049 10.0729 11.5002 10.5253 11.5002 11C11.5002 12.9329 9.93313 14.4999 8.00025 14.5C6.06725 14.5 4.50025 12.933 4.50025 11C4.50025 10.5247 4.59426 10.0714 4.76587 9.6582L1.55298 3.22363C1.4756 3.06865 1.48433 2.88464 1.57544 2.7373C1.66657 2.59003 1.82705 2.5 2.00025 2.5H7.00025L7.07056 2.50488ZM8.00025 8.5C6.61953 8.5 5.50025 9.61929 5.50025 11C5.50025 12.3807 6.61953 13.5 8.00025 13.5C9.38085 13.4999 10.5002 12.3806 10.5002 11C10.5002 9.61937 9.38085 8.50013 8.00025 8.5ZM7.27075 7.57617C7.50598 7.52632 7.75016 7.5 8.00025 7.5C9.03778 7.50007 9.96971 7.95171 10.6106 8.66895L13.1917 3.5H9.30982L7.27075 7.57617ZM5.38892 8.66895C5.51592 8.52678 5.65455 8.39523 5.80298 8.27539L7.44068 4.99902L6.69165 3.5H2.80884L5.38892 8.66895Z" fill="black"/>
</svg>
