<svg width="16" height="16" viewBox="0 0 16 16" fill="none" xmlns="http://www.w3.org/2000/svg">
<path d="M7.99997 2.5C8.1756 2.5 8.33832 2.59256 8.42868 2.74316L11.1425 7.2666L14.7002 4.59961C14.8606 4.47946 15.0775 4.46678 15.2509 4.56738C15.4245 4.66809 15.521 4.86341 15.4961 5.0625L14.4961 13.0625C14.4646 13.3125 14.252 13.5 14 13.5H1.99997C1.74797 13.5 1.53537 13.3125 1.50388 13.0625L0.503877 5.0625C0.478991 4.86341 0.575462 4.66809 0.748994 4.56738C0.922403 4.46678 1.13932 4.47946 1.29977 4.59961L4.85642 7.2666L7.57126 2.74316L7.60837 2.68945C7.70245 2.57078 7.84619 2.5 7.99997 2.5ZM5.42868 8.25684C5.35585 8.37822 5.23459 8.46302 5.09567 8.49023C4.95698 8.51731 4.81328 8.48509 4.70017 8.40039L1.64157 6.10645L2.44138 12.5H13.5586L14.3574 6.10645L11.2998 8.40039C11.1867 8.48509 11.043 8.51731 10.9043 8.49023C10.7653 8.46302 10.6441 8.37822 10.5713 8.25684L7.99997 3.9707L5.42868 8.25684Z" fill="currentColor"/>
</svg>
