<svg width="16" height="16" viewBox="0 0 16 16" fill="none" xmlns="http://www.w3.org/2000/svg">
<path d="M12.6466 2.64653C12.8419 2.45134 13.1584 2.45129 13.3536 2.64653C13.5487 2.84178 13.5488 3.15835 13.3536 3.35356L12.5206 4.18657C13.1633 4.58447 13.7784 5.07131 14.3536 5.64653C14.5487 5.84175 14.5487 6.15834 14.3536 6.35356C14.1584 6.54862 13.8418 6.54862 13.6466 6.35356C13.0634 5.77033 12.4389 5.29274 11.7902 4.91606L10.42 6.28423C11.1087 6.60122 11.7629 7.0558 12.3536 7.64653C12.5487 7.84179 12.5488 8.15834 12.3536 8.35356C12.1584 8.54876 11.8419 8.54868 11.6466 8.35356C11.0356 7.74262 10.3592 7.30865 9.65735 7.04692L8.08117 8.62407C8.90357 8.64585 9.70416 8.99712 10.3536 9.64653C10.5486 9.8417 10.5485 10.1583 10.3536 10.3536C10.1584 10.5485 9.84181 10.5485 9.6466 10.3536C9.14756 9.85458 8.56414 9.62217 8.00012 9.62212C7.43612 9.62212 6.85269 9.85466 6.35364 10.3536L4.35364 12.3536C4.15842 12.5488 3.84188 12.5487 3.6466 12.3536C3.45134 12.1583 3.45134 11.8418 3.6466 11.6465L8.51672 6.77446C8.34452 6.75517 8.17218 6.74517 8.00012 6.74517C6.72852 6.74517 5.43775 7.26948 4.35364 8.35356C4.15842 8.54876 3.84187 8.54868 3.6466 8.35356C3.45141 8.1583 3.45138 7.84178 3.6466 7.64653C4.90246 6.3907 6.44177 5.74517 8.00012 5.74517C8.46279 5.74518 8.92371 5.8022 9.3761 5.91509L10.8458 4.44634C9.9189 4.05991 8.95752 3.86726 8.00012 3.86724C6.02107 3.86724 4.02273 4.68456 2.35364 6.35356C2.15841 6.54862 1.84183 6.54862 1.6466 6.35356C1.45141 6.15835 1.4515 5.8418 1.6466 5.64653C3.48744 3.80579 5.73432 2.86724 8.00012 2.86724C9.22735 2.86726 10.4481 3.14463 11.6027 3.6895L12.6466 2.64653Z" fill="black"/>
<path d="M8.00012 11.5C8.27618 11.5001 8.50012 11.724 8.50012 12C8.5001 12.2761 8.27617 12.5 8.00012 12.5C7.72399 12.5 7.50014 12.2762 7.50012 12C7.50012 11.7239 7.72398 11.5 8.00012 11.5Z" fill="black"/>
</svg>
