<svg width="16" height="16" viewBox="0 0 16 16" fill="none" xmlns="http://www.w3.org/2000/svg">
<path fill-rule="evenodd" clip-rule="evenodd" d="M10.1005 1.5C10.8509 1.50018 11.525 1.97346 11.7646 2.69141L13.2753 7.23242C13.4575 7.76941 13.3555 8.35446 13.0361 8.7998L13.037 8.80078L8.43645 15.2383C8.35157 15.3934 8.18924 15.5 7.99992 15.5C7.80809 15.5 7.64333 15.391 7.55949 15.2324L2.96379 8.80078L2.95988 8.7959C2.64591 8.3453 2.54224 7.77026 2.72746 7.22852L4.23625 2.69238C4.47586 1.9744 5.14983 1.50007 5.90031 1.5H10.1005ZM5.90031 2.5C5.61251 2.50006 5.35802 2.65818 5.23137 2.89941L5.18449 3.00781L3.67473 7.54785L3.67375 7.55176C3.5992 7.76967 3.63464 8.01446 3.7802 8.22363L7.49992 13.4297V8.41211C6.91776 8.20595 6.49992 7.6528 6.49992 7C6.49992 6.17159 7.17152 5.50002 7.99992 5.5C8.82835 5.5 9.49992 6.17157 9.49992 7C9.49992 7.65283 9.08212 8.20598 8.49992 8.41211V13.4297L12.2236 8.21973L12.2245 8.21777C12.3632 8.02454 12.4027 7.77289 12.3271 7.55176L12.3261 7.54785L10.8163 3.00781C10.7158 2.70643 10.4295 2.50018 10.1005 2.5H5.90031ZM7.99992 6.5C7.7238 6.50002 7.49992 6.72387 7.49992 7C7.49992 7.27613 7.7238 7.49998 7.99992 7.5C8.27606 7.5 8.49992 7.27614 8.49992 7C8.49992 6.72386 8.27606 6.5 7.99992 6.5Z" fill="black"/>
</svg>
