<svg width="16" height="16" viewBox="0 0 16 16" fill="none" xmlns="http://www.w3.org/2000/svg">
<path fill-rule="evenodd" clip-rule="evenodd" d="M8.75718 2.23047C10.4647 1.57588 12.375 2.35569 13.1585 3.99316L13.2318 4.15722L13.2328 4.15918L13.3304 4.4248C13.724 5.64133 13.4164 6.93561 12.5902 7.83691L12.8021 8.3457L13.9212 8.80761C14.1761 8.91303 14.2978 9.20583 14.1927 9.46093L13.8431 10.3086L14.6908 10.6582C14.8133 10.7088 14.9114 10.8063 14.9623 10.9287C15.0129 11.0511 15.0129 11.1891 14.9623 11.3115L13.8822 13.9209C13.7768 14.1757 13.4848 14.2972 13.2298 14.1924L11.9203 13.6523C11.7976 13.6018 11.6997 13.5043 11.6488 13.3818L9.82651 8.98047C9.17337 8.95249 8.54172 8.73794 8.00718 8.36914C7.47077 8.7435 6.83558 8.96258 6.17319 8.99023L5.96128 9.50097L6.42222 10.6191C6.5273 10.8743 6.40581 11.1672 6.15073 11.2725L5.30308 11.6211L5.65268 12.4697C5.75757 12.7246 5.63585 13.0165 5.3812 13.1221L2.77183 14.2021C2.64944 14.2528 2.51139 14.2527 2.38901 14.2021C2.26654 14.1513 2.16912 14.0532 2.1185 13.9307L1.57847 12.6211C1.5281 12.4989 1.52799 12.3614 1.57847 12.2393L3.40073 7.83691C2.51382 6.8696 2.2249 5.4497 2.75815 4.15918L2.75913 4.15722C3.49984 2.38655 5.52006 1.5328 7.30015 2.25683C7.31419 2.26123 7.32949 2.26286 7.34311 2.26855C7.57598 2.36598 7.79287 2.48577 7.99253 2.62402C8.19627 2.48141 8.41891 2.35862 8.65757 2.25879C8.68977 2.24537 8.7236 2.23686 8.75718 2.23047ZM6.94761 3.1914C5.67649 2.65969 4.21771 3.26346 3.68198 4.54004L3.68296 4.54101C3.26562 5.55098 3.54912 6.66414 4.32065 7.34472C4.48068 7.48598 4.534 7.71386 4.45249 7.91113L2.58042 12.4297L2.85093 13.0869L4.53745 12.3887L4.18784 11.541C4.13732 11.4185 4.13793 11.2806 4.18882 11.1582C4.23978 11.0358 4.33772 10.9382 4.4603 10.8877L5.30698 10.5381L4.95835 9.69043C4.90796 9.56808 4.90768 9.43081 4.95835 9.30859L5.37827 8.29785C5.46037 8.10061 5.65921 7.97752 5.87241 7.99121C6.36222 8.02275 6.84173 7.90331 7.2562 7.66308C7.06047 7.41526 6.89449 7.1373 6.76792 6.83105L6.7689 6.83008C6.26413 5.62063 6.49168 4.29595 7.24351 3.33496C7.15748 3.28553 7.06846 3.23916 6.97495 3.19922C6.96613 3.19611 6.95628 3.19496 6.94761 3.1914ZM12.308 4.54004C11.7722 3.26377 10.3143 2.66001 9.04331 3.1914C9.02147 3.20053 8.99848 3.20702 8.97593 3.21289C8.89637 3.2489 8.81942 3.28904 8.74546 3.33203C9.50549 4.29405 9.73876 5.6249 9.23179 6.83984L9.23276 6.84082C9.10859 7.14131 8.94554 7.41385 8.75522 7.6582C9.16894 7.89537 9.64604 8.01281 10.1283 7.98144L10.2074 7.98242C10.3895 7.9997 10.5508 8.11613 10.6224 8.28906L12.4925 12.8066L13.1488 13.0771L13.847 11.3906L13.0003 11.042C12.8779 10.9915 12.7799 10.8947 12.7289 10.7725C12.6779 10.6501 12.6774 10.5122 12.7279 10.3896L13.0765 9.54101L12.2298 9.19238C12.1073 9.14185 12.0093 9.04422 11.9583 8.92187L11.5384 7.91211C11.4564 7.71457 11.5098 7.4862 11.6703 7.34472C12.4415 6.66418 12.7251 5.54983 12.308 4.54004ZM7.99643 4.00097C7.53483 4.61944 7.37006 5.43344 7.60483 6.20703L7.69175 6.44726L7.69272 6.44922C7.77505 6.64838 7.88087 6.83046 8.00425 6.99511C8.12389 6.83302 8.22727 6.65426 8.30796 6.45898L8.30893 6.45703C8.66253 5.61158 8.51138 4.68519 7.99643 4.00097Z" fill="currentColor"/>
</svg>
