<svg width="16" height="16" viewBox="0 0 16 16" fill="none" xmlns="http://www.w3.org/2000/svg">
<path fill-rule="evenodd" clip-rule="evenodd" d="M12.6465 2.64657C12.8417 2.45131 13.1583 2.45131 13.3535 2.64657C13.5487 2.84184 13.5488 3.15836 13.3535 3.3536L10.9443 5.7618L13.4531 4.69051L13.46 4.68758C13.9518 4.48535 14.4999 4.83657 14.5 5.37997V10.6202C14.4999 11.1645 13.9381 11.5182 13.4531 11.3087L10.5 10.047V11.0001C10.5 11.8262 9.82613 12.5001 9 12.5001H4.20703L2.35352 14.3536C2.15827 14.5488 1.84174 14.5488 1.64648 14.3536C1.45123 14.1583 1.45124 13.8418 1.64648 13.6466L2.80664 12.4854C2.07139 12.39 1.50002 11.7606 1.5 11.0001V5.00008C1.5 4.17394 2.17386 3.50008 3 3.50008H9C9.76056 3.50008 10.3899 4.07145 10.4854 4.80673L12.6465 2.64657ZM10.1963 7.17001C10.0419 7.2359 9.86472 7.21952 9.72461 7.12704C9.69547 7.10779 9.66957 7.08493 9.64551 7.06063L5.20703 11.5001H9C9.27384 11.5001 9.49998 11.2739 9.5 11.0001V9.29012C9.5 9.12219 9.58449 8.96568 9.72461 8.87313C9.86473 8.78064 10.0419 8.76426 10.1963 8.83016L13.5 10.2423V5.75692L10.1963 7.17001ZM3 4.50008C2.72614 4.50008 2.5 4.72623 2.5 5.00008V11.0001C2.50002 11.2739 2.72616 11.5001 3 11.5001H3.79297L9.5 5.79305V5.00008C9.5 4.72623 9.27386 4.50008 9 4.50008H3Z" fill="currentColor"/>
</svg>
