<svg width="16" height="16" viewBox="0 0 16 16" fill="none" xmlns="http://www.w3.org/2000/svg">
<path fill-rule="evenodd" clip-rule="evenodd" d="M8.00008 1.5C9.38078 1.50002 10.5001 2.6193 10.5001 4V4.79297L12.6466 2.64648C12.8418 2.45124 13.1583 2.45123 13.3536 2.64648C13.5488 2.84174 13.5488 3.15827 13.3536 3.35352L10.5001 6.20703V8C10.5001 9.3807 9.38078 10.5 8.00008 10.5C7.49033 10.5 7.0165 10.3469 6.62118 10.085L5.9034 10.8027C6.48773 11.2404 7.21336 11.5 8.00008 11.5C9.93392 11.5 11.5001 9.93385 11.5001 8C11.5001 7.72386 11.7239 7.5 12.0001 7.5C12.2762 7.50002 12.5001 7.72387 12.5001 8C12.5001 10.317 10.7506 12.222 8.50008 12.4707V13.5H10.0001C10.2762 13.5 10.5001 13.7239 10.5001 14C10.5001 14.2761 10.2762 14.5 10.0001 14.5H6.00008C5.72394 14.5 5.50008 14.2761 5.50008 14C5.50008 13.7239 5.72394 13.5 6.00008 13.5H7.50008V12.4707C6.63177 12.3748 5.83889 12.0326 5.19149 11.5146L3.3536 13.3535C3.15836 13.5488 2.84184 13.5487 2.64657 13.3535C2.45131 13.1583 2.45131 12.8417 2.64657 12.6465L4.48446 10.8076C3.86908 10.0379 3.50008 9.06257 3.50008 8C3.50008 7.72386 3.72394 7.5 4.00008 7.5C4.27621 7.50002 4.50008 7.72387 4.50008 8C4.50008 8.78625 4.75915 9.51156 5.19637 10.0957L5.91415 9.37793C5.65262 8.98283 5.50008 8.50929 5.50008 8V4C5.50008 2.61929 6.61937 1.5 8.00008 1.5ZM7.35458 9.35156C7.55036 9.44523 7.76856 9.5 8.00008 9.5C8.82849 9.49998 9.50008 8.82841 9.50008 8V7.20703L7.35458 9.35156ZM8.00008 2.5C7.17166 2.5 6.50008 3.17157 6.50008 4V8C6.50008 8.23108 6.55421 8.44903 6.64755 8.64453L9.50008 5.79297V4C9.50008 3.17159 8.82849 2.50002 8.00008 2.5Z" fill="currentColor"/>
</svg>
