<svg width="16" height="16" viewBox="0 0 16 16" fill="none" xmlns="http://www.w3.org/2000/svg">
<path d="M12 9.5C12.2761 9.5 12.5 9.72386 12.5 10C12.5 10.2761 12.2761 10.5 12 10.5H10C9.72386 10.5 9.5 10.2761 9.5 10C9.5 9.72386 9.72386 9.5 10 9.5H12Z" fill="black"/>
<path d="M10 5.5C10.2761 5.5 10.5 5.72386 10.5 6C10.5 6.27614 10.2761 6.5 10 6.5H6C5.72386 6.5 5.5 6.27614 5.5 6C5.5 5.72386 5.72386 5.5 6 5.5H10Z" fill="black"/>
<path d="M10 3.5C10.2761 3.5 10.5 3.72386 10.5 4C10.5 4.27614 10.2761 4.5 10 4.5H6C5.72386 4.5 5.5 4.27614 5.5 4C5.5 3.72386 5.72386 3.5 6 3.5H10Z" fill="black"/>
<path fill-rule="evenodd" clip-rule="evenodd" d="M11 1.5C11.8261 1.5 12.5 2.17386 12.5 3V7.5H13C13.8284 7.5 14.5 8.17157 14.5 9V11C14.5 11.8284 13.8284 12.5 13 12.5H12.5V13C12.5 13.8261 11.8261 14.5 11 14.5H5C4.17386 14.5 3.5 13.8261 3.5 13V12.5H3C2.17157 12.5 1.5 11.8284 1.5 11V9C1.5 8.17157 2.17157 7.5 3 7.5H3.5V3C3.5 2.17386 4.17386 1.5 5 1.5H11ZM4.5 13C4.5 13.2739 4.72614 13.5 5 13.5H11C11.2739 13.5 11.5 13.2739 11.5 13V12.5H4.5V13ZM3 8.5C2.72386 8.5 2.5 8.72386 2.5 9V11C2.5 11.2761 2.72386 11.5 3 11.5H13C13.2761 11.5 13.5 11.2761 13.5 11V9C13.5 8.72386 13.2761 8.5 13 8.5H3ZM5 2.5C4.72614 2.5 4.5 2.72614 4.5 3V7.5H11.5V3C11.5 2.72614 11.2739 2.5 11 2.5H5Z" fill="black"/>
</svg>
