<svg width="16" height="16" viewBox="0 0 16 16" fill="none" xmlns="http://www.w3.org/2000/svg">
<path fill-rule="evenodd" clip-rule="evenodd" d="M11 1.51953C11.2761 1.51953 11.5 1.74437 11.5 2.02051V5.19043C11.4999 5.85567 11.2353 6.48248 10.7637 6.9541L9.70703 8.01074L10.7588 9.0625L10.9277 9.24512C11.2987 9.68904 11.4999 10.2514 11.5 10.8301V14.001C11.4998 14.0882 11.4749 14.1689 11.4355 14.2402C11.4134 14.2804 11.3876 14.3195 11.3535 14.3535C11.3195 14.3876 11.2804 14.4134 11.2402 14.4355C11.1959 14.4601 11.1489 14.4801 11.0977 14.4902C11.0867 14.4924 11.0755 14.4917 11.0645 14.4932C11.0432 14.4959 11.022 14.501 11 14.501H5C4.97769 14.501 4.95611 14.496 4.93457 14.4932C4.92357 14.4917 4.91227 14.4924 4.90137 14.4902C4.85021 14.48 4.80301 14.4602 4.75879 14.4355C4.71891 14.4134 4.68034 14.3874 4.64648 14.3535C4.60763 14.3147 4.57808 14.2702 4.55469 14.2236C4.54921 14.2127 4.54179 14.2027 4.53711 14.1914C4.53071 14.1759 4.52724 14.1595 4.52246 14.1436C4.50887 14.0982 4.50009 14.0507 4.5 14.001V10.8301C4.50011 10.165 4.76501 9.53897 5.23633 9.06738L6.29297 8.01074L5.23633 6.9541C4.76078 6.48824 4.50013 5.8494 4.5 5.19043V2.02051C4.5 1.74437 4.72386 1.51953 5 1.51953H11ZM6.20605 13.501H9.79395L8 11.707L6.20605 13.501ZM5.5332 5.5C5.59272 5.78139 5.73184 6.0409 5.93848 6.24219L7.35352 7.65723C7.44705 7.75096 7.5 7.87831 7.5 8.01074C7.49981 8.14309 7.44711 8.27066 7.35352 8.36426L5.94336 9.77441C5.65554 10.0625 5.50011 10.4359 5.5 10.8301V12.793L7.64648 10.6465L7.72461 10.582C7.91869 10.4539 8.18265 10.4756 8.35352 10.6465L10.5 12.793V10.8301C10.4999 10.4319 10.3422 10.0518 10.0615 9.77832L10.0566 9.77441L8.64648 8.36426C8.55289 8.27066 8.50019 8.14309 8.5 8.01074C8.5 7.87831 8.55295 7.75096 8.64648 7.65723L10.0566 6.24707C10.268 6.03573 10.4073 5.77779 10.4668 5.5H5.5332ZM5.5 4.5H10.5V2.52051H5.5V4.5Z" fill="currentColor"/>
</svg>
