<svg width="16" height="16" viewBox="0 0 16 16" fill="none" xmlns="http://www.w3.org/2000/svg">
<path fill-rule="evenodd" clip-rule="evenodd" d="M9.22692 3.23877C10.2032 2.26257 11.7868 2.2625 12.7631 3.23877C13.739 4.21498 13.7389 5.79768 12.7631 6.77393L11.766 7.771C10.9103 8.62665 9.58837 8.73255 8.61755 8.08838L8.07946 8.62647C8.72399 9.5972 8.61851 10.919 7.76306 11.7749L6.76599 12.772C5.78967 13.7483 4.20616 13.7483 3.22985 12.772C2.25384 11.7957 2.25373 10.2131 3.22985 9.23682L4.22692 8.23975C5.08154 7.38523 6.40099 7.2789 7.37145 7.92041L7.91052 7.38135C7.26839 6.41085 7.37515 5.0907 8.22985 4.23584L9.22692 3.23877ZM6.63806 8.65381C6.08101 8.3892 5.39498 8.48584 4.93395 8.94678L3.93688 9.94385C3.35129 10.5296 3.35139 11.4792 3.93688 12.0649C4.52264 12.6507 5.47218 12.6506 6.05798 12.0649L7.05602 11.0679C7.51795 10.6056 7.61333 9.91759 7.34606 9.35986L6.35388 10.353C6.15861 10.5483 5.84211 10.5483 5.64684 10.353C5.45168 10.1578 5.45161 9.84123 5.64684 9.646L6.63806 8.65381ZM12.056 3.9458C11.4703 3.36005 10.5197 3.36012 9.93395 3.9458L8.93688 4.94287C8.47572 5.40418 8.37869 6.09078 8.64392 6.64795L9.64684 5.646C9.84211 5.45115 10.1587 5.45096 10.3539 5.646C10.549 5.84113 10.5488 6.15774 10.3539 6.35303L9.35095 7.35498C9.90862 7.62189 10.5959 7.52591 11.058 7.06397L12.056 6.0669C12.6413 5.48118 12.6414 4.53149 12.056 3.9458Z" fill="black"/>
</svg>
