<svg width="16" height="16" viewBox="0 0 16 16" fill="none" xmlns="http://www.w3.org/2000/svg">
<path d="M8 10.5C8.27614 10.5 8.5 10.7239 8.5 11C8.5 11.2761 8.27614 11.5 8 11.5C7.72386 11.5 7.5 11.2761 7.5 11C7.5 10.7239 7.72386 10.5 8 10.5Z" fill="currentColor"/>
<path d="M8 5.00977C9.10606 5.00977 9.99987 5.90374 10 7.00977V7.01953C10 7.81323 9.44617 8.45147 8.79004 8.72168L8.78613 8.72363L8.53613 8.82422L8.52832 8.82715C8.52564 8.82817 8.51863 8.83174 8.51172 8.8418C8.50461 8.85239 8.50005 8.86638 8.5 8.87988V9.25C8.49987 9.52603 8.27606 9.75 8 9.75C7.72394 9.75 7.50013 9.52603 7.5 9.25V8.87988C7.5001 8.45524 7.7557 8.05493 8.16406 7.89551L8.40918 7.79688C8.72754 7.66576 8.94098 7.40357 8.98926 7.13477L9 7.01953V7.00977C8.99987 6.45602 8.55378 6.00977 8 6.00977C7.44622 6.00977 7.00013 6.45602 7 7.00977C7 7.28591 6.77614 7.50977 6.5 7.50977C6.22386 7.50977 6 7.28591 6 7.00977C6.00013 5.90374 6.89394 5.00977 8 5.00977Z" fill="currentColor"/>
<path fill-rule="evenodd" clip-rule="evenodd" d="M8 1.5C11.5899 1.5 14.5 4.41015 14.5 8C14.5 11.5899 11.5899 14.5 8 14.5C4.41015 14.5 1.5 11.5899 1.5 8C1.5 4.41015 4.41015 1.5 8 1.5ZM8 2.5C4.96243 2.5 2.5 4.96243 2.5 8C2.5 11.0376 4.96243 13.5 8 13.5C11.0376 13.5 13.5 11.0376 13.5 8C13.5 4.96243 11.0376 2.5 8 2.5Z" fill="currentColor"/>
</svg>
