<svg width="16" height="16" viewBox="0 0 16 16" fill="none" xmlns="http://www.w3.org/2000/svg">
<path d="M8 13.5C8.27614 13.5 8.5 13.7239 8.5 14V15C8.5 15.2761 8.27614 15.5 8 15.5C7.72386 15.5 7.5 15.2761 7.5 15V14C7.5 13.7239 7.72386 13.5 8 13.5Z" fill="currentColor"/>
<path d="M3.40625 11.8867C3.6015 11.6915 3.91802 11.6915 4.11328 11.8867C4.30854 12.082 4.30855 12.3985 4.11328 12.5938L3.40332 13.3037C3.20804 13.4988 2.89149 13.4989 2.69629 13.3037C2.50112 13.1085 2.50122 12.7919 2.69629 12.5967L3.40625 11.8867Z" fill="currentColor"/>
<path d="M11.8867 11.8867C12.082 11.6915 12.3985 11.6915 12.5938 11.8867L13.3037 12.5967C13.4987 12.792 13.4989 13.1085 13.3037 13.3037C13.1085 13.4989 12.792 13.4987 12.5967 13.3037L11.8867 12.5938C11.6915 12.3985 11.6915 12.082 11.8867 11.8867Z" fill="currentColor"/>
<path d="M8 6C8.27614 6 8.5 6.22386 8.5 6.5V7.5H9.5C9.77614 7.5 10 7.72386 10 8C10 8.27614 9.77614 8.5 9.5 8.5H8.5V9.5C8.5 9.77614 8.27614 10 8 10C7.72386 10 7.5 9.77614 7.5 9.5V8.5H6.5C6.22386 8.5 6 8.27614 6 8C6 7.72386 6.22386 7.5 6.5 7.5H7.5V6.5C7.5 6.22386 7.72386 6 8 6Z" fill="currentColor"/>
<path fill-rule="evenodd" clip-rule="evenodd" d="M8 3.5C10.4853 3.5 12.5 5.51472 12.5 8C12.5 10.4853 10.4853 12.5 8 12.5C5.51472 12.5 3.5 10.4853 3.5 8C3.5 5.51472 5.51472 3.5 8 3.5ZM8 4.5C6.067 4.5 4.5 6.067 4.5 8C4.5 9.933 6.067 11.5 8 11.5C9.933 11.5 11.5 9.933 11.5 8C11.5 6.067 9.933 4.5 8 4.5Z" fill="currentColor"/>
<path d="M2 7.5C2.27614 7.5 2.5 7.72386 2.5 8C2.5 8.27614 2.27614 8.5 2 8.5H1C0.723858 8.5 0.5 8.27614 0.5 8C0.5 7.72386 0.723858 7.5 1 7.5H2Z" fill="currentColor"/>
<path d="M15 7.5C15.2761 7.5 15.5 7.72386 15.5 8C15.5 8.27614 15.2761 8.5 15 8.5H14C13.7239 8.5 13.5 8.27614 13.5 8C13.5 7.72386 13.7239 7.5 14 7.5H15Z" fill="currentColor"/>
<path d="M2.69629 2.69629C2.89148 2.5011 3.20804 2.50124 3.40332 2.69629L4.11328 3.40625C4.30855 3.60151 4.30854 3.91802 4.11328 4.11328C3.91802 4.30853 3.60151 4.30853 3.40625 4.11328L2.69629 3.40332C2.50123 3.20804 2.5011 2.89148 2.69629 2.69629Z" fill="currentColor"/>
<path d="M12.5967 2.69629C12.792 2.50128 13.1085 2.50114 13.3037 2.69629C13.4988 2.89148 13.4987 3.20806 13.3037 3.40332L12.5938 4.11328C12.3985 4.30852 12.082 4.3085 11.8867 4.11328C11.6915 3.91801 11.6915 3.6015 11.8867 3.40625L12.5967 2.69629Z" fill="currentColor"/>
<path d="M8 0.5C8.27614 0.5 8.5 0.723858 8.5 1V2C8.5 2.27614 8.27614 2.5 8 2.5C7.72386 2.5 7.5 2.27614 7.5 2V1C7.5 0.723858 7.72386 0.5 8 0.5Z" fill="currentColor"/>
</svg>
