<svg width="16" height="16" viewBox="0 0 16 16" fill="none" xmlns="http://www.w3.org/2000/svg">
<path d="M2.07374 4.00398C3.35812 2.34117 5.64428 2.04197 7.27784 3.13484C7.45891 3.25607 7.54082 3.48027 7.47999 3.68953L6.5962 6.72957L8.22315 7.54304C8.39255 7.62774 8.49952 7.80092 8.49952 7.99031V8.33894L9.26905 7.18367L7.77589 6.43757C7.64764 6.37339 7.55288 6.25686 7.51612 6.11824C7.47939 5.97946 7.50466 5.83131 7.58448 5.71199L9.4839 2.87214C9.54908 2.77472 9.6468 2.70295 9.75929 2.67C11.2138 2.24482 12.8766 2.6646 13.9165 3.99129C13.9398 4.01252 13.9617 4.03565 13.981 4.0616C15.1548 5.64215 14.8591 7.83777 13.5034 9.19343L8.35304 14.3438C8.2593 14.4374 8.13195 14.4903 7.99952 14.4903C7.86705 14.4902 7.73968 14.4375 7.64601 14.3438L2.50636 9.2032C1.14087 7.83757 0.841573 5.58681 2.07374 4.00398ZM6.40968 3.78718C5.23716 3.20428 3.74172 3.48145 2.86573 4.61531L2.86476 4.61726C1.97859 5.75423 2.15964 7.44228 3.21339 8.49617L7.99952 13.2823L12.7964 8.4864C13.8284 7.45437 14.0178 5.83788 13.2056 4.70027C13.1964 4.6899 13.1866 4.67929 13.1782 4.66804C12.4515 3.69132 11.2812 3.33952 10.2095 3.58601L8.72999 5.79597L10.2232 6.54304C10.3513 6.60714 10.4461 6.72291 10.4829 6.8614C10.5197 7.00001 10.4951 7.14832 10.4155 7.26765L8.41554 10.2677C8.29326 10.4507 8.06569 10.5326 7.85499 10.4688C7.64422 10.405 7.49968 10.2105 7.49952 9.99031V8.2989L5.77589 7.43757C5.56008 7.32957 5.45276 7.08242 5.52003 6.85066L6.40968 3.78718Z" fill="black"/>
</svg>
