<svg width="16" height="16" viewBox="0 0 16 16" fill="none" xmlns="http://www.w3.org/2000/svg">
<path fill-rule="evenodd" clip-rule="evenodd" d="M8.00008 1.5C9.10464 1.50002 10.0001 2.39544 10.0001 3.5C10.0001 4.43161 9.36226 5.21127 8.50008 5.43359V7.5H9.00008C9.27621 7.50002 9.50008 7.72387 9.50008 8C9.50008 8.27613 9.27621 8.49998 9.00008 8.5H8.50008V12.4707C10.2663 12.275 11.7238 11.0568 12.2686 9.4209C12.0752 9.54462 11.8156 9.52254 11.6466 9.35352C11.4513 9.15825 11.4513 8.84175 11.6466 8.64648L12.6466 7.64648L12.7247 7.58203C12.7767 7.5477 12.8338 7.52454 12.8927 7.51172C12.901 7.50989 12.9096 7.50922 12.9181 7.50781C12.9408 7.50408 12.9635 7.50157 12.9864 7.50098C12.9909 7.50085 12.9955 7.5 13.0001 7.5C13.0053 7.5 13.0105 7.50082 13.0157 7.50098C13.0363 7.50165 13.0568 7.50363 13.0772 7.50684C13.0908 7.50894 13.1041 7.51148 13.1173 7.51465C13.1342 7.51874 13.1506 7.5244 13.1671 7.53027C13.1782 7.53422 13.1895 7.53729 13.2003 7.54199C13.2161 7.54892 13.231 7.55777 13.2462 7.56641C13.2854 7.58869 13.322 7.61483 13.3536 7.64648L14.3536 8.64648C14.5488 8.84174 14.5488 9.15827 14.3536 9.35352C14.1584 9.54876 13.8418 9.54872 13.6466 9.35352L13.3897 9.09668C12.9132 11.4487 10.9351 13.2558 8.50008 13.4756V14C8.50008 14.2761 8.27621 14.5 8.00008 14.5C7.72394 14.5 7.50008 14.2761 7.50008 14V13.4756C5.06498 13.2558 3.08594 11.4488 2.60946 9.09668L2.3536 9.35352C2.15836 9.54876 1.84184 9.54872 1.64657 9.35352C1.45131 9.15825 1.45131 8.84175 1.64657 8.64648L2.64657 7.64648L2.72469 7.58203C2.77669 7.5477 2.83377 7.52454 2.89266 7.51172C2.901 7.50989 2.90956 7.50922 2.91805 7.50781C2.94076 7.50408 2.96347 7.50157 2.98641 7.50098C2.99095 7.50085 2.99552 7.5 3.00008 7.5C3.00532 7.5 3.01051 7.50082 3.01571 7.50098C3.03633 7.50165 3.0568 7.50363 3.07723 7.50684C3.09078 7.50894 3.1041 7.51148 3.11727 7.51465C3.13418 7.51874 3.15058 7.5244 3.16708 7.53027C3.17819 7.53422 3.18955 7.53729 3.20028 7.54199C3.2161 7.54892 3.231 7.55777 3.24618 7.56641C3.28536 7.58869 3.32195 7.61483 3.3536 7.64648L4.3536 8.64648C4.5488 8.84174 4.54882 9.15827 4.3536 9.35352C4.18435 9.52277 3.92407 9.54505 3.73055 9.4209C4.27536 11.0569 5.73371 12.2751 7.50008 12.4707V8.5H7.00008C6.72394 8.5 6.50008 8.27614 6.50008 8C6.50008 7.72386 6.72394 7.5 7.00008 7.5H7.50008V5.43359C6.63787 5.2113 6.00008 4.43164 6.00008 3.5C6.00008 2.39543 6.89551 1.5 8.00008 1.5ZM8.00008 2.5C7.4478 2.5 7.00008 2.94772 7.00008 3.5C7.00008 4.05228 7.4478 4.5 8.00008 4.5C8.55235 4.49998 9.00008 4.05227 9.00008 3.5C9.00008 2.94773 8.55235 2.50002 8.00008 2.5Z" fill="black"/>
</svg>
