<svg width="16" height="16" viewBox="0 0 16 16" fill="none" xmlns="http://www.w3.org/2000/svg">
<path d="M9.94653 2.35597C10.5318 1.77103 11.4785 1.77095 12.0637 2.35597L13.6536 3.94679C14.2387 4.53206 14.2388 5.47877 13.6536 6.06398L5.86353 13.854C5.76978 13.9476 5.6425 13.9995 5.51001 13.9995H2.51001C2.23387 13.9995 2.01001 13.7757 2.01001 13.4995V10.4995C2.01013 10.3671 2.06284 10.2397 2.15649 10.146L9.94653 2.35597ZM11.3567 3.06398C11.162 2.86924 10.8483 2.86924 10.6536 3.06398L3.01001 10.7075V12.9995H5.30298L12.9465 5.35597C13.1409 5.16127 13.141 4.84848 12.9465 4.65382L11.3567 3.06398Z" fill="black"/>
</svg>
