<svg width="16" height="16" viewBox="0 0 16 16" fill="none" xmlns="http://www.w3.org/2000/svg">
<path d="M6.10059 7.50977C6.32855 7.55629 6.5 7.75829 6.5 8V11.5H7C7.27614 11.5 7.5 11.7239 7.5 12C7.5 12.2761 7.27614 12.5 7 12.5H5C4.72386 12.5 4.5 12.2761 4.5 12C4.5 11.7239 4.72386 11.5 5 11.5H5.5V8.5H5C4.72386 8.5 4.5 8.27614 4.5 8C4.5 7.72386 4.72386 7.5 5 7.5H6L6.10059 7.50977Z" fill="black"/>
<path fill-rule="evenodd" clip-rule="evenodd" d="M11 7.5C11.2761 7.5 11.5 7.72386 11.5 8V12C11.5 12.2761 11.2761 12.5 11 12.5H9C8.72386 12.5 8.5 12.2761 8.5 12V8C8.5 7.72386 8.72386 7.5 9 7.5H11ZM9.5 11.5H10.5V10.5H9.5V11.5ZM9.5 9.5H10.5V8.5H9.5V9.5Z" fill="black"/>
<path fill-rule="evenodd" clip-rule="evenodd" d="M11 1.5C11.2761 1.5 11.5 1.72386 11.5 2V2.5H13C13.8284 2.5 14.5 3.17157 14.5 4V13C14.5 13.8284 13.8284 14.5 13 14.5H3C2.17157 14.5 1.5 13.8284 1.5 13V4C1.5 3.17157 2.17157 2.5 3 2.5H4.5V2C4.5 1.72386 4.72386 1.5 5 1.5C5.27614 1.5 5.5 1.72386 5.5 2V2.5H7.5V2C7.5 1.72386 7.72386 1.5 8 1.5C8.27614 1.5 8.5 1.72386 8.5 2V2.5H10.5V2C10.5 1.72386 10.7239 1.5 11 1.5ZM2.5 13C2.5 13.2761 2.72386 13.5 3 13.5H13C13.2761 13.5 13.5 13.2761 13.5 13V6.5H2.5V13ZM3 3.5C2.72386 3.5 2.5 3.72386 2.5 4V5.5H13.5V4C13.5 3.72386 13.2761 3.5 13 3.5H11.5V4C11.5 4.27614 11.2761 4.5 11 4.5C10.7239 4.5 10.5 4.27614 10.5 4V3.5H8.5V4C8.5 4.27614 8.27614 4.5 8 4.5C7.72386 4.5 7.5 4.27614 7.5 4V3.5H5.5V4C5.5 4.27614 5.27614 4.5 5 4.5C4.72386 4.5 4.5 4.27614 4.5 4V3.5H3Z" fill="black"/>
</svg>
