<svg width="16" height="16" viewBox="0 0 16 16" fill="none" xmlns="http://www.w3.org/2000/svg">
<path d="M2.69688 2.69647C2.89216 2.5015 3.20874 2.5013 3.40391 2.69647C3.59886 2.89165 3.5988 3.20828 3.40391 3.4035C0.86917 5.93823 0.86917 10.0621 3.40391 12.5969C3.59872 12.7921 3.59891 13.1088 3.40391 13.3039C3.20878 13.499 2.89216 13.4987 2.69688 13.3039C-0.228386 10.3786 -0.228386 5.62173 2.69688 2.69647Z" fill="black"/>
<path d="M12.5963 2.69647C12.7915 2.50122 13.1081 2.50126 13.3033 2.69647C16.2286 5.62173 16.2286 10.3786 13.3033 13.3039C13.1081 13.4989 12.7915 13.4989 12.5963 13.3039C12.4012 13.1087 12.4013 12.7921 12.5963 12.5969C15.131 10.0621 15.131 5.93823 12.5963 3.4035C12.4011 3.20823 12.4011 2.89171 12.5963 2.69647Z" fill="black"/>
<path d="M11.1861 4.11639C11.3813 3.92121 11.6979 3.92137 11.8932 4.11639C14.0384 6.26165 14.0384 9.74847 11.8932 11.8937C11.6979 12.0887 11.3813 12.0888 11.1861 11.8937C10.9912 11.6985 10.9912 11.3819 11.1861 11.1867C12.9409 9.43196 12.9409 6.57816 11.1861 4.82342C10.9911 4.62816 10.991 4.31157 11.1861 4.11639Z" fill="black"/>
<path d="M4.10703 4.10662C4.30231 3.91157 4.61887 3.91143 4.81406 4.10662C5.009 4.30184 5.00903 4.61846 4.81406 4.81365C3.05933 6.56839 3.05933 9.4222 4.81406 11.1769C5.0089 11.3722 5.00914 11.6888 4.81406 11.884C4.61894 12.0791 4.30233 12.0788 4.10703 11.884C1.96177 9.7387 1.96177 6.25188 4.10703 4.10662Z" fill="black"/>
<path d="M5.52695 5.52654C5.72224 5.33152 6.0388 5.33136 6.23399 5.52654C6.42887 5.72175 6.42891 6.03839 6.23399 6.23357C5.25925 7.20831 5.25925 8.79204 6.23399 9.76678C6.42879 9.96203 6.42898 10.2787 6.23399 10.4738C6.03886 10.6689 5.72225 10.6687 5.52695 10.4738C4.16169 9.10855 4.16169 6.89181 5.52695 5.52654Z" fill="black"/>
<path d="M9.76621 5.52654C9.96145 5.3313 10.278 5.33134 10.4732 5.52654C11.8385 6.89181 11.8385 9.10855 10.4732 10.4738C10.278 10.6688 9.9614 10.6689 9.76621 10.4738C9.57109 10.2786 9.57122 9.96204 9.76621 9.76678C10.741 8.79204 10.741 7.20831 9.76621 6.23357C9.57106 6.03835 9.57111 5.7218 9.76621 5.52654Z" fill="black"/>
<path fill-rule="evenodd" clip-rule="evenodd" d="M7.99961 6.50018C8.82804 6.50018 9.49961 7.17175 9.49961 8.00018C9.49952 8.82853 8.82798 9.50018 7.99961 9.50018C7.1714 9.49998 6.4997 8.82841 6.49961 8.00018C6.49961 7.17187 7.17135 6.50037 7.99961 6.50018ZM7.99961 7.50018C7.72363 7.50037 7.49961 7.72415 7.49961 8.00018C7.4997 8.27613 7.72368 8.49998 7.99961 8.50018C8.2757 8.50018 8.49952 8.27625 8.49961 8.00018C8.49961 7.72403 8.27575 7.50018 7.99961 7.50018Z" fill="black"/>
</svg>
