<svg width="16" height="16" viewBox="0 0 16 16" fill="none" xmlns="http://www.w3.org/2000/svg">
<path d="M8.64648 6.64648C8.84175 6.45122 9.15825 6.45122 9.35352 6.64648C9.54874 6.84175 9.54877 7.15827 9.35352 7.35352L8.70703 8L9.35352 8.64648C9.54874 8.84175 9.54877 9.15827 9.35352 9.35352C9.15827 9.54877 8.84175 9.54874 8.64648 9.35352L8 8.70703L7.35352 9.35352C7.15827 9.54877 6.84175 9.54874 6.64648 9.35352C6.45122 9.15825 6.45122 8.84175 6.64648 8.64648L7.29297 8L6.64648 7.35352C6.45122 7.15825 6.45122 6.84175 6.64648 6.64648C6.84175 6.45122 7.15825 6.45122 7.35352 6.64648L8 7.29297L8.64648 6.64648Z" fill="black"/>
<path fill-rule="evenodd" clip-rule="evenodd" d="M8.5 1.5C9.32614 1.5 10 2.17386 10 3V3.5H13C13.2761 3.5 13.5 3.72386 13.5 4C13.5 4.27614 13.2761 4.5 13 4.5H12.4375L11.5869 12.1582C11.5112 12.9303 10.8607 13.5 10.0996 13.5H5.88965C5.12061 13.4998 4.49227 12.924 4.40332 12.168V12.165L3.55273 4.5H3C2.72386 4.5 2.5 4.27614 2.5 4C2.5 3.72386 2.72386 3.5 3 3.5H6V3C6 2.17386 6.67386 1.5 7.5 1.5H8.5ZM5.39648 12.0518L5.41602 12.1465C5.48064 12.3586 5.67027 12.4998 5.88965 12.5H10.0996C10.3584 12.5 10.5683 12.3093 10.5928 12.0615V12.0547L11.4316 4.5H4.55859L5.39648 12.0518ZM7.5 2.5C7.22614 2.5 7 2.72614 7 3V3.5H9V3C9 2.72614 8.77386 2.5 8.5 2.5H7.5Z" fill="black"/>
</svg>
