<svg width="16" height="16" viewBox="0 0 16 16" fill="none" xmlns="http://www.w3.org/2000/svg">
<path fill-rule="evenodd" clip-rule="evenodd" d="M8 0.5C8.16717 0.5 8.32328 0.58356 8.41602 0.722656L10.416 3.72266C10.5183 3.87608 10.5274 4.07375 10.4404 4.23633C10.3533 4.39862 10.1842 4.5 10 4.5H8.5V11.1387L10.752 9.85547C10.8825 9.77837 10.9697 9.64836 10.9932 9.5H10C9.72386 9.5 9.5 9.27614 9.5 9V6C9.5 5.72386 9.72386 5.5 10 5.5H13C13.2761 5.5 13.5 5.72386 13.5 6V9C13.5 9.27614 13.2761 9.5 13 9.5H11.9951C11.9684 10.0065 11.6922 10.4664 11.251 10.7227L11.248 10.7246L8.5 12.29V14C8.5 14.2761 8.27614 14.5 8 14.5C7.72386 14.5 7.5 14.2761 7.5 14V13.29L4.75195 11.7246L4.74902 11.7227C4.28457 11.453 4 10.9577 4 10.4199V9.43359C3.1378 9.21129 2.5 8.43162 2.5 7.5C2.5 6.39543 3.39543 5.5 4.5 5.5C5.60457 5.5 6.5 6.39543 6.5 7.5C6.5 8.43162 5.8622 9.21129 5 9.43359V10.4199C5 10.6009 5.09438 10.7648 5.24805 10.8555L7.5 12.1387V4.5H6C5.81579 4.5 5.64665 4.39862 5.55957 4.23633C5.47256 4.07375 5.4817 3.87608 5.58398 3.72266L7.58398 0.722656L7.62207 0.672852C7.71635 0.563915 7.8539 0.500003 8 0.5ZM4.5 6.5C3.94772 6.5 3.5 6.94772 3.5 7.5C3.5 8.05228 3.94772 8.5 4.5 8.5C5.05228 8.5 5.5 8.05228 5.5 7.5C5.5 6.94772 5.05228 6.5 4.5 6.5ZM10.5 8.5H12.5V6.5H10.5V8.5ZM6.93457 3.5H9.06543L8 1.90137L6.93457 3.5Z" fill="black"/>
</svg>
