<svg width="16" height="16" viewBox="0 0 16 16" fill="none" xmlns="http://www.w3.org/2000/svg">
<path fill-rule="evenodd" clip-rule="evenodd" d="M7.0324 1.04544C7.62035 0.653474 8.38976 0.652497 8.97771 1.04446L13.3468 3.95462C14.0931 4.45267 14.0944 5.53883 13.3478 6.03665L12.6535 6.49759L13.3478 6.96439L13.4787 7.06399C14.0913 7.59536 14.0478 8.57956 13.3478 9.04642L12.6603 9.50247L13.3478 9.96439L13.4787 10.064C14.0913 10.5954 14.0478 11.5796 13.3478 12.0464L8.97771 14.9566C8.38988 15.3484 7.62027 15.3483 7.0324 14.9566L2.66325 12.0464C1.91691 11.5489 1.91599 10.4637 2.6613 9.96536L3.3488 9.50247L2.66325 9.04642C1.91691 8.54885 1.91599 7.46374 2.6613 6.96536L3.35661 6.49759L2.66325 6.03665C1.91641 5.53876 1.91646 4.45255 2.66325 3.95462L7.0324 1.04544ZM8.97771 11.9566C8.38988 12.3484 7.62027 12.3483 7.0324 11.9566L4.25017 10.1031L3.21892 10.7954L3.21794 10.7964C3.06489 10.8985 3.06484 11.1123 3.21794 11.2144L7.58708 14.1245L7.68572 14.1792C7.9213 14.2893 8.20261 14.2714 8.42302 14.1245L12.7931 11.2144L12.8429 11.1714C12.9434 11.0608 12.9267 10.8859 12.7931 10.7964L12.7912 10.7954L11.7599 10.1021L8.97771 11.9566ZM8.97771 8.94681C8.38988 9.33864 7.62027 9.33853 7.0324 8.94681L4.257 7.0972L3.21892 7.79544L3.21794 7.79642C3.06489 7.89853 3.06484 8.11231 3.21794 8.21439L4.50212 9.06985C4.5171 9.0786 4.53099 9.08879 4.54509 9.09915L7.58708 11.1245L7.68572 11.1792C7.9213 11.2893 8.20261 11.2714 8.42302 11.1245L11.4601 9.1011C11.4762 9.08903 11.4927 9.07785 11.5099 9.0679L12.7931 8.21439L12.8429 8.17142C12.9434 8.06085 12.9267 7.88586 12.7931 7.79642L12.7912 7.79544L11.7531 7.0972L8.97771 8.94681ZM8.42302 1.87649C8.17097 1.70846 7.83913 1.70846 7.58708 1.87649L3.21697 4.78567C3.06391 4.88778 3.06484 5.10255 3.21794 5.20462L7.58708 8.11478L7.68572 8.16946C7.92129 8.27949 8.20263 8.26166 8.42302 8.11478L12.7931 5.20462C12.9269 5.11533 12.9431 4.9403 12.8429 4.82962L12.7931 4.78665L8.42302 1.87649Z" fill="currentColor"/>
</svg>
