<svg width="16" height="16" viewBox="0 0 16 16" fill="none" xmlns="http://www.w3.org/2000/svg">
<path fill-rule="evenodd" clip-rule="evenodd" d="M8 10.9999C8.8284 10.9999 9.49996 11.6715 9.5 12.4999C9.5 13.3284 8.82843 13.9999 8 13.9999C7.17157 13.9999 6.5 13.3284 6.5 12.4999C6.50004 11.6715 7.1716 10.9999 8 10.9999ZM8 11.9999C7.72388 11.9999 7.50004 12.2238 7.5 12.4999C7.5 12.7761 7.72386 12.9999 8 12.9999C8.27614 12.9999 8.5 12.7761 8.5 12.4999C8.49996 12.2238 8.27612 11.9999 8 11.9999Z" fill="black"/>
<path fill-rule="evenodd" clip-rule="evenodd" d="M8.14062 2.49994L8.13965 2.50092C10.0251 2.57177 11.523 4.17995 11.5 6.05561V6.05756C11.4786 7.43351 10.6737 8.6053 9.5 9.15326V9.99994C9.4998 10.2759 9.27602 10.4999 9 10.4999H7C6.72398 10.4999 6.5002 10.2759 6.5 9.99994V8.66987C6.50016 7.77516 7.05029 6.91497 7.9502 6.63276C8.21004 6.5513 8.33162 6.44767 8.3916 6.37104C8.45156 6.29413 8.48202 6.20211 8.49121 6.08881L8.49219 6.08295L8.49316 5.97455C8.47245 5.73069 8.30172 5.5485 8.09473 5.51264L8.09375 5.51166C7.77541 5.45631 7.50024 5.70519 7.5 5.99994C7.4998 6.27592 7.27602 6.49994 7 6.49994H5C4.72398 6.49994 4.5002 6.27592 4.5 5.99994C4.50021 4.01835 6.14445 2.41824 8.14062 2.49994ZM8.09961 3.49897C6.84792 3.44774 5.78865 4.32387 5.55078 5.49994H6.58789C6.82371 4.8458 7.5064 4.39491 8.26562 4.52729L8.41211 4.55951C9.12516 4.75821 9.55089 5.45634 9.4873 6.16889L9.48828 6.16987C9.4675 6.42617 9.38829 6.72033 9.17871 6.98823C8.96878 7.25631 8.65968 7.45837 8.25 7.58686C7.81032 7.72467 7.50015 8.16496 7.5 8.66987V9.49994H8.5V8.81928C8.50029 8.60624 8.63546 8.41609 8.83691 8.34662C9.80175 8.01386 10.4833 7.11729 10.5 6.04194C10.5157 4.69903 9.43476 3.54875 8.10156 3.49897H8.09961Z" fill="black"/>
</svg>
