<svg width="16" height="16" viewBox="0 0 16 16" fill="none" xmlns="http://www.w3.org/2000/svg">
<path fill-rule="evenodd" clip-rule="evenodd" d="M9.99979 1.5C10.6542 1.50004 11.2862 1.6462 11.8494 1.90527C11.9978 1.97363 12.1037 2.11071 12.1326 2.27148C12.1614 2.43243 12.1095 2.59821 11.9939 2.71387L9.49979 5.20703V6.5H10.7928L13.2869 4.00684L13.3816 3.93164C13.4843 3.86973 13.6076 3.84656 13.7283 3.86816C13.8892 3.89708 14.0262 4.00286 14.0945 4.15137C14.3535 4.71456 14.4998 5.3456 14.4998 6C14.4998 8.48604 12.4858 10.4998 9.99979 10.5C9.46925 10.5 8.95439 10.4021 8.47831 10.2275L5.35331 13.3535C4.60808 14.0985 3.39149 14.0986 2.64628 13.3535C1.90127 12.6083 1.90127 11.3917 2.64628 10.6465L5.77225 7.51953C5.59813 7.04387 5.49979 6.52996 5.49979 6C5.49979 3.51399 7.51383 1.50021 9.99979 1.5ZM9.99979 2.5C8.06611 2.50021 6.49979 4.06627 6.49979 6C6.49979 6.50529 6.61347 6.99406 6.81424 7.43066C6.90156 7.62061 6.86134 7.84523 6.71366 7.99316L3.35331 11.3535C2.99883 11.7082 2.99883 12.2918 3.35331 12.6465C3.70799 13.001 4.29157 13.001 4.64628 12.6465L8.00663 9.28613C8.15457 9.13844 8.37918 9.09821 8.56913 9.18555C9.00566 9.38631 9.49458 9.49994 9.99979 9.5C11.9335 9.49984 13.4998 7.93376 13.4998 6C13.4998 5.75581 13.4726 5.51565 13.4226 5.2832L11.3533 7.35352C11.2596 7.44709 11.1322 7.49992 10.9998 7.5H8.99979C8.72383 7.49979 8.49979 7.27601 8.49979 7V5C8.49979 4.86748 8.55263 4.74023 8.64628 4.64648L10.7156 2.57715C10.4837 2.52735 10.2434 2.50002 9.99979 2.5Z" fill="black"/>
</svg>
