<svg width="16" height="16" viewBox="0 0 16 16" fill="none" xmlns="http://www.w3.org/2000/svg">
<path fill-rule="evenodd" clip-rule="evenodd" d="M11.3057 3.40638C11.5009 3.21117 11.8184 3.21127 12.0137 3.40638L13.4229 4.81654C13.5166 4.91029 13.5693 5.03746 13.5693 5.17005C13.5693 5.30261 13.5166 5.42984 13.4229 5.52357L8.35352 10.5939L8.35254 10.5929L6.94434 12.0118C6.85074 12.1061 6.72361 12.16 6.59082 12.1603C6.45811 12.1605 6.33023 12.1076 6.23633 12.0138L2.57617 8.35365C2.48255 8.25995 2.42975 8.13259 2.42969 8.00013C2.4297 7.86764 2.48255 7.74035 2.57617 7.64662L3.98633 6.23646L4.06445 6.17201C4.2581 6.04416 4.52145 6.06554 4.69238 6.23548L6.58887 8.12318L11.3057 3.40638ZM6.94336 9.18372C6.74852 9.37836 6.43266 9.37876 6.2373 9.1847L4.33984 7.29603L3.63672 8.00013L6.58789 10.9513L7.64453 9.88783L12.3623 5.17005L11.6592 4.46693L6.94336 9.18372Z" fill="black"/>
</svg>
