<svg width="16" height="16" viewBox="0 0 16 16" fill="none" xmlns="http://www.w3.org/2000/svg">
<path fill-rule="evenodd" clip-rule="evenodd" d="M8 3.50044C9.10457 3.50044 10 4.39587 10 5.50044C9.99977 6.60482 9.10443 7.50044 8 7.50044C6.89557 7.50044 6.00023 6.60482 6 5.50044C6 4.39587 6.89543 3.50044 8 3.50044ZM8 4.50044C7.44772 4.50044 7 4.94815 7 5.50044C7.00023 6.05253 7.44785 6.50044 8 6.50044C8.55215 6.50044 8.99977 6.05253 9 5.50044C9 4.94815 8.55228 4.50044 8 4.50044Z" fill="currentColor"/>
<path fill-rule="evenodd" clip-rule="evenodd" d="M8.20215 1.00044L8.42285 1.01509C10.6239 1.22517 12.3817 3.13278 12.4297 5.34028V5.55512C12.4077 6.25968 12.2424 6.96733 11.8799 7.57563L11.877 7.57954C11.6239 7.99446 11.1944 8.64966 10.7246 9.35786C11.7451 9.9014 12.4997 10.7826 12.5 11.8793C12.5 12.8334 11.9192 13.6388 11.1064 14.1821C10.29 14.7277 9.19031 15.0502 8 15.0502C6.81044 15.0502 5.71047 14.7306 4.89355 14.186C4.07978 13.6434 3.5 12.8377 3.5 11.8793C3.5003 10.7836 4.25336 9.90249 5.27246 9.35884C4.80308 8.65203 4.37509 7.99652 4.12207 7.57759C3.73443 6.94143 3.57031 6.17559 3.57031 5.42915C3.57074 2.9164 5.66634 0.887919 8.20215 1.00044ZM8.82324 12.1821L8.82227 12.1831C8.43046 12.7512 7.57248 12.7719 7.17773 12.1811C6.8418 11.6901 6.3419 10.954 5.83105 10.1938C4.95609 10.6273 4.50033 11.2669 4.5 11.8793C4.5 12.4008 4.81482 12.9316 5.44824 13.354C6.07883 13.7743 6.97956 14.0502 8 14.0502C9.01956 14.0502 9.9198 13.7718 10.5508 13.35C11.1854 12.9258 11.5 12.3952 11.5 11.8793C11.4997 11.2665 11.0432 10.6264 10.167 10.1928C9.65729 10.9529 9.15925 11.691 8.82324 12.1821ZM8.1582 1.99946C6.19467 1.91219 4.57074 3.48272 4.57031 5.42915C4.57031 5.9649 4.67434 6.47201 4.88184 6.88716L4.97656 7.05903L4.97852 7.06098C5.57874 8.05479 7.2154 10.4669 8 11.6137C8.78345 10.4686 10.4224 8.04437 11.0234 7.05903C11.2789 6.62828 11.4128 6.09703 11.4307 5.52387C11.4819 3.696 9.98223 2.07794 8.1582 1.99946Z" fill="currentColor"/>
</svg>
