<svg width="16" height="16" viewBox="0 0 16 16" fill="none" xmlns="http://www.w3.org/2000/svg">
<path fill-rule="evenodd" clip-rule="evenodd" d="M12 0.5C12.2761 0.5 12.5 0.723858 12.5 1C12.5 1.27614 12.2761 1.5 12 1.5H10.5V3C10.5 3.00557 10.4982 3.01107 10.498 3.0166C10.4973 3.03134 10.4953 3.0459 10.4932 3.06055C10.4827 3.14664 10.4518 3.22513 10.4033 3.29199L9.72852 4.53027L9.72559 4.53516C9.47432 4.98168 9.01916 5.27293 8.5 5.30371V6.41016C8.50012 6.59146 8.59475 6.75617 8.74902 6.84668L11.21 8.2666L11.2109 8.26758C11.6753 8.53722 11.9599 9.03262 11.96 9.57031V12.4199C11.9599 12.9576 11.6753 13.453 11.2109 13.7227L8.75 15.1416L8.75098 15.1426C8.54916 15.2597 8.32707 15.3234 8.10254 15.3389C8.06943 15.3458 8.03516 15.3496 8 15.3496C7.96451 15.3496 7.92988 15.3459 7.89648 15.3389C7.67228 15.3233 7.45055 15.2596 7.24902 15.1426L4.79004 13.7227C4.32568 13.453 4.04007 12.9576 4.04004 12.4199V9C4.04017 8.72397 4.26398 8.5 4.54004 8.5C4.66257 8.5 4.7734 8.54598 4.86035 8.61914C4.88031 8.62741 4.90071 8.63541 4.91992 8.64648L8 10.4229L10.4727 8.99609L8.25 7.71289L8.24902 7.71191C7.7848 7.44226 7.50012 6.94773 7.5 6.41016V5.30371C6.9913 5.27249 6.52664 4.98344 6.27441 4.53516L6.27148 4.53027L5.5957 3.29199C5.53617 3.2097 5.5 3.10934 5.5 3V1.5H4C3.72386 1.5 3.5 1.27614 3.5 1C3.5 0.723858 3.72386 0.5 4 0.5H12ZM5.04004 12.4199C5.04007 12.6013 5.13475 12.7659 5.28906 12.8564L7.5 14.1318V11.2891L5.04004 9.87109V12.4199ZM8.5 11.2891V14.1318L10.71 12.8564C10.8648 12.766 10.9599 12.6016 10.96 12.4199V9.87109L8.5 11.2891ZM7.14551 4.04492C7.23842 4.20997 7.41366 4.31044 7.58984 4.31055H7.89941C7.93193 4.3039 7.96552 4.29981 8 4.2998C8.03448 4.2998 8.06807 4.3039 8.10059 4.31055H8.41016C8.59358 4.31048 8.76018 4.2124 8.85449 4.04492L9.1582 3.49023H6.8418L7.14551 4.04492ZM6.5 2.49023H9.5V1.5H6.5V2.49023Z" fill="black"/>
</svg>
