<svg width="16" height="16" viewBox="0 0 16 16" fill="none" xmlns="http://www.w3.org/2000/svg">
<path fill-rule="evenodd" clip-rule="evenodd" d="M7.89844 3.20164C8.56437 2.69747 9.5 3.1858 9.5 4.00046V12.0005C9.49965 12.8147 8.56423 13.303 7.89844 12.7993L4.83398 10.5005H3C2.17401 10.5005 1.50025 9.8264 1.5 9.00046V7.00046C1.5 6.17432 2.17386 5.50046 3 5.50046H4.83301L7.89844 3.20164ZM5.2998 6.39988C5.21328 6.46473 5.10813 6.50046 5 6.50046H3C2.72614 6.50046 2.5 6.72661 2.5 7.00046V9.00046C2.50025 9.27412 2.72629 9.50046 3 9.50046H5L5.08008 9.50632C5.15939 9.51919 5.23487 9.55143 5.2998 9.60007L8.5 12.0005V4.00046L5.2998 6.39988Z" fill="black"/>
<path d="M12.9863 3.64597C13.1815 3.45098 13.4981 3.45103 13.6934 3.64597C16.0986 6.05117 16.0984 9.94773 13.6934 12.353C13.4981 12.5483 13.1816 12.5483 12.9863 12.353C12.7913 12.1577 12.7912 11.8411 12.9863 11.646C15.0009 9.63122 15.001 6.36768 12.9863 4.353C12.7913 4.15772 12.7912 3.84115 12.9863 3.64597Z" fill="black"/>
<path d="M11.6465 5.23679C11.8417 5.04153 12.1583 5.04153 12.3535 5.23679C13.8793 6.7628 13.8772 9.23876 12.3545 10.7729C12.16 10.9683 11.8433 10.9691 11.6475 10.7749C11.4518 10.5804 11.4512 10.2637 11.6455 10.0678C12.7824 8.9221 12.7802 7.07774 11.6465 5.94382C11.4513 5.7486 11.4513 5.43206 11.6465 5.23679Z" fill="black"/>
<path d="M10.2363 6.64597C10.4315 6.45098 10.7481 6.45103 10.9434 6.64597C11.6886 7.39117 11.6884 8.60773 10.9434 9.353C10.7481 9.54827 10.4316 9.54827 10.2363 9.353C10.0413 9.15772 10.0412 8.84115 10.2363 8.64597C10.5909 8.29122 10.591 7.70768 10.2363 7.353C10.0413 7.15772 10.0412 6.84115 10.2363 6.64597Z" fill="black"/>
</svg>
