<svg width="16" height="16" viewBox="0 0 16 16" fill="none" xmlns="http://www.w3.org/2000/svg">
<path fill-rule="evenodd" clip-rule="evenodd" d="M9.64656 1.64657C9.84182 1.45131 10.1583 1.45131 10.3536 1.64657L14.3536 5.64656C14.5488 5.84183 14.5488 6.15836 14.3536 6.3536C14.1584 6.54883 13.8418 6.54878 13.6466 6.3536L13.0323 5.73934L10.6378 8.60457C11.0794 9.33986 10.9862 10.3107 10.3536 10.9434L9.94343 11.3536C9.84968 11.4473 9.72246 11.5001 9.58992 11.5001C9.4574 11.5 9.33012 11.4473 9.2364 11.3536L7.295 9.41219L3.35359 13.3536C3.15835 13.5488 2.84182 13.5488 2.64656 13.3536C2.4513 13.1583 2.45132 12.8418 2.64656 12.6466L6.58797 8.70516L4.64656 6.76375C4.45133 6.56853 4.45141 6.25199 4.64656 6.05672L5.05672 5.64656C5.68913 5.01423 6.65945 4.92054 7.39461 5.36141L10.2598 2.96688L9.64656 2.3536C9.4513 2.15833 9.4513 1.84183 9.64656 1.64657ZM7.73054 6.38387C7.53196 6.54968 7.23972 6.53646 7.05672 6.3536C6.70201 5.99889 6.11849 5.99895 5.76375 6.3536L5.70711 6.41024L9.58992 10.293L9.64656 10.2364C10.0012 9.88168 10.0012 9.29816 9.64656 8.94344C9.46365 8.76045 9.45048 8.46822 9.61629 8.26961L12.3223 5.02938L10.9698 3.67684L7.73054 6.38387Z" fill="currentColor"/>
</svg>
