<svg width="16" height="16" viewBox="0 0 16 16" fill="none" xmlns="http://www.w3.org/2000/svg">
<path fill-rule="evenodd" clip-rule="evenodd" d="M7.03268 2.04541C7.62062 1.6535 8.39008 1.65249 8.978 2.04443L13.3481 4.95459C14.0477 5.42165 14.0917 6.40583 13.479 6.93701L13.3481 7.03662L11.9008 7.99951L13.3481 8.96435C14.0942 9.46239 14.0944 10.5485 13.3481 11.0464L8.978 13.9565C8.39022 14.3484 7.62057 14.3482 7.03268 13.9565L2.66354 11.0464C1.91668 10.5485 1.91668 9.46227 2.66354 8.96435L4.10593 7.99756L2.66354 7.03662C1.91668 6.53871 1.91668 5.4525 2.66354 4.95459L7.03268 2.04541ZM3.21921 9.79541L3.21823 9.79639C3.0651 9.89847 3.0651 10.1123 3.21823 10.2144L7.58737 13.1245L7.686 13.1792C7.92158 13.2892 8.20294 13.2714 8.42331 13.1245L12.7934 10.2144L12.8432 10.1714C12.9436 10.0609 12.9269 9.88587 12.7934 9.79639L10.9985 8.6001L8.978 9.94678C8.39021 10.3386 7.62057 10.3384 7.03268 9.94678L5.00729 8.59717L3.21921 9.79541ZM8.42331 2.87646C8.17129 2.70845 7.83941 2.70849 7.58737 2.87646L3.21725 5.78564C3.06413 5.88773 3.0651 6.1025 3.21823 6.20459L7.58737 9.11475L7.686 9.16943C7.92156 9.27936 8.20297 9.26163 8.42331 9.11475L12.7934 6.20459C12.9271 6.11531 12.9433 5.94025 12.8432 5.82959L12.7934 5.78662L8.42331 2.87646Z" fill="currentColor"/>
</svg>
