<svg width="16" height="16" viewBox="0 0 16 16" fill="none" xmlns="http://www.w3.org/2000/svg">
<path d="M7.99955 10.0003C8.27569 10.0003 8.49955 10.2242 8.49955 10.5003C8.49939 10.7763 8.27559 11.0003 7.99955 11.0003C7.72372 11 7.4997 10.7762 7.49955 10.5003C7.49955 10.2243 7.72363 10.0006 7.99955 10.0003Z" fill="currentColor"/>
<path d="M7.99955 5.0003C8.27569 5.0003 8.49955 5.22416 8.49955 5.5003V8.5003C8.49939 8.77631 8.27559 9.0003 7.99955 9.0003C7.72372 9.00004 7.4997 8.77615 7.49955 8.5003V5.5003C7.49955 5.22432 7.72363 5.00056 7.99955 5.0003Z" fill="currentColor"/>
<path fill-rule="evenodd" clip-rule="evenodd" d="M6.939 1.35675C7.52474 0.771009 8.4743 0.771108 9.06009 1.35675L14.647 6.94268C15.2325 7.52849 15.2327 8.47906 14.647 9.06475L9.06009 14.6507C8.47437 15.236 7.52469 15.2361 6.939 14.6507L1.35306 9.06475C0.803993 8.51568 0.769307 7.6461 1.24955 7.05694L1.35306 6.94268L6.939 1.35675ZM8.35306 2.06378C8.15779 1.86866 7.84124 1.86856 7.64603 2.06378L2.06009 7.65069L1.99564 7.72784C1.86758 7.92191 1.88927 8.1869 2.06009 8.35772L7.64603 13.9437C7.84119 14.1385 8.15786 14.1385 8.35306 13.9437L13.94 8.35772C14.135 8.16267 14.1346 7.846 13.94 7.65069L8.35306 2.06378Z" fill="currentColor"/>
</svg>
