<svg width="16" height="16" viewBox="0 0 16 16" fill="none" xmlns="http://www.w3.org/2000/svg">
<path d="M3.3973 3.39539C5.86245 0.941021 9.80236 0.863177 12.3514 3.16589L12.5936 3.39636L12.5946 3.39734C15.1281 5.94201 15.1291 10.058 12.5936 12.5936C12.3984 12.7888 12.0818 12.7887 11.8866 12.5936C11.6913 12.3984 11.6913 12.0819 11.8866 11.8866C14.0306 9.74253 14.0319 6.25876 11.8866 4.10339L11.6815 3.90906C9.5256 1.96144 6.19039 2.02531 4.10238 4.10437C1.95903 6.24878 1.9585 9.73257 4.10433 11.8876C4.29891 12.0832 4.29791 12.3998 4.10238 12.5946C3.90668 12.7891 3.59008 12.7882 3.39534 12.5927C0.861722 10.048 0.860717 5.93197 3.39632 3.39636L3.3973 3.39539Z" fill="black"/>
<path d="M4.81722 4.81531C6.58008 3.06375 9.42685 3.04866 11.1844 4.81726C12.9375 6.58161 12.9392 9.42759 11.1834 11.1835C10.9882 11.3787 10.6717 11.3785 10.4764 11.1835C10.2813 10.9882 10.2812 10.6716 10.4764 10.4764C11.8403 9.11242 11.8419 6.89796 10.4754 5.52234C9.11304 4.15145 6.89932 4.15628 5.5223 5.52429C4.1512 6.88666 4.15615 9.10033 5.52425 10.4774C5.71884 10.6733 5.71804 10.9898 5.5223 11.1844C5.32651 11.379 5.00993 11.3781 4.81527 11.1825C3.06382 9.41961 3.04861 6.57282 4.81722 4.81531Z" fill="black"/>
<path d="M6.2264 6.22644C7.20167 5.25127 8.78827 5.25122 9.76351 6.22644C10.7387 7.20168 10.7387 8.78831 9.76351 9.76355C9.56828 9.95877 9.25175 9.95871 9.05648 9.76355C8.86122 9.56829 8.86122 9.25178 9.05648 9.05652C9.6411 8.4718 9.64111 7.51819 9.05648 6.93347C8.47177 6.34877 7.51817 6.34883 6.93343 6.93347C6.34869 7.51821 6.34869 8.47178 6.93343 9.05652C7.12859 9.25176 7.12858 9.56831 6.93343 9.76355C6.73819 9.95875 6.42165 9.95872 6.2264 9.76355C5.25114 8.78829 5.25114 7.2017 6.2264 6.22644Z" fill="black"/>
<path d="M7.99984 7.49988C8.27593 7.49988 8.49976 7.7238 8.49984 7.99988C8.49984 8.27602 8.27598 8.49988 7.99984 8.49988C7.72373 8.49984 7.49984 8.27599 7.49984 7.99988C7.49991 7.72383 7.72378 7.49992 7.99984 7.49988Z" fill="black"/>
</svg>
