<svg width="16" height="16" viewBox="0 0 16 16" fill="none" xmlns="http://www.w3.org/2000/svg">
<path fill-rule="evenodd" clip-rule="evenodd" d="M13.6466 2.14648C13.8418 1.95124 14.1583 1.95123 14.3536 2.14648C14.5488 2.34174 14.5488 2.65827 14.3536 2.85352L11.1925 6.01367C11.9299 6.1082 12.5001 6.73683 12.5001 7.5V11.5C12.5001 12.3284 11.8285 13 11.0001 13H5.00008C4.76856 13 4.55036 12.9452 4.35458 12.8516L2.3536 14.8535C2.15836 15.0488 1.84184 15.0487 1.64657 14.8535C1.45131 14.6583 1.45131 14.3417 1.64657 14.1465L3.64755 12.1445C3.55421 11.949 3.50008 11.7311 3.50008 11.5V7.5C3.50008 6.67157 4.17166 6 5.00008 6H5.50008V4.5C5.50008 3.12386 6.62394 2 8.00008 2C9.37621 2.00002 10.5001 3.12387 10.5001 4.5V5.29297L13.6466 2.14648ZM5.20712 12H11.0001C11.2762 12 11.5001 11.7761 11.5001 11.5V7.5C11.5001 7.22387 11.2762 7.00002 11.0001 7H10.2071L5.20712 12ZM5.00008 7C4.72394 7 4.50008 7.22386 4.50008 7.5V11.293L8.79305 7H5.00008ZM8.00008 3C7.17623 3 6.50008 3.67614 6.50008 4.5V6H9.50008V4.5C9.50008 3.67615 8.82393 3.00002 8.00008 3Z" fill="currentColor"/>
</svg>
