<svg width="16" height="16" viewBox="0 0 16 16" fill="none" xmlns="http://www.w3.org/2000/svg">
<path fill-rule="evenodd" clip-rule="evenodd" d="M12.4267 2.92672C12.6219 2.73146 12.9384 2.73146 13.1337 2.92672C13.3287 3.122 13.3289 3.43858 13.1337 3.63375L12.2431 4.5234C12.837 4.86359 13.4111 5.27804 13.955 5.76852C14.388 6.16034 14.3755 6.83213 13.9843 7.2236L8.70402 12.5029C8.30877 12.8981 7.6823 12.8981 7.28703 12.5029C7.26749 12.4833 7.25004 12.4624 7.2343 12.4404L5.7802 10.9863L4.13371 12.6338C3.93853 12.8288 3.62191 12.8287 3.42668 12.6338C3.23147 12.4385 3.23158 12.122 3.42668 11.9267L5.07219 10.2793L2.01652 7.2236C1.62509 6.83216 1.61169 6.16042 2.04484 5.76852C4.76768 3.31331 8.23095 2.74274 11.2987 4.05367L12.4267 2.92672ZM9.50285 10.289C8.56752 9.61017 7.43131 9.60914 6.49602 10.288L7.99992 11.792L9.50285 10.289ZM7.98918 8.77731C8.76556 8.77475 9.54207 9.04042 10.2187 9.5732L11.4237 8.36813C10.8209 7.84961 10.1694 7.48328 9.49895 7.26656L7.98918 8.77731ZM7.99504 7.02731C6.81442 7.02742 5.61754 7.46405 4.57023 8.36324L5.7802 9.57223L8.3134 7.03902C8.2072 7.03195 8.10109 7.02732 7.99504 7.02731ZM10.2763 6.4902C10.9297 6.76207 11.5551 7.15299 12.1327 7.66012L13.2773 6.51656C13.2769 6.51692 13.2766 6.5162 13.2773 6.51461C13.2781 6.51244 13.2792 6.50899 13.2792 6.50582C12.7181 6.0007 12.1226 5.58586 11.5068 5.25973L10.2763 6.4902ZM10.5292 4.8232C7.91185 3.86304 5.03494 4.42201 2.7216 6.50387V6.50582C2.7216 6.50909 2.7227 6.51243 2.72355 6.51461V6.51656L3.86223 7.65524C5.08929 6.57983 6.53384 6.02743 7.99504 6.02731C8.39904 6.02734 8.80184 6.06954 9.19914 6.15328L10.5292 4.8232Z" fill="currentColor"/>
</svg>
