<svg width="16" height="16" viewBox="0 0 16 16" fill="none" xmlns="http://www.w3.org/2000/svg">
<path fill-rule="evenodd" clip-rule="evenodd" d="M8 11.5C9.10457 11.5 10 12.3954 10 13.5C10 14.6046 9.10457 15.5 8 15.5C6.89543 15.5 6 14.6046 6 13.5C6 12.3954 6.89543 11.5 8 11.5ZM8 12.5C7.44772 12.5 7 12.9477 7 13.5C7 14.0523 7.44772 14.5 8 14.5C8.55228 14.5 9 14.0523 9 13.5C9 12.9477 8.55228 12.5 8 12.5Z" fill="black"/>
<path fill-rule="evenodd" clip-rule="evenodd" d="M8 6C9.10457 6 10 6.89543 10 8C10 9.10457 9.10457 10 8 10C6.89543 10 6 9.10457 6 8C6 6.89543 6.89543 6 8 6ZM8 7C7.44772 7 7 7.44772 7 8C7 8.55228 7.44772 9 8 9C8.55228 9 9 8.55228 9 8C9 7.44772 8.55228 7 8 7Z" fill="black"/>
<path fill-rule="evenodd" clip-rule="evenodd" d="M8 0.5C9.10457 0.5 10 1.39543 10 2.5C10 3.60457 9.10457 4.5 8 4.5C6.89543 4.5 6 3.60457 6 2.5C6 1.39543 6.89543 0.5 8 0.5ZM8 1.5C7.44772 1.5 7 1.94772 7 2.5C7 3.05228 7.44772 3.5 8 3.5C8.55228 3.5 9 3.05228 9 2.5C9 1.94772 8.55228 1.5 8 1.5Z" fill="black"/>
</svg>
