<svg width="16" height="16" viewBox="0 0 16 16" fill="none" xmlns="http://www.w3.org/2000/svg">
<path fill-rule="evenodd" clip-rule="evenodd" d="M7.99023 1.5C8.81629 1.5001 9.49023 2.17392 9.49023 3V5.5H12.8398C13.7492 5.50011 14.4569 6.30426 14.3242 7.20898L14.3252 7.20996L13.6152 12.21C13.5103 12.9436 12.8811 13.4999 12.1299 13.5H3C2.17386 13.5 1.5 12.8261 1.5 12V7C1.5 6.17386 2.17386 5.5 3 5.5H4.74023L7.58984 1.7002C7.68427 1.57435 7.83289 1.5 7.99023 1.5ZM5.5 6.15332V12.5H12.1299C12.3784 12.4999 12.5898 12.3154 12.625 12.0693L13.335 7.06934L13.3359 7.06543C13.3796 6.77249 13.1485 6.50011 12.8398 6.5H8.99023C8.71409 6.5 8.49023 6.27614 8.49023 6V3C8.49023 2.80201 8.37112 2.63049 8.20215 2.5498L5.5 6.15332ZM3 6.5C2.72614 6.5 2.5 6.72614 2.5 7V12C2.5 12.2739 2.72614 12.5 3 12.5H4.5V6.5H3Z" fill="black"/>
</svg>
