<svg width="16" height="16" viewBox="0 0 16 16" fill="none" xmlns="http://www.w3.org/2000/svg">
<path fill-rule="evenodd" clip-rule="evenodd" d="M13 1.5C13.8261 1.5 14.5 2.17386 14.5 3V10C14.5 10.8261 13.8261 11.5 13 11.5H11.5V13C11.5 13.8284 10.8284 14.5 10 14.5H3C2.17157 14.5 1.5 13.8284 1.5 13V6C1.5 5.17157 2.17157 4.5 3 4.5H4.5V3C4.5 2.17386 5.17386 1.5 6 1.5H13ZM3 5.5C2.72386 5.5 2.5 5.72386 2.5 6V13C2.5 13.2761 2.72386 13.5 3 13.5H10C10.2761 13.5 10.5 13.2761 10.5 13V6C10.5 5.72386 10.2761 5.5 10 5.5H3ZM6 2.5C5.72614 2.5 5.5 2.72614 5.5 3V4.5H10C10.8284 4.5 11.5 5.17157 11.5 6V10.5H13C13.2739 10.5 13.5 10.2739 13.5 10V3C13.5 2.72614 13.2739 2.5 13 2.5H6Z" fill="black"/>
</svg>
