<svg width="16" height="16" viewBox="0 0 16 16" fill="none" xmlns="http://www.w3.org/2000/svg">
<path fill-rule="evenodd" clip-rule="evenodd" d="M7 2.5C7.38408 2.5 7.73416 2.64686 8 2.88574C8.26584 2.64686 8.61592 2.5 9 2.5H12C12.2761 2.5 12.5 2.72386 12.5 3V4.5H14C14.2761 4.5 14.5 4.72386 14.5 5V11C14.5 11.8261 13.8261 12.5 13 12.5H10.5V13C10.5 13.2761 10.2761 13.5 10 13.5H6C5.72386 13.5 5.5 13.2761 5.5 13V12.5H3C2.17386 12.5 1.5 11.8261 1.5 11V5C1.5 4.72386 1.72386 4.5 2 4.5H3.5V3C3.5 2.72386 3.72386 2.5 4 2.5H7ZM2.5 5.5V11C2.5 11.2739 2.72614 11.5 3 11.5H6C6.27614 11.5 6.5 11.7239 6.5 12V12.5H9.5V12C9.5 11.7239 9.72386 11.5 10 11.5H13C13.2739 11.5 13.5 11.2739 13.5 11V5.5H12.5V10C12.5 10.2761 12.2761 10.5 12 10.5H9C8.7605 10.5 8.55693 10.6728 8.50977 10.8994L8.49023 11.1006C8.48378 11.1322 8.47307 11.1623 8.46094 11.1914C8.45825 11.1979 8.45412 11.2036 8.45117 11.21C8.44203 11.2295 8.43241 11.2485 8.4209 11.2666C8.41335 11.2785 8.40498 11.2896 8.39648 11.3008C8.38606 11.3145 8.37503 11.3273 8.36328 11.3398C8.35506 11.3486 8.34672 11.3571 8.33789 11.3652C8.32442 11.3777 8.31068 11.3895 8.2959 11.4004C8.28534 11.4082 8.27484 11.4159 8.26367 11.4229C8.24894 11.432 8.23348 11.4396 8.21777 11.4473C8.20611 11.453 8.19477 11.4591 8.18262 11.4639C8.1652 11.4707 8.14721 11.4756 8.12891 11.4805C8.11688 11.4837 8.10514 11.4879 8.09277 11.4902C8.06264 11.4959 8.03177 11.5 8 11.5C7.9679 11.5 7.93668 11.496 7.90625 11.4902C7.89389 11.4879 7.88214 11.4837 7.87012 11.4805C7.85183 11.4755 7.8338 11.4707 7.81641 11.4639C7.80428 11.4591 7.79289 11.453 7.78125 11.4473C7.76557 11.4396 7.75006 11.4321 7.73535 11.4229C7.72421 11.4159 7.71365 11.4082 7.70312 11.4004C7.68838 11.3895 7.67457 11.3777 7.66113 11.3652C7.65233 11.3571 7.64394 11.3486 7.63574 11.3398C7.62403 11.3273 7.61293 11.3145 7.60254 11.3008C7.59407 11.2896 7.58565 11.2785 7.57812 11.2666C7.56665 11.2485 7.55696 11.2295 7.54785 11.21C7.54491 11.2036 7.54077 11.1979 7.53809 11.1914C7.52602 11.1624 7.5162 11.1321 7.50977 11.1006L7.49023 10.8994C7.44307 10.6728 7.2395 10.5 7 10.5H4C3.72386 10.5 3.5 10.2761 3.5 10V5.5H2.5ZM4.5 9.5H7C7.17529 9.5 7.34341 9.53122 7.5 9.58691V4C7.5 3.72614 7.27386 3.5 7 3.5H4.5V9.5ZM9 3.5C8.7605 3.5 8.55693 3.67284 8.50977 3.89941L8.5 4V9.58691C8.65659 9.53122 8.82471 9.5 9 9.5H11.5V3.5H9Z" fill="currentColor"/>
</svg>
