<svg width="16" height="16" viewBox="0 0 16 16" fill="none" xmlns="http://www.w3.org/2000/svg">
<path d="M11.0001 6.5C11.2762 6.50002 11.5001 6.72387 11.5001 7V9C11.5001 9.27613 11.2762 9.49998 11.0001 9.5C10.7239 9.5 10.5001 9.27614 10.5001 9V7C10.5001 6.72386 10.7239 6.5 11.0001 6.5Z" fill="currentColor"/>
<path fill-rule="evenodd" clip-rule="evenodd" d="M11.0001 4.5C12.9362 4.50004 14.5001 6.06388 14.5001 8C14.5001 9.93612 12.9362 11.5 11.0001 11.5C9.60291 11.5 8.39919 10.6876 7.84579 9.5H6.20712L5.3536 10.3535C5.15835 10.5488 4.84183 10.5487 4.64657 10.3535L4.00008 9.70703L3.3536 10.3535C3.15835 10.5488 2.84183 10.5487 2.64657 10.3535L0.646569 8.35352C0.451307 8.15825 0.451307 7.84175 0.646569 7.64648L1.64657 6.64648L1.72274 6.58398C1.80426 6.52965 1.90067 6.5 2.00008 6.5H7.84579C8.39919 5.31241 9.60291 4.5 11.0001 4.5ZM11.0001 5.5C9.90668 5.5 8.98515 6.19179 8.6534 7.16211C8.58417 7.36425 8.39345 7.49997 8.17977 7.5H2.20712L1.70712 8L3.00008 9.29297L3.64657 8.64648L3.72469 8.58203C3.91877 8.45391 4.18275 8.47564 4.3536 8.64648L5.00008 9.29297L5.64657 8.64648L5.72274 8.58398C5.80426 8.52965 5.90067 8.5 6.00008 8.5H8.17977C8.39345 8.50003 8.58417 8.63575 8.6534 8.83789C8.98515 9.80821 9.90668 10.5 11.0001 10.5C12.3839 10.5 13.5001 9.38383 13.5001 8C13.5001 6.61617 12.3839 5.50004 11.0001 5.5Z" fill="currentColor"/>
</svg>
