<svg width="16" height="16" viewBox="0 0 16 16" fill="none" xmlns="http://www.w3.org/2000/svg">
<path d="M8.10059 6.00977C8.32855 6.05629 8.5 6.25829 8.5 6.5V9H9C9.27614 9 9.5 9.22386 9.5 9.5C9.5 9.77614 9.27614 10 9 10H7C6.72386 10 6.5 9.77614 6.5 9.5C6.5 9.22386 6.72386 9 7 9H7.5V7H7C6.72386 7 6.5 6.77614 6.5 6.5C6.5 6.22386 6.72386 6 7 6H8L8.10059 6.00977Z" fill="black"/>
<path d="M8 4.5C8.27614 4.5 8.5 4.72386 8.5 5C8.5 5.27614 8.27614 5.5 8 5.5C7.72386 5.5 7.5 5.27614 7.5 5C7.5 4.72386 7.72386 4.5 8 4.5Z" fill="black"/>
<path fill-rule="evenodd" clip-rule="evenodd" d="M8.09766 1.50977L12.293 2.34863C13.0055 2.48508 13.5 3.10757 13.5 3.82031V8.16992C13.5 10.1063 12.4873 11.8888 10.8281 12.8887L8.25684 14.4287C8.09864 14.5235 7.90136 14.5235 7.74316 14.4287L5.17383 12.8887C3.51169 11.8978 2.5 10.1046 2.5 8.16992V3.82031C2.5 3.10345 3.00682 2.48656 3.70215 2.34961L7.90234 1.50977L8 1.5C8.03272 1.5 8.06541 1.50334 8.09766 1.50977ZM3.89844 3.33008L3.89648 3.33105C3.67276 3.37483 3.5 3.57781 3.5 3.82031V8.16992C3.5 9.75491 4.32823 11.2211 5.68555 12.0303L5.68652 12.0312L8 13.417L10.3135 12.0312C11.6735 11.211 12.5 9.75299 12.5 8.16992V3.82031C12.5 3.57323 12.3337 3.37479 12.1064 3.33105L8 2.50977L3.89844 3.33008Z" fill="black"/>
</svg>
