<svg width="16" height="16" viewBox="0 0 16 16" fill="none" xmlns="http://www.w3.org/2000/svg">
<path d="M4 5.5C4.27614 5.5 4.5 5.72386 4.5 6V10C4.5 10.2761 4.27614 10.5 4 10.5C3.72386 10.5 3.5 10.2761 3.5 10V6C3.5 5.72386 3.72386 5.5 4 5.5Z" fill="black"/>
<path d="M6 5.5C6.27614 5.5 6.5 5.72386 6.5 6V10C6.5 10.2761 6.27614 10.5 6 10.5C5.72386 10.5 5.5 10.2761 5.5 10V6C5.5 5.72386 5.72386 5.5 6 5.5Z" fill="black"/>
<path d="M8 5.5C8.27614 5.5 8.5 5.72386 8.5 6V10C8.5 10.2761 8.27614 10.5 8 10.5C7.72386 10.5 7.5 10.2761 7.5 10V6C7.5 5.72386 7.72386 5.5 8 5.5Z" fill="black"/>
<path d="M10.5527 5.77637C10.6762 5.5294 10.9767 5.42926 11.2236 5.55273C11.4706 5.67623 11.5707 5.97665 11.4473 6.22363L10.8086 7.5H12C12.1714 7.5 12.3312 7.58761 12.4229 7.73242C12.5145 7.87738 12.5247 8.05994 12.4512 8.21484L11.502 10.2148C11.3835 10.4641 11.0853 10.5695 10.8359 10.4512C10.5865 10.3327 10.4802 10.0346 10.5986 9.78516L11.209 8.5H10C9.82672 8.49999 9.66532 8.4101 9.57422 8.2627C9.48332 8.11535 9.4753 7.93124 9.55273 7.77637L10.5527 5.77637Z" fill="black"/>
<path fill-rule="evenodd" clip-rule="evenodd" d="M13 3.5C13.8261 3.5 14.5 4.17386 14.5 5V6.08691C15.0814 6.2937 15.5 6.84915 15.5 7.5V8.5C15.5 9.15074 15.0813 9.70524 14.5 9.91211V11C14.5 11.8261 13.8261 12.5 13 12.5H3C2.17386 12.5 1.5 11.8261 1.5 11V5C1.5 4.17386 2.17386 3.5 3 3.5H13ZM3 4.5C2.72614 4.5 2.5 4.72614 2.5 5V11C2.5 11.2739 2.72614 11.5 3 11.5H13C13.2739 11.5 13.5 11.2739 13.5 11V9.5C13.5 9.25829 13.6714 9.05629 13.8994 9.00977L14.1006 8.99023C14.3272 8.94307 14.5 8.7395 14.5 8.5V7.5C14.5 7.2605 14.3272 7.05693 14.1006 7.00977L13.8994 6.99023C13.6714 6.94371 13.5 6.74171 13.5 6.5V5C13.5 4.72614 13.2739 4.5 13 4.5H3Z" fill="black"/>
</svg>
