<svg width="16" height="16" viewBox="0 0 16 16" fill="none" xmlns="http://www.w3.org/2000/svg">
<path fill-rule="evenodd" clip-rule="evenodd" d="M7.6535 5.64867C7.84877 5.45346 8.16529 5.45342 8.36054 5.64867L10.3615 7.64964C10.5567 7.84489 10.5567 8.16143 10.3615 8.35668L8.36054 10.3577C8.16529 10.5529 7.84877 10.5529 7.6535 10.3577L5.65253 8.35668C5.45726 8.16141 5.45726 7.84491 5.65253 7.64964L7.6535 5.64867ZM6.71307 8.00316L8.00702 9.29711L9.30096 8.00316L8.00702 6.70922L6.71307 8.00316Z" fill="black"/>
<path fill-rule="evenodd" clip-rule="evenodd" d="M8.3537 2.69945C9.72042 1.33305 11.9361 1.33314 13.3029 2.69945C14.6698 4.06628 14.6698 6.28281 13.3029 7.64964L7.64667 13.3069C6.27985 14.6736 4.06329 14.6736 2.69647 13.3069C1.32966 11.9401 1.32972 9.72352 2.69647 8.35668L8.3537 2.69945ZM12.5959 3.40746C11.6196 2.43115 10.037 2.43115 9.06073 3.40746L3.4035 9.06371C2.42727 10.04 2.42722 11.6236 3.4035 12.5998C4.37979 13.5761 5.96334 13.576 6.93964 12.5998L12.5959 6.94261C13.5722 5.96632 13.5721 4.38377 12.5959 3.40746Z" fill="black"/>
</svg>
