<svg width="16" height="16" viewBox="0 0 16 16" fill="none" xmlns="http://www.w3.org/2000/svg">
<path fill-rule="evenodd" clip-rule="evenodd" d="M8 2C8.55 2 9 2.45 9 3V7H12C12.55 7 13 7.45 13 8V14H11.5V13C11.5 12.72 11.28 12.5 11 12.5C10.72 12.5 10.5 12.72 10.5 13V14H9.5V13C9.5 12.72 9.28 12.5 9 12.5C8.72 12.5 8.5 12.72 8.5 13V14H7.5V13C7.5 12.72 7.28 12.5 7 12.5C6.72 12.5 6.5 12.72 6.5 13V14H5.5V13C5.5 12.72 5.28 12.5 5 12.5C4.72 12.5 4.5 12.72 4.5 13V14H3V8C3 7.45 3.45 7 4 7H7V3C7 2.45 7.45 2 8 2ZM4.5 9.5C4.22 9.5 4 9.72 4 10C4 10.28 4.22 10.5 4.5 10.5H11.5C11.78 10.5 12 10.28 12 10C12 9.72 11.78 9.5 11.5 9.5H4.5Z" fill="currentColor"/>
</svg>
