<svg width="16" height="16" viewBox="0 0 16 16" fill="none" xmlns="http://www.w3.org/2000/svg">
<path fill-rule="evenodd" clip-rule="evenodd" d="M11.5 2.37988C12.67 2.37988 13.6201 3.33 13.6201 4.5L13.5996 4.49023C13.5995 5.0501 13.3803 5.5903 12.9805 5.99023L10.8301 8.13965L11.8301 9.13965C12.03 9.33957 12.0298 9.6496 11.8301 9.84961C11.7402 9.94948 11.6004 9.99987 11.4805 10C11.3605 10 11.2299 9.94961 11.1299 9.84961L10.1299 8.84961L6.07031 12.9102C5.70035 13.2901 5.1901 13.5 4.66016 13.5H2.99023C2.71023 13.5 2.49023 13.28 2.49023 13V11.3301C2.49023 10.8001 2.70008 10.2999 3.08008 9.91992L7.13965 5.86035L6.13965 4.86035C5.93978 4.66047 5.94002 4.3504 6.13965 4.15039C6.33965 3.95039 6.64961 3.95039 6.84961 4.15039L7.84961 5.15039L10 3C10.4 2.6 10.94 2.37988 11.5 2.37988ZM3.79004 10.6201C3.60007 10.8101 3.5 11.0601 3.5 11.3301V12.5H4.66992C4.9399 12.5 5.18989 12.3999 5.37988 12.21L9.44043 8.15039L7.84961 6.55957L3.79004 10.6201Z" fill="currentColor"/>
</svg>
