<svg width="16" height="16" viewBox="0 0 16 16" fill="none" xmlns="http://www.w3.org/2000/svg">
<path fill-rule="evenodd" clip-rule="evenodd" d="M8.94044 2.35026C9.51041 1.78036 10.4896 1.78038 11.0596 2.35026L13.6504 4.9401H13.6299C14.2099 5.5201 14.2099 6.48022 13.6299 7.06022L7.33985 13.3503C7.24991 13.45 7.12007 13.4996 6.99024 13.4997H4.99024C4.86024 13.4997 4.72966 13.4403 4.63966 13.3503L2.34962 11.0602C1.7698 10.4803 1.76991 9.52009 2.34962 8.9401L8.94044 2.35026ZM3.04981 9.6403C2.86006 9.8403 2.8599 10.1503 3.04981 10.3503L5.2002 12.4997H6.79005L6.78028 12.4899L8.28028 10.9899L4.99024 7.69987L3.04981 9.6403Z" fill="currentColor"/>
</svg>
