<svg width="16" height="16" viewBox="0 0 16 16" fill="none" xmlns="http://www.w3.org/2000/svg">
<path d="M8 11.5C8.27614 11.5 8.5 11.7239 8.5 12C8.5 12.2761 8.27614 12.5 8 12.5H3C2.72386 12.5 2.5 12.2761 2.5 12C2.5 11.7239 2.72386 11.5 3 11.5H8Z" fill="currentColor"/>
<path d="M12.5195 6.2002C12.7195 6.0602 12.9902 6.20043 12.9902 6.44043V9.55957C12.9902 9.79957 12.7095 9.9498 12.5195 9.7998L10.3398 8.24023C10.1699 8.12026 10.17 7.87003 10.3398 7.75V7.75977L12.5195 6.2002Z" fill="currentColor"/>
<path d="M8 8.83008C8.27614 8.83008 8.5 9.05394 8.5 9.33008C8.49995 9.60618 8.27611 9.83008 8 9.83008H3C2.72389 9.83008 2.50005 9.60618 2.5 9.33008C2.5 9.05394 2.72386 8.83008 3 8.83008H8Z" fill="currentColor"/>
<path d="M8 6.16992C8.27611 6.16992 8.49995 6.39382 8.5 6.66992C8.5 6.94606 8.27614 7.16992 8 7.16992H3C2.72386 7.16992 2.5 6.94606 2.5 6.66992C2.50005 6.39382 2.72389 6.16992 3 6.16992H8Z" fill="currentColor"/>
<path d="M8 3.5C8.27614 3.5 8.5 3.72386 8.5 4C8.5 4.27614 8.27614 4.5 8 4.5H3C2.72386 4.5 2.5 4.27614 2.5 4C2.5 3.72386 2.72386 3.5 3 3.5H8Z" fill="currentColor"/>
</svg>
