<svg width="16" height="16" viewBox="0 0 16 16" fill="none" xmlns="http://www.w3.org/2000/svg">
<path d="M4.85029 8.67021C6.38014 8.37038 7.49996 9.59004 7.32001 11.1399H7.32978C7.2298 12.0098 6.55022 12.9197 5.7204 13.2698C4.9804 13.5698 3.85986 13.6196 2.90986 13.0296C2.63022 12.8595 2.68002 12.48 2.90986 12.26C3.11986 12.07 3.2199 11.7895 3.1999 11.4895C3.15998 10.7097 3.31007 10.0596 3.57001 9.6497C3.80008 9.2997 4.3004 8.78018 4.85029 8.67021Z" fill="black"/>
<path d="M11.1296 3.34013C11.5596 2.97013 12.2003 2.99971 12.6003 3.3997V3.41044C12.9999 3.81046 13.0197 4.4503 12.6599 4.88017L8.26044 10.1302C8.15044 9.56017 7.90974 9.02966 7.53974 8.60966C7.11979 8.12986 6.55997 7.81972 5.94013 7.68974L11.1296 3.34013Z" fill="black"/>
</svg>
