<svg width="16" height="16" viewBox="0 0 16 16" fill="none" xmlns="http://www.w3.org/2000/svg">
<path d="M4.5 4.12988C5.69 4.12988 6.73043 4.98039 6.94043 6.15039C7.41001 8.73966 5.34086 11.129 4.69043 11.8096C4.58043 11.9296 4.42 12 4.25 12L4.24023 12.0098C3.7703 12.0098 3.4699 11.4901 3.71973 11.0801C4.31973 10.1001 4.5 9.12988 4.5 9.12988C3.12 9.12988 2 8.00988 2 6.62988C2.00007 5.24994 3.12004 4.12988 4.5 4.12988Z" fill="currentColor"/>
<path d="M11.5 4.12988C12.69 4.12988 13.7304 4.98039 13.9404 6.15039C14.41 8.73966 12.3409 11.129 11.6904 11.8096C11.5804 11.9296 11.42 12 11.25 12L11.2402 12.0098C10.7703 12.0098 10.4699 11.4901 10.7197 11.0801C11.3197 10.1001 11.5 9.12988 11.5 9.12988C10.12 9.12988 9 8.00988 9 6.62988C9.00007 5.24994 10.12 4.12988 11.5 4.12988Z" fill="currentColor"/>
</svg>
