<svg width="16" height="16" viewBox="0 0 16 16" fill="none" xmlns="http://www.w3.org/2000/svg">
<path fill-rule="evenodd" clip-rule="evenodd" d="M7.77006 6.11035C8.35006 5.52035 9.31018 5.52035 9.89018 6.11035C10.4699 6.69038 10.4701 7.65056 9.89018 8.23047L4.57963 13.54C4.28968 13.8299 3.89995 13.9804 3.52006 13.9805C3.14006 13.9805 2.74952 13.83 2.45952 13.54C1.87979 12.9601 1.87978 11.9999 2.45952 11.4199L7.77006 6.11035ZM8.81987 6.66992C8.6999 6.66995 8.57023 6.72034 8.47026 6.82031L7.40971 7.87988L8.11967 8.58984L9.18022 7.53027H9.17045C9.36024 7.33041 9.36004 7.0203 9.17045 6.82031C9.08045 6.72031 8.93987 6.66992 8.81987 6.66992Z" fill="black"/>
<path d="M11.1167 9.11621C11.312 8.92122 11.6286 8.92104 11.8238 9.11621L12.8941 10.1865C13.0889 10.3817 13.089 10.6984 12.8941 10.8936C12.6989 11.0887 12.3823 11.0885 12.1871 10.8936L11.1167 9.82324C10.9215 9.62798 10.9215 9.31147 11.1167 9.11621Z" fill="black"/>
<path d="M13.9996 6.5C14.2757 6.5 14.4996 6.72386 14.4996 7C14.4996 7.27614 14.2757 7.5 13.9996 7.5H12.4996C12.2236 7.49977 11.9996 7.276 11.9996 7C11.9996 6.724 12.2236 6.50023 12.4996 6.5H13.9996Z" fill="black"/>
<path d="M5.106 3.10645C5.30118 2.91126 5.61775 2.91142 5.81303 3.10645L6.88334 4.17676C7.07829 4.37205 7.0785 4.68863 6.88334 4.88379C6.68817 5.07873 6.37153 5.07867 6.17631 4.88379L5.106 3.81348C4.91105 3.61827 4.91103 3.30165 5.106 3.10645Z" fill="black"/>
<path d="M12.1871 3.10645C12.3823 2.91149 12.6989 2.91129 12.8941 3.10645C13.089 3.30163 13.089 3.61828 12.8941 3.81348L11.8238 4.88379C11.6286 5.0788 11.312 5.07873 11.1167 4.88379C10.9215 4.68858 10.9216 4.37203 11.1167 4.17676L12.1871 3.10645Z" fill="black"/>
<path d="M8.99956 1.5C9.2757 1.5 9.49956 1.72386 9.49956 2V3.5C9.49956 3.77614 9.2757 4 8.99956 4C8.72361 3.99977 8.49956 3.776 8.49956 3.5V2C8.49956 1.724 8.72361 1.50023 8.99956 1.5Z" fill="black"/>
</svg>
