<svg width="16" height="16" viewBox="0 0 16 16" fill="none" xmlns="http://www.w3.org/2000/svg">
<path d="M12 2.5C12.28 2.5 12.5 2.72 12.5 3V4.00977H13C13.8299 4.00977 14.4999 4.67988 14.5 5.50977V6.66016C14.4999 7.40008 13.9699 8.01963 13.25 8.13965L8.91992 8.86035C8.68012 8.90038 8.50021 9.10982 8.5 9.34961V9.5H9C9.28 9.5 9.5 9.72 9.5 10V13.5C9.5 13.78 9.28 14 9 14H7C6.72 14 6.5 13.78 6.5 13.5V10C6.5 9.72 6.72 9.5 7 9.5H7.5V9.34961C7.5002 8.6098 8.03014 7.9901 8.75 7.87012L13.0801 7.15039C13.32 7.11039 13.4999 6.90009 13.5 6.66016V5.50977C13.4999 5.22988 13.2799 5.00977 13 5.00977H12.5V6C12.5 6.28 12.28 6.5 12 6.5H3C2.72 6.5 2.5 6.28 2.5 6V3C2.5 2.72 2.72 2.5 3 2.5H12Z" fill="black"/>
</svg>
