<svg width="16" height="16" viewBox="0 0 16 16" fill="none" xmlns="http://www.w3.org/2000/svg">
<path fill-rule="evenodd" clip-rule="evenodd" d="M10.1003 2.00977C10.6402 2.00985 11.1197 2.35042 11.2897 2.86035L12.8005 7.40039H12.7897C12.9196 7.78032 12.8497 8.19058 12.6198 8.52051L8.40007 14.4297C8.20007 14.7097 7.7905 14.7097 7.5905 14.4297L3.36979 8.52051C3.13987 8.20062 3.07006 7.78029 3.19987 7.40039L4.70964 2.86035C4.87964 2.35035 5.36007 2.00977 5.90007 2.00977H10.1003ZM7.99968 5.5C7.16985 5.5002 6.49968 6.17013 6.49968 7C6.49968 7.64989 6.91982 8.20008 7.49968 8.41016V12C7.49968 12.2799 7.71985 12.4998 7.99968 12.5C8.27968 12.5 8.49968 12.28 8.49968 12V8.41016C9.07968 8.20016 9.49968 7.65 9.49968 7C9.49967 6.17001 8.82967 5.5 7.99968 5.5Z" fill="black"/>
</svg>
