<svg width="16" height="16" viewBox="0 0 16 16" fill="none" xmlns="http://www.w3.org/2000/svg">
<path d="M11.5 11.8701C10.31 11.8701 9.26957 11.0196 9.05957 9.84961C8.58999 7.26034 10.6591 4.87098 11.3096 4.19043C11.4196 4.07043 11.58 4 11.75 4L11.7598 3.99024C12.2297 3.99024 12.5301 4.50995 12.2803 4.91992C11.6803 5.89992 11.5 6.87012 11.5 6.87012C12.88 6.87012 14 7.99012 14 9.37012C13.9999 10.7501 12.88 11.8701 11.5 11.8701Z" fill="black"/>
<path d="M4.5 11.8701C3.31 11.8701 2.26957 11.0196 2.05957 9.84961C1.58999 7.26034 3.65914 4.87098 4.30957 4.19043C4.41957 4.07043 4.58 4 4.75 4L4.75977 3.99023C5.2297 3.99024 5.5301 4.50995 5.28027 4.91992C4.68027 5.89992 4.5 6.87012 4.5 6.87012C5.88 6.87012 7 7.99012 7 9.37012C6.99993 10.7501 5.87996 11.8701 4.5 11.8701Z" fill="black"/>
</svg>
