<svg width="16" height="16" viewBox="0 0 16 16" fill="none" xmlns="http://www.w3.org/2000/svg">
<path d="M7.15011 11.8501L6.70968 12.2895C6.4497 12.5495 6.12997 12.7298 5.77999 12.8198L3.1296 13.48C2.75974 13.5697 2.43026 13.2395 2.52023 12.8696L3.18038 10.2202C3.27038 9.87019 3.44968 9.54953 3.70968 9.28953L4.15011 8.85008L7.15011 11.8501Z" fill="currentColor"/>
<path d="M12.1501 6.85008L7.85031 11.1499L4.85031 8.14988L9.15011 3.85008L12.1501 6.85008Z" fill="currentColor"/>
<path d="M10.2898 2.69969C10.6797 2.3098 11.3099 2.30989 11.6999 2.69969L13.2898 4.28953C13.6797 4.67951 13.6797 5.30968 13.2898 5.69969L12.8503 6.14011L9.85031 3.14011L10.2898 2.69969Z" fill="currentColor"/>
</svg>
