<svg width="16" height="16" viewBox="0 0 16 16" fill="none" xmlns="http://www.w3.org/2000/svg">
<path d="M12.9995 11.5C13.2757 11.5 13.4995 11.7239 13.4995 12C13.4995 12.2761 13.2757 12.5 12.9995 12.5H7.99951C7.72359 12.4997 7.49951 12.276 7.49951 12C7.49951 11.724 7.72359 11.5003 7.99951 11.5H12.9995Z" fill="currentColor"/>
<path d="M5.52002 6.2002C5.72002 6.0602 5.98974 6.20043 5.98974 6.44043V9.55957C5.98974 9.79957 5.71002 9.9498 5.52002 9.7998L3.34033 8.24023C3.17033 8.12023 3.17033 7.87 3.34033 7.75V7.75977L5.52002 6.2002Z" fill="currentColor"/>
<path d="M12.9995 8.83008C13.2757 8.83008 13.4995 9.05394 13.4995 9.33008C13.4995 9.60618 13.2756 9.83008 12.9995 9.83008H7.99951C7.72362 9.82982 7.49956 9.60602 7.49951 9.33008C7.49951 9.0541 7.72359 8.83034 7.99951 8.83008H12.9995Z" fill="currentColor"/>
<path d="M12.9995 6.16992C13.2756 6.16992 13.4995 6.39382 13.4995 6.66992C13.4995 6.94606 13.2757 7.16992 12.9995 7.16992H7.99951C7.72359 7.16966 7.49951 6.9459 7.49951 6.66992C7.49956 6.39398 7.72362 6.17018 7.99951 6.16992H12.9995Z" fill="currentColor"/>
<path d="M12.9995 3.5C13.2757 3.5 13.4995 3.72386 13.4995 4C13.4995 4.27614 13.2757 4.5 12.9995 4.5H7.99951C7.72359 4.49974 7.49951 4.27598 7.49951 4C7.49951 3.72402 7.72359 3.50026 7.99951 3.5H12.9995Z" fill="currentColor"/>
</svg>
