<svg width="16" height="16" viewBox="0 0 16 16" fill="none" xmlns="http://www.w3.org/2000/svg">
<path d="M13 11.5C13.2761 11.5 13.5 11.7239 13.5 12C13.5 12.2761 13.2761 12.5 13 12.5H8C7.72386 12.5 7.5 12.2761 7.5 12C7.5 11.7239 7.72386 11.5 8 11.5H13Z" fill="black"/>
<path d="M3.00977 6.44043C3.00977 6.20043 3.28047 6.0602 3.48047 6.2002L5.66016 7.75977V7.75C5.83003 7.87003 5.8301 8.12026 5.66016 8.24023L3.48047 9.7998C3.29047 9.9498 3.00977 9.79957 3.00977 9.55957V6.44043Z" fill="black"/>
<path d="M13 8.83008C13.2761 8.83008 13.5 9.05394 13.5 9.33008C13.5 9.60618 13.2761 9.83008 13 9.83008H8C7.72389 9.83008 7.50005 9.60618 7.5 9.33008C7.5 9.05394 7.72386 8.83008 8 8.83008H13Z" fill="black"/>
<path d="M13 6.16992C13.2761 6.16992 13.5 6.39382 13.5 6.66992C13.5 6.94606 13.2761 7.16992 13 7.16992H8C7.72386 7.16992 7.5 6.94606 7.5 6.66992C7.50005 6.39382 7.72389 6.16992 8 6.16992H13Z" fill="black"/>
<path d="M13 3.5C13.2761 3.5 13.5 3.72386 13.5 4C13.5 4.27614 13.2761 4.5 13 4.5H8C7.72386 4.5 7.5 4.27614 7.5 4C7.5 3.72386 7.72386 3.5 8 3.5H13Z" fill="black"/>
</svg>
