<svg width="16" height="16" viewBox="0 0 16 16" fill="none" xmlns="http://www.w3.org/2000/svg">
<path d="M4.85026 8.67021C6.38011 8.37038 7.49993 9.59004 7.31998 11.1399H7.32975C7.22977 12.0098 6.55019 12.9197 5.72037 13.2698C4.98037 13.5698 3.85983 13.6196 2.90983 13.0296C2.63019 12.8595 2.67999 12.48 2.90983 12.26C3.11983 12.0701 3.21987 11.7895 3.19987 11.4895C3.15995 10.7097 3.31003 10.0596 3.56998 9.6497C3.80005 9.2997 4.30037 8.78018 4.85026 8.67021Z" fill="black"/>
<path d="M11.1296 3.34013C11.5596 2.97013 12.2003 2.99971 12.6003 3.3997V3.41044C12.9999 3.81046 13.0197 4.4503 12.6598 4.88017L8.26041 10.1302C8.15041 9.56017 7.90971 9.02966 7.53971 8.60966C7.11976 8.12986 6.55993 7.81972 5.9401 7.68974L11.1296 3.34013Z" fill="black"/>
</svg>
