<svg width="16" height="16" viewBox="0 0 16 16" fill="none" xmlns="http://www.w3.org/2000/svg">
<path d="M9.79297 5.50047L4.64648 10.647C4.45145 10.8422 4.4513 11.1588 4.64648 11.354C4.84169 11.5489 5.15831 11.5489 5.35352 11.354L10.5 6.2075L11.6465 7.35399C11.648 7.35546 11.6499 7.35645 11.6514 7.35789L5.94922 13.061C5.66794 13.3422 5.28638 13.4995 4.88867 13.4995H3.00977C2.73374 13.4994 2.50977 13.2756 2.50977 12.9995V11.1216C2.50977 10.7239 2.66807 10.3423 2.94922 10.061L8.65137 4.35887L9.79297 5.50047ZM10.2998 2.71043C10.6898 2.32043 11.32 2.32043 11.71 2.71043L13.2998 4.30028C13.6898 4.69028 13.6898 5.32045 13.2998 5.71043L12.3574 6.65184C12.356 6.65036 12.355 6.64843 12.3535 6.64696L9.3584 3.65184L10.2998 2.71043Z" fill="black"/>
</svg>
