<svg width="16" height="16" viewBox="0 0 16 16" fill="none" xmlns="http://www.w3.org/2000/svg">
<path d="M6 2V2.5C6 2.78 6.22 3 6.5 3C6.78 3 7 2.78 7 2.5V2H8V2.5C8 2.78 8.22 3 8.5 3C8.78 3 9 2.78 9 2.5V2H10V2.5C10 2.78 10.22 3 10.5 3C10.78 3 11 2.78 11 2.5V2H12V2.5C12 2.78 12.22 3 12.5 3C12.78 3 13 2.78 13 2.5V2C13.55 2 14 2.45 14 3V5C14 5.55 13.55 6 13 6H6V13C6 13.55 5.55 14 5 14H3C2.45 14 2 13.55 2 13H2.5C2.78 13 3 12.78 3 12.5C3 12.22 2.78 12 2.5 12H2V11H2.5C2.78 11 3 10.78 3 10.5C3 10.22 2.78 10 2.5 10H2V9H2.5C2.78 9 3 8.78 3 8.5C3 8.22 2.78 8 2.5 8H2V7H2.5C2.78 7 3 6.78 3 6.5C3 6.22 2.78 6 2.5 6H2V3C2 2.45 2.45 2 3 2H6Z" fill="currentColor"/>
</svg>
