<svg width="16" height="16" viewBox="0 0 16 16" fill="none" xmlns="http://www.w3.org/2000/svg">
<path d="M2.5 6V6.5C2.5 6.78 2.72 7 3 7C3.28 7 3.5 6.78 3.5 6.5V6H4.5V6.5C4.5 6.78 4.72 7 5 7C5.28 7 5.5 6.78 5.5 6.5V6H6.5V6.5C6.5 6.78 6.72 7 7 7C7.28 7 7.5 6.78 7.5 6.5V6H8.5V6.5C8.5 6.78 8.72 7 9 7C9.28 7 9.5 6.78 9.5 6.5V6H10.5V6.5C10.5 6.78 10.72 7 11 7C11.28 7 11.5 6.78 11.5 6.5V6H12.5V6.5C12.5 6.78 12.72 7 13 7C13.28 7 13.5 6.78 13.5 6.5V6H14C14.55 6 15 6.45 15 7V9C15 9.55 14.55 10 14 10H2C1.45 10 1 9.55 1 9V7C1 6.45 1.45 6 2 6H2.5Z" fill="black"/>
</svg>
