<svg width="16" height="16" viewBox="0 0 16 16" fill="none" xmlns="http://www.w3.org/2000/svg">
<path fill-rule="evenodd" clip-rule="evenodd" d="M2.91972 3.07975C3.97959 2.75979 5.0898 3.36983 5.40995 4.41959C5.52645 4.80549 5.5173 5.19769 5.41093 5.55631L7.2996 6.6901L10.7098 4.86002C11.1496 4.62008 11.6298 4.49973 12.1297 4.49967H14.4002C14.66 4.49979 14.7498 4.82959 14.5301 4.95963L5.42167 10.4352C5.52919 10.796 5.53708 11.1909 5.41972 11.5798C5.15972 12.4497 4.3598 13.0104 3.4998 13.0104V12.9997C3.30998 12.9996 3.12028 12.9695 2.93046 12.9196C1.87062 12.5996 1.26996 11.4902 1.58964 10.4303C1.75066 9.89698 2.11217 9.47979 2.5662 9.23795C2.58034 9.22819 2.59483 9.21815 2.61015 9.20963L4.86015 7.99967L3.81034 7.43034L2.61015 6.78971L2.60917 6.78873C2.13009 6.55059 1.74532 6.12359 1.57988 5.56998C1.25993 4.51006 1.86985 3.39982 2.91972 3.07975ZM3.49491 9.99967C3.06696 10.0019 2.66939 10.2815 2.53984 10.7096C2.37987 11.2395 2.67996 11.7997 3.20976 11.9499C3.73975 12.1099 4.29999 11.8099 4.44999 11.2799C4.60999 10.7499 4.31007 10.1897 3.78007 10.0397C3.69154 10.0102 3.59327 9.99999 3.49491 9.99967ZM3.4998 3.99967C3.40985 3.99969 3.30968 4.00973 3.20976 4.03971C2.67995 4.19974 2.38006 4.75985 2.53984 5.28971C2.69983 5.81969 3.25985 6.1196 3.78984 5.95963C4.31974 5.79966 4.61957 5.2403 4.45976 4.72037C4.32976 4.29037 3.9298 4.01041 3.4998 4.01041V3.99967Z" fill="black"/>
<path d="M14.5301 11.0397C14.75 11.1697 14.66 11.4995 14.4002 11.4997H12.1297C11.6298 11.4996 11.1497 11.3803 10.7098 11.1403L8.32988 9.86002L10.45 8.57975L14.5301 11.0397Z" fill="black"/>
</svg>
