<svg width="16" height="16" viewBox="0 0 16 16" fill="none" xmlns="http://www.w3.org/2000/svg">
<path fill-rule="evenodd" clip-rule="evenodd" d="M5.5 2C5.78 2 6 2.22 6 2.5V13.5C6 13.78 5.78 14 5.5 14H2.5C2.22 14 2 13.78 2 13.5V2.5C2 2.22 2.22 2 2.5 2H5.5ZM3.5 10.5C3.22 10.5 3 10.72 3 11C3 11.28 3.22 11.5 3.5 11.5H4.5C4.78 11.5 5 11.28 5 11C5 10.72 4.78 10.5 4.5 10.5H3.5ZM3.5 7.5C3.22 7.5 3 7.72 3 8C3 8.28 3.22 8.5 3.5 8.5H4.5C4.78 8.5 5 8.28 5 8V7.95996C4.97998 7.69998 4.76998 7.5 4.5 7.5H3.5ZM3.5 4.5C3.22 4.5 3 4.72 3 5C3 5.28 3.22 5.5 3.5 5.5H4.5C4.78 5.5 5 5.28 5 5C5 4.84 4.92957 4.69961 4.80957 4.59961C4.72961 4.5398 4.61977 4.5 4.5 4.5H3.5Z" fill="currentColor"/>
<path d="M13.5 10C13.78 10 14 10.22 14 10.5V13.5C14 13.78 13.78 14 13.5 14H6.54004L6.98047 13.75L13.4697 10H13.5Z" fill="currentColor"/>
<path d="M11.2295 5.52051C11.4695 5.38051 11.7702 5.4602 11.9102 5.7002L13.4102 8.2998C13.5502 8.5398 13.4695 8.84047 13.2295 8.98047L13.2002 9L11.46 10L7.2002 12.46L8.62012 10L9.2002 9L11.1904 5.54004L11.2295 5.52051Z" fill="currentColor"/>
<path d="M7.01953 2.76953C7.15957 2.52965 7.46025 2.44987 7.7002 2.58984L10.2998 4.08984C10.5396 4.22973 10.62 4.52963 10.4805 4.76953L10.46 4.80957L8.04004 9L7.45996 10L7 10.7998V2.7998L7.01953 2.76953Z" fill="currentColor"/>
</svg>
