<svg width="16" height="16" viewBox="0 0 16 16" fill="none" xmlns="http://www.w3.org/2000/svg">
<path fill-rule="evenodd" clip-rule="evenodd" d="M3.34961 6.65035C3.34961 3.86038 5.80995 1.64982 8.66992 2.04977H8.67969C11.0097 2.37977 12.6704 4.33039 12.6504 6.69039C12.6403 7.48019 12.46 8.24998 12.0801 8.87984C11.3401 10.0998 9.29016 13.1104 8.41016 14.4004C8.21016 14.6901 7.78986 14.6901 7.58984 14.4004C6.70984 13.1104 4.65992 10.0998 3.91992 8.87984C3.53003 8.23996 3.34966 7.46017 3.34961 6.65035ZM5.87988 6.49996C5.59993 6.50001 5.3799 6.72 5.37988 6.99996C5.37988 7.27993 5.59993 7.49991 5.87988 7.49996H10.1201C10.4 7.49988 10.6201 7.27991 10.6201 6.99996C10.6201 6.72002 10.4 6.50004 10.1201 6.49996H5.87988Z" fill="black"/>
</svg>
