<svg width="16" height="16" viewBox="0 0 16 16" fill="none" xmlns="http://www.w3.org/2000/svg">
<path fill-rule="evenodd" clip-rule="evenodd" d="M3.34961 6.65035C3.34961 3.86038 5.80996 1.64982 8.66992 2.04976H8.67969C11.0097 2.37976 12.6704 4.33039 12.6504 6.69039C12.6403 7.48019 12.46 8.24997 12.0801 8.87984C11.3401 10.0998 9.29016 13.1104 8.41016 14.4004C8.21015 14.6901 7.78985 14.6901 7.58984 14.4004C6.70984 13.1104 4.65992 10.0998 3.91992 8.87984C3.53004 8.23996 3.34966 7.46016 3.34961 6.65035ZM9.87012 5.13961C9.67021 4.93983 9.36012 4.93993 9.16016 5.13961L8.00977 6.29L6.86035 5.13961C6.66047 4.93974 6.3504 4.93998 6.15039 5.13961C5.9504 5.3396 5.95041 5.64957 6.15039 5.84957L7.2998 6.99996L6.15039 8.15035C5.95039 8.35035 5.95039 8.66031 6.15039 8.86031C6.2404 8.96007 6.38015 9.00973 6.5 9.00973C6.61986 9.00973 6.74966 8.96008 6.84961 8.86031L8 7.70992L9.15039 8.86031C9.2404 8.96007 9.38015 9.00973 9.5 9.00973C9.61986 9.00973 9.74966 8.96008 9.84961 8.86031C10.0496 8.66031 10.0496 8.35035 9.84961 8.15035H9.87012L8.71973 6.99996L9.87012 5.84957C10.0698 5.64956 10.07 5.33952 9.87012 5.13961Z" fill="black"/>
</svg>
