<svg width="16" height="16" viewBox="0 0 16 16" fill="none" xmlns="http://www.w3.org/2000/svg">
<path fill-rule="evenodd" clip-rule="evenodd" d="M3.34961 6.65035C3.34961 3.86038 5.80996 1.64982 8.66992 2.04976H8.67969C11.0097 2.37976 12.6704 4.33039 12.6504 6.69039C12.6403 7.48019 12.46 8.24997 12.0801 8.87984C11.3401 10.0998 9.29016 13.1104 8.41016 14.4004C8.21015 14.6901 7.78985 14.6901 7.58984 14.4004C6.70984 13.1104 4.65992 10.0998 3.91992 8.87984C3.53004 8.23996 3.34966 7.46016 3.34961 6.65035ZM8 4.37984C7.72005 4.37984 7.50007 4.59991 7.5 4.87984V6.49996H5.87988C5.59995 6.50002 5.37989 6.72001 5.37988 6.99996C5.37988 7.27992 5.59994 7.4999 5.87988 7.49996H7.5V9.12008C7.50005 9.40003 7.72003 9.62008 8 9.62008C8.27997 9.62008 8.49995 9.40003 8.5 9.12008V7.49996H10.1201C10.4001 7.4999 10.6201 7.27992 10.6201 6.99996C10.6201 6.72001 10.4001 6.50002 10.1201 6.49996H8.5V4.87984C8.49993 4.59991 8.27995 4.37984 8 4.37984Z" fill="currentColor"/>
</svg>
