<svg width="16" height="16" viewBox="0 0 16 16" fill="none" xmlns="http://www.w3.org/2000/svg">
<path fill-rule="evenodd" clip-rule="evenodd" d="M3.34961 6.65037C3.34961 3.86043 5.81 1.64991 8.66992 2.04978H8.67969C11.0097 2.37978 12.6704 4.33041 12.6504 6.69041C12.6403 7.48023 12.46 8.24999 12.0801 8.87986C11.3401 10.0999 9.29016 13.1104 8.41016 14.4004C8.21013 14.6901 7.78983 14.6901 7.58984 14.4004C6.70984 13.1104 4.65992 10.0999 3.91992 8.87986C3.53005 8.23999 3.34967 7.46016 3.34961 6.65037ZM8 9.24998C7.59004 9.25003 7.25 9.59001 7.25 9.99998C7.25 10.4099 7.59004 10.7499 8 10.75C8.41 10.75 8.75 10.41 8.75 9.99998C8.75 9.58998 8.41 9.24998 8 9.24998ZM8 3.74021C6.90004 3.74026 6 4.64024 6 5.74021C6.00012 6.02007 6.22012 6.24016 6.5 6.24021C6.77992 6.24021 6.99988 6.0201 7 5.74021C7 5.19024 7.46004 4.74026 8 4.74021C8.53991 4.74021 8.99984 5.17983 9 5.7197V5.74998C9 6.06998 8.76016 6.38025 8.41016 6.53025L8.16016 6.62986C7.76016 6.79986 7.5 7.19009 7.5 7.62009V7.99021C7.50012 8.27007 7.72012 8.49016 8 8.49021C8.27992 8.49021 8.49988 8.2701 8.5 7.99021L8.54004 7.55955L8.79004 7.45994C9.50995 7.15997 9.98988 6.50014 10 5.78025V5.74021C10 4.64021 9.1 3.74021 8 3.74021Z" fill="black"/>
</svg>
