<svg width="16" height="16" viewBox="0 0 16 16" fill="none" xmlns="http://www.w3.org/2000/svg">
<path fill-rule="evenodd" clip-rule="evenodd" d="M5.55957 2.2202C5.83957 2.0802 6.1702 2.0802 6.4502 2.2202L9.55957 3.77C9.83957 3.91 10.1702 3.91 10.4502 3.77L13.2803 2.35984C13.6102 2.20011 14 2.44014 14 2.81004V11.23C14 11.71 13.7296 12.1401 13.3096 12.3501L10.4502 13.7798C10.1702 13.9198 9.83957 13.9198 9.55957 13.7798L6.4502 12.23C6.1702 12.09 5.83957 12.09 5.55957 12.23L2.73047 13.6401C2.40047 13.8001 2.00977 13.5599 2.00977 13.1899V4.77C2.00977 4.29 2.2802 3.85988 2.7002 3.64988L5.55957 2.2202ZM10 5.00047C9.72001 5.00048 9.5 5.22047 9.5 5.50047V12.5005C9.50025 12.7802 9.72017 13.0005 10 13.0005C10.2798 13.0005 10.4997 12.7802 10.5 12.5005V5.50047C10.5 5.22047 10.28 5.00047 10 5.00047ZM6 3.00047C5.72001 3.00048 5.5 3.22047 5.5 3.50047V10.5005C5.50025 10.7802 5.72017 11.0005 6 11.0005C6.27984 11.0005 6.49975 10.7802 6.5 10.5005V3.50047C6.5 3.22047 6.28 3.00047 6 3.00047Z" fill="black"/>
</svg>
