<svg width="16" height="16" viewBox="0 0 16 16" fill="none" xmlns="http://www.w3.org/2000/svg">
<path d="M10.5996 10.4599C11.4596 10.9399 12 11.6704 12 12.4804C11.9996 13.9602 10.2098 15.1503 8 15.1503C5.79023 15.1503 4.00038 13.9502 4 12.4804C4 11.6604 4.54039 10.9401 5.40039 10.4501C5.89028 11.18 6.38983 11.91 6.75977 12.4599C7.03977 12.8699 7.5 13.1201 8 13.1201C8.5 13.1201 8.96023 12.8797 9.24023 12.4697C9.61016 11.9198 10.1098 11.1899 10.5996 10.4501V10.4599Z" fill="currentColor"/>
<path fill-rule="evenodd" clip-rule="evenodd" d="M8.17969 1.49995C10.2697 1.58995 11.9796 3.44002 11.9297 5.53999C11.9197 6.18999 11.7602 6.81026 11.4502 7.32026C10.8402 8.33029 9.19014 10.7604 8.41016 11.9003C8.22014 12.1902 7.78985 12.1902 7.58984 11.9003C6.80986 10.7604 5.15983 8.3203 4.5498 7.32026C4.2198 6.77026 4.07031 6.10964 4.07031 5.42964C4.07055 3.19994 5.92997 1.40013 8.17969 1.49995ZM8 3.99995C7.17004 3.99995 6.50007 4.67 6.5 5.49995C6.5 6.32995 7.17 6.99995 8 6.99995C8.83 6.99995 9.5 6.32995 9.5 5.49995C9.49993 4.67 8.82996 3.99995 8 3.99995Z" fill="currentColor"/>
</svg>
