<svg width="16" height="16" viewBox="0 0 16 16" fill="none" xmlns="http://www.w3.org/2000/svg">
<path fill-rule="evenodd" clip-rule="evenodd" d="M3.34961 6.65037C3.34961 3.86043 5.81001 1.64991 8.66992 2.04978H8.67969C11.0097 2.37978 12.6704 4.3304 12.6504 6.6904C12.6403 7.48023 12.46 8.24998 12.0801 8.87986C11.3401 10.0999 9.29016 13.1104 8.41016 14.4004C8.21012 14.6901 7.78983 14.6901 7.58984 14.4004C6.70984 13.1104 4.65992 10.0999 3.91992 8.87986C3.53005 8.23999 3.34967 7.46016 3.34961 6.65037ZM10.8701 5.13962C10.6702 4.93986 10.3601 4.93988 10.1602 5.13962L7.50977 7.79001L6.36035 6.63962C6.16046 6.43978 5.85038 6.43996 5.65039 6.63962C5.45041 6.83961 5.45044 7.14958 5.65039 7.34958L7.15039 8.84958C7.24037 8.94956 7.38002 8.99995 7.5 8.99998C7.62 8.99998 7.75059 8.94958 7.85059 8.84958L10.8506 5.84958H10.8701C11.0699 5.64958 11.07 5.33956 10.8701 5.13962Z" fill="black"/>
</svg>
