<svg width="16" height="16" viewBox="0 0 16 16" fill="none" xmlns="http://www.w3.org/2000/svg">
<path fill-rule="evenodd" clip-rule="evenodd" d="M3.34961 6.65035C3.34961 3.86038 5.80996 1.64982 8.66992 2.04976H8.67969C11.0097 2.37976 12.6704 4.33039 12.6504 6.69039C12.6403 7.48019 12.46 8.24997 12.0801 8.87984C11.3401 10.0998 9.29016 13.1104 8.41016 14.4004C8.21015 14.6901 7.78985 14.6901 7.58984 14.4004C6.70984 13.1104 4.65992 10.0998 3.91992 8.87984C3.53004 8.23996 3.34966 7.46016 3.34961 6.65035ZM8 4.49996C6.90001 4.49996 6.00001 5.39997 6 6.49996C6 7.59996 6.9 8.49996 8 8.49996C9.1 8.49996 10 7.59996 10 6.49996C9.99999 5.39997 9.09999 4.49996 8 4.49996Z" fill="currentColor"/>
</svg>
