<svg width="16" height="16" viewBox="0 0 16 16" fill="none" xmlns="http://www.w3.org/2000/svg">
<path fill-rule="evenodd" clip-rule="evenodd" d="M13 2C13.55 2 14 2.45 14 3V11C14 11.55 13.55 12 13 12H10.2402C10.0802 12 9.93004 12.0404 9.79004 12.1104L6.41992 13.79C6.15002 13.93 5.84015 14 5.53027 14H3C2.45 14 2 13.55 2 13V5C2 4.45 2.45 4 3 4H5.75977C5.91977 4 6.06996 3.95965 6.20996 3.88965L9.58008 2.20996C9.84998 2.07003 10.1598 2.00004 10.4697 2H13ZM6 5C5.72 5 5.5 5.22 5.5 5.5V12.5C5.5 12.78 5.72 13 6 13C6.28 13 6.5 12.78 6.5 12.5V5.5C6.5 5.22 6.28 5 6 5ZM10 3C9.72 3 9.5 3.22 9.5 3.5V10.5C9.5 10.78 9.72 11 10 11C10.28 11 10.5 10.78 10.5 10.5V3.5C10.5 3.22 10.28 3 10 3Z" fill="black"/>
</svg>
