<svg width="16" height="16" viewBox="0 0 16 16" fill="none" xmlns="http://www.w3.org/2000/svg">
<path fill-rule="evenodd" clip-rule="evenodd" d="M8 1C9.66 1 11 2.34 11 4V12C11 13.66 9.66 15 8 15C6.34 15 5 13.66 5 12V4C5 2.34 6.34 1 8 1ZM8 10.5C7.17 10.5 6.5 11.17 6.5 12C6.5 12.83 7.17 13.5 8 13.5C8.83 13.5 9.5 12.83 9.5 12C9.5 11.17 8.83 10.5 8 10.5ZM8 6.5C7.17 6.5 6.5 7.17 6.5 8C6.5 8.83 7.17 9.5 8 9.5C8.83 9.5 9.5 8.83 9.5 8C9.5 7.17 8.83 6.5 8 6.5ZM8 2.5C7.17 2.5 6.5 3.17 6.5 4C6.5 4.83 7.17 5.5 8 5.5C8.83 5.5 9.5 4.83 9.5 4C9.5 3.17 8.83 2.5 8 2.5Z" fill="currentColor"/>
</svg>
