<svg width="16" height="16" viewBox="0 0 16 16" fill="none" xmlns="http://www.w3.org/2000/svg">
<path fill-rule="evenodd" clip-rule="evenodd" d="M2.94629 4.03289C3.31621 2.61868 4.89856 1.88848 6.21582 2.5534C6.46196 2.67791 6.56068 2.97894 6.43652 3.22527C6.31201 3.47164 6.01109 3.5704 5.76465 3.44598C5.02238 3.0714 4.12472 3.481 3.91406 4.28582L3.12109 7.3366C3.5341 7.12235 4.00259 6.99969 4.5 6.99969C5.7005 6.99969 6.73337 7.70658 7.21289 8.72527C7.44205 8.58311 7.71147 8.49969 8 8.49969C8.28823 8.49969 8.55712 8.58338 8.78613 8.72527C9.26557 7.70638 10.2994 6.99969 11.5 6.99969C11.9971 6.99969 12.4651 7.1226 12.8779 7.3366L12.0859 4.28582C11.8753 3.48102 10.9776 3.0714 10.2354 3.44598C9.98895 3.57031 9.68799 3.47156 9.56348 3.22527C9.43941 2.97896 9.53806 2.67788 9.78418 2.5534C11.0605 1.90904 12.5855 2.57464 13.0156 3.90301L13.0537 4.03289L14.4033 9.23406C14.4078 9.25136 14.4085 9.26952 14.4111 9.2868C14.467 9.51554 14.5 9.75375 14.5 9.99969C14.5 11.6565 13.1569 12.9997 11.5 12.9997C9.84315 12.9997 8.5 11.6565 8.5 9.99969L8.49023 9.8991C8.44293 9.6727 8.23938 9.49969 8 9.49969C7.76062 9.49969 7.55707 9.6727 7.50977 9.8991L7.5 9.99969C7.5 11.6565 6.15685 12.9997 4.5 12.9997C2.84315 12.9997 1.5 11.6565 1.5 9.99969C1.50003 9.75738 1.5307 9.52223 1.58496 9.29656C1.58762 9.27594 1.59035 9.25472 1.5957 9.23406L2.94629 4.03289ZM4.5 7.99969C3.39555 7.99969 2.5002 8.89529 2.5 9.99969C2.5 11.1043 3.39543 11.9997 4.5 11.9997C5.60457 11.9997 6.5 11.1043 6.5 9.99969C6.4998 8.89529 5.60445 7.99969 4.5 7.99969ZM11.5 7.99969C10.3956 7.99969 9.5002 8.89529 9.5 9.99969C9.5 11.1043 10.3954 11.9997 11.5 11.9997C12.6046 11.9997 13.5 11.1043 13.5 9.99969C13.4998 8.89529 12.6044 7.99969 11.5 7.99969Z" fill="currentColor"/>
</svg>
