<svg width="16" height="16" viewBox="0 0 16 16" fill="none" xmlns="http://www.w3.org/2000/svg">
<path fill-rule="evenodd" clip-rule="evenodd" d="M10 2.5C10.66 2.5 11.2297 2.92007 11.4297 3.54004L14.1699 9.62988C14.1793 9.6487 14.1797 9.67647 14.1797 9.67969C14.3797 10.0797 14.5 10.52 14.5 11C14.5 12.65 13.15 14 11.5 14C9.85 14 8.5 12.65 8.5 11V10.5H7.5V11C7.5 12.65 6.15 14 4.5 14C2.85 14 1.5 12.65 1.5 11C1.5 10.52 1.62031 10.0797 1.82031 9.67969C1.83013 9.65969 1.83008 9.62988 1.83008 9.62988L4.58984 3.49023C4.76984 2.92023 5.34 2.5 6 2.5C6.83 2.5 7.5 3.17 7.5 4V4.5H8.5V4C8.5 3.17 9.17 2.5 10 2.5ZM4.5 9C3.4 9 2.5 9.9 2.5 11C2.5 12.1 3.4 13 4.5 13C5.6 13 6.5 12.1 6.5 11C6.5 9.9 5.6 9 4.5 9ZM11.5 9C10.4 9 9.5 9.9 9.5 11C9.5 12.1 10.4 13 11.5 13C12.6 13 13.5 12.1 13.5 11C13.5 9.9 12.6 9 11.5 9Z" fill="black"/>
</svg>
