<svg width="16" height="16" viewBox="0 0 16 16" fill="none" xmlns="http://www.w3.org/2000/svg">
<path fill-rule="evenodd" clip-rule="evenodd" d="M9 1.5C9.83 1.5 10.5 2.17 10.5 3V4H13C13.55 4 14 4.45 14 5V12C14 12.55 13.55 13 13 13H3C2.45 13 2 12.55 2 12V5C2 4.45 2.45 4 3 4H5.5V3C5.5 2.17 6.17 1.5 7 1.5H9ZM5 5C4.72 5 4.5 5.22 4.5 5.5V11.5C4.5 11.78 4.72 12 5 12C5.28 12 5.5 11.78 5.5 11.5V5.5C5.5 5.22 5.28 5 5 5ZM11 5C10.72 5 10.5 5.22 10.5 5.5V11.5C10.5 11.78 10.72 12 11 12C11.28 12 11.5 11.78 11.5 11.5V5.5C11.5 5.22 11.28 5 11 5ZM7 2.5C6.72 2.5 6.5 2.72 6.5 3V4H9.5V3C9.5 2.72 9.28 2.5 9 2.5H7Z" fill="currentColor"/>
</svg>
