<svg width="16" height="16" viewBox="0 0 16 16" fill="none" xmlns="http://www.w3.org/2000/svg">
<path fill-rule="evenodd" clip-rule="evenodd" d="M9.65039 2.14019C9.85039 1.94027 10.1604 1.94022 10.3604 2.14019C10.56 2.34018 10.5602 2.65025 10.3604 2.85016L10.0859 3.12359C10.3471 3.51841 10.4999 3.99111 10.5 4.49957V5.09039C10.7768 5.19062 11.0168 5.36824 11.1924 5.59723L11.3604 5.43023C11.4503 5.34024 11.5098 5.20963 11.5098 5.07965V3.4898C11.5098 3.20996 11.7299 2.98993 12.0098 2.9898C12.2897 2.9898 12.5097 3.20988 12.5098 3.4898V5.07965C12.5098 5.47963 12.3503 5.8602 12.0703 6.14019L11.5 6.71051V6.99957H12C12.8299 6.99957 13.4998 7.66976 13.5 8.49957V9.49957C13.5 9.77957 13.28 9.99957 13 9.99957C12.72 9.99957 12.5 9.77957 12.5 9.49957V8.49957C12.4998 8.21976 12.2799 7.99957 12 7.99957H11.5V9.49957C11.5 9.78337 11.4644 10.0594 11.4004 10.3238L11.9697 10.8101C12.2997 11.1001 12.4999 11.5099 12.5 11.9498V13.4898C12.5 13.7698 12.28 13.9898 12 13.9898V13.9996C11.72 13.9996 11.5 13.7796 11.5 13.4996V11.9605C11.5 11.8105 11.4403 11.6696 11.3203 11.5796L10.9971 11.3043C10.3837 12.3194 9.27022 12.9996 8 12.9996C6.73241 12.9996 5.62006 12.3228 5.00586 11.3111L4.67969 11.5904C4.56991 11.6804 4.5 11.8204 4.5 11.9703V13.5103C4.49983 13.7902 4.27989 14.0103 4 14.0103V13.9996C3.72 13.9996 3.5 13.7796 3.5 13.4996V11.9595C3.50013 11.5197 3.69039 11.0998 4.03027 10.8199L4.60059 10.3316C4.53534 10.0649 4.5 9.78609 4.5 9.49957V7.99957H4C3.72013 7.99957 3.50021 8.21976 3.5 8.49957V9.49957C3.5 9.77957 3.28 9.99957 3 9.99957C2.72 9.99957 2.5 9.77957 2.5 9.49957V8.49957C2.50022 7.66976 3.17013 6.99957 4 6.99957H4.5V6.69977L3.94043 6.14019C3.66043 5.86019 3.5 5.47965 3.5 5.07965V3.4898C3.50008 3.20988 3.72005 2.9898 4 2.9898C4.27995 2.9898 4.49992 3.20988 4.5 3.4898V5.07965C4.5 5.20965 4.55039 5.34023 4.65039 5.43023L4.81152 5.59137C4.98677 5.36507 5.22549 5.18981 5.5 5.09039V4.49957C5.50008 3.98849 5.65336 3.5128 5.91699 3.11676L5.65039 2.85016C5.45039 2.65016 5.45039 2.34019 5.65039 2.14019C5.85039 1.94027 6.16038 1.94022 6.36035 2.14019L6.62988 2.40973C7.02353 2.15106 7.4941 1.99957 8 1.99957C8.50813 1.99957 8.98031 2.15287 9.375 2.41363L9.65039 2.14019ZM7 4.99957C6.72013 4.99957 6.50021 5.21976 6.5 5.49957C6.5 5.77957 6.72 5.99957 7 5.99957H7.5V11.4996C7.5 11.7796 7.72 11.9996 8 11.9996C8.28 11.9996 8.5 11.7796 8.5 11.4996V5.99957H9C9.28 5.99957 9.5 5.77957 9.5 5.49957C9.49979 5.21976 9.27987 4.99957 9 4.99957H7Z" fill="currentColor"/>
</svg>
