<svg width="16" height="16" viewBox="0 0 16 16" fill="none" xmlns="http://www.w3.org/2000/svg">
<path fill-rule="evenodd" clip-rule="evenodd" d="M12 2C13.1046 2 14 2.89543 14 4V12C14 13.1046 13.1046 14 12 14H4C2.89543 14 2 13.1046 2 12V4C2 2.89543 2.89543 2 4 2H12ZM10.5 11.5C10.2239 11.5 10 11.7239 10 12V12.0098C10 12.2859 10.2239 12.5098 10.5 12.5098C10.7761 12.5098 11 12.2859 11 12.0098V12C11 11.7239 10.7761 11.5 10.5 11.5ZM6.91406 9.08691C6.71882 8.89167 6.4023 8.89171 6.20703 9.08691L5.5 9.79297L4.79395 9.08691C4.59869 8.89166 4.28218 8.89167 4.08691 9.08691C3.89165 9.28218 3.89165 9.59868 4.08691 9.79395L4.79297 10.5L4.08691 11.207C3.89171 11.4023 3.89167 11.7188 4.08691 11.9141C4.2822 12.1088 4.59884 12.1091 4.79395 11.9141L5.5 11.207L6.20703 11.9141C6.40234 12.1088 6.71898 12.1091 6.91406 11.9141C7.10913 11.719 7.10878 11.4023 6.91406 11.207L6.20703 10.5L6.91406 9.79395C7.1091 9.59884 7.10881 9.2822 6.91406 9.08691ZM9 10C8.72386 10 8.5 10.2239 8.5 10.5C8.5 10.7761 8.72386 11 9 11H12C12.2761 11 12.5 10.7761 12.5 10.5C12.5 10.2239 12.2761 10 12 10H9ZM10.5 8.5C10.2239 8.5 10 8.72386 10 9V9.00977C10 9.28591 10.2239 9.50977 10.5 9.50977C10.7761 9.50977 11 9.28591 11 9.00977V9C11 8.72386 10.7761 8.5 10.5 8.5ZM5.5 3.5C5.22386 3.5 5 3.72386 5 4V5H4C3.72386 5 3.5 5.22386 3.5 5.5C3.5 5.77614 3.72386 6 4 6H5V7C5 7.27614 5.22386 7.5 5.5 7.5C5.77614 7.5 6 7.27614 6 7V6H7C7.27614 6 7.5 5.77614 7.5 5.5C7.5 5.22386 7.27614 5 7 5H6V4C6 3.72386 5.77614 3.5 5.5 3.5ZM9 5C8.72386 5 8.5 5.22386 8.5 5.5C8.5 5.77614 8.72386 6 9 6H12C12.2761 6 12.5 5.77614 12.5 5.5C12.5 5.22386 12.2761 5 12 5H9Z" fill="black"/>
</svg>
