<svg width="16" height="16" viewBox="0 0 16 16" fill="none" xmlns="http://www.w3.org/2000/svg">
<path fill-rule="evenodd" clip-rule="evenodd" d="M8 1.5C8.28 1.5 8.5 1.72 8.5 2V2.56543C9.35994 2.78903 10 3.57261 10 4.5C10 5.14345 9.69064 5.71654 9.21484 6.08301L10.5908 9.34961C11.1551 8.72797 11.5 7.90377 11.5 7C11.5 6.72003 11.72 6.50005 12 6.5C12.28 6.5 12.5 6.72 12.5 7C12.5 8.32427 11.9232 9.51639 11.0088 10.3408L12.4697 13.8096C12.5797 14.0595 12.4601 14.3599 12.2002 14.46C12.1402 14.49 12.0698 14.5 12.0098 14.5H12C11.8 14.5 11.62 14.3894 11.54 14.1895L10.1709 10.9395C9.52663 11.2961 8.7866 11.5 8 11.5C7.2347 11.5 6.4953 11.3082 5.83594 10.9443L4.46973 14.1904C4.38961 14.3801 4.1996 14.5 4.00977 14.5H4C3.94014 14.5 3.87044 14.4898 3.81055 14.46C3.56055 14.35 3.44004 14.0596 3.54004 13.8096L5.12207 10.0527C5.13127 10.0233 5.14304 9.99468 5.1582 9.9668L6.79199 6.08789C6.31246 5.72166 6 5.1464 6 4.5C6 3.57267 6.64014 2.78908 7.5 2.56543V2C7.5 1.72003 7.72004 1.50005 8 1.5ZM8.29004 6.47559C8.19517 6.48954 8.09858 6.5 8 6.5C7.90409 6.5 7.81018 6.48979 7.71777 6.47656L6.22754 10.0156C6.76434 10.333 7.37111 10.5 8 10.5C8.64959 10.5 9.2574 10.3203 9.7793 10.0107L8.29004 6.47559Z" fill="black"/>
</svg>
