<svg width="16" height="16" viewBox="0 0 16 16" fill="none" xmlns="http://www.w3.org/2000/svg">
<path d="M12.0003 11C12.0002 11.55 10.2102 12.9999 8.00029 13C5.79035 13 4.00038 11.55 4.00029 11V9.12014L6.99053 10.6201C7.31041 10.78 7.65044 10.8604 8.00029 10.8604C8.35019 10.8603 8.70014 10.7801 9.01006 10.6201L12.0003 9.12014V11Z" fill="currentColor"/>
<path d="M7.43975 3.26955C7.78962 3.08961 8.20994 3.08974 8.55986 3.26955L13.5501 5.76955C13.7699 5.87946 13.8797 6.06973 13.9397 6.26955C13.9697 6.33955 14.0003 6.42002 14.0003 6.50002V10C14.0003 10.2799 13.7802 10.4999 13.5003 10.5C13.2203 10.5 13.0003 10.28 13.0003 10V7.50002L8.55986 9.71975C8.20988 9.8997 7.78972 9.89973 7.43975 9.71975L2.45049 7.21975C1.85049 6.91975 1.85049 6.06955 2.45049 5.76955L7.43975 3.26955Z" fill="currentColor"/>
</svg>
