<svg width="16" height="16" viewBox="0 0 16 16" fill="none" xmlns="http://www.w3.org/2000/svg">
<path d="M5.99975 11.5C6.55203 11.5 6.99975 11.9477 6.99975 12.5C6.99975 13.0523 6.55203 13.5 5.99975 13.5C5.44757 13.4999 4.99975 13.0522 4.99975 12.5C4.99975 11.9478 5.44757 11.5001 5.99975 11.5Z" fill="currentColor"/>
<path d="M9.99975 11.5C10.552 11.5 10.9997 11.9477 10.9997 12.5C10.9997 13.0523 10.552 13.5 9.99975 13.5C9.44757 13.4999 8.99975 13.0522 8.99975 12.5C8.99975 11.9478 9.44757 11.5001 9.99975 11.5Z" fill="currentColor"/>
<path d="M6.70971 3C6.99971 3 7.22971 3.25004 7.20971 3.54004L6.78002 9.54004C6.76 9.80001 6.54 9.99999 6.28002 10H5.70971C5.44984 9.99985 5.22971 9.79993 5.20971 9.54004L4.78002 3.54004C4.76002 3.25004 4.99002 3 5.28002 3H6.70971Z" fill="currentColor"/>
<path d="M10.7097 3C10.9997 3 11.2297 3.25004 11.2097 3.54004L10.78 9.54004C10.76 9.80001 10.54 9.99999 10.28 10H9.70971C9.44984 9.99985 9.22971 9.79993 9.20971 9.54004L8.78002 3.54004C8.76002 3.25004 8.99002 3 9.28002 3H10.7097Z" fill="currentColor"/>
</svg>
