<svg width="16" height="16" viewBox="0 0 16 16" fill="none" xmlns="http://www.w3.org/2000/svg">
<path fill-rule="evenodd" clip-rule="evenodd" d="M12.6499 2.64982C12.8399 2.44988 13.1601 2.44992 13.3501 2.64982C13.5501 2.83981 13.5501 3.16001 13.3501 3.35002L12.1899 4.51017C12.4599 4.71017 12.7104 4.92959 12.9604 5.15959C13.6404 5.82958 14.2397 6.62018 14.7397 7.51017C14.9097 7.81012 14.9097 8.18969 14.7397 8.48966C13.1998 11.2195 10.7503 13.0002 8.00048 13.0004C7.16053 13.0004 6.35029 12.8397 5.59032 12.5297C5.26033 12.3997 4.95012 12.25 4.64013 12.06L3.35009 13.35C3.26019 13.4499 3.13034 13.5003 3.00048 13.5004C2.87048 13.5004 2.7399 13.45 2.6499 13.35C2.44998 13.16 2.44992 12.8398 2.6499 12.6498L12.6499 2.64982ZM6.26025 10.4399C6.55021 10.6498 6.88002 10.8101 7.22997 10.8901C7.46997 10.9601 7.73048 11.0004 8.00048 11.0004C9.66016 11.0002 11.0003 9.66009 11.0005 8.00041C11.0005 7.73041 10.9601 7.4699 10.8901 7.2299C10.8101 6.87995 10.6499 6.55013 10.4399 6.26017L6.26025 10.4399Z" fill="currentColor"/>
<path d="M8.00048 3.00041C8.84022 3.00046 9.64988 3.16027 10.4097 3.47013L8.77001 5.10978C8.53016 5.03983 8.27029 5.00045 8.00048 5.00041C6.34048 5.00041 5.00048 6.34041 5.00048 8.00041C5.00052 8.27022 5.03991 8.53009 5.10986 8.76994L3.04052 10.8403C2.36052 10.1703 1.76025 9.37966 1.26025 8.48966C1.09036 8.18971 1.09031 7.8101 1.26025 7.51017C2.80025 4.78017 5.25048 3.00041 8.00048 3.00041Z" fill="currentColor"/>
</svg>
