<svg width="16" height="16" viewBox="0 0 16 16" fill="none" xmlns="http://www.w3.org/2000/svg">
<path fill-rule="evenodd" clip-rule="evenodd" d="M11.5 5C13.1569 5 14.5 6.34315 14.5 8C14.5 9.65685 13.1569 11 11.5 11C9.84315 11 8.5 9.65685 8.5 8L8.49023 7.89941C8.44307 7.67284 8.2395 7.5 8 7.5C7.7605 7.5 7.55693 7.67284 7.50977 7.89941L7.5 8C7.5 9.65685 6.15685 11 4.5 11C2.84315 11 1.5 9.65685 1.5 8C1.5 6.34315 2.84315 5 4.5 5C5.70062 5 6.73343 5.70673 7.21289 6.72559C7.44209 6.58336 7.7114 6.5 8 6.5C8.2883 6.5 8.55709 6.58362 8.78613 6.72559C9.26551 5.70652 10.2992 5 11.5 5ZM4.5 6C3.39543 6 2.5 6.89543 2.5 8C2.5 9.10457 3.39543 10 4.5 10C5.60457 10 6.5 9.10457 6.5 8C6.5 6.89543 5.60457 6 4.5 6ZM11.5 6C10.3954 6 9.5 6.89543 9.5 8C9.5 9.10457 10.3954 10 11.5 10C12.6046 10 13.5 9.10457 13.5 8C13.5 6.89543 12.6046 6 11.5 6Z" fill="currentColor"/>
</svg>
