<svg width="16" height="16" viewBox="0 0 16 16" fill="none" xmlns="http://www.w3.org/2000/svg">
<path fill-rule="evenodd" clip-rule="evenodd" d="M12 2C13.1 2 14 2.9 14 4V12C14 13.1 13.1 14 12 14H4C2.9 14 2 13.1 2 12V4C2 2.9 2.9 2 4 2H12ZM6.99023 4.50977C6.76023 4.51977 6.57027 4.69016 6.53027 4.91016L5.82031 8.48047L5.46973 7.78027C5.37973 7.61027 5.20953 7.5 5.01953 7.5H3.51953C3.23975 7.50025 3.01953 7.72016 3.01953 8C3.01953 8.27984 3.23975 8.49975 3.51953 8.5H4.70996L5.57031 10.2197C5.66031 10.4097 5.87008 10.5202 6.08008 10.4902C6.29006 10.4602 6.46 10.2998 6.5 10.0898L7.12988 6.94043L8.53027 11.1504C8.59043 11.3502 8.79015 11.4902 9 11.4902H9.03027C9.26016 11.4801 9.45025 11.3098 9.49023 11.0898L10.2002 7.51953L10.5498 8.21973C10.6398 8.38973 10.81 8.5 11 8.5H12.5098C12.7898 8.5 13.0098 8.28 13.0098 8C13.0098 7.72 12.7898 7.5 12.5098 7.5H11.3203L10.46 5.78027C10.37 5.59034 10.1601 5.47988 9.9502 5.50977C9.7402 5.53977 9.57027 5.70016 9.53027 5.91016L8.90039 9.05957L7.5 4.84961C7.41994 4.63988 7.22001 4.49988 6.99023 4.50977Z" fill="black"/>
</svg>
