<svg width="16" height="16" viewBox="0 0 16 16" fill="none" xmlns="http://www.w3.org/2000/svg">
<path d="M12.88 5.2L8.87999 2.29C8.34999 1.91 7.63999 1.91 7.10999 2.29L3.10999 5.2C2.71999 5.48 2.48999 5.93 2.48999 6.41V12.5C2.48999 13.05 2.93999 13.5 3.48999 13.5H5.48999C6.03999 13.5 6.48999 13.05 6.48999 12.5V10C6.48999 9.72 6.70999 9.5 6.98999 9.5H8.98999C9.26999 9.5 9.48999 9.72 9.48999 10V12.5C9.48999 13.05 9.93999 13.5 10.49 13.5H12.49C13.04 13.5 13.49 13.05 13.49 12.5V6.41C13.49 5.93 13.26 5.48 12.87 5.2H12.88Z" fill="black"/>
</svg>
