<svg width="16" height="16" viewBox="0 0 16 16" fill="none" xmlns="http://www.w3.org/2000/svg">
<path d="M7.70016 2.10959C7.88002 1.97992 8.11993 1.9799 8.29977 2.10959L10.2998 3.60959C10.4298 3.69958 10.5 3.85 10.5 4.00998V7.50022C10.4999 7.66012 10.4297 7.80966 10.2998 7.89963L8.49997 9.24924V9.63693L11.1797 10.5305C11.3296 10.5805 11.4499 10.7 11.5 10.8498L12.5 13.8498C12.59 14.1098 12.4497 14.3997 12.1797 14.4797C12.1297 14.4997 12.0695 14.51 12.0195 14.51L12 14.5002C11.7901 14.5002 11.6003 14.3702 11.5302 14.1604L10.6103 11.4006L8.49997 10.6936V13.0002C8.49989 13.2801 8.2799 13.5002 7.99997 13.5002C7.72002 13.5002 7.50005 13.2801 7.49997 13.0002V10.7004L5.41013 11.4006L4.4902 14.1604C4.40017 14.4202 4.12022 14.5596 3.86032 14.4797C3.60032 14.3897 3.46001 14.1098 3.54001 13.8498L4.54001 10.8498C4.59007 10.7 4.71042 10.5805 4.86032 10.5305L7.49997 9.65061V9.24924L5.70016 7.89963C5.57023 7.80966 5.50003 7.66013 5.49997 7.50022V4.00998C5.49999 3.85 5.57018 3.69958 5.70016 3.60959L7.70016 2.10959Z" fill="black"/>
</svg>
