<svg width="16" height="16" viewBox="0 0 16 16" fill="none" xmlns="http://www.w3.org/2000/svg">
<path fill-rule="evenodd" clip-rule="evenodd" d="M9 2.5C9.83 2.5 10.5 3.17 10.5 4V4.5H13C13.55 4.5 14 4.95 14 5.5V11.5C14 12.05 13.55 12.5 13 12.5H3C2.45 12.5 2 12.05 2 11.5V5.5C2 4.95 2.45 4.5 3 4.5H5.5V4C5.5 3.17 6.17 2.5 7 2.5H9ZM10.0098 6C9.72987 5.99015 9.5 6.25035 9.5 6.53027V7H6.5V6.5C6.5 6.22 6.28977 6.01 6.00977 6C5.72987 5.99015 5.5 6.25035 5.5 6.53027V7H3.5C3.22 7 3 7.22 3 7.5C3 7.78 3.22 8 3.5 8H5.5V8.5C5.5 8.78 5.71023 8.99 5.99023 9C6.27013 9.00985 6.5 8.74965 6.5 8.46973V8H9.5V8.5C9.5 8.78 9.71023 8.99 9.99023 9C10.2701 9.00985 10.5 8.74965 10.5 8.46973V8H12.5C12.78 8 13 7.78 13 7.5C13 7.22 12.78 7 12.5 7H10.5V6.5C10.5 6.22 10.2898 6.01 10.0098 6ZM7 3.5C6.72 3.5 6.5 3.72 6.5 4V4.5H9.5V4C9.5 3.72 9.28 3.5 9 3.5H7Z" fill="currentColor"/>
</svg>
