<svg width="16" height="16" viewBox="0 0 16 16" fill="none" xmlns="http://www.w3.org/2000/svg">
<path fill-rule="evenodd" clip-rule="evenodd" d="M13.5 3C13.78 3 14 3.22 14 3.5V5.5C14 5.78 13.78 6 13.5 6H13V12C13 12.55 12.55 13 12 13H4C3.45 13 3 12.55 3 12V6H2.5C2.22 6 2 5.78 2 5.5V3.5C2 3.22 2.22 3 2.5 3H13.5ZM7 8.5C6.72 8.5 6.5 8.72 6.5 9C6.5 9.28 6.72 9.5 7 9.5H9C9.28 9.5 9.5 9.28 9.5 9C9.5 8.72 9.28 8.5 9 8.5H7ZM4.5 6C4.22 6 4 6.22 4 6.5C4 6.78 4.22 7 4.5 7H11.5C11.78 7 12 6.78 12 6.5C12 6.22 11.78 6 11.5 6H4.5Z" fill="currentColor"/>
</svg>
