<svg width="16" height="16" viewBox="0 0 16 16" fill="none" xmlns="http://www.w3.org/2000/svg">
<path d="M7.53995 6.55957C7.72005 6.16005 8.28969 6.16012 8.45988 6.55957L9.83976 9.74023C10.3997 11.0502 9.42989 12.5 7.99991 12.5C6.56006 12.4999 5.60025 11.0501 6.16007 9.74023L7.53995 6.55957Z" fill="black"/>
<path d="M7.99991 3.5C11.6899 3.5 14.7104 6.36047 14.9804 9.98047C15.0001 10.2601 14.7601 10.4998 14.4804 10.5H10.9999C10.9999 10.11 10.9197 9.71961 10.7597 9.34961L9.3798 6.16992C9.13976 5.62001 8.59986 5.26953 7.99991 5.26953C7.39998 5.26958 6.86003 5.62 6.62003 6.16992L5.24015 9.34961C5.08015 9.71961 4.99991 10.1 4.99991 10.5H1.52042C1.24057 10.5 1.00071 10.2603 1.02042 9.98047C1.29042 6.35051 4.30997 3.50006 7.99991 3.5Z" fill="black"/>
</svg>
