<svg width="16" height="16" viewBox="0 0 16 16" fill="none" xmlns="http://www.w3.org/2000/svg">
<path d="M8.2998 1.97014C10.3198 1.87014 11.9902 3.47014 11.9902 5.47014C11.9902 5.8401 11.9303 6.21027 11.8203 6.55022L9.88965 12.1899C9.51965 13.2599 8.67961 13.9301 7.59961 13.9701C6.16988 14.0299 5.00014 12.77 5 11.3403V10.9799C5.00004 10.6999 5.22003 10.4799 5.5 10.4799H7C7.83 10.4799 8.5 9.80991 8.5 8.97991C8.49996 8.32995 8.07997 7.77974 7.5 7.56975V5.47991C7.50005 4.92995 7.95003 4.47991 8.5 4.47991C9.04997 4.47991 9.49995 4.92995 9.5 5.47991V5.97991C9.5 6.25991 9.72 6.47991 10 6.47991C10.28 6.47991 10.5 6.25991 10.5 5.97991V5.47991C10.4999 4.26999 9.41008 3.30027 8.16016 3.51018C7.18016 3.67018 6.5 4.60026 6.5 5.84026V7.98968C6.5 8.25968 6.71047 8.49968 6.98047 8.48968C7.26016 8.47995 7.49981 8.70998 7.5 8.98968C7.5 9.26968 7.28 9.48968 7 9.48968H5.5C5.22 9.48968 5 9.26968 5 8.98968V5.68987C5.00007 3.80007 6.41984 2.10066 8.30957 2.00042L8.2998 1.97014Z" fill="currentColor"/>
</svg>
