<svg width="16" height="16" viewBox="0 0 16 16" fill="none" xmlns="http://www.w3.org/2000/svg">
<path d="M3 11C3.55228 11 4 11.4477 4 12C4 12.5523 3.55228 13 3 13C2.44772 13 2 12.5523 2 12C2 11.4477 2.44772 11 3 11Z" fill="currentColor"/>
<path d="M13.5 11C13.7761 11 14 11.2239 14 11.5V12.5C14 12.7761 13.7761 13 13.5 13H5.5C5.22386 13 5 12.7761 5 12.5V11.5C5 11.2239 5.22386 11 5.5 11H13.5Z" fill="currentColor"/>
<path d="M3 7C3.55228 7 4 7.44772 4 8C4 8.55228 3.55228 9 3 9C2.44772 9 2 8.55228 2 8C2 7.44772 2.44772 7 3 7Z" fill="currentColor"/>
<path d="M13.5 7C13.7761 7 14 7.22386 14 7.5V8.5C14 8.77614 13.7761 9 13.5 9H5.5C5.22386 9 5 8.77614 5 8.5V7.5C5 7.22386 5.22386 7 5.5 7H13.5Z" fill="currentColor"/>
<path d="M3 3C3.55228 3 4 3.44772 4 4C4 4.55228 3.55228 5 3 5C2.44772 5 2 4.55228 2 4C2 3.44772 2.44772 3 3 3Z" fill="currentColor"/>
<path d="M13.5 3C13.7761 3 14 3.22386 14 3.5V4.5C14 4.77614 13.7761 5 13.5 5H5.5C5.22386 5 5 4.77614 5 4.5V3.5C5 3.22386 5.22386 3 5.5 3H13.5Z" fill="currentColor"/>
</svg>
