<svg width="16" height="16" viewBox="0 0 16 16" fill="none" xmlns="http://www.w3.org/2000/svg">
<path fill-rule="evenodd" clip-rule="evenodd" d="M7.27992 2.59961C7.49007 1.79999 8.49048 1.79995 8.71059 2.59961L10.4498 9H11.32C11.73 9 12.1006 9.24988 12.2506 9.62988L13.5905 12.9697H13.5797C13.7697 13.4596 13.4103 13.9998 12.8805 14H3.10023C2.57023 14 2.20004 13.4597 2.40004 12.9697L3.73988 9.62988C3.88988 9.24988 4.26055 9 4.67055 9H5.53969L7.27992 2.59961ZM5.39027 10.6904C5.22027 10.4704 4.90008 10.4404 4.69008 10.6104C4.47039 10.7803 4.44034 11.0897 4.61 11.3096C5.22 12.0696 6.45062 12.5 8.00062 12.5C9.5504 12.4999 10.7803 12.0595 11.3903 11.3096C11.5599 11.0996 11.5299 10.7803 11.3102 10.6104C11.1002 10.4404 10.78 10.4804 10.61 10.6904C10.4595 10.8808 9.80917 11.4999 8.00062 11.5C6.19171 11.5 5.54078 10.8808 5.39027 10.6904Z" fill="black"/>
</svg>
