<svg width="16" height="16" viewBox="0 0 16 16" fill="none" xmlns="http://www.w3.org/2000/svg">
<path d="M10.4599 7.38965C10.8699 7.22965 11.2703 7.63004 11.1103 8.04004L11.12 8.0498L9.83976 11.2695C9.30976 12.5895 7.59976 12.9299 6.58976 11.9199C5.56998 10.8999 5.92023 9.18989 7.24015 8.66992L10.4599 7.38965Z" fill="black"/>
<path d="M7.99991 3.49023C11.6898 3.49023 14.7103 6.34984 14.9804 9.96973C15.0004 10.2496 14.7602 10.49 14.4804 10.4902H11.2099L12.04 8.40039C12.26 7.85039 12.1299 7.21004 11.7099 6.79004C11.29 6.37018 10.6604 6.24019 10.1005 6.45996L6.8798 7.74023C6.48993 7.89023 6.15996 8.11047 5.87003 8.40039C5.32022 8.94032 4.99998 9.68992 4.99991 10.4697V10.5H1.52042C1.24057 10.5 1.00072 10.2603 1.02042 9.98047C1.29042 6.35051 4.30997 3.50007 7.99991 3.5V3.49023Z" fill="black"/>
</svg>
