<svg width="16" height="16" viewBox="0 0 16 16" fill="none" xmlns="http://www.w3.org/2000/svg">
<path d="M6.5 2H3C2.44772 2 2 2.44772 2 3V6.5C2 7.05228 2.44772 7.5 3 7.5H6.5C7.05228 7.5 7.5 7.05228 7.5 6.5V3C7.5 2.44772 7.05228 2 6.5 2Z" fill="black"/>
<path d="M13 2H9.5C8.94772 2 8.5 2.44772 8.5 3V6.5C8.5 7.05228 8.94772 7.5 9.5 7.5H13C13.5523 7.5 14 7.05228 14 6.5V3C14 2.44772 13.5523 2 13 2Z" fill="black"/>
<path d="M6.5 8.5H3C2.44772 8.5 2 8.94772 2 9.5V13C2 13.5523 2.44772 14 3 14H6.5C7.05228 14 7.5 13.5523 7.5 13V9.5C7.5 8.94772 7.05228 8.5 6.5 8.5Z" fill="black"/>
<path d="M13 8.5H9.5C8.94772 8.5 8.5 8.94772 8.5 9.5V13C8.5 13.5523 8.94772 14 9.5 14H13C13.5523 14 14 13.5523 14 13V9.5C14 8.94772 13.5523 8.5 13 8.5Z" fill="black"/>
</svg>
