<svg width="16" height="16" viewBox="0 0 16 16" fill="none" xmlns="http://www.w3.org/2000/svg">
<path d="M8.41985 10.9496C8.56985 10.9296 8.6997 11.0002 8.7597 11.1302L9.67962 13.3597C9.74962 13.5397 9.65966 13.7501 9.46966 13.8001C8.47993 14.05 7.47019 14.04 6.52044 13.8001C6.33044 13.7601 6.24048 13.5495 6.31048 13.3695L7.2304 11.14C7.29043 11.0101 7.43029 10.9403 7.57024 10.9603C7.86008 11.0003 8.14001 11.0003 8.41985 10.9603V10.9496Z" fill="currentColor"/>
<path d="M10.3896 9.80015C10.4795 9.69024 10.6298 9.63004 10.7597 9.6898L12.9902 10.6097C13.17 10.6897 13.25 10.9097 13.1503 11.0697C12.6504 11.9095 11.9402 12.6395 11.0605 13.1595C10.8905 13.2595 10.6696 13.1802 10.5995 13.0003L9.67962 10.7699C9.61976 10.6299 9.67003 10.4897 9.78997 10.3998C10.0198 10.2299 10.2197 10.03 10.3896 9.80015Z" fill="currentColor"/>
<path d="M5.2304 9.68003C5.3703 9.62024 5.50961 9.67047 5.59954 9.79038C5.76953 10.0204 5.97015 10.22 6.20013 10.39C6.31005 10.48 6.37042 10.6302 6.31048 10.7601L5.38958 12.9896C5.30958 13.1696 5.08962 13.2498 4.92962 13.1498C4.08977 12.6498 3.3597 11.9398 2.83977 11.0599C2.7399 10.89 2.82002 10.67 2.99993 10.6L5.2304 9.68003Z" fill="currentColor"/>
<path d="M13.3603 6.31968C13.5401 6.24997 13.7496 6.34001 13.7997 6.52964C14.0497 7.51962 14.0397 8.52985 13.7997 9.47984C13.7597 9.66984 13.55 9.7598 13.37 9.6898L11.1396 8.76988C11.0098 8.70979 10.94 8.56987 10.9599 8.43003C10.9999 8.14018 10.9998 7.86028 10.9599 7.58042H10.9501C10.9301 7.43043 10.9998 7.29961 11.1298 7.2396L13.3603 6.31968Z" fill="currentColor"/>
<path d="M2.20989 6.51988C2.24989 6.33005 2.45968 6.2402 2.63958 6.30992L4.86028 7.22984C4.99008 7.28985 5.05983 7.42984 5.03997 7.56968C4.99997 7.85968 4.99997 8.14027 5.03997 8.42027C5.05983 8.57007 4.99008 8.70011 4.86028 8.76011L2.65032 9.67027C2.47042 9.74023 2.26003 9.6501 2.20989 9.46031C1.95989 8.47031 1.96989 7.45988 2.20989 6.51988Z" fill="currentColor"/>
<path d="M10.6103 3.01988C10.6903 2.84 10.9103 2.75975 11.0702 2.85972C11.9101 3.35966 12.6196 4.05997 13.1396 4.9398C13.2395 5.10967 13.1601 5.32958 12.9804 5.39976L10.7704 6.30992V6.31968C10.6306 6.37962 10.4903 6.33003 10.4003 6.21031C10.2303 5.98031 10.0297 5.77972 9.79974 5.60972C9.68991 5.5197 9.63041 5.36949 9.69036 5.2396L10.6103 3.01988Z" fill="currentColor"/>
<path d="M4.92962 2.84019C5.09962 2.74019 5.31958 2.82035 5.38958 3.00035L6.31048 5.22984V5.21031C6.37014 5.3402 6.31998 5.49053 6.20013 5.58042C5.98018 5.7504 5.7695 5.95008 5.59954 6.18003C5.50963 6.28972 5.36018 6.34996 5.2304 6.29038L3.02044 5.38023C2.84044 5.31023 2.76028 5.09003 2.86028 4.93003C3.36021 4.09018 4.04983 3.36016 4.92962 2.84019Z" fill="currentColor"/>
<path d="M6.52044 2.1898C7.51029 1.93992 8.51004 1.97035 9.45989 2.21031C9.64989 2.25031 9.73985 2.45999 9.66985 2.63999L8.7597 4.84995V4.85972C8.6997 4.98972 8.55985 5.06038 8.41985 5.04038C8.12995 5.0004 7.85016 5.00041 7.57024 5.04038C7.42024 5.06038 7.2904 4.98972 7.2304 4.85972L6.31048 2.63023C6.23048 2.45023 6.33044 2.2398 6.52044 2.1898Z" fill="currentColor"/>
</svg>
