<svg width="16" height="16" viewBox="0 0 16 16" fill="none" xmlns="http://www.w3.org/2000/svg">
<path d="M13 3H3C2.45 3 2 3.45 2 4V12C2 12.55 2.45 13 3 13H13C13.55 13 14 12.55 14 12V4C14 3.45 13.55 3 13 3ZM5 4.5H11C11.28 4.5 11.5 4.72 11.5 5C11.5 5.28 11.28 5.5 11 5.5H5C4.72 5.5 4.5 5.28 4.5 5C4.5 4.72 4.72 4.5 5 4.5ZM10.5 11H5.5C4.4 11 3.5 10.1 3.5 9C3.5 7.9 4.4 7 5.5 7C6.6 7 7.5 7.9 7.5 9C7.5 9.37 7.39 9.7 7.22 10H8.78C8.61 9.7 8.5 9.37 8.5 9C8.5 7.9 9.4 7 10.5 7C11.6 7 12.5 7.9 12.5 9C12.5 10.1 11.6 11 10.5 11Z" fill="black"/>
<path d="M5.5 10C6.05228 10 6.5 9.55228 6.5 9C6.5 8.44772 6.05228 8 5.5 8C4.94772 8 4.5 8.44772 4.5 9C4.5 9.55228 4.94772 10 5.5 10Z" fill="black"/>
<path d="M10.5 10C11.0523 10 11.5 9.55228 11.5 9C11.5 8.44772 11.0523 8 10.5 8C9.94772 8 9.5 8.44772 9.5 9C9.5 9.55228 9.94772 10 10.5 10Z" fill="black"/>
</svg>
