<svg width="16" height="16" viewBox="0 0 16 16" fill="none" xmlns="http://www.w3.org/2000/svg">
<path fill-rule="evenodd" clip-rule="evenodd" d="M8.18016 6.99986C8.64022 5.65995 10.0401 4.76042 11.6001 5.06041H11.6304C12.8001 5.29051 13.7501 6.24986 13.9702 7.42955C14.3202 9.33955 12.87 10.9999 11.02 10.9999C9.71002 10.9998 8.59969 10.1699 8.19969 8.99986H6.02L5.36961 9.65026C5.1696 9.84991 4.85954 9.85014 4.65965 9.65026L4.01024 8.99986L3.35985 9.65026C3.15986 9.85002 2.84981 9.85014 2.64989 9.65026L1.35985 8.36022C1.15992 8.16029 1.16007 7.85026 1.35985 7.65026L1.85985 7.15026C1.94985 7.05026 2.08043 6.99986 2.21043 6.99986H8.18016ZM11.0005 6.49986C10.7205 6.49986 10.5005 6.71993 10.5005 6.99986V8.99986C10.5005 9.27986 10.7205 9.49987 11.0005 9.49987C11.2803 9.49965 11.5005 9.27973 11.5005 8.99986V6.99986C11.5004 6.72007 11.2802 6.50008 11.0005 6.49986Z" fill="currentColor"/>
</svg>
