<svg width="16" height="16" viewBox="0 0 16 16" fill="none" xmlns="http://www.w3.org/2000/svg">
<path d="M4 8.5C4.27614 8.5 4.5 8.72386 4.5 9C4.5 9.27614 4.27614 9.5 4 9.5C3.72386 9.5 3.5 9.27614 3.5 9C3.5 8.72386 3.72386 8.5 4 8.5Z" fill="black"/>
<path d="M12 8.5C12.2761 8.5 12.5 8.72386 12.5 9C12.5 9.27614 12.2761 9.5 12 9.5C11.7239 9.5 11.5 9.27614 11.5 9C11.5 8.72386 11.7239 8.5 12 8.5Z" fill="black"/>
<path fill-rule="evenodd" clip-rule="evenodd" d="M8 2C8.83 2 9.5 2.67 9.5 3.5C9.5 4.15435 9.08296 4.70753 8.5 4.91309V6H12C13.66 6 15 7.34 15 9C15 10.66 13.66 12 12 12H4C2.34 12 1 10.66 1 9C1 7.34 2.34 6 4 6H7.5V4.91309C6.91704 4.70753 6.5 4.15435 6.5 3.5C6.5 2.67 7.17 2 8 2ZM4 7.5C3.17 7.5 2.5 8.17 2.5 9C2.5 9.83 3.17 10.5 4 10.5C4.83 10.5 5.5 9.83 5.5 9C5.5 8.17 4.83 7.5 4 7.5ZM9 8.5C8.75488 8.5 8.55557 8.66857 8.50977 8.89844L8.49023 9.10156C8.44443 9.33143 8.24512 9.5 8 9.5C7.75488 9.5 7.55557 9.33143 7.50977 9.10156L7.49023 8.89844C7.44443 8.66857 7.24512 8.5 7 8.5C6.72 8.5 6.5 8.72 6.5 9C6.5 9.83 7.17 10.5 8 10.5C8.83 10.5 9.5 9.83 9.5 9C9.5 8.72 9.28 8.5 9 8.5ZM12 7.5C11.17 7.5 10.5 8.17 10.5 9C10.5 9.83 11.17 10.5 12 10.5C12.83 10.5 13.5 9.83 13.5 9C13.5 8.17 12.83 7.5 12 7.5Z" fill="black"/>
</svg>
