<svg width="16" height="16" viewBox="0 0 16 16" fill="none" xmlns="http://www.w3.org/2000/svg">
<path fill-rule="evenodd" clip-rule="evenodd" d="M12 2C13.1 2 14 2.9 14 4V9.16992C14 9.69991 13.7901 10.2001 13.4102 10.5801L10.5801 13.4102C10.2101 13.7901 9.6999 14 9.16992 14H4C2.9 14 2 13.1 2 12V4C2 2.9 2.9 2 4 2H12ZM10 8.5C9.17 8.5 8.5 9.17 8.5 10V12.5C8.5 12.78 8.72 13 9 13C9.28 13 9.5 12.78 9.5 12.5V10C9.5 9.72 9.72 9.5 10 9.5H12.5C12.78 9.5 13 9.28 13 9C13 8.72 12.78 8.5 12.5 8.5H10Z" fill="black"/>
</svg>
