<svg width="16" height="16" viewBox="0 0 16 16" fill="none" xmlns="http://www.w3.org/2000/svg">
<path d="M8 9C8.55228 9 9 8.55228 9 8C9 7.44772 8.55228 7 8 7C7.44772 7 7 7.44772 7 8C7 8.55228 7.44772 9 8 9Z" fill="currentColor"/>
<path d="M8 2C4.69 2 2 4.69 2 8C2 11.31 4.69 14 8 14C11.31 14 14 11.31 14 8C14 4.69 11.31 2 8 2ZM11.22 5.41L9.97 9.17C9.85 9.54 9.55 9.84 9.18 9.96L5.42 11.21C5.03 11.34 4.66 10.97 4.79 10.58L6.04 6.82C6.16 6.45 6.46 6.15 6.83 6.03L10.59 4.78C10.98 4.65 11.35 5.02 11.22 5.41Z" fill="currentColor"/>
</svg>
