<svg width="16" height="16" viewBox="0 0 16 16" fill="none" xmlns="http://www.w3.org/2000/svg">
<path d="M7.24015 8.66016C8.55014 8.10017 9.99989 9.07002 9.99991 10.5C9.99991 11.94 8.55015 12.8998 7.24015 12.3398L4.06046 10.96C3.66046 10.78 3.66046 10.21 4.06046 10.04L7.24015 8.66016Z" fill="currentColor"/>
<path d="M7.99991 3.49023C11.6898 3.49023 14.7103 6.34984 14.9804 9.96973C15.0004 10.2496 14.7602 10.49 14.4804 10.4902H10.9999C10.9999 8.84037 9.66024 7.49045 8.02042 7.49023C7.61042 7.49023 7.21976 7.58023 6.83976 7.74023L3.66007 9.12012C3.11008 9.36012 2.75968 9.90001 2.75968 10.5H1.52042C1.24057 10.5 1.00072 10.2603 1.02042 9.98047C1.29042 6.35051 4.30997 3.50006 7.99991 3.5V3.49023Z" fill="currentColor"/>
</svg>
