<svg width="16" height="16" viewBox="0 0 16 16" fill="none" xmlns="http://www.w3.org/2000/svg">
<path fill-rule="evenodd" clip-rule="evenodd" d="M6.90983 1.59981C10.1397 0.929842 12.9896 3.37967 12.9899 6.48946C12.9899 8.53944 11.7499 10.2995 9.98991 11.0695V12.4895C9.98991 13.5895 9.08991 14.4895 7.98991 14.4895C6.88996 14.4894 5.98991 13.5894 5.98991 12.4895V11.0695C3.98003 10.1895 2.65 8.02948 3.06998 5.60957C3.41007 3.63983 4.95986 2.01967 6.91959 1.60958L6.90983 1.59981ZM7.49967 11.0002C7.21984 11.0004 6.99967 11.2203 6.99967 11.5002C6.99983 11.7799 7.21994 12 7.49967 12.0002H8.49967C8.77957 12.0002 8.99951 11.7801 8.99967 11.5002C8.99967 11.2202 8.77967 11.0002 8.49967 11.0002H7.49967Z" fill="black"/>
</svg>
