<svg width="16" height="16" viewBox="0 0 16 16" fill="none" xmlns="http://www.w3.org/2000/svg">
<path fill-rule="evenodd" clip-rule="evenodd" d="M8 1C8.55 1 9 1.45 9 2H10.5C10.78 2 11 2.22 11 2.5V3H12C12.55 3 13 3.45 13 4V13C13 13.55 12.55 14 12 14H4C3.45 14 3 13.55 3 13V4C3 3.45 3.45 3 4 3H5V2.5C5 2.22 5.22 2 5.5 2H7C7 1.45 7.45 1 8 1ZM10.8701 7.13965C10.6702 6.93985 10.3601 6.93995 10.1602 7.13965L7.50977 9.79004L6.36035 8.63965C6.16047 8.43977 5.8504 8.44001 5.65039 8.63965C5.45039 8.83964 5.4504 9.14961 5.65039 9.34961L7.15039 10.8496C7.24039 10.9496 7.38 11 7.5 11C7.62 11 7.74961 10.9496 7.84961 10.8496L10.8496 7.84961H10.8701C11.0699 7.6496 11.07 7.33956 10.8701 7.13965ZM5.5 4C5.22 4 5 4.22 5 4.5C5 4.78 5.22 5 5.5 5H10.5C10.78 5 11 4.78 11 4.5C11 4.22 10.78 4 10.5 4H5.5Z" fill="black"/>
</svg>
