<svg width="16" height="16" viewBox="0 0 16 16" fill="none" xmlns="http://www.w3.org/2000/svg">
<path d="M14.03 10.93L13.19 10.58L13.54 9.74001C13.65 9.48001 13.52 9.19001 13.27 9.09001L12.43 8.74001L12.01 7.73001C12.94 6.91001 13.28 5.57001 12.78 4.36002C12.15 2.83002 10.4 2.12001 8.87002 2.75001C9.13002 3.02001 9.37002 3.31001 9.55002 3.65001C10.1 4.70002 10.16 5.94001 9.70002 7.04001C9.50002 7.51001 9.22002 7.93001 8.89002 8.28001C9.29002 8.44001 9.73002 8.53001 10.17 8.50001L12.04 13.01C12.09 13.13 12.19 13.23 12.31 13.28L12.96 13.55C13.22 13.66 13.51 13.53 13.61 13.28L14.31 11.59C14.42 11.33 14.29 11.04 14.04 10.94L14.03 10.93Z" fill="currentColor"/>
<path d="M3.51002 3.82001C2.63002 5.15001 2.93002 6.79002 3.99002 7.73002L2.12002 12.24C2.07002 12.36 2.07002 12.5 2.12002 12.62L2.39002 13.27C2.50002 13.53 2.79002 13.65 3.04002 13.54L4.73002 12.84C4.99002 12.73 5.11002 12.44 5.00002 12.19L4.65002 11.35L5.49002 11C5.75002 10.89 5.87002 10.6 5.76002 10.35L5.41002 9.51002L5.83002 8.50002C7.06002 8.58002 8.26002 7.87002 8.76002 6.66002C9.47002 4.95002 8.49002 2.98001 6.59002 2.57001C5.42002 2.32001 4.16002 2.83001 3.50002 3.83001L3.51002 3.82001ZM7.11002 5.43001C7.37002 5.54001 7.49002 5.83001 7.38002 6.08001C7.27002 6.33001 6.98002 6.46001 6.73002 6.35001L4.88002 5.58001C4.62002 5.47002 4.50002 5.18001 4.61002 4.93001C4.72002 4.68001 5.01002 4.55001 5.26002 4.66001L7.11002 5.43001Z" fill="currentColor"/>
</svg>
