<svg width="16" height="16" viewBox="0 0 16 16" fill="none" xmlns="http://www.w3.org/2000/svg">
<path fill-rule="evenodd" clip-rule="evenodd" d="M6.59961 3C6.98961 3 7.38016 3.16043 7.66016 3.44043L8.71973 4.5H12.5098C13.0598 4.5 13.5098 4.95 13.5098 5.5V6.5H14.2998C14.6297 6.5 14.9301 6.65978 15.1201 6.92969C15.31 7.19956 15.35 7.53972 15.2402 7.84961L13.4805 12.6797C13.4105 12.8797 13.2198 13.0098 13.0098 13.0098H2.50977L2.5 13C2.5 13 2.44022 13 2.41016 13C2.35023 12.99 2.29994 12.9704 2.25 12.9404C2.19 12.9004 2.12984 12.85 2.08984 12.79C2.04986 12.7301 2.01976 12.6598 2.00977 12.5898V4C2.00977 3.45008 2.45988 3.00013 3.00977 3H6.59961ZM3 9.66016L3.79004 7.49023C4.00004 6.90023 4.5702 6.5 5.2002 6.5H12.5V5.5H8.5C8.37 5.5 8.24039 5.44961 8.15039 5.34961L6.94043 4.13965C6.85043 4.04965 6.71984 3.99023 6.58984 3.99023H3V9.66016Z" fill="currentColor"/>
</svg>
