<svg width="16" height="16" viewBox="0 0 16 16" fill="none" xmlns="http://www.w3.org/2000/svg">
<path fill-rule="evenodd" clip-rule="evenodd" d="M7.99023 2C8.70005 2.01007 9.29019 2.32983 9.66016 2.88965C9.76016 3.04965 9.84039 3.23016 9.90039 3.41016C10.0703 3.33021 10.2505 3.25971 10.4404 3.21973C11.1103 3.0899 11.7606 3.28011 12.2305 3.75C12.7402 4.25986 12.9199 4.89982 12.79 5.55957C12.7501 5.74948 12.6798 5.92968 12.5898 6.09961C12.7698 6.14961 12.9504 6.22984 13.1104 6.33984V6.33008C13.6701 6.71003 13.9999 7.29996 14 7.96973C13.99 8.6897 13.6703 9.28039 13.1104 9.65039C12.9504 9.76039 12.7698 9.84039 12.5898 9.90039C12.6698 10.0703 12.7403 10.2505 12.7803 10.4404C12.9101 11.1103 12.7199 11.7606 12.25 12.2305C11.85 12.6303 11.3595 12.8301 10.8496 12.8301C10.7099 12.8301 10.5801 12.8199 10.4404 12.79C10.2505 12.7501 10.0703 12.6798 9.90039 12.5898C9.85039 12.7698 9.77016 12.9504 9.66016 13.1104C9.28015 13.6702 8.68946 14 8.01953 14C7.30977 13.9899 6.71953 13.6702 6.34961 13.1104C6.24961 12.9504 6.17035 12.7698 6.11035 12.5898C5.94042 12.6698 5.76023 12.7403 5.57031 12.7803C5.43037 12.8103 5.29011 12.8203 5.16016 12.8203C4.64022 12.8203 4.15026 12.6199 3.78027 12.25C3.27039 11.7401 3.0899 11.1003 3.21973 10.4404C3.2597 10.2506 3.33001 10.0703 3.41992 9.90039C3.24005 9.85043 3.06031 9.77004 2.90039 9.66016C2.34039 9.28016 2.00977 8.68953 2.00977 8.01953C2.01989 7.29974 2.34051 6.70977 2.90039 6.33984C3.0603 6.23995 3.24005 6.15956 3.41992 6.09961C3.33999 5.92972 3.27044 5.74944 3.23047 5.55957C3.10059 4.88969 3.28984 4.23945 3.75977 3.76953C4.26975 3.25961 4.91036 3.07997 5.57031 3.20996C5.76021 3.24997 5.94044 3.3202 6.11035 3.41016C6.16035 3.23016 6.23961 3.04965 6.34961 2.88965C6.72961 2.32969 7.32026 2 7.99023 2ZM8.41016 10.29C8.27016 10.31 8.14 10.3301 8 10.3301C7.86 10.3301 7.72984 10.31 7.58984 10.29L7.07031 11.54C6.93037 11.8799 6.97012 12.2596 7.16992 12.5596C7.34992 12.8396 7.63997 13 7.95996 13C8.33996 13 8.63031 12.8396 8.82031 12.5596H8.83008C9.02989 12.2496 9.06964 11.8699 8.92969 11.54L8.41016 10.29ZM9.91016 9.33008C9.75016 9.55008 9.56008 9.75016 9.33008 9.91016L9.84961 11.1602C9.98955 11.5 10.2798 11.7395 10.6396 11.8096C10.9696 11.8696 11.2798 11.7796 11.5098 11.5596H11.5195C11.7795 11.2896 11.8796 10.9696 11.8096 10.6396C11.7295 10.2799 11.49 9.98955 11.1602 9.84961L10.7598 9.67969L9.91016 9.33008ZM5.98047 9.37988L4.83984 9.84961C4.49998 9.98955 4.26054 10.2798 4.19043 10.6396C4.13043 10.9696 4.22043 11.2798 4.44043 11.5098C4.71041 11.7697 5.03039 11.8698 5.36035 11.7998C5.72017 11.7297 6.01044 11.49 6.15039 11.1602L6.66992 9.91016C6.43992 9.75016 6.24984 9.56008 6.08984 9.33008L5.98047 9.37988ZM4.45996 7.07031C4.12009 6.93037 3.74038 6.97012 3.44043 7.16992C3.16044 7.34992 3.00001 7.63997 3 7.95996V7.96973C3.01 8.34973 3.1702 8.64008 3.4502 8.83008C3.75017 9.02998 4.13002 9.06966 4.45996 8.92969L5.59961 8.45996L5.70996 8.41016C5.65996 8.13016 5.65996 7.85984 5.70996 7.58984L5.59961 7.54004L4.45996 7.07031ZM12.5303 7.16992C12.2303 6.96992 11.8495 6.93031 11.5195 7.07031L11.1201 7.24023L10.2803 7.58984C10.3303 7.86984 10.3303 8.14016 10.2803 8.41016L11.1299 8.75977L11.54 8.92969C11.8799 9.06963 12.2596 9.02988 12.5596 8.83008L12.54 8.82031C12.82 8.64036 12.9804 8.35016 12.9805 8.03027C12.9705 7.65034 12.8102 7.35992 12.5303 7.16992ZM5.36035 4.19043C5.03035 4.13043 4.72023 4.22043 4.49023 4.44043H4.48047C4.22047 4.71043 4.12043 5.03035 4.19043 5.36035C4.27053 5.72015 4.50998 6.01045 4.83984 6.15039L5.98047 6.62012L6.08984 6.66992C6.24984 6.44992 6.43992 6.24984 6.66992 6.08984L6.15039 4.83984C6.01045 4.49998 5.72015 4.26054 5.36035 4.19043ZM11.5596 4.49023C11.2996 4.2303 10.9696 4.1302 10.6396 4.2002H10.6504C10.2905 4.27018 10.0004 4.50998 9.86035 4.83984L9.33984 6.08984C9.56981 6.24982 9.75994 6.43997 9.91992 6.66992L10.7598 6.32031L11.1602 6.15039C11.5 6.01045 11.7395 5.72015 11.8096 5.36035C11.8696 5.03035 11.7796 4.72023 11.5596 4.49023ZM8.04004 3C7.66004 3 7.36969 3.16043 7.17969 3.44043H7.16992C6.97011 3.75037 6.93036 4.13008 7.07031 4.45996L7.58984 5.70996C7.85984 5.65996 8.14016 5.65996 8.41016 5.70996L8.92969 4.45996C9.06963 4.12009 9.02988 3.74038 8.83008 3.44043C8.65008 3.16044 8.36003 3.00001 8.04004 3Z" fill="currentColor"/>
</svg>
