<svg width="16" height="16" viewBox="0 0 16 16" fill="none" xmlns="http://www.w3.org/2000/svg">
<path fill-rule="evenodd" clip-rule="evenodd" d="M8.4201 2C8.92008 2.00003 9.34034 2.37037 9.41034 2.86035L9.53046 3.69043C10.0701 3.88036 10.5599 4.15983 10.9797 4.51953L11.7502 4.20996C12.2101 4.03006 12.7404 4.20976 12.9904 4.63965L13.4103 5.37012C13.6602 5.80008 13.5503 6.34044 13.1603 6.65039L12.5002 7.16992C12.5502 7.42992 12.5803 7.72 12.5803 8C12.5803 8.28 12.5502 8.56008 12.5002 8.83008L13.1603 9.34961C13.5503 9.64956 13.6602 10.1999 13.4103 10.6299L12.9904 11.3604C12.7404 11.7902 12.2101 11.9799 11.7502 11.79L10.9797 11.4805C10.5599 11.8402 10.0701 12.1196 9.53046 12.3096L9.41034 13.1396C9.34034 13.6296 8.92008 14 8.4201 14H7.58026C7.08026 14 6.66003 13.6296 6.59003 13.1396L6.46991 12.3096C5.93003 12.1196 5.43964 11.8404 5.01971 11.4805L4.25018 11.79C3.79026 11.97 3.26 11.7902 3.00995 11.3604L2.59003 10.6299C2.3401 10.1999 2.45006 9.65959 2.84003 9.34961L3.50018 8.83008C3.45018 8.57008 3.4201 8.28 3.4201 8C3.4201 7.72 3.45018 7.43992 3.50018 7.16992L2.84003 6.65039C2.45006 6.35041 2.3401 5.8001 2.59003 5.37012L3.00995 4.63965C3.26 4.2098 3.79026 4.01999 4.25018 4.20996L5.01971 4.51953C5.43964 4.1596 5.93003 3.88042 6.46991 3.69043L6.59003 2.86035C6.66003 2.37035 7.08026 2 7.58026 2H8.4201ZM8.00018 6C6.90018 6 6.00018 6.9 6.00018 8C6.00018 9.1 6.90018 10 8.00018 10C9.10012 9.99993 10.0002 9.09996 10.0002 8C10.0002 6.90004 9.10012 6.00007 8.00018 6Z" fill="black"/>
</svg>
