<svg width="16" height="16" viewBox="0 0 16 16" fill="none" xmlns="http://www.w3.org/2000/svg">
<path fill-rule="evenodd" clip-rule="evenodd" d="M8.00524 2C9.5364 2.0001 11.0775 2.58986 12.2484 3.75879C14.5902 6.1068 14.5902 9.90319 12.2484 12.2412C11.0775 13.4101 9.5364 13.9999 8.00524 14C6.47397 14 4.93208 13.4102 3.7611 12.2412C1.41948 9.89323 1.41948 6.09678 3.7611 3.75879C4.93208 2.58976 6.46396 2 8.00524 2ZM8.00036 4.5C6.07036 4.5 4.50036 6.07 4.50036 8C4.50036 9.93 6.07036 11.5 8.00036 11.5C9.93019 11.4998 11.5004 9.92988 11.5004 8C11.5004 6.07012 9.93019 4.5002 8.00036 4.5Z" fill="currentColor"/>
</svg>
