<svg width="16" height="16" viewBox="0 0 16 16" fill="none" xmlns="http://www.w3.org/2000/svg">
<path fill-rule="evenodd" clip-rule="evenodd" d="M7.53027 2.16043C7.84024 2.06047 8.17051 2.06044 8.48047 2.16043L13.3203 3.76981C13.7202 3.90986 14 4.29008 14 4.72V5.50027C13.9999 5.78015 13.7799 6.00027 13.5 6.00027H13.0098V12.0003H13.5098C13.7898 12.0003 14.0098 12.2203 14.0098 12.5003V13.5003C14.0096 13.7801 13.7897 14.0003 13.5098 14.0003H2.50977C2.22997 14.0001 2.00991 13.7801 2.00977 13.5003V12.5003C2.00977 12.2204 2.22988 12.0004 2.50977 12.0003H3.00977V6.00027H2.50977C2.22997 6.00015 2.00991 5.78007 2.00977 5.50027V4.72C2.00977 4.29 2.28043 3.9098 2.69043 3.76981L7.53027 2.16043ZM5.5 6.00027C5.22001 6.00028 5 6.22028 5 6.50027V11.5003C5.00014 11.7801 5.22009 12.0003 5.5 12.0003C5.77991 12.0003 5.99986 11.7801 6 11.5003V6.50027C6 6.22027 5.78 6.00027 5.5 6.00027ZM8 6.00027C7.72001 6.00028 7.5 6.22028 7.5 6.50027V11.5003C7.50014 11.7801 7.72009 12.0003 8 12.0003C8.27991 12.0003 8.49986 11.7801 8.5 11.5003V6.50027C8.5 6.22027 8.28 6.00027 8 6.00027ZM10.5 6.00027C10.22 6.00028 10 6.22028 10 6.50027V11.5003C10.0001 11.7801 10.2201 12.0003 10.5 12.0003C10.7799 12.0003 10.9999 11.7801 11 11.5003V6.50027C11 6.22027 10.78 6.00027 10.5 6.00027Z" fill="currentColor"/>
</svg>
