<svg width="16" height="16" viewBox="0 0 16 16" fill="none" xmlns="http://www.w3.org/2000/svg">
<path fill-rule="evenodd" clip-rule="evenodd" d="M8 2C11.31 2 14 4.69 14 8C14 11.31 11.31 14 8 14C4.69 14 2 11.31 2 8C2 4.69 4.69 2 8 2ZM5.53027 10.4697C5.33037 10.2698 5.02032 10.27 4.82031 10.4697L4.11035 11.1797C3.91035 11.3797 3.91035 11.6896 4.11035 11.8896C4.31035 12.0896 4.62031 12.0896 4.82031 11.8896L5.53027 11.1797C5.72998 10.9797 5.73018 10.6696 5.53027 10.4697ZM11.1797 10.4697C10.9797 10.27 10.6696 10.2698 10.4697 10.4697C10.2698 10.6696 10.27 10.9797 10.4697 11.1797L11.1797 11.8896C11.3797 12.0896 11.6896 12.0896 11.8896 11.8896C12.0896 11.6896 12.0896 11.3797 11.8896 11.1797L11.1797 10.4697ZM10.1201 5.87988C8.95012 4.70988 7.04988 4.70988 5.87988 5.87988C4.70988 7.04988 4.70988 8.95012 5.87988 10.1201C7.04988 11.2901 8.95012 11.2901 10.1201 10.1201C11.2901 8.95012 11.2901 7.04988 10.1201 5.87988ZM4.82031 4.11035C4.62031 3.91035 4.31035 3.91035 4.11035 4.11035C3.91035 4.31035 3.91035 4.62031 4.11035 4.82031L4.82031 5.53027C5.02032 5.72998 5.33037 5.73018 5.53027 5.53027C5.73018 5.33037 5.72998 5.02032 5.53027 4.82031L4.82031 4.11035ZM11.8896 4.11035C11.6896 3.91035 11.3797 3.91035 11.1797 4.11035L10.4697 4.82031C10.27 5.02032 10.2698 5.33037 10.4697 5.53027C10.6696 5.73018 10.9797 5.72998 11.1797 5.53027L11.8896 4.82031C12.0896 4.62031 12.0896 4.31035 11.8896 4.11035Z" fill="currentColor"/>
</svg>
