<svg width="16" height="16" viewBox="0 0 16 16" fill="none" xmlns="http://www.w3.org/2000/svg">
<path fill-rule="evenodd" clip-rule="evenodd" d="M6.90983 1.59981C10.1397 0.929842 12.9896 3.37967 12.9899 6.48946C12.9899 8.53944 11.7499 10.2995 9.98991 11.0695V12.4895C9.98991 13.5895 9.08991 14.4895 7.98991 14.4895C6.88996 14.4894 5.98991 13.5894 5.98991 12.4895V11.0695C3.98003 10.1895 2.65 8.02948 3.06998 5.60958C3.41007 3.63983 4.95985 2.01967 6.91959 1.60958L6.90983 1.59981ZM7.49967 11.0002C7.21983 11.0004 6.99967 11.2203 6.99967 11.5002C6.99983 11.7799 7.21993 12 7.49967 12.0002H8.49967C8.77957 12.0002 8.99951 11.7801 8.99967 11.5002C8.99967 11.2202 8.77967 11.0002 8.49967 11.0002H7.49967ZM9.36002 7.05977C8.61005 6.30986 7.40005 6.30988 6.65006 7.05977C6.45008 7.25975 6.45012 7.56973 6.65006 7.76973C6.85006 7.96973 7.16002 7.96973 7.36002 7.76973C7.71001 7.40985 8.29009 7.40982 8.65006 7.76973C8.73998 7.86964 8.87975 7.92003 8.99967 7.92012C9.11967 7.92012 9.25026 7.86973 9.35026 7.76973H9.36002C9.55993 7.56973 9.55999 7.25974 9.36002 7.05977ZM10.7702 5.63985C9.25018 4.10985 6.76991 4.10985 5.23991 5.63985C5.03997 5.83982 5.04002 6.14982 5.23991 6.34981C5.4399 6.5498 5.74987 6.54979 5.94987 6.34981C7.08985 5.20983 8.92998 5.20987 10.07 6.34981C10.1599 6.44969 10.2997 6.50009 10.4196 6.5002C10.5396 6.5002 10.6702 6.44981 10.7702 6.34981C10.97 6.14982 10.9701 5.83981 10.7702 5.63985Z" fill="currentColor"/>
</svg>
