<svg width="16" height="16" viewBox="0 0 16 16" fill="none" xmlns="http://www.w3.org/2000/svg">
<path d="M5.99967 6.0002C6.27967 6.0002 6.49967 6.2202 6.49967 6.5002V7.0002H5.99967C5.71992 7.00001 5.49979 6.77997 5.49967 6.5002C5.49967 6.22032 5.71984 6.00039 5.99967 6.0002Z" fill="currentColor"/>
<path d="M9.99967 6.0002C10.2797 6.0002 10.4997 6.2202 10.4997 6.5002C10.4996 6.78009 10.2796 7.0002 9.99967 7.0002H9.49967V6.5002C9.49967 6.22032 9.71984 6.00039 9.99967 6.0002Z" fill="currentColor"/>
<path fill-rule="evenodd" clip-rule="evenodd" d="M6.90983 1.59981C10.1397 0.929842 12.9896 3.37967 12.9899 6.48946C12.9899 8.53944 11.7499 10.2995 9.98991 11.0695V12.4895C9.98991 13.5895 9.08991 14.4895 7.98991 14.4895C6.88996 14.4894 5.98991 13.5894 5.98991 12.4895V11.0695C3.98003 10.1895 2.65 8.02948 3.06998 5.60958C3.41007 3.63983 4.95985 2.01967 6.91959 1.60958L6.90983 1.59981ZM7.49967 11.0002C7.21983 11.0004 6.99967 11.2203 6.99967 11.5002C6.99983 11.7799 7.21993 12 7.49967 12.0002H8.49967C8.77957 12.0002 8.99951 11.7801 8.99967 11.5002C8.99967 11.2202 8.77967 11.0002 8.49967 11.0002H7.49967ZM9.99967 5.0002C9.16983 5.00038 8.49967 5.67031 8.49967 6.5002V7.0002H7.49967V6.5002C7.49967 5.6702 6.82967 5.0002 5.99967 5.0002C5.16983 5.00038 4.49967 5.67031 4.49967 6.5002C4.49983 7.32995 5.16993 8.00002 5.99967 8.0002H6.49967V9.0002C6.49983 9.27994 6.71993 9.50002 6.99967 9.5002C7.27957 9.5002 7.49951 9.28006 7.49967 9.0002V8.0002H8.49967V9.0002C8.49983 9.27994 8.71993 9.50002 8.99967 9.5002C9.27957 9.5002 9.49951 9.28006 9.49967 9.0002V8.0002H9.99967C10.8296 8.0002 11.4995 7.33006 11.4997 6.5002C11.4997 5.6702 10.8297 5.0002 9.99967 5.0002Z" fill="currentColor"/>
</svg>
