<svg width="16" height="16" viewBox="0 0 16 16" fill="none" xmlns="http://www.w3.org/2000/svg">
<path d="M13.6497 2.14982C13.8397 1.94986 14.1599 1.94993 14.3499 2.14982C14.5499 2.33982 14.5499 2.66002 14.3499 2.85002L10.6995 6.50041H11.0003C11.3201 6.50049 11.61 6.60002 11.8499 6.76994C12.2399 7.02994 12.5003 7.49041 12.5003 8.00041V12.0004C12.5001 12.8301 11.83 13.5002 11.0003 13.5004H5.00028C4.64029 13.5004 4.30009 13.3698 4.05009 13.1498L2.34989 14.85C2.25998 14.9499 2.13016 15.0003 2.00028 15.0004C1.87028 15.0004 1.7397 14.95 1.6497 14.85C1.44981 14.66 1.44974 14.3398 1.6497 14.1498L13.6497 2.14982Z" fill="currentColor"/>
<path d="M8.00028 2.50041C9.05007 2.50057 9.94963 3.15016 10.3196 4.05998L9.48954 4.89006C9.43955 4.11018 8.83009 3.5006 8.00028 3.50041C7.17028 3.50041 6.50028 4.17041 6.50028 5.00041V6.50041H7.88017L3.50028 10.8803V8.00041C3.50028 7.17041 4.17028 6.50041 5.00028 6.50041H5.50028V5.00041C5.50028 3.62041 6.62028 2.50041 8.00028 2.50041Z" fill="currentColor"/>
</svg>
