<svg width="16" height="16" viewBox="0 0 16 16" fill="none" xmlns="http://www.w3.org/2000/svg">
<path fill-rule="evenodd" clip-rule="evenodd" d="M8 1.5C9.38 1.5 10.5 2.62 10.5 4V6.5H11C11.83 6.5 12.5 7.17 12.5 8V12C12.5 12.83 11.83 13.5 11 13.5H5C4.17 13.5 3.5 12.83 3.5 12V8C3.5 7.17 4.17 6.5 5 6.5H9.5V4C9.5 3.17 8.83 2.5 8 2.5C7.17 2.5 6.5 3.17 6.5 4V5C6.5 5.28 6.28 5.5 6 5.5C5.72 5.5 5.5 5.28 5.5 5V4C5.5 2.62 6.62 1.5 8 1.5ZM8 8.5C7.72 8.5 7.5 8.72 7.5 9V11C7.5 11.28 7.72 11.5 8 11.5C8.28 11.5 8.5 11.28 8.5 11V9C8.5 8.72 8.28 8.5 8 8.5Z" fill="currentColor"/>
</svg>
