<svg width="16" height="16" viewBox="0 0 16 16" fill="none" xmlns="http://www.w3.org/2000/svg">
<path d="M9.9997 2C10.2797 2 10.56 2.02986 10.82 2.08984C11.2099 2.16982 11.3399 2.64965 11.0602 2.92969L8.98994 5V7H10.9899L13.0602 4.92969C13.3403 4.65001 13.8201 4.79008 13.9001 5.16992C13.9601 5.43992 13.9899 5.71023 13.9899 5.99023L13.9997 6C13.9997 8.21 12.2097 10 9.9997 10C9.41984 9.99994 8.85994 9.8696 8.36005 9.63965L4.9997 13C4.44968 13.5498 3.54963 13.5499 2.9997 13C2.44997 12.45 2.44997 11.55 2.9997 11L6.36005 7.63965C6.13014 7.13973 5.9997 6.57988 5.9997 6C5.9997 3.79013 7.78989 2.00022 9.9997 2Z" fill="black"/>
</svg>
