<svg width="16" height="16" viewBox="0 0 16 16" fill="none" xmlns="http://www.w3.org/2000/svg">
<path d="M11.5 1.5C12.6 1.5 13.5 2.4 13.5 3.5C13.5 4.6 12.6 5.5 11.5 5.5C10.923 5.5 10.403 5.25063 10.0371 4.85645L5.43945 7.52148C5.47758 7.6751 5.5 7.83503 5.5 8C5.5 8.16678 5.47644 8.32825 5.4375 8.4834L10.0332 11.1465C10.3993 10.7502 10.9213 10.5 11.5 10.5C12.6 10.5 13.5 11.4 13.5 12.5C13.5 13.6 12.6 14.5 11.5 14.5C10.4 14.5 9.5 13.6 9.5 12.5C9.5 12.3351 9.52148 12.175 9.55957 12.0215L4.96191 9.35645C4.59603 9.75035 4.07672 10 3.5 10C2.4 10 1.5 9.1 1.5 8C1.5 6.9 2.4 6 3.5 6C4.07844 6 4.59978 6.25053 4.96582 6.64648L9.56152 3.9834C9.52262 3.82832 9.5 3.6667 9.5 3.5C9.5 2.4 10.4 1.5 11.5 1.5Z" fill="black"/>
</svg>
