<svg width="16" height="16" viewBox="0 0 16 16" fill="none" xmlns="http://www.w3.org/2000/svg">
<path fill-rule="evenodd" clip-rule="evenodd" d="M2.15041 9.37013C1.18041 4.99013 4.99013 1.18041 9.37013 2.15041C11.5901 2.65045 13.3696 4.44022 13.8496 6.66017L13.8604 6.65041C14.0003 7.28016 14.0304 7.91001 13.9805 8.50978C13.9505 8.81978 13.8001 9.1101 13.5801 9.3301L9.33986 13.5703C9.12 13.7901 8.83024 13.9396 8.52053 13.9697C7.92053 14.0197 7.30017 13.9896 6.66017 13.8496C4.44022 13.3696 2.64045 11.5901 2.15041 9.37013ZM11.0899 8.00002C9.38996 8.00013 8.00978 9.38017 8.00978 11.0801V12.4102C8.00983 12.69 8.22995 12.91 8.50978 12.9102C8.78975 12.9102 9.00973 12.6901 9.00978 12.4102V11.0801C9.00978 9.93017 9.93996 9.00013 11.0899 9.00002H12.4199C12.6999 9.00002 12.9199 8.78002 12.9199 8.50002C12.9199 8.22005 12.6999 8.00002 12.4199 8.00002H11.0899Z" fill="black"/>
</svg>
