<svg width="16" height="16" viewBox="0 0 16 16" fill="none" xmlns="http://www.w3.org/2000/svg">
<path d="M7 3.50001C7.51997 3.50001 8.02002 3.57975 8.5 3.71973V4.75977C8.02002 4.58979 7.51997 4.50001 7 4.50001C4.52 4.50001 2.5 6.52001 2.5 9C2.5 11.48 4.52 13.5 7 13.5C9.48 13.5 11.5 11.48 11.5 9C11.5 8.48003 11.4102 7.97998 11.2402 7.50001H12.2803C12.4203 7.97998 12.5 8.48003 12.5 9C12.5 12.03 10.03 14.5 7 14.5C3.97 14.5 1.5 12.03 1.5 9C1.5 5.97001 3.97 3.50001 7 3.50001Z" fill="currentColor"/>
<path d="M7 6.00001C7.26988 6.00001 7.51965 6.04042 7.76953 6.11036L6.87012 7.00977C5.83012 7.07977 5 7.90001 5 9C5 10.1 5.94 11 7 11C8.06 11 8.92023 10.1699 8.99023 9.12989L9.88965 8.23047C9.94961 8.48035 10 8.73014 10 9C10 10.65 8.65 12 7 12C5.35 12 4 10.65 4 9C4 7.35001 5.35 6.00001 7 6.00001Z" fill="currentColor"/>
<path d="M11.6504 0.650396C11.7904 0.510402 12.0104 0.460046 12.1904 0.540044C12.3802 0.62012 12.5 0.800143 12.5 1.00001V3.50001H15C15.1999 3.50001 15.3799 3.6198 15.46 3.80958C15.54 3.99957 15.4896 4.20961 15.3496 4.34961L13.3496 6.34961C13.2596 6.43961 13.13 6.50001 13 6.50001H10.21L7.36035 9.34961C7.26035 9.44961 7.12977 9.5 7.00977 9.5H7C6.87 9.5 6.74039 9.44961 6.65039 9.34961C6.45039 9.14961 6.45039 8.83965 6.65039 8.63965L9.5 5.79004V3.00001C9.5 2.87001 9.5504 2.74039 9.65039 2.6504L11.6504 0.650396Z" fill="currentColor"/>
</svg>
