<svg width="16" height="16" viewBox="0 0 16 16" fill="none" xmlns="http://www.w3.org/2000/svg">
<path fill-rule="evenodd" clip-rule="evenodd" d="M8.58008 2.56C9.02008 1.97017 9.98986 2.25008 10 2.97992V6.00043H12.8496C13.4596 6.00043 13.9198 6.54008 13.8398 7.14008L13.1201 12.1401C13.0501 12.6301 12.6299 13.0004 12.1299 13.0004H4C3.45011 13.0004 3.00019 12.5503 3 12.0004V7.00043C3 6.45043 3.45 6.00043 4 6.00043H6L8.58008 2.56ZM5.5 7.00043C5.22 7.00043 5 7.22043 5 7.50043V11.5004C5.00018 11.7803 5.22011 12.0004 5.5 12.0004C5.77989 12.0004 5.99982 11.7803 6 11.5004V7.50043C6 7.22043 5.78 7.00043 5.5 7.00043Z" fill="currentColor"/>
</svg>
