<svg width="16" height="16" viewBox="0 0 16 16" fill="none" xmlns="http://www.w3.org/2000/svg">
<path d="M12.5 4H10V3.5C10 2.67 9.33 2 8.5 2H7.5C6.67 2 6 2.67 6 3.5V4H3.5C3.22 4 3 4.22 3 4.5C3 4.78 3.22 5 3.5 5H3.56L4.41 12.61C4.47 13.12 4.89 13.5 5.4 13.5H10.61C11.12 13.5 11.55 13.12 11.6 12.61L12.45 5H12.51C12.79 5 13.01 4.78 13.01 4.5C13.01 4.22 12.79 4 12.51 4H12.5ZM7 3.5C7 3.22 7.22 3 7.5 3H8.5C8.78 3 9 3.22 9 3.5V4H7V3.5ZM9.85 9.65C10.05 9.85 10.05 10.16 9.85 10.36C9.75 10.46 9.62 10.51 9.5 10.51C9.38 10.51 9.24 10.46 9.15 10.36L8 9.21L6.85 10.36C6.75 10.46 6.62 10.51 6.5 10.51C6.38 10.51 6.24 10.46 6.15 10.36C5.95 10.16 5.95 9.85 6.15 9.65L7.3 8.5L6.15 7.35C5.95 7.15 5.95 6.84 6.15 6.64C6.35 6.44 6.66 6.44 6.86 6.64L8.01 7.79L9.16 6.64C9.36 6.44 9.67 6.44 9.87 6.64C10.07 6.84 10.07 7.15 9.87 7.35L8.72 8.5L9.87 9.65H9.85Z" fill="currentColor"/>
</svg>
