<svg width="16" height="16" viewBox="0 0 16 16" fill="none" xmlns="http://www.w3.org/2000/svg">
<path d="M7.49023 8.26953C7.29053 7.78964 7.77011 7.30986 8.25 7.50977L13.79 9.87988C14.21 10.0599 14.1899 10.6595 13.75 10.8096L11.54 11.5498L10.7998 13.7598C10.6598 14.1998 10.0501 14.2198 9.87012 13.7998L7.5 8.25977L7.49023 8.26953Z" fill="black"/>
<path d="M12.5 2C12.78 2 13 2.22 13 2.5V4.5C13 4.78 12.78 5 12.5 5H10.5C10.22 5 10 4.78 10 4.5V4.01953C8.73 4.06953 7.77 4.32004 7 4.79004V6.5C7 6.78 6.78 7 6.5 7H4.79004C4.31004 7.77 4.06953 8.73 4.01953 10H4.5C4.78 10 5 10.22 5 10.5V12.5C5 12.78 4.78 13 4.5 13H2.5C2.22 13 2 12.78 2 12.5V10.5C2 10.22 2.22 10 2.5 10H3.01953C3.07953 8.47005 3.39004 7.3201 4 6.37012V4.5C4 4.22 4.22 4 4.5 4H6.37012C7.3201 3.38004 8.47005 3.07953 10 3.01953V2.5C10 2.22 10.22 2 10.5 2H12.5Z" fill="black"/>
</svg>
