<svg width="16" height="16" viewBox="0 0 16 16" fill="none" xmlns="http://www.w3.org/2000/svg">
<path fill-rule="evenodd" clip-rule="evenodd" d="M7.5 2.5C10.26 2.5 12.5 4.74 12.5 7.5C12.5 8.60808 12.1233 9.62125 11.5068 10.4473L13.5303 12.4697C13.8203 12.7597 13.8203 13.2403 13.5303 13.5303C13.3903 13.6703 13.2 13.75 13 13.75C12.8 13.75 12.6097 13.6703 12.4697 13.5303L10.4463 11.5059C9.6135 12.1228 8.60857 12.5 7.5 12.5C4.74 12.5 2.5 10.26 2.5 7.5C2.5 4.74 4.74 2.5 7.5 2.5ZM7.5 5C7.22 5 7 5.22 7 5.5V7H5.5C5.22 7 5 7.22 5 7.5C5 7.78 5.22 8 5.5 8H7V9.5C7 9.78 7.22 10 7.5 10C7.78 10 8 9.78 8 9.5V8H9.5C9.78 8 10 7.78 10 7.5C10 7.22 9.78 7 9.5 7H8V5.5C8 5.22 7.78 5 7.5 5Z" fill="currentColor"/>
</svg>
