<svg width="16" height="16" viewBox="0 0 16 16" fill="none" xmlns="http://www.w3.org/2000/svg">
<path d="M7.74999 14.5C7.66999 14.5 7.59999 14.48 7.52999 14.45C7.27999 14.33 7.17999 14.03 7.30999 13.78L7.55999 13.28C7.67999 13.03 7.98001 12.93 8.23001 13.06C8.48001 13.18 8.58001 13.48 8.45001 13.73L8.20001 14.23C8.11001 14.4 7.93999 14.51 7.74999 14.51V14.5Z" fill="black"/>
<path d="M9.74999 14.5C9.66999 14.5 9.59999 14.48 9.52999 14.45C9.27999 14.33 9.17999 14.03 9.30999 13.78L9.55999 13.28C9.67999 13.03 9.98001 12.93 10.23 13.06C10.48 13.18 10.58 13.48 10.45 13.73L10.2 14.23C10.11 14.4 9.93999 14.51 9.74999 14.51V14.5Z" fill="black"/>
<path d="M11.75 14.5C11.67 14.5 11.6 14.48 11.53 14.45C11.28 14.33 11.18 14.03 11.31 13.78L11.56 13.28C11.68 13.03 11.98 12.93 12.23 13.06C12.48 13.18 12.58 13.48 12.45 13.73L12.2 14.23C12.11 14.4 11.94 14.51 11.75 14.51V14.5Z" fill="black"/>
<path d="M5.74999 14.5C5.66999 14.5 5.59999 14.48 5.52999 14.45C5.27999 14.33 5.17999 14.03 5.30999 13.78L5.55999 13.28C5.67999 13.03 5.98001 12.93 6.23001 13.06C6.48001 13.18 6.58001 13.48 6.45001 13.73L6.20001 14.23C6.11001 14.4 5.93999 14.51 5.74999 14.51V14.5Z" fill="black"/>
<path d="M3.74999 14.5C3.66999 14.5 3.59999 14.48 3.52999 14.45C3.27999 14.33 3.17999 14.03 3.30999 13.78L3.55999 13.28C3.67999 13.03 3.98001 12.93 4.23001 13.06C4.48001 13.18 4.58001 13.48 4.45001 13.73L4.20001 14.23C4.11001 14.4 3.93999 14.51 3.74999 14.51V14.5Z" fill="black"/>
<path d="M12 12C13.66 12 15 10.66 15 9C15 7.34 13.66 6 12 6H11.95C11.71 4.31 10.26 3 8.5 3C6.74 3 5.28999 4.31 5.04999 6H4C2.34 6 1 7.34 1 9C1 10.66 2.34 12 4 12H12Z" fill="black"/>
</svg>
