<svg width="16" height="16" viewBox="0 0 16 16" fill="none" xmlns="http://www.w3.org/2000/svg">
<path d="M9.74999 15.5C9.66999 15.5 9.59999 15.48 9.52999 15.45C9.27999 15.33 9.17999 15.03 9.30999 14.78L9.55999 14.28C9.67999 14.03 9.98001 13.93 10.23 14.06C10.48 14.18 10.58 14.48 10.45 14.73L10.2 15.23C10.11 15.4 9.93999 15.51 9.74999 15.51V15.5Z" fill="currentColor"/>
<path d="M11.75 15.5C11.67 15.5 11.6 15.48 11.53 15.45C11.28 15.33 11.18 15.03 11.31 14.78L11.56 14.28C11.68 14.03 11.98 13.93 12.23 14.06C12.48 14.18 12.58 14.48 12.45 14.73L12.2 15.23C12.11 15.4 11.94 15.51 11.75 15.51V15.5Z" fill="currentColor"/>
<path d="M7.74999 15.5C7.66999 15.5 7.59999 15.48 7.52999 15.45C7.27999 15.33 7.17999 15.03 7.30999 14.78L7.55999 14.28C7.67999 14.03 7.98001 13.93 8.23001 14.06C8.48001 14.18 8.58001 14.48 8.45001 14.73L8.20001 15.23C8.11001 15.4 7.93999 15.51 7.74999 15.51V15.5Z" fill="currentColor"/>
<path d="M5.74999 15.5C5.66999 15.5 5.59999 15.48 5.52999 15.45C5.27999 15.33 5.17999 15.03 5.30999 14.78L5.55999 14.28C5.67999 14.03 5.98001 13.93 6.23001 14.06C6.48001 14.18 6.58001 14.48 6.45001 14.73L6.20001 15.23C6.11001 15.4 5.93999 15.51 5.74999 15.51V15.5Z" fill="currentColor"/>
<path d="M5 3C4.72 3 4.5 2.78 4.5 2.5V2C4.5 1.72 4.72 1.5 5 1.5C5.28 1.5 5.5 1.72 5.5 2V2.5C5.5 2.78 5.28 3 5 3Z" fill="currentColor"/>
<path d="M2.42999 3.93999C2.28999 3.93999 2.14999 3.87999 2.04999 3.75999L1.73001 3.37999C1.55001 3.16999 1.58001 2.84999 1.79001 2.67999C2.00001 2.49999 2.31999 2.52999 2.48999 2.73999L2.81 3.11999C2.99 3.32999 2.96 3.64999 2.75 3.81999C2.66 3.89999 2.53999 3.93999 2.42999 3.93999Z" fill="currentColor"/>
<path d="M1.06 6.30999C1.06 6.30999 1 6.30999 0.970003 6.30999L0.480013 6.21999C0.210013 6.16999 0.0300094 5.90999 0.0700094 5.63999C0.110009 5.36999 0.379996 5.17999 0.649996 5.22999L1.14002 5.31999C1.41002 5.36999 1.58999 5.62999 1.54999 5.89999C1.50999 6.13999 1.3 6.30999 1.06 6.30999Z" fill="currentColor"/>
<path d="M1.10002 9.24999C0.930019 9.24999 0.760026 9.15999 0.670026 8.99999C0.530026 8.75999 0.610019 8.45999 0.850019 8.31999L1.28001 8.06999C1.52001 7.92999 1.82 8.00999 1.96 8.24999C2.1 8.48999 2.02001 8.78999 1.78001 8.92999L1.35002 9.17999C1.27002 9.21999 1.18002 9.24999 1.10002 9.24999Z" fill="currentColor"/>
<path d="M7.57 3.93999C7.46 3.93999 7.34 3.89999 7.25 3.81999C7.04 3.63999 7.01 3.32999 7.19 3.11999L7.51001 2.73999C7.69001 2.52999 7.99999 2.49999 8.20999 2.67999C8.41999 2.85999 8.44999 3.16999 8.26999 3.37999L7.95001 3.75999C7.85001 3.87999 7.71 3.93999 7.57 3.93999Z" fill="currentColor"/>
<path d="M5.12 7.02C5.35999 6.07 5.94999 5.26 6.73999 4.71C6.28999 4.27 5.68 4 5 4C3.62 4 2.5 5.12 2.5 6.5C2.5 7.08 2.70999 7.6 3.04999 8.02C3.59999 7.48 4.32 7.1 5.13 7.02H5.12Z" fill="currentColor"/>
<path d="M12.5 13C13.88 13 15 11.88 15 10.5C15 9.12 13.88 8 12.5 8H12C12 6.34 10.66 5 9 5C7.34 5 6 6.34 6 8H5.5C4.12 8 3 9.12 3 10.5C3 11.88 4.12 13 5.5 13H12.5Z" fill="currentColor"/>
</svg>
