<svg width="16" height="16" viewBox="0 0 16 16" fill="none" xmlns="http://www.w3.org/2000/svg">
<path d="M11 10.5H5C4.72 10.5 4.5 10.28 4.5 10C4.5 9.72 4.72 9.5 5 9.5H11C11.28 9.5 11.5 9.28 11.5 9C11.5 8.72 11.28 8.5 11 8.5C10.72 8.5 10.5 8.28 10.5 8C10.5 7.72 10.72 7.5 11 7.5C11.83 7.5 12.5 8.17 12.5 9C12.5 9.83 11.83 10.5 11 10.5Z" fill="black"/>
<path d="M9 14.5C8.72 14.5 8.5 14.28 8.5 14C8.5 13.72 8.72 13.5 9 13.5C9.28 13.5 9.5 13.28 9.5 13C9.5 12.72 9.28 12.5 9 12.5H6C5.72 12.5 5.5 12.28 5.5 12C5.5 11.72 5.72 11.5 6 11.5H9C9.83 11.5 10.5 12.17 10.5 13C10.5 13.83 9.83 14.5 9 14.5Z" fill="black"/>
<path d="M12 6H11.95C11.71 4.31 10.26 3 8.5 3C6.74 3 5.28999 4.31 5.04999 6H4C2.34 6 1 7.34 1 9C1 10.66 2.34 12 4 12H4.5C4.5 11.8 4.53999 11.62 4.60999 11.44C3.96999 11.27 3.5 10.69 3.5 10C3.5 9.17 4.17 8.5 5 8.5H9.59003C9.53003 8.34 9.5 8.17 9.5 8C9.5 7.17 10.17 6.5 11 6.5C12.38 6.5 13.5 7.62 13.5 9C13.5 10.38 12.38 11.5 11 11.5H10.99C11.11 11.65 11.2 11.82 11.28 12H12C13.66 12 15 10.66 15 9C15 7.34 13.66 6 12 6Z" fill="black"/>
</svg>
