<svg width="16" height="16" viewBox="0 0 16 16" fill="none" xmlns="http://www.w3.org/2000/svg">
<path d="M5.11999 7.01999C5.44999 5.69999 6.44999 4.63999 7.73999 4.20999C7.34999 3.22999 6.54003 2.46999 5.53003 2.14999C5.14003 2.02999 4.79002 2.38999 4.90002 2.77999C5.10002 3.44999 5.02998 4.22999 4.53998 4.93999C4.37998 5.16999 4.18 5.37999 3.94 5.53999C3.23 6.02999 2.45003 6.08999 1.78003 5.89999C1.39003 5.77999 1.03001 6.12999 1.14001 6.51999C1.39001 7.33999 1.94002 8.02999 2.65002 8.46999C3.22002 7.67999 4.08998 7.12999 5.10998 7.01999H5.11999Z" fill="black"/>
<path d="M11.55 10.82L11 10.5L11.55 10.18C11.79 10.04 11.87 9.74001 11.73 9.50001C11.59 9.26001 11.29 9.18001 11.05 9.32001L10.5 9.64001V9.01001C10.5 8.73001 10.28 8.51001 9.99998 8.51001C9.71998 8.51001 9.49998 8.73001 9.49998 9.01001V9.64001L8.94999 9.32001C8.70999 9.18001 8.41 9.26001 8.27 9.50001C8.13 9.74001 8.20999 10.04 8.44999 10.18L8.99998 10.5L8.44999 10.82C8.20999 10.96 8.13 11.26 8.27 11.5C8.36 11.66 8.52999 11.75 8.69999 11.75C8.77999 11.75 8.86999 11.73 8.94999 11.68L9.49998 11.36V11.99C9.49998 12.27 9.71998 12.49 9.99998 12.49C10.28 12.49 10.5 12.27 10.5 11.99V11.36L11.05 11.68C11.13 11.73 11.22 11.75 11.3 11.75C11.47 11.75 11.64 11.66 11.73 11.5C11.87 11.26 11.79 10.96 11.55 10.82Z" fill="black"/>
<path d="M7.72996 12.5C7.58996 12.26 7.28997 12.18 7.04997 12.32L6.49998 12.64V12.01C6.49998 11.73 6.27998 11.51 5.99998 11.51C5.71998 11.51 5.49998 11.73 5.49998 12.01V12.64L4.94999 12.32C4.70999 12.18 4.41 12.26 4.27 12.5C4.13 12.74 4.20999 13.04 4.44999 13.18L4.99998 13.5L4.44999 13.82C4.20999 13.96 4.13 14.26 4.27 14.5C4.36 14.66 4.52999 14.75 4.69999 14.75C4.77999 14.75 4.86999 14.73 4.94999 14.68L5.49998 14.36V14.99C5.49998 15.27 5.71998 15.49 5.99998 15.49C6.27998 15.49 6.49998 15.27 6.49998 14.99V14.36L7.04997 14.68C7.12997 14.73 7.21997 14.75 7.29997 14.75C7.46997 14.75 7.63996 14.66 7.72996 14.5C7.86996 14.26 7.78997 13.96 7.54997 13.82L6.99998 13.5L7.54997 13.18C7.78997 13.04 7.86996 12.74 7.72996 12.5Z" fill="black"/>
<path d="M8.78998 12.87C8.78998 12.87 8.78002 12.96 8.77002 13H8.90997C8.90997 13 8.82998 12.92 8.78998 12.87Z" fill="black"/>
<path d="M12 8C12 6.34 10.66 5 9 5C7.34 5 6 6.34 6 8H5.5C4.12 8 3 9.12 3 10.5C3 11.03 3.17002 11.53 3.46002 11.93C3.74002 11.51 4.20002 11.25 4.71002 11.25C4.97002 10.8 5.46001 10.5 6.01001 10.5C6.51001 10.5 6.93997 10.75 7.21997 11.13C7.21997 11.04 7.24001 10.95 7.26001 10.86C7.29001 10.73 7.33997 10.61 7.40997 10.5C7.34997 10.39 7.29001 10.27 7.26001 10.14C7.16001 9.75 7.20997 9.35 7.40997 9C7.66997 8.54 8.17002 8.25 8.71002 8.25C8.97002 7.8 9.45001 7.5 10.01 7.5C10.57 7.5 11.05 7.8 11.31 8.25C11.84 8.25 12.34 8.54 12.61 9C12.81 9.34 12.86 9.75 12.76 10.14C12.73 10.27 12.68 10.39 12.61 10.5C12.67 10.61 12.73 10.73 12.76 10.86C12.86 11.25 12.81 11.65 12.61 12C12.35 12.46 11.85 12.75 11.31 12.75C11.26 12.84 11.19 12.92 11.12 13H12.51C13.89 13 15.01 11.88 15.01 10.5C15.01 9.12 13.89 8 12.51 8H12Z" fill="black"/>
</svg>
