<svg width="16" height="16" viewBox="0 0 16 16" fill="none" xmlns="http://www.w3.org/2000/svg">
<path d="M5 3C4.72 3 4.5 2.78 4.5 2.5V2C4.5 1.72 4.72 1.5 5 1.5C5.28 1.5 5.5 1.72 5.5 2V2.5C5.5 2.78 5.28 3 5 3Z" fill="currentColor"/>
<path d="M2.42999 3.93999C2.28999 3.93999 2.14999 3.87999 2.04999 3.75999L1.73001 3.37999C1.55001 3.16999 1.58001 2.84999 1.79001 2.67999C2.00001 2.49999 2.31999 2.52999 2.48999 2.73999L2.81 3.11999C2.99 3.32999 2.96 3.64999 2.75 3.81999C2.66 3.89999 2.53999 3.93999 2.42999 3.93999Z" fill="currentColor"/>
<path d="M1.06 6.30999C1.06 6.30999 1 6.30999 0.970003 6.30999L0.480013 6.21999C0.210013 6.16999 0.0300094 5.90999 0.0700094 5.63999C0.110009 5.36999 0.379996 5.17999 0.649996 5.22999L1.14002 5.31999C1.41002 5.36999 1.58999 5.62999 1.54999 5.89999C1.50999 6.13999 1.3 6.30999 1.06 6.30999Z" fill="currentColor"/>
<path d="M1.10002 9.24999C0.930019 9.24999 0.760026 9.15999 0.670026 8.99999C0.530026 8.75999 0.610019 8.45999 0.850019 8.31999L1.28001 8.06999C1.52001 7.92999 1.82 8.00999 1.96 8.24999C2.1 8.48999 2.02001 8.78999 1.78001 8.92999L1.35002 9.17999C1.27002 9.21999 1.18002 9.24999 1.10002 9.24999Z" fill="currentColor"/>
<path d="M7.57004 3.93999C7.46004 3.93999 7.34003 3.89999 7.25003 3.81999C7.04003 3.63999 7.01003 3.32999 7.19003 3.11999L7.51004 2.73999C7.69004 2.52999 8.00005 2.49999 8.21005 2.67999C8.42005 2.85999 8.45005 3.16999 8.27005 3.37999L7.95004 3.75999C7.85004 3.87999 7.71004 3.93999 7.57004 3.93999Z" fill="currentColor"/>
<path d="M5.12 7.02C5.35999 6.07 5.94999 5.26 6.73999 4.71C6.28999 4.27 5.68 4 5 4C3.62 4 2.5 5.12 2.5 6.5C2.5 7.08 2.70999 7.6 3.04999 8.02C3.59999 7.48 4.32 7.1 5.13 7.02H5.12Z" fill="currentColor"/>
<path d="M10 11.5H6C5.72 11.5 5.5 11.28 5.5 11C5.5 10.72 5.72 10.5 6 10.5H10C10.28 10.5 10.5 10.28 10.5 10C10.5 9.72 10.28 9.5 10 9.5C9.72 9.5 9.5 9.28 9.5 9C9.5 8.72 9.72 8.5 10 8.5C10.83 8.5 11.5 9.17 11.5 10C11.5 10.83 10.83 11.5 10 11.5Z" fill="currentColor"/>
<path d="M10 15.5C9.72 15.5 9.5 15.28 9.5 15C9.5 14.72 9.72 14.5 10 14.5C10.28 14.5 10.5 14.28 10.5 14C10.5 13.72 10.28 13.5 10 13.5H8C7.72 13.5 7.5 13.28 7.5 13C7.5 12.72 7.72 12.5 8 12.5H10C10.83 12.5 11.5 13.17 11.5 14C11.5 14.83 10.83 15.5 10 15.5Z" fill="currentColor"/>
<path d="M12.5 8H12C12 6.34 10.66 5 9 5C7.34 5 6 6.34 6 8H5.5C4.12 8 3 9.12 3 10.5C3 11.88 4.12 13 5.5 13H6.5C6.5 12.82 6.54003 12.66 6.59003 12.5H6C5.17 12.5 4.5 11.83 4.5 11C4.5 10.17 5.17 9.5 6 9.5H8.59003C8.53003 9.34 8.5 9.17 8.5 9C8.5 8.17 9.17 7.5 10 7.5C11.38 7.5 12.5 8.62 12.5 10C12.5 10.82 12.1 11.54 11.48 12C11.82 12.26 12.09 12.6 12.27 13H12.5C13.88 13 15 11.88 15 10.5C15 9.12 13.88 8 12.5 8Z" fill="currentColor"/>
</svg>
