<svg width="16" height="16" viewBox="0 0 16 16" fill="none" xmlns="http://www.w3.org/2000/svg">
<path d="M13 12.5H6C5.72 12.5 5.5 12.28 5.5 12C5.5 11.72 5.72 11.5 6 11.5H13C13.28 11.5 13.5 11.72 13.5 12C13.5 12.28 13.28 12.5 13 12.5Z" fill="currentColor"/>
<path d="M12 14.5H5C4.72 14.5 4.5 14.28 4.5 14C4.5 13.72 4.72 13.5 5 13.5H12C12.28 13.5 12.5 13.72 12.5 14C12.5 14.28 12.28 14.5 12 14.5Z" fill="currentColor"/>
<path d="M14 10.5H7C6.72 10.5 6.5 10.28 6.5 10C6.5 9.72 6.72 9.5 7 9.5H14C14.28 9.5 14.5 9.72 14.5 10C14.5 10.28 14.28 10.5 14 10.5Z" fill="currentColor"/>
<path d="M12 6H11.95C11.71 4.31 10.26 3 8.50002 3C6.74002 3 5.29 4.31 5.05 6H4.17C2.55 6 1.09002 7.22 1.00002 8.84C0.910016 10.57 2.29002 12 4.00002 12H4.50002C4.50002 11.31 4.97 10.73 5.61 10.56C5.54 10.39 5.50002 10.2 5.50002 10C5.50002 9.17 6.17002 8.5 7.00002 8.5H14.33C14.65 8.5 14.88 8.17 14.76 7.87C14.32 6.77 13.26 6 12 6Z" fill="currentColor"/>
</svg>
