<svg width="16" height="16" viewBox="0 0 16 16" fill="none" xmlns="http://www.w3.org/2000/svg">
<path d="M9.74999 15.5C9.66999 15.5 9.59999 15.48 9.52999 15.45C9.27999 15.33 9.17999 15.03 9.30999 14.78L9.55999 14.28C9.67999 14.03 9.98001 13.93 10.23 14.06C10.48 14.18 10.58 14.48 10.45 14.73L10.2 15.23C10.11 15.4 9.93999 15.51 9.74999 15.51V15.5Z" fill="currentColor"/>
<path d="M11.75 15.5C11.67 15.5 11.6 15.48 11.53 15.45C11.28 15.33 11.18 15.03 11.31 14.78L11.56 14.28C11.68 14.03 11.98 13.93 12.23 14.06C12.48 14.18 12.58 14.48 12.45 14.73L12.2 15.23C12.11 15.4 11.94 15.51 11.75 15.51V15.5Z" fill="currentColor"/>
<path d="M7.74999 15.5C7.66999 15.5 7.59999 15.48 7.52999 15.45C7.27999 15.33 7.17999 15.03 7.30999 14.78L7.55999 14.28C7.67999 14.03 7.98001 13.93 8.23001 14.06C8.48001 14.18 8.58001 14.48 8.45001 14.73L8.20001 15.23C8.11001 15.4 7.93999 15.51 7.74999 15.51V15.5Z" fill="currentColor"/>
<path d="M5.74999 15.5C5.66999 15.5 5.59999 15.48 5.52999 15.45C5.27999 15.33 5.17999 15.03 5.30999 14.78L5.55999 14.28C5.67999 14.03 5.98001 13.93 6.23001 14.06C6.48001 14.18 6.58001 14.48 6.45001 14.73L6.20001 15.23C6.11001 15.4 5.93999 15.51 5.74999 15.51V15.5Z" fill="currentColor"/>
<path d="M5.11999 7.01999C5.44999 5.69999 6.44999 4.63999 7.73999 4.20999C7.34999 3.22999 6.54 2.46999 5.53 2.14999C5.14 2.02999 4.78999 2.38999 4.89999 2.77999C5.09999 3.44999 5.03001 4.22999 4.54001 4.93999C4.38001 5.16999 4.18 5.37999 3.94 5.53999C3.23 6.02999 2.45 6.08999 1.78 5.89999C1.39 5.77999 1.03001 6.12999 1.14001 6.51999C1.39001 7.33999 1.93999 8.02999 2.64999 8.46999C3.21999 7.67999 4.08998 7.12999 5.10998 7.01999H5.11999Z" fill="currentColor"/>
<path d="M12.5 7.99999H12C12 6.33999 10.66 4.99999 9 4.99999C7.34 4.99999 6 6.33999 6 7.99999H5.5C4.12 7.99999 3 9.11999 3 10.5C3 11.88 4.12 13 5.5 13H12.5C13.88 13 15 11.88 15 10.5C15 9.11999 13.88 7.99999 12.5 7.99999Z" fill="currentColor"/>
</svg>
