<svg width="16" height="16" viewBox="0 0 16 16" fill="none" xmlns="http://www.w3.org/2000/svg">
<path d="M5.11999 7.01999C5.44999 5.69999 6.44999 4.63999 7.73999 4.20999C7.34999 3.22999 6.54 2.46999 5.53 2.14999C5.14 2.02999 4.78999 2.38999 4.89999 2.77999C5.09999 3.44999 5.03001 4.22999 4.54001 4.93999C4.38001 5.16999 4.18 5.37999 3.94 5.53999C3.23 6.02999 2.45 6.08999 1.78 5.89999C1.39 5.77999 1.03001 6.12999 1.14001 6.51999C1.39001 7.33999 1.93999 8.02999 2.64999 8.46999C3.21999 7.67999 4.08998 7.12999 5.10998 7.01999H5.11999Z" fill="currentColor"/>
<path d="M12.5 8H12C12 6.34 10.66 5 9 5C7.34 5 6 6.34 6 8H5.5C4.12 8 3 9.12 3 10.5C3 11.88 4.12 13 5.5 13H12.5C13.88 13 15 11.88 15 10.5C15 9.12 13.88 8 12.5 8Z" fill="currentColor"/>
</svg>
