<svg width="16" height="16" viewBox="0 0 16 16" fill="none" xmlns="http://www.w3.org/2000/svg">
<path d="M13 9C12.53 9 12.1 9.17 11.76 9.44C11.36 8.59 10.5 8 9.5 8C8.12 8 7 9.12 7 10.5C7 11.88 8.12 13 9.5 13H13C14.1 13 15 12.1 15 11C15 9.9 14.1 9 13 9Z" fill="black"/>
<path d="M9.5 7.00001C10.49 7.00001 11.43 7.43001 12.08 8.15001C12.36 8.06001 12.65 8.01001 12.95 8.01001C12.72 6.87001 11.71 6.01001 10.5 6.01001H10C10 4.35001 8.66 3.01001 7 3.01001C5.34 3.01001 4 4.35001 4 6.01001H3.5C2.12 6.01001 1 7.13001 1 8.51001C1 9.89001 2.12 11.01 3.5 11.01H6.04999C6.02999 10.85 6 10.68 6 10.51C6 8.58001 7.57 7.01001 9.5 7.01001V7.00001Z" fill="black"/>
</svg>
