<svg width="16" height="16" viewBox="0 0 16 16" fill="none" xmlns="http://www.w3.org/2000/svg">
<path d="M5.11999 7.01999C5.44999 5.69999 6.44999 4.63999 7.73999 4.20999C7.34999 3.22999 6.54003 2.46999 5.53003 2.14999C5.14003 2.02999 4.79002 2.38999 4.90002 2.77999C5.10002 3.44999 5.02998 4.22999 4.53998 4.93999C4.37998 5.16999 4.18 5.37999 3.94 5.53999C3.23 6.02999 2.45003 6.08999 1.78003 5.89999C1.39003 5.77999 1.03001 6.12999 1.14001 6.51999C1.39001 7.33999 1.94002 8.02999 2.65002 8.46999C3.22002 7.67999 4.08998 7.12999 5.10998 7.01999H5.11999Z" fill="black"/>
<path d="M7.5 12C8.05228 12 8.5 11.5523 8.5 11C8.5 10.4477 8.05228 10 7.5 10C6.94772 10 6.5 10.4477 6.5 11C6.5 11.5523 6.94772 12 7.5 12Z" fill="black"/>
<path d="M7.5 15C8.05228 15 8.5 14.5523 8.5 14C8.5 13.4477 8.05228 13 7.5 13C6.94772 13 6.5 13.4477 6.5 14C6.5 14.5523 6.94772 15 7.5 15Z" fill="black"/>
<path d="M10.5 14C11.0523 14 11.5 13.5523 11.5 13C11.5 12.4477 11.0523 12 10.5 12C9.94771 12 9.5 12.4477 9.5 13C9.5 13.5523 9.94771 14 10.5 14Z" fill="black"/>
<path d="M12.5 8H12C12 6.34 10.66 5 9 5C7.34 5 6 6.34 6 8H5.5C4.12 8 3 9.12 3 10.5C3 11.88 4.12 13 5.5 13H5.78998C5.89998 12.81 6.03 12.64 6.19 12.5C5.77 12.13 5.5 11.6 5.5 11C5.5 9.9 6.4 9 7.5 9C7.91 9 8.29999 9.13 8.62 9.34C8.89 8.56 9.63 8 10.5 8C11.6 8 12.5 8.9 12.5 10C12.5 10.6 12.23 11.13 11.81 11.5C12.23 11.87 12.5 12.4 12.5 13C13.88 13 15 11.88 15 10.5C15 9.12 13.88 8 12.5 8Z" fill="black"/>
<path d="M10.5 11C11.0523 11 11.5 10.5523 11.5 10C11.5 9.44772 11.0523 9 10.5 9C9.94771 9 9.5 9.44772 9.5 10C9.5 10.5523 9.94771 11 10.5 11Z" fill="black"/>
</svg>
