<svg width="16" height="16" viewBox="0 0 16 16" fill="none" xmlns="http://www.w3.org/2000/svg">
<path d="M5 3C4.72 3 4.5 2.78 4.5 2.5V2C4.5 1.72 4.72 1.5 5 1.5C5.28 1.5 5.5 1.72 5.5 2V2.5C5.5 2.78 5.28 3 5 3Z" fill="black"/>
<path d="M2.43002 3.93999C2.29002 3.93999 2.15002 3.87999 2.05002 3.75999L1.73001 3.37999C1.55001 3.16999 1.58001 2.84999 1.79001 2.67999C2.00001 2.49999 2.32002 2.52999 2.49002 2.73999L2.81003 3.11999C2.99003 3.32999 2.96003 3.64999 2.75003 3.81999C2.66003 3.89999 2.54002 3.93999 2.43002 3.93999Z" fill="black"/>
<path d="M1.06 6.30999C1.06 6.30999 0.999974 6.30999 0.969974 6.30999L0.479983 6.21999C0.209983 6.16999 0.0300102 5.90999 0.0700102 5.63999C0.12001 5.36999 0.380027 5.17999 0.650027 5.22999L1.14002 5.31999C1.41002 5.36999 1.58999 5.62999 1.54999 5.89999C1.50999 6.13999 1.3 6.30999 1.06 6.30999Z" fill="black"/>
<path d="M1.09996 9.24999C0.929958 9.24999 0.759965 9.15999 0.669965 8.99999C0.529965 8.75999 0.609958 8.45999 0.849958 8.31999L1.28001 8.06999C1.52001 7.92999 1.82 8.00999 1.96 8.24999C2.1 8.48999 2.02001 8.78999 1.78001 8.92999L1.34996 9.17999C1.26996 9.21999 1.17996 9.24999 1.09996 9.24999Z" fill="black"/>
<path d="M7.57004 3.93999C7.46004 3.93999 7.34003 3.89999 7.25003 3.81999C7.04003 3.63999 7.01003 3.32999 7.19003 3.11999L7.51004 2.73999C7.69004 2.52999 8.00005 2.49999 8.21005 2.67999C8.42005 2.85999 8.45005 3.16999 8.27005 3.37999L7.95004 3.75999C7.85004 3.87999 7.71004 3.93999 7.57004 3.93999Z" fill="black"/>
<path d="M5.12 7.02C5.35999 6.07 5.94999 5.26 6.73999 4.71C6.28999 4.27 5.68 4 5 4C3.62 4 2.5 5.12 2.5 6.5C2.5 7.08 2.70999 7.6 3.04999 8.02C3.59999 7.48 4.32 7.1 5.13 7.02H5.12Z" fill="black"/>
<path d="M14 10.5H8C7.72 10.5 7.5 10.28 7.5 10C7.5 9.72 7.72 9.5 8 9.5H14C14.28 9.5 14.5 9.72 14.5 10C14.5 10.28 14.28 10.5 14 10.5Z" fill="black"/>
<path d="M13 12.5H7C6.72 12.5 6.5 12.28 6.5 12C6.5 11.72 6.72 11.5 7 11.5H13C13.28 11.5 13.5 11.72 13.5 12C13.5 12.28 13.28 12.5 13 12.5Z" fill="black"/>
<path d="M12 14.5H6C5.72 14.5 5.5 14.28 5.5 14C5.5 13.72 5.72 13.5 6 13.5H12C12.28 13.5 12.5 13.72 12.5 14C12.5 14.28 12.28 14.5 12 14.5Z" fill="black"/>
<path d="M12 8.16998C12 6.54998 10.78 5.08998 9.15999 4.99998C7.42999 4.90999 6.00001 6.28998 6.00001 7.99998H5.59999C4.36999 7.99998 3.24999 8.83998 3.03999 10.05C2.79999 11.44 3.70999 12.67 4.96999 12.94C5.14999 12.77 5.36 12.62 5.61 12.56C5.54 12.39 5.50001 12.2 5.50001 12C5.50001 11.31 5.97 10.73 6.61 10.56C6.54 10.39 6.50001 10.2 6.50001 9.99998C6.50001 9.16998 7.17001 8.49998 8.00001 8.49998H11.67C11.85 8.49998 12 8.34998 12 8.16998Z" fill="black"/>
</svg>
