<svg width="16" height="16" viewBox="0 0 16 16" fill="none" xmlns="http://www.w3.org/2000/svg">
<path d="M7.53 10.45C7.6 10.49 7.68001 10.5 7.75001 10.5C7.93001 10.5 8.11002 10.4 8.20002 10.22L8.45002 9.72C8.57002 9.47 8.47002 9.17 8.23002 9.05C7.98002 8.93 7.68 9.03 7.56 9.27L7.31 9.77C7.19 10.02 7.29 10.32 7.53 10.44V10.45Z" fill="currentColor"/>
<path d="M7.22001 11.05C6.97001 10.93 6.66999 11.03 6.54999 11.27L6.29999 11.77C6.17999 12.02 6.27999 12.32 6.51999 12.44C6.58999 12.48 6.67 12.49 6.74 12.49C6.92 12.49 7.10001 12.39 7.19001 12.21L7.44001 11.71C7.56001 11.46 7.46001 11.16 7.22001 11.04V11.05Z" fill="currentColor"/>
<path d="M5.53 10.45C5.6 10.49 5.68001 10.5 5.75001 10.5C5.93001 10.5 6.11002 10.4 6.20002 10.22L6.45002 9.72C6.57002 9.47 6.47002 9.17 6.23002 9.05C5.98002 8.93 5.68 9.03 5.56 9.27L5.31 9.77C5.19 10.02 5.29 10.32 5.53 10.44V10.45Z" fill="currentColor"/>
<path d="M5.22001 11.05C4.97001 10.93 4.66999 11.03 4.54999 11.27L4.29999 11.77C4.17999 12.02 4.27999 12.32 4.51999 12.44C4.58999 12.48 4.67 12.49 4.74 12.49C4.92 12.49 5.10001 12.39 5.19001 12.21L5.44001 11.71C5.56001 11.46 5.46001 11.16 5.22001 11.04V11.05Z" fill="currentColor"/>
<path d="M6.22001 13.05C5.97001 12.93 5.66999 13.03 5.54999 13.27L5.29999 13.77C5.17999 14.02 5.27999 14.32 5.51999 14.44C5.58999 14.48 5.67 14.49 5.74 14.49C5.92 14.49 6.10001 14.39 6.19001 14.21L6.44001 13.71C6.56001 13.46 6.46001 13.16 6.22001 13.04V13.05Z" fill="currentColor"/>
<path d="M9.53 10.45C9.6 10.49 9.68001 10.5 9.75001 10.5C9.93001 10.5 10.11 10.4 10.2 10.22L10.45 9.72C10.57 9.47 10.47 9.17 10.23 9.05C9.98002 8.93 9.68 9.03 9.56 9.27L9.31 9.77C9.19 10.02 9.29 10.32 9.53 10.44V10.45Z" fill="currentColor"/>
<path d="M9.22001 11.05C8.97001 10.93 8.66999 11.03 8.54999 11.27L8.29999 11.77C8.17999 12.02 8.27999 12.32 8.51999 12.44C8.58999 12.48 8.67 12.49 8.74 12.49C8.92 12.49 9.10001 12.39 9.19001 12.21L9.44001 11.71C9.56001 11.46 9.46001 11.16 9.22001 11.04V11.05Z" fill="currentColor"/>
<path d="M8.22001 13.05C7.97001 12.93 7.66999 13.03 7.54999 13.27L7.29999 13.77C7.17999 14.02 7.27999 14.32 7.51999 14.44C7.58999 14.48 7.67 14.49 7.74 14.49C7.92 14.49 8.10001 14.39 8.19001 14.21L8.44001 13.71C8.56001 13.46 8.46001 13.16 8.22001 13.04V13.05Z" fill="currentColor"/>
<path d="M11.22 11.05C10.97 10.93 10.67 11.03 10.55 11.27L10.3 11.77C10.18 12.02 10.28 12.32 10.52 12.44C10.59 12.48 10.67 12.49 10.74 12.49C10.92 12.49 11.1 12.39 11.19 12.21L11.44 11.71C11.56 11.46 11.46 11.16 11.22 11.04V11.05Z" fill="currentColor"/>
<path d="M10.22 13.05C9.97001 12.93 9.66999 13.03 9.54999 13.27L9.29999 13.77C9.17999 14.02 9.27999 14.32 9.51999 14.44C9.58999 14.48 9.67 14.49 9.74 14.49C9.92 14.49 10.1 14.39 10.19 14.21L10.44 13.71C10.56 13.46 10.46 13.16 10.22 13.04V13.05Z" fill="currentColor"/>
<path d="M4.22001 13.05C3.97001 12.93 3.66999 13.03 3.54999 13.27L3.29999 13.77C3.17999 14.02 3.27999 14.32 3.51999 14.44C3.58999 14.48 3.67 14.49 3.74 14.49C3.92 14.49 4.10001 14.39 4.19001 14.21L4.44001 13.71C4.56001 13.46 4.46001 13.16 4.22001 13.04V13.05Z" fill="currentColor"/>
<path d="M11.95 6C11.71 4.31 10.26 3 8.5 3C6.74 3 5.28999 4.31 5.04999 6H4C2.34 6 1 7.34 1 9C1 10.4 1.96999 11.57 3.26999 11.9C3.27999 11.71 3.32 11.51 3.41 11.33L3.66 10.83C3.8 10.56 4.00999 10.34 4.26999 10.2C4.22999 9.91 4.27 9.61 4.41 9.33L4.66 8.83C4.92 8.32 5.43 8 6 8C6.23 8 6.46001 8.05 6.67001 8.16C6.80001 8.22 6.91001 8.31 7.01001 8.4C7.28001 8.15 7.63001 8 8.01001 8C8.24001 8 8.46999 8.05 8.67999 8.16C8.80999 8.22 8.91999 8.31 9.01999 8.4C9.28999 8.16 9.63999 8 10.02 8C10.25 8 10.48 8.05 10.69 8.16C10.82 8.22 10.93 8.31 11.02 8.4C11.29 8.16 11.64 8 12.02 8C12.25 8 12.48 8.05 12.69 8.16C13.43 8.53 13.73 9.43 13.37 10.17L13.12 10.67C12.98 10.94 12.77 11.16 12.51 11.3C12.54 11.52 12.51 11.74 12.44 11.96C13.9 11.76 15.03 10.52 15.03 9C15.03 7.34 13.69 6 12.03 6H11.95Z" fill="currentColor"/>
<path d="M12.22 9.05C11.97 8.93 11.67 9.03 11.55 9.27L11.3 9.77C11.18 10.02 11.28 10.32 11.52 10.44C11.59 10.48 11.67 10.49 11.74 10.49C11.92 10.49 12.1 10.39 12.19 10.21L12.44 9.71C12.56 9.46 12.46 9.16 12.22 9.04V9.05Z" fill="currentColor"/>
</svg>
