<svg width="16" height="16" viewBox="0 0 16 16" fill="none" xmlns="http://www.w3.org/2000/svg">
<path d="M11 10.5H5C4.72 10.5 4.5 10.28 4.5 10C4.5 8.07 6.07 6.5 8 6.5C9.93 6.5 11.5 8.07 11.5 10C11.5 10.28 11.28 10.5 11 10.5Z" fill="black"/>
<path d="M8 5.5C7.72 5.5 7.5 5.28 7.5 5V4C7.5 3.72 7.72 3.5 8 3.5C8.28 3.5 8.5 3.72 8.5 4V5C8.5 5.28 8.28 5.5 8 5.5Z" fill="black"/>
<path d="M11.54 6.96C11.41 6.96 11.28 6.90999 11.19 6.80999C10.99 6.60999 10.99 6.3 11.19 6.1L11.9 5.38999C12.1 5.18999 12.41 5.18999 12.61 5.38999C12.81 5.58999 12.81 5.9 12.61 6.1L11.9 6.80999C11.8 6.90999 11.67 6.96 11.55 6.96H11.54Z" fill="black"/>
<path d="M14 10.5H13C12.72 10.5 12.5 10.28 12.5 10C12.5 9.72 12.72 9.5 13 9.5H14C14.28 9.5 14.5 9.72 14.5 10C14.5 10.28 14.28 10.5 14 10.5Z" fill="black"/>
<path d="M3 10.5H2C1.72 10.5 1.5 10.28 1.5 10C1.5 9.72 1.72 9.5 2 9.5H3C3.28 9.5 3.5 9.72 3.5 10C3.5 10.28 3.28 10.5 3 10.5Z" fill="black"/>
<path d="M4.46 6.96C4.33 6.96 4.19999 6.90999 4.10999 6.80999L3.4 6.1C3.2 5.9 3.2 5.58999 3.4 5.38999C3.6 5.18999 3.90999 5.18999 4.10999 5.38999L4.82001 6.1C5.02001 6.3 5.02001 6.60999 4.82001 6.80999C4.72001 6.90999 4.59001 6.96 4.47001 6.96H4.46Z" fill="black"/>
</svg>
