<svg width="16" height="16" viewBox="0 0 16 16" fill="none" xmlns="http://www.w3.org/2000/svg">
<path d="M14 10.5H11C10.72 10.5 10.5 10.28 10.5 10C10.5 9.72 10.72 9.5 11 9.5H14C14.28 9.5 14.5 9.72 14.5 10C14.5 10.28 14.28 10.5 14 10.5Z" fill="currentColor"/>
<path d="M9 10.5H2C1.72 10.5 1.5 10.28 1.5 10C1.5 9.72 1.72 9.5 2 9.5H9C9.28 9.5 9.5 9.72 9.5 10C9.5 10.28 9.28 10.5 9 10.5Z" fill="currentColor"/>
<path d="M13 12.5H8C7.72 12.5 7.5 12.28 7.5 12C7.5 11.72 7.72 11.5 8 11.5H13C13.28 11.5 13.5 11.72 13.5 12C13.5 12.28 13.28 12.5 13 12.5Z" fill="currentColor"/>
<path d="M6 12.5H3C2.72 12.5 2.5 12.28 2.5 12C2.5 11.72 2.72 11.5 3 11.5H6C6.28 11.5 6.5 11.72 6.5 12C6.5 12.28 6.28 12.5 6 12.5Z" fill="currentColor"/>
<path d="M12 14.5H4C3.72 14.5 3.5 14.28 3.5 14C3.5 13.72 3.72 13.5 4 13.5H12C12.28 13.5 12.5 13.72 12.5 14C12.5 14.28 12.28 14.5 12 14.5Z" fill="currentColor"/>
<path d="M8.73003 2.42001C8.88003 2.88001 8.91002 3.39001 8.77002 3.92001C8.54002 4.81001 7.81002 5.54001 6.92002 5.77001C6.38002 5.91001 5.87003 5.88001 5.41003 5.73001C5.00003 5.59001 4.60002 5.96001 4.76002 6.36001C5.37002 7.81001 6.92003 8.76001 8.66003 8.43001C10.04 8.17001 11.17 7.04001 11.43 5.66001C11.76 3.92001 10.8 2.37001 9.36002 1.76001C8.97002 1.59001 8.60003 2.00001 8.73003 2.41001V2.42001Z" fill="currentColor"/>
</svg>
