<svg width="16" height="16" viewBox="0 0 16 16" fill="none" xmlns="http://www.w3.org/2000/svg">
<path d="M8 11C9.65685 11 11 9.65685 11 8C11 6.34315 9.65685 5 8 5C6.34315 5 5 6.34315 5 8C5 9.65685 6.34315 11 8 11Z" fill="black"/>
<path d="M8 3.5C7.72 3.5 7.5 3.28 7.5 3V2C7.5 1.72 7.72 1.5 8 1.5C8.28 1.5 8.5 1.72 8.5 2V3C8.5 3.28 8.28 3.5 8 3.5Z" fill="black"/>
<path d="M8 14.5C7.72 14.5 7.5 14.28 7.5 14V13C7.5 12.72 7.72 12.5 8 12.5C8.28 12.5 8.5 12.72 8.5 13V14C8.5 14.28 8.28 14.5 8 14.5Z" fill="black"/>
<path d="M11.54 4.96C11.41 4.96 11.28 4.90999 11.19 4.80999C10.99 4.60999 10.99 4.3 11.19 4.1L11.9 3.38999C12.1 3.18999 12.41 3.18999 12.61 3.38999C12.81 3.58999 12.81 3.9 12.61 4.1L11.9 4.80999C11.8 4.90999 11.67 4.96 11.55 4.96H11.54Z" fill="black"/>
<path d="M3.76002 12.74C3.63002 12.74 3.50001 12.69 3.41001 12.59C3.21001 12.39 3.21001 12.08 3.41001 11.88L4.12 11.17C4.32 10.97 4.62999 10.97 4.82999 11.17C5.02999 11.37 5.02999 11.68 4.82999 11.88L4.12 12.59C4.02 12.69 3.89 12.74 3.77 12.74H3.76002Z" fill="black"/>
<path d="M14 8.5H13C12.72 8.5 12.5 8.28 12.5 8C12.5 7.72 12.72 7.5 13 7.5H14C14.28 7.5 14.5 7.72 14.5 8C14.5 8.28 14.28 8.5 14 8.5Z" fill="black"/>
<path d="M3 8.5H2C1.72 8.5 1.5 8.28 1.5 8C1.5 7.72 1.72 7.5 2 7.5H3C3.28 7.5 3.5 7.72 3.5 8C3.5 8.28 3.28 8.5 3 8.5Z" fill="black"/>
<path d="M12.24 12.74C12.11 12.74 11.98 12.69 11.89 12.59L11.18 11.88C10.98 11.68 10.98 11.37 11.18 11.17C11.38 10.97 11.69 10.97 11.89 11.17L12.6 11.88C12.8 12.08 12.8 12.39 12.6 12.59C12.5 12.69 12.37 12.74 12.25 12.74H12.24Z" fill="black"/>
<path d="M4.46 4.96C4.33 4.96 4.19999 4.90999 4.10999 4.80999L3.4 4.1C3.2 3.9 3.2 3.58999 3.4 3.38999C3.6 3.18999 3.90999 3.18999 4.10999 3.38999L4.82001 4.1C5.02001 4.3 5.02001 4.60999 4.82001 4.80999C4.72001 4.90999 4.59001 4.96 4.47001 4.96H4.46Z" fill="black"/>
</svg>
