<svg width="16" height="16" viewBox="0 0 16 16" fill="none" xmlns="http://www.w3.org/2000/svg">
<path d="M12.78 4.42999C12.55 4.24999 12.31 4.06999 12.06 3.91999C11.14 3.34999 10.08 3.00999 8.92999 2.99999C6.09999 2.95999 3.73997 4.90999 3.15997 7.55999C2.67997 7.15999 2.26999 6.68 1.92999 6.15C1.66999 5.75 1.05001 5.90999 1.01001 6.38999C1.00001 6.55999 0.98999 6.73 0.98999 6.9C1.00999 8.75 1.87001 10.43 3.20001 11.56C3.43001 11.74 3.66999 11.92 3.92999 12.07C4.84999 12.64 5.91 12.98 7.06 12.99C9.89 13.03 12.25 11.08 12.83 8.42999C13.31 8.82999 13.72 9.30999 14.06 9.83999C14.32 10.24 14.94 10.08 14.98 9.59999C14.99 9.42999 15 9.25999 15 9.08999C14.98 7.23999 14.12 5.55999 12.79 4.42999H12.78ZM8 9.99999C6.9 9.99999 6 9.09999 6 7.99999C6 6.89999 6.9 5.99999 8 5.99999C9.1 5.99999 10 6.89999 10 7.99999C10 9.09999 9.1 9.99999 8 9.99999Z" fill="black"/>
</svg>
