<svg width="16" height="16" viewBox="0 0 16 16" fill="none" xmlns="http://www.w3.org/2000/svg">
<path d="M5.11999 7.01999C5.44999 5.69999 6.44999 4.63999 7.73999 4.20999C7.34999 3.22999 6.54003 2.46999 5.53003 2.14999C5.14003 2.02999 4.79002 2.38999 4.90002 2.77999C5.10002 3.44999 5.02998 4.22999 4.53998 4.93999C4.37998 5.16999 4.18 5.37999 3.94 5.53999C3.23 6.02999 2.45003 6.08999 1.78003 5.89999C1.39003 5.77999 1.03001 6.12999 1.14001 6.51999C1.39001 7.33999 1.94002 8.02999 2.65002 8.46999C3.22002 7.67999 4.08998 7.12999 5.10998 7.01999H5.11999Z" fill="currentColor"/>
<path d="M14 10.5H8C7.72 10.5 7.5 10.28 7.5 10C7.5 9.72 7.72 9.5 8 9.5H14C14.28 9.5 14.5 9.72 14.5 10C14.5 10.28 14.28 10.5 14 10.5Z" fill="currentColor"/>
<path d="M13 12.5H7C6.72 12.5 6.5 12.28 6.5 12C6.5 11.72 6.72 11.5 7 11.5H13C13.28 11.5 13.5 11.72 13.5 12C13.5 12.28 13.28 12.5 13 12.5Z" fill="currentColor"/>
<path d="M12 14.5H6C5.72 14.5 5.5 14.28 5.5 14C5.5 13.72 5.72 13.5 6 13.5H12C12.28 13.5 12.5 13.72 12.5 14C12.5 14.28 12.28 14.5 12 14.5Z" fill="currentColor"/>
<path d="M12 8.16998C12 6.54998 10.78 5.08998 9.15999 4.99998C7.42999 4.90999 6.00001 6.28998 6.00001 7.99998H5.59999C4.36999 7.99998 3.24999 8.83999 3.03999 10.05C2.79999 11.44 3.70999 12.67 4.96999 12.94C5.14999 12.77 5.36 12.62 5.61 12.56C5.54 12.39 5.50001 12.2 5.50001 12C5.50001 11.31 5.97 10.73 6.61 10.56C6.54 10.39 6.50001 10.2 6.50001 9.99999C6.50001 9.16999 7.17001 8.49998 8.00001 8.49998H11.67C11.85 8.49998 12 8.34998 12 8.16998Z" fill="currentColor"/>
</svg>
