<svg width="16" height="16" viewBox="0 0 16 16" fill="none" xmlns="http://www.w3.org/2000/svg">
<path d="M9.93002 10H9.00003L9.64004 8.72C9.81004 8.39 9.56003 8 9.19003 8H7.46005C7.18005 8 6.92 8.16 6.79 8.41L5.36001 11.27C5.19001 11.6 5.44002 11.99 5.81002 11.99H7.00003L6.53006 13.87C6.40006 14.39 7.06005 14.72 7.40005 14.31L10.32 10.81C10.59 10.48 10.36 9.99 9.94003 9.99L9.93002 10Z" fill="currentColor"/>
<path d="M11.95 6C11.71 4.31 10.26 3 8.5 3C6.74 3 5.28999 4.31 5.04999 6H4C2.34 6 1 7.34 1 9C1 10.66 2.34 12 4 12H4.40002C4.26002 11.62 4.27997 11.2 4.46997 10.83L5.90002 7.97C6.20002 7.37 6.79997 7 7.46997 7H9.20001C9.72001 7 10.2 7.27 10.48 7.71C10.75 8.14 10.78 8.67 10.56 9.13C10.88 9.27 11.14 9.53 11.3 9.86C11.55 10.39 11.47 11 11.09 11.46L10.64 12H12.01C13.67 12 15.01 10.66 15.01 9C15.01 7.34 13.67 6 12.01 6H11.95Z" fill="currentColor"/>
</svg>
