<svg width="16" height="16" viewBox="0 0 16 16" fill="none" xmlns="http://www.w3.org/2000/svg">
<path d="M11.55 9.81998L11 9.49998L11.55 9.17998C11.79 9.03998 11.87 8.73998 11.73 8.49998C11.59 8.25998 11.29 8.17998 11.05 8.31998L10.5 8.63998V8.00998C10.5 7.72998 10.28 7.50998 9.99998 7.50998C9.71998 7.50998 9.49998 7.72998 9.49998 8.00998V8.63998L8.94999 8.31998C8.70999 8.17998 8.41 8.25998 8.27 8.49998C8.13 8.73998 8.20999 9.03998 8.44999 9.17998L8.99998 9.49998L8.44999 9.81998C8.20999 9.95998 8.13 10.26 8.27 10.5C8.36 10.66 8.52999 10.75 8.69999 10.75C8.77999 10.75 8.86999 10.73 8.94999 10.68L9.49998 10.36V10.99C9.49998 11.27 9.71998 11.49 9.99998 11.49C10.28 11.49 10.5 11.27 10.5 10.99V10.36L11.05 10.68C11.13 10.73 11.22 10.75 11.3 10.75C11.47 10.75 11.64 10.66 11.73 10.5C11.87 10.26 11.79 9.95998 11.55 9.81998Z" fill="black"/>
<path d="M12 6H11.95C11.71 4.31 10.26 3 8.5 3C6.74 3 5.28999 4.31 5.04999 6H4C2.34 6 1 7.34 1 9C1 10.31 1.83 11.42 3 11.83L3.16998 11.89C3.14998 11.6 3.25002 11.26 3.40002 11C3.66002 10.54 4.16001 10.25 4.70001 10.25C4.96001 9.8 5.44 9.5 6 9.5C6.5 9.5 6.93002 9.75 7.21002 10.13C7.21002 10.04 7.23 9.95 7.25 9.86C7.28 9.73 7.33002 9.61 7.40002 9.5C7.34002 9.39 7.28 9.27 7.25 9.14C7.15 8.75 7.20002 8.35 7.40002 8C7.67002 7.54 8.16001 7.25 8.70001 7.25C8.96001 6.8 9.45 6.5 10 6.5C10.55 6.5 11.04 6.8 11.3 7.25C11.83 7.25 12.33 7.54 12.6 8C12.8 8.34 12.85 8.75 12.75 9.14C12.72 9.27 12.67 9.39 12.6 9.5C12.66 9.61 12.72 9.73 12.75 9.86C12.85 10.25 12.8 10.65 12.6 11C12.34 11.46 11.84 11.75 11.3 11.75C11.25 11.84 11.19 11.91 11.12 11.98L12 12C13.66 12 15 10.66 15 9C15 7.34 13.66 6 12 6Z" fill="black"/>
<path d="M7.72996 11.5C7.58996 11.26 7.28997 11.18 7.04997 11.32L6.49998 11.64V11.01C6.49998 10.73 6.27998 10.51 5.99998 10.51C5.71998 10.51 5.49998 10.73 5.49998 11.01V11.64L4.94999 11.32C4.70999 11.18 4.41 11.26 4.27 11.5C4.13 11.74 4.20999 12.04 4.44999 12.18L4.99998 12.5L4.44999 12.82C4.20999 12.96 4.13 13.26 4.27 13.5C4.36 13.66 4.52999 13.75 4.69999 13.75C4.77999 13.75 4.86999 13.73 4.94999 13.68L5.49998 13.36V13.99C5.49998 14.27 5.71998 14.49 5.99998 14.49C6.27998 14.49 6.49998 14.27 6.49998 13.99V13.36L7.04997 13.68C7.12997 13.73 7.21997 13.75 7.29997 13.75C7.46997 13.75 7.63996 13.66 7.72996 13.5C7.86996 13.26 7.78997 12.96 7.54997 12.82L6.99998 12.5L7.54997 12.18C7.78997 12.04 7.86996 11.74 7.72996 11.5Z" fill="black"/>
</svg>
