<svg width="16" height="16" viewBox="0 0 16 16" fill="none" xmlns="http://www.w3.org/2000/svg">
<path d="M13 6C12.17 6 11.5 5.33 11.5 4.5V2.5C11.5 1.67 12.17 1 13 1C13.83 1 14.5 1.67 14.5 2.5C14.5 2.78 14.28 3 14 3C13.72 3 13.5 2.78 13.5 2.5C13.5 2.22 13.28 2 13 2C12.72 2 12.5 2.22 12.5 2.5V4.5C12.5 4.78 12.72 5 13 5C13.28 5 13.5 4.78 13.5 4.5C13.5 4.22 13.72 4 14 4C14.28 4 14.5 4.22 14.5 4.5C14.5 5.33 13.83 6 13 6Z" fill="currentColor"/>
<path d="M10 9.78V3C10 1.9 9.1 1 8 1C6.9 1 6 1.9 6 3V9.78C5.39 10.33 5 11.12 5 12C5 13.66 6.34 15 8 15C9.66 15 11 13.66 11 12C11 11.11 10.61 10.33 10 9.78ZM8 13.5C7.17 13.5 6.5 12.83 6.5 12C6.5 11.35 6.92 10.8 7.5 10.59V3.17C7.5 2.89 7.72 2.67 8 2.67C8.28 2.67 8.5 2.89 8.5 3.17V10.59C9.08 10.8 9.5 11.35 9.5 12C9.5 12.83 8.83 13.5 8 13.5Z" fill="currentColor"/>
</svg>
