<svg width="16" height="16" viewBox="0 0 16 16" fill="none" xmlns="http://www.w3.org/2000/svg">
<path d="M8.00001 14.5C7.87001 14.5 7.74 14.45 7.65 14.35L5.65 12.35C5.45 12.15 5.45 11.84 5.65 11.64C5.85 11.44 6.15999 11.44 6.35999 11.64L8.01002 13.29L9.66001 11.64C9.86001 11.44 10.17 11.44 10.37 11.64C10.57 11.84 10.57 12.15 10.37 12.35L8.37 14.35C8.27 14.45 8.14 14.5 8.02 14.5H8.00001Z" fill="currentColor"/>
<path d="M8.00001 14.5C7.72001 14.5 7.5 14.28 7.5 14V10C7.5 9.72 7.72 9.5 8 9.5C8.28 9.5 8.5 9.72 8.5 10V14C8.5 14.28 8.28001 14.5 8.00001 14.5Z" fill="currentColor"/>
<path d="M11 8.5H5C4.72 8.5 4.5 8.28 4.5 8C4.5 6.07 6.07 4.5 8 4.5C9.93 4.5 11.5 6.07 11.5 8C11.5 8.28 11.28 8.5 11 8.5Z" fill="currentColor"/>
<path d="M8 3.5C7.72 3.5 7.5 3.28 7.5 3V2C7.5 1.72 7.72 1.5 8 1.5C8.28 1.5 8.5 1.72 8.5 2V3C8.5 3.28 8.28 3.5 8 3.5Z" fill="currentColor"/>
<path d="M11.54 4.96C11.41 4.96 11.28 4.90999 11.19 4.80999C10.99 4.60999 10.99 4.3 11.19 4.1L11.9 3.38999C12.1 3.18999 12.41 3.18999 12.61 3.38999C12.81 3.58999 12.81 3.9 12.61 4.1L11.9 4.80999C11.8 4.90999 11.67 4.96 11.55 4.96H11.54Z" fill="currentColor"/>
<path d="M14 8.5H13C12.72 8.5 12.5 8.28 12.5 8C12.5 7.72 12.72 7.5 13 7.5H14C14.28 7.5 14.5 7.72 14.5 8C14.5 8.28 14.28 8.5 14 8.5Z" fill="currentColor"/>
<path d="M3 8.5H2C1.72 8.5 1.5 8.28 1.5 8C1.5 7.72 1.72 7.5 2 7.5H3C3.28 7.5 3.5 7.72 3.5 8C3.5 8.28 3.28 8.5 3 8.5Z" fill="currentColor"/>
<path d="M4.46 4.96C4.33 4.96 4.19999 4.90999 4.10999 4.80999L3.4 4.1C3.2 3.9 3.2 3.58999 3.4 3.38999C3.6 3.18999 3.90999 3.18999 4.10999 3.38999L4.82001 4.1C5.02001 4.3 5.02001 4.60999 4.82001 4.80999C4.72001 4.90999 4.59001 4.96 4.47001 4.96H4.46Z" fill="currentColor"/>
</svg>
