<svg width="16" height="16" viewBox="0 0 16 16" fill="none" xmlns="http://www.w3.org/2000/svg">
<path d="M5.11999 7.01999C5.44999 5.69999 6.44999 4.63999 7.73999 4.20999C7.34999 3.22999 6.54 2.46999 5.53 2.14999C5.14 2.02999 4.78999 2.38999 4.89999 2.77999C5.09999 3.44999 5.03001 4.22999 4.54001 4.93999C4.38001 5.16999 4.18 5.37999 3.94 5.53999C3.23 6.02999 2.45 6.08999 1.78 5.89999C1.39 5.77999 1.03001 6.12999 1.14001 6.51999C1.39001 7.33999 1.93999 8.02999 2.64999 8.46999C3.21999 7.67999 4.08998 7.12999 5.10998 7.01999H5.11999Z" fill="black"/>
<path d="M6.74999 13.5C6.66999 13.5 6.59999 13.48 6.52999 13.45C6.27999 13.33 6.17999 13.03 6.30999 12.78L6.55999 12.28C6.67999 12.03 6.98001 11.93 7.23001 12.06C7.48001 12.18 7.58001 12.48 7.45001 12.73L7.20001 13.23C7.11001 13.4 6.93999 13.51 6.74999 13.51V13.5Z" fill="black"/>
<path d="M5.74999 15.5C5.66999 15.5 5.59999 15.48 5.52999 15.45C5.27999 15.33 5.17999 15.03 5.30999 14.78L5.55999 14.28C5.67999 14.03 5.98001 13.93 6.23001 14.06C6.48001 14.18 6.58001 14.48 6.45001 14.73L6.20001 15.23C6.11001 15.4 5.93999 15.51 5.74999 15.51V15.5Z" fill="black"/>
<path d="M8.74999 13.5C8.66999 13.5 8.59999 13.48 8.52999 13.45C8.27999 13.33 8.17999 13.03 8.30999 12.78L8.55999 12.28C8.67999 12.03 8.98001 11.93 9.23001 12.06C9.48001 12.18 9.58001 12.48 9.45001 12.73L9.20001 13.23C9.11001 13.4 8.93999 13.51 8.74999 13.51V13.5Z" fill="black"/>
<path d="M7.74999 15.5C7.66999 15.5 7.59999 15.48 7.52999 15.45C7.27999 15.33 7.17999 15.03 7.30999 14.78L7.55999 14.28C7.67999 14.03 7.98001 13.93 8.23001 14.06C8.48001 14.18 8.58001 14.48 8.45001 14.73L8.20001 15.23C8.11001 15.4 7.93999 15.51 7.74999 15.51V15.5Z" fill="black"/>
<path d="M10.75 13.5C10.67 13.5 10.6 13.48 10.53 13.45C10.28 13.33 10.18 13.03 10.31 12.78L10.56 12.28C10.68 12.03 10.98 11.93 11.23 12.06C11.48 12.18 11.58 12.48 11.45 12.73L11.2 13.23C11.11 13.4 10.94 13.51 10.75 13.51V13.5Z" fill="black"/>
<path d="M12.5 8H12C12 6.34 10.66 5 9 5C7.34 5 6 6.34 6 8H5.5C4.12 8 3 9.12 3 10.5C3 11.8 3.99999 12.86 5.26999 12.98C5.26999 12.76 5.31 12.54 5.41 12.33L5.66 11.83C5.92 11.32 6.43 11 7 11C7.23 11 7.46001 11.05 7.67001 11.16C7.80001 11.22 7.9 11.31 8 11.4C8.27 11.15 8.62 11 9 11C9.23 11 9.46001 11.05 9.67001 11.16C9.80001 11.22 9.9 11.31 10 11.4C10.27 11.16 10.62 11 11 11C11.23 11 11.46 11.05 11.67 11.16C12.35 11.5 12.65 12.3 12.41 13H12.5C13.88 13 15 11.88 15 10.5C15 9.12 13.88 8 12.5 8Z" fill="black"/>
<path d="M9.74999 15.5C9.66999 15.5 9.59999 15.48 9.52999 15.45C9.27999 15.33 9.17999 15.03 9.30999 14.78L9.55999 14.28C9.67999 14.03 9.98001 13.93 10.23 14.06C10.48 14.18 10.58 14.48 10.45 14.73L10.2 15.23C10.11 15.4 9.93999 15.51 9.74999 15.51V15.5Z" fill="black"/>
</svg>
