<svg width="16" height="16" viewBox="0 0 16 16" fill="none" xmlns="http://www.w3.org/2000/svg">
<path d="M8.99998 15.5C8.91998 15.5 8.85001 15.48 8.78001 15.45C8.53001 15.33 8.42997 15.03 8.55997 14.78L9.19999 13.5H8.00999C7.83999 13.5 7.67999 13.41 7.57999 13.26C7.48999 13.11 7.47997 12.93 7.55997 12.77L8.55997 10.77C8.67997 10.52 8.97996 10.42 9.22996 10.55C9.47996 10.67 9.57999 10.97 9.44999 11.22L8.80997 12.5H9.99998C10.17 12.5 10.33 12.59 10.43 12.74C10.52 12.89 10.53 13.07 10.45 13.23L9.44999 15.23C9.35999 15.4 9.18998 15.51 8.99998 15.51V15.5Z" fill="black"/>
<path d="M5 3C4.72 3 4.5 2.78 4.5 2.5V2C4.5 1.72 4.72 1.5 5 1.5C5.28 1.5 5.5 1.72 5.5 2V2.5C5.5 2.78 5.28 3 5 3Z" fill="black"/>
<path d="M2.43002 3.93999C2.29002 3.93999 2.15002 3.87999 2.05002 3.75999L1.73001 3.37999C1.55001 3.16999 1.58001 2.84999 1.79001 2.67999C2.00001 2.49999 2.32002 2.52999 2.49002 2.73999L2.81003 3.11999C2.99003 3.32999 2.96003 3.64999 2.75003 3.81999C2.66003 3.89999 2.54002 3.93999 2.43002 3.93999Z" fill="black"/>
<path d="M1.06 6.30999C1.06 6.30999 0.999974 6.30999 0.969974 6.30999L0.479983 6.21999C0.209983 6.16999 0.0300102 5.90999 0.0700102 5.63999C0.11001 5.36999 0.380027 5.17999 0.650027 5.22999L1.14002 5.31999C1.41002 5.36999 1.58999 5.62999 1.54999 5.89999C1.50999 6.13999 1.3 6.30999 1.06 6.30999Z" fill="black"/>
<path d="M1.09996 9.24999C0.929958 9.24999 0.759965 9.15999 0.669965 8.99999C0.529965 8.75999 0.609958 8.45999 0.849958 8.31999L1.28001 8.06999C1.52001 7.92999 1.82 8.00999 1.96 8.24999C2.1 8.48999 2.02001 8.78999 1.78001 8.92999L1.34996 9.17999C1.26996 9.21999 1.17996 9.24999 1.09996 9.24999Z" fill="black"/>
<path d="M7.57004 3.93999C7.46004 3.93999 7.34003 3.89999 7.25003 3.81999C7.04003 3.63999 7.01003 3.32999 7.19003 3.11999L7.51004 2.73999C7.69004 2.52999 8.00005 2.49999 8.21005 2.67999C8.42005 2.85999 8.45005 3.16999 8.27005 3.37999L7.95004 3.75999C7.85004 3.87999 7.71004 3.93999 7.57004 3.93999Z" fill="black"/>
<path d="M12.5 8H12C12 6.34 10.66 5 9 5C7.34 5 6 6.34 6 8H5.5C4.12 8 3 9.12 3 10.5C3 11.88 4.12 13 5.5 13H6.51001C6.51001 12.77 6.55997 12.54 6.65997 12.33L7.65997 10.33C7.91997 9.82 8.43 9.5 9 9.5C9.23 9.5 9.45998 9.55 9.66998 9.66C10.37 10.01 10.68 10.84 10.39 11.55C10.75 11.65 11.07 11.88 11.27 12.21C11.42 12.45 11.49 12.73 11.49 13H12.5C13.88 13 15 11.88 15 10.5C15 9.12 13.88 8 12.5 8Z" fill="black"/>
<path d="M5.12 7.02C5.35999 6.07 5.94999 5.26 6.73999 4.71C6.28999 4.27 5.68 4 5 4C3.62 4 2.5 5.12 2.5 6.5C2.5 7.08 2.70999 7.6 3.04999 8.02C3.59999 7.48 4.32 7.1 5.13 7.02H5.12Z" fill="black"/>
</svg>
