<svg width="16" height="16" viewBox="0 0 16 16" fill="none" xmlns="http://www.w3.org/2000/svg">
<path d="M5 3C4.72 3 4.5 2.78 4.5 2.5V2C4.5 1.72 4.72 1.5 5 1.5C5.28 1.5 5.5 1.72 5.5 2V2.5C5.5 2.78 5.28 3 5 3Z" fill="currentColor"/>
<path d="M2.42999 3.93999C2.28999 3.93999 2.14999 3.87999 2.04999 3.75999L1.73001 3.37999C1.55001 3.16999 1.58001 2.84999 1.79001 2.67999C2.00001 2.49999 2.31999 2.52999 2.48999 2.73999L2.81 3.11999C2.99 3.32999 2.96 3.64999 2.75 3.81999C2.66 3.89999 2.53999 3.93999 2.42999 3.93999Z" fill="currentColor"/>
<path d="M1.06 6.30999C1.06 6.30999 1 6.30999 0.970003 6.30999L0.480013 6.21999C0.210013 6.16999 0.0300094 5.90999 0.0700094 5.63999C0.120009 5.36999 0.379996 5.17999 0.649996 5.22999L1.14002 5.31999C1.41002 5.36999 1.58999 5.62999 1.54999 5.89999C1.50999 6.13999 1.3 6.30999 1.06 6.30999Z" fill="currentColor"/>
<path d="M1.10002 9.24999C0.930019 9.24999 0.760026 9.15999 0.670026 8.99999C0.530026 8.75999 0.610019 8.45999 0.850019 8.31999L1.28001 8.06999C1.52001 7.92999 1.82 8.00999 1.96 8.24999C2.1 8.48999 2.02001 8.78999 1.78001 8.92999L1.35002 9.17999C1.27002 9.21999 1.18002 9.24999 1.10002 9.24999Z" fill="currentColor"/>
<path d="M7.56997 3.93999C7.45997 3.93999 7.33997 3.89999 7.24997 3.81999C7.03997 3.63999 7.00997 3.32999 7.18997 3.11999L7.50998 2.73999C7.68998 2.52999 7.99996 2.49999 8.20996 2.67999C8.41996 2.85999 8.44996 3.16999 8.26996 3.37999L7.94998 3.75999C7.84998 3.87999 7.70997 3.93999 7.56997 3.93999Z" fill="currentColor"/>
<path d="M5.12 7.02C5.35999 6.07 5.94999 5.26 6.73999 4.71C6.28999 4.27 5.68 4 5 4C3.62 4 2.5 5.12 2.5 6.5C2.5 7.08 2.70999 7.6 3.04999 8.02C3.59999 7.48 4.32 7.1 5.13 7.02H5.12Z" fill="currentColor"/>
<path d="M7.53 11.45C7.6 11.49 7.68001 11.5 7.75001 11.5C7.93001 11.5 8.11002 11.4 8.20002 11.22L8.45002 10.72C8.57002 10.47 8.47002 10.17 8.23002 10.05C7.98002 9.93 7.68 10.03 7.56 10.27L7.31 10.77C7.19 11.02 7.29 11.32 7.53 11.44V11.45Z" fill="currentColor"/>
<path d="M7.22001 12.05C6.97001 11.93 6.66999 12.03 6.54999 12.27L6.29999 12.77C6.17999 13.02 6.27999 13.32 6.51999 13.44C6.58999 13.48 6.67 13.49 6.74 13.49C6.92 13.49 7.10001 13.39 7.19001 13.21L7.44001 12.71C7.56001 12.46 7.46001 12.16 7.22001 12.04V12.05Z" fill="currentColor"/>
<path d="M6.22001 14.05C5.97001 13.93 5.66999 14.03 5.54999 14.27L5.29999 14.77C5.17999 15.02 5.27999 15.32 5.51999 15.44C5.58999 15.48 5.67 15.49 5.74 15.49C5.92 15.49 6.10001 15.39 6.19001 15.21L6.44001 14.71C6.56001 14.46 6.46001 14.16 6.22001 14.04V14.05Z" fill="currentColor"/>
<path d="M9.53 11.45C9.6 11.49 9.68001 11.5 9.75001 11.5C9.93001 11.5 10.11 11.4 10.2 11.22L10.45 10.72C10.57 10.47 10.47 10.17 10.23 10.05C9.98002 9.93 9.68 10.03 9.56 10.27L9.31 10.77C9.19 11.02 9.29 11.32 9.53 11.44V11.45Z" fill="currentColor"/>
<path d="M9.22001 12.05C8.97001 11.93 8.66999 12.03 8.54999 12.27L8.29999 12.77C8.17999 13.02 8.27999 13.32 8.51999 13.44C8.58999 13.48 8.67 13.49 8.74 13.49C8.92 13.49 9.10001 13.39 9.19001 13.21L9.44001 12.71C9.56001 12.46 9.46001 12.16 9.22001 12.04V12.05Z" fill="currentColor"/>
<path d="M8.22001 14.05C7.97001 13.93 7.66999 14.03 7.54999 14.27L7.29999 14.77C7.17999 15.02 7.27999 15.32 7.51999 15.44C7.58999 15.48 7.67 15.49 7.74 15.49C7.92 15.49 8.10001 15.39 8.19001 15.21L8.44001 14.71C8.56001 14.46 8.46001 14.16 8.22001 14.04V14.05Z" fill="currentColor"/>
<path d="M11.22 12.05C10.97 11.93 10.67 12.03 10.55 12.27L10.3 12.77C10.18 13.02 10.28 13.32 10.52 13.44C10.59 13.48 10.67 13.49 10.74 13.49C10.92 13.49 11.1 13.39 11.19 13.21L11.44 12.71C11.56 12.46 11.46 12.16 11.22 12.04V12.05Z" fill="currentColor"/>
<path d="M10.22 14.05C9.97001 13.93 9.66999 14.03 9.54999 14.27L9.29999 14.77C9.17999 15.02 9.27999 15.32 9.51999 15.44C9.58999 15.48 9.67 15.49 9.74 15.49C9.92 15.49 10.1 15.39 10.19 15.21L10.44 14.71C10.56 14.46 10.46 14.16 10.22 14.04V14.05Z" fill="currentColor"/>
<path d="M12.5 8H12C12 6.34 10.66 5 9 5C7.34 5 6 6.34 6 8H5.5C4.12 8 3 9.12 3 10.5C3 11.8 3.99999 12.86 5.26999 12.98C5.26999 12.76 5.31 12.54 5.41 12.33L5.66 11.83C5.8 11.56 6.00999 11.34 6.26999 11.2C6.22999 10.91 6.27 10.61 6.41 10.33L6.66 9.83C6.92 9.32 7.43 9 8 9C8.23 9 8.46001 9.05 8.67001 9.16C8.80001 9.22 8.9 9.31 9 9.4C9.27 9.16 9.62 9 10 9C10.23 9 10.46 9.05 10.67 9.16C10.8 9.22 10.9 9.31 11 9.4C11.27 9.16 11.62 9.01 12 9.01C12.23 9.01 12.46 9.06 12.67 9.17C13.41 9.54 13.71 10.44 13.34 11.18L13.09 11.68C12.95 11.95 12.74 12.17 12.48 12.31C12.51 12.54 12.48 12.78 12.39 13.01H12.49C13.87 13.01 14.99 11.89 14.99 10.51C14.99 9.13 13.87 8.01 12.49 8.01L12.5 8Z" fill="currentColor"/>
<path d="M12.22 10.05C11.97 9.93 11.67 10.03 11.55 10.27L11.3 10.77C11.18 11.02 11.28 11.32 11.52 11.44C11.59 11.48 11.67 11.49 11.74 11.49C11.92 11.49 12.1 11.39 12.19 11.21L12.44 10.71C12.56 10.46 12.46 10.16 12.22 10.04V10.05Z" fill="currentColor"/>
</svg>
