<svg width="16" height="16" viewBox="0 0 16 16" fill="none" xmlns="http://www.w3.org/2000/svg">
<path d="M6.5 11C7.05228 11 7.5 10.5523 7.5 10C7.5 9.44772 7.05228 9 6.5 9C5.94772 9 5.5 9.44772 5.5 10C5.5 10.5523 5.94772 11 6.5 11Z" fill="black"/>
<path d="M6.5 14C7.05228 14 7.5 13.5523 7.5 13C7.5 12.4477 7.05228 12 6.5 12C5.94772 12 5.5 12.4477 5.5 13C5.5 13.5523 5.94772 14 6.5 14Z" fill="black"/>
<path d="M9.5 13C10.0523 13 10.5 12.5523 10.5 12C10.5 11.4477 10.0523 11 9.5 11C8.94772 11 8.5 11.4477 8.5 12C8.5 12.5523 8.94772 13 9.5 13Z" fill="black"/>
<path d="M12 5.99999C12 5.99999 11.97 5.99999 11.95 5.99999C11.71 4.29999 10.26 2.98999 8.5 2.98999C6.74 2.98999 5.19003 4.39999 5.03003 6.17999C4.71003 6.05999 4.36 5.98999 4 5.98999C2.34 5.98999 1 7.32999 1 8.98999C1 10.65 2.34 11.99 4 11.99H4.78998C4.89998 11.8 5.03 11.63 5.19 11.49C4.77 11.12 4.5 10.59 4.5 9.98999C4.5 8.88999 5.4 7.98999 6.5 7.98999C6.91 7.98999 7.29999 8.11999 7.62 8.32999C7.89 7.54999 8.63 6.98999 9.5 6.98999C10.6 6.98999 11.5 7.88999 11.5 8.98999C11.5 9.58999 11.23 10.12 10.81 10.49C11.23 10.86 11.5 11.39 11.5 11.99H12C13.66 11.99 15 10.65 15 8.98999C15 7.32999 13.66 5.98999 12 5.98999V5.99999Z" fill="black"/>
<path d="M9.5 10C10.0523 10 10.5 9.55228 10.5 9C10.5 8.44772 10.0523 8 9.5 8C8.94772 8 8.5 8.44772 8.5 9C8.5 9.55228 8.94772 10 9.5 10Z" fill="black"/>
</svg>
