<svg width="16" height="16" viewBox="0 0 16 16" fill="none" xmlns="http://www.w3.org/2000/svg">
<path d="M8.49002 14.52C6.89002 14.52 5.38002 13.9 4.24002 12.76C3.21002 11.73 2.59003 10.35 2.50003 8.87998C2.49003 8.66998 2.61003 8.46997 2.81003 8.38997C3.01003 8.30997 3.23003 8.35998 3.37003 8.51998L3.49002 8.64997C4.86002 10.02 7.25003 10.02 8.62003 8.64997C9.31003 7.95997 9.68002 7.04998 9.68002 6.07998C9.68002 5.10998 9.30003 4.19997 8.62003 3.50997L8.54001 3.43998C8.38001 3.29998 8.30004 3.04998 8.38004 2.84998C8.46004 2.64998 8.64001 2.49998 8.85001 2.51998C10.32 2.60998 11.7 3.22997 12.73 4.25997C13.86 5.39997 14.49 6.89997 14.49 8.50997C14.49 10.12 13.87 11.62 12.73 12.76C11.6 13.89 10.09 14.52 8.48001 14.52H8.49002Z" fill="black"/>
<path d="M5 7.49996C4.81 7.49996 4.63999 7.38997 4.54999 7.21997L3.96002 6.03996L2.78003 5.44996C2.61003 5.36996 2.5 5.18996 2.5 4.99996C2.5 4.80996 2.61003 4.63997 2.78003 4.54997L3.96002 3.95997L4.54999 2.77996C4.71999 2.43996 5.27 2.43996 5.44 2.77996L6.03003 3.95997L7.21002 4.54997C7.38002 4.62997 7.48999 4.80996 7.48999 4.99996C7.48999 5.18996 7.38002 5.35996 7.21002 5.44996L6.03003 6.03996L5.44 7.21997C5.36 7.38997 5.17999 7.49996 4.98999 7.49996H5Z" fill="black"/>
</svg>
