<svg width="16" height="16" viewBox="0 0 16 16" fill="none" xmlns="http://www.w3.org/2000/svg">
<path d="M8 3.5C7.72 3.5 7.5 3.28 7.5 3V2C7.5 1.72 7.72 1.5 8 1.5C8.28 1.5 8.5 1.72 8.5 2V3C8.5 3.28 8.28 3.5 8 3.5Z" fill="black"/>
<path d="M8 14.5C7.72 14.5 7.5 14.28 7.5 14V13C7.5 12.72 7.72 12.5 8 12.5C8.28 12.5 8.5 12.72 8.5 13V14C8.5 14.28 8.28 14.5 8 14.5Z" fill="black"/>
<path d="M3.76002 12.74C3.63002 12.74 3.50001 12.69 3.41001 12.59C3.21001 12.39 3.21001 12.08 3.41001 11.88L4.12 11.17C4.32 10.97 4.62999 10.97 4.82999 11.17C5.02999 11.37 5.02999 11.68 4.82999 11.88L4.12 12.59C4.02 12.69 3.89 12.74 3.77 12.74H3.76002Z" fill="black"/>
<path d="M3 8.5H2C1.72 8.5 1.5 8.28 1.5 8C1.5 7.72 1.72 7.5 2 7.5H3C3.28 7.5 3.5 7.72 3.5 8C3.5 8.28 3.28 8.5 3 8.5Z" fill="black"/>
<path d="M4.46 4.96C4.33 4.96 4.19999 4.90999 4.10999 4.80999L3.4 4.1C3.2 3.9 3.2 3.58999 3.4 3.38999C3.6 3.18999 3.90999 3.18999 4.10999 3.38999L4.82001 4.1C5.02001 4.3 5.02001 4.60999 4.82001 4.80999C4.72001 4.90999 4.59001 4.96 4.47001 4.96H4.46Z" fill="black"/>
<path d="M8 4.5C6.07 4.5 4.5 6.07 4.5 8C4.5 9.93 6.07 11.5 8 11.5C9.93 11.5 11.5 9.93 11.5 8C11.5 6.07 9.93 4.5 8 4.5ZM8 10.5V5.5C9.38 5.5 10.5 6.62 10.5 8C10.5 9.38 9.38 10.5 8 10.5Z" fill="black"/>
</svg>
