<svg width="16" height="16" viewBox="0 0 16 16" fill="none" xmlns="http://www.w3.org/2000/svg">
<path d="M10 11.5H6C5.72 11.5 5.5 11.28 5.5 11C5.5 10.72 5.72 10.5 6 10.5H10C10.28 10.5 10.5 10.28 10.5 10C10.5 9.72 10.28 9.5 10 9.5C9.72 9.5 9.5 9.28 9.5 9C9.5 8.72 9.72 8.5 10 8.5C10.83 8.5 11.5 9.17 11.5 10C11.5 10.83 10.83 11.5 10 11.5Z" fill="black"/>
<path d="M10 15.5C9.72 15.5 9.5 15.28 9.5 15C9.5 14.72 9.72 14.5 10 14.5C10.28 14.5 10.5 14.28 10.5 14C10.5 13.72 10.28 13.5 10 13.5H8C7.72 13.5 7.5 13.28 7.5 13C7.5 12.72 7.72 12.5 8 12.5H10C10.83 12.5 11.5 13.17 11.5 14C11.5 14.83 10.83 15.5 10 15.5Z" fill="black"/>
<path d="M12.5 8H12C12 6.34 10.66 5 9 5C7.34 5 6 6.34 6 8H5.5C4.12 8 3 9.12 3 10.5C3 11.88 4.12 13 5.5 13H6.5C6.5 12.82 6.54003 12.66 6.59003 12.5H6C5.17 12.5 4.5 11.83 4.5 11C4.5 10.17 5.17 9.5 6 9.5H8.59003C8.53003 9.34 8.5 9.17 8.5 9C8.5 8.17 9.17 7.5 10 7.5C11.38 7.5 12.5 8.62 12.5 10C12.5 10.82 12.1 11.54 11.48 12C11.82 12.26 12.09 12.6 12.27 13H12.5C13.88 13 15 11.88 15 10.5C15 9.12 13.88 8 12.5 8Z" fill="black"/>
<path d="M5.11999 7.01999C5.44999 5.69999 6.44999 4.63999 7.73999 4.20999C7.34999 3.22999 6.54003 2.46999 5.53003 2.14999C5.14003 2.02999 4.79002 2.38999 4.90002 2.77999C5.10002 3.44999 5.02998 4.22999 4.53998 4.93999C4.37998 5.16999 4.18 5.37999 3.94 5.53999C3.23 6.02999 2.45 6.08999 1.78 5.89999C1.39 5.77999 1.03001 6.12999 1.14001 6.51999C1.39001 7.33999 1.94002 8.02999 2.65002 8.46999C3.22002 7.67999 4.08998 7.12999 5.10998 7.01999H5.11999Z" fill="black"/>
</svg>
