<svg width="16" height="16" viewBox="0 0 16 16" fill="none" xmlns="http://www.w3.org/2000/svg">
<path d="M10.0057 4.53643C11.2699 4.61771 12.6495 5.36765 13.5438 6.92022C14.1258 7.92805 14.3129 8.81981 14.3494 9.47295C14.3676 9.79821 14.3484 10.0626 14.3231 10.2503C14.3104 10.344 14.2958 10.4189 14.284 10.473C14.2781 10.4999 14.2726 10.522 14.2684 10.5384C14.2663 10.5464 14.265 10.5535 14.2635 10.5589C14.2627 10.5616 14.2621 10.5647 14.2615 10.5667L14.2606 10.5696L14.2596 10.5706C14.1814 10.8354 13.9033 10.9876 13.6385 10.9095C13.3749 10.8317 13.224 10.556 13.2996 10.2923C13.2998 10.2917 13.3002 10.2908 13.3006 10.2894C13.3019 10.2842 13.3044 10.2738 13.3074 10.2601C13.3138 10.2308 13.323 10.1822 13.3318 10.1165C13.3496 9.98522 13.3647 9.78513 13.3504 9.5296C13.3219 9.0203 13.1744 8.28215 12.6766 7.42022C11.9408 6.143 10.8544 5.59221 9.94122 5.5335C8.99903 5.47309 8.3413 5.91289 8.18341 6.50811C8.11265 6.77493 7.8389 6.93417 7.57208 6.86358C7.30531 6.79283 7.14611 6.51903 7.21661 6.25225C7.53871 5.03766 8.77071 4.45708 10.0057 4.53643Z" fill="black"/>
<path d="M9.84006 2.66C11.0044 2.66 11.871 2.94417 12.4553 3.2391C12.7463 3.386 12.9655 3.53447 13.1154 3.65023C13.1904 3.70807 13.2484 3.75755 13.2893 3.79476C13.3096 3.81329 13.326 3.82882 13.3381 3.84066C13.3441 3.84655 13.3488 3.85225 13.3528 3.85629C13.3547 3.85831 13.3571 3.85964 13.3586 3.86117L13.3615 3.8641C13.3595 3.86632 13.3382 3.88764 13.1281 4.08773L13.3625 3.86508C13.5528 4.06504 13.5448 4.38171 13.3449 4.57211C13.145 4.76255 12.8284 4.75449 12.6379 4.55453C12.6341 4.55084 12.6268 4.54441 12.6164 4.535C12.5942 4.5148 12.5566 4.48178 12.5041 4.44125C12.3991 4.36024 12.2335 4.247 12.0051 4.13168C11.5494 3.90162 10.8357 3.66 9.84006 3.66C8.36868 3.66 7.34799 4.32594 6.83908 5.08773C6.31409 5.87373 6.36525 6.66211 6.80197 7.09554C6.99788 7.29007 6.9994 7.60661 6.8049 7.80258C6.61036 7.99839 6.2938 7.99899 6.09787 7.80453C5.20478 6.918 5.32069 5.56094 6.00802 4.53207C6.71163 3.47893 8.05151 2.66 9.84006 2.66ZM12.6389 4.5555C12.6404 4.557 12.6408 4.55843 12.6408 4.55843L12.6389 4.5555Z" fill="black"/>
<path d="M7.20318 1.26998C7.43559 1.26192 7.64948 1.41792 7.70611 1.65279C7.77061 1.92033 7.60675 2.18945 7.3399 2.25533H7.34186C7.34186 2.25533 7.34027 2.25566 7.33795 2.25631C7.33308 2.25767 7.32286 2.26057 7.30865 2.2651C7.28008 2.27421 7.23374 2.28999 7.17291 2.3149C7.05013 2.36523 6.86796 2.45194 6.65338 2.59225C6.27966 2.83664 5.80004 3.24735 5.3526 3.9233L5.16315 4.22994C4.42716 5.508 4.4939 6.72361 4.8985 7.54342C5.31577 8.38878 6.02323 8.73881 6.6192 8.5776C6.88568 8.50546 7.16024 8.66273 7.23248 8.92916C7.30462 9.19562 7.1473 9.47017 6.88092 9.54244C5.66712 9.87104 4.54978 9.09603 4.00201 7.98678C3.44175 6.85174 3.40335 5.28256 4.29693 3.73092C4.87916 2.7228 5.55871 2.11351 6.1065 1.75533C6.37925 1.57701 6.61772 1.46197 6.79303 1.3901C6.88071 1.35416 6.95319 1.32876 7.00592 1.31197C7.03218 1.30362 7.05408 1.29698 7.07037 1.29244C7.07833 1.29023 7.08548 1.28798 7.09088 1.28658C7.09339 1.28593 7.09579 1.28609 7.09772 1.28561C7.09875 1.28535 7.09979 1.28484 7.10065 1.28463L7.1026 1.28365L7.20318 1.26998Z" fill="black"/>
<path d="M2.36142 5.09051C2.62605 5.16857 2.77697 5.44597 2.69931 5.71063L2.70029 5.70867L2.70126 5.7077C2.70114 5.70815 2.6997 5.70909 2.69931 5.71063C2.69807 5.71545 2.69662 5.72543 2.69345 5.73992C2.68705 5.76921 2.67693 5.81781 2.66806 5.88348C2.65032 6.01477 2.63525 6.21486 2.6495 6.47039C2.67798 6.97969 2.82553 7.71783 3.32333 8.57977C4.0591 9.85703 5.14548 10.4078 6.05868 10.4665C7.00093 10.5269 7.65859 10.0871 7.8165 9.49188C7.88724 9.2251 8.16104 9.06589 8.42782 9.13641C8.69461 9.20716 8.85381 9.48095 8.78329 9.74774C8.46118 10.9624 7.22923 11.543 5.99423 11.4636C4.80895 11.3873 3.52293 10.7232 2.62997 9.36102L2.45712 9.07977C1.87511 8.07195 1.68705 7.18017 1.65048 6.52703C1.6323 6.20178 1.6515 5.93737 1.67685 5.74969C1.68951 5.65604 1.70412 5.58104 1.71591 5.52703C1.72179 5.50011 1.72732 5.478 1.73154 5.4616C1.73363 5.45346 1.73589 5.44655 1.73739 5.44109C1.73815 5.43835 1.73876 5.43533 1.73935 5.43328V5.43035L1.74032 5.42938C1.7404 5.42911 1.74042 5.4286 2.21982 5.57L1.74032 5.42938C1.81849 5.16459 2.0966 5.01241 2.36142 5.09051Z" fill="black"/>
<path d="M9.19534 8.19744C9.38989 8.0017 9.70646 8.00105 9.90237 8.19549C10.7953 9.08202 10.6795 10.4391 9.99222 11.4679C9.28864 12.5211 7.94869 13.34 6.16019 13.34C4.99587 13.34 4.12921 13.0558 3.54495 12.7609C3.25399 12.614 3.03476 12.4656 2.88479 12.3498C2.80995 12.292 2.75188 12.2425 2.71097 12.2053C2.69067 12.1868 2.67422 12.1712 2.66214 12.1594L2.6387 12.1359C2.64151 12.1329 2.67262 12.102 3.00003 11.7902L2.63772 12.1349C2.44733 11.935 2.45535 11.6183 2.6553 11.4279C2.85437 11.2384 3.16871 11.2452 3.3594 11.4426C3.3594 11.4426 3.35976 11.4429 3.36136 11.4445C3.36494 11.448 3.37273 11.4549 3.38382 11.465C3.40595 11.4852 3.44291 11.5174 3.49515 11.5578C3.60013 11.6388 3.76638 11.7528 3.99515 11.8683C4.45089 12.0984 5.16452 12.34 6.16019 12.34C7.63136 12.34 8.65125 11.674 9.16019 10.9123C9.6853 10.1262 9.635 9.33795 9.19827 8.90447C9.00227 8.70995 9.00082 8.39344 9.19534 8.19744Z" fill="black"/>
<path d="M9.1189 6.45699C10.3329 6.12835 11.4511 6.9041 11.9988 8.01363C12.559 9.14873 12.5966 10.7178 11.7029 12.2695C11.1207 13.2774 10.441 13.887 9.89331 14.2451C9.62056 14.4234 9.38204 14.5385 9.20679 14.6103C9.11929 14.6462 9.04756 14.6717 8.99487 14.6884C8.96869 14.6968 8.94672 14.7025 8.93042 14.707C8.92239 14.7092 8.91536 14.7114 8.90991 14.7129C8.90716 14.7136 8.90416 14.7143 8.9021 14.7148L8.89917 14.7158H8.89722C8.62888 14.7805 8.35858 14.6159 8.2937 14.3476C8.22897 14.0792 8.39441 13.8088 8.66284 13.7441C8.66768 13.7428 8.67687 13.7399 8.69116 13.7353C8.71978 13.7262 8.7666 13.7096 8.82788 13.6845C8.95062 13.6342 9.13216 13.5483 9.34643 13.4082C9.77364 13.1288 10.3389 12.6314 10.8367 11.7695C11.5725 10.4915 11.506 9.27577 11.1013 8.45602C10.684 7.61082 9.97654 7.26149 9.38061 7.42281C9.1141 7.49489 8.83948 7.33678 8.76733 7.07028C8.69544 6.80396 8.85268 6.52927 9.1189 6.45699Z" fill="black"/>
</svg>
