<svg width="16" height="16" viewBox="0 0 16 16" fill="none" xmlns="http://www.w3.org/2000/svg">
<path d="M8.00003 8.5C6.84003 8.5 5.87004 9.29 5.58004 10.36C5.49004 10.68 5.73002 11 6.06002 11H6.6C6.81 11 6.98001 10.86 7.05001 10.66C7.19001 10.27 7.56002 10 7.99002 10C8.42002 10 8.79002 10.28 8.93002 10.66C9.00002 10.86 9.17003 11 9.38003 11H9.92001C10.25 11 10.4901 10.68 10.4001 10.36C10.1201 9.29 9.14001 8.5 7.98001 8.5H8.00003Z" fill="black"/>
<path d="M7.99998 6C5.42998 6 3.3 7.95001 3.03 10.46C3 10.75 3.24 11 3.53 11H4.03C4.29 11 4.49 10.8 4.53 10.55C4.75 8.83 6.21998 7.5 7.99998 7.5C9.77998 7.5 11.2499 8.83 11.4699 10.55C11.4999 10.8 11.7099 11 11.9699 11H12.4699C12.7599 11 12.9999 10.75 12.9699 10.46C12.6999 7.96001 10.57 6 7.99998 6Z" fill="black"/>
<path d="M7.99999 3.5C4.03999 3.5 0.790011 6.58001 0.520011 10.46C0.500011 10.75 0.730011 10.99 1.02001 10.99H1.52001C1.78001 10.99 2.00001 10.79 2.02001 10.53C2.26001 7.44 4.84999 4.99001 7.99999 4.99001C11.15 4.99001 13.74 7.43 13.98 10.53C14 10.79 14.22 10.99 14.48 10.99H14.98C15.27 10.99 15.5 10.74 15.48 10.46C15.2 6.57001 11.95 3.5 7.99999 3.5Z" fill="black"/>
</svg>
