<svg width="16" height="16" viewBox="0 0 16 16" fill="none" xmlns="http://www.w3.org/2000/svg">
<path fill-rule="evenodd" clip-rule="evenodd" d="M8 1C9.1 1 10 1.9 10 3V9.78027C10.6099 10.3303 11 11.1101 11 12C11 13.66 9.66 15 8 15C6.34 15 5 13.66 5 12C5 11.1201 5.39008 10.3303 6 9.78027V3C6 1.9 6.9 1 8 1ZM8 2.66992C7.72003 2.66992 7.50004 2.88996 7.5 3.16992V10.5898C6.92 10.7998 6.5 11.35 6.5 12C6.5 12.83 7.17 13.5 8 13.5C8.83 13.5 9.5 12.83 9.5 12C9.5 11.35 9.08 10.7998 8.5 10.5898V3.16992C8.49996 2.88996 8.27997 2.66992 8 2.66992Z" fill="black"/>
<path d="M13.5 1C13.78 1 14 1.22 14 1.5V2.5H15C15.28 2.5 15.5 2.72 15.5 3C15.5 3.28 15.28 3.5 15 3.5H14V4.5C14 4.78 13.78 5 13.5 5C13.22 5 13 4.78 13 4.5V3.5H12C11.72 3.5 11.5 3.28 11.5 3C11.5 2.72 11.72 2.5 12 2.5H13V1.5C13 1.22 13.22 1 13.5 1Z" fill="black"/>
</svg>
