<svg width="16" height="16" viewBox="0 0 16 16" fill="none" xmlns="http://www.w3.org/2000/svg">
<path d="M5.53 10.45C5.6 10.49 5.68001 10.5 5.75001 10.5C5.93001 10.5 6.11002 10.4 6.20002 10.22L6.45002 9.71999C6.57002 9.46999 6.47002 9.16999 6.23002 9.04999C5.98002 8.92999 5.68 9.02999 5.56 9.26999L5.31 9.76999C5.19 10.02 5.29 10.32 5.53 10.44V10.45Z" fill="black"/>
<path d="M5.22001 11.05C4.97001 10.93 4.66999 11.03 4.54999 11.27L4.29999 11.77C4.17999 12.02 4.27999 12.32 4.51999 12.44C4.58999 12.48 4.67 12.49 4.74 12.49C4.92 12.49 5.10001 12.39 5.19001 12.21L5.44001 11.71C5.56001 11.46 5.46001 11.16 5.22001 11.04V11.05Z" fill="black"/>
<path d="M11.22 11.05C10.97 10.93 10.67 11.03 10.55 11.27L10.3 11.77C10.18 12.02 10.28 12.32 10.52 12.44C10.59 12.48 10.67 12.49 10.74 12.49C10.92 12.49 11.1 12.39 11.19 12.21L11.44 11.71C11.56 11.46 11.46 11.16 11.22 11.04V11.05Z" fill="black"/>
<path d="M10.22 13.05C9.97001 12.93 9.66999 13.03 9.54999 13.27L9.29999 13.77C9.17999 14.02 9.27999 14.32 9.51999 14.44C9.58999 14.48 9.67 14.49 9.74 14.49C9.92 14.49 10.1 14.39 10.19 14.21L10.44 13.71C10.56 13.46 10.46 13.16 10.22 13.04V13.05Z" fill="black"/>
<path d="M4.22001 13.05C3.97001 12.93 3.66999 13.03 3.54999 13.27L3.29999 13.77C3.17999 14.02 3.27999 14.32 3.51999 14.44C3.58999 14.48 3.67 14.49 3.74 14.49C3.92 14.49 4.10001 14.39 4.19001 14.21L4.44001 13.71C4.56001 13.46 4.46001 13.16 4.22001 13.04V13.05Z" fill="black"/>
<path d="M6.22001 13.05C5.97001 12.93 5.66999 13.03 5.54999 13.27L5.29999 13.77C5.17999 14.02 5.27999 14.32 5.51999 14.44C5.58999 14.48 5.67 14.49 5.74 14.49C5.92 14.49 6.10001 14.39 6.19001 14.21L6.44001 13.71C6.56001 13.46 6.46001 13.16 6.22001 13.04V13.05Z" fill="black"/>
<path d="M12.22 9.04999C11.97 8.92999 11.67 9.02999 11.55 9.26999L11.3 9.76999C11.18 10.02 11.28 10.32 11.52 10.44C11.59 10.48 11.67 10.49 11.74 10.49C11.92 10.49 12.1 10.39 12.19 10.21L12.44 9.70999C12.56 9.45999 12.46 9.15999 12.22 9.03999V9.04999Z" fill="black"/>
<path d="M9.53 10.45C9.6 10.49 9.68001 10.5 9.75001 10.5C9.93001 10.5 10.11 10.4 10.2 10.22L10.45 9.71999C10.57 9.46999 10.47 9.16999 10.23 9.04999C9.98002 8.92999 9.68 9.02999 9.56 9.26999L9.31 9.76999C9.19 10.02 9.29 10.32 9.53 10.44V10.45Z" fill="black"/>
<path d="M9.39001 11.19C9.27001 11.04 9.08001 10.97 8.89001 11.01L7.67001 11.28L8.45001 9.71999C8.57001 9.46999 8.47001 9.16999 8.23001 9.04999C7.98001 8.92999 7.68 9.02999 7.56 9.26999L6.31 11.77C6.22 11.94 6.23998 12.15 6.35998 12.3C6.47998 12.45 6.66998 12.52 6.85998 12.48L8.07998 12.21L7.29999 13.77C7.17999 14.02 7.27999 14.32 7.51999 14.44C7.58999 14.48 7.66999 14.49 7.73999 14.49C7.91999 14.49 8.1 14.39 8.19 14.21L9.44 11.71C9.53 11.54 9.51001 11.33 9.39001 11.18V11.19Z" fill="black"/>
<path d="M15 9C15 7.34 13.66 6 12 6H11.95C11.71 4.31 10.26 3 8.5 3C6.74 3 5.28999 4.31 5.04999 6H4C2.34 6 1 7.34 1 9C1 10.4 1.96999 11.57 3.26999 11.9C3.27999 11.71 3.32 11.51 3.41 11.33L3.66 10.83C3.8 10.56 4.00999 10.34 4.26999 10.2C4.22999 9.91 4.27 9.61 4.41 9.33L4.66 8.83C4.92 8.32 5.43 8 6 8C6.23 8 6.46001 8.05 6.67001 8.16C6.80001 8.22 6.91 8.31 7 8.4C7.27 8.16 7.62 8 8 8C8.23 8 8.46001 8.05 8.67001 8.16C8.80001 8.22 8.88999 8.32 8.98999 8.41C9.25999 8.16 9.61 8 10 8C10.23 8 10.46 8.05 10.67 8.16C10.8 8.22 10.91 8.31 11.01 8.4C11.28 8.16 11.63 8 12.01 8C12.24 8 12.47 8.05 12.68 8.16C13.42 8.53 13.72 9.43 13.35 10.17L13.1 10.67C12.96 10.94 12.75 11.16 12.49 11.3C12.52 11.52 12.49 11.74 12.42 11.96C13.88 11.76 15.01 10.52 15.01 9H15Z" fill="black"/>
</svg>
