<svg width="16" height="16" viewBox="0 0 16 16" fill="none" xmlns="http://www.w3.org/2000/svg">
<path d="M5.11999 7.01999C5.44999 5.69999 6.44999 4.63999 7.73999 4.20999C7.34999 3.22999 6.54 2.46999 5.53 2.14999C5.14 2.02999 4.78999 2.38999 4.89999 2.77999C5.09999 3.44999 5.03001 4.22999 4.54001 4.93999C4.38001 5.16999 4.18 5.37999 3.94 5.53999C3.23 6.02999 2.45 6.08999 1.78 5.89999C1.39 5.77999 1.03001 6.12999 1.14001 6.51999C1.39001 7.33999 1.93999 8.02999 2.64999 8.46999C3.21999 7.67999 4.08998 7.12999 5.10998 7.01999H5.11999Z" fill="black"/>
<path d="M7.53 11.45C7.6 11.49 7.68001 11.5 7.75001 11.5C7.93001 11.5 8.11002 11.4 8.20002 11.22L8.45002 10.72C8.57002 10.47 8.47002 10.17 8.23002 10.05C7.98002 9.92999 7.68 10.03 7.56 10.27L7.31 10.77C7.19 11.02 7.29 11.32 7.53 11.44V11.45Z" fill="black"/>
<path d="M7.22001 12.05C6.97001 11.93 6.66999 12.03 6.54999 12.27L6.29999 12.77C6.17999 13.02 6.27999 13.32 6.51999 13.44C6.58999 13.48 6.67 13.49 6.74 13.49C6.92 13.49 7.10001 13.39 7.19001 13.21L7.44001 12.71C7.56001 12.46 7.46001 12.16 7.22001 12.04V12.05Z" fill="black"/>
<path d="M6.22001 14.05C5.97001 13.93 5.66999 14.03 5.54999 14.27L5.29999 14.77C5.17999 15.02 5.27999 15.32 5.51999 15.44C5.58999 15.48 5.67 15.49 5.74 15.49C5.92 15.49 6.10001 15.39 6.19001 15.21L6.44001 14.71C6.56001 14.46 6.46001 14.16 6.22001 14.04V14.05Z" fill="black"/>
<path d="M10.89 12.01L9.66998 12.28L10.45 10.72C10.57 10.47 10.47 10.17 10.23 10.05C9.97998 9.92999 9.67996 10.03 9.55996 10.27L8.30996 12.77C8.21996 12.94 8.23995 13.15 8.35995 13.3C8.47995 13.45 8.66995 13.52 8.85995 13.48L10.08 13.21L9.29995 14.77C9.17995 15.02 9.27996 15.32 9.51996 15.44C9.58996 15.48 9.66996 15.49 9.73996 15.49C9.91996 15.49 10.1 15.39 10.19 15.21L11.44 12.71C11.53 12.54 11.51 12.33 11.39 12.18C11.27 12.03 11.07 11.96 10.89 12V12.01Z" fill="black"/>
<path d="M8.22001 14.05C7.97001 13.93 7.66999 14.03 7.54999 14.27L7.29999 14.77C7.17999 15.02 7.27999 15.32 7.51999 15.44C7.58999 15.48 7.67 15.49 7.74 15.49C7.92 15.49 8.10001 15.39 8.19001 15.21L8.44001 14.71C8.56001 14.46 8.46001 14.16 8.22001 14.04V14.05Z" fill="black"/>
<path d="M12.22 10.05C11.97 9.92999 11.67 10.03 11.55 10.27L11.3 10.77C11.18 11.02 11.28 11.32 11.52 11.44C11.59 11.48 11.67 11.49 11.74 11.49C11.92 11.49 12.1 11.39 12.19 11.21L12.44 10.71C12.56 10.46 12.46 10.16 12.22 10.04V10.05Z" fill="black"/>
<path d="M12.5 8H12C12 6.34 10.66 5 9 5C7.34 5 6 6.34 6 8H5.5C4.12 8 3 9.12 3 10.5C3 11.71 3.86 12.72 5 12.95H5.26999C5.26999 12.74 5.31 12.53 5.41 12.33L5.66 11.83C5.8 11.56 6.00999 11.34 6.26999 11.2C6.22999 10.91 6.27 10.61 6.41 10.33L6.66 9.83C6.92 9.32 7.43 9 8 9C8.23 9 8.46001 9.05 8.67001 9.16C8.80001 9.22 8.9 9.31 9 9.4C9.27 9.15 9.62 9 10 9C10.23 9 10.46 9.05 10.67 9.16C10.8 9.22 10.89 9.32 10.99 9.41C11.26 9.16 11.61 9.01 12 9.01C12.23 9.01 12.46 9.06 12.67 9.17C13.41 9.54 13.71 10.44 13.34 11.18L13.09 11.68C12.95 11.96 12.73 12.17 12.48 12.31C12.51 12.54 12.48 12.78 12.4 13.01H12.5C13.88 13.01 15 11.89 15 10.51C15 9.13 13.88 8.01 12.5 8.01V8Z" fill="black"/>
</svg>
