<svg width="16" height="16" viewBox="0 0 16 16" fill="none" xmlns="http://www.w3.org/2000/svg">
<path d="M14 7.49999H12.21L13.83 5.87999C14.03 5.67999 14.03 5.36999 13.83 5.16999C13.63 4.96999 13.32 4.96999 13.12 5.16999L10.8 7.48999H10.21L9.71002 6.98999L12.59 4.10999C12.79 3.90999 12.79 3.59999 12.59 3.39999C12.39 3.19999 12.08 3.19999 11.88 3.39999L9 6.27999L8.5 5.77999V5.18999L10.82 2.87C11.02 2.67 11.02 2.36 10.82 2.16C10.62 1.96 10.31 1.96 10.11 2.16L8.48999 3.77999V1.98999C8.48999 1.70999 8.26999 1.48999 7.98999 1.48999C7.70999 1.48999 7.48999 1.70999 7.48999 1.98999V3.77999L5.87 2.16C5.67 1.96 5.35997 1.96 5.15997 2.16C4.95997 2.36 4.95997 2.67 5.15997 2.87L7.47998 5.18999V5.77999L6.97998 6.27999L4.09998 3.39999C3.89998 3.19999 3.59001 3.19999 3.39001 3.39999C3.19001 3.59999 3.19001 3.90999 3.39001 4.10999L6.27002 6.98999L5.77002 7.48999H5.17999L2.85999 5.16999C2.65999 4.96999 2.35002 4.96999 2.15002 5.16999C1.95002 5.36999 1.95002 5.67999 2.15002 5.87999L3.77002 7.49999H1.97998C1.69998 7.49999 1.47998 7.71999 1.47998 7.99999C1.47998 8.27999 1.69998 8.49999 1.97998 8.49999H3.77002L2.15002 10.12C1.95002 10.32 1.95002 10.63 2.15002 10.83C2.25002 10.93 2.38 10.98 2.5 10.98C2.62 10.98 2.75998 10.93 2.84998 10.83L5.16998 8.50999H5.76001L6.26001 9.00999L3.38 11.89C3.18 12.09 3.18 12.4 3.38 12.6C3.48 12.7 3.60998 12.75 3.72998 12.75C3.84998 12.75 3.99002 12.7 4.08002 12.6L6.96002 9.71999L7.46002 10.22V10.81L5.14001 13.13C4.94001 13.33 4.94001 13.64 5.14001 13.84C5.34001 14.04 5.64998 14.04 5.84998 13.84L7.46997 12.22V14.01C7.46997 14.29 7.68997 14.51 7.96997 14.51C8.24997 14.51 8.46997 14.29 8.46997 14.01V12.22L10.09 13.84C10.19 13.94 10.32 13.99 10.44 13.99C10.56 13.99 10.7 13.94 10.79 13.84C10.99 13.64 10.99 13.33 10.79 13.13L8.46997 10.81V10.22L8.96997 9.71999L11.85 12.6C11.95 12.7 12.08 12.75 12.2 12.75C12.32 12.75 12.46 12.7 12.55 12.6C12.75 12.4 12.75 12.09 12.55 11.89L9.66998 9.00999L10.17 8.50999H10.76L13.08 10.83C13.18 10.93 13.31 10.98 13.43 10.98C13.55 10.98 13.69 10.93 13.78 10.83C13.98 10.63 13.98 10.32 13.78 10.12L12.16 8.49999H13.95C14.23 8.49999 14.45 8.27999 14.45 7.99999C14.45 7.71999 14.23 7.49999 13.95 7.49999H14Z" fill="black"/>
</svg>
