<svg width="16" height="16" viewBox="0 0 16 16" fill="none" xmlns="http://www.w3.org/2000/svg">
<path d="M11.7 7.99998C12.11 8.45998 12.37 9.06998 12.37 9.72998C12.37 11.18 11.19 12.36 9.73999 12.36C9.06999 12.36 8.47001 12.1 8.01001 11.69C8.12001 13.53 9.63 14.99 11.5 14.99C13.37 14.99 15.01 13.42 15.01 11.48C15.01 9.53998 13.55 8.09999 11.71 7.98999L11.7 7.99998Z" fill="currentColor"/>
<path d="M6 8.5C7.38071 8.5 8.5 7.38071 8.5 6C8.5 4.61929 7.38071 3.5 6 3.5C4.61929 3.5 3.5 4.61929 3.5 6C3.5 7.38071 4.61929 8.5 6 8.5Z" fill="currentColor"/>
<path d="M6 2.5C5.72 2.5 5.5 2.28 5.5 2V1.5C5.5 1.22 5.72 1 6 1C6.28 1 6.5 1.22 6.5 1.5V2C6.5 2.28 6.28 2.5 6 2.5Z" fill="currentColor"/>
<path d="M6 11C5.72 11 5.5 10.78 5.5 10.5V10C5.5 9.72 5.72 9.5 6 9.5C6.28 9.5 6.5 9.72 6.5 10V10.5C6.5 10.78 6.28 11 6 11Z" fill="currentColor"/>
<path d="M8.82999 3.66999C8.69999 3.66999 8.56996 3.62 8.47996 3.52C8.27996 3.32 8.27996 3.00999 8.47996 2.80999L8.82999 2.46C9.02999 2.26 9.33995 2.26 9.53995 2.46C9.73995 2.66 9.73995 2.96999 9.53995 3.16999L9.18998 3.52C9.08998 3.62 8.96 3.66999 8.84 3.66999H8.82999Z" fill="currentColor"/>
<path d="M2.81998 9.67998C2.68998 9.67998 2.55995 9.62999 2.46995 9.52999C2.26995 9.32999 2.26995 9.02 2.46995 8.82L2.81998 8.46999C3.01998 8.26999 3.33 8.26999 3.53 8.46999C3.73001 8.66999 3.73001 8.97998 3.53 9.17998L3.17997 9.52999C3.07997 9.62999 2.94999 9.67998 2.82999 9.67998H2.81998Z" fill="currentColor"/>
<path d="M10.5 6.5H10C9.72 6.5 9.5 6.28 9.5 6C9.5 5.72 9.72 5.5 10 5.5H10.5C10.78 5.5 11 5.72 11 6C11 6.28 10.78 6.5 10.5 6.5Z" fill="currentColor"/>
<path d="M2 6.5H1.5C1.22 6.5 1 6.28 1 6C1 5.72 1.22 5.5 1.5 5.5H2C2.28 5.5 2.5 5.72 2.5 6C2.5 6.28 2.28 6.5 2 6.5Z" fill="currentColor"/>
<path d="M9.17997 9.67998C9.04997 9.67998 8.91999 9.62999 8.82999 9.52999L8.47996 9.17998C8.27996 8.97998 8.27996 8.66999 8.47996 8.46999C8.67996 8.26999 8.98998 8.26999 9.18998 8.46999L9.53995 8.82C9.73995 9.02 9.73995 9.32999 9.53995 9.52999C9.43995 9.62999 9.30998 9.67998 9.18998 9.67998H9.17997Z" fill="currentColor"/>
<path d="M3.16996 3.66999C3.03996 3.66999 2.90998 3.62 2.81998 3.52L2.46995 3.16999C2.26995 2.96999 2.26995 2.66 2.46995 2.46C2.66995 2.26 2.97997 2.26 3.17997 2.46L3.53 2.80999C3.73001 3.00999 3.73001 3.32 3.53 3.52C3.43001 3.62 3.29997 3.66999 3.17997 3.66999H3.16996Z" fill="currentColor"/>
</svg>
