<svg width="16" height="16" viewBox="0 0 16 16" fill="none" xmlns="http://www.w3.org/2000/svg">
<path d="M12 14.5H4C3.72 14.5 3.5 14.28 3.5 14C3.5 13.72 3.72 13.5 4 13.5H12C12.28 13.5 12.5 13.72 12.5 14C12.5 14.28 12.28 14.5 12 14.5Z" fill="black"/>
<path d="M2 10.5H14C14.28 10.5 14.5 10.28 14.5 9.99998C14.5 9.71998 14.28 9.49998 14 9.49998H12.5V7.49998H13C13.2 7.49998 13.38 7.37999 13.46 7.18999C13.54 6.99999 13.49 6.78998 13.35 6.64998L8.84003 2.13998C8.38003 1.67998 7.62997 1.67998 7.15997 2.13998L2.65002 6.64998C2.51002 6.78998 2.45998 7.00999 2.53998 7.18999C2.61998 7.36999 2.8 7.49998 3 7.49998H3.5V9.49998H2C1.72 9.49998 1.5 9.71998 1.5 9.99998C1.5 10.28 1.72 10.5 2 10.5Z" fill="black"/>
<path d="M14 11.5H11C10.72 11.5 10.5 11.72 10.5 12C10.5 12.28 10.72 12.5 11 12.5H14C14.28 12.5 14.5 12.28 14.5 12C14.5 11.72 14.28 11.5 14 11.5Z" fill="black"/>
<path d="M9 11.5H2C1.72 11.5 1.5 11.72 1.5 12C1.5 12.28 1.72 12.5 2 12.5H9C9.28 12.5 9.5 12.28 9.5 12C9.5 11.72 9.28 11.5 9 11.5Z" fill="black"/>
</svg>
