<svg width="16" height="16" viewBox="0 0 16 16" fill="none" xmlns="http://www.w3.org/2000/svg">
<path d="M8 3.5C7.72 3.5 7.5 3.28 7.5 3V2C7.5 1.72 7.72 1.5 8 1.5C8.28 1.5 8.5 1.72 8.5 2V3C8.5 3.28 8.28 3.5 8 3.5Z" fill="currentColor"/>
<path d="M11.54 4.96C11.41 4.96 11.28 4.90999 11.19 4.80999C10.99 4.60999 10.99 4.3 11.19 4.1L11.9 3.38999C12.1 3.18999 12.41 3.18999 12.61 3.38999C12.81 3.58999 12.81 3.9 12.61 4.1L11.9 4.80999C11.8 4.90999 11.67 4.96 11.55 4.96H11.54Z" fill="currentColor"/>
<path d="M14 8.5H13C12.72 8.5 12.5 8.28 12.5 8C12.5 7.72 12.72 7.5 13 7.5H14C14.28 7.5 14.5 7.72 14.5 8C14.5 8.28 14.28 8.5 14 8.5Z" fill="currentColor"/>
<path d="M3 8.5H2C1.72 8.5 1.5 8.28 1.5 8C1.5 7.72 1.72 7.5 2 7.5H3C3.28 7.5 3.5 7.72 3.5 8C3.5 8.28 3.28 8.5 3 8.5Z" fill="currentColor"/>
<path d="M4.46 4.96C4.33 4.96 4.19996 4.90999 4.10996 4.80999L3.4 4.1C3.2 3.9 3.2 3.58999 3.4 3.38999C3.6 3.18999 3.90996 3.18999 4.10996 3.38999L4.81998 4.1C5.01998 4.3 5.01998 4.60999 4.81998 4.80999C4.71998 4.90999 4.58995 4.96 4.46995 4.96H4.46Z" fill="currentColor"/>
<path d="M14 10.5H11C10.72 10.5 10.5 10.28 10.5 10C10.5 9.72 10.72 9.5 11 9.5H14C14.28 9.5 14.5 9.72 14.5 10C14.5 10.28 14.28 10.5 14 10.5Z" fill="currentColor"/>
<path d="M9 10.5H2C1.72 10.5 1.5 10.28 1.5 10C1.5 9.72 1.72 9.5 2 9.5H9C9.28 9.5 9.5 9.72 9.5 10C9.5 10.28 9.28 10.5 9 10.5Z" fill="currentColor"/>
<path d="M13 12.5H8C7.72 12.5 7.5 12.28 7.5 12C7.5 11.72 7.72 11.5 8 11.5H13C13.28 11.5 13.5 11.72 13.5 12C13.5 12.28 13.28 12.5 13 12.5Z" fill="currentColor"/>
<path d="M6 12.5H3C2.72 12.5 2.5 12.28 2.5 12C2.5 11.72 2.72 11.5 3 11.5H6C6.28 11.5 6.5 11.72 6.5 12C6.5 12.28 6.28 12.5 6 12.5Z" fill="currentColor"/>
<path d="M12 14.5H4C3.72 14.5 3.5 14.28 3.5 14C3.5 13.72 3.72 13.5 4 13.5H12C12.28 13.5 12.5 13.72 12.5 14C12.5 14.28 12.28 14.5 12 14.5Z" fill="currentColor"/>
<path d="M11 8.5H5C4.72 8.5 4.5 8.28 4.5 8C4.5 6.07 6.07 4.5 8 4.5C9.93 4.5 11.5 6.07 11.5 8C11.5 8.28 11.28 8.5 11 8.5Z" fill="currentColor"/>
</svg>
