<svg width="16" height="16" viewBox="0 0 16 16" fill="none" xmlns="http://www.w3.org/2000/svg">
<path fill-rule="evenodd" clip-rule="evenodd" d="M7.99965 1.5C8.27579 1.5 8.49965 1.72386 8.49965 2V3.13281L9.48012 2.56738C9.71918 2.42929 10.0246 2.51097 10.1627 2.75C10.3008 2.98903 10.2191 3.29441 9.98012 3.43262L8.49965 4.28809V5.5498C9.03996 5.65939 9.51521 5.94492 9.86781 6.3418L10.9596 5.71289V4C10.9596 3.724 11.1837 3.50022 11.4596 3.5C11.7358 3.5 11.9596 3.72386 11.9596 4V5.13672L12.9508 4.56641C13.1899 4.42898 13.4956 4.51107 13.6334 4.75C13.7713 4.98922 13.689 5.29569 13.4498 5.43359L12.4655 6L13.4489 6.56641C13.6882 6.70397 13.7708 7.00966 13.6334 7.24902C13.4959 7.4882 13.1901 7.57091 12.9508 7.43359L11.4625 6.57812L10.3698 7.20801C10.453 7.45708 10.4997 7.72294 10.4997 8C10.4997 8.27673 10.4528 8.5422 10.3698 8.79102L11.4625 9.4209L12.9508 8.56641C13.1901 8.42909 13.4959 8.5118 13.6334 8.75098C13.7708 8.99034 13.6882 9.29603 13.4489 9.43359L12.4645 9.99805L13.4498 10.5664C13.689 10.7043 13.7713 11.0108 13.6334 11.25C13.4956 11.4889 13.1899 11.571 12.9508 11.4336L11.9596 10.8623V12C11.9596 12.2761 11.7358 12.5 11.4596 12.5C11.1837 12.4998 10.9596 12.276 10.9596 12V10.2861L9.86781 9.65723C9.51521 10.0543 9.04013 10.3396 8.49965 10.4492V11.7109L9.98012 12.5674C10.2191 12.7056 10.3008 13.011 10.1627 13.25C10.0246 13.489 9.71918 13.5707 9.48012 13.4326L8.49965 12.8652V14C8.49965 14.2761 8.27579 14.5 7.99965 14.5C7.72369 14.4998 7.49965 14.276 7.49965 14V12.8662L6.52016 13.4326C6.28111 13.5708 5.97574 13.489 5.83754 13.25C5.69939 13.0109 5.7811 12.7056 6.02016 12.5674L7.49965 11.7119V10.4492C6.9593 10.3394 6.48397 10.0544 6.13149 9.65723L5.04067 10.2861V12C5.04067 12.2759 4.81651 12.4996 4.54067 12.5C4.26452 12.5 4.04067 12.2761 4.04067 12V10.8623L3.05043 11.4336C2.81127 11.5714 2.5048 11.4891 2.36684 11.25C2.22896 11.0108 2.31124 10.7043 2.55043 10.5664L3.53481 9.99805L2.55141 9.43359C2.31203 9.29602 2.22934 8.99038 2.36684 8.75098C2.50446 8.51174 2.81011 8.42894 3.04946 8.56641L4.53676 9.4209L5.62953 8.79102C5.54656 8.54226 5.49965 8.27664 5.49965 8C5.49965 7.72303 5.54638 7.45701 5.62953 7.20801L4.53676 6.57812L3.04946 7.43359C2.81011 7.57106 2.50446 7.48826 2.36684 7.24902C2.22934 7.00962 2.31203 6.70398 2.55141 6.56641L3.53481 6L2.55043 5.43359C2.31124 5.29568 2.22896 4.98923 2.36684 4.75C2.5048 4.51094 2.81127 4.42856 3.05043 4.56641L4.04067 5.13672V4C4.04067 3.72386 4.26452 3.5 4.54067 3.5C4.81651 3.50035 5.04067 3.72407 5.04067 4V5.71289L6.13149 6.3418C6.48396 5.9449 6.95947 5.65953 7.49965 5.5498V4.28711L6.02016 3.43262C5.7811 3.29443 5.69939 2.98907 5.83754 2.75C5.97574 2.51099 6.28111 2.42924 6.52016 2.56738L7.49965 3.13281V2C7.49965 1.72399 7.72369 1.50021 7.99965 1.5ZM7.99965 6.5C7.44809 6.50014 6.96716 6.79859 6.70668 7.24219C6.70535 7.24459 6.70513 7.24761 6.70375 7.25C6.70239 7.25236 6.70026 7.25451 6.69887 7.25684C6.57335 7.47612 6.49965 7.72923 6.49965 8C6.49965 8.26934 6.57165 8.52174 6.69594 8.74023C6.69805 8.7437 6.70172 8.74647 6.70375 8.75C6.70498 8.75214 6.70549 8.75469 6.70668 8.75684C6.96706 9.20083 7.44779 9.49986 7.99965 9.5C8.55154 9.5 9.03214 9.20075 9.29262 8.75684C9.29388 8.75456 9.29522 8.75226 9.29653 8.75C9.29865 8.74631 9.30116 8.74287 9.30336 8.73926C9.42751 8.52086 9.49965 8.26917 9.49965 8C9.49965 7.72927 9.42689 7.4761 9.30141 7.25684C9.29998 7.25445 9.29792 7.25242 9.29653 7.25C9.29508 7.24749 9.29402 7.24471 9.29262 7.24219C9.03204 6.79868 8.55123 6.5 7.99965 6.5Z" fill="black"/>
</svg>
