<svg width="16" height="16" viewBox="0 0 16 16" fill="none" xmlns="http://www.w3.org/2000/svg">
<path d="M7.99999 1.5C8.27999 1.5 8.49999 1.72 8.49999 2V3C8.49999 3.00724 8.49735 3.01433 8.49706 3.02148C11.3495 3.25633 13.6384 5.49282 13.96 8.32031C13.9998 8.68016 13.73 8.99994 13.3701 9H8.49999V13C8.49999 13.83 7.82999 14.5 6.99999 14.5C6.16999 14.5 5.49999 13.83 5.49999 13C5.49999 12.72 5.71999 12.5 5.99999 12.5C6.24511 12.5 6.44442 12.6686 6.49023 12.8984L6.50976 13.1016C6.55557 13.3314 6.75487 13.5 6.99999 13.5C7.27999 13.5 7.49999 13.28 7.49999 13V9H2.62988C2.27005 8.99992 2.00022 8.68014 2.04003 8.32031C2.36152 5.49315 4.64996 3.25677 7.50195 3.02148C7.50166 3.01434 7.49999 3.00722 7.49999 3V2C7.49999 1.72 7.71999 1.5 7.99999 1.5Z" fill="black"/>
</svg>
