<svg width="16" height="16" viewBox="0 0 16 16" fill="none" xmlns="http://www.w3.org/2000/svg">
<path d="M3.07 4.78L4.21 4.21L4.77999 3.07C4.86999 2.89 5.13999 2.89 5.22999 3.07L5.79999 4.21L6.93999 4.78C7.11999 4.87 7.11999 5.14 6.93999 5.23L5.79999 5.8L5.22999 6.94C5.13999 7.12 4.86999 7.12 4.77999 6.94L4.21 5.8L3.07 5.23C2.89 5.14 2.89 4.87 3.07 4.78Z" fill="black"/>
<path d="M9.66997 4.01C10.08 4.78 10.26 5.69 10.11 6.64C9.83997 8.4 8.39997 9.84 6.63997 10.11C5.67997 10.26 4.76997 10.08 3.99997 9.67C3.58997 9.45 3.14996 9.85 3.28996 10.28C4.09996 12.66 6.49996 14.3 9.22996 13.95C11.65 13.63 13.63 11.66 13.94 9.24C14.3 6.51 12.65 4.12 10.27 3.3C9.83997 3.15 9.43997 3.6 9.65997 4.01H9.66997Z" fill="black"/>
</svg>
