<svg width="16" height="16" viewBox="0 0 16 16" fill="none" xmlns="http://www.w3.org/2000/svg">
<path d="M14 7.5H11.21L12.36 6.35C12.56 6.15 12.56 5.84 12.36 5.64C12.16 5.44 11.85 5.44 11.65 5.64L10 7.29L8.71002 6L10.36 4.35C10.56 4.15 10.56 3.84 10.36 3.64C10.16 3.44 9.85002 3.44 9.65002 3.64L8.5 4.79V2C8.5 1.72 8.28 1.5 8 1.5C7.72 1.5 7.5 1.72 7.5 2V4.79L6.34998 3.64C6.14998 3.44 5.84001 3.44 5.64001 3.64C5.44001 3.84 5.44001 4.15 5.64001 4.35L7.28998 6L6 7.29L4.34998 5.64C4.14998 5.44 3.84001 5.44 3.64001 5.64C3.44001 5.84 3.44001 6.15 3.64001 6.35L4.78998 7.5H2C1.72 7.5 1.5 7.72 1.5 8C1.5 8.28 1.72 8.5 2 8.5H4.78998L3.64001 9.65C3.44001 9.85 3.44001 10.16 3.64001 10.36C3.74001 10.46 3.86999 10.51 3.98999 10.51C4.10999 10.51 4.25003 10.46 4.34003 10.36L5.98999 8.71L7.28003 10L5.63 11.65C5.43 11.85 5.43 12.16 5.63 12.36C5.83 12.56 6.14003 12.56 6.34003 12.36L7.48999 11.21V14C7.48999 14.28 7.70999 14.5 7.98999 14.5C8.26999 14.5 8.48999 14.28 8.48999 14V11.21L9.64001 12.36C9.74001 12.46 9.86999 12.51 9.98999 12.51C10.11 12.51 10.25 12.46 10.34 12.36C10.54 12.16 10.54 11.85 10.34 11.65L8.69 10L9.97998 8.71L11.63 10.36C11.73 10.46 11.86 10.51 11.98 10.51C12.1 10.51 12.24 10.46 12.33 10.36C12.53 10.16 12.53 9.85 12.33 9.65L11.18 8.5H13.97C14.25 8.5 14.47 8.28 14.47 8C14.47 7.72 14.25 7.5 13.97 7.5H14Z" fill="black"/>
</svg>
