<svg width="16" height="16" viewBox="0 0 16 16" fill="none" xmlns="http://www.w3.org/2000/svg">
<path d="M15 3.5H12C11.72 3.5 11.5 3.28 11.5 3C11.5 2.72 11.72 2.5 12 2.5H15C15.28 2.5 15.5 2.72 15.5 3C15.5 3.28 15.28 3.5 15 3.5Z" fill="currentColor"/>
<path d="M10 9.78V3C10 1.9 9.1 1 8 1C6.9 1 6 1.9 6 3V9.78C5.39 10.33 5 11.12 5 12C5 13.66 6.34 15 8 15C9.66 15 11 13.66 11 12C11 11.11 10.61 10.33 10 9.78ZM8 13.5C7.17 13.5 6.5 12.83 6.5 12C6.5 11.35 6.92 10.8 7.5 10.59V6.17C7.5 5.89 7.72 5.67 8 5.67C8.28 5.67 8.5 5.89 8.5 6.17V10.59C9.08 10.8 9.5 11.35 9.5 12C9.5 12.83 8.83 13.5 8 13.5Z" fill="currentColor"/>
</svg>
