<svg width="16" height="16" viewBox="0 0 16 16" fill="none" xmlns="http://www.w3.org/2000/svg">
<path d="M10.13 3.99999C9.93 3.63999 9.45 2.86998 9.09 2.30998C8.89 1.99998 8.43999 1.99998 8.23999 2.30998C7.88999 2.86998 7.40001 3.63999 7.20001 3.99999C7.06001 4.24999 7 4.54999 7 4.85999C7 5.84999 7.75001 6.64999 8.67001 6.64999C9.59001 6.64999 10.34 5.84999 10.34 4.85999C10.34 4.54999 10.28 4.24999 10.14 3.99999H10.13Z" fill="black"/>
<path d="M5.42001 7.30998C5.22001 6.99998 4.76999 6.99998 4.57999 7.30998C4.01999 8.19998 3.04 9.74998 2.66 10.42C2.44 10.82 2.32999 11.3 2.32999 11.79C2.32999 13.37 3.53 14.65 5 14.65C6.47 14.65 7.67001 13.37 7.67001 11.79C7.67001 11.29 7.57 10.81 7.34 10.42C6.96 9.74998 5.99001 8.19998 5.42001 7.30998Z" fill="black"/>
<path d="M13.75 9.46999C13.49 9.00999 12.85 7.98998 12.42 7.30998C12.22 6.99998 11.77 6.99998 11.58 7.30998C11.15 7.98998 10.51 9.00999 10.25 9.46999C10.08 9.76999 10 10.13 10 10.5C10 11.68 10.9 12.65 12 12.65C13.1 12.65 14 11.69 14 10.5C14 10.13 13.92 9.76999 13.75 9.46999Z" fill="black"/>
</svg>
