<svg width="16" height="16" viewBox="0 0 16 16" fill="none" xmlns="http://www.w3.org/2000/svg">
<path d="M12.23 8.92001C12.38 9.38001 12.41 9.89001 12.27 10.42C12.04 11.31 11.31 12.04 10.42 12.27C9.88002 12.41 9.37002 12.38 8.91002 12.23C8.50002 12.09 8.10002 12.46 8.26002 12.86C8.87002 14.31 10.42 15.26 12.16 14.93C13.54 14.67 14.67 13.54 14.93 12.16C15.26 10.42 14.3 8.87001 12.86 8.26001C12.47 8.09001 12.1 8.50001 12.23 8.91001V8.92001Z" fill="black"/>
<path d="M6 8.5C7.38071 8.5 8.5 7.38071 8.5 6C8.5 4.61929 7.38071 3.5 6 3.5C4.61929 3.5 3.5 4.61929 3.5 6C3.5 7.38071 4.61929 8.5 6 8.5Z" fill="black"/>
<path d="M6 2.5C5.72 2.5 5.5 2.28 5.5 2V1.5C5.5 1.22 5.72 1 6 1C6.28 1 6.5 1.22 6.5 1.5V2C6.5 2.28 6.28 2.5 6 2.5Z" fill="black"/>
<path d="M6 11C5.72 11 5.5 10.78 5.5 10.5V10C5.5 9.72 5.72 9.5 6 9.5C6.28 9.5 6.5 9.72 6.5 10V10.5C6.5 10.78 6.28 11 6 11Z" fill="black"/>
<path d="M8.83002 3.67C8.70002 3.67 8.57002 3.62 8.48002 3.52C8.28002 3.32 8.28002 3.01 8.48002 2.81L8.83002 2.46C9.03002 2.26 9.34002 2.26 9.54002 2.46C9.74002 2.66 9.74002 2.97 9.54002 3.17L9.19002 3.52C9.09002 3.62 8.96002 3.67 8.84002 3.67H8.83002Z" fill="black"/>
<path d="M2.82001 9.68001C2.69001 9.68001 2.56001 9.63001 2.47001 9.53001C2.27001 9.33001 2.27001 9.02001 2.47001 8.82001L2.82001 8.47001C3.02001 8.27001 3.33001 8.27001 3.53001 8.47001C3.73001 8.67001 3.73001 8.98001 3.53001 9.18001L3.18001 9.53001C3.08001 9.63001 2.95001 9.68001 2.83001 9.68001H2.82001Z" fill="black"/>
<path d="M10.5 6.5H10C9.72 6.5 9.5 6.28 9.5 6C9.5 5.72 9.72 5.5 10 5.5H10.5C10.78 5.5 11 5.72 11 6C11 6.28 10.78 6.5 10.5 6.5Z" fill="black"/>
<path d="M2 6.5H1.5C1.22 6.5 1 6.28 1 6C1 5.72 1.22 5.5 1.5 5.5H2C2.28 5.5 2.5 5.72 2.5 6C2.5 6.28 2.28 6.5 2 6.5Z" fill="black"/>
<path d="M9.18002 9.68001C9.05002 9.68001 8.92002 9.63001 8.83002 9.53001L8.48002 9.18001C8.28002 8.98001 8.28002 8.67001 8.48002 8.47001C8.68002 8.27001 8.99002 8.27001 9.19002 8.47001L9.54002 8.82001C9.74002 9.02001 9.74002 9.33001 9.54002 9.53001C9.44002 9.63001 9.31002 9.68001 9.19002 9.68001H9.18002Z" fill="black"/>
<path d="M3.17001 3.67C3.04001 3.67 2.91001 3.62 2.82001 3.52L2.47001 3.17C2.27001 2.97 2.27001 2.66 2.47001 2.46C2.67001 2.26 2.98001 2.26 3.18001 2.46L3.53001 2.81C3.73001 3.01 3.73001 3.32 3.53001 3.52C3.43001 3.62 3.30001 3.67 3.18001 3.67H3.17001Z" fill="black"/>
</svg>
