<svg width="16" height="16" viewBox="0 0 16 16" fill="none" xmlns="http://www.w3.org/2000/svg">
<path d="M6.74999 12.5C6.66999 12.5 6.59999 12.48 6.52999 12.45C6.27999 12.33 6.17999 12.03 6.30999 11.78L6.55999 11.28C6.67999 11.03 6.98001 10.93 7.23001 11.06C7.48001 11.18 7.58001 11.48 7.45001 11.73L7.20001 12.23C7.11001 12.4 6.93999 12.51 6.74999 12.51V12.5Z" fill="black"/>
<path d="M4.74999 12.5C4.66999 12.5 4.59999 12.48 4.52999 12.45C4.27999 12.33 4.17999 12.03 4.30999 11.78L4.55999 11.28C4.67999 11.03 4.98001 10.93 5.23001 11.06C5.48001 11.18 5.58001 11.48 5.45001 11.73L5.20001 12.23C5.11001 12.4 4.93999 12.51 4.74999 12.51V12.5Z" fill="black"/>
<path d="M5.74999 14.5C5.66999 14.5 5.59999 14.48 5.52999 14.45C5.27999 14.33 5.17999 14.03 5.30999 13.78L5.55999 13.28C5.67999 13.03 5.98001 12.93 6.23001 13.06C6.48001 13.18 6.58001 13.48 6.45001 13.73L6.20001 14.23C6.11001 14.4 5.93999 14.51 5.74999 14.51V14.5Z" fill="black"/>
<path d="M8.74999 12.5C8.66999 12.5 8.59999 12.48 8.52999 12.45C8.27999 12.33 8.17999 12.03 8.30999 11.78L8.55999 11.28C8.67999 11.03 8.98001 10.93 9.23001 11.06C9.48001 11.18 9.58001 11.48 9.45001 11.73L9.20001 12.23C9.11001 12.4 8.93999 12.51 8.74999 12.51V12.5Z" fill="black"/>
<path d="M7.74999 14.5C7.66999 14.5 7.59999 14.48 7.52999 14.45C7.27999 14.33 7.17999 14.03 7.30999 13.78L7.55999 13.28C7.67999 13.03 7.98001 12.93 8.23001 13.06C8.48001 13.18 8.58001 13.48 8.45001 13.73L8.20001 14.23C8.11001 14.4 7.93999 14.51 7.74999 14.51V14.5Z" fill="black"/>
<path d="M10.75 12.5C10.67 12.5 10.6 12.48 10.53 12.45C10.28 12.33 10.18 12.03 10.31 11.78L10.56 11.28C10.68 11.03 10.98 10.93 11.23 11.06C11.48 11.18 11.58 11.48 11.45 11.73L11.2 12.23C11.11 12.4 10.94 12.51 10.75 12.51V12.5Z" fill="black"/>
<path d="M9.74999 14.5C9.66999 14.5 9.59999 14.48 9.52999 14.45C9.27999 14.33 9.17999 14.03 9.30999 13.78L9.55999 13.28C9.67999 13.03 9.98001 12.93 10.23 13.06C10.48 13.18 10.58 13.48 10.45 13.73L10.2 14.23C10.11 14.4 9.93999 14.51 9.74999 14.51V14.5Z" fill="black"/>
<path d="M12 6H11.95C11.71 4.31 10.26 3 8.5 3C6.74 3 5.28999 4.31 5.04999 6H4C2.34 6 1 7.34 1 9C1 10.4 1.96999 11.57 3.26999 11.9C3.27999 11.71 3.32 11.51 3.41 11.33L3.66 10.83C3.92 10.32 4.43 10 5 10C5.23 10 5.46001 10.05 5.67001 10.16C5.80001 10.22 5.9 10.31 6 10.4C6.27 10.16 6.62 10.01 7 10.01C7.23 10.01 7.46001 10.06 7.67001 10.17C7.80001 10.23 7.9 10.32 8 10.41C8.27 10.16 8.62 10.01 9 10.01C9.23 10.01 9.46001 10.06 9.67001 10.17C9.80001 10.23 9.9 10.32 10 10.41C10.27 10.17 10.62 10.01 11 10.01C11.23 10.01 11.46 10.06 11.67 10.17C12.34 10.51 12.64 11.28 12.42 11.97C13.87 11.76 15 10.52 15 9.01C15 7.35 13.66 6.01 12 6.01V6Z" fill="black"/>
<path d="M3.74999 14.5C3.66999 14.5 3.59999 14.48 3.52999 14.45C3.27999 14.33 3.17999 14.03 3.30999 13.78L3.55999 13.28C3.67999 13.03 3.98001 12.93 4.23001 13.06C4.48001 13.18 4.58001 13.48 4.45001 13.73L4.20001 14.23C4.11001 14.4 3.93999 14.51 3.74999 14.51V14.5Z" fill="black"/>
</svg>
