<svg width="16" height="16" viewBox="0 0 16 16" fill="none" xmlns="http://www.w3.org/2000/svg">
<path d="M14 10.5H11C10.72 10.5 10.5 10.28 10.5 10C10.5 9.72 10.72 9.5 11 9.5H14C14.28 9.5 14.5 9.72 14.5 10C14.5 10.28 14.28 10.5 14 10.5Z" fill="currentColor"/>
<path d="M9 10.5H2C1.72 10.5 1.5 10.28 1.5 10C1.5 9.72 1.72 9.5 2 9.5H9C9.28 9.5 9.5 9.72 9.5 10C9.5 10.28 9.28 10.5 9 10.5Z" fill="currentColor"/>
<path d="M13 12.5H8C7.72 12.5 7.5 12.28 7.5 12C7.5 11.72 7.72 11.5 8 11.5H13C13.28 11.5 13.5 11.72 13.5 12C13.5 12.28 13.28 12.5 13 12.5Z" fill="currentColor"/>
<path d="M6 12.5H3C2.72 12.5 2.5 12.28 2.5 12C2.5 11.72 2.72 11.5 3 11.5H6C6.28 11.5 6.5 11.72 6.5 12C6.5 12.28 6.28 12.5 6 12.5Z" fill="currentColor"/>
<path d="M7.99001 8.49996C6.15001 8.49996 4.61002 7.04996 4.50002 5.19996C4.49002 4.99996 4.60005 4.80996 4.78005 4.71996C4.96005 4.62996 5.18004 4.65995 5.33004 4.78995C5.56004 4.98995 5.95001 5.23997 6.49001 5.23997C7.46001 5.23997 8.25002 4.44996 8.25002 3.47996C8.25002 2.93996 8.01001 2.55997 7.80001 2.31997C7.67001 2.16997 7.64 1.94996 7.73 1.76996C7.82 1.58996 8.01004 1.46997 8.21004 1.48997C10.06 1.59997 11.51 3.13996 11.51 4.97996C11.51 6.81996 9.94002 8.48997 8.00002 8.48997L7.99001 8.49996Z" fill="currentColor"/>
<path d="M12 14.5H4C3.72 14.5 3.5 14.28 3.5 14C3.5 13.72 3.72 13.5 4 13.5H12C12.28 13.5 12.5 13.72 12.5 14C12.5 14.28 12.28 14.5 12 14.5Z" fill="currentColor"/>
</svg>
