<svg width="16" height="16" viewBox="0 0 16 16" fill="none" xmlns="http://www.w3.org/2000/svg">
<path d="M12 2.49023C12.28 2.49023 12.5 2.71023 12.5 2.99023V6.99023C12.4999 9.3028 10.7432 11.2144 8.49512 11.4619L8.48438 12.5H11.79L12.6504 11.6396C12.8504 11.44 13.1605 11.4398 13.3604 11.6396C13.5602 11.8395 13.56 12.1496 13.3604 12.3496L12.71 13L13.3604 13.6504C13.5599 13.8504 13.5602 14.1605 13.3604 14.3604C13.2604 14.4604 13.1298 14.5098 13.0098 14.5098L13 14.5C12.87 14.5 12.7404 14.4496 12.6504 14.3496L11.8008 13.5H8.47461L8.46973 14C8.46973 14.27 8.23973 14.5 7.96973 14.5C7.68984 14.4999 7.46973 14.2699 7.46973 14L7.47461 13.5H4.20996L4.36035 13.6504C4.55995 13.8504 4.5602 14.1605 4.36035 14.3604C4.26035 14.4604 4.12977 14.5098 4.00977 14.5098L4 14.5C3.87 14.5 3.74039 14.4496 3.65039 14.3496L2.70801 13.4072C2.58159 13.3173 2.5 13.17 2.5 13C2.5 12.9555 2.5071 12.9129 2.51758 12.8721C2.52358 12.8491 2.52965 12.8259 2.53906 12.8037C2.56496 12.7416 2.60217 12.6856 2.64941 12.6396L3.65039 11.6396C3.8504 11.44 4.16047 11.4398 4.36035 11.6396C4.5602 11.8395 4.55995 12.1496 4.36035 12.3496L4.20996 12.5H7.48438L7.49512 11.4707C5.25165 11.2187 3.50001 9.30931 3.5 7V5.5H3C2.72 5.5 2.5 5.28 2.5 5C2.5 4.72 2.72 4.5 3 4.5H3.5C3.5 3.4 4.4 2.5 5.5 2.5C6.6 2.5 7.5 3.4 7.5 4.5V6C7.5 6.08999 7.51957 6.17024 7.55957 6.24023C7.91957 4.12023 9.77 2.49023 12 2.49023Z" fill="black"/>
</svg>
