<svg width="16" height="16" viewBox="0 0 16 16" fill="none" xmlns="http://www.w3.org/2000/svg">
<path d="M13.4302 4.22988C13.6302 4.03007 13.9403 4.02994 14.1402 4.22988L14.8502 4.93984C15.0501 5.13978 15.05 5.44979 14.8502 5.6498L9.19 11.31C8.99 11.51 8.68004 11.51 8.48004 11.31L5.38043 8.21035C5.18043 8.01035 5.18043 7.70039 5.38043 7.50039L6.09039 6.79043C6.29039 6.59043 6.60035 6.59043 6.80035 6.79043L8.84039 8.83047L13.44 4.22988H13.4302Z" fill="black"/>
<path d="M1.85015 6.77968C2.05013 6.57997 2.3602 6.57985 2.56011 6.77968H2.55035L6.01031 10.2396L4.94976 11.3002C4.74976 11.5 4.43974 11.5001 4.2398 11.3002L1.14019 8.19961C0.940276 7.9996 0.940221 7.68962 1.14019 7.48964L1.85015 6.77968Z" fill="black"/>
<path d="M9.19 4.22988C9.38997 4.02998 9.69998 4.02998 9.89996 4.22988L10.6002 4.93007C10.8 5.13005 10.8 5.44007 10.6002 5.64004L8.82965 7.40957L7.42047 6.00039L9.19 4.22988Z" fill="black"/>
</svg>
