<svg width="16" height="16" viewBox="0 0 16 16" fill="none" xmlns="http://www.w3.org/2000/svg">
<path fill-rule="evenodd" clip-rule="evenodd" d="M9.66016 2C10.1901 2.00005 10.6904 2.20989 11.0703 2.58984L13.4102 4.92969C13.7901 5.29965 14 5.8099 14 6.33984V9.65039C13.9999 10.1801 13.7899 10.6797 13.4102 11.0596L11.0703 13.4004C10.7004 13.7803 10.1901 13.9902 9.66016 13.9902H6.34961C5.81994 13.9901 5.32029 13.78 4.94043 13.4004L2.59961 11.0596C2.21996 10.6897 2.00987 10.1801 2.00977 9.65039V6.33984C2.00981 5.80991 2.21966 5.30965 2.59961 4.92969L4.94043 2.58984C5.31032 2.21012 5.81988 2.0001 6.34961 2H9.66016ZM10.3701 5.63965C10.1702 5.43985 9.86013 5.43995 9.66016 5.63965L8.00977 7.29004L6.36035 5.63965C6.16047 5.43977 5.8504 5.44001 5.65039 5.63965C5.45039 5.83964 5.4504 6.14961 5.65039 6.34961L7.2998 8L5.65039 9.65039C5.4504 9.85039 5.45039 10.1604 5.65039 10.3604C5.7404 10.4601 5.88015 10.5098 6 10.5098C6.11986 10.5098 6.24966 10.4601 6.34961 10.3604L8 8.70996L9.65039 10.3604C9.7404 10.4601 9.88015 10.5098 10 10.5098C10.1199 10.5098 10.2497 10.4601 10.3496 10.3604C10.5496 10.1604 10.5496 9.85039 10.3496 9.65039H10.3701L8.71973 8L10.3701 6.34961C10.5699 6.1496 10.57 5.83956 10.3701 5.63965Z" fill="currentColor"/>
</svg>
