<svg width="16" height="16" viewBox="0 0 16 16" fill="none" xmlns="http://www.w3.org/2000/svg">
<path d="M9.41997 3.06053C10.01 2.47053 10.9501 2.47053 11.5401 3.06053C11.8199 3.34047 11.9598 3.69016 11.9698 4.04002C12.3198 4.05002 12.6802 4.19973 12.9502 4.46971C13.5402 5.05962 13.54 5.99981 12.9502 6.58983C12.3602 7.17983 11.4201 7.17983 10.8301 6.58983L6.58989 10.8301C7.17989 11.4201 7.17989 12.3602 6.58989 12.9502C5.99988 13.5401 5.05974 13.5402 4.46977 12.9502C4.18979 12.6702 4.05008 12.3197 4.04008 11.9697C3.69008 11.9597 3.32961 11.81 3.05961 11.54C2.46983 10.95 2.46976 10.0098 3.05961 9.41991C3.64955 8.82997 4.58972 8.83009 5.17973 9.41991L9.41997 5.17967C8.83023 4.58974 8.83026 3.65048 9.41997 3.06053Z" fill="currentColor"/>
<path d="M10.8204 9.41991C11.4103 8.83031 12.3496 8.83032 12.9395 9.41991C13.5295 10.0099 13.5295 10.95 12.9395 11.54C12.6695 11.8099 12.3099 11.9597 11.96 11.9697C11.95 12.3197 11.8102 12.6702 11.5303 12.9502C10.9404 13.5401 10.0002 13.54 9.4102 12.9502C8.8202 12.3602 8.8202 11.4201 9.4102 10.8301L8.70024 10.1201L10.1104 8.70994L10.8204 9.41991Z" fill="currentColor"/>
<path d="M4.46977 3.04979C5.05972 2.45989 5.99989 2.45996 6.58989 3.04979C7.17987 3.63977 7.17984 4.5799 6.58989 5.16991L7.29985 5.87987L5.88969 7.29002L5.17973 6.58006C4.58972 7.16996 3.64958 7.17003 3.05961 6.58006C2.46981 5.99009 2.46978 5.0499 3.05961 4.45994C3.32961 4.18994 3.69008 4.04026 4.04008 4.03026C4.05008 3.68026 4.18977 3.32979 4.46977 3.04979Z" fill="currentColor"/>
</svg>
