<svg width="16" height="16" viewBox="0 0 16 16" fill="none" xmlns="http://www.w3.org/2000/svg">
<path fill-rule="evenodd" clip-rule="evenodd" d="M8 1.5C8.28 1.5 8.5 1.72 8.5 2V2.5H9C9.28 2.5 9.5 2.72 9.5 3C9.5 3.28 9.28 3.5 9 3.5H8.5V4.5L11 7L13.1504 4.84961C13.4605 4.5302 14 4.75038 14 5.2002V12.4902C13.9999 12.7701 13.7799 12.9902 13.5 12.9902H2.5C2.22008 12.9902 2.00012 12.7701 2 12.4902V5.2002C2 4.76038 2.52957 4.5302 2.84961 4.84961L5 7L7.5 4.5V3.5H7C6.72 3.5 6.5 3.28 6.5 3C6.5 2.72 6.72 2.5 7 2.5H7.5V2C7.5 1.72 7.72 1.5 8 1.5ZM3.5 9.5C3.22 9.5 3 9.72 3 10C3 10.28 3.22 10.5 3.5 10.5H12.5C12.78 10.5 13 10.28 13 10C13 9.72 12.78 9.5 12.5 9.5H3.5Z" fill="currentColor"/>
</svg>
