<svg width="16" height="16" viewBox="0 0 16 16" fill="none" xmlns="http://www.w3.org/2000/svg">
<path d="M12.5303 10.6396C12.7301 10.5101 12.9997 10.6401 13 10.8896V12.5098C13 13.3398 10.76 14.0098 8 14.0098C5.24 14.0098 3 13.3398 3 12.5098V10.8896C3.00029 10.6401 3.25991 10.5101 3.46973 10.6396C4.26973 11.1496 6 11.5 8 11.5C10 11.5 11.7303 11.1496 12.5303 10.6396Z" fill="black"/>
<path d="M12.5303 7.13965C12.7301 7.01013 12.9997 7.14008 13 7.38965V9.00977C13 9.83977 10.76 10.5098 8 10.5098C5.24 10.5098 3 9.83977 3 9.00977V7.38965C3.00029 7.14007 3.25991 7.01011 3.46973 7.13965C4.26973 7.64965 6 8 8 8C10 8 11.7303 7.64965 12.5303 7.13965Z" fill="black"/>
<path fill-rule="evenodd" clip-rule="evenodd" d="M8 2C10.76 2 13 2.67 13 3.5V5.5C13 6.33 10.76 7 8 7C5.24 7 3 6.33 3 5.5V3.5C3 2.67 5.24 2 8 2ZM11.9902 3.88965C11.9002 3.62987 11.6202 3.4805 11.3604 3.57031C10.8604 3.73031 9.75977 4 8.00977 4C6.26016 3.99998 5.16024 3.73031 4.66016 3.57031C4.53203 3.52596 4.3962 3.53905 4.28223 3.5957C4.24022 3.61744 4.20093 3.64514 4.16602 3.67773C4.16058 3.68273 4.1556 3.68812 4.15039 3.69336C4.11565 3.72867 4.08614 3.76957 4.0625 3.81445C4.05021 3.83853 4.03845 3.86315 4.03027 3.88965C3.94033 4.14948 4.08991 4.43932 4.34961 4.51953C5.02961 4.73953 6.22 5 8 5C9.78 5 10.9704 4.73953 11.6504 4.51953H11.6699C11.9299 4.4295 12.0702 4.14962 11.9902 3.88965Z" fill="black"/>
</svg>
