<svg width="16" height="16" viewBox="0 0 16 16" fill="none" xmlns="http://www.w3.org/2000/svg">
<path fill-rule="evenodd" clip-rule="evenodd" d="M8 2C11.31 2 14 4.69 14 8C14 11.31 11.31 14 8 14C4.69 14 2 11.31 2 8C2 4.69 4.69 2 8 2ZM8.34961 9.65039C8.20961 9.51039 7.99957 9.46004 7.80957 9.54004C7.7497 9.56008 7.6903 9.6005 7.65039 9.65039C7.55039 9.74039 7.5 9.87 7.5 10C7.5 10.13 7.55039 10.2596 7.65039 10.3496C7.6903 10.3995 7.7497 10.4399 7.80957 10.46C7.86957 10.49 7.94 10.5 8 10.5C8.13 10.5 8.25961 10.4496 8.34961 10.3496C8.44961 10.2596 8.5 10.13 8.5 10C8.5 9.94 8.48996 9.86957 8.45996 9.80957C8.43992 9.7497 8.3995 9.6903 8.34961 9.65039ZM6 7.5C5.72 7.5 5.5 7.72 5.5 8C5.5 8.28 5.72 8.5 6 8.5H10C10.28 8.5 10.5 8.28 10.5 8C10.5 7.72 10.28 7.5 10 7.5H6ZM8.34961 5.65039C8.20961 5.51039 7.99957 5.46004 7.80957 5.54004C7.7497 5.56008 7.6903 5.6005 7.65039 5.65039C7.6005 5.6903 7.56008 5.7497 7.54004 5.80957C7.50004 5.86957 7.5 5.94 7.5 6C7.5 6.07 7.51004 6.13043 7.54004 6.19043C7.56008 6.2503 7.6005 6.3097 7.65039 6.34961C7.6903 6.3995 7.7497 6.43992 7.80957 6.45996C7.86957 6.48996 7.93 6.5 8 6.5C8.07 6.5 8.13043 6.48996 8.19043 6.45996C8.2503 6.43992 8.3097 6.3995 8.34961 6.34961C8.3995 6.3097 8.43992 6.2503 8.45996 6.19043C8.49996 6.13043 8.5 6.07 8.5 6C8.5 5.87 8.44961 5.74039 8.34961 5.65039Z" fill="currentColor"/>
</svg>
