<svg width="16" height="16" viewBox="0 0 16 16" fill="none" xmlns="http://www.w3.org/2000/svg">
<path d="M2.40042 4.3896C3.44046 2.96004 5.29016 2.62997 6.70999 3.37983C6.86995 3.45981 6.9496 3.66981 6.88967 3.83979L6.12014 6.00971C6.00014 6.33971 6.12042 6.6996 6.40042 6.8896L7.70999 7.79975C7.88999 7.91975 7.99026 8.12003 7.99026 8.33003V9.96968C7.99026 10.2496 8.35968 10.3599 8.50979 10.1103L9.66018 8.16987C9.85002 7.85989 9.76946 7.45037 9.47952 7.23042L8.00003 6.1103C7.78009 5.94035 7.74988 5.62011 7.92971 5.4101C8.40961 4.86023 9.27959 3.86048 9.67971 3.40034C9.82971 3.23034 10.03 3.11026 10.25 3.07026C11.47 2.84026 12.7904 3.27987 13.6104 4.41987V4.4101C14.5802 5.76009 14.3496 7.64056 13.1797 8.8105L8.70022 13.29C8.31028 13.6799 7.68024 13.68 6.90042 12.9003L2.8096 8.8105C1.6296 7.6305 1.41042 5.7396 2.40042 4.3896Z" fill="black"/>
</svg>
