<svg width="16" height="16" viewBox="0 0 16 16" fill="none" xmlns="http://www.w3.org/2000/svg">
<path fill-rule="evenodd" clip-rule="evenodd" d="M11.9096 3.03027C12.4995 3.00028 13 3.48992 12.9701 4.08984C12.6201 11.9998 8.39963 12 6.23963 12H4.69959L3.34998 13.3496C3.26009 13.4495 3.12028 13.4999 3.00037 13.5C2.88037 13.5 2.74979 13.4496 2.64979 13.3496C2.45009 13.1496 2.44989 12.8395 2.64979 12.6396L4.00037 11.29V9.75C4.00037 7.59003 3.99992 3.36964 11.9096 3.01953V3.03027ZM11.3597 4.63965C11.1598 4.43996 10.8497 4.43983 10.6498 4.63965L5.64979 9.63965C5.44989 9.83955 5.45009 10.1496 5.64979 10.3496C5.73979 10.4496 5.88037 10.5 6.00037 10.5C6.12026 10.4999 6.2501 10.4495 6.34998 10.3496L11.35 5.34961H11.3597C11.5596 5.14961 11.5597 4.83961 11.3597 4.63965Z" fill="currentColor"/>
</svg>
