<svg width="16" height="16" viewBox="0 0 16 16" fill="none" xmlns="http://www.w3.org/2000/svg">
<path d="M10.5 9C11.3284 9 12 9.67157 12 10.5C12 11.3284 11.3284 12 10.5 12C9.67157 12 9 11.3284 9 10.5C9 9.67157 9.67157 9 10.5 9Z" fill="black"/>
<path d="M10.2285 4.35742C10.4238 4.16216 10.7413 4.16216 10.9365 4.35742L11.6436 5.06445C11.8385 5.25973 11.8387 5.57633 11.6436 5.77148L5.76758 11.6475C5.57232 11.8427 5.25483 11.8427 5.05957 11.6475L4.35254 10.9404C4.15747 10.7453 4.15767 10.4287 4.35254 10.2334L10.2285 4.35742Z" fill="black"/>
<path d="M5.5 4C6.32843 4 7 4.67157 7 5.5C7 6.32843 6.32843 7 5.5 7C4.67157 7 4 6.32843 4 5.5C4 4.67157 4.67157 4 5.5 4Z" fill="black"/>
</svg>
