<svg width="16" height="16" viewBox="0 0 16 16" fill="none" xmlns="http://www.w3.org/2000/svg">
<path d="M4.97998 7.99958C4.97998 9.10958 5.58998 10.0802 6.47998 10.6002H6.50049L5.26025 12.7496C5.12033 12.9994 4.79026 13.0901 4.55029 12.9205C3.85029 12.4305 3.24955 11.7896 2.78955 10.9996C2.33973 10.2097 2.09023 9.36968 2.01025 8.52986C1.98033 8.23991 2.23029 7.99958 2.51025 7.99958H4.97998Z" fill="black"/>
<path d="M13.4702 8.01033C13.76 8.01046 13.9999 8.24988 13.9702 8.53962L13.98 8.52986C13.83 10.2499 12.9497 11.8805 11.4497 12.9205C11.2097 13.0801 10.8797 12.9894 10.7397 12.7496L9.50049 10.6099C10.3902 10.0899 11.0004 9.12003 11.0005 8.01033H13.4702Z" fill="black"/>
<path d="M8.00049 5.99958C8.36032 5.99967 8.71061 6.10017 9.00049 6.27009C9.60015 6.62008 10.0003 7.25992 10.0005 7.99958C10.0005 8.73945 9.6003 9.38001 9.00049 9.73005C8.71061 9.89998 8.36032 9.9995 8.00049 9.99958C7.64064 9.99958 7.29041 9.89992 7.00049 9.73005C6.40049 9.38005 6.00049 8.73958 6.00049 7.99958C6.00063 7.25976 6.4006 6.62003 7.00049 6.27009C7.29042 6.1002 7.64062 5.99958 8.00049 5.99958Z" fill="black"/>
<path d="M5.47021 2.56013C7.12012 1.80022 8.95986 1.84022 10.5298 2.56013C10.7898 2.68013 10.8797 3.01033 10.7397 3.26033L9.49951 5.39997C9.05959 5.1501 8.53936 4.99958 7.99951 4.99958C7.45968 4.99967 6.93938 5.15005 6.49951 5.39997L5.26025 3.26033C5.12025 3.01033 5.21021 2.68013 5.47021 2.56013Z" fill="black"/>
</svg>
