<svg width="16" height="16" viewBox="0 0 16 16" fill="none" xmlns="http://www.w3.org/2000/svg">
<path fill-rule="evenodd" clip-rule="evenodd" d="M8 2C11.31 2 14 4.69 14 8C14 11.31 11.31 14 8 14C4.69 14 2 11.31 2 8C2 4.69 4.69 2 8 2ZM7.01953 5.5C6.78979 5.50021 6.59029 5.66012 6.53027 5.87988L5.74023 9.01953L5.36035 8.63965C5.16048 8.43977 4.8504 8.44002 4.65039 8.63965C4.45039 8.83965 4.45039 9.14961 4.65039 9.34961L5.65039 10.3496C5.74039 10.4496 5.87 10.5 6 10.5C6.03993 10.5 6.08992 10.4904 6.12988 10.4805C6.29988 10.4305 6.44047 10.2901 6.48047 10.1201L7.38965 6.5H11.0195C11.2995 6.5 11.5195 6.28 11.5195 6C11.5195 5.72 11.2995 5.5 11.0195 5.5H7.01953Z" fill="currentColor"/>
</svg>
