<svg width="16" height="16" viewBox="0 0 16 16" fill="none" xmlns="http://www.w3.org/2000/svg">
<path d="M13 8.00002C13 8.80002 12.93 9.58002 12.79 10.33C12.56 11.59 11.58 12.56 10.33 12.79C9.57 12.93 8.79 13 8 13C7.21 13 6.42 12.93 5.67 12.79C4.42 12.56 3.44001 11.59 3.21001 10.33C3.07001 9.57002 3 8.79002 3 7.99002C3 7.19002 3.07001 6.41002 3.21001 5.65002C3.44001 4.40002 4.41 3.43002 5.66 3.20002C6.42 3.06002 7.2 2.99002 8 2.99002C8.8 2.99002 9.58 3.06002 10.34 3.20002C11.59 3.43002 12.57 4.41002 12.8 5.66002C12.94 6.42002 13.01 7.19002 13.01 7.99002L13 8.00002Z" fill="black"/>
</svg>
