<svg width="16" height="16" viewBox="0 0 16 16" fill="none" xmlns="http://www.w3.org/2000/svg">
<path d="M12 3H6.62C6.22 3 5.84 3.16 5.56 3.44L3.44 5.56C3.16 5.84 3 6.22 3 6.62V12C3 12.55 3.45 13 4 13H9.38C9.78 13 10.16 12.84 10.44 12.56L12.56 10.44C12.84 10.16 13 9.78 13 9.38V4C13 3.45 12.55 3 12 3ZM11.85 4.85L10.5 6.2V10.99C10.5 11.27 10.28 11.49 10 11.49C9.72 11.49 9.5 11.27 9.5 10.99V6.49H5C4.72 6.49 4.5 6.27 4.5 5.99C4.5 5.71 4.72 5.49 5 5.49H9.79L11.14 4.14C11.34 3.94 11.65 3.94 11.85 4.14C12.05 4.34 12.05 4.65 11.85 4.85Z" fill="currentColor"/>
</svg>
