<svg width="16" height="16" viewBox="0 0 16 16" fill="none" xmlns="http://www.w3.org/2000/svg">
<path d="M7.49 2.31001L3.49 4.71001C3.19 4.89001 3 5.22001 3 5.57001V10.44C3 10.79 3.18 11.12 3.49 11.3L7.49 13.7C7.81 13.89 8.2 13.89 8.52 13.7L12.52 11.3C12.82 11.12 13.01 10.79 13.01 10.44V5.57001C13.01 5.22001 12.83 4.89001 12.52 4.71001L8.52 2.31001C8.2 2.12001 7.81 2.12001 7.49 2.31001ZM11.76 6.33001L8.5 8.28001V12.26C8.5 12.54 8.28 12.76 8 12.76C7.72 12.76 7.5 12.54 7.5 12.26V8.28001L4.24 6.33001C4 6.19001 3.93 5.88001 4.07 5.64001C4.21 5.40001 4.52 5.33001 4.76 5.47001L8 7.42001L11.24 5.47001C11.48 5.33001 11.78 5.40001 11.93 5.64001C12.07 5.88001 12 6.18001 11.76 6.33001Z" fill="black"/>
</svg>
