<svg width="16" height="16" viewBox="0 0 16 16" fill="none" xmlns="http://www.w3.org/2000/svg">
<path fill-rule="evenodd" clip-rule="evenodd" d="M7.62012 2.07969C7.87007 2.02972 8.14045 2.0297 8.40039 2.07969L12.2002 2.84043H12.2305C12.6902 2.93064 13.0303 3.34013 13.0303 3.81992V8.16953C13.0303 9.92953 12.1096 11.5596 10.5996 12.4596L8.54004 13.69C8.22004 13.88 7.82976 13.88 7.50977 13.69L5.4502 12.4596C3.94022 11.5496 3.01953 9.92952 3.01953 8.16953V3.81992C3.01955 3.33995 3.35033 2.93043 3.82031 2.84043L7.62012 2.07969ZM7 6.49961C6.72013 6.49962 6.50019 6.71979 6.5 6.99961C6.5 7.27961 6.72001 7.4996 7 7.49961H7.5V9.49961H7C6.72013 9.49962 6.50019 9.71979 6.5 9.99961C6.5 10.2796 6.72001 10.4996 7 10.4996H9C9.28 10.4996 9.5 10.2796 9.5 9.99961C9.49981 9.71978 9.27988 9.49961 9 9.49961H8.5V6.99961C8.49981 6.71978 8.27988 6.49961 8 6.49961H7ZM8 4.24961C7.59013 4.24962 7.2502 4.58978 7.25 4.99961C7.25 5.40961 7.59001 5.7496 8 5.74961C8.41 5.74961 8.75 5.40961 8.75 4.99961C8.7498 4.58977 8.40988 4.24961 8 4.24961Z" fill="black"/>
</svg>
