<svg width="16" height="16" viewBox="0 0 16 16" fill="none" xmlns="http://www.w3.org/2000/svg">
<path d="M12.2 2.75L8.84 2.08C8.29 1.97 7.71 1.97 7.16 2.08L3.79999 2.75C3.32999 2.84 3 3.25 3 3.73V8.33C3 10.09 3.91999 11.71 5.42999 12.62L7.48999 13.85C7.80999 14.04 8.19999 14.04 8.51999 13.85L10.58 12.62C12.09 11.72 13.01 10.09 13.01 8.33V3.73C13.01 3.25 12.67 2.84 12.21 2.75H12.2ZM8 11.25C7.59 11.25 7.25 10.91 7.25 10.5C7.25 10.09 7.59 9.75 8 9.75C8.41 9.75 8.75 10.09 8.75 10.5C8.75 10.91 8.41 11.25 8 11.25ZM10 6.28C9.99 7 9.51001 7.66 8.79001 7.96L8.54001 8.06L8.5 8.49C8.5 8.77 8.28 8.99 8 8.99C7.72 8.99 7.5 8.77 7.5 8.49V8.12C7.5 7.69 7.76 7.3 8.16 7.13L8.41 7.03C8.76 6.88 9 6.57 9 6.25C9 6.25 9 6.23 9 6.22C9 5.68 8.54 5.24 8 5.24C7.46 5.24 7 5.69 7 6.24C7 6.52 6.78 6.74 6.5 6.74C6.22 6.74 6 6.52 6 6.24C6 5.14 6.9 4.24 8 4.24C9.1 4.24 10 5.14 10 6.24C10 6.25 10 6.26 10 6.28Z" fill="currentColor"/>
</svg>
