<svg width="16" height="16" viewBox="0 0 16 16" fill="none" xmlns="http://www.w3.org/2000/svg">
<path fill-rule="evenodd" clip-rule="evenodd" d="M8 2C11.31 2 14 4.69 14 8C14 11.31 11.31 14 8 14C4.69 14 2 11.31 2 8C2 4.69 4.69 2 8 2ZM10.4404 5.76953C10.3204 5.52968 10.0195 5.42984 9.76953 5.5498L5.76953 7.5498C5.5997 7.63984 5.49023 7.81011 5.49023 8C5.49023 8.18988 5.59971 8.37012 5.76953 8.4502L9.76953 10.4502C9.83953 10.4802 9.91023 10.5 9.99023 10.5C10.1801 10.4999 10.3505 10.3997 10.4404 10.2197C10.5701 9.9698 10.4696 9.66974 10.2197 9.5498V9.54004L7.11035 7.99023L10.2197 6.44043C10.4597 6.32043 10.5604 6.01953 10.4404 5.76953Z" fill="black"/>
</svg>
