<svg width="16" height="16" viewBox="0 0 16 16" fill="none" xmlns="http://www.w3.org/2000/svg">
<path d="M8 2C4.69 2 2 4.69 2 8C2 11.31 4.69 14 8 14C11.31 14 14 11.31 14 8C14 4.69 11.31 2 8 2ZM10 9.5C10.28 9.5 10.5 9.72 10.5 10C10.5 10.28 10.28 10.5 10 10.5C9.17 10.5 8.5 9.83 8.5 9V6.5H7.5V7C7.5 8.75 7.24 9.51 6.34 10.36C6.24 10.45 6.12 10.5 6 10.5C5.87 10.5 5.74001 10.45 5.64001 10.34C5.45001 10.14 5.46 9.82 5.66 9.63C6.29 9.03 6.5 8.56 6.5 6.99V6.49H6C5.72 6.49 5.5 6.27 5.5 5.99C5.5 5.71 5.72 5.49 6 5.49H10C10.28 5.49 10.5 5.71 10.5 5.99C10.5 6.27 10.28 6.49 10 6.49H9.5V8.99C9.5 9.27 9.72 9.49 10 9.49V9.5Z" fill="black"/>
</svg>
