<svg width="16" height="16" viewBox="0 0 16 16" fill="none" xmlns="http://www.w3.org/2000/svg">
<path d="M12.2 2.75L8.84 2.08C8.29 1.97 7.71 1.97 7.16 2.08L3.79999 2.75C3.32999 2.84 3 3.25 3 3.73V8.33C3 10.09 3.91999 11.71 5.42999 12.62L7.48999 13.85C7.80999 14.04 8.19999 14.04 8.51999 13.85L10.58 12.62C12.09 11.72 13.01 10.09 13.01 8.33V3.73C13.01 3.25 12.67 2.84 12.21 2.75H12.2ZM11.5 8H8.5V12C8.5 12.28 8.28 12.5 8 12.5C7.72 12.5 7.5 12.28 7.5 12V8H4.5C4.22 8 4 7.78 4 7.5C4 7.22 4.22 7 4.5 7H7.5V3.5C7.5 3.22 7.72 3 8 3C8.28 3 8.5 3.22 8.5 3.5V7H11.5C11.78 7 12 7.22 12 7.5C12 7.78 11.78 8 11.5 8Z" fill="black"/>
</svg>
