<svg width="16" height="16" viewBox="0 0 16 16" fill="none" xmlns="http://www.w3.org/2000/svg">
<path d="M8 2C4.69 2 2 4.69 2 8C2 11.31 4.69 14 8 14C11.31 14 14 11.31 14 8C14 4.69 11.31 2 8 2ZM11 6.5H7.39001L6.48001 10.12C6.44001 10.29 6.3 10.43 6.13 10.48C6.09 10.49 6.04 10.5 6 10.5C5.87 10.5 5.73999 10.45 5.64999 10.35L4.64999 9.35C4.44999 9.15 4.44999 8.84 4.64999 8.64C4.84999 8.44 5.15999 8.44 5.35999 8.64L5.73999 9.02L6.53 5.88C6.59 5.66 6.78999 5.5 7.01999 5.5H11.02C11.3 5.5 11.52 5.72 11.52 6C11.52 6.28 11.3 6.5 11.02 6.5H11Z" fill="currentColor"/>
</svg>
