<svg width="16" height="16" viewBox="0 0 16 16" fill="none" xmlns="http://www.w3.org/2000/svg">
<path d="M10.5 11C10.7761 11 11 11.2239 11 11.5V12.5C11 12.7761 10.7761 13 10.5 13H5.5C5.22386 13 5 12.7761 5 12.5V11.5C5 11.2239 5.22386 11 5.5 11H10.5Z" fill="black"/>
<path d="M8.5 3C8.78 3 9 3.22 9 3.5V5H10.5C10.78 5 11 5.22 11 5.5V6.5C11 6.78 10.78 7 10.5 7H9V8.5C9 8.78 8.78 9 8.5 9H7.5C7.22 9 7 8.78 7 8.5V7H5.5C5.22 7 5 6.78 5 6.5V5.5C5 5.22 5.22 5 5.5 5H7V3.5C7 3.22 7.22 3 7.5 3H8.5Z" fill="black"/>
</svg>
