<svg width="16" height="16" viewBox="0 0 16 16" fill="none" xmlns="http://www.w3.org/2000/svg">
<path d="M10 1.99999H9.49003C9.30003 1.99999 9.13003 2.08 9.01003 2.23L8.24003 3.19999C8.10003 3.37999 8.09003 3.62999 8.24003 3.80999L9.22003 5.12C9.38003 5.33 9.34003 5.63 9.14003 5.8L7.64003 7.05C7.42003 7.23 7.12003 6.97 7.27003 6.73L7.84003 5.77999C7.94003 5.60999 7.93003 5.38999 7.81003 5.21999L6.74003 3.8C6.60003 3.62 6.61003 3.36999 6.74003 3.18999L7.37003 2.39999C7.50003 2.22999 7.38003 1.98999 7.17003 1.98999H5.99003C5.44003 1.98999 4.99003 2.43999 4.99003 2.98999V6.98999C4.99003 8.47999 6.07003 9.70999 7.49003 9.93999V12.99H5.52003C5.24003 12.99 4.98003 13.22 4.99003 13.5C5.00003 13.78 5.21003 13.99 5.49003 13.99H10.46C10.74 13.99 11 13.76 10.99 13.48C10.98 13.2 10.77 12.99 10.49 12.99H8.49003V9.93999C9.91003 9.70999 10.99 8.47999 10.99 6.98999V2.98999C10.99 2.43999 10.54 1.98999 9.99003 1.98999L10 1.99999Z" fill="currentColor"/>
</svg>
