<svg width="16" height="16" viewBox="0 0 16 16" fill="none" xmlns="http://www.w3.org/2000/svg">
<path d="M8 2C4.69 2 2 4.69 2 8C2 11.31 4.69 14 8 14C11.31 14 14 11.31 14 8C14 4.69 11.31 2 8 2ZM8 6.5C8.28 6.5 8.5 6.72 8.5 7C8.5 7.28 8.28 7.5 8 7.5H6.53C6.49 7.83 6.49 8.17 6.53 8.5H8C8.28 8.5 8.5 8.72 8.5 9C8.5 9.28 8.28 9.5 8 9.5H6.82001C6.88001 9.62 6.93999 9.74 7.00999 9.84C7.56999 10.69 8.43999 10.69 9.00999 9.84C9.15999 9.61 9.48 9.55 9.7 9.7C9.93 9.85 9.99 10.16 9.84 10.39C9.37 11.1 8.71999 11.49 8.00999 11.49C7.29999 11.49 6.64999 11.1 6.17999 10.39C5.99999 10.12 5.85999 9.81 5.75999 9.49H5.00999C4.72999 9.49 4.50999 9.27 4.50999 8.99C4.50999 8.71 4.72999 8.49 5.00999 8.49H5.53999C5.50999 8.16 5.50999 7.82 5.53999 7.49H5.00999C4.72999 7.49 4.50999 7.27 4.50999 6.99C4.50999 6.71 4.72999 6.49 5.00999 6.49H5.75999C5.86999 6.17 5.99999 5.86 6.17999 5.59C7.12999 4.17 8.89 4.17 9.84 5.59C9.99 5.82 9.93 6.13 9.7 6.28C9.47 6.43 9.15999 6.37 9.00999 6.14C8.44999 5.29 7.57999 5.29 7.00999 6.14C6.93999 6.25 6.88001 6.36 6.82001 6.48H8V6.5Z" fill="black"/>
</svg>
