<svg width="16" height="16" viewBox="0 0 16 16" fill="none" xmlns="http://www.w3.org/2000/svg">
<path fill-rule="evenodd" clip-rule="evenodd" d="M8 2C11.31 2 14 4.69 14 8C14 11.31 11.31 14 8 14C4.69 14 2 11.31 2 8C2 4.69 4.69 2 8 2ZM10.3604 4.63965C10.1605 4.43977 9.8504 4.44002 9.65039 4.63965L8 6.29004L6.34961 4.63965C6.1496 4.44002 5.83952 4.43977 5.63965 4.63965C5.43977 4.83952 5.44002 5.1496 5.63965 5.34961L7.29004 7H6C5.72 7 5.5 7.22 5.5 7.5C5.5 7.78 5.72 8 6 8H7.5V9H6C5.72 9 5.5 9.22 5.5 9.5C5.5 9.78 5.72 10 6 10H7.5V11C7.5 11.28 7.72 11.5 8 11.5C8.28 11.5 8.5 11.28 8.5 11V10H10C10.28 10 10.5 9.78 10.5 9.5C10.5 9.22 10.28 9 10 9H8.5V8H10C10.28 8 10.5 7.78 10.5 7.5C10.5 7.22 10.28 7 10 7H8.70996L10.3604 5.34961C10.56 5.1496 10.5602 4.83952 10.3604 4.63965Z" fill="black"/>
</svg>
