<svg width="16" height="16" viewBox="0 0 16 16" fill="none" xmlns="http://www.w3.org/2000/svg">
<path d="M13.4303 4.22988C13.6303 4.03007 13.9403 4.02994 14.1402 4.22988L14.8502 4.93984C15.0501 5.13978 15.05 5.44979 14.8502 5.6498L9.19003 11.31C8.99003 11.51 8.68007 11.51 8.48007 11.31L5.38046 8.21035C5.18046 8.01035 5.18046 7.70039 5.38046 7.50039L6.09042 6.79043C6.29042 6.59043 6.60038 6.59043 6.80038 6.79043L8.84042 8.83047L13.44 4.22988H13.4303Z" fill="currentColor"/>
<path d="M1.85018 6.77968C2.05017 6.57997 2.36023 6.57985 2.56015 6.77968H2.55038L6.01034 10.2396L4.94979 11.3002C4.74979 11.5 4.43977 11.5001 4.23983 11.3002L1.14022 8.19961C0.940306 7.9996 0.940251 7.68962 1.14022 7.48964L1.85018 6.77968Z" fill="currentColor"/>
<path d="M9.19003 4.22988C9.39 4.02998 9.70001 4.02998 9.89999 4.22988L10.6002 4.93007C10.8 5.13005 10.8001 5.44007 10.6002 5.64004L8.82968 7.40957L7.4205 6.00039L9.19003 4.22988Z" fill="currentColor"/>
</svg>
