<svg width="16" height="16" viewBox="0 0 16 16" fill="none" xmlns="http://www.w3.org/2000/svg">
<path fill-rule="evenodd" clip-rule="evenodd" d="M8 2C11.31 2 14 4.69 14 8C14 11.31 11.31 14 8 14C4.69 14 2 11.31 2 8C2 4.69 4.69 2 8 2ZM10.4902 5.54004C9.17024 4.22004 6.86004 4.22004 5.54004 5.54004C4.8701 6.19998 4.50983 7.07985 4.50977 8.00977C4.50977 8.93977 4.88004 9.82047 5.54004 10.4805C6.19996 11.1502 7.07997 11.5097 8.00977 11.5098C8.93977 11.5098 9.82047 11.1405 10.4805 10.4805C10.6805 10.2805 10.6805 9.95953 10.4805 9.76953C10.2805 9.56953 9.96953 9.56953 9.76953 9.76953C8.81953 10.7095 7.17047 10.7095 6.23047 9.76953L6.24023 9.79004C5.77023 9.32004 5.50977 8.68953 5.50977 8.01953C5.50989 7.34971 5.77034 6.71989 6.24023 6.25C7.19025 5.31011 8.84031 5.31004 9.78027 6.25C9.98028 6.44986 10.2903 6.44995 10.4902 6.25C10.6901 6.05004 10.6901 5.74001 10.4902 5.54004Z" fill="black"/>
</svg>
