<svg width="16" height="16" viewBox="0 0 16 16" fill="none" xmlns="http://www.w3.org/2000/svg">
<path d="M13 8.5V7.5C13 7.22386 12.7761 7 12.5 7L3.5 7C3.22386 7 3 7.22386 3 7.5V8.5C3 8.77614 3.22386 9 3.5 9H12.5C12.7761 9 13 8.77614 13 8.5Z" fill="currentColor"/>
<path d="M8 6C8.82843 6 9.5 5.32843 9.5 4.5C9.5 3.67157 8.82843 3 8 3C7.17157 3 6.5 3.67157 6.5 4.5C6.5 5.32843 7.17157 6 8 6Z" fill="currentColor"/>
<path d="M8 13C8.82843 13 9.5 12.3284 9.5 11.5C9.5 10.6716 8.82843 10 8 10C7.17157 10 6.5 10.6716 6.5 11.5C6.5 12.3284 7.17157 13 8 13Z" fill="currentColor"/>
</svg>
