<svg width="16" height="16" viewBox="0 0 16 16" fill="none" xmlns="http://www.w3.org/2000/svg">
<path d="M11.89 11.18L11.18 11.89C10.98 12.09 10.67 12.09 10.47 11.89L8.00002 9.41999L5.53002 11.89C5.33002 12.09 5.02002 12.09 4.82002 11.89L4.11002 11.18C3.91002 10.98 3.91002 10.67 4.11002 10.47L6.58002 7.99999L4.11002 5.52999C3.91002 5.32999 3.91002 5.01999 4.11002 4.81999L4.82002 4.10999C5.02002 3.90999 5.33002 3.90999 5.53002 4.10999L8.00002 6.57999L10.47 4.10999C10.67 3.90999 10.98 3.90999 11.18 4.10999L11.89 4.81999C12.09 5.01999 12.09 5.32999 11.89 5.52999L9.42002 7.99999L11.89 10.47C12.09 10.67 12.09 10.98 11.89 11.18Z" fill="currentColor"/>
</svg>
