<svg width="16" height="16" viewBox="0 0 16 16" fill="none" xmlns="http://www.w3.org/2000/svg">
<path fill-rule="evenodd" clip-rule="evenodd" d="M8 2C11.31 2 14 4.69 14 8C14 11.31 11.31 14 8 14C4.69 14 2 11.31 2 8C2 4.69 4.69 2 8 2ZM8 10.25C7.59 10.25 7.25 10.59 7.25 11C7.25 11.41 7.59 11.75 8 11.75C8.41 11.75 8.75 11.41 8.75 11C8.75 10.59 8.41 10.25 8 10.25ZM8 4.74023C6.9 4.74023 6 5.64023 6 6.74023C6.00012 7.02012 6.22008 7.24023 6.5 7.24023C6.77992 7.24023 6.99988 7.02012 7 6.74023C7 6.19023 7.46 5.74023 8 5.74023C8.53991 5.74023 8.99984 6.17985 9 6.71973V6.75C9 7.06999 8.76014 7.38027 8.41016 7.53027L8.16016 7.62988C7.76016 7.79988 7.5 8.19012 7.5 8.62012V8.99023C7.50012 9.27012 7.72008 9.49023 8 9.49023C8.27992 9.49023 8.49988 9.27012 8.5 8.99023L8.54004 8.55957L8.79004 8.45996C9.50993 8.15999 9.98988 7.50015 10 6.78027V6.74023C10 5.64023 9.1 4.74023 8 4.74023Z" fill="currentColor"/>
</svg>
