<svg width="16" height="16" viewBox="0 0 16 16" fill="none" xmlns="http://www.w3.org/2000/svg">
<path d="M6.83997 9H8.82996L9.15997 7H7.16998L6.83997 9Z" fill="black"/>
<path d="M8 2C4.69 2 2 4.69 2 8C2 11.31 4.69 14 8 14C11.31 14 14 11.31 14 8C14 4.69 11.31 2 8 2ZM11 7H10.17L9.84 9H10.5C10.78 9 11 9.22 11 9.5C11 9.78 10.78 10 10.5 10H9.67001L9.48999 11.08C9.44999 11.32 9.24 11.5 9 11.5C8.97 11.5 8.94001 11.5 8.92001 11.5C8.65001 11.45 8.46001 11.2 8.51001 10.92L8.66 10H6.67001L6.48999 11.08C6.44999 11.32 6.24 11.5 6 11.5C5.97 11.5 5.94001 11.5 5.92001 11.5C5.65001 11.45 5.46001 11.2 5.51001 10.92L5.66 10H5C4.72 10 4.5 9.78 4.5 9.5C4.5 9.22 4.72 9 5 9H5.82999L6.16 7H5.5C5.22 7 5 6.78 5 6.5C5 6.22 5.22 6 5.5 6H6.32999L6.51001 4.92C6.56001 4.65 6.82 4.46 7.09 4.51C7.36 4.56 7.55 4.81 7.5 5.09L7.35001 6.01H9.34L9.51999 4.93C9.56999 4.66 9.83001 4.47 10.1 4.52C10.37 4.57 10.56 4.82 10.51 5.1L10.36 6.02H11.02C11.3 6.02 11.52 6.24 11.52 6.52C11.52 6.8 11.3 7.02 11.02 7.02L11 7Z" fill="black"/>
</svg>
