<svg width="16" height="16" viewBox="0 0 16 16" fill="none" xmlns="http://www.w3.org/2000/svg">
<path d="M10.4701 4.10976C10.6701 3.90995 10.9801 3.9099 11.1801 4.10976L11.89 4.81972C12.09 5.01967 12.0899 5.32968 11.89 5.52968L9.42031 8.00039L11.89 10.4701C12.09 10.6701 12.09 10.9801 11.89 11.1801L11.1801 11.89C10.9801 12.09 10.6701 12.09 10.4701 11.89L8.00039 9.42031L5.52968 11.89C5.32968 12.0898 5.01966 12.09 4.81972 11.89L4.10976 11.1801C3.90991 10.9801 3.90998 10.6701 4.10976 10.4701L6.58047 8.00039L4.10976 5.52968C3.91004 5.32967 3.90986 5.01963 4.10976 4.81972L4.81972 4.10976C5.01963 3.90986 5.32967 3.91004 5.52968 4.10976L8.00039 6.58047L10.4701 4.10976Z" fill="black"/>
</svg>
