<svg width="16" height="16" viewBox="0 0 16 16" fill="none" xmlns="http://www.w3.org/2000/svg">
<path d="M11.3496 3C11.6258 3 11.8496 3.22386 11.8496 3.5V4.5C11.8496 4.77614 11.6258 5 11.3496 5H6.83008L9.47656 7.64648C9.67172 7.84173 9.67172 8.15827 9.47656 8.35352L6.83008 11H11.3496C11.6258 11 11.8496 11.2239 11.8496 11.5V12.5C11.8496 12.7761 11.6258 13 11.3496 13H4.5C4.22386 13 4 12.7761 4 12.5V11.4141C4.00004 11.1489 4.10547 10.8945 4.29297 10.707L7 8L4.29297 5.29297C4.10547 5.10547 4.00004 4.8511 4 4.58594V3.5C4 3.22386 4.22386 3 4.5 3H11.3496Z" fill="currentColor"/>
</svg>
