<svg width="16" height="16" viewBox="0 0 16 16" fill="none" xmlns="http://www.w3.org/2000/svg">
<path d="M8 2C4.69 2 2 4.69 2 8C2 11.31 4.69 14 8 14C11.31 14 14 11.31 14 8C14 4.69 11.31 2 8 2ZM10.35 9.65C10.55 9.85 10.55 10.16 10.35 10.36C10.25 10.46 10.12 10.51 10 10.51C9.88 10.51 9.74 10.46 9.65 10.36L8 8.71L6.35 10.36C6.25 10.46 6.12 10.51 6 10.51C5.88 10.51 5.74 10.46 5.65 10.36C5.45 10.16 5.45 9.85 5.65 9.65L7.3 8L5.65 6.35C5.45 6.15 5.45 5.84 5.65 5.64C5.85 5.44 6.16 5.44 6.36 5.64L8.01 7.29L9.66 5.64C9.86 5.44 10.17 5.44 10.37 5.64C10.57 5.84 10.57 6.15 10.37 6.35L8.72 8L10.37 9.65H10.35Z" fill="black"/>
</svg>
