<svg width="16" height="16" viewBox="0 0 16 16" fill="none" xmlns="http://www.w3.org/2000/svg">
<path fill-rule="evenodd" clip-rule="evenodd" d="M8 2C11.31 2 14 4.69 14 8C14 11.31 11.31 14 8 14C4.69 14 2 11.31 2 8C2 4.69 4.69 2 8 2ZM6.21973 5.55957C5.96981 5.42988 5.66974 5.5304 5.5498 5.78027C5.42009 6.03011 5.51986 6.33014 5.76953 6.4502L8.87988 8L5.76953 9.5498C5.52984 9.66986 5.43008 9.96989 5.5498 10.2197C5.6398 10.3997 5.82 10.5 6 10.5C6.0699 10.5 6.1498 10.4901 6.21973 10.4502L10.2197 8.4502V8.45996C10.3897 8.36996 10.5 8.19977 10.5 8.00977C10.4999 7.81985 10.3897 7.63954 10.2197 7.55957L6.21973 5.55957Z" fill="black"/>
</svg>
