<svg width="16" height="16" viewBox="0 0 16 16" fill="none" xmlns="http://www.w3.org/2000/svg">
<path d="M11.85 4.5C11.85 4.77614 11.6261 5 11.35 5H6.83L9.47645 7.64645C9.67171 7.84171 9.67171 8.15829 9.47645 8.35355L6.83 11H11.35C11.6261 11 11.85 11.2239 11.85 11.5V12.5C11.85 12.7761 11.6261 13 11.35 13H4.5C4.22386 13 4 12.7761 4 12.5V11.4142C4 11.149 4.10536 10.8946 4.29289 10.7071L7 8L4.29289 5.29289C4.10536 5.10536 4 4.851 4 4.58579V3.5C4 3.22386 4.22386 3 4.5 3H11.35C11.6261 3 11.85 3.22386 11.85 3.5V4.5Z" fill="currentColor"/>
</svg>
