<svg width="16" height="16" viewBox="0 0 16 16" fill="none" xmlns="http://www.w3.org/2000/svg">
<path d="M8 2C4.69 2 2 4.69 2 8C2 11.31 4.69 14 8 14C11.31 14 14 11.31 14 8C14 4.69 11.31 2 8 2ZM10.22 9.55C10.47 9.67 10.57 9.97 10.44 10.22C10.35 10.4 10.18 10.5 9.99001 10.5C9.91001 10.5 9.84 10.48 9.77 10.45L5.77 8.45C5.6 8.37 5.49001 8.19 5.49001 8C5.49001 7.81 5.6 7.64 5.77 7.55L9.77 5.55C10.02 5.43 10.32 5.53 10.44 5.77C10.56 6.02 10.46 6.32 10.22 6.44L7.11 7.99L10.22 9.54V9.55Z" fill="currentColor"/>
</svg>
