<svg width="16" height="16" viewBox="0 0 16 16" fill="none" xmlns="http://www.w3.org/2000/svg">
<path d="M8 2C4.69 2 2 4.69 2 8C2 11.31 4.69 14 8 14C11.31 14 14 11.31 14 8C14 4.69 11.31 2 8 2ZM9.5 7C9.78 7 10 7.22 10 7.5C10 7.78 9.78 8 9.5 8H8.94C8.78 8.8 8.23 9.47 7.5 9.79L8.85 11.14C9.05 11.34 9.05 11.65 8.85 11.85C8.75 11.95 8.62 12 8.5 12C8.38 12 8.24 11.95 8.15 11.85L6.15 9.85C6.01 9.71 5.96 9.49 6.04 9.31C6.12 9.13 6.3 9 6.5 9C7.15 9 7.7 8.58 7.91 8H6.5C6.22 8 6 7.78 6 7.5C6 7.22 6.22 7 6.5 7H7.91C7.7 6.42 7.15 6 6.5 6C6.22 6 6 5.78 6 5.5C6 5.22 6.22 5 6.5 5H9.5C9.78 5 10 5.22 10 5.5C10 5.78 9.78 6 9.5 6H8.5C8.72 6.29 8.87 6.63 8.94 7H9.5Z" fill="currentColor"/>
</svg>
