<svg width="16" height="16" viewBox="0 0 16 16" fill="none" xmlns="http://www.w3.org/2000/svg">
<path d="M12.26 6.63C11.4 6.29 10.6099 6.41 9.95995 6.75C10.5799 6.13 10.92 5.22001 10.73 4.24001C10.52 3.14001 9.61997 2.24 8.50997 2.05C6.74997 1.74 5.21996 3.08 5.21996 4.78C5.21996 5.55 5.52997 6.25 6.03997 6.75C5.37997 6.41 4.59995 6.29 3.73995 6.63C2.87995 6.97 2.24996 7.70001 2.06996 8.58001C1.67996 10.38 3.03996 11.97 4.77996 11.97C5.71996 11.97 6.54994 11.5 7.04994 10.78L5.91997 13.29C5.76997 13.62 6.00996 14 6.37996 14H9.62996C9.98996 14 10.24 13.63 10.09 13.29L8.95995 10.78C9.45995 11.5 10.29 11.97 11.23 11.97C12.96 11.97 14.33 10.38 13.94 8.58001C13.75 7.70001 13.0999 6.96 12.2699 6.63H12.26Z" fill="currentColor"/>
</svg>
