<svg width="16" height="16" viewBox="0 0 16 16" fill="none" xmlns="http://www.w3.org/2000/svg">
<path d="M8.75 5.5C9.44 5.5 10 6.06 10 6.75C10 7.44 9.44 8 8.75 8H6.5V5.5H8.75Z" fill="currentColor"/>
<path fill-rule="evenodd" clip-rule="evenodd" d="M8 2C11.31 2 14 4.69 14 8C14 11.31 11.31 14 8 14C4.69 14 2 11.31 2 8C2 4.69 4.69 2 8 2ZM6.00977 4.50977C5.72995 4.50989 5.50989 4.72995 5.50977 5.00977V11.0098C5.50977 11.2897 5.72987 11.5096 6.00977 11.5098C6.28977 11.5098 6.50977 11.2898 6.50977 11.0098V9.00977H8.16992L9.58008 11.2695C9.67008 11.4295 9.83 11.5098 10 11.5098C10.09 11.5098 10.1798 11.4797 10.2598 11.4297C10.4997 11.2797 10.5698 10.9702 10.4199 10.7402L10.4297 10.75L9.2998 8.94043C10.2798 8.69043 11.0098 7.80977 11.0098 6.75977C11.0096 5.51987 9.99969 4.50977 8.75977 4.50977H6.00977Z" fill="currentColor"/>
</svg>
