<svg width="16" height="16" viewBox="0 0 16 16" fill="none" xmlns="http://www.w3.org/2000/svg">
<path d="M10.74 8.9C10.64 8.34 10.46 7.78 10.16 7.25C9.85999 6.73 9.46 6.29 9.02 5.92C9.39 5.81 9.77999 5.75 10.17 5.75C10.78 5.75 11.4 5.9 11.98 6.19C11.93 7.25 11.47 8.2 10.74 8.89V8.9ZM7.99999 13.09C7.10999 12.51 6.51999 11.64 6.28999 10.67C6.82999 10.87 7.39999 10.99 7.99999 10.99C8.59999 10.99 9.17999 10.87 9.70999 10.67C9.47999 11.64 8.88999 12.51 7.99999 13.09ZM4.01999 6.2C4.59999 5.91 5.21999 5.76 5.82999 5.76C6.21999 5.76 6.59999 5.82 6.97999 5.93C6.53999 6.3 6.13999 6.73 5.83999 7.26C5.53999 7.78 5.35999 8.34 5.25999 8.91C4.53999 8.22 4.07999 7.27 4.01999 6.21V6.2ZM7.99999 10C7.33999 10 6.72999 9.83 6.18999 9.55C6.21999 8.94 6.36999 8.32 6.69999 7.75C7.02999 7.18 7.47999 6.73 7.99999 6.4C8.51999 6.73 8.96999 7.18 9.29999 7.75C9.62999 8.32 9.78 8.93 9.81 9.55C9.26 9.83 8.64999 10 7.99999 10ZM7.99999 2C9.87999 2 11.46 3.31 11.88 5.07C10.59 4.6 9.18999 4.68 7.99999 5.25C6.80999 4.68 5.40999 4.6 4.11999 5.07C4.53999 3.32 6.11999 2 7.99999 2ZM2.36999 11.75C1.42999 10.12 1.77999 8.1 3.08999 6.86C3.32999 8.21 4.09999 9.38 5.18999 10.13C5.28999 11.45 5.91999 12.7 6.96999 13.58C5.23999 14.09 3.31999 13.38 2.37999 11.75H2.36999ZM13.63 11.75C12.69 13.38 10.77 14.09 9.02999 13.58C10.08 12.7 10.71 11.45 10.81 10.13C11.9 9.38 12.67 8.21 12.91 6.86C14.22 8.1 14.57 10.12 13.63 11.75Z" fill="currentColor"/>
</svg>
