<svg width="16" height="16" viewBox="0 0 16 16" fill="none" xmlns="http://www.w3.org/2000/svg">
<path fill-rule="evenodd" clip-rule="evenodd" d="M7.62012 2.07972C7.87007 2.02975 8.14045 2.02973 8.40039 2.07972L12.2002 2.84046H12.2305C12.6902 2.93067 13.0303 3.34016 13.0303 3.81995V8.16956C13.0303 9.92956 12.1096 11.5596 10.5996 12.4596L8.54004 13.6901C8.22004 13.8801 7.82976 13.8801 7.50977 13.6901L5.4502 12.4596C3.94022 11.5496 3.01953 9.92955 3.01953 8.16956V3.81995C3.01955 3.33998 3.35033 2.93046 3.82031 2.84046L7.62012 2.07972ZM7 6.49964C6.72013 6.49965 6.50019 6.71982 6.5 6.99964C6.5 7.27964 6.72001 7.49963 7 7.49964H7.5V9.49964H7C6.72013 9.49965 6.50019 9.71982 6.5 9.99964C6.5 10.2796 6.72001 10.4996 7 10.4996H9C9.28 10.4996 9.5 10.2796 9.5 9.99964C9.49981 9.71981 9.27988 9.49964 9 9.49964H8.5V6.99964C8.49981 6.71981 8.27988 6.49964 8 6.49964H7ZM8 4.24964C7.59013 4.24965 7.2502 4.58981 7.25 4.99964C7.25 5.40964 7.59001 5.74963 8 5.74964C8.41 5.74964 8.75 5.40964 8.75 4.99964C8.7498 4.5898 8.40988 4.24964 8 4.24964Z" fill="currentColor"/>
</svg>
