<svg width="16" height="16" viewBox="0 0 16 16" fill="none" xmlns="http://www.w3.org/2000/svg">
<path d="M7.99961 11.4995C8.55174 11.4995 8.99936 11.9475 8.99961 12.4995C8.99961 13.0518 8.5519 13.4995 7.99961 13.4995C7.44752 13.4993 6.99961 13.0517 6.99961 12.4995C6.99987 11.9476 7.44767 11.4997 7.99961 11.4995Z" fill="black"/>
<path d="M8.11973 2.99953C9.72973 3.05953 11.0196 4.44031 10.9996 6.05031C10.9795 7.34016 10.1595 8.41987 8.99961 8.81984V9.49953C8.99961 9.77953 8.77961 9.99953 8.49961 9.99953H7.49961C7.21982 9.9993 6.99961 9.77938 6.99961 9.49953V8.67043C6.99961 7.97043 7.4302 7.31988 8.1002 7.10988C8.7698 6.89994 8.95974 6.50024 8.98985 6.13039C9.03984 5.60047 8.70014 5.11014 8.18028 5.02004C7.66031 4.93004 7.23018 5.21997 7.06016 5.64992C6.98016 5.84992 6.79969 5.99953 6.57969 5.99953H5.53965C5.22983 5.9993 4.99042 5.71956 5.05039 5.40968C5.33052 3.99996 6.6 2.9397 8.11973 2.99953Z" fill="black"/>
</svg>
