<svg width="16" height="16" viewBox="0 0 16 16" fill="none" xmlns="http://www.w3.org/2000/svg">
<path fill-rule="evenodd" clip-rule="evenodd" d="M8 2C11.31 2 14 4.69 14 8C14 11.31 11.31 14 8 14C4.69 14 2 11.31 2 8C2 4.69 4.69 2 8 2ZM6.5 5C6.22 5 6 5.22 6 5.5C6 5.78 6.22 6 6.5 6C7.15 6 7.70016 6.42 7.91016 7H6.5C6.22 7 6 7.22 6 7.5C6 7.78 6.22 8 6.5 8H7.91016C7.70016 8.58 7.15 9 6.5 9C6.30014 9 6.12012 9.12976 6.04004 9.30957C5.96004 9.48957 6.01039 9.70961 6.15039 9.84961L8.15039 11.8496C8.24039 11.9496 8.38 12 8.5 12C8.62 12 8.74961 11.9496 8.84961 11.8496C9.04961 11.6496 9.04961 11.3396 8.84961 11.1396L7.5 9.79004C8.23 9.47004 8.78043 8.8 8.94043 8H9.5C9.78 8 10 7.78 10 7.5C10 7.22 9.78 7 9.5 7H8.94043C8.87043 6.63 8.72 6.29 8.5 6H9.5C9.78 6 10 5.78 10 5.5C10 5.22 9.78 5 9.5 5H6.5Z" fill="black"/>
</svg>
