<svg width="16" height="16" viewBox="0 0 16 16" fill="none" xmlns="http://www.w3.org/2000/svg">
<path fill-rule="evenodd" clip-rule="evenodd" d="M3.76 3.75999C6.1 1.40999 9.90047 1.40999 12.2405 3.75999C14.5903 6.1 14.5904 9.90051 12.2405 12.2405C9.90052 14.5904 6.10001 14.5903 3.76 12.2405C1.41 9.90046 1.41 6.09999 3.76 3.75999ZM4.13011 9.00022C4.30013 9.67016 4.6502 10.3103 5.17015 10.8303C6.73017 12.3901 9.27036 12.3902 10.8303 10.8303C11.3503 10.3103 11.7003 9.67019 11.8703 9.00022H4.13011ZM10.8303 5.17014C9.27031 3.61014 6.73015 3.61015 5.17015 5.17014C4.65015 5.69014 4.30011 6.33022 4.13011 7.00022H11.8703C11.7004 6.3303 11.3502 5.69011 10.8303 5.17014Z" fill="black"/>
</svg>
