<svg width="16" height="16" viewBox="0 0 16 16" fill="none" xmlns="http://www.w3.org/2000/svg">
<path fill-rule="evenodd" clip-rule="evenodd" d="M7.28952 1.69968C7.67943 1.30977 8.30965 1.30996 8.69968 1.69968L14.2895 7.28952C14.6795 7.67952 14.6795 8.30968 14.2895 8.69968L8.69968 14.2895C8.30968 14.6795 7.67952 14.6795 7.28952 14.2895L1.69968 8.69968C1.30996 8.30965 1.30977 7.67943 1.69968 7.28952L7.28952 1.69968ZM7.99948 9.99948C7.58986 9.99975 7.24975 10.3399 7.24948 10.7495C7.24948 11.1593 7.5897 11.4992 7.99948 11.4995C8.40948 11.4995 8.74948 11.1595 8.74948 10.7495C8.74922 10.3397 8.40932 9.99948 7.99948 9.99948ZM8.02975 4.74948C7.61003 4.72963 7.26982 5.07978 7.28952 5.49948L7.47018 8.49948C7.49017 8.77932 7.7197 8.99923 7.99948 8.99948C8.27948 8.99948 8.50975 8.77948 8.52975 8.49948L8.69968 5.53952C8.72944 5.13968 8.42961 4.76947 8.02975 4.74948Z" fill="black"/>
</svg>
