<svg width="16" height="16" viewBox="0 0 16 16" fill="none" xmlns="http://www.w3.org/2000/svg">
<path d="M8 7.5H9C9.28 7.5 9.5 7.28 9.5 7C9.5 6.72 9.28 6.5 9 6.5H8.5H7.5V7.5H8Z" fill="black"/>
<path d="M8 2C4.69 2 2 4.69 2 8C2 11.31 4.69 14 8 14C11.31 14 14 11.31 14 8C14 4.69 11.31 2 8 2ZM9.5 10.5H9V11C9 11.28 8.78 11.5 8.5 11.5C8.22 11.5 8 11.28 8 11V10.5H7.5V11C7.5 11.28 7.28 11.5 7 11.5C6.72 11.5 6.5 11.28 6.5 11V10.5H6C5.72 10.5 5.5 10.28 5.5 10C5.5 9.72 5.72 9.5 6 9.5H6.5V6.5H6C5.72 6.5 5.5 6.28 5.5 6C5.5 5.72 5.72 5.5 6 5.5H6.5V5C6.5 4.72 6.72 4.5 7 4.5C7.28 4.5 7.5 4.72 7.5 5V5.5H8V5C8 4.72 8.22 4.5 8.5 4.5C8.78 4.5 9 4.72 9 5V5.5C9.83 5.5 10.5 6.17 10.5 7C10.5 7.27 10.42 7.52 10.3 7.74C10.72 8.01 11 8.47 11 9C11 9.83 10.33 10.5 9.5 10.5Z" fill="black"/>
<path d="M9.5 8.5H7.5V9.5H9.5C9.78 9.5 10 9.28 10 9C10 8.72 9.78 8.5 9.5 8.5Z" fill="black"/>
</svg>
