<svg width="16" height="16" viewBox="0 0 16 16" fill="none" xmlns="http://www.w3.org/2000/svg">
<path fill-rule="evenodd" clip-rule="evenodd" d="M8 2C11.03 2 13.5 4.47 13.5 7.5V10.5C13.5 11.33 12.83 12 12 12H11.5V12.5C11.5 12.56 11.4897 12.6199 11.4697 12.6699C11.3897 13.4198 10.7503 13.9998 9.98047 14C9.59047 14 9.23973 13.8601 8.96973 13.6201C8.41981 14.1198 7.51022 14.09 6.99023 13.6104C6.71024 13.8603 6.36998 14 6 14C5.17 14 4.5 13.33 4.5 12.5V12H4C3.17 12 2.5 11.33 2.5 10.5V7.5C2.5 4.47 4.97 2 8 2ZM7.98047 10.5C7.70047 10.5 7.48047 10.72 7.48047 11V11.5C7.48047 11.78 7.70047 12 7.98047 12C8.26025 11.9998 8.48047 11.7798 8.48047 11.5V11C8.48047 10.7202 8.26025 10.5002 7.98047 10.5ZM6.83008 7.15039C6.64008 6.95039 6.31988 6.95039 6.12988 7.15039L5.48047 7.7998L4.83008 7.15039C4.64008 6.95039 4.31988 6.95039 4.12988 7.15039C3.93023 7.34034 3.93023 7.65966 4.12988 7.84961L4.78027 8.5L4.12988 9.15039C3.93023 9.34034 3.93023 9.65966 4.12988 9.84961C4.21988 9.94961 4.35047 10 4.48047 10C4.61031 9.99988 4.74019 9.94949 4.83008 9.84961L5.48047 9.2002L6.12988 9.84961C6.21988 9.94961 6.35047 10 6.48047 10C6.61031 9.99988 6.74019 9.94949 6.83008 9.84961C7.02976 9.65966 7.02976 9.34034 6.83008 9.15039L6.17969 8.5L6.83008 7.84961C7.02976 7.65966 7.02976 7.34034 6.83008 7.15039ZM11.8301 7.15039C11.6401 6.95039 11.3199 6.95039 11.1299 7.15039L10.4805 7.7998L9.83008 7.15039C9.64008 6.95039 9.31988 6.95039 9.12988 7.15039C8.93023 7.34034 8.93023 7.65966 9.12988 7.84961L9.78027 8.5L9.12988 9.15039C8.93023 9.34034 8.93023 9.65966 9.12988 9.84961C9.21988 9.94961 9.35047 10 9.48047 10C9.61031 9.99988 9.74019 9.94949 9.83008 9.84961L10.4805 9.2002L11.1299 9.84961C11.2199 9.94961 11.3505 10 11.4805 10C11.6103 9.99988 11.7402 9.94949 11.8301 9.84961C12.0298 9.65966 12.0298 9.34034 11.8301 9.15039L11.1797 8.5L11.8301 7.84961C12.0298 7.65966 12.0298 7.34034 11.8301 7.15039Z" fill="currentColor"/>
</svg>
