<svg width="16" height="16" viewBox="0 0 16 16" fill="none" xmlns="http://www.w3.org/2000/svg">
<path d="M2 7.9999C2.00007 5.25996 5.31026 3.89 7.24023 5.82998L10.1699 8.75967C10.8399 9.42967 12 8.9599 12 7.9999C11.9999 7.03996 10.8499 6.56016 10.1699 7.24014L8.75977 5.82998C10.6897 3.9 13.9999 5.26996 14 7.9999C14 10.7299 10.6898 12.0998 8.75977 10.1698L5.83008 7.24014C5.1601 6.57016 4.00007 7.03996 4 7.9999C4 8.9599 5.15008 9.43967 5.83008 8.75967L7.24023 10.1698C5.31023 12.1098 2 10.7399 2 7.9999Z" fill="currentColor"/>
</svg>
