<svg width="16" height="16" viewBox="0 0 16 16" fill="none" xmlns="http://www.w3.org/2000/svg">
<path d="M5.5 7C6.32843 7 7 6.32843 7 5.5C7 4.67157 6.32843 4 5.5 4C4.67157 4 4 4.67157 4 5.5C4 6.32843 4.67157 7 5.5 7Z" fill="black"/>
<path d="M10.5 12C11.3284 12 12 11.3284 12 10.5C12 9.67157 11.3284 9 10.5 9C9.67157 9 9 9.67157 9 10.5C9 11.3284 9.67157 12 10.5 12Z" fill="black"/>
<path d="M10.229 4.357L4.35294 10.2331C4.15768 10.4283 4.15768 10.7449 4.35294 10.9402L5.06005 11.6473C5.25531 11.8425 5.57189 11.8425 5.76716 11.6473L11.6432 5.77121C11.8385 5.57595 11.8385 5.25937 11.6432 5.06411L10.9361 4.357C10.7408 4.16174 10.4243 4.16174 10.229 4.357Z" fill="black"/>
</svg>
