<svg width="16" height="16" viewBox="0 0 16 16" fill="none" xmlns="http://www.w3.org/2000/svg">
<path fill-rule="evenodd" clip-rule="evenodd" d="M8 2C11.31 2 14 4.69 14 8C14 11.31 11.31 14 8 14C4.69 14 2 11.31 2 8C2 4.69 4.69 2 8 2ZM6 5.49023C5.72 5.49023 5.5 5.71023 5.5 5.99023C5.50012 6.27012 5.72008 6.49023 6 6.49023H6.5V6.99023C6.49998 8.55993 6.29002 9.02998 5.66016 9.62988C5.46024 9.8198 5.44991 10.1398 5.63965 10.3398C5.73965 10.4498 5.87 10.5 6 10.5C6.1199 10.5 6.2399 10.4502 6.33984 10.3604C7.23984 9.51035 7.5 8.75 7.5 7V6.5H8.5V9C8.5 9.83 9.17 10.5 10 10.5C10.28 10.5 10.5 10.28 10.5 10C10.5 9.72 10.28 9.5 10 9.5V9.49023C9.72008 9.49023 9.50012 9.27012 9.5 8.99023V6.49023H10C10.2799 6.49023 10.4999 6.27012 10.5 5.99023C10.5 5.71023 10.28 5.49023 10 5.49023H6Z" fill="black"/>
</svg>
