<svg width="16" height="16" viewBox="0 0 16 16" fill="none" xmlns="http://www.w3.org/2000/svg">
<path fill-rule="evenodd" clip-rule="evenodd" d="M8 2C11.31 2 14 4.69 14 8C14 11.31 11.31 14 8 14C4.69 14 2 11.31 2 8C2 4.69 4.69 2 8 2ZM9.83984 5.58984C8.88982 4.17002 7.12965 4.1699 6.17969 5.58984C5.9997 5.85984 5.86976 6.17025 5.75977 6.49023H5.00977C4.72987 6.49035 4.50977 6.71031 4.50977 6.99023C4.50989 7.27005 4.72995 7.49011 5.00977 7.49023H5.54004C5.51006 7.82016 5.51005 8.16031 5.54004 8.49023H5.00977C4.72987 8.49035 4.50977 8.71031 4.50977 8.99023C4.50989 9.27005 4.72995 9.49011 5.00977 9.49023H5.75977C5.85972 9.81003 5.99984 10.1198 6.17969 10.3896C6.64964 11.0996 7.29985 11.4902 8.00977 11.4902C8.71977 11.4902 9.36984 11.0996 9.83984 10.3896C9.98965 10.1597 9.92995 9.85021 9.7002 9.7002C9.4802 9.5502 9.15977 9.60985 9.00977 9.83984C8.43977 10.6898 7.56977 10.6898 7.00977 9.83984C6.93985 9.73992 6.88025 9.61987 6.82031 9.5H8C8.28 9.5 8.5 9.28 8.5 9C8.5 8.72 8.28 8.5 8 8.5H6.53027C6.49027 8.17 6.49027 7.83 6.53027 7.5H8C8.28 7.5 8.5 7.28 8.5 7C8.5 6.72 8.28 6.5 8 6.5V6.48047H6.82031C6.88031 6.36047 6.93977 6.24965 7.00977 6.13965C7.57969 5.2899 8.44979 5.29004 9.00977 6.13965C9.15977 6.36965 9.4702 6.43027 9.7002 6.28027C9.93018 6.13027 9.98984 5.81984 9.83984 5.58984Z" fill="currentColor"/>
</svg>
