<svg width="16" height="16" viewBox="0 0 16 16" fill="none" xmlns="http://www.w3.org/2000/svg">
<path d="M3.78989 14.2698H3.78013L3.78501 14.2688L3.78989 14.2698Z" fill="currentColor"/>
<path d="M12.2098 14.2698H12.2L12.204 14.2688L12.2098 14.2698Z" fill="currentColor"/>
<path d="M7.99985 6.50026C8.82985 6.50026 9.49985 7.17026 9.49985 8.00026C9.49971 8.83013 8.82976 9.50026 7.99985 9.50026C7.17002 9.50017 6.5 8.83008 6.49985 8.00026C6.49985 7.17031 7.16993 6.50035 7.99985 6.50026Z" fill="currentColor"/>
<path fill-rule="evenodd" clip-rule="evenodd" d="M2.27036 2.27956C2.99043 1.55989 4.28073 1.54037 5.89048 2.25026C6.56988 2.5461 7.28112 2.95321 7.99595 3.45143C8.71053 2.95349 9.4213 2.54594 10.1004 2.25026C11.72 1.55051 12.9995 1.56005 13.7196 2.27956C14.4395 2.99952 14.4498 4.28977 13.7499 5.89967C13.4538 6.57967 13.0446 7.29063 12.5458 8.00612C13.0404 8.71723 13.4458 9.42399 13.7401 10.0999C14.4401 11.7199 14.4298 13 13.7098 13.72C13.3406 14.0891 12.8321 14.2681 12.204 14.2688C11.5953 14.2677 10.887 14.0991 10.0897 13.7503C9.41349 13.4558 8.70643 13.05 7.99497 12.5549C7.2835 13.05 6.57646 13.4558 5.90024 13.7503C5.11239 14.0893 4.39395 14.2678 3.78501 14.2688C3.15735 14.2679 2.64914 14.089 2.28013 13.72C1.56013 13 1.54985 11.7099 2.24985 10.0999C2.54405 9.42415 2.94869 8.71706 3.44321 8.00612C2.94456 7.29078 2.53608 6.57952 2.24009 5.89967C1.54017 4.27976 1.55039 2.99953 2.27036 2.27956ZM4.07114 8.84987C3.69884 9.41214 3.39101 9.96777 3.16001 10.5003C2.6501 11.6802 2.58035 12.6198 2.98032 13.0198C3.38031 13.4197 4.31997 13.35 5.49985 12.8401C6.03262 12.609 6.58766 12.2996 7.15024 11.927C6.59789 11.4884 6.05014 10.9997 5.52036 10.47C4.99379 9.94341 4.50769 9.39882 4.07114 8.84987ZM11.9227 8.84303C11.4849 9.39405 10.9981 9.94147 10.4696 10.47C9.94098 10.9986 9.39373 11.4853 8.84263 11.9231C9.40749 12.2977 9.96497 12.608 10.4999 12.8401C11.6799 13.3501 12.6204 13.4198 13.0204 13.0198C13.4201 12.6197 13.3495 11.68 12.8397 10.5003C12.6077 9.96539 12.2973 9.40788 11.9227 8.84303ZM7.99985 4.68483C7.40281 5.14301 6.80542 5.66445 6.23032 6.23952C5.65876 6.81107 5.13965 7.40494 4.68345 7.99831C5.14206 8.59608 5.66431 9.194 6.24009 9.76979C6.81197 10.3417 7.40614 10.8603 7.99985 11.3167C8.59359 10.8603 9.1877 10.3417 9.75962 9.76979C10.3356 9.19384 10.8576 8.59527 11.3163 7.99733C10.8602 7.40421 10.3417 6.81084 9.77036 6.23952C9.1951 5.66425 8.59708 5.14314 7.99985 4.68483ZM12.2098 2.72975C11.7498 2.7298 11.16 2.88023 10.4901 3.17018C9.95753 3.40122 9.40204 3.70895 8.8397 4.08131C9.38856 4.51779 9.93332 5.00308 10.4598 5.52956C10.9897 6.05941 11.4782 6.60798 11.9168 7.16041C12.2895 6.59777 12.5988 6.04286 12.8299 5.51002C13.3399 4.33002 13.4096 3.38952 13.0096 2.98952C12.8396 2.81982 12.5595 2.72975 12.2098 2.72975ZM3.78989 2.72975C3.44012 2.72978 3.16008 2.81968 2.99009 2.98952C2.59009 3.38951 2.65978 4.33003 3.16978 5.51002C3.3999 6.04048 3.70661 6.5935 4.077 7.15358C4.5144 6.60321 5.00222 6.05746 5.53013 5.52956C6.05783 5.00187 6.60399 4.51564 7.15415 4.07838C6.59373 3.7077 6.04039 3.40044 5.50962 3.17018C4.83973 2.88026 4.24983 2.72975 3.78989 2.72975Z" fill="currentColor"/>
</svg>
