<svg width="16" height="16" viewBox="0 0 16 16" fill="none" xmlns="http://www.w3.org/2000/svg">
<path d="M10.6698 8.79994C10.8798 9.07988 11.0799 9.35985 11.2499 9.63979C10.9999 9.91979 10.7396 10.1999 10.4696 10.4699C10.1996 10.7399 9.91954 11.0001 9.63954 11.2501C9.37961 11.4901 9.11943 11.7099 8.8495 11.9298C8.5696 12.1497 8.2798 12.3698 7.99989 12.5597C7.69989 12.7697 7.3995 12.9698 7.0995 13.1398C6.6896 13.3797 6.29996 13.5802 5.91005 13.7501C5.11007 14.1001 4.39992 14.2697 3.78993 14.2697C3.17996 14.2697 2.65017 14.0898 2.28017 13.7199C1.56017 12.9999 1.54989 11.7097 2.24989 10.0997C2.41984 9.70989 2.62035 9.31037 2.86025 8.90053C3.07014 9.19037 3.2903 9.48006 3.53017 9.7599C3.39017 10.0099 3.26982 10.2504 3.16982 10.4904C2.64992 11.6702 2.59016 12.6099 2.99013 13.0099C3.39013 13.4098 4.32982 13.3501 5.50966 12.8302C5.74966 12.7302 5.99013 12.6099 6.24013 12.4699C6.54003 12.3199 6.84039 12.1398 7.15028 11.9298C7.43014 11.7499 7.72005 11.5501 7.99989 11.3302C8.26987 11.1202 8.52973 10.9 8.7997 10.6701C9.12969 10.3901 9.44943 10.0897 9.76943 9.76967C10.0894 9.44967 10.3898 9.12994 10.6698 8.79994Z" fill="black"/>
<path d="M9.63954 4.75014C9.91954 5.00014 10.1996 5.26041 10.4696 5.53041C10.7396 5.8004 10.9999 6.08051 11.2499 6.36049C11.4897 6.62027 11.7098 6.87979 11.9296 7.14955C12.1495 7.42951 12.3695 7.72018 12.5595 8.00014C12.7693 8.29997 12.9596 8.59972 13.1395 8.89955C13.3795 9.30946 13.5799 9.70983 13.7499 10.0997C14.4499 11.7097 14.4396 12.9999 13.7196 13.7199C13.3496 14.0898 12.8398 14.2697 12.2099 14.2697C11.5799 14.2697 10.8897 14.1001 10.0897 13.7501C9.69983 13.5802 9.31018 13.3797 8.90028 13.1398C9.19013 12.9399 9.46981 12.7097 9.75966 12.4699C10.0097 12.6099 10.2501 12.7302 10.4901 12.8302C11.6699 13.3501 12.6097 13.4098 13.0097 13.0099C13.4096 12.6099 13.3498 11.6702 12.83 10.4904C12.73 10.2504 12.6096 10.0099 12.4696 9.7599C12.3196 9.45997 12.1395 9.15967 11.9296 8.84975C11.7497 8.56989 11.5498 8.27999 11.33 8.00014C11.12 7.73018 10.8998 7.47029 10.6698 7.20033C10.3898 6.87033 10.0894 6.54963 9.76943 6.22963C9.44957 5.90979 9.12955 5.61009 8.7997 5.33022C9.07959 5.1203 9.35965 4.9201 9.63954 4.75014Z" fill="black"/>
<path d="M2.28017 2.28041C3.00017 1.56041 4.29005 1.55014 5.91005 2.25014C6.29996 2.42011 6.6896 2.62055 7.0995 2.86049C6.80966 3.06042 6.52998 3.29054 6.24013 3.53041C5.99013 3.39041 5.74966 3.27006 5.50966 3.17006C4.83976 2.88012 4.24988 2.72964 3.78993 2.72963C3.43993 2.72963 3.16013 2.81037 2.99013 2.99037C2.59017 3.39037 2.64989 4.32999 3.16982 5.5099C3.26982 5.7499 3.39017 5.99037 3.53017 6.24037C3.68013 6.54025 3.86029 6.84065 4.07021 7.15053C4.25013 7.43038 4.44994 7.7203 4.66982 8.00014C4.87981 8.27013 5.09998 8.52995 5.32997 8.79994C5.60997 9.12994 5.91036 9.44967 6.23036 9.76967C6.55035 10.0897 6.8701 10.3901 7.20009 10.6701C6.92017 10.88 6.64016 11.0802 6.36025 11.2501C6.08026 11.0002 5.80015 10.7398 5.53017 10.4699C5.26017 10.1999 4.99989 9.91979 4.74989 9.63979C4.50994 9.37983 4.29017 9.1197 4.07021 8.84975C3.85028 8.56985 3.63027 8.28004 3.44032 8.00014C3.23032 7.70014 3.04025 7.39975 2.86025 7.09975C2.62035 6.68991 2.41985 6.29038 2.24989 5.90053C1.5499 4.29055 1.56019 3.00042 2.28017 2.28041Z" fill="black"/>
<path d="M7.99989 6.50014C8.82989 6.50014 9.49989 7.17014 9.49989 8.00014C9.49984 8.83009 8.82986 9.50014 7.99989 9.50014C7.17002 9.50003 6.49995 8.83002 6.49989 8.00014C6.49989 7.1702 7.16998 6.50024 7.99989 6.50014Z" fill="black"/>
<path d="M10.0897 2.25014C11.7097 1.55016 12.9996 1.56047 13.7196 2.28041C14.4396 3.00041 14.4499 4.29053 13.7499 5.90053C13.58 6.29025 13.3803 6.69006 13.1405 7.09975C12.9305 6.80975 12.7096 6.52037 12.4696 6.24037C12.6096 5.99037 12.73 5.7499 12.83 5.5099C13.3499 4.32995 13.4096 3.39036 13.0097 2.99037C12.8397 2.81041 12.5598 2.72963 12.2099 2.72963C11.7499 2.72968 11.16 2.88012 10.4901 3.17006C10.2501 3.27006 10.0097 3.39041 9.75966 3.53041C9.45985 3.68035 9.16028 3.86059 8.85048 4.07045C8.57048 4.25045 8.27989 4.45006 7.99989 4.67006C7.72994 4.88003 7.47005 5.10025 7.20009 5.33022C6.87024 5.6101 6.55022 5.90979 6.23036 6.22963C5.91036 6.54963 5.60997 6.87033 5.32997 7.20033C5.12003 6.92041 4.91986 6.64041 4.74989 6.36049C4.99985 6.08054 5.26022 5.80037 5.53017 5.53041C5.80017 5.26041 6.08025 5.00014 6.36025 4.75014C6.62021 4.51018 6.88033 4.29042 7.15028 4.07045C7.43028 3.85045 7.71989 3.62959 7.99989 3.43959C8.29985 3.22962 8.60032 3.03047 8.90028 2.86049C9.31017 2.62055 9.69984 2.42011 10.0897 2.25014Z" fill="black"/>
</svg>
