<svg width="16" height="16" viewBox="0 0 16 16" fill="none" xmlns="http://www.w3.org/2000/svg">
<path d="M2 7.99992C2.00007 5.25998 5.31026 3.89002 7.24023 5.83L10.1699 8.75968C10.8399 9.42968 12 8.95992 12 7.99992C11.9999 7.03998 10.8499 6.56017 10.1699 7.24015L8.75977 5.83C10.6897 3.90002 13.9999 5.26998 14 7.99992C14 10.7299 10.6898 12.0998 8.75977 10.1698L5.83008 7.24015C5.1601 6.57017 4.00007 7.03998 4 7.99992C4 8.95992 5.15008 9.43968 5.83008 8.75968L7.24023 10.1698C5.31023 12.1098 2 10.7399 2 7.99992Z" fill="currentColor"/>
</svg>
