<svg width="16" height="16" viewBox="0 0 16 16" fill="none" xmlns="http://www.w3.org/2000/svg">
<path d="M8 2C4.69 2 2 4.69 2 8C2 11.31 4.69 14 8 14C11.31 14 14 11.31 14 8C14 4.69 11.31 2 8 2ZM9.5 11H6.5C6.22 11 6 10.78 6 10.5C6 10.22 6.22 10 6.5 10H9.5C9.78 10 10 10.22 10 10.5C10 10.78 9.78 11 9.5 11ZM9.5 7.5H8.5V8.5C8.5 8.78 8.28 9 8 9C7.72 9 7.5 8.78 7.5 8.5V7.5H6.5C6.22 7.5 6 7.28 6 7C6 6.72 6.22 6.5 6.5 6.5H7.5V5.5C7.5 5.22 7.72 5 8 5C8.28 5 8.5 5.22 8.5 5.5V6.5H9.5C9.78 6.5 10 6.72 10 7C10 7.28 9.78 7.5 9.5 7.5Z" fill="currentColor"/>
</svg>
