<svg width="16" height="16" viewBox="0 0 16 16" fill="none" xmlns="http://www.w3.org/2000/svg">
<path d="M12.2 2.75L8.84 2.08C8.29 1.97 7.71 1.97 7.16 2.08L3.79999 2.75C3.32999 2.84 3 3.25 3 3.73V8.33C3 10.09 3.91999 11.71 5.42999 12.62L7.48999 13.85C7.80999 14.04 8.19999 14.04 8.51999 13.85L10.58 12.62C12.09 11.72 13.01 10.09 13.01 8.33V3.73C13.01 3.25 12.67 2.84 12.21 2.75H12.2ZM10.85 6.35L7.85001 9.35C7.75001 9.45 7.62 9.5 7.5 9.5C7.38 9.5 7.23999 9.45 7.14999 9.35L5.64999 7.85C5.44999 7.65 5.44999 7.34 5.64999 7.14C5.84999 6.94 6.15999 6.94 6.35999 7.14L7.51001 8.29L10.16 5.64C10.36 5.44 10.67 5.44 10.87 5.64C11.07 5.84 11.07 6.15 10.87 6.35H10.85Z" fill="currentColor"/>
</svg>
