<svg width="16" height="16" viewBox="0 0 16 16" fill="none" xmlns="http://www.w3.org/2000/svg">
<path d="M12.2 2.75L8.84 2.08C8.29 1.97 7.71 1.97 7.16 2.08L3.79999 2.75C3.32999 2.84 3 3.25 3 3.73V8.33C3 10.09 3.91999 11.71 5.42999 12.62L7.48999 13.85C7.80999 14.04 8.19999 14.04 8.51999 13.85L10.58 12.62C12.09 11.72 13.01 10.09 13.01 8.33V3.73C13.01 3.25 12.67 2.84 12.21 2.75H12.2ZM10.35 9.15C10.55 9.35 10.55 9.66 10.35 9.86C10.25 9.96 10.12 10.01 10 10.01C9.88 10.01 9.73999 9.96 9.64999 9.86L8 8.21L6.35001 9.86C6.25001 9.96 6.12 10.01 6 10.01C5.88 10.01 5.73999 9.96 5.64999 9.86C5.44999 9.66 5.44999 9.35 5.64999 9.15L7.29999 7.5L5.64999 5.85C5.44999 5.65 5.44999 5.34 5.64999 5.14C5.84999 4.94 6.15999 4.94 6.35999 5.14L8.01001 6.79L9.66 5.14C9.86 4.94 10.17 4.94 10.37 5.14C10.57 5.34 10.57 5.65 10.37 5.85L8.72 7.5L10.37 9.15H10.35Z" fill="black"/>
</svg>
