<svg width="16" height="16" viewBox="0 0 16 16" fill="none" xmlns="http://www.w3.org/2000/svg">
<path fill-rule="evenodd" clip-rule="evenodd" d="M8 2C11.31 2 14 4.69 14 8C14 11.31 11.31 14 8 14C4.69 14 2 11.31 2 8C2 4.69 4.69 2 8 2ZM10.3701 5.63965C10.1702 5.43985 9.86013 5.43994 9.66016 5.63965L8.00977 7.29004L6.36035 5.63965C6.16047 5.43977 5.8504 5.44002 5.65039 5.63965C5.45039 5.83965 5.45039 6.14961 5.65039 6.34961L7.2998 8L5.65039 9.65039C5.45039 9.85039 5.45039 10.1604 5.65039 10.3604C5.7404 10.4601 5.88015 10.5098 6 10.5098C6.11985 10.5098 6.24966 10.4601 6.34961 10.3604L8 8.70996L9.65039 10.3604C9.7404 10.4601 9.88015 10.5098 10 10.5098C10.1199 10.5098 10.2497 10.4601 10.3496 10.3604C10.5496 10.1604 10.5496 9.85039 10.3496 9.65039H10.3701L8.71973 8L10.3701 6.34961C10.5699 6.1496 10.57 5.83956 10.3701 5.63965Z" fill="currentColor"/>
</svg>
