<svg width="16" height="16" viewBox="0 0 16 16" fill="none" xmlns="http://www.w3.org/2000/svg">
<path d="M14.06 11.49L8.87001 2.5C8.49001 1.83 7.52001 1.83 7.14001 2.5L1.95001 11.49C1.57001 12.16 2.05001 12.99 2.82001 12.99H13.21C13.98 12.99 14.46 12.16 14.08 11.49H14.06ZM10.19 8.41L7.57001 11.41C7.40001 11.6 7.08001 11.45 7.12001 11.2L7.48001 9.01H5.99001C5.77001 9.01 5.65001 8.75 5.80001 8.58L8.42001 5.58C8.59001 5.39 8.91001 5.54 8.87001 5.79L8.51001 7.98H10C10.22 7.98 10.34 8.24 10.19 8.41Z" fill="currentColor"/>
</svg>
