<svg width="16" height="16" viewBox="0 0 16 16" fill="none" xmlns="http://www.w3.org/2000/svg">
<path d="M2.5 11C3.32843 11 4 11.6716 4 12.5C4 13.3284 3.32843 14 2.5 14C1.67157 14 1 13.3284 1 12.5C1 11.6716 1.67157 11 2.5 11Z" fill="currentColor"/>
<path d="M10 9C10.8284 9 11.5 9.67157 11.5 10.5C11.5 11.3284 10.8284 12 10 12C9.17157 12 8.5 11.3284 8.5 10.5C8.5 9.67157 9.17157 9 10 9Z" fill="currentColor"/>
<path d="M4.58008 7.23047C4.82995 7.44029 5.13997 7.59969 5.46973 7.67969L3.91992 10.7695C3.66007 10.5597 3.36003 10.4003 3.03027 10.3203L4.58008 7.23047Z" fill="currentColor"/>
<path d="M9.03027 8.48047C8.72027 8.63047 8.46 8.85035 8.25 9.11035L6.98047 7.51953C7.29022 7.36954 7.54989 7.14949 7.75977 6.88965L9.03027 8.48047Z" fill="currentColor"/>
<path d="M12.0801 5.23047C12.3299 5.44029 12.64 5.59969 12.9697 5.67969L11.4199 8.76953C11.1601 8.55971 10.86 8.40031 10.5303 8.32031L12.0801 5.23047Z" fill="currentColor"/>
<path d="M6 4C6.82843 4 7.5 4.67157 7.5 5.5C7.5 6.32843 6.82843 7 6 7C5.17157 7 4.5 6.32843 4.5 5.5C4.5 4.67157 5.17157 4 6 4Z" fill="currentColor"/>
<path d="M13.5 2C14.3284 2 15 2.67157 15 3.5C15 4.32843 14.3284 5 13.5 5C12.6716 5 12 4.32843 12 3.5C12 2.67157 12.6716 2 13.5 2Z" fill="currentColor"/>
</svg>
