<svg width="16" height="16" viewBox="0 0 16 16" fill="none" xmlns="http://www.w3.org/2000/svg">
<path d="M8 2C4.69 2 2 4.69 2 8C2 11.31 4.69 14 8 14C11.31 14 14 11.31 14 8C14 4.69 11.31 2 8 2ZM6.23 9.77C7.17 10.71 8.82 10.71 9.77 9.77C9.97 9.57 10.28 9.57 10.48 9.77C10.68 9.96 10.68 10.28 10.48 10.48C9.82 11.14 8.93999 11.51 8.00999 11.51C7.07999 11.51 6.19999 11.15 5.53999 10.48C4.87999 9.82 4.50999 8.94 4.50999 8.01C4.50999 7.08 4.86999 6.2 5.53999 5.54C6.85999 4.22 9.17001 4.22 10.49 5.54C10.69 5.74 10.69 6.05 10.49 6.25C10.29 6.45 9.98 6.45 9.78 6.25C8.84 5.31 7.19001 5.31 6.24001 6.25C5.77001 6.72 5.50999 7.35 5.50999 8.02C5.50999 8.69 5.77001 9.32 6.24001 9.79L6.23 9.77Z" fill="currentColor"/>
</svg>
