<svg width="16" height="16" viewBox="0 0 16 16" fill="none" xmlns="http://www.w3.org/2000/svg">
<path d="M9.16016 7L8.83008 9H6.83984L7.16992 7H9.16016Z" fill="black"/>
<path fill-rule="evenodd" clip-rule="evenodd" d="M8 2C11.31 2 14 4.69 14 8C14 11.31 11.31 14 8 14C4.69 14 2 11.31 2 8C2 4.69 4.69 2 8 2ZM7.08984 4.50977C6.81992 4.45989 6.55977 4.65 6.50977 4.91992L6.33008 6H5.5C5.22 6 5 6.22 5 6.5C5 6.78 5.22 7 5.5 7H6.16016L5.83008 9H5C4.72 9 4.5 9.22 4.5 9.5C4.5 9.78 4.72 10 5 10H5.66016L5.50977 10.9199C5.45977 11.1999 5.64997 11.45 5.91992 11.5H6C6.23999 11.5 6.45022 11.3201 6.49023 11.0801L6.66992 10H8.66016L8.50977 10.9199C8.45977 11.1999 8.64997 11.45 8.91992 11.5H9C9.23999 11.5 9.45022 11.3201 9.49023 11.0801L9.66992 10H10.5C10.78 10 11 9.78 11 9.5C11 9.22 10.78 9 10.5 9H9.83984L10.1699 7H11L11.0195 7.01953C11.2995 7.01953 11.5195 6.79953 11.5195 6.51953C11.5193 6.23975 11.2994 6.01953 11.0195 6.01953H10.3604L10.5098 5.09961C10.5596 4.81975 10.3695 4.56951 10.0996 4.51953C9.82985 4.46985 9.5696 4.65996 9.51953 4.92969L9.33984 6.00977H7.34961L7.5 5.08984C7.5499 4.80991 7.3598 4.55976 7.08984 4.50977Z" fill="black"/>
</svg>
