<svg width="16" height="16" viewBox="0 0 16 16" fill="none" xmlns="http://www.w3.org/2000/svg">
<path d="M8.75 5.5H6.5V8H8.75C9.44 8 10 7.44 10 6.75C10 6.06 9.44 5.5 8.75 5.5Z" fill="currentColor"/>
<path d="M8 2C4.69 2 2 4.69 2 8C2 11.31 4.69 14 8 14C11.31 14 14 11.31 14 8C14 4.69 11.31 2 8 2ZM10.42 10.74C10.57 10.97 10.5 11.28 10.26 11.43C10.18 11.48 10.09 11.51 10 11.51C9.83 11.51 9.67 11.43 9.58 11.27L8.17 9.01H6.50999V11.01C6.50999 11.29 6.28999 11.51 6.00999 11.51C5.72999 11.51 5.50999 11.29 5.50999 11.01V5.01C5.50999 4.73 5.72999 4.51 6.00999 4.51H8.75999C9.99999 4.51 11.01 5.52 11.01 6.76C11.01 7.81 10.28 8.69 9.3 8.94L10.43 10.75L10.42 10.74Z" fill="currentColor"/>
</svg>
