<svg width="16" height="16" viewBox="0 0 16 16" fill="none" xmlns="http://www.w3.org/2000/svg">
<path fill-rule="evenodd" clip-rule="evenodd" d="M8 2C11.31 2 14 4.69 14 8C14 11.31 11.31 14 8 14C4.69 14 2 11.31 2 8C2 4.69 4.69 2 8 2ZM6.5 10C6.22 10 6 10.22 6 10.5C6 10.78 6.22 11 6.5 11H9.5C9.78 11 10 10.78 10 10.5C10 10.22 9.78 10 9.5 10H6.5ZM8 5C7.72 5 7.5 5.22 7.5 5.5V6.5H6.5C6.22 6.5 6 6.72 6 7C6 7.28 6.22 7.5 6.5 7.5H7.5V8.5C7.5 8.78 7.72 9 8 9C8.28 9 8.5 8.78 8.5 8.5V7.5H9.5C9.78 7.5 10 7.28 10 7C10 6.72 9.78 6.5 9.5 6.5H8.5V5.5C8.5 5.22 8.28 5 8 5Z" fill="black"/>
</svg>
