<svg width="16" height="16" viewBox="0 0 16 16" fill="none" xmlns="http://www.w3.org/2000/svg">
<path d="M8 2C4.69 2 2 4.69 2 8C2 11.31 4.69 14 8 14C11.31 14 14 11.31 14 8C14 4.69 11.31 2 8 2ZM7.54 5.81C7.56 5.75 7.6 5.69 7.65 5.65C7.69 5.6 7.75 5.56 7.81 5.54C8 5.46 8.21 5.51 8.35 5.65C8.45 5.74 8.5 5.87 8.5 6C8.5 6.07 8.5 6.13 8.46 6.19C8.44 6.25 8.4 6.31 8.35 6.35C8.31 6.4 8.25 6.44 8.19 6.46C8.13 6.49 8.07 6.5 8 6.5C7.93 6.5 7.87 6.49 7.81 6.46C7.75 6.44 7.69 6.4 7.65 6.35C7.6 6.31 7.56 6.25 7.54 6.19C7.51 6.13 7.5 6.07 7.5 6C7.5 5.94 7.5 5.87 7.54 5.81ZM8.35 10.35C8.26 10.45 8.13 10.5 8 10.5C7.94 10.5 7.87 10.49 7.81 10.46C7.75 10.44 7.69 10.4 7.65 10.35C7.55 10.26 7.5 10.13 7.5 10C7.5 9.87 7.55 9.74 7.65 9.65C7.69 9.6 7.75 9.56 7.81 9.54C8 9.46 8.21 9.51 8.35 9.65C8.4 9.69 8.44 9.75 8.46 9.81C8.49 9.87 8.5 9.94 8.5 10C8.5 10.13 8.45 10.26 8.35 10.35ZM10 8.5H6C5.72 8.5 5.5 8.28 5.5 8C5.5 7.72 5.72 7.5 6 7.5H10C10.28 7.5 10.5 7.72 10.5 8C10.5 8.28 10.28 8.5 10 8.5Z" fill="currentColor"/>
</svg>
