<svg width="16" height="16" viewBox="0 0 16 16" fill="none" xmlns="http://www.w3.org/2000/svg">
<path d="M8 2C4.69 2 2 4.69 2 8C2 11.31 4.69 14 8 14C11.31 14 14 11.31 14 8C14 4.69 11.31 2 8 2ZM10 7C10.28 7 10.5 7.22 10.5 7.5C10.5 7.78 10.28 8 10 8H8.5V9H10C10.28 9 10.5 9.22 10.5 9.5C10.5 9.78 10.28 10 10 10H8.5V11C8.5 11.28 8.28 11.5 8 11.5C7.72 11.5 7.5 11.28 7.5 11V10H6C5.72 10 5.5 9.78 5.5 9.5C5.5 9.22 5.72 9 6 9H7.5V8H6C5.72 8 5.5 7.78 5.5 7.5C5.5 7.22 5.72 7 6 7H7.28999L5.64 5.35C5.44 5.15 5.44 4.84 5.64 4.64C5.84 4.44 6.15001 4.44 6.35001 4.64L8 6.29L9.64999 4.64C9.84999 4.44 10.16 4.44 10.36 4.64C10.56 4.84 10.56 5.15 10.36 5.35L8.71001 7H10Z" fill="black"/>
</svg>
