<svg width="16" height="16" viewBox="0 0 16 16" fill="none" xmlns="http://www.w3.org/2000/svg">
<path d="M12.2 2.75L8.84 2.08C8.29 1.97 7.71 1.97 7.16 2.08L3.79999 2.75C3.32999 2.84 3 3.25 3 3.73V8.33C3 10.09 3.91999 11.71 5.42999 12.62L7.48999 13.85C7.80999 14.04 8.19999 14.04 8.51999 13.85L10.58 12.62C12.09 11.72 13.01 10.09 13.01 8.33V3.73C13.01 3.25 12.67 2.84 12.21 2.75H12.2ZM8.03 4.25C8.43 4.27 8.73001 4.64 8.70001 5.04L8.53 8C8.51 8.28 8.28 8.5 8 8.5C7.72 8.5 7.49 8.28 7.47 8L7.29001 5C7.27001 4.58 7.61 4.23 8.03 4.25ZM8 11C7.59 11 7.25 10.66 7.25 10.25C7.25 9.84 7.59 9.5 8 9.5C8.41 9.5 8.75 9.84 8.75 10.25C8.75 10.66 8.41 11 8 11Z" fill="currentColor"/>
</svg>
