<svg width="16" height="16" viewBox="0 0 16 16" fill="none" xmlns="http://www.w3.org/2000/svg">
<path d="M11.48 6.83002C10.79 6.58002 10.16 6.68002 9.63001 6.95002C10.18 6.41002 10.46 5.59002 10.24 4.72002C10.05 3.93002 9.40001 3.28002 8.61001 3.07002C7.07001 2.67002 5.68 3.83002 5.68 5.30002C5.68 5.94002 5.94001 6.52002 6.36001 6.94002C5.83001 6.67002 5.2 6.56002 4.51 6.82002C3.78 7.09002 3.21 7.72002 3.04 8.47002C2.72 9.97002 3.85001 11.3 5.30001 11.3C6.09001 11.3 6.78001 10.91 7.20001 10.31L6.31001 12.28C6.16001 12.61 6.40001 12.99 6.77001 12.99H9.22001C9.58001 12.99 9.83 12.62 9.68 12.28L8.79 10.31C9.21 10.91 9.90001 11.3 10.69 11.3C12.14 11.3 13.27 9.97002 12.95 8.47002C12.79 7.71002 12.21 7.08002 11.48 6.82002V6.83002Z" fill="currentColor"/>
</svg>
