<svg width="16" height="16" viewBox="0 0 16 16" fill="none" xmlns="http://www.w3.org/2000/svg">
<path fill-rule="evenodd" clip-rule="evenodd" d="M13 2C13.55 2 14 2.45 14 3V13C14 13.55 13.55 14 13 14H3C2.45 14 2 13.55 2 13V3C2 2.45 2.45 2 3 2H13ZM3.5 4.5C3.22 4.5 3 4.72 3 5C3 5.28 3.22 5.5 3.5 5.5H5.5V7.5H3.5C3.22 7.5 3 7.72 3 8C3 8.28 3.22 8.5 3.5 8.5H5.5V10.5H3.5C3.22 10.5 3 10.72 3 11C3 11.28 3.22 11.5 3.5 11.5H5.5V12.5C5.5 12.78 5.72 13 6 13C6.28 13 6.5 12.78 6.5 12.5V11.5H12.5C12.78 11.5 13 11.28 13 11C13 10.72 12.78 10.5 12.5 10.5H6.5V8.5H12.5C12.78 8.5 13 8.28 13 8C13 7.72 12.78 7.5 12.5 7.5H6.5V5.5H12.5C12.78 5.5 13 5.28 13 5C13 4.72 12.78 4.5 12.5 4.5H3.5Z" fill="black"/>
</svg>
