<svg width="16" height="16" viewBox="0 0 16 16" fill="none" xmlns="http://www.w3.org/2000/svg">
<path fill-rule="evenodd" clip-rule="evenodd" d="M8 2C11.31 2 14 4.69 14 8C14 11.31 11.31 14 8 14C4.69 14 2 11.31 2 8C2 4.69 4.69 2 8 2ZM8 10C7.59 10 7.25 10.34 7.25 10.75C7.25 11.16 7.59 11.5 8 11.5C8.41 11.5 8.75 11.16 8.75 10.75C8.75 10.34 8.41 10 8 10ZM8.03027 4.75C7.61027 4.73 7.27004 5.08 7.29004 5.5L7.46973 8.5C7.48973 8.78 7.72 9 8 9C8.28 9 8.51027 8.78 8.53027 8.5L8.7002 5.54004C8.73019 5.14013 8.43014 4.77016 8.03027 4.75Z" fill="currentColor"/>
</svg>
