<svg width="16" height="16" viewBox="0 0 16 16" fill="none" xmlns="http://www.w3.org/2000/svg">
<path fill-rule="evenodd" clip-rule="evenodd" d="M7.13963 2.50042C7.51963 1.83042 8.4901 1.83042 8.8701 2.50042L14.0596 11.4897H14.0801C14.4601 12.1597 13.9799 12.9897 13.2099 12.9897H2.82029C2.05029 12.9897 1.57018 12.1597 1.95018 11.4897L7.13963 2.50042ZM7.99998 10.0004C7.58999 10.0004 7.24998 10.3404 7.24998 10.7504C7.25019 11.1603 7.59011 11.5004 7.99998 11.5004C8.40986 11.5004 8.74978 11.1603 8.74998 10.7504C8.74998 10.3404 8.40998 10.0004 7.99998 10.0004ZM8.03025 4.75042C7.61025 4.73042 7.27002 5.08042 7.29002 5.50042L7.46971 8.50042C7.48987 8.78025 7.7201 9.00042 7.99998 9.00042C8.27986 9.00042 8.51009 8.78026 8.53025 8.50042L8.70018 5.54046C8.73017 5.14055 8.43013 4.77057 8.03025 4.75042Z" fill="currentColor"/>
</svg>
