<svg width="16" height="16" viewBox="0 0 16 16" fill="none" xmlns="http://www.w3.org/2000/svg">
<path d="M10.1466 6.64657C10.3418 6.45131 10.6583 6.45131 10.8536 6.64657C11.0488 6.84184 11.0488 7.15837 10.8536 7.3536L7.85358 10.3536C7.65835 10.5488 7.34182 10.5488 7.14655 10.3536L5.64655 8.8536C5.45129 8.65834 5.4513 8.34183 5.64655 8.14657C5.84181 7.95131 6.15832 7.95131 6.35358 8.14657L7.50007 9.29306L10.1466 6.64657Z" fill="black"/>
<path fill-rule="evenodd" clip-rule="evenodd" d="M8.00007 3.00009C11.0376 3.00012 13.5001 5.46254 13.5001 8.50009C13.5 11.5376 11.0376 14 8.00007 14.0001C4.96253 14.0001 2.50012 11.5376 2.50007 8.50009C2.50007 5.46252 4.9625 3.00009 8.00007 3.00009ZM8.00007 4.00009C5.51479 4.00009 3.50007 6.01481 3.50007 8.50009C3.50012 10.9853 5.51482 13.0001 8.00007 13.0001C10.4853 13 12.5 10.9853 12.5001 8.50009C12.5001 6.01483 10.4853 4.00012 8.00007 4.00009Z" fill="black"/>
<path d="M3.77057 2.30575C3.99925 2.15151 4.31031 2.21101 4.46491 2.43954C4.61943 2.66815 4.55856 2.97911 4.33015 3.13388C3.38572 3.7728 2.67085 4.62597 2.18659 5.58505C2.06217 5.8315 1.76119 5.93006 1.51472 5.80575C1.26856 5.68124 1.16984 5.38119 1.29401 5.13485C1.84972 4.03424 2.67529 3.04668 3.77057 2.30575Z" fill="black"/>
<path d="M11.5362 2.43954C11.691 2.21111 12.0019 2.15111 12.2305 2.30575C13.3258 3.04672 14.1505 4.03421 14.7061 5.13485C14.8304 5.38124 14.7317 5.68123 14.4854 5.80575C14.2389 5.9302 13.938 5.83156 13.8135 5.58505C13.3293 4.62592 12.6145 3.77282 11.67 3.13388C11.4414 2.97912 11.3815 2.66822 11.5362 2.43954Z" fill="black"/>
</svg>
