<svg width="16" height="16" viewBox="0 0 16 16" fill="none" xmlns="http://www.w3.org/2000/svg">
<path d="M8.00007 6.00009C8.27618 6.00012 8.50007 6.22397 8.50007 6.50009V8.00009H10.0001C10.2762 8.00012 10.5001 8.22397 10.5001 8.50009C10.5 8.77616 10.2761 9.00005 10.0001 9.00009H8.50007V10.5001C8.50002 10.7762 8.27615 11 8.00007 11.0001C7.72395 11.0001 7.50012 10.7762 7.50007 10.5001V9.00009H6.00007C5.72395 9.00009 5.50012 8.77619 5.50007 8.50009C5.50007 8.22394 5.72392 8.00009 6.00007 8.00009H7.50007V6.50009C7.50007 6.22394 7.72392 6.00009 8.00007 6.00009Z" fill="black"/>
<path fill-rule="evenodd" clip-rule="evenodd" d="M8.00007 3.00009C11.0376 3.00012 13.5001 5.46254 13.5001 8.50009C13.5 11.5376 11.0376 14 8.00007 14.0001C4.96253 14.0001 2.50012 11.5376 2.50007 8.50009C2.50007 5.46252 4.9625 3.00009 8.00007 3.00009ZM8.00007 4.00009C5.51479 4.00009 3.50007 6.01481 3.50007 8.50009C3.50012 10.9853 5.51482 13.0001 8.00007 13.0001C10.4853 13 12.5 10.9853 12.5001 8.50009C12.5001 6.01483 10.4853 4.00012 8.00007 4.00009Z" fill="black"/>
<path d="M3.77057 2.30575C3.99925 2.15151 4.31031 2.21101 4.46491 2.43954C4.61943 2.66815 4.55856 2.97911 4.33015 3.13388C3.38572 3.7728 2.67085 4.62597 2.18659 5.58505C2.06217 5.8315 1.76119 5.93006 1.51472 5.80575C1.26856 5.68124 1.16984 5.38119 1.29401 5.13485C1.84972 4.03424 2.67529 3.04668 3.77057 2.30575Z" fill="black"/>
<path d="M11.5362 2.43954C11.691 2.21111 12.0019 2.15111 12.2305 2.30575C13.3258 3.04672 14.1505 4.03421 14.7061 5.13485C14.8304 5.38124 14.7317 5.68123 14.4854 5.80575C14.2389 5.9302 13.938 5.83156 13.8135 5.58505C13.3293 4.62592 12.6145 3.77282 11.67 3.13388C11.4414 2.97912 11.3815 2.66822 11.5362 2.43954Z" fill="black"/>
</svg>
