<svg width="16" height="16" viewBox="0 0 16 16" fill="none" xmlns="http://www.w3.org/2000/svg">
<path d="M8 10C8.27614 10 8.5 10.2239 8.5 10.5C8.5 10.7761 8.27614 11 8 11C7.72386 11 7.5 10.7761 7.5 10.5C7.5 10.2239 7.72386 10 8 10Z" fill="currentColor"/>
<path d="M7.99023 6C8.81627 6.00012 9.49023 6.67393 9.49023 7.5C9.49023 8.10854 9.07291 8.58408 8.58984 8.78711L8.5 8.82715V9C8.5 9.27607 8.27604 9.49988 8 9.5C7.72396 9.49988 7.5 9.27607 7.5 9V8.75C7.5 8.44692 7.65759 8.16146 7.91602 8.00098L8.0332 7.94043L8.18945 7.87207L8.2002 7.86719C8.39249 7.78774 8.49023 7.62715 8.49023 7.5C8.49023 7.22622 8.26399 7.00013 7.99023 7C7.75075 7 7.54719 7.17286 7.5 7.39941L7.48047 7.60059C7.43396 7.82848 7.23185 7.99989 6.99023 8C6.71409 8 6.49023 7.77614 6.49023 7.5C6.49023 6.67386 7.16409 6 7.99023 6Z" fill="currentColor"/>
<path fill-rule="evenodd" clip-rule="evenodd" d="M11 1.5C11.2761 1.5 11.5 1.72386 11.5 2V2.5H13C13.8284 2.5 14.5 3.17157 14.5 4V12.5C14.5 13.3284 13.8284 14 13 14H3C2.17157 14 1.5 13.3284 1.5 12.5V4C1.5 3.17157 2.17157 2.5 3 2.5H4.5V2C4.5 1.72386 4.72386 1.5 5 1.5C5.27614 1.5 5.5 1.72386 5.5 2V2.5H7.5V2C7.5 1.72386 7.72386 1.5 8 1.5C8.27614 1.5 8.5 1.72386 8.5 2V2.5H10.5V2C10.5 1.72386 10.7239 1.5 11 1.5ZM3 3.5C2.72386 3.5 2.5 3.72386 2.5 4V12.5C2.5 12.7761 2.72386 13 3 13H13C13.2761 13 13.5 12.7761 13.5 12.5V4C13.5 3.72386 13.2761 3.5 13 3.5H11.5V4C11.5 4.27614 11.2761 4.5 11 4.5C10.7239 4.5 10.5 4.27614 10.5 4V3.5H8.5V4C8.5 4.27614 8.27614 4.5 8 4.5C7.72386 4.5 7.5 4.27614 7.5 4V3.5H5.5V4C5.5 4.27614 5.27614 4.5 5 4.5C4.72386 4.5 4.5 4.27614 4.5 4V3.5H3Z" fill="currentColor"/>
</svg>
