<svg width="16" height="16" viewBox="0 0 16 16" fill="none" xmlns="http://www.w3.org/2000/svg">
<path d="M8.10059 7.50977C8.32855 7.55629 8.5 7.75829 8.5 8V10H9C9.27614 10 9.5 10.2239 9.5 10.5C9.5 10.7761 9.27614 11 9 11H7C6.72386 11 6.5 10.7761 6.5 10.5C6.5 10.2239 6.72386 10 7 10H7.5V8.5H7C6.72386 8.5 6.5 8.27614 6.5 8C6.5 7.72386 6.72386 7.5 7 7.5H8L8.10059 7.50977Z" fill="black"/>
<path d="M8 6C8.27614 6 8.5 6.22386 8.5 6.5C8.5 6.77614 8.27614 7 8 7C7.72386 7 7.5 6.77614 7.5 6.5C7.5 6.22386 7.72386 6 8 6Z" fill="black"/>
<path fill-rule="evenodd" clip-rule="evenodd" d="M11 1.5C11.2761 1.5 11.5 1.72386 11.5 2V2.5H13C13.8284 2.5 14.5 3.17157 14.5 4V12.5C14.5 13.3284 13.8284 14 13 14H3C2.17157 14 1.5 13.3284 1.5 12.5V4C1.5 3.17157 2.17157 2.5 3 2.5H4.5V2C4.5 1.72386 4.72386 1.5 5 1.5C5.27614 1.5 5.5 1.72386 5.5 2V2.5H7.5V2C7.5 1.72386 7.72386 1.5 8 1.5C8.27614 1.5 8.5 1.72386 8.5 2V2.5H10.5V2C10.5 1.72386 10.7239 1.5 11 1.5ZM3 3.5C2.72386 3.5 2.5 3.72386 2.5 4V12.5C2.5 12.7761 2.72386 13 3 13H13C13.2761 13 13.5 12.7761 13.5 12.5V4C13.5 3.72386 13.2761 3.5 13 3.5H11.5V4C11.5 4.27614 11.2761 4.5 11 4.5C10.7239 4.5 10.5 4.27614 10.5 4V3.5H8.5V4C8.5 4.27614 8.27614 4.5 8 4.5C7.72386 4.5 7.5 4.27614 7.5 4V3.5H5.5V4C5.5 4.27614 5.27614 4.5 5 4.5C4.72386 4.5 4.5 4.27614 4.5 4V3.5H3Z" fill="black"/>
</svg>
