<svg width="16" height="16" viewBox="0 0 16 16" fill="none" xmlns="http://www.w3.org/2000/svg">
<path fill-rule="evenodd" clip-rule="evenodd" d="M7.75 5.5C9.13071 5.5 10.25 6.61929 10.25 8C10.25 8.50948 10.0967 8.98274 9.83496 9.37793L11.1035 10.6465C11.2986 10.8418 11.2987 11.1583 11.1035 11.3535C10.9083 11.5487 10.5918 11.5486 10.3965 11.3535L9.12793 10.085C8.73274 10.3467 8.25948 10.5 7.75 10.5C6.36929 10.5 5.25 9.38071 5.25 8C5.25 6.61929 6.36929 5.5 7.75 5.5ZM7.75 6.5C6.92157 6.5 6.25 7.17157 6.25 8C6.25 8.82843 6.92157 9.5 7.75 9.5C8.15028 9.5 8.51227 9.34145 8.78125 9.08594C8.78961 9.07619 8.79741 9.06587 8.80664 9.05664C8.81587 9.04741 8.82619 9.03961 8.83594 9.03125C9.09145 8.76227 9.25 8.40028 9.25 8C9.25 7.17157 8.57843 6.5 7.75 6.5Z" fill="black"/>
<path fill-rule="evenodd" clip-rule="evenodd" d="M11 1.5C11.2761 1.5 11.5 1.72386 11.5 2V2.5H13C13.8284 2.5 14.5 3.17157 14.5 4V12.5C14.5 13.3284 13.8284 14 13 14H3C2.17157 14 1.5 13.3284 1.5 12.5V4C1.5 3.17157 2.17157 2.5 3 2.5H4.5V2C4.5 1.72386 4.72386 1.5 5 1.5C5.27614 1.5 5.5 1.72386 5.5 2V2.5H7.5V2C7.5 1.72386 7.72386 1.5 8 1.5C8.27614 1.5 8.5 1.72386 8.5 2V2.5H10.5V2C10.5 1.72386 10.7239 1.5 11 1.5ZM3 3.5C2.72386 3.5 2.5 3.72386 2.5 4V12.5C2.5 12.7761 2.72386 13 3 13H13C13.2761 13 13.5 12.7761 13.5 12.5V4C13.5 3.72386 13.2761 3.5 13 3.5H11.5V4C11.5 4.27614 11.2761 4.5 11 4.5C10.7239 4.5 10.5 4.27614 10.5 4V3.5H8.5V4C8.5 4.27614 8.27614 4.5 8 4.5C7.72386 4.5 7.5 4.27614 7.5 4V3.5H5.5V4C5.5 4.27614 5.27614 4.5 5 4.5C4.72386 4.5 4.5 4.27614 4.5 4V3.5H3Z" fill="black"/>
</svg>
