<svg width="16" height="16" viewBox="0 0 16 16" fill="none" xmlns="http://www.w3.org/2000/svg">
<path d="M8 3.5C8.27607 3.50008 8.5 3.72391 8.5 4V8C8.5 8.08736 8.47709 8.17327 8.43359 8.24902L7.02344 10.6992C6.88577 10.9383 6.58006 11.0211 6.34082 10.8838C6.1016 10.746 6.01859 10.4395 6.15625 10.2002L7.5 7.86621V4C7.5 3.72391 7.72393 3.50009 8 3.5Z" fill="currentColor"/>
<path fill-rule="evenodd" clip-rule="evenodd" d="M8 1.5C11.5899 1.5 14.5 4.41015 14.5 8C14.5 11.5899 11.5899 14.5 8 14.5C4.41015 14.5 1.5 11.5899 1.5 8C1.5 4.41015 4.41015 1.5 8 1.5ZM8 2.5C4.96243 2.5 2.5 4.96243 2.5 8C2.5 11.0376 4.96243 13.5 8 13.5C11.0376 13.5 13.5 11.0376 13.5 8C13.5 4.96243 11.0376 2.5 8 2.5Z" fill="currentColor"/>
</svg>
