<svg width="16" height="16" viewBox="0 0 16 16" fill="none" xmlns="http://www.w3.org/2000/svg">
<path d="M8 6.5C8.27614 6.5 8.5 6.72386 8.5 7V8.5H10C10.2761 8.5 10.5 8.72386 10.5 9C10.5 9.27614 10.2761 9.5 10 9.5H8.5V11C8.5 11.2761 8.27614 11.5 8 11.5C7.72386 11.5 7.5 11.2761 7.5 11V9.5H6C5.72386 9.5 5.5 9.27614 5.5 9C5.5 8.72386 5.72386 8.5 6 8.5H7.5V7C7.5 6.72386 7.72386 6.5 8 6.5Z" fill="black"/>
<path fill-rule="evenodd" clip-rule="evenodd" d="M9.5 1.5C9.77614 1.5 10 1.72386 10 2C10 2.27614 9.77614 2.5 9.5 2.5H8.5V3.52344C9.6431 3.62647 10.685 4.07875 11.5186 4.77344L12.2422 4.0498L11.5361 3.34375C11.341 3.14859 11.3412 2.83199 11.5361 2.63672C11.7314 2.44147 12.0479 2.44151 12.2432 2.63672L13.2979 3.69141C13.2997 3.69317 13.3019 3.69449 13.3037 3.69629C13.3052 3.69773 13.3062 3.69972 13.3076 3.70117L14.3633 4.75684C14.5584 4.95211 14.5585 5.26864 14.3633 5.46387C14.168 5.65879 13.8514 5.65891 13.6562 5.46387L12.9492 4.75684L12.2256 5.48047C13.0209 6.43429 13.5 7.66101 13.5 9C13.5 12.0376 11.0376 14.5 8 14.5C4.96243 14.5 2.5 12.0376 2.5 9C2.5 6.13101 4.69679 3.77609 7.5 3.52344V2.5H6.5C6.22386 2.5 6 2.27614 6 2C6 1.72386 6.22386 1.5 6.5 1.5H9.5ZM8 4.5C5.51472 4.5 3.5 6.51472 3.5 9C3.5 11.4853 5.51472 13.5 8 13.5C10.4853 13.5 12.5 11.4853 12.5 9C12.5 6.51472 10.4853 4.5 8 4.5Z" fill="black"/>
</svg>
