<svg width="16" height="16" viewBox="0 0 16 16" fill="none" xmlns="http://www.w3.org/2000/svg">
<path d="M10.1465 7.14648C10.3417 6.95122 10.6583 6.95122 10.8535 7.14648C11.0488 7.34175 11.0488 7.65826 10.8535 7.85352L7.85352 10.8535C7.65826 11.0488 7.34175 11.0488 7.14648 10.8535L5.64648 9.35352C5.45122 9.15825 5.45122 8.84175 5.64648 8.64648C5.84175 8.45122 6.15825 8.45122 6.35352 8.64648L7.5 9.79297L10.1465 7.14648Z" fill="currentColor"/>
<path fill-rule="evenodd" clip-rule="evenodd" d="M9.5 1.5C9.77614 1.5 10 1.72386 10 2C10 2.27614 9.77614 2.5 9.5 2.5H8.5V3.52344C9.6431 3.62647 10.685 4.07875 11.5186 4.77344L12.2422 4.0498L11.5361 3.34375C11.341 3.14859 11.3412 2.83199 11.5361 2.63672C11.7314 2.44148 12.0479 2.44151 12.2432 2.63672L13.2979 3.69141C13.2997 3.69317 13.3019 3.69449 13.3037 3.69629C13.3052 3.69774 13.3062 3.69971 13.3076 3.70117L14.3633 4.75684C14.5584 4.95211 14.5585 5.26864 14.3633 5.46387C14.168 5.65878 13.8514 5.65891 13.6562 5.46387L12.9492 4.75684L12.2256 5.48047C13.0209 6.43429 13.5 7.66101 13.5 9C13.5 12.0376 11.0376 14.5 8 14.5C4.96243 14.5 2.5 12.0376 2.5 9C2.5 6.13101 4.69679 3.77609 7.5 3.52344V2.5H6.5C6.22386 2.5 6 2.27614 6 2C6 1.72386 6.22386 1.5 6.5 1.5H9.5ZM8 4.5C5.51472 4.5 3.5 6.51472 3.5 9C3.5 11.4853 5.51472 13.5 8 13.5C10.4853 13.5 12.5 11.4853 12.5 9C12.5 6.51472 10.4853 4.5 8 4.5Z" fill="currentColor"/>
</svg>
