<svg width="16" height="16" viewBox="0 0 16 16" fill="none" xmlns="http://www.w3.org/2000/svg">
<path d="M8 3.5C8.27614 3.5 8.5 3.72386 8.5 4V6.12793L8.97656 5.30078C9.11424 5.06156 9.4199 4.97875 9.65918 5.11621C9.89852 5.25395 9.98149 5.56047 9.84375 5.7998L8.43359 8.24902C8.32069 8.4452 8.08978 8.54172 7.87109 8.4834C7.65234 8.42494 7.5 8.22643 7.5 8V4C7.5 3.72386 7.72386 3.5 8 3.5Z" fill="currentColor"/>
<path fill-rule="evenodd" clip-rule="evenodd" d="M8 1.5C11.5899 1.5 14.5 4.41015 14.5 8C14.5 11.5899 11.5899 14.5 8 14.5C4.41015 14.5 1.5 11.5899 1.5 8C1.5 4.41015 4.41015 1.5 8 1.5ZM8 2.5C4.96243 2.5 2.5 4.96243 2.5 8C2.5 11.0376 4.96243 13.5 8 13.5C11.0376 13.5 13.5 11.0376 13.5 8C13.5 4.96243 11.0376 2.5 8 2.5Z" fill="currentColor"/>
</svg>
