<svg width="16" height="16" viewBox="0 0 16 16" fill="none" xmlns="http://www.w3.org/2000/svg">
<path d="M5.89648 6.14648C6.03948 6.00349 6.25457 5.9607 6.44141 6.03809C6.62821 6.11549 6.75 6.29779 6.75 6.5V10.5C6.74999 10.7761 6.52612 11 6.25 11C5.97388 11 5.75001 10.7761 5.75 10.5V7.66211C5.56504 7.74798 5.3391 7.71604 5.18652 7.56348C4.99128 7.36821 4.99127 7.0517 5.18652 6.85645L5.89648 6.14648Z" fill="currentColor"/>
<path fill-rule="evenodd" clip-rule="evenodd" d="M9.25 6C10.0395 6.00016 10.6805 6.64017 10.6807 7.42969C10.6807 7.7685 10.5613 8.07905 10.3643 8.32422C10.6458 8.60807 10.8193 8.99929 10.8193 9.43066C10.819 10.2973 10.1167 10.9998 9.25 11C8.38328 10.9998 7.68005 10.2973 7.67969 9.43066C7.67969 8.99952 7.85335 8.60803 8.13477 8.32422C7.9381 8.07913 7.82031 7.76826 7.82031 7.42969C7.82048 6.64017 8.46048 6.00017 9.25 6ZM9.25 8.86035C8.93534 8.86052 8.67969 9.11596 8.67969 9.43066C8.68005 9.74505 8.93556 9.99984 9.25 10C9.56443 9.99983 9.81897 9.74505 9.81934 9.43066C9.81934 9.11597 9.56466 8.86052 9.25 8.86035ZM9.25 7C9.01277 7.00017 8.82048 7.19245 8.82031 7.42969C8.82031 7.66707 9.01266 7.86018 9.25 7.86035C9.48734 7.86019 9.68066 7.66707 9.68066 7.42969C9.6805 7.19245 9.48724 7.00016 9.25 7Z" fill="currentColor"/>
<path fill-rule="evenodd" clip-rule="evenodd" d="M11 1.5C11.2761 1.5 11.5 1.72386 11.5 2V2.5H13C13.8284 2.5 14.5 3.17157 14.5 4V12.5C14.5 13.3284 13.8284 14 13 14H3C2.17157 14 1.5 13.3284 1.5 12.5V4C1.5 3.17157 2.17157 2.5 3 2.5H4.5V2C4.5 1.72386 4.72386 1.5 5 1.5C5.27614 1.5 5.5 1.72386 5.5 2V2.5H7.5V2C7.5 1.72386 7.72386 1.5 8 1.5C8.27614 1.5 8.5 1.72386 8.5 2V2.5H10.5V2C10.5 1.72386 10.7239 1.5 11 1.5ZM3 3.5C2.72386 3.5 2.5 3.72386 2.5 4V12.5C2.5 12.7761 2.72386 13 3 13H13C13.2761 13 13.5 12.7761 13.5 12.5V4C13.5 3.72386 13.2761 3.5 13 3.5H11.5V4C11.5 4.27614 11.2761 4.5 11 4.5C10.7239 4.5 10.5 4.27614 10.5 4V3.5H8.5V4C8.5 4.27614 8.27614 4.5 8 4.5C7.72386 4.5 7.5 4.27614 7.5 4V3.5H5.5V4C5.5 4.27614 5.27614 4.5 5 4.5C4.72386 4.5 4.5 4.27614 4.5 4V3.5H3Z" fill="currentColor"/>
</svg>
