<svg width="16" height="16" viewBox="0 0 16 16" fill="none" xmlns="http://www.w3.org/2000/svg">
<path d="M8 5.5C8.27614 5.5 8.5 5.72386 8.5 6V7.79297L9.35352 8.64648C9.54878 8.84175 9.54878 9.15825 9.35352 9.35352C9.15825 9.54878 8.84175 9.54878 8.64648 9.35352L7.64648 8.35352C7.55272 8.25975 7.5 8.13261 7.5 8V6C7.5 5.72386 7.72386 5.5 8 5.5Z" fill="black"/>
<path fill-rule="evenodd" clip-rule="evenodd" d="M9 1.5C9.82614 1.5 10.5 2.17386 10.5 3V4.25781C11.706 5.06508 12.5 6.4398 12.5 8C12.5 9.56001 11.7057 10.9339 10.5 11.7412V13C10.5 13.8261 9.82613 14.5 9 14.5H7C6.17387 14.5 5.50002 13.8261 5.5 13V11.7412C4.29428 10.9339 3.5 9.56001 3.5 8C3.5 6.4398 4.29402 5.06508 5.5 4.25781V3C5.5 2.17386 6.17386 1.5 7 1.5H9ZM9.5 12.2422C9.03068 12.4081 8.52616 12.5 8 12.5C7.47384 12.5 6.96932 12.4081 6.5 12.2422V13C6.50002 13.2738 6.72616 13.5 7 13.5H9C9.27384 13.5 9.49998 13.2738 9.5 13V12.2422ZM8 4.5C7.37725 4.5 6.79275 4.66311 6.28613 4.94824C6.26486 4.96318 6.24228 4.97577 6.21875 4.9873C5.19004 5.59684 4.5 6.71759 4.5 8C4.5 9.28223 5.19028 10.4021 6.21875 11.0117C6.24225 11.0232 6.26488 11.0359 6.28613 11.0508C6.79285 11.3361 7.37708 11.5 8 11.5C8.62262 11.5 9.20635 11.3358 9.71289 11.0508C9.7341 11.0359 9.75682 11.0232 9.78027 11.0117C10.8091 10.4022 11.5 9.28253 11.5 8C11.5 6.71729 10.8094 5.59674 9.78027 4.9873C9.75679 4.97574 9.73412 4.9632 9.71289 4.94824C9.20645 4.66337 8.62245 4.5 8 4.5ZM7 2.5C6.72614 2.5 6.5 2.72614 6.5 3V3.75684C6.96924 3.59095 7.47396 3.5 8 3.5C8.52604 3.5 9.03076 3.59095 9.5 3.75684V3C9.5 2.72614 9.27386 2.5 9 2.5H7Z" fill="black"/>
</svg>
