<svg width="16" height="16" viewBox="0 0 16 16" fill="none" xmlns="http://www.w3.org/2000/svg">
<path d="M8 3.5C8.27606 3.5001 8.5 3.72392 8.5 4V8C8.5 8.17888 8.40406 8.34437 8.24902 8.43359L5.79883 9.84375C5.55958 9.98102 5.25384 9.89832 5.11621 9.65918C4.97877 9.41994 5.06166 9.11427 5.30078 8.97656L7.5 7.70996V4C7.5 3.72391 7.72394 3.50009 8 3.5Z" fill="black"/>
<path fill-rule="evenodd" clip-rule="evenodd" d="M8 1.5C11.5899 1.5 14.5 4.41015 14.5 8C14.5 11.5899 11.5899 14.5 8 14.5C4.41015 14.5 1.5 11.5899 1.5 8C1.5 4.41015 4.41015 1.5 8 1.5ZM8 2.5C4.96243 2.5 2.5 4.96243 2.5 8C2.5 11.0376 4.96243 13.5 8 13.5C11.0376 13.5 13.5 11.0376 13.5 8C13.5 4.96243 11.0376 2.5 8 2.5Z" fill="black"/>
</svg>
