<svg width="16" height="16" viewBox="0 0 16 16" fill="none" xmlns="http://www.w3.org/2000/svg">
<path fill-rule="evenodd" clip-rule="evenodd" d="M11 1.50977C11.8261 1.50977 12.4999 2.18373 12.5 3.00977C12.5 4.42128 11.9478 5.76895 10.9434 6.77344L9.71191 8.00488L10.9434 9.23633C11.9373 10.2302 12.4999 11.5877 12.5 13C12.4999 13.826 11.8261 14.5 11 14.5H5C4.17394 14.5 3.50013 13.826 3.5 13C3.50006 11.5885 4.0522 10.2408 5.05664 9.23633L6.28809 8.00488L5.05664 6.77344C4.06277 5.7795 3.5 4.42206 3.5 3.00977C3.50013 2.18373 4.17394 1.50977 5 1.50977H11ZM8.34668 12.0645C8.15194 11.8697 7.83829 11.8697 7.64355 12.0645L6.20801 13.5H9.78223L8.34668 12.0645ZM5.28906 5.5C5.43033 5.70092 5.58828 5.891 5.76367 6.06641L7.27344 7.57617C7.325 7.62774 7.36467 7.69028 7.38965 7.75879L7.39062 7.75977L7.3916 7.7627C7.39199 7.76379 7.39217 7.76532 7.39258 7.7666C7.39368 7.76977 7.3951 7.77411 7.39648 7.77832C7.39926 7.78677 7.40267 7.79801 7.40625 7.81055C7.4131 7.83456 7.42211 7.87122 7.42871 7.91406C7.43479 7.95366 7.44264 8.02021 7.43359 8.09766C7.42501 8.17064 7.39451 8.31244 7.27344 8.43359L5.76367 9.94336C4.94823 10.7588 4.50006 11.8517 4.5 13C4.5001 13.2123 4.63651 13.395 4.8252 13.4668L6.93652 11.3564C7.52175 10.7715 8.46853 10.7714 9.05371 11.3564L11.166 13.4688C11.3591 13.3992 11.4999 13.2154 11.5 13C11.4999 11.8524 11.0423 10.7494 10.2363 9.94336L8.72656 8.43359C8.67505 8.38205 8.63531 8.31944 8.61035 8.25098L8.60938 8.25L8.6084 8.24707C8.608 8.24575 8.60794 8.24369 8.60742 8.24219C8.60635 8.23912 8.60483 8.23544 8.60352 8.23145C8.60073 8.22297 8.59733 8.21175 8.59375 8.19922C8.58689 8.17516 8.57789 8.13864 8.57129 8.0957C8.56521 8.0561 8.55736 7.98955 8.56641 7.91211C8.57503 7.83903 8.60552 7.69722 8.72656 7.57617L10.2363 6.06641C10.4127 5.89006 10.5707 5.70003 10.7119 5.5H5.28906ZM5 2.50977C4.72622 2.50977 4.50013 2.73602 4.5 3.00977C4.5 3.52299 4.59236 4.02721 4.76562 4.5H11.2363C11.409 4.02769 11.5 3.52438 11.5 3.00977C11.4999 2.73602 11.2738 2.50977 11 2.50977H5Z" fill="black"/>
</svg>
