<svg width="16" height="16" viewBox="0 0 16 16" fill="none" xmlns="http://www.w3.org/2000/svg">
<path d="M8.00007 5.50009C8.27618 5.50012 8.50007 5.72397 8.50007 6.00009V8.29305L9.85359 9.64657C10.0488 9.84184 10.0488 10.1584 9.85359 10.3536C9.65835 10.5488 9.34182 10.5488 9.14655 10.3536L7.64655 8.8536C7.55281 8.75985 7.5001 8.63266 7.50007 8.50008V6.00009C7.50007 5.72394 7.72393 5.50009 8.00007 5.50009Z" fill="currentColor"/>
<path fill-rule="evenodd" clip-rule="evenodd" d="M8.00007 3.00009C11.0376 3.00012 13.5001 5.46254 13.5001 8.50008C13.5 11.5376 11.0376 14 8.00007 14.0001C4.96254 14.0001 2.50012 11.5376 2.50007 8.50008C2.50007 5.46252 4.9625 3.00009 8.00007 3.00009ZM8.00007 4.00008C5.51479 4.00008 3.50007 6.0148 3.50007 8.50008C3.50012 10.9853 5.51482 13.0001 8.00007 13.0001C10.4853 13 12.5 10.9853 12.5001 8.50008C12.5001 6.01483 10.4853 4.00012 8.00007 4.00008Z" fill="currentColor"/>
<path d="M3.77058 2.30575C3.99925 2.15149 4.31031 2.211 4.46491 2.43954C4.61945 2.66815 4.55859 2.97912 4.33015 3.13387C3.38572 3.7728 2.67086 4.62596 2.18659 5.58505C2.06217 5.8315 1.7612 5.93008 1.51472 5.80575C1.26857 5.68123 1.16984 5.38119 1.29402 5.13485C1.84972 4.03423 2.67529 3.04668 3.77058 2.30575Z" fill="currentColor"/>
<path d="M11.5362 2.43954C11.691 2.21112 12.0019 2.15111 12.2305 2.30575C13.3258 3.04671 14.1505 4.03421 14.7061 5.13485C14.8304 5.38124 14.7317 5.68122 14.4854 5.80575C14.2389 5.9302 13.938 5.83155 13.8135 5.58505C13.3293 4.62592 12.6145 3.77282 11.67 3.13387C11.4414 2.97912 11.3815 2.66822 11.5362 2.43954Z" fill="currentColor"/>
</svg>
