<svg width="16" height="16" viewBox="0 0 16 16" fill="none" xmlns="http://www.w3.org/2000/svg">
<path d="M11.5 9C11.7761 9 12 9.22386 12 9.5V10.793L12.8535 11.6465C13.0488 11.8417 13.0488 12.1583 12.8535 12.3535C12.6583 12.5488 12.3417 12.5488 12.1465 12.3535L11.1465 11.3535C11.0527 11.2597 11 11.1326 11 11V9.5C11 9.22386 11.2239 9 11.5 9Z" fill="black"/>
<path fill-rule="evenodd" clip-rule="evenodd" d="M10 1.5C10.2761 1.5 10.5 1.72386 10.5 2V2.5H11.5C12.3261 2.5 13 3.17386 13 4V7.83594C14.1827 8.3976 15 9.60367 15 11C15 12.933 13.433 14.5 11.5 14.5C10.3107 14.5 9.26042 13.9066 8.62793 13H3C2.17386 13 1.5 12.3261 1.5 11.5V4C1.5 3.17386 2.17386 2.5 3 2.5H4V2C4 1.72386 4.22386 1.5 4.5 1.5C4.77614 1.5 5 1.72386 5 2V2.5H6.75V2C6.75 1.72386 6.97386 1.5 7.25 1.5C7.52614 1.5 7.75 1.72386 7.75 2V2.5H9.5V2C9.5 1.72386 9.72386 1.5 10 1.5ZM11.5 8.5C10.1193 8.5 9 9.61929 9 11C9 12.3807 10.1193 13.5 11.5 13.5C12.8807 13.5 14 12.3807 14 11C14 9.61929 12.8807 8.5 11.5 8.5ZM2.5 11.5C2.5 11.7739 2.72614 12 3 12H8.14551C8.05118 11.6831 8 11.3475 8 11C8 9.067 9.567 7.5 11.5 7.5C11.6697 7.5 11.8367 7.5118 12 7.53516V6.5H2.5V11.5ZM3 3.5C2.72614 3.5 2.5 3.72614 2.5 4V5.5H12V4C12 3.72614 11.7739 3.5 11.5 3.5H10.5V4C10.5 4.27614 10.2761 4.5 10 4.5C9.72386 4.5 9.5 4.27614 9.5 4V3.5H7.75V4C7.75 4.27614 7.52614 4.5 7.25 4.5C6.97386 4.5 6.75 4.27614 6.75 4V3.5H5V4C5 4.27614 4.77614 4.5 4.5 4.5C4.22386 4.5 4 4.27614 4 4V3.5H3Z" fill="black"/>
</svg>
