<svg width="16" height="16" viewBox="0 0 16 16" fill="none" xmlns="http://www.w3.org/2000/svg">
<path d="M8 3.5C8.27614 3.5 8.5 3.72386 8.5 4V7.86621L9.84375 10.2002C9.98149 10.4395 9.89852 10.746 9.65918 10.8838C9.4199 11.0212 9.11424 10.9384 8.97656 10.6992L7.56641 8.24902C7.52289 8.17325 7.5 8.08739 7.5 8V4C7.5 3.72386 7.72386 3.5 8 3.5Z" fill="black"/>
<path fill-rule="evenodd" clip-rule="evenodd" d="M8 1.5C11.5899 1.5 14.5 4.41015 14.5 8C14.5 11.5899 11.5899 14.5 8 14.5C4.41015 14.5 1.5 11.5899 1.5 8C1.5 4.41015 4.41015 1.5 8 1.5ZM8 2.5C4.96243 2.5 2.5 4.96243 2.5 8C2.5 11.0376 4.96243 13.5 8 13.5C11.0376 13.5 13.5 11.0376 13.5 8C13.5 4.96243 11.0376 2.5 8 2.5Z" fill="black"/>
</svg>
