<svg width="16" height="16" viewBox="0 0 16 16" fill="none" xmlns="http://www.w3.org/2000/svg">
<path d="M13 8C13 8.8 12.93 9.58 12.79 10.33C12.56 11.59 11.58 12.56 10.33 12.79C9.57 12.93 8.79 13 8 13C7.21 13 6.42 12.93 5.67 12.79C4.42 12.56 3.44 11.59 3.21 10.33C3.07 9.57 3 8.79 3 7.99C3 7.19 3.07 6.41 3.21 5.65C3.44 4.41 4.41 3.44 5.66 3.21C6.42 3.07 7.2 3 8 3C8.8 3 9.58 3.07 10.34 3.21C11.59 3.44 12.57 4.42 12.8 5.67C12.94 6.43 13.01 7.2 13.01 8H13Z" stroke="black" stroke-linecap="round" stroke-linejoin="round"/>
</svg>
