<svg width="16" height="16" viewBox="0 0 16 16" fill="none" xmlns="http://www.w3.org/2000/svg">
<path fill-rule="evenodd" clip-rule="evenodd" d="M7.99987 2.5C8.1323 2.50007 8.2597 2.55289 8.35339 2.64648L12.163 6.45605C13.3182 7.61132 13.3182 9.47853 12.163 10.6338C11.5295 11.267 10.6844 11.5451 9.8612 11.4805L10.455 12.7939C10.5249 12.9487 10.5119 13.1288 10.4198 13.2715C10.3277 13.4139 10.1694 13.4999 9.99987 13.5H5.99987C5.83038 13.4999 5.67201 13.4138 5.57995 13.2715C5.48798 13.1289 5.47401 12.9486 5.54382 12.7939L6.13659 11.4805C5.31377 11.5446 4.46889 11.2669 3.83581 10.6338C2.68079 9.47857 2.68079 7.61127 3.83581 6.45605L7.64636 2.64648L7.72253 2.58398C7.80392 2.52978 7.90064 2.50007 7.99987 2.5ZM4.54284 7.16309C3.77834 7.92778 3.77834 9.16207 4.54284 9.92676C5.15241 10.5363 6.06671 10.6502 6.80261 10.2744C6.99158 10.1781 7.22127 10.2121 7.37487 10.3584C7.52834 10.5049 7.57258 10.7324 7.48523 10.9258L6.77429 12.5H9.22448L8.51355 10.9258C8.42635 10.7324 8.4714 10.5049 8.62487 10.3584C8.77852 10.212 9.00807 10.178 9.19714 10.2744C9.93293 10.6503 10.8463 10.5361 11.4559 9.92676C12.2207 9.16202 12.2207 7.92782 11.4559 7.16309L7.9989 3.70605L4.54284 7.16309Z" fill="currentColor"/>
</svg>
