<svg width="16" height="16" viewBox="0 0 16 16" fill="none" xmlns="http://www.w3.org/2000/svg">
<path fill-rule="evenodd" clip-rule="evenodd" d="M10.3701 3.5C11.5251 3.50004 12.3318 4.02742 12.8311 4.74609C13.3149 5.44264 13.5 6.29914 13.5 7C13.5 9.09924 12.1025 10.7274 10.8184 11.7881C10.1662 12.3268 9.51666 12.7416 9.03125 13.0215C8.78799 13.1618 8.58429 13.2691 8.44043 13.3418C8.36855 13.3781 8.31135 13.4058 8.27148 13.4248C8.25154 13.4343 8.23562 13.4422 8.22461 13.4473C8.21926 13.4497 8.21501 13.4517 8.21191 13.4531C8.21033 13.4538 8.20899 13.4546 8.20801 13.4551H8.20605C8.07518 13.5142 7.92482 13.5152 7.79395 13.4561L7.79199 13.4551C7.79101 13.4546 7.78967 13.4538 7.78809 13.4531C7.78499 13.4517 7.78074 13.4497 7.77539 13.4473C7.76438 13.4422 7.74846 13.4343 7.72852 13.4248C7.68865 13.4058 7.63145 13.3781 7.55957 13.3418C7.41571 13.2691 7.21201 13.1618 6.96875 13.0215C6.48334 12.7416 5.83379 12.3268 5.18164 11.7881C3.89746 10.7274 2.5 9.09924 2.5 7C2.5 6.29914 2.68514 5.44264 3.16895 4.74609C3.66824 4.02742 4.47487 3.50004 5.62988 3.5C6.56977 3.5 7.43647 3.94693 8.00195 4.80176C8.57035 3.94723 9.43591 3.5 10.3701 3.5ZM10.3701 4.5C9.59527 4.5 8.81514 4.98036 8.48047 6.13867C8.41849 6.35323 8.22138 6.50076 7.99805 6.5C7.77489 6.49913 7.57911 6.35053 7.51855 6.13574C7.19372 4.98173 6.41619 4.5 5.62988 4.5C4.82503 4.50004 4.31591 4.84763 3.99023 5.31641C3.64924 5.80729 3.5 6.45099 3.5 7C3.5 8.64065 4.60264 10.0124 5.81836 11.0166C6.41609 11.5103 7.0167 11.8946 7.46875 12.1553C7.68788 12.2816 7.87096 12.3779 8 12.4434C8.12904 12.3779 8.31212 12.2816 8.53125 12.1553C8.9833 11.8946 9.58391 11.5103 10.1816 11.0166C11.3974 10.0124 12.5 8.64065 12.5 7C12.5 6.45099 12.3508 5.80729 12.0098 5.31641C11.6841 4.84763 11.175 4.50004 10.3701 4.5Z" fill="currentColor"/>
</svg>
