<svg width="16" height="16" viewBox="0 0 16 16" fill="none" xmlns="http://www.w3.org/2000/svg">
<path fill-rule="evenodd" clip-rule="evenodd" d="M10.168 2.50977C10.2641 2.52897 10.3535 2.57615 10.4238 2.64648L13.3535 5.57617C13.4472 5.66987 13.4999 5.79719 13.5 5.92969V10.0703C13.4999 10.2028 13.4472 10.3301 13.3535 10.4238L10.4238 13.3535C10.3301 13.4472 10.2028 13.4999 10.0703 13.5H5.92969C5.79719 13.4999 5.66987 13.4472 5.57617 13.3535L2.64648 10.4238C2.55279 10.3301 2.50008 10.2028 2.5 10.0703V5.92969C2.50008 5.79719 2.55279 5.66987 2.64648 5.57617L5.57617 2.64648C5.66987 2.55279 5.79719 2.50008 5.92969 2.5H10.0703L10.168 2.50977ZM3.5 6.13672V9.86328L6.13672 12.5H9.86328L12.5 9.86328V6.13672L9.86328 3.5H6.13672L3.5 6.13672Z" fill="black"/>
</svg>
