<svg width="16" height="16" viewBox="0 0 16 16" fill="none" xmlns="http://www.w3.org/2000/svg">
<path fill-rule="evenodd" clip-rule="evenodd" d="M7.80371 1.54008C7.94973 1.47774 8.11832 1.48834 8.25684 1.57133L13.2568 4.57133C13.2663 4.57703 13.2752 4.58363 13.2842 4.58988C13.2892 4.59333 13.294 4.59699 13.2988 4.60063C13.3227 4.6185 13.3452 4.63772 13.3652 4.65922C13.3673 4.66141 13.3691 4.66382 13.3711 4.66606C13.39 4.68707 13.4068 4.70967 13.4219 4.73344C13.424 4.73678 13.4267 4.7398 13.4287 4.7432L13.4307 4.74809C13.446 4.77417 13.4584 4.80163 13.4688 4.83012C13.4702 4.83401 13.4713 4.83793 13.4727 4.84184C13.4896 4.89227 13.5 4.94531 13.5 5.00004V11C13.5 11.1757 13.4074 11.3384 13.2568 11.4288L8.25684 14.4288C8.23717 14.4405 8.21702 14.4511 8.19629 14.46C8.1929 14.4614 8.18897 14.4616 8.18555 14.4629C8.16251 14.4722 8.13912 14.4797 8.11523 14.4854C8.10432 14.488 8.09321 14.4894 8.08203 14.4913C8.02722 14.5004 7.97179 14.5005 7.91699 14.4913C7.90582 14.4894 7.8947 14.488 7.88379 14.4854C7.85993 14.4797 7.83649 14.4722 7.81348 14.4629C7.81033 14.4617 7.80682 14.4613 7.80371 14.46C7.78298 14.4511 7.76283 14.4405 7.74316 14.4288L2.74316 11.4288C2.59257 11.3384 2.50001 11.1757 2.5 11V5.00004C2.5 4.94541 2.5095 4.89218 2.52637 4.84184C2.52767 4.83794 2.52887 4.834 2.53027 4.83012C2.55216 4.76982 2.58497 4.7139 2.62793 4.66606C2.62993 4.66382 2.63175 4.66141 2.63379 4.65922C2.6538 4.63772 2.67638 4.61851 2.7002 4.60063C2.70505 4.59699 2.70987 4.59334 2.71484 4.58988C2.72407 4.58346 2.73344 4.57716 2.74316 4.57133L7.74316 1.57133L7.80371 1.54008ZM3.5 10.7168L7.5 13.1163V8.28227L3.5 5.88188V10.7168ZM8.5 8.28227V13.1163L12.5 10.7168V5.88285L8.5 8.28227ZM3.9707 4.99906L8 7.41703L12.0283 4.99906L8 2.58207L3.9707 4.99906Z" fill="black"/>
</svg>
