<svg width="16" height="16" viewBox="0 0 16 16" fill="none" xmlns="http://www.w3.org/2000/svg">
<path fill-rule="evenodd" clip-rule="evenodd" d="M7.98315 1.5006C8.04132 1.49857 8.1005 1.50591 8.15795 1.52501C8.18817 1.53509 8.21681 1.54892 8.24389 1.56408C8.2513 1.56821 8.25815 1.57322 8.26537 1.57775C8.28311 1.5889 8.30011 1.60072 8.31615 1.61388C8.32488 1.62103 8.33325 1.62854 8.34154 1.63634C8.35875 1.65254 8.37469 1.66971 8.3894 1.6881C8.39269 1.69221 8.39695 1.69558 8.40014 1.69982L14.4001 9.69982C14.4823 9.80949 14.5158 9.94854 14.4929 10.0836C14.4697 10.2191 14.3914 10.3394 14.2771 10.4156L8.27709 14.4156C8.27346 14.4181 8.26904 14.4192 8.26537 14.4215C8.25563 14.4276 8.24631 14.4346 8.23607 14.4401C8.22729 14.4448 8.21771 14.4476 8.20873 14.4518C8.19821 14.4567 8.18821 14.4623 8.17748 14.4664C8.1513 14.4764 8.12452 14.4835 8.0974 14.4889C8.09218 14.4899 8.08702 14.4909 8.08178 14.4918C8.05713 14.4959 8.03243 14.4983 8.00756 14.4986C8.00266 14.4987 7.9978 14.4987 7.99291 14.4986C7.9343 14.4979 7.87637 14.4867 7.82104 14.4654C7.8138 14.4627 7.80667 14.4598 7.79955 14.4567C7.77908 14.4477 7.75933 14.4372 7.73998 14.4254C7.73327 14.4213 7.72601 14.4181 7.71947 14.4137L1.7224 10.4156C1.60825 10.3394 1.52976 10.2189 1.50658 10.0836C1.4837 9.94857 1.51725 9.80947 1.59936 9.69982L7.59936 1.69982C7.62416 1.66677 7.65325 1.63821 7.68432 1.61291C7.68964 1.60856 7.69439 1.60339 7.69994 1.59923C7.70219 1.59755 7.70452 1.59599 7.70678 1.59435C7.75423 1.56009 7.80737 1.53504 7.86303 1.51916C7.87531 1.51567 7.8877 1.51288 7.90014 1.51037C7.91945 1.50641 7.93901 1.50421 7.95873 1.50255C7.96689 1.50189 7.97498 1.50086 7.98315 1.5006ZM2.71654 9.87658L7.49975 13.0651V3.49962L2.71654 9.87658ZM8.49975 13.0651L13.282 9.87658L8.49975 3.49962V13.0651Z" fill="currentColor"/>
</svg>
