<svg width="16" height="16" viewBox="0 0 16 16" fill="none" xmlns="http://www.w3.org/2000/svg">
<path fill-rule="evenodd" clip-rule="evenodd" d="M7.30433 2.575C7.53289 1.85189 8.50765 1.92148 8.73206 2.56524C8.74751 2.60966 8.75389 2.6561 8.75648 2.70196L9.73304 5.69024H13.0104C13.7322 5.6906 14.0356 6.61621 13.4567 7.04278L13.4537 7.04473L10.7975 8.97051L11.8151 12.0848L11.818 12.0945C12.017 12.7486 11.2714 13.37 10.6637 12.9227L8.00941 10.9969L5.35316 12.9246L5.34632 12.9295C4.77621 13.3283 3.96542 12.7969 4.20472 12.0848L5.22132 8.97051L2.56605 7.04473L2.56702 7.04375C1.95343 6.6056 2.30197 5.69029 3.01038 5.69024H6.28675L7.30433 2.575ZM7.12562 6.34551C7.0584 6.55101 6.86626 6.6902 6.65003 6.69024H3.78089L6.10316 8.37481C6.27882 8.50224 6.35215 8.72906 6.2848 8.93536L5.39515 11.658L7.71644 9.97539L7.7848 9.9334C7.9498 9.85013 8.15018 9.86434 8.30335 9.97539L10.6237 11.658L9.73499 8.93536C9.66766 8.72908 9.74099 8.50223 9.91663 8.37481L12.2389 6.69024H9.36976C9.15359 6.69013 8.96136 6.55098 8.89417 6.34551L8.00941 3.6375L7.12562 6.34551Z" fill="currentColor"/>
</svg>
