<svg width="16" height="16" viewBox="0 0 16 16" fill="none" xmlns="http://www.w3.org/2000/svg">
<path d="M13.37 9.15001L8.80001 3.06001C8.40001 2.53001 7.60001 2.53001 7.20001 3.06001L2.63001 9.15001C2.29001 9.61001 2.40001 10.26 2.88001 10.58L7.33001 13.55C7.73001 13.82 8.26001 13.82 8.66001 13.55L13.11 10.58C13.59 10.26 13.7 9.61001 13.36 9.15001H13.37ZM8.50001 12C8.50001 12.28 8.28001 12.5 8.00001 12.5C7.72001 12.5 7.50001 12.28 7.50001 12V5C7.50001 4.72 7.72001 4.5 8.00001 4.5C8.28001 4.5 8.50001 4.72 8.50001 5V12Z" fill="black"/>
</svg>
