<svg width="16" height="16" viewBox="0 0 16 16" fill="none" xmlns="http://www.w3.org/2000/svg">
<path d="M10 9.5C10.2761 9.5 10.5 9.72386 10.5 10C10.5 10.8239 11.1761 11.5 12 11.5C12.8239 11.5 13.5 10.8239 13.5 10C13.5 9.17614 12.8239 8.5 12 8.5C11.7239 8.5 11.5 8.27614 11.5 8C11.5 7.72386 11.7239 7.5 12 7.5C12.8239 7.5 13.5 6.82386 13.5 6C13.5 5.17614 12.8239 4.5 12 4.5C11.1761 4.5 10.5 5.17614 10.5 6C10.5 6.27614 10.2761 6.5 10 6.5H6C5.72386 6.5 5.5 6.27614 5.5 6C5.5 5.17614 4.82386 4.5 4 4.5C3.17614 4.5 2.5 5.17614 2.5 6C2.5 6.82386 3.17614 7.5 4 7.5C4.27614 7.5 4.5 7.72386 4.5 8C4.5 8.27614 4.27614 8.5 4 8.5C3.17614 8.5 2.5 9.17614 2.5 10C2.5 10.8239 3.17614 11.5 4 11.5C4.82386 11.5 5.5 10.8239 5.5 10C5.5 9.72386 5.72386 9.5 6 9.5H10ZM14.5 6C14.5 6.81741 14.1016 7.54327 13.4912 8C14.1016 8.45673 14.5 9.18259 14.5 10C14.5 11.3761 13.3761 12.5 12 12.5C10.795 12.5 9.78376 11.6382 9.55078 10.5H6.44922C6.21624 11.6382 5.20499 12.5 4 12.5C2.62386 12.5 1.5 11.3761 1.5 10C1.5 9.18287 1.89779 8.45676 2.50781 8C1.89779 7.54324 1.5 6.81713 1.5 6C1.5 4.62386 2.62386 3.5 4 3.5C5.20499 3.5 6.21624 4.36176 6.44922 5.5H9.55078C9.78376 4.36176 10.795 3.5 12 3.5C13.3761 3.5 14.5 4.62386 14.5 6Z" fill="currentColor"/>
</svg>
