<svg width="16" height="16" viewBox="0 0 16 16" fill="none" xmlns="http://www.w3.org/2000/svg">
<path d="M11.5 3C11.5 2.72614 11.2739 2.5 11 2.5H5C4.72614 2.5 4.5 2.72614 4.5 3V12.793L7.64648 9.64648L7.72461 9.58203C7.91869 9.45387 8.18265 9.47562 8.35352 9.64648L11.5 12.793V3ZM12.5 14C12.5 14.2022 12.3782 14.3845 12.1914 14.4619C12.0046 14.5393 11.7895 14.4965 11.6465 14.3535L8 10.707L4.35352 14.3535C4.21052 14.4965 3.99543 14.5393 3.80859 14.4619C3.62179 14.3845 3.5 14.2022 3.5 14V3C3.5 2.17386 4.17386 1.5 5 1.5H11C11.8261 1.5 12.5 2.17386 12.5 3V14Z" fill="black"/>
</svg>
