<svg width="16" height="16" viewBox="0 0 16 16" fill="none" xmlns="http://www.w3.org/2000/svg">
<path fill-rule="evenodd" clip-rule="evenodd" d="M4.5 4.5C4.77614 4.5 5 4.72386 5 5V13C5 13.2761 4.77614 13.5 4.5 13.5H1.5C1.22386 13.5 1 13.2761 1 13V5C1 4.72386 1.22386 4.5 1.5 4.5H4.5ZM2 12.5H4V5.5H2V12.5Z" fill="currentColor"/>
<path fill-rule="evenodd" clip-rule="evenodd" d="M9.5 6.5C9.77614 6.5 10 6.72386 10 7V13C10 13.2761 9.77614 13.5 9.5 13.5H6.5C6.22386 13.5 6 13.2761 6 13V7C6 6.72386 6.22386 6.5 6.5 6.5H9.5ZM7 12.5H9V7.5H7V12.5Z" fill="currentColor"/>
<path fill-rule="evenodd" clip-rule="evenodd" d="M14.5 2.5C14.7761 2.5 15 2.72386 15 3V13C15 13.2761 14.7761 13.5 14.5 13.5H11.5C11.2239 13.5 11 13.2761 11 13V3C11 2.72386 11.2239 2.5 11.5 2.5H14.5ZM12 12.5H14V3.5H12V12.5Z" fill="currentColor"/>
</svg>
