<svg width="16" height="16" viewBox="0 0 16 16" fill="none" xmlns="http://www.w3.org/2000/svg">
<path d="M10.6465 5.64648C10.8417 5.45122 11.1583 5.45122 11.3535 5.64648C11.5488 5.84175 11.5488 6.15826 11.3535 6.35352L7.35352 10.3535C7.15825 10.5487 6.84174 10.5488 6.64648 10.3535L4.64648 8.35352C4.45123 8.15826 4.45125 7.84175 4.64648 7.64648C4.84175 7.45122 5.15825 7.45122 5.35352 7.64648L7 9.29297L10.6465 5.64648Z" fill="currentColor"/>
<path fill-rule="evenodd" clip-rule="evenodd" d="M8 1.5C11.5899 1.5 14.5 4.41015 14.5 8C14.5 11.5899 11.5899 14.5 8 14.5C4.41015 14.5 1.5 11.5899 1.5 8C1.5 4.41015 4.41015 1.5 8 1.5ZM8 2.5C4.96243 2.5 2.5 4.96243 2.5 8C2.5 11.0376 4.96243 13.5 8 13.5C11.0376 13.5 13.5 11.0376 13.5 8C13.5 4.96243 11.0376 2.5 8 2.5Z" fill="currentColor"/>
</svg>
