<svg width="16" height="16" viewBox="0 0 16 16" fill="none" xmlns="http://www.w3.org/2000/svg">
<path fill-rule="evenodd" clip-rule="evenodd" d="M3 4.5C3.82843 4.5 4.5 5.17157 4.5 6C4.5 6.65281 4.08218 7.20597 3.5 7.41211V8.79297L5.35352 10.6465C5.44728 10.7403 5.5 10.8674 5.5 11V14C5.5 14.2761 5.27614 14.5 5 14.5C4.72386 14.5 4.5 14.2761 4.5 14V11.207L2.64648 9.35352C2.55272 9.25975 2.5 9.13261 2.5 9V7.41211C1.91782 7.20597 1.5 6.65281 1.5 6C1.5 5.17157 2.17157 4.5 3 4.5ZM3 5.5C2.72386 5.5 2.5 5.72386 2.5 6C2.5 6.27614 2.72386 6.5 3 6.5C3.27614 6.5 3.5 6.27614 3.5 6C3.5 5.72386 3.27614 5.5 3 5.5Z" fill="black"/>
<path fill-rule="evenodd" clip-rule="evenodd" d="M6 1.5C6.82843 1.5 7.5 2.17157 7.5 3C7.5 3.65281 7.08218 4.20597 6.5 4.41211V8.79297L7.35352 9.64648C7.44728 9.74025 7.5 9.86739 7.5 10V14C7.5 14.2761 7.27614 14.5 7 14.5C6.72386 14.5 6.5 14.2761 6.5 14V10.207L5.64648 9.35352C5.55272 9.25975 5.5 9.13261 5.5 9V4.41211C4.91782 4.20597 4.5 3.65281 4.5 3C4.5 2.17157 5.17157 1.5 6 1.5ZM6 2.5C5.72386 2.5 5.5 2.72386 5.5 3C5.5 3.27614 5.72386 3.5 6 3.5C6.27614 3.5 6.5 3.27614 6.5 3C6.5 2.72386 6.27614 2.5 6 2.5Z" fill="black"/>
<path fill-rule="evenodd" clip-rule="evenodd" d="M10 1.5C10.8284 1.5 11.5 2.17157 11.5 3C11.5 3.65281 11.0822 4.20597 10.5 4.41211V8C10.5 8.13261 10.4473 8.25975 10.3535 8.35352L9.5 9.20703V14C9.5 14.2761 9.27614 14.5 9 14.5C8.72386 14.5 8.5 14.2761 8.5 14V9L8.50977 8.90234C8.52894 8.80611 8.57608 8.71689 8.64648 8.64648L9.5 7.79297V4.41211C8.91782 4.20597 8.5 3.65281 8.5 3C8.5 2.17157 9.17157 1.5 10 1.5ZM10 2.5C9.72386 2.5 9.5 2.72386 9.5 3C9.5 3.27614 9.72386 3.5 10 3.5C10.2761 3.5 10.5 3.27614 10.5 3C10.5 2.72386 10.2761 2.5 10 2.5Z" fill="black"/>
<path fill-rule="evenodd" clip-rule="evenodd" d="M13 4.5C13.8284 4.5 14.5 5.17157 14.5 6C14.5 6.65281 14.0822 7.20597 13.5 7.41211V8C13.5 8.13261 13.4473 8.25975 13.3535 8.35352L11.5 10.207V14C11.5 14.2761 11.2761 14.5 11 14.5C10.7239 14.5 10.5 14.2761 10.5 14V10L10.5098 9.90234C10.5289 9.80611 10.5761 9.71689 10.6465 9.64648L12.5 7.79297V7.41211C11.9178 7.20597 11.5 6.65281 11.5 6C11.5 5.17157 12.1716 4.5 13 4.5ZM13 5.5C12.7239 5.5 12.5 5.72386 12.5 6C12.5 6.27614 12.7239 6.5 13 6.5C13.2761 6.5 13.5 6.27614 13.5 6C13.5 5.72386 13.2761 5.5 13 5.5Z" fill="black"/>
</svg>
