<svg width="16" height="16" viewBox="0 0 16 16" fill="none" xmlns="http://www.w3.org/2000/svg">
<path fill-rule="evenodd" clip-rule="evenodd" d="M9.06649 2.70616C9.85172 1.92111 11.1084 1.92109 11.8936 2.70616C12.1538 2.96636 12.3231 3.27686 12.4073 3.60264C12.7372 3.68925 13.051 3.86358 13.3038 4.11631C14.0887 4.90154 14.0888 6.15828 13.3038 6.94346C12.6408 7.60641 11.6427 7.70752 10.8751 7.25108L10.1212 8.00401L10.8653 8.74815C11.6329 8.2919 12.6312 8.39387 13.294 9.05674C14.0789 9.842 14.0791 11.0987 13.294 11.8839C13.0413 12.1366 12.7273 12.3089 12.3975 12.3956C12.3135 12.722 12.1445 13.0334 11.8839 13.294C11.0987 14.0791 9.84199 14.0789 9.05673 13.294C8.39384 12.6312 8.29185 11.6329 8.74813 10.8653L8.00399 10.1212L7.25106 10.8751C7.70751 11.6427 7.6064 12.6409 6.94345 13.3038C6.15826 14.0888 4.90152 14.0887 4.1163 13.3038C3.85561 13.0431 3.68467 12.7319 3.60067 12.4054C3.27153 12.3186 2.95841 12.1459 2.70614 11.8937C1.92108 11.1084 1.92111 9.85173 2.70614 9.06651C3.36885 8.4038 4.36639 8.30206 5.13388 8.75791L5.88681 8.00401L5.13388 7.25108C4.36634 7.70721 3.36897 7.60627 2.70614 6.94346C1.92107 6.15821 1.92101 4.90153 2.70614 4.11631C2.95855 3.86391 3.27131 3.68941 3.60067 3.60264C3.68483 3.27667 3.85596 2.9665 4.1163 2.70616C4.90151 1.92105 6.15821 1.92109 6.94345 2.70616C7.60624 3.36897 7.70716 4.36637 7.25106 5.13389L8.00399 5.88682L8.7579 5.13389C8.30205 4.36641 8.40379 3.36886 9.06649 2.70616ZM11.1866 3.41319C10.7919 3.01865 10.1682 3.01867 9.77352 3.41319C9.37884 3.80788 9.37893 4.43153 9.77352 4.82627C9.86719 4.92 9.91997 5.04728 9.92001 5.17979C9.92001 5.31235 9.86722 5.43955 9.77352 5.5333L5.53329 9.77354C5.33806 9.96864 5.02149 9.96864 4.82626 9.77354C4.43151 9.37895 3.80786 9.37885 3.41317 9.77354C3.01866 10.1682 3.01864 10.7919 3.41317 11.1866C3.59354 11.3669 3.83266 11.4634 4.0538 11.4698C4.31858 11.4774 4.53133 11.6905 4.53915 11.9552C4.54554 12.1789 4.63491 12.4072 4.82333 12.5958C5.21806 12.9905 5.84168 12.9905 6.23641 12.5958C6.63075 12.2011 6.63078 11.5783 6.23641 11.1837C6.04134 10.9885 6.04132 10.6719 6.23641 10.4767L7.5997 9.11241C7.61402 9.0932 7.62913 9.07419 7.64657 9.05674C7.66402 9.03929 7.68302 9.0242 7.70224 9.00987L9.00985 7.70225C9.02418 7.68304 9.03928 7.66403 9.05673 7.64659C9.07418 7.62914 9.09317 7.61404 9.11239 7.59971L10.4766 6.23643L10.5528 6.17393C10.6343 6.11969 10.7309 6.08998 10.8302 6.08995C10.9626 6.09005 11.09 6.14285 11.1837 6.23643C11.5783 6.63078 12.2011 6.63075 12.5958 6.23643C12.9905 5.84169 12.9905 5.21808 12.5958 4.82334C12.4153 4.64309 12.1763 4.54548 11.9552 4.53916C11.6905 4.53134 11.4774 4.31859 11.4698 4.05381C11.4633 3.83009 11.3751 3.60172 11.1866 3.41319ZM8.71102 9.41416L9.76376 10.4669C9.95871 10.6622 9.9589 10.9788 9.76376 11.1739C9.3691 11.5687 9.36905 12.1923 9.76376 12.587C10.1585 12.9814 10.7822 12.9816 11.1768 12.587C11.3655 12.3984 11.4536 12.1693 11.46 11.9454C11.4678 11.6808 11.6808 11.4678 11.9454 11.4601C12.1667 11.4537 12.4065 11.3573 12.587 11.1769C12.9815 10.7822 12.9813 10.1585 12.587 9.76377C12.1923 9.36907 11.5687 9.36914 11.1739 9.76377C10.9788 9.95893 10.6622 9.95873 10.4669 9.76377L9.41415 8.71104L8.71102 9.41416ZM6.23641 3.41319C5.8417 3.01864 5.21802 3.0186 4.82333 3.41319C4.63478 3.60174 4.54564 3.83005 4.53915 4.05381C4.53158 4.31876 4.31874 4.53159 4.0538 4.53916C3.83261 4.54559 3.59356 4.64297 3.41317 4.82334C3.01856 5.21803 3.01862 5.84171 3.41317 6.23643C3.80789 6.63112 4.43152 6.63108 4.82626 6.23643L4.90243 6.17393C4.98394 6.11957 5.08036 6.08997 5.17977 6.08995C5.3123 6.08995 5.43954 6.14276 5.53329 6.23643L6.59384 7.29698L7.29696 6.59385L6.23641 5.5333C6.14275 5.43955 6.08993 5.31232 6.08993 5.17979C6.08998 5.04725 6.14269 4.92 6.23641 4.82627C6.63105 4.43154 6.6311 3.80789 6.23641 3.41319Z" fill="currentColor"/>
</svg>
