<svg width="16" height="16" viewBox="0 0 16 16" fill="none" xmlns="http://www.w3.org/2000/svg">
<path d="M9.64648 5.64648C9.84175 5.45122 10.1583 5.45122 10.3535 5.64648C10.5488 5.84175 10.5488 6.15825 10.3535 6.35352L8.70703 8L10.3535 9.64648C10.5488 9.84175 10.5488 10.1583 10.3535 10.3535C10.1583 10.5488 9.84175 10.5488 9.64648 10.3535L8 8.70703L6.35352 10.3535C6.15825 10.5488 5.84175 10.5488 5.64648 10.3535C5.45122 10.1583 5.45123 9.84175 5.64648 9.64648L7.29297 8L5.64648 6.35352C5.45122 6.15825 5.45123 5.84175 5.64648 5.64648C5.84175 5.45122 6.15825 5.45122 6.35352 5.64648L8 7.29297L9.64648 5.64648Z" fill="currentColor"/>
<path fill-rule="evenodd" clip-rule="evenodd" d="M8 1.5C11.5899 1.5 14.5 4.41015 14.5 8C14.5 11.5899 11.5899 14.5 8 14.5C4.41015 14.5 1.5 11.5899 1.5 8C1.5 4.41015 4.41015 1.5 8 1.5ZM8 2.5C4.96243 2.5 2.5 4.96243 2.5 8C2.5 11.0376 4.96243 13.5 8 13.5C11.0376 13.5 13.5 11.0376 13.5 8C13.5 4.96243 11.0376 2.5 8 2.5Z" fill="currentColor"/>
</svg>
