<svg width="16" height="16" viewBox="0 0 16 16" fill="none" xmlns="http://www.w3.org/2000/svg">
<path d="M11.6465 3.64651C11.8418 3.45125 12.1583 3.45125 12.3536 3.64651C12.5488 3.84177 12.5488 4.15829 12.3536 4.35354L8.70707 8.00002L12.3536 11.6465C12.5488 11.8418 12.5488 12.1583 12.3536 12.3535C12.1583 12.5488 11.8418 12.5488 11.6465 12.3535L8.00004 8.70705L4.35355 12.3535C4.15831 12.5488 3.84179 12.5488 3.64652 12.3535C3.45126 12.1583 3.45126 11.8418 3.64652 11.6465L7.29301 8.00002L3.64652 4.35354C3.45126 4.15828 3.45126 3.84177 3.64652 3.64651C3.84179 3.45125 4.15829 3.45125 4.35355 3.64651L8.00004 7.29299L11.6465 3.64651Z" fill="currentColor"/>
</svg>
