<svg width="16" height="16" viewBox="0 0 16 16" fill="none" xmlns="http://www.w3.org/2000/svg">
<path fill-rule="evenodd" clip-rule="evenodd" d="M11 9.25C11.9665 9.25 12.75 10.0335 12.75 11C12.75 11.9665 11.9665 12.75 11 12.75C10.0335 12.75 9.25 11.9665 9.25 11C9.25 10.0335 10.0335 9.25 11 9.25ZM11 10.25C10.5858 10.25 10.25 10.5858 10.25 11C10.25 11.4142 10.5858 11.75 11 11.75C11.4142 11.75 11.75 11.4142 11.75 11C11.75 10.5858 11.4142 10.25 11 10.25Z" fill="black"/>
<path d="M11.6465 3.64648C11.8417 3.45122 12.1583 3.45122 12.3535 3.64648C12.5488 3.84175 12.5488 4.15826 12.3535 4.35352L4.35352 12.3535C4.15826 12.5488 3.84175 12.5488 3.64648 12.3535C3.45122 12.1583 3.45122 11.8417 3.64648 11.6465L11.6465 3.64648Z" fill="black"/>
<path fill-rule="evenodd" clip-rule="evenodd" d="M5 3.25C5.9665 3.25 6.75 4.0335 6.75 5C6.75 5.9665 5.9665 6.75 5 6.75C4.0335 6.75 3.25 5.9665 3.25 5C3.25 4.0335 4.0335 3.25 5 3.25ZM5 4.25C4.58579 4.25 4.25 4.58579 4.25 5C4.25 5.41421 4.58579 5.75 5 5.75C5.41421 5.75 5.75 5.41421 5.75 5C5.75 4.58579 5.41421 4.25 5 4.25Z" fill="black"/>
</svg>
