<svg width="16" height="16" viewBox="0 0 16 16" fill="none" xmlns="http://www.w3.org/2000/svg">
<path d="M11.75 12.75C12.0261 12.75 12.25 12.9739 12.25 13.25C12.25 13.5261 12.0261 13.75 11.75 13.75H4.25C3.97386 13.75 3.75 13.5261 3.75 13.25C3.75 12.9739 3.97386 12.75 4.25 12.75H11.75Z" fill="currentColor"/>
<path d="M8 2C8.27614 2 8.5 2.22386 8.5 2.5V5.75H11.75C12.0261 5.75 12.25 5.97386 12.25 6.25C12.25 6.52614 12.0261 6.75 11.75 6.75H8.5V10C8.5 10.2761 8.27614 10.5 8 10.5C7.72386 10.5 7.5 10.2761 7.5 10V6.75H4.25C3.97386 6.75 3.75 6.52614 3.75 6.25C3.75 5.97386 3.97386 5.75 4.25 5.75H7.5V2.5C7.5 2.22386 7.72386 2 8 2Z" fill="currentColor"/>
</svg>
