<svg width="16" height="16" viewBox="0 0 16 16" fill="none" xmlns="http://www.w3.org/2000/svg">
<path d="M8 11.25C8.41421 11.25 8.75 11.5858 8.75 12C8.75 12.4142 8.41421 12.75 8 12.75C7.58579 12.75 7.25 12.4142 7.25 12C7.25 11.5858 7.58579 11.25 8 11.25Z" fill="currentColor"/>
<path d="M8 3.5C9.37614 3.5 10.5 4.62386 10.5 6C10.5 7.10207 9.78601 8.03786 8.79004 8.37402H8.78809C8.64386 8.4221 8.50015 8.60775 8.5 8.84961V9.5C8.5 9.77614 8.27614 10 8 10C7.72386 10 7.5 9.77614 7.5 9.5V8.84961C7.50015 8.27237 7.83546 7.63829 8.46973 7.42578C9.07373 7.22193 9.5 6.65791 9.5 6C9.5 5.17614 8.82386 4.5 8 4.5C7.17614 4.5 6.5 5.17614 6.5 6C6.5 6.27614 6.27614 6.5 6 6.5C5.72386 6.5 5.5 6.27614 5.5 6C5.5 4.62386 6.62386 3.5 8 3.5Z" fill="currentColor"/>
</svg>
