<svg width="16" height="16" viewBox="0 0 16 16" fill="none" xmlns="http://www.w3.org/2000/svg">
<path fill-rule="evenodd" clip-rule="evenodd" d="M8.75 4.5C9.99614 4.5 11 5.50386 11 6.75C11 7.80675 10.2772 8.68585 9.29785 8.92969L10.4248 10.7354C10.5707 10.9695 10.4986 11.2776 10.2646 11.4238C10.0305 11.5698 9.72237 11.4987 9.57617 11.2646L8.16309 9H6.5V11C6.5 11.2761 6.27614 11.5 6 11.5C5.72386 11.5 5.5 11.2761 5.5 11V5C5.5 4.72386 5.72386 4.5 6 4.5H8.75ZM6.5 8H8.75C9.44386 8 10 7.44386 10 6.75C10 6.05614 9.44386 5.5 8.75 5.5H6.5V8Z" fill="currentColor"/>
<path fill-rule="evenodd" clip-rule="evenodd" d="M8 1.5C11.5899 1.5 14.5 4.41015 14.5 8C14.5 11.5899 11.5899 14.5 8 14.5C4.41015 14.5 1.5 11.5899 1.5 8C1.5 4.41015 4.41015 1.5 8 1.5ZM8 2.5C4.96243 2.5 2.5 4.96243 2.5 8C2.5 11.0376 4.96243 13.5 8 13.5C11.0376 13.5 13.5 11.0376 13.5 8C13.5 4.96243 11.0376 2.5 8 2.5Z" fill="currentColor"/>
</svg>
