<svg width="16" height="16" viewBox="0 0 16 16" fill="none" xmlns="http://www.w3.org/2000/svg">
<path fill-rule="evenodd" clip-rule="evenodd" d="M8 1.5C8.27614 1.5 8.5 1.72386 8.5 2V2.5H14C14.2761 2.5 14.5 2.72386 14.5 3C14.5 3.27614 14.2761 3.5 14 3.5H13.5V9C13.5 9.82614 12.8261 10.5 12 10.5H9.20703L12.3535 13.6465C12.5487 13.8417 12.5488 14.1583 12.3535 14.3535C12.1583 14.5488 11.8417 14.5487 11.6465 14.3535L8.5 11.207V14C8.5 14.2761 8.27614 14.5 8 14.5C7.72386 14.5 7.5 14.2761 7.5 14V11.207L4.35352 14.3535C4.15827 14.5488 3.84175 14.5487 3.64648 14.3535C3.45122 14.1583 3.45122 13.8417 3.64648 13.6465L6.79297 10.5H4C3.17386 10.5 2.5 9.82614 2.5 9V3.5H2C1.72386 3.5 1.5 3.27614 1.5 3C1.5 2.72386 1.72386 2.5 2 2.5H7.5V2C7.5 1.72386 7.72386 1.5 8 1.5ZM3.5 9C3.5 9.27386 3.72614 9.5 4 9.5H12C12.2739 9.5 12.5 9.27386 12.5 9V3.5H3.5V9Z" fill="black"/>
</svg>
