<svg width="16" height="16" viewBox="0 0 16 16" fill="none" xmlns="http://www.w3.org/2000/svg">
<path d="M13.4905 6.69983C13.4904 6.02658 13.3055 5.23584 12.8821 4.62854C12.4738 4.04304 11.8351 3.61001 10.8401 3.60999C9.85326 3.60999 8.8863 4.21234 8.48167 5.64612C8.42086 5.8613 8.22386 6.0102 8.00023 6.01038C7.77661 6.01048 7.57987 5.86125 7.51878 5.64612C7.11382 4.22056 6.14538 3.61014 5.16039 3.60999C4.16068 3.60999 3.52153 4.04513 3.11449 4.63147C2.69213 5.23991 2.51002 6.03088 2.50999 6.69983C2.50999 8.70531 3.8598 10.3747 5.32347 11.5856C6.04507 12.1825 6.76974 12.6473 7.31468 12.9625C7.58647 13.1197 7.81236 13.2395 7.96898 13.319C7.97929 13.3242 7.98955 13.3287 7.99925 13.3336C8.00944 13.3285 8.02061 13.3245 8.03148 13.319C8.18809 13.2398 8.41399 13.1203 8.68578 12.9635C9.23059 12.6491 9.95459 12.1856 10.676 11.5895C12.1394 10.3802 13.4905 8.71062 13.4905 6.69983ZM14.4905 6.69983C14.4905 9.16886 12.8452 11.0943 11.3137 12.36C10.5377 13.0013 9.76403 13.496 9.18578 13.8297C8.89613 13.9969 8.65356 14.1241 8.48265 14.2106C8.39724 14.2538 8.32954 14.2867 8.28246 14.3092C8.25889 14.3205 8.24065 14.3296 8.22777 14.3356C8.22159 14.3384 8.21671 14.3408 8.21312 14.3424C8.21131 14.3432 8.20933 14.3439 8.20824 14.3444L8.20726 14.3453C8.10886 14.3899 7.99854 14.4009 7.89476 14.3785L7.7932 14.3453L7.79124 14.3444C7.79015 14.3439 7.78818 14.3432 7.78636 14.3424C7.78279 14.3408 7.77791 14.3385 7.77171 14.3356C7.75887 14.3296 7.74049 14.3204 7.71703 14.3092C7.67001 14.2867 7.60209 14.2538 7.51683 14.2106C7.34593 14.1239 7.10336 13.9953 6.81371 13.8278C6.23555 13.4933 5.4626 12.9979 4.68675 12.3561C3.15555 11.0895 1.50999 9.16419 1.50999 6.69983C1.51002 5.87886 1.72815 4.87511 2.2932 4.06116C2.87367 3.22502 3.81012 2.60999 5.16039 2.60999C6.29373 2.61011 7.33986 3.17245 7.99828 4.25549C8.65707 3.16673 9.70613 2.60999 10.8401 2.60999C12.1848 2.61001 13.1206 3.222 13.7024 4.05627C14.2689 4.86888 14.4904 5.87314 14.4905 6.69983Z" fill="currentColor"/>
</svg>
