<svg width="16" height="16" viewBox="0 0 16 16" fill="none" xmlns="http://www.w3.org/2000/svg">
<path fill-rule="evenodd" clip-rule="evenodd" d="M7.30431 2.575C7.53288 1.85189 8.50764 1.92148 8.73205 2.56524C8.7475 2.60966 8.75388 2.6561 8.75646 2.70196L9.73302 5.69024H13.0104C13.7321 5.6906 14.0356 6.61621 13.4567 7.04278L13.4537 7.04473L10.7975 8.97051L11.8151 12.0848L11.818 12.0945C12.017 12.7486 11.2714 13.37 10.6637 12.9227L8.00939 10.9969L5.35314 12.9246L5.3463 12.9295C4.77619 13.3283 3.9654 12.7969 4.2047 12.0848L5.2213 8.97051L2.56603 7.04473L2.56701 7.04375C1.95342 6.6056 2.30195 5.69029 3.01037 5.69024H6.28673L7.30431 2.575ZM7.1256 6.34551C7.05839 6.55101 6.86624 6.6902 6.65002 6.69024H3.78088L6.10314 8.37481C6.2788 8.50224 6.35213 8.72906 6.28478 8.93536L5.39513 11.658L7.71642 9.97539L7.78478 9.9334C7.94978 9.85013 8.15016 9.86434 8.30334 9.97539L10.6236 11.658L9.73498 8.93536C9.66764 8.72908 9.74097 8.50223 9.91662 8.37481L12.2389 6.69024H9.36974C9.15357 6.69013 8.96135 6.55098 8.89416 6.34551L8.00939 3.6375L7.1256 6.34551Z" fill="currentColor"/>
</svg>
