<svg width="16" height="16" viewBox="0 0 16 16" fill="none" xmlns="http://www.w3.org/2000/svg">
<path d="M7.99995 1.5C8.18974 1.5 8.36369 1.6074 8.44819 1.77734L10.1015 5.10352L13.7841 5.65527C13.9717 5.68339 14.1271 5.81559 14.1855 5.99609C14.2439 6.17656 14.195 6.37411 14.0595 6.50684L11.4062 9.10352L12.0234 12.7666C12.0549 12.9537 11.9776 13.1433 11.8242 13.2549C11.6707 13.3664 11.467 13.3806 11.2988 13.293L7.99995 11.5732L4.70112 13.293C4.53289 13.3807 4.32919 13.3664 4.17573 13.2549C4.02226 13.1433 3.94501 12.9537 3.97651 12.7666L4.59272 9.10352L1.94038 6.50684C1.80491 6.37412 1.75601 6.17653 1.8144 5.99609C1.87282 5.81562 2.02818 5.68341 2.21577 5.65527L5.89741 5.10352L7.55268 1.77734L7.58784 1.7168C7.68021 1.58231 7.83384 1.50001 7.99995 1.5ZM6.67768 5.78223C6.60499 5.92843 6.46513 6.03051 6.30366 6.05469L3.35737 6.49512L5.47944 8.57227C5.59631 8.68667 5.65005 8.85141 5.62299 9.0127L5.12885 11.9414L7.7685 10.5664C7.91333 10.4909 8.08656 10.4909 8.23139 10.5664L10.8701 11.9414L10.3769 9.0127C10.3499 8.85142 10.4036 8.68667 10.5205 8.57227L12.6415 6.49512L9.69624 6.05469C9.53476 6.03051 9.3949 5.92843 9.32221 5.78223L7.99995 3.12305L6.67768 5.78223Z" fill="black"/>
</svg>
