<svg width="16" height="16" viewBox="0 0 16 16" fill="none" xmlns="http://www.w3.org/2000/svg">
<path d="M10.2803 2L10.3779 2.00977C10.4741 2.02897 10.5634 2.07615 10.6338 2.14648L13.8535 5.36621C13.9472 5.45991 13.9999 5.58722 14 5.71973V10.2803C13.9999 10.4128 13.9472 10.5401 13.8535 10.6338L10.6338 13.8535C10.5401 13.9472 10.4128 13.9999 10.2803 14H5.71973C5.58722 13.9999 5.45991 13.9472 5.36621 13.8535L2.14648 10.6338C2.05278 10.5401 2.00007 10.4128 2 10.2803V5.71973C2.00007 5.58722 2.05278 5.45991 2.14648 5.36621L5.36621 2.14648C5.45991 2.05278 5.58722 2.00007 5.71973 2H10.2803ZM3 5.92676V10.0732L5.92676 13H10.0732L13 10.0732V5.92676L10.0732 3H5.92676L3 5.92676Z" fill="currentColor"/>
</svg>
