<svg width="16" height="16" viewBox="0 0 16 16" fill="none" xmlns="http://www.w3.org/2000/svg">
<path d="M7.99982 1.5C8.15168 1.5 8.29556 1.56895 8.39045 1.6875L13.1903 7.6875C13.3363 7.87011 13.3363 8.12989 13.1903 8.3125L8.39045 14.3125C8.29556 14.431 8.15168 14.5 7.99982 14.5C7.84801 14.4999 7.70404 14.4311 7.6092 14.3125L2.80939 8.3125C2.66331 8.12989 2.66331 7.87011 2.80939 7.6875L7.6092 1.6875L7.68928 1.6084C7.77679 1.53896 7.88596 1.50005 7.99982 1.5ZM3.83967 8L7.99982 13.1992L12.159 8L7.99982 2.7998L3.83967 8Z" fill="black"/>
</svg>
