<svg width="16" height="16" viewBox="0 0 16 16" fill="none" xmlns="http://www.w3.org/2000/svg">
<path d="M11.5 3.5C11.7761 3.5 12 3.72386 12 4C12 4.27614 11.7761 4.5 11.5 4.5H5.70703L8.85352 7.64648C9.04878 7.84175 9.04878 8.15825 8.85352 8.35352L5.70703 11.5H11.5C11.7761 11.5 12 11.7239 12 12C12 12.2761 11.7761 12.5 11.5 12.5H4.5C4.29779 12.5 4.11549 12.3782 4.03809 12.1914C3.9607 12.0046 4.00349 11.7895 4.14649 11.6465L7.79297 8L4.14649 4.35352C4.00349 4.21052 3.9607 3.99543 4.03809 3.80859C4.11549 3.62179 4.29779 3.5 4.5 3.5H11.5Z" fill="currentColor"/>
</svg>
