<svg width="16" height="16" viewBox="0 0 16 16" fill="none" xmlns="http://www.w3.org/2000/svg">
<path d="M8 9.5C8.27614 9.5 8.5 9.72386 8.5 10V10.5C8.5 10.7761 8.27614 11 8 11C7.72386 11 7.5 10.7761 7.5 10.5V10C7.5 9.72386 7.72386 9.5 8 9.5Z" fill="black"/>
<path d="M6.39648 6.64648C6.59175 6.45122 6.90825 6.45122 7.10352 6.64648C7.29877 6.84175 7.29878 7.15826 7.10352 7.35352L6.45703 8L7.10352 8.64648C7.29877 8.84175 7.29878 9.15826 7.10352 9.35352C6.90825 9.54875 6.59174 9.54876 6.39648 9.35352L5.75 8.70703L5.10352 9.35352C4.90825 9.54875 4.59174 9.54876 4.39648 9.35352C4.20123 9.15826 4.20125 8.84175 4.39648 8.64648L5.04297 8L4.39648 7.35352C4.20123 7.15826 4.20125 6.84175 4.39648 6.64648C4.59175 6.45122 4.90825 6.45122 5.10352 6.64648L5.75 7.29297L6.39648 6.64648Z" fill="black"/>
<path d="M10.8965 6.64648C11.0917 6.45122 11.4083 6.45122 11.6035 6.64648C11.7988 6.84175 11.7988 7.15826 11.6035 7.35352L10.957 8L11.6035 8.64648C11.7988 8.84175 11.7988 9.15826 11.6035 9.35352C11.4083 9.54875 11.0917 9.54876 10.8965 9.35352L10.25 8.70703L9.60352 9.35352C9.40825 9.54875 9.09174 9.54876 8.89648 9.35352C8.70123 9.15826 8.70125 8.84175 8.89648 8.64648L9.54297 8L8.89648 7.35352C8.70123 7.15826 8.70125 6.84175 8.89648 6.64648C9.09175 6.45122 9.40825 6.45122 9.60352 6.64648L10.25 7.29297L10.8965 6.64648Z" fill="black"/>
<path fill-rule="evenodd" clip-rule="evenodd" d="M8.02051 1.5C11.0564 1.50026 13.5205 3.96402 13.5205 7V10C13.5205 10.826 12.8464 11.4997 12.0205 11.5H11.5205V12C11.5205 12.0559 11.5091 12.109 11.4922 12.1592C11.4123 12.9107 10.7729 13.4995 10.001 13.5C9.61822 13.5 9.26509 13.3576 8.99902 13.1191C8.73605 13.3534 8.3907 13.4998 8.01074 13.5C7.63421 13.5 7.27933 13.3577 7.01074 13.1182C6.74754 13.3533 6.40125 13.4999 6.02051 13.5C5.19437 13.5 4.52051 12.8261 4.52051 12V11.5H4.02051C3.19437 11.5 2.51953 10.8261 2.51953 10V7C2.51953 3.96386 4.98437 1.5 8.02051 1.5ZM8.02051 2.5C5.53665 2.5 3.52051 4.51614 3.52051 7V10C3.52051 10.2739 3.74665 10.5 4.02051 10.5H5.02051C5.29643 10.5003 5.52051 10.724 5.52051 11V12C5.52051 12.2739 5.74665 12.5 6.02051 12.5C6.23035 12.4998 6.42789 12.3524 6.49512 12.1455C6.56291 11.9295 6.76064 11.7627 7.01172 11.7627C7.26102 11.7629 7.4488 11.9254 7.52441 12.1143C7.53026 12.1289 7.5356 12.1441 7.54004 12.1592C7.59615 12.3506 7.78721 12.5 8.01074 12.5C8.2205 12.4997 8.41815 12.3523 8.48535 12.1455C8.55317 11.9296 8.75088 11.7627 9.00195 11.7627C9.25119 11.763 9.43908 11.9254 9.51465 12.1143C9.5205 12.1289 9.52583 12.144 9.53027 12.1592C9.58721 12.3535 9.77045 12.5 10.001 12.5C10.2744 12.4995 10.501 12.2735 10.501 12C10.501 11.9538 10.5088 11.9096 10.5205 11.8672V11C10.5205 10.7239 10.7444 10.5 11.0205 10.5H12.0205C12.2941 10.4997 12.5205 10.2737 12.5205 10V7C12.5205 4.51631 10.5041 2.50026 8.02051 2.5Z" fill="black"/>
</svg>
