<svg width="16" height="16" viewBox="0 0 16 16" fill="none" xmlns="http://www.w3.org/2000/svg">
<path fill-rule="evenodd" clip-rule="evenodd" d="M8 1.5C11.5899 1.5 14.5 4.41015 14.5 8C14.5 11.5899 11.5899 14.5 8 14.5C4.41015 14.5 1.5 11.5899 1.5 8C1.5 4.41015 4.41015 1.5 8 1.5ZM3.77344 4.48047C2.97837 5.43422 2.5 6.66123 2.5 8C2.5 11.0376 4.96243 13.5 8 13.5C9.33845 13.5 10.5639 13.0203 11.5176 12.2256L3.77344 4.48047ZM8 2.5C6.66123 2.5 5.43422 2.97837 4.48047 3.77344L12.2256 11.5176C13.0203 10.5639 13.5 9.33845 13.5 8C13.5 4.96243 11.0376 2.5 8 2.5Z" fill="currentColor"/>
</svg>
