<svg width="16" height="16" viewBox="0 0 16 16" fill="none" xmlns="http://www.w3.org/2000/svg">
<path fill-rule="evenodd" clip-rule="evenodd" d="M4.75098 2.36644C6.83059 1.17499 9.29999 1.25176 11.248 2.36644C11.3632 2.43235 11.4477 2.54114 11.4824 2.66917C11.517 2.79739 11.4999 2.93496 11.4336 3.05003L9.65625 6.13109C10.054 6.4838 10.3404 6.95923 10.4502 7.50023H14C14.2761 7.50023 14.5 7.72408 14.5 8.00023C14.4999 10.2509 13.341 12.4308 11.249 13.634C11.0099 13.7712 10.7042 13.6883 10.5664 13.4494L8.79102 10.3694C8.54216 10.4524 8.27677 10.5002 8 10.5002C7.7229 10.5002 7.45711 10.4526 7.20801 10.3694L5.43359 13.4494C5.29592 13.6881 4.99008 13.771 4.75098 13.634C3.78552 13.0807 2.96165 12.2778 2.36719 11.2512L2.36523 11.2473C1.78206 10.2213 1.50004 9.10591 1.5 8.00023C1.5 7.72408 1.72386 7.50023 2 7.50023H5.5498C5.65951 6.95948 5.94535 6.48375 6.34277 6.13109L4.56641 3.05003C4.50017 2.93508 4.4831 2.79824 4.51758 2.67015C4.55217 2.54209 4.63597 2.4325 4.75098 2.36644ZM2.52539 8.50023C2.59554 9.26738 2.82563 10.0323 3.23242 10.7492C3.64808 11.4672 4.19492 12.0505 4.82812 12.4953L6.34277 9.86741C5.94585 9.51491 5.6595 9.04046 5.5498 8.50023H2.52539ZM10.4502 8.50023C10.3404 9.04071 10.0535 9.51486 9.65625 9.86741L11.1709 12.4953C12.5286 11.5431 13.333 10.0693 13.4746 8.50023H10.4502ZM8 6.50023C7.73042 6.50023 7.47741 6.57105 7.25879 6.69554C7.25553 6.69752 7.25332 6.70144 7.25 6.70335C7.24761 6.70473 7.24459 6.70495 7.24219 6.70628C6.7984 6.96679 6.5 7.44843 6.5 8.00023C6.50011 8.82856 7.17164 9.50023 8 9.50023C8.82836 9.50023 9.49989 8.82856 9.5 8.00023C9.5 7.44813 9.20103 6.96669 8.75684 6.70628C8.75469 6.70508 8.75214 6.70458 8.75 6.70335C8.74643 6.70129 8.74374 6.69767 8.74023 6.69554C8.52178 6.57131 8.26927 6.50023 8 6.50023ZM10.3027 3.00706C8.87525 2.35446 7.19552 2.31772 5.69629 3.00609L7.20801 5.63011C7.45707 5.54691 7.72296 5.50023 8 5.50023C8.27671 5.50023 8.54221 5.5471 8.79102 5.63011L10.3027 3.00706Z" fill="black"/>
</svg>
