<svg width="16" height="16" viewBox="0 0 16 16" fill="none" xmlns="http://www.w3.org/2000/svg">
<path fill-rule="evenodd" clip-rule="evenodd" d="M8 2.50977C9.54451 2.50977 10.8092 3.7621 10.8096 5.31934C10.8096 5.62284 10.7599 5.91535 10.6709 6.18945C10.6773 6.18941 10.6841 6.18945 10.6904 6.18945C12.2363 6.18969 13.4999 7.45411 13.5 9C13.4999 10.5445 12.2477 11.8093 10.6904 11.8096C10.4405 11.8096 10.1987 11.7763 9.96875 11.7158L10.4561 12.7939C10.5258 12.9485 10.5117 13.128 10.4199 13.2705C10.3278 13.4131 10.1698 13.5 10 13.5H6C5.83023 13.5 5.67217 13.4131 5.58008 13.2705C5.48826 13.128 5.47419 12.9485 5.54395 12.7939L6.03027 11.7158C5.80064 11.7761 5.55915 11.8096 5.30957 11.8096C3.7637 11.8093 2.50013 10.5459 2.5 9C2.50013 7.45552 3.7523 6.18968 5.30957 6.18945C5.31562 6.18945 5.32209 6.18941 5.32812 6.18945C5.23918 5.91543 5.19043 5.62273 5.19043 5.31934C5.1908 3.7735 6.45408 2.50977 8 2.50977ZM8 3.50977C7.00637 3.50977 6.1908 4.32578 6.19043 5.31934C6.19043 5.82107 6.39344 6.27619 6.72363 6.60645C6.89838 6.78134 6.91918 7.0579 6.77246 7.25684C6.6253 7.45579 6.35432 7.51732 6.13574 7.40137C5.88026 7.26566 5.60939 7.18945 5.30957 7.18945C4.3074 7.18968 3.50013 8.00498 3.5 9C3.50013 9.99361 4.31598 10.8093 5.30957 10.8096C5.92932 10.8096 6.47021 10.5055 6.80078 10.0332C6.94872 9.82212 7.23289 9.75755 7.45703 9.88477C7.68121 10.0124 7.77192 10.2903 7.66602 10.5254L6.77441 12.5H9.22559L8.33398 10.5254C8.22808 10.2903 8.31879 10.0124 8.54297 9.88477C8.76711 9.75755 9.05128 9.82212 9.19922 10.0332C9.52979 10.5055 10.0707 10.8096 10.6904 10.8096C11.6926 10.8093 12.4999 9.99502 12.5 9C12.4999 8.00639 11.684 7.18969 10.6904 7.18945C10.3995 7.18945 10.1186 7.26624 9.86426 7.40137C9.64568 7.51732 9.3747 7.45579 9.22754 7.25684C9.08082 7.0579 9.10162 6.78134 9.27637 6.60645C9.60656 6.27619 9.80957 5.82107 9.80957 5.31934C9.8092 4.3172 8.99504 3.50977 8 3.50977Z" fill="black"/>
</svg>
