<svg width="16" height="16" viewBox="0 0 16 16" fill="none" xmlns="http://www.w3.org/2000/svg">
<path d="M8 6.59L7.24 5.83C5.31 3.89 2 5.26 2 8C2 10.74 5.31 12.11 7.24 10.17L8 9.41M8 6.59L8.76 5.83C10.69 3.9 14 5.27 14 8C14 10.73 10.69 12.1 8.76 10.17L8 9.41M8 6.59L9.41 8M8 9.41L6.59 8M6.59 8L5.83 7.24C5.16 6.57 4 7.04 4 8C4 8.96 5.15 9.44 5.83 8.76L6.59 8ZM9.41 8L10.17 8.76C10.84 9.43 12 8.96 12 8C12 7.04 10.85 6.56 10.17 7.24L9.41 8Z" stroke="black" stroke-linecap="round" stroke-linejoin="round"/>
</svg>
