<svg width="16" height="16" viewBox="0 0 16 16" fill="none" xmlns="http://www.w3.org/2000/svg">
<path fill-rule="evenodd" clip-rule="evenodd" d="M8 10C8.82843 10 9.5 10.6716 9.5 11.5C9.5 12.3284 8.82843 13 8 13C7.17157 13 6.5 12.3284 6.5 11.5C6.5 10.6716 7.17157 10 8 10ZM8 11C7.72386 11 7.5 11.2239 7.5 11.5C7.5 11.7761 7.72386 12 8 12C8.27614 12 8.5 11.7761 8.5 11.5C8.5 11.2239 8.27614 11 8 11Z" fill="black"/>
<path fill-rule="evenodd" clip-rule="evenodd" d="M12 6.5C12.2761 6.5 12.5 6.72386 12.5 7V9C12.5 9.27614 12.2761 9.5 12 9.5H4C3.72386 9.5 3.5 9.27614 3.5 9V7C3.5 6.72386 3.72386 6.5 4 6.5H12ZM4.5 8.5H11.5V7.5H4.5V8.5Z" fill="black"/>
<path fill-rule="evenodd" clip-rule="evenodd" d="M8 3C8.82843 3 9.5 3.67157 9.5 4.5C9.5 5.32843 8.82843 6 8 6C7.17157 6 6.5 5.32843 6.5 4.5C6.5 3.67157 7.17157 3 8 3ZM8 4C7.72386 4 7.5 4.22386 7.5 4.5C7.5 4.77614 7.72386 5 8 5C8.27614 5 8.5 4.77614 8.5 4.5C8.5 4.22386 8.27614 4 8 4Z" fill="black"/>
</svg>
