<svg width="16" height="16" viewBox="0 0 16 16" fill="none" xmlns="http://www.w3.org/2000/svg">
<path fill-rule="evenodd" clip-rule="evenodd" d="M9 2.5C9.27614 2.5 9.5 2.72386 9.5 3V6.5H13C13.2761 6.5 13.5 6.72386 13.5 7V9C13.5 9.27614 13.2761 9.5 13 9.5H9.5V13C9.5 13.2761 9.27614 13.5 9 13.5H7C6.72386 13.5 6.5 13.2761 6.5 13V9.5H3C2.72386 9.5 2.5 9.27614 2.5 9V7C2.5 6.72386 2.72386 6.5 3 6.5H6.5V3C6.5 2.72386 6.72386 2.5 7 2.5H9ZM7.5 7C7.5 7.27614 7.27614 7.5 7 7.5H3.5V8.5H7C7.27614 8.5 7.5 8.72386 7.5 9V12.5H8.5V9C8.5 8.72386 8.72386 8.5 9 8.5H12.5V7.5H9C8.72386 7.5 8.5 7.27614 8.5 7V3.5H7.5V7Z" fill="black"/>
</svg>
