<svg width="16" height="16" viewBox="0 0 16 16" fill="none" xmlns="http://www.w3.org/2000/svg">
<path d="M5.52734 5.52734C6.89261 4.16208 9.10837 4.16208 10.4736 5.52734C10.6684 5.72265 10.6687 6.03928 10.4736 6.23438C10.2785 6.42907 9.96177 6.42899 9.7666 6.23438C8.79186 5.25964 7.20911 5.25964 6.23438 6.23438C5.25967 7.20912 5.25965 8.79187 6.23438 9.7666C7.20914 10.7408 8.79203 10.7411 9.7666 9.7666C9.96176 9.57145 10.2783 9.57165 10.4736 9.7666C10.6684 9.9619 10.6687 10.2785 10.4736 10.4736C9.10854 11.8387 6.89264 11.8384 5.52734 10.4736C4.16209 9.10838 4.16211 6.89261 5.52734 5.52734Z" fill="currentColor"/>
<path fill-rule="evenodd" clip-rule="evenodd" d="M8 1.5C11.5899 1.5 14.5 4.41015 14.5 8C14.5 11.5899 11.5899 14.5 8 14.5C4.41015 14.5 1.5 11.5899 1.5 8C1.5 4.41015 4.41015 1.5 8 1.5ZM8 2.5C4.96243 2.5 2.5 4.96243 2.5 8C2.5 11.0376 4.96243 13.5 8 13.5C11.0376 13.5 13.5 11.0376 13.5 8C13.5 4.96243 11.0376 2.5 8 2.5Z" fill="currentColor"/>
</svg>
