<svg width="16" height="16" viewBox="0 0 16 16" fill="none" xmlns="http://www.w3.org/2000/svg">
<path d="M8 2.5C8.17563 2.5 8.33835 2.59256 8.42871 2.74316L11.1426 7.2666L14.7002 4.59961C14.8607 4.47946 15.0776 4.46678 15.251 4.56738C15.4245 4.66809 15.521 4.86341 15.4961 5.0625L14.4961 13.0625C14.4646 13.3125 14.252 13.5 14 13.5H2C1.748 13.5 1.5354 13.3125 1.50391 13.0625L0.503907 5.0625C0.479021 4.86341 0.575492 4.66809 0.749024 4.56738C0.922433 4.46678 1.13935 4.47946 1.29981 4.59961L4.85645 7.2666L7.57129 2.74316L7.6084 2.68945C7.70248 2.57078 7.84622 2.5 8 2.5ZM5.42871 8.25684C5.35588 8.37822 5.23463 8.46302 5.0957 8.49023C4.95701 8.51731 4.81331 8.48509 4.7002 8.40039L1.6416 6.10645L2.44141 12.5H13.5586L14.3574 6.10645L11.2998 8.40039C11.1867 8.48509 11.043 8.51731 10.9043 8.49023C10.7654 8.46302 10.6441 8.37822 10.5713 8.25684L8 3.9707L5.42871 8.25684Z" fill="black"/>
</svg>
