<svg width="16" height="16" viewBox="0 0 16 16" fill="none" xmlns="http://www.w3.org/2000/svg">
<path fill-rule="evenodd" clip-rule="evenodd" d="M7.80371 1.54008C7.94973 1.47774 8.11832 1.48834 8.25684 1.57133L13.2568 4.57133C13.4074 4.66169 13.5 4.82442 13.5 5.00004V11C13.5 11.1757 13.4074 11.3384 13.2568 11.4288L8.25684 14.4288C8.09865 14.5235 7.90135 14.5235 7.74316 14.4288L2.74316 11.4288C2.59257 11.3384 2.50001 11.1757 2.5 11V5.00004C2.5 4.82442 2.59257 4.66169 2.74316 4.57133L7.74316 1.57133L7.80371 1.54008ZM3.5 5.28227V10.7168L8 13.417L12.5 10.7168V5.28227L8 2.58207L3.5 5.28227Z" fill="black"/>
</svg>
