<svg width="16" height="16" viewBox="0 0 16 16" fill="none" xmlns="http://www.w3.org/2000/svg">
<path fill-rule="evenodd" clip-rule="evenodd" d="M1.5 7.99969C1.50026 4.81626 5.34768 3.22004 7.59375 5.47625L8 5.8825L8.40625 5.47625C10.651 3.23166 14.4997 4.82423 14.5 7.99969C14.5 11.1754 10.651 12.7679 8.40625 10.5231L8 10.1169L7.59375 10.5231C5.34764 12.7798 1.5 11.1835 1.5 7.99969ZM6.88574 6.18231C5.27182 4.56016 2.50026 5.70403 2.5 7.99969C2.5 10.2956 5.27175 11.4394 6.88574 9.81707L7.29297 9.40984L6.58984 8.70672L6.18359 9.11297C5.18662 10.1099 3.5 9.40233 3.5 7.99969C3.50026 6.59027 5.20167 5.90462 6.18359 6.88641L9.11328 9.81609C10.7285 11.4313 13.5 10.284 13.5 7.99969C13.4997 5.71566 10.7284 4.56828 9.11328 6.18328L8.70703 6.58953L9.41016 7.29266L9.81641 6.88641C10.8133 5.88964 12.4997 6.59731 12.5 7.99969C12.5 9.40937 10.7984 10.095 9.81641 9.11297L6.88574 6.18231ZM5.47656 7.59344C5.11861 7.23563 4.50026 7.48963 4.5 7.99969C4.5 8.51705 5.11353 8.76897 5.47656 8.40594L5.88281 7.99969L5.47656 7.59344ZM11.5 7.99969C11.4997 7.48259 10.8864 7.23061 10.5234 7.59344L10.1172 7.99969L10.5234 8.40594C10.8814 8.76395 11.5 8.51001 11.5 7.99969Z" fill="black"/>
</svg>
