<svg width="16" height="16" viewBox="0 0 16 16" fill="none" xmlns="http://www.w3.org/2000/svg">
<path fill-rule="evenodd" clip-rule="evenodd" d="M8.0127 1.56055C8.23824 1.56143 8.46381 1.58446 8.68652 1.62988L8.6875 1.62891L12.293 2.34863C13.0053 2.48503 13.4997 3.10687 13.5 3.81934V8.16992C13.4999 9.98501 12.6099 11.6647 11.1318 12.6914L10.8281 12.8877L9.28809 13.8174C8.49802 14.2939 7.51094 14.292 6.71484 13.8193L6.71191 13.8174L5.17188 12.8877C3.51121 11.8966 2.50012 10.1036 2.5 8.16992V3.81934C2.50029 3.14681 2.94666 2.56234 3.57617 2.37988L3.7041 2.34863L7.3125 1.62891C7.53553 1.58336 7.76143 1.56134 7.9873 1.56055C7.99153 1.56044 7.99575 1.55957 8 1.55957C8.00425 1.55957 8.00847 1.56044 8.0127 1.56055ZM8.5 8V13.0869C8.5934 13.0538 8.68495 13.0131 8.77148 12.9609L10.3115 12.0312C11.6721 11.2112 12.4999 9.75331 12.5 8.16992V8H8.5ZM3.5 8.16992C3.50011 9.65578 4.22811 11.0375 5.4375 11.8711L5.68555 12.0303L5.68848 12.0312L7.22559 12.96L7.41113 13.0537C7.44013 13.066 7.47053 13.0746 7.5 13.085V8H3.5V8.16992ZM8.5 7H12.5V3.81934C12.4997 3.57259 12.3334 3.37478 12.1064 3.33105L12.1025 3.33008L8.5 2.61133V7ZM3.89746 3.33008C3.67394 3.37381 3.50032 3.57712 3.5 3.81934V7H7.5V2.61133L3.89746 3.33008Z" fill="currentColor"/>
</svg>
