<svg width="16" height="16" viewBox="0 0 16 16" fill="none" xmlns="http://www.w3.org/2000/svg">
<path fill-rule="evenodd" clip-rule="evenodd" d="M8 2.5C8.82904 2.5 9.63902 2.57315 10.4297 2.71875L10.4307 2.71777C11.8846 2.98533 13.0243 4.12525 13.292 5.5791C13.4376 6.36964 13.5098 7.17029 13.5098 8C13.5098 8.03698 13.5047 8.07273 13.4971 8.10742C13.4911 8.8982 13.4206 9.67171 13.2812 10.4189C13.0137 11.8849 11.8733 13.0148 10.4209 13.2822C9.63017 13.4279 8.81951 13.5 8 13.5C7.18137 13.5 6.36092 13.4271 5.5791 13.2812C4.12678 13.0138 2.98538 11.8858 2.71777 10.4199L2.71875 10.4189C2.57325 9.62858 2.50001 8.81894 2.5 7.99023C2.5 7.16092 2.57306 6.3495 2.71875 5.55859C2.98674 4.11442 4.11627 2.98518 5.56934 2.71777C6.36025 2.57208 7.17068 2.5 8 2.5ZM8 3.5C7.22942 3.5 6.47997 3.56788 5.75098 3.70215C4.70478 3.89488 3.89456 4.70523 3.70215 5.74023C3.56784 6.46932 3.5 7.21955 3.5 7.99023C3.50001 8.56806 3.5377 9.1341 3.61328 9.68848L3.70215 10.2393C3.8825 11.2271 4.61294 12.003 5.56641 12.2549L5.76074 12.2979L5.76172 12.2988C6.47966 12.4328 7.23891 12.5 8 12.5C8.76046 12.5 9.51001 12.4322 10.2393 12.2979C11.2867 12.1051 12.1054 11.2941 12.2979 10.2402L12.2988 10.2383C12.4329 9.52016 12.5 8.77089 12.5 8C12.5 7.972 12.5034 7.94472 12.5078 7.91797C12.5032 7.17721 12.4382 6.4642 12.3086 5.76074C12.1162 4.71497 11.2957 3.89478 10.25 3.70215C9.52101 3.56788 8.77058 3.5 8 3.5Z" fill="black"/>
</svg>
