<svg width="16" height="16" viewBox="0 0 16 16" fill="none" xmlns="http://www.w3.org/2000/svg">
<path d="M11 5.5C11.2761 5.5 11.5 5.72386 11.5 6C11.5 6.27614 11.2761 6.5 11 6.5H7.39062L6.48535 10.1211C6.4417 10.2957 6.30719 10.4333 6.13379 10.4814C5.96019 10.5295 5.77386 10.4809 5.64648 10.3535L4.64648 9.35352C4.45122 9.15825 4.45122 8.84175 4.64648 8.64648C4.84175 8.45123 5.15825 8.45122 5.35352 8.64648L5.72852 9.02148L6.51465 5.87891C6.57029 5.65632 6.77057 5.5 7 5.5H11Z" fill="black"/>
<path fill-rule="evenodd" clip-rule="evenodd" d="M8 1.5C11.5899 1.5 14.5 4.41015 14.5 8C14.5 11.5899 11.5899 14.5 8 14.5C4.41015 14.5 1.5 11.5899 1.5 8C1.5 4.41015 4.41015 1.5 8 1.5ZM8 2.5C4.96243 2.5 2.5 4.96243 2.5 8C2.5 11.0376 4.96243 13.5 8 13.5C11.0376 13.5 13.5 11.0376 13.5 8C13.5 4.96243 11.0376 2.5 8 2.5Z" fill="black"/>
</svg>
