<svg width="16" height="16" viewBox="0 0 16 16" fill="none" xmlns="http://www.w3.org/2000/svg">
<path fill-rule="evenodd" clip-rule="evenodd" d="M3.7373 3.57408C3.88463 3.48322 4.06879 3.4752 4.22363 3.5526L12.2236 7.5526C12.393 7.63727 12.4999 7.81053 12.5 7.99986C12.5 8.18923 12.393 8.36242 12.2236 8.44713L4.22363 12.4471C4.06875 12.5246 3.88466 12.5166 3.7373 12.4256C3.58993 12.3345 3.5 12.1731 3.5 11.9999V9.99986C3.50005 9.81053 3.60702 9.63727 3.77637 9.5526L6.88184 7.99986L3.77637 6.44713C3.60701 6.36242 3.5 6.18923 3.5 5.99986V3.99986C3.50005 3.82663 3.58994 3.66516 3.7373 3.57408ZM4.5 5.69029L8.22363 7.5526C8.39298 7.63727 8.49995 7.81053 8.5 7.99986C8.5 8.18923 8.39299 8.36242 8.22363 8.44713L4.5 10.3085V11.1903L10.8818 7.99986L4.5 4.80846V5.69029Z" fill="currentColor"/>
</svg>
