<svg width="16" height="16" viewBox="0 0 16 16" fill="none" xmlns="http://www.w3.org/2000/svg">
<path fill-rule="evenodd" clip-rule="evenodd" d="M8 4.5C8.27614 4.5 8.5 4.72386 8.5 5V5.5H10C10.2761 5.5 10.5 5.72386 10.5 6C10.5 6.27614 10.2761 6.5 10 6.5H8.5V7.5H9C9.82614 7.5 10.5 8.17386 10.5 9C10.5 9.82614 9.82614 10.5 9 10.5H8.5V11C8.5 11.2761 8.27614 11.5 8 11.5C7.72386 11.5 7.5 11.2761 7.5 11V10.5H6C5.72386 10.5 5.5 10.2761 5.5 10C5.5 9.72386 5.72386 9.5 6 9.5H7.5V8.5H7C6.17386 8.5 5.5 7.82614 5.5 7C5.5 6.17386 6.17386 5.5 7 5.5H7.5V5C7.5 4.72386 7.72386 4.5 8 4.5ZM8.5 9.5H9C9.27386 9.5 9.5 9.27386 9.5 9C9.5 8.72614 9.27386 8.5 9 8.5H8.5V9.5ZM7 6.5C6.72614 6.5 6.5 6.72614 6.5 7C6.5 7.27386 6.72614 7.5 7 7.5H7.5V6.5H7Z" fill="black"/>
<path fill-rule="evenodd" clip-rule="evenodd" d="M8 1.5C11.5899 1.5 14.5 4.41015 14.5 8C14.5 11.5899 11.5899 14.5 8 14.5C4.41015 14.5 1.5 11.5899 1.5 8C1.5 4.41015 4.41015 1.5 8 1.5ZM8 2.5C4.96243 2.5 2.5 4.96243 2.5 8C2.5 11.0376 4.96243 13.5 8 13.5C11.0376 13.5 13.5 11.0376 13.5 8C13.5 4.96243 11.0376 2.5 8 2.5Z" fill="black"/>
</svg>
