<svg width="16" height="16" viewBox="0 0 16 16" fill="none" xmlns="http://www.w3.org/2000/svg">
<path fill-rule="evenodd" clip-rule="evenodd" d="M7.51758 1.59115C7.68919 1.47976 7.91204 1.4838 8.0791 1.60189L8.08105 1.60384L8.08496 1.6058C8.08753 1.60765 8.0909 1.61078 8.09473 1.61361C8.1026 1.6194 8.11322 1.62728 8.12598 1.63705C8.15196 1.65695 8.18778 1.68556 8.23145 1.72201C8.31885 1.79497 8.43918 1.90107 8.57715 2.04134C8.85287 2.32172 9.20446 2.74063 9.5166 3.30013C10.0418 4.24162 10.4415 5.56493 10.2031 7.26107C10.5769 6.93712 10.9965 6.36391 11.1348 5.33334L11.1514 5.25619C11.204 5.0808 11.3503 4.94567 11.5342 4.90951C11.7443 4.86847 11.9569 4.96599 12.0635 5.1517L12.0645 5.15267L12.0654 5.15463C12.0654 5.15463 12.0679 5.15882 12.0693 5.16146C12.0723 5.16678 12.077 5.17379 12.082 5.18295C12.0921 5.20136 12.1057 5.22783 12.123 5.26107C12.1578 5.32788 12.2056 5.42459 12.2617 5.54623C12.3738 5.7892 12.5195 6.13634 12.6543 6.5599C12.9225 7.40283 13.1585 8.5728 12.9961 9.83431C12.9915 9.86974 12.9812 9.90334 12.9697 9.93588C12.5939 12.4752 10.3789 14.5002 7.78027 14.5003C5.13351 14.5002 3.00005 12.3553 3 9.72006C3.00001 8.88596 3.15544 8.12607 3.53809 7.42806C3.9196 6.73238 4.50803 6.13221 5.32031 5.58529C6.14093 5.03173 6.70207 4.51152 7.02539 3.9642C7.33691 3.4367 7.44756 2.8511 7.2998 2.10775C7.25994 1.90725 7.34629 1.70265 7.51758 1.59115ZM8.32031 3.28646C8.25259 3.70598 8.10711 4.09983 7.88672 4.47299C7.45258 5.20792 6.74894 5.82813 5.87988 6.41439C5.16272 6.89722 4.70092 7.38807 4.41504 7.90951C4.13035 8.42888 4.00001 9.01437 4 9.72006C4.00005 11.8046 5.68732 13.5002 7.78027 13.5003C9.88633 13.5002 11.7244 11.8188 11.9941 9.70638L12.0098 9.63509C12.1282 8.60746 11.9418 7.6339 11.71 6.89486C11.4438 7.44324 11.097 7.83479 10.752 8.10873C10.4617 8.33909 10.1823 8.48078 9.97168 8.56478C9.86652 8.60672 9.77739 8.6345 9.71191 8.65267C9.6792 8.66174 9.6513 8.66853 9.63086 8.67318C9.62085 8.67546 9.61222 8.67766 9.60547 8.67904C9.60221 8.67971 9.59913 8.68052 9.59668 8.68099H9.59277L9.5918 8.68197H9.58984C9.42043 8.71282 9.24696 8.65391 9.13086 8.5267C9.01483 8.3994 8.97223 8.22093 9.01855 8.05502C9.55943 6.11953 9.15814 4.70992 8.64355 3.78744C8.53962 3.60113 8.42835 3.43502 8.32031 3.28646Z" fill="currentColor"/>
</svg>
