<svg width="16" height="16" viewBox="0 0 16 16" fill="none" xmlns="http://www.w3.org/2000/svg">
<path d="M8 9.49982C8.27609 9.49982 8.49991 9.72376 8.5 9.99982C8.5 10.276 8.27614 10.4998 8 10.4998C7.72386 10.4998 7.5 10.276 7.5 9.99982C7.50009 9.72376 7.72391 9.49982 8 9.49982Z" fill="black"/>
<path d="M8 4.49982C8.27609 4.49982 8.49991 4.72376 8.5 4.99982V7.99982C8.5 8.27596 8.27614 8.49982 8 8.49982C7.72386 8.49982 7.5 8.27596 7.5 7.99982V4.99982C7.50009 4.72376 7.72391 4.49982 8 4.49982Z" fill="black"/>
<path fill-rule="evenodd" clip-rule="evenodd" d="M7.3125 1.63068C7.76664 1.53792 8.23236 1.53805 8.68652 1.63068L8.6875 1.6297L12.293 2.34943C13.0054 2.48589 13.4999 3.10751 13.5 3.82013V8.17072C13.4998 9.98575 12.6099 11.6656 11.1318 12.6922L10.8281 12.8885L9.28809 13.8182C8.4981 14.2946 7.51086 14.2927 6.71484 13.8201L6.71191 13.8182L5.17188 12.8885C3.5112 11.8974 2.50025 10.1043 2.5 8.17072V3.82013C2.5001 3.14746 2.94658 2.56321 3.57617 2.38068L3.7041 2.34943L7.3125 1.63068ZM8.48926 2.61017C8.16571 2.54384 7.83429 2.54384 7.51074 2.61017L7.50781 2.61115L3.89746 3.33088C3.67384 3.37466 3.50011 3.57776 3.5 3.82013V8.17072C3.50024 9.65652 4.22809 11.0384 5.4375 11.8719L5.68555 12.0311L5.68848 12.032L7.22559 12.9608L7.41113 13.0545C7.85514 13.2427 8.36029 13.2097 8.77148 12.9617L10.3115 12.032C11.6721 11.2121 12.4997 9.75404 12.5 8.17072V3.82013C12.4999 3.57321 12.3335 3.37563 12.1064 3.33185L12.1025 3.33088L8.49219 2.61115L8.48926 2.61017Z" fill="black"/>
</svg>
