<svg width="16" height="16" viewBox="0 0 16 16" fill="none" xmlns="http://www.w3.org/2000/svg">
<path fill-rule="evenodd" clip-rule="evenodd" d="M7.80371 1.54006C7.94973 1.47772 8.11832 1.48833 8.25684 1.57131L13.2568 4.57131C13.2663 4.57701 13.2752 4.58361 13.2842 4.58987C13.2892 4.59332 13.294 4.59697 13.2988 4.60061C13.3227 4.61848 13.3452 4.63771 13.3652 4.65921C13.3673 4.6614 13.3691 4.66381 13.3711 4.66604C13.39 4.68706 13.4068 4.70965 13.4219 4.73342C13.424 4.73676 13.4267 4.73979 13.4287 4.74319L13.4307 4.74807C13.446 4.77415 13.4584 4.80161 13.4688 4.8301C13.4702 4.83399 13.4713 4.83792 13.4727 4.84182C13.4896 4.89225 13.5 4.94529 13.5 5.00003V11C13.5 11.1756 13.4074 11.3384 13.2568 11.4287L8.25684 14.4287C8.23717 14.4405 8.21702 14.4511 8.19629 14.46C8.1929 14.4614 8.18897 14.4615 8.18555 14.4629C8.16251 14.4722 8.13912 14.4797 8.11523 14.4854C8.10432 14.488 8.09321 14.4894 8.08203 14.4912C8.02722 14.5004 7.97179 14.5005 7.91699 14.4912C7.90582 14.4894 7.8947 14.488 7.88379 14.4854C7.85993 14.4797 7.83649 14.4722 7.81348 14.4629C7.81033 14.4616 7.80682 14.4613 7.80371 14.46C7.78298 14.4511 7.76283 14.4405 7.74316 14.4287L2.74316 11.4287C2.59257 11.3384 2.50001 11.1756 2.5 11V5.00003C2.5 4.9454 2.5095 4.89216 2.52637 4.84182C2.52767 4.83792 2.52887 4.83398 2.53027 4.8301C2.55216 4.76981 2.58497 4.71388 2.62793 4.66604C2.62993 4.66381 2.63175 4.6614 2.63379 4.65921C2.6538 4.63771 2.67638 4.61849 2.7002 4.60061C2.70505 4.59697 2.70987 4.59332 2.71484 4.58987C2.72407 4.58345 2.73344 4.57715 2.74316 4.57131L7.74316 1.57131L7.80371 1.54006ZM3.5 10.7168L7.5 13.1162V8.28225L3.5 5.88186V10.7168ZM8.5 8.28225V13.1162L12.5 10.7168V5.88284L8.5 8.28225ZM3.9707 4.99905L8 7.41702L12.0283 4.99905L8 2.58206L3.9707 4.99905Z" fill="black"/>
</svg>
