<svg width="16" height="16" viewBox="0 0 16 16" fill="none" xmlns="http://www.w3.org/2000/svg">
<path d="M0.646523 6.64652C0.841785 6.45126 1.15829 6.45126 1.35355 6.64652L5.35355 10.6465C5.54877 10.8418 5.5488 11.1583 5.35355 11.3536C5.15831 11.5488 4.84179 11.5488 4.64652 11.3536L0.646523 7.35355C0.451261 7.15829 0.451261 6.84179 0.646523 6.64652Z" fill="black"/>
<path d="M14.6465 3.64652C14.8418 3.45126 15.1583 3.45126 15.3536 3.64652C15.5488 3.84179 15.5488 4.15831 15.3536 4.35355L8.35355 11.3536C8.15831 11.5488 7.84179 11.5488 7.64652 11.3536L3.64652 7.35355C3.45126 7.15829 3.45126 6.84178 3.64652 6.64652C3.84179 6.45126 4.15829 6.45126 4.35355 6.64652L8.00004 10.293L14.6465 3.64652Z" fill="black"/>
<path d="M11.6465 3.64652C11.8418 3.45126 12.1583 3.45126 12.3536 3.64652C12.5488 3.84179 12.5488 4.15831 12.3536 4.35355L8.35355 8.35355C8.15831 8.5488 7.84179 8.54877 7.64652 8.35355C7.45126 8.15829 7.45126 7.84178 7.64652 7.64652L11.6465 3.64652Z" fill="black"/>
</svg>
