<svg width="16" height="16" viewBox="0 0 16 16" fill="none" xmlns="http://www.w3.org/2000/svg">
<path fill-rule="evenodd" clip-rule="evenodd" d="M8 3.5C9.74171 3.5 11.3409 3.97015 12.5195 4.75586C13.6947 5.53931 14.5 6.67624 14.5 8C14.5 9.32376 13.6947 10.4607 12.5195 11.2441C11.3409 12.0299 9.74171 12.5 8 12.5C6.25829 12.5 4.65913 12.0299 3.48047 11.2441C2.30529 10.4607 1.5 9.32376 1.5 8C1.5 6.67624 2.30529 5.53931 3.48047 4.75586C4.65913 3.97015 6.25829 3.5 8 3.5ZM8 4.5C6.42818 4.5 5.02805 4.92602 4.03516 5.58789C3.03876 6.25215 2.5 7.11462 2.5 8C2.5 8.88538 3.03876 9.74785 4.03516 10.4121C5.02805 11.074 6.42818 11.5 8 11.5C9.57182 11.5 10.972 11.074 11.9648 10.4121C12.9612 9.74785 13.5 8.88538 13.5 8C13.5 7.11462 12.9612 6.25215 11.9648 5.58789C10.972 4.92602 9.57182 4.5 8 4.5Z" fill="currentColor"/>
</svg>
