<svg width="16" height="16" viewBox="0 0 16 16" fill="none" xmlns="http://www.w3.org/2000/svg">
<path d="M7.99996 1.5C8.18975 1.5 8.36371 1.6074 8.4482 1.77734L10.1015 5.10352L13.7841 5.65527C13.9718 5.68339 14.1271 5.81559 14.1855 5.99609C14.2439 6.17656 14.195 6.37411 14.0595 6.50684L11.4062 9.10352L12.0234 12.7666C12.0549 12.9537 11.9776 13.1433 11.8242 13.2549C11.6707 13.3664 11.467 13.3806 11.2988 13.293L7.99996 11.5732L4.70113 13.293C4.5329 13.3807 4.32921 13.3664 4.17574 13.2549C4.02227 13.1433 3.94502 12.9537 3.97652 12.7666L4.59273 9.10352L1.94039 6.50684C1.80493 6.37412 1.75602 6.17653 1.81441 5.99609C1.87283 5.81562 2.02819 5.68341 2.21578 5.65527L5.89742 5.10352L7.5527 1.77734L7.58785 1.7168C7.68023 1.58231 7.83385 1.50001 7.99996 1.5ZM6.6777 5.78223C6.605 5.92843 6.46515 6.03051 6.30367 6.05469L3.35738 6.49512L5.47945 8.57227C5.59633 8.68667 5.65006 8.85141 5.62301 9.0127L5.12887 11.9414L7.76852 10.5664C7.91334 10.4909 8.08658 10.4909 8.23141 10.5664L10.8701 11.9414L10.3769 9.0127C10.3499 8.85142 10.4036 8.68667 10.5205 8.57227L12.6416 6.49512L9.69625 6.05469C9.53477 6.03051 9.39492 5.92843 9.32223 5.78223L7.99996 3.12305L6.6777 5.78223Z" fill="black"/>
</svg>
