<svg width="16" height="16" viewBox="0 0 16 16" fill="none" xmlns="http://www.w3.org/2000/svg">
<path fill-rule="evenodd" clip-rule="evenodd" d="M8 1.5C9.41535 1.5 10.7165 1.671 11.6797 1.95996C12.158 2.10347 12.5814 2.28531 12.8965 2.50879C13.1985 2.7231 13.5 3.05065 13.5 3.5V12.5C13.5 12.9496 13.1988 13.2777 12.8965 13.4922C12.5812 13.7158 12.1571 13.8966 11.6787 14.04C10.7153 14.3288 9.41455 14.5 8 14.5C6.58545 14.5 5.28465 14.3288 4.32129 14.04C3.84287 13.8966 3.41879 13.7158 3.10352 13.4922C2.80116 13.2777 2.5 12.9496 2.5 12.5V3.5C2.5 3.05065 2.80147 2.7231 3.10352 2.50879C3.41859 2.28531 3.84203 2.10347 4.32031 1.95996C5.2835 1.671 6.58465 1.5 8 1.5ZM12.5 10.7207C12.256 10.8415 11.979 10.95 11.6787 11.04C10.7153 11.3288 9.41455 11.5 8 11.5C6.58545 11.5 5.28465 11.3288 4.32129 11.04C4.02101 10.95 3.744 10.8415 3.5 10.7207V12.4922C3.50307 12.502 3.52806 12.5671 3.68262 12.6768C3.87354 12.8121 4.18214 12.9543 4.6084 13.082C5.45504 13.3358 6.65455 13.5 8 13.5C9.34545 13.5 10.545 13.3358 11.3916 13.082C11.8179 12.9543 12.1265 12.8121 12.3174 12.6768C12.4719 12.5671 12.4969 12.502 12.5 12.4922V10.7207ZM12.5 7.7207C12.256 7.84152 11.979 7.95003 11.6787 8.04004C10.7153 8.32878 9.41455 8.5 8 8.5C6.58545 8.5 5.28465 8.32878 4.32129 8.04004C4.02101 7.95003 3.744 7.84152 3.5 7.7207V9.49219C3.50311 9.50198 3.52797 9.56708 3.68262 9.67676C3.87354 9.81212 4.18214 9.95426 4.6084 10.082C5.45504 10.3358 6.65455 10.5 8 10.5C9.34545 10.5 10.545 10.3358 11.3916 10.082C11.8179 9.95426 12.1265 9.81212 12.3174 9.67676C12.472 9.56708 12.4969 9.50198 12.5 9.49219V7.7207ZM12.5 4.7207C12.2564 4.84167 11.9796 4.95004 11.6797 5.04004C10.7165 5.329 9.41535 5.5 8 5.5C6.58465 5.5 5.2835 5.329 4.32031 5.04004C4.02036 4.95004 3.74361 4.84167 3.5 4.7207V6.49219C3.50311 6.50198 3.52797 6.56708 3.68262 6.67676C3.87354 6.81212 4.18214 6.95426 4.6084 7.08203C5.45504 7.33579 6.65455 7.5 8 7.5C9.34545 7.5 10.545 7.33579 11.3916 7.08203C11.8179 6.95426 12.1265 6.81212 12.3174 6.67676C12.472 6.56708 12.4969 6.50198 12.5 6.49219V4.7207ZM8 2.5C6.6541 2.5 5.45484 2.66409 4.6084 2.91797C4.18211 3.04586 3.87352 3.18886 3.68262 3.32422C3.55207 3.41682 3.5144 3.47761 3.50391 3.5C3.5144 3.52239 3.55207 3.58318 3.68262 3.67578C3.87352 3.81114 4.18211 3.95414 4.6084 4.08203C5.45484 4.33591 6.6541 4.5 8 4.5C9.3459 4.5 10.5452 4.33591 11.3916 4.08203C11.8179 3.95414 12.1265 3.81114 12.3174 3.67578C12.4472 3.58371 12.4844 3.52269 12.4951 3.5C12.4844 3.47731 12.4472 3.41629 12.3174 3.32422C12.1265 3.18886 11.8179 3.04586 11.3916 2.91797C10.5452 2.66409 9.3459 2.5 8 2.5Z" fill="currentColor"/>
</svg>
