<svg width="16" height="16" viewBox="0 0 16 16" fill="none" xmlns="http://www.w3.org/2000/svg">
<path fill-rule="evenodd" clip-rule="evenodd" d="M8.00009 6.50009C8.82848 6.50013 9.50009 7.17169 9.50009 8.00009C9.50004 8.82845 8.82845 9.50004 8.00009 9.50009C7.17169 9.50009 6.50013 8.82847 6.50009 8.00009C6.50009 7.17166 7.17166 6.50009 8.00009 6.50009ZM8.00009 7.50009C7.72394 7.50009 7.50009 7.72394 7.50009 8.00009C7.50013 8.27619 7.72397 8.50009 8.00009 8.50009C8.27616 8.50004 8.50004 8.27616 8.50009 8.00009C8.50009 7.72397 8.27619 7.50013 8.00009 7.50009Z" fill="black"/>
<path fill-rule="evenodd" clip-rule="evenodd" d="M3.89657 1.72567C4.50586 1.7463 5.19194 1.93491 5.90341 2.24325C6.56845 2.53154 7.27764 2.93492 7.99911 3.43661C8.72081 2.93474 9.43053 2.5316 10.0958 2.24325C10.8072 1.93492 11.4924 1.74736 12.1016 1.72665C12.7121 1.70598 13.2968 1.85346 13.7198 2.27645C14.1429 2.69949 14.2913 3.28414 14.2706 3.89462C14.2499 4.5039 14.0614 5.18904 13.753 5.90048C13.4647 6.56568 13.0605 7.27454 12.5587 7.99618C13.0607 8.71804 13.4646 9.42746 13.753 10.0929C14.0613 10.8042 14.2499 11.4895 14.2706 12.0987C14.2913 12.7092 14.1428 13.2938 13.7198 13.7169C13.2968 14.1399 12.7121 14.2883 12.1016 14.2677C11.4924 14.247 10.8072 14.0584 10.0958 13.7501C9.43038 13.4617 8.72097 13.0578 7.99911 12.5557C7.27748 13.0576 6.5686 13.4617 5.90341 13.7501C5.19194 14.0584 4.50586 14.247 3.89657 14.2677C3.28626 14.2882 2.70232 14.1398 2.27938 13.7169C1.85647 13.2939 1.708 12.71 1.7286 12.0997C1.74923 11.4905 1.93792 10.8052 2.24618 10.0938C2.53458 9.42844 2.9375 8.71806 3.43954 7.99618C2.93785 7.2747 2.53446 6.56552 2.24618 5.90048C1.93792 5.18919 1.74931 4.50379 1.7286 3.89462C1.70794 3.28415 1.85635 2.69948 2.27938 2.27645C2.70231 1.85355 3.28628 1.70509 3.89657 1.72567ZM4.07333 8.84677C3.69418 9.42045 3.38677 9.97448 3.16317 10.4903C2.88433 11.1337 2.74263 11.6916 2.72762 12.1329C2.71273 12.5731 2.8237 12.8471 2.98641 13.0099C3.14916 13.1726 3.42312 13.2835 3.86337 13.2686C4.30468 13.2537 4.86256 13.1119 5.50594 12.8331C6.0217 12.6095 6.57493 12.301 7.14852 11.922C6.60248 11.4883 6.05599 11.0032 5.5245 10.4718C4.99271 9.93997 4.50724 9.39314 4.07333 8.84677ZM11.9249 8.84677C11.4911 9.39301 11.0064 9.94008 10.4747 10.4718C9.94294 11.0035 9.39603 11.489 8.8497 11.9229C9.42343 12.3022 9.97742 12.6095 10.4932 12.8331C11.1366 13.1119 11.6946 13.2527 12.1358 13.2677C12.5761 13.2826 12.85 13.1726 13.0128 13.0099C13.1755 12.8471 13.2855 12.5731 13.2706 12.1329C13.2556 11.6917 13.1147 11.1344 12.836 10.4913C12.6123 9.97523 12.3043 9.42079 11.9249 8.84677ZM7.99911 4.67782C7.41162 5.12791 6.81431 5.6468 6.23153 6.22958C5.64861 6.81253 5.12983 7.40956 4.67977 7.99716C5.12982 8.58469 5.64865 9.18185 6.23153 9.76473C6.81425 10.3474 7.41168 10.8655 7.99911 11.3155C8.58665 10.8655 9.18476 10.3476 9.76766 9.76473C10.3506 9.18181 10.8683 8.58381 11.3184 7.99618C10.8684 7.40876 10.3504 6.81132 9.76766 6.2286C9.18473 5.64568 8.58669 5.12789 7.99911 4.67782ZM3.86337 2.7247C3.42316 2.7098 3.14916 2.82076 2.98641 2.98348C2.82367 3.14623 2.71272 3.42019 2.72762 3.86044C2.74259 4.30173 2.88434 4.85964 3.16317 5.50302C3.38667 6.01861 3.69443 6.57219 4.07333 7.14559C4.5071 6.59946 4.99295 6.05313 5.5245 5.52157C6.05614 4.98994 6.60232 4.50419 7.14852 4.0704C6.57518 3.69153 6.0215 3.38471 5.50594 3.16122C4.8625 2.88233 4.30471 2.73968 3.86337 2.7247ZM12.1358 2.72567C11.6946 2.74065 11.1366 2.88144 10.4932 3.16024C9.97743 3.38384 9.42342 3.69118 8.8497 4.0704C9.39607 4.50431 9.94291 4.98979 10.4747 5.52157C11.0062 6.05306 11.4912 6.59955 11.9249 7.14559C12.304 6.57194 12.6125 6.01877 12.836 5.50302C13.1148 4.85969 13.2556 4.30171 13.2706 3.86044C13.2855 3.42027 13.1755 3.14621 13.0128 2.98348C12.85 2.82078 12.576 2.71078 12.1358 2.72567Z" fill="black"/>
</svg>
