<svg width="16" height="16" viewBox="0 0 16 16" fill="none" xmlns="http://www.w3.org/2000/svg">
<path fill-rule="evenodd" clip-rule="evenodd" d="M13 2.5C13.0327 2.5 13.0655 2.50242 13.0977 2.50879C13.1488 2.51889 13.196 2.53909 13.2402 2.56348C13.2806 2.58569 13.3193 2.6123 13.3535 2.64648C13.3874 2.68034 13.4134 2.71891 13.4355 2.75879C13.4601 2.80299 13.48 2.85024 13.4902 2.90137C13.4967 2.93389 13.5 2.96695 13.5 3V10C13.5 10.1326 13.4473 10.2597 13.3535 10.3535L10.3535 13.3535C10.3194 13.3876 10.2804 13.4134 10.2402 13.4355C10.196 13.46 10.1488 13.4801 10.0977 13.4902C10.0654 13.4966 10.0327 13.5 10 13.5H3C2.72386 13.5 2.5 13.2761 2.5 13V6C2.5 5.96701 2.5023 5.93383 2.50879 5.90137C2.51898 5.85033 2.53903 5.80293 2.56348 5.75879C2.58563 5.71875 2.61251 5.68046 2.64648 5.64648L5.64648 2.64648L5.72266 2.58398C5.80419 2.52963 5.90056 2.5 6 2.5H13ZM3.5 12.5H9.5V6.5H3.5V12.5ZM10.5 6.20703V11.793L12.5 9.79297V4.20703L10.5 6.20703ZM4.20703 5.5H9.79297L11.793 3.5H6.20703L4.20703 5.5Z" fill="black"/>
</svg>
