<svg width="16" height="16" viewBox="0 0 16 16" fill="none" xmlns="http://www.w3.org/2000/svg">
<path fill-rule="evenodd" clip-rule="evenodd" d="M7.98316 1.5006C8.04133 1.49857 8.10052 1.50591 8.15797 1.52501C8.18819 1.53509 8.21683 1.54892 8.2439 1.56408C8.25131 1.56821 8.25817 1.57322 8.26539 1.57775C8.28312 1.5889 8.30012 1.60072 8.31617 1.61388C8.32489 1.62103 8.33326 1.62854 8.34156 1.63634C8.35876 1.65254 8.37471 1.66971 8.38941 1.6881C8.39271 1.69221 8.39697 1.69558 8.40015 1.69982L14.4002 9.69982C14.4823 9.80949 14.5158 9.94854 14.4929 10.0836C14.4697 10.2191 14.3914 10.3394 14.2771 10.4156L8.27711 14.4156C8.27348 14.4181 8.26906 14.4192 8.26539 14.4215C8.25564 14.4276 8.24633 14.4346 8.23609 14.4401C8.2273 14.4448 8.21773 14.4476 8.20875 14.4518C8.19822 14.4567 8.18822 14.4623 8.1775 14.4664C8.15131 14.4764 8.12454 14.4835 8.09742 14.4889C8.0922 14.4899 8.08703 14.4909 8.08179 14.4918C8.05714 14.4959 8.03245 14.4983 8.00757 14.4986C8.00268 14.4987 7.99782 14.4987 7.99293 14.4986C7.93432 14.4979 7.87638 14.4867 7.82105 14.4654C7.81381 14.4627 7.80668 14.4598 7.79957 14.4567C7.7791 14.4477 7.75935 14.4372 7.74 14.4254C7.73328 14.4213 7.72602 14.4181 7.71949 14.4137L1.72242 10.4156C1.60827 10.3394 1.52978 10.2189 1.5066 10.0836C1.48372 9.94857 1.51727 9.80947 1.59937 9.69982L7.59937 1.69982C7.62418 1.66677 7.65327 1.63821 7.68433 1.61291C7.68966 1.60856 7.69441 1.60339 7.69996 1.59923C7.7022 1.59755 7.70453 1.59599 7.70679 1.59435C7.75425 1.56009 7.80739 1.53504 7.86304 1.51916C7.87532 1.51567 7.88772 1.51288 7.90015 1.51037C7.91946 1.50641 7.93903 1.50421 7.95875 1.50255C7.9669 1.50189 7.975 1.50086 7.98316 1.5006ZM2.71656 9.87658L7.49976 13.0651V3.49962L2.71656 9.87658ZM8.49976 13.0651L13.282 9.87658L8.49976 3.49962V13.0651Z" fill="black"/>
</svg>
