<svg width="16" height="16" viewBox="0 0 16 16" fill="none" xmlns="http://www.w3.org/2000/svg">
<path d="M7.52519 5.8423C7.61251 5.58033 7.89603 5.43858 8.158 5.52589C8.41997 5.61322 8.56173 5.89673 8.47441 6.15871L7.85624 8.0132L8.77616 7.55324C8.9569 7.46287 9.17419 7.49034 9.32695 7.62257C9.47962 7.75508 9.53834 7.96691 9.47441 8.15871L8.47441 11.1587C8.38689 11.4204 8.1034 11.5624 7.84159 11.4751C7.5798 11.3878 7.43821 11.1041 7.52519 10.8423L8.14335 8.98781L7.22343 9.44777C7.04281 9.53791 6.8253 9.51048 6.67265 9.37843C6.52 9.24604 6.4615 9.03402 6.52519 8.8423L7.52519 5.8423Z" fill="black"/>
<path fill-rule="evenodd" clip-rule="evenodd" d="M6.69706 2.2505C7.2693 1.24689 8.72058 1.24684 9.29277 2.2505L14.4832 11.2398L14.4851 11.2437C15.0523 12.2443 14.3356 13.4898 13.1795 13.4898H2.78984C1.63379 13.4896 0.917903 12.2442 1.48515 11.2437L1.52128 11.188C1.53498 11.1699 1.55035 11.1531 1.5662 11.1372L6.69706 2.2505ZM8.4246 2.7466C8.23607 2.41463 7.75263 2.41446 7.56425 2.7466L7.56327 2.7505L2.37284 11.7398C2.35766 11.766 2.33935 11.7903 2.32011 11.813C2.19993 12.135 2.43452 12.4896 2.78984 12.4898H13.1795C13.5632 12.4898 13.8073 12.0761 13.615 11.7368L8.42656 2.7505L8.4246 2.7466Z" fill="black"/>
</svg>
