<svg width="16" height="16" viewBox="0 0 16 16" fill="none" xmlns="http://www.w3.org/2000/svg">
<path fill-rule="evenodd" clip-rule="evenodd" d="M7.99989 2.5C8.13231 2.50007 8.25972 2.55289 8.3534 2.64648L12.163 6.45605C13.3182 7.61132 13.3182 9.47853 12.163 10.6338C11.5295 11.267 10.6844 11.5451 9.86122 11.4805L10.455 12.7939C10.5249 12.9487 10.5119 13.1288 10.4198 13.2715C10.3277 13.4139 10.1694 13.4999 9.99989 13.5H5.99989C5.83039 13.4999 5.67203 13.4138 5.57997 13.2715C5.488 13.1289 5.47402 12.9486 5.54383 12.7939L6.13661 11.4805C5.31378 11.5446 4.46891 11.2669 3.83582 10.6338C2.6808 9.47857 2.6808 7.61127 3.83582 6.45605L7.64637 2.64648L7.72254 2.58398C7.80394 2.52978 7.90065 2.50007 7.99989 2.5ZM4.54286 7.16309C3.77836 7.92778 3.77836 9.16207 4.54286 9.92676C5.15242 10.5363 6.06672 10.6502 6.80262 10.2744C6.99159 10.1781 7.22128 10.2121 7.37489 10.3584C7.52836 10.5049 7.57259 10.7324 7.48524 10.9258L6.7743 12.5H9.2245L8.51356 10.9258C8.42636 10.7324 8.47141 10.5049 8.62489 10.3584C8.77854 10.212 9.00808 10.178 9.19715 10.2744C9.93295 10.6503 10.8463 10.5361 11.4559 9.92676C12.2207 9.16202 12.2207 7.92782 11.4559 7.16309L7.99891 3.70605L4.54286 7.16309Z" fill="black"/>
</svg>
