<svg width="16" height="16" viewBox="0 0 16 16" fill="none" xmlns="http://www.w3.org/2000/svg">
<path fill-rule="evenodd" clip-rule="evenodd" d="M8.5 4.5C8.77614 4.5 9 4.72386 9 5V5.5C9.82614 5.5 10.5 6.17386 10.5 7C10.5 7.26768 10.4275 7.51836 10.3037 7.73633C10.7213 8.00314 11 8.46952 11 9C11 9.82614 10.3261 10.5 9.5 10.5H9V11C9 11.2761 8.77614 11.5 8.5 11.5C8.22386 11.5 8 11.2761 8 11V10.5H7.5V11C7.5 11.2761 7.27614 11.5 7 11.5C6.72386 11.5 6.5 11.2761 6.5 11V10.5H6C5.72386 10.5 5.5 10.2761 5.5 10C5.5 9.72386 5.72386 9.5 6 9.5H6.5V6.5H6C5.72386 6.5 5.5 6.27614 5.5 6C5.5 5.72386 5.72386 5.5 6 5.5H6.5V5C6.5 4.72386 6.72386 4.5 7 4.5C7.27614 4.5 7.5 4.72386 7.5 5V5.5H8V5C8 4.72386 8.22386 4.5 8.5 4.5ZM7.5 9.5H9.5C9.77386 9.5 10 9.27386 10 9C10 8.72614 9.77386 8.5 9.5 8.5H7.5V9.5ZM7.5 7.5H9C9.27386 7.5 9.5 7.27386 9.5 7C9.5 6.72614 9.27386 6.5 9 6.5H7.5V7.5Z" fill="black"/>
<path fill-rule="evenodd" clip-rule="evenodd" d="M8 1.5C11.5899 1.5 14.5 4.41015 14.5 8C14.5 11.5899 11.5899 14.5 8 14.5C4.41015 14.5 1.5 11.5899 1.5 8C1.5 4.41015 4.41015 1.5 8 1.5ZM8 2.5C4.96243 2.5 2.5 4.96243 2.5 8C2.5 11.0376 4.96243 13.5 8 13.5C11.0376 13.5 13.5 11.0376 13.5 8C13.5 4.96243 11.0376 2.5 8 2.5Z" fill="black"/>
</svg>
