<svg width="16" height="16" viewBox="0 0 16 16" fill="none" xmlns="http://www.w3.org/2000/svg">
<path fill-rule="evenodd" clip-rule="evenodd" d="M7.16053 2.01867C7.54031 1.28883 8.674 1.34143 8.94569 2.17589C8.9594 2.21826 8.966 2.26228 8.96815 2.30577L10.0834 5.73058H13.8207C14.759 5.73115 15.1596 6.92643 14.3949 7.48449L14.3939 7.48546L11.3685 9.68077L12.5258 13.2355C12.8148 14.1246 11.7899 14.8681 11.0375 14.3253L8.01014 12.128L4.98378 14.3253L4.9828 14.3243C4.22762 14.8734 3.19221 14.1431 3.49549 13.2355L4.65174 9.68077L1.62635 7.48546L1.62538 7.48449C0.860634 6.92627 1.26184 5.73058 2.20057 5.73058H5.9369L7.0951 2.17589L7.16053 2.01867ZM6.77577 6.38488C6.70869 6.59045 6.51641 6.73041 6.30018 6.73058H2.28944L5.53456 9.08605C5.70939 9.21353 5.78322 9.43981 5.7162 9.64562L4.47303 13.4601L7.71717 11.1056L7.78553 11.0636C7.95048 10.9806 8.15105 10.9946 8.30409 11.1056L11.5463 13.4591L10.3051 9.64562C10.2379 9.43951 10.3113 9.21343 10.4867 9.08605L13.7318 6.73058H9.7201C9.50393 6.73044 9.31168 6.59034 9.24452 6.38488L8.01014 2.59484L6.77577 6.38488Z" fill="black"/>
</svg>
