<svg width="16" height="16" viewBox="0 0 16 16" fill="none" xmlns="http://www.w3.org/2000/svg">
<path d="M5 6C5.55228 6 6 5.55228 6 5C6 4.44772 5.55228 4 5 4C4.44772 4 4 4.44772 4 5C4 5.55228 4.44772 6 5 6Z" stroke="black" stroke-linecap="round" stroke-linejoin="round"/>
<path d="M11 12C11.5523 12 12 11.5523 12 11C12 10.4477 11.5523 10 11 10C10.4477 10 10 10.4477 10 11C10 11.5523 10.4477 12 11 12Z" stroke="black" stroke-linecap="round" stroke-linejoin="round"/>
<path d="M10.5789 4.00717L3.99573 10.5903L5.40994 12.0045L11.9931 5.42138L10.5789 4.00717Z" stroke="black" stroke-linecap="round" stroke-linejoin="round"/>
</svg>
