<svg width="16" height="16" viewBox="0 0 16 16" fill="none" xmlns="http://www.w3.org/2000/svg">
<path fill-rule="evenodd" clip-rule="evenodd" d="M11 1.5C11.2761 1.5 11.5 1.72386 11.5 2V7C11.5 8.7663 10.1984 10.2219 8.5 10.4639V13.5H11C11.2761 13.5 11.5 13.7239 11.5 14C11.5 14.2761 11.2761 14.5 11 14.5H5C4.72386 14.5 4.5 14.2761 4.5 14C4.5 13.7239 4.72386 13.5 5 13.5H7.5V10.4639C5.80165 10.2219 4.5 8.7663 4.5 7V2C4.5 1.72386 4.72386 1.5 5 1.5H11ZM5.5 7C5.5 8.38386 6.61614 9.5 8 9.5C9.38386 9.5 10.5 8.38386 10.5 7V2.5H8.80859L7.80859 4.5H9C9.17328 4.5 9.33467 4.58992 9.42578 4.7373C9.51669 4.88465 9.52469 5.06876 9.44727 5.22363L8.44727 7.22363C8.32377 7.47062 8.02336 7.57076 7.77637 7.44727C7.5294 7.32376 7.42924 7.02335 7.55273 6.77637L8.19141 5.5H7C6.82672 5.49999 6.66532 5.4101 6.57422 5.2627C6.48332 5.11535 6.4753 4.93124 6.55273 4.77637L7.69141 2.5H5.5V7Z" fill="currentColor"/>
</svg>
