<svg width="16" height="16" viewBox="0 0 16 16" fill="none" xmlns="http://www.w3.org/2000/svg">
<path fill-rule="evenodd" clip-rule="evenodd" d="M9.29297 5.99999C11.0868 4.20618 14.1377 5.47658 14.1377 8.00976C14.1374 10.5342 11.0767 11.8032 9.29297 10.0195L7.99023 8.71679L6.69629 10.0107C4.91979 11.786 1.87961 10.5348 1.85449 8.03124C1.8544 8.02745 1.85264 8.02334 1.85254 8.01952V7.99999C1.85254 7.99586 1.85429 7.99141 1.85449 7.9873C1.87997 5.47557 4.90997 4.22312 6.69629 6.00878L7.99023 7.30273L9.29297 5.99999ZM13.1377 8.00976C13.1377 6.36413 11.1615 5.54555 10 6.70702L8.69727 8.00976L10 9.31249C11.1526 10.4651 13.1374 9.64486 13.1377 8.00976ZM5.98926 6.71581C4.83017 5.55739 2.86084 6.3703 2.85254 8.00878C2.85962 9.63792 4.83851 10.4532 5.98926 9.3037L7.2832 8.00976L5.98926 6.71581Z" fill="black"/>
</svg>
