<svg width="16" height="16" viewBox="0 0 16 16" fill="none" xmlns="http://www.w3.org/2000/svg">
<path fill-rule="evenodd" clip-rule="evenodd" d="M11.8975 2.53139C12.7777 2.48831 13.5208 3.21507 13.4785 4.11049L13.4795 4.11147C13.3009 8.14737 12.1274 10.3031 10.5869 11.4162C9.07119 12.5111 7.31698 12.5001 6.25003 12.5001H4.20706L3.35355 13.3537C3.15832 13.5488 2.84177 13.5488 2.64652 13.3537C2.45127 13.1584 2.4513 12.8419 2.64652 12.6466L3.5098 11.7833V9.75991C3.50979 8.69295 3.4989 6.93867 4.59378 5.423C5.70655 3.88294 7.86085 2.71048 11.8946 2.53139H11.8975ZM11.9424 3.52944C8.06896 3.70083 6.2689 4.81224 5.40433 6.00893C4.52186 7.23056 4.5098 8.66688 4.5098 9.75991V10.7833L9.64652 5.64663C9.84178 5.45137 10.1583 5.45137 10.3535 5.64663C10.5487 5.8419 10.5488 6.15844 10.3535 6.35366L5.20706 11.5001H6.25003C7.34308 11.5001 8.77932 11.4881 10.001 10.6056C11.1977 9.74104 12.3091 7.94098 12.4805 4.06753V4.0646C12.4953 3.76324 12.2423 3.51438 11.9453 3.52944H11.9424Z" fill="black"/>
</svg>
