<svg width="16" height="16" viewBox="0 0 16 16" fill="none" xmlns="http://www.w3.org/2000/svg">
<path fill-rule="evenodd" clip-rule="evenodd" d="M13.5 1.5C14.6046 1.5 15.5 2.39543 15.5 3.5C15.5 4.60457 14.6046 5.5 13.5 5.5C13.3562 5.5 13.2162 5.4839 13.0811 5.45508L11.3115 8.99316C11.7324 9.35982 12 9.89795 12 10.5C12 11.6046 11.1046 12.5 10 12.5C8.89543 12.5 8 11.6046 8 10.5C8 10.0509 8.14951 9.63753 8.39941 9.30371L6.82031 7.32129C6.56968 7.43435 6.29281 7.5 6 7.5C5.85624 7.5 5.71622 7.4839 5.58105 7.45508L3.81152 10.9932C4.23243 11.3598 4.5 11.898 4.5 12.5C4.5 13.6046 3.60457 14.5 2.5 14.5C1.39543 14.5 0.5 13.6046 0.5 12.5C0.5 11.3954 1.39543 10.5 2.5 10.5C2.64336 10.5 2.78316 10.5153 2.91797 10.5439L4.6875 7.00586C4.2672 6.63922 4 6.10155 4 5.5C4 4.39543 4.89543 3.5 6 3.5C7.10457 3.5 8 4.39543 8 5.5C8 5.94901 7.84944 6.36152 7.59961 6.69531L9.17871 8.67676C9.42936 8.56367 9.70716 8.5 10 8.5C10.1434 8.5 10.2832 8.51528 10.418 8.54395L12.1875 5.00586C11.7672 4.63922 11.5 4.10155 11.5 3.5C11.5 2.39543 12.3954 1.5 13.5 1.5ZM2.5 11.5C1.94772 11.5 1.5 11.9477 1.5 12.5C1.5 13.0523 1.94772 13.5 2.5 13.5C3.05228 13.5 3.5 13.0523 3.5 12.5C3.5 12.1126 3.27924 11.7774 2.95703 11.6113C2.95363 11.6097 2.94967 11.6091 2.94629 11.6074C2.94249 11.6055 2.93927 11.6026 2.93555 11.6006C2.80379 11.5367 2.65628 11.5 2.5 11.5ZM10 9.5C9.44772 9.5 9 9.94772 9 10.5C9 11.0523 9.44772 11.5 10 11.5C10.5523 11.5 11 11.0523 11 10.5C11 10.1126 10.7792 9.77737 10.457 9.61133C10.4536 9.60972 10.4497 9.60911 10.4463 9.60742C10.4425 9.60552 10.4393 9.60257 10.4355 9.60059C10.3038 9.53666 10.1563 9.5 10 9.5ZM6 4.5C5.44772 4.5 5 4.94772 5 5.5C5 5.88698 5.22042 6.22144 5.54199 6.3877C5.54581 6.38949 5.54992 6.39068 5.55371 6.39258C5.5567 6.39407 5.55956 6.39592 5.5625 6.39746C5.69485 6.4621 5.84279 6.5 6 6.5C6.55228 6.5 7 6.05228 7 5.5C7 4.94772 6.55228 4.5 6 4.5ZM13.5 2.5C12.9477 2.5 12.5 2.94772 12.5 3.5C12.5 3.88698 12.7204 4.22144 13.042 4.3877C13.0458 4.38949 13.0499 4.39068 13.0537 4.39258C13.0567 4.39407 13.0596 4.39592 13.0625 4.39746C13.1948 4.4621 13.3428 4.5 13.5 4.5C14.0523 4.5 14.5 4.05228 14.5 3.5C14.5 2.94772 14.0523 2.5 13.5 2.5Z" fill="black"/>
</svg>
