<svg width="16" height="16" viewBox="0 0 16 16" fill="none" xmlns="http://www.w3.org/2000/svg">
<path fill-rule="evenodd" clip-rule="evenodd" d="M11 10.5C11.2761 10.5 11.5 10.7239 11.5 11V13C11.5 13.2761 11.2761 13.5 11 13.5H5C4.72386 13.5 4.5 13.2761 4.5 13V11C4.5 10.7239 4.72386 10.5 5 10.5H11ZM5.5 12.5H10.5V11.5H5.5V12.5Z" fill="black"/>
<path fill-rule="evenodd" clip-rule="evenodd" d="M9 2.5C9.27614 2.5 9.5 2.72386 9.5 3V4.5H11C11.2761 4.5 11.5 4.72386 11.5 5V7C11.5 7.27614 11.2761 7.5 11 7.5H9.5V9C9.5 9.27614 9.27614 9.5 9 9.5H7C6.72386 9.5 6.5 9.27614 6.5 9V7.5H5C4.72386 7.5 4.5 7.27614 4.5 7V5C4.5 4.72386 4.72386 4.5 5 4.5H6.5V3C6.5 2.72386 6.72386 2.5 7 2.5H9ZM7.5 5C7.5 5.27614 7.27614 5.5 7 5.5H5.5V6.5H7C7.27614 6.5 7.5 6.72386 7.5 7V8.5H8.5V7C8.5 6.72386 8.72386 6.5 9 6.5H10.5V5.5H9C8.72386 5.5 8.5 5.27614 8.5 5V3.5H7.5V5Z" fill="black"/>
</svg>
