<svg width="16" height="16" viewBox="0 0 16 16" fill="none" xmlns="http://www.w3.org/2000/svg">
<path fill-rule="evenodd" clip-rule="evenodd" d="M7.30433 2.57502C7.53289 1.8519 8.50765 1.92149 8.73206 2.56525C8.74751 2.60967 8.75389 2.65612 8.75648 2.70197L9.73304 5.69025H13.0104C13.7322 5.69062 14.0356 6.61622 13.4567 7.04279L13.4537 7.04475L10.7975 8.97053L11.8151 12.0848L11.818 12.0946C12.017 12.7487 11.2714 13.37 10.6637 12.9227L8.00941 10.9969L5.35316 12.9246L5.34632 12.9295C4.77621 13.3283 3.96542 12.7969 4.20472 12.0848L5.22132 8.97053L2.56605 7.04475L2.56702 7.04377C1.95343 6.60561 2.30197 5.6903 3.01038 5.69025H6.28675L7.30433 2.57502ZM7.12562 6.34553C7.0584 6.55103 6.86625 6.69022 6.65003 6.69025H3.78089L6.10316 8.37482C6.27882 8.50225 6.35215 8.72908 6.2848 8.93537L5.39515 11.658L7.71644 9.97541L7.7848 9.93342C7.9498 9.85015 8.15018 9.86436 8.30335 9.97541L10.6237 11.658L9.73499 8.93537C9.66766 8.72909 9.74099 8.50224 9.91663 8.37482L12.2389 6.69025H9.36976C9.15359 6.69015 8.96136 6.55099 8.89417 6.34553L8.00941 3.63752L7.12562 6.34553Z" fill="black"/>
</svg>
