<svg width="16" height="16" viewBox="0 0 16 16" fill="none" xmlns="http://www.w3.org/2000/svg">
<path d="M8 14C11.3137 14 14 11.3137 14 8C14 4.68629 11.3137 2 8 2C4.68629 2 2 4.68629 2 8C2 11.3137 4.68629 14 8 14Z" stroke="black" stroke-linecap="round" stroke-linejoin="round"/>
<path d="M6 6H9C9.55 6 10 6.45 10 7C10 7.55 9.55 8 9 8H8" stroke="black" stroke-linecap="round" stroke-linejoin="round"/>
<path d="M6 10H9.5C10.05 10 10.5 9.55 10.5 9C10.5 8.45 10.05 8 9.5 8H7" stroke="black" stroke-linecap="round" stroke-linejoin="round"/>
<path d="M8.5 6V5" stroke="black" stroke-linecap="round" stroke-linejoin="round"/>
<path d="M8.5 11V10" stroke="black" stroke-linecap="round" stroke-linejoin="round"/>
<path d="M7 11V5" stroke="black" stroke-linecap="round" stroke-linejoin="round"/>
</svg>
