<svg width="16" height="16" viewBox="0 0 16 16" fill="none" xmlns="http://www.w3.org/2000/svg">
<path d="M12.5 3.5C12.7761 3.5 13 3.72386 13 4C13 4.27614 12.7761 4.5 12.5 4.5H10.5V10C10.5 10.8239 11.1761 11.5 12 11.5C12.2761 11.5 12.5 11.7239 12.5 12C12.5 12.2761 12.2761 12.5 12 12.5C10.6239 12.5 9.5 11.3761 9.5 10V4.5H6.5V6C6.5 7.684 6.38063 8.88923 6.04297 9.87109C5.69862 10.8722 5.14068 11.602 4.34473 12.3613C4.14493 12.5519 3.82928 12.5445 3.63867 12.3447C3.44807 12.1449 3.45548 11.8293 3.65527 11.6387C4.3793 10.948 4.82201 10.3473 5.09766 9.5459C5.37983 8.72536 5.5 7.65559 5.5 6V4.5H3.5C3.22386 4.5 3 4.27614 3 4C3 3.72386 3.22386 3.5 3.5 3.5H12.5Z" fill="black"/>
</svg>
