<svg width="16" height="16" viewBox="0 0 16 16" fill="none" xmlns="http://www.w3.org/2000/svg">
<path d="M2.14652 7.64652C2.34179 7.45126 2.65829 7.45126 2.85355 7.64652L5.85355 10.6465C6.04874 10.8418 6.04879 11.1583 5.85355 11.3536C5.65832 11.5488 5.34179 11.5487 5.14652 11.3536L2.14652 8.35355C1.95126 8.15829 1.95126 7.84179 2.14652 7.64652Z" fill="currentColor"/>
<path d="M12.6465 5.64652C12.8418 5.45126 13.1583 5.45126 13.3536 5.64652C13.5487 5.84179 13.5488 6.15832 13.3536 6.35355L8.35355 11.3536C8.15832 11.5488 7.84179 11.5487 7.64652 11.3536L4.64652 8.35355C4.45126 8.15829 4.45126 7.84179 4.64652 7.64652C4.84179 7.45126 5.15829 7.45126 5.35355 7.64652L8.00004 10.293L12.6465 5.64652Z" fill="currentColor"/>
<path d="M10.1465 5.64652C10.3418 5.45126 10.6583 5.45126 10.8536 5.64652C11.0487 5.84179 11.0488 6.15832 10.8536 6.35355L8.35355 8.85355C8.15832 9.04879 7.84179 9.04874 7.64652 8.85355C7.45126 8.65829 7.45126 8.34178 7.64652 8.14652L10.1465 5.64652Z" fill="currentColor"/>
</svg>
