<svg width="16" height="16" viewBox="0 0 16 16" fill="none" xmlns="http://www.w3.org/2000/svg">
<path d="M5.55273 5.77637C5.67623 5.52938 5.97664 5.42924 6.22363 5.55273L10.2236 7.55273C10.393 7.63743 10.5 7.81062 10.5 8C10.5 8.18939 10.393 8.36257 10.2236 8.44727L6.22363 10.4473C5.97664 10.5708 5.67623 10.4706 5.55273 10.2236C5.42924 9.97665 5.52938 9.67623 5.77637 9.55273L8.88184 8L5.77637 6.44727C5.52938 6.32377 5.42924 6.02335 5.55273 5.77637Z" fill="currentColor"/>
<path fill-rule="evenodd" clip-rule="evenodd" d="M8 1.5C11.5899 1.5 14.5 4.41015 14.5 8C14.5 11.5899 11.5899 14.5 8 14.5C4.41015 14.5 1.5 11.5899 1.5 8C1.5 4.41015 4.41015 1.5 8 1.5ZM8 2.5C4.96243 2.5 2.5 4.96243 2.5 8C2.5 11.0376 4.96243 13.5 8 13.5C11.0376 13.5 13.5 11.0376 13.5 8C13.5 4.96243 11.0376 2.5 8 2.5Z" fill="currentColor"/>
</svg>
