<svg width="16" height="16" viewBox="0 0 16 16" fill="none" xmlns="http://www.w3.org/2000/svg">
<path fill-rule="evenodd" clip-rule="evenodd" d="M9.29297 5.99998C11.0868 4.20617 14.1377 5.47656 14.1377 8.00974C14.1374 10.5342 11.0767 11.8032 9.29297 10.0195L7.99023 8.71678L6.69629 10.0107C4.91979 11.786 1.87961 10.5347 1.85449 8.03123C1.8544 8.02743 1.85264 8.02333 1.85254 8.01951V7.99998C1.85254 7.99584 1.85429 7.99139 1.85449 7.98728C1.87997 5.47555 4.90997 4.2231 6.69629 6.00877L7.99023 7.30271L9.29297 5.99998ZM13.1377 8.00974C13.1377 6.36412 11.1615 5.54553 10 6.70701L8.69727 8.00974L10 9.31248C11.1526 10.4651 13.1374 9.64484 13.1377 8.00974ZM5.98926 6.7158C4.83017 5.55737 2.86084 6.37028 2.85254 8.00877C2.85962 9.6379 4.83851 10.4532 5.98926 9.30369L7.2832 8.00974L5.98926 6.7158Z" fill="currentColor"/>
</svg>
