<svg width="16" height="16" viewBox="0 0 16 16" fill="none" xmlns="http://www.w3.org/2000/svg">
<path fill-rule="evenodd" clip-rule="evenodd" d="M10.082 4.50684C10.3544 4.55222 10.5385 4.8097 10.4932 5.08203L10.3398 6H11C11.2761 6 11.5 6.22386 11.5 6.5C11.5 6.77614 11.2761 7 11 7H10.1738L9.83984 9H10.5C10.7761 9 11 9.22386 11 9.5C11 9.77614 10.7761 10 10.5 10H9.67383L9.49316 11.082C9.44777 11.3544 9.19029 11.5385 8.91797 11.4932C8.64565 11.4478 8.46154 11.1903 8.50684 10.918L8.66016 10H6.67383L6.49316 11.082C6.44778 11.3544 6.19029 11.5385 5.91797 11.4932C5.64564 11.4478 5.46154 11.1903 5.50684 10.918L5.66016 10H5C4.72386 10 4.5 9.77614 4.5 9.5C4.5 9.22386 4.72386 9 5 9H5.82617L6.16016 7H5.5C5.22386 7 5 6.77614 5 6.5C5 6.22386 5.22386 6 5.5 6H6.32617L6.50684 4.91797C6.55223 4.64564 6.80971 4.46154 7.08203 4.50684C7.35435 4.55223 7.53846 4.80971 7.49316 5.08203L7.33984 6H9.32617L9.50684 4.91797C9.55222 4.64564 9.80971 4.46155 10.082 4.50684ZM6.83984 9H8.82617L9.16016 7H7.17383L6.83984 9Z" fill="black"/>
<path fill-rule="evenodd" clip-rule="evenodd" d="M8 1.5C11.5899 1.5 14.5 4.41015 14.5 8C14.5 11.5899 11.5899 14.5 8 14.5C4.41015 14.5 1.5 11.5899 1.5 8C1.5 4.41015 4.41015 1.5 8 1.5ZM8 2.5C4.96243 2.5 2.5 4.96243 2.5 8C2.5 11.0376 4.96243 13.5 8 13.5C11.0376 13.5 13.5 11.0376 13.5 8C13.5 4.96243 11.0376 2.5 8 2.5Z" fill="black"/>
</svg>
