<svg width="16" height="16" viewBox="0 0 16 16" fill="none" xmlns="http://www.w3.org/2000/svg">
<path d="M2.07374 4.00404C3.35812 2.34123 5.64428 2.04203 7.27784 3.1349C7.45891 3.25614 7.54082 3.48033 7.47999 3.68959L6.5962 6.72963L8.22315 7.5431C8.39255 7.6278 8.49952 7.80098 8.49952 7.99037V8.339L9.26905 7.18373L7.77589 6.43764C7.64764 6.37345 7.55288 6.25692 7.51612 6.1183C7.47939 5.97952 7.50466 5.83137 7.58448 5.71205L9.4839 2.87221C9.54907 2.77478 9.6468 2.70301 9.75929 2.67006C11.2138 2.24488 12.8766 2.66466 13.9165 3.99135C13.9398 4.01258 13.9617 4.03571 13.981 4.06166C15.1548 5.64221 14.8591 7.83783 13.5034 9.19349L8.35304 14.3439C8.2593 14.4374 8.13195 14.4904 7.99952 14.4904C7.86705 14.4903 7.73968 14.4376 7.64601 14.3439L2.50636 9.20326C1.14087 7.83763 0.841573 5.58687 2.07374 4.00404ZM6.40968 3.78725C5.23716 3.20434 3.74172 3.48151 2.86573 4.61537L2.86476 4.61732C1.97859 5.75429 2.15964 7.44234 3.21339 8.49623L7.99952 13.2824L12.7964 8.48646C13.8284 7.45443 14.0178 5.83794 13.2056 4.70033C13.1964 4.68996 13.1866 4.67935 13.1782 4.6681C12.4515 3.69138 11.2812 3.33959 10.2095 3.58607L8.72999 5.79603L10.2232 6.5431C10.3513 6.6072 10.4461 6.72297 10.4829 6.86146C10.5197 7.00007 10.4951 7.14838 10.4155 7.26771L8.41554 10.2677C8.29326 10.4507 8.06569 10.5326 7.85499 10.4689C7.64422 10.4051 7.49968 10.2106 7.49952 9.99037V8.29896L5.77589 7.43764C5.56008 7.32963 5.45276 7.08248 5.52003 6.85072L6.40968 3.78725Z" fill="black"/>
</svg>
