<svg width="16" height="16" viewBox="0 0 16 16" fill="none" xmlns="http://www.w3.org/2000/svg">
<path fill-rule="evenodd" clip-rule="evenodd" d="M8 2.5C9.41535 2.5 10.7165 2.671 11.6797 2.95996C12.158 3.10347 12.5814 3.28531 12.8965 3.50879C13.1985 3.7231 13.5 4.05065 13.5 4.5V11.5C13.5 11.9496 13.1988 12.2777 12.8965 12.4922C12.5812 12.7158 12.1571 12.8966 11.6787 13.04C10.7153 13.3288 9.41455 13.5 8 13.5C6.58545 13.5 5.28465 13.3288 4.32129 13.04C3.84287 12.8966 3.41879 12.7158 3.10352 12.4922C2.80116 12.2777 2.5 11.9496 2.5 11.5V4.5C2.5 4.05065 2.80147 3.7231 3.10352 3.50879C3.41859 3.28531 3.84203 3.10347 4.32031 2.95996C5.2835 2.671 6.58465 2.5 8 2.5ZM12.5 5.7207C12.2564 5.84167 11.9796 5.95004 11.6797 6.04004C10.7165 6.329 9.41535 6.5 8 6.5C6.58465 6.5 5.2835 6.329 4.32031 6.04004C4.02036 5.95004 3.74361 5.84167 3.5 5.7207V11.4922C3.50307 11.502 3.52806 11.5671 3.68262 11.6768C3.87354 11.8121 4.18214 11.9543 4.6084 12.082C5.45504 12.3358 6.65455 12.5 8 12.5C9.34545 12.5 10.545 12.3358 11.3916 12.082C11.8179 11.9543 12.1265 11.8121 12.3174 11.6768C12.4719 11.5671 12.4969 11.502 12.5 11.4922V5.7207ZM8 3.5C6.6541 3.5 5.45484 3.66409 4.6084 3.91797C4.18211 4.04586 3.87352 4.18886 3.68262 4.32422C3.55207 4.41682 3.5144 4.47761 3.50391 4.5C3.5144 4.52239 3.55207 4.58318 3.68262 4.67578C3.87352 4.81114 4.18211 4.95414 4.6084 5.08203C5.45484 5.33591 6.6541 5.5 8 5.5C9.3459 5.5 10.5452 5.33591 11.3916 5.08203C11.8179 4.95414 12.1265 4.81114 12.3174 4.67578C12.4472 4.58371 12.4844 4.52269 12.4951 4.5C12.4844 4.47731 12.4472 4.41629 12.3174 4.32422C12.1265 4.18886 11.8179 4.04586 11.3916 3.91797C10.5452 3.66409 9.3459 3.5 8 3.5Z" fill="currentColor"/>
</svg>
