<svg width="16" height="16" viewBox="0 0 16 16" fill="none" xmlns="http://www.w3.org/2000/svg">
<path d="M7.99512 4.50293C8.71361 4.50298 9.36732 4.91523 9.82617 5.60352C9.97875 5.83321 9.91703 6.14386 9.6875 6.29688C9.458 6.44962 9.14741 6.38728 8.99414 6.1582C8.67306 5.67659 8.30157 5.50298 7.99512 5.50293C7.68865 5.50293 7.31721 5.67653 6.99609 6.1582C6.92564 6.26395 6.86385 6.3789 6.80762 6.5H8C8.27614 6.5 8.5 6.72386 8.5 7C8.5 7.27614 8.27614 7.5 8 7.5H6.52637C6.50566 7.66349 6.49514 7.83123 6.49512 8C6.49514 8.16891 6.50562 8.33633 6.52637 8.5H8C8.27614 8.5 8.5 8.72386 8.5 9C8.5 9.27614 8.27614 9.5 8 9.5H6.80762C6.8639 9.62123 6.92557 9.73696 6.99609 9.84277C7.31715 10.3241 7.68873 10.498 7.99512 10.498C8.30151 10.498 8.67311 10.3242 8.99414 9.84277C9.14734 9.61324 9.45782 9.55108 9.6875 9.7041C9.91693 9.8573 9.97909 10.1678 9.82617 10.3975C9.36733 11.0856 8.71351 11.498 7.99512 11.498C7.27672 11.498 6.62293 11.0855 6.16406 10.3975C5.98174 10.1239 5.83997 9.81952 5.7334 9.5H5C4.72386 9.5 4.5 9.27614 4.5 9C4.5 8.72386 4.72386 8.5 5 8.5H5.52246C5.50567 8.33334 5.49513 8.16629 5.49512 8C5.49513 7.83385 5.5057 7.66649 5.52246 7.5H5C4.72386 7.5 4.5 7.27614 4.5 7C4.5 6.72386 4.72386 6.5 5 6.5H5.7334C5.83994 6.18063 5.98181 5.87702 6.16406 5.60352C6.62294 4.9152 7.27658 4.50293 7.99512 4.50293Z" fill="black"/>
<path fill-rule="evenodd" clip-rule="evenodd" d="M8 1.5C11.5899 1.5 14.5 4.41015 14.5 8C14.5 11.5899 11.5899 14.5 8 14.5C4.41015 14.5 1.5 11.5899 1.5 8C1.5 4.41015 4.41015 1.5 8 1.5ZM8 2.5C4.96243 2.5 2.5 4.96243 2.5 8C2.5 11.0376 4.96243 13.5 8 13.5C11.0376 13.5 13.5 11.0376 13.5 8C13.5 4.96243 11.0376 2.5 8 2.5Z" fill="black"/>
</svg>
