<svg width="16" height="16" viewBox="0 0 16 16" fill="none" xmlns="http://www.w3.org/2000/svg">
<path d="M9.5 5C9.77614 5 10 5.22386 10 5.5C10 5.77614 9.77614 6 9.5 6H8.49414C8.71389 6.29113 8.87095 6.63102 8.94727 7H9.5C9.77614 7 10 7.22386 10 7.5C10 7.77614 9.77614 8 9.5 8H8.94727C8.78234 8.80294 8.23091 9.46722 7.49609 9.78906L8.85352 11.1465C9.04878 11.3417 9.04878 11.6583 8.85352 11.8535C8.65825 12.0488 8.34175 12.0488 8.14648 11.8535L6.14648 9.85352C6.00349 9.71052 5.9607 9.49543 6.03809 9.30859C6.11549 9.12179 6.29779 9 6.5 9C7.14867 9 7.70451 8.58039 7.91211 8H6.5C6.22386 8 6 7.77614 6 7.5C6 7.22386 6.22386 7 6.5 7H7.91211C7.70451 6.41961 7.14867 6 6.5 6C6.22386 6 6 5.77614 6 5.5C6 5.22386 6.22386 5 6.5 5H9.5Z" fill="black"/>
<path fill-rule="evenodd" clip-rule="evenodd" d="M8 1.5C11.5899 1.5 14.5 4.41015 14.5 8C14.5 11.5899 11.5899 14.5 8 14.5C4.41015 14.5 1.5 11.5899 1.5 8C1.5 4.41015 4.41015 1.5 8 1.5ZM8 2.5C4.96243 2.5 2.5 4.96243 2.5 8C2.5 11.0376 4.96243 13.5 8 13.5C11.0376 13.5 13.5 11.0376 13.5 8C13.5 4.96243 11.0376 2.5 8 2.5Z" fill="black"/>
</svg>
