<svg width="16" height="16" viewBox="0 0 16 16" fill="none" xmlns="http://www.w3.org/2000/svg">
<path d="M9.77637 5.55273C10.0234 5.42924 10.3238 5.52938 10.4473 5.77637C10.5708 6.02336 10.4706 6.32377 10.2236 6.44727L7.11816 8L10.2236 9.55273C10.4706 9.67623 10.5708 9.97664 10.4473 10.2236C10.3238 10.4706 10.0234 10.5708 9.77637 10.4473L5.77637 8.44727C5.60698 8.36257 5.5 8.18939 5.5 8C5.5 7.81062 5.60698 7.63743 5.77637 7.55273L9.77637 5.55273Z" fill="currentColor"/>
<path fill-rule="evenodd" clip-rule="evenodd" d="M8 1.5C11.5899 1.5 14.5 4.41015 14.5 8C14.5 11.5899 11.5899 14.5 8 14.5C4.41015 14.5 1.5 11.5899 1.5 8C1.5 4.41015 4.41015 1.5 8 1.5ZM8 2.5C4.96243 2.5 2.5 4.96243 2.5 8C2.5 11.0376 4.96243 13.5 8 13.5C11.0376 13.5 13.5 11.0376 13.5 8C13.5 4.96243 11.0376 2.5 8 2.5Z" fill="currentColor"/>
</svg>
