<svg width="16" height="16" viewBox="0 0 16 16" fill="none" xmlns="http://www.w3.org/2000/svg">
<path fill-rule="evenodd" clip-rule="evenodd" d="M10.5547 3.34173C10.7486 3.21381 11.0128 3.23564 11.1836 3.40618L12.5938 4.81634C12.6872 4.91 12.7402 5.03751 12.7402 5.16986C12.7402 5.30231 12.6874 5.42966 12.5938 5.52337L10.1172 7.99993L12.5938 10.4765C12.6872 10.5702 12.7402 10.6977 12.7402 10.83C12.7402 10.9625 12.6874 11.0898 12.5938 11.1835L11.1836 12.5937C10.9885 12.7887 10.6718 12.7885 10.4766 12.5937L8 10.1171L5.52344 12.5937C5.32827 12.7887 5.01164 12.7886 4.81641 12.5937L3.40625 11.1835C3.31273 11.0899 3.25985 10.9624 3.25977 10.83C3.25985 10.6976 3.31265 10.5702 3.40625 10.4765L5.88281 7.99993L3.40625 5.52337C3.31269 5.42967 3.25981 5.30227 3.25977 5.16986C3.25985 5.0374 3.31261 4.91003 3.40625 4.81634L4.81641 3.40618L4.89453 3.34173C5.0885 3.21371 5.3526 3.2356 5.52344 3.40618L8 5.88275L10.4766 3.40618L10.5547 3.34173ZM8.35352 6.94329C8.25981 7.037 8.13252 7.08971 8 7.08978C7.86756 7.08971 7.74018 7.0369 7.64648 6.94329L5.16992 4.46673L4.4668 5.16986L6.94336 7.64642C7.13845 7.84168 7.13853 8.15824 6.94336 8.35345L4.4668 10.829L5.16895 11.5322L7.64648 9.05657L7.72266 8.99407C7.80412 8.93976 7.90065 8.91014 8 8.91009C8.13239 8.91015 8.25983 8.96304 8.35352 9.05657L10.8291 11.5322L11.5322 10.829L9.05664 8.35345C8.86166 8.15817 8.86147 7.84159 9.05664 7.64642L11.5322 5.16888L10.8291 4.46673L8.35352 6.94329Z" fill="black"/>
</svg>
