<svg width="16" height="16" viewBox="0 0 16 16" fill="none" xmlns="http://www.w3.org/2000/svg">
<path fill-rule="evenodd" clip-rule="evenodd" d="M11.7764 3.5526C11.9312 3.4752 12.1154 3.48322 12.2627 3.57408C12.4101 3.66516 12.5 3.82663 12.5 3.99986V5.99986C12.5 6.18923 12.393 6.36242 12.2236 6.44713L9.11816 7.99986L12.2236 9.5526C12.393 9.63727 12.4999 9.81053 12.5 9.99986V11.9999C12.5 12.1731 12.4101 12.3345 12.2627 12.4256C12.1153 12.5166 11.9312 12.5246 11.7764 12.4471L3.77637 8.44713C3.60701 8.36242 3.5 8.18923 3.5 7.99986C3.50005 7.81053 3.60702 7.63727 3.77637 7.5526L11.7764 3.5526ZM5.11816 7.99986L11.5 11.1903V10.3085L7.77637 8.44713C7.60701 8.36242 7.5 8.18923 7.5 7.99986C7.50005 7.81053 7.60702 7.63727 7.77637 7.5526L11.5 5.69029V4.80846L5.11816 7.99986Z" fill="currentColor"/>
</svg>
