<svg width="16" height="16" viewBox="0 0 16 16" fill="none" xmlns="http://www.w3.org/2000/svg">
<path d="M8.11621 3.63672C9.63148 2.12146 12.0785 2.12146 13.5938 3.63672C15.1087 5.15192 15.1087 7.59808 13.5938 9.11328L8.35352 14.3535C8.25975 14.4473 8.13261 14.5 8 14.5H7.98047C7.84786 14.5 7.71975 14.4473 7.62598 14.3535L2.38672 9.11328C0.871459 7.59802 0.871459 5.15198 2.38672 3.63672C3.90198 2.12146 6.34802 2.12146 7.86328 3.63672L7.98926 3.7627L8.11621 3.63672ZM12.8867 4.34375C11.762 3.21901 9.94798 3.21901 8.82324 4.34375L8.34375 4.82324C8.14849 5.01851 7.83198 5.0185 7.63672 4.82324L7.15625 4.34375C6.03151 3.21901 4.21849 3.21901 3.09375 4.34375C1.96901 5.46849 1.96901 7.28151 3.09375 8.40625L7.99024 13.3027L12.8867 8.40625C14.0111 7.28158 14.0111 5.46843 12.8867 4.34375Z" fill="currentColor"/>
</svg>
