<svg width="16" height="16" viewBox="0 0 16 16" fill="none" xmlns="http://www.w3.org/2000/svg">
<path fill-rule="evenodd" clip-rule="evenodd" d="M8 1.5C8.27614 1.5 8.5 1.72386 8.5 2V2.5H9C9.27614 2.5 9.5 2.72386 9.5 3C9.5 3.27614 9.27614 3.5 9 3.5H8.5V4.79297L11 7.29297L13.6465 4.64648C13.7895 4.50349 14.0046 4.4607 14.1914 4.53809C14.3782 4.61549 14.5 4.7978 14.5 5V13C14.5 13.2761 14.2761 13.5 14 13.5H2C1.72387 13.5 1.50002 13.2761 1.5 13V5C1.5 4.7978 1.6218 4.61549 1.80859 4.53809C1.99543 4.4607 2.21052 4.50349 2.35352 4.64648L5 7.29297L7.5 4.79297V3.5H7C6.72386 3.5 6.5 3.27614 6.5 3C6.5 2.72386 6.72386 2.5 7 2.5H7.5V2C7.5 1.72386 7.72386 1.5 8 1.5ZM2.5 12.5H13.5V11.5H2.5V12.5ZM5.35352 8.35352C5.15826 8.54875 4.84174 8.54875 4.64648 8.35352L2.5 6.20703V10.5H13.5V6.20703L11.3535 8.35352C11.1583 8.54875 10.8417 8.54875 10.6465 8.35352L8 5.70703L5.35352 8.35352Z" fill="currentColor"/>
</svg>
