<svg width="16" height="16" viewBox="0 0 16 16" fill="none" xmlns="http://www.w3.org/2000/svg">
<path fill-rule="evenodd" clip-rule="evenodd" d="M13 3.5C13.2761 3.5 13.5 3.72386 13.5 4V6C13.5 6.27614 13.2761 6.5 13 6.5H11.5V9C11.5 9.2395 11.6728 9.44307 11.8994 9.49023L12.1006 9.50977C12.3286 9.55629 12.5 9.75829 12.5 10V12C12.5 12.2761 12.2761 12.5 12 12.5C10.0639 12.5 8.5 10.9361 8.5 9V6.5H7.5V12C7.5 12.2761 7.27614 12.5 7 12.5H5C4.72386 12.5 4.5 12.2761 4.5 12V6.5H3C2.72386 6.5 2.5 6.27614 2.5 6V4C2.5 3.72386 2.72386 3.5 3 3.5H13ZM3.5 5.5H5C5.27614 5.5 5.5 5.72386 5.5 6V11.5H6.5V6C6.5 5.72386 6.72386 5.5 7 5.5H9C9.27614 5.5 9.5 5.72386 9.5 6V9C9.5 10.2125 10.357 11.2184 11.5 11.4492V10.4121C10.9187 10.2052 10.5 9.65074 10.5 9V6C10.5 5.72386 10.7239 5.5 11 5.5H12.5V4.5H3.5V5.5Z" fill="currentColor"/>
</svg>
