<svg width="16" height="16" viewBox="0 0 16 16" fill="none" xmlns="http://www.w3.org/2000/svg">
<path fill-rule="evenodd" clip-rule="evenodd" d="M7.99981 2.5C8.15166 2.5 8.29555 2.56895 8.39044 2.6875L12.3904 7.6875C12.5365 7.87011 12.5365 8.12989 12.3904 8.3125L8.39044 13.3125C8.29555 13.4311 8.15166 13.5 7.99981 13.5C7.84799 13.4999 7.70403 13.4311 7.60919 13.3125L3.60919 8.3125C3.4632 8.12993 3.4632 7.87007 3.60919 7.6875L7.60919 2.6875L7.68926 2.6084C7.77676 2.53902 7.886 2.50004 7.99981 2.5ZM4.64044 8L7.99981 12.1992L11.3592 8L7.99981 3.80078L4.64044 8Z" fill="currentColor"/>
</svg>
