<svg width="16" height="16" viewBox="0 0 16 16" fill="none" xmlns="http://www.w3.org/2000/svg">
<path d="M8 11C8.55228 11 9 11.4477 9 12C9 12.5523 8.55228 13 8 13C7.44772 13 7 12.5523 7 12C7 11.4477 7.44772 11 8 11Z" fill="currentColor"/>
<path d="M12.5 7.5C12.7761 7.5 13 7.72386 13 8C13 8.27614 12.7761 8.5 12.5 8.5H3.5C3.22386 8.5 3 8.27614 3 8C3 7.72386 3.22386 7.5 3.5 7.5H12.5Z" fill="currentColor"/>
<path d="M8 3C8.55228 3 9 3.44772 9 4C9 4.55228 8.55228 5 8 5C7.44772 5 7 4.55228 7 4C7 3.44772 7.44772 3 8 3Z" fill="currentColor"/>
</svg>
