<svg width="16" height="16" viewBox="0 0 16 16" fill="none" xmlns="http://www.w3.org/2000/svg">
<path fill-rule="evenodd" clip-rule="evenodd" d="M12 8.5C12.2761 8.5 12.5 8.72386 12.5 9V11C12.5 11.2761 12.2761 11.5 12 11.5H4C3.72386 11.5 3.5 11.2761 3.5 11V9C3.5 8.72386 3.72386 8.5 4 8.5H12ZM4.5 10.5H11.5V9.5H4.5V10.5Z" fill="black"/>
<path fill-rule="evenodd" clip-rule="evenodd" d="M12 4.5C12.2761 4.5 12.5 4.72386 12.5 5V7C12.5 7.27614 12.2761 7.5 12 7.5H4C3.72386 7.5 3.5 7.27614 3.5 7V5C3.5 4.72386 3.72386 4.5 4 4.5H12ZM4.5 6.5H11.5V5.5H4.5V6.5Z" fill="black"/>
</svg>
