<svg width="16" height="16" viewBox="0 0 16 16" fill="none" xmlns="http://www.w3.org/2000/svg">
<path fill-rule="evenodd" clip-rule="evenodd" d="M7.7373 1.59115C7.90892 1.47976 8.13177 1.4838 8.29883 1.60189L8.30078 1.60384L8.30469 1.6058C8.30726 1.60765 8.31063 1.61078 8.31445 1.61361C8.32233 1.6194 8.33295 1.62728 8.3457 1.63705C8.37168 1.65695 8.40751 1.68556 8.45117 1.72201C8.53857 1.79497 8.65891 1.90107 8.79688 2.04134C9.0726 2.32172 9.42418 2.74063 9.73633 3.30013C10.2615 4.24162 10.6612 5.56493 10.4229 7.26107C10.7966 6.93712 11.2162 6.36391 11.3545 5.33334L11.3711 5.25619C11.4238 5.0808 11.5701 4.94567 11.7539 4.90951C11.964 4.86847 12.1767 4.96599 12.2832 5.1517L12.2842 5.15267L12.2852 5.15463C12.2852 5.15463 12.2876 5.15882 12.2891 5.16146C12.292 5.16678 12.2967 5.17379 12.3018 5.18295C12.3118 5.20136 12.3255 5.22783 12.3428 5.26107C12.3775 5.32788 12.4253 5.42459 12.4814 5.54623C12.5935 5.7892 12.7392 6.13634 12.874 6.5599C13.1423 7.40283 13.3782 8.5728 13.2158 9.83431C13.2112 9.86974 13.2009 9.90334 13.1895 9.93588C12.8137 12.4752 10.5987 14.5002 8 14.5003C5.35324 14.5002 3.21977 12.3553 3.21973 9.72006C3.21973 8.88596 3.37517 8.12607 3.75781 7.42806C4.13933 6.73238 4.72775 6.13221 5.54004 5.58529C6.36066 5.03173 6.92179 4.51152 7.24512 3.9642C7.55664 3.4367 7.66729 2.8511 7.51953 2.10775C7.47967 1.90725 7.56602 1.70265 7.7373 1.59115ZM8.54004 3.28646C8.47232 3.70598 8.32683 4.09983 8.10645 4.47299C7.67231 5.20792 6.96866 5.82813 6.09961 6.41439C5.38245 6.89722 4.92065 7.38807 4.63477 7.90951C4.35008 8.42888 4.21973 9.01437 4.21973 9.72006C4.21977 11.8046 5.90704 13.5002 8 13.5003C10.1061 13.5002 11.9441 11.8188 12.2139 9.70638L12.2295 9.63509C12.3479 8.60746 12.1615 7.6339 11.9297 6.89486C11.6635 7.44324 11.3167 7.83479 10.9717 8.10873C10.6815 8.33909 10.402 8.48078 10.1914 8.56478C10.0862 8.60672 9.99712 8.6345 9.93164 8.65267C9.89892 8.66174 9.87102 8.66853 9.85059 8.67318C9.84058 8.67546 9.83194 8.67766 9.8252 8.67904C9.82194 8.67971 9.81886 8.68052 9.81641 8.68099H9.8125L9.81152 8.68197H9.80957C9.64016 8.71282 9.46669 8.65391 9.35059 8.5267C9.23455 8.3994 9.19196 8.22093 9.23828 8.05502C9.77916 6.11953 9.37787 4.70992 8.86328 3.78744C8.75934 3.60113 8.64808 3.43502 8.54004 3.28646Z" fill="black"/>
</svg>
