<svg width="16" height="16" viewBox="0 0 16 16" fill="none" xmlns="http://www.w3.org/2000/svg">
<path d="M8.00012 1.51001C8.13269 1.51004 8.2599 1.56275 8.35364 1.65649L12.8546 6.15747C12.8863 6.17732 12.9166 6.19994 12.9435 6.22681C14.2886 7.57208 14.2887 9.74878 12.9435 11.094L12.9415 11.0959C12.1557 11.8731 11.0961 12.1894 10.0841 12.0608L10.8663 13.7942C10.936 13.9489 10.9223 14.1292 10.8302 14.2717C10.7381 14.4141 10.5798 14.5002 10.4103 14.5002H5.61047C5.44095 14.5002 5.28271 14.414 5.19055 14.2717C5.09844 14.1292 5.08471 13.9489 5.15442 13.7942L5.93469 12.0598C4.91848 12.19 3.85762 11.8752 3.07629 11.094C1.73112 9.74882 1.73128 7.57209 3.07629 6.22681L7.64661 1.65649L7.72278 1.59399C7.80429 1.53968 7.90072 1.51001 8.00012 1.51001ZM3.78333 6.93384C2.82896 7.88848 2.82903 9.43131 3.78333 10.386C4.54255 11.1452 5.68681 11.2913 6.61438 10.8235C6.80344 10.7281 7.03262 10.7621 7.18567 10.9084C7.33872 11.0549 7.38304 11.2827 7.29602 11.4758L6.38294 13.5002H9.63684L8.72376 11.4758C8.63661 11.2824 8.6816 11.0549 8.83508 10.9084C8.98854 10.7621 9.21736 10.7284 9.40637 10.8245C10.3206 11.2899 11.4652 11.1475 12.2365 10.386L12.4044 10.2004C13.1701 9.26181 13.1313 7.89244 12.2921 6.99536C12.2653 6.97743 12.2401 6.95695 12.2169 6.93384L8.00012 2.71704L3.78333 6.93384Z" fill="currentColor"/>
</svg>
