<svg width="16" height="16" viewBox="0 0 16 16" fill="none" xmlns="http://www.w3.org/2000/svg">
<path fill-rule="evenodd" clip-rule="evenodd" d="M8 1.5C8.20936 1.5 8.39624 1.63075 8.46875 1.82715L9.73926 5.2666C9.90866 5.72862 10.2704 6.09134 10.7324 6.26074L14.1729 7.53125C14.3693 7.60376 14.5 7.79064 14.5 8C14.5 8.20936 14.3693 8.39624 14.1729 8.46875L10.7334 9.73926C10.2714 9.90866 9.90866 10.2704 9.73926 10.7324L8.46875 14.1729C8.39624 14.3693 8.20936 14.5 8 14.5C7.79064 14.5 7.60376 14.3693 7.53125 14.1729L6.26074 10.7334C6.09134 10.2714 5.7296 9.90866 5.26758 9.73926L1.82715 8.46875C1.63075 8.39624 1.5 8.20936 1.5 8C1.5 7.79064 1.63075 7.60376 1.82715 7.53125L5.2666 6.26074C5.72862 6.09134 6.09134 5.7296 6.26074 5.26758L7.53125 1.82715L7.56348 1.75684C7.6507 1.60014 7.81671 1.5 8 1.5ZM7.19922 5.61328C6.92852 6.35056 6.34966 6.9277 5.6123 7.19824L3.44238 8L5.61328 8.80078C6.35079 9.07128 6.92848 9.64933 7.19922 10.3867L8 12.5566L8.80078 10.3867C9.07141 9.64962 9.64962 9.07141 10.3867 8.80078L12.5566 8L10.3867 7.19922C9.64977 6.92854 9.07137 6.35028 8.80078 5.61328L8 3.44238L7.19922 5.61328Z" fill="currentColor"/>
</svg>
