<svg width="16" height="16" viewBox="0 0 16 16" fill="none" xmlns="http://www.w3.org/2000/svg">
<path fill-rule="evenodd" clip-rule="evenodd" d="M10.2246 3.6543C10.4199 3.45905 10.7364 3.45908 10.9317 3.6543L12.3467 5.06836C12.5416 5.26361 12.5418 5.58022 12.3467 5.77539L5.7637 12.3584C5.56853 12.5535 5.25193 12.5534 5.05666 12.3584L3.6426 10.9443C3.44734 10.7491 3.44734 10.4316 3.6426 10.2363L10.2246 3.6543ZM4.70315 10.5908L5.41018 11.2979L11.2862 5.42188L10.5781 4.71484L4.70315 10.5908Z" fill="black"/>
<path fill-rule="evenodd" clip-rule="evenodd" d="M11 9.5C11.8284 9.50002 12.5 10.1716 12.5 11C12.5 11.8284 11.8284 12.5 11 12.5C10.1716 12.5 9.50002 11.8284 9.50002 11C9.50002 10.1716 10.1716 9.5 11 9.5ZM11 10.5C10.7239 10.5 10.5 10.7239 10.5 11C10.5 11.2761 10.7239 11.5 11 11.5C11.2761 11.5 11.5 11.2761 11.5 11C11.5 10.7239 11.2761 10.5 11 10.5Z" fill="black"/>
<path fill-rule="evenodd" clip-rule="evenodd" d="M5.00002 3.5C5.82843 3.50002 6.50002 4.17159 6.50002 5C6.50002 5.82841 5.82843 6.49998 5.00002 6.5C4.1716 6.5 3.50002 5.82843 3.50002 5C3.50002 4.17157 4.1716 3.5 5.00002 3.5ZM5.00002 4.5C4.72388 4.5 4.50002 4.72386 4.50002 5C4.50002 5.27614 4.72388 5.5 5.00002 5.5C5.27615 5.49998 5.50002 5.27613 5.50002 5C5.50002 4.72387 5.27615 4.50002 5.00002 4.5Z" fill="black"/>
</svg>
