<svg width="16" height="16" viewBox="0 0 16 16" fill="none" xmlns="http://www.w3.org/2000/svg">
<path d="M10.27 4.77026C10.27 3.51523 9.25245 2.48999 7.98976 2.48999C6.72602 2.49012 5.71046 3.50649 5.71046 4.77026C5.71054 5.40387 5.96497 5.97529 6.38039 6.38257C6.55758 6.55628 6.58028 6.83441 6.4341 7.03491C6.28791 7.23521 6.01686 7.29779 5.79738 7.18237C5.48241 7.0166 5.13162 6.91973 4.76027 6.91968C3.50525 6.91968 2.48002 7.93728 2.48 9.19995C2.48 10.4638 3.49641 11.4802 4.76027 11.4802C5.52909 11.4801 6.20892 11.0961 6.61964 10.5046C6.76703 10.2927 7.05117 10.2281 7.27589 10.3552C7.50063 10.4824 7.59171 10.7594 7.48586 10.9949L6.35402 13.5095H9.60597L8.47414 10.9949C8.36829 10.7594 8.45936 10.4824 8.6841 10.3552C8.90882 10.2281 9.19296 10.2927 9.34035 10.5046C9.75107 11.0961 10.4309 11.4801 11.1997 11.4802C12.4548 11.4802 13.48 10.4626 13.48 9.19995C13.48 7.93862 12.4679 6.92371 11.2075 6.91968C10.8408 6.92181 10.4946 7.01849 10.1831 7.18237C9.9637 7.29786 9.69266 7.23508 9.5464 7.03491C9.40021 6.83441 9.42292 6.55628 9.60011 6.38257C10.0154 5.9753 10.27 5.40373 10.27 4.77026ZM11.27 4.77026C11.27 5.17547 11.1959 5.56468 11.0611 5.92456C11.107 5.92223 11.1532 5.91998 11.1997 5.91968C13.0159 5.91968 14.48 7.38383 14.48 9.19995C14.48 11.0173 13.0047 12.4802 11.1997 12.4802C10.8369 12.4802 10.4885 12.4188 10.1626 12.3093L10.8355 13.8044C10.9051 13.959 10.8922 14.1386 10.8003 14.281C10.7083 14.4234 10.5499 14.5094 10.3804 14.5095H5.57961C5.41007 14.5094 5.25173 14.4234 5.15968 14.281C5.06784 14.1386 5.05493 13.959 5.12453 13.8044L5.7964 12.3093C5.47074 12.4186 5.12281 12.4802 4.76027 12.4802C2.94413 12.4802 1.48 11.0161 1.48 9.19995C1.48002 7.38266 2.95531 5.91968 4.76027 5.91968C4.81339 5.91968 4.86611 5.92192 4.91847 5.92456C4.78366 5.56472 4.7105 5.17541 4.71046 4.77026C4.71046 2.9542 6.17373 1.49012 7.98976 1.48999C9.80707 1.48999 11.27 2.96529 11.27 4.77026Z" fill="black"/>
</svg>
