<svg width="16" height="16" viewBox="0 0 16 16" fill="none" xmlns="http://www.w3.org/2000/svg">
<path fill-rule="evenodd" clip-rule="evenodd" d="M7.16054 2.01867C7.54032 1.28883 8.67401 1.34143 8.9457 2.17589C8.95941 2.21826 8.96601 2.26228 8.96816 2.30577L10.0834 5.73058H13.8207C14.759 5.73115 15.1596 6.92643 14.3949 7.48449L14.3939 7.48546L11.3686 9.68077L12.5258 13.2355C12.8148 14.1246 11.7899 14.8681 11.0375 14.3253L8.01015 12.128L4.98378 14.3253L4.98281 14.3243C4.22763 14.8734 3.19222 14.1431 3.4955 13.2355L4.65175 9.68077L1.62636 7.48546L1.62539 7.48449C0.860644 6.92627 1.26185 5.73058 2.20058 5.73058H5.93691L7.09511 2.17589L7.16054 2.01867ZM6.77578 6.38488C6.7087 6.59044 6.51642 6.73041 6.30019 6.73058H2.28945L5.53457 9.08605C5.7094 9.21353 5.78323 9.4398 5.71621 9.64562L4.47304 13.4601L7.71718 11.1056L7.78554 11.0636C7.95049 10.9806 8.15106 10.9946 8.3041 11.1056L11.5463 13.4591L10.3051 9.64562C10.238 9.43951 10.3113 9.21343 10.4867 9.08605L13.7318 6.73058H9.72011C9.50394 6.73044 9.31168 6.59034 9.24453 6.38488L8.01015 2.59484L6.77578 6.38488Z" fill="currentColor"/>
</svg>
