<svg width="16" height="16" viewBox="0 0 16 16" fill="none" xmlns="http://www.w3.org/2000/svg">
<path d="M10 5.5C10.2761 5.5 10.5 5.72386 10.5 6C10.5 6.27614 10.2761 6.5 10 6.5H9.5V9C9.5 9.2395 9.67284 9.44307 9.89941 9.49023L10.1006 9.50977C10.3286 9.55629 10.5 9.75829 10.5 10C10.5 10.2761 10.2761 10.5 10 10.5C9.17386 10.5 8.5 9.82614 8.5 9V6.5H7.5V7C7.5 7.84911 7.44046 8.48675 7.25781 9.01855C7.06845 9.56983 6.76085 9.96814 6.34375 10.3633C6.14327 10.553 5.82657 10.5441 5.63672 10.3438C5.44701 10.1433 5.45586 9.82657 5.65625 9.63672C5.99902 9.31196 6.19188 9.04451 6.3125 8.69336C6.4397 8.32273 6.5 7.82045 6.5 7V6.5H6C5.72386 6.5 5.5 6.27614 5.5 6C5.5 5.72386 5.72386 5.5 6 5.5H10Z" fill="currentColor"/>
<path fill-rule="evenodd" clip-rule="evenodd" d="M8 1.5C11.5899 1.5 14.5 4.41015 14.5 8C14.5 11.5899 11.5899 14.5 8 14.5C4.41015 14.5 1.5 11.5899 1.5 8C1.5 4.41015 4.41015 1.5 8 1.5ZM8 2.5C4.96243 2.5 2.5 4.96243 2.5 8C2.5 11.0376 4.96243 13.5 8 13.5C11.0376 13.5 13.5 11.0376 13.5 8C13.5 4.96243 11.0376 2.5 8 2.5Z" fill="currentColor"/>
</svg>
