<svg width="16" height="16" viewBox="0 0 16 16" fill="none" xmlns="http://www.w3.org/2000/svg">
<path fill-rule="evenodd" clip-rule="evenodd" d="M11.8496 2.5C12.1258 2.5 12.3496 2.72386 12.3496 3V5C12.3496 5.27614 12.1258 5.5 11.8496 5.5H8.03711L10.1836 7.64648C10.3788 7.84174 10.3788 8.15826 10.1836 8.35352L8.03711 10.5H11.8496C12.1258 10.5 12.3496 10.7239 12.3496 11V13C12.3496 13.2761 12.1258 13.5 11.8496 13.5H4C3.72386 13.5 3.5 13.2761 3.5 13V11L3.50977 10.9023C3.52894 10.8061 3.57608 10.7169 3.64648 10.6465L6.29297 8L3.64648 5.35352C3.55272 5.25975 3.5 5.13261 3.5 5V3C3.5 2.72386 3.72386 2.5 4 2.5H11.8496ZM4.5 4.79297L7.35352 7.64648C7.54878 7.84175 7.54878 8.15825 7.35352 8.35352L4.5 11.207V12.5H11.3496V11.5H6.83008C6.62788 11.5 6.44558 11.3782 6.36816 11.1914C6.29077 11.0046 6.33356 10.7895 6.47656 10.6465L9.12305 8L6.47656 5.35352C6.33356 5.21052 6.29077 4.99543 6.36816 4.80859C6.44558 4.62181 6.62788 4.5 6.83008 4.5H11.3496V3.5H4.5V4.79297Z" fill="black"/>
</svg>
