<svg width="16" height="16" viewBox="0 0 16 16" fill="none" xmlns="http://www.w3.org/2000/svg">
<path d="M7.9998 10.4995C8.27578 10.4995 8.49954 10.7236 8.4998 10.9995C8.4998 11.2757 8.27594 11.4995 7.9998 11.4995C7.72375 11.4994 7.4998 11.2756 7.4998 10.9995C7.50005 10.7237 7.72391 10.4996 7.9998 10.4995Z" fill="black"/>
<path d="M7.9998 5.49952C8.27578 5.49952 8.49954 5.7236 8.4998 5.99952V8.99952C8.4998 9.27567 8.27594 9.49952 7.9998 9.49952C7.72375 9.49941 7.4998 9.2756 7.4998 8.99952V5.99952C7.50005 5.72367 7.72391 5.49964 7.9998 5.49952Z" fill="black"/>
<path fill-rule="evenodd" clip-rule="evenodd" d="M6.69706 2.2505C7.26929 1.24688 8.72057 1.24684 9.29277 2.2505L14.4832 11.2398L14.4852 11.2437C15.0523 12.2443 14.3356 13.4898 13.1795 13.4898H2.78984C1.63382 13.4896 0.917893 12.2442 1.48515 11.2437L1.52128 11.188C1.53498 11.1699 1.55036 11.1531 1.5662 11.1372L6.69706 2.2505ZM8.4246 2.74659C8.23607 2.41464 7.75263 2.41446 7.56425 2.74659L7.56327 2.7505L2.37285 11.7398C2.35766 11.766 2.33936 11.7903 2.32011 11.813C2.19994 12.135 2.4345 12.4896 2.78984 12.4898H13.1795C13.5632 12.4898 13.8073 12.0761 13.615 11.7368L8.42656 2.7505L8.4246 2.74659Z" fill="black"/>
</svg>
