<svg width="16" height="16" viewBox="0 0 16 16" fill="none" xmlns="http://www.w3.org/2000/svg">
<path d="M7.99949 10.0003C8.27563 10.0003 8.49949 10.2242 8.49949 10.5003C8.49933 10.7763 8.27553 11.0003 7.99949 11.0003C7.72366 11 7.49964 10.7762 7.49949 10.5003C7.49949 10.2243 7.72357 10.0006 7.99949 10.0003Z" fill="black"/>
<path d="M7.99949 5.0003C8.27563 5.0003 8.49949 5.22416 8.49949 5.5003V8.5003C8.49933 8.77631 8.27553 9.0003 7.99949 9.0003C7.72366 9.00004 7.49964 8.77615 7.49949 8.5003V5.5003C7.49949 5.22432 7.72357 5.00056 7.99949 5.0003Z" fill="black"/>
<path fill-rule="evenodd" clip-rule="evenodd" d="M6.93894 1.35675C7.52468 0.771009 8.47424 0.771108 9.06003 1.35675L14.6469 6.94268C15.2325 7.52849 15.2326 8.47906 14.6469 9.06475L9.06003 14.6507C8.47431 15.236 7.52463 15.2361 6.93894 14.6507L1.353 9.06475C0.803932 8.51568 0.769246 7.6461 1.24949 7.05694L1.353 6.94268L6.93894 1.35675ZM8.353 2.06378C8.15773 1.86866 7.84118 1.86856 7.64597 2.06378L2.06003 7.65069L1.99558 7.72784C1.86752 7.92191 1.88921 8.1869 2.06003 8.35772L7.64597 13.9437C7.84113 14.1385 8.1578 14.1385 8.353 13.9437L13.9399 8.35772C14.135 8.16267 14.1346 7.846 13.9399 7.65069L8.353 2.06378Z" fill="black"/>
</svg>
