<svg width="16" height="16" viewBox="0 0 16 16" fill="none" xmlns="http://www.w3.org/2000/svg">
<path d="M11.79 9.70996C11.79 9.04142 11.6355 8.40593 11.333 7.91016V7.90918C10.9004 7.19643 9.9676 5.79456 9.13574 4.56055C8.72149 3.94603 8.33419 3.37684 8.05078 2.96094C8.03345 2.93551 8.01653 2.91 8 2.88574C7.98346 2.91001 7.96655 2.9355 7.94922 2.96094C7.66581 3.37684 7.27852 3.94601 6.86426 4.56055C6.03239 5.79457 5.09956 7.19643 4.66699 7.90918V7.91016C4.36449 8.40593 4.20997 9.04142 4.20996 9.70996C4.20996 11.8038 5.90614 13.5 8 13.5C10.0938 13.5 11.79 11.8038 11.79 9.70996ZM12.79 9.70996C12.79 12.3561 10.6461 14.5 8 14.5C5.35386 14.5 3.20996 12.3561 3.20996 9.70996C3.20997 8.89852 3.39599 8.07386 3.81348 7.38965C4.26116 6.65213 5.20748 5.22976 6.03516 4.00195C6.45073 3.38547 6.83898 2.81433 7.12305 2.39746C7.26504 2.18908 7.38131 2.01923 7.46191 1.90137C7.50222 1.84243 7.53332 1.79585 7.55469 1.76465C7.56528 1.74918 7.57362 1.7375 7.5791 1.72949C7.58184 1.72549 7.58454 1.72275 7.58594 1.7207C7.58664 1.71968 7.58656 1.71829 7.58691 1.71777H7.58789V1.7168C7.68116 1.58109 7.83531 1.5 8 1.5C8.16469 1.50001 8.31885 1.58108 8.41211 1.7168V1.71777H8.41309C8.41344 1.71829 8.41336 1.71968 8.41406 1.7207C8.41546 1.72275 8.41817 1.72551 8.4209 1.72949C8.42639 1.7375 8.43472 1.74919 8.44531 1.76465C8.46668 1.79585 8.49778 1.84243 8.53809 1.90137C8.61868 2.01923 8.73497 2.18911 8.87695 2.39746C9.16101 2.81432 9.54928 3.38549 9.96484 4.00195C10.7925 5.22977 11.7389 6.65215 12.1865 7.38965L12.333 7.65234C12.6482 8.27964 12.79 8.99999 12.79 9.70996Z" fill="black"/>
</svg>
