<svg width="16" height="16" viewBox="0 0 16 16" fill="none" xmlns="http://www.w3.org/2000/svg">
<path fill-rule="evenodd" clip-rule="evenodd" d="M3.96799 3.02466C4.47297 2.71415 5.15531 2.89799 5.40451 3.46412H5.40646L6.34103 5.5442L6.37814 5.63013C6.53961 6.06771 6.37662 6.56493 5.97385 6.8147C5.8495 6.895 5.70951 6.99524 5.58224 7.11451C5.4919 7.20027 5.41264 7.41271 5.63205 7.91431C5.83574 8.37987 6.22723 8.90516 6.65549 9.33814C7.08093 9.76826 7.60491 10.1584 8.07053 10.3606C8.57339 10.5789 8.78963 10.4985 8.87619 10.4065C8.99722 10.2772 9.09908 10.1348 9.1799 10.009C9.43955 9.59803 9.93388 9.47038 10.3479 9.60963L10.4299 9.64088L10.4358 9.64381L12.5256 10.5833L12.5246 10.5842C13.103 10.8376 13.2604 11.5174 12.9563 12.012L12.9553 12.011C12.7502 12.3455 12.5273 12.6379 12.2942 12.8713C11.359 13.8125 9.98509 14.048 8.59982 13.7708C7.21037 13.4926 5.74682 12.6931 4.51681 11.4631C3.28656 10.2329 2.48895 8.7694 2.21213 7.38013C1.9363 5.99524 2.17169 4.62076 3.10666 3.6858C3.34006 3.45248 3.63328 3.22992 3.96799 3.02466ZM4.4924 3.87525L4.49142 3.87623C4.20719 4.05045 3.97985 4.22675 3.81369 4.39283C3.18877 5.01775 2.9586 6.00993 3.1926 7.18482C3.42585 8.35538 4.11432 9.64656 5.22385 10.7561C6.33382 11.8661 7.62559 12.556 8.79611 12.7903C9.97049 13.0253 10.9605 12.7958 11.5852 12.1672L11.5871 12.1663C11.753 12.0003 11.9288 11.7732 12.1028 11.4895L10.0295 10.5569C10.024 10.5547 10.019 10.5549 10.0158 10.5549C9.94222 10.6691 9.84841 10.808 9.73166 10.9485L9.60471 11.092C9.05129 11.6801 8.25168 11.5302 7.67209 11.2786C7.05529 11.0107 6.42902 10.5311 5.94455 10.0413C5.46292 9.55431 4.9848 8.92903 4.71603 8.3147C4.46377 7.73787 4.30866 6.94052 4.89767 6.38599L4.89865 6.38502C5.08731 6.20822 5.28256 6.06963 5.43576 5.97095L5.43381 5.96509L4.49435 3.87427L4.4924 3.87525Z" fill="black"/>
<path d="M10.0002 3.00025C10.2763 3.00037 10.5002 3.22418 10.5002 3.50025V6.50025C10.5001 6.77621 10.2762 7.00013 10.0002 7.00025C9.72415 7.00025 9.50035 6.77628 9.50021 6.50025V3.50025C9.50021 3.22411 9.72407 3.00025 10.0002 3.00025Z" fill="black"/>
<path d="M12.0002 3.00025C12.2763 3.00037 12.5002 3.22418 12.5002 3.50025V6.50025C12.5001 6.77621 12.2762 7.00013 12.0002 7.00025C11.7242 7.00025 11.5003 6.77628 11.5002 6.50025V3.50025C11.5002 3.22411 11.7241 3.00025 12.0002 3.00025Z" fill="black"/>
</svg>
