<svg width="16" height="16" viewBox="0 0 16 16" fill="none" xmlns="http://www.w3.org/2000/svg">
<path fill-rule="evenodd" clip-rule="evenodd" d="M3.96799 3.02532C4.47306 2.71451 5.15533 2.89837 5.40451 3.46477H5.40647L6.34104 5.54485L6.37814 5.63079C6.53943 6.06838 6.37672 6.56571 5.97385 6.81536C5.84941 6.89571 5.70959 6.99578 5.58225 7.11516C5.49191 7.20096 5.41257 7.4133 5.63205 7.91497C5.8358 8.38046 6.22732 8.90591 6.65549 9.33879C7.08088 9.7688 7.60501 10.1591 8.07053 10.3613C8.57311 10.5794 8.78961 10.4991 8.87619 10.4072C8.9973 10.2778 9.09904 10.1355 9.1799 10.0097C9.43949 9.59842 9.93377 9.471 10.3479 9.61028L10.4299 9.64153L10.4358 9.64446L12.5256 10.5839L12.5246 10.5849C13.103 10.8384 13.2606 11.518 12.9563 12.0126L12.9553 12.0116C12.7502 12.3462 12.5274 12.6386 12.2942 12.872C11.359 13.8131 9.98502 14.0486 8.59982 13.7714C7.21048 13.4933 5.74677 12.6936 4.51682 11.4638C3.28663 10.2336 2.48902 8.76997 2.21213 7.38079C1.93622 5.99583 2.17168 4.62148 3.10666 3.68645C3.34011 3.45303 3.63315 3.23065 3.96799 3.02532ZM4.4924 3.8759L4.49143 3.87688C4.20704 4.0512 3.97988 4.22732 3.81369 4.39348C3.18876 5.01846 2.95852 6.01049 3.1926 7.18547C3.42593 8.35596 4.1144 9.64731 5.22385 10.7568C6.33376 11.8666 7.62568 12.5566 8.79611 12.7909C9.97041 13.0259 10.9605 12.7964 11.5852 12.1679L11.5871 12.1669C11.753 12.001 11.9287 11.7739 12.1028 11.4902L10.0295 10.5575C10.024 10.5554 10.019 10.5556 10.0158 10.5556C9.94218 10.6698 9.84849 10.8086 9.73166 10.9491L9.60471 11.0927C9.05137 11.6806 8.25164 11.5308 7.67209 11.2792C7.0554 11.0114 6.42898 10.5316 5.94455 10.0419C5.46299 9.55505 4.98484 8.92959 4.71604 8.31536C4.46373 7.73852 4.30864 6.94123 4.89768 6.38664L4.89865 6.38567C5.0874 6.20874 5.28248 6.07033 5.43576 5.97161L5.43381 5.96575L4.49436 3.87493L4.4924 3.8759Z" fill="currentColor"/>
<path d="M11.0002 6.49993C11.2762 6.50004 11.5002 6.72389 11.5002 6.99993C11.5002 7.276 11.2763 7.49981 11.0002 7.49993C10.7241 7.49993 10.5002 7.27607 10.5002 6.99993C10.5003 6.72382 10.7241 6.49993 11.0002 6.49993Z" fill="currentColor"/>
<path d="M9.58615 5.08684C10.3697 4.30335 11.6387 4.29889 12.4162 5.08977C12.6097 5.28663 12.6071 5.60322 12.4104 5.7968C12.2135 5.98993 11.8968 5.98756 11.7033 5.79094C11.3209 5.40196 10.6896 5.39751 10.2932 5.79387C10.0979 5.98871 9.78129 5.98893 9.58615 5.79387C9.39108 5.59874 9.39131 5.28211 9.58615 5.08684Z" fill="currentColor"/>
<path d="M8.176 3.67668C9.74124 2.11152 12.268 2.11151 13.8332 3.67668C14.0284 3.87189 14.0283 4.18845 13.8332 4.38371C13.6379 4.57855 13.3213 4.57881 13.1262 4.38371C11.9515 3.20907 10.0578 3.20908 8.88303 4.38371C8.68773 4.57855 8.37112 4.57884 8.176 4.38371C7.98102 4.18858 7.9812 3.87193 8.176 3.67668Z" fill="currentColor"/>
</svg>
