<svg width="16" height="16" viewBox="0 0 16 16" fill="none" xmlns="http://www.w3.org/2000/svg">
<path fill-rule="evenodd" clip-rule="evenodd" d="M9 1.5C9.82614 1.5 10.5 2.17386 10.5 3V5.5H13C13.8261 5.5 14.5 6.17386 14.5 7V11C14.5 11.8261 13.8261 12.5 13 12.5H12.5V14C12.5 14.1842 12.3986 14.3533 12.2363 14.4404C12.0737 14.5274 11.8761 14.5183 11.7227 14.416L8.84863 12.5H7C6.17386 12.5 5.5 11.8261 5.5 11V9.60254L4.27734 10.416C4.12388 10.5181 3.92611 10.5275 3.76367 10.4404C3.60137 10.3533 3.5 10.1842 3.5 10V8.5H3C2.17386 8.5 1.5 7.82614 1.5 7V3C1.5 2.17386 2.17386 1.5 3 1.5H9ZM7 6.5C6.72614 6.5 6.5 6.72614 6.5 7V11C6.5 11.2739 6.72614 11.5 7 11.5H9C9.09871 11.5 9.19521 11.5292 9.27734 11.584L11.5 13.0654V12C11.5 11.7239 11.7239 11.5 12 11.5H13C13.2739 11.5 13.5 11.2739 13.5 11V7C13.5 6.72614 13.2739 6.5 13 6.5H7ZM3 2.5C2.72614 2.5 2.5 2.72614 2.5 3V7C2.5 7.27386 2.72614 7.5 3 7.5H4C4.27614 7.5 4.5 7.72386 4.5 8V9.06641L5.5 8.40137V7C5.5 6.17386 6.17386 5.5 7 5.5H9.5V3C9.5 2.72614 9.27386 2.5 9 2.5H3Z" fill="black"/>
</svg>
