<svg width="16" height="16" viewBox="0 0 16 16" fill="none" xmlns="http://www.w3.org/2000/svg">
<path d="M3.39739 3.39537C5.86254 0.941006 9.80245 0.863162 12.3515 3.16588L12.5937 3.39635L12.5947 3.39732C15.1282 5.94199 15.1292 10.058 12.5937 12.5936C12.3985 12.7888 12.0819 12.7887 11.8866 12.5936C11.6914 12.3984 11.6914 12.0818 11.8866 11.8866C14.0306 9.74251 14.032 6.25875 11.8866 4.10338L11.6816 3.90904C9.52569 1.96142 6.19048 2.0253 4.10247 4.10436C1.95912 6.24876 1.95859 9.73256 4.10442 11.8876C4.299 12.0832 4.298 12.3998 4.10247 12.5946C3.90677 12.7891 3.59017 12.7882 3.39544 12.5926C0.861814 10.0479 0.860809 5.93195 3.39641 3.39635L3.39739 3.39537Z" fill="black"/>
<path d="M4.81731 4.81529C6.58017 3.06373 9.42694 3.04864 11.1845 4.81725C12.9376 6.5816 12.9393 9.42757 11.1835 11.1835C10.9883 11.3786 10.6718 11.3785 10.4765 11.1835C10.2814 10.9882 10.2813 10.6716 10.4765 10.4764C11.8404 9.11241 11.842 6.89795 10.4755 5.52233C9.11314 4.15144 6.89941 4.15626 5.52239 5.52428C4.15129 6.88664 4.15624 9.10031 5.52434 10.4774C5.71893 10.6732 5.71813 10.9898 5.52239 11.1844C5.32661 11.379 5.01002 11.3781 4.81536 11.1825C3.06391 9.41959 3.0487 6.5728 4.81731 4.81529Z" fill="black"/>
<path d="M6.22649 6.22643C7.20176 5.25125 8.78837 5.2512 9.7636 6.22643C10.7388 7.20167 10.7388 8.78829 9.7636 9.76354C9.56837 9.95876 9.25184 9.95869 9.05657 9.76354C8.86131 9.56828 8.86131 9.25177 9.05657 9.0565C9.64119 8.47178 9.6412 7.51817 9.05657 6.93346C8.47186 6.34876 7.51826 6.34881 6.93352 6.93346C6.34878 7.5182 6.34878 8.47177 6.93352 9.0565C7.12868 9.25174 7.12867 9.56829 6.93352 9.76354C6.73828 9.95873 6.42175 9.95871 6.22649 9.76354C5.25123 8.78827 5.25123 7.20169 6.22649 6.22643Z" fill="black"/>
<path d="M7.99993 7.49986C8.27602 7.49986 8.49985 7.72378 8.49993 7.99986C8.49993 8.27601 8.27607 8.49986 7.99993 8.49986C7.72382 8.49982 7.49993 8.27598 7.49993 7.99986C7.5 7.72381 7.72387 7.49991 7.99993 7.49986Z" fill="black"/>
</svg>
