<svg width="16" height="16" viewBox="0 0 16 16" fill="none" xmlns="http://www.w3.org/2000/svg">
<path fill-rule="evenodd" clip-rule="evenodd" d="M3.96799 3.02466C4.47297 2.71414 5.15531 2.89798 5.40451 3.46411H5.40646L6.34103 5.54419L6.37814 5.63013C6.53961 6.0677 6.37662 6.56493 5.97385 6.8147C5.8495 6.89499 5.70951 6.99524 5.58224 7.1145C5.4919 7.20026 5.41264 7.4127 5.63205 7.91431C5.83574 8.37986 6.22723 8.90515 6.65549 9.33813C7.08093 9.76825 7.60491 10.1584 8.07053 10.3606C8.57339 10.5789 8.78963 10.4985 8.87619 10.4065C8.99722 10.2772 9.09908 10.1347 9.1799 10.009C9.43955 9.59802 9.93388 9.47038 10.3479 9.60962L10.4299 9.64087L10.4358 9.6438L12.5256 10.5833L12.5246 10.5842C13.103 10.8376 13.2604 11.5173 12.9563 12.012L12.9553 12.011C12.7502 12.3455 12.5273 12.6379 12.2942 12.8713C11.359 13.8125 9.98509 14.048 8.59982 13.7708C7.21037 13.4926 5.74682 12.6931 4.51681 11.4631C3.28656 10.2329 2.48895 8.76939 2.21213 7.38013C1.9363 5.99524 2.17169 4.62076 3.10666 3.68579C3.34006 3.45247 3.63328 3.22991 3.96799 3.02466ZM4.4924 3.87524L4.49142 3.87622C4.20719 4.05044 3.97985 4.22675 3.81369 4.39282C3.18877 5.01774 2.9586 6.00992 3.1926 7.18481C3.42585 8.35537 4.11432 9.64656 5.22385 10.7561C6.33382 11.8661 7.62559 12.5559 8.79611 12.7903C9.97049 13.0253 10.9605 12.7958 11.5852 12.1672L11.5871 12.1663C11.753 12.0003 11.9288 11.7732 12.1028 11.4895L10.0295 10.5569C10.024 10.5547 10.019 10.5549 10.0158 10.5549C9.94222 10.6691 9.84841 10.8079 9.73166 10.9485L9.60471 11.092C9.05129 11.68 8.25168 11.5302 7.67209 11.2786C7.05529 11.0107 6.42901 10.531 5.94455 10.0413C5.46292 9.5543 4.9848 8.92902 4.71603 8.3147C4.46377 7.73786 4.30866 6.94051 4.89767 6.38599L4.89865 6.38501C5.08731 6.20821 5.28256 6.06962 5.43576 5.97095L5.43381 5.96509L4.49435 3.87427L4.4924 3.87524Z" fill="black"/>
<path fill-rule="evenodd" clip-rule="evenodd" d="M13.0002 3.25024C13.9666 3.25036 14.7502 4.03382 14.7502 5.00024C14.7501 5.90621 14.0613 6.65085 13.1789 6.74048L13.0002 6.75024H9.00021L8.8215 6.74048C7.93895 6.65104 7.25034 5.90635 7.25021 5.00024C7.25021 4.03374 8.03372 3.25024 9.00021 3.25024C9.96661 3.25036 10.7502 4.03382 10.7502 5.00024C10.7502 5.26898 10.6876 5.52272 10.5793 5.75024H11.4211C11.3128 5.52268 11.2503 5.26904 11.2502 5.00024C11.2502 4.03374 12.0337 3.25024 13.0002 3.25024ZM9.00021 4.25024C8.586 4.25024 8.25021 4.58603 8.25021 5.00024C8.25035 5.41434 8.58608 5.75024 9.00021 5.75024C9.41425 5.75013 9.75008 5.41427 9.75021 5.00024C9.75021 4.5861 9.41433 4.25036 9.00021 4.25024ZM13.0002 4.25024C12.586 4.25024 12.2502 4.58603 12.2502 5.00024C12.2503 5.41434 12.5861 5.75024 13.0002 5.75024C13.4142 5.75013 13.7501 5.41427 13.7502 5.00024C13.7502 4.5861 13.4143 4.25036 13.0002 4.25024Z" fill="black"/>
</svg>
