<svg width="16" height="16" viewBox="0 0 16 16" fill="none" xmlns="http://www.w3.org/2000/svg">
<path d="M10 6.5C10.2761 6.5 10.5 6.72386 10.5 7C10.5 7.27614 10.2761 7.5 10 7.5H6C5.72386 7.5 5.5 7.27614 5.5 7C5.5 6.72386 5.72386 6.5 6 6.5H10Z" fill="currentColor"/>
<path d="M10 4.5C10.2761 4.5 10.5 4.72386 10.5 5C10.5 5.27614 10.2761 5.5 10 5.5H6C5.72386 5.5 5.5 5.27614 5.5 5C5.5 4.72386 5.72386 4.5 6 4.5H10Z" fill="currentColor"/>
<path fill-rule="evenodd" clip-rule="evenodd" d="M11 1.5C11.8261 1.5 12.5 2.17386 12.5 3V4.49023H13C13.8261 4.49023 14.5 5.16409 14.5 5.99023V6.90234C14.5129 6.96732 14.5127 7.03371 14.5 7.09766V11.9902C14.4999 12.8163 13.8261 13.4902 13 13.4902H3C2.17394 13.4902 1.50013 12.8163 1.5 11.9902V6C1.50013 5.17541 2.17256 4.50174 3.00977 4.51172V4.50977H3.5V3C3.5 2.17386 4.17386 1.5 5 1.5H11ZM2.5 11.9902C2.50013 12.264 2.72622 12.4902 3 12.4902H13C13.2738 12.4902 13.4999 12.264 13.5 11.9902V7.93945L8.83691 11.0459L8.83203 11.0498C8.32684 11.3767 7.68396 11.3766 7.17871 11.0498L2.5 7.93359V11.9902ZM5 2.5C4.72614 2.5 4.5 2.72614 4.5 3V8.06348L7.72168 10.21L7.78906 10.2471C7.95005 10.3212 8.13524 10.3088 8.28809 10.21L11.5 8.07031V3C11.5 2.72614 11.2739 2.5 11 2.5H5ZM12.5 7.4043L13.5 6.73828V5.99023C13.5 5.71638 13.2739 5.49023 13 5.49023H12.5V7.4043ZM3.00098 5.50977C2.72263 5.50485 2.50013 5.72784 2.5 6V6.73145L3.5 7.39746V5.50977H3.00098Z" fill="currentColor"/>
</svg>
