<svg width="16" height="16" viewBox="0 0 16 16" fill="none" xmlns="http://www.w3.org/2000/svg">
<path fill-rule="evenodd" clip-rule="evenodd" d="M3.96798 3.02525C4.47306 2.71447 5.15533 2.89832 5.40451 3.46471H5.40646L6.34103 5.54479L6.37814 5.63072C6.53946 6.06832 6.37672 6.56563 5.97384 6.81529C5.8494 6.89564 5.70958 6.99572 5.58224 7.1151C5.49189 7.20088 5.41255 7.41319 5.63205 7.9149C5.83579 8.38041 6.2273 8.90583 6.65548 9.33873C7.08088 9.76875 7.605 10.159 8.07052 10.3612C8.57318 10.5794 8.78962 10.499 8.87619 10.4071C8.99731 10.2777 9.09903 10.1354 9.1799 10.0096C9.43949 9.59836 9.93376 9.47094 10.3479 9.61022L10.4299 9.64147L10.4358 9.64439L12.5256 10.5838L12.5246 10.5848C13.103 10.8383 13.2606 11.518 12.9563 12.0126L12.9553 12.0116C12.7501 12.3462 12.5274 12.6385 12.2942 12.8719C11.359 13.8131 9.98503 14.0486 8.59982 13.7713C7.21046 13.4932 5.74677 12.6936 4.51681 11.4637C3.2866 10.2335 2.48901 8.76993 2.21212 7.38072C1.93621 5.99575 2.17165 4.62141 3.10666 3.68639C3.3401 3.45297 3.63314 3.23059 3.96798 3.02525ZM4.4924 3.87584L4.49142 3.87682C4.20703 4.05113 3.97987 4.22726 3.81369 4.39342C3.18873 5.01839 2.95851 6.01041 3.19259 7.18541C3.42591 8.35591 4.11437 9.64723 5.22384 10.7567C6.33376 11.8665 7.62567 12.5566 8.79611 12.7909C9.97043 13.0259 10.9605 12.7964 11.5852 12.1678L11.5871 12.1669C11.753 12.0009 11.9287 11.7739 12.1027 11.4901L10.0295 10.5575C10.024 10.5553 10.019 10.5555 10.0158 10.5555C9.94217 10.6698 9.8485 10.8085 9.73166 10.9491L9.6047 11.0926C9.05135 11.6805 8.25165 11.5307 7.67209 11.2792C7.05539 11.0114 6.42898 10.5316 5.94455 10.0419C5.46297 9.55497 4.98483 8.92955 4.71603 8.31529C4.46372 7.73845 4.3086 6.94117 4.89767 6.38658L4.89865 6.38561C5.0874 6.20868 5.28248 6.07027 5.43576 5.97154L5.4338 5.96568L4.49435 3.87486L4.4924 3.87584Z" fill="currentColor"/>
<path fill-rule="evenodd" clip-rule="evenodd" d="M12.0002 2.49986C12.2762 2.49998 12.5001 2.72385 12.5002 2.99986V3.19029L13.7766 2.5526C13.9314 2.47528 14.1156 2.48321 14.2629 2.57408C14.4102 2.66517 14.5002 2.82666 14.5002 2.99986V6.99986C14.5002 7.17307 14.4102 7.33452 14.2629 7.42564C14.1156 7.51653 13.9314 7.5245 13.7766 7.44713L12.5002 6.80846V6.99986C12.5002 7.27593 12.2763 7.49975 12.0002 7.49986H8.50021C8.22407 7.49986 8.00021 7.27601 8.00021 6.99986V2.99986C8.00028 2.72378 8.22411 2.49986 8.50021 2.49986H12.0002ZM9.00021 6.49986H11.5002V5.99986C11.5003 5.82662 11.5901 5.66516 11.7375 5.57408C11.8848 5.48329 12.069 5.4752 12.2238 5.5526L13.5002 6.19029V3.80846L12.2238 4.44713C12.069 4.52455 11.8849 4.5165 11.7375 4.42564C11.5901 4.33454 11.5002 4.17315 11.5002 3.99986V3.49986H9.00021V6.49986Z" fill="currentColor"/>
</svg>
