<svg width="16" height="16" viewBox="0 0 16 16" fill="none" xmlns="http://www.w3.org/2000/svg">
<path fill-rule="evenodd" clip-rule="evenodd" d="M10.5 5.5C11.6046 5.5 12.5 6.39543 12.5 7.5C12.5 8.60457 11.6046 9.5 10.5 9.5H5.5C4.39543 9.5 3.5 8.60457 3.5 7.5C3.5 6.39543 4.39543 5.5 5.5 5.5C6.60457 5.5 7.5 6.39543 7.5 7.5C7.5 7.86464 7.40094 8.20563 7.23047 8.5H8.76953C8.59906 8.20563 8.5 7.86464 8.5 7.5C8.5 6.39543 9.39543 5.5 10.5 5.5ZM5.5 6.5C4.94772 6.5 4.5 6.94772 4.5 7.5C4.5 8.05228 4.94772 8.5 5.5 8.5C6.05228 8.5 6.5 8.05228 6.5 7.5C6.5 6.94772 6.05228 6.5 5.5 6.5ZM10.5 6.5C9.94772 6.5 9.5 6.94772 9.5 7.5C9.5 8.05228 9.94772 8.5 10.5 8.5C11.0523 8.5 11.5 8.05228 11.5 7.5C11.5 6.94772 11.0523 6.5 10.5 6.5Z" fill="black"/>
<path fill-rule="evenodd" clip-rule="evenodd" d="M8 1.49023C11.5371 1.49023 14.5 4.09744 14.5 7.41016C14.4999 8.92976 13.8688 10.3036 12.8535 11.3457L13.4854 13.8789C13.5321 14.0671 13.4659 14.2664 13.3154 14.3887C13.1649 14.5108 12.9568 14.5346 12.7822 14.4502L9.91504 13.0635C9.31416 13.2323 8.67075 13.3301 8 13.3301C4.46298 13.3301 1.50015 10.7228 1.5 7.41016C1.50005 4.09744 4.46292 1.49023 8 1.49023ZM8 2.49023C4.91714 2.49023 2.50005 4.74294 2.5 7.41016C2.50015 10.0773 4.9172 12.3301 8 12.3301C8.63672 12.3301 9.24691 12.2286 9.81152 12.0527L9.90332 12.0332C9.9967 12.0226 10.092 12.0386 10.1777 12.0801L12.2559 13.085L11.8145 11.3115C11.7706 11.1353 11.8263 10.9482 11.959 10.8242C12.9189 9.92815 13.4999 8.72635 13.5 7.41016C13.5 4.74294 11.0829 2.49023 8 2.49023Z" fill="black"/>
</svg>
