<svg width="16" height="16" viewBox="0 0 16 16" fill="none" xmlns="http://www.w3.org/2000/svg">
<path fill-rule="evenodd" clip-rule="evenodd" d="M9 5.5C9.82843 5.5 10.5 6.17157 10.5 7C10.5 7.33813 10.386 7.64855 10.1973 7.89941C10.6842 8.2639 11 8.84376 11 9.5V10C11 10.2761 10.7761 10.5 10.5 10.5H7.5C7.22386 10.5 7 10.2761 7 10V9.5C7 8.84405 7.31522 8.26393 7.80176 7.89941C7.61321 7.64863 7.5 7.33792 7.5 7C7.5 6.17157 8.17157 5.5 9 5.5ZM9 8.5C8.44614 8.5 8 8.94614 8 9.5H10C10 8.94614 9.55386 8.5 9 8.5ZM9 6.5C8.72386 6.5 8.5 6.72386 8.5 7C8.5 7.27614 8.72386 7.5 9 7.5C9.27614 7.5 9.5 7.27614 9.5 7C9.5 6.72386 9.27614 6.5 9 6.5Z" fill="black"/>
<path fill-rule="evenodd" clip-rule="evenodd" d="M12 1.5C12.8261 1.5 13.5 2.17386 13.5 3V13C13.5 13.8261 12.8261 14.5 12 14.5H3C2.72386 14.5 2.5 14.2761 2.5 14V2C2.5 1.72386 2.72386 1.5 3 1.5H12ZM3.5 13.5H4.5V2.5H3.5V13.5ZM5.5 13.5H12C12.2739 13.5 12.5 13.2739 12.5 13V3C12.5 2.72614 12.2739 2.5 12 2.5H5.5V13.5Z" fill="black"/>
</svg>
