<svg width="16" height="16" viewBox="0 0 16 16" fill="none" xmlns="http://www.w3.org/2000/svg">
<path fill-rule="evenodd" clip-rule="evenodd" d="M2.48702 2.9071C3.4488 1.94533 4.92995 1.82321 6.41964 2.22937C7.92496 2.63996 9.55362 3.6117 10.9733 5.02625C12.3939 6.44172 13.3659 8.07096 13.7751 9.578C14.1799 11.0692 14.0547 12.5523 13.0935 13.5135C12.7567 13.8503 12.2898 14.1402 11.7663 14.3915L11.7595 14.3944C11.253 14.6279 10.6092 14.4047 10.4011 13.8436L9.48507 11.4628L9.45577 11.3759C9.32964 10.9389 9.51128 10.445 9.94893 10.2167C10.079 10.147 10.1479 10.0957 10.1765 10.0673C10.271 9.97275 10.371 9.67324 10.1452 9.05554C9.93541 8.48209 9.49229 7.79451 8.84835 7.15515C8.20251 6.51403 7.51352 6.06958 6.94014 5.85828C6.3224 5.63075 6.02789 5.73067 5.93429 5.8241C5.90564 5.85276 5.85297 5.92241 5.78194 6.05554L5.77901 6.05945C5.5408 6.49599 5.0197 6.69637 4.54464 6.51843L4.54073 6.51746L2.15694 5.59851C1.6119 5.39664 1.34812 4.75647 1.613 4.22644C1.85804 3.69722 2.15614 3.238 2.48702 2.9071ZM6.15596 3.19421C4.83076 2.83295 3.79224 3.01595 3.19405 3.61414C3.02463 3.78357 2.84663 4.02482 2.67843 4.33093L2.51143 4.66492L4.89522 5.58191C4.89664 5.58239 4.89854 5.58276 4.89913 5.58289C4.89936 5.5826 4.90048 5.58191 4.90108 5.58093C4.98944 5.41577 5.09617 5.2473 5.22628 5.11707C5.76281 4.58053 6.59387 4.66493 7.28585 4.9198C8.02214 5.19111 8.82872 5.7268 9.55245 6.44519C10.2779 7.16546 10.8145 7.97406 11.0847 8.71277C11.3385 9.40713 11.4188 10.239 10.8835 10.7743C10.7526 10.9051 10.5827 11.0118 10.4167 11.1005L11.3347 13.4862H11.3376C11.8118 13.2582 12.1639 13.029 12.3864 12.8065C12.985 12.208 13.1702 11.1657 12.8103 9.83972C12.4545 8.52967 11.5862 7.04842 10.2673 5.73425C8.94742 4.41926 7.46529 3.55129 6.15596 3.19421Z" fill="black"/>
</svg>
