<svg width="16" height="16" viewBox="0 0 16 16" fill="none" xmlns="http://www.w3.org/2000/svg">
<path fill-rule="evenodd" clip-rule="evenodd" d="M4.24103 1.60712C4.7683 1.35366 5.39931 1.61662 5.59943 2.15693L6.5174 4.54072L6.51837 4.54462C6.69634 5.01971 6.49598 5.54078 6.05939 5.779L6.05548 5.78193C5.92229 5.85299 5.85267 5.90565 5.82404 5.93427C5.73061 6.02788 5.63069 6.3224 5.85822 6.94013C6.06951 7.51352 6.51395 8.20248 7.15509 8.84834C7.79446 9.4923 8.48202 9.93539 9.05548 10.1452C9.67323 10.371 9.97269 10.271 10.0672 10.1765C10.0956 10.1479 10.1469 10.079 10.2166 9.94892C10.4597 9.48296 11.0037 9.30707 11.4598 9.48408L13.8426 10.4011C14.4037 10.6091 14.6279 11.253 14.3944 11.7595L14.3914 11.7663C14.1401 12.2898 13.8503 12.7567 13.5135 13.0935C12.5522 14.0547 11.0691 14.1799 9.57794 13.7751C8.07088 13.3659 6.44167 12.3939 5.02619 10.9733C3.61163 9.5536 2.63989 7.92496 2.22931 6.41962C1.82315 4.92994 1.94527 3.44879 2.90705 2.48701C3.241 2.15306 3.70562 1.85345 4.24103 1.60712ZM4.33087 2.67841C4.02476 2.84662 3.7835 3.02462 3.61408 3.19404C3.01589 3.79222 2.83289 4.83075 3.19415 6.15595C3.55122 7.46528 4.41919 8.94739 5.73419 10.2673C7.04837 11.5862 8.5296 12.4545 9.83966 12.8102C11.1657 13.1702 12.2079 12.985 12.8065 12.3864C13.0291 12.1638 13.259 11.8114 13.4871 11.3366L13.4861 11.3347L11.1004 10.4167C11.0118 10.5827 10.905 10.7526 10.7742 10.8835C10.2389 11.4188 9.40709 11.3385 8.71271 11.0847C7.97399 10.8145 7.16541 10.2779 6.44513 9.55244C5.72672 8.8287 5.19105 8.02214 4.91974 7.28584C4.66487 6.59386 4.58047 5.7628 5.11701 5.22627C5.24775 5.09564 5.41706 4.98864 5.58283 4.90009C5.58271 4.89954 5.58229 4.8974 5.58185 4.89619L4.66486 2.51142L4.33087 2.67841Z" fill="black"/>
</svg>
