<svg width="16" height="16" viewBox="0 0 16 16" fill="none" xmlns="http://www.w3.org/2000/svg">
<path fill-rule="evenodd" clip-rule="evenodd" d="M11.5 1.5C12.6046 1.5 13.5 2.39543 13.5 3.5C13.5 4.60457 12.6046 5.5 11.5 5.5C10.9216 5.5 10.4023 5.25287 10.0371 4.86035L5.44043 7.52344C5.47785 7.67634 5.5 7.83557 5.5 8C5.5 8.1641 5.47771 8.32297 5.44043 8.47559L10.0371 11.1387C10.4023 10.7465 10.9219 10.5 11.5 10.5C12.6046 10.5 13.5 11.3954 13.5 12.5C13.5 13.6046 12.6046 14.5 11.5 14.5C10.3954 14.5 9.5 13.6046 9.5 12.5C9.5 12.3338 9.52235 12.1729 9.56055 12.0186L4.96582 9.35645C4.6005 9.75104 4.08015 10 3.5 10C2.39543 10 1.5 9.10457 1.5 8C1.5 6.89543 2.39543 6 3.5 6C4.07989 6 4.60052 6.24829 4.96582 6.64258L9.56055 3.98047C9.5225 3.82638 9.5 3.66584 9.5 3.5C9.5 2.39543 10.3954 1.5 11.5 1.5ZM11.5 11.5C11.1303 11.5 10.8078 11.7008 10.6348 11.999C10.6273 12.0161 10.6219 12.0343 10.6123 12.0508C10.6081 12.058 10.6012 12.0634 10.5967 12.0703C10.5347 12.2005 10.5 12.3462 10.5 12.5C10.5 13.0523 10.9477 13.5 11.5 13.5C12.0523 13.5 12.5 13.0523 12.5 12.5C12.5 11.9477 12.0523 11.5 11.5 11.5ZM3.5 7C2.94772 7 2.5 7.44772 2.5 8C2.5 8.55228 2.94772 9 3.5 9C4.05228 9 4.5 8.55228 4.5 8C4.5 7.44772 4.05228 7 3.5 7ZM11.5 2.5C10.9477 2.5 10.5 2.94772 10.5 3.5C10.5 3.65348 10.5349 3.79874 10.5967 3.92871C10.6013 3.9358 10.608 3.94182 10.6123 3.94922C10.6221 3.96622 10.6291 3.98435 10.6367 4.00195C10.81 4.29934 11.131 4.5 11.5 4.5C12.0523 4.5 12.5 4.05228 12.5 3.5C12.5 2.94772 12.0523 2.5 11.5 2.5Z" fill="black"/>
</svg>
