<svg width="16" height="16" viewBox="0 0 16 16" fill="none" xmlns="http://www.w3.org/2000/svg">
<path d="M7.99999 7.5C8.27613 7.5 8.49999 7.72386 8.49999 8V11.793L9.64647 10.6465C9.84173 10.4512 10.1582 10.4512 10.3535 10.6465C10.5488 10.8417 10.5488 11.1583 10.3535 11.3535L8.3535 13.3535C8.31943 13.3876 8.28038 13.4134 8.24022 13.4355C8.19595 13.46 8.14883 13.4801 8.09764 13.4902C8.03288 13.5031 7.96609 13.5032 7.90135 13.4902C7.85023 13.48 7.80298 13.4601 7.75877 13.4355C7.71889 13.4134 7.68032 13.3874 7.64647 13.3535L5.64647 11.3535C5.45121 11.1583 5.45122 10.8417 5.64647 10.6465C5.84173 10.4512 6.15824 10.4512 6.3535 10.6465L7.49999 11.793V8C7.49999 7.72386 7.72385 7.50001 7.99999 7.5Z" fill="black"/>
<path fill-rule="evenodd" clip-rule="evenodd" d="M7.9951 2.5C9.73481 2.5 11.3336 2.97036 12.5117 3.75684C13.6861 4.54107 14.4922 5.67962 14.4922 7.00195C14.4921 7.33196 14.4421 7.69632 14.3506 8.07812C14.2132 8.65505 13.6001 9.00751 13.0234 8.7832L13.0224 8.78516L10.8906 7.97461L10.8037 7.94043C10.38 7.74513 10.1436 7.27793 10.2519 6.81641C10.2831 6.67174 10.3117 6.50236 10.3174 6.32812C10.3206 6.20358 10.2258 5.99742 9.71581 5.79785C9.24257 5.61273 8.59426 5.51798 7.98534 5.51465C7.38046 5.51138 6.73384 5.60577 6.2617 5.79199C5.7522 5.99308 5.6564 6.20287 5.66014 6.3291C5.66598 6.50626 5.69478 6.67905 5.72655 6.8252C5.83369 7.29949 5.57385 7.73929 5.1826 7.93359L5.10252 7.96973L5.09666 7.97168L2.95409 8.78516V8.7832C2.36588 9.01293 1.77416 8.64404 1.63963 8.0791C1.54808 7.69741 1.50014 7.33289 1.49999 7.00293C1.49587 5.67623 2.30101 4.53831 3.47655 3.75488C4.65566 2.96916 6.25576 2.50005 7.9951 2.5ZM7.9951 3.49902C6.4256 3.49908 5.02455 3.92506 4.03124 4.58691C3.03457 5.25114 2.49628 6.11378 2.49901 7V7.00195C2.49904 7.23653 2.53475 7.52111 2.61229 7.84473L4.73827 7.03809C4.74353 7.03571 4.74682 7.03246 4.74901 7.03027C4.7203 6.89738 4.68867 6.73287 4.67186 6.55078L4.66014 6.35938C4.63584 5.55251 5.30686 5.09323 5.89452 4.86133C6.52003 4.61457 7.3023 4.51089 7.9912 4.51465C8.67609 4.51841 9.45659 4.62284 10.081 4.86719C10.6672 5.09672 11.3408 5.55087 11.3164 6.35938C11.308 6.61794 11.2681 6.85501 11.2295 7.0332L11.2344 7.03613L13.3769 7.84961L13.3779 7.84766C13.4557 7.52335 13.4921 7.23693 13.4922 7.00195C13.4922 6.11819 12.9532 5.25418 11.957 4.58887C10.9644 3.92609 9.56425 3.49902 7.9951 3.49902Z" fill="black"/>
</svg>
