<svg width="16" height="16" viewBox="0 0 16 16" fill="none" xmlns="http://www.w3.org/2000/svg">
<path fill-rule="evenodd" clip-rule="evenodd" d="M3.96799 3.02539C4.47307 2.71458 5.15533 2.89844 5.40451 3.46485H5.40647L6.34104 5.54492L6.37814 5.63086C6.53939 6.06845 6.37671 6.5658 5.97385 6.81543C5.84941 6.89578 5.70958 6.99586 5.58225 7.11524C5.49192 7.20106 5.4126 7.41345 5.63205 7.91504C5.83581 8.38052 6.22734 8.906 6.65549 9.33887C7.08087 9.76886 7.60503 10.1592 8.07053 10.3613C8.57301 10.5794 8.78959 10.4991 8.87619 10.4072C8.99728 10.2779 9.09905 10.1355 9.1799 10.0098C9.43949 9.59849 9.93377 9.47107 10.3479 9.61035L10.4299 9.6416L10.4358 9.64453L12.5256 10.584L12.5246 10.585C13.1029 10.8385 13.2606 11.5181 12.9563 12.0127L12.9553 12.0117C12.7502 12.3463 12.5273 12.6387 12.2942 12.8721C11.359 13.8131 9.98499 14.0487 8.59982 13.7715C7.21049 13.4933 5.74676 12.6937 4.51682 11.4639C3.28665 10.2337 2.48904 8.77002 2.21213 7.38086C1.93622 5.99592 2.17171 4.62155 3.10666 3.68653C3.3401 3.45311 3.63315 3.23073 3.96799 3.02539ZM4.4924 3.87598L4.49143 3.87695C4.20705 4.05127 3.97987 4.2274 3.81369 4.39356C3.18879 5.01853 2.95852 6.01059 3.1926 7.18555C3.42594 8.35601 4.11442 9.64741 5.22385 10.7568C6.33375 11.8666 7.6257 12.5567 8.79611 12.791C9.97038 13.026 10.9605 12.7964 11.5852 12.168L11.5871 12.167C11.753 12.0011 11.9287 11.774 12.1028 11.4902L10.0295 10.5576C10.024 10.5555 10.019 10.5557 10.0158 10.5557C9.94219 10.6699 9.84847 10.8087 9.73166 10.9492L9.60471 11.0928C9.05138 11.6806 8.25163 11.5308 7.67209 11.2793C7.05542 11.0115 6.42897 10.5317 5.94455 10.042C5.46301 9.55514 4.98485 8.92965 4.71604 8.31543C4.46373 7.73861 4.30868 6.94131 4.89768 6.38672L4.89865 6.38574C5.08739 6.20883 5.28249 6.0704 5.43576 5.97168L5.43381 5.96582L4.49436 3.875L4.4924 3.87598Z" fill="currentColor"/>
<path d="M11.5 8C11.5 8.27615 11.2761 8.5 11 8.5C10.7239 8.5 10.5 8.27615 10.5 8C10.5 7.72386 10.7239 7.5 11 7.5C11.2761 7.5 11.5 7.72386 11.5 8Z" fill="currentColor"/>
<path d="M10.5 6.13012V5.81957C10.5002 5.4289 10.7295 5.08195 11.0869 4.92309L11.0928 4.92016L11.3027 4.83031L11.3066 4.82836C11.5959 4.70729 11.75 4.47364 11.75 4.26C11.75 3.84614 11.4139 3.51 11 3.51C10.5861 3.51 10.25 3.84614 10.25 4.26C10.25 4.53614 10.0261 4.76 9.75 4.76C9.47386 4.76 9.25 4.53614 9.25 4.26C9.25 3.29386 10.0339 2.51 11 2.51C11.9661 2.51 12.75 3.29386 12.75 4.26C12.75 4.96626 12.264 5.51223 11.6934 5.75121L11.6924 5.75024L11.5 5.83324V6.13012C11.4999 6.40621 11.2761 6.63012 11 6.63012C10.7239 6.63012 10.5001 6.40621 10.5 6.13012Z" fill="currentColor"/>
</svg>
