<svg width="16" height="16" viewBox="0 0 16 16" fill="none" xmlns="http://www.w3.org/2000/svg">
<path d="M2.69691 2.69645C2.8922 2.50148 3.20878 2.50129 3.40394 2.69645C3.59889 2.89163 3.59884 3.20827 3.40394 3.40348C0.869204 5.93822 0.869204 10.0621 3.40394 12.5968C3.59875 12.7921 3.59895 13.1087 3.40394 13.3039C3.20882 13.499 2.8922 13.4987 2.69691 13.3039C-0.228352 10.3786 -0.228352 5.62171 2.69691 2.69645Z" fill="currentColor"/>
<path d="M12.5963 2.69645C12.7916 2.50121 13.1081 2.50125 13.3034 2.69645C16.2286 5.62171 16.2286 10.3786 13.3034 13.3039C13.1081 13.4989 12.7915 13.4989 12.5963 13.3039C12.4012 13.1087 12.4013 12.7921 12.5963 12.5968C15.1311 10.0621 15.1311 5.93822 12.5963 3.40348C12.4011 3.20822 12.4011 2.89169 12.5963 2.69645Z" fill="currentColor"/>
<path d="M11.1862 4.11637C11.3813 3.92119 11.6979 3.92135 11.8932 4.11637C14.0385 6.26163 14.0385 9.74845 11.8932 11.8937C11.698 12.0887 11.3814 12.0887 11.1862 11.8937C10.9912 11.6985 10.9912 11.3819 11.1862 11.1867C12.9409 9.43195 12.9409 6.57814 11.1862 4.8234C10.9912 4.62815 10.9911 4.31156 11.1862 4.11637Z" fill="currentColor"/>
<path d="M4.10707 4.10661C4.30235 3.91155 4.6189 3.91141 4.8141 4.10661C5.00903 4.30182 5.00907 4.61844 4.8141 4.81364C3.05936 6.56838 3.05936 9.42218 4.8141 11.1769C5.00893 11.3722 5.00917 11.6888 4.8141 11.884C4.61897 12.0791 4.30236 12.0788 4.10707 11.884C1.9618 9.73869 1.9618 6.25187 4.10707 4.10661Z" fill="currentColor"/>
<path d="M5.52699 5.52653C5.72227 5.33151 6.03884 5.33135 6.23402 5.52653C6.4289 5.72173 6.42894 6.03838 6.23402 6.23356C5.25928 7.2083 5.25928 8.79202 6.23402 9.76676C6.42882 9.96202 6.42902 10.2787 6.23402 10.4738C6.0389 10.6689 5.72228 10.6686 5.52699 10.4738C4.16173 9.10853 4.16173 6.89179 5.52699 5.52653Z" fill="currentColor"/>
<path d="M9.76625 5.52653C9.96149 5.33129 10.278 5.33133 10.4733 5.52653C11.8385 6.89179 11.8385 9.10853 10.4733 10.4738C10.278 10.6688 9.96143 10.6689 9.76625 10.4738C9.57113 10.2786 9.57125 9.96203 9.76625 9.76676C10.741 8.79202 10.741 7.2083 9.76625 6.23356C9.57109 6.03834 9.57114 5.72178 9.76625 5.52653Z" fill="currentColor"/>
<path fill-rule="evenodd" clip-rule="evenodd" d="M7.99965 6.50016C8.82807 6.50016 9.49965 7.17173 9.49965 8.00016C9.49956 8.82851 8.82802 9.50016 7.99965 9.50016C7.17143 9.49997 6.49973 8.8284 6.49965 8.00016C6.49965 7.17185 7.17138 6.50035 7.99965 6.50016ZM7.99965 7.50016C7.72367 7.50035 7.49965 7.72414 7.49965 8.00016C7.49973 8.27611 7.72372 8.49997 7.99965 8.50016C8.27573 8.50016 8.49956 8.27623 8.49965 8.00016C8.49965 7.72402 8.27579 7.50016 7.99965 7.50016Z" fill="currentColor"/>
</svg>
