<svg width="16" height="16" viewBox="0 0 16 16" fill="none" xmlns="http://www.w3.org/2000/svg">
<path fill-rule="evenodd" clip-rule="evenodd" d="M7.5 9.5C9.15614 9.5 10.5 10.8439 10.5 12.5C10.5 13.0561 10.0561 13.5 9.5 13.5H2.5C1.94386 13.5 1.5 13.0561 1.5 12.5C1.5 10.8439 2.84386 9.5 4.5 9.5H7.5ZM4.5 10.5C3.39614 10.5 2.5 11.3961 2.5 12.5H9.5C9.5 11.3961 8.60386 10.5 7.5 10.5H4.5Z" fill="currentColor"/>
<path fill-rule="evenodd" clip-rule="evenodd" d="M6 3C7.65685 3 9 4.34315 9 6C9 7.65685 7.65685 9 6 9C4.34315 9 3 7.65685 3 6C3 4.34315 4.34315 3 6 3ZM6 4C4.89543 4 4 4.89543 4 6C4 7.10457 4.89543 8 6 8C7.10457 8 8 7.10457 8 6C8 4.89543 7.10457 4 6 4Z" fill="currentColor"/>
<path d="M12 2.5C12.2761 2.5 12.5 2.72386 12.5 3V4.5H14C14.2761 4.5 14.5 4.72386 14.5 5C14.5 5.27614 14.2761 5.5 14 5.5H12.5V7C12.5 7.27614 12.2761 7.5 12 7.5C11.7239 7.5 11.5 7.27614 11.5 7V5.5H10C9.72386 5.5 9.5 5.27614 9.5 5C9.5 4.72386 9.72386 4.5 10 4.5H11.5V3C11.5 2.72386 11.7239 2.5 12 2.5Z" fill="currentColor"/>
</svg>
