<svg width="16" height="16" viewBox="0 0 16 16" fill="none" xmlns="http://www.w3.org/2000/svg">
<path fill-rule="evenodd" clip-rule="evenodd" d="M3.96799 3.02543C4.47306 2.71461 5.15533 2.89847 5.40451 3.46488H5.40646L6.34103 5.54496L6.37814 5.63089C6.53937 6.06847 6.3767 6.56584 5.97384 6.81546C5.84941 6.89581 5.70957 6.9959 5.58224 7.11527C5.49193 7.2011 5.41262 7.41351 5.63205 7.91507C5.83581 8.38054 6.22734 8.90605 6.65549 9.3389C7.08087 9.76889 7.60503 10.1592 8.07052 10.3614C8.57296 10.5794 8.78957 10.4992 8.87619 10.4073C8.99727 10.2779 9.09904 10.1356 9.1799 10.0098C9.43949 9.59853 9.93376 9.47111 10.3479 9.61039L10.4299 9.64164L10.4358 9.64457L12.5256 10.584L12.5246 10.585C13.1029 10.8385 13.2606 11.5182 12.9563 12.0127L12.9553 12.0118C12.7502 12.3463 12.5273 12.6387 12.2942 12.8721C11.359 13.8132 9.98498 14.0487 8.59982 13.7715C7.2105 13.4934 5.74675 12.6937 4.51681 11.4639C3.28666 10.2337 2.48904 8.77005 2.21213 7.38089C1.93622 5.99596 2.17172 4.62158 3.10666 3.68656C3.3401 3.45315 3.63316 3.23076 3.96799 3.02543ZM4.4924 3.87601L4.49142 3.87699C4.20705 4.0513 3.97987 4.22744 3.81369 4.39359C3.1888 5.01857 2.95852 6.01063 3.19259 7.18558C3.42594 8.35604 4.11443 9.64746 5.22384 10.7569C6.33375 11.8666 7.6257 12.5567 8.79611 12.791C9.97036 13.026 10.9605 12.7965 11.5852 12.168L11.5871 12.167C11.753 12.0011 11.9287 11.774 12.1028 11.4903L10.0295 10.5577C10.024 10.5555 10.019 10.5557 10.0158 10.5557C9.94219 10.6699 9.84846 10.8087 9.73166 10.9493L9.6047 11.0928C9.05138 11.6806 8.25162 11.5309 7.67209 11.2793C7.05543 11.0116 6.42897 10.5317 5.94455 10.042C5.46301 9.55518 4.98485 8.92967 4.71603 8.31546C4.46373 7.73865 4.3087 6.94134 4.89767 6.38675L4.89865 6.38578C5.08738 6.20887 5.28249 6.07044 5.43576 5.97171L5.43381 5.96585L4.49435 3.87503L4.4924 3.87601Z" fill="black"/>
<path d="M12.6467 2.64652C12.842 2.45134 13.1585 2.45128 13.3537 2.64652C13.5488 2.84176 13.5489 3.15832 13.3537 3.35355L10.2072 6.50003H12.0002C12.2763 6.50015 12.5002 6.72396 12.5002 7.00003C12.5002 7.27609 12.2762 7.49992 12.0002 7.50003H9.00021C8.96716 7.50005 8.93411 7.49677 8.90158 7.49027C8.84749 7.47947 8.79745 7.4584 8.75119 7.43167C8.71413 7.41028 8.6784 7.38523 8.6467 7.35355C8.54908 7.25593 8.50022 7.12796 8.50021 7.00003V4.00003C8.50021 3.72389 8.72407 3.50003 9.00021 3.50003C9.27626 3.50015 9.50021 3.72396 9.50021 4.00003V5.793L12.6467 2.64652Z" fill="black"/>
</svg>
