<svg width="16" height="16" viewBox="0 0 16 16" fill="none" xmlns="http://www.w3.org/2000/svg">
<path fill-rule="evenodd" clip-rule="evenodd" d="M6.99989 3.5C7.18927 3.5 7.36246 3.60699 7.44716 3.77637C7.5318 3.94564 7.51371 4.14833 7.40028 4.2998L4.49989 8.16699V13C4.49989 13.2761 4.27604 13.5 3.99989 13.5C3.72379 13.4999 3.49989 13.2761 3.49989 13V8.16699L0.599503 4.2998C0.486108 4.14834 0.468012 3.94563 0.552628 3.77637C0.637314 3.607 0.810534 3.50003 0.999894 3.5H6.99989ZM3.99989 7.16602L5.99989 4.5H1.99989L3.99989 7.16602Z" fill="currentColor"/>
<path d="M6.99989 9.5C7.27604 9.5 7.49989 9.72386 7.49989 10V13C7.49989 13.2761 7.27604 13.5 6.99989 13.5C6.7238 13.4999 6.49989 13.2761 6.49989 13V10C6.49989 9.72389 6.7238 9.50005 6.99989 9.5Z" fill="currentColor"/>
<path d="M9.99989 7.5C10.276 7.5 10.4999 7.72386 10.4999 8V13C10.4999 13.2761 10.276 13.5 9.99989 13.5C9.7238 13.4999 9.49989 13.2761 9.49989 13V8C9.49989 7.72389 9.7238 7.50005 9.99989 7.5Z" fill="currentColor"/>
<path d="M12.9999 5.5C13.276 5.5 13.4999 5.72386 13.4999 6V13C13.4999 13.2761 13.276 13.5 12.9999 13.5C12.7238 13.4999 12.4999 13.2761 12.4999 13V6C12.4999 5.72389 12.7238 5.50005 12.9999 5.5Z" fill="currentColor"/>
</svg>
