<svg width="16" height="16" viewBox="0 0 16 16" fill="none" xmlns="http://www.w3.org/2000/svg">
<path fill-rule="evenodd" clip-rule="evenodd" d="M3.96798 3.02531C4.47306 2.7145 5.15532 2.89836 5.4045 3.46476H5.40646L6.34103 5.54484L6.37814 5.63078C6.53943 6.06838 6.37671 6.5657 5.97384 6.81535C5.8494 6.8957 5.70958 6.99577 5.58224 7.11515C5.4919 7.20095 5.41257 7.4133 5.63204 7.91496C5.83579 8.38045 6.22731 8.9059 6.65548 9.33879C7.08087 9.7688 7.605 10.1591 8.07052 10.3612C8.5731 10.5794 8.7896 10.4991 8.87618 10.4071C8.99729 10.2778 9.09903 10.1355 9.17989 10.0097C9.43948 9.59841 9.93376 9.47099 10.3479 9.61027L10.4299 9.64152L10.4358 9.64445L12.5256 10.5839L12.5246 10.5849C13.1029 10.8384 13.2606 11.518 12.9563 12.0126L12.9553 12.0116C12.7501 12.3462 12.5273 12.6386 12.2942 12.872C11.359 13.8131 9.98501 14.0486 8.59981 13.7714C7.21047 13.4933 5.74676 12.6936 4.51681 11.4638C3.28662 10.2336 2.48901 8.76996 2.21212 7.38078C1.93621 5.99582 2.17167 4.62147 3.10665 3.68644C3.3401 3.45303 3.63314 3.23064 3.96798 3.02531ZM4.49239 3.87589L4.49142 3.87687C4.20703 4.05119 3.97987 4.22732 3.81368 4.39347C3.18875 5.01845 2.95851 6.01048 3.19259 7.18547C3.42592 8.35595 4.11439 9.6473 5.22384 10.7568C6.33375 11.8666 7.62568 12.5566 8.7961 12.7909C9.9704 13.0259 10.9605 12.7964 11.5852 12.1679L11.5871 12.1669C11.753 12.001 11.9287 11.7739 12.1027 11.4902L10.0295 10.5575C10.024 10.5554 10.019 10.5556 10.0158 10.5556C9.94217 10.6698 9.84848 10.8085 9.73165 10.9491L9.6047 11.0927C9.05136 11.6805 8.25163 11.5308 7.67208 11.2792C7.05539 11.0114 6.42897 10.5316 5.94454 10.0419C5.46298 9.55504 4.98483 8.92958 4.71603 8.31535C4.46372 7.73851 4.30863 6.94122 4.89767 6.38664L4.89864 6.38566C5.08739 6.20873 5.28247 6.07032 5.43575 5.9716L5.4338 5.96574L4.49435 3.87492L4.49239 3.87589Z" fill="black"/>
<path d="M11.0002 6.49992C11.2762 6.50003 11.5002 6.72388 11.5002 6.99992C11.5002 7.27599 11.2762 7.4998 11.0002 7.49992C10.7241 7.49992 10.5002 7.27606 10.5002 6.99992C10.5002 6.72381 10.7241 6.49992 11.0002 6.49992Z" fill="black"/>
<path d="M9.58614 5.08683C10.3697 4.30334 11.6386 4.29888 12.4162 5.08976C12.6097 5.28662 12.607 5.60321 12.4104 5.79679C12.2135 5.98992 11.8968 5.98755 11.7033 5.79093C11.3209 5.40195 10.6896 5.3975 10.2932 5.79386C10.0979 5.9887 9.78128 5.98892 9.58614 5.79386C9.39107 5.59873 9.3913 5.28211 9.58614 5.08683Z" fill="black"/>
<path d="M8.17599 3.67668C9.74123 2.11151 12.268 2.1115 13.8332 3.67668C14.0284 3.87188 14.0283 4.18844 13.8332 4.38371C13.6379 4.57854 13.3213 4.57881 13.1262 4.38371C11.9515 3.20906 10.0577 3.20907 8.88302 4.38371C8.68772 4.57855 8.37111 4.57883 8.17599 4.38371C7.98101 4.18857 7.98119 3.87193 8.17599 3.67668Z" fill="black"/>
</svg>
