<svg width="16" height="16" viewBox="0 0 16 16" fill="none" xmlns="http://www.w3.org/2000/svg">
<path fill-rule="evenodd" clip-rule="evenodd" d="M7.80863 1.53811C7.99546 1.46075 8.21057 1.50352 8.35355 1.64651L11.3536 4.64651C11.5488 4.84177 11.5488 5.15829 11.3536 5.35354L8.70707 8.00002L11.3536 10.6465C11.5488 10.8418 11.5488 11.1583 11.3536 11.3535L8.35355 14.3535C8.21058 14.4965 7.99545 14.5393 7.80863 14.4619C7.62184 14.3845 7.50005 14.2022 7.50004 14V9.20705L5.35355 11.3535C5.15831 11.5488 4.84179 11.5487 4.64652 11.3535C4.45126 11.1583 4.45126 10.8418 4.64652 10.6465L7.29301 8.00002L4.64652 5.35354C4.45126 5.15828 4.45126 4.84177 4.64652 4.64651C4.84179 4.45127 5.1583 4.45125 5.35355 4.64651L7.50004 6.79299V2.00002C7.50004 1.79782 7.62183 1.61551 7.80863 1.53811ZM8.50004 12.793L10.293 11L8.50004 9.20705V12.793ZM8.50004 6.79299L10.293 5.00002L8.50004 3.20705V6.79299Z" fill="black"/>
</svg>
