<svg width="16" height="16" viewBox="0 0 16 16" fill="none" xmlns="http://www.w3.org/2000/svg">
<path fill-rule="evenodd" clip-rule="evenodd" d="M3.96797 3.02539C4.47305 2.71457 5.15532 2.89844 5.4045 3.46484H5.40645L6.34102 5.54492L6.37813 5.63086C6.53938 6.06844 6.3767 6.5658 5.97383 6.81543C5.8494 6.89578 5.70956 6.99586 5.58223 7.11523C5.49191 7.20106 5.41259 7.41345 5.63204 7.91504C5.83579 8.38051 6.22732 8.906 6.65547 9.33887C7.08086 9.76886 7.60501 10.1592 8.07051 10.3613C8.573 10.5794 8.78957 10.4991 8.87618 10.4072C8.99727 10.2779 9.09903 10.1355 9.17989 10.0098C9.43948 9.59849 9.93375 9.47107 10.3479 9.61035L10.4299 9.6416L10.4357 9.64453L12.5256 10.584L12.5246 10.585C13.1029 10.8385 13.2606 11.5181 12.9563 12.0127L12.9553 12.0117C12.7501 12.3463 12.5273 12.6387 12.2941 12.8721C11.359 13.8131 9.98498 14.0487 8.59981 13.7715C7.21048 13.4933 5.74675 12.6937 4.5168 11.4639C3.28663 10.2337 2.48902 8.77002 2.21211 7.38086C1.93621 5.99592 2.17169 4.62155 3.10665 3.68652C3.34009 3.45311 3.63314 3.23072 3.96797 3.02539ZM4.49239 3.87598L4.49141 3.87695C4.20703 4.05127 3.97986 4.2274 3.81368 4.39355C3.18877 5.01853 2.95851 6.01059 3.19258 7.18555C3.42593 8.35601 4.11441 9.64741 5.22383 10.7568C6.33374 11.8666 7.62568 12.5567 8.7961 12.791C9.97036 13.026 10.9605 12.7964 11.5852 12.168L11.5871 12.167C11.753 12.0011 11.9287 11.774 12.1027 11.4902L10.0295 10.5576C10.024 10.5555 10.019 10.5557 10.0158 10.5557C9.94217 10.6699 9.84845 10.8087 9.73165 10.9492L9.60469 11.0928C9.05136 11.6806 8.25161 11.5308 7.67207 11.2793C7.05541 11.0115 6.42896 10.5317 5.94454 10.042C5.46299 9.55514 4.98483 8.92964 4.71602 8.31543C4.46372 7.7386 4.30867 6.9413 4.89766 6.38672L4.89864 6.38574C5.08737 6.20883 5.28247 6.0704 5.43575 5.97168L5.43379 5.96582L4.49434 3.875L4.49239 3.87598Z" fill="currentColor"/>
<path fill-rule="evenodd" clip-rule="evenodd" d="M12.2502 5C13.0762 5.00012 13.7502 5.67393 13.7502 6.5V7.5C13.7502 7.77607 13.5262 7.99988 13.2502 8H8.7502C8.47406 8 8.2502 7.77614 8.2502 7.5V6.5C8.2502 5.67386 8.92406 5 9.7502 5H12.2502ZM9.7502 6C9.47634 6 9.2502 6.22614 9.2502 6.5V7H12.7502V6.5C12.7502 6.22621 12.524 6.00012 12.2502 6H9.7502Z" fill="currentColor"/>
<path fill-rule="evenodd" clip-rule="evenodd" d="M11.0002 1.5C11.9666 1.50012 12.7502 2.28357 12.7502 3.25C12.7502 4.21643 11.9666 4.99988 11.0002 5C10.0337 5 9.2502 4.2165 9.2502 3.25C9.2502 2.2835 10.0337 1.5 11.0002 1.5ZM11.0002 2.5C10.586 2.5 10.2502 2.83579 10.2502 3.25C10.2502 3.66421 10.586 4 11.0002 4C11.4143 3.99988 11.7502 3.66414 11.7502 3.25C11.7502 2.83586 11.4143 2.50012 11.0002 2.5Z" fill="currentColor"/>
</svg>
