<svg width="16" height="16" viewBox="0 0 16 16" fill="none" xmlns="http://www.w3.org/2000/svg">
<path fill-rule="evenodd" clip-rule="evenodd" d="M7.9951 7.5C9.73481 7.5 11.3336 7.97036 12.5117 8.75684C13.6861 9.54107 14.4922 10.6796 14.4922 12.002C14.4921 12.332 14.4421 12.6963 14.3506 13.0781C14.2132 13.655 13.6001 14.0075 13.0234 13.7832L13.0224 13.7852L10.8906 12.9746L10.8037 12.9404C10.38 12.7451 10.1436 12.2779 10.2519 11.8164C10.2831 11.6717 10.3117 11.5024 10.3174 11.3281C10.3206 11.2036 10.2258 10.9974 9.71581 10.7979C9.24257 10.6127 8.59426 10.518 7.98534 10.5146C7.38046 10.5114 6.73384 10.6058 6.2617 10.792C5.7522 10.9931 5.6564 11.2029 5.66014 11.3291C5.66598 11.5063 5.69478 11.6791 5.72655 11.8252C5.83369 12.2995 5.57385 12.7393 5.1826 12.9336L5.10252 12.9697L5.09666 12.9717L2.95409 13.7852V13.7832C2.36588 14.0129 1.77416 13.644 1.63963 13.0791C1.54808 12.6974 1.50014 12.3329 1.49999 12.0029C1.49587 10.6762 2.30101 9.53831 3.47655 8.75488C4.65566 7.96916 6.25576 7.50005 7.9951 7.5ZM7.9951 8.49902C6.4256 8.49908 5.02455 8.92506 4.03124 9.58691C3.03457 10.2511 2.49628 11.1138 2.49901 12V12.002C2.49904 12.2365 2.53475 12.5211 2.61229 12.8447L4.73827 12.0381C4.74353 12.0357 4.74682 12.0325 4.74901 12.0303C4.7203 11.8974 4.68867 11.7329 4.67186 11.5508L4.66014 11.3594C4.63584 10.5525 5.30686 10.0932 5.89452 9.86133C6.52003 9.61457 7.3023 9.51089 7.9912 9.51465C8.67609 9.51841 9.45659 9.62284 10.081 9.86719C10.6672 10.0967 11.3408 10.5509 11.3164 11.3594C11.308 11.6179 11.2681 11.855 11.2295 12.0332L11.2344 12.0361L13.3769 12.8496L13.3779 12.8477C13.4557 12.5234 13.4921 12.2369 13.4922 12.002C13.4922 11.1182 12.9532 10.2542 11.957 9.58887C10.9644 8.92609 9.56425 8.49902 7.9951 8.49902Z" fill="currentColor"/>
<path d="M5.99999 2.5C6.27613 2.5 6.49999 2.72386 6.49999 3C6.49999 3.27614 6.27613 3.5 5.99999 3.5H5.21678L7.65331 5.93652C7.84801 6.13119 8.1617 6.13113 8.35643 5.93652L11.6465 2.64648C11.8417 2.45138 12.1583 2.45138 12.3535 2.64648C12.5486 2.84172 12.5486 3.15828 12.3535 3.35352L9.06346 6.64355C8.51464 7.19226 7.6479 7.22653 7.05956 6.74609L6.94627 6.64355L4.49999 4.19727V5C4.49999 5.27614 4.27613 5.5 3.99999 5.5C3.72385 5.49999 3.49999 5.27614 3.49999 5V3C3.49999 2.72386 3.72385 2.50001 3.99999 2.5H5.99999Z" fill="currentColor"/>
</svg>
