<svg width="16" height="16" viewBox="0 0 16 16" fill="none" xmlns="http://www.w3.org/2000/svg">
<path fill-rule="evenodd" clip-rule="evenodd" d="M7.72474 10.5822C7.91881 10.4541 8.18278 10.4758 8.35364 10.6467L11.3536 13.6467C11.4965 13.7897 11.5394 14.0049 11.462 14.1916C11.3846 14.3783 11.2022 14.5002 11.0001 14.5002H5.00013C4.79801 14.5002 4.61568 14.3783 4.53821 14.1916C4.46083 14.0048 4.50366 13.7897 4.64661 13.6467L7.64661 10.6467L7.72474 10.5822ZM6.20716 13.5002H9.79309L8.00013 11.7072L6.20716 13.5002Z" fill="currentColor"/>
<path d="M3.39759 3.39572C5.94131 0.863058 10.0581 0.850104 12.5949 3.39767C15.1282 5.94238 15.1294 10.0585 12.5939 12.594C12.3987 12.7891 12.0821 12.7888 11.8868 12.594C11.6916 12.3987 11.6916 12.0822 11.8868 11.8869C14.0311 9.74265 14.0319 6.25809 11.8859 4.10275C9.74267 1.95046 6.25894 1.95761 4.10266 4.1047C1.95059 6.24788 1.95769 9.73071 4.10462 11.8869C4.29933 12.0826 4.2983 12.4001 4.10266 12.5949C3.907 12.7894 3.59037 12.7884 3.39563 12.593C0.862825 10.0493 0.849988 5.9325 3.39759 3.39572Z" fill="currentColor"/>
<path d="M4.81751 4.81564C6.58043 3.06395 9.42713 3.04878 11.1847 4.81759C12.9378 6.58197 12.9396 9.42793 11.1837 11.1838C10.9885 11.3789 10.6719 11.3788 10.4767 11.1838C10.2815 10.9886 10.2815 10.672 10.4767 10.4768C11.8407 9.11276 11.8423 6.89832 10.4757 5.52267C9.11333 4.15156 6.89967 4.15647 5.52259 5.52463C4.15149 6.88707 4.15626 9.1007 5.52454 10.4778C5.71913 10.6736 5.71839 10.9901 5.52259 11.1848C5.3268 11.3792 5.0102 11.3784 4.81556 11.1828C3.06393 9.41998 3.0489 6.57322 4.81751 4.81564Z" fill="currentColor"/>
<path d="M6.22669 6.22677C7.20195 5.25151 8.78854 5.25151 9.7638 6.22677C10.7387 7.20206 10.7389 8.78872 9.7638 9.76388C9.56865 9.95898 9.25204 9.95878 9.05677 9.76388C8.86152 9.56864 8.86155 9.25212 9.05677 9.05685C9.64138 8.47222 9.64118 7.51856 9.05677 6.93381C8.47203 6.34907 7.51846 6.34907 6.93372 6.93381C6.34903 7.51855 6.349 8.47213 6.93372 9.05685C7.12869 9.25214 7.12888 9.56872 6.93372 9.76388C6.73855 9.95897 6.42195 9.95883 6.22669 9.76388C5.25144 8.78864 5.25147 7.20204 6.22669 6.22677Z" fill="currentColor"/>
<path d="M8.00013 7.50021C8.27621 7.50028 8.50013 7.72411 8.50013 8.00021C8.50001 8.27621 8.27614 8.50014 8.00013 8.50021C7.72406 8.50021 7.50024 8.27626 7.50013 8.00021C7.50013 7.72407 7.72398 7.50021 8.00013 7.50021Z" fill="currentColor"/>
</svg>
