<svg width="16" height="16" viewBox="0 0 16 16" fill="none" xmlns="http://www.w3.org/2000/svg">
<path fill-rule="evenodd" clip-rule="evenodd" d="M3.96799 3.02539C4.47307 2.71457 5.15533 2.89844 5.40451 3.46484H5.40646L6.34103 5.54492L6.37814 5.63086C6.53939 6.06845 6.37671 6.5658 5.97385 6.81543C5.84941 6.89578 5.70958 6.99586 5.58225 7.11523C5.49192 7.20106 5.41261 7.41345 5.63205 7.91504C5.8358 8.38051 6.22734 8.906 6.65549 9.33887C7.08087 9.76886 7.60503 10.1592 8.07053 10.3613C8.57301 10.5794 8.78958 10.4991 8.87619 10.4072C8.99728 10.2779 9.09905 10.1355 9.1799 10.0098C9.43949 9.59849 9.93377 9.47107 10.3479 9.61035L10.4299 9.6416L10.4358 9.64453L12.5256 10.584L12.5246 10.585C13.1029 10.8385 13.2606 11.5181 12.9563 12.0127L12.9553 12.0117C12.7502 12.3463 12.5273 12.6387 12.2942 12.8721C11.359 13.8131 9.98499 14.0487 8.59982 13.7715C7.21049 13.4933 5.74676 12.6937 4.51682 11.4639C3.28665 10.2337 2.48903 8.77002 2.21213 7.38086C1.93622 5.99592 2.17171 4.62155 3.10666 3.68652C3.3401 3.45311 3.63316 3.23072 3.96799 3.02539ZM4.4924 3.87598L4.49143 3.87695C4.20705 4.05127 3.97987 4.2274 3.81369 4.39355C3.18879 5.01853 2.95852 6.01059 3.1926 7.18555C3.42594 8.35601 4.11442 9.64741 5.22385 10.7568C6.33375 11.8666 7.6257 12.5567 8.79611 12.791C9.97038 13.026 10.9605 12.7964 11.5852 12.168L11.5871 12.167C11.753 12.0011 11.9287 11.774 12.1028 11.4902L10.0295 10.5576C10.024 10.5555 10.019 10.5557 10.0158 10.5557C9.94219 10.6699 9.84847 10.8087 9.73166 10.9492L9.60471 11.0928C9.05138 11.6806 8.25163 11.5308 7.67209 11.2793C7.05542 11.0115 6.42897 10.5317 5.94455 10.042C5.46301 9.55514 4.98485 8.92964 4.71603 8.31543C4.46373 7.73861 4.30869 6.9413 4.89768 6.38672L4.89865 6.38574C5.08739 6.20883 5.28249 6.0704 5.43576 5.97168L5.43381 5.96582L4.49435 3.875L4.4924 3.87598Z" fill="currentColor"/>
<path d="M9.00021 4.79004C10.2281 4.79016 11.2102 5.78586 11.2102 7C11.2102 7.27606 10.9862 7.49988 10.7102 7.5C10.4341 7.49998 10.2102 7.27612 10.2102 7C10.2102 6.33432 9.67205 5.79016 9.00021 5.79004C8.72408 5.79004 8.50023 5.56617 8.50021 5.29004C8.50021 5.0139 8.72407 4.79004 9.00021 4.79004Z" fill="currentColor"/>
<path d="M9.00021 2.5C11.4863 2.50012 13.5002 4.51393 13.5002 7C13.5002 7.27607 13.2763 7.49988 13.0002 7.5C12.7241 7.5 12.5002 7.27614 12.5002 7C12.5002 5.06621 10.934 3.50012 9.00021 3.5C8.72407 3.5 8.50021 3.27614 8.50021 3C8.50021 2.72386 8.72407 2.5 9.00021 2.5Z" fill="currentColor"/>
</svg>
