<svg width="16" height="16" viewBox="0 0 16 16" fill="none" xmlns="http://www.w3.org/2000/svg">
<path d="M3.77539 1.63775C4.13903 1.2923 4.70668 1.25948 5.09766 1.57818L5.17383 1.64654L7.2832 3.75689C7.67839 4.15216 7.67844 4.77865 7.2832 5.17389L6.54394 5.91314C6.42434 6.03275 6.37345 6.19859 6.40137 6.34771C6.48159 6.75269 6.75071 7.47342 7.63379 8.3565C8.51966 9.24232 9.24227 9.50967 9.64648 9.58892C9.78925 9.61454 9.94773 9.56911 10.084 9.43853L10.8164 8.70611C11.2116 8.31107 11.8382 8.31112 12.2334 8.70611L14.3437 10.8165L14.4092 10.8897C14.7164 11.2659 14.7265 11.8468 14.3447 12.2208L13.5361 13.0411L13.5332 13.044C13.2457 13.3314 12.8821 13.5749 12.4512 13.6924L12.4473 13.6934C11.2632 14.0044 9.04479 13.8485 5.83105 10.7715L5.5166 10.4639L5.51465 10.462C2.15148 7.09383 1.97542 4.76357 2.2959 3.54303L2.29785 3.53814C2.41295 3.11636 2.64118 2.75059 2.94824 2.45416L3.76855 1.64459L3.77539 1.63775ZM4.4707 2.35846C4.46977 2.35883 4.46781 2.35881 4.46582 2.36041L3.65137 3.16607L3.64648 3.17096C3.45629 3.35355 3.32697 3.56615 3.26269 3.80182C3.06484 4.56257 3.01473 6.54349 6.22266 9.75592L6.52246 10.0489C9.57382 12.9716 11.4497 12.9192 12.1875 12.7276C12.4163 12.6652 12.6337 12.5285 12.8262 12.336L13.6328 11.5196L11.5244 9.41119L11.5234 9.41314L10.7832 10.1534L10.7764 10.1612C10.4337 10.4896 9.95433 10.6644 9.45801 10.5713L9.4541 10.5704C8.83837 10.4496 7.94074 10.0775 6.92676 9.06353C5.9127 8.04948 5.53968 7.15195 5.41894 6.53619V6.53228C5.32692 6.04148 5.49564 5.54647 5.83594 5.20611L6.57617 4.46685L6.57715 4.4649L4.4707 2.35846Z" fill="currentColor"/>
</svg>
