<svg width="16" height="16" viewBox="0 0 16 16" fill="none" xmlns="http://www.w3.org/2000/svg">
<path fill-rule="evenodd" clip-rule="evenodd" d="M8.00042 4.50008C8.82865 4.50031 9.50042 5.1718 9.50042 6.00008C9.50039 6.56864 9.18349 7.06308 8.71722 7.31746L11.4467 12.7764C11.5241 12.9313 11.5161 13.1154 11.4252 13.2628C11.3341 13.41 11.1726 13.5001 10.9994 13.5001H4.99944C4.82632 13.4999 4.66469 13.4101 4.57366 13.2628C4.48288 13.1155 4.47489 12.9312 4.55218 12.7764L7.28069 7.31746C6.81529 7.06283 6.50045 6.56799 6.50042 6.00008C6.50042 5.17165 7.17199 4.50008 8.00042 4.50008ZM5.80804 12.5001H10.1908L7.99944 8.11825L5.80804 12.5001ZM8.00042 5.50008C7.72428 5.50008 7.50042 5.72394 7.50042 6.00008C7.50046 6.27619 7.7243 6.50008 8.00042 6.50008C8.27634 6.49985 8.50038 6.27604 8.50042 6.00008C8.50042 5.72408 8.27637 5.50031 8.00042 5.50008Z" fill="currentColor"/>
<path d="M4.10686 2.11629C4.30208 1.92137 4.61871 1.92132 4.8139 2.11629C5.00887 2.31148 5.00882 2.6281 4.8139 2.82332C3.05922 4.578 3.05935 7.43185 4.8139 9.1866C5.00877 9.38186 5.00893 9.69848 4.8139 9.89364C4.61875 10.0888 4.30216 10.0885 4.10686 9.89364C1.9618 7.74836 1.96167 4.26149 4.10686 2.11629Z" fill="currentColor"/>
<path d="M11.1869 2.10653C11.3822 1.9115 11.6988 1.91134 11.894 2.10653C14.0389 4.25173 14.0389 7.73867 11.894 9.88387C11.6988 10.0788 11.3822 10.0787 11.1869 9.88387C10.9917 9.68866 10.9918 9.37211 11.1869 9.17684C12.9414 7.42216 12.9414 4.56824 11.1869 2.81356C10.9917 2.6183 10.9917 2.30179 11.1869 2.10653Z" fill="currentColor"/>
<path d="M5.52679 3.52645C5.72205 3.33142 6.03862 3.33131 6.23382 3.52645C6.42879 3.72166 6.42879 4.03827 6.23382 4.23348C5.25913 5.2082 5.25914 6.79195 6.23382 7.76668C6.42872 7.96194 6.42887 8.27855 6.23382 8.47371C6.03866 8.66884 5.72207 8.66864 5.52679 8.47371C4.16158 7.10846 4.16157 4.8917 5.52679 3.52645Z" fill="currentColor"/>
<path d="M9.76702 3.52645C9.9623 3.33142 10.2789 3.33126 10.4741 3.52645C11.839 4.89165 11.839 7.10851 10.4741 8.47371C10.2789 8.66875 9.96227 8.66859 9.76702 8.47371C9.5718 8.27849 9.57187 7.96195 9.76702 7.76668C10.7414 6.792 10.7414 5.20816 9.76702 4.23348C9.57176 4.03822 9.57176 3.72171 9.76702 3.52645Z" fill="currentColor"/>
</svg>
