<svg width="16" height="16" viewBox="0 0 16 16" fill="none" xmlns="http://www.w3.org/2000/svg">
<path fill-rule="evenodd" clip-rule="evenodd" d="M2.04571 5.76902C5.59594 2.56759 10.4047 2.56752 13.9549 5.76902C14.3878 6.16093 14.3755 6.83272 13.9842 7.2241L8.70391 12.5034C8.30872 12.8986 7.68219 12.8985 7.28692 12.5034C7.26744 12.4839 7.24989 12.4628 7.23418 12.4409L5.40899 10.6157C5.40818 10.6149 5.40686 10.6145 5.40606 10.6137C5.40492 10.6126 5.40425 10.611 5.40313 10.6098L2.01641 7.2241C1.62497 6.83266 1.61255 6.16093 2.04571 5.76902ZM9.50274 10.2886C8.56719 9.60972 7.43027 9.60913 6.49492 10.2886L7.99981 11.7925L9.50274 10.2886ZM7.99492 7.02781C6.81424 7.02792 5.61747 7.46445 4.57012 8.36375L5.78106 9.57371C7.12796 8.5127 8.87158 8.51292 10.2186 9.57371L11.4236 8.36863C10.3751 7.46664 9.17735 7.02791 7.99492 7.02781ZM13.2791 6.50535C10.1125 3.65495 5.88826 3.65433 2.72149 6.50437V6.50633C2.72152 6.50959 2.72259 6.51297 2.72344 6.51511V6.51707L3.86211 7.65574C5.08921 6.58023 6.53365 6.02793 7.99492 6.02781C9.45825 6.02791 10.9043 6.58214 12.1326 7.66062L13.2772 6.51707C13.2768 6.51742 13.2765 6.51669 13.2772 6.51511C13.278 6.51297 13.2791 6.50862 13.2791 6.50535Z" fill="currentColor"/>
</svg>
