<svg width="16" height="16" viewBox="0 0 16 16" fill="none" xmlns="http://www.w3.org/2000/svg">
<path fill-rule="evenodd" clip-rule="evenodd" d="M3.96799 3.02543C4.47307 2.71461 5.15533 2.89848 5.40451 3.46488H5.40647L6.34104 5.54496L6.37814 5.6309C6.53937 6.06848 6.3767 6.56585 5.97385 6.81547C5.84942 6.89582 5.70957 6.99591 5.58225 7.11527C5.49193 7.20111 5.41262 7.41353 5.63205 7.91508C5.83581 8.38055 6.22735 8.90605 6.65549 9.33891C7.08087 9.76889 7.60503 10.1592 8.07053 10.3614C8.57296 10.5794 8.78957 10.4992 8.87619 10.4073C8.99727 10.2779 9.09905 10.1356 9.1799 10.0098C9.43949 9.59853 9.93377 9.47111 10.3479 9.61039L10.4299 9.64164L10.4358 9.64457L12.5256 10.584L12.5246 10.585C13.1029 10.8385 13.2606 11.5182 12.9563 12.0127L12.9553 12.0118C12.7502 12.3463 12.5273 12.6387 12.2942 12.8721C11.359 13.8132 9.98498 14.0487 8.59982 13.7715C7.2105 13.4934 5.74676 12.6937 4.51682 11.4639C3.28666 10.2337 2.48904 8.77005 2.21213 7.3809C1.93623 5.99597 2.17172 4.62159 3.10666 3.68656C3.3401 3.45316 3.63316 3.23076 3.96799 3.02543ZM4.4924 3.87602L4.49143 3.87699C4.20706 4.0513 3.97987 4.22745 3.81369 4.39359C3.1888 5.01857 2.95853 6.01064 3.1926 7.18559C3.42595 8.35604 4.11443 9.64746 5.22385 10.7569C6.33375 11.8666 7.62571 12.5567 8.79611 12.7911C9.97036 13.026 10.9605 12.7965 11.5852 12.168L11.5871 12.167C11.753 12.0011 11.9287 11.774 12.1028 11.4903L10.0295 10.5577C10.024 10.5555 10.019 10.5557 10.0158 10.5557C9.94219 10.6699 9.84846 10.8087 9.73166 10.9493L9.60471 11.0928C9.05138 11.6806 8.25162 11.5309 7.67209 11.2793C7.05543 11.0116 6.42897 10.5317 5.94455 10.042C5.46302 9.55519 4.98485 8.92967 4.71604 8.31547C4.46373 7.73865 4.30871 6.94134 4.89768 6.38676L4.89865 6.38578C5.08738 6.20887 5.28249 6.07044 5.43576 5.97172L5.43381 5.96586L4.49436 3.87504L4.4924 3.87602Z" fill="black"/>
<path d="M9.6467 2.64652C9.84197 2.45135 10.1585 2.45129 10.3537 2.64652C10.5488 2.84177 10.5489 3.15833 10.3537 3.35356L10.2072 3.50004H11.5002C12.6063 3.50016 13.5002 4.39397 13.5002 5.50004C13.5002 6.60609 12.6062 7.49992 11.5002 7.50004H9.00022C8.72409 7.50004 8.50024 7.27617 8.50022 7.00004C8.50022 6.7239 8.72407 6.50004 9.00022 6.50004H11.5002C12.054 6.49992 12.5002 6.05381 12.5002 5.50004C12.5002 4.94625 12.054 4.50016 11.5002 4.50004H10.2072L10.3537 4.64652C10.5488 4.84177 10.5489 5.15833 10.3537 5.35356C10.1585 5.54877 9.84197 5.54868 9.6467 5.35356L8.6467 4.35356C8.45144 4.15829 8.45144 3.84179 8.6467 3.64652L9.6467 2.64652Z" fill="black"/>
</svg>
