<svg width="16" height="16" viewBox="0 0 16 16" fill="none" xmlns="http://www.w3.org/2000/svg">
<path fill-rule="evenodd" clip-rule="evenodd" d="M8 6.5C8.82843 6.5 9.5 7.17157 9.5 8C9.5 8.33813 9.38602 8.64855 9.19727 8.89941C9.68416 9.2639 10 9.84376 10 10.5V11C10 11.2761 9.77614 11.5 9.5 11.5H6.5C6.22386 11.5 6 11.2761 6 11V10.5C6 9.84405 6.31522 9.26393 6.80176 8.89941C6.61321 8.64863 6.5 8.33792 6.5 8C6.5 7.17157 7.17157 6.5 8 6.5ZM8 9.5C7.44614 9.5 7 9.94614 7 10.5H9C9 9.94614 8.55386 9.5 8 9.5ZM8 7.5C7.72386 7.5 7.5 7.72386 7.5 8C7.5 8.27614 7.72386 8.5 8 8.5C8.27614 8.5 8.5 8.27614 8.5 8C8.5 7.72386 8.27614 7.5 8 7.5Z" fill="currentColor"/>
<path fill-rule="evenodd" clip-rule="evenodd" d="M11 1.5C11.8261 1.5 12.5 2.17386 12.5 3V3.58691C13.0814 3.7937 13.5 4.34915 13.5 5V13C13.5 13.8229 12.8394 14.5 12 14.5H4C3.17386 14.5 2.5 13.8261 2.5 13V3C2.5 2.17386 3.17386 1.5 4 1.5H11ZM3.5 13C3.5 13.2739 3.72614 13.5 4 13.5H12C12.2806 13.5 12.5 13.2771 12.5 13V5C12.5 4.72614 12.2739 4.5 12 4.5H4C3.8246 4.5 3.65668 4.46787 3.5 4.41211V13ZM4 2.5C3.72614 2.5 3.5 2.72614 3.5 3C3.5 3.27386 3.72614 3.5 4 3.5H11.5V3C11.5 2.72614 11.2739 2.5 11 2.5H4Z" fill="currentColor"/>
</svg>
