<svg width="16" height="16" viewBox="0 0 16 16" fill="none" xmlns="http://www.w3.org/2000/svg">
<path fill-rule="evenodd" clip-rule="evenodd" d="M7.5 9.5C9.15614 9.5 10.5 10.8439 10.5 12.5C10.5 13.0561 10.0561 13.5 9.5 13.5H2.5C1.94386 13.5 1.5 13.0561 1.5 12.5C1.5 10.8439 2.84386 9.5 4.5 9.5H7.5ZM4.5 10.5C3.39614 10.5 2.5 11.3961 2.5 12.5H9.5C9.5 11.3961 8.60386 10.5 7.5 10.5H4.5Z" fill="black"/>
<path fill-rule="evenodd" clip-rule="evenodd" d="M6 3C7.65685 3 9 4.34315 9 6C9 7.65685 7.65685 9 6 9C4.34315 9 3 7.65685 3 6C3 4.34315 4.34315 3 6 3ZM6 4C4.89543 4 4 4.89543 4 6C4 7.10457 4.89543 8 6 8C7.10457 8 8 7.10457 8 6C8 4.89543 7.10457 4 6 4Z" fill="black"/>
<path fill-rule="evenodd" clip-rule="evenodd" d="M12 2.5C13.3807 2.5 14.5 3.61929 14.5 5C14.5 6.38071 13.3807 7.5 12 7.5C10.6193 7.5 9.5 6.38071 9.5 5C9.5 3.61929 10.6193 2.5 12 2.5ZM11.3545 6.35156C11.5503 6.44524 11.7685 6.5 12 6.5C12.8284 6.5 13.5 5.82843 13.5 5C13.5 4.76847 13.4452 4.55028 13.3516 4.35449L11.3545 6.35156ZM12 3.5C11.1716 3.5 10.5 4.17157 10.5 5C10.5 5.23107 10.5541 5.44904 10.6475 5.64453L12.6445 3.64746C12.449 3.55413 12.2311 3.5 12 3.5Z" fill="black"/>
</svg>
