<svg width="16" height="16" viewBox="0 0 16 16" fill="none" xmlns="http://www.w3.org/2000/svg">
<path fill-rule="evenodd" clip-rule="evenodd" d="M7.5 9.5C9.15614 9.5 10.5 10.8439 10.5 12.5C10.5 13.0561 10.0561 13.5 9.5 13.5H2.5C1.94386 13.5 1.5 13.0561 1.5 12.5C1.5 10.8439 2.84386 9.5 4.5 9.5H7.5ZM4.5 10.5C3.39614 10.5 2.5 11.3961 2.5 12.5H9.5C9.5 11.3961 8.60386 10.5 7.5 10.5H4.5Z" fill="black"/>
<path fill-rule="evenodd" clip-rule="evenodd" d="M6 3C7.65685 3 9 4.34315 9 6C9 7.65685 7.65685 9 6 9C4.34315 9 3 7.65685 3 6C3 4.34315 4.34315 3 6 3ZM6 4C4.89543 4 4 4.89543 4 6C4 7.10457 4.89543 8 6 8C7.10457 8 8 7.10457 8 6C8 4.89543 7.10457 4 6 4Z" fill="black"/>
<path d="M12 7.25C12.2761 7.25 12.5 7.47386 12.5 7.75C12.5 8.02614 12.2761 8.25 12 8.25C11.7239 8.25 11.5 8.02614 11.5 7.75C11.5 7.47386 11.7239 7.25 12 7.25Z" fill="black"/>
<path d="M12 2.50977C12.9359 2.50999 13.6893 3.26431 13.6895 4.2002C13.6893 4.79104 13.326 5.27482 12.874 5.54004L12.665 5.64453L12.5 5.70898V5.96973C12.5 6.24573 12.2759 6.4695 12 6.46973C11.7241 6.4695 11.5 6.24573 11.5 5.96973V5.67969C11.5001 5.3023 11.7276 4.94696 12.0889 4.79785L12.2842 4.71973C12.5447 4.60897 12.6892 4.38446 12.6895 4.2002C12.6893 3.81659 12.3836 3.50999 12 3.50977C11.6164 3.50999 11.3097 3.81659 11.3096 4.2002C11.3093 4.47614 11.0856 4.7002 10.8096 4.7002C10.5338 4.69996 10.3098 4.476 10.3096 4.2002C10.3097 3.26431 11.0641 2.51 12 2.50977Z" fill="black"/>
</svg>
