<svg width="16" height="16" viewBox="0 0 16 16" fill="none" xmlns="http://www.w3.org/2000/svg">
<path fill-rule="evenodd" clip-rule="evenodd" d="M7.5 9.5C9.15614 9.5 10.5 10.8439 10.5 12.5C10.5 13.0561 10.0561 13.5 9.5 13.5H2.5C1.94386 13.5 1.5 13.0561 1.5 12.5C1.5 10.8439 2.84386 9.5 4.5 9.5H7.5ZM4.5 10.5C3.39614 10.5 2.5 11.3961 2.5 12.5H9.5C9.5 11.3961 8.60386 10.5 7.5 10.5H4.5Z" fill="black"/>
<path fill-rule="evenodd" clip-rule="evenodd" d="M6 3C7.65685 3 9 4.34315 9 6C9 7.65685 7.65685 9 6 9C4.34315 9 3 7.65685 3 6C3 4.34315 4.34315 3 6 3ZM6 4C4.89543 4 4 4.89543 4 6C4 7.10457 4.89543 8 6 8C7.10457 8 8 7.10457 8 6C8 4.89543 7.10457 4 6 4Z" fill="black"/>
<path fill-rule="evenodd" clip-rule="evenodd" d="M9.88574 3.46582C10.4698 2.88174 11.4135 2.88215 11.999 3.46387C12.03 3.43338 12.0655 3.40892 12.1025 3.3877C12.6911 2.88317 13.5763 2.90852 14.1338 3.46582C14.7189 4.05094 14.7186 4.99771 14.1338 5.58301L12.3633 7.35352C12.2695 7.44721 12.1423 7.5 12.0098 7.5C11.8773 7.49994 11.75 7.44717 11.6562 7.35352L9.88574 5.58301C9.30112 4.99771 9.30074 4.05088 9.88574 3.46582ZM13.4258 4.17383C13.231 3.97928 12.9183 3.97915 12.7236 4.17383C12.6967 4.20074 12.6656 4.22232 12.6338 4.24219L12.3535 4.52344C12.1583 4.71859 11.8417 4.71852 11.6465 4.52344L11.2959 4.17383C11.1011 3.97928 10.7884 3.97915 10.5938 4.17383C10.3991 4.36851 10.3992 4.68124 10.5938 4.87598L12.0098 6.29199L13.4258 4.87598C13.6205 4.68124 13.6205 4.36857 13.4258 4.17383Z" fill="black"/>
</svg>
