<svg width="16" height="16" viewBox="0 0 16 16" fill="none" xmlns="http://www.w3.org/2000/svg">
<path fill-rule="evenodd" clip-rule="evenodd" d="M7.5 9.50002C9.15614 9.50002 10.5 10.8439 10.5 12.5C10.5 13.0561 10.0561 13.5 9.5 13.5H2.5C1.94387 13.5 1.50002 13.0561 1.5 12.5C1.5 10.8439 2.84386 9.50002 4.5 9.50002H7.5ZM4.5 10.5C3.39614 10.5 2.5 11.3962 2.5 12.5H9.5C9.5 11.3962 8.60386 10.5 7.5 10.5H4.5Z" fill="currentColor"/>
<path fill-rule="evenodd" clip-rule="evenodd" d="M6 3.00002C7.65685 3.00002 9 4.34317 9 6.00002C8.99998 7.65686 7.65684 9.00002 6 9.00002C4.34316 9.00002 3.00002 7.65686 3 6.00002C3 4.34317 4.34315 3.00002 6 3.00002ZM6 4.00002C4.89543 4.00002 4 4.89545 4 6.00002C4.00002 7.10458 4.89544 8.00002 6 8.00002C7.10456 8.00002 7.99998 7.10458 8 6.00002C8 4.89545 7.10457 4.00002 6 4.00002Z" fill="currentColor"/>
<path d="M13.3965 2.89651C13.5917 2.70125 13.9083 2.70125 14.1035 2.89651C14.2988 3.09177 14.2988 3.40828 14.1035 3.60354L12.707 5.00002L14.1035 6.39651C14.2988 6.59177 14.2988 6.90828 14.1035 7.10354C13.9083 7.29877 13.5917 7.29877 13.3965 7.10354L12 5.70705L10.6035 7.10354C10.4083 7.29877 10.0917 7.29877 9.89648 7.10354C9.70123 6.90828 9.70125 6.59177 9.89648 6.39651L11.293 5.00002L9.89648 3.60354C9.70123 3.40828 9.70125 3.09177 9.89648 2.89651C10.0917 2.70125 10.4083 2.70125 10.6035 2.89651L12 4.29299L13.3965 2.89651Z" fill="currentColor"/>
</svg>
