<svg width="16" height="16" viewBox="0 0 16 16" fill="none" xmlns="http://www.w3.org/2000/svg">
<path fill-rule="evenodd" clip-rule="evenodd" d="M7.5 9.50028C9.15614 9.50028 10.5 10.8441 10.5 12.5003C10.4999 13.0563 10.0561 13.5003 9.5 13.5003H2.5C1.94395 13.5003 1.50014 13.0563 1.5 12.5003C1.5 10.8441 2.84386 9.50028 4.5 9.50028H7.5ZM4.5 10.5003C3.39614 10.5003 2.5 11.3964 2.5 12.5003H9.5C9.5 11.3964 8.60386 10.5003 7.5 10.5003H4.5Z" fill="black"/>
<path fill-rule="evenodd" clip-rule="evenodd" d="M6 3.00028C7.65685 3.00028 9 4.34343 9 6.00028C8.99985 7.65701 7.65676 9.00028 6 9.00028C4.34324 9.00028 3.00015 7.65701 3 6.00028C3 4.34343 4.34315 3.00028 6 3.00028ZM6 4.00028C4.89543 4.00028 4 4.89571 4 6.00028C4.00015 7.10473 4.89552 8.00028 6 8.00028C7.10448 8.00028 7.99985 7.10473 8 6.00028C8 4.89571 7.10457 4.00028 6 4.00028Z" fill="black"/>
<path d="M12.7305 4.50028C13.0064 4.50054 13.2305 4.7243 13.2305 5.00028C13.2303 5.27614 13.0063 5.50003 12.7305 5.50028C12.4544 5.50028 12.2306 5.2763 12.2305 5.00028C12.2305 4.72414 12.4543 4.50028 12.7305 4.50028Z" fill="black"/>
<path fill-rule="evenodd" clip-rule="evenodd" d="M12.4795 2.56766C12.6343 2.47818 12.8257 2.47818 12.9805 2.56766L14.71 3.56766C14.8645 3.65703 14.96 3.82178 14.96 4.00028V6.00028C14.9599 6.17872 14.8645 6.34359 14.71 6.4329L12.9805 7.4329C12.8257 7.5223 12.6342 7.5223 12.4795 7.4329L10.75 6.4329C10.5955 6.34359 10.5001 6.17872 10.5 6.00028V4.00028C10.5 3.82178 10.5955 3.65703 10.75 3.56766L12.4795 2.56766ZM11.5 4.28837V5.71122L12.7295 6.42216L13.96 5.71122V4.28837L12.7295 3.57743L11.5 4.28837Z" fill="black"/>
</svg>
