<svg width="16" height="16" viewBox="0 0 16 16" fill="none" xmlns="http://www.w3.org/2000/svg">
<path fill-rule="evenodd" clip-rule="evenodd" d="M7.5 9.50008C9.15614 9.50008 10.5 10.8439 10.5 12.5001C10.5 13.0562 10.0561 13.5001 9.5 13.5001H2.5C1.94388 13.5001 1.50004 13.0562 1.5 12.5001C1.5 10.8439 2.84386 9.50008 4.5 9.50008H7.5ZM4.5 10.5001C3.39614 10.5001 2.5 11.3962 2.5 12.5001H9.5C9.5 11.3962 8.60386 10.5001 7.5 10.5001H4.5Z" fill="black"/>
<path fill-rule="evenodd" clip-rule="evenodd" d="M6 3.00008C7.65685 3.00008 9 4.34322 9 6.00008C8.99996 7.6569 7.65683 9.00008 6 9.00008C4.34317 9.00008 3.00004 7.6569 3 6.00008C3 4.34322 4.34315 3.00008 6 3.00008ZM6 4.00008C4.89543 4.00008 4 4.89551 4 6.00008C4.00004 7.10461 4.89546 8.00008 6 8.00008C7.10454 8.00008 7.99996 7.10461 8 6.00008C8 4.89551 7.10457 4.00008 6 4.00008Z" fill="black"/>
<path fill-rule="evenodd" clip-rule="evenodd" d="M12.2363 2.64656C12.4316 2.45132 12.7481 2.45138 12.9434 2.64656L14.3535 4.05672C14.4472 4.15047 14.5 4.27768 14.5 4.41023C14.4999 4.54275 14.4472 4.67004 14.3535 4.76375L11.7637 7.35359C11.6699 7.4473 11.5427 7.50004 11.4102 7.50008H10C9.72389 7.50008 9.50005 7.27618 9.5 7.00008V5.58992C9.50004 5.45739 9.55278 5.33013 9.64648 5.2364L12.2363 2.64656ZM10.5 5.79695V6.50008H11.2031L13.293 4.41023L12.5898 3.70711L10.5 5.79695Z" fill="black"/>
</svg>
