<svg width="16" height="16" viewBox="0 0 16 16" fill="none" xmlns="http://www.w3.org/2000/svg">
<path fill-rule="evenodd" clip-rule="evenodd" d="M13 3.5C13.8284 3.5 14.5 4.17157 14.5 5V11C14.5 11.8284 13.8284 12.5 13 12.5H3C2.17157 12.5 1.5 11.8284 1.5 11V5C1.5 4.17157 2.17157 3.5 3 3.5H13ZM8.95996 8.85352C8.4045 9.31792 7.59539 9.31812 7.04004 8.85352L2.5 5.06934V11C2.5 11.2761 2.72386 11.5 3 11.5H13C13.2761 11.5 13.5 11.2761 13.5 11V5.06934L8.95996 8.85352ZM7.68066 8.08496L7.68164 8.08594C7.86586 8.24028 8.13512 8.24028 8.31934 8.08594L8.32031 8.08496L12.623 4.5H3.37793L7.68066 8.08496Z" fill="currentColor"/>
</svg>
