<svg width="16" height="16" viewBox="0 0 16 16" fill="none" xmlns="http://www.w3.org/2000/svg">
<path fill-rule="evenodd" clip-rule="evenodd" d="M13 3.5C13.8284 3.5 14.5 4.17157 14.5 5V11C14.5 11.8284 13.8284 12.5 13 12.5H3C2.17157 12.5 1.5 11.8284 1.5 11V5C1.5 4.17157 2.17157 3.5 3 3.5H13ZM3.37793 11.5H12.623L9.20117 8.65137L8.95996 8.85352C8.4045 9.31792 7.59539 9.31812 7.04004 8.85352L6.79785 8.65137L3.37793 11.5ZM9.98242 8.00098L13.5 10.9287V5.06934L9.98242 8.00098ZM2.5 10.9287L6.01758 8.00098L2.5 5.06934V10.9287ZM7.10059 7.60156C7.10942 7.60823 7.11753 7.61573 7.12598 7.62305L7.68066 8.08496L7.68164 8.08594C7.86586 8.24028 8.13512 8.24028 8.31934 8.08594L8.32031 8.08496L8.86816 7.62695C8.87984 7.61654 8.89187 7.6068 8.9043 7.59766L12.623 4.5H3.37793L7.10059 7.60156Z" fill="black"/>
</svg>
