<svg width="16" height="16" viewBox="0 0 16 16" fill="none" xmlns="http://www.w3.org/2000/svg">
<path d="M5.89648 4.14648C6.09175 3.95122 6.40825 3.95122 6.60352 4.14648C6.79877 4.34175 6.79878 4.65826 6.60352 4.85352L5.95703 5.5H9.5C10.6061 5.5 11.5 6.39386 11.5 7.5C11.5 8.60614 10.6061 9.5 9.5 9.5H8C7.72386 9.5 7.5 9.27614 7.5 9C7.5 8.72386 7.72386 8.5 8 8.5H9.5C10.0539 8.5 10.5 8.05386 10.5 7.5C10.5 6.94614 10.0539 6.5 9.5 6.5H5.95703L6.60352 7.14648C6.79877 7.34175 6.79878 7.65826 6.60352 7.85352C6.40826 8.04878 6.09175 8.04877 5.89648 7.85352L4.39648 6.35352C4.20122 6.15825 4.20122 5.84175 4.39648 5.64648L5.89648 4.14648Z" fill="black"/>
<path fill-rule="evenodd" clip-rule="evenodd" d="M12 1.75C13.3761 1.75 14.5 2.87386 14.5 4.25V9.75C14.5 11.1261 13.3761 12.25 12 12.25H11.5V14C11.5 14.1922 11.39 14.3679 11.2168 14.4512C11.0436 14.5344 10.8375 14.5107 10.6875 14.3906L8.01465 12.25H4C2.62386 12.25 1.5 11.1261 1.5 9.75V4.25C1.5 2.87386 2.62386 1.75 4 1.75H12ZM4 2.75C3.17614 2.75 2.5 3.42614 2.5 4.25V9.75C2.5 10.5739 3.17614 11.25 4 11.25H8.19043L8.27441 11.2568C8.35747 11.2711 8.43644 11.3061 8.50293 11.3594L10.5 12.958V11.75C10.5 11.4739 10.7239 11.25 11 11.25H12C12.8239 11.25 13.5 10.5739 13.5 9.75V4.25C13.5 3.42614 12.8239 2.75 12 2.75H4Z" fill="black"/>
</svg>
