<svg width="16" height="16" viewBox="0 0 16 16" fill="none" xmlns="http://www.w3.org/2000/svg">
<path d="M9.73944 1.48392C9.96394 1.32354 10.2761 1.37488 10.4367 1.59916C11.7239 3.39931 12.5002 5.61076 12.5002 8.00053C12.5001 10.3888 11.7349 12.6008 10.4357 14.4029C10.2744 14.6263 9.9623 14.6769 9.73846 14.5162C9.51446 14.3547 9.4637 14.0419 9.62518 13.8179C10.8057 12.1803 11.5001 10.1718 11.5002 8.00053C11.5002 5.83066 10.7966 3.82089 9.62421 2.18119C9.46366 1.95668 9.5151 1.64462 9.73944 1.48392Z" fill="currentColor"/>
<path d="M7.62128 2.83842C7.84271 2.67369 8.15658 2.71966 8.32147 2.94096C9.37286 4.35343 10.0001 6.10766 10.0002 7.99955C10.0002 9.89143 9.37276 11.6456 8.32147 13.0581C8.15659 13.2797 7.84279 13.3256 7.62128 13.1607C7.40019 12.9958 7.3542 12.6828 7.51874 12.4615C8.44718 11.2141 9.00018 9.6674 9.00018 7.99955C9.00008 6.33183 8.44715 4.78588 7.51874 3.53861C7.35401 3.31712 7.39986 3.00327 7.62128 2.83842Z" fill="currentColor"/>
<path d="M5.48846 4.189C5.70422 4.01708 6.0184 4.05259 6.19061 4.2681C7.00804 5.29265 7.50007 6.59158 7.50018 7.99955C7.50018 9.40757 7.00798 10.7064 6.19061 11.731C6.01839 11.9468 5.70432 11.9823 5.48846 11.8101C5.27283 11.6378 5.2372 11.3237 5.40936 11.1079C6.0917 10.2527 6.50018 9.17125 6.50018 7.99955C6.50007 6.82794 6.09171 5.74635 5.40936 4.89115C5.23748 4.67531 5.27274 4.36113 5.48846 4.189Z" fill="currentColor"/>
<path d="M3.32636 5.5767C3.527 5.38726 3.84376 5.39582 4.03339 5.59623C4.624 6.22161 5.00007 7.06234 5.00018 7.99955C5.00018 8.93687 4.62403 9.7774 4.03339 10.4029C3.8438 10.6036 3.52712 10.6129 3.32636 10.4234C3.12587 10.2337 3.11731 9.91701 3.30682 9.71635C3.7359 9.26187 4.00018 8.66198 4.00018 7.99955C4.00007 7.33732 3.73578 6.7381 3.30682 6.28373C3.11733 6.08308 3.12593 5.76634 3.32636 5.5767Z" fill="currentColor"/>
</svg>
