<svg width="16" height="16" viewBox="0 0 16 16" fill="none" xmlns="http://www.w3.org/2000/svg">
<path fill-rule="evenodd" clip-rule="evenodd" d="M8.00043 4.50008C8.82867 4.50031 9.50043 5.1718 9.50043 6.00008C9.5004 6.65272 9.0824 7.20596 8.50043 7.41219V14.0001C8.50039 14.276 8.27635 14.4999 8.00043 14.5001C7.72432 14.5001 7.50048 14.2762 7.50043 14.0001V7.41219C6.91807 7.20617 6.50047 6.65301 6.50043 6.00008C6.50043 5.17165 7.17201 4.50008 8.00043 4.50008ZM8.00043 5.50008C7.72429 5.50008 7.50043 5.72394 7.50043 6.00008C7.50048 6.27619 7.72432 6.50008 8.00043 6.50008C8.27635 6.49985 8.50039 6.27604 8.50043 6.00008C8.50043 5.72408 8.27638 5.50031 8.00043 5.50008Z" fill="black"/>
<path d="M4.10688 2.11629C4.3021 1.92137 4.61872 1.92132 4.81391 2.11629C5.00889 2.31148 5.00884 2.6281 4.81391 2.82332C3.05924 4.578 3.05937 7.43185 4.81391 9.1866C5.00878 9.38186 5.00894 9.69848 4.81391 9.89364C4.61877 10.0888 4.30217 10.0885 4.10688 9.89364C1.96181 7.74836 1.96168 4.26149 4.10688 2.11629Z" fill="black"/>
<path d="M11.187 2.10653C11.3822 1.9115 11.6988 1.91134 11.894 2.10653C14.0389 4.25173 14.0389 7.73867 11.894 9.88387C11.6988 10.0788 11.3822 10.0787 11.187 9.88387C10.9917 9.68866 10.9919 9.37211 11.187 9.17684C12.9414 7.42216 12.9414 4.56824 11.187 2.81356C10.9917 2.6183 10.9917 2.30179 11.187 2.10653Z" fill="black"/>
<path d="M5.5268 3.52645C5.72206 3.33142 6.03864 3.33131 6.23383 3.52645C6.42881 3.72166 6.42881 4.03827 6.23383 4.23348C5.25914 5.2082 5.25916 6.79195 6.23383 7.76668C6.42873 7.96194 6.42889 8.27855 6.23383 8.47371C6.03868 8.66884 5.72208 8.66864 5.5268 8.47371C4.1616 7.10846 4.16159 4.8917 5.5268 3.52645Z" fill="black"/>
<path d="M9.76704 3.52645C9.96232 3.33142 10.2789 3.33126 10.4741 3.52645C11.839 4.89165 11.839 7.10851 10.4741 8.47371C10.2789 8.66875 9.96229 8.66859 9.76704 8.47371C9.57181 8.27849 9.57189 7.96195 9.76704 7.76668C10.7415 6.792 10.7415 5.20816 9.76704 4.23348C9.57177 4.03822 9.57177 3.72171 9.76704 3.52645Z" fill="black"/>
</svg>
