<svg width="16" height="16" viewBox="0 0 16 16" fill="none" xmlns="http://www.w3.org/2000/svg">
<path fill-rule="evenodd" clip-rule="evenodd" d="M5 7.5C5.27614 7.5 5.5 7.72386 5.5 8V12C5.5 12.2761 5.27614 12.5 5 12.5H3C2.72386 12.5 2.5 12.2761 2.5 12V8C2.5 7.72386 2.72386 7.5 3 7.5H5ZM3.5 11.5H4.5V8.5H3.5V11.5Z" fill="black"/>
<path fill-rule="evenodd" clip-rule="evenodd" d="M9 5.5C9.27614 5.5 9.5 5.72386 9.5 6V12C9.5 12.2761 9.27614 12.5 9 12.5H7C6.72386 12.5 6.5 12.2761 6.5 12V6C6.5 5.72386 6.72386 5.5 7 5.5H9ZM7.5 11.5H8.5V6.5H7.5V11.5Z" fill="black"/>
<path fill-rule="evenodd" clip-rule="evenodd" d="M13 3.5C13.2761 3.5 13.5 3.72386 13.5 4V12C13.5 12.2761 13.2761 12.5 13 12.5H11C10.7239 12.5 10.5 12.2761 10.5 12V4C10.5 3.72386 10.7239 3.5 11 3.5H13ZM11.5 11.5H12.5V4.5H11.5V11.5Z" fill="black"/>
</svg>
