<svg width="16" height="16" viewBox="0 0 16 16" fill="none" xmlns="http://www.w3.org/2000/svg">
<path fill-rule="evenodd" clip-rule="evenodd" d="M6.99991 3.5C7.18929 3.5 7.36247 3.60699 7.44718 3.77637C7.53181 3.94564 7.51372 4.14833 7.4003 4.2998L4.49991 8.16699V13C4.49991 13.2761 4.27605 13.5 3.99991 13.5C3.72381 13.4999 3.49991 13.2761 3.49991 13V8.16699L0.599519 4.2998C0.486123 4.14834 0.468027 3.94563 0.552644 3.77637C0.63733 3.607 0.810549 3.50003 0.999909 3.5H6.99991ZM3.99991 7.16602L5.99991 4.5H1.99991L3.99991 7.16602Z" fill="currentColor"/>
<path d="M6.99991 9.5C7.27605 9.5 7.49991 9.72386 7.49991 10V13C7.49991 13.2761 7.27605 13.5 6.99991 13.5C6.72381 13.4999 6.49991 13.2761 6.49991 13V10C6.49991 9.72389 6.72381 9.50005 6.99991 9.5Z" fill="currentColor"/>
<path d="M9.99991 7.5C10.2761 7.5 10.4999 7.72386 10.4999 8V13C10.4999 13.2761 10.2761 13.5 9.99991 13.5C9.72381 13.4999 9.49991 13.2761 9.49991 13V8C9.49991 7.72389 9.72381 7.50005 9.99991 7.5Z" fill="currentColor"/>
<path d="M12.9999 5.5C13.2761 5.5 13.4999 5.72386 13.4999 6V13C13.4999 13.2761 13.2761 13.5 12.9999 13.5C12.7238 13.4999 12.4999 13.2761 12.4999 13V6C12.4999 5.72389 12.7238 5.50005 12.9999 5.5Z" fill="currentColor"/>
</svg>
