<svg width="16" height="16" viewBox="0 0 16 16" fill="none" xmlns="http://www.w3.org/2000/svg">
<path fill-rule="evenodd" clip-rule="evenodd" d="M10 9.5C11.3761 9.5 12.5 10.6239 12.5 12V13C12.5 13.2761 12.2761 13.5 12 13.5H4C3.72386 13.5 3.5 13.2761 3.5 13V12C3.5 10.6239 4.62386 9.5 6 9.5H10ZM6 10.5C5.17614 10.5 4.5 11.1761 4.5 12V12.5H11.5V12C11.5 11.1761 10.8239 10.5 10 10.5H6Z" fill="currentColor"/>
<path fill-rule="evenodd" clip-rule="evenodd" d="M8 2.5C9.65685 2.5 11 3.84315 11 5.5C11 7.15685 9.65685 8.5 8 8.5C6.34315 8.5 5 7.15685 5 5.5C5 3.84315 6.34315 2.5 8 2.5ZM8 3.5C6.89543 3.5 6 4.39543 6 5.5C6 6.60457 6.89543 7.5 8 7.5C9.10457 7.5 10 6.60457 10 5.5C10 4.39543 9.10457 3.5 8 3.5Z" fill="currentColor"/>
</svg>
