<svg width="16" height="16" viewBox="0 0 16 16" fill="none" xmlns="http://www.w3.org/2000/svg">
<path fill-rule="evenodd" clip-rule="evenodd" d="M12 5C13.6569 5 15 6.34315 15 8C15 9.65685 13.6569 11 12 11H4C2.34315 11 1 9.65685 1 8C1 6.34315 2.34315 5 4 5C5.65685 5 7 6.34315 7 8C7 8.76947 6.70772 9.46897 6.23145 10H9.76855C9.29228 9.46897 9 8.76947 9 8C9 6.34315 10.3431 5 12 5ZM4 6C2.89543 6 2 6.89543 2 8C2 9.10457 2.89543 10 4 10C5.10457 10 6 9.10457 6 8C6 6.89543 5.10457 6 4 6ZM12 6C10.8954 6 10 6.89543 10 8C10 9.10457 10.8954 10 12 10C13.1046 10 14 9.10457 14 8C14 6.89543 13.1046 6 12 6Z" fill="black"/>
</svg>
