<svg width="16" height="16" viewBox="0 0 16 16" fill="none" xmlns="http://www.w3.org/2000/svg">
<path d="M6.43457 2.50391C7.00097 2.54709 7.50146 2.90874 7.71387 3.44434L9.46387 7.81445C9.52547 7.96846 9.50703 8.14289 9.41406 8.28027C9.32105 8.41768 9.16593 8.5 9 8.5H7.5V11C7.5 11.8261 6.82614 12.5 6 12.5H4.5V13C4.5 13.2761 4.27614 13.5 4 13.5C3.72386 13.5 3.5 13.2761 3.5 13V12C3.5 11.7239 3.72386 11.5 4 11.5H6C6.27386 11.5 6.5 11.2739 6.5 11V8C6.5 7.72386 6.72386 7.5 7 7.5H8.26172L6.78613 3.81543L6.78516 3.81348C6.72049 3.64966 6.5711 3.53265 6.39648 3.50586L6.32031 3.5H4C3.72386 3.5 3.5 3.27614 3.5 3C3.5 2.72386 3.72386 2.5 4 2.5H6.32031L6.43457 2.50391Z" fill="currentColor"/>
<path d="M11.6465 5.23633C11.8417 5.04109 12.1582 5.04115 12.3535 5.23633C13.8795 6.76232 13.8773 9.23824 12.3545 10.7725C12.1599 10.9681 11.8433 10.9688 11.6475 10.7744C11.4519 10.5799 11.4511 10.2632 11.6455 10.0674C12.7824 8.92158 12.7804 7.07727 11.6465 5.94336C11.4513 5.74809 11.4513 5.43156 11.6465 5.23633Z" fill="currentColor"/>
<path d="M10.2363 6.64648C10.4316 6.45125 10.7481 6.45131 10.9434 6.64648C11.6886 7.39175 11.6886 8.60825 10.9434 9.35352C10.7481 9.54866 10.4315 9.54874 10.2363 9.35352C10.0412 9.15829 10.0412 8.84173 10.2363 8.64648C10.5911 8.29175 10.5911 7.70825 10.2363 7.35352C10.0412 7.15829 10.0412 6.84173 10.2363 6.64648Z" fill="currentColor"/>
</svg>
