<svg width="16" height="16" viewBox="0 0 16 16" fill="none" xmlns="http://www.w3.org/2000/svg">
<path fill-rule="evenodd" clip-rule="evenodd" d="M12.4266 2.92672C12.6219 2.73146 12.9384 2.73146 13.1336 2.92672C13.3286 3.122 13.3288 3.43858 13.1336 3.63375L12.243 4.5234C12.8369 4.86359 13.411 5.27804 13.9549 5.76852C14.388 6.16034 14.3754 6.83213 13.9842 7.2236L8.70396 12.5029C8.30871 12.8981 7.68223 12.8981 7.28697 12.5029C7.26743 12.4833 7.24998 12.4624 7.23424 12.4404L5.78013 10.9863L4.13365 12.6338C3.93847 12.8288 3.62185 12.8287 3.42662 12.6338C3.23141 12.4385 3.23152 12.122 3.42662 11.9267L5.07213 10.2793L2.01646 7.2236C1.62503 6.83216 1.61163 6.16042 2.04478 5.76852C4.76762 3.31331 8.23089 2.74274 11.2987 4.05367L12.4266 2.92672ZM9.50279 10.289C8.56746 9.61017 7.43125 9.60914 6.49595 10.288L7.99986 11.792L9.50279 10.289ZM7.98912 8.77731C8.7655 8.77475 9.54201 9.04042 10.2186 9.5732L11.4237 8.36813C10.8209 7.84961 10.1694 7.48328 9.49888 7.26656L7.98912 8.77731ZM7.99498 7.02731C6.81436 7.02742 5.61748 7.46405 4.57017 8.36324L5.78013 9.57223L8.31334 7.03902C8.20714 7.03195 8.10103 7.02732 7.99498 7.02731ZM10.2762 6.4902C10.9296 6.76207 11.5551 7.15299 12.1327 7.66012L13.2772 6.51656C13.2769 6.51692 13.2765 6.5162 13.2772 6.51461C13.278 6.51244 13.2792 6.50899 13.2792 6.50582C12.718 6.0007 12.1225 5.58586 11.5067 5.25973L10.2762 6.4902ZM10.5292 4.8232C7.91179 3.86304 5.03488 4.42201 2.72154 6.50387V6.50582C2.72154 6.50909 2.72264 6.51243 2.72349 6.51461V6.51656L3.86217 7.65524C5.08923 6.57983 6.53377 6.02743 7.99498 6.02731C8.39898 6.02734 8.80178 6.06954 9.19908 6.15328L10.5292 4.8232Z" fill="black"/>
</svg>
