<svg width="16" height="16" viewBox="0 0 16 16" fill="none" xmlns="http://www.w3.org/2000/svg">
<path fill-rule="evenodd" clip-rule="evenodd" d="M11 11.5002C11.2761 11.5002 11.5 11.724 11.5 12.0002V13.5002H13C13.2761 13.5002 13.5 13.724 13.5 14.0002C13.4999 14.2762 13.2761 14.5002 13 14.5002H3C2.72392 14.5002 2.5001 14.2762 2.5 14.0002C2.5 13.724 2.72386 13.5002 3 13.5002H4.5V12.0002C4.5 11.724 4.72386 11.5002 5 11.5002H11ZM5.5 13.5002H10.5V12.5002H5.5V13.5002Z" fill="currentColor"/>
<path fill-rule="evenodd" clip-rule="evenodd" d="M8.65527 2.64958C8.85055 2.45452 9.16711 2.45439 9.3623 2.64958L11.3633 4.65056C11.5583 4.84577 11.5583 5.16238 11.3633 5.35759L9.71289 7.00603L13.3535 10.6467C13.5487 10.8419 13.5487 11.1585 13.3535 11.3537C13.1583 11.5488 12.8417 11.5488 12.6465 11.3537L9.00586 7.71306L7.36035 9.35954C7.1651 9.55475 6.84857 9.55474 6.65332 9.35954L4.65234 7.35857C4.45725 7.1633 4.45717 6.84675 4.65234 6.65154L8.65527 2.64958ZM5.71289 7.00505L7.00684 8.299L8.58398 6.72185C8.60184 6.6952 8.62295 6.6702 8.64648 6.64665C8.67046 6.62268 8.69548 6.60029 8.72266 6.5822L10.3027 5.00407L9.00879 3.71013L5.71289 7.00505Z" fill="currentColor"/>
</svg>
