<svg width="16" height="16" viewBox="0 0 16 16" fill="none" xmlns="http://www.w3.org/2000/svg">
<path d="M12 10C12.2761 10 12.5 10.2239 12.5 10.5C12.5 10.7761 12.2761 11 12 11H10C9.72386 11 9.5 10.7761 9.5 10.5C9.5 10.2239 9.72386 10 10 10H12Z" fill="black"/>
<path fill-rule="evenodd" clip-rule="evenodd" d="M13 3C13.8284 3 14.5 3.67157 14.5 4.5V11.5C14.5 12.3284 13.8284 13 13 13H3C2.17157 13 1.5 12.3284 1.5 11.5V4.5C1.5 3.67157 2.17157 3 3 3H13ZM2.5 11.5C2.5 11.7761 2.72386 12 3 12H13C13.2761 12 13.5 11.7761 13.5 11.5V8H2.5V11.5ZM2.5 7H13.5V6H2.5V7ZM3 4C2.72386 4 2.5 4.22386 2.5 4.5V5H13.5V4.5C13.5 4.22386 13.2761 4 13 4H3Z" fill="black"/>
</svg>
