<svg width="16" height="16" viewBox="0 0 16 16" fill="none" xmlns="http://www.w3.org/2000/svg">
<path d="M9.5 9.00015C9.77614 9.00015 10 9.22401 10 9.50015C9.99993 9.77623 9.7761 10.0002 9.5 10.0002H6.5C6.2239 10.0002 6.00007 9.77623 6 9.50015C6 9.22401 6.22386 9.00015 6.5 9.00015H9.5Z" fill="black"/>
<path fill-rule="evenodd" clip-rule="evenodd" d="M4.7373 6.07437C4.88466 5.98346 5.06875 5.97545 5.22363 6.05289L7.11816 7.00015H10C11.6838 7.00015 13.0849 8.18302 13.4219 9.7648C13.4535 9.71493 13.4779 9.66005 13.4902 9.60074L13.5098 9.39956C13.5563 9.1716 13.7583 9.00015 14 9.00015C14.2761 9.00015 14.5 9.22401 14.5 9.50015C14.4999 10.1508 14.0813 10.7054 13.5 10.9123V11.5002C13.4999 12.7051 12.6382 13.7164 11.5 13.9494V14.5002C11.4999 14.7762 11.2761 15.0002 11 15.0002H5C4.7239 15.0002 4.50006 14.7762 4.5 14.5002V13.9494C3.52346 13.7495 2.7507 12.9767 2.55078 12.0002H2C1.7239 12.0002 1.50006 11.7762 1.5 11.5002V9.50015C1.5 9.22401 1.72386 9.00015 2 9.00015H2.55078C2.75068 8.02352 3.52335 7.24978 4.5 7.04996V6.50015C4.5 6.32688 4.58993 6.16548 4.7373 6.07437ZM5.5 7.50015L5.49023 7.60074C5.44366 7.82865 5.24167 8.00015 5 8.00015C4.17614 8.00015 3.5 8.67629 3.5 9.50015C3.49994 9.77624 3.2761 10.0002 3 10.0002H2.5V11.0002H3L3.10059 11.0099C3.32854 11.0565 3.5 11.2584 3.5 11.5002C3.50006 12.324 4.17618 13.0002 5 13.0002C5.27614 13.0002 5.5 13.224 5.5 13.5002V14.0002H6.5V13.5002C6.5 13.224 6.72386 13.0002 7 13.0002C7.27614 13.0002 7.5 13.224 7.5 13.5002V14.0002H8.5V13.5002C8.5 13.224 8.72386 13.0002 9 13.0002C9.27614 13.0002 9.5 13.224 9.5 13.5002V14.0002H10.5V13.5002C10.5 13.224 10.7239 13.0002 11 13.0002C11.8238 13.0002 12.4999 12.324 12.5 11.5002V10.5002C12.5 9.11629 11.3839 8.00015 10 8.00015H7C6.92239 8.00015 6.84578 7.98211 6.77637 7.94742L5.5 7.30874V7.50015Z" fill="black"/>
<path fill-rule="evenodd" clip-rule="evenodd" d="M9.64355 0.651518C9.83883 0.456428 10.1554 0.456313 10.3506 0.651518L12.3525 2.65249C12.5473 2.8477 12.5474 3.16437 12.3525 3.35953L11.209 4.5021L13.3535 6.64664C13.5487 6.8419 13.5488 7.15842 13.3535 7.35367C13.1583 7.54886 12.8417 7.54885 12.6465 7.35367L10.502 5.20914L9.35352 6.35757C9.15826 6.55267 8.8417 6.55273 8.64648 6.35757L6.64551 4.3566C6.4503 4.16138 6.4504 3.84484 6.64551 3.64956L9.64355 0.651518ZM7.70605 4.00308L9 5.29703L10.1279 4.16812C10.1342 4.1611 10.1397 4.15337 10.1465 4.14664C10.1532 4.13992 10.161 4.13434 10.168 4.12808L11.291 3.00601L9.99707 1.71206L7.70605 4.00308Z" fill="black"/>
</svg>
