<svg width="16" height="16" viewBox="0 0 16 16" fill="none" xmlns="http://www.w3.org/2000/svg">
<path d="M2 7.50977C2.27606 7.50977 2.49987 7.73374 2.5 8.00977C2.5 9.41186 3.04044 10.8236 4.11328 11.8965C5.1862 12.9694 6.59785 13.5098 8 13.5098C9.40215 13.5098 10.8138 12.9694 11.8867 11.8965C12.0297 11.7536 12.2449 11.7108 12.4316 11.7881C12.6182 11.8655 12.7401 12.048 12.7402 12.25V13.6602C12.74 13.936 12.5161 14.16 12.2402 14.1602C11.9642 14.1602 11.7404 13.9361 11.7402 13.6602V13.3193C10.6213 14.1096 9.30804 14.5098 8 14.5098C6.34215 14.5098 4.67333 13.8706 3.40625 12.6035C2.13926 11.3365 1.5 9.66756 1.5 8.00977C1.50013 7.73374 1.72394 7.50977 2 7.50977Z" fill="currentColor"/>
<path d="M8.33984 4.5C9.17681 4.50009 9.8908 4.93945 10.3916 5.56836C10.5635 5.78433 10.5274 6.09947 10.3115 6.27148C10.0956 6.4432 9.78136 6.40714 9.60938 6.19141C9.25029 5.74046 8.80269 5.50008 8.33984 5.5C7.87709 5.50013 7.43032 5.74058 7.07129 6.19141C6.99642 6.28543 6.9289 6.38939 6.86621 6.5H8C8.27614 6.5 8.5 6.72386 8.5 7C8.5 7.27614 8.27614 7.5 8 7.5H6.52832C6.50415 7.66071 6.49023 7.82769 6.49023 8C6.49023 8.17231 6.50415 8.33929 6.52832 8.5H8C8.27614 8.5 8.5 8.72386 8.5 9C8.5 9.27614 8.27614 9.5 8 9.5H6.86621C6.9289 9.61061 6.99642 9.71457 7.07129 9.80859C7.43032 10.2594 7.87709 10.4999 8.33984 10.5C8.80554 10.4999 9.26035 10.257 9.60547 9.81348C9.77503 9.59561 10.0897 9.55608 10.3076 9.72559C10.5251 9.89519 10.5638 10.209 10.3945 10.4268C9.89979 11.0628 9.17382 11.4999 8.33984 11.5C7.50304 11.4999 6.78982 11.0604 6.28906 10.4316C6.07173 10.1587 5.89678 9.84328 5.76465 9.5H5C4.72386 9.5 4.5 9.27614 4.5 9C4.5 8.72386 4.72386 8.5 5 8.5H5.52148C5.50267 8.3361 5.49023 8.16935 5.49023 8C5.49023 7.83065 5.50267 7.6639 5.52148 7.5H5C4.72386 7.5 4.5 7.27614 4.5 7C4.5 6.72386 4.72386 6.5 5 6.5H5.76465C5.89678 6.15672 6.07173 5.84129 6.28906 5.56836C6.78982 4.9396 7.50304 4.50014 8.33984 4.5Z" fill="currentColor"/>
<path d="M8 1.49023C9.65777 1.4903 11.3267 2.12947 12.5938 3.39648C13.8607 4.66355 14.5 6.33243 14.5 7.99023C14.4999 8.26619 14.276 8.49011 14 8.49023C13.7241 8.4901 13.5001 8.26618 13.5 7.99023C13.5 6.58809 12.9587 5.17644 11.8857 4.10352C10.8129 3.0309 9.40191 2.4903 8 2.49023C6.59798 2.4903 5.18613 3.03073 4.11328 4.10352C3.97028 4.24632 3.75509 4.28926 3.56836 4.21191C3.38175 4.13449 3.25986 3.95204 3.25977 3.75V2.33984C3.25997 2.06396 3.48386 1.83998 3.75977 1.83984C4.03578 1.83984 4.25956 2.06388 4.25977 2.33984V2.67871C5.3784 1.88896 6.69246 1.49028 8 1.49023Z" fill="currentColor"/>
</svg>
