<svg width="16" height="16" viewBox="0 0 16 16" fill="none" xmlns="http://www.w3.org/2000/svg">
<path d="M9.64648 5.64648C9.84175 5.45124 10.1583 5.45124 10.3535 5.64648C10.5488 5.84174 10.5488 6.15825 10.3535 6.35352L6.35352 10.3535C6.15825 10.5488 5.84175 10.5488 5.64648 10.3535C5.45123 10.1583 5.45122 9.84174 5.64648 9.64648L9.64648 5.64648Z" fill="black"/>
<path d="M9.75 9C10.1642 9 10.5 9.33579 10.5 9.75C10.5 10.1642 10.1642 10.5 9.75 10.5C9.33579 10.5 9 10.1642 9 9.75C9 9.33579 9.33579 9 9.75 9Z" fill="black"/>
<path d="M6.25 5.5C6.66421 5.5 7 5.83579 7 6.25C7 6.66421 6.66421 7 6.25 7C5.83579 7 5.5 6.66421 5.5 6.25C5.5 5.83579 5.83579 5.5 6.25 5.5Z" fill="black"/>
<path fill-rule="evenodd" clip-rule="evenodd" d="M13 3C13.8261 3 14.5 3.67386 14.5 4.5V5.70996C14.5 6.17717 14.1261 6.45091 13.8018 6.51172C13.795 6.51298 13.788 6.51367 13.7812 6.51465C13.0559 6.61941 12.5 7.24999 12.5 8C12.5 8.74792 13.0641 9.38063 13.7822 9.48535C14.1436 9.53471 14.5 9.8283 14.5 10.29V11.5C14.5 12.3261 13.8261 13 13 13H3C2.17386 13 1.5 12.3261 1.5 11.5V10.29C1.5 9.82283 1.87392 9.54909 2.19824 9.48828L2.21875 9.48535C2.94406 9.38059 3.5 8.75001 3.5 8C3.5 7.25208 2.93589 6.61937 2.21777 6.51465C1.85679 6.46485 1.5 6.17124 1.5 5.70996V4.5C1.5 3.67386 2.17386 3 3 3H13ZM3 4C2.72614 4 2.5 4.22614 2.5 4.5V5.55176C3.63461 5.78419 4.5 6.79638 4.5 8C4.5 9.20171 3.64528 10.2148 2.5 10.4473V11.5C2.5 11.7739 2.72614 12 3 12H13C13.2739 12 13.5 11.7739 13.5 11.5V10.4473C12.3655 10.2148 11.5 9.20355 11.5 8C11.5 6.79822 12.3546 5.78413 13.5 5.55176V4.5C13.5 4.22614 13.2739 4 13 4H3Z" fill="black"/>
</svg>
