<svg width="16" height="16" viewBox="0 0 16 16" fill="none" xmlns="http://www.w3.org/2000/svg">
<path d="M6.42578 5.58691C6.62097 5.39172 6.93753 5.39187 7.13281 5.58691C7.32799 5.78218 7.32805 6.09871 7.13281 6.29395L6.20605 7.21973L7.13281 8.14648C7.32801 8.34175 7.32805 8.65828 7.13281 8.85352C6.93755 9.04842 6.62094 9.0486 6.42578 8.85352L5.49902 7.92676L4.57324 8.85352C4.37798 9.04838 4.06136 9.04857 3.86621 8.85352C3.67128 8.65836 3.67139 8.3417 3.86621 8.14648L4.79199 7.21973L3.86621 6.29395C3.67106 6.0988 3.67128 5.7822 3.86621 5.58691C4.06147 5.39165 4.37798 5.39165 4.57324 5.58691L5.49902 6.5127L6.42578 5.58691Z" fill="currentColor"/>
<path fill-rule="evenodd" clip-rule="evenodd" d="M8.5 3C9.15074 3 9.70524 3.41872 9.91211 4H11.5C12.3261 4 13 4.67386 13 5.5V7.18945L14.1729 7.77246C14.6848 8.02847 15 8.55391 15 9.11035V10.4902C14.9999 11.3163 14.3261 11.9902 13.5 11.9902H12.9365C12.7177 12.8574 11.9352 13.5 11 13.5C10.0683 13.5 9.28765 12.8623 9.06543 12H6.93457C6.71235 12.8623 5.93171 13.5 5 13.5C4.06829 13.5 3.28765 12.8623 3.06543 12H2.5C1.67386 12 1 11.3261 1 10.5V4.5C1 3.67386 1.67386 3 2.5 3H8.5ZM5 10.5C4.44772 10.5 4 10.9477 4 11.5C4 12.0523 4.44772 12.5 5 12.5C5.55228 12.5 6 12.0523 6 11.5C6 10.9477 5.55228 10.5 5 10.5ZM11 10.5C10.4477 10.5 10 10.9477 10 11.5C10 12.0523 10.4477 12.5 11 12.5C11.5523 12.5 12 12.0523 12 11.5C12 10.9477 11.5523 10.5 11 10.5ZM2.5 4C2.22614 4 2 4.22614 2 4.5V10.5C2 10.7739 2.22614 11 2.5 11H3.06543C3.28765 10.1377 4.06829 9.5 5 9.5C5.93171 9.5 6.71235 10.1377 6.93457 11H9V4.5C9 4.22614 8.77386 4 8.5 4H2.5ZM10 9.76953C10.2944 9.59906 10.6354 9.5 11 9.5C11.9281 9.5 12.706 10.1329 12.9316 10.9902H13.5C13.7738 10.9902 13.9999 10.764 14 10.4902V9.11035C14 8.9271 13.8951 8.75115 13.7275 8.66699L12.2773 7.94824C12.1073 7.86378 12 7.68986 12 7.5V5.5C12 5.22614 11.7739 5 11.5 5H10V9.76953Z" fill="currentColor"/>
</svg>
