<svg width="16" height="16" viewBox="0 0 16 16" fill="none" xmlns="http://www.w3.org/2000/svg">
<path d="M12.5 10.5C12.7761 10.5 13 10.7239 13 11C13 11.2761 12.7761 11.5 12.5 11.5H5.5C5.22386 11.5 5 11.2761 5 11C5 10.7239 5.22386 10.5 5.5 10.5H12.5Z" fill="black"/>
<path d="M7.5 6.5C7.77614 6.5 8 6.72386 8 7C8 7.27614 7.77614 7.5 7.5 7.5H5.5C5.22386 7.5 5 7.27614 5 7C5 6.72386 5.22386 6.5 5.5 6.5H7.5Z" fill="black"/>
<path fill-rule="evenodd" clip-rule="evenodd" d="M11.5 2.5C12.3261 2.5 13 3.17386 13 4V4.5H13.5C14.3284 4.5 15 5.17157 15 6V12C15 12.8284 14.3284 13.5 13.5 13.5H4.5C3.67157 13.5 3 12.8284 3 12V11.5H2.5C1.67386 11.5 1 10.8261 1 10V4C1 3.17386 1.67386 2.5 2.5 2.5H11.5ZM4.5 5.5C4.22386 5.5 4 5.72386 4 6V12C4 12.2761 4.22386 12.5 4.5 12.5H13.5C13.7761 12.5 14 12.2761 14 12V6C14 5.72386 13.7761 5.5 13.5 5.5H4.5ZM2 7.5V10C2 10.2739 2.22614 10.5 2.5 10.5H3V7.5H2ZM2 6.5H3V6C3 5.8245 3.03153 5.65653 3.08691 5.5H2V6.5ZM2.5 3.5C2.22614 3.5 2 3.72614 2 4V4.5H12V4C12 3.72614 11.7739 3.5 11.5 3.5H2.5Z" fill="black"/>
</svg>
