<svg width="16" height="16" viewBox="0 0 16 16" fill="none" xmlns="http://www.w3.org/2000/svg">
<path d="M2 7.50977C2.27606 7.50977 2.49987 7.73374 2.5 8.00977C2.5 9.41186 3.04044 10.8236 4.11328 11.8965C5.1862 12.9694 6.59785 13.5098 8 13.5098C9.40215 13.5098 10.8138 12.9694 11.8867 11.8965C12.0297 11.7536 12.2449 11.7108 12.4316 11.7881C12.6182 11.8655 12.7401 12.048 12.7402 12.25V13.6602C12.74 13.936 12.5161 14.16 12.2402 14.1602C11.9642 14.1602 11.7404 13.9361 11.7402 13.6602V13.3193C10.6213 14.1096 9.30804 14.5098 8 14.5098C6.34215 14.5098 4.67333 13.8706 3.40625 12.6035C2.13925 11.3365 1.5 9.66756 1.5 8.00977C1.50013 7.73374 1.72394 7.50977 2 7.50977Z" fill="black"/>
<path d="M8 4.5C8.75465 4.5 9.19969 4.96062 9.41895 5.2959C9.57006 5.52702 9.50456 5.83716 9.27344 5.98828C9.04232 6.13937 8.73217 6.07486 8.58105 5.84375C8.46028 5.65909 8.28518 5.5 8 5.5C7.71957 5.5 7.5 5.71267 7.5 6C7.5 6.23161 7.55564 6.29812 7.69629 6.5752C7.81325 6.80567 7.92331 7.07931 7.97266 7.5H9.5C9.77614 7.5 10 7.72386 10 8C10 8.27614 9.77614 8.5 9.5 8.5H8V9.5C8 9.6754 7.96787 9.84332 7.91211 10H9.5C9.77614 10 10 10.2239 10 10.5C10 10.7761 9.77614 11 9.5 11H6.5C6.22386 11 6 10.7761 6 10.5C6 10.2583 6.17145 10.0563 6.39941 10.0098L6.60059 9.99023C6.82716 9.94307 7 9.7395 7 9.5V8.5H6.5C6.22386 8.5 6 8.27614 6 8C6 7.72386 6.22386 7.5 6.5 7.5H6.96289C6.92432 7.27689 6.8616 7.14138 6.80371 7.02734C6.69433 6.81196 6.5 6.51811 6.5 6C6.5 5.14733 7.18043 4.5 8 4.5Z" fill="black"/>
<path d="M8 1.49023C9.65778 1.49029 11.3267 2.12946 12.5938 3.39648C13.8607 4.66355 14.5 6.33243 14.5 7.99023C14.4999 8.26619 14.276 8.49011 14 8.49023C13.7241 8.4901 13.5001 8.26618 13.5 7.99023C13.5 6.58809 12.9587 5.17644 11.8857 4.10352C10.8129 3.0309 9.40191 2.49029 8 2.49023C6.59798 2.4903 5.18613 3.03073 4.11328 4.10352C3.97028 4.24632 3.75509 4.28926 3.56836 4.21191C3.38175 4.13449 3.25986 3.95204 3.25977 3.75V2.33984C3.25997 2.06396 3.48386 1.83998 3.75977 1.83984C4.03578 1.83984 4.25956 2.06388 4.25977 2.33984V2.67871C5.3784 1.88896 6.69246 1.49028 8 1.49023Z" fill="black"/>
</svg>
