<svg width="16" height="16" viewBox="0 0 16 16" fill="none" xmlns="http://www.w3.org/2000/svg">
<path d="M10 9C10.2761 9 10.5 9.22386 10.5 9.5C10.5 9.77614 10.2761 10 10 10H6C5.72386 10 5.5 9.77614 5.5 9.5C5.5 9.22386 5.72386 9 6 9H10Z" fill="black"/>
<path fill-rule="evenodd" clip-rule="evenodd" d="M8 1.5C9.37614 1.5 10.5 2.62386 10.5 4V4.5H12C12.8284 4.5 13.5 5.17157 13.5 6V13C13.5 13.8284 12.8284 14.5 12 14.5H4C3.17157 14.5 2.5 13.8284 2.5 13V6C2.5 5.17157 3.17157 4.5 4 4.5H5.5V4C5.5 2.62386 6.62386 1.5 8 1.5ZM4 5.5C3.72386 5.5 3.5 5.72386 3.5 6V13C3.5 13.2761 3.72386 13.5 4 13.5H12C12.2761 13.5 12.5 13.2761 12.5 13V6C12.5 5.72386 12.2761 5.5 12 5.5H10.5V6C10.5 6.27614 10.2761 6.5 10 6.5C9.72386 6.5 9.5 6.27614 9.5 6V5.5H6.5V6C6.5 6.27614 6.27614 6.5 6 6.5C5.72386 6.5 5.5 6.27614 5.5 6V5.5H4ZM8 2.5C7.17614 2.5 6.5 3.17614 6.5 4V4.5H9.5V4C9.5 3.17614 8.82386 2.5 8 2.5Z" fill="black"/>
</svg>
