<svg width="16" height="16" viewBox="0 0 16 16" fill="none" xmlns="http://www.w3.org/2000/svg">
<path d="M8.9256 7.8668C9.12077 7.67163 9.43734 7.67182 9.63263 7.8668C9.82789 8.06206 9.82789 8.37857 9.63263 8.57383L8.70587 9.49961L9.63263 10.4264C9.82789 10.6216 9.82789 10.9381 9.63263 11.1334C9.43734 11.3283 9.12073 11.3285 8.9256 11.1334L7.99884 10.2066L7.07306 11.1334C6.87777 11.3283 6.56116 11.3285 6.36603 11.1334C6.17117 10.9382 6.17124 10.6216 6.36603 10.4264L7.29181 9.49961L6.36603 8.57383C6.17096 8.37869 6.17117 8.06207 6.36603 7.8668C6.56127 7.67156 6.87779 7.6716 7.07306 7.8668L7.99884 8.79258L8.9256 7.8668Z" fill="black"/>
<path fill-rule="evenodd" clip-rule="evenodd" d="M9.84161 2.525C10.1035 2.43772 10.387 2.57969 10.4744 2.84141L11.3602 5.49961H12.7693C13.7308 5.49961 14.4331 6.38568 14.2391 7.31211V7.31504L13.2488 11.9147C13.0496 12.8312 12.2384 13.4996 11.2899 13.4996H4.71954C3.83342 13.4994 3.06269 12.9243 2.80548 12.0855L2.76056 11.9147L1.7713 7.31504L1.77032 7.31211C1.57643 6.38577 2.27876 5.49972 3.24005 5.49961H4.63947L5.52521 2.84141C5.61261 2.57971 5.89622 2.4379 6.15802 2.525C6.4199 2.6123 6.56156 2.89592 6.47443 3.15781L5.69415 5.49961H10.3055L9.52521 3.15781C9.43816 2.89597 9.57981 2.6123 9.84161 2.525ZM3.24005 6.49961C2.92281 6.49972 2.68545 6.79197 2.74884 7.1041L3.73907 11.7047L3.76154 11.7906C3.89057 12.2129 4.27469 12.4994 4.71954 12.4996H11.2899C11.7612 12.4996 12.1704 12.167 12.2713 11.7037L13.2606 7.1041C13.324 6.79186 13.0867 6.49961 12.7693 6.49961H3.24005Z" fill="black"/>
</svg>
