<svg width="16" height="16" viewBox="0 0 16 16" fill="none" xmlns="http://www.w3.org/2000/svg">
<path fill-rule="evenodd" clip-rule="evenodd" d="M11 2C11.8261 2 12.5 2.67386 12.5 3.5V6C12.5 8.31706 10.7505 10.2221 8.5 10.4707V13.5H11C11.2761 13.5 11.5 13.7239 11.5 14C11.5 14.2761 11.2761 14.5 11 14.5H5C4.72386 14.5 4.5 14.2761 4.5 14C4.5 13.7239 4.72386 13.5 5 13.5H7.5V10.4707C5.24945 10.2221 3.5 8.31706 3.5 6V3.5C3.5 2.67386 4.17386 2 5 2H11ZM5 3C4.72614 3 4.5 3.22614 4.5 3.5V6C4.5 7.93386 6.06614 9.5 8 9.5C9.93386 9.5 11.5 7.93386 11.5 6V3.5C11.5 3.22614 11.2739 3 11 3H8.33789L7.73828 4.5H9C9.17329 4.5 9.33468 4.5899 9.42578 4.7373C9.51669 4.88466 9.5247 5.06875 9.44727 5.22363L8.44727 7.22363C8.32377 7.47062 8.02336 7.57076 7.77637 7.44727C7.52938 7.32377 7.42924 7.02336 7.55273 6.77637L8.19141 5.5H7C6.83409 5.5 6.67895 5.41766 6.58594 5.28027C6.49295 5.14289 6.47452 4.96848 6.53613 4.81445L7.26172 3H5Z" fill="black"/>
</svg>
