<svg width="16" height="16" viewBox="0 0 16 16" fill="none" xmlns="http://www.w3.org/2000/svg">
<path d="M9.6463 7.94688C9.84156 7.75162 10.1581 7.75162 10.3533 7.94688C10.5485 8.14215 10.5486 8.45869 10.3533 8.65391L7.95294 11.0543C7.85924 11.1476 7.73171 11.2008 7.59943 11.2008C7.46708 11.2006 7.33953 11.1479 7.24591 11.0543L5.6463 9.45371C5.45124 9.25854 5.45137 8.94194 5.6463 8.74668C5.84154 8.55155 6.15809 8.55155 6.35333 8.74668L7.59943 9.99278L9.6463 7.94688Z" fill="currentColor"/>
<path fill-rule="evenodd" clip-rule="evenodd" d="M9.84161 2.525C10.1035 2.43772 10.387 2.57969 10.4744 2.84141L11.3602 5.49961H12.7693C13.7308 5.49961 14.4331 6.38568 14.2391 7.31211V7.31504L13.2488 11.9147C13.0496 12.8312 12.2384 13.4996 11.2899 13.4996H4.71954C3.83342 13.4994 3.06269 12.9243 2.80548 12.0855L2.76056 11.9147L1.7713 7.31504L1.77032 7.31211C1.57643 6.38579 2.27875 5.49973 3.24005 5.49961H4.63946L5.52521 2.84141C5.61261 2.57971 5.89622 2.4379 6.15802 2.525C6.4199 2.6123 6.56155 2.89592 6.47443 3.15781L5.69415 5.49961H10.3055L9.52521 3.15781C9.43816 2.89597 9.5798 2.6123 9.84161 2.525ZM3.24005 6.49961C2.92283 6.49973 2.68545 6.79197 2.74884 7.1041L3.73907 11.7047L3.76153 11.7906C3.89057 12.2129 4.27469 12.4994 4.71954 12.4996H11.2899C11.7612 12.4996 12.1704 12.167 12.2713 11.7037L13.2606 7.1041C13.324 6.79187 13.0867 6.49961 12.7693 6.49961H3.24005Z" fill="currentColor"/>
</svg>
