<svg width="16" height="16" viewBox="0 0 16 16" fill="none" xmlns="http://www.w3.org/2000/svg">
<path fill-rule="evenodd" clip-rule="evenodd" d="M11.4696 2.49023C11.9103 2.49023 12.3188 2.68842 12.6005 3.0127L12.7138 3.15918L12.7157 3.16309L13.9149 4.96191C13.9296 4.9787 13.9444 4.99566 13.9569 5.01465C14.5528 5.91807 14.2667 7.0419 13.4999 7.61523V12.5C13.4997 13.326 12.8259 14 11.9999 14H3.9999C3.22535 13.9999 2.58465 13.4072 2.50771 12.6523L2.4999 12.5V7.63574C1.72997 7.06311 1.43526 5.93943 2.04385 5.03125L3.2831 3.17285C3.30254 3.1437 3.32522 3.11661 3.34951 3.09277C3.63076 2.72597 4.07263 2.51002 4.5292 2.50977H5.90615C5.9367 2.5039 5.96795 2.50002 5.9999 2.5H9.9208C9.95001 2.49471 9.9795 2.49025 10.0097 2.49023H11.4696ZM10.8847 7.30176C10.5377 7.72225 10.0145 7.99995 9.41006 8C8.85037 7.99997 8.34806 7.75959 7.99892 7.37695C7.64981 7.75891 7.14882 7.99996 6.58974 8C5.98801 7.99988 5.46624 7.725 5.11904 7.30762C4.76406 7.73931 4.2291 8.00976 3.63955 8.00977C3.59241 8.00975 3.54586 8.00808 3.4999 8.00488V12.5L3.50967 12.5996C3.55661 12.8264 3.76025 13 3.9999 13H5.9999V9.5C5.9999 9.22389 6.2238 9.00006 6.4999 9H9.4999C9.77604 9 9.9999 9.22386 9.9999 9.5V13H11.9999C12.2736 13 12.4997 12.7737 12.4999 12.5V7.98535C12.4538 7.98855 12.4066 7.99023 12.3593 7.99023C11.7808 7.99002 11.2423 7.73119 10.8847 7.30176ZM6.9999 13H8.9999V10H6.9999V13ZM4.5292 3.50977C4.36557 3.51005 4.20571 3.59716 4.12002 3.73047C4.10525 3.7534 4.08803 3.77416 4.07021 3.79395L2.87588 5.58691L2.8749 5.58789C2.56697 6.04741 2.74579 6.62997 3.17177 6.88281C3.21087 6.89719 3.24832 6.91433 3.28213 6.9375C3.39015 6.98287 3.50986 7.0097 3.63955 7.00977C4.04348 7.00976 4.40233 6.73928 4.52041 6.3457L5.32705 3.50977H4.5292ZM5.71084 5.83691L5.70986 5.83887C5.54313 6.41653 5.9803 6.99975 6.58974 7C7.09354 6.99993 7.4999 6.59366 7.4999 6.08984V3.5H6.37685L5.71084 5.83691ZM8.4999 6.08984L8.50478 6.18359C8.55141 6.64317 8.93786 6.99995 9.41006 7C10.0196 6.9999 10.4567 6.41662 10.2899 5.83887L10.289 5.83691L9.62295 3.5H8.4999V6.08984ZM11.4804 6.33301L11.4813 6.33594C11.589 6.72194 11.9462 6.98992 12.3593 6.99023C13.0744 6.99023 13.508 6.20557 13.1405 5.59863C13.1352 5.59147 13.1289 5.58466 13.1239 5.57715L11.8856 3.7207C11.7841 3.57122 11.6257 3.49023 11.4696 3.49023H10.6718L11.4804 6.33301Z" fill="currentColor"/>
</svg>
