<svg width="16" height="16" viewBox="0 0 16 16" fill="none" xmlns="http://www.w3.org/2000/svg">
<path fill-rule="evenodd" clip-rule="evenodd" d="M10.4799 3.5C10.9362 3.50007 11.3845 3.67914 11.7123 4.0166L13.9936 6.29688C14.3884 6.69215 14.3887 7.31874 13.9936 7.71387L8.70355 13.0039C8.30842 13.3989 7.68178 13.3987 7.28656 13.0039L1.99652 7.71387C1.6015 7.31866 1.6015 6.69209 1.99652 6.29688L4.27582 4.0166C4.59468 3.69774 5.04036 3.50022 5.50922 3.5H10.4799ZM8.00043 11.418L9.30609 7.5H6.69476L8.00043 11.418ZM6.86078 11.1641L5.64008 7.5H3.19672L6.86078 11.1641ZM9.14496 11.1484L12.7934 7.5H10.3608L9.14496 11.1484ZM10.3608 6.5H12.7827L10.9985 4.71582C10.8671 4.57891 10.6796 4.50007 10.4799 4.5H9.69476L10.3608 6.5ZM6.69476 6.5H9.30609L8.64008 4.5H7.36078L6.69476 6.5ZM5.50922 4.5C5.31862 4.50023 5.12361 4.58287 4.98285 4.72363L3.20746 6.5H5.64008L6.30609 4.5H5.50922Z" fill="black"/>
</svg>
