<svg width="16" height="16" viewBox="0 0 16 16" fill="none" xmlns="http://www.w3.org/2000/svg">
<path d="M8 4.5C8.75465 4.5 9.19969 4.96061 9.41895 5.2959C9.57006 5.52702 9.50456 5.83716 9.27344 5.98828C9.04232 6.13937 8.73217 6.07486 8.58105 5.84375C8.46029 5.6591 8.28519 5.5 8 5.5C7.71957 5.5 7.5 5.71267 7.5 6C7.5 6.23161 7.55564 6.29812 7.69629 6.5752C7.81325 6.80567 7.92331 7.07931 7.97266 7.5H9.5C9.77614 7.5 10 7.72386 10 8C10 8.27614 9.77614 8.5 9.5 8.5H8V9.5C8 9.6754 7.96787 9.84332 7.91211 10H9.5C9.77614 10 10 10.2239 10 10.5C10 10.7761 9.77614 11 9.5 11H6.5C6.22386 11 6 10.7761 6 10.5C6 10.2583 6.17145 10.0563 6.39941 10.0098L6.60059 9.99023C6.82716 9.94307 7 9.7395 7 9.5V8.5H6.5C6.22386 8.5 6 8.27614 6 8C6 7.72386 6.22386 7.5 6.5 7.5H6.96289C6.92432 7.27689 6.8616 7.14138 6.80371 7.02734C6.69433 6.81196 6.5 6.51811 6.5 6C6.5 5.14733 7.18043 4.5 8 4.5Z" fill="black"/>
<path fill-rule="evenodd" clip-rule="evenodd" d="M8 1.5C11.5899 1.5 14.5 4.41015 14.5 8C14.5 11.5899 11.5899 14.5 8 14.5C4.41015 14.5 1.5 11.5899 1.5 8C1.5 4.41015 4.41015 1.5 8 1.5ZM8 2.5C4.96243 2.5 2.5 4.96243 2.5 8C2.5 11.0376 4.96243 13.5 8 13.5C11.0376 13.5 13.5 11.0376 13.5 8C13.5 4.96243 11.0376 2.5 8 2.5Z" fill="black"/>
</svg>
