<svg width="16" height="16" viewBox="0 0 16 16" fill="none" xmlns="http://www.w3.org/2000/svg">
<path fill-rule="evenodd" clip-rule="evenodd" d="M4 7.49994C4.27612 7.49994 4.49997 7.72383 4.5 7.99994V8.49994H6C6.27612 8.49994 6.49997 8.72383 6.5 8.99994C6.5 9.27608 6.27614 9.49994 6 9.49994H4.5V10.4999H5C5.82612 10.4999 6.49997 11.1738 6.5 11.9999C6.5 12.8261 5.82614 13.4999 5 13.4999H4.5V13.9999C4.5 14.2761 4.27614 14.4999 4 14.4999C3.72386 14.4999 3.5 14.2761 3.5 13.9999V13.4999H2C1.72386 13.4999 1.5 13.2761 1.5 12.9999C1.50003 12.7238 1.72388 12.4999 2 12.4999H3.5V11.4999H3C2.17386 11.4999 1.5 10.8261 1.5 9.99994C1.50003 9.17383 2.17388 8.49994 3 8.49994H3.5V7.99994C3.50003 7.72383 3.72388 7.49994 4 7.49994ZM4.5 12.4999H5C5.27386 12.4999 5.5 12.2738 5.5 11.9999C5.49997 11.7261 5.27384 11.4999 5 11.4999H4.5V12.4999ZM3 9.49994C2.72616 9.49994 2.50003 9.72611 2.5 9.99994C2.5 10.2738 2.72614 10.4999 3 10.4999H3.5V9.49994H3Z" fill="currentColor"/>
<path d="M12 9.49994C12.2761 9.49994 12.5 9.72383 12.5 9.99994C12.5 10.8261 11.8261 11.4999 11 11.4999H9.20703L9.35352 11.6464C9.54876 11.8417 9.54873 12.1582 9.35352 12.3535C9.15825 12.5487 8.84175 12.5487 8.64648 12.3535L7.64648 11.3535C7.6123 11.3193 7.58569 11.2805 7.56348 11.2402C7.5391 11.196 7.51888 11.1487 7.50879 11.0976C7.49601 11.033 7.49586 10.9659 7.50879 10.9013C7.51917 10.8494 7.54032 10.8015 7.56543 10.7568C7.58737 10.7176 7.61319 10.6797 7.64648 10.6464L8.64648 9.64643C8.84174 9.45122 9.15827 9.45122 9.35352 9.64643C9.54876 9.84167 9.54873 10.1582 9.35352 10.3535L9.20703 10.4999H11C11.2395 10.4999 11.4431 10.3271 11.4902 10.1005L11.5098 9.89936C11.5563 9.67142 11.7583 9.49994 12 9.49994Z" fill="currentColor"/>
<path d="M13.0996 1.70014C13.2652 1.47937 13.5789 1.43417 13.7998 1.59955C14.0206 1.76515 14.0658 2.07885 13.9004 2.29975L13 3.49994H14C14.2761 3.49994 14.5 3.72383 14.5 3.99994C14.5 4.27608 14.2761 4.49994 14 4.49994H12.5V5.49994H14C14.2761 5.49994 14.5 5.72383 14.5 5.99994C14.5 6.27608 14.2761 6.49994 14 6.49994H12.5V7.99994C12.5 8.27608 12.2761 8.49994 12 8.49994C11.7239 8.49994 11.5 8.27608 11.5 7.99994V6.49994H10C9.72386 6.49994 9.5 6.27608 9.5 5.99994C9.50003 5.72383 9.72388 5.49994 10 5.49994H11.5V4.49994H10C9.72386 4.49994 9.5 4.27608 9.5 3.99994C9.50003 3.72383 9.72388 3.49994 10 3.49994H11L10.0996 2.29975C9.93423 2.07885 9.9794 1.76515 10.2002 1.59955C10.4211 1.43418 10.7348 1.47937 10.9004 1.70014L12 3.16596L13.0996 1.70014Z" fill="currentColor"/>
<path d="M6.64648 3.64643C6.84174 3.45122 7.15827 3.45122 7.35352 3.64643L8.35352 4.64643C8.38681 4.67972 8.41263 4.71763 8.43457 4.75678C8.45965 4.80149 8.47985 4.84945 8.49023 4.90131C8.50321 4.96605 8.50306 5.03284 8.49023 5.0976C8.4801 5.14879 8.46001 5.1959 8.43555 5.24018C8.41337 5.28034 8.38758 5.31938 8.35352 5.35346L7.35352 6.35346C7.15825 6.54872 6.84175 6.54872 6.64648 6.35346C6.45126 6.15819 6.45123 5.84168 6.64648 5.64643L6.79297 5.49994H5C4.76052 5.49994 4.55696 5.67281 4.50977 5.89936L4.49023 6.10053C4.44371 6.32849 4.24171 6.49994 4 6.49994C3.72386 6.49994 3.5 6.27608 3.5 5.99994C3.50003 5.17383 4.17388 4.49994 5 4.49994H6.79297L6.64648 4.35346C6.45126 4.15819 6.45123 3.84168 6.64648 3.64643Z" fill="currentColor"/>
</svg>
