<svg width="16" height="16" viewBox="0 0 16 16" fill="none" xmlns="http://www.w3.org/2000/svg">
<path fill-rule="evenodd" clip-rule="evenodd" d="M8 7.25C9.10457 7.25 10 8.14543 10 9.25C10 9.62063 9.8964 9.96606 9.7207 10.2637L10.3535 10.8965C10.5483 11.0918 10.5486 11.4084 10.3535 11.6035C10.1584 11.7986 9.84178 11.7984 9.64648 11.6035L9.01367 10.9707C8.71606 11.1464 8.37063 11.25 8 11.25C6.89543 11.25 6 10.3546 6 9.25C6 8.14543 6.89543 7.25 8 7.25ZM8 8.25C7.44772 8.25 7 8.69772 7 9.25C7 9.80228 7.44772 10.25 8 10.25C8.55228 10.25 9 9.80228 9 9.25C9 8.69772 8.55228 8.25 8 8.25Z" fill="currentColor"/>
<path fill-rule="evenodd" clip-rule="evenodd" d="M10.9697 2C11.4104 2 11.8189 2.19823 12.1006 2.52246L12.2139 2.66895L12.2168 2.67285L13.665 4.85254C13.7565 4.98968 13.8298 5.13924 13.8848 5.2959C13.9003 5.33032 13.9125 5.36626 13.9199 5.4043C13.9715 5.58302 14 5.76985 14 5.95996V12.5098C14 13.3359 13.3261 14.0098 12.5 14.0098H3.5C2.72553 14.0098 2.08492 13.4178 2.00781 12.6631L2 12.5098V5.95996C2 5.77505 2.02787 5.59253 2.07812 5.41699C2.08606 5.36965 2.10085 5.32504 2.12109 5.2832C2.17471 5.13483 2.24444 4.99264 2.3291 4.86035L2.33398 4.85352L3.78418 2.67285C4.05906 2.25059 4.53686 2 5.03027 2H10.9697ZM3 6V12.5098L3.00977 12.6104C3.05685 12.837 3.26042 13.0098 3.5 13.0098H12.5C12.7739 13.0098 13 12.7836 13 12.5098V6H3ZM5.03027 3C4.86639 3 4.70597 3.08716 4.62012 3.2207L4.61621 3.22656L3.43652 5H7.5V3H5.03027ZM8.5 5H12.5635L11.3867 3.23047L11.3457 3.17773C11.2452 3.06195 11.1064 3 10.9697 3H8.5V5Z" fill="currentColor"/>
</svg>
