<svg width="16" height="16" viewBox="0 0 16 16" fill="none" xmlns="http://www.w3.org/2000/svg">
<path fill-rule="evenodd" clip-rule="evenodd" d="M8 4.25C8.27614 4.25 8.5 4.47386 8.5 4.75V5.09961H9.66016C9.93611 5.09968 10.16 5.32368 10.1602 5.59961C10.1602 5.87571 9.93624 6.09954 9.66016 6.09961H8.5V6.75977H8.83008C9.56606 6.7598 10.16 7.35388 10.1602 8.08984C10.16 8.82586 9.56611 9.41989 8.83008 9.41992H8.5V9.75C8.5 10.0261 8.27614 10.25 8 10.25C7.72386 10.25 7.5 10.0261 7.5 9.75V9.41992H6.33008C6.05404 9.41992 5.83025 9.19592 5.83008 8.91992C5.83028 8.64395 6.05406 8.41992 6.33008 8.41992H7.5V7.75977H7.16016C6.42404 7.75977 5.83012 7.16579 5.83008 6.42969C5.83028 5.69371 6.42414 5.09961 7.16016 5.09961H7.5V4.75C7.5 4.47386 7.72386 4.25 8 4.25ZM8.5 8.41992H8.83008C9.01383 8.41989 9.16003 8.27357 9.16016 8.08984C9.15996 7.90618 9.01379 7.7598 8.83008 7.75977H8.5V8.41992ZM7.16016 6.09961C6.97642 6.09961 6.83027 6.246 6.83008 6.42969C6.83012 6.61351 6.97632 6.75977 7.16016 6.75977H7.5V6.09961H7.16016Z" fill="currentColor"/>
<path fill-rule="evenodd" clip-rule="evenodd" d="M11 1.50977C11.8261 1.50977 12.4999 2.18373 12.5 3.00977V13.3096C12.5 14.0076 11.6494 14.3565 11.1562 13.8633L10 12.707L9.06348 13.6436C9.03778 13.6692 9.00866 13.6907 8.97852 13.71C8.39006 14.2256 7.49795 14.2048 6.93652 13.6436L6 12.707L4.84375 13.8633L4.84277 13.8623C4.33601 14.3818 3.5 13.9956 3.5 13.3096V3.00977C3.50013 2.18373 4.17394 1.50977 5 1.50977H11ZM5 2.50977C4.72622 2.50977 4.50013 2.73602 4.5 3.00977V12.793L5.64648 11.6465L5.72461 11.582C5.91864 11.4539 6.18265 11.4757 6.35352 11.6465L7.64355 12.9365C7.83829 13.1311 8.15199 13.1312 8.34668 12.9365L8.40039 12.8916L9.64648 11.6465L9.72461 11.582C9.91864 11.4539 10.1826 11.4757 10.3535 11.6465L11.5 12.793V3.00977C11.4999 2.73602 11.2738 2.50977 11 2.50977H5Z" fill="currentColor"/>
</svg>
