<svg width="16" height="16" viewBox="0 0 16 16" fill="none" xmlns="http://www.w3.org/2000/svg">
<path d="M9.5 9C9.77614 9 10 9.22386 10 9.5C10 9.77614 9.77614 10 9.5 10H6.5C6.22386 10 6 9.77614 6 9.5C6 9.22386 6.22386 9 6.5 9H9.5Z" fill="currentColor"/>
<path fill-rule="evenodd" clip-rule="evenodd" d="M4.7373 6.07422C4.88465 5.98331 5.06876 5.9753 5.22363 6.05273L7.11816 7H10C11.6837 7 13.0849 8.18293 13.4219 9.76465C13.4535 9.71476 13.4779 9.65991 13.4902 9.60059L13.5098 9.39941C13.5563 9.17145 13.7583 9 14 9C14.2761 9 14.5 9.22386 14.5 9.5C14.5 10.1507 14.0813 10.7052 13.5 10.9121V11.5C13.5 12.705 12.6382 13.7162 11.5 13.9492V14.5C11.5 14.7761 11.2761 15 11 15H5C4.72386 15 4.5 14.7761 4.5 14.5V13.9492C3.52343 13.7493 2.75066 12.9766 2.55078 12H2C1.72386 12 1.5 11.7761 1.5 11.5V9.5C1.50001 9.22387 1.72386 9 2 9H2.55078C2.75068 8.02337 3.52334 7.24963 4.5 7.0498V6.5C4.50001 6.32672 4.5899 6.16532 4.7373 6.07422ZM5.5 7.5L5.49023 7.60059C5.44371 7.82855 5.24171 8 5 8C4.17615 8 3.50001 8.67615 3.5 9.5C3.5 9.77614 3.27614 10 3 10H2.5V11H3L3.10059 11.0098C3.32855 11.0563 3.49999 11.2583 3.5 11.5C3.5 12.3239 4.17614 13 5 13C5.27614 13 5.49999 13.2239 5.5 13.5V14H6.5V13.5C6.5 13.2239 6.72386 13 7 13C7.27614 13 7.5 13.2239 7.5 13.5V14H8.5V13.5C8.5 13.2239 8.72386 13 9 13C9.27614 13 9.5 13.2239 9.5 13.5V14H10.5V13.5C10.5 13.2239 10.7239 13 11 13C11.8239 13 12.5 12.3239 12.5 11.5V10.5C12.5 9.11615 11.3839 8 10 8H7C6.92238 8 6.84579 7.98198 6.77637 7.94727L5.5 7.30859V7.5Z" fill="currentColor"/>
<path fill-rule="evenodd" clip-rule="evenodd" d="M8 1C9.38071 1 10.5 2.11929 10.5 3.5C10.5 4.88071 9.38071 6 8 6C6.61929 6 5.5 4.88071 5.5 3.5C5.5 2.11929 6.61929 1 8 1ZM8 2C7.17157 2 6.5 2.67157 6.5 3.5C6.5 4.32843 7.17157 5 8 5C8.82843 5 9.5 4.32843 9.5 3.5C9.5 2.67157 8.82843 2 8 2Z" fill="currentColor"/>
</svg>
