<svg width="16" height="16" viewBox="0 0 16 16" fill="none" xmlns="http://www.w3.org/2000/svg">
<path fill-rule="evenodd" clip-rule="evenodd" d="M8 4C9.10457 4 10 4.89543 10 6C10 7.10457 9.10457 8 8 8C6.89543 8 6 7.10457 6 6C6 4.89543 6.89543 4 8 4ZM8 5C7.44772 5 7 5.44772 7 6C7 6.55228 7.44772 7 8 7C8.55228 7 9 6.55228 9 6C9 5.44772 8.55228 5 8 5Z" fill="black"/>
<path fill-rule="evenodd" clip-rule="evenodd" d="M13 2C13.8284 2 14.5 2.67157 14.5 3.5V12.5C14.5 13.3261 13.8261 14 13 14H3C2.17386 14 1.5 13.3261 1.5 12.5V3.5C1.5 2.67157 2.17157 2 3 2H13ZM13.5 11.9121C13.3433 11.9679 13.1754 12 13 12H3C2.8246 12 2.65668 11.9679 2.5 11.9121V12.5C2.5 12.7739 2.72614 13 3 13H13C13.2739 13 13.5 12.7739 13.5 12.5V11.9121ZM13.5 9.91211C13.3434 9.96757 13.1756 10 13 10H3C2.82438 10 2.65662 9.96757 2.5 9.91211V10.5C2.5 10.7739 2.72614 11 3 11H13C13.2739 11 13.5 10.7739 13.5 10.5V9.91211ZM2.5 8.5C2.5 8.77614 2.72386 9 3 9H3.93457C3.75342 8.29806 3.20194 7.74658 2.5 7.56543V8.5ZM13.5 7.56543C12.7981 7.74658 12.2466 8.29806 12.0654 9H13C13.2761 9 13.5 8.77614 13.5 8.5V7.56543ZM4.95801 3C4.74707 4.2557 3.7557 5.24707 2.5 5.45801V6.54102C3.75577 6.75189 4.74706 7.74425 4.95801 9H11.042C11.2529 7.74425 12.2442 6.75189 13.5 6.54102V5.45801C12.2443 5.24707 11.2529 4.2557 11.042 3H4.95801ZM3 3C2.72386 3 2.5 3.22386 2.5 3.5V4.43359C3.20183 4.25238 3.75344 3.70186 3.93457 3H3ZM12.0654 3C12.2466 3.70186 12.7982 4.25238 13.5 4.43359V3.5C13.5 3.22386 13.2761 3 13 3H12.0654Z" fill="black"/>
</svg>
