<svg width="16" height="16" viewBox="0 0 16 16" fill="none" xmlns="http://www.w3.org/2000/svg">
<path fill-rule="evenodd" clip-rule="evenodd" d="M5.5 4C6.32843 4 7 4.67157 7 5.5C7 6.32843 6.32843 7 5.5 7C4.67157 7 4 6.32843 4 5.5C4 4.67157 4.67157 4 5.5 4ZM5.5 5C5.22386 5 5 5.22386 5 5.5C5 5.77614 5.22386 6 5.5 6C5.77614 6 6 5.77614 6 5.5C6 5.22386 5.77614 5 5.5 5Z" fill="currentColor"/>
<path fill-rule="evenodd" clip-rule="evenodd" d="M6.87988 2C7.414 2 7.92125 2.21422 8.29395 2.58691L14.0635 8.35645C14.6487 8.94171 14.6487 9.88837 14.0635 10.4736L10.4736 14.0635C9.88837 14.6487 8.94171 14.6487 8.35645 14.0635L2.58691 8.29395C2.21422 7.92125 2 7.414 2 6.87988V3.5C2 2.67386 2.67386 2 3.5 2H6.87988ZM3.5 3C3.22614 3 3 3.22614 3 3.5V6.87988C3 7.14577 3.10664 7.39961 3.29395 7.58691L9.06348 13.3564C9.25821 13.5512 9.57186 13.5512 9.7666 13.3564L13.3564 9.7666C13.5512 9.57186 13.5512 9.25821 13.3564 9.06348L7.58691 3.29395C7.39961 3.10664 7.14577 3 6.87988 3H3.5Z" fill="currentColor"/>
</svg>
