<svg width="16" height="16" viewBox="0 0 16 16" fill="none" xmlns="http://www.w3.org/2000/svg">
<path d="M9.64668 8.44629C9.84195 8.25123 10.1585 8.2511 10.3537 8.44629C10.5489 8.64148 10.5488 8.95804 10.3537 9.15332L7.95332 11.5537C7.85963 11.6472 7.73216 11.7001 7.5998 11.7002C7.46734 11.7001 7.33996 11.6474 7.24629 11.5537L5.64668 9.95312C5.45153 9.75785 5.45145 9.44132 5.64668 9.24609C5.84193 9.05117 6.15854 9.05105 6.35371 9.24609L7.5998 10.4922L9.64668 8.44629Z" fill="black"/>
<path fill-rule="evenodd" clip-rule="evenodd" d="M12.1594 2.5C12.6 2.5 13.0085 2.69834 13.2902 3.02246L13.4035 3.16895L13.4045 3.17188L14.0148 4.08203L14.0168 4.08398C14.5913 4.95144 14.3607 6.18923 13.5002 6.73047V12.5C13.5001 13.326 12.8262 13.9999 12.0002 14H4.00019C3.22579 14 2.58521 13.4079 2.50801 12.6533L2.50019 12.5V6.71191C1.65736 6.16473 1.44347 4.93294 2.01484 4.08105L2.62422 3.17188C2.89907 2.75035 3.37649 2.50023 3.86933 2.5H12.1594ZM11.0256 6.31348C10.6595 6.73347 10.1254 6.99997 9.51972 7C8.91303 6.99989 8.38031 6.72899 8.01582 6.31348C7.64979 6.73348 7.11559 6.9999 6.50996 7C5.90359 6.99989 5.37053 6.72959 5.00605 6.31445C4.64008 6.73414 4.10551 6.99885 3.50019 6.99902V12.5L3.50996 12.6006C3.55713 12.8272 3.7607 13 4.00019 13H12.0002C12.2739 12.9999 12.5001 12.7737 12.5002 12.5V6.99805C11.9057 6.98933 11.3842 6.72232 11.0256 6.31348ZM3.86933 3.5C3.70569 3.50024 3.54589 3.58734 3.46015 3.7207L3.45527 3.72852L2.84492 4.63867C2.50262 5.14919 2.75892 5.79663 3.21601 5.95312L3.30976 5.97852L3.32832 5.98145C3.37958 5.99283 3.44289 5.99994 3.49922 6C3.91851 6 4.27213 5.74934 4.42793 5.37695C4.63807 4.8686 5.36687 4.8679 5.57929 5.37402C5.73649 5.74309 6.09489 5.99984 6.50996 6C6.87677 5.99988 7.19358 5.80814 7.37129 5.51074L7.43867 5.37695C7.6489 4.86901 8.37546 4.86843 8.58808 5.37402H8.59004C8.74725 5.74304 9.1047 5.99984 9.51972 6C9.88659 5.99997 10.2033 5.80815 10.3811 5.51074L10.4484 5.37695C10.6586 4.86895 11.3852 4.86848 11.5978 5.37402H11.5998C11.757 5.74304 12.1145 5.99979 12.5295 6C12.577 6 12.608 5.99957 12.635 5.99805C12.6555 5.99687 12.6656 5.99555 12.6682 5.99512L12.7004 5.98828C12.7213 5.98449 12.7417 5.97733 12.7619 5.97168C12.8032 5.94919 12.8474 5.93103 12.8947 5.9209C13.2998 5.71137 13.4998 5.11748 13.1848 4.63867L12.5744 3.72852C12.4728 3.58078 12.3145 3.5 12.1594 3.5H3.86933Z" fill="black"/>
</svg>
