<svg width="16" height="16" viewBox="0 0 16 16" fill="none" xmlns="http://www.w3.org/2000/svg">
<path d="M8.92578 8.08691C9.12097 7.89172 9.43753 7.89187 9.63281 8.08691C9.828 8.28218 9.82805 8.59871 9.63281 8.79395L8.70605 9.71973L9.63281 10.6465C9.82799 10.8418 9.82805 11.1583 9.63281 11.3535C9.43755 11.5484 9.12093 11.5486 8.92578 11.3535L7.99902 10.4268L7.07324 11.3535C6.87798 11.5484 6.56136 11.5486 6.36621 11.3535C6.17128 11.1584 6.17136 10.8417 6.36621 10.6465L7.29199 9.71973L6.36621 8.79395C6.17107 8.5988 6.1713 8.2822 6.36621 8.08691C6.56147 7.89165 6.87798 7.89165 7.07324 8.08691L7.99902 9.0127L8.92578 8.08691Z" fill="currentColor"/>
<path fill-rule="evenodd" clip-rule="evenodd" d="M8 1.5C9.37614 1.5 10.5 2.62386 10.5 4V4.5H12C12.8284 4.5 13.5 5.17157 13.5 6V13C13.5 13.8284 12.8284 14.5 12 14.5H4C3.17157 14.5 2.5 13.8284 2.5 13V6C2.5 5.17157 3.17157 4.5 4 4.5H5.5V4C5.5 2.62386 6.62386 1.5 8 1.5ZM4 5.5C3.72386 5.5 3.5 5.72386 3.5 6V13C3.5 13.2761 3.72386 13.5 4 13.5H12C12.2761 13.5 12.5 13.2761 12.5 13V6C12.5 5.72386 12.2761 5.5 12 5.5H10.5V6C10.5 6.27614 10.2761 6.5 10 6.5C9.72386 6.5 9.5 6.27614 9.5 6V5.5H6.5V6C6.5 6.27614 6.27614 6.5 6 6.5C5.72386 6.5 5.5 6.27614 5.5 6V5.5H4ZM8 2.5C7.17614 2.5 6.5 3.17614 6.5 4V4.5H9.5V4C9.5 3.17614 8.82386 2.5 8 2.5Z" fill="currentColor"/>
</svg>
