<svg width="16" height="16" viewBox="0 0 16 16" fill="none" xmlns="http://www.w3.org/2000/svg">
<path d="M2 7.50977C2.27606 7.50977 2.49987 7.73374 2.5 8.00977C2.5 9.41186 3.04044 10.8236 4.11328 11.8965C5.1862 12.9694 6.59785 13.5098 8 13.5098C9.40215 13.5098 10.8138 12.9694 11.8867 11.8965C12.0297 11.7536 12.2449 11.7108 12.4316 11.7881C12.6182 11.8655 12.7401 12.048 12.7402 12.25V13.6602C12.74 13.936 12.5161 14.16 12.2402 14.1602C11.9642 14.1602 11.7404 13.9361 11.7402 13.6602V13.3193C10.6213 14.1096 9.30804 14.5098 8 14.5098C6.34215 14.5098 4.67333 13.8706 3.40625 12.6035C2.13926 11.3365 1.5 9.66756 1.5 8.00977C1.50013 7.73374 1.72394 7.50977 2 7.50977Z" fill="black"/>
<path d="M9.64648 4.64648C9.84175 4.45124 10.1583 4.45124 10.3535 4.64648C10.5488 4.84174 10.5488 5.15825 10.3535 5.35352L8.70703 7H10C10.2761 7 10.5 7.22386 10.5 7.5C10.5 7.77614 10.2761 8 10 8H8.5V9H10C10.2761 9 10.5 9.22386 10.5 9.5C10.5 9.77614 10.2761 10 10 10H8.5V11C8.5 11.2761 8.27614 11.5 8 11.5C7.72386 11.5 7.5 11.2761 7.5 11V10H6C5.72386 10 5.5 9.77614 5.5 9.5C5.5 9.22386 5.72386 9 6 9H7.5V8H6C5.72386 8 5.5 7.77614 5.5 7.5C5.5 7.22386 5.72386 7 6 7H7.29297L5.64648 5.35352C5.45123 5.15825 5.45122 4.84174 5.64648 4.64648C5.84175 4.45124 6.15826 4.45124 6.35352 4.64648L8 6.29297L9.64648 4.64648Z" fill="black"/>
<path d="M8 1.49023C9.65777 1.4903 11.3267 2.12947 12.5938 3.39648C13.8607 4.66355 14.5 6.33243 14.5 7.99023C14.4999 8.26619 14.276 8.49011 14 8.49023C13.7241 8.4901 13.5001 8.26618 13.5 7.99023C13.5 6.58809 12.9587 5.17644 11.8857 4.10352C10.8129 3.0309 9.40191 2.4903 8 2.49023C6.59798 2.4903 5.18613 3.03073 4.11328 4.10352C3.97028 4.24632 3.75509 4.28926 3.56836 4.21191C3.38175 4.13449 3.25986 3.95204 3.25977 3.75V2.33984C3.25997 2.06396 3.48386 1.83998 3.75977 1.83984C4.03578 1.83984 4.25956 2.06388 4.25977 2.33984V2.67871C5.3784 1.88896 6.69246 1.49028 8 1.49023Z" fill="black"/>
</svg>
