<svg width="16" height="16" viewBox="0 0 16 16" fill="none" xmlns="http://www.w3.org/2000/svg">
<path fill-rule="evenodd" clip-rule="evenodd" d="M4 7.5C4.27614 7.5 4.5 7.72386 4.5 8V8.5H6C6.27614 8.5 6.5 8.72386 6.5 9C6.5 9.27614 6.27614 9.5 6 9.5H4.5V10.5H5C5.82614 10.5 6.5 11.1739 6.5 12C6.5 12.8261 5.82614 13.5 5 13.5H4.5V14C4.5 14.2761 4.27614 14.5 4 14.5C3.72386 14.5 3.5 14.2761 3.5 14V13.5H2C1.72386 13.5 1.5 13.2761 1.5 13C1.5 12.7239 1.72386 12.5 2 12.5H3.5V11.5H3C2.17386 11.5 1.5 10.8261 1.5 10C1.5 9.17386 2.17386 8.5 3 8.5H3.5V8C3.5 7.72386 3.72386 7.5 4 7.5ZM4.5 12.5H5C5.27386 12.5 5.5 12.2739 5.5 12C5.5 11.7261 5.27386 11.5 5 11.5H4.5V12.5ZM3 9.5C2.72614 9.5 2.5 9.72614 2.5 10C2.5 10.2739 2.72614 10.5 3 10.5H3.5V9.5H3Z" fill="black"/>
<path d="M12 9.5C12.2761 9.5 12.5 9.72386 12.5 10C12.5 10.8261 11.8261 11.5 11 11.5H9.20703L9.35352 11.6465C9.54877 11.8417 9.54876 12.1583 9.35352 12.3535C9.15825 12.5488 8.84175 12.5488 8.64648 12.3535L7.64648 11.3535C7.6123 11.3193 7.58569 11.2806 7.56348 11.2402C7.53909 11.196 7.51889 11.1488 7.50879 11.0977C7.496 11.033 7.49587 10.966 7.50879 10.9014C7.51916 10.8494 7.54032 10.8016 7.56543 10.7568C7.58737 10.7177 7.61318 10.6798 7.64648 10.6465L8.64648 9.64648C8.84175 9.45124 9.15826 9.45124 9.35352 9.64648C9.54877 9.84174 9.54876 10.1583 9.35352 10.3535L9.20703 10.5H11C11.2395 10.5 11.4431 10.3272 11.4902 10.1006L11.5098 9.89941C11.5563 9.67145 11.7583 9.5 12 9.5Z" fill="black"/>
<path d="M12 1.5C12.7547 1.5 13.1997 1.96062 13.4189 2.2959C13.5701 2.52702 13.5046 2.83716 13.2734 2.98828C13.0423 3.13937 12.7322 3.07486 12.5811 2.84375C12.4603 2.65909 12.2852 2.5 12 2.5C11.7196 2.5 11.5 2.71267 11.5 3C11.5 3.23161 11.5556 3.29812 11.6963 3.5752C11.8132 3.80567 11.9233 4.07931 11.9727 4.5H13.5C13.7761 4.5 14 4.72386 14 5C14 5.27614 13.7761 5.5 13.5 5.5H12V6.5C12 6.6754 11.9679 6.84332 11.9121 7H13.5C13.7761 7 14 7.22386 14 7.5C14 7.77614 13.7761 8 13.5 8H10.5C10.2239 8 10 7.77614 10 7.5C10 7.25829 10.1714 7.05629 10.3994 7.00977L10.6006 6.99023C10.8272 6.94307 11 6.7395 11 6.5V5.5H10.5C10.2239 5.5 10 5.27614 10 5C10 4.72386 10.2239 4.5 10.5 4.5H10.9629C10.9243 4.27689 10.8616 4.14138 10.8037 4.02734C10.6943 3.81196 10.5 3.51811 10.5 3C10.5 2.14733 11.1804 1.5 12 1.5Z" fill="black"/>
<path d="M6.64648 3.64648C6.84175 3.45124 7.15826 3.45124 7.35352 3.64648L8.35352 4.64648C8.38682 4.67979 8.41263 4.71767 8.43457 4.75684C8.45965 4.80156 8.47986 4.8495 8.49023 4.90137C8.5032 4.96611 8.50307 5.0329 8.49023 5.09766C8.4801 5.14884 8.46002 5.19596 8.43555 5.24023C8.41337 5.2804 8.38758 5.31945 8.35352 5.35352L7.35352 6.35352C7.15825 6.54878 6.84175 6.54878 6.64648 6.35352C6.45123 6.15825 6.45122 5.84174 6.64648 5.64648L6.79297 5.5H5C4.7605 5.5 4.55693 5.67284 4.50977 5.89941L4.49023 6.10059C4.44371 6.32855 4.24171 6.5 4 6.5C3.72386 6.5 3.5 6.27614 3.5 6C3.5 5.17386 4.17386 4.5 5 4.5H6.79297L6.64648 4.35352C6.45123 4.15825 6.45122 3.84174 6.64648 3.64648Z" fill="black"/>
</svg>
