<svg width="16" height="16" viewBox="0 0 16 16" fill="none" xmlns="http://www.w3.org/2000/svg">
<path d="M8 11C8.27614 11 8.5 11.2239 8.5 11.5C8.5 11.7761 8.27614 12 8 12C7.72386 12 7.5 11.7761 7.5 11.5C7.5 11.2239 7.72386 11 8 11Z" fill="currentColor"/>
<path d="M7.99023 7C8.81627 7.00012 9.49023 7.67393 9.49023 8.5C9.49023 9.10854 9.07291 9.58408 8.58984 9.78711L8.59082 9.78809L8.5 9.82715V10C8.5 10.2761 8.27604 10.4999 8 10.5C7.72396 10.4999 7.5 10.2761 7.5 10V9.75C7.5 9.44693 7.65758 9.16146 7.91602 9.00098L8.0332 8.94043L8.18945 8.87207L8.2002 8.86719C8.39249 8.78774 8.49023 8.62715 8.49023 8.5C8.49023 8.22622 8.26399 8.00013 7.99023 8C7.75075 8 7.54719 8.17286 7.5 8.39941L7.48047 8.60059C7.43396 8.82848 7.23185 8.99989 6.99023 9C6.71409 9 6.49023 8.77614 6.49023 8.5C6.49023 7.67386 7.16409 7 7.99023 7Z" fill="currentColor"/>
<path fill-rule="evenodd" clip-rule="evenodd" d="M10.9697 2C11.4104 2 11.8188 2.19823 12.1006 2.52246L12.2139 2.66895L12.2168 2.67285L13.665 4.85254C13.7565 4.98968 13.8298 5.13924 13.8848 5.2959C13.9003 5.33032 13.9125 5.36626 13.9199 5.4043C13.9715 5.58302 14 5.76985 14 5.95996V12.5098C14 13.3359 13.3261 14.0098 12.5 14.0098H3.5C2.72553 14.0098 2.08492 13.4178 2.00781 12.6631L2 12.5098V5.95996C2 5.77505 2.02787 5.59253 2.07812 5.41699C2.08606 5.36965 2.10085 5.32504 2.12109 5.2832C2.17471 5.13483 2.24444 4.99264 2.3291 4.86035L2.33398 4.85352L3.7832 2.67285C4.05805 2.25032 4.53669 2 5.03027 2H10.9697ZM3 12.5098L3.00977 12.6104C3.05685 12.837 3.26042 13.0098 3.5 13.0098H12.5C12.7739 13.0098 13 12.7836 13 12.5098V6H3V12.5098ZM5.03027 3C4.86638 3 4.70596 3.08717 4.62012 3.2207L4.61621 3.22656L3.43652 5H7.5V3H5.03027ZM8.5 5H12.5635L11.3867 3.23047L11.3457 3.17773C11.2452 3.06196 11.1064 3 10.9697 3H8.5V5Z" fill="currentColor"/>
</svg>
