<svg width="16" height="16" viewBox="0 0 16 16" fill="none" xmlns="http://www.w3.org/2000/svg">
<path d="M9.50019 9.5C9.77624 9.5001 10.0002 9.72392 10.0002 10C10.0002 10.2761 9.77624 10.4999 9.50019 10.5H6.50019C6.22405 10.5 6.00019 10.2761 6.00019 10C6.00019 9.72386 6.22405 9.5 6.50019 9.5H9.50019Z" fill="black"/>
<path fill-rule="evenodd" clip-rule="evenodd" d="M12.3459 2.51172C12.7141 2.5589 13.0487 2.74457 13.2902 3.02246L13.4035 3.16895L13.4045 3.17188L14.0148 4.08203L14.0168 4.08398C14.5913 4.95144 14.3607 6.18923 13.5002 6.73047V12.5C13.5001 13.326 12.8262 13.9999 12.0002 14H4.00019C3.22579 14 2.58521 13.4079 2.508 12.6533L2.50019 12.5V6.71191C1.65736 6.16473 1.44347 4.93293 2.01484 4.08105L2.62421 3.17188C2.89906 2.75035 3.37649 2.50023 3.86933 2.5H12.1594L12.3459 2.51172ZM11.0256 6.31348C10.6595 6.73346 10.1254 6.99997 9.51972 7C8.91303 6.99988 8.3803 6.72898 8.01581 6.31348C7.64978 6.73348 7.11558 6.9999 6.50995 7C5.90359 6.99988 5.37052 6.72958 5.00605 6.31445C4.64007 6.73414 4.10551 6.99885 3.50019 6.99902V12.5L3.50995 12.6006C3.55713 12.8272 3.76069 13 4.00019 13H12.0002C12.2739 12.9999 12.5001 12.7737 12.5002 12.5V6.99805C11.9057 6.98933 11.3842 6.72231 11.0256 6.31348ZM3.86933 3.5C3.70569 3.50024 3.54588 3.58734 3.46015 3.7207L3.45527 3.72852L2.84491 4.63867C2.50262 5.14919 2.75893 5.79663 3.21601 5.95312L3.30976 5.97852L3.32831 5.98145C3.37957 5.99282 3.44289 5.99994 3.49921 6C3.9185 6 4.27213 5.74934 4.42792 5.37695C4.63807 4.8686 5.36687 4.86791 5.57929 5.37402C5.73648 5.74309 6.09489 5.99984 6.50995 6C6.87676 5.99988 7.19358 5.80814 7.37128 5.51074L7.43866 5.37695C7.64889 4.86901 8.37546 4.86843 8.58808 5.37402H8.59003C8.74725 5.74303 9.1047 5.99984 9.51972 6C9.88658 5.99996 10.2033 5.80814 10.381 5.51074L10.4484 5.37695C10.6586 4.86895 11.3852 4.86848 11.5978 5.37402H11.5998C11.757 5.74304 12.1145 5.99978 12.5295 6C12.577 6 12.608 5.99957 12.635 5.99805C12.6554 5.99687 12.6656 5.99555 12.6682 5.99512L12.7004 5.98828C12.7213 5.98449 12.7417 5.97733 12.7619 5.97168C12.8032 5.94919 12.8474 5.93103 12.8947 5.9209C13.2998 5.71138 13.4998 5.11749 13.1848 4.63867L12.5744 3.72852C12.4984 3.61802 12.3907 3.54422 12.2766 3.51465L12.1594 3.5H3.86933Z" fill="black"/>
</svg>
