<svg width="16" height="16" viewBox="0 0 16 16" fill="none" xmlns="http://www.w3.org/2000/svg">
<path fill-rule="evenodd" clip-rule="evenodd" d="M12 2.5C12.8261 2.5 13.5 3.17386 13.5 4V4.58691C14.0814 4.7937 14.5 5.34915 14.5 6V12C14.5 12.8261 13.8261 13.5 13 13.5H3C2.17386 13.5 1.5 12.8261 1.5 12V4C1.5 3.17386 2.17386 2.5 3 2.5H12ZM2.5 12C2.5 12.2739 2.72614 12.5 3 12.5H13C13.2739 12.5 13.5 12.2739 13.5 12V10.5H10C9.72386 10.5 9.5 10.2761 9.5 10V8C9.5 7.72386 9.72386 7.5 10 7.5H13.5V6C13.5 5.72614 13.2739 5.5 13 5.5H3C2.8246 5.5 2.65668 5.46787 2.5 5.41211V12ZM10.5 8.5V9.5H13.5V8.5H10.5ZM3 3.5C2.72614 3.5 2.5 3.72614 2.5 4C2.5 4.27386 2.72614 4.5 3 4.5H12.5V4C12.5 3.72614 12.2739 3.5 12 3.5H3Z" fill="currentColor"/>
</svg>
