<svg width="16" height="16" viewBox="0 0 16 16" fill="none" xmlns="http://www.w3.org/2000/svg">
<path fill-rule="evenodd" clip-rule="evenodd" d="M8 6.25C8.27614 6.25 8.5 6.47386 8.5 6.75V7.09961H9.66016C9.93611 7.09969 10.16 7.32369 10.1602 7.59961C10.1602 7.8757 9.93623 8.09953 9.66016 8.09961H8.5V8.75977H8.83008C9.56603 8.75981 10.16 9.35388 10.1602 10.0898C10.16 10.8258 9.5661 11.4199 8.83008 11.4199H8.5V11.75C8.5 12.0261 8.27614 12.25 8 12.25C7.72386 12.25 7.5 12.0261 7.5 11.75V11.4199H6.33008C6.05404 11.4199 5.83024 11.1959 5.83008 10.9199C5.83028 10.6439 6.05406 10.4199 6.33008 10.4199H7.5V9.75977H7.16016C6.42404 9.75977 5.83013 9.16579 5.83008 8.42969C5.83028 7.69369 6.42416 7.09961 7.16016 7.09961H7.5V6.75C7.5 6.47386 7.72386 6.25 8 6.25ZM8.5 10.4199H8.83008C9.01381 10.4199 9.16003 10.2736 9.16016 10.0898C9.15996 9.90621 9.01379 9.75981 8.83008 9.75977H8.5V10.4199ZM7.16016 8.09961C6.9764 8.09961 6.83027 8.24603 6.83008 8.42969C6.83013 8.6135 6.97633 8.75977 7.16016 8.75977H7.5V8.09961H7.16016Z" fill="black"/>
<path fill-rule="evenodd" clip-rule="evenodd" d="M9.5 1.5C10.6061 1.5 11.5 2.39386 11.5 3.5C11.5 3.86483 11.4015 4.20581 11.2314 4.5H13C13.8261 4.5 14.5 5.17386 14.5 6V7C14.5 7.65074 14.0813 8.20524 13.5 8.41211V12.5C13.5 13.3261 12.8261 14 12 14H4C3.17386 14 2.5 13.3261 2.5 12.5V8.41211C1.91872 8.20524 1.5 7.65074 1.5 7V6C1.5 5.17386 2.17386 4.5 3 4.5H4.76855C4.59854 4.20581 4.5 3.86483 4.5 3.5C4.5 2.39386 5.39386 1.5 6.5 1.5C7.09868 1.5 7.63375 1.76309 8 2.17871C8.36625 1.76309 8.90132 1.5 9.5 1.5ZM3 5.5C2.72614 5.5 2.5 5.72614 2.5 6V7C2.5 7.2395 2.67284 7.44307 2.89941 7.49023L3.10059 7.50977C3.32855 7.55629 3.5 7.75829 3.5 8V12.5C3.5 12.7739 3.72614 13 4 13H12C12.2739 13 12.5 12.7739 12.5 12.5V8C12.5 7.75829 12.6714 7.55629 12.8994 7.50977L13.1006 7.49023C13.3272 7.44307 13.5 7.2395 13.5 7V6C13.5 5.72614 13.2739 5.5 13 5.5H3ZM6.5 2.5C5.94614 2.5 5.5 2.94614 5.5 3.5C5.5 4.05386 5.94614 4.5 6.5 4.5H7.5V3.5C7.5 2.94614 7.05386 2.5 6.5 2.5ZM9.5 2.5C8.94614 2.5 8.5 2.94614 8.5 3.5V4.5H9.5C10.0539 4.5 10.5 4.05386 10.5 3.5C10.5 2.94614 10.0539 2.5 9.5 2.5Z" fill="black"/>
</svg>
