<svg width="16" height="16" viewBox="0 0 16 16" fill="none" xmlns="http://www.w3.org/2000/svg">
<path d="M10 7.5C10.2761 7.5 10.5 7.72386 10.5 8C10.5 8.27614 10.2761 8.5 10 8.5H8C7.72386 8.5 7.5 8.27614 7.5 8C7.5 7.72386 7.72386 7.5 8 7.5H10Z" fill="currentColor"/>
<path d="M10 5.5C10.2761 5.5 10.5 5.72386 10.5 6C10.5 6.27614 10.2761 6.5 10 6.5H6C5.72386 6.5 5.5 6.27614 5.5 6C5.5 5.72386 5.72386 5.5 6 5.5H10Z" fill="currentColor"/>
<path d="M10 3.5C10.2761 3.5 10.5 3.72386 10.5 4C10.5 4.27614 10.2761 4.5 10 4.5H6C5.72386 4.5 5.5 4.27614 5.5 4C5.5 3.72386 5.72386 3.5 6 3.5H10Z" fill="currentColor"/>
<path fill-rule="evenodd" clip-rule="evenodd" d="M11 1.50977C11.8261 1.50977 12.4999 2.18373 12.5 3.00977V13.3096C12.5 14.0076 11.6494 14.3565 11.1562 13.8633L10 12.707L9.06348 13.6436C9.03777 13.6692 9.00866 13.6907 8.97852 13.71C8.39006 14.2256 7.49795 14.2048 6.93652 13.6436L6 12.707L4.84375 13.8633L4.84277 13.8623C4.33601 14.3818 3.5 13.9956 3.5 13.3096V3.00977C3.50013 2.18373 4.17394 1.50977 5 1.50977H11ZM5 2.50977C4.72622 2.50977 4.50013 2.73602 4.5 3.00977V12.793L5.64648 11.6465L5.72266 11.584C5.80419 11.5296 5.90057 11.5 6 11.5C6.13255 11.5 6.25976 11.5528 6.35352 11.6465L7.64355 12.9365C7.83829 13.1311 8.15199 13.1312 8.34668 12.9365L8.40039 12.8916L9.64648 11.6465L9.72266 11.584C9.80419 11.5296 9.90057 11.5 10 11.5C10.1326 11.5 10.2598 11.5528 10.3535 11.6465L11.5 12.793V3.00977C11.4999 2.73602 11.2738 2.50977 11 2.50977H5Z" fill="currentColor"/>
</svg>
