<svg width="16" height="16" viewBox="0 0 16 16" fill="none" xmlns="http://www.w3.org/2000/svg">
<path fill-rule="evenodd" clip-rule="evenodd" d="M6.94531 2.3701C7.58749 1.97848 8.39355 1.97687 9.03711 2.36521L9.17188 2.45408L9.1748 2.45603L13.1748 5.36619C13.2035 5.38717 13.2289 5.41172 13.252 5.43748C13.7168 5.81429 13.9902 6.37894 13.9902 6.98045V12.5C13.9902 13.326 13.3162 13.9999 12.4902 14H3.49023C2.66414 14 1.99032 13.3261 1.99023 12.5V6.98045C1.99023 6.41996 2.22561 5.88926 2.63379 5.51463L2.81836 5.36424L6.81641 2.45603L6.94531 2.3701ZM8.4502 3.1826C8.11597 3.01528 7.71266 3.04343 7.40137 3.26658L3.4043 6.17478L3.40137 6.17674C3.14299 6.36248 2.99023 6.66108 2.99023 6.98045V12.5C2.99032 12.7738 3.21643 13 3.49023 13H4.5V7.49998C4.50001 7.22384 4.72386 6.99998 5 6.99998H11C11.2761 6.99998 11.5 7.22384 11.5 7.49998V13H12.4902C12.7639 12.9999 12.9902 12.7737 12.9902 12.5V6.98045C12.9902 6.66119 12.8373 6.3625 12.5791 6.17674C12.56 6.163 12.5421 6.14677 12.5254 6.13084L8.58887 3.26658L8.4502 3.1826ZM5.5 12V13H10.5V12H5.5ZM5.5 11H10.5V9.99998H5.5V11ZM5.5 8.99998H10.5V7.99998H5.5V8.99998Z" fill="black"/>
</svg>
