<svg width="16" height="16" viewBox="0 0 16 16" fill="none" xmlns="http://www.w3.org/2000/svg">
<path fill-rule="evenodd" clip-rule="evenodd" d="M5 11C5.82843 11 6.5 11.6716 6.5 12.5C6.5 13.3284 5.82843 14 5 14C4.17157 14 3.5 13.3284 3.5 12.5C3.5 11.6716 4.17157 11 5 11ZM5 12C4.72386 12 4.5 12.2239 4.5 12.5C4.5 12.7761 4.72386 13 5 13C5.27614 13 5.5 12.7761 5.5 12.5C5.5 12.2239 5.27614 12 5 12Z" fill="currentColor"/>
<path fill-rule="evenodd" clip-rule="evenodd" d="M12 11C12.8284 11 13.5 11.6716 13.5 12.5C13.5 13.3284 12.8284 14 12 14C11.1716 14 10.5 13.3284 10.5 12.5C10.5 11.6716 11.1716 11 12 11ZM12 12C11.7239 12 11.5 12.2239 11.5 12.5C11.5 12.7761 11.7239 13 12 13C12.2761 13 12.5 12.7761 12.5 12.5C12.5 12.2239 12.2761 12 12 12Z" fill="currentColor"/>
<path d="M9.64648 5.99609C9.8417 5.8011 10.1583 5.80109 10.3535 5.99609C10.5487 6.19129 10.5486 6.50785 10.3535 6.70312L8.55371 8.50293C8.35845 8.69819 8.04194 8.69819 7.84668 8.50293L6.64648 7.30273C6.45161 7.10744 6.45135 6.79084 6.64648 6.5957C6.84165 6.40097 7.15836 6.40096 7.35352 6.5957L8.2002 7.44238L9.64648 5.99609Z" fill="currentColor"/>
<path fill-rule="evenodd" clip-rule="evenodd" d="M2.80957 2C3.52744 2 4.15866 2.51926 4.28223 3.23145L4.4209 4H12.3896C13.0029 4 13.4875 4.55357 13.3711 5.17773L13.3721 5.17871L12.6318 9.2627L12.6328 9.26367C12.5112 9.97819 11.8795 10.4999 11.1602 10.5H5.83008C5.1072 10.5 4.49241 9.98647 4.3584 9.27246V9.26855L3.51855 4.62891C3.51219 4.60507 3.50767 4.58077 3.50488 4.55566L3.29785 3.40918L3.29688 3.4043C3.2585 3.17887 3.05015 3 2.80957 3H2C1.72386 3 1.5 2.77614 1.5 2.5C1.5 2.22386 1.72386 2 2 2H2.80957ZM5.34082 9.08789C5.38695 9.33368 5.59308 9.5 5.83008 9.5H11.1602C11.4007 9.49992 11.6091 9.32109 11.6475 9.0957L11.6484 9.09082L12.3877 5.00098L4.60156 5L5.34082 9.08789Z" fill="currentColor"/>
</svg>
