<svg width="16" height="16" viewBox="0 0 16 16" fill="none" xmlns="http://www.w3.org/2000/svg">
<path d="M9.5 5C9.77614 5 10 5.22386 10 5.5C10 5.77614 9.77614 6 9.5 6H8.49414C8.71389 6.29113 8.87095 6.63102 8.94727 7H9.5C9.77614 7 10 7.22386 10 7.5C10 7.77614 9.77614 8 9.5 8H8.94922C8.81071 8.674 8.39824 9.24993 7.83496 9.6084L9.72363 10.5527C9.97062 10.6762 10.0708 10.9766 9.94727 11.2236C9.82377 11.4706 9.52336 11.5708 9.27637 11.4473L6.27637 9.94727C6.06896 9.84356 5.96039 9.61045 6.01367 9.38477C6.06709 9.15929 6.26825 9 6.5 9C7.14867 9 7.70451 8.58039 7.91211 8H6.5C6.22386 8 6 7.77614 6 7.5C6 7.22386 6.22386 7 6.5 7H7.91211C7.70451 6.41961 7.14867 6 6.5 6C6.22386 6 6 5.77614 6 5.5C6 5.22386 6.22386 5 6.5 5H9.5Z" fill="black"/>
<path fill-rule="evenodd" clip-rule="evenodd" d="M8 1.5C11.5899 1.5 14.5 4.41015 14.5 8C14.5 11.5899 11.5899 14.5 8 14.5C4.41015 14.5 1.5 11.5899 1.5 8C1.5 4.41015 4.41015 1.5 8 1.5ZM8 2.5C4.96243 2.5 2.5 4.96243 2.5 8C2.5 11.0376 4.96243 13.5 8 13.5C11.0376 13.5 13.5 11.0376 13.5 8C13.5 4.96243 11.0376 2.5 8 2.5Z" fill="black"/>
</svg>
