<svg width="16" height="16" viewBox="0 0 16 16" fill="none" xmlns="http://www.w3.org/2000/svg">
<path d="M8.92596 8.36621C9.12111 8.17114 9.43772 8.17134 9.633 8.36621C9.82824 8.56145 9.8282 8.87798 9.633 9.07324L8.70624 9.99902L9.633 10.9258C9.82823 11.121 9.82817 11.4375 9.633 11.6328C9.43773 11.8281 9.12123 11.8281 8.92596 11.6328L7.99921 10.7061L7.07343 11.6328C6.87816 11.8281 6.56166 11.8281 6.36639 11.6328C6.17151 11.4375 6.17126 11.1209 6.36639 10.9258L7.29218 9.99902L6.36639 9.07324C6.17131 8.87797 6.17119 8.56141 6.36639 8.36621C6.56161 8.1711 6.87818 8.17115 7.07343 8.36621L7.99921 9.29199L8.92596 8.36621Z" fill="black"/>
<path fill-rule="evenodd" clip-rule="evenodd" d="M12.1594 2.5C12.6 2.5 13.0085 2.69834 13.2902 3.02246L13.4035 3.16895L13.4045 3.17188L14.0148 4.08203L14.0168 4.08398C14.5913 4.95144 14.3606 6.18923 13.5002 6.73047V12.5C13.5001 13.326 12.8262 13.9999 12.0002 14H4.00018C3.22578 14 2.5852 13.4079 2.508 12.6533L2.50018 12.5V6.71191C1.65735 6.16473 1.44345 4.93294 2.01483 4.08105L2.62421 3.17188C2.89906 2.75034 3.37648 2.50022 3.86932 2.5H12.1594ZM11.0256 6.31348C10.6595 6.73347 10.1254 6.99997 9.51971 7C8.91301 6.99989 8.3803 6.72899 8.01581 6.31348C7.64977 6.73349 7.11559 6.9999 6.50995 7C5.90357 6.99989 5.37052 6.72959 5.00604 6.31445C4.64007 6.73414 4.1055 6.99885 3.50018 6.99902V12.5L3.50995 12.6006C3.55712 12.8272 3.76069 13 4.00018 13H12.0002C12.2739 12.9999 12.5001 12.7737 12.5002 12.5V6.99805C11.9057 6.98933 11.3842 6.72232 11.0256 6.31348ZM3.86932 3.5C3.70568 3.50023 3.54588 3.58733 3.46014 3.7207L3.45526 3.72852L2.84491 4.63867C2.5026 5.14919 2.7589 5.79664 3.216 5.95312L3.30975 5.97852L3.32831 5.98145C3.37958 5.99283 3.44287 5.99994 3.49921 6C3.9185 6 4.27212 5.74935 4.42792 5.37695C4.63806 4.8686 5.36687 4.8679 5.57928 5.37402C5.73648 5.7431 6.09488 5.99985 6.50995 6C6.87676 5.99988 7.19358 5.80814 7.37128 5.51074L7.43866 5.37695C7.64889 4.86901 8.37546 4.86842 8.58807 5.37402H8.59003C8.74725 5.74304 9.10468 5.99985 9.51971 6C9.88658 5.99997 10.2033 5.80815 10.381 5.51074L10.4484 5.37695C10.6586 4.86895 11.3852 4.86848 11.5978 5.37402H11.5998C11.757 5.74305 12.1145 5.99979 12.5295 6C12.577 6 12.608 5.99957 12.6349 5.99805C12.6555 5.99687 12.6656 5.99555 12.6682 5.99512L12.7004 5.98828C12.7213 5.98449 12.7416 5.97733 12.7619 5.97168C12.8032 5.94919 12.8474 5.93103 12.8947 5.9209C13.2998 5.71137 13.4998 5.11747 13.1848 4.63867L12.5744 3.72852C12.4727 3.58077 12.3145 3.5 12.1594 3.5H3.86932Z" fill="black"/>
</svg>
