<svg width="16" height="16" viewBox="0 0 16 16" fill="none" xmlns="http://www.w3.org/2000/svg">
<path d="M8.33984 4.5C9.17681 4.50008 9.8908 4.93944 10.3916 5.56836C10.5635 5.78433 10.5274 6.09947 10.3115 6.27148C10.0956 6.4432 9.78136 6.40714 9.60938 6.19141C9.25029 5.74046 8.8027 5.50008 8.33984 5.5C7.87708 5.50013 7.43032 5.74058 7.07129 6.19141C6.99642 6.28543 6.92891 6.38939 6.86621 6.5H8C8.27614 6.5 8.5 6.72386 8.5 7C8.5 7.27614 8.27614 7.5 8 7.5H6.52832C6.50415 7.66071 6.49023 7.82769 6.49023 8C6.49023 8.17231 6.50415 8.33929 6.52832 8.5H8C8.27614 8.5 8.5 8.72386 8.5 9C8.5 9.27614 8.27614 9.5 8 9.5H6.86621C6.92891 9.61061 6.99642 9.71457 7.07129 9.80859C7.43032 10.2594 7.87708 10.4999 8.33984 10.5C8.80555 10.4999 9.26034 10.257 9.60547 9.81348C9.77502 9.5956 10.0897 9.55608 10.3076 9.72559C10.5251 9.89519 10.5638 10.209 10.3945 10.4268C9.89979 11.0628 9.17383 11.4999 8.33984 11.5C7.50304 11.4999 6.78983 11.0604 6.28906 10.4316C6.07172 10.1587 5.89678 9.84328 5.76465 9.5H5C4.72386 9.5 4.5 9.27614 4.5 9C4.5 8.72386 4.72386 8.5 5 8.5H5.52148C5.50267 8.3361 5.49023 8.16935 5.49023 8C5.49023 7.83065 5.50267 7.6639 5.52148 7.5H5C4.72386 7.5 4.5 7.27614 4.5 7C4.5 6.72386 4.72386 6.5 5 6.5H5.76465C5.89678 6.15672 6.07172 5.8413 6.28906 5.56836C6.78983 4.93959 7.50304 4.50013 8.33984 4.5Z" fill="black"/>
<path fill-rule="evenodd" clip-rule="evenodd" d="M8 1.5C11.5899 1.5 14.5 4.41015 14.5 8C14.5 11.5899 11.5899 14.5 8 14.5C4.41015 14.5 1.5 11.5899 1.5 8C1.5 4.41015 4.41015 1.5 8 1.5ZM8 2.5C4.96243 2.5 2.5 4.96243 2.5 8C2.5 11.0376 4.96243 13.5 8 13.5C11.0376 13.5 13.5 11.0376 13.5 8C13.5 4.96243 11.0376 2.5 8 2.5Z" fill="black"/>
</svg>
