<svg width="16" height="16" viewBox="0 0 16 16" fill="none" xmlns="http://www.w3.org/2000/svg">
<path fill-rule="evenodd" clip-rule="evenodd" d="M6.0459 4.24126C6.33175 4.09727 6.66825 4.09727 6.9541 4.24126L7.09277 4.32525L7.09961 4.33013L8.80469 5.60552C8.81439 5.61302 8.82477 5.61971 8.83398 5.62798L10.7998 7.09966C10.8066 7.10478 10.8118 7.11181 10.8184 7.11724C10.8369 7.13265 10.854 7.14916 10.8701 7.16705C10.8785 7.17638 10.8869 7.18546 10.8945 7.19537C10.9086 7.21361 10.9211 7.23286 10.9326 7.25298C10.9396 7.26518 10.9463 7.27736 10.9521 7.29009C10.9631 7.31358 10.9713 7.33804 10.9785 7.36334C10.9809 7.37186 10.9844 7.38006 10.9863 7.38873C10.9945 7.42459 11 7.46171 11 7.50005V11.2501C11 11.5539 10.8656 11.8672 10.585 12.0616L10.584 12.0606L7.40039 14.4502C6.86262 14.8536 6.13738 14.8536 5.59961 14.4502L2.41602 12.0606C2.13531 11.8663 2.00001 11.5539 2 11.2501V7.50005C2 7.46179 2.00455 7.42453 2.0127 7.38873C2.01467 7.38007 2.01809 7.37185 2.02051 7.36334C2.02769 7.33809 2.03599 7.31354 2.04688 7.29009C2.05275 7.27737 2.05949 7.26517 2.06641 7.25298C2.07789 7.23288 2.09043 7.2136 2.10449 7.19537C2.11209 7.18547 2.12055 7.17638 2.12891 7.16705C2.14496 7.14916 2.16221 7.13266 2.18066 7.11724C2.18737 7.11164 2.19316 7.10493 2.2002 7.09966L5.90039 4.33013L5.90723 4.32525L6.0459 4.24126ZM3 11.2501L6 13.5001V10.7501L3 8.50005V11.2501ZM7 10.7501V13.5001L10 11.2501V8.50005L7 10.7501ZM5.33301 9.00005L6.5 9.87505L9.66602 7.50005L8.49805 6.62603L5.33301 9.00005ZM6.49316 5.1358L3.33301 7.50005L4.49902 8.37408L7.66309 6.00103L6.50684 5.1358L6.5 5.13287C6.5 5.13287 6.49662 5.13336 6.49316 5.1358Z" fill="black"/>
<path d="M10.1465 2.14654C10.3417 1.95128 10.6583 1.95128 10.8535 2.14654C11.0488 2.3418 11.0488 2.65831 10.8535 2.85357L10.707 3.00005H13C14.1061 3.00005 15 3.89391 15 5.00005C15 6.10617 14.1061 7.00005 13 7.00005H12.5C12.2239 7.00005 12 6.77617 12 6.50005C12 6.22391 12.2239 6.00005 12.5 6.00005H13C13.5538 6.00005 14 5.55389 14 5.00005C14 4.4462 13.5539 4.00005 13 4.00005H10.707L10.8535 4.14654C11.0488 4.3418 11.0488 4.65831 10.8535 4.85357C10.6583 5.04882 10.3417 5.04881 10.1465 4.85357L9.14648 3.85357C9.11231 3.81939 9.08569 3.7806 9.06348 3.74029C9.03909 3.69608 9.01889 3.6488 9.00879 3.59771C8.99599 3.53307 8.99588 3.46604 9.00879 3.40142C9.01898 3.35038 9.03903 3.30299 9.06348 3.25884C9.08563 3.2188 9.11251 3.18051 9.14648 3.14654L10.1465 2.14654Z" fill="black"/>
</svg>
