<svg width="16" height="16" viewBox="0 0 16 16" fill="none" xmlns="http://www.w3.org/2000/svg">
<path d="M11.5362 4.25604C11.7314 4.06099 12.048 4.06118 12.2433 4.25604C14.5885 6.60129 14.5885 10.3981 12.2433 12.7433C9.89801 15.0885 6.1012 15.0885 3.75597 12.7433C1.41111 10.3981 1.41092 6.60119 3.75597 4.25604C3.95108 4.06098 4.26771 4.06126 4.463 4.25604C4.65824 4.45129 4.65821 4.76781 4.463 4.96307C2.50848 6.9177 2.50866 10.0816 4.463 12.0363C6.41771 13.991 9.58151 13.9909 11.5362 12.0363C13.4909 10.0816 13.4909 6.9178 11.5362 4.96307C11.3413 4.76778 11.3411 4.45118 11.5362 4.25604Z" fill="currentColor"/>
<path fill-rule="evenodd" clip-rule="evenodd" d="M8.00011 4.50018C10.2092 4.50024 12.0001 6.29108 12.0001 8.50018C12 10.7092 10.2082 12.5002 7.99913 12.5002C5.79046 12.4997 4.00021 10.7089 4.00011 8.50018C4.00011 6.29104 5.79097 4.50018 8.00011 4.50018ZM5.0421 9.00018C5.21617 10.0371 5.92248 10.8916 6.87022 11.2775C6.50958 10.6084 6.2778 9.83297 6.21104 9.00018H5.0421ZM9.78917 9.00018C9.7224 9.83313 9.48977 10.6083 9.12901 11.2775C10.0771 10.8918 10.783 10.0373 10.9571 9.00018H9.78917ZM7.2169 9.00018C7.29845 9.85214 7.58167 10.6121 7.99913 11.2101C8.41677 10.612 8.70158 9.85227 8.78331 9.00018H7.2169ZM6.87022 5.72089C5.92208 6.10672 5.21609 6.96288 5.0421 8.00018H6.21104C6.2778 7.16675 6.50915 6.39041 6.87022 5.72089ZM7.99913 5.78925C7.58144 6.38748 7.29732 7.14777 7.21593 8.00018H8.78331C8.70171 7.14755 8.41709 6.38756 7.99913 5.78925ZM9.12901 5.72089C9.4902 6.3905 9.7224 7.16659 9.78917 8.00018H10.9571C10.7831 6.96269 10.0774 6.10658 9.12901 5.72089Z" fill="currentColor"/>
<path d="M6.9171 1.17597C7.11295 0.981447 7.42952 0.982221 7.62413 1.17792L8.93761 2.50018H10.7296C11.0056 2.50018 11.2295 2.72417 11.2296 3.00018C11.2294 3.27612 11.0056 3.50018 10.7296 3.50018H5.7296C5.59529 3.50008 5.46614 3.44577 5.37218 3.34979L4.91222 2.88007C4.7193 2.68284 4.72312 2.36619 4.92003 2.17304C5.11739 1.97999 5.43394 1.98353 5.62706 2.18085L5.93956 2.50018H7.52843L6.91515 1.883C6.72076 1.68728 6.72181 1.37061 6.9171 1.17597Z" fill="currentColor"/>
</svg>
