<svg width="16" height="16" viewBox="0 0 16 16" fill="none" xmlns="http://www.w3.org/2000/svg">
<path d="M7.99982 7.49961C8.27584 7.49961 8.49962 7.72365 8.49982 7.99961V8.99961H9.49982C9.77584 8.99961 9.99962 9.22365 9.99982 9.49961C9.99982 9.77575 9.77597 9.99961 9.49982 9.99961H8.49982V10.9996C8.49982 11.2758 8.27597 11.4996 7.99982 11.4996C7.72376 11.4995 7.49982 11.2757 7.49982 10.9996V9.99961H6.49982C6.22376 9.99952 5.99982 9.77569 5.99982 9.49961C6.00003 9.22371 6.22389 8.99971 6.49982 8.99961H7.49982V7.99961C7.50003 7.72371 7.72389 7.49971 7.99982 7.49961Z" fill="black"/>
<path fill-rule="evenodd" clip-rule="evenodd" d="M9.84162 2.525C10.1035 2.43772 10.387 2.57969 10.4744 2.84141L11.3602 5.49961H12.7694C13.7308 5.49961 14.4331 6.38568 14.2391 7.31211V7.31504L13.2488 11.9147C13.0496 12.8312 12.2384 13.4996 11.2899 13.4996H4.71955C3.83343 13.4994 3.0627 12.9243 2.80549 12.0855L2.76057 11.9147L1.77131 7.31504L1.77033 7.31211C1.57644 6.38578 2.27877 5.49973 3.24006 5.49961H4.63947L5.52521 2.84141C5.61262 2.57971 5.89623 2.4379 6.15803 2.525C6.4199 2.6123 6.56156 2.89592 6.47443 3.15781L5.69416 5.49961H10.3055L9.52521 3.15781C9.43817 2.89597 9.57981 2.6123 9.84162 2.525ZM3.24006 6.49961C2.92283 6.49973 2.68546 6.79197 2.74885 7.1041L3.73908 11.7047L3.76154 11.7906C3.89058 12.2129 4.2747 12.4994 4.71955 12.4996H11.2899C11.7612 12.4996 12.1705 12.167 12.2713 11.7037L13.2606 7.1041C13.324 6.79186 13.0867 6.49961 12.7694 6.49961H3.24006Z" fill="black"/>
</svg>
