<svg width="16" height="16" viewBox="0 0 16 16" fill="none" xmlns="http://www.w3.org/2000/svg">
<path d="M8.1463 7.6461C8.34148 7.45103 8.65808 7.45114 8.85333 7.6461L10.3533 9.1461C10.3994 9.19209 10.4363 9.24715 10.4617 9.30821C10.4682 9.3237 10.4716 9.34011 10.4764 9.35606C10.4902 9.40173 10.4998 9.44945 10.4998 9.49961C10.4998 9.54965 10.4901 9.59758 10.4764 9.64317C10.4716 9.65913 10.4681 9.6755 10.4617 9.69102C10.4364 9.75216 10.3994 9.80704 10.3533 9.85313L8.85333 11.3531C8.65807 11.5484 8.34156 11.5484 8.1463 11.3531C7.95131 11.1578 7.95113 10.8413 8.1463 10.6461L8.79279 9.99961H5.99982C5.72376 9.99951 5.49982 9.77569 5.49982 9.49961C5.50002 9.22371 5.72389 8.99971 5.99982 8.99961H8.79279L8.1463 8.35313C7.95131 8.15784 7.95113 7.84127 8.1463 7.6461Z" fill="black"/>
<path fill-rule="evenodd" clip-rule="evenodd" d="M9.84161 2.525C10.1035 2.43772 10.387 2.57969 10.4744 2.84141L11.3602 5.49961H12.7693C13.7308 5.49961 14.4331 6.38568 14.2391 7.31211V7.31504L13.2488 11.9147C13.0496 12.8312 12.2384 13.4996 11.2899 13.4996H4.71954C3.83342 13.4994 3.06269 12.9243 2.80548 12.0855L2.76056 11.9147L1.7713 7.31504L1.77032 7.31211C1.57643 6.38577 2.27876 5.49972 3.24005 5.49961H4.63947L5.52521 2.84141C5.61261 2.57971 5.89622 2.4379 6.15802 2.525C6.4199 2.6123 6.56156 2.89592 6.47443 3.15781L5.69415 5.49961H10.3055L9.52521 3.15781C9.43816 2.89597 9.57981 2.6123 9.84161 2.525ZM3.24005 6.49961C2.92281 6.49972 2.68545 6.79197 2.74884 7.1041L3.73907 11.7047L3.76154 11.7906C3.89057 12.2129 4.27469 12.4994 4.71954 12.4996H11.2899C11.7612 12.4996 12.1704 12.167 12.2713 11.7037L13.2606 7.1041C13.324 6.79186 13.0867 6.49961 12.7693 6.49961H3.24005Z" fill="black"/>
</svg>
