<svg width="16" height="16" viewBox="0 0 16 16" fill="none" xmlns="http://www.w3.org/2000/svg">
<path d="M2 7.50977C2.27606 7.50977 2.49987 7.73374 2.5 8.00977C2.5 9.41186 3.04044 10.8236 4.11328 11.8965C5.1862 12.9694 6.59785 13.5098 8 13.5098C9.40215 13.5098 10.8138 12.9694 11.8867 11.8965C12.0297 11.7536 12.2449 11.7108 12.4316 11.7881C12.6182 11.8655 12.7401 12.048 12.7402 12.25V13.6602C12.74 13.936 12.5161 14.16 12.2402 14.1602C11.9642 14.1602 11.7404 13.9361 11.7402 13.6602V13.3193C10.6213 14.1096 9.30804 14.5098 8 14.5098C6.34215 14.5098 4.67333 13.8706 3.40625 12.6035C2.13925 11.3365 1.5 9.66756 1.5 8.00977C1.50013 7.73374 1.72394 7.50977 2 7.50977Z" fill="black"/>
<path d="M9.5 5C9.77614 5 10 5.22386 10 5.5C10 5.77614 9.77614 6 9.5 6H8.49414C8.71389 6.29113 8.87095 6.63102 8.94727 7H9.5C9.77614 7 10 7.22386 10 7.5C10 7.77614 9.77614 8 9.5 8H8.94922C8.81071 8.674 8.39824 9.24993 7.83496 9.6084L9.72363 10.5527C9.97062 10.6762 10.0708 10.9766 9.94727 11.2236C9.82377 11.4706 9.52336 11.5708 9.27637 11.4473L6.27637 9.94727C6.06896 9.84356 5.96039 9.61045 6.01367 9.38477C6.06709 9.15929 6.26825 9 6.5 9C7.14867 9 7.70451 8.58039 7.91211 8H6.5C6.22386 8 6 7.77614 6 7.5C6 7.22386 6.22386 7 6.5 7H7.91211C7.70451 6.41961 7.14867 6 6.5 6C6.22386 6 6 5.77614 6 5.5C6 5.22386 6.22386 5 6.5 5H9.5Z" fill="black"/>
<path d="M8 1.49023C9.65778 1.49029 11.3267 2.12946 12.5938 3.39648C13.8607 4.66355 14.5 6.33244 14.5 7.99023C14.4999 8.26619 14.276 8.49011 14 8.49023C13.724 8.49011 13.5001 8.26619 13.5 7.99023C13.5 6.58809 12.9587 5.17644 11.8857 4.10352C10.8129 3.0309 9.40191 2.49029 8 2.49023C6.59798 2.49029 5.18613 3.03073 4.11328 4.10352C3.97028 4.24633 3.75509 4.28926 3.56836 4.21191C3.38174 4.13449 3.25986 3.95204 3.25977 3.75V2.33984C3.25997 2.06395 3.48386 1.83997 3.75977 1.83984C4.03578 1.83984 4.25956 2.06388 4.25977 2.33984V2.67871C5.37841 1.88895 6.69245 1.49028 8 1.49023Z" fill="black"/>
</svg>
