<svg width="16" height="16" viewBox="0 0 16 16" fill="none" xmlns="http://www.w3.org/2000/svg">
<path d="M10.147 6.14617C10.3423 5.95131 10.6589 5.95104 10.854 6.14617C11.049 6.3413 11.0488 6.65793 10.854 6.8532L7.85399 9.8532C7.65875 10.0484 7.34223 10.0484 7.14696 9.8532L5.64696 8.3532C5.4517 8.15794 5.4517 7.84143 5.64696 7.64617C5.84225 7.45131 6.15886 7.45104 6.35399 7.64617L7.50047 8.79265L10.147 6.14617Z" fill="currentColor"/>
<path fill-rule="evenodd" clip-rule="evenodd" d="M6.89598 1.97722C7.51124 1.36196 8.50826 1.36196 9.12352 1.97722L9.93309 2.78679C10.0348 2.88847 10.1865 2.94985 10.3403 2.94988H11.4897C12.3558 2.94988 13.06 3.65411 13.06 4.52019V5.67058C13.0602 5.83168 13.1199 5.97352 13.2231 6.07683L14.0337 6.8864C14.6488 7.50165 14.6488 8.4987 14.0337 9.11394L13.2231 9.92351C13.1215 10.0253 13.06 10.177 13.06 10.3307V11.4802C13.0599 12.3462 12.3558 13.0505 11.4897 13.0505H10.3403C10.179 13.0505 10.0365 13.1101 9.93309 13.2136L9.12352 14.0241C8.50827 14.6391 7.51116 14.6392 6.89598 14.0241L6.08641 13.2136C5.98473 13.1119 5.83388 13.0505 5.68016 13.0505H4.52977C3.66382 13.0503 2.95961 12.3461 2.95946 11.4802V10.3307C2.95946 10.1694 2.89976 10.0269 2.79637 9.92351L1.9868 9.11394C1.3716 8.49874 1.37173 7.50168 1.9868 6.8864L2.79637 6.07683C2.898 5.97521 2.95931 5.82426 2.95946 5.67058V4.52019C2.95952 3.65418 3.66377 2.95 4.52977 2.94988H5.68016C5.84135 2.94981 5.98305 2.89005 6.08641 2.78679L6.89598 1.97722ZM8.41649 2.68426C8.19175 2.45952 7.82775 2.45952 7.60301 2.68426L6.79344 3.49383C6.49696 3.79021 6.09857 3.94981 5.68016 3.94988H4.52977C4.21606 3.95 3.95952 4.20646 3.95946 4.52019V5.67058C3.95932 6.07653 3.80152 6.48575 3.5034 6.78386L2.69383 7.59344C2.46929 7.81819 2.46916 8.18224 2.69383 8.40691L3.5034 9.21648C3.79991 9.51304 3.95946 9.91218 3.95946 10.3307V11.4802C3.95961 11.7938 4.21611 12.0503 4.52977 12.0505H5.68016C6.08615 12.0505 6.49527 12.2084 6.79344 12.5065L7.60301 13.3171C7.82767 13.5416 8.19176 13.5415 8.41649 13.3171L9.22606 12.5065C9.5226 12.21 9.92175 12.0505 10.3403 12.0505H11.4897C11.8035 12.0505 12.0599 11.7939 12.06 11.4802V10.3307C12.06 9.92469 12.218 9.51471 12.5161 9.21648L13.3266 8.40691C13.5513 8.1822 13.5513 7.81816 13.3266 7.59344L12.5161 6.78386C12.2197 6.48745 12.0602 6.08894 12.06 5.67058V4.52019C12.06 4.20639 11.8035 3.94988 11.4897 3.94988H10.3403C9.93426 3.94985 9.52428 3.792 9.22606 3.49383L8.41649 2.68426Z" fill="currentColor"/>
</svg>
