<svg width="16" height="16" viewBox="0 0 16 16" fill="none" xmlns="http://www.w3.org/2000/svg">
<path fill-rule="evenodd" clip-rule="evenodd" d="M9.5 1.5C10.6061 1.5 11.5 2.39386 11.5 3.5C11.5 3.86483 11.4015 4.20581 11.2314 4.5H13C13.8284 4.5 14.5 5.17157 14.5 6V7C14.5 7.65281 14.0822 8.20597 13.5 8.41211V12.5C13.5 13.3261 12.8261 14 12 14H4C3.17386 14 2.5 13.3261 2.5 12.5V8.41211C1.91782 8.20597 1.5 7.65281 1.5 7V6C1.5 5.17157 2.17157 4.5 3 4.5H4.76855C4.59854 4.20581 4.5 3.86483 4.5 3.5C4.5 2.39386 5.39386 1.5 6.5 1.5C7.09868 1.5 7.63375 1.76309 8 2.17871C8.36625 1.76309 8.90132 1.5 9.5 1.5ZM3.5 12.5C3.5 12.7739 3.72614 13 4 13H7.5V8.5H3.5V12.5ZM8.5 13H12C12.2739 13 12.5 12.7739 12.5 12.5V8.5H8.5V13ZM3 5.5C2.72386 5.5 2.5 5.72386 2.5 6V7C2.5 7.27614 2.72386 7.5 3 7.5H7.5V5.5H3ZM8.5 7.5H13C13.2761 7.5 13.5 7.27614 13.5 7V6C13.5 5.72386 13.2761 5.5 13 5.5H8.5V7.5ZM6.5 2.5C5.94614 2.5 5.5 2.94614 5.5 3.5C5.5 4.05386 5.94614 4.5 6.5 4.5H7.5V3.5C7.5 2.94614 7.05386 2.5 6.5 2.5ZM9.5 2.5C8.94614 2.5 8.5 2.94614 8.5 3.5V4.5H9.5C10.0539 4.5 10.5 4.05386 10.5 3.5C10.5 2.94614 10.0539 2.5 9.5 2.5Z" fill="black"/>
</svg>
