<svg width="16" height="16" viewBox="0 0 16 16" fill="none" xmlns="http://www.w3.org/2000/svg">
<path fill-rule="evenodd" clip-rule="evenodd" d="M12 2.5C12.8284 2.5 13.5 3.17157 13.5 4V10C13.5 10.8284 12.8284 11.5 12 11.5C11.729 11.5 11.4753 11.4274 11.2559 11.3018L8.5 9.83301V12C8.5 12.8261 7.82614 13.5 7 13.5C6.17386 13.5 5.5 12.8261 5.5 12V9.5H5C3.6239 9.5 2.50006 8.37609 2.5 7C2.50006 5.62391 3.62389 4.5 5 4.5H7.875L11.2559 2.69727C11.4752 2.57173 11.7292 2.5 12 2.5ZM6.5 12C6.5 12.2739 6.72614 12.5 7 12.5C7.27386 12.5 7.5 12.2739 7.5 12V9.5H6.5V12ZM12 3.5C11.7239 3.5 11.5 3.72386 11.5 4V10C11.5 10.2761 11.7239 10.5 12 10.5C12.2761 10.5 12.5 10.2761 12.5 10V4C12.5 3.72386 12.2761 3.5 12 3.5ZM8.23535 5.44141C8.16299 5.47996 8.082 5.5 8 5.5H5C4.17618 5.5 3.50006 6.17619 3.5 7C3.50006 7.8238 4.17618 8.5 5 8.5H8C8.03869 8.5 8.07614 8.50535 8.1123 8.51367L8.12109 8.51465C8.12816 8.51641 8.13461 8.52039 8.1416 8.52246C8.16804 8.53029 8.19336 8.53988 8.21777 8.55176C8.22341 8.55449 8.22982 8.55565 8.23535 8.55859L10.5 9.76465V4.23438L8.23535 5.44141Z" fill="black"/>
</svg>
