<svg width="16" height="16" viewBox="0 0 16 16" fill="none" xmlns="http://www.w3.org/2000/svg">
<path d="M2 10.5C2.27614 10.5 2.5 10.7239 2.5 11V13C2.5 13.2739 2.72614 13.5 3 13.5H5C5.27614 13.5 5.5 13.7239 5.5 14C5.5 14.2761 5.27614 14.5 5 14.5H3C2.17386 14.5 1.5 13.8261 1.5 13V11C1.5 10.7239 1.72386 10.5 2 10.5Z" fill="currentColor"/>
<path d="M14 10.5C14.2761 10.5 14.5 10.7239 14.5 11V13C14.5 13.8261 13.8261 14.5 13 14.5H11C10.7239 14.5 10.5 14.2761 10.5 14C10.5 13.7239 10.7239 13.5 11 13.5H13C13.2739 13.5 13.5 13.2739 13.5 13V11C13.5 10.7239 13.7239 10.5 14 10.5Z" fill="currentColor"/>
<path d="M10 8.5C10.2761 8.5 10.5 8.72386 10.5 9C10.5 9.27614 10.2761 9.5 10 9.5H9C8.72386 9.5 8.5 9.27614 8.5 9C8.5 8.72386 8.72386 8.5 9 8.5H10Z" fill="currentColor"/>
<path fill-rule="evenodd" clip-rule="evenodd" d="M11 4.5C11.8284 4.5 12.5 5.17157 12.5 6V10C12.5 10.8284 11.8284 11.5 11 11.5H5C4.17157 11.5 3.5 10.8284 3.5 10V6C3.5 5.17157 4.17157 4.5 5 4.5H11ZM4.5 10C4.5 10.2761 4.72386 10.5 5 10.5H11C11.2761 10.5 11.5 10.2761 11.5 10V7.5H4.5V10ZM5 5.5C4.72386 5.5 4.5 5.72386 4.5 6V6.5H11.5V6C11.5 5.72386 11.2761 5.5 11 5.5H5Z" fill="currentColor"/>
<path d="M5 1.5C5.27614 1.5 5.5 1.72386 5.5 2C5.5 2.27614 5.27614 2.5 5 2.5H3C2.72614 2.5 2.5 2.72614 2.5 3V5C2.5 5.27614 2.27614 5.5 2 5.5C1.72386 5.5 1.5 5.27614 1.5 5V3C1.5 2.17386 2.17386 1.5 3 1.5H5Z" fill="currentColor"/>
<path d="M13 1.5C13.8261 1.5 14.5 2.17386 14.5 3V5C14.5 5.27614 14.2761 5.5 14 5.5C13.7239 5.5 13.5 5.27614 13.5 5V3C13.5 2.72614 13.2739 2.5 13 2.5H11C10.7239 2.5 10.5 2.27614 10.5 2C10.5 1.72386 10.7239 1.5 11 1.5H13Z" fill="currentColor"/>
</svg>
