<svg width="16" height="16" viewBox="0 0 16 16" fill="none" xmlns="http://www.w3.org/2000/svg">
<path d="M10 9C10.2761 9 10.5 9.22386 10.5 9.5C10.5 9.77614 10.2761 10 10 10H6C5.72386 10 5.5 9.77614 5.5 9.5C5.5 9.22386 5.72386 9 6 9H10Z" fill="currentColor"/>
<path fill-rule="evenodd" clip-rule="evenodd" d="M10.9697 2C11.4104 2 11.8188 2.19823 12.1006 2.52246L12.2139 2.66895L12.2168 2.67285L13.665 4.85254C13.7565 4.98968 13.8298 5.13924 13.8848 5.2959C13.9003 5.33032 13.9125 5.36626 13.9199 5.4043C13.9715 5.58302 14 5.76985 14 5.95996V12.5098C14 13.3359 13.3261 14.0098 12.5 14.0098H3.5C2.72553 14.0098 2.08492 13.4178 2.00781 12.6631L2 12.5098V5.95996C2 5.77505 2.02787 5.59253 2.07812 5.41699C2.08606 5.36965 2.10085 5.32504 2.12109 5.2832C2.17471 5.13483 2.24444 4.99264 2.3291 4.86035L2.33398 4.85352L3.7832 2.67285C4.05805 2.25032 4.53669 2 5.03027 2H10.9697ZM3 6V12.5098L3.00977 12.6104C3.05685 12.837 3.26042 13.0098 3.5 13.0098H12.5C12.7739 13.0098 13 12.7836 13 12.5098V6H3ZM5.03027 3C4.86638 3 4.70596 3.08717 4.62012 3.2207L4.61621 3.22656L3.43652 5H7.5V3H5.03027ZM8.5 5H12.5635L11.3867 3.23047L11.3457 3.17773C11.2452 3.06196 11.1064 3 10.9697 3H8.5V5Z" fill="currentColor"/>
</svg>
