<svg width="16" height="16" viewBox="0 0 16 16" fill="none" xmlns="http://www.w3.org/2000/svg">
<path d="M9.64648 5.14648C9.84175 4.95124 10.1583 4.95124 10.3535 5.14648C10.5488 5.34174 10.5488 5.65825 10.3535 5.85352L9.70703 6.5H12.5C12.7761 6.5 13 6.72386 13 7C13 7.27614 12.7761 7.5 12.5 7.5H9.70703L10.3535 8.14648C10.5488 8.34174 10.5488 8.65825 10.3535 8.85352C10.1583 9.04878 9.84175 9.04878 9.64648 8.85352L8.14648 7.35352C8.1123 7.31933 8.08569 7.28055 8.06348 7.24023C8.03909 7.19602 8.01889 7.14875 8.00879 7.09766C7.996 7.03302 7.99587 6.96599 8.00879 6.90137C8.01898 6.85033 8.03903 6.80293 8.06348 6.75879C8.08563 6.71876 8.11252 6.68045 8.14648 6.64648L9.64648 5.14648Z" fill="currentColor"/>
<path fill-rule="evenodd" clip-rule="evenodd" d="M13.5 3C14.3261 3 15 3.67386 15 4.5V10.5C15 11.3261 14.3261 12 13.5 12H12.9346C12.7123 12.8623 11.9317 13.5 11 13.5C10.0683 13.5 9.28765 12.8623 9.06543 12H6.93457C6.71235 12.8623 5.93171 13.5 5 13.5C4.06482 13.5 3.28233 12.8574 3.06348 11.9902H2.5C1.67394 11.9902 1.00013 11.3163 1 10.4902V9.11035C1 8.55391 1.31421 8.02846 1.82617 7.77246L3 7.18945V5.5C3 4.67386 3.67386 4 4.5 4H6.08789C6.29476 3.41872 6.84926 3 7.5 3H13.5ZM5 10.5C4.44772 10.5 4 10.9477 4 11.5C4 12.0523 4.44772 12.5 5 12.5C5.55228 12.5 6 12.0523 6 11.5C6 10.9477 5.55228 10.5 5 10.5ZM11 10.5C10.4477 10.5 10 10.9477 10 11.5C10 12.0523 10.4477 12.5 11 12.5C11.5523 12.5 12 12.0523 12 11.5C12 10.9477 11.5523 10.5 11 10.5ZM7.5 4C7.22614 4 7 4.22614 7 4.5V11H9.06543C9.28765 10.1377 10.0683 9.5 11 9.5C11.9317 9.5 12.7123 10.1377 12.9346 11H13.5C13.7739 11 14 10.7739 14 10.5V4.5C14 4.22614 13.7739 4 13.5 4H7.5ZM4.5 5C4.22614 5 4 5.22614 4 5.5V7.5C4 7.68986 3.89269 7.86378 3.72266 7.94824L2.27246 8.66797L2.27148 8.66699C2.10441 8.75131 2 8.9274 2 9.11035V10.4902C2.00013 10.764 2.22622 10.9902 2.5 10.9902H3.06836C3.294 10.1329 4.07185 9.5 5 9.5C5.36464 9.5 5.70563 9.59906 6 9.76953V5H4.5Z" fill="currentColor"/>
</svg>
