<svg width="16" height="16" viewBox="0 0 16 16" fill="none" xmlns="http://www.w3.org/2000/svg">
<path d="M9 12.5C9.27614 12.5 9.5 12.7239 9.5 13C9.5 13.2761 9.27614 13.5 9 13.5H3C2.72386 13.5 2.5 13.2761 2.5 13C2.5 12.7239 2.72386 12.5 3 12.5H9Z" fill="currentColor"/>
<path d="M13 12.5C13.2761 12.5 13.5 12.7239 13.5 13C13.5 13.2761 13.2761 13.5 13 13.5H11C10.7239 13.5 10.5 13.2761 10.5 13C10.5 12.7239 10.7239 12.5 11 12.5H13Z" fill="currentColor"/>
<path fill-rule="evenodd" clip-rule="evenodd" d="M9.5 2.5C9.77614 2.5 10 2.72386 10 3V4.5H11C11.2761 4.5 11.5 4.72386 11.5 5V6.5H14C14.154 6.5 14.2998 6.57102 14.3945 6.69238C14.4891 6.81364 14.5226 6.9719 14.4854 7.12109L13.6406 10.5H14C14.2761 10.5 14.5 10.7239 14.5 11C14.5 11.2761 14.2761 11.5 14 11.5H8C7.72386 11.5 7.5 11.2761 7.5 11C7.5 10.7239 7.72386 10.5 8 10.5H12.6094L13.3594 7.5H3.5V10.5H6C6.27614 10.5 6.5 10.7239 6.5 11C6.5 11.2761 6.27614 11.5 6 11.5H2C1.72386 11.5 1.5 11.2761 1.5 11C1.5 10.7239 1.72386 10.5 2 10.5H2.5V7C2.5 6.72386 2.72386 6.5 3 6.5H4.5V5C4.5 4.72386 4.72386 4.5 5 4.5H6V3C6 2.72386 6.22386 2.5 6.5 2.5H9.5ZM5.5 6.5H10.5V5.5H5.5V6.5ZM7 4.5H9V3.5H7V4.5Z" fill="currentColor"/>
<path d="M7 8.5C7.27614 8.5 7.5 8.72386 7.5 9C7.5 9.27614 7.27614 9.5 7 9.5C6.72386 9.5 6.5 9.27614 6.5 9C6.5 8.72386 6.72386 8.5 7 8.5Z" fill="currentColor"/>
<path d="M9 8.5C9.27614 8.5 9.5 8.72386 9.5 9C9.5 9.27614 9.27614 9.5 9 9.5C8.72386 9.5 8.5 9.27614 8.5 9C8.5 8.72386 8.72386 8.5 9 8.5Z" fill="currentColor"/>
<path d="M11 8.5C11.2761 8.5 11.5 8.72386 11.5 9C11.5 9.27614 11.2761 9.5 11 9.5C10.7239 9.5 10.5 9.27614 10.5 9C10.5 8.72386 10.7239 8.5 11 8.5Z" fill="currentColor"/>
</svg>
