<svg width="16" height="16" viewBox="0 0 16 16" fill="none" xmlns="http://www.w3.org/2000/svg">
<path d="M4.05371 8.25277C4.20685 8.02306 4.51732 7.96106 4.74707 8.1141L6.06738 8.99398C6.29695 9.14715 6.35901 9.45765 6.20605 9.68734C6.05287 9.9169 5.74238 9.97902 5.5127 9.82602L4.19238 8.94613C3.96281 8.79296 3.90074 8.48246 4.05371 8.25277Z" fill="black"/>
<path fill-rule="evenodd" clip-rule="evenodd" d="M7.53711 1.54672C7.85867 1.37337 8.2501 1.39548 8.55176 1.59066L10.915 3.16781C10.9212 3.1717 10.9275 3.17536 10.9336 3.17953L13.5781 4.94418C13.7169 5.03699 13.7998 5.19324 13.7998 5.36019C13.7998 5.40543 13.792 5.44945 13.7803 5.49203V10.3807C13.78 10.7006 13.629 11.0232 13.3369 11.2147L13.3379 11.2166L8.75781 14.2762C8.31929 14.5685 7.76546 14.5865 7.3125 14.3309L7.22266 14.2762L2.64258 11.2166C2.63836 11.2138 2.634 11.2099 2.62988 11.2069C2.36434 11.0172 2.20043 10.7187 2.2002 10.3807V5.35043C2.2002 5.34436 2.20096 5.3379 2.20117 5.33187C2.2021 5.31545 2.20354 5.29915 2.20605 5.28305C2.22964 5.10737 2.34318 4.96107 2.5 4.89242L7.44238 1.59457C7.47195 1.57485 7.50438 1.55965 7.53711 1.54672ZM3.2002 10.3836L3.20117 10.3856C3.20117 10.3856 3.20453 10.3884 3.20703 10.3905L7.5 13.2586V9.15805L3.2002 6.29379V10.3836ZM8.5 9.15805V13.245L12.7783 10.3866C12.7783 10.3866 12.7801 10.383 12.7803 10.3807V6.30648L8.5 9.15805ZM6.24805 7.12094L8 8.28793L12.3984 5.35922L10.6475 4.19027L6.24805 7.12094ZM7.94434 2.46078L3.60156 5.35922L5.3457 6.52035L9.74707 3.58969L8.00879 2.42953L8.00195 2.42758C7.98327 2.43974 7.96432 2.45128 7.94434 2.46078Z" fill="black"/>
</svg>
