<svg width="16" height="16" viewBox="0 0 16 16" fill="none" xmlns="http://www.w3.org/2000/svg">
<path d="M8.14648 7.64648C8.34175 7.45122 8.65825 7.45122 8.85352 7.64648L10.3535 9.14648C10.3874 9.18034 10.4134 9.21891 10.4355 9.25879C10.4601 9.30299 10.48 9.35024 10.4902 9.40137C10.5032 9.46611 10.5031 9.5329 10.4902 9.59766C10.4801 9.64884 10.46 9.69596 10.4355 9.74023C10.4134 9.7804 10.3876 9.81945 10.3535 9.85352L8.85352 11.3535C8.65826 11.5488 8.34175 11.5488 8.14648 11.3535C7.95122 11.1583 7.95122 10.8417 8.14648 10.6465L8.79297 10H6C5.72386 10 5.5 9.77614 5.5 9.5C5.5 9.22386 5.72386 9 6 9H8.79297L8.14648 8.35352C7.95122 8.15825 7.95122 7.84175 8.14648 7.64648Z" fill="currentColor"/>
<path fill-rule="evenodd" clip-rule="evenodd" d="M8 1.5C9.37614 1.5 10.5 2.62386 10.5 4V4.5H12C12.8284 4.5 13.5 5.17157 13.5 6V13C13.5 13.8284 12.8284 14.5 12 14.5H4C3.17157 14.5 2.5 13.8284 2.5 13V6C2.5 5.17157 3.17157 4.5 4 4.5H5.5V4C5.5 2.62386 6.62386 1.5 8 1.5ZM4 5.5C3.72386 5.5 3.5 5.72386 3.5 6V13C3.5 13.2761 3.72386 13.5 4 13.5H12C12.2761 13.5 12.5 13.2761 12.5 13V6C12.5 5.72386 12.2761 5.5 12 5.5H10.5V6C10.5 6.27614 10.2761 6.5 10 6.5C9.72386 6.5 9.5 6.27614 9.5 6V5.5H6.5V6C6.5 6.27614 6.27614 6.5 6 6.5C5.72386 6.5 5.5 6.27614 5.5 6V5.5H4ZM8 2.5C7.17614 2.5 6.5 3.17614 6.5 4V4.5H9.5V4C9.5 3.17614 8.82386 2.5 8 2.5Z" fill="currentColor"/>
</svg>
