<svg width="16" height="16" viewBox="0 0 16 16" fill="none" xmlns="http://www.w3.org/2000/svg">
<path fill-rule="evenodd" clip-rule="evenodd" d="M8.0002 7.5C9.10468 7.5001 10.0002 8.39549 10.0002 9.5C10.0002 9.87059 9.89657 10.2161 9.7209 10.5137L10.3537 11.1465C10.5485 11.3417 10.5487 11.6584 10.3537 11.8535C10.1586 12.0486 9.84198 12.0484 9.64668 11.8535L9.01387 11.2207C8.71628 11.3964 8.37081 11.5 8.0002 11.5C6.89563 11.5 6.0002 10.6046 6.0002 9.5C6.0002 8.39543 6.89563 7.5 8.0002 7.5ZM8.0002 8.5C7.44791 8.5 7.0002 8.94772 7.0002 9.5C7.0002 10.0523 7.44791 10.5 8.0002 10.5C8.5524 10.4999 9.0002 10.0522 9.0002 9.5C9.0002 8.94778 8.5524 8.5001 8.0002 8.5Z" fill="currentColor"/>
<path fill-rule="evenodd" clip-rule="evenodd" d="M12.1594 2.5C12.6 2.5 13.0085 2.69834 13.2902 3.02246L13.4035 3.16895L13.4045 3.17188L14.0148 4.08203L14.0168 4.08398C14.5913 4.95144 14.3607 6.18923 13.5002 6.73047V12.5C13.5001 13.326 12.8262 13.9999 12.0002 14H4.0002C3.2258 14 2.58522 13.4079 2.50801 12.6533L2.5002 12.5V6.71191C1.65736 6.16473 1.44347 4.93294 2.01485 4.08105L2.62422 3.17188C2.89907 2.75034 3.3765 2.50022 3.86934 2.5H12.1594ZM11.0256 6.31348C10.6595 6.73347 10.1254 6.99997 9.51973 7C8.91303 6.99989 8.38031 6.72899 8.01582 6.31348C7.64979 6.73349 7.1156 6.9999 6.50996 7C5.90359 6.99989 5.37053 6.72959 5.00606 6.31445C4.64009 6.73414 4.10551 6.99885 3.5002 6.99902V12.5L3.50996 12.6006C3.55714 12.8272 3.7607 13 4.0002 13H12.0002C12.2739 12.9999 12.5001 12.7737 12.5002 12.5V6.99805C11.9057 6.98933 11.3842 6.72232 11.0256 6.31348ZM3.86934 3.5C3.70569 3.50023 3.5459 3.58733 3.46016 3.7207L3.45528 3.72852L2.84493 4.63867C2.50262 5.14919 2.75892 5.79664 3.21602 5.95312L3.30977 5.97852L3.32832 5.98145C3.37959 5.99283 3.44289 5.99994 3.49922 6C3.91852 6 4.27214 5.74935 4.42793 5.37695C4.63808 4.8686 5.36688 4.8679 5.5793 5.37402C5.7365 5.7431 6.09489 5.99985 6.50996 6C6.87677 5.99988 7.19359 5.80814 7.37129 5.51074L7.43868 5.37695C7.6489 4.86901 8.37547 4.86842 8.58809 5.37402H8.59004C8.74726 5.74304 9.1047 5.99985 9.51973 6C9.8866 5.99997 10.2033 5.80815 10.3811 5.51074L10.4484 5.37695C10.6586 4.86895 11.3852 4.86848 11.5979 5.37402H11.5998C11.757 5.74305 12.1145 5.99979 12.5295 6C12.577 6 12.608 5.99957 12.635 5.99805C12.6555 5.99687 12.6656 5.99555 12.6682 5.99512L12.7004 5.98828C12.7213 5.98449 12.7417 5.97733 12.7619 5.97168C12.8032 5.94919 12.8474 5.93103 12.8947 5.9209C13.2998 5.71137 13.4998 5.11747 13.1848 4.63867L12.5744 3.72852C12.4728 3.58077 12.3145 3.5 12.1594 3.5H3.86934Z" fill="currentColor"/>
</svg>
