<svg width="16" height="16" viewBox="0 0 16 16" fill="none" xmlns="http://www.w3.org/2000/svg">
<path fill-rule="evenodd" clip-rule="evenodd" d="M2.7002 2C3.36107 2.00009 3.94114 2.43408 4.13477 3.05664L4.16895 3.18359V3.18652L4.3418 4H12.0801C12.8809 4.00005 13.4598 4.7334 13.3105 5.49609V5.49805L12.6504 8.79785C12.5134 9.49319 11.8965 10 11.1797 10H5.5V11H11.5C12.3284 11 13 11.6716 13 12.5C13 13.3284 12.3284 14 11.5 14C10.6716 14 10 13.3284 10 12.5C10 12.3245 10.0315 12.1565 10.0869 12H6.41309C6.46847 12.1565 6.5 12.3245 6.5 12.5C6.5 13.3284 5.82843 14 5 14C4.17157 14 3.5 13.3284 3.5 12.5C3.5 11.8471 3.91766 11.293 4.5 11.0869V9.55273L3.46289 4.67383C3.44603 4.62855 3.43564 4.58067 3.43262 4.53027L3.19141 3.39551C3.14141 3.16552 2.93501 3.00009 2.7002 3H2C1.72386 3 1.5 2.77614 1.5 2.5C1.5 2.22386 1.72386 2 2 2H2.7002ZM5 12C4.72386 12 4.5 12.2239 4.5 12.5C4.5 12.7761 4.72386 13 5 13C5.27614 13 5.5 12.7761 5.5 12.5C5.5 12.2239 5.27614 12 5 12ZM11.5 12C11.2239 12 11 12.2239 11 12.5C11 12.7761 11.2239 13 11.5 13C11.7761 13 12 12.7761 12 12.5C12 12.2239 11.7761 12 11.5 12ZM5.40527 9H11.1797C11.4222 9 11.6252 8.82723 11.6689 8.60352L11.6699 8.60156L12.3291 5.30371C12.3597 5.14654 12.2391 5.00005 12.0801 5H4.55469L5.40527 9Z" fill="currentColor"/>
</svg>
