<svg width="16" height="16" viewBox="0 0 16 16" fill="none" xmlns="http://www.w3.org/2000/svg">
<path fill-rule="evenodd" clip-rule="evenodd" d="M7.99969 1.5C9.37583 1.5 10.4997 2.62386 10.4997 4V4.5H11.6003C12.3213 4.50017 12.9181 5.00611 13.0632 5.69238L13.0866 5.83203V5.83496L13.8669 12.8311L13.8766 12.9961C13.8841 13.8137 13.2223 14.5 12.3796 14.5H3.61004C2.72596 14.4999 2.0204 13.7248 2.12372 12.835L2.90301 5.83496C2.9816 5.06605 3.63135 4.50004 4.39032 4.5H5.49969V4C5.49969 2.62396 6.62369 1.50017 7.99969 1.5ZM4.39032 5.5C4.13152 5.50004 3.92158 5.69076 3.89715 5.93848V5.94531L3.11688 12.9453V12.9492C3.08282 13.2376 3.31556 13.4999 3.61004 13.5H12.3796C12.6806 13.5 12.9081 13.241 12.8737 12.9492L12.8727 12.9453L12.0934 5.94824L12.0739 5.85352C12.0093 5.64143 11.8196 5.50016 11.6003 5.5H10.4997V6C10.4997 6.27614 10.2758 6.5 9.99969 6.5C9.72369 6.49984 9.49969 6.27604 9.49969 6V5.5H6.49969V6C6.49969 6.27614 6.27583 6.5 5.99969 6.5C5.72369 6.49984 5.49969 6.27604 5.49969 6V5.5H4.39032ZM7.99969 2.5C7.17597 2.50017 6.49969 3.17624 6.49969 4V4.5H9.49969V4C9.49969 3.17614 8.82355 2.5 7.99969 2.5Z" fill="currentColor"/>
</svg>
