<svg width="16" height="16" viewBox="0 0 16 16" fill="none" xmlns="http://www.w3.org/2000/svg">
<path fill-rule="evenodd" clip-rule="evenodd" d="M5.5 6C6.32843 6 7 6.67157 7 7.5C7 8.32843 6.32843 9 5.5 9C4.67157 9 4 8.32843 4 7.5C4 6.67157 4.67157 6 5.5 6ZM5.5 7C5.22386 7 5 7.22386 5 7.5C5 7.77614 5.22386 8 5.5 8C5.77614 8 6 7.77614 6 7.5C6 7.22386 5.77614 7 5.5 7Z" fill="black"/>
<path fill-rule="evenodd" clip-rule="evenodd" d="M7.87988 2C8.414 2 8.92125 2.21422 9.29395 2.58691L14.1436 7.43652C14.7288 8.02179 14.7288 8.96846 14.1436 9.55371L9.55371 14.1436C8.96846 14.7288 8.02179 14.7288 7.43652 14.1436L2.58691 9.29395C2.21422 8.92125 2 8.414 2 7.87988V5.5C2 4.67386 2.67386 4 3.5 4H4V3.5C4 2.67386 4.67386 2 5.5 2H7.87988ZM3.5 5C3.22614 5 3 5.22614 3 5.5V7.87988C3 8.14577 3.10664 8.39961 3.29395 8.58691L8.14355 13.4365C8.3383 13.6312 8.65196 13.6312 8.84668 13.4365L11.4365 10.8467C11.6312 10.652 11.6312 10.3383 11.4365 10.1436L6.58691 5.29395C6.39961 5.10664 6.14577 5 5.87988 5H3.5ZM5.5 3C5.22614 3 5 3.22614 5 3.5V4H5.87988C6.414 4 6.92125 4.21422 7.29395 4.58691L12.1436 9.43652C12.2668 9.55981 12.3623 9.70003 12.4336 9.84863L13.4365 8.84668C13.6312 8.65196 13.6312 8.3383 13.4365 8.14355L8.58691 3.29395C8.39961 3.10664 8.14577 3 7.87988 3H5.5Z" fill="black"/>
</svg>
