<svg width="16" height="16" viewBox="0 0 16 16" fill="none" xmlns="http://www.w3.org/2000/svg">
<path fill-rule="evenodd" clip-rule="evenodd" d="M8 4.5C8.27614 4.5 8.5 4.72386 8.5 5V5.5H10C10.2761 5.5 10.5 5.72386 10.5 6C10.5 6.27614 10.2761 6.5 10 6.5H8.5V7.5H9C9.82614 7.5 10.5 8.17386 10.5 9C10.5 9.82614 9.82614 10.5 9 10.5H8.5V11C8.5 11.2761 8.27614 11.5 8 11.5C7.72386 11.5 7.5 11.2761 7.5 11V10.5H6C5.72386 10.5 5.5 10.2761 5.5 10C5.5 9.72386 5.72386 9.5 6 9.5H7.5V8.5H7C6.17386 8.5 5.5 7.82614 5.5 7C5.5 6.17386 6.17386 5.5 7 5.5H7.5V5C7.5 4.72386 7.72386 4.5 8 4.5ZM8.5 9.5H9C9.27386 9.5 9.5 9.27386 9.5 9C9.5 8.72614 9.27386 8.5 9 8.5H8.5V9.5ZM7 6.5C6.72614 6.5 6.5 6.72614 6.5 7C6.5 7.27386 6.72614 7.5 7 7.5H7.5V6.5H7Z" fill="currentColor"/>
<path fill-rule="evenodd" clip-rule="evenodd" d="M13 3C13.8261 3 14.5 3.67386 14.5 4.5V5.70996C14.5 6.17717 14.1261 6.45091 13.8018 6.51172C13.795 6.51298 13.788 6.51367 13.7812 6.51465C13.0559 6.61941 12.5 7.24999 12.5 8C12.5 8.74792 13.0641 9.38063 13.7822 9.48535C14.1436 9.53471 14.5 9.8283 14.5 10.29V11.5C14.5 12.3261 13.8261 13 13 13H3C2.17386 13 1.5 12.3261 1.5 11.5V10.29C1.5 9.82283 1.87392 9.54909 2.19824 9.48828L2.21875 9.48535C2.94406 9.38059 3.5 8.75001 3.5 8C3.5 7.25208 2.93589 6.61937 2.21777 6.51465C1.85679 6.46485 1.5 6.17124 1.5 5.70996V4.5C1.5 3.67386 2.17386 3 3 3H13ZM3 4C2.72614 4 2.5 4.22614 2.5 4.5V5.55176C3.63461 5.78419 4.5 6.79638 4.5 8C4.5 9.20171 3.64528 10.2148 2.5 10.4473V11.5C2.5 11.7739 2.72614 12 3 12H13C13.2739 12 13.5 11.7739 13.5 11.5V10.4473C12.3655 10.2148 11.5 9.20355 11.5 8C11.5 6.79822 12.3546 5.78413 13.5 5.55176V4.5C13.5 4.22614 13.2739 4 13 4H3Z" fill="currentColor"/>
</svg>
