<svg width="16" height="16" viewBox="0 0 16 16" fill="none" xmlns="http://www.w3.org/2000/svg">
<path fill-rule="evenodd" clip-rule="evenodd" d="M13 2.5C13.8284 2.5 14.5 3.17157 14.5 4V12C14.5 12.8284 13.8284 13.5 13 13.5H3C2.17157 13.5 1.5 12.8284 1.5 12V4C1.5 3.17157 2.17157 2.5 3 2.5H13ZM2.5 12C2.5 12.2761 2.72386 12.5 3 12.5H13C13.2761 12.5 13.5 12.2761 13.5 12V7.5H9.93945C9.71514 8.36194 8.93669 9 8 9C7.06331 9 6.28486 8.36194 6.06055 7.5H2.5V12ZM2.5 6.5H6.23047C6.65624 6.50024 6.95116 6.82711 7.00977 7.17871H7.01172C7.09874 7.64721 7.50639 8 8 8C8.49361 8 8.90126 7.64721 8.98828 7.17871L8.98926 7.17188C9.05069 6.86473 9.31129 6.50025 9.76953 6.5H13.5V5.5H2.5V6.5ZM3 3.5C2.72386 3.5 2.5 3.72386 2.5 4V4.5H13.5V4C13.5 3.72386 13.2761 3.5 13 3.5H3Z" fill="currentColor"/>
</svg>
