<svg width="16" height="16" viewBox="0 0 16 16" fill="none" xmlns="http://www.w3.org/2000/svg">
<path d="M11 10.9995C11.2798 10.9995 11.4998 11.2197 11.5 11.4995V12.9995H13C13.2798 12.9995 13.4998 13.2197 13.5 13.4995C13.5 13.7795 13.28 13.9995 13 13.9995H3C2.72 13.9995 2.5 13.7795 2.5 13.4995C2.50025 13.2197 2.72016 12.9995 3 12.9995H4.5V11.4995C4.50025 11.2197 4.72016 10.9995 5 10.9995H11Z" fill="currentColor"/>
<path d="M8.63965 2.63038C8.83965 2.43038 9.14961 2.43038 9.34961 2.63038L11.3496 4.63038C11.5496 4.83038 11.5496 5.14034 11.3496 5.34034L9.7002 6.98975L13.3496 10.6401C13.5496 10.8401 13.5496 11.1501 13.3496 11.3501C13.2596 11.4499 13.1199 11.4995 13 11.4995C12.8801 11.4995 12.7504 11.4499 12.6504 11.3501L9 7.69971L7.34961 9.3501C7.25961 9.44994 7.1199 9.49951 7 9.49952C6.8801 9.49952 6.75036 9.44994 6.65039 9.3501L6.63965 9.34034L4.63965 7.34034C4.43977 7.14046 4.44001 6.83039 4.63965 6.63038L8.63965 2.63038Z" fill="currentColor"/>
</svg>
