<svg width="16" height="16" viewBox="0 0 16 16" fill="none" xmlns="http://www.w3.org/2000/svg">
<path fill-rule="evenodd" clip-rule="evenodd" d="M8.5 3.5C9.05 3.5 9.5 3.95 9.5 4.5V10C9.5 10.28 9.72 10.5 10 10.5C10.28 10.5 10.5 10.28 10.5 10V4.5H11.5C12.05 4.5 12.5 4.95 12.5 5.5V7.5L13.9502 8.21973V8.23047C14.29 8.40052 14.5 8.74024 14.5 9.12012V10.5C14.5 11.05 14.05 11.5 13.5 11.5H12.5C12.5 12.33 11.83 13 11 13C10.17 13 9.5 12.33 9.5 11.5H6.5C6.5 12.33 5.83 13 5 13C4.17 13 3.5 12.33 3.5 11.5H2.5C1.95 11.5 1.5 11.05 1.5 10.5V4.5C1.5 3.95 1.95 3.5 2.5 3.5H8.5ZM6.36035 5.62988C6.16043 5.42996 5.8504 5.43012 5.65039 5.62988C5.45039 5.82988 5.45039 6.13984 5.65039 6.33984L6.2998 6.99023H3.50977C3.22988 6.99036 3.00977 7.21032 3.00977 7.49023C3.00989 7.77004 3.22996 7.99011 3.50977 7.99023H6.2998L5.65039 8.63965C5.45039 8.83964 5.4504 9.14961 5.65039 9.34961C5.74039 9.44961 5.88 9.5 6 9.5C6.12 9.5 6.24961 9.44961 6.34961 9.34961L7.84961 7.84961L7.86035 7.83008C7.91023 7.79009 7.93977 7.72984 7.96973 7.66992C8.01973 7.54992 8.01973 7.41004 7.96973 7.29004C7.94027 7.23118 7.8633 7.13358 7.86035 7.12988L6.36035 5.62988Z" fill="currentColor"/>
</svg>
