<svg width="16" height="16" viewBox="0 0 16 16" fill="none" xmlns="http://www.w3.org/2000/svg">
<path d="M9 9.5C9.28 9.5 9.5 9.28 9.5 9C9.5 8.72 9.28 8.5 9 8.5H8.5V9.5H9Z" fill="black"/>
<path d="M6.5 7C6.5 7.28 6.72 7.5 7 7.5H7.5V6.5H7C6.72 6.5 6.5 6.72 6.5 7Z" fill="black"/>
<path d="M8 2C4.69 2 2 4.69 2 8C2 11.31 4.69 14 8 14C11.31 14 14 11.31 14 8C14 4.69 11.31 2 8 2ZM9 7.5C9.83 7.5 10.5 8.17 10.5 9C10.5 9.83 9.83 10.5 9 10.5H8.5V11C8.5 11.28 8.28 11.5 8 11.5C7.72 11.5 7.5 11.28 7.5 11V10.5H6C5.72 10.5 5.5 10.28 5.5 10C5.5 9.72 5.72 9.5 6 9.5H7.5V8.5H7C6.17 8.5 5.5 7.83 5.5 7C5.5 6.17 6.17 5.5 7 5.5H7.5V5C7.5 4.72 7.72 4.5 8 4.5C8.28 4.5 8.5 4.72 8.5 5V5.5H10C10.28 5.5 10.5 5.72 10.5 6C10.5 6.28 10.28 6.5 10 6.5H8.5V7.5H9Z" fill="black"/>
</svg>
