<svg width="16" height="16" viewBox="0 0 16 16" fill="none" xmlns="http://www.w3.org/2000/svg">
<path fill-rule="evenodd" clip-rule="evenodd" d="M13.5 5C14.05 5 14.5 5.45 14.5 6V12C14.5 12.55 14.05 13 13.5 13H4.5C3.95 13 3.5 12.55 3.5 12V6C3.5 5.45 3.95 5 4.5 5H13.5ZM5.5 10.5C5.22 10.5 5 10.72 5 11C5 11.28 5.22 11.5 5.5 11.5H12.5C12.78 11.5 13 11.28 13 11C13 10.72 12.78 10.5 12.5 10.5H5.5ZM5.5 6.5C5.22 6.5 5 6.72 5 7C5 7.28 5.22 7.5 5.5 7.5H7.5C7.78 7.5 8 7.28 8 7C8 6.72 7.78 6.5 7.5 6.5H5.5Z" fill="black"/>
<path d="M11.5 3C12.05 3 12.5 3.45 12.5 4H3.5C2.95 4 2.5 4.45 2.5 5V11.5C1.95 11.5 1.5 11.05 1.5 10.5V4C1.5 3.45 1.95 3 2.5 3H11.5Z" fill="black"/>
</svg>
