<svg width="16" height="16" viewBox="0 0 16 16" fill="none" xmlns="http://www.w3.org/2000/svg">
<path fill-rule="evenodd" clip-rule="evenodd" d="M5.53007 2.84006C5.62005 2.57011 5.9 2.42986 6.15995 2.51974C6.4298 2.60969 6.56996 2.88975 6.48026 3.14963L5.53007 5.99045H10.4803L9.53007 3.14963C9.45031 2.88973 9.5905 2.6097 9.85038 2.51974C10.1103 2.44 10.3903 2.58019 10.4803 2.84006L11.5301 6.00021H13.0203C13.6602 6.00038 14.1298 6.59026 13.9998 7.21017L13.0096 11.8098C12.8596 12.5098 12.2498 13.0002 11.5398 13.0002H4.49003C3.78003 13.0002 3.1703 12.4998 3.0203 11.8098L2.03007 7.21017C1.9001 6.59033 2.36981 6.00051 3.00956 6.00021H4.48026L5.53007 2.84006ZM7.9998 7.50021C7.71991 7.50034 7.4998 7.72029 7.4998 8.00021V9.00021H6.4998C6.21991 9.00034 5.9998 9.22029 5.9998 9.50021C5.99989 9.78005 6.21997 10.0001 6.4998 10.0002H7.4998V11.0002C7.49989 11.28 7.71997 11.5001 7.9998 11.5002C8.27973 11.5002 8.4997 11.2801 8.4998 11.0002V10.0002H9.4998C9.77973 10.0002 9.9997 9.78013 9.9998 9.50021C9.9998 9.22021 9.7798 9.00021 9.4998 9.00021H8.4998V8.00021C8.4998 7.72021 8.2798 7.50021 7.9998 7.50021Z" fill="currentColor"/>
</svg>
