<svg width="16" height="16" viewBox="0 0 16 16" fill="none" xmlns="http://www.w3.org/2000/svg">
<path d="M14 12.5C14 13.05 13.55 13.5 13 13.5H3C2.45001 13.5 2.00002 13.05 2 12.5V12.2197C2.3 12.3897 2.63 12.5 3 12.5H13C13.37 12.5 13.7 12.3897 14 12.2197V12.5Z" fill="currentColor"/>
<path d="M14 10.5C14 11.05 13.55 11.5 13 11.5H3C2.45001 11.5 2.00002 11.05 2 10.5V10.2197C2.3 10.3897 2.63 10.5 3 10.5H13C13.37 10.5 13.7 10.3897 14 10.2197V10.5Z" fill="currentColor"/>
<path d="M8 4C9.10457 4 10 4.89543 10 6C10 7.10457 9.10457 8 8 8C6.89543 8 6 7.10457 6 6C6 4.89543 6.89543 4 8 4Z" fill="currentColor"/>
<path fill-rule="evenodd" clip-rule="evenodd" d="M13 2.5C13.55 2.5 14 2.95 14 3.5V8.5C14 9.05 13.55 9.5 13 9.5H3C2.45 9.5 2 9.05 2 8.5V3.5C2 2.95 2.45 2.5 3 2.5H13ZM4.9502 3.5C4.75122 4.47909 3.97906 5.25017 3 5.44922V6.5498C3.97915 6.74879 4.75121 7.52085 4.9502 8.5H11.0498C11.2488 7.52085 12.0209 6.74879 13 6.5498V5.44922C12.0209 5.25017 11.2488 4.47909 11.0498 3.5H4.9502Z" fill="currentColor"/>
</svg>
