<svg width="16" height="16" viewBox="0 0 16 16" fill="none" xmlns="http://www.w3.org/2000/svg">
<path d="M6.25977 2.49023L6.0498 4.99023H4.58008C4.30008 4.99023 4.08008 5.21023 4.08008 5.49023C4.08021 5.77012 4.30016 5.99023 4.58008 5.99023H6.00977V8.99023C6.0099 9.54003 6.45997 9.99008 7.00977 9.99023H9.00977C9.56968 9.99023 10.0096 9.54012 10.0098 8.99023V5.99023H11.4404C11.7202 5.99003 11.9403 5.76999 11.9404 5.49023C11.9404 5.21037 11.7202 4.99044 11.4404 4.99023H9.96973L9.75977 2.49023H10.9697C11.2997 2.49023 11.6098 2.66043 11.7998 2.94043L13.25 5.12012H13.2705C13.4304 5.36005 13.5205 5.65033 13.5205 5.9502V12.5C13.5205 13.0498 13.0703 13.4997 12.5205 13.5H3.52051C2.97051 13.5 2.51954 13.05 2.51953 12.5V5.9502C2.51953 5.6602 2.61051 5.37012 2.77051 5.12012L4.21973 2.94043C4.39969 2.66049 4.71988 2.49031 5.0498 2.49023H6.25977Z" fill="black"/>
<path d="M9 8.5C9 8.78 8.78 9 8.5 9H7.5C7.22 9 7 8.78 7 8.5V6H9V8.5Z" fill="black"/>
<path d="M8.95801 5H7.04199L7.25 2.5H8.75L8.95801 5Z" fill="black"/>
</svg>
