<svg width="16" height="16" viewBox="0 0 16 16" fill="none" xmlns="http://www.w3.org/2000/svg">
<path d="M8.83008 9.75977C9.01 9.7598 9.16007 9.90993 9.16016 10.0898C9.16016 10.2698 9.01005 10.4199 8.83008 10.4199V10.4297H8.5V9.75977H8.83008Z" fill="currentColor"/>
<path d="M7.49023 8.75H7.16016C6.98016 8.75 6.83008 8.59992 6.83008 8.41992V8.41016C6.83008 8.23016 6.98016 8.08008 7.16016 8.08008H7.49023V8.75Z" fill="currentColor"/>
<path fill-rule="evenodd" clip-rule="evenodd" d="M9.5 2C10.6061 2 11.5 2.89386 11.5 4C11.5 4.36483 11.4015 4.70581 11.2314 5H13C13.55 5 14 5.45 14 6V7C14 7.55 13.55 8 13 8V12.5C13 13.05 12.55 13.5 12 13.5H4C3.45 13.5 3 13.05 3 12.5V8C2.45 8 2 7.55 2 7V6C2 5.45 2.45 5 3 5H4.76855C4.59854 4.70581 4.5 4.36483 4.5 4C4.5 2.89386 5.39386 2 6.5 2C7.09868 2 7.63375 2.26309 8 2.67871C8.36625 2.26309 8.90132 2 9.5 2ZM8 6.25C7.72 6.25 7.5 6.47 7.5 6.75V7.08008H7.16992C6.43995 7.08011 5.83984 7.68018 5.83984 8.41016C5.83993 9.14007 6.43 9.7402 7.16992 9.74023H7.5V10.4102H6.33008C6.05008 10.4102 5.83008 10.6302 5.83008 10.9102C5.83016 11.1901 6.05013 11.4102 6.33008 11.4102H7.5V11.7402C7.50013 12.0201 7.72008 12.2402 8 12.2402C8.27992 12.2402 8.49987 12.0201 8.5 11.7402V11.4102H8.83008C9.56002 11.4101 10.1601 10.81 10.1602 10.0801C10.1602 9.3501 9.57005 8.75003 8.83008 8.75H8.5V8.08008H9.66992C9.94989 8.08008 10.1699 7.86003 10.1699 7.58008C10.1699 7.30008 9.94992 7.08008 9.66992 7.08008H8.5V6.75C8.5 6.47 8.28 6.25 8 6.25ZM6.5 3C5.94614 3 5.5 3.44614 5.5 4C5.5 4.55386 5.94614 5 6.5 5H7.5V4C7.5 3.44614 7.05386 3 6.5 3ZM9.5 3C8.94614 3 8.5 3.44614 8.5 4V5H9.5C10.0539 5 10.5 4.55386 10.5 4C10.5 3.44614 10.0539 3 9.5 3Z" fill="currentColor"/>
</svg>
