<svg width="16" height="16" viewBox="0 0 16 16" fill="none" xmlns="http://www.w3.org/2000/svg">
<path fill-rule="evenodd" clip-rule="evenodd" d="M10.9995 7C11.4194 7.31991 11.9497 7.4999 12.4995 7.5C12.6495 7.5 12.8 7.48996 12.94 7.45996C12.9586 7.45063 12.9948 7.44164 12.9995 7.44043V12.1699C12.9995 12.9099 12.5495 13.5098 11.9995 13.5098H3.99954C3.44974 13.5094 2.99954 12.9097 2.99954 12.1699V7.45996H3.02981C3.17967 7.48993 3.33968 7.49998 3.49954 7.5C4.04941 7.5 4.57958 7.31987 4.99954 7C5.41942 7.31991 5.94969 7.4999 6.49954 7.5C7.04941 7.5 7.57958 7.31987 7.99954 7C8.41942 7.31991 8.94969 7.4999 9.49954 7.5C10.0494 7.5 10.5796 7.31987 10.9995 7ZM8.85989 8.65039C8.65989 8.45039 8.34993 8.45039 8.14993 8.65039C7.95016 8.8504 7.95001 9.16043 8.14993 9.36035L8.78957 10H5.99954C5.71975 10.0002 5.49954 10.2201 5.49954 10.5C5.49954 10.7799 5.71975 10.9998 5.99954 11H8.78957L8.14993 11.6396C7.95001 11.8396 7.95016 12.1496 8.14993 12.3496C8.23982 12.4495 8.37963 12.4999 8.49954 12.5C8.61954 12.5 8.75012 12.4496 8.85012 12.3496L10.3501 10.8496H10.3599C10.4097 10.8097 10.4403 10.7503 10.4702 10.6904C10.5202 10.5704 10.5202 10.4296 10.4702 10.3096C10.4409 10.2511 10.3639 10.1554 10.3599 10.1504L8.85989 8.65039Z" fill="currentColor"/>
<path d="M12.1597 3C12.4897 3 12.7998 3.1702 12.9898 3.4502L13.6001 4.36035C14.1298 5.16034 13.7294 6.31049 12.7896 6.48047C12.7097 6.50035 12.6196 6.5 12.5298 6.5C11.9 6.49992 11.3702 6.11009 11.1402 5.57031C11.1002 5.47031 10.9497 5.47031 10.9097 5.57031C10.6796 6.12011 10.1499 6.49998 9.52004 6.5C8.8902 6.5 8.36049 6.1101 8.13039 5.57031C8.09039 5.47031 7.93993 5.47031 7.89993 5.57031C7.6699 6.12007 7.14004 6.49988 6.51028 6.5C5.88033 6.5 5.34969 6.11024 5.11965 5.57031C5.07965 5.47031 4.93016 5.47031 4.89016 5.57031C4.66012 6.12021 4.12946 6.5 3.49954 6.5C3.40972 6.49997 3.31004 6.48966 3.22024 6.46973C2.29029 6.29974 1.90034 5.15035 2.4302 4.36035L3.03957 3.4502C3.21952 3.17028 3.53976 3.00011 3.86965 3H12.1597Z" fill="currentColor"/>
</svg>
