<svg width="16" height="16" viewBox="0 0 16 16" fill="none" xmlns="http://www.w3.org/2000/svg">
<path fill-rule="evenodd" clip-rule="evenodd" d="M5.53007 2.84001C5.62006 2.57005 5.89999 2.42978 6.15995 2.5197C6.4298 2.60965 6.56995 2.88971 6.48027 3.14958L5.53007 5.9904H10.4803L9.53007 3.14958C9.45031 2.88968 9.5905 2.60966 9.85038 2.5197C10.1103 2.44 10.3903 2.58016 10.4803 2.84001L11.5301 6.00017H13.0203C13.6602 6.00034 14.1298 6.59022 13.9998 7.21013L13.0096 11.8097C12.8596 12.5097 12.2498 13.0002 11.5398 13.0002H4.49003C3.78003 13.0002 3.1703 12.4997 3.0203 11.8097L2.03007 7.21013C1.9001 6.59028 2.36979 6.00045 3.00956 6.00017H4.48027L5.53007 2.84001ZM9.65019 7.85954C9.45029 7.6598 9.14019 7.65992 8.94023 7.85954L8.00956 8.79021L7.07987 7.85954C6.87992 7.6599 6.56982 7.65982 6.36991 7.85954C6.17001 8.05945 6.1702 8.36949 6.36991 8.5695L7.2996 9.50017L6.36991 10.4299C6.16996 10.6298 6.17005 10.9398 6.36991 11.1398C6.4598 11.2397 6.59962 11.2901 6.71952 11.2902C6.83952 11.2902 6.97011 11.2398 7.07011 11.1398L7.9998 10.2101L8.93046 11.1398C9.02046 11.2397 9.16012 11.2902 9.28007 11.2902C9.40003 11.2902 9.5297 11.2398 9.62968 11.1398C9.82968 10.9398 9.82968 10.6299 9.62968 10.4299H9.65019L8.71952 9.50017L9.65019 8.5695C9.84987 8.36949 9.85008 8.05944 9.65019 7.85954Z" fill="currentColor"/>
</svg>
