<svg width="16" height="16" viewBox="0 0 16 16" fill="none" xmlns="http://www.w3.org/2000/svg">
<path fill-rule="evenodd" clip-rule="evenodd" d="M10.9996 7C11.4195 7.31992 11.9497 7.49991 12.4996 7.5C12.6496 7.5 12.8 7.48996 12.94 7.45996C12.9587 7.45061 12.995 7.4416 12.9996 7.44043V12.1699C12.9996 12.9099 12.5496 13.5098 11.9996 13.5098H3.99959C3.44978 13.5095 2.99959 12.9097 2.99959 12.1699V7.45996H3.02986C3.17974 7.48994 3.33973 7.49998 3.49959 7.5C4.04948 7.5 4.57963 7.31988 4.99959 7C5.41949 7.31992 5.94974 7.49991 6.49959 7.5C7.04948 7.5 7.57963 7.31988 7.99959 7C8.41949 7.31992 8.94974 7.49991 9.49959 7.5C10.0495 7.5 10.5796 7.31988 10.9996 7ZM10.3697 8.94043C10.1697 8.74043 9.85975 8.74043 9.65975 8.94043L7.60994 10.9902L6.35994 9.74023C6.15994 9.54023 5.84998 9.54023 5.64998 9.74023C5.45011 9.94024 5.45003 10.2502 5.64998 10.4502L7.24959 12.0498C7.33959 12.1498 7.47018 12.2002 7.60018 12.2002C7.73011 12.2001 7.85983 12.1398 7.94979 12.0498L10.3502 9.65039H10.3697C10.5697 9.45041 10.5696 9.14043 10.3697 8.94043Z" fill="black"/>
<path d="M12.1597 3C12.4897 3 12.7998 3.1702 12.9898 3.4502L13.6002 4.36035C14.1299 5.16034 13.7295 6.31049 12.7896 6.48047C12.7098 6.50034 12.6197 6.5 12.5299 6.5C11.9001 6.49992 11.3703 6.1101 11.1402 5.57031C11.1002 5.47031 10.9497 5.47031 10.9097 5.57031C10.6797 6.1201 10.1499 6.49998 9.5201 6.5C8.89026 6.5 8.36054 6.1101 8.13045 5.57031C8.09045 5.47031 7.93998 5.47031 7.89998 5.57031C7.66995 6.12008 7.14011 6.49989 6.51033 6.5C5.88039 6.5 5.34974 6.11024 5.11971 5.57031C5.07971 5.47031 4.93022 5.47031 4.89022 5.57031C4.66017 6.1202 4.12951 6.5 3.49959 6.5C3.40977 6.49997 3.3101 6.48967 3.22029 6.46973C2.29035 6.29974 1.90041 5.15035 2.43026 4.36035L3.03963 3.4502C3.21957 3.17029 3.53983 3.00012 3.86971 3H12.1597Z" fill="black"/>
</svg>
