<svg width="16" height="16" viewBox="0 0 16 16" fill="none" xmlns="http://www.w3.org/2000/svg">
<path d="M10.8902 7.99023C11.3001 8.31011 11.82 8.49999 12.3599 8.5H12.3804C12.6003 8.49996 12.8102 8.47012 13.0201 8.41016V12.5C13.0201 13.05 12.57 13.4999 12.0201 13.5H4.02007C3.47007 13.5 3.02007 13.05 3.02007 12.5V8.41016C3.22994 8.47011 3.43986 8.49998 3.65972 8.5C4.19972 8.5 4.72042 8.31023 5.13042 7.99023C5.55036 8.32004 6.07031 8.5 6.60015 8.5C7.13009 8.49997 7.61035 8.32025 8.01031 8.03027C8.40024 8.32013 8.87062 8.5 9.42046 8.5C9.97028 8.49989 10.4703 8.31014 10.8902 7.99023Z" fill="black"/>
<path d="M10.9703 3C11.6301 3.00009 12.2605 3.32976 12.6304 3.88965L13.6099 5.36035C14.1396 6.16027 13.7401 7.31032 12.8003 7.48047C12.7103 7.50047 12.6198 7.5 12.5298 7.5C11.9 7.49993 11.3702 7.1101 11.1402 6.57031C11.1002 6.47031 10.9497 6.47031 10.9097 6.57031C10.6796 7.12009 10.1499 7.49997 9.52007 7.5C8.89023 7.5 8.36052 7.1101 8.13042 6.57031C8.09042 6.47031 7.93996 6.47031 7.89996 6.57031C7.66993 7.12008 7.14007 7.49988 6.51031 7.5C5.88036 7.5 5.34971 7.11024 5.11968 6.57031C5.07968 6.47031 4.93019 6.47031 4.89019 6.57031C4.66014 7.12021 4.12949 7.5 3.49956 7.5C3.40974 7.49997 3.31007 7.48967 3.22027 7.46973C2.29033 7.29974 1.90037 6.15035 2.43023 5.36035L3.40972 3.88965C3.77971 3.32976 4.39998 3.00004 5.06988 3H10.9703Z" fill="black"/>
</svg>
