<svg width="16" height="16" viewBox="0 0 16 16" fill="none" xmlns="http://www.w3.org/2000/svg">
<path fill-rule="evenodd" clip-rule="evenodd" d="M7.00977 2.49023C7.28977 2.49023 7.50977 2.71023 7.50977 2.99023V4.49023C7.50964 4.77012 7.28968 4.99023 7.00977 4.99023H4.58008C4.30008 4.99023 4.08008 5.21023 4.08008 5.49023C4.08021 5.77012 4.30016 5.99023 4.58008 5.99023H11.4404C11.7201 5.99001 11.9403 5.76998 11.9404 5.49023C11.9404 5.21038 11.7202 4.99046 11.4404 4.99023H9.00977C8.72996 4.99011 8.50989 4.77004 8.50977 4.49023V2.99023C8.50977 2.71032 8.72988 2.49036 9.00977 2.49023H10.9697C11.2997 2.49023 11.6098 2.66043 11.7998 2.94043L13.25 5.12012H13.2705C13.4304 5.36005 13.5205 5.65033 13.5205 5.9502V12.5C13.5205 13.0498 13.0703 13.4997 12.5205 13.5H3.52051C2.97051 13.5 2.51954 13.05 2.51953 12.5V5.9502C2.51953 5.6602 2.61051 5.37012 2.77051 5.12012L4.21973 2.94043C4.39969 2.66048 4.71987 2.4903 5.0498 2.49023H7.00977ZM7.37012 6.66016C7.17012 6.46016 6.86016 6.46016 6.66016 6.66016L5.66016 7.66016C5.61016 7.70016 5.5798 7.76031 5.5498 7.82031C5.49995 7.94024 5.49985 8.08031 5.5498 8.2002C5.57984 8.26021 5.66016 8.36035 5.66016 8.36035L6.66016 9.36035C6.7501 9.46009 6.88994 9.5097 7.00977 9.50977C7.12977 9.50977 7.26035 9.46035 7.36035 9.36035C7.56022 9.16048 7.55996 8.8504 7.36035 8.65039L7.20996 8.5H8.5C9.05 8.5 9.5 8.95 9.5 9.5C9.49999 10.05 9.04999 10.5 8.5 10.5H6C5.72 10.5 5.5 10.72 5.5 11C5.50001 11.28 5.72001 11.5 6 11.5H8.5L8.50977 11.5195C9.60977 11.5195 10.5098 10.6195 10.5098 9.51953C10.5095 8.41974 9.60961 7.51953 8.50977 7.51953H7.21973L7.37012 7.37012C7.57007 7.17017 7.56997 6.86016 7.37012 6.66016Z" fill="black"/>
</svg>
