<svg width="16" height="16" viewBox="0 0 16 16" fill="none" xmlns="http://www.w3.org/2000/svg">
<path fill-rule="evenodd" clip-rule="evenodd" d="M7.00977 2.49023C7.28977 2.49023 7.50977 2.71023 7.50977 2.99023V4.49023C7.50964 4.77012 7.28968 4.99023 7.00977 4.99023H4.58008C4.30008 4.99023 4.08008 5.21023 4.08008 5.49023C4.08021 5.77012 4.30016 5.99023 4.58008 5.99023H11.4404C11.7201 5.99001 11.9403 5.76998 11.9404 5.49023C11.9404 5.21038 11.7202 4.99046 11.4404 4.99023H9.00977C8.72996 4.99011 8.50989 4.77004 8.50977 4.49023V2.99023C8.50977 2.71032 8.72988 2.49036 9.00977 2.49023H10.9697C11.2997 2.49023 11.6098 2.66043 11.7998 2.94043L13.25 5.12012H13.2695C13.4295 5.36012 13.5195 5.6502 13.5195 5.9502V12.5C13.5195 13.05 13.0695 13.5 12.5195 13.5H3.51953C2.96974 13.4998 2.51954 13.0498 2.51953 12.5V5.9502C2.51953 5.66031 2.60965 5.37005 2.76953 5.12012L4.21973 2.94043C4.39969 2.66048 4.71987 2.4903 5.0498 2.49023H7.00977ZM6.5 7.5C6.22 7.5 6 7.72 6 8C6.00001 8.27999 6.22001 8.5 6.5 8.5H9.5C9.77999 8.5 9.99999 8.27999 10 8C10 7.72 9.78 7.5 9.5 7.5H6.5Z" fill="currentColor"/>
</svg>
