<svg width="16" height="16" viewBox="0 0 16 16" fill="none" xmlns="http://www.w3.org/2000/svg">
<path d="M9 8.5C9.28 8.5 9.5 8.72 9.5 9C9.5 9.28 9.28 9.5 9 9.5H8.5V8.5H9Z" fill="currentColor"/>
<path d="M7.5 7.5H7C6.72 7.5 6.5 7.28 6.5 7C6.5 6.72 6.72 6.5 7 6.5H7.5V7.5Z" fill="currentColor"/>
<path fill-rule="evenodd" clip-rule="evenodd" d="M13 3.50977C13.5499 3.50977 13.9999 3.95988 14 4.50977V5.55957C14 5.78953 13.8501 5.99999 13.6201 6.04004C12.7001 6.22004 12 7.03001 12 8C12 8.97 12.7001 9.77996 13.6201 9.95996C13.8401 10 14 10.2105 14 10.4404V11.4902C13.9999 12.0401 13.5499 12.4902 13 12.4902H3C2.45007 12.4902 2.00012 12.0401 2 11.4902V10.4404C2 10.2105 2.14994 10 2.37988 9.95996C3.29988 9.77996 4 8.97 4 8C3.99999 7.03001 3.29988 6.22004 2.37988 6.04004C2.15994 5.99999 2 5.78953 2 5.55957V4.50977C2.00013 3.95988 2.45008 3.50977 3 3.50977H13ZM8 4.5C7.72001 4.5 7.50001 4.72001 7.5 5V5.5H7C6.17001 5.5 5.50001 6.17001 5.5 7C5.5 7.83 6.17 8.5 7 8.5H7.5V9.5H6C5.72001 9.5 5.50001 9.72001 5.5 10C5.5 10.28 5.72 10.5 6 10.5H7.5V11C7.5 11.28 7.72 11.5 8 11.5C8.28 11.5 8.5 11.28 8.5 11V10.5H9C9.83 10.5 10.5 9.83 10.5 9C10.5 8.17001 9.82999 7.5 9 7.5H8.5V6.5H10C10.28 6.5 10.5 6.28 10.5 6C10.5 5.72001 10.28 5.5 10 5.5H8.5V5C8.49999 4.72001 8.27999 4.5 8 4.5Z" fill="currentColor"/>
</svg>
