<svg width="16" height="16" viewBox="0 0 16 16" fill="none" xmlns="http://www.w3.org/2000/svg">
<path fill-rule="evenodd" clip-rule="evenodd" d="M7.00977 2.49023C7.28977 2.49023 7.50977 2.71023 7.50977 2.99023V4.49023C7.50964 4.77012 7.28968 4.99023 7.00977 4.99023H4.58008C4.30008 4.99023 4.08008 5.21023 4.08008 5.49023C4.08021 5.77012 4.30016 5.99023 4.58008 5.99023H11.4404C11.7201 5.99001 11.9403 5.76998 11.9404 5.49023C11.9404 5.21038 11.7202 4.99046 11.4404 4.99023H9.00977C8.72996 4.99011 8.50989 4.77004 8.50977 4.49023V2.99023C8.50977 2.71032 8.72988 2.49036 9.00977 2.49023H10.9697C11.2997 2.49023 11.6098 2.66043 11.7998 2.94043L13.25 5.12012H13.2705C13.4304 5.36005 13.5205 5.65033 13.5205 5.9502V12.5C13.5205 13.0498 13.0703 13.4997 12.5205 13.5H3.52051C2.97051 13.5 2.51954 13.05 2.51953 12.5V5.9502C2.51953 5.6602 2.61051 5.37012 2.77051 5.12012L4.21973 2.94043C4.39969 2.66048 4.71987 2.4903 5.0498 2.49023H7.00977ZM8.86035 7.65039C8.66035 7.45039 8.35039 7.45039 8.15039 7.65039C7.95041 7.85039 7.9504 8.16036 8.15039 8.36035L8.79004 9H6C5.72 9 5.5 9.22 5.5 9.5C5.50001 9.77999 5.72001 10 6 10H8.79004L8.15039 10.6396C7.95039 10.8396 7.9504 11.1496 8.15039 11.3496C8.24039 11.4496 8.38 11.5 8.5 11.5C8.62 11.5 8.74961 11.4496 8.84961 11.3496L10.3496 9.84961H10.3604C10.41 9.80971 10.4399 9.75012 10.4697 9.69043C10.5197 9.57043 10.5197 9.42957 10.4697 9.30957C10.4407 9.25182 10.366 9.15753 10.3604 9.15039L8.86035 7.65039Z" fill="currentColor"/>
</svg>
