<svg width="16" height="16" viewBox="0 0 16 16" fill="none" xmlns="http://www.w3.org/2000/svg">
<path fill-rule="evenodd" clip-rule="evenodd" d="M13 3C13.55 3 14 3.45 14 4V12C14 12.55 13.55 13 13 13H3C2.45 13 2 12.55 2 12V4C2 3.45 2.45 3 3 3H13ZM3 6.5C2.72 6.5 2.5 6.72 2.5 7C2.5 7.28 2.72 7.5 3 7.5H6.05957C6.28957 8.38 7.08 9 8 9C8.92 9 9.72043 8.38 9.94043 7.5H13C13.28 7.5 13.5 7.28 13.5 7C13.5 6.72 13.28 6.5 13 6.5H9.76953C9.37985 6.50022 9.05058 6.78004 8.98047 7.17969C8.90047 7.65969 8.48 8 8 8C7.52 8 7.10953 7.65969 7.01953 7.17969C6.93944 6.78005 6.62014 6.50022 6.23047 6.5H3ZM3 4.5C2.72 4.5 2.5 4.72 2.5 5C2.5 5.28 2.72 5.5 3 5.5H13C13.28 5.5 13.5 5.28 13.5 5C13.5 4.72 13.28 4.5 13 4.5H3Z" fill="black"/>
</svg>
