<svg width="16" height="16" viewBox="0 0 16 16" fill="none" xmlns="http://www.w3.org/2000/svg">
<path fill-rule="evenodd" clip-rule="evenodd" d="M10.9995 7C11.4194 7.31991 11.9497 7.4999 12.4995 7.5C12.6495 7.5 12.8 7.48996 12.94 7.45996C12.9586 7.45063 12.9948 7.44164 12.9995 7.44043V12.1699C12.9995 12.9099 12.5495 13.5098 11.9995 13.5098H3.99954C3.44974 13.5094 2.99954 12.9097 2.99954 12.1699V7.45996H3.02981C3.17967 7.48993 3.33968 7.49998 3.49954 7.5C4.04941 7.5 4.57958 7.31987 4.99954 7C5.41942 7.31991 5.94969 7.4999 6.49954 7.5C7.04941 7.5 7.57958 7.31987 7.99954 7C8.41942 7.31991 8.94969 7.4999 9.49954 7.5C10.0494 7.5 10.5796 7.31987 10.9995 7ZM9.64993 8.86035C9.44993 8.66035 9.13997 8.66035 8.93997 8.86035L8.01028 9.79004L7.07961 8.86035C6.87961 8.66036 6.56965 8.66035 6.36965 8.86035C6.17 9.06036 6.16978 9.37043 6.36965 9.57031L7.30032 10.5L6.36965 11.4297C6.16978 11.6296 6.17 11.9396 6.36965 12.1396C6.45965 12.2396 6.60024 12.29 6.72024 12.29C6.84016 12.29 6.96993 12.2396 7.06985 12.1396L7.99954 11.21L8.9302 12.1396C9.02015 12.2396 9.15985 12.29 9.27981 12.29C9.39981 12.29 9.53039 12.2396 9.63039 12.1396C9.82999 11.9397 9.83021 11.6296 9.63039 11.4297H9.64993L8.72024 10.5L9.64993 9.57031C9.84988 9.37036 9.84978 9.06036 9.64993 8.86035Z" fill="black"/>
<path d="M12.1597 3C12.4897 3 12.7998 3.1702 12.9898 3.4502L13.6001 4.36035C14.1298 5.16034 13.7294 6.31049 12.7896 6.48047C12.7097 6.50035 12.6196 6.5 12.5298 6.5C11.9 6.49992 11.3702 6.11009 11.1402 5.57031C11.1002 5.47031 10.9497 5.47031 10.9097 5.57031C10.6796 6.12011 10.1499 6.49998 9.52004 6.5C8.8902 6.5 8.36049 6.1101 8.13039 5.57031C8.09039 5.47031 7.93993 5.47031 7.89993 5.57031C7.6699 6.12007 7.14004 6.49988 6.51028 6.5C5.88033 6.5 5.34969 6.11024 5.11965 5.57031C5.07965 5.47031 4.93016 5.47031 4.89016 5.57031C4.66012 6.12021 4.12946 6.5 3.49954 6.5C3.40972 6.49997 3.31004 6.48966 3.22024 6.46973C2.29029 6.29974 1.90034 5.15035 2.4302 4.36035L3.03957 3.4502C3.21952 3.17028 3.53976 3.00011 3.86965 3H12.1597Z" fill="black"/>
</svg>
