<svg width="16" height="16" viewBox="0 0 16 16" fill="none" xmlns="http://www.w3.org/2000/svg">
<path d="M7.11035 2.85956C7.6402 2.47996 8.35007 2.47988 8.87988 2.85956L12.8799 5.76972H12.8701C13.26 6.04965 13.4901 6.4998 13.4902 6.97968V12.5002C13.4901 13.05 13.0401 13.5001 12.4902 13.5002H11.4902V7.50019C11.4902 7.22027 11.2701 7.00031 10.9902 7.00019H4.99023C4.71023 7.00019 4.49023 7.22019 4.49023 7.50019V13.5002H3.49023C2.94029 13.5002 2.49033 13.0501 2.49023 12.5002V6.97968C2.49034 6.4998 2.72044 6.04965 3.11035 5.76972L7.11035 2.85956Z" fill="black"/>
<path d="M10.5 12.3303V13.5002H5.5V12.3303H10.5Z" fill="black"/>
<path d="M10.5 11.34H5.5V10.1701H10.5V11.34Z" fill="black"/>
<path d="M10.5 9.17011H5.5V8.00019H10.5V9.17011Z" fill="black"/>
</svg>
