<svg width="16" height="16" viewBox="0 0 16 16" fill="none" xmlns="http://www.w3.org/2000/svg">
<path fill-rule="evenodd" clip-rule="evenodd" d="M7.2605 2.32954C7.68046 1.9101 8.36017 1.90993 8.78003 2.32954L9.5896 3.14008C9.7896 3.34008 10.0703 3.44965 10.3503 3.44965H11.4998C12.0897 3.44965 12.57 3.92999 12.5701 4.51997V5.67036C12.5702 5.96016 12.6798 6.23021 12.8796 6.43012L13.6902 7.23969C14.1102 7.65969 14.1102 8.3402 13.6902 8.7602L12.8796 9.56977C12.6798 9.76965 12.5702 10.0497 12.5701 10.3295V11.4799C12.5701 12.0699 12.0898 12.5502 11.4998 12.5502H10.3503C10.0603 12.5502 9.7896 12.6598 9.5896 12.8598L8.78003 13.6704C8.36015 14.0901 7.68048 14.0899 7.2605 13.6704L6.44995 12.8598C6.25 12.6599 5.97006 12.5503 5.69018 12.5502H4.53979C3.94989 12.5501 3.47046 12.0699 3.47046 11.4799V10.3295C3.47033 10.0397 3.3598 9.76966 3.15991 9.56977L2.35034 8.7602C1.93034 8.3402 1.93034 7.65969 2.35034 7.23969L3.15991 6.43012C3.35983 6.2302 3.47037 5.95024 3.47046 5.67036V4.51997C3.47049 3.93006 3.94991 3.44977 4.53979 3.44965H5.69018C5.98008 3.44961 6.25 3.34 6.44995 3.14008L7.2605 2.32954ZM10.8699 6.14008C10.6699 5.94011 10.3599 5.94009 10.1599 6.14008L7.5105 8.79047L6.36011 7.64008C6.16012 7.4401 5.85015 7.44012 5.65014 7.64008C5.45014 7.84008 5.45014 8.15004 5.65014 8.35004L7.15014 9.85004C7.24008 9.94992 7.37984 10.0004 7.49975 10.0004C7.61975 10.0004 7.75034 9.95004 7.85034 9.85004L10.8503 6.85004H10.8699C11.0699 6.65004 11.0699 6.34008 10.8699 6.14008Z" fill="currentColor"/>
</svg>
