<svg width="16" height="16" viewBox="0 0 16 16" fill="none" xmlns="http://www.w3.org/2000/svg">
<path d="M9 7.5C9.28 7.5 9.5 7.72 9.5 8C9.5 8.28 9.28 8.5 9 8.5H8.5V7.5H9Z" fill="currentColor"/>
<path d="M7.5 6.5H7C6.72 6.5 6.5 6.28 6.5 6C6.5 5.72 6.72 5.5 7 5.5H7.5V6.5Z" fill="currentColor"/>
<path fill-rule="evenodd" clip-rule="evenodd" d="M10.9902 2C11.5401 2.00013 11.9902 2.45008 11.9902 3V13.2998C11.9902 13.5498 11.68 13.68 11.5 13.5L9.99023 11.9902L8.7002 13.2803C8.31024 13.6702 7.68004 13.6701 7.29004 13.2803L6 11.9902L4.49023 13.5C4.31023 13.69 4 13.5598 4 13.2998V3C4 2.45 4.45 2 5 2H10.9902ZM8 3.5C7.72 3.5 7.5 3.72 7.5 4V4.5H7C6.17 4.5 5.5 5.17 5.5 6C5.5 6.83 6.17 7.5 7 7.5H7.5V8.5H6C5.72 8.5 5.5 8.72 5.5 9C5.5 9.28 5.72 9.5 6 9.5H7.5V10C7.5 10.28 7.72 10.5 8 10.5C8.28 10.5 8.5 10.28 8.5 10V9.5H9C9.83 9.5 10.5 8.83 10.5 8C10.5 7.17 9.83 6.5 9 6.5H8.5V5.5H10C10.28 5.5 10.5 5.28 10.5 5C10.5 4.72 10.28 4.5 10 4.5H8.5V4C8.5 3.72 8.28 3.5 8 3.5Z" fill="currentColor"/>
</svg>
