<svg width="16" height="16" viewBox="0 0 16 16" fill="none" xmlns="http://www.w3.org/2000/svg">
<path fill-rule="evenodd" clip-rule="evenodd" d="M7.42969 2.19045C7.76969 1.97045 8.20004 1.97045 8.54004 2.19045L9.55957 2.87014C9.85957 3.07014 9.85957 3.50022 9.55957 3.70022L5.88965 6.13967C5.54967 6.3596 5.12024 6.35963 4.78027 6.13967L4.25977 5.79006C4.03988 5.64025 3.72038 5.70004 3.57031 5.92971C3.42031 6.15971 3.47996 6.47014 3.70996 6.62014L7.70996 9.29006C7.79996 9.34006 7.89023 9.37014 7.99023 9.37014C8.16006 9.37006 8.3102 9.29023 8.41016 9.15041C8.56008 8.92052 8.50024 8.61006 8.27051 8.45998L6.87012 7.5303C6.57012 7.3303 6.57013 6.90022 6.87012 6.70022L10.54 4.25979C10.88 4.03988 11.3104 4.03982 11.6504 4.25979L12.8496 5.05959L12.8398 5.04983C13.1198 5.22981 13.29 5.54994 13.29 5.8799V10.1104C13.2899 10.4402 13.1197 10.7505 12.8398 10.9405L8.54004 13.7998C8.20004 14.0198 7.76969 14.0198 7.42969 13.7998L3.12988 10.9405C2.84999 10.7605 2.67981 10.4402 2.67969 10.1104V5.8799C2.67972 5.54994 2.84991 5.23981 3.12988 5.04983L7.42969 2.19045ZM5.04004 8.59963C4.81005 8.44974 4.49958 8.5103 4.34961 8.74026C4.19989 8.97022 4.26035 9.27978 4.49023 9.42971L5.80957 10.3096C5.89952 10.3596 5.98992 10.3896 6.08984 10.3897C6.25981 10.3897 6.40977 10.3099 6.50977 10.1699H6.5C6.64996 9.93996 6.59031 9.62951 6.36035 9.47951L5.04004 8.59963Z" fill="currentColor"/>
</svg>
