<svg width="16" height="16" viewBox="0 0 16 16" fill="none" xmlns="http://www.w3.org/2000/svg">
<path fill-rule="evenodd" clip-rule="evenodd" d="M5.53007 2.84006C5.62005 2.57011 5.9 2.42986 6.15995 2.51974C6.4298 2.60969 6.56996 2.88975 6.48026 3.14963L5.53007 5.99045H10.4803L9.53007 3.14963C9.45031 2.88973 9.5905 2.6097 9.85038 2.51974C10.1103 2.44 10.3903 2.58019 10.4803 2.84006L11.5301 6.00021H13.0203C13.6602 6.00038 14.1298 6.59026 13.9998 7.21017L13.0096 11.8098C12.8596 12.5098 12.2498 13.0002 11.5398 13.0002H4.49003C3.78003 13.0002 3.1703 12.4998 3.0203 11.8098L2.03007 7.21017C1.9001 6.59033 2.36981 6.00051 3.00956 6.00021H4.48026L5.53007 2.84006ZM8.86015 7.64963C8.66024 7.44986 8.35015 7.44995 8.15019 7.64963C7.95023 7.84958 7.95033 8.15958 8.15019 8.35959L8.78983 9.00021H5.9998C5.71991 9.00034 5.4998 9.22029 5.4998 9.50021C5.49989 9.78005 5.71997 10.0001 5.9998 10.0002H8.78983L8.15019 10.6399C7.95019 10.8399 7.95021 11.1498 8.15019 11.3498C8.24013 11.4498 8.37985 11.5001 8.4998 11.5002C8.6198 11.5002 8.75038 11.4498 8.85038 11.3498L10.3504 9.84982H10.3601C10.41 9.80982 10.4405 9.74959 10.4705 9.68967C10.5203 9.56977 10.5204 9.42963 10.4705 9.30978C10.4405 9.24978 10.3601 9.14963 10.3601 9.14963L8.86015 7.64963Z" fill="currentColor"/>
</svg>
