<svg width="16" height="16" viewBox="0 0 16 16" fill="none" xmlns="http://www.w3.org/2000/svg">
<path fill-rule="evenodd" clip-rule="evenodd" d="M6.87988 2.5C7.27988 2.5 7.66043 2.66043 7.94043 2.94043L13.71 8.70996C14.1 9.09996 14.1 9.73012 13.71 10.1201L10.1201 13.71C9.73012 14.1 9.09996 14.1 8.70996 13.71L2.94043 7.94043C2.66043 7.66043 2.5 7.27988 2.5 6.87988V3.5C2.5 2.95 2.95 2.5 3.5 2.5H6.87988ZM5.5 4.5C4.95 4.5 4.5 4.95 4.5 5.5C4.5 6.05 4.95 6.5 5.5 6.5C6.05 6.5 6.5 6.05 6.5 5.5C6.5 4.95 6.05 4.5 5.5 4.5Z" fill="black"/>
</svg>
