<svg width="16" height="16" viewBox="0 0 16 16" fill="none" xmlns="http://www.w3.org/2000/svg">
<path fill-rule="evenodd" clip-rule="evenodd" d="M8.5 3.5C9.05 3.5 9.5 3.95 9.5 4.5V10C9.5 10.28 9.72 10.5 10 10.5C10.28 10.5 10.5 10.28 10.5 10V4.5H11.5C12.05 4.5 12.5 4.95 12.5 5.5V7.5L13.9502 8.21973V8.23047C14.29 8.40052 14.5 8.74024 14.5 9.12012V10.5C14.5 11.05 14.05 11.5 13.5 11.5H12.5C12.5 12.33 11.83 13 11 13C10.17 13 9.5 12.33 9.5 11.5H6.5C6.5 12.33 5.83 13 5 13C4.17 13 3.5 12.33 3.5 11.5H2.5C1.95 11.5 1.5 11.05 1.5 10.5V4.5C1.5 3.95 1.95 3.5 2.5 3.5H8.5ZM7.87012 5.94043C7.67012 5.74043 7.36016 5.74043 7.16016 5.94043L5.11035 7.99023L3.86035 6.74023C3.66037 6.54026 3.35039 6.5403 3.15039 6.74023C2.95039 6.94023 2.95039 7.2502 3.15039 7.4502L4.75 9.0498C4.83992 9.14971 4.96973 9.2001 5.09961 9.2002C5.22961 9.2002 5.3602 9.1398 5.4502 9.0498L7.84961 6.65039H7.87012C8.07003 6.45048 8.06984 6.14044 7.87012 5.94043Z" fill="currentColor"/>
</svg>
