<svg width="16" height="16" viewBox="0 0 16 16" fill="none" xmlns="http://www.w3.org/2000/svg">
<path fill-rule="evenodd" clip-rule="evenodd" d="M7.00977 2.49023C7.28977 2.49023 7.50977 2.71023 7.50977 2.99023V4.49023C7.50964 4.77012 7.28968 4.99023 7.00977 4.99023H4.58008C4.30008 4.99023 4.08008 5.21023 4.08008 5.49023C4.08021 5.77012 4.30016 5.99023 4.58008 5.99023H11.4404C11.7202 5.99003 11.9403 5.76999 11.9404 5.49023C11.9404 5.21037 11.7202 4.99044 11.4404 4.99023H9.00977C8.72998 4.99009 8.50989 4.77003 8.50977 4.49023V2.99023C8.50977 2.71033 8.7299 2.49038 9.00977 2.49023H10.9697C11.2997 2.49023 11.6098 2.66043 11.7998 2.94043L13.25 5.12012H13.2705C13.4304 5.36005 13.5205 5.65033 13.5205 5.9502V12.5C13.5205 13.0498 13.0703 13.4997 12.5205 13.5H3.52051C2.97051 13.5 2.51954 13.05 2.51953 12.5V5.9502C2.51953 5.6602 2.61051 5.37012 2.77051 5.12012L4.21973 2.94043C4.39969 2.66049 4.71988 2.49031 5.0498 2.49023H7.00977ZM10.3701 7.94043C10.1701 7.74043 9.86016 7.74043 9.66016 7.94043L7.61035 9.99023L6.36035 8.74023C6.16037 8.54025 5.85039 8.5403 5.65039 8.74023C5.45039 8.94023 5.45039 9.2502 5.65039 9.4502L7.25 11.0498C7.3399 11.1497 7.46975 11.2001 7.59961 11.2002C7.72961 11.2002 7.8602 11.1398 7.9502 11.0498L10.3496 8.65039H10.3701C10.57 8.45048 10.5699 8.14044 10.3701 7.94043Z" fill="currentColor"/>
</svg>
