<svg width="16" height="16" viewBox="0 0 16 16" fill="none" xmlns="http://www.w3.org/2000/svg">
<path d="M7.99954 9C8.55182 9 8.99954 9.44772 8.99954 10C8.99954 10.5523 8.55182 11 7.99954 11C7.44746 10.9998 6.99954 10.5521 6.99954 10C6.99954 9.44786 7.44746 9.00024 7.99954 9Z" fill="black"/>
<path fill-rule="evenodd" clip-rule="evenodd" d="M10.9995 7C11.4194 7.31991 11.9497 7.4999 12.4995 7.5C12.6495 7.5 12.8 7.48996 12.94 7.45996C12.9586 7.45063 12.9948 7.44164 12.9995 7.44043V12.1699C12.9995 12.9099 12.5495 13.5098 11.9995 13.5098H3.99954C3.44974 13.5094 2.99954 12.9097 2.99954 12.1699V7.45996H3.02981C3.17967 7.48993 3.33968 7.49998 3.49954 7.5C4.04941 7.5 4.57958 7.31987 4.99954 7C5.41942 7.31991 5.94969 7.4999 6.49954 7.5C7.04941 7.5 7.57958 7.31987 7.99954 7C8.41942 7.31991 8.94969 7.4999 9.49954 7.5C10.0494 7.5 10.5796 7.31987 10.9995 7ZM7.99954 7.99023C6.89974 7.99048 5.99954 8.89038 5.99954 9.99023C5.99967 11.09 6.89982 11.99 7.99954 11.9902C8.36954 11.9902 8.71028 11.89 9.01028 11.71L9.64993 12.3496C9.73982 12.4495 9.87963 12.4999 9.99954 12.5C10.1195 12.5 10.2501 12.4496 10.3501 12.3496H10.3599C10.5597 12.1496 10.5598 11.8396 10.3599 11.6396L9.72024 11C9.89016 10.7001 9.99949 10.3601 9.99954 9.99023C9.99954 8.89023 9.09954 7.99023 7.99954 7.99023Z" fill="black"/>
<path d="M12.1597 3C12.4897 3 12.7998 3.1702 12.9898 3.4502L13.6001 4.36035C14.1298 5.16034 13.7294 6.31049 12.7896 6.48047C12.7097 6.50035 12.6196 6.5 12.5298 6.5C11.9 6.49992 11.3702 6.11009 11.1402 5.57031C11.1002 5.47031 10.9497 5.47031 10.9097 5.57031C10.6796 6.12011 10.1499 6.49998 9.52004 6.5C8.8902 6.5 8.36049 6.1101 8.13039 5.57031C8.09039 5.47031 7.93993 5.47031 7.89993 5.57031C7.6699 6.12007 7.14004 6.49988 6.51028 6.5C5.88033 6.5 5.34969 6.11024 5.11965 5.57031C5.07965 5.47031 4.93016 5.47031 4.89016 5.57031C4.66012 6.12021 4.12946 6.5 3.49954 6.5C3.40972 6.49997 3.31004 6.48966 3.22024 6.46973C2.29029 6.29974 1.90034 5.15035 2.4302 4.36035L3.03957 3.4502C3.21952 3.17028 3.53976 3.00011 3.86965 3H12.1597Z" fill="black"/>
</svg>
