<svg width="16" height="16" viewBox="0 0 16 16" fill="none" xmlns="http://www.w3.org/2000/svg">
<path fill-rule="evenodd" clip-rule="evenodd" d="M8 1.5C9.38 1.5 10.5 2.62 10.5 4V5H12C12.55 5 13 5.45 13 6V13C13 13.55 12.55 14 12 14H4C3.45 14 3 13.55 3 13V6C3 5.45 3.45 5 4 5H5.5V4C5.5 2.62 6.62 1.5 8 1.5ZM8.86035 7.65039C8.66035 7.45039 8.35039 7.45039 8.15039 7.65039C7.95039 7.85039 7.95039 8.16035 8.15039 8.36035L8.79004 9H6C5.72 9 5.5 9.22 5.5 9.5C5.5 9.78 5.72 10 6 10H8.79004L8.15039 10.6396C7.95039 10.8396 7.95039 11.1496 8.15039 11.3496C8.24039 11.4496 8.38 11.5 8.5 11.5C8.62 11.5 8.74961 11.4496 8.84961 11.3496L10.3496 9.84961H10.3604C10.41 9.80971 10.4399 9.75011 10.4697 9.69043C10.5197 9.57043 10.5197 9.42957 10.4697 9.30957C10.4407 9.25178 10.3659 9.15742 10.3604 9.15039L8.86035 7.65039ZM8 2.5C7.17 2.5 6.5 3.17 6.5 4V5H9.5V4C9.5 3.17 8.83 2.5 8 2.5Z" fill="black"/>
</svg>
