<svg width="16" height="16" viewBox="0 0 16 16" fill="none" xmlns="http://www.w3.org/2000/svg">
<path d="M9.19032 8L7.9999 10.3799L6.81044 8H9.19032Z" fill="currentColor"/>
<path fill-rule="evenodd" clip-rule="evenodd" d="M10.2499 3.5C10.7198 3.5 11.1701 3.71974 11.4501 4.09961L13.4804 6.80957C13.7804 7.19957 13.7395 7.76035 13.3895 8.11035L8.70986 12.79C8.50987 12.99 8.25985 13.0898 7.9999 13.0898C7.73993 13.0898 7.48991 12.99 7.28993 12.79L2.61025 8.11035C2.26025 7.76035 2.2204 7.19957 2.5204 6.80957L4.5497 4.09961C4.82969 3.71971 5.27998 3.50003 5.7499 3.5H10.2499ZM6.88954 4.53027C6.62964 4.44053 6.35037 4.60046 6.2704 4.86035L5.62978 7H3.9999C3.71995 7.00005 3.4999 7.22003 3.4999 7.5C3.4999 7.77997 3.71995 7.99995 3.9999 8H5.69033L7.5497 11.7197C7.63968 11.8897 7.80994 12 7.9999 12C8.1899 12 8.37009 11.8897 8.45009 11.7197L10.3104 8H11.9804C12.2602 7.9998 12.4804 7.77987 12.4804 7.5C12.4804 7.22013 12.2602 7.0002 11.9804 7H10.3495L9.70986 4.86035C9.62986 4.60035 9.34974 4.45027 9.08974 4.53027C8.82995 4.61041 8.6797 4.8905 8.75966 5.15039L9.32021 7.00977H6.66005L7.21962 5.15039C7.30962 4.89039 7.14954 4.61027 6.88954 4.53027Z" fill="currentColor"/>
</svg>
