<svg width="16" height="16" viewBox="0 0 16 16" fill="none" xmlns="http://www.w3.org/2000/svg">
<path fill-rule="evenodd" clip-rule="evenodd" d="M5.53007 2.84006C5.62005 2.57011 5.9 2.42986 6.15995 2.51974C6.4298 2.60969 6.56996 2.88975 6.48026 3.14963L5.53007 5.99045H10.4803L9.53007 3.14963C9.45031 2.88973 9.5905 2.6097 9.85038 2.51974C10.1103 2.44 10.3903 2.58019 10.4803 2.84006L11.5301 6.00021H13.0203C13.6602 6.00038 14.1298 6.59026 13.9998 7.21017L13.0096 11.8098C12.8596 12.5098 12.2498 13.0002 11.5398 13.0002H4.49003C3.78003 13.0002 3.1703 12.4998 3.0203 11.8098L2.03007 7.21017C1.9001 6.59033 2.36981 6.00051 3.00956 6.00021H4.48026L5.53007 2.84006ZM10.3699 7.93967C10.17 7.73995 9.85988 7.73988 9.65995 7.93967L7.61015 9.99045L6.36015 8.74045C6.16015 8.54045 5.85019 8.54045 5.65019 8.74045C5.45032 8.94045 5.45023 9.25045 5.65019 9.45041L7.2498 11.05C7.3398 11.15 7.47038 11.2004 7.60038 11.2004C7.73026 11.2003 7.86007 11.1399 7.94999 11.05L10.3504 8.64963H10.3699C10.5698 8.44962 10.5699 8.13962 10.3699 7.93967Z" fill="black"/>
</svg>
