<svg width="16" height="16" viewBox="0 0 16 16" fill="none" xmlns="http://www.w3.org/2000/svg">
<path fill-rule="evenodd" clip-rule="evenodd" d="M5 6.1897C5.00024 5.74996 5.53966 5.53036 5.84961 5.8401L7 6.99049H10C11.49 6.99049 12.7102 8.08025 12.9502 9.50025C12.9702 9.49027 12.98 9.49049 13 9.49049C13.27 9.49049 13.5 9.28 13.5 9.01002C13.51 8.76013 13.6799 8.53041 13.9297 8.50025V8.47974C14.2396 8.43975 14.4999 8.67986 14.5 8.97974C14.5 9.80974 13.83 10.4797 13 10.4797V10.9797C13 12.0797 12.1 12.9797 11 12.9797V13.4797C11 13.7597 10.78 13.9797 10.5 13.9797H9.5V13.4797C9.49985 13.1799 9.22984 12.9405 8.91992 12.9905C8.67 13.0305 8.5 13.2601 8.5 13.51V13.9797H7.5V13.4797C7.49985 13.1799 7.22984 12.9405 6.91992 12.9905C6.67 13.0305 6.5 13.2601 6.5 13.51V13.9797H5.5C5.22 13.9797 5 13.7597 5 13.4797V12.9797C3.9 12.9797 3 12.0797 3 10.9797H2.75C2.34 10.9797 2 10.6397 2 10.2297V9.72974C2.00014 9.31985 2.34008 8.97974 2.75 8.97974H3C3.00013 7.87986 3.90008 6.97974 5 6.97974V6.1897ZM6.5 8.00025C6.22 8.00025 6 8.22025 6 8.50025C6.00013 8.78013 6.22009 9.00025 6.5 9.00025H9.5C9.77991 9.00025 9.99987 8.78013 10 8.50025C10 8.22025 9.78 8.00025 9.5 8.00025H6.5Z" fill="black"/>
<path d="M9.65039 1.35181C9.84568 1.15683 10.1623 1.15664 10.3574 1.35181L11.6514 2.64576C11.8465 2.84093 11.8463 3.15751 11.6514 3.35279L10.8555 4.14869L13.3535 6.64674C13.5487 6.84201 13.5487 7.15854 13.3535 7.35377C13.1583 7.54885 12.8417 7.54887 12.6465 7.35377L10.1484 4.85572L9.36035 5.64381C9.16509 5.83906 8.84858 5.83906 8.65332 5.64381L7.35938 4.34986C7.16411 4.1546 7.16411 3.83809 7.35938 3.64283L9.65039 1.35181Z" fill="black"/>
</svg>
