<svg width="16" height="16" viewBox="0 0 16 16" fill="none" xmlns="http://www.w3.org/2000/svg">
<path fill-rule="evenodd" clip-rule="evenodd" d="M8 2C11.31 2 14 4.69 14 8C14 11.31 11.31 14 8 14C4.69 14 2 11.31 2 8C2 4.69 4.69 2 8 2ZM10.3896 5.55957C9.30965 4.18011 7.36997 4.18 6.29004 5.55957C6.07004 5.83957 5.91027 6.15023 5.78027 6.49023H5C4.72 6.49023 4.5 6.71023 4.5 6.99023C4.50012 7.27012 4.72008 7.49023 5 7.49023H5.54004C5.52005 7.66015 5.5 7.82031 5.5 7.99023C5.50002 8.16015 5.52005 8.32031 5.54004 8.49023H5C4.72 8.49023 4.5 8.71023 4.5 8.99023C4.50012 9.27012 4.72008 9.49023 5 9.49023H5.78027C5.91025 9.83011 6.08011 10.15 6.29004 10.4199C6.83 11.1099 7.5599 11.4902 8.33984 11.4902C9.1198 11.4902 9.84966 11.1098 10.3896 10.4199C10.5596 10.1999 10.5198 9.88973 10.2998 9.71973C10.0798 9.54997 9.76956 9.58972 9.59961 9.80957C8.90961 10.6896 7.77008 10.6896 7.08008 9.80957C7.01014 9.71961 6.93983 9.60991 6.87988 9.5H8C8.28 9.5 8.5 9.28 8.5 9C8.5 8.72 8.28 8.5 8 8.5H6.54004C6.51004 8.34 6.5 8.17 6.5 8C6.5 7.83 6.52004 7.66 6.54004 7.5H8C8.28 7.5 8.5 7.28 8.5 7C8.5 6.72 8.28 6.5 8 6.5V6.48047H6.87988C6.93988 6.37047 7.00008 6.26992 7.08008 6.16992C7.77002 5.2901 8.90961 5.29019 9.59961 6.16992C9.76961 6.38992 10.0798 6.42976 10.2998 6.25977C10.5198 6.08977 10.5596 5.77957 10.3896 5.55957Z" fill="currentColor"/>
</svg>
