<svg width="16" height="16" viewBox="0 0 16 16" fill="none" xmlns="http://www.w3.org/2000/svg">
<path d="M10.8902 7.99023C11.3002 8.31011 11.8201 8.49998 12.3599 8.5C12.5798 8.5 12.7997 8.47007 12.9996 8.41016H13.0201V12.5C13.0201 13.05 12.5701 13.5 12.0201 13.5H10.0201C9.7401 13.5 9.5201 13.28 9.5201 13V11C9.5201 10.72 9.30006 10.5 9.0201 10.5H7.0201C6.7401 10.5 6.5201 10.72 6.5201 11V13C6.5201 13.28 6.30006 13.5 6.0201 13.5H4.0201C3.4701 13.5 3.0201 13.05 3.0201 12.5V8.41016C3.22997 8.47011 3.43989 8.49997 3.65975 8.5C4.19975 8.5 4.72045 8.31023 5.13045 7.99023C5.55039 8.32005 6.07033 8.5 6.60018 8.5C7.13012 8.49997 7.61037 8.32025 8.01033 8.03027C8.40027 8.32013 8.87064 8.5 9.42049 8.5C9.97031 8.4999 10.4703 8.31014 10.8902 7.99023Z" fill="currentColor"/>
<path d="M10.9703 3C11.6302 3.00008 12.2605 3.32976 12.6305 3.88965L13.6099 5.36035C14.1397 6.16027 13.7401 7.31033 12.8004 7.48047C12.7104 7.50047 12.6199 7.5 12.5299 7.5C11.9001 7.49992 11.3703 7.1101 11.1402 6.57031C11.1002 6.47031 10.9497 6.47031 10.9097 6.57031C10.6797 7.1201 10.1499 7.49998 9.5201 7.5C8.89026 7.5 8.36054 7.1101 8.13045 6.57031C8.09045 6.47031 7.93998 6.47031 7.89998 6.57031C7.66995 7.12008 7.14011 7.49989 6.51033 7.5C5.88039 7.5 5.34974 7.11024 5.11971 6.57031C5.07971 6.47031 4.93022 6.47031 4.89022 6.57031C4.66017 7.1202 4.12951 7.5 3.49959 7.5C3.40977 7.49997 3.3101 7.48967 3.22029 7.46973C2.29035 7.29974 1.90041 6.15035 2.43026 5.36035L3.40975 3.88965C3.77973 3.32976 4.40001 3.00005 5.0699 3H10.9703Z" fill="currentColor"/>
</svg>
