<svg width="16" height="16" viewBox="0 0 16 16" fill="none" xmlns="http://www.w3.org/2000/svg">
<path d="M8.99981 8.50043C9.27981 8.50043 9.49981 8.72043 9.49981 9.00043C9.49959 9.28023 9.27967 9.50043 8.99981 9.50043H8.49981V8.50043H8.99981Z" fill="black"/>
<path d="M7.49981 6.50043V7.50043H6.99981C6.72006 7.50032 6.50004 7.28016 6.49981 7.00043C6.49981 6.72051 6.71992 6.50055 6.99981 6.50043H7.49981Z" fill="black"/>
<path fill-rule="evenodd" clip-rule="evenodd" d="M7.26056 2.32954C7.68052 1.9101 8.36023 1.90993 8.78009 2.32954L9.58966 3.14008C9.78966 3.34008 10.0704 3.44965 10.3504 3.44965H11.4998C12.0898 3.44965 12.5701 3.92999 12.5701 4.51997V5.67036C12.5702 5.96016 12.6799 6.23021 12.8797 6.43012L13.6902 7.23969C14.1102 7.65969 14.1102 8.3402 13.6902 8.7602L12.8797 9.56977C12.6798 9.76965 12.5703 10.0497 12.5701 10.3295V11.4799C12.5701 12.0699 12.0898 12.5502 11.4998 12.5502H10.3504C10.0604 12.5502 9.78966 12.6598 9.58966 12.8598L8.78009 13.6704C8.36021 14.0901 7.68054 14.0899 7.26056 13.6704L6.45001 12.8598C6.25006 12.6599 5.97012 12.5503 5.69024 12.5502H4.53985C3.94995 12.5501 3.47052 12.0699 3.47052 11.4799V10.3295C3.4704 10.0397 3.35986 9.76966 3.15997 9.56977L2.3504 8.7602C1.9304 8.3402 1.9304 7.65969 2.3504 7.23969L3.15997 6.43012C3.35989 6.2302 3.47043 5.95024 3.47052 5.67036V4.51997C3.47055 3.93006 3.94997 3.44977 4.53985 3.44965H5.69024C5.98014 3.44961 6.25006 3.34 6.45001 3.14008L7.26056 2.32954ZM7.99981 4.50043C7.71993 4.50057 7.49981 4.72052 7.49981 5.00043V5.50043H6.99981C6.16993 5.50057 5.49981 6.17052 5.49981 7.00043C5.50004 7.83016 6.17007 8.5003 6.99981 8.50043H7.49981V9.50043H5.99981C5.71993 9.50057 5.49981 9.72052 5.49981 10.0004C5.50003 10.2802 5.72007 10.5003 5.99981 10.5004H7.49981V11.0004C7.50003 11.2802 7.72007 11.5003 7.99981 11.5004C8.27968 11.5004 8.4996 11.2802 8.49981 11.0004V10.5004H8.99981C9.82968 10.5004 10.4996 9.83024 10.4998 9.00043C10.4998 8.17043 9.82981 7.50043 8.99981 7.50043H8.49981V6.50043H9.99981C10.2797 6.50043 10.4996 6.28024 10.4998 6.00043C10.4998 5.72043 10.2798 5.50043 9.99981 5.50043H8.49981V5.00043C8.49981 4.72043 8.27981 4.50043 7.99981 4.50043Z" fill="black"/>
</svg>
