<svg width="16" height="16" viewBox="0 0 16 16" fill="none" xmlns="http://www.w3.org/2000/svg">
<path d="M9 12.5C9.27614 12.5 9.5 12.7239 9.5 13C9.5 13.2761 9.27614 13.5 9 13.5H3C2.72386 13.5 2.5 13.2761 2.5 13C2.5 12.7239 2.72386 12.5 3 12.5H9Z" fill="black"/>
<path d="M13 12.5C13.2761 12.5 13.5 12.7239 13.5 13C13.5 13.2761 13.2761 13.5 13 13.5H11C10.7239 13.5 10.5 13.2761 10.5 13C10.5 12.7239 10.7239 12.5 11 12.5H13Z" fill="black"/>
<path fill-rule="evenodd" clip-rule="evenodd" d="M13.3496 7C13.6796 7 13.9198 7.30012 13.8398 7.62012L13.124 10.5H14C14.2761 10.5 14.5 10.7239 14.5 11C14.5 11.2761 14.2761 11.5 14 11.5H2C1.72386 11.5 1.5 11.2761 1.5 11C1.5 10.7239 1.72386 10.5 2 10.5H3V8H2.99023C2.99023 7.45 3.44023 7 3.99023 7H13.3496ZM7 8.5C6.72 8.5 6.5 8.72 6.5 9C6.5 9.28 6.72 9.5 7 9.5C7.28 9.5 7.5 9.28 7.5 9C7.5 8.72 7.28 8.5 7 8.5ZM9 8.5C8.72 8.5 8.5 8.72 8.5 9C8.5 9.28 8.72 9.5 9 9.5C9.28 9.5 9.5 9.28 9.5 9C9.5 8.72 9.28 8.5 9 8.5ZM11 8.5C10.72 8.5 10.5 8.72 10.5 9C10.5 9.28 10.72 9.5 11 9.5C11.28 9.5 11.5 9.28 11.5 9C11.5 8.72 11.28 8.5 11 8.5Z" fill="black"/>
<path d="M8.75 2C9.16 2 9.5 2.34 9.5 2.75V4H10C10.55 4 11 4.45 11 5V6H5V5C5 4.45 5.45 4 6 4H6.5V2.75C6.5 2.34 6.84 2 7.25 2H8.75Z" fill="black"/>
</svg>
