<svg width="16" height="16" viewBox="0 0 16 16" fill="none" xmlns="http://www.w3.org/2000/svg">
<path d="M7.5 13.5H4C3.45 13.5 3 13.05 3 12.5V9H7.5V13.5Z" fill="black"/>
<path d="M13 9V12.5C13 13.05 12.55 13.5 12 13.5H8.5V9H13Z" fill="black"/>
<path fill-rule="evenodd" clip-rule="evenodd" d="M9.5 2C10.6 2 11.5 2.9 11.5 4C11.5 4.36393 11.4002 4.70521 11.2285 5H13C13.55 5 14 5.45 14 6V7C14 7.55 13.55 8 13 8H8.5V6H7.5V8H3C2.45 8 2 7.55 2 7V6C2 5.45 2.45 5 3 5H4.77148C4.59981 4.70521 4.5 4.36393 4.5 4C4.5 2.9 5.4 2 6.5 2C7.0965 2 7.63275 2.26591 8 2.68359C8.36725 2.26591 8.9035 2 9.5 2ZM6.5 3C5.95 3 5.5 3.45 5.5 4C5.5 4.55 5.95 5 6.5 5H7.5V4C7.5 3.45 7.05 3 6.5 3ZM9.5 3C8.95 3 8.5 3.45 8.5 4V5H9.5C10.05 5 10.5 4.55 10.5 4C10.5 3.45 10.05 3 9.5 3Z" fill="black"/>
</svg>
