<svg width="16" height="16" viewBox="0 0 16 16" fill="none" xmlns="http://www.w3.org/2000/svg">
<path d="M8 8.25C8.55228 8.25 9 8.69772 9 9.25C9 9.80228 8.55228 10.25 8 10.25C7.44772 10.25 7 9.80228 7 9.25C7 8.69772 7.44772 8.25 8 8.25Z" fill="black"/>
<path fill-rule="evenodd" clip-rule="evenodd" d="M7.00977 2.49023C7.28977 2.49023 7.50977 2.71023 7.50977 2.99023V4.49023C7.50964 4.77012 7.28968 4.99023 7.00977 4.99023H4.58008C4.30008 4.99023 4.08008 5.21023 4.08008 5.49023C4.08021 5.77012 4.30016 5.99023 4.58008 5.99023H11.4404C11.7201 5.99001 11.9403 5.76998 11.9404 5.49023C11.9404 5.21038 11.7202 4.99046 11.4404 4.99023H9.00977C8.72996 4.99011 8.50989 4.77004 8.50977 4.49023V2.99023C8.50977 2.71032 8.72988 2.49036 9.00977 2.49023H10.9697C11.2997 2.49023 11.6098 2.66043 11.7998 2.94043L13.25 5.12012H13.2705C13.4304 5.36005 13.5205 5.65033 13.5205 5.9502V12.5C13.5205 13.0498 13.0703 13.4997 12.5205 13.5H3.52051C2.97051 13.5 2.51954 13.05 2.51953 12.5V5.9502C2.51953 5.6602 2.61051 5.37012 2.77051 5.12012L4.21973 2.94043C4.39969 2.66048 4.71987 2.4903 5.0498 2.49023H7.00977ZM8 7.24023C6.9 7.24023 6 8.14023 6 9.24023C6.00013 10.3401 6.90008 11.2402 8 11.2402C8.36993 11.2402 8.70981 11.1399 9.00977 10.96L9.65039 11.5996C9.74039 11.6996 9.88 11.75 10 11.75C10.12 11.75 10.2496 11.6996 10.3496 11.5996H10.3604C10.56 11.3996 10.5602 11.0895 10.3604 10.8896L9.71973 10.25C9.88969 9.95007 9.99995 9.61014 10 9.24023C10 8.14023 9.1 7.24023 8 7.24023Z" fill="black"/>
</svg>
