<svg width="16" height="16" viewBox="0 0 16 16" fill="none" xmlns="http://www.w3.org/2000/svg">
<path fill-rule="evenodd" clip-rule="evenodd" d="M8 2C11.31 2 14 4.69 14 8C14 11.31 11.31 14 8 14C4.69 14 2 11.31 2 8C2 4.69 4.69 2 8 2ZM8 4.5C7.16 4.5 6.5 5.16 6.5 6C6.5 6.45 6.63977 6.72043 6.75977 6.94043C6.83972 7.09036 6.91998 7.25013 6.95996 7.5H6.5C6.22 7.5 6 7.72 6 8C6 8.28 6.22 8.5 6.5 8.5H7V9.5C7 9.74512 6.83143 9.94443 6.60156 9.99023L6.39844 10.0098C6.16857 10.0556 6 10.2549 6 10.5C6 10.78 6.22 11 6.5 11H9.5C9.78 11 10 10.78 10 10.5C10 10.22 9.78 10 9.5 10H7.91016C7.97014 9.84002 8 9.67998 8 9.5V8.5H9.5C9.78 8.5 10 8.28 10 8C10 7.72 9.78 7.5 9.5 7.5H7.96973C7.89972 6.98002 7.75965 6.68972 7.63965 6.46973C7.54976 6.28997 7.5 6.19986 7.5 6C7.5 5.71 7.71 5.5 8 5.5C8.08999 5.5 8.36009 5.49991 8.58008 5.83984C8.72998 6.0697 9.03957 6.13987 9.26953 5.99023C9.49953 5.84023 9.56992 5.5298 9.41992 5.2998C9.08992 4.77992 8.57993 4.5 8 4.5Z" fill="currentColor"/>
</svg>
