<svg width="16" height="16" viewBox="0 0 16 16" fill="none" xmlns="http://www.w3.org/2000/svg">
<path fill-rule="evenodd" clip-rule="evenodd" d="M8.00967 1.5C9.38967 1.5 10.5097 2.62 10.5097 4V5H11.6103C12.12 5.00013 12.5393 5.37994 12.5995 5.88965H12.6103L13.3895 12.8896C13.4595 13.4796 13.0002 13.9999 12.4003 14H3.62978C3.03989 13.9999 2.56956 13.4796 2.63955 12.8896L3.41982 5.88965C3.46997 5.37981 3.90017 5 4.41006 5H5.50967V4C5.50967 2.62012 6.62983 1.50019 8.00967 1.5ZM7.9999 2.5C7.16995 2.50006 6.4999 3.17004 6.4999 4V5H9.4999V4C9.4999 3.17 8.8299 2.5 7.9999 2.5Z" fill="currentColor"/>
</svg>
