<svg width="16" height="16" viewBox="0 0 16 16" fill="none" xmlns="http://www.w3.org/2000/svg">
<path d="M9.5 8.5C9.78 8.5 10 8.72 10 9C10 9.28 9.78 9.5 9.5 9.5H7.5V8.5H9.5Z" fill="currentColor"/>
<path d="M9 6.5C9.28 6.5 9.5 6.72 9.5 7C9.5 7.28 9.28 7.5 9 7.5H7.5V6.5H9Z" fill="currentColor"/>
<path fill-rule="evenodd" clip-rule="evenodd" d="M8 2C11.31 2 14 4.69 14 8C14 11.31 11.31 14 8 14C4.69 14 2 11.31 2 8C2 4.69 4.69 2 8 2ZM8.5 4.5C8.22 4.5 8 4.72 8 5V5.5H7.5V5C7.5 4.72 7.28 4.5 7 4.5C6.72 4.5 6.5 4.72 6.5 5V5.5H6C5.72 5.5 5.5 5.72 5.5 6C5.5 6.28 5.72 6.5 6 6.5H6.5V9.5H6C5.72 9.5 5.5 9.72 5.5 10C5.5 10.28 5.72 10.5 6 10.5H6.5V11C6.5 11.28 6.72 11.5 7 11.5C7.28 11.5 7.5 11.28 7.5 11V10.5H8V11C8 11.28 8.22 11.5 8.5 11.5C8.78 11.5 9 11.28 9 11V10.5H9.5C10.33 10.5 11 9.83 11 9C11 8.47 10.7198 8.01023 10.2998 7.74023C10.4198 7.52023 10.5 7.27 10.5 7C10.5 6.17 9.83 5.5 9 5.5V5C9 4.72 8.78 4.5 8.5 4.5Z" fill="currentColor"/>
</svg>
