<svg width="16" height="16" viewBox="0 0 16 16" fill="none" xmlns="http://www.w3.org/2000/svg">
<path d="M7.17969 2.5C7.38969 2.5 7.50012 2.74016 7.37012 2.91016L6.74023 3.7002C6.60025 3.88018 6.60051 4.12958 6.73047 4.30957L7.7998 5.73047C7.91965 5.89045 7.93003 6.11012 7.83008 6.29004L7.25977 7.23047C7.11041 7.48033 7.42001 7.73946 7.62988 7.55957L9.13965 6.2998C9.33963 6.12982 9.36992 5.83012 9.20996 5.62012L8.23047 4.30957C8.10051 4.12958 8.10025 3.88018 8.24023 3.7002L9.02051 2.73047C9.13051 2.58047 9.31023 2.5 9.49023 2.5H11C11.55 2.5 12 2.95 12 3.5V6C12 8.03999 10.47 9.71971 8.5 9.96973V13H10.5C10.78 13 10.99 13.2102 11 13.4902C11.0098 13.7701 10.7496 14 10.4697 14H5.5C5.22 14 5.01 13.7898 5 13.5098C4.99015 13.2299 5.25035 13 5.53027 13H7.5V9.96973C5.53002 9.71971 4 8.03999 4 6V3.5C4 2.95 4.45 2.5 5 2.5H7.17969Z" fill="currentColor"/>
</svg>
