<svg width="16" height="16" viewBox="0 0 16 16" fill="none" xmlns="http://www.w3.org/2000/svg">
<path fill-rule="evenodd" clip-rule="evenodd" d="M5 6.19043C5 5.75056 5.53957 5.53024 5.84961 5.83984L7 6.99023H10C11.49 6.99023 12.7102 8.08 12.9502 9.5C12.9701 9.49008 12.9801 9.49023 13 9.49023C13.27 9.49023 13.5 9.27977 13.5 9.00977C13.5101 8.75996 13.6799 8.53014 13.9297 8.5V8.48047C14.2397 8.44047 14.5 8.68047 14.5 8.98047C14.4998 9.81026 13.8299 10.4805 13 10.4805V10.9805C12.9998 12.0803 12.0999 12.9805 11 12.9805V13.4805C10.9998 13.7603 10.7799 13.9805 10.5 13.9805H9.5V13.4805C9.5 13.1805 9.22992 12.9402 8.91992 12.9902C8.67006 13.0303 8.50011 13.2599 8.5 13.5098V13.9805H7.5V13.4805C7.5 13.1805 7.22992 12.9402 6.91992 12.9902C6.67006 13.0303 6.50011 13.2599 6.5 13.5098V13.9805H5.5C5.22015 13.9805 5.00024 13.7603 5 13.4805V12.9805C3.90015 12.9805 3.00024 12.0803 3 10.9805H2.75C2.34015 10.9805 2.00025 10.6403 2 10.2305V9.73047C2 9.32047 2.34 8.98047 2.75 8.98047H3C3 7.88047 3.9 6.98047 5 6.98047V6.19043ZM6.5 8C6.22001 8 6.00001 8.22001 6 8.5C6 8.78 6.22 9 6.5 9H9.5C9.78 9 10 8.78 10 8.5C9.99999 8.22001 9.77999 8 9.5 8H6.5Z" fill="black"/>
<path d="M8 1.5C9.10457 1.5 10 2.39543 10 3.5C10 4.60457 9.10457 5.5 8 5.5C6.89543 5.5 6 4.60457 6 3.5C6 2.39543 6.89543 1.5 8 1.5Z" fill="black"/>
</svg>
