<svg width="16" height="16" viewBox="0 0 16 16" fill="none" xmlns="http://www.w3.org/2000/svg">
<path fill-rule="evenodd" clip-rule="evenodd" d="M10.9902 2C11.5401 2.00013 11.9902 2.45008 11.9902 3V13.2998C11.9902 13.5498 11.68 13.68 11.5 13.5L9.99023 11.9902L8.7002 13.2803C8.31024 13.6702 7.68004 13.6701 7.29004 13.2803L6 11.9902L4.49023 13.5C4.31023 13.69 4 13.5598 4 13.2998V3C4 2.45 4.45 2 5 2H10.9902ZM8 7.5C7.72 7.5 7.5 7.72 7.5 8C7.5 8.28 7.72 8.5 8 8.5H10C10.28 8.5 10.5 8.28 10.5 8C10.5 7.72 10.28 7.5 10 7.5H8ZM6 5.5C5.72 5.5 5.5 5.72 5.5 6C5.5 6.28 5.72 6.5 6 6.5H10C10.28 6.5 10.5 6.28 10.5 6C10.5 5.72 10.28 5.5 10 5.5H6ZM6 3.5C5.72 3.5 5.5 3.72 5.5 4C5.5 4.28 5.72 4.5 6 4.5H10C10.28 4.5 10.5 4.28 10.5 4C10.5 3.72 10.28 3.5 10 3.5H6Z" fill="currentColor"/>
</svg>
