<svg width="16" height="16" viewBox="0 0 16 16" fill="none" xmlns="http://www.w3.org/2000/svg">
<path fill-rule="evenodd" clip-rule="evenodd" d="M10.9902 2C11.5401 2.00013 11.9902 2.45008 11.9902 3V13.2998C11.9902 13.5498 11.68 13.68 11.5 13.5L9.99023 11.9902L8.7002 13.2803C8.31024 13.6702 7.68004 13.6701 7.29004 13.2803L6 11.9902L4.49023 13.5C4.31023 13.69 4 13.5598 4 13.2998V3C4 2.45 4.45 2 5 2H10.9902ZM10.1104 4.88965C9.91048 4.68977 9.6004 4.69002 9.40039 4.88965L5.90039 8.38965C5.70039 8.58965 5.70039 8.89961 5.90039 9.09961C5.99039 9.19961 6.13 9.25 6.25 9.25C6.37 9.25 6.49961 9.19961 6.59961 9.09961L10.0996 5.59961H10.1104C10.31 5.3996 10.3102 5.08952 10.1104 4.88965ZM9.5 7.75C9.09 7.75 8.75 8.09 8.75 8.5C8.75 8.91 9.09 9.25 9.5 9.25C9.91 9.25 10.25 8.91 10.25 8.5C10.25 8.09 9.91 7.75 9.5 7.75ZM6.5 4.75C6.09 4.75 5.75 5.09 5.75 5.5C5.75 5.91 6.09 6.25 6.5 6.25C6.91 6.25 7.25 5.91 7.25 5.5C7.25 5.09 6.91 4.75 6.5 4.75Z" fill="black"/>
</svg>
