<svg width="16" height="16" viewBox="0 0 16 16" fill="none" xmlns="http://www.w3.org/2000/svg">
<path d="M2 10.5C2.27614 10.5 2.5 10.7239 2.5 11V13C2.5 13.2739 2.72614 13.5 3 13.5H5C5.27614 13.5 5.5 13.7239 5.5 14C5.5 14.2761 5.27614 14.5 5 14.5H3C2.17386 14.5 1.5 13.8261 1.5 13V11C1.5 10.7239 1.72386 10.5 2 10.5Z" fill="currentColor"/>
<path d="M14 10.5C14.2761 10.5 14.5 10.7239 14.5 11V13C14.5 13.8261 13.8261 14.5 13 14.5H11C10.7239 14.5 10.5 14.2761 10.5 14C10.5 13.7239 10.7239 13.5 11 13.5H13C13.2739 13.5 13.5 13.2739 13.5 13V11C13.5 10.7239 13.7239 10.5 14 10.5Z" fill="currentColor"/>
<path fill-rule="evenodd" clip-rule="evenodd" d="M11 5C11.55 5 12 5.45 12 6V10C12 10.55 11.55 11 11 11H5C4.45 11 4 10.55 4 10V6C4 5.45 4.45 5 5 5H11ZM9.49023 9C9.21023 9 8.99023 9.22 8.99023 9.5C8.99023 9.78 9.21023 10 9.49023 10H10.4902C10.7701 9.99987 10.9902 9.77992 10.9902 9.5C10.9902 9.22008 10.7701 9.00013 10.4902 9H9.49023ZM5.5 6.5C5.22 6.5 5 6.72 5 7C5 7.28 5.22 7.5 5.5 7.5H10.5C10.78 7.5 11 7.28 11 7C11 6.72 10.78 6.5 10.5 6.5H5.5Z" fill="currentColor"/>
<path d="M5 1.5C5.27614 1.5 5.5 1.72386 5.5 2C5.5 2.27614 5.27614 2.5 5 2.5H3C2.72614 2.5 2.5 2.72614 2.5 3V5C2.5 5.27614 2.27614 5.5 2 5.5C1.72386 5.5 1.5 5.27614 1.5 5V3C1.5 2.17386 2.17386 1.5 3 1.5H5Z" fill="currentColor"/>
<path d="M13 1.5C13.8261 1.5 14.5 2.17386 14.5 3V5C14.5 5.27614 14.2761 5.5 14 5.5C13.7239 5.5 13.5 5.27614 13.5 5V3C13.5 2.72614 13.2739 2.5 13 2.5H11C10.7239 2.5 10.5 2.27614 10.5 2C10.5 1.72386 10.7239 1.5 11 1.5H13Z" fill="currentColor"/>
</svg>
