<svg width="16" height="16" viewBox="0 0 16 16" fill="none" xmlns="http://www.w3.org/2000/svg">
<path fill-rule="evenodd" clip-rule="evenodd" d="M7.00977 2.49023C7.28977 2.49023 7.50977 2.71023 7.50977 2.99023V4.49023C7.50964 4.77012 7.28968 4.99023 7.00977 4.99023H4.58008C4.30008 4.99023 4.08008 5.21023 4.08008 5.49023C4.08021 5.77012 4.30016 5.99023 4.58008 5.99023H11.4404C11.7201 5.99001 11.9403 5.76998 11.9404 5.49023C11.9404 5.21038 11.7202 4.99046 11.4404 4.99023H9.00977C8.72996 4.99011 8.50989 4.77004 8.50977 4.49023V2.99023C8.50977 2.71032 8.72988 2.49036 9.00977 2.49023H10.9697C11.2997 2.49023 11.6098 2.66043 11.7998 2.94043L13.25 5.12012H13.2705C13.4304 5.36005 13.5205 5.65033 13.5205 5.9502V12.5C13.5205 13.0498 13.0703 13.4997 12.5205 13.5H3.52051C2.97051 13.5 2.51954 13.05 2.51953 12.5V5.9502C2.51953 5.6602 2.61051 5.37012 2.77051 5.12012L4.21973 2.94043C4.39969 2.66048 4.71987 2.4903 5.0498 2.49023H7.00977ZM9.83984 7.63965C9.63987 7.43994 9.3298 7.43984 9.12988 7.63965L8.00977 8.75977L6.88965 7.63965C6.68964 7.44 6.37957 7.43978 6.17969 7.63965C5.9798 7.83953 5.98003 8.1496 6.17969 8.34961L7.2998 9.46973L6.17969 10.5898C5.97985 10.7898 5.97996 11.0998 6.17969 11.2998C6.26969 11.3998 6.41027 11.4502 6.53027 11.4502C6.65021 11.4501 6.77995 11.3997 6.87988 11.2998L8 10.1797L9.12012 11.2998C9.21006 11.3997 9.34978 11.4501 9.46973 11.4502C9.58973 11.4502 9.72031 11.3998 9.82031 11.2998C10.02 11.0998 10.0201 10.7898 9.82031 10.5898H9.83984L8.71973 9.46973L9.83984 8.34961C10.0397 8.14961 10.0398 7.83962 9.83984 7.63965Z" fill="currentColor"/>
</svg>
