<svg width="16" height="16" viewBox="0 0 16 16" fill="none" xmlns="http://www.w3.org/2000/svg">
<path fill-rule="evenodd" clip-rule="evenodd" d="M13.5 3.49023C14.05 3.49023 14.5 3.94023 14.5 4.49023V10.4902C14.4999 11.0401 14.0499 11.4902 13.5 11.4902H12.5C12.4999 12.3201 11.8299 12.9902 11 12.9902C10.1701 12.9902 9.50013 12.3201 9.5 11.4902H6.5C6.49987 12.3201 5.82992 12.9902 5 12.9902C4.17008 12.9902 3.50013 12.3201 3.5 11.4902H2.5C1.95008 11.4902 1.50013 11.0401 1.5 10.4902V9.11035C1.5 8.74037 1.70983 8.38973 2.0498 8.21973L3.5 7.5V5.5C3.5 4.95 3.95 4.5 4.5 4.5H5.5V10C5.5 10.28 5.72 10.5 6 10.5C6.28 10.5 6.5 10.28 6.5 10V4.5C6.5 3.95 6.95 3.5 7.5 3.5H13.5V3.49023ZM10.3701 5.66016C10.1701 5.46016 9.86016 5.46017 9.66016 5.66016L8.16016 7.16016C8.11016 7.20016 8.0798 7.26031 8.0498 7.32031C7.99995 7.44024 7.99985 7.58031 8.0498 7.7002C8.07984 7.76021 8.16016 7.86035 8.16016 7.86035L9.66016 9.36035C9.7501 9.46009 9.88994 9.5097 10.0098 9.50977C10.1298 9.50977 10.2604 9.46035 10.3604 9.36035C10.5602 9.16048 10.56 8.8504 10.3604 8.65039L9.70996 8H12.5L12.5098 8.01953C12.7898 8.01953 13.0098 7.79953 13.0098 7.51953C13.0095 7.23975 12.7896 7.01953 12.5098 7.01953H9.71973L10.3701 6.37012C10.5701 6.17016 10.57 5.86016 10.3701 5.66016Z" fill="currentColor"/>
</svg>
