<svg width="16" height="16" viewBox="0 0 16 16" fill="none" xmlns="http://www.w3.org/2000/svg">
<path fill-rule="evenodd" clip-rule="evenodd" d="M7.00977 2.49023C7.28977 2.49023 7.50977 2.71023 7.50977 2.99023V4.49023C7.50964 4.77012 7.28968 4.99023 7.00977 4.99023H4.58008C4.30008 4.99023 4.08008 5.21023 4.08008 5.49023C4.08021 5.77012 4.30016 5.99023 4.58008 5.99023H11.4404C11.7201 5.99001 11.9403 5.76998 11.9404 5.49023C11.9404 5.21038 11.7202 4.99046 11.4404 4.99023H9.00977C8.72996 4.99011 8.50989 4.77004 8.50977 4.49023V2.99023C8.50977 2.71032 8.72988 2.49036 9.00977 2.49023H10.9697C11.2997 2.49023 11.6098 2.66043 11.7998 2.94043L13.25 5.12012H13.2705C13.4304 5.36005 13.5205 5.65033 13.5205 5.9502V12.5C13.5205 13.0498 13.0703 13.4997 12.5205 13.5H3.52051C2.97051 13.5 2.51954 13.05 2.51953 12.5V5.9502C2.51953 5.6602 2.61051 5.37012 2.77051 5.12012L4.21973 2.94043C4.39969 2.66048 4.71987 2.4903 5.0498 2.49023H7.00977ZM8 11C7.72 11 7.5 11.22 7.5 11.5C7.50001 11.78 7.72001 12 8 12C8.27999 12 8.49999 11.78 8.5 11.5C8.5 11.22 8.28 11 8 11ZM8 7C7.17 7 6.5 7.67 6.5 8.5C6.50001 8.77999 6.72001 9 7 9C7.24512 9 7.44442 8.83142 7.49023 8.60156L7.50977 8.39844C7.55557 8.16857 7.75487 8 8 8C8.28 8 8.5 8.22 8.5 8.5C8.49999 8.64999 8.37996 8.80012 8.20996 8.87012L8.04004 8.94043C7.7101 9.07045 7.5 9.39004 7.5 9.75V10C7.50001 10.28 7.72001 10.5 8 10.5C8.27999 10.5 8.49999 10.28 8.5 10V9.83984L8.58984 9.7998C9.13984 9.56981 9.49999 9.06999 9.5 8.5C9.5 7.67 8.83 7 8 7Z" fill="black"/>
</svg>
