<svg width="16" height="16" viewBox="0 0 16 16" fill="none" xmlns="http://www.w3.org/2000/svg">
<path d="M5.91016 4.95022C6.27016 4.68022 6.75035 4.68022 7.11035 4.95022L7.55957 5.29006C7.82957 5.49006 7.82957 5.88987 7.55957 6.08987L5.04004 7.97952C4.72004 8.21952 4.28973 8.21952 3.96973 7.97952C3.74975 7.81986 3.43943 7.86024 3.26953 8.0801C3.09982 8.30008 3.15022 8.61038 3.37012 8.7803L5.7002 10.5303C5.79014 10.6001 5.9001 10.6299 6 10.6299C6.18 10.6299 6.3602 10.5296 6.4502 10.3496C6.55991 10.1298 6.48004 9.85993 6.28027 9.70998L5.87012 9.40041C5.60012 9.20041 5.60012 8.79963 5.87012 8.59963L8.32031 6.75979C8.68015 6.4901 9.15967 6.49016 9.51953 6.75979L10.0996 7.20022C10.3496 7.39022 10.5 7.69002 10.5 8.00002H10.5098V11C10.5097 11.3099 10.3602 11.6098 10.1104 11.7998L7.11035 14.0498C6.75036 14.3198 6.27015 14.3198 5.91016 14.0498L2.91016 11.7998C2.66017 11.6098 2.50978 11.31 2.50977 11V8.00002C2.50977 7.69003 2.66017 7.39022 2.91016 7.20022L5.91016 4.95022Z" fill="currentColor"/>
<path d="M10.1465 2.14651C10.3417 1.95125 10.6583 1.95125 10.8535 2.14651C11.0488 2.34177 11.0488 2.65828 10.8535 2.85354L10.707 3.00002H13C14.1061 3.00002 15 3.89388 15 5.00002C15 6.10614 14.1061 7.00002 13 7.00002H12.5C12.2239 7.00002 12 6.77614 12 6.50002C12 6.22388 12.2239 6.00002 12.5 6.00002H13C13.5538 6.00002 14 5.55386 14 5.00002C14 4.44617 13.5539 4.00002 13 4.00002H10.707L10.8535 4.14651C11.0488 4.34177 11.0488 4.65828 10.8535 4.85354C10.6583 5.04878 10.3417 5.04879 10.1465 4.85354L9.14648 3.85354C9.1123 3.81936 9.08569 3.78057 9.06348 3.74026C9.03909 3.69605 9.01889 3.64877 9.00879 3.59768C8.996 3.53304 8.99588 3.46601 9.00879 3.40139C9.01898 3.35035 9.03903 3.30296 9.06348 3.25881C9.08563 3.21877 9.11251 3.18048 9.14648 3.14651L10.1465 2.14651Z" fill="currentColor"/>
</svg>
