<svg width="16" height="16" viewBox="0 0 16 16" fill="none" xmlns="http://www.w3.org/2000/svg">
<path d="M8.5 3.5C9.05 3.5 9.5 3.95 9.5 4.5V10C9.5 10.28 9.72 10.5 10 10.5C10.28 10.5 10.5 10.28 10.5 10V4.5H11.5C12.05 4.5 12.5 4.95 12.5 5.5V7.5L13.9502 8.21973V8.23047C14.29 8.40052 14.5 8.74024 14.5 9.12012V10.5C14.5 11.05 14.05 11.5 13.5 11.5H12.5C12.5 12.33 11.83 13 11 13C10.17 13 9.5 12.33 9.5 11.5H6.5C6.5 12.33 5.83 13 5 13C4.17 13 3.5 12.33 3.5 11.5H2.5C1.95 11.5 1.5 11.05 1.5 10.5V10H3.5C3.78 10 4 9.78 4 9.5C4 9.22 3.78 9 3.5 9H1.5V8H5.5C5.78 8 6 7.78 6 7.5C6 7.22 5.78 7 5.5 7H1.5V6H7.5C7.78 6 8 5.78 8 5.5C8 5.22 7.78 5 7.5 5H1.5V4.5C1.5 3.95 1.95 3.5 2.5 3.5H8.5Z" fill="black"/>
</svg>
