<svg width="16" height="16" viewBox="0 0 16 16" fill="none" xmlns="http://www.w3.org/2000/svg">
<path fill-rule="evenodd" clip-rule="evenodd" d="M8.5 3.5C9.05 3.5 9.5 3.95 9.5 4.5V10C9.5 10.28 9.72 10.5 10 10.5C10.28 10.5 10.5 10.28 10.5 10V4.5H11.5C12.05 4.5 12.5 4.95 12.5 5.5V7.5L13.9502 8.21973V8.23047C14.29 8.40052 14.5 8.74024 14.5 9.12012V10.5C14.5 11.05 14.05 11.5 13.5 11.5H12.5C12.5 12.33 11.83 13 11 13C10.17 13 9.5 12.33 9.5 11.5H6.5C6.5 12.33 5.83 13 5 13C4.17 13 3.5 12.33 3.5 11.5H2.5C1.95 11.5 1.5 11.05 1.5 10.5V4.5C1.5 3.95 1.95 3.5 2.5 3.5H8.5ZM7.15039 6.08008C6.95045 5.88014 6.64044 5.88025 6.44043 6.08008L5.50977 7.00977L4.58008 6.08008C4.38009 5.88009 4.07012 5.8801 3.87012 6.08008C3.67012 6.28008 3.67012 6.59004 3.87012 6.79004L4.7998 7.71973L3.87012 8.65039C3.67025 8.8504 3.67016 9.1604 3.87012 9.36035C3.96006 9.46011 4.09988 9.5097 4.21973 9.50977C4.33972 9.50977 4.47032 9.46034 4.57031 9.36035L5.5 8.42969L6.42969 9.36035C6.51969 9.46032 6.66029 9.50977 6.78027 9.50977C6.90011 9.5097 7.02998 9.46013 7.12988 9.36035C7.32984 9.1604 7.32975 8.8504 7.12988 8.65039H7.15039L6.21973 7.71973L7.15039 6.79004C7.35015 6.59011 7.35011 6.28003 7.15039 6.08008Z" fill="currentColor"/>
</svg>
