<svg width="16" height="16" viewBox="0 0 16 16" fill="none" xmlns="http://www.w3.org/2000/svg">
<path fill-rule="evenodd" clip-rule="evenodd" d="M7.00977 2.49023C7.28977 2.49023 7.50977 2.71023 7.50977 2.99023V4.49023C7.50964 4.77012 7.28968 4.99023 7.00977 4.99023H4.58008C4.30008 4.99023 4.08008 5.21023 4.08008 5.49023C4.08021 5.77012 4.30016 5.99023 4.58008 5.99023H11.4404C11.7202 5.99003 11.9403 5.76999 11.9404 5.49023C11.9404 5.21037 11.7202 4.99044 11.4404 4.99023H9.00977C8.72998 4.99009 8.50989 4.77003 8.50977 4.49023V2.99023C8.50977 2.71033 8.7299 2.49038 9.00977 2.49023H10.9697C11.2997 2.49023 11.6098 2.66043 11.7998 2.94043L13.25 5.12012H13.2705C13.4304 5.36005 13.5205 5.65033 13.5205 5.9502V12.5C13.5205 13.0498 13.0703 13.4997 12.5205 13.5H3.52051C2.97051 13.5 2.51954 13.05 2.51953 12.5V5.9502C2.51953 5.6602 2.61051 5.37012 2.77051 5.12012L4.21973 2.94043C4.39969 2.66049 4.71988 2.49031 5.0498 2.49023H7.00977ZM8 7C7.72001 7.00002 7.5 7.22001 7.5 7.5V9H6C5.72001 9.00002 5.5 9.22001 5.5 9.5C5.50001 9.77998 5.72002 9.99998 6 10H7.5V11.5C7.50001 11.78 7.72002 12 8 12C8.27999 12 8.49999 11.78 8.5 11.5V10H10C10.28 10 10.5 9.77999 10.5 9.5C10.5 9.22 10.28 9 10 9H8.5V7.5C8.5 7.22 8.28 7 8 7Z" fill="currentColor"/>
</svg>
