<svg width="16" height="16" viewBox="0 0 16 16" fill="none" xmlns="http://www.w3.org/2000/svg">
<path d="M5.53004 2.84006C5.62002 2.57011 5.89997 2.42986 6.15992 2.51974C6.42977 2.60969 6.56993 2.88975 6.48023 3.14963L5.53004 5.99045H10.4802L9.53004 3.14963C9.45028 2.88973 9.59047 2.6097 9.85035 2.51974C10.1102 2.44 10.3903 2.58019 10.4802 2.84006L11.53 6.00021H13.0203C13.6601 6.00038 14.1297 6.59026 13.9998 7.21017L13.0095 11.8098C12.8595 12.5098 12.2498 13.0002 11.5398 13.0002H4.49C3.78 13.0002 3.17027 12.4998 3.02027 11.8098L2.03004 7.21017C1.90007 6.59033 2.36978 6.00051 3.00953 6.00021H4.48023L5.53004 2.84006Z" fill="black"/>
</svg>
