<svg width="16" height="16" viewBox="0 0 16 16" fill="none" xmlns="http://www.w3.org/2000/svg">
<path d="M5 11C5.83 11 6.5 11.67 6.5 12.5C6.5 13.33 5.83 14 5 14C4.17 14 3.5 13.33 3.5 12.5C3.5 11.67 4.17 11 5 11Z" fill="black"/>
<path d="M12 11C12.83 11 13.5 11.67 13.5 12.5C13.5 13.33 12.83 14 12 14C11.17 14 10.5 13.33 10.5 12.5C10.5 11.67 11.17 11 12 11Z" fill="black"/>
<path fill-rule="evenodd" clip-rule="evenodd" d="M2.80957 2C3.53957 2 4.16004 2.52047 4.29004 3.23047L4.42969 4H12.4004C12.6955 4.0001 12.9705 4.12653 13.1602 4.34961C13.3501 4.5796 13.4299 4.87994 13.3799 5.16992L12.6396 9.25977C12.5097 9.96971 11.8801 10.4901 11.1602 10.4902H5.83008C5.10008 10.4902 4.47961 9.96977 4.34961 9.25977L3.50977 4.59961V4.57031L3.2998 3.41016C3.2598 3.17016 3.04957 3 2.80957 3H2C1.72 3 1.5 2.78 1.5 2.5C1.5 2.22 1.72 2 2 2H2.80957ZM8.5 5.5C8.22 5.5 8 5.72 8 6V6.75H7.25C6.97 6.75 6.75 6.97 6.75 7.25C6.75 7.53 6.97 7.75 7.25 7.75H8V8.5C8 8.78 8.22 9 8.5 9C8.78 9 9 8.78 9 8.5V7.75H9.75C10.03 7.75 10.25 7.53 10.25 7.25C10.25 6.97 10.03 6.75 9.75 6.75H9V6C9 5.72 8.78 5.5 8.5 5.5Z" fill="black"/>
</svg>
