<svg width="16" height="16" viewBox="0 0 16 16" fill="none" xmlns="http://www.w3.org/2000/svg">
<path d="M2.70996 1.99023C3.40984 1.99023 4.02955 2.48987 4.17969 3.17969L4.34961 3.99023H12.0898C12.4698 3.99023 12.8196 4.16025 13.0596 4.4502C13.2996 4.7402 13.3903 5.12023 13.3203 5.49023L12.6602 8.79004C12.5202 9.48989 11.9002 9.9998 11.1904 10H5.5V11H11.5C12.33 11 13 11.67 13 12.5C13 13.33 12.33 14 11.5 14C10.67 14 10 13.33 10 12.5C10 12.3244 10.0317 12.1565 10.0869 12H6.41309C6.46826 12.1565 6.5 12.3244 6.5 12.5C6.5 13.33 5.83 14 5 14C4.17 14 3.5 13.33 3.5 12.5C3.5 11.8455 3.91688 11.2914 4.5 11.0859V9.55371L3.4502 4.62012C3.4502 4.62012 3.4502 4.59016 3.4502 4.58008L3.2002 3.38965C3.15009 3.15979 2.94986 2.99023 2.70996 2.99023H2.00977C1.72996 2.99011 1.50989 2.77004 1.50977 2.49023C1.50977 2.21032 1.72988 1.99036 2.00977 1.99023H2.70996Z" fill="currentColor"/>
</svg>
