<svg width="16" height="16" viewBox="0 0 16 16" fill="none" xmlns="http://www.w3.org/2000/svg">
<path d="M5 11C5.83 11 6.5 11.67 6.5 12.5C6.5 13.33 5.83 14 5 14C4.17 14 3.5 13.33 3.5 12.5C3.5 11.67 4.17 11 5 11Z" fill="black"/>
<path d="M12 11C12.83 11 13.5 11.67 13.5 12.5C13.5 13.33 12.83 14 12 14C11.17 14 10.5 13.33 10.5 12.5C10.5 11.67 11.17 11 12 11Z" fill="black"/>
<path fill-rule="evenodd" clip-rule="evenodd" d="M2.80957 2C3.53957 2 4.16004 2.52047 4.29004 3.23047L4.42969 4H12.4004C12.6955 4.0001 12.9705 4.12653 13.1602 4.34961C13.3501 4.5796 13.4299 4.87994 13.3799 5.16992L12.6396 9.25977C12.5097 9.96971 11.8801 10.4901 11.1602 10.4902H5.83008C5.10008 10.4902 4.47961 9.96977 4.34961 9.25977L3.50977 4.59961V4.57031L3.2998 3.41016C3.2598 3.17016 3.04957 3 2.80957 3H2C1.72 3 1.5 2.78 1.5 2.5C1.5 2.22 1.72 2 2 2H2.80957ZM10.3701 5.99023C10.1701 5.79023 9.86016 5.79023 9.66016 5.99023L8.20996 7.44043L7.36035 6.58984C7.16044 6.38993 6.8504 6.39011 6.65039 6.58984C6.45039 6.78984 6.45039 7.0998 6.65039 7.2998L7.84961 8.5C7.93961 8.6 8.0702 8.65039 8.2002 8.65039C8.33009 8.65033 8.45985 8.58991 8.5498 8.5L10.3496 6.7002H10.3701C10.5701 6.50025 10.5699 6.19024 10.3701 5.99023Z" fill="black"/>
</svg>
