<svg width="16" height="16" viewBox="0 0 16 16" fill="none" xmlns="http://www.w3.org/2000/svg">
<path fill-rule="evenodd" clip-rule="evenodd" d="M8 1.5C9.38 1.5 10.5 2.62 10.5 4V5H12C12.55 5 13 5.45 13 6V13C13 13.55 12.55 14 12 14H4C3.45 14 3 13.55 3 13V6C3 5.45 3.45 5 4 5H5.5V4C5.5 2.62 6.62 1.5 8 1.5ZM10.3701 7.94043C10.1701 7.74043 9.86016 7.74043 9.66016 7.94043L7.61035 9.99023L6.36035 8.74023C6.16038 8.54026 5.85039 8.54031 5.65039 8.74023C5.45039 8.94023 5.45039 9.2502 5.65039 9.4502L7.25 11.0498C7.33991 11.1497 7.46974 11.2001 7.59961 11.2002C7.72961 11.2002 7.8602 11.1398 7.9502 11.0498L10.3496 8.65039H10.3701C10.57 8.45048 10.5698 8.14044 10.3701 7.94043ZM8 2.5C7.17 2.5 6.5 3.17 6.5 4V5H9.5V4C9.5 3.17 8.83 2.5 8 2.5Z" fill="currentColor"/>
</svg>
