<svg width="16" height="16" viewBox="0 0 16 16" fill="none" xmlns="http://www.w3.org/2000/svg">
<path fill-rule="evenodd" clip-rule="evenodd" d="M8 1.5C9.38 1.5 10.5 2.62 10.5 4V5H12C12.55 5 13 5.45 13 6V13C13 13.55 12.55 14 12 14H4C3.45 14 3 13.55 3 13V6C3 5.45 3.45 5 4 5H5.5V4C5.5 2.62 6.62 1.5 8 1.5ZM9.65039 8.08008C9.45045 7.88014 9.14044 7.88025 8.94043 8.08008L8.00977 9.00977L7.08008 8.08008C6.88009 7.88009 6.57012 7.8801 6.37012 8.08008C6.17012 8.28008 6.17012 8.59004 6.37012 8.79004L7.2998 9.71973L6.37012 10.6504C6.17025 10.8504 6.17016 11.1604 6.37012 11.3604C6.46006 11.4601 6.59988 11.5097 6.71973 11.5098C6.83972 11.5098 6.97032 11.4603 7.07031 11.3604L8 10.4297L8.92969 11.3604C9.01969 11.4603 9.16029 11.5098 9.28027 11.5098C9.40011 11.5097 9.52998 11.4601 9.62988 11.3604C9.82984 11.1604 9.82975 10.8504 9.62988 10.6504H9.65039L8.71973 9.71973L9.65039 8.79004C9.85015 8.59011 9.85011 8.28003 9.65039 8.08008ZM8 2.5C7.17 2.5 6.5 3.17 6.5 4V5H9.5V4C9.5 3.17 8.83 2.5 8 2.5Z" fill="black"/>
</svg>
