<svg width="16" height="16" viewBox="0 0 16 16" fill="none" xmlns="http://www.w3.org/2000/svg">
<path fill-rule="evenodd" clip-rule="evenodd" d="M5.87988 4.5C6.27988 4.5 6.66043 4.66043 6.94043 4.94043L11.79 9.79004C12.18 10.18 12.18 10.8102 11.79 11.2002L9.2002 13.79C8.81021 14.18 8.18004 14.18 7.79004 13.79L2.94043 8.94043C2.66043 8.66043 2.5 8.27988 2.5 7.87988V5.5C2.5 4.95 2.95 4.5 3.5 4.5H5.87988ZM5.5 6.5C4.95 6.5 4.5 6.95 4.5 7.5C4.5 8.05 4.95 8.5 5.5 8.5C6.05 8.5 6.5 8.05 6.5 7.5C6.5 6.95 6.05 6.5 5.5 6.5Z" fill="currentColor"/>
<path d="M7.87988 2.5C8.27988 2.5 8.66043 2.66043 8.94043 2.94043L13.79 7.79004V7.7998C14.18 8.18979 14.18 8.81996 13.79 9.20996L13.0098 9.99023C12.9198 9.66023 12.75 9.33984 12.5 9.08984L7.34961 3.94043C7.06962 3.66044 6.69002 3.50002 6.29004 3.5H4.5C4.5 2.95 4.95 2.5 5.5 2.5H7.87988Z" fill="currentColor"/>
</svg>
