<svg width="16" height="16" viewBox="0 0 16 16" fill="none" xmlns="http://www.w3.org/2000/svg">
<path d="M7.09961 3.5C7.61961 3.55 8 4.02004 8 4.54004V7.5L10.4902 8.12012H10.5C11.3898 8.3401 12.0096 9.13978 12.0098 10.0596V13C12.0098 13.55 11.5598 14 11.0098 14H6.19043C5.62043 14 5.09961 13.6799 4.84961 13.1699L4.03027 11.54C3.70027 10.9 3.75039 10.14 4.15039 9.54004L5.25977 7.87988V10.1299C5.25977 10.3299 5.41992 10.5 5.62988 10.5C5.82988 10.5 6 10.3399 6 10.1299V4.5C6.00001 3.91012 6.49977 3.44022 7.09961 3.5Z" fill="currentColor"/>
<path d="M4 4.5C4.27614 4.5 4.5 4.72386 4.5 5C4.5 5.27614 4.27614 5.5 4 5.5H3.5C3.22386 5.5 3 5.27614 3 5C3 4.72386 3.22386 4.5 3.5 4.5H4Z" fill="currentColor"/>
<path d="M10.5 4.5C10.7761 4.5 11 4.72386 11 5C11 5.27614 10.7761 5.5 10.5 5.5H10C9.72386 5.5 9.5 5.27614 9.5 5C9.5 4.72386 9.72386 4.5 10 4.5H10.5Z" fill="currentColor"/>
<path d="M4.17676 2.17676C4.37202 1.9815 4.68853 1.9815 4.88379 2.17676L5.2334 2.52637C5.4284 2.72165 5.42857 3.03822 5.2334 3.2334C5.03822 3.42855 4.72164 3.42839 4.52637 3.2334L4.17676 2.88379C3.9815 2.68853 3.98151 2.37202 4.17676 2.17676Z" fill="currentColor"/>
<path d="M9.11621 2.17676C9.31141 1.98156 9.62797 1.9817 9.82324 2.17676C10.0183 2.37204 10.0184 2.68859 9.82324 2.88379L9.47363 3.2334C9.27843 3.42852 8.96185 3.42844 8.7666 3.2334C8.57156 3.03814 8.57148 2.72157 8.7666 2.52637L9.11621 2.17676Z" fill="currentColor"/>
<path d="M7 1C7.27614 1 7.5 1.22386 7.5 1.5V2C7.5 2.27614 7.27614 2.5 7 2.5C6.72386 2.5 6.5 2.27614 6.5 2V1.5C6.5 1.22386 6.72386 1 7 1Z" fill="currentColor"/>
</svg>
