<svg width="16" height="16" viewBox="0 0 16 16" fill="none" xmlns="http://www.w3.org/2000/svg">
<path d="M2.52002 4.61035C2.90995 4.22047 3.5392 4.22058 3.9292 4.61035L6.40967 7.08984L8.12939 5.92969C8.91927 5.38978 9.98942 5.49021 10.6694 6.16992L12.7993 8.2998C13.1893 8.6898 13.1893 9.31996 12.7993 9.70996L9.79932 12.71C9.60935 12.8998 9.35921 13 9.08936 13H5.36963C4.59012 12.9997 4.32999 11.96 5.00928 11.5898L7.00928 10.5L2.52002 6.01953C2.13029 5.62958 2.13029 5.0003 2.52002 4.61035Z" fill="black"/>
<path d="M7.53955 2.32031C9.45946 2.32031 11.2499 3.07005 12.6099 4.41992L12.8296 4.63965C13.0295 4.83958 13.0294 5.1496 12.8296 5.34961C12.7397 5.44937 12.5998 5.4999 12.48 5.5C12.3601 5.49989 12.2293 5.4495 12.1294 5.34961L11.9097 5.12988C10.7397 3.95003 9.16917 3.31031 7.50928 3.32031C6.52959 3.32043 5.5895 3.56015 4.73975 4L4.63916 3.90039H4.61963C4.36968 3.66049 4.07919 3.49037 3.75928 3.40039C4.86917 2.71046 6.14989 2.32039 7.48975 2.32031H7.53955Z" fill="black"/>
</svg>
