<svg width="16" height="16" viewBox="0 0 16 16" fill="none" xmlns="http://www.w3.org/2000/svg">
<path d="M7.86967 2.99023C8.35958 2.99034 8.75053 3.39018 8.75053 3.87012V8.08984L8.96049 8.13965L8.92045 8.12012C9.82018 8.3403 10.4605 9.14049 10.4605 10.0703V12.9902C10.4604 13.54 10.0102 13.99 9.46049 13.9902H4.58061C4.21074 13.9902 3.86005 13.7802 3.68998 13.4404L2.48979 11.0303C2.15984 10.3904 2.21009 9.63023 2.6099 9.03027L3.72025 7.37012V9.62012C3.72032 9.83006 3.89018 10 4.10014 10C4.31 9.99989 4.47995 9.82999 4.48002 9.62012V3.87012C4.48002 3.38019 4.87001 2.99035 5.3599 2.99023C5.84981 2.99034 6.23979 3.39018 6.23979 3.87012V7.49023H6.98979V3.87012C6.98979 3.38027 7.37989 2.99048 7.86967 2.99023Z" fill="currentColor"/>
<path d="M10.897 3.14648C11.0923 2.9515 11.4089 2.95132 11.604 3.14648C11.7989 3.34168 11.7989 3.65832 11.604 3.85352L10.9576 4.5L11.604 5.14648C11.7989 5.34168 11.7989 5.65832 11.604 5.85352C11.4089 6.04868 11.0923 6.0485 10.897 5.85352L9.89701 4.85352C9.70175 4.65825 9.70175 4.34175 9.89701 4.14648L10.897 3.14648Z" fill="currentColor"/>
<path d="M12.897 3.14648C13.0923 2.9515 13.4089 2.95132 13.604 3.14648L14.604 4.14648C14.7989 4.34168 14.7989 4.65832 14.604 4.85352L13.604 5.85352C13.4089 6.04868 13.0923 6.0485 12.897 5.85352C12.7017 5.65825 12.7017 5.34175 12.897 5.14648L13.5435 4.5L12.897 3.85352C12.7017 3.65825 12.7017 3.34175 12.897 3.14648Z" fill="currentColor"/>
</svg>
