<svg width="16" height="16" viewBox="0 0 16 16" fill="none" xmlns="http://www.w3.org/2000/svg">
<path d="M4.47012 3.15002C4.82011 2.80013 5.37991 2.80009 5.72988 3.15002L8.35977 5.7799L8.35 5.78966C9.00998 5.33982 9.90018 5.41992 10.4701 5.98986L12.7904 8.31017C13.1801 8.70017 13.1802 9.33043 12.7904 9.72033L9.79043 12.7203C9.60055 12.9002 9.35028 13.0102 9.08047 13.0104H5.35977C4.57992 13.0102 4.32045 11.9702 5.00039 11.6002L7.00039 10.5104L2.43008 5.94982C2.08013 5.59982 2.08009 5.04004 2.43008 4.69005C2.78006 4.34012 3.33986 4.34013 3.68984 4.69005L6.22012 7.22033L6.75039 6.69005L4.47012 4.40978C4.12016 4.05978 4.12013 3.5 4.47012 3.15002Z" fill="black"/>
<path d="M7.51016 2.31994C9.42988 2.29999 11.2496 3.04987 12.6195 4.41955L12.8402 4.64025C13.04 4.84026 13.0401 5.1503 12.8402 5.35021C12.7502 5.45019 12.6096 5.49962 12.4896 5.49962C12.3698 5.49953 12.2399 5.45002 12.14 5.35021L11.9203 5.12951C10.7503 3.95956 9.20992 3.31994 7.55996 3.31994H7.51992C7.4601 3.31995 7.39033 3.32965 7.33047 3.3297L6.43984 2.44005C6.43005 2.43029 6.40957 2.41955 6.40957 2.41955C6.76956 2.35955 7.14016 2.31994 7.51016 2.31994Z" fill="black"/>
</svg>
