<svg width="16" height="16" viewBox="0 0 16 16" fill="none" xmlns="http://www.w3.org/2000/svg">
<path d="M9 3.5C9.55 3.5 10 3.95 10 4.5V7.5L12.4902 8.12012C13.38 8.34017 13.9998 9.13984 14 10.0596V13C14 13.55 13.55 14 13 14H8.41016C8.14019 14 7.89019 13.8899 7.7002 13.71L5.29004 11.2998C4.60026 10.6099 5.21993 9.45002 6.17969 9.63965L8 10V4.5C8 3.95 8.45 3.5 9 3.5Z" fill="black"/>
<path d="M2 4.5C2.27614 4.5 2.5 4.72386 2.5 5V6.5H4C4.27614 6.5 4.5 6.72386 4.5 7C4.5 7.27614 4.27614 7.5 4 7.5H2C1.72386 7.5 1.5 7.27614 1.5 7V5C1.5 4.72386 1.72386 4.5 2 4.5Z" fill="black"/>
<path d="M6 2.5C6.27614 2.5 6.5 2.72386 6.5 3V5C6.5 5.27614 6.27614 5.5 6 5.5C5.72386 5.5 5.5 5.27614 5.5 5V3.5H4C3.72386 3.5 3.5 3.27614 3.5 3C3.5 2.72386 3.72386 2.5 4 2.5H6Z" fill="black"/>
</svg>
