<svg width="16" height="16" viewBox="0 0 16 16" fill="none" xmlns="http://www.w3.org/2000/svg">
<path d="M7.00049 2.49023C7.41029 2.49048 7.75049 2.83039 7.75049 3.24023V7H8.50049V3.74023C8.50049 3.33023 8.84049 2.99023 9.25049 2.99023C9.66029 2.99048 10.0005 3.33039 10.0005 3.74023V7.28418C10.5856 7.63362 10.98 8.27228 10.98 9V12.5C10.98 13.05 10.53 13.5 9.97998 13.5H4.1001C3.73021 13.5 3.38051 13.29 3.21045 12.9502L2.01025 10.54C1.68025 9.90004 1.73037 9.14004 2.13037 8.54004L3.23975 6.87988V9.12988C3.23975 9.33974 3.40983 9.50953 3.61963 9.50977C3.82961 9.50974 4.00049 9.33987 4.00049 9.12988V3.25C4.00049 2.84 4.34049 2.5 4.75049 2.5C5.16028 2.50026 5.50049 2.84015 5.50049 3.25V7H6.25049V3.24023C6.25049 2.83023 6.59049 2.49023 7.00049 2.49023Z" fill="currentColor"/>
<path d="M13.5005 2.5C13.7764 2.50024 14.0005 2.72401 14.0005 3V5.79297L14.147 5.64648C14.3423 5.45145 14.6588 5.4513 14.854 5.64648C15.049 5.84169 15.049 6.15831 14.854 6.35352L13.854 7.35352C13.8303 7.37725 13.804 7.39839 13.7759 7.41699C13.7716 7.4198 13.7665 7.42117 13.7622 7.42383C13.7121 7.45487 13.657 7.47845 13.5972 7.49023C13.5327 7.50294 13.4663 7.50308 13.4019 7.49023C13.3421 7.47834 13.2868 7.45494 13.2368 7.42383C13.2325 7.42116 13.2274 7.41979 13.2231 7.41699C13.1955 7.39862 13.1704 7.37687 13.147 7.35352L12.147 6.35352C11.9517 6.15825 11.9517 5.84175 12.147 5.64648C12.3423 5.45145 12.6588 5.4513 12.854 5.64648L13.0005 5.79297V3C13.0005 2.72386 13.2243 2.5 13.5005 2.5Z" fill="currentColor"/>
</svg>
