<svg width="16" height="16" viewBox="0 0 16 16" fill="none" xmlns="http://www.w3.org/2000/svg">
<path d="M5.60014 3.50018C6.12003 3.55028 6.50053 4.02029 6.50053 4.54022V7.50018L8.98978 8.1203H9.00053C9.89008 8.34048 10.5101 9.14013 10.5103 10.0598V13.0002C10.5102 13.55 10.0601 14 9.51029 14.0002H4.68998C4.12013 14.0001 3.60015 13.6799 3.35014 13.1701L2.52982 11.5402C2.19992 10.9003 2.25008 10.1402 2.64994 9.54022L3.76029 7.88007V10.1301C3.76039 10.33 3.92047 10.5002 4.13041 10.5002C4.33017 10.5 4.50043 10.3398 4.50053 10.1301V4.50018C4.50053 3.91018 5.00014 3.44018 5.60014 3.50018Z" fill="currentColor"/>
<path d="M9.22709 2.22675C10.2024 1.25167 11.789 1.25155 12.7642 2.22675C13.6558 3.11889 13.7297 4.52102 12.9898 5.50018H13.2105C13.4864 5.50044 13.7105 5.7242 13.7105 6.00018C13.7104 6.27609 13.4864 6.49993 13.2105 6.50018H11.7105C11.4344 6.50018 11.2106 6.27624 11.2105 6.00018V4.50018C11.2105 4.22404 11.4343 4.00018 11.7105 4.00018C11.9864 4.00044 12.2105 4.2242 12.2105 4.50018V4.87323C12.634 4.28719 12.584 3.46109 12.0572 2.93378C11.4725 2.3491 10.5189 2.34922 9.93412 2.93378C9.34939 3.51852 9.34938 4.47209 9.93412 5.05682C10.1288 5.25206 10.129 5.56874 9.93412 5.76386C9.73902 5.95891 9.42238 5.95862 9.22709 5.76386C8.25183 4.7886 8.25183 3.20201 9.22709 2.22675Z" fill="currentColor"/>
</svg>
