<svg width="16" height="16" viewBox="0 0 16 16" fill="none" xmlns="http://www.w3.org/2000/svg">
<path d="M7.00008 3.5C7.54988 3.50024 8.00008 3.95015 8.00008 4.5V7.5L10.4893 8.12012C11.3792 8.34008 11.9999 9.13975 12.0001 10.0596V13C12.0001 13.5499 11.5499 13.9998 11.0001 14H6.40926C6.13954 13.9998 5.88913 13.8898 5.6993 13.71L3.28914 11.2998C2.60006 10.6098 3.22022 9.45006 4.17977 9.63965L6.00008 10V4.5C6.00008 3.95013 6.45025 3.50021 7.00008 3.5Z" fill="currentColor"/>
<path d="M4.00008 4.5C4.276 4.50025 4.50008 4.72401 4.50008 5C4.50008 5.27599 4.276 5.49975 4.00008 5.5H3.50008C3.22411 5.4998 3.00008 5.27602 3.00008 5C3.00008 4.72398 3.22411 4.5002 3.50008 4.5H4.00008Z" fill="currentColor"/>
<path d="M10.5001 4.5C10.776 4.50025 11.0001 4.72401 11.0001 5C11.0001 5.27599 10.776 5.49975 10.5001 5.5H10.0001C9.72411 5.4998 9.50008 5.27602 9.50008 5C9.50008 4.72398 9.72411 4.5002 10.0001 4.5H10.5001Z" fill="currentColor"/>
<path d="M4.17586 2.17676C4.37106 1.98157 4.68762 1.98169 4.88289 2.17676L5.2325 2.52637C5.42774 2.72163 5.42774 3.03814 5.2325 3.2334C5.0372 3.42819 4.72057 3.42851 4.52547 3.2334L4.17586 2.88379C3.98095 2.68866 3.98112 2.37199 4.17586 2.17676Z" fill="currentColor"/>
<path d="M9.11531 2.17676C9.31043 1.98163 9.62704 1.98192 9.82234 2.17676C10.0176 2.37201 10.0176 2.68852 9.82234 2.88379L9.47273 3.2334C9.27744 3.42815 8.9608 3.42848 8.7657 3.2334C8.57106 3.03828 8.57112 2.72153 8.7657 2.52637L9.11531 2.17676Z" fill="currentColor"/>
<path d="M7.00008 1C7.276 1.00025 7.50008 1.22401 7.50008 1.5V2C7.50008 2.27599 7.276 2.49975 7.00008 2.5C6.72411 2.4998 6.50008 2.27602 6.50008 2V1.5C6.50008 1.22398 6.72411 1.0002 7.00008 1Z" fill="currentColor"/>
</svg>
