<svg width="16" height="16" viewBox="0 0 16 16" fill="none" xmlns="http://www.w3.org/2000/svg">
<path d="M8.36968 2.5C8.85956 2.50009 9.25048 2.89999 9.25054 3.37988V7.58984L9.42534 7.63086L9.42925 7.63184C10.3244 7.855 10.9605 8.65323 10.9605 9.58008V12.5C10.9605 13.0498 10.5103 13.4997 9.9605 13.5H5.08062C4.71067 13.5 4.36002 13.2901 4.18999 12.9502L2.9898 10.54C2.65989 9.90011 2.71002 9.13998 3.10991 8.54004L4.22027 6.87988V9.12988C4.22027 9.33988 4.39016 9.50975 4.60015 9.50977C4.81007 9.50967 4.98003 9.33983 4.98003 9.12988V3.37988C4.98009 2.89001 5.37006 2.50012 5.85991 2.5C6.34979 2.50009 6.73973 2.89999 6.7398 3.37988V7H7.4898V3.37988C7.48986 2.8901 7.87994 2.50025 8.36968 2.5Z" fill="black"/>
<path d="M13.147 3.14648C13.3423 2.95149 13.6589 2.95131 13.8541 3.14648L14.8541 4.14648C15.049 4.34168 15.049 4.65832 14.8541 4.85352L13.8541 5.85352C13.6589 6.04869 13.3423 6.04851 13.147 5.85352C12.9518 5.65825 12.9518 5.34175 13.147 5.14648L13.2935 5H11.5005C11.2244 5 11.0005 4.77614 11.0005 4.5C11.0005 4.22386 11.2244 4 11.5005 4H13.2935L13.147 3.85352C12.9518 3.65825 12.9518 3.34175 13.147 3.14648Z" fill="black"/>
</svg>
