<svg width="16" height="16" viewBox="0 0 16 16" fill="none" xmlns="http://www.w3.org/2000/svg">
<path d="M8.36968 2.5C8.85956 2.50009 9.25048 2.89999 9.25054 3.37988V7.58984L9.42534 7.63086L9.42925 7.63184C10.3244 7.855 10.9605 8.65323 10.9605 9.58008V12.5C10.9605 13.0498 10.5103 13.4997 9.9605 13.5H5.08062C4.71067 13.5 4.36002 13.2901 4.18999 12.9502L2.9898 10.54C2.65989 9.90011 2.71002 9.13998 3.10991 8.54004L4.22027 6.87988V9.12988C4.22027 9.33988 4.39016 9.50975 4.60015 9.50977C4.81007 9.50967 4.98003 9.33983 4.98003 9.12988V3.37988C4.98009 2.89001 5.37006 2.50012 5.85991 2.5C6.34979 2.50009 6.73973 2.89999 6.7398 3.37988V7H7.4898V3.37988C7.48986 2.8901 7.87994 2.50025 8.36968 2.5Z" fill="black"/>
<path d="M12.0162 2.00098C12.0364 2.00165 12.0567 2.00372 12.0767 2.00684C12.0908 2.00901 12.105 2.01131 12.1187 2.01465C12.1226 2.01559 12.1266 2.01654 12.1304 2.01758L12.1949 2.03906C12.1971 2.04001 12.1995 2.04101 12.2017 2.04199C12.2172 2.04883 12.2318 2.05794 12.2466 2.06641C12.2598 2.07392 12.2733 2.08119 12.2857 2.08984C12.3095 2.10647 12.3328 2.12525 12.3541 2.14648L13.3541 3.14648C13.549 3.34168 13.549 3.65832 13.3541 3.85352C13.1589 4.04869 12.8423 4.04851 12.647 3.85352L12.5005 3.70703V6.5C12.5005 6.77596 12.2764 6.99971 12.0005 7C11.7244 7 11.5005 6.77614 11.5005 6.5V3.70703L11.3541 3.85352C11.1589 4.04869 10.8423 4.04851 10.647 3.85352C10.4518 3.65825 10.4518 3.34175 10.647 3.14648L11.647 2.14648C11.6705 2.12303 11.6954 2.10046 11.7232 2.08203H11.7251C11.7502 2.0655 11.7762 2.05059 11.8033 2.03906C11.807 2.03749 11.8112 2.03666 11.815 2.03516C11.8401 2.0252 11.866 2.01745 11.8921 2.01172C11.9007 2.00984 11.9098 2.00925 11.9185 2.00781C11.9412 2.00411 11.964 2.00156 11.9869 2.00098C11.9912 2.00084 11.9961 2 12.0005 2C12.0057 2.00002 12.011 2.00081 12.0162 2.00098Z" fill="black"/>
</svg>
