<svg width="16" height="16" viewBox="0 0 16 16" fill="none" xmlns="http://www.w3.org/2000/svg">
<path d="M5.60013 3.49995C6.11996 3.55005 6.50043 4.02013 6.50052 4.53999V7.49995L8.98977 8.12007H9.00052C9.89022 8.34026 10.5103 9.14069 10.5103 10.0605V13C10.5102 13.5498 10.0601 13.9998 9.51028 14H4.68997C4.12012 13.9999 3.60014 13.6797 3.35013 13.1699L2.52981 11.54C2.19998 10.9001 2.25001 10.1399 2.64993 9.53999L3.76028 7.87983V10.1298C3.76037 10.3298 3.92046 10.5 4.1304 10.5C4.33015 10.4997 4.50043 10.3396 4.50052 10.1298V4.49995C4.50064 3.91006 5.00021 3.43997 5.60013 3.49995Z" fill="currentColor"/>
<path d="M12.147 5.64644C12.3423 5.45147 12.6589 5.45127 12.854 5.64644C13.0489 5.84162 13.0489 6.15827 12.854 6.35347L11.854 7.35347C11.6589 7.54864 11.3423 7.54847 11.147 7.35347L10.147 6.35347C9.95174 6.1582 9.95174 5.8417 10.147 5.64644C10.3423 5.45148 10.6589 5.45127 10.854 5.64644L11.5005 6.29292L12.147 5.64644Z" fill="currentColor"/>
<path d="M11.2251 1.58198C11.4192 1.45412 11.6833 1.47569 11.854 1.64644L12.854 2.64644C13.0489 2.84162 13.0489 3.15827 12.854 3.35347C12.6589 3.54864 12.3423 3.54847 12.147 3.35347L11.5005 2.70698L10.854 3.35347C10.6589 3.54864 10.3423 3.54847 10.147 3.35347C9.95174 3.1582 9.95174 2.8417 10.147 2.64644L11.147 1.64644L11.2251 1.58198Z" fill="currentColor"/>
</svg>
