<svg width="16" height="16" viewBox="0 0 16 16" fill="none" xmlns="http://www.w3.org/2000/svg">
<path d="M8.36968 2.5C8.85956 2.50009 9.25048 2.89999 9.25054 3.37988V7.58984L9.42534 7.63086L9.42925 7.63184C10.3244 7.855 10.9605 8.65323 10.9605 9.58008V12.5C10.9605 13.0498 10.5103 13.4997 9.9605 13.5H5.08062C4.71067 13.5 4.36002 13.2901 4.18999 12.9502L2.9898 10.54C2.65989 9.90011 2.71002 9.13998 3.10991 8.54004L4.22027 6.87988V9.12988C4.22027 9.33988 4.39016 9.50975 4.60015 9.50977C4.81007 9.50967 4.98003 9.33983 4.98003 9.12988V3.37988C4.98009 2.89001 5.37006 2.50012 5.85991 2.5C6.34979 2.50009 6.73973 2.89999 6.7398 3.37988V7H7.4898V3.37988C7.48986 2.8901 7.87994 2.50025 8.36968 2.5Z" fill="black"/>
<path d="M12.0005 2.5C12.2764 2.50029 12.5005 2.72404 12.5005 3V5.79297L12.647 5.64648C12.8423 5.45149 13.1589 5.45131 13.3541 5.64648C13.549 5.84168 13.549 6.15832 13.3541 6.35352L12.3541 7.35352C12.3304 7.37723 12.304 7.3984 12.2759 7.41699C12.2717 7.41978 12.2665 7.42121 12.2623 7.42383C12.2122 7.45484 12.157 7.47845 12.0972 7.49023C12.0328 7.50292 11.9663 7.50306 11.9019 7.49023C11.8422 7.47834 11.7868 7.45491 11.7369 7.42383C11.7326 7.42118 11.7274 7.41975 11.7232 7.41699C11.6956 7.39863 11.6704 7.37684 11.647 7.35352L10.647 6.35352C10.4518 6.15825 10.4518 5.84175 10.647 5.64648C10.8423 5.45149 11.1589 5.45131 11.3541 5.64648L11.5005 5.79297V3C11.5005 2.72386 11.7244 2.5 12.0005 2.5Z" fill="black"/>
</svg>
