<svg width="16" height="16" viewBox="0 0 16 16" fill="none" xmlns="http://www.w3.org/2000/svg">
<path d="M7.9105 1.5C8.30025 1.50028 8.62044 1.82015 8.62046 2.20996V7H9.37046V2.70996C9.37048 2.31998 9.69043 2 10.0804 2H10.0999C10.4899 2.00007 10.8099 2.32002 10.8099 2.70996V7H11.5599V4.20996C11.5599 3.82005 11.88 3.50012 12.2699 3.5H12.2904L12.2796 3.49023C12.6696 3.4903 12.9896 3.81024 12.9896 4.2002V10.25C12.9896 12.76 10.8201 14.7597 8.26011 14.4697C7.28023 14.3697 6.37999 13.8903 5.68003 13.1904L2.33042 9.83984C1.64042 9.14984 2.2503 7.96039 3.2103 8.15039C3.61014 8.22041 4.00037 8.35959 4.38022 8.51953C5.07009 8.80949 5.72018 9.22967 6.26011 9.76953L6.72007 10.2305C6.87004 10.3802 7.10043 10.3803 7.25034 10.2305C7.40019 10.0806 7.40004 9.85018 7.25034 9.7002L6.79038 9.24023C6.27041 8.71026 5.64956 8.31999 4.9896 8V3.20996C4.98962 2.81998 5.31055 2.5 5.70054 2.5H5.72007C6.11 2.50007 6.43001 2.82002 6.43003 3.20996V7H7.18003V2.20996C7.18005 1.82002 7.50006 1.50007 7.88999 1.5H7.9105Z" fill="currentColor"/>
</svg>
