<svg width="16" height="16" viewBox="0 0 16 16" fill="none" xmlns="http://www.w3.org/2000/svg">
<path d="M5.60014 3.50022C6.12003 3.55032 6.50053 4.02032 6.50053 4.54025V7.50022L8.98978 8.12033H9.00053C9.89008 8.34051 10.5101 9.14016 10.5103 10.0598V13.0002C10.5102 13.55 10.0601 14.0001 9.51029 14.0002H4.68998C4.12013 14.0002 3.60015 13.68 3.35014 13.1701L2.52982 11.5403C2.19991 10.9003 2.25008 10.1402 2.64994 9.54026L3.76029 7.8801V10.1301C3.76039 10.33 3.92047 10.5002 4.13041 10.5002C4.33017 10.5 4.50043 10.3399 4.50053 10.1301V4.50022C4.50053 3.91022 5.00014 3.44022 5.60014 3.50022Z" fill="currentColor"/>
<path d="M9.89701 3.1467C10.0923 2.9516 10.4088 2.95149 10.604 3.1467C10.7989 3.34194 10.799 3.65858 10.604 3.85373L9.95756 4.50022L10.604 5.1467C10.7989 5.34194 10.799 5.65858 10.604 5.85373C10.4089 6.04886 10.0923 6.04861 9.89701 5.85373L8.89701 4.85373C8.70175 4.65847 8.70176 4.34196 8.89701 4.1467L9.89701 3.1467Z" fill="currentColor"/>
<path d="M11.897 3.1467C12.0923 2.9516 12.4088 2.95149 12.604 3.1467L13.604 4.1467C13.7989 4.34194 13.799 4.65858 13.604 4.85373L12.604 5.85373C12.4089 6.04886 12.0923 6.04861 11.897 5.85373C11.7018 5.65847 11.7018 5.34196 11.897 5.1467L12.5435 4.50022L11.897 3.85373C11.7018 3.65847 11.7018 3.34196 11.897 3.1467Z" fill="currentColor"/>
</svg>
