<svg width="16" height="16" viewBox="0 0 16 16" fill="none" xmlns="http://www.w3.org/2000/svg">
<path d="M5.60015 3.50011C6.12005 3.55021 6.50054 4.02021 6.50054 4.54015V7.50011L8.9898 8.12023H9.00054C9.8901 8.3404 10.5101 9.14005 10.5103 10.0597V13.0001C10.5102 13.5499 10.0601 13.9999 9.5103 14.0001H4.68999C4.12012 14 3.60015 13.6799 3.35015 13.17L2.52984 11.5401C2.19992 10.9002 2.25006 10.1401 2.64995 9.54015L3.7603 7.87999V10.13C3.76037 10.3299 3.92046 10.5001 4.13042 10.5001C4.3302 10.4999 4.50047 10.3398 4.50054 10.13V4.50011C4.50054 3.91011 5.00015 3.44011 5.60015 3.50011Z" fill="black"/>
<path d="M9.23687 2.22667C10.2121 1.2515 11.7987 1.25144 12.774 2.22667C13.7489 3.20193 13.749 4.78863 12.774 5.76378C12.5788 5.95891 12.2622 5.95866 12.0669 5.76378C11.8717 5.56852 11.8717 5.25201 12.0669 5.05675C12.6515 4.47212 12.6513 3.51844 12.0669 2.9337C11.4822 2.349 10.5286 2.34905 9.9439 2.9337C9.41631 3.46129 9.36612 4.28785 9.79058 4.87413V4.50011C9.79058 4.22397 10.0144 4.00011 10.2906 4.00011C10.5664 4.00043 10.7906 4.22417 10.7906 4.50011V6.00011C10.7905 6.276 10.5664 6.49979 10.2906 6.50011H8.79058C8.51447 6.50011 8.29064 6.2762 8.29058 6.00011C8.29058 5.72397 8.51444 5.50011 8.79058 5.50011H9.0103C8.27038 4.52078 8.34478 3.11876 9.23687 2.22667Z" fill="black"/>
</svg>
