<svg width="16" height="16" viewBox="0 0 16 16" fill="none" xmlns="http://www.w3.org/2000/svg">
<path d="M12.07 4.61035C12.46 4.2204 13.0901 4.22037 13.4801 4.61035C13.8698 5.00028 13.8698 5.62958 13.4801 6.01953L8.98988 10.5L10.9899 11.5898C11.6696 11.9598 11.4101 12.9996 10.6305 13H6.9098C6.63996 12.9999 6.38975 12.8998 6.19984 12.71L3.19984 9.70996C2.81006 9.31997 2.80997 8.68975 3.19984 8.2998L5.32972 6.16992C6.0096 5.49009 7.07982 5.39003 7.86976 5.92969L9.59046 7.08984L12.07 4.61035Z" fill="currentColor"/>
<path d="M8.51038 2.32031C9.85026 2.32038 11.13 2.71045 12.2399 3.40039C11.92 3.49041 11.6304 3.6605 11.3805 3.90039H11.36L11.2604 4C10.4104 3.56002 9.46984 3.32033 8.48988 3.32031C6.83009 3.31038 5.26038 3.95011 4.09046 5.12988L3.86976 5.34961C3.76979 5.44958 3.64012 5.49997 3.52015 5.5C3.40017 5.5 3.26054 5.44957 3.17054 5.34961C2.97054 5.14961 2.97054 4.83965 3.17054 4.63965L3.39027 4.41992C4.75025 3.07002 6.54065 2.32031 8.46058 2.32031H8.51038Z" fill="currentColor"/>
</svg>
