<svg width="16" height="16" viewBox="0 0 16 16" fill="none" xmlns="http://www.w3.org/2000/svg">
<path d="M7.0004 2.49023C7.41019 2.49048 7.7504 2.83039 7.7504 3.24023V7H8.5004V3.74023C8.5004 3.33028 8.84045 2.9903 9.2504 2.99023C9.66019 2.99048 10.0004 3.33039 10.0004 3.74023V7.28418C10.5855 7.63361 10.9799 8.27228 10.9799 9V12.5C10.9799 13.05 10.5299 13.5 9.97989 13.5H4.10001C3.73017 13.5 3.3804 13.29 3.21036 12.9502L2.01016 10.54C1.6802 9.90007 1.73032 9.14001 2.13028 8.54004L3.23965 6.87988V9.12988C3.23965 9.3397 3.40979 9.50946 3.61954 9.50977C3.82952 9.50974 4.0004 9.33987 4.0004 9.12988V3.25C4.0004 2.84004 4.34045 2.50007 4.7504 2.5C5.16019 2.50026 5.5004 2.84015 5.5004 3.25V7H6.2504V3.24023C6.2504 2.83028 6.59045 2.4903 7.0004 2.49023Z" fill="black"/>
<path d="M12.516 2.00098C12.5359 2.00164 12.5558 2.00381 12.5756 2.00684C12.5901 2.00903 12.6045 2.01124 12.6186 2.01465C12.6224 2.01559 12.6264 2.01654 12.6303 2.01758L12.6947 2.03906C12.697 2.04001 12.6993 2.04101 12.7016 2.04199C12.7171 2.04882 12.7316 2.05793 12.7465 2.06641C12.7597 2.07393 12.7731 2.08119 12.7856 2.08984C12.8094 2.10647 12.8327 2.12526 12.8539 2.14648L13.8539 3.14648C14.0489 3.34169 14.0489 3.65831 13.8539 3.85352C13.6587 4.04864 13.3421 4.04853 13.1469 3.85352L13.0004 3.70703V6.5C13.0004 6.77599 12.7763 6.99976 12.5004 7C12.2243 6.99993 12.0004 6.7761 12.0004 6.5V3.70703L11.8539 3.85352C11.6587 4.04864 11.3421 4.04853 11.1469 3.85352C10.9517 3.65827 10.9517 3.34173 11.1469 3.14648L12.1469 2.14648C12.1704 2.12303 12.1953 2.10047 12.2231 2.08203H12.225C12.2501 2.0655 12.2761 2.0506 12.3031 2.03906C12.3069 2.03748 12.3111 2.03664 12.3148 2.03516C12.34 2.02519 12.3659 2.01745 12.392 2.01172C12.4006 2.00983 12.4096 2.00925 12.4184 2.00781C12.441 2.0041 12.4638 2.00156 12.4867 2.00098C12.4911 2.00086 12.496 2.00002 12.5004 2C12.5056 2.00001 12.5109 2.0008 12.516 2.00098Z" fill="black"/>
</svg>
