<svg width="16" height="16" viewBox="0 0 16 16" fill="none" xmlns="http://www.w3.org/2000/svg">
<path d="M7.00046 3.5C7.55024 3.50026 8.00046 3.95016 8.00046 4.5V7.5L10.4897 8.12012C11.3796 8.34008 12.0003 9.13975 12.0005 10.0596V13C12.0005 13.5498 11.5502 13.9997 11.0005 14H6.40964C6.13977 13.9999 5.8896 13.8899 5.69968 13.71L3.28952 11.2998C2.60005 10.6098 3.2203 9.44968 4.18015 9.63965L6.00046 10V4.5C6.00046 3.95 6.45046 3.5 7.00046 3.5Z" fill="black"/>
<path d="M6.98972 1.49023C8.63972 1.49023 9.98972 2.84023 9.98972 4.49023C9.98965 5.37014 9.59966 6.16001 8.98972 6.70996V4.49023C8.98972 3.73025 8.55989 3.08024 7.93991 2.74023C7.91991 2.73023 7.88984 2.7102 7.85984 2.7002C7.78986 2.66021 7.71985 2.64034 7.64987 2.61035C7.58988 2.59035 7.53995 2.56957 7.47995 2.55957C7.4201 2.53962 7.36012 2.51959 7.30026 2.51953C7.26026 2.50953 7.18991 2.49023 7.18991 2.49023H7.00046C6.86046 2.49023 6.73007 2.50027 6.60007 2.53027C5.69007 2.72027 5.00046 3.52023 5.00046 4.49023V6.44043L4.88034 6.62012L4.8696 6.61035C4.32966 6.07041 3.98978 5.32013 3.98972 4.49023C3.98972 2.84033 5.33985 1.49039 6.98972 1.49023Z" fill="black"/>
</svg>
