<svg width="16" height="16" viewBox="0 0 16 16" fill="none" xmlns="http://www.w3.org/2000/svg">
<path d="M7.86967 2.99019C8.35957 2.99028 8.75049 3.39017 8.75053 3.87008V8.0898L8.96049 8.14059L8.92045 8.12008C9.8202 8.34024 10.4605 9.14044 10.4605 10.0703V12.9902C10.4604 13.5399 10.0102 13.9899 9.46049 13.9902H4.58061C4.21072 13.9902 3.86004 13.7802 3.68998 13.4404L2.48979 11.0302C2.15987 10.3903 2.21005 9.63018 2.6099 9.03023L3.72026 7.37008V9.62008C3.72035 9.83 3.8902 9.99996 4.10014 9.99996C4.31 9.99987 4.47993 9.82994 4.48002 9.62008V3.87008C4.48006 3.38019 4.87004 2.99032 5.3599 2.99019C5.8498 2.99028 6.23974 3.39017 6.23979 3.87008V7.49019H6.98979V3.87008C6.98983 3.38027 7.37992 2.99045 7.86967 2.99019Z" fill="black"/>
<path d="M13.147 5.64644C13.3423 5.45147 13.6589 5.45128 13.854 5.64644C14.049 5.84163 14.0489 6.15827 13.854 6.35348L12.854 7.35348C12.6589 7.54865 12.3423 7.54849 12.147 7.35348L11.147 6.35348C10.9518 6.15822 10.9518 5.84171 11.147 5.64644C11.3423 5.45147 11.6589 5.45128 11.854 5.64644L12.5005 6.29293L13.147 5.64644Z" fill="black"/>
<path d="M12.2251 1.58199C12.4192 1.45411 12.6833 1.47569 12.854 1.64644L13.854 2.64644C14.049 2.84163 14.0489 3.15827 13.854 3.35348C13.6589 3.54865 13.3423 3.54849 13.147 3.35348L12.5005 2.70699L11.854 3.35348C11.6589 3.54865 11.3423 3.54849 11.147 3.35348C10.9518 3.15822 10.9518 2.84171 11.147 2.64644L12.147 1.64644L12.2251 1.58199Z" fill="black"/>
</svg>
