<svg width="16" height="16" viewBox="0 0 16 16" fill="none" xmlns="http://www.w3.org/2000/svg">
<path d="M10.49 7.12001L7.99999 6.50001V3.54001C7.99999 3.02001 7.62 2.55001 7.1 2.50001C6.5 2.44001 5.99999 2.91001 5.99999 3.50001V9.13001C5.99999 9.34001 5.82999 9.50001 5.62999 9.50001C5.41999 9.50001 5.26 9.33001 5.26 9.13001V6.88001L4.14998 8.54001C3.74998 9.14001 3.69999 9.90001 4.02999 10.54L5.23 12.95C5.4 13.29 5.74998 13.5 6.11998 13.5H11C11.55 13.5 12 13.05 12 12.5V9.06001C12 8.14001 11.38 7.34001 10.49 7.12001Z" fill="currentColor"/>
</svg>
