<svg width="16" height="16" viewBox="0 0 16 16" fill="none" xmlns="http://www.w3.org/2000/svg">
<path d="M8.36968 2.5C8.85956 2.50009 9.25048 2.89999 9.25054 3.37988V7.58984L9.42534 7.63086L9.42925 7.63184C10.3244 7.855 10.9605 8.65323 10.9605 9.58008V12.5C10.9605 13.0498 10.5103 13.4997 9.9605 13.5H5.08062C4.71067 13.5 4.36002 13.2901 4.18999 12.9502L2.9898 10.54C2.65989 9.90011 2.71002 9.13998 3.10991 8.54004L4.22027 6.87988V9.12988C4.22027 9.33988 4.39016 9.50975 4.60015 9.50977C4.81007 9.50967 4.98003 9.33983 4.98003 9.12988V3.37988C4.98009 2.89001 5.37006 2.50012 5.85991 2.5C6.34979 2.50009 6.73973 2.89999 6.7398 3.37988V7H7.4898V3.37988C7.48986 2.8901 7.87994 2.50025 8.36968 2.5Z" fill="black"/>
<path d="M11.647 3.14648C11.8423 2.95149 12.1589 2.95131 12.3541 3.14648C12.549 3.34168 12.549 3.65832 12.3541 3.85352L12.2076 4H14.0005C14.2764 4.00029 14.5005 4.22404 14.5005 4.5C14.5005 4.77596 14.2764 4.99971 14.0005 5H12.2076L12.3541 5.14648C12.549 5.34168 12.549 5.65832 12.3541 5.85352C12.1589 6.04869 11.8423 6.04851 11.647 5.85352L10.647 4.85352C10.4518 4.65825 10.4518 4.34175 10.647 4.14648L11.647 3.14648Z" fill="black"/>
</svg>
