<svg width="16" height="16" viewBox="0 0 16 16" fill="none" xmlns="http://www.w3.org/2000/svg">
<path d="M7.09997 3.5C7.61997 3.55 8.00036 4.02004 8.00036 4.54004V7.5L10.4896 8.12012H10.5004L10.6634 8.16797C11.4648 8.44042 12.01 9.1972 12.0101 10.0596V13C12.0101 13.5499 11.5601 13.9999 11.0101 14H6.18982C5.61988 13.9999 5.09995 13.6799 4.84997 13.1699L4.02966 11.54C3.69973 10.9001 3.74988 10.14 4.14978 9.54004L5.26013 7.87988V10.1299C5.26013 10.3299 5.42025 10.5 5.63025 10.5C5.83013 10.4999 6.00036 10.3398 6.00036 10.1299V4.5C6.00036 3.91 6.49998 3.44001 7.09997 3.5Z" fill="currentColor"/>
<path d="M6.98962 1.49023C8.63962 1.49023 9.98962 2.84023 9.98962 4.49023C9.98955 5.37014 9.59957 6.16001 8.98962 6.70996V4.49023C8.98962 3.73023 8.55982 3.08023 7.93982 2.74023C7.91982 2.73023 7.88972 2.71019 7.85974 2.7002C7.78977 2.66023 7.71974 2.64034 7.64978 2.61035C7.58981 2.59036 7.53983 2.56957 7.47986 2.55957C7.42 2.53962 7.36003 2.51957 7.30017 2.51953C7.26017 2.50953 7.18982 2.49023 7.18982 2.49023H7.00036C6.86036 2.49023 6.72997 2.50027 6.59997 2.53027C5.69001 2.7203 5.00036 3.52026 5.00036 4.49023V6.44043L4.88025 6.62012L4.8695 6.61035C4.32959 6.07041 3.98969 5.32011 3.98962 4.49023C3.98962 2.84036 5.33979 1.49043 6.98962 1.49023Z" fill="currentColor"/>
</svg>
