<svg width="16" height="16" viewBox="0 0 16 16" fill="none" xmlns="http://www.w3.org/2000/svg">
<path d="M7.00049 2.49023C7.41029 2.49048 7.75049 2.83039 7.75049 3.24023V7H8.50049V3.74023C8.50049 3.33023 8.84049 2.99023 9.25049 2.99023C9.66029 2.99048 10.0005 3.33039 10.0005 3.74023V7.28418C10.5856 7.63362 10.98 8.27228 10.98 9V12.5C10.98 13.05 10.53 13.5 9.97998 13.5H4.1001C3.73021 13.5 3.38051 13.29 3.21045 12.9502L2.01025 10.54C1.68025 9.90004 1.73037 9.14004 2.13037 8.54004L3.23975 6.87988V9.12988C3.23975 9.33974 3.40983 9.50953 3.61963 9.50977C3.82961 9.50974 4.00049 9.33987 4.00049 9.12988V3.25C4.00049 2.84 4.34049 2.5 4.75049 2.5C5.16028 2.50026 5.50049 2.84015 5.50049 3.25V7H6.25049V3.24023C6.25049 2.83023 6.59049 2.49023 7.00049 2.49023Z" fill="black"/>
<path d="M13.147 3.14648C13.3423 2.95145 13.6588 2.9513 13.854 3.14648L14.854 4.14648C15.049 4.34169 15.049 4.65831 14.854 4.85352L13.854 5.85352C13.6588 6.0487 13.3423 6.04855 13.147 5.85352C12.9517 5.65825 12.9517 5.34175 13.147 5.14648L13.2935 5H11.5005C11.2243 5 11.0005 4.77614 11.0005 4.5C11.0005 4.22386 11.2243 4 11.5005 4H13.2935L13.147 3.85352C12.9517 3.65825 12.9517 3.34175 13.147 3.14648Z" fill="black"/>
</svg>
