<svg width="16" height="16" viewBox="0 0 16 16" fill="none" xmlns="http://www.w3.org/2000/svg">
<path d="M9 3.5C9.55 3.5 10 3.95 10 4.5V7.5L12.4902 8.12012C13.38 8.34017 13.9998 9.13983 14 10.0596V13C14 13.55 13.55 14 13 14H8.41016C8.14019 14 7.89019 13.8899 7.7002 13.71L5.29004 11.2998C4.60026 10.6099 5.21994 9.45004 6.17969 9.63965L8 10V4.5C8 3.95001 8.45001 3.50001 9 3.5Z" fill="currentColor"/>
<path d="M3.5 5C3.77614 5 4 5.22386 4 5.5V7.5C4 7.77614 3.77614 8 3.5 8C3.22386 8 3 7.77614 3 7.5V6H1.5C1.22386 6 1 5.77614 1 5.5C1 5.22386 1.22386 5 1.5 5H3.5Z" fill="currentColor"/>
<path d="M4.5 2C4.77614 2 5 2.22386 5 2.5V4H6.5C6.77614 4 7 4.22386 7 4.5C7 4.77614 6.77614 5 6.5 5H4.5C4.22386 5 4 4.77614 4 4.5V2.5C4 2.22386 4.22386 2 4.5 2Z" fill="currentColor"/>
</svg>
