<svg width="16" height="16" viewBox="0 0 16 16" fill="none" xmlns="http://www.w3.org/2000/svg">
<path d="M10.46 7.63999L10.25 7.58999V3.36999C10.25 2.88999 9.85998 2.48999 9.36998 2.48999C8.87998 2.48999 8.48998 2.87999 8.48998 3.36999V6.98999H7.73998V3.36999C7.73998 2.88999 7.34997 2.48999 6.85997 2.48999C6.36997 2.48999 5.98 2.87999 5.98 3.36999V9.11999C5.98 9.32999 5.81 9.49999 5.6 9.49999C5.39 9.49999 5.21999 9.32999 5.21999 9.11999V6.86999L4.10997 8.52999C3.70997 9.12999 3.65998 9.88999 3.98998 10.53L5.18999 12.94C5.35999 13.28 5.70998 13.49 6.07998 13.49H10.96C11.51 13.49 11.96 13.04 11.96 12.49V9.56999C11.96 8.63999 11.32 7.83999 10.42 7.61999L10.46 7.63999Z" fill="black"/>
</svg>
