<svg width="16" height="16" viewBox="0 0 16 16" fill="none" xmlns="http://www.w3.org/2000/svg">
<path d="M8.50049 2.5C8.91029 2.50025 9.25049 2.84015 9.25049 3.25V7.00879L10.0005 7V3.75C10.0005 3.34 10.3405 3 10.7505 3C11.1603 3.00025 11.5005 3.34015 11.5005 3.75V7.28418C12.0856 7.6337 12.48 8.27231 12.48 9V12.5C12.48 13.05 12.03 13.5 11.48 13.5H5.6001C5.23022 13.5 4.88051 13.29 4.71045 12.9502L3.51025 10.54C3.18025 9.90004 3.23037 9.14004 3.63037 8.54004L4.73975 6.87988V9.12988C4.73975 9.33974 4.90983 9.50953 5.11963 9.50977C5.32961 9.50974 5.50049 9.33987 5.50049 9.12988V3.25C5.50049 2.84 5.84049 2.5 6.25049 2.5C6.66028 2.50026 7.00049 2.84015 7.00049 3.25V7H7.75049V3.25C7.75049 2.84 8.09049 2.5 8.50049 2.5Z" fill="black"/>
</svg>
