<svg width="16" height="16" viewBox="0 0 16 16" fill="none" xmlns="http://www.w3.org/2000/svg">
<path d="M7.90985 1.5C8.29976 1.5001 8.61979 1.82004 8.61981 2.20996V7H9.36981V2.70996C9.36983 2.32013 9.68999 2.00024 10.0798 2H10.1003C10.4901 2.00016 10.8102 2.32007 10.8102 2.70996V7H11.5602V4.20996C11.5603 3.81998 11.8802 3.50001 12.2702 3.5L12.2604 3.49023H12.28C12.6699 3.49033 12.9899 3.81026 12.9899 4.2002V10.25C12.9899 12.7699 10.7898 14.7798 8.19989 14.46C7.21006 14.3399 6.31972 13.8298 5.61981 13.1299L2.32001 9.83008C1.63011 9.13007 2.26043 7.94965 3.2204 8.13965C3.85017 8.26963 4.4401 8.48994 4.98993 8.7998V3.20996C4.98995 2.82009 5.31005 2.50018 5.69989 2.5H5.7204C6.1102 2.50022 6.43034 2.82011 6.43036 3.20996V7H7.18036V2.20996C7.18038 1.81998 7.50033 1.5 7.89032 1.5H7.90985Z" fill="currentColor"/>
</svg>
