<svg width="16" height="16" viewBox="0 0 16 16" fill="none" xmlns="http://www.w3.org/2000/svg">
<path d="M10.27 3.15001C10.6199 2.80009 11.1798 2.80017 11.5298 3.15001C11.8797 3.50001 11.8797 4.05978 11.5298 4.40978L9.24948 6.69005L9.77975 7.22033L12.31 4.69005C12.66 4.34013 13.2198 4.34016 13.5698 4.69005C13.9198 5.04004 13.9198 5.59982 13.5698 5.94982L8.99948 10.5104L10.9995 11.6002C11.6794 11.9702 11.42 13.0102 10.6401 13.0104H6.92038C6.65061 13.0103 6.40035 12.9001 6.21042 12.7203L3.21042 9.72033C2.82048 9.33034 2.82049 8.70016 3.21042 8.31017L5.52975 5.98986C6.09967 5.41994 6.9899 5.33987 7.64987 5.78966L7.64011 5.7799L10.27 3.15001Z" fill="currentColor"/>
<path d="M8.48972 2.31994C8.85968 2.31994 9.23033 2.35956 9.5903 2.41955C9.5903 2.41955 9.56966 2.43045 9.56003 2.44005L8.6694 3.3297C8.60956 3.32964 8.53974 3.31995 8.47995 3.31994H8.43991C6.78998 3.31996 5.24953 3.95958 4.07956 5.12951L3.85983 5.35021C3.75995 5.44999 3.63005 5.49953 3.51022 5.49962C3.39025 5.4996 3.24961 5.45017 3.15964 5.35021C2.95978 5.15031 2.95995 4.84025 3.15964 4.64025L3.38034 4.41955C4.75023 3.04989 6.57002 2.30001 8.48972 2.31994Z" fill="currentColor"/>
</svg>
