<svg width="16" height="16" viewBox="0 0 16 16" fill="none" xmlns="http://www.w3.org/2000/svg">
<path fill-rule="evenodd" clip-rule="evenodd" d="M10.6719 4.69531C10.8514 4.63552 11.0497 4.68261 11.1836 4.81641C11.3175 4.95039 11.3637 5.14844 11.3037 5.32812L10.0439 9.09863C9.89413 9.54742 9.54742 9.89413 9.09863 10.0439L5.32812 11.3037C5.14848 11.3636 4.95035 11.3175 4.81641 11.1836C4.68261 11.0497 4.63552 10.8514 4.69531 10.6719L5.95605 6.90137C6.10584 6.45255 6.45258 6.10589 6.90137 5.95605L10.6719 4.69531ZM5.96191 10.0371L8.48633 9.19336L6.80566 7.5127L5.96191 10.0371ZM7.5127 6.80566L9.19336 8.48633L10.0371 5.96191L7.5127 6.80566Z" fill="currentColor"/>
<path fill-rule="evenodd" clip-rule="evenodd" d="M8 1.5C11.5899 1.5 14.5 4.41015 14.5 8C14.5 11.5899 11.5899 14.5 8 14.5C4.41015 14.5 1.5 11.5899 1.5 8C1.5 4.41015 4.41015 1.5 8 1.5ZM8 2.5C4.96243 2.5 2.5 4.96243 2.5 8C2.5 11.0376 4.96243 13.5 8 13.5C11.0376 13.5 13.5 11.0376 13.5 8C13.5 4.96243 11.0376 2.5 8 2.5Z" fill="currentColor"/>
</svg>
