<svg width="16" height="16" viewBox="0 0 16 16" fill="none" xmlns="http://www.w3.org/2000/svg">
<path d="M10.1465 5.1463C10.3417 4.95113 10.6583 4.95114 10.8535 5.1463C11.0488 5.34154 11.0487 5.65806 10.8535 5.85333L7.85352 8.85333C7.65825 9.04859 7.34175 9.04859 7.14648 8.85333L5.64648 7.35333C5.45131 7.15806 5.45125 6.84153 5.64648 6.6463C5.84172 6.45113 6.15827 6.45114 6.35352 6.6463L7.5 7.79278L10.1465 5.1463Z" fill="black"/>
<path fill-rule="evenodd" clip-rule="evenodd" d="M2.84961 6.63946C2.84988 3.64594 5.40751 1.25609 8.44336 1.51153L8.73926 1.54474L8.98047 1.58478C11.4088 2.04017 13.1091 4.09817 13.1377 6.57403C13.145 6.60807 13.1494 6.64328 13.1494 6.6795C13.1494 7.53991 12.9532 8.4042 12.5059 9.12872L12.5068 9.1297C11.7577 10.3646 9.69761 13.3885 8.82227 14.6717L8.82129 14.6736C8.4225 15.2517 7.57644 15.2518 7.17773 14.6736L7.17676 14.6717C6.41055 13.5485 4.73693 11.0921 3.8291 9.66876L3.49219 9.1297C3.04466 8.39496 2.84961 7.51953 2.84961 6.63946ZM8.59961 2.53497C6.04411 2.17822 3.84989 4.15059 3.84961 6.63946C3.84961 7.37905 4.01457 8.06507 4.34668 8.61017L4.67773 9.13946C5.56853 10.5357 7.22334 12.9653 7.99902 14.1024C8.88535 12.8031 10.9221 9.81413 11.6523 8.61017L11.6543 8.60626C11.9731 8.09117 12.1349 7.44708 12.1465 6.75861C12.1421 6.73136 12.1394 6.70356 12.1396 6.6756C12.1575 4.56198 10.6869 2.82933 8.59961 2.53497Z" fill="black"/>
</svg>
