<svg width="16" height="16" viewBox="0 0 16 16" fill="none" xmlns="http://www.w3.org/2000/svg">
<path fill-rule="evenodd" clip-rule="evenodd" d="M8 1.5C8.27614 1.5 8.5 1.72386 8.5 2V3.49023H11.4805L11.6543 3.49902C12.0583 3.5411 12.4346 3.72761 12.7139 4.00684L14.1436 5.43652C14.7287 6.02178 14.7287 6.96849 14.1436 7.55371L12.7139 8.9834L12.7129 8.98242C12.3851 9.32035 11.937 9.49988 11.4805 9.5H8.5V14C8.5 14.2761 8.27614 14.5 8 14.5C7.72386 14.5 7.5 14.2761 7.5 14V9.5H4C3.17394 9.5 2.50013 8.82603 2.5 8V4.99023C2.5 4.16409 3.17386 3.49023 4 3.49023H7.5V2C7.5 1.72386 7.72386 1.5 8 1.5ZM4 4.49023C3.72614 4.49023 3.5 4.71638 3.5 4.99023V8C3.50013 8.27375 3.72622 8.5 4 8.5H11.4805C11.6802 8.49988 11.8677 8.42117 11.999 8.28418L13.4365 6.84668C13.6312 6.65198 13.6311 6.33829 13.4365 6.14355L12.0068 4.71387C11.9011 4.60815 11.7649 4.53472 11.623 4.50488L11.4805 4.49023H8.10059C8.06811 4.49686 8.03443 4.5 8 4.5C7.96557 4.5 7.93189 4.49686 7.89941 4.49023H4Z" fill="currentColor"/>
</svg>
