<svg width="16" height="16" viewBox="0 0 16 16" fill="none" xmlns="http://www.w3.org/2000/svg">
<path fill-rule="evenodd" clip-rule="evenodd" d="M8 3.50042C9.10457 3.50042 10 4.39585 10 5.50041C9.99977 6.60479 9.10443 7.50041 8 7.50041C6.89557 7.50041 6.00023 6.60479 6 5.50041C6 4.39585 6.89543 3.50042 8 3.50042ZM8 4.50042C7.44772 4.50042 7 4.94813 7 5.50041C7.00023 6.05251 7.44785 6.50041 8 6.50041C8.55215 6.50041 8.99977 6.05251 9 5.50041C9 4.94813 8.55228 4.50042 8 4.50042Z" fill="black"/>
<path fill-rule="evenodd" clip-rule="evenodd" d="M8.20215 1.00139L8.42285 1.01604C10.6238 1.22616 12.3817 3.13284 12.4297 5.34026V5.55608C12.4076 6.26063 12.2425 6.96833 11.8799 7.57659L11.877 7.58049C11.5484 8.11906 10.9252 9.06282 10.2979 10.0004H10.4102C10.9448 10.0006 11.414 10.3401 11.5918 10.8403L11.624 10.9428L11.626 10.9496L12.3262 13.7592C12.4867 14.4027 11.9969 15.0001 11.3506 15.0004H4.63086C3.96389 15.0004 3.51564 14.3762 3.65234 13.7699L3.65527 13.7592L4.35547 10.9496C4.49092 10.3969 4.99074 10.0005 5.57031 10.0004H5.7002C5.0732 9.06515 4.45066 8.12255 4.12207 7.57854C3.73444 6.94249 3.57038 6.17646 3.57031 5.4301C3.57052 2.91717 5.66621 0.888868 8.20215 1.00139ZM5.57031 11.0004C5.45119 11.0005 5.35186 11.0824 5.32617 11.1879V11.1908L4.62793 13.9926V13.9946C4.62844 13.9963 4.62972 13.9989 4.63086 14.0004H11.3506C11.3521 14.0003 11.3536 13.9996 11.3545 13.9994L10.6572 11.1987L10.6201 11.1147C10.5718 11.0418 10.4921 11.0005 10.4102 11.0004H9.62207C9.3147 11.4552 9.03727 11.8702 8.82324 12.183L8.82227 12.184C8.43049 12.7518 7.57256 12.7724 7.17773 12.1821C6.96365 11.8692 6.68505 11.4552 6.37695 11.0004H5.57031ZM8.1582 2.00042C6.19454 1.91314 4.57052 3.48349 4.57031 5.4301C4.57037 5.96578 4.67433 6.47305 4.88184 6.88811L4.97656 7.05999L4.97852 7.06194C5.57899 8.05607 7.21555 10.4681 8 11.6147C8.78328 10.4698 10.4222 8.04558 11.0234 7.05999C11.279 6.62928 11.4127 6.09798 11.4307 5.52483C11.4821 3.6968 9.98235 2.07892 8.1582 2.00042Z" fill="black"/>
</svg>
