<svg width="16" height="16" viewBox="0 0 16 16" fill="none" xmlns="http://www.w3.org/2000/svg">
<path d="M9.14648 5.14631C9.34172 4.95123 9.65829 4.95121 9.85352 5.14631C10.0487 5.34152 10.0486 5.65806 9.85352 5.85334L8.70703 6.99982L9.85352 8.14631C10.0487 8.34152 10.0486 8.65806 9.85352 8.85334C9.65825 9.0486 9.34175 9.0486 9.14648 8.85334L8 7.70685L6.85352 8.85334C6.65825 9.0486 6.34175 9.0486 6.14648 8.85334C5.95134 8.65807 5.95126 8.34153 6.14648 8.14631L7.29297 6.99982L6.14648 5.85334C5.95134 5.65807 5.95126 5.34153 6.14648 5.14631C6.34172 4.95123 6.65829 4.95121 6.85352 5.14631L8 6.29279L9.14648 5.14631Z" fill="currentColor"/>
<path fill-rule="evenodd" clip-rule="evenodd" d="M2.84961 6.63947C2.84995 3.646 5.40756 1.25611 8.44336 1.51154L8.73926 1.54474L8.98047 1.58478C11.4088 2.04016 13.109 4.09822 13.1377 6.57404C13.145 6.60804 13.1494 6.64332 13.1494 6.67951C13.1494 7.53993 12.9532 8.4042 12.5059 9.12873L12.5068 9.1297C11.7577 10.3646 9.69763 13.3885 8.82227 14.6717L8.82129 14.6736C8.42253 15.2518 7.57646 15.2518 7.17773 14.6736L7.17676 14.6717C6.41053 13.5485 4.73692 11.0921 3.8291 9.66877L3.49219 9.1297C3.04471 8.39499 2.84961 7.5195 2.84961 6.63947ZM8.59961 2.53498C6.04416 2.17825 3.84996 4.15066 3.84961 6.63947C3.84961 7.37901 4.0146 8.06509 4.34668 8.61017L4.67773 9.13947C5.56851 10.5356 7.22331 12.9652 7.99902 14.1024C8.88538 12.803 10.9221 9.81407 11.6523 8.61017L11.6543 8.60627C11.9731 8.09117 12.1349 7.44709 12.1465 6.75861C12.1422 6.7314 12.1394 6.70352 12.1396 6.6756C12.1575 4.56204 10.6869 2.82933 8.59961 2.53498Z" fill="currentColor"/>
</svg>
