<svg width="16" height="16" viewBox="0 0 16 16" fill="none" xmlns="http://www.w3.org/2000/svg">
<path d="M8 4.49982C8.27608 4.49982 8.4999 4.72376 8.5 4.99982V6.49982H10C10.2761 6.49982 10.4999 6.72376 10.5 6.99982C10.5 7.27596 10.2761 7.49982 10 7.49982H8.5V8.99982C8.5 9.27596 8.27614 9.49981 8 9.49981C7.72386 9.49981 7.5 9.27596 7.5 8.99982V7.49982H6C5.72386 7.49982 5.5 7.27596 5.5 6.99982C5.5001 6.72376 5.72392 6.49982 6 6.49982H7.5V4.99982C7.5001 4.72376 7.72392 4.49982 8 4.49982Z" fill="black"/>
<path fill-rule="evenodd" clip-rule="evenodd" d="M2.84961 6.63946C2.84988 3.64594 5.40752 1.25609 8.44336 1.51153L8.73926 1.54474L8.98047 1.58478C11.4088 2.04017 13.1091 4.09816 13.1377 6.57403C13.145 6.60807 13.1494 6.64328 13.1494 6.6795C13.1494 7.53992 12.9532 8.40419 12.5059 9.12872L12.5068 9.1297C11.7577 10.3647 9.69761 13.3885 8.82227 14.6717L8.82129 14.6736C8.4225 15.2517 7.57644 15.2518 7.17773 14.6736L7.17676 14.6717C6.41056 13.5485 4.73694 11.0921 3.8291 9.66876L3.49219 9.1297C3.04467 8.39496 2.84961 7.51953 2.84961 6.63946ZM8.59961 2.53497C6.04411 2.17822 3.84989 4.15059 3.84961 6.63946C3.84961 7.37905 4.01457 8.06507 4.34668 8.61017L4.67773 9.13946C5.56853 10.5357 7.22333 12.9652 7.99902 14.1024C8.88536 12.8031 10.9221 9.81412 11.6523 8.61017L11.6543 8.60626C11.9731 8.09116 12.1349 7.44709 12.1465 6.7586C12.1421 6.73136 12.1394 6.70355 12.1396 6.6756C12.1575 4.56198 10.6869 2.82933 8.59961 2.53497Z" fill="black"/>
</svg>
