<svg width="16" height="16" viewBox="0 0 16 16" fill="none" xmlns="http://www.w3.org/2000/svg">
<path d="M7.99976 8.49972C8.27583 8.49972 8.49964 8.72368 8.49976 8.99972C8.49976 9.27587 8.2759 9.49973 7.99976 9.49973C7.72373 9.49959 7.49976 9.27579 7.49976 8.99972C7.49987 8.72376 7.7238 8.49986 7.99976 8.49972Z" fill="currentColor"/>
<path d="M7.98999 4.49972C8.81606 4.49972 9.48987 5.17368 9.48999 5.99972C9.48999 6.60832 9.07272 7.08383 8.5896 7.28683L8.49976 7.32687V7.49972C8.49976 7.77587 8.2759 7.99972 7.99976 7.99972C7.72372 7.9996 7.49976 7.77579 7.49976 7.49972V7.24972C7.49983 6.94673 7.6574 6.66114 7.91577 6.5007L8.03296 6.44015L8.18921 6.3718L8.19995 6.36691C8.39232 6.28748 8.48999 6.1269 8.48999 5.99972C8.48987 5.72596 8.26378 5.49972 7.98999 5.49972C7.75056 5.49972 7.547 5.67267 7.49976 5.89914L7.48022 6.10031C7.4337 6.32828 7.2317 6.49972 6.98999 6.49972C6.71385 6.49972 6.48999 6.27587 6.48999 5.99972C6.49011 5.17368 7.16392 4.49972 7.98999 4.49972Z" fill="currentColor"/>
<path fill-rule="evenodd" clip-rule="evenodd" d="M2.85034 6.63937C2.85063 3.64574 5.40809 1.25577 8.44409 1.51144L8.73999 1.54465L8.9812 1.58469C11.4093 2.04021 13.1098 4.0982 13.1384 6.57394C13.1458 6.60796 13.1501 6.64321 13.1501 6.67941C13.1501 7.53974 12.9539 8.40414 12.5066 9.12863L12.5076 9.12961C11.7585 10.3644 9.69846 13.3882 8.823 14.6716L8.82202 14.6736C8.42331 15.2517 7.57725 15.2516 7.17847 14.6736L7.17749 14.6716C6.41137 13.5485 4.73773 11.0921 3.82983 9.66867L3.49292 9.12961C3.04531 8.39483 2.85034 7.51951 2.85034 6.63937ZM8.60034 2.53488C6.0447 2.17789 3.85064 4.15039 3.85034 6.63937C3.85034 7.37904 4.01523 8.06496 4.34741 8.61008L4.67847 9.13937C5.56934 10.5357 7.22416 12.9653 7.99976 14.1023C8.8862 12.8028 10.9229 9.81388 11.6531 8.61008L11.655 8.60617C11.9737 8.09111 12.1356 7.4469 12.1472 6.75851C12.1429 6.73124 12.1401 6.70349 12.1404 6.67551C12.1582 4.56202 10.6874 2.82938 8.60034 2.53488Z" fill="currentColor"/>
</svg>
