<svg width="16" height="16" viewBox="0 0 16 16" fill="none" xmlns="http://www.w3.org/2000/svg">
<path fill-rule="evenodd" clip-rule="evenodd" d="M13 1.5C13.8261 1.5 14.5 2.17386 14.5 3V11C14.5 11.8261 13.8261 12.5 13 12.5H10.1182L6.22363 14.4473C6.21934 14.4494 6.21429 14.4501 6.20996 14.4521C6.19296 14.4601 6.17519 14.4657 6.15723 14.4717C6.14311 14.4764 6.12952 14.4819 6.11523 14.4854C6.09894 14.4892 6.0823 14.4909 6.06543 14.4932C6.04841 14.4954 6.03166 14.4976 6.01465 14.498C6.00977 14.4982 6.00492 14.5 6 14.5H3C2.17386 14.5 1.5 13.8261 1.5 13V5C1.5 4.17386 2.17386 3.5 3 3.5H5.88184L9.77637 1.55273C9.78055 1.55064 9.78485 1.54884 9.78906 1.54688C9.80601 1.53897 9.82388 1.53334 9.8418 1.52734C9.85587 1.52262 9.86955 1.51708 9.88379 1.51367C9.90004 1.5098 9.91677 1.5081 9.93359 1.50586C9.95058 1.50358 9.9674 1.50149 9.98438 1.50098C9.98957 1.50082 9.99476 1.5 10 1.5H13ZM3 4.5C2.72614 4.5 2.5 4.72614 2.5 5V13C2.5 13.2739 2.72614 13.5 3 13.5H5.5V4.5H3ZM6.5 4.30859V13.1904L9.5 11.6904V2.80859L6.5 4.30859ZM10.5 11.5H13C13.2739 11.5 13.5 11.2739 13.5 11V3C13.5 2.72614 13.2739 2.5 13 2.5H10.5V11.5Z" fill="black"/>
</svg>
