<svg width="16" height="16" viewBox="0 0 16 16" fill="none" xmlns="http://www.w3.org/2000/svg">
<path fill-rule="evenodd" clip-rule="evenodd" d="M6.06445 1.50529C6.07757 1.50701 6.09055 1.50937 6.10352 1.51213C6.11561 1.51471 6.12765 1.51741 6.13965 1.52092C6.16456 1.5282 6.18912 1.53704 6.21289 1.54826C6.21637 1.5499 6.22018 1.55142 6.22363 1.55315L10 3.44084L13.0566 1.9135L13.0615 1.91057C13.7195 1.59155 14.4997 2.06678 14.5 2.80998V11.2309C14.4997 11.9007 14.1217 12.5031 13.5332 12.7973L10.2227 14.4477C10.2033 14.4573 10.1832 14.4651 10.1631 14.4721C10.157 14.4742 10.1507 14.4751 10.1445 14.477C10.122 14.4838 10.0992 14.489 10.0762 14.4926C10.0697 14.4936 10.0632 14.4948 10.0566 14.4955C10.0293 14.4986 10.002 14.4999 9.97461 14.4985C9.96642 14.498 9.95839 14.4963 9.9502 14.4955C9.92683 14.4932 9.90376 14.4895 9.88086 14.4838C9.87573 14.4825 9.87035 14.4823 9.86523 14.4809C9.83788 14.4732 9.81115 14.463 9.78516 14.4506C9.7824 14.4493 9.77911 14.449 9.77637 14.4477L5.99902 12.559L2.94336 14.0873L2.93848 14.0903C2.28068 14.409 1.5006 13.9337 1.5 13.1908V4.76994C1.50017 4.10006 1.87831 3.49786 2.4668 3.20354L5.77734 1.55315C5.79717 1.54328 5.81727 1.53385 5.83789 1.52678C5.84335 1.52491 5.84897 1.52357 5.85449 1.5219C5.87538 1.51553 5.89662 1.5108 5.91797 1.50725C5.92865 1.50546 5.9394 1.50443 5.9502 1.50334C5.96613 1.50175 5.98207 1.50144 5.99805 1.50139C6.02018 1.50129 6.04225 1.5024 6.06445 1.50529ZM10.5 4.309V13.1918L13.0859 11.9028C13.337 11.7772 13.4997 11.5204 13.5 11.2309V2.81096L13.498 2.80998L10.5 4.309ZM6.5 11.6908L9.5 13.1908V4.309L6.5 2.809V11.6908ZM2.91309 4.09709C2.66216 4.22273 2.50017 4.48041 2.5 4.76994V13.1899L5.5 11.6908V2.80803L2.91309 4.09709Z" fill="currentColor"/>
</svg>
