<svg width="16" height="16" viewBox="0 0 16 16" fill="none" xmlns="http://www.w3.org/2000/svg">
<path fill-rule="evenodd" clip-rule="evenodd" d="M13 2.5C13.8284 2.5 14.5 3.17157 14.5 4C14.5 4.82843 13.8284 5.5 13 5.5C12.3471 5.5 11.793 5.08234 11.5869 4.5H6C5.17614 4.5 4.5 5.17614 4.5 6C4.5 6.82386 5.17614 7.5 6 7.5H10C11.3761 7.5 12.5 8.62386 12.5 10C12.5 11.3761 11.3761 12.5 10 12.5H4.41309C4.20703 13.0823 3.65293 13.5 3 13.5C2.17157 13.5 1.5 12.8284 1.5 12C1.5 11.1716 2.17157 10.5 3 10.5C3.65293 10.5 4.20703 10.9177 4.41309 11.5H10C10.8239 11.5 11.5 10.8239 11.5 10C11.5 9.17614 10.8239 8.5 10 8.5H6C4.62386 8.5 3.5 7.37614 3.5 6C3.5 4.62386 4.62386 3.5 6 3.5H11.5869C11.793 2.91766 12.3471 2.5 13 2.5ZM3 11.5C2.72386 11.5 2.5 11.7239 2.5 12C2.5 12.2761 2.72386 12.5 3 12.5C3.27614 12.5 3.5 12.2761 3.5 12C3.5 11.7239 3.27614 11.5 3 11.5ZM13 3.5C12.7239 3.5 12.5 3.72386 12.5 4C12.5 4.27614 12.7239 4.5 13 4.5C13.2761 4.5 13.5 4.27614 13.5 4C13.5 3.72386 13.2761 3.5 13 3.5Z" fill="currentColor"/>
</svg>
