<svg width="16" height="16" viewBox="0 0 16 16" fill="none" xmlns="http://www.w3.org/2000/svg">
<path fill-rule="evenodd" clip-rule="evenodd" d="M8 10.5C8.82843 10.5 9.5 11.1716 9.5 12C9.5 12.8284 8.82843 13.5 8 13.5C7.17157 13.5 6.5 12.8284 6.5 12C6.5 11.1716 7.17157 10.5 8 10.5ZM8 11.5C7.72386 11.5 7.5 11.7239 7.5 12C7.5 12.2761 7.72386 12.5 8 12.5C8.27614 12.5 8.5 12.2761 8.5 12C8.5 11.7239 8.27614 11.5 8 11.5Z" fill="black"/>
<path fill-rule="evenodd" clip-rule="evenodd" d="M8 6.5C8.82843 6.5 9.5 7.17157 9.5 8C9.5 8.82843 8.82843 9.5 8 9.5C7.17157 9.5 6.5 8.82843 6.5 8C6.5 7.17157 7.17157 6.5 8 6.5ZM8 7.5C7.72386 7.5 7.5 7.72386 7.5 8C7.5 8.27614 7.72386 8.5 8 8.5C8.27614 8.5 8.5 8.27614 8.5 8C8.5 7.72386 8.27614 7.5 8 7.5Z" fill="black"/>
<path fill-rule="evenodd" clip-rule="evenodd" d="M8 2.5C8.82843 2.5 9.5 3.17157 9.5 4C9.5 4.82843 8.82843 5.5 8 5.5C7.17157 5.5 6.5 4.82843 6.5 4C6.5 3.17157 7.17157 2.5 8 2.5ZM8 3.5C7.72386 3.5 7.5 3.72386 7.5 4C7.5 4.27614 7.72386 4.5 8 4.5C8.27614 4.5 8.5 4.27614 8.5 4C8.5 3.72386 8.27614 3.5 8 3.5Z" fill="black"/>
<path fill-rule="evenodd" clip-rule="evenodd" d="M8 0.5C9.933 0.5 11.5 2.067 11.5 4V12C11.5 13.933 9.933 15.5 8 15.5C6.067 15.5 4.5 13.933 4.5 12V4C4.5 2.067 6.067 0.5 8 0.5ZM8 1.5C6.61929 1.5 5.5 2.61929 5.5 4V12C5.5 13.3807 6.61929 14.5 8 14.5C9.38071 14.5 10.5 13.3807 10.5 12V4C10.5 2.61929 9.38071 1.5 8 1.5Z" fill="black"/>
</svg>
